<?xml version="1.0" encoding="UTF-8" standalone="no"?>
<!DOCTYPE svg PUBLIC "-//W3C//DTD SVG 1.1//EN"
 "http://www.w3.org/Graphics/SVG/1.1/DTD/svg11.dtd">
<!-- Generated by graphviz version 2.38.0 (20140413.2041)
 -->
<!-- Title: pfasst::PFASST::run Pages: 1 -->
<svg width="464pt" height="121pt"
 viewBox="0.00 0.00 464.00 120.50" xmlns="http://www.w3.org/2000/svg" xmlns:xlink="http://www.w3.org/1999/xlink">
<g id="graph0" class="graph" transform="scale(1 1) rotate(0) translate(4 116.5)">
<title>pfasst::PFASST::run</title>
<polygon fill="white" stroke="none" points="-4,4 -4,-116.5 460,-116.5 460,4 -4,4"/>
<!-- Node1 -->
<g id="node1" class="node"><title>Node1</title>
<polygon fill="#bfbfbf" stroke="black" points="0,-62.5 0,-81.5 109,-81.5 109,-62.5 0,-62.5"/>
<text text-anchor="middle" x="54.5" y="-69.5" font-family="Helvetica,sans-Serif" font-size="10.00">pfasst::PFASST::run</text>
</g>
<!-- Node2 -->
<g id="node2" class="node"><title>Node2</title>
<g id="a_node2"><a xlink:href="../../da/d74/namespacepfasst_1_1examples_1_1boris.html#a0f75e9bba0cc129f1b7089130f678e92" target="_top" xlink:title="pfasst::examples::boris\l::run_boris_pfasst">
<polygon fill="white" stroke="black" points="156,-82 156,-112 277,-112 277,-82 156,-82"/>
<text text-anchor="start" x="164" y="-100" font-family="Helvetica,sans-Serif" font-size="10.00">pfasst::examples::boris</text>
<text text-anchor="middle" x="216.5" y="-89" font-family="Helvetica,sans-Serif" font-size="10.00">::run_boris_pfasst</text>
</a>
</g>
</g>
<!-- Node1&#45;&gt;Node2 -->
<g id="edge1" class="edge"><title>Node1&#45;&gt;Node2</title>
<path fill="none" stroke="midnightblue" d="M119.226,-81.9572C131.31,-83.8453 143.911,-85.8142 155.862,-87.6816"/>
<polygon fill="midnightblue" stroke="midnightblue" points="119.643,-78.48 109.223,-80.3942 118.563,-85.3961 119.643,-78.48"/>
</g>
<!-- Node3 -->
<g id="node3" class="node"><title>Node3</title>
<g id="a_node3"><a xlink:href="../../d9/d85/group__AdvectionDiffusion.html#gacf2af7cceb96a5587032bc0e83b93e00" target="_top" xlink:title="Advection/diffusion example using an encapsulated IMEX sweeper. ">
<polygon fill="white" stroke="black" points="145,-33 145,-63 288,-63 288,-33 145,-33"/>
<text text-anchor="start" x="153" y="-51" font-family="Helvetica,sans-Serif" font-size="10.00">pfasst::examples::advection</text>
<text text-anchor="middle" x="216.5" y="-40" font-family="Helvetica,sans-Serif" font-size="10.00">_diffusion::run_mpi_pfasst</text>
</a>
</g>
</g>
<!-- Node1&#45;&gt;Node3 -->
<g id="edge2" class="edge"><title>Node1&#45;&gt;Node3</title>
<path fill="none" stroke="midnightblue" d="M119.318,-62.4273C127.717,-61.1674 136.365,-59.8703 144.869,-58.5947"/>
<polygon fill="midnightblue" stroke="midnightblue" points="118.593,-58.9968 109.223,-63.9416 119.631,-65.9194 118.593,-58.9968"/>
</g>
<!-- Node4 -->
<g id="node4" class="node"><title>Node4</title>
<g id="a_node4"><a xlink:href="../../d1/d49/mpi__pfasst_8cpp.html#a3c04138a5bfe5d72780bb7e82a18e627" target="_top" xlink:title="main">
<polygon fill="white" stroke="black" points="371,-76.5 371,-95.5 409,-95.5 409,-76.5 371,-76.5"/>
<text text-anchor="middle" x="390" y="-83.5" font-family="Helvetica,sans-Serif" font-size="10.00">main</text>
</a>
</g>
</g>
<!-- Node3&#45;&gt;Node4 -->
<g id="edge3" class="edge"><title>Node3&#45;&gt;Node4</title>
<path fill="none" stroke="midnightblue" d="M295.146,-65.2044C323.23,-71.427 352.483,-77.9088 370.713,-81.948"/>
<polygon fill="midnightblue" stroke="midnightblue" points="295.802,-61.7648 285.281,-63.0186 294.287,-68.5991 295.802,-61.7648"/>
</g>
<!-- Node5 -->
<g id="node5" class="node"><title>Node5</title>
<g id="a_node5"><a xlink:href="../../d3/d6a/classConvergenceTest.html#a18a32024b87b7ee689df7e0375ea8ede" target="_top" xlink:title="ConvergenceTest::SetUp">
<polygon fill="white" stroke="black" points="324,-38.5 324,-57.5 456,-57.5 456,-38.5 324,-38.5"/>
<text text-anchor="middle" x="390" y="-45.5" font-family="Helvetica,sans-Serif" font-size="10.00">ConvergenceTest::SetUp</text>
</a>
</g>
</g>
<!-- Node3&#45;&gt;Node5 -->
<g id="edge4" class="edge"><title>Node3&#45;&gt;Node5</title>
<path fill="none" stroke="midnightblue" d="M298.283,-48C306.877,-48 315.538,-48 323.919,-48"/>
<polygon fill="midnightblue" stroke="midnightblue" points="298.246,-44.5001 288.246,-48 298.246,-51.5001 298.246,-44.5001"/>
</g>
<!-- Node6 -->
<g id="node6" class="node"><title>Node6</title>
<g id="a_node6"><a xlink:href="../../dd/db6/test__mpi__advection__diffusion_8cpp.html#a88d3a04b41904a6a44c0a94330e3389a" target="_top" xlink:title="TEST">
<polygon fill="white" stroke="black" points="368,-0.5 368,-19.5 412,-19.5 412,-0.5 368,-0.5"/>
<text text-anchor="middle" x="390" y="-7.5" font-family="Helvetica,sans-Serif" font-size="10.00">TEST</text>
</a>
</g>
</g>
<!-- Node3&#45;&gt;Node6 -->
<g id="edge5" class="edge"><title>Node3&#45;&gt;Node6</title>
<path fill="none" stroke="midnightblue" d="M295.365,-30.7472C321.859,-24.8767 349.366,-18.7819 367.653,-14.7299"/>
<polygon fill="midnightblue" stroke="midnightblue" points="294.287,-27.4009 285.281,-32.9814 295.802,-34.2352 294.287,-27.4009"/>
</g>
</g>
</svg>
