<?xml version="1.0" encoding="UTF-8" standalone="no"?>
<!DOCTYPE svg PUBLIC "-//W3C//DTD SVG 1.1//EN"
 "http://www.w3.org/Graphics/SVG/1.1/DTD/svg11.dtd">
<!-- Generated by graphviz version 2.38.0 (20140413.2041)
 -->
<!-- Title: pfasst::PFASST::set_comm Pages: 1 -->
<svg width="497pt" height="121pt"
 viewBox="0.00 0.00 497.00 120.50" xmlns="http://www.w3.org/2000/svg" xmlns:xlink="http://www.w3.org/1999/xlink">
<g id="graph0" class="graph" transform="scale(1 1) rotate(0) translate(4 116.5)">
<title>pfasst::PFASST::set_comm</title>
<polygon fill="white" stroke="none" points="-4,4 -4,-116.5 493,-116.5 493,4 -4,4"/>
<!-- Node1 -->
<g id="node1" class="node"><title>Node1</title>
<polygon fill="#bfbfbf" stroke="black" points="0,-62.5 0,-81.5 142,-81.5 142,-62.5 0,-62.5"/>
<text text-anchor="middle" x="71" y="-69.5" font-family="Helvetica,sans-Serif" font-size="10.00">pfasst::PFASST::set_comm</text>
</g>
<!-- Node2 -->
<g id="node2" class="node"><title>Node2</title>
<g id="a_node2"><a xlink:href="../../da/d74/namespacepfasst_1_1examples_1_1boris.html#a0f75e9bba0cc129f1b7089130f678e92" target="_top" xlink:title="pfasst::examples::boris\l::run_boris_pfasst">
<polygon fill="white" stroke="black" points="189,-82 189,-112 310,-112 310,-82 189,-82"/>
<text text-anchor="start" x="197" y="-100" font-family="Helvetica,sans-Serif" font-size="10.00">pfasst::examples::boris</text>
<text text-anchor="middle" x="249.5" y="-89" font-family="Helvetica,sans-Serif" font-size="10.00">::run_boris_pfasst</text>
</a>
</g>
</g>
<!-- Node1&#45;&gt;Node2 -->
<g id="edge1" class="edge"><title>Node1&#45;&gt;Node2</title>
<path fill="none" stroke="midnightblue" d="M149.31,-82.9505C162.604,-84.8334 176.234,-86.764 188.968,-88.5677"/>
<polygon fill="midnightblue" stroke="midnightblue" points="149.623,-79.4599 139.231,-81.5227 148.641,-86.3907 149.623,-79.4599"/>
</g>
<!-- Node3 -->
<g id="node3" class="node"><title>Node3</title>
<g id="a_node3"><a xlink:href="../../d9/d85/group__AdvectionDiffusion.html#gacf2af7cceb96a5587032bc0e83b93e00" target="_top" xlink:title="Advection/diffusion example using an encapsulated IMEX sweeper. ">
<polygon fill="white" stroke="black" points="178,-33 178,-63 321,-63 321,-33 178,-33"/>
<text text-anchor="start" x="186" y="-51" font-family="Helvetica,sans-Serif" font-size="10.00">pfasst::examples::advection</text>
<text text-anchor="middle" x="249.5" y="-40" font-family="Helvetica,sans-Serif" font-size="10.00">_diffusion::run_mpi_pfasst</text>
</a>
</g>
</g>
<!-- Node1&#45;&gt;Node3 -->
<g id="edge2" class="edge"><title>Node1&#45;&gt;Node3</title>
<path fill="none" stroke="midnightblue" d="M152.088,-61.1098C160.73,-59.9347 169.478,-58.7452 177.996,-57.5869"/>
<polygon fill="midnightblue" stroke="midnightblue" points="151.448,-57.6645 142.011,-62.4801 152.391,-64.6007 151.448,-57.6645"/>
</g>
<!-- Node4 -->
<g id="node4" class="node"><title>Node4</title>
<g id="a_node4"><a xlink:href="../../d1/d49/mpi__pfasst_8cpp.html#a3c04138a5bfe5d72780bb7e82a18e627" target="_top" xlink:title="main">
<polygon fill="white" stroke="black" points="404,-76.5 404,-95.5 442,-95.5 442,-76.5 404,-76.5"/>
<text text-anchor="middle" x="423" y="-83.5" font-family="Helvetica,sans-Serif" font-size="10.00">main</text>
</a>
</g>
</g>
<!-- Node3&#45;&gt;Node4 -->
<g id="edge3" class="edge"><title>Node3&#45;&gt;Node4</title>
<path fill="none" stroke="midnightblue" d="M328.146,-65.2044C356.23,-71.427 385.483,-77.9088 403.713,-81.948"/>
<polygon fill="midnightblue" stroke="midnightblue" points="328.802,-61.7648 318.281,-63.0186 327.287,-68.5991 328.802,-61.7648"/>
</g>
<!-- Node5 -->
<g id="node5" class="node"><title>Node5</title>
<g id="a_node5"><a xlink:href="../../d3/d6a/classConvergenceTest.html#a18a32024b87b7ee689df7e0375ea8ede" target="_top" xlink:title="ConvergenceTest::SetUp">
<polygon fill="white" stroke="black" points="357,-38.5 357,-57.5 489,-57.5 489,-38.5 357,-38.5"/>
<text text-anchor="middle" x="423" y="-45.5" font-family="Helvetica,sans-Serif" font-size="10.00">ConvergenceTest::SetUp</text>
</a>
</g>
</g>
<!-- Node3&#45;&gt;Node5 -->
<g id="edge4" class="edge"><title>Node3&#45;&gt;Node5</title>
<path fill="none" stroke="midnightblue" d="M331.283,-48C339.877,-48 348.538,-48 356.919,-48"/>
<polygon fill="midnightblue" stroke="midnightblue" points="331.246,-44.5001 321.246,-48 331.246,-51.5001 331.246,-44.5001"/>
</g>
<!-- Node6 -->
<g id="node6" class="node"><title>Node6</title>
<g id="a_node6"><a xlink:href="../../dd/db6/test__mpi__advection__diffusion_8cpp.html#a88d3a04b41904a6a44c0a94330e3389a" target="_top" xlink:title="TEST">
<polygon fill="white" stroke="black" points="401,-0.5 401,-19.5 445,-19.5 445,-0.5 401,-0.5"/>
<text text-anchor="middle" x="423" y="-7.5" font-family="Helvetica,sans-Serif" font-size="10.00">TEST</text>
</a>
</g>
</g>
<!-- Node3&#45;&gt;Node6 -->
<g id="edge5" class="edge"><title>Node3&#45;&gt;Node6</title>
<path fill="none" stroke="midnightblue" d="M328.365,-30.7472C354.859,-24.8767 382.366,-18.7819 400.653,-14.7299"/>
<polygon fill="midnightblue" stroke="midnightblue" points="327.287,-27.4009 318.281,-32.9814 328.802,-34.2352 327.287,-27.4009"/>
</g>
</g>
</svg>
