<?xml version="1.0" encoding="UTF-8" standalone="no"?>
<!DOCTYPE svg PUBLIC "-//W3C//DTD SVG 1.1//EN"
 "http://www.w3.org/Graphics/SVG/1.1/DTD/svg11.dtd">
<!-- Generated by graphviz version 2.38.0 (20140413.2041)
 -->
<!-- Title: pfasst::PFASST::cycle_bottom Pages: 1 -->
<svg width="260pt" height="39pt"
 viewBox="0.00 0.00 260.00 39.00" xmlns="http://www.w3.org/2000/svg" xmlns:xlink="http://www.w3.org/1999/xlink">
<g id="graph0" class="graph" transform="scale(1 1) rotate(0) translate(4 35)">
<title>pfasst::PFASST::cycle_bottom</title>
<polygon fill="white" stroke="none" points="-4,4 -4,-35 256,-35 256,4 -4,4"/>
<!-- Node1 -->
<g id="node1" class="node"><title>Node1</title>
<polygon fill="#bfbfbf" stroke="black" points="0,-0.5 0,-30.5 119,-30.5 119,-0.5 0,-0.5"/>
<text text-anchor="start" x="8" y="-18.5" font-family="Helvetica,sans-Serif" font-size="10.00">pfasst::PFASST::cycle</text>
<text text-anchor="middle" x="59.5" y="-7.5" font-family="Helvetica,sans-Serif" font-size="10.00">_bottom</text>
</g>
<!-- Node2 -->
<g id="node2" class="node"><title>Node2</title>
<g id="a_node2"><a xlink:href="../../d8/def/classpfasst_1_1Controller_1_1LevelIter.html#a391826a3a28d4708624b2e8280d7dacb" target="_top" xlink:title="Get level this iterator is currently pointing at. ">
<polygon fill="white" stroke="black" points="155,-0.5 155,-30.5 252,-30.5 252,-0.5 155,-0.5"/>
<text text-anchor="start" x="163" y="-18.5" font-family="Helvetica,sans-Serif" font-size="10.00">pfasst::Controller</text>
<text text-anchor="middle" x="203.5" y="-7.5" font-family="Helvetica,sans-Serif" font-size="10.00">::LevelIter::current</text>
</a>
</g>
</g>
<!-- Node1&#45;&gt;Node2 -->
<g id="edge1" class="edge"><title>Node1&#45;&gt;Node2</title>
<path fill="none" stroke="midnightblue" d="M119.077,-15.5C127.55,-15.5 136.266,-15.5 144.723,-15.5"/>
<polygon fill="midnightblue" stroke="midnightblue" points="144.877,-19.0001 154.877,-15.5 144.877,-12.0001 144.877,-19.0001"/>
</g>
</g>
</svg>
