<?xml version="1.0" encoding="UTF-8" standalone="no"?>
<!DOCTYPE svg PUBLIC "-//W3C//DTD SVG 1.1//EN"
 "http://www.w3.org/Graphics/SVG/1.1/DTD/svg11.dtd">
<!-- Generated by graphviz version 2.38.0 (20140413.2041)
 -->
<!-- Title: pfasst::PFASST::cycle_down Pages: 1 -->
<svg width="293pt" height="137pt"
 viewBox="0.00 0.00 293.00 137.00" xmlns="http://www.w3.org/2000/svg" xmlns:xlink="http://www.w3.org/1999/xlink">
<g id="graph0" class="graph" transform="scale(1 1) rotate(0) translate(4 133)">
<title>pfasst::PFASST::cycle_down</title>
<polygon fill="white" stroke="none" points="-4,4 -4,-133 289,-133 289,4 -4,4"/>
<!-- Node1 -->
<g id="node1" class="node"><title>Node1</title>
<polygon fill="#bfbfbf" stroke="black" points="0,-55 0,-74 149,-74 149,-55 0,-55"/>
<text text-anchor="middle" x="74.5" y="-62" font-family="Helvetica,sans-Serif" font-size="10.00">pfasst::PFASST::cycle_down</text>
</g>
<!-- Node2 -->
<g id="node2" class="node"><title>Node2</title>
<g id="a_node2"><a xlink:href="../../d8/def/classpfasst_1_1Controller_1_1LevelIter.html#a30ca3967dfc319949236bd5f22ec42f5" target="_top" xlink:title="Get the next coarser level based on LevelIter::current() ">
<polygon fill="white" stroke="black" points="186,-98.5 186,-128.5 284,-128.5 284,-98.5 186,-98.5"/>
<text text-anchor="start" x="194" y="-116.5" font-family="Helvetica,sans-Serif" font-size="10.00">pfasst::Controller</text>
<text text-anchor="middle" x="235" y="-105.5" font-family="Helvetica,sans-Serif" font-size="10.00">::LevelIter::coarse</text>
</a>
</g>
</g>
<!-- Node1&#45;&gt;Node2 -->
<g id="edge1" class="edge"><title>Node1&#45;&gt;Node2</title>
<path fill="none" stroke="midnightblue" d="M106.437,-74.064C126.311,-80.2082 152.741,-88.3789 176.388,-95.6892"/>
<polygon fill="midnightblue" stroke="midnightblue" points="175.391,-99.0445 185.978,-98.6542 177.458,-92.3567 175.391,-99.0445"/>
</g>
<!-- Node3 -->
<g id="node3" class="node"><title>Node3</title>
<g id="a_node3"><a xlink:href="../../d8/def/classpfasst_1_1Controller_1_1LevelIter.html#a391826a3a28d4708624b2e8280d7dacb" target="_top" xlink:title="Get level this iterator is currently pointing at. ">
<polygon fill="white" stroke="black" points="186.5,-49.5 186.5,-79.5 283.5,-79.5 283.5,-49.5 186.5,-49.5"/>
<text text-anchor="start" x="194.5" y="-67.5" font-family="Helvetica,sans-Serif" font-size="10.00">pfasst::Controller</text>
<text text-anchor="middle" x="235" y="-56.5" font-family="Helvetica,sans-Serif" font-size="10.00">::LevelIter::current</text>
</a>
</g>
</g>
<!-- Node1&#45;&gt;Node3 -->
<g id="edge2" class="edge"><title>Node1&#45;&gt;Node3</title>
<path fill="none" stroke="midnightblue" d="M149.182,-64.5C158.246,-64.5 167.408,-64.5 176.191,-64.5"/>
<polygon fill="midnightblue" stroke="midnightblue" points="176.297,-68.0001 186.297,-64.5 176.297,-61.0001 176.297,-68.0001"/>
</g>
<!-- Node4 -->
<g id="node4" class="node"><title>Node4</title>
<g id="a_node4"><a xlink:href="../../d8/def/classpfasst_1_1Controller_1_1LevelIter.html#a60ab53d414ef85f97a752f3339ec1b73" target="_top" xlink:title="Get transfer operator for current level. ">
<polygon fill="white" stroke="black" points="185,-0.5 185,-30.5 285,-30.5 285,-0.5 185,-0.5"/>
<text text-anchor="start" x="193" y="-18.5" font-family="Helvetica,sans-Serif" font-size="10.00">pfasst::Controller</text>
<text text-anchor="middle" x="235" y="-7.5" font-family="Helvetica,sans-Serif" font-size="10.00">::LevelIter::transfer</text>
</a>
</g>
</g>
<!-- Node1&#45;&gt;Node4 -->
<g id="edge3" class="edge"><title>Node1&#45;&gt;Node4</title>
<path fill="none" stroke="midnightblue" d="M106.437,-54.936C126.065,-48.8679 152.088,-40.823 175.508,-33.5826"/>
<polygon fill="midnightblue" stroke="midnightblue" points="176.84,-36.8345 185.36,-30.537 174.772,-30.1467 176.84,-36.8345"/>
</g>
</g>
</svg>
