<?xml version="1.0" encoding="UTF-8" standalone="no"?>
<!DOCTYPE svg PUBLIC "-//W3C//DTD SVG 1.1//EN"
 "http://www.w3.org/Graphics/SVG/1.1/DTD/svg11.dtd">
<!-- Generated by graphviz version 2.38.0 (20140413.2041)
 -->
<!-- Title: pfasst::PFASST::cycle_up Pages: 1 -->
<svg width="279pt" height="137pt"
 viewBox="0.00 0.00 279.00 137.00" xmlns="http://www.w3.org/2000/svg" xmlns:xlink="http://www.w3.org/1999/xlink">
<g id="graph0" class="graph" transform="scale(1 1) rotate(0) translate(4 133)">
<title>pfasst::PFASST::cycle_up</title>
<polygon fill="white" stroke="none" points="-4,4 -4,-133 275,-133 275,4 -4,4"/>
<!-- Node1 -->
<g id="node1" class="node"><title>Node1</title>
<polygon fill="#bfbfbf" stroke="black" points="0,-55 0,-74 135,-74 135,-55 0,-55"/>
<text text-anchor="middle" x="67.5" y="-62" font-family="Helvetica,sans-Serif" font-size="10.00">pfasst::PFASST::cycle_up</text>
</g>
<!-- Node2 -->
<g id="node2" class="node"><title>Node2</title>
<g id="a_node2"><a xlink:href="../../d8/def/classpfasst_1_1Controller_1_1LevelIter.html#a30ca3967dfc319949236bd5f22ec42f5" target="_top" xlink:title="Get the next coarser level based on LevelIter::current() ">
<polygon fill="white" stroke="black" points="172,-98.5 172,-128.5 270,-128.5 270,-98.5 172,-98.5"/>
<text text-anchor="start" x="180" y="-116.5" font-family="Helvetica,sans-Serif" font-size="10.00">pfasst::Controller</text>
<text text-anchor="middle" x="221" y="-105.5" font-family="Helvetica,sans-Serif" font-size="10.00">::LevelIter::coarse</text>
</a>
</g>
</g>
<!-- Node1&#45;&gt;Node2 -->
<g id="edge1" class="edge"><title>Node1&#45;&gt;Node2</title>
<path fill="none" stroke="midnightblue" d="M98.0704,-74.064C116.748,-80.105 141.483,-88.1052 163.791,-95.3204"/>
<polygon fill="midnightblue" stroke="midnightblue" points="162.916,-98.7158 173.508,-98.463 165.071,-92.0554 162.916,-98.7158"/>
</g>
<!-- Node3 -->
<g id="node3" class="node"><title>Node3</title>
<g id="a_node3"><a xlink:href="../../d8/def/classpfasst_1_1Controller_1_1LevelIter.html#a391826a3a28d4708624b2e8280d7dacb" target="_top" xlink:title="Get level this iterator is currently pointing at. ">
<polygon fill="white" stroke="black" points="172.5,-49.5 172.5,-79.5 269.5,-79.5 269.5,-49.5 172.5,-49.5"/>
<text text-anchor="start" x="180.5" y="-67.5" font-family="Helvetica,sans-Serif" font-size="10.00">pfasst::Controller</text>
<text text-anchor="middle" x="221" y="-56.5" font-family="Helvetica,sans-Serif" font-size="10.00">::LevelIter::current</text>
</a>
</g>
</g>
<!-- Node1&#45;&gt;Node3 -->
<g id="edge2" class="edge"><title>Node1&#45;&gt;Node3</title>
<path fill="none" stroke="midnightblue" d="M135.391,-64.5C144.279,-64.5 153.332,-64.5 162.051,-64.5"/>
<polygon fill="midnightblue" stroke="midnightblue" points="162.103,-68.0001 172.103,-64.5 162.103,-61.0001 162.103,-68.0001"/>
</g>
<!-- Node4 -->
<g id="node4" class="node"><title>Node4</title>
<g id="a_node4"><a xlink:href="../../d8/def/classpfasst_1_1Controller_1_1LevelIter.html#a60ab53d414ef85f97a752f3339ec1b73" target="_top" xlink:title="Get transfer operator for current level. ">
<polygon fill="white" stroke="black" points="171,-0.5 171,-30.5 271,-30.5 271,-0.5 171,-0.5"/>
<text text-anchor="start" x="179" y="-18.5" font-family="Helvetica,sans-Serif" font-size="10.00">pfasst::Controller</text>
<text text-anchor="middle" x="221" y="-7.5" font-family="Helvetica,sans-Serif" font-size="10.00">::LevelIter::transfer</text>
</a>
</g>
</g>
<!-- Node1&#45;&gt;Node4 -->
<g id="edge3" class="edge"><title>Node1&#45;&gt;Node4</title>
<path fill="none" stroke="midnightblue" d="M98.0704,-54.936C116.748,-48.895 141.483,-40.8948 163.791,-33.6796"/>
<polygon fill="midnightblue" stroke="midnightblue" points="165.071,-36.9446 173.508,-30.537 162.916,-30.2842 165.071,-36.9446"/>
</g>
</g>
</svg>
