<?xml version="1.0" encoding="UTF-8" standalone="no"?>
<!DOCTYPE svg PUBLIC "-//W3C//DTD SVG 1.1//EN"
 "http://www.w3.org/Graphics/SVG/1.1/DTD/svg11.dtd">
<!-- Generated by graphviz version 2.38.0 (20140413.2041)
 -->
<!-- Title: include/pfasst/logging.hpp Pages: 1 -->
<svg width="555pt" height="196pt"
 viewBox="0.00 0.00 554.50 196.00" xmlns="http://www.w3.org/2000/svg" xmlns:xlink="http://www.w3.org/1999/xlink">
<g id="graph0" class="graph" transform="scale(1 1) rotate(0) translate(4 192)">
<title>include/pfasst/logging.hpp</title>
<polygon fill="white" stroke="none" points="-4,4 -4,-192 550.5,-192 550.5,4 -4,4"/>
<!-- Node1 -->
<g id="node1" class="node"><title>Node1</title>
<polygon fill="#bfbfbf" stroke="black" points="88.5,-168.5 88.5,-187.5 221.5,-187.5 221.5,-168.5 88.5,-168.5"/>
<text text-anchor="middle" x="155" y="-175.5" font-family="Helvetica,sans-Serif" font-size="10.00">include/pfasst/logging.hpp</text>
</g>
<!-- Node2 -->
<g id="node2" class="node"><title>Node2</title>
<polygon fill="white" stroke="#bfbfbf" points="0,-112.5 0,-131.5 52,-131.5 52,-112.5 0,-112.5"/>
<text text-anchor="middle" x="26" y="-119.5" font-family="Helvetica,sans-Serif" font-size="10.00">iomanip</text>
</g>
<!-- Node1&#45;&gt;Node2 -->
<g id="edge1" class="edge"><title>Node1&#45;&gt;Node2</title>
<path fill="none" stroke="midnightblue" d="M134.56,-168.444C113.33,-159.557 79.901,-145.563 55.745,-135.451"/>
<polygon fill="midnightblue" stroke="midnightblue" points="56.9207,-132.149 46.3448,-131.516 54.2177,-138.606 56.9207,-132.149"/>
</g>
<!-- Node3 -->
<g id="node3" class="node"><title>Node3</title>
<polygon fill="white" stroke="#bfbfbf" points="23,-56.5 23,-75.5 79,-75.5 79,-56.5 23,-56.5"/>
<text text-anchor="middle" x="51" y="-63.5" font-family="Helvetica,sans-Serif" font-size="10.00">iostream</text>
</g>
<!-- Node1&#45;&gt;Node3 -->
<g id="edge2" class="edge"><title>Node1&#45;&gt;Node3</title>
<path fill="none" stroke="midnightblue" d="M146.839,-168.368C129.448,-149.974 88.5073,-106.671 66.1763,-83.0519"/>
<polygon fill="midnightblue" stroke="midnightblue" points="68.5362,-80.4534 59.1228,-75.5914 63.4497,-85.2625 68.5362,-80.4534"/>
</g>
<!-- Node4 -->
<g id="node4" class="node"><title>Node4</title>
<polygon fill="white" stroke="#bfbfbf" points="97.5,-56.5 97.5,-75.5 138.5,-75.5 138.5,-56.5 97.5,-56.5"/>
<text text-anchor="middle" x="118" y="-63.5" font-family="Helvetica,sans-Serif" font-size="10.00">string</text>
</g>
<!-- Node1&#45;&gt;Node4 -->
<g id="edge3" class="edge"><title>Node1&#45;&gt;Node4</title>
<path fill="none" stroke="midnightblue" d="M151.301,-168.466C147.475,-159.483 141.449,-144.885 137,-132 131.664,-116.546 126.519,-98.7011 122.932,-85.6234"/>
<polygon fill="midnightblue" stroke="midnightblue" points="126.297,-84.6606 120.315,-75.9164 119.538,-86.4827 126.297,-84.6606"/>
</g>
<!-- Node5 -->
<g id="node5" class="node"><title>Node5</title>
<polygon fill="white" stroke="#bfbfbf" points="255.5,-112.5 255.5,-131.5 386.5,-131.5 386.5,-112.5 255.5,-112.5"/>
<text text-anchor="middle" x="321" y="-119.5" font-family="Helvetica,sans-Serif" font-size="10.00">boost/algorithm/string.hpp</text>
</g>
<!-- Node1&#45;&gt;Node5 -->
<g id="edge4" class="edge"><title>Node1&#45;&gt;Node5</title>
<path fill="none" stroke="midnightblue" d="M181.303,-168.444C209.351,-159.32 253.944,-144.813 285.184,-134.651"/>
<polygon fill="midnightblue" stroke="midnightblue" points="286.393,-137.938 294.82,-131.516 284.228,-131.282 286.393,-137.938"/>
</g>
<!-- Node6 -->
<g id="node6" class="node"><title>Node6</title>
<g id="a_node6"><a xlink:href="../../d8/dfd/config_8hpp.html" target="_top" xlink:title="pfasst/config.hpp">
<polygon fill="white" stroke="black" points="146.5,-112.5 146.5,-131.5 237.5,-131.5 237.5,-112.5 146.5,-112.5"/>
<text text-anchor="middle" x="192" y="-119.5" font-family="Helvetica,sans-Serif" font-size="10.00">pfasst/config.hpp</text>
</a>
</g>
</g>
<!-- Node1&#45;&gt;Node6 -->
<g id="edge5" class="edge"><title>Node1&#45;&gt;Node6</title>
<path fill="none" stroke="midnightblue" d="M161.11,-168.083C166.282,-160.534 173.846,-149.495 180.194,-140.23"/>
<polygon fill="midnightblue" stroke="midnightblue" points="183.239,-141.979 186.004,-131.751 177.464,-138.022 183.239,-141.979"/>
</g>
<!-- Node13 -->
<g id="node13" class="node"><title>Node13</title>
<polygon fill="white" stroke="#bfbfbf" points="405,-112.5 405,-131.5 527,-131.5 527,-112.5 405,-112.5"/>
<text text-anchor="middle" x="466" y="-119.5" font-family="Helvetica,sans-Serif" font-size="10.00">pfasst/easylogging++.h</text>
</g>
<!-- Node1&#45;&gt;Node13 -->
<g id="edge16" class="edge"><title>Node1&#45;&gt;Node13</title>
<path fill="none" stroke="midnightblue" d="M204.279,-168.444C259.328,-158.885 348.399,-143.419 407.084,-133.23"/>
<polygon fill="midnightblue" stroke="midnightblue" points="407.698,-136.676 416.952,-131.516 406.5,-129.779 407.698,-136.676"/>
</g>
<!-- Node6&#45;&gt;Node3 -->
<g id="edge7" class="edge"><title>Node6&#45;&gt;Node3</title>
<path fill="none" stroke="midnightblue" d="M169.658,-112.444C146.247,-103.478 109.264,-89.314 82.8104,-79.1827"/>
<polygon fill="midnightblue" stroke="midnightblue" points="83.8277,-75.8245 73.2373,-75.5164 81.3241,-82.3615 83.8277,-75.8245"/>
</g>
<!-- Node6&#45;&gt;Node4 -->
<g id="edge8" class="edge"><title>Node6&#45;&gt;Node4</title>
<path fill="none" stroke="midnightblue" d="M180.111,-112.324C168.85,-104.107 151.713,-91.6017 138.291,-81.8069"/>
<polygon fill="midnightblue" stroke="midnightblue" points="140.247,-78.9014 130.106,-75.8339 136.12,-84.5559 140.247,-78.9014"/>
</g>
<!-- Node7 -->
<g id="node7" class="node"><title>Node7</title>
<polygon fill="white" stroke="#bfbfbf" points="358,-0.5 358,-19.5 408,-19.5 408,-0.5 358,-0.5"/>
<text text-anchor="middle" x="383" y="-7.5" font-family="Helvetica,sans-Serif" font-size="10.00">fstream</text>
</g>
<!-- Node6&#45;&gt;Node7 -->
<g id="edge6" class="edge"><title>Node6&#45;&gt;Node7</title>
<path fill="none" stroke="midnightblue" d="M237.847,-113.364C280.609,-105.411 340.377,-91.9041 358,-76 371.304,-63.9937 377.583,-44.1011 380.512,-29.4789"/>
<polygon fill="midnightblue" stroke="midnightblue" points="383.976,-29.9803 382.159,-19.5425 377.071,-28.8352 383.976,-29.9803"/>
</g>
<!-- Node8 -->
<g id="node8" class="node"><title>Node8</title>
<polygon fill="white" stroke="#bfbfbf" points="157,-56.5 157,-75.5 193,-75.5 193,-56.5 157,-56.5"/>
<text text-anchor="middle" x="175" y="-63.5" font-family="Helvetica,sans-Serif" font-size="10.00">map</text>
</g>
<!-- Node6&#45;&gt;Node8 -->
<g id="edge9" class="edge"><title>Node6&#45;&gt;Node8</title>
<path fill="none" stroke="midnightblue" d="M189.193,-112.083C186.915,-104.849 183.629,-94.4087 180.792,-85.3968"/>
<polygon fill="midnightblue" stroke="midnightblue" points="184.096,-84.2385 177.755,-75.7511 177.419,-86.3406 184.096,-84.2385"/>
</g>
<!-- Node9 -->
<g id="node9" class="node"><title>Node9</title>
<polygon fill="white" stroke="#bfbfbf" points="211.5,-56.5 211.5,-75.5 348.5,-75.5 348.5,-56.5 211.5,-56.5"/>
<text text-anchor="middle" x="280" y="-63.5" font-family="Helvetica,sans-Serif" font-size="10.00">boost/program_options.hpp</text>
</g>
<!-- Node6&#45;&gt;Node9 -->
<g id="edge10" class="edge"><title>Node6&#45;&gt;Node9</title>
<path fill="none" stroke="midnightblue" d="M206.139,-112.324C219.866,-103.9 240.936,-90.9709 257.064,-81.0741"/>
<polygon fill="midnightblue" stroke="midnightblue" points="259.204,-83.8678 265.896,-75.6545 255.543,-77.9016 259.204,-83.8678"/>
</g>
<!-- Node10 -->
<g id="node10" class="node"><title>Node10</title>
<g id="a_node10"><a xlink:href="../../d5/d84/config__impl_8hpp.html" target="_top" xlink:title="pfasst/config_impl.hpp">
<polygon fill="white" stroke="black" points="405,-56.5 405,-75.5 519,-75.5 519,-56.5 405,-56.5"/>
<text text-anchor="middle" x="462" y="-63.5" font-family="Helvetica,sans-Serif" font-size="10.00">pfasst/config_impl.hpp</text>
</a>
</g>
</g>
<!-- Node6&#45;&gt;Node10 -->
<g id="edge11" class="edge"><title>Node6&#45;&gt;Node10</title>
<path fill="none" stroke="midnightblue" d="M229.694,-112.444C275.106,-102.944 351.649,-87.611 404.441,-77.4198"/>
<polygon fill="midnightblue" stroke="midnightblue" points="405.179,-80.8422 414.338,-75.5164 403.857,-73.9682 405.179,-80.8422"/>
</g>
<!-- Node10&#45;&gt;Node6 -->
<g id="edge12" class="edge"><title>Node10&#45;&gt;Node6</title>
<path fill="none" stroke="midnightblue" d="M424.258,-75.5666C378.274,-85.185 300.42,-100.776 247.596,-110.959"/>
<polygon fill="midnightblue" stroke="midnightblue" points="246.871,-107.534 237.71,-112.857 248.191,-114.408 246.871,-107.534"/>
</g>
<!-- Node10&#45;&gt;Node7 -->
<g id="edge13" class="edge"><title>Node10&#45;&gt;Node7</title>
<path fill="none" stroke="midnightblue" d="M449.307,-56.324C437.099,-47.979 418.422,-35.2122 403.997,-25.3524"/>
<polygon fill="midnightblue" stroke="midnightblue" points="405.892,-22.4082 395.661,-19.6545 401.942,-28.1871 405.892,-22.4082"/>
</g>
<!-- Node11 -->
<g id="node11" class="node"><title>Node11</title>
<polygon fill="white" stroke="#bfbfbf" points="493.5,-0.5 493.5,-19.5 546.5,-19.5 546.5,-0.5 493.5,-0.5"/>
<text text-anchor="middle" x="520" y="-7.5" font-family="Helvetica,sans-Serif" font-size="10.00">sstream</text>
</g>
<!-- Node10&#45;&gt;Node11 -->
<g id="edge14" class="edge"><title>Node10&#45;&gt;Node11</title>
<path fill="none" stroke="midnightblue" d="M471.319,-56.324C479.893,-48.3414 492.812,-36.3128 503.188,-26.6529"/>
<polygon fill="midnightblue" stroke="midnightblue" points="505.578,-29.2098 510.512,-19.8339 500.808,-24.0865 505.578,-29.2098"/>
</g>
<!-- Node12 -->
<g id="node12" class="node"><title>Node12</title>
<polygon fill="white" stroke="#bfbfbf" points="437,-0.5 437,-19.5 475,-19.5 475,-0.5 437,-0.5"/>
<text text-anchor="middle" x="456" y="-7.5" font-family="Helvetica,sans-Serif" font-size="10.00">utility</text>
</g>
<!-- Node10&#45;&gt;Node12 -->
<g id="edge15" class="edge"><title>Node10&#45;&gt;Node12</title>
<path fill="none" stroke="midnightblue" d="M461.009,-56.083C460.214,-48.9272 459.071,-38.6353 458.077,-29.6911"/>
<polygon fill="midnightblue" stroke="midnightblue" points="461.555,-29.3034 456.972,-19.7511 454.598,-30.0765 461.555,-29.3034"/>
</g>
</g>
</svg>
