<?xml version="1.0" encoding="UTF-8" standalone="no"?>
<!DOCTYPE svg PUBLIC "-//W3C//DTD SVG 1.1//EN"
 "http://www.w3.org/Graphics/SVG/1.1/DTD/svg11.dtd">
<!-- Generated by graphviz version 2.38.0 (20140413.2041)
 -->
<!-- Title: src/pfasst/encap/encapsulation_impl.hpp Pages: 1 -->
<svg width="2028pt" height="463pt"
 viewBox="0.00 0.00 2027.50 463.00" xmlns="http://www.w3.org/2000/svg" xmlns:xlink="http://www.w3.org/1999/xlink">
<g id="graph0" class="graph" transform="scale(1 1) rotate(0) translate(4 459)">
<title>src/pfasst/encap/encapsulation_impl.hpp</title>
<polygon fill="white" stroke="none" points="-4,4 -4,-459 2023.5,-459 2023.5,4 -4,4"/>
<!-- Node1 -->
<g id="node1" class="node"><title>Node1</title>
<polygon fill="#bfbfbf" stroke="black" points="876,-424.5 876,-454.5 1031,-454.5 1031,-424.5 876,-424.5"/>
<text text-anchor="start" x="884" y="-442.5" font-family="Helvetica,sans-Serif" font-size="10.00">src/pfasst/encap/encapsulation</text>
<text text-anchor="middle" x="953.5" y="-431.5" font-family="Helvetica,sans-Serif" font-size="10.00">_impl.hpp</text>
</g>
<!-- Node2 -->
<g id="node2" class="node"><title>Node2</title>
<g id="a_node2"><a xlink:href="../../d8/d85/encapsulation_8hpp.html" target="_top" xlink:title="include/pfasst/encap\l/encapsulation.hpp">
<polygon fill="white" stroke="black" points="899,-357.5 899,-387.5 1008,-387.5 1008,-357.5 899,-357.5"/>
<text text-anchor="start" x="907" y="-375.5" font-family="Helvetica,sans-Serif" font-size="10.00">include/pfasst/encap</text>
<text text-anchor="middle" x="953.5" y="-364.5" font-family="Helvetica,sans-Serif" font-size="10.00">/encapsulation.hpp</text>
</a>
</g>
</g>
<!-- Node1&#45;&gt;Node2 -->
<g id="edge1" class="edge"><title>Node1&#45;&gt;Node2</title>
<path fill="none" stroke="midnightblue" d="M946.955,-414.403C946.505,-405.37 946.796,-395.408 947.825,-387.577"/>
<polygon fill="midnightblue" stroke="midnightblue" points="943.47,-414.736 947.822,-424.396 950.444,-414.131 943.47,-414.736"/>
</g>
<!-- Node2&#45;&gt;Node1 -->
<g id="edge52" class="edge"><title>Node2&#45;&gt;Node1</title>
<path fill="none" stroke="midnightblue" d="M960.044,-397.565C960.495,-406.596 960.206,-416.56 959.178,-424.396"/>
<polygon fill="midnightblue" stroke="midnightblue" points="963.528,-397.236 959.175,-387.577 956.555,-397.842 963.528,-397.236"/>
</g>
<!-- Node3 -->
<g id="node3" class="node"><title>Node3</title>
<g id="a_node3"><a xlink:href="../../de/deb/encap__sweeper_8hpp.html" target="_top" xlink:title="include/pfasst/encap\l/encap_sweeper.hpp">
<polygon fill="white" stroke="black" points="1006.5,-290.5 1006.5,-320.5 1116.5,-320.5 1116.5,-290.5 1006.5,-290.5"/>
<text text-anchor="start" x="1014.5" y="-308.5" font-family="Helvetica,sans-Serif" font-size="10.00">include/pfasst/encap</text>
<text text-anchor="middle" x="1061.5" y="-297.5" font-family="Helvetica,sans-Serif" font-size="10.00">/encap_sweeper.hpp</text>
</a>
</g>
</g>
<!-- Node2&#45;&gt;Node3 -->
<g id="edge2" class="edge"><title>Node2&#45;&gt;Node3</title>
<path fill="none" stroke="midnightblue" d="M985.875,-352.015C1002.68,-341.9 1022.84,-329.77 1038.11,-320.577"/>
<polygon fill="midnightblue" stroke="midnightblue" points="983.697,-349.241 976.934,-357.396 987.307,-355.238 983.697,-349.241"/>
</g>
<!-- Node4 -->
<g id="node4" class="node"><title>Node4</title>
<g id="a_node4"><a xlink:href="../../d1/d6f/imex__sweeper_8hpp.html" target="_top" xlink:title="include/pfasst/encap\l/imex_sweeper.hpp">
<polygon fill="white" stroke="black" points="899,-223.5 899,-253.5 1008,-253.5 1008,-223.5 899,-223.5"/>
<text text-anchor="start" x="907" y="-241.5" font-family="Helvetica,sans-Serif" font-size="10.00">include/pfasst/encap</text>
<text text-anchor="middle" x="953.5" y="-230.5" font-family="Helvetica,sans-Serif" font-size="10.00">/imex_sweeper.hpp</text>
</a>
</g>
</g>
<!-- Node2&#45;&gt;Node4 -->
<g id="edge35" class="edge"><title>Node2&#45;&gt;Node4</title>
<path fill="none" stroke="midnightblue" d="M953.5,-347.024C953.5,-319.512 953.5,-275.789 953.5,-253.525"/>
<polygon fill="midnightblue" stroke="midnightblue" points="950,-347.374 953.5,-357.374 957,-347.374 950,-347.374"/>
</g>
<!-- Node12 -->
<g id="node12" class="node"><title>Node12</title>
<g id="a_node12"><a xlink:href="../../d7/daf/implicit__sweeper_8hpp.html" target="_top" xlink:title="include/pfasst/encap\l/implicit_sweeper.hpp">
<polygon fill="white" stroke="black" points="755.5,-223.5 755.5,-253.5 867.5,-253.5 867.5,-223.5 755.5,-223.5"/>
<text text-anchor="start" x="763.5" y="-241.5" font-family="Helvetica,sans-Serif" font-size="10.00">include/pfasst/encap</text>
<text text-anchor="middle" x="811.5" y="-230.5" font-family="Helvetica,sans-Serif" font-size="10.00">/implicit_sweeper.hpp</text>
</a>
</g>
</g>
<!-- Node2&#45;&gt;Node12 -->
<g id="edge36" class="edge"><title>Node2&#45;&gt;Node12</title>
<path fill="none" stroke="midnightblue" d="M930.635,-350.245C901.373,-323.044 851.497,-276.68 826.587,-253.525"/>
<polygon fill="midnightblue" stroke="midnightblue" points="928.596,-353.129 938.304,-357.374 933.362,-348.002 928.596,-353.129"/>
</g>
<!-- Node18 -->
<g id="node18" class="node"><title>Node18</title>
<g id="a_node18"><a xlink:href="../../d0/d45/poly__interp_8hpp.html" target="_top" xlink:title="include/pfasst/encap\l/poly_interp.hpp">
<polygon fill="white" stroke="black" points="0,-151 0,-181 109,-181 109,-151 0,-151"/>
<text text-anchor="start" x="8" y="-169" font-family="Helvetica,sans-Serif" font-size="10.00">include/pfasst/encap</text>
<text text-anchor="middle" x="54.5" y="-158" font-family="Helvetica,sans-Serif" font-size="10.00">/poly_interp.hpp</text>
</a>
</g>
</g>
<!-- Node2&#45;&gt;Node18 -->
<g id="edge37" class="edge"><title>Node2&#45;&gt;Node18</title>
<path fill="none" stroke="midnightblue" d="M888.529,-372.104C705.67,-372.419 192.227,-363.34 73.5,-254 53.2572,-235.358 51.9788,-200.579 53.079,-181.116"/>
<polygon fill="midnightblue" stroke="midnightblue" points="888.809,-375.604 898.799,-372.076 888.789,-368.604 888.809,-375.604"/>
</g>
<!-- Node23 -->
<g id="node23" class="node"><title>Node23</title>
<g id="a_node23"><a xlink:href="../../d2/dc5/injective__transfer_8hpp.html" target="_top" xlink:title="examples/boris/injective\l_transfer.hpp">
<polygon fill="white" stroke="black" points="1811,-73 1811,-103 1936,-103 1936,-73 1811,-73"/>
<text text-anchor="start" x="1819" y="-91" font-family="Helvetica,sans-Serif" font-size="10.00">examples/boris/injective</text>
<text text-anchor="middle" x="1873.5" y="-80" font-family="Helvetica,sans-Serif" font-size="10.00">_transfer.hpp</text>
</a>
</g>
</g>
<!-- Node2&#45;&gt;Node23 -->
<g id="edge74" class="edge"><title>Node2&#45;&gt;Node23</title>
<path fill="none" stroke="midnightblue" d="M1018.42,-369.163C1153.03,-363.815 1458.32,-348.941 1558.5,-321 1677.3,-287.868 1710.94,-270.726 1801.5,-187 1829.25,-161.345 1853.39,-123.654 1865.41,-103.302"/>
<polygon fill="midnightblue" stroke="midnightblue" points="1018.11,-365.672 1008.26,-369.561 1018.39,-372.667 1018.11,-365.672"/>
</g>
<!-- Node26 -->
<g id="node26" class="node"><title>Node26</title>
<g id="a_node26"><a xlink:href="../../da/d16/vector_8hpp.html" target="_top" xlink:title="include/pfasst/encap\l/vector.hpp">
<polygon fill="white" stroke="black" points="444,-223.5 444,-253.5 553,-253.5 553,-223.5 444,-223.5"/>
<text text-anchor="start" x="452" y="-241.5" font-family="Helvetica,sans-Serif" font-size="10.00">include/pfasst/encap</text>
<text text-anchor="middle" x="498.5" y="-230.5" font-family="Helvetica,sans-Serif" font-size="10.00">/vector.hpp</text>
</a>
</g>
</g>
<!-- Node2&#45;&gt;Node26 -->
<g id="edge38" class="edge"><title>Node2&#45;&gt;Node26</title>
<path fill="none" stroke="midnightblue" d="M895.4,-354.645C804.741,-328.344 631.297,-278.026 546.952,-253.556"/>
<polygon fill="midnightblue" stroke="midnightblue" points="894.659,-358.074 905.238,-357.499 896.609,-351.351 894.659,-358.074"/>
</g>
<!-- Node29 -->
<g id="node29" class="node"><title>Node29</title>
<g id="a_node29"><a xlink:href="../../d8/d52/particle__cloud_8hpp.html" target="_top" xlink:title="examples/boris/particle\l_cloud.hpp">
<polygon fill="white" stroke="black" points="1429,-290.5 1429,-320.5 1550,-320.5 1550,-290.5 1429,-290.5"/>
<text text-anchor="start" x="1437" y="-308.5" font-family="Helvetica,sans-Serif" font-size="10.00">examples/boris/particle</text>
<text text-anchor="middle" x="1489.5" y="-297.5" font-family="Helvetica,sans-Serif" font-size="10.00">_cloud.hpp</text>
</a>
</g>
</g>
<!-- Node2&#45;&gt;Node29 -->
<g id="edge53" class="edge"><title>Node2&#45;&gt;Node29</title>
<path fill="none" stroke="midnightblue" d="M1018.44,-363.625C1122.89,-350.958 1326.78,-326.232 1428.6,-313.885"/>
<polygon fill="midnightblue" stroke="midnightblue" points="1017.85,-360.171 1008.34,-364.849 1018.69,-367.12 1017.85,-360.171"/>
</g>
<!-- Node3&#45;&gt;Node4 -->
<g id="edge3" class="edge"><title>Node3&#45;&gt;Node4</title>
<path fill="none" stroke="midnightblue" d="M1029.13,-285.015C1012.32,-274.9 992.164,-262.77 976.889,-253.577"/>
<polygon fill="midnightblue" stroke="midnightblue" points="1027.69,-288.238 1038.07,-290.396 1031.3,-282.241 1027.69,-288.238"/>
</g>
<!-- Node3&#45;&gt;Node12 -->
<g id="edge12" class="edge"><title>Node3&#45;&gt;Node12</title>
<path fill="none" stroke="midnightblue" d="M997.72,-287.917C956.923,-277.31 904.572,-263.699 865.773,-253.611"/>
<polygon fill="midnightblue" stroke="midnightblue" points="997.003,-291.347 1007.56,-290.476 998.764,-284.572 997.003,-291.347"/>
</g>
<!-- Node16 -->
<g id="node16" class="node"><title>Node16</title>
<g id="a_node16"><a xlink:href="../../d9/d05/encap__sweeper__impl_8hpp.html" target="_top" xlink:title="src/pfasst/encap/encap\l_sweeper_impl.hpp">
<polygon fill="white" stroke="black" points="1026,-223.5 1026,-253.5 1147,-253.5 1147,-223.5 1026,-223.5"/>
<text text-anchor="start" x="1034" y="-241.5" font-family="Helvetica,sans-Serif" font-size="10.00">src/pfasst/encap/encap</text>
<text text-anchor="middle" x="1086.5" y="-230.5" font-family="Helvetica,sans-Serif" font-size="10.00">_sweeper_impl.hpp</text>
</a>
</g>
</g>
<!-- Node3&#45;&gt;Node16 -->
<g id="edge17" class="edge"><title>Node3&#45;&gt;Node16</title>
<path fill="none" stroke="midnightblue" d="M1064.12,-280.697C1067.16,-271.587 1071.33,-261.493 1075.41,-253.577"/>
<polygon fill="midnightblue" stroke="midnightblue" points="1060.74,-279.813 1061.25,-290.396 1067.45,-281.805 1060.74,-279.813"/>
</g>
<!-- Node17 -->
<g id="node17" class="node"><title>Node17</title>
<g id="a_node17"><a xlink:href="../../d9/d3c/poly__interp__impl_8hpp.html" target="_top" xlink:title="src/pfasst/encap/poly\l_interp_impl.hpp">
<polygon fill="white" stroke="black" points="82.5,-223.5 82.5,-253.5 194.5,-253.5 194.5,-223.5 82.5,-223.5"/>
<text text-anchor="start" x="90.5" y="-241.5" font-family="Helvetica,sans-Serif" font-size="10.00">src/pfasst/encap/poly</text>
<text text-anchor="middle" x="138.5" y="-230.5" font-family="Helvetica,sans-Serif" font-size="10.00">_interp_impl.hpp</text>
</a>
</g>
</g>
<!-- Node3&#45;&gt;Node17 -->
<g id="edge19" class="edge"><title>Node3&#45;&gt;Node17</title>
<path fill="none" stroke="midnightblue" d="M995.955,-299.884C822.961,-287.701 356.302,-254.838 194.585,-243.45"/>
<polygon fill="midnightblue" stroke="midnightblue" points="995.963,-303.393 1006.18,-300.605 996.455,-296.411 995.963,-303.393"/>
</g>
<!-- Node20 -->
<g id="node20" class="node"><title>Node20</title>
<g id="a_node20"><a xlink:href="../../db/dfd/boris__sweeper_8hpp.html" target="_top" xlink:title="examples/boris/boris\l_sweeper.hpp">
<polygon fill="white" stroke="black" points="1355.5,-151 1355.5,-181 1465.5,-181 1465.5,-151 1355.5,-151"/>
<text text-anchor="start" x="1363.5" y="-169" font-family="Helvetica,sans-Serif" font-size="10.00">examples/boris/boris</text>
<text text-anchor="middle" x="1410.5" y="-158" font-family="Helvetica,sans-Serif" font-size="10.00">_sweeper.hpp</text>
</a>
</g>
</g>
<!-- Node3&#45;&gt;Node20 -->
<g id="edge25" class="edge"><title>Node3&#45;&gt;Node20</title>
<path fill="none" stroke="midnightblue" d="M1106.69,-286.698C1176.94,-259.019 1310.91,-206.235 1374.84,-181.049"/>
<polygon fill="midnightblue" stroke="midnightblue" points="1105.23,-283.509 1097.21,-290.431 1107.8,-290.022 1105.23,-283.509"/>
</g>
<!-- Node22 -->
<g id="node22" class="node"><title>Node22</title>
<g id="a_node22"><a xlink:href="../../db/d9a/boris__sweeper__impl_8hpp.html" target="_top" xlink:title="examples/boris/boris\l_sweeper_impl.hpp">
<polygon fill="white" stroke="black" points="1255.5,-73 1255.5,-103 1365.5,-103 1365.5,-73 1255.5,-73"/>
<text text-anchor="start" x="1263.5" y="-91" font-family="Helvetica,sans-Serif" font-size="10.00">examples/boris/boris</text>
<text text-anchor="middle" x="1310.5" y="-80" font-family="Helvetica,sans-Serif" font-size="10.00">_sweeper_impl.hpp</text>
</a>
</g>
</g>
<!-- Node3&#45;&gt;Node22 -->
<g id="edge34" class="edge"><title>Node3&#45;&gt;Node22</title>
<path fill="none" stroke="midnightblue" d="M1103.12,-285.797C1120.12,-277.247 1139.51,-266.28 1155.5,-254 1187.45,-229.466 1267.63,-138.418 1298.3,-103.115"/>
<polygon fill="midnightblue" stroke="midnightblue" points="1101.39,-282.746 1093.95,-290.292 1104.47,-289.03 1101.39,-282.746"/>
</g>
<!-- Node5 -->
<g id="node5" class="node"><title>Node5</title>
<g id="a_node5"><a xlink:href="../../d7/d0a/imex__sweeper__impl_8hpp.html" target="_top" xlink:title="src/pfasst/encap/imex\l_sweeper_impl.hpp">
<polygon fill="white" stroke="black" points="1070,-151 1070,-181 1185,-181 1185,-151 1070,-151"/>
<text text-anchor="start" x="1078" y="-169" font-family="Helvetica,sans-Serif" font-size="10.00">src/pfasst/encap/imex</text>
<text text-anchor="middle" x="1127.5" y="-158" font-family="Helvetica,sans-Serif" font-size="10.00">_sweeper_impl.hpp</text>
</a>
</g>
</g>
<!-- Node4&#45;&gt;Node5 -->
<g id="edge4" class="edge"><title>Node4&#45;&gt;Node5</title>
<path fill="none" stroke="midnightblue" d="M992.324,-219.343C1020.59,-207.424 1058.65,-192.066 1087.24,-181.073"/>
<polygon fill="midnightblue" stroke="midnightblue" points="990.603,-216.272 982.767,-223.403 993.339,-222.715 990.603,-216.272"/>
</g>
<!-- Node6 -->
<g id="node6" class="node"><title>Node6</title>
<g id="a_node6"><a xlink:href="../../dc/d7d/advection__diffusion__sweeper_8hpp.html" target="_top" xlink:title="examples/advection\l_diffusion/advection\l_diffusion_sweeper.hpp">
<polygon fill="white" stroke="black" points="330,-67.5 330,-108.5 451,-108.5 451,-67.5 330,-67.5"/>
<text text-anchor="start" x="338" y="-96.5" font-family="Helvetica,sans-Serif" font-size="10.00">examples/advection</text>
<text text-anchor="start" x="338" y="-85.5" font-family="Helvetica,sans-Serif" font-size="10.00">_diffusion/advection</text>
<text text-anchor="middle" x="390.5" y="-74.5" font-family="Helvetica,sans-Serif" font-size="10.00">_diffusion_sweeper.hpp</text>
</a>
</g>
</g>
<!-- Node4&#45;&gt;Node6 -->
<g id="edge6" class="edge"><title>Node4&#45;&gt;Node6</title>
<path fill="none" stroke="midnightblue" d="M992.908,-218.01C1004.6,-210.108 1016.01,-199.783 1022.5,-187 1030.95,-170.353 1035.18,-158.697 1022.5,-145 987.143,-106.812 607.289,-114.132 555.5,-109 520.899,-105.571 482.314,-100.939 451.161,-96.9959"/>
<polygon fill="midnightblue" stroke="midnightblue" points="991.022,-215.061 984.406,-223.336 994.739,-220.993 991.022,-215.061"/>
</g>
<!-- Node10 -->
<g id="node10" class="node"><title>Node10</title>
<g id="a_node10"><a xlink:href="../../d8/d93/scalar__sweeper_8hpp.html" target="_top" xlink:title="examples/scalar/scalar\l_sweeper.hpp">
<polygon fill="white" stroke="black" points="891.5,-151 891.5,-181 1013.5,-181 1013.5,-151 891.5,-151"/>
<text text-anchor="start" x="899.5" y="-169" font-family="Helvetica,sans-Serif" font-size="10.00">examples/scalar/scalar</text>
<text text-anchor="middle" x="952.5" y="-158" font-family="Helvetica,sans-Serif" font-size="10.00">_sweeper.hpp</text>
</a>
</g>
</g>
<!-- Node4&#45;&gt;Node10 -->
<g id="edge10" class="edge"><title>Node4&#45;&gt;Node10</title>
<path fill="none" stroke="midnightblue" d="M953.156,-213.232C953.005,-202.568 952.832,-190.414 952.702,-181.246"/>
<polygon fill="midnightblue" stroke="midnightblue" points="949.656,-213.284 953.298,-223.233 956.655,-213.185 949.656,-213.284"/>
</g>
<!-- Node5&#45;&gt;Node4 -->
<g id="edge5" class="edge"><title>Node5&#45;&gt;Node4</title>
<path fill="none" stroke="midnightblue" d="M1088.74,-185.13C1060.49,-197.044 1022.43,-212.404 993.82,-223.403"/>
<polygon fill="midnightblue" stroke="midnightblue" points="1090.45,-188.204 1098.29,-181.073 1087.72,-181.761 1090.45,-188.204"/>
</g>
<!-- Node7 -->
<g id="node7" class="node"><title>Node7</title>
<g id="a_node7"><a xlink:href="../../d1/d49/mpi__pfasst_8cpp.html" target="_top" xlink:title="Advection&#45;Diffusion with MPI&#45;enabled PFASST. ">
<polygon fill="white" stroke="black" points="164,-0.5 164,-30.5 291,-30.5 291,-0.5 164,-0.5"/>
<text text-anchor="start" x="172" y="-18.5" font-family="Helvetica,sans-Serif" font-size="10.00">examples/advection</text>
<text text-anchor="middle" x="227.5" y="-7.5" font-family="Helvetica,sans-Serif" font-size="10.00">_diffusion/mpi_pfasst.cpp</text>
</a>
</g>
</g>
<!-- Node6&#45;&gt;Node7 -->
<g id="edge7" class="edge"><title>Node6&#45;&gt;Node7</title>
<path fill="none" stroke="midnightblue" d="M335.675,-63.2874C310.55,-52.4202 281.622,-39.9088 260.007,-30.5597"/>
<polygon fill="midnightblue" stroke="midnightblue" points="334.528,-66.6044 345.095,-67.3618 337.307,-60.1796 334.528,-66.6044"/>
</g>
<!-- Node8 -->
<g id="node8" class="node"><title>Node8</title>
<g id="a_node8"><a xlink:href="../../d9/d86/serial__mlsdc_8cpp.html" target="_top" xlink:title="Advection&#45;Diffusion with serial MLSDC. ">
<polygon fill="white" stroke="black" points="309,-0.5 309,-30.5 446,-30.5 446,-0.5 309,-0.5"/>
<text text-anchor="start" x="317" y="-18.5" font-family="Helvetica,sans-Serif" font-size="10.00">examples/advection</text>
<text text-anchor="middle" x="377.5" y="-7.5" font-family="Helvetica,sans-Serif" font-size="10.00">_diffusion/serial_mlsdc.cpp</text>
</a>
</g>
</g>
<!-- Node6&#45;&gt;Node8 -->
<g id="edge8" class="edge"><title>Node6&#45;&gt;Node8</title>
<path fill="none" stroke="midnightblue" d="M385.037,-57.3757C383.348,-48.214 381.563,-38.5319 380.154,-30.8916"/>
<polygon fill="midnightblue" stroke="midnightblue" points="381.623,-58.1623 386.879,-67.3618 388.507,-56.8929 381.623,-58.1623"/>
</g>
<!-- Node9 -->
<g id="node9" class="node"><title>Node9</title>
<g id="a_node9"><a xlink:href="../../d4/df0/vanilla__sdc_8cpp.html" target="_top" xlink:title="Advection&#45;Diffusion with vanilla SDC. ">
<polygon fill="white" stroke="black" points="464,-0.5 464,-30.5 595,-30.5 595,-0.5 464,-0.5"/>
<text text-anchor="start" x="472" y="-18.5" font-family="Helvetica,sans-Serif" font-size="10.00">examples/advection</text>
<text text-anchor="middle" x="529.5" y="-7.5" font-family="Helvetica,sans-Serif" font-size="10.00">_diffusion/vanilla_sdc.cpp</text>
</a>
</g>
</g>
<!-- Node6&#45;&gt;Node9 -->
<g id="edge9" class="edge"><title>Node6&#45;&gt;Node9</title>
<path fill="none" stroke="midnightblue" d="M438.355,-62.728C459.436,-52.0358 483.469,-39.8466 501.562,-30.67"/>
<polygon fill="midnightblue" stroke="midnightblue" points="436.555,-59.7169 429.219,-67.3618 439.721,-65.9598 436.555,-59.7169"/>
</g>
<!-- Node11 -->
<g id="node11" class="node"><title>Node11</title>
<g id="a_node11"><a xlink:href="../../d2/daf/scalar__sdc_8cpp.html" target="_top" xlink:title="Scalar test equation example using an encapsulated IMEX sweeper. ">
<polygon fill="white" stroke="black" points="791.5,-73 791.5,-103 913.5,-103 913.5,-73 791.5,-73"/>
<text text-anchor="start" x="799.5" y="-91" font-family="Helvetica,sans-Serif" font-size="10.00">examples/scalar/scalar</text>
<text text-anchor="middle" x="852.5" y="-80" font-family="Helvetica,sans-Serif" font-size="10.00">_sdc.cpp</text>
</a>
</g>
</g>
<!-- Node10&#45;&gt;Node11 -->
<g id="edge11" class="edge"><title>Node10&#45;&gt;Node11</title>
<path fill="none" stroke="midnightblue" d="M925.672,-144.611C908.468,-131.536 886.565,-114.89 871.225,-103.231"/>
<polygon fill="midnightblue" stroke="midnightblue" points="923.611,-147.441 933.691,-150.705 927.847,-141.868 923.611,-147.441"/>
</g>
<!-- Node13 -->
<g id="node13" class="node"><title>Node13</title>
<g id="a_node13"><a xlink:href="../../dd/d8c/implicit__sweeper__impl_8hpp.html" target="_top" xlink:title="src/pfasst/encap/implicit\l_sweeper_impl.hpp">
<polygon fill="white" stroke="black" points="750,-151 750,-181 873,-181 873,-151 750,-151"/>
<text text-anchor="start" x="758" y="-169" font-family="Helvetica,sans-Serif" font-size="10.00">src/pfasst/encap/implicit</text>
<text text-anchor="middle" x="811.5" y="-158" font-family="Helvetica,sans-Serif" font-size="10.00">_sweeper_impl.hpp</text>
</a>
</g>
</g>
<!-- Node12&#45;&gt;Node13 -->
<g id="edge13" class="edge"><title>Node12&#45;&gt;Node13</title>
<path fill="none" stroke="midnightblue" d="M805.05,-213.232C804.449,-202.568 804.751,-190.414 805.954,-181.246"/>
<polygon fill="midnightblue" stroke="midnightblue" points="801.568,-213.588 805.951,-223.233 808.54,-212.959 801.568,-213.588"/>
</g>
<!-- Node14 -->
<g id="node14" class="node"><title>Node14</title>
<g id="a_node14"><a xlink:href="../../d6/d93/vdp__sweeper_8hpp.html" target="_top" xlink:title="examples/vanderpol\l/vdp_sweeper.hpp">
<polygon fill="white" stroke="black" points="584,-151 584,-181 693,-181 693,-151 584,-151"/>
<text text-anchor="start" x="592" y="-169" font-family="Helvetica,sans-Serif" font-size="10.00">examples/vanderpol</text>
<text text-anchor="middle" x="638.5" y="-158" font-family="Helvetica,sans-Serif" font-size="10.00">/vdp_sweeper.hpp</text>
</a>
</g>
</g>
<!-- Node12&#45;&gt;Node14 -->
<g id="edge15" class="edge"><title>Node12&#45;&gt;Node14</title>
<path fill="none" stroke="midnightblue" d="M767.328,-219.499C738.027,-207.559 700.126,-192.114 673.033,-181.073"/>
<polygon fill="midnightblue" stroke="midnightblue" points="766.325,-222.87 776.907,-223.403 768.967,-216.388 766.325,-222.87"/>
</g>
<!-- Node13&#45;&gt;Node12 -->
<g id="edge14" class="edge"><title>Node13&#45;&gt;Node12</title>
<path fill="none" stroke="midnightblue" d="M817.949,-191.244C818.551,-201.905 818.251,-214.06 817.049,-223.233"/>
<polygon fill="midnightblue" stroke="midnightblue" points="821.431,-190.89 817.046,-181.246 814.459,-191.52 821.431,-190.89"/>
</g>
<!-- Node15 -->
<g id="node15" class="node"><title>Node15</title>
<g id="a_node15"><a xlink:href="../../df/de7/vdp__sdc_8cpp.html" target="_top" xlink:title="examples/vanderpol\l/vdp_sdc.cpp">
<polygon fill="white" stroke="black" points="565,-73 565,-103 674,-103 674,-73 565,-73"/>
<text text-anchor="start" x="573" y="-91" font-family="Helvetica,sans-Serif" font-size="10.00">examples/vanderpol</text>
<text text-anchor="middle" x="619.5" y="-80" font-family="Helvetica,sans-Serif" font-size="10.00">/vdp_sdc.cpp</text>
</a>
</g>
</g>
<!-- Node14&#45;&gt;Node15 -->
<g id="edge16" class="edge"><title>Node14&#45;&gt;Node15</title>
<path fill="none" stroke="midnightblue" d="M632.491,-140.963C629.388,-128.551 625.707,-113.83 623.058,-103.231"/>
<polygon fill="midnightblue" stroke="midnightblue" points="629.105,-141.852 634.926,-150.705 635.896,-140.155 629.105,-141.852"/>
</g>
<!-- Node16&#45;&gt;Node3 -->
<g id="edge18" class="edge"><title>Node16&#45;&gt;Node3</title>
<path fill="none" stroke="midnightblue" d="M1083.89,-263.271C1080.86,-272.379 1076.69,-282.474 1072.6,-290.396"/>
<polygon fill="midnightblue" stroke="midnightblue" points="1087.27,-264.159 1086.76,-253.577 1080.56,-262.169 1087.27,-264.159"/>
</g>
<!-- Node17&#45;&gt;Node18 -->
<g id="edge20" class="edge"><title>Node17&#45;&gt;Node18</title>
<path fill="none" stroke="midnightblue" d="M107.666,-216.832C93.1361,-205.392 76.7627,-191.465 65.9275,-181.246"/>
<polygon fill="midnightblue" stroke="midnightblue" points="105.899,-219.89 115.953,-223.233 110.179,-214.35 105.899,-219.89"/>
</g>
<!-- Node18&#45;&gt;Node17 -->
<g id="edge21" class="edge"><title>Node18&#45;&gt;Node17</title>
<path fill="none" stroke="midnightblue" d="M85.017,-187.419C99.6155,-198.897 116.136,-212.941 127.05,-223.233"/>
<polygon fill="midnightblue" stroke="midnightblue" points="86.7567,-184.341 76.7007,-181.005 82.4817,-189.884 86.7567,-184.341"/>
</g>
<!-- Node19 -->
<g id="node19" class="node"><title>Node19</title>
<g id="a_node19"><a xlink:href="../../d0/dbe/spectral__transfer__1d_8hpp.html" target="_top" xlink:title="examples/advection\l_diffusion/spectral\l_transfer_1d.hpp">
<polygon fill="white" stroke="black" points="203.5,-67.5 203.5,-108.5 311.5,-108.5 311.5,-67.5 203.5,-67.5"/>
<text text-anchor="start" x="211.5" y="-96.5" font-family="Helvetica,sans-Serif" font-size="10.00">examples/advection</text>
<text text-anchor="start" x="211.5" y="-85.5" font-family="Helvetica,sans-Serif" font-size="10.00">_diffusion/spectral</text>
<text text-anchor="middle" x="257.5" y="-74.5" font-family="Helvetica,sans-Serif" font-size="10.00">_transfer_1d.hpp</text>
</a>
</g>
</g>
<!-- Node18&#45;&gt;Node19 -->
<g id="edge22" class="edge"><title>Node18&#45;&gt;Node19</title>
<path fill="none" stroke="midnightblue" d="M101.89,-147.258C132.809,-135.682 173.194,-120.563 205.073,-108.628"/>
<polygon fill="midnightblue" stroke="midnightblue" points="100.345,-144.099 92.207,-150.883 102.799,-150.655 100.345,-144.099"/>
</g>
<!-- Node19&#45;&gt;Node7 -->
<g id="edge23" class="edge"><title>Node19&#45;&gt;Node7</title>
<path fill="none" stroke="midnightblue" d="M245.145,-57.966C241.173,-48.6314 236.945,-38.6962 233.624,-30.8916"/>
<polygon fill="midnightblue" stroke="midnightblue" points="242.007,-59.5307 249.143,-67.3618 248.448,-56.7898 242.007,-59.5307"/>
</g>
<!-- Node19&#45;&gt;Node8 -->
<g id="edge24" class="edge"><title>Node19&#45;&gt;Node8</title>
<path fill="none" stroke="midnightblue" d="M299.55,-62.2957C317.571,-51.7084 337.971,-39.7232 353.381,-30.67"/>
<polygon fill="midnightblue" stroke="midnightblue" points="297.776,-59.2785 290.927,-67.3618 301.322,-65.314 297.776,-59.2785"/>
</g>
<!-- Node21 -->
<g id="node21" class="node"><title>Node21</title>
<g id="a_node21"><a xlink:href="../../d7/d31/boris__mlsdc_8cpp.html" target="_top" xlink:title="examples/boris/boris\l_mlsdc.cpp">
<polygon fill="white" stroke="black" points="1909.5,-0.5 1909.5,-30.5 2019.5,-30.5 2019.5,-0.5 1909.5,-0.5"/>
<text text-anchor="start" x="1917.5" y="-18.5" font-family="Helvetica,sans-Serif" font-size="10.00">examples/boris/boris</text>
<text text-anchor="middle" x="1964.5" y="-7.5" font-family="Helvetica,sans-Serif" font-size="10.00">_mlsdc.cpp</text>
</a>
</g>
</g>
<!-- Node20&#45;&gt;Node21 -->
<g id="edge26" class="edge"><title>Node20&#45;&gt;Node21</title>
<path fill="none" stroke="midnightblue" d="M1421.9,-141.801C1434.67,-118.575 1457.67,-83.9249 1488.5,-67 1559.71,-27.9036 1799.76,-19.0695 1909.24,-17.0776"/>
<polygon fill="midnightblue" stroke="midnightblue" points="1418.79,-140.197 1417.22,-150.674 1424.98,-143.467 1418.79,-140.197"/>
</g>
<!-- Node20&#45;&gt;Node22 -->
<g id="edge27" class="edge"><title>Node20&#45;&gt;Node22</title>
<path fill="none" stroke="midnightblue" d="M1378.31,-145.111C1359.76,-131.892 1337.56,-114.857 1323.6,-103.041"/>
<polygon fill="midnightblue" stroke="midnightblue" points="1376.34,-148.003 1386.54,-150.883 1380.36,-142.273 1376.34,-148.003"/>
</g>
<!-- Node20&#45;&gt;Node23 -->
<g id="edge29" class="edge"><title>Node20&#45;&gt;Node23</title>
<path fill="none" stroke="midnightblue" d="M1475.77,-158.254C1553.76,-149.594 1687.97,-132.795 1801.5,-109 1809.63,-107.297 1818.19,-105.195 1826.46,-103.001"/>
<polygon fill="midnightblue" stroke="midnightblue" points="1475.16,-154.799 1465.61,-159.371 1475.93,-161.757 1475.16,-154.799"/>
</g>
<!-- Node24 -->
<g id="node24" class="node"><title>Node24</title>
<g id="a_node24"><a xlink:href="../../d2/d1e/boris__pfasst_8cpp.html" target="_top" xlink:title="examples/boris/boris\l_pfasst.cpp">
<polygon fill="white" stroke="black" points="1414.5,-0.5 1414.5,-30.5 1524.5,-30.5 1524.5,-0.5 1414.5,-0.5"/>
<text text-anchor="start" x="1422.5" y="-18.5" font-family="Helvetica,sans-Serif" font-size="10.00">examples/boris/boris</text>
<text text-anchor="middle" x="1469.5" y="-7.5" font-family="Helvetica,sans-Serif" font-size="10.00">_pfasst.cpp</text>
</a>
</g>
</g>
<!-- Node20&#45;&gt;Node24 -->
<g id="edge32" class="edge"><title>Node20&#45;&gt;Node24</title>
<path fill="none" stroke="midnightblue" d="M1407.58,-140.802C1406.15,-120.204 1406.64,-90.3323 1417.5,-67 1424.35,-52.2826 1437.5,-39.5745 1448.86,-30.5878"/>
<polygon fill="midnightblue" stroke="midnightblue" points="1404.11,-141.269 1408.48,-150.917 1411.08,-140.644 1404.11,-141.269"/>
</g>
<!-- Node25 -->
<g id="node25" class="node"><title>Node25</title>
<g id="a_node25"><a xlink:href="../../d3/d93/boris__sdc_8cpp.html" target="_top" xlink:title="examples/boris/boris\l_sdc.cpp">
<polygon fill="white" stroke="black" points="1497.5,-73 1497.5,-103 1607.5,-103 1607.5,-73 1497.5,-73"/>
<text text-anchor="start" x="1505.5" y="-91" font-family="Helvetica,sans-Serif" font-size="10.00">examples/boris/boris</text>
<text text-anchor="middle" x="1552.5" y="-80" font-family="Helvetica,sans-Serif" font-size="10.00">_sdc.cpp</text>
</a>
</g>
</g>
<!-- Node20&#45;&gt;Node25 -->
<g id="edge33" class="edge"><title>Node20&#45;&gt;Node25</title>
<path fill="none" stroke="midnightblue" d="M1446,-145.998C1470.92,-132.662 1503.69,-115.123 1526.26,-103.041"/>
<polygon fill="midnightblue" stroke="midnightblue" points="1444.04,-143.078 1436.88,-150.883 1447.34,-149.25 1444.04,-143.078"/>
</g>
<!-- Node22&#45;&gt;Node20 -->
<g id="edge28" class="edge"><title>Node22&#45;&gt;Node20</title>
<path fill="none" stroke="midnightblue" d="M1343.29,-109.317C1361.58,-122.379 1383.27,-139.028 1397.1,-150.705"/>
<polygon fill="midnightblue" stroke="midnightblue" points="1344.82,-106.118 1334.63,-103.231 1340.8,-111.845 1344.82,-106.118"/>
</g>
<!-- Node23&#45;&gt;Node21 -->
<g id="edge30" class="edge"><title>Node23&#45;&gt;Node21</title>
<path fill="none" stroke="midnightblue" d="M1900.24,-66.2877C1915.11,-54.7662 1933.22,-40.7326 1946.42,-30.5049"/>
<polygon fill="midnightblue" stroke="midnightblue" points="1897.68,-63.842 1891.92,-72.7333 1901.96,-69.3757 1897.68,-63.842"/>
</g>
<!-- Node23&#45;&gt;Node24 -->
<g id="edge31" class="edge"><title>Node23&#45;&gt;Node24</title>
<path fill="none" stroke="midnightblue" d="M1816.04,-70.3789C1811.14,-69.1623 1806.25,-68.0161 1801.5,-67 1704.87,-46.3079 1590.65,-30.878 1524.5,-22.8132"/>
<polygon fill="midnightblue" stroke="midnightblue" points="1815.51,-73.8548 1826.06,-72.9557 1817.25,-67.0754 1815.51,-73.8548"/>
</g>
<!-- Node26&#45;&gt;Node7 -->
<g id="edge44" class="edge"><title>Node26&#45;&gt;Node7</title>
<path fill="none" stroke="midnightblue" d="M433.692,-237.577C344.677,-236.143 191.583,-227.644 156.5,-187 114.806,-138.697 180.836,-62.4633 212.307,-30.91"/>
<polygon fill="midnightblue" stroke="midnightblue" points="433.906,-241.08 443.953,-237.715 434.001,-234.08 433.906,-241.08"/>
</g>
<!-- Node26&#45;&gt;Node8 -->
<g id="edge46" class="edge"><title>Node26&#45;&gt;Node8</title>
<path fill="none" stroke="midnightblue" d="M498.641,-212.831C497.655,-177.352 491.263,-111.319 459.5,-67 447.91,-50.8284 429.377,-38.7793 412.859,-30.5144"/>
<polygon fill="midnightblue" stroke="midnightblue" points="495.147,-213.264 498.796,-223.211 502.146,-213.16 495.147,-213.264"/>
</g>
<!-- Node26&#45;&gt;Node9 -->
<g id="edge47" class="edge"><title>Node26&#45;&gt;Node9</title>
<path fill="none" stroke="midnightblue" d="M501.894,-213.302C508.384,-167.037 522.365,-67.3635 527.53,-30.5428"/>
<polygon fill="midnightblue" stroke="midnightblue" points="498.409,-212.95 500.486,-223.339 505.342,-213.922 498.409,-212.95"/>
</g>
<!-- Node26&#45;&gt;Node10 -->
<g id="edge49" class="edge"><title>Node26&#45;&gt;Node10</title>
<path fill="none" stroke="midnightblue" d="M563.109,-231.836C639.628,-224.472 770.69,-209.79 881.5,-187 889.528,-185.349 897.979,-183.273 906.141,-181.089"/>
<polygon fill="midnightblue" stroke="midnightblue" points="562.763,-228.353 553.139,-232.784 563.426,-235.322 562.763,-228.353"/>
</g>
<!-- Node26&#45;&gt;Node11 -->
<g id="edge48" class="edge"><title>Node26&#45;&gt;Node11</title>
<path fill="none" stroke="midnightblue" d="M563.495,-231.002C605.229,-224.575 659.313,-211.895 701.5,-187 723.438,-174.054 720.114,-160.274 740.5,-145 763.9,-127.467 793.628,-112.899 816.575,-103.021"/>
<polygon fill="midnightblue" stroke="midnightblue" points="562.828,-227.562 553.437,-232.467 563.838,-234.489 562.828,-227.562"/>
</g>
<!-- Node26&#45;&gt;Node14 -->
<g id="edge51" class="edge"><title>Node26&#45;&gt;Node14</title>
<path fill="none" stroke="midnightblue" d="M535.49,-218.873C559.022,-207.023 589.01,-191.922 610.554,-181.073"/>
<polygon fill="midnightblue" stroke="midnightblue" points="533.852,-215.779 526.495,-223.403 537,-222.031 533.852,-215.779"/>
</g>
<!-- Node26&#45;&gt;Node15 -->
<g id="edge50" class="edge"><title>Node26&#45;&gt;Node15</title>
<path fill="none" stroke="midnightblue" d="M516.641,-215.236C541.797,-184.363 586.563,-129.423 607.755,-103.414"/>
<polygon fill="midnightblue" stroke="midnightblue" points="513.705,-213.298 510.102,-223.261 519.132,-217.72 513.705,-213.298"/>
</g>
<!-- Node26&#45;&gt;Node19 -->
<g id="edge45" class="edge"><title>Node26&#45;&gt;Node19</title>
<path fill="none" stroke="midnightblue" d="M433.783,-227.023C401.854,-219.602 363.973,-207.24 334.5,-187 318.804,-176.221 288.295,-133.943 270.76,-108.572"/>
<polygon fill="midnightblue" stroke="midnightblue" points="433.403,-230.524 443.923,-229.263 434.913,-223.688 433.403,-230.524"/>
</g>
<!-- Node27 -->
<g id="node27" class="node"><title>Node27</title>
<g id="a_node27"><a xlink:href="../../de/d7a/vector__impl_8hpp.html" target="_top" xlink:title="src/pfasst/encap/vector\l_impl.hpp">
<polygon fill="white" stroke="black" points="166,-151 166,-181 287,-181 287,-151 166,-151"/>
<text text-anchor="start" x="174" y="-169" font-family="Helvetica,sans-Serif" font-size="10.00">src/pfasst/encap/vector</text>
<text text-anchor="middle" x="226.5" y="-158" font-family="Helvetica,sans-Serif" font-size="10.00">_impl.hpp</text>
</a>
</g>
</g>
<!-- Node26&#45;&gt;Node27 -->
<g id="edge39" class="edge"><title>Node26&#45;&gt;Node27</title>
<path fill="none" stroke="midnightblue" d="M434.075,-223.084C393.289,-213.061 339.677,-199.337 292.5,-187 285.199,-185.091 277.503,-183.06 270.029,-181.052"/>
<polygon fill="midnightblue" stroke="midnightblue" points="433.346,-226.509 443.891,-225.485 435.009,-219.71 433.346,-226.509"/>
</g>
<!-- Node28 -->
<g id="node28" class="node"><title>Node28</title>
<g id="a_node28"><a xlink:href="../../db/d53/fft_8hpp.html" target="_top" xlink:title="examples/advection\l_diffusion/fft.hpp">
<polygon fill="white" stroke="black" points="343.5,-151 343.5,-181 451.5,-181 451.5,-151 343.5,-151"/>
<text text-anchor="start" x="351.5" y="-169" font-family="Helvetica,sans-Serif" font-size="10.00">examples/advection</text>
<text text-anchor="middle" x="397.5" y="-158" font-family="Helvetica,sans-Serif" font-size="10.00">_diffusion/fft.hpp</text>
</a>
</g>
</g>
<!-- Node26&#45;&gt;Node28 -->
<g id="edge41" class="edge"><title>Node26&#45;&gt;Node28</title>
<path fill="none" stroke="midnightblue" d="M469.749,-217.431C453.075,-205.792 432.49,-191.424 417.564,-181.005"/>
<polygon fill="midnightblue" stroke="midnightblue" points="467.858,-220.379 478.061,-223.233 471.865,-214.64 467.858,-220.379"/>
</g>
<!-- Node27&#45;&gt;Node26 -->
<g id="edge40" class="edge"><title>Node27&#45;&gt;Node26</title>
<path fill="none" stroke="midnightblue" d="M297.052,-183.471C301.615,-184.67 306.128,-185.857 310.5,-187 358.322,-199.505 412.756,-213.436 450.796,-223.493"/>
<polygon fill="midnightblue" stroke="midnightblue" points="297.581,-179.991 287.02,-180.837 295.803,-186.761 297.581,-179.991"/>
</g>
<!-- Node28&#45;&gt;Node6 -->
<g id="edge42" class="edge"><title>Node28&#45;&gt;Node6</title>
<path fill="none" stroke="midnightblue" d="M395.258,-140.656C394.306,-130.326 393.212,-118.443 392.313,-108.68"/>
<polygon fill="midnightblue" stroke="midnightblue" points="391.781,-141.068 396.183,-150.705 398.751,-140.426 391.781,-141.068"/>
</g>
<!-- Node28&#45;&gt;Node19 -->
<g id="edge43" class="edge"><title>Node28&#45;&gt;Node19</title>
<path fill="none" stroke="midnightblue" d="M362.579,-146.043C341.572,-134.639 314.881,-120.15 293.657,-108.628"/>
<polygon fill="midnightblue" stroke="midnightblue" points="361.037,-149.188 371.495,-150.883 364.376,-143.036 361.037,-149.188"/>
</g>
<!-- Node29&#45;&gt;Node20 -->
<g id="edge70" class="edge"><title>Node29&#45;&gt;Node20</title>
<path fill="none" stroke="midnightblue" d="M1419,-296.947C1391.74,-290.189 1363.16,-277.547 1346.5,-254 1328.09,-227.976 1362.35,-198.15 1387.45,-181.048"/>
<polygon fill="midnightblue" stroke="midnightblue" points="1418.43,-300.407 1428.96,-299.18 1419.96,-293.576 1418.43,-300.407"/>
</g>
<!-- Node29&#45;&gt;Node21 -->
<g id="edge69" class="edge"><title>Node29&#45;&gt;Node21</title>
<path fill="none" stroke="midnightblue" d="M1560.29,-292.327C1641.8,-276.331 1778.03,-243.429 1883.5,-187 1934.44,-159.744 1961.66,-160.678 1987.5,-109 2000.45,-83.0983 1984.95,-49.3838 1973.84,-30.6419"/>
<polygon fill="midnightblue" stroke="midnightblue" points="1559.29,-288.955 1550.14,-294.287 1560.62,-295.828 1559.29,-288.955"/>
</g>
<!-- Node29&#45;&gt;Node22 -->
<g id="edge71" class="edge"><title>Node29&#45;&gt;Node22</title>
<path fill="none" stroke="midnightblue" d="M1418.82,-296.211C1389.92,-289.346 1358.43,-276.823 1337.5,-254 1298.26,-211.216 1303.85,-134.574 1308.18,-103.09"/>
<polygon fill="midnightblue" stroke="midnightblue" points="1418.39,-299.7 1428.91,-298.411 1419.88,-292.861 1418.39,-299.7"/>
</g>
<!-- Node29&#45;&gt;Node24 -->
<g id="edge72" class="edge"><title>Node29&#45;&gt;Node24</title>
<path fill="none" stroke="midnightblue" d="M1418.82,-297.608C1384.38,-291.102 1344.29,-278.477 1315.5,-254 1261.12,-207.775 1262.22,-178.616 1246.5,-109 1242.39,-90.7917 1234.85,-81.5843 1246.5,-67 1267.13,-41.1807 1355.25,-27.5847 1414.35,-21.234"/>
<polygon fill="midnightblue" stroke="midnightblue" points="1418.39,-301.085 1428.84,-299.362 1419.6,-294.19 1418.39,-301.085"/>
</g>
<!-- Node29&#45;&gt;Node25 -->
<g id="edge73" class="edge"><title>Node29&#45;&gt;Node25</title>
<path fill="none" stroke="midnightblue" d="M1560.21,-296.141C1586.4,-289.227 1613.57,-276.686 1629.5,-254 1665.29,-203.039 1600.4,-132.801 1568.59,-103.132"/>
<polygon fill="midnightblue" stroke="midnightblue" points="1559.16,-292.794 1550.25,-298.525 1560.78,-299.602 1559.16,-292.794"/>
</g>
<!-- Node30 -->
<g id="node30" class="node"><title>Node30</title>
<g id="a_node30"><a xlink:href="../../d9/dd9/wrapper__interface_8hpp.html" target="_top" xlink:title="examples/boris/bindings\l/wrapper_interface.hpp">
<polygon fill="white" stroke="black" points="1355.5,-223.5 1355.5,-253.5 1481.5,-253.5 1481.5,-223.5 1355.5,-223.5"/>
<text text-anchor="start" x="1363.5" y="-241.5" font-family="Helvetica,sans-Serif" font-size="10.00">examples/boris/bindings</text>
<text text-anchor="middle" x="1418.5" y="-230.5" font-family="Helvetica,sans-Serif" font-size="10.00">/wrapper_interface.hpp</text>
</a>
</g>
</g>
<!-- Node29&#45;&gt;Node30 -->
<g id="edge54" class="edge"><title>Node29&#45;&gt;Node30</title>
<path fill="none" stroke="midnightblue" d="M1466.67,-283.598C1455.95,-273.783 1443.45,-262.344 1433.88,-253.577"/>
<polygon fill="midnightblue" stroke="midnightblue" points="1464.35,-286.225 1474.09,-290.396 1469.08,-281.062 1464.35,-286.225"/>
</g>
<!-- Node31 -->
<g id="node31" class="node"><title>Node31</title>
<g id="a_node31"><a xlink:href="../../dd/da4/wrapper__simple__physics__solver_8hpp.html" target="_top" xlink:title="examples/boris/bindings\l/wrapper_simple_physics\l_solver.hpp">
<polygon fill="white" stroke="black" points="1664,-145.5 1664,-186.5 1793,-186.5 1793,-145.5 1664,-145.5"/>
<text text-anchor="start" x="1672" y="-174.5" font-family="Helvetica,sans-Serif" font-size="10.00">examples/boris/bindings</text>
<text text-anchor="start" x="1672" y="-163.5" font-family="Helvetica,sans-Serif" font-size="10.00">/wrapper_simple_physics</text>
<text text-anchor="middle" x="1728.5" y="-152.5" font-family="Helvetica,sans-Serif" font-size="10.00">_solver.hpp</text>
</a>
</g>
</g>
<!-- Node29&#45;&gt;Node31 -->
<g id="edge68" class="edge"><title>Node29&#45;&gt;Node31</title>
<path fill="none" stroke="midnightblue" d="M1560.24,-294.688C1593.76,-287.476 1633.04,-275.102 1663.5,-254 1688.61,-236.608 1707.97,-206.388 1718.8,-186.541"/>
<polygon fill="midnightblue" stroke="midnightblue" points="1559.13,-291.34 1550.03,-296.764 1560.53,-298.199 1559.13,-291.34"/>
</g>
<!-- Node33 -->
<g id="node33" class="node"><title>Node33</title>
<g id="a_node33"><a xlink:href="../../d6/d1f/particle__cloud__impl_8hpp.html" target="_top" xlink:title="examples/boris/particle\l_cloud_impl.hpp">
<polygon fill="white" stroke="black" points="1500,-223.5 1500,-253.5 1621,-253.5 1621,-223.5 1500,-223.5"/>
<text text-anchor="start" x="1508" y="-241.5" font-family="Helvetica,sans-Serif" font-size="10.00">examples/boris/particle</text>
<text text-anchor="middle" x="1560.5" y="-230.5" font-family="Helvetica,sans-Serif" font-size="10.00">_cloud_impl.hpp</text>
</a>
</g>
</g>
<!-- Node29&#45;&gt;Node33 -->
<g id="edge66" class="edge"><title>Node29&#45;&gt;Node33</title>
<path fill="none" stroke="midnightblue" d="M1506.57,-283.024C1516.49,-273.34 1528.93,-262.174 1539.45,-253.577"/>
<polygon fill="midnightblue" stroke="midnightblue" points="1503.8,-280.84 1499.23,-290.396 1508.76,-285.778 1503.8,-280.84"/>
</g>
<!-- Node30&#45;&gt;Node20 -->
<g id="edge62" class="edge"><title>Node30&#45;&gt;Node20</title>
<path fill="none" stroke="midnightblue" d="M1415.75,-213.232C1414.54,-202.568 1413.16,-190.414 1412.12,-181.246"/>
<polygon fill="midnightblue" stroke="midnightblue" points="1412.28,-213.692 1416.88,-223.233 1419.23,-212.902 1412.28,-213.692"/>
</g>
<!-- Node30&#45;&gt;Node21 -->
<g id="edge61" class="edge"><title>Node30&#45;&gt;Node21</title>
<path fill="none" stroke="midnightblue" d="M1491.77,-222.913C1629.85,-202.322 1670.76,-224.043 1801.5,-187 1880.32,-164.669 1924.51,-178.103 1968.5,-109 1983.78,-84.9999 1976.02,-49.9685 1969.77,-30.6331"/>
<polygon fill="midnightblue" stroke="midnightblue" points="1491.01,-219.488 1481.66,-224.47 1492.08,-226.407 1491.01,-219.488"/>
</g>
<!-- Node30&#45;&gt;Node22 -->
<g id="edge63" class="edge"><title>Node30&#45;&gt;Node22</title>
<path fill="none" stroke="midnightblue" d="M1382.13,-218.155C1369.45,-209.947 1356.03,-199.39 1346.5,-187 1326.72,-161.281 1317,-123.616 1312.94,-103.284"/>
<polygon fill="midnightblue" stroke="midnightblue" points="1380.38,-221.188 1390.73,-223.456 1384.05,-215.229 1380.38,-221.188"/>
</g>
<!-- Node30&#45;&gt;Node24 -->
<g id="edge64" class="edge"><title>Node30&#45;&gt;Node24</title>
<path fill="none" stroke="midnightblue" d="M1450.08,-217.039C1459.77,-208.961 1469.26,-198.775 1474.5,-187 1498.33,-133.426 1482.31,-60.73 1473.82,-30.5399"/>
<polygon fill="midnightblue" stroke="midnightblue" points="1447.73,-214.427 1441.97,-223.318 1452.02,-219.961 1447.73,-214.427"/>
</g>
<!-- Node30&#45;&gt;Node25 -->
<g id="edge65" class="edge"><title>Node30&#45;&gt;Node25</title>
<path fill="none" stroke="midnightblue" d="M1463.89,-218.726C1479.21,-210.7 1495.46,-200.115 1507.5,-187 1530.29,-162.173 1543.28,-123.809 1548.98,-103.219"/>
<polygon fill="midnightblue" stroke="midnightblue" points="1461.91,-215.803 1454.52,-223.393 1465.03,-222.069 1461.91,-215.803"/>
</g>
<!-- Node30&#45;&gt;Node31 -->
<g id="edge55" class="edge"><title>Node30&#45;&gt;Node31</title>
<path fill="none" stroke="midnightblue" d="M1490.02,-221.236C1542.45,-209.312 1613.04,-193.258 1663.8,-181.715"/>
<polygon fill="midnightblue" stroke="midnightblue" points="1489.09,-217.857 1480.12,-223.487 1490.64,-224.682 1489.09,-217.857"/>
</g>
<!-- Node31&#45;&gt;Node21 -->
<g id="edge58" class="edge"><title>Node31&#45;&gt;Node21</title>
<path fill="none" stroke="midnightblue" d="M1803.11,-154.151C1857.49,-144.728 1924.93,-129.389 1944.5,-109 1964.87,-87.7848 1966.53,-51.0139 1965.69,-30.8132"/>
<polygon fill="midnightblue" stroke="midnightblue" points="1802.4,-150.721 1793.13,-155.841 1803.57,-157.623 1802.4,-150.721"/>
</g>
<!-- Node31&#45;&gt;Node24 -->
<g id="edge59" class="edge"><title>Node31&#45;&gt;Node24</title>
<path fill="none" stroke="midnightblue" d="M1691.85,-139.384C1679.58,-130.262 1666.08,-119.61 1654.5,-109 1635.94,-91.9967 1637.51,-80.8613 1616.5,-67 1588.68,-48.6492 1553.49,-36.2512 1524.52,-28.3332"/>
<polygon fill="midnightblue" stroke="midnightblue" points="1689.97,-142.348 1700.11,-145.435 1694.11,-136.702 1689.97,-142.348"/>
</g>
<!-- Node31&#45;&gt;Node25 -->
<g id="edge60" class="edge"><title>Node31&#45;&gt;Node25</title>
<path fill="none" stroke="midnightblue" d="M1673.95,-141.446C1644.87,-128.886 1610.05,-113.852 1585.17,-103.106"/>
<polygon fill="midnightblue" stroke="midnightblue" points="1672.61,-144.677 1683.18,-145.428 1675.38,-138.25 1672.61,-144.677"/>
</g>
<!-- Node32 -->
<g id="node32" class="node"><title>Node32</title>
<g id="a_node32"><a xlink:href="../../d5/d9e/wrapper__simple__physics__solver__impl_8hpp.html" target="_top" xlink:title="examples/boris/bindings\l/wrapper_simple_physics\l_solver_impl.hpp">
<polygon fill="white" stroke="black" points="1664,-67.5 1664,-108.5 1793,-108.5 1793,-67.5 1664,-67.5"/>
<text text-anchor="start" x="1672" y="-96.5" font-family="Helvetica,sans-Serif" font-size="10.00">examples/boris/bindings</text>
<text text-anchor="start" x="1672" y="-85.5" font-family="Helvetica,sans-Serif" font-size="10.00">/wrapper_simple_physics</text>
<text text-anchor="middle" x="1728.5" y="-74.5" font-family="Helvetica,sans-Serif" font-size="10.00">_solver_impl.hpp</text>
</a>
</g>
</g>
<!-- Node31&#45;&gt;Node32 -->
<g id="edge56" class="edge"><title>Node31&#45;&gt;Node32</title>
<path fill="none" stroke="midnightblue" d="M1721.9,-135.297C1721.58,-126.301 1721.78,-116.653 1722.52,-108.506"/>
<polygon fill="midnightblue" stroke="midnightblue" points="1718.41,-135.659 1722.51,-145.428 1725.4,-135.234 1718.41,-135.659"/>
</g>
<!-- Node32&#45;&gt;Node31 -->
<g id="edge57" class="edge"><title>Node32&#45;&gt;Node31</title>
<path fill="none" stroke="midnightblue" d="M1735.1,-118.63C1735.42,-127.622 1735.22,-137.272 1734.49,-145.428"/>
<polygon fill="midnightblue" stroke="midnightblue" points="1738.59,-118.273 1734.48,-108.506 1731.6,-118.701 1738.59,-118.273"/>
</g>
<!-- Node33&#45;&gt;Node29 -->
<g id="edge67" class="edge"><title>Node33&#45;&gt;Node29</title>
<path fill="none" stroke="midnightblue" d="M1543.47,-260.945C1533.54,-270.626 1521.11,-281.793 1510.58,-290.396"/>
<polygon fill="midnightblue" stroke="midnightblue" points="1546.23,-263.133 1550.8,-253.577 1541.26,-258.196 1546.23,-263.133"/>
</g>
</g>
</svg>
