<?xml version="1.0" encoding="UTF-8" standalone="no"?>
<!DOCTYPE svg PUBLIC "-//W3C//DTD SVG 1.1//EN"
 "http://www.w3.org/Graphics/SVG/1.1/DTD/svg11.dtd">
<!-- Generated by graphviz version 2.38.0 (20140413.2041)
 -->
<!-- Title: pfasst::examples::boris::zero Pages: 1 -->
<svg width="296pt" height="246pt"
 viewBox="0.00 0.00 296.00 245.50" xmlns="http://www.w3.org/2000/svg" xmlns:xlink="http://www.w3.org/1999/xlink">
<g id="graph0" class="graph" transform="scale(1 1) rotate(0) translate(4 241.5)">
<title>pfasst::examples::boris::zero</title>
<polygon fill="white" stroke="none" points="-4,4 -4,-241.5 292,-241.5 292,4 -4,4"/>
<!-- Node1 -->
<g id="node1" class="node"><title>Node1</title>
<polygon fill="#bfbfbf" stroke="black" points="0,-109 0,-139 121,-139 121,-109 0,-109"/>
<text text-anchor="start" x="8" y="-127" font-family="Helvetica,sans-Serif" font-size="10.00">pfasst::examples::boris</text>
<text text-anchor="middle" x="60.5" y="-116" font-family="Helvetica,sans-Serif" font-size="10.00">::zero</text>
</g>
<!-- Node2 -->
<g id="node2" class="node"><title>Node2</title>
<g id="a_node2"><a xlink:href="../../d5/d79/classpfasst_1_1examples_1_1boris_1_1InjectiveTransfer.html#a8edb899e253e687e270fcf7cb8a06840" target="_top" xlink:title="Compute FAS correction between the coarse and fine sweepers. ">
<polygon fill="white" stroke="black" points="162,-207 162,-237 283,-237 283,-207 162,-207"/>
<text text-anchor="start" x="170" y="-225" font-family="Helvetica,sans-Serif" font-size="10.00">pfasst::examples::boris</text>
<text text-anchor="middle" x="222.5" y="-214" font-family="Helvetica,sans-Serif" font-size="10.00">::InjectiveTransfer::fas</text>
</a>
</g>
</g>
<!-- Node1&#45;&gt;Node2 -->
<g id="edge1" class="edge"><title>Node1&#45;&gt;Node2</title>
<path fill="none" stroke="midnightblue" d="M85.2918,-145.757C103.79,-161.818 130.656,-183.343 157,-198 162.847,-201.253 169.222,-204.231 175.615,-206.899"/>
<polygon fill="midnightblue" stroke="midnightblue" points="87.4736,-143.014 77.6583,-139.025 82.8439,-148.265 87.4736,-143.014"/>
</g>
<!-- Node3 -->
<g id="node3" class="node"><title>Node3</title>
<g id="a_node3"><a xlink:href="../../dc/d0f/classpfasst_1_1examples_1_1boris_1_1BorisSweeper.html#aad345265c84d65b1c0023d9d4f7b4248" target="_top" xlink:title="pfasst::examples::boris\l::BorisSweeper::integrate">
<polygon fill="white" stroke="black" points="157,-158 157,-188 288,-188 288,-158 157,-158"/>
<text text-anchor="start" x="165" y="-176" font-family="Helvetica,sans-Serif" font-size="10.00">pfasst::examples::boris</text>
<text text-anchor="middle" x="222.5" y="-165" font-family="Helvetica,sans-Serif" font-size="10.00">::BorisSweeper::integrate</text>
</a>
</g>
</g>
<!-- Node1&#45;&gt;Node3 -->
<g id="edge2" class="edge"><title>Node1&#45;&gt;Node3</title>
<path fill="none" stroke="midnightblue" d="M120.644,-142.113C137.654,-147.322 156.016,-152.946 172.352,-157.948"/>
<polygon fill="midnightblue" stroke="midnightblue" points="121.397,-138.683 110.811,-139.101 119.348,-145.376 121.397,-138.683"/>
</g>
<!-- Node4 -->
<g id="node4" class="node"><title>Node4</title>
<g id="a_node4"><a xlink:href="../../dc/d0f/classpfasst_1_1examples_1_1boris_1_1BorisSweeper.html#abe5be9b789c74c2836aa80b135c91089" target="_top" xlink:title="Compute residual at each SDC node (including FAS corrections). ">
<polygon fill="white" stroke="black" points="158.5,-109 158.5,-139 286.5,-139 286.5,-109 158.5,-109"/>
<text text-anchor="start" x="166.5" y="-127" font-family="Helvetica,sans-Serif" font-size="10.00">pfasst::examples::boris</text>
<text text-anchor="middle" x="222.5" y="-116" font-family="Helvetica,sans-Serif" font-size="10.00">::BorisSweeper::residual</text>
</a>
</g>
</g>
<!-- Node1&#45;&gt;Node4 -->
<g id="edge3" class="edge"><title>Node1&#45;&gt;Node4</title>
<path fill="none" stroke="midnightblue" d="M131.19,-124C140.235,-124 149.459,-124 158.389,-124"/>
<polygon fill="midnightblue" stroke="midnightblue" points="131.078,-120.5 121.078,-124 131.078,-127.5 131.078,-120.5"/>
</g>
<!-- Node5 -->
<g id="node5" class="node"><title>Node5</title>
<g id="a_node5"><a xlink:href="../../dc/d0f/classpfasst_1_1examples_1_1boris_1_1BorisSweeper.html#aad721417c20f81397004358db6e434b8" target="_top" xlink:title="Perform one SDC sweep/iteration. ">
<polygon fill="white" stroke="black" points="161.5,-60 161.5,-90 283.5,-90 283.5,-60 161.5,-60"/>
<text text-anchor="start" x="169.5" y="-78" font-family="Helvetica,sans-Serif" font-size="10.00">pfasst::examples::boris</text>
<text text-anchor="middle" x="222.5" y="-67" font-family="Helvetica,sans-Serif" font-size="10.00">::BorisSweeper::sweep</text>
</a>
</g>
</g>
<!-- Node1&#45;&gt;Node5 -->
<g id="edge4" class="edge"><title>Node1&#45;&gt;Node5</title>
<path fill="none" stroke="midnightblue" d="M120.644,-105.887C137.654,-100.678 156.016,-95.0543 172.352,-90.0516"/>
<polygon fill="midnightblue" stroke="midnightblue" points="119.348,-102.624 110.811,-108.899 121.397,-109.317 119.348,-102.624"/>
</g>
<!-- Node6 -->
<g id="node6" class="node"><title>Node6</title>
<g id="a_node6"><a xlink:href="../../dc/d0f/classpfasst_1_1examples_1_1boris_1_1BorisSweeper.html#a9c034223d9bc09280121b7b0bf13a425" target="_top" xlink:title="pfasst::examples::boris\l::BorisSweeper::update\l_velocity">
<polygon fill="white" stroke="black" points="161,-0.5 161,-41.5 284,-41.5 284,-0.5 161,-0.5"/>
<text text-anchor="start" x="169" y="-29.5" font-family="Helvetica,sans-Serif" font-size="10.00">pfasst::examples::boris</text>
<text text-anchor="start" x="169" y="-18.5" font-family="Helvetica,sans-Serif" font-size="10.00">::BorisSweeper::update</text>
<text text-anchor="middle" x="222.5" y="-7.5" font-family="Helvetica,sans-Serif" font-size="10.00">_velocity</text>
</a>
</g>
</g>
<!-- Node1&#45;&gt;Node6 -->
<g id="edge5" class="edge"><title>Node1&#45;&gt;Node6</title>
<path fill="none" stroke="midnightblue" d="M86.7119,-102.3C105.365,-86.8622 131.802,-66.2421 157,-51 162.389,-47.7401 168.191,-44.5885 174.027,-41.6313"/>
<polygon fill="midnightblue" stroke="midnightblue" points="84.3934,-99.676 78.9715,-108.778 88.8864,-105.044 84.3934,-99.676"/>
</g>
</g>
</svg>
