<?xml version="1.0" encoding="UTF-8" standalone="no"?>
<!DOCTYPE svg PUBLIC "-//W3C//DTD SVG 1.1//EN"
 "http://www.w3.org/Graphics/SVG/1.1/DTD/svg11.dtd">
<!-- Generated by graphviz version 2.38.0 (20140413.2041)
 -->
<!-- Title: pfasst::examples::boris::max Pages: 1 -->
<svg width="378pt" height="267pt"
 viewBox="0.00 0.00 378.00 266.50" xmlns="http://www.w3.org/2000/svg" xmlns:xlink="http://www.w3.org/1999/xlink">
<g id="graph0" class="graph" transform="scale(1 1) rotate(0) translate(4 262.5)">
<title>pfasst::examples::boris::max</title>
<polygon fill="white" stroke="none" points="-4,4 -4,-262.5 374,-262.5 374,4 -4,4"/>
<!-- Node1 -->
<g id="node1" class="node"><title>Node1</title>
<polygon fill="#bfbfbf" stroke="black" points="0,-114 0,-133 146,-133 146,-114 0,-114"/>
<text text-anchor="middle" x="73" y="-121" font-family="Helvetica,sans-Serif" font-size="10.00">pfasst::examples::boris::max</text>
</g>
<!-- Node2 -->
<g id="node2" class="node"><title>Node2</title>
<g id="a_node2"><a xlink:href="../../dc/d0f/classpfasst_1_1examples_1_1boris_1_1BorisSweeper.html#a73f1805ffadc107995c4d081bcaa2b8e" target="_top" xlink:title="pfasst::examples::boris\l::BorisSweeper::compute\l_residual_max">
<polygon fill="white" stroke="black" points="210.5,-217 210.5,-258 341.5,-258 341.5,-217 210.5,-217"/>
<text text-anchor="start" x="218.5" y="-246" font-family="Helvetica,sans-Serif" font-size="10.00">pfasst::examples::boris</text>
<text text-anchor="start" x="218.5" y="-235" font-family="Helvetica,sans-Serif" font-size="10.00">::BorisSweeper::compute</text>
<text text-anchor="middle" x="276" y="-224" font-family="Helvetica,sans-Serif" font-size="10.00">_residual_max</text>
</a>
</g>
</g>
<!-- Node1&#45;&gt;Node2 -->
<g id="edge1" class="edge"><title>Node1&#45;&gt;Node2</title>
<path fill="none" stroke="midnightblue" d="M91.3724,-140.176C111.662,-158.86 146.936,-188.953 182,-207.5 190.848,-212.18 200.557,-216.296 210.261,-219.86"/>
<polygon fill="midnightblue" stroke="midnightblue" points="93.5719,-137.441 83.8789,-133.163 88.7887,-142.552 93.5719,-137.441"/>
</g>
<!-- Node3 -->
<g id="node3" class="node"><title>Node3</title>
<g id="a_node3"><a xlink:href="../../d2/dd0/classpfasst_1_1examples_1_1boris_1_1ParticleCloud.html#af821fa50b541e050b02b649e5088adb4" target="_top" xlink:title="pfasst::examples::boris\l::ParticleCloud::distribute\l_around_center">
<polygon fill="white" stroke="black" points="211.5,-157 211.5,-198 340.5,-198 340.5,-157 211.5,-157"/>
<text text-anchor="start" x="219.5" y="-186" font-family="Helvetica,sans-Serif" font-size="10.00">pfasst::examples::boris</text>
<text text-anchor="start" x="219.5" y="-175" font-family="Helvetica,sans-Serif" font-size="10.00">::ParticleCloud::distribute</text>
<text text-anchor="middle" x="276" y="-164" font-family="Helvetica,sans-Serif" font-size="10.00">_around_center</text>
</a>
</g>
</g>
<!-- Node1&#45;&gt;Node3 -->
<g id="edge2" class="edge"><title>Node1&#45;&gt;Node3</title>
<path fill="none" stroke="midnightblue" d="M119.481,-135.719C146.656,-143.019 181.589,-152.404 211.461,-160.43"/>
<polygon fill="midnightblue" stroke="midnightblue" points="120.038,-132.244 109.472,-133.03 118.222,-139.005 120.038,-132.244"/>
</g>
<!-- Node4 -->
<g id="node4" class="node"><title>Node4</title>
<g id="a_node4"><a xlink:href="../../d5/d3f/classpfasst_1_1examples_1_1vdp_1_1VdpSweeper.html#a408ba7701bca5db3abb44f2744d69d98" target="_top" xlink:title="computes and prints out error, which is meaningful only for \( \nu=0 \). ">
<polygon fill="white" stroke="black" points="208,-108.5 208,-138.5 344,-138.5 344,-108.5 208,-108.5"/>
<text text-anchor="start" x="216" y="-126.5" font-family="Helvetica,sans-Serif" font-size="10.00">pfasst::examples::vdp</text>
<text text-anchor="middle" x="276" y="-115.5" font-family="Helvetica,sans-Serif" font-size="10.00">::VdpSweeper::echo_error</text>
</a>
</g>
</g>
<!-- Node1&#45;&gt;Node4 -->
<g id="edge3" class="edge"><title>Node1&#45;&gt;Node4</title>
<path fill="none" stroke="midnightblue" d="M156.738,-123.5C173.705,-123.5 191.369,-123.5 207.713,-123.5"/>
<polygon fill="midnightblue" stroke="midnightblue" points="156.282,-120 146.282,-123.5 156.282,-127 156.282,-120"/>
</g>
<!-- Node5 -->
<g id="node5" class="node"><title>Node5</title>
<g id="a_node5"><a xlink:href="../../d2/dfe/classpfasst_1_1examples_1_1advection__diffusion_1_1AdvectionDiffusionSweeper.html#a876343efb6009847f154e4650cd31302" target="_top" xlink:title="pfasst::examples::advection\l_diffusion::AdvectionDiffusionSweeper\l::echo_error">
<polygon fill="white" stroke="black" points="182,-49 182,-90 370,-90 370,-49 182,-49"/>
<text text-anchor="start" x="190" y="-78" font-family="Helvetica,sans-Serif" font-size="10.00">pfasst::examples::advection</text>
<text text-anchor="start" x="190" y="-67" font-family="Helvetica,sans-Serif" font-size="10.00">_diffusion::AdvectionDiffusionSweeper</text>
<text text-anchor="middle" x="276" y="-56" font-family="Helvetica,sans-Serif" font-size="10.00">::echo_error</text>
</a>
</g>
</g>
<!-- Node1&#45;&gt;Node5 -->
<g id="edge4" class="edge"><title>Node1&#45;&gt;Node5</title>
<path fill="none" stroke="midnightblue" d="M119.133,-111.375C142.567,-105.079 171.838,-97.2151 198.667,-90.0074"/>
<polygon fill="midnightblue" stroke="midnightblue" points="118.222,-107.995 109.472,-113.97 120.038,-114.756 118.222,-107.995"/>
</g>
<!-- Node6 -->
<g id="node6" class="node"><title>Node6</title>
<g id="a_node6"><a xlink:href="../../d2/dd0/classpfasst_1_1examples_1_1boris_1_1ParticleCloud.html#a4b7fcb048548af82696fb3bd72322fe2" target="_top" xlink:title="Computes the \( 0 \)&#45;norm of the data structure&#39;s values. ">
<polygon fill="white" stroke="black" points="215.5,-0.5 215.5,-30.5 336.5,-30.5 336.5,-0.5 215.5,-0.5"/>
<text text-anchor="start" x="223.5" y="-18.5" font-family="Helvetica,sans-Serif" font-size="10.00">pfasst::examples::boris</text>
<text text-anchor="middle" x="276" y="-7.5" font-family="Helvetica,sans-Serif" font-size="10.00">::ParticleCloud::norm0</text>
</a>
</g>
</g>
<!-- Node1&#45;&gt;Node6 -->
<g id="edge5" class="edge"><title>Node1&#45;&gt;Node6</title>
<path fill="none" stroke="midnightblue" d="M90.8617,-106.743C110.92,-87.7299 146.213,-57.0882 182,-39.5 192.326,-34.4251 203.842,-30.3424 215.156,-27.0857"/>
<polygon fill="midnightblue" stroke="midnightblue" points="88.2388,-104.41 83.4771,-113.874 93.1016,-109.445 88.2388,-104.41"/>
</g>
</g>
</svg>
