<?xml version="1.0" encoding="UTF-8" standalone="no"?>
<!DOCTYPE svg PUBLIC "-//W3C//DTD SVG 1.1//EN"
 "http://www.w3.org/Graphics/SVG/1.1/DTD/svg11.dtd">
<!-- Generated by graphviz version 2.38.0 (20140413.2041)
 -->
<!-- Title: pfasst::examples::boris::distance Pages: 1 -->
<svg width="287pt" height="88pt"
 viewBox="0.00 0.00 287.00 88.00" xmlns="http://www.w3.org/2000/svg" xmlns:xlink="http://www.w3.org/1999/xlink">
<g id="graph0" class="graph" transform="scale(1 1) rotate(0) translate(4 84)">
<title>pfasst::examples::boris::distance</title>
<polygon fill="white" stroke="none" points="-4,4 -4,-84 283,-84 283,4 -4,4"/>
<!-- Node1 -->
<g id="node1" class="node"><title>Node1</title>
<polygon fill="#bfbfbf" stroke="black" points="0,-24.5 0,-54.5 121,-54.5 121,-24.5 0,-24.5"/>
<text text-anchor="start" x="8" y="-42.5" font-family="Helvetica,sans-Serif" font-size="10.00">pfasst::examples::boris</text>
<text text-anchor="middle" x="60.5" y="-31.5" font-family="Helvetica,sans-Serif" font-size="10.00">::distance</text>
</g>
<!-- Node2 -->
<g id="node2" class="node"><title>Node2</title>
<g id="a_node2"><a xlink:href="../../da/d74/namespacepfasst_1_1examples_1_1boris.html#ac76859c5b2741c316d555536a422b8b1" target="_top" xlink:title="pfasst::examples::boris\l::distance">
<polygon fill="white" stroke="black" points="157.5,-49.5 157.5,-79.5 278.5,-79.5 278.5,-49.5 157.5,-49.5"/>
<text text-anchor="start" x="165.5" y="-67.5" font-family="Helvetica,sans-Serif" font-size="10.00">pfasst::examples::boris</text>
<text text-anchor="middle" x="218" y="-56.5" font-family="Helvetica,sans-Serif" font-size="10.00">::distance</text>
</a>
</g>
</g>
<!-- Node1&#45;&gt;Node2 -->
<g id="edge1" class="edge"><title>Node1&#45;&gt;Node2</title>
<path fill="none" stroke="midnightblue" d="M131.051,-50.6819C139.873,-52.1002 148.838,-53.5415 157.484,-54.9315"/>
<polygon fill="midnightblue" stroke="midnightblue" points="131.604,-47.2259 121.176,-49.0942 130.493,-54.1372 131.604,-47.2259"/>
</g>
<!-- Node3 -->
<g id="node3" class="node"><title>Node3</title>
<g id="a_node3"><a xlink:href="../../da/d74/namespacepfasst_1_1examples_1_1boris.html#a58b385d93472a77dd89106ebb8ec7627" target="_top" xlink:title="pfasst::examples::boris\l::distance_to_reference">
<polygon fill="white" stroke="black" points="157,-0.5 157,-30.5 279,-30.5 279,-0.5 157,-0.5"/>
<text text-anchor="start" x="165" y="-18.5" font-family="Helvetica,sans-Serif" font-size="10.00">pfasst::examples::boris</text>
<text text-anchor="middle" x="218" y="-7.5" font-family="Helvetica,sans-Serif" font-size="10.00">::distance_to_reference</text>
</a>
</g>
</g>
<!-- Node1&#45;&gt;Node3 -->
<g id="edge2" class="edge"><title>Node1&#45;&gt;Node3</title>
<path fill="none" stroke="midnightblue" d="M131.188,-28.7442C139.792,-27.4164 148.528,-26.068 156.97,-24.7651"/>
<polygon fill="midnightblue" stroke="midnightblue" points="130.525,-25.3051 121.176,-30.2896 131.593,-32.2232 130.525,-25.3051"/>
</g>
</g>
</svg>
