<?xml version="1.0" encoding="UTF-8" standalone="no"?>
<!DOCTYPE svg PUBLIC "-//W3C//DTD SVG 1.1//EN"
 "http://www.w3.org/Graphics/SVG/1.1/DTD/svg11.dtd">
<!-- Generated by graphviz version 2.38.0 (20140413.2041)
 -->
<!-- Title: pfasst::examples::boris::kronecker Pages: 1 -->
<svg width="309pt" height="39pt"
 viewBox="0.00 0.00 309.00 39.00" xmlns="http://www.w3.org/2000/svg" xmlns:xlink="http://www.w3.org/1999/xlink">
<g id="graph0" class="graph" transform="scale(1 1) rotate(0) translate(4 35)">
<title>pfasst::examples::boris::kronecker</title>
<polygon fill="white" stroke="none" points="-4,4 -4,-35 305,-35 305,4 -4,4"/>
<!-- Node1 -->
<g id="node1" class="node"><title>Node1</title>
<polygon fill="#bfbfbf" stroke="black" points="0,-0.5 0,-30.5 121,-30.5 121,-0.5 0,-0.5"/>
<text text-anchor="start" x="8" y="-18.5" font-family="Helvetica,sans-Serif" font-size="10.00">pfasst::examples::boris</text>
<text text-anchor="middle" x="60.5" y="-7.5" font-family="Helvetica,sans-Serif" font-size="10.00">::kronecker</text>
</g>
<!-- Node2 -->
<g id="node2" class="node"><title>Node2</title>
<g id="a_node2"><a xlink:href="../../dc/d0f/classpfasst_1_1examples_1_1boris_1_1BorisSweeper.html#a94a933636125a5be79bee73ce2c32f0c" target="_top" xlink:title="pfasst::examples::boris\l::BorisSweeper::boris_solve">
<polygon fill="white" stroke="black" points="157,-0.5 157,-30.5 301,-30.5 301,-0.5 157,-0.5"/>
<text text-anchor="start" x="165" y="-18.5" font-family="Helvetica,sans-Serif" font-size="10.00">pfasst::examples::boris</text>
<text text-anchor="middle" x="229" y="-7.5" font-family="Helvetica,sans-Serif" font-size="10.00">::BorisSweeper::boris_solve</text>
</a>
</g>
</g>
<!-- Node1&#45;&gt;Node2 -->
<g id="edge1" class="edge"><title>Node1&#45;&gt;Node2</title>
<path fill="none" stroke="midnightblue" d="M131.316,-15.5C139.755,-15.5 148.384,-15.5 156.842,-15.5"/>
<polygon fill="midnightblue" stroke="midnightblue" points="131.14,-12.0001 121.14,-15.5 131.14,-19.0001 131.14,-12.0001"/>
</g>
</g>
</svg>
