<?xml version="1.0" encoding="UTF-8" standalone="no"?>
<!DOCTYPE svg PUBLIC "-//W3C//DTD SVG 1.1//EN"
 "http://www.w3.org/Graphics/SVG/1.1/DTD/svg11.dtd">
<!-- Generated by graphviz version 2.38.0 (20140413.2041)
 -->
<!-- Title: src/pfasst/controller/mlsdc_impl.hpp Pages: 1 -->
<!--zoomable 498 -->
<svg id="main" version="1.1" xmlns="http://www.w3.org/2000/svg" xmlns:xlink="http://www.w3.org/1999/xlink" xml:space="preserve" onload="init(evt)">
<style type="text/css"><![CDATA[
.edge:hover path { stroke: red; }
.edge:hover polygon { stroke: red; fill: red; }
]]></style>
<script type="text/javascript"><![CDATA[
var edges = document.getElementsByTagName('g');
if (edges && edges.length) {
  for (var i=0;i<edges.length;i++) {
    if (edges[i].id.substr(0,4)=='edge') {
      edges[i].setAttribute('class','edge');
    }
  }
}
]]></script>
        <defs>
                <circle id="rim" cx="0" cy="0" r="7"/>
                <circle id="rim2" cx="0" cy="0" r="3.5"/>
                <g id="zoomPlus">
                        <use xlink:href="#rim" fill="#404040">
                                <set attributeName="fill" to="#808080" begin="zoomplus.mouseover" end="zoomplus.mouseout"/>
                        </use>
                        <path d="M-4,0h8M0,-4v8" fill="none" stroke="white" stroke-width="1.5" pointer-events="none"/>
                </g>
                <g id="zoomMin">
                        <use xlink:href="#rim" fill="#404040">
                                <set attributeName="fill" to="#808080" begin="zoomminus.mouseover" end="zoomminus.mouseout"/>
                        </use>
                        <path d="M-4,0h8" fill="none" stroke="white" stroke-width="1.5" pointer-events="none"/>
                </g>
                <g id="dirArrow">
                        <path fill="none" stroke="white" stroke-width="1.5" d="M0,-3.0v7 M-2.5,-0.5L0,-3.0L2.5,-0.5"/>
                </g>
               <g id="resetDef">
                       <use xlink:href="#rim2" fill="#404040">
                               <set attributeName="fill" to="#808080" begin="reset.mouseover" end="reset.mouseout"/>
                       </use>
               </g>
        </defs>

<script type="text/javascript">
var viewWidth = 905;
var viewHeight = 498;
var sectionId = 'dynsection-0';
</script>
<script xlink:href="../../svgpan.js"/>
<svg id="graph" class="graph">
<g id="viewport">
<title>src/pfasst/controller/mlsdc_impl.hpp</title>
<polygon fill="white" stroke="none" points="-4,4 -4,-494 901.44,-494 901.44,4 -4,4"/>
<!-- Node1 -->
<g id="node1" class="node"><title>Node1</title>
<polygon fill="#bfbfbf" stroke="black" points="509.94,-459.5 509.94,-489.5 613.94,-489.5 613.94,-459.5 509.94,-459.5"/>
<text text-anchor="start" x="517.94" y="-477.5" font-family="Helvetica,sans-Serif" font-size="10.00">src/pfasst/controller</text>
<text text-anchor="middle" x="561.94" y="-466.5" font-family="Helvetica,sans-Serif" font-size="10.00">/mlsdc_impl.hpp</text>
</g>
<!-- Node2 -->
<g id="node2" class="node"><title>Node2</title>
<g id="a_node2"><a xlink:href="../../da/d27/mlsdc_8hpp.html" target="_top" xlink:title="pfasst/controller/mlsdc.hpp">
<polygon fill="white" stroke="black" points="446.44,-403.5 446.44,-422.5 581.44,-422.5 581.44,-403.5 446.44,-403.5"/>
<text text-anchor="middle" x="513.94" y="-410.5" font-family="Helvetica,sans-Serif" font-size="10.00">pfasst/controller/mlsdc.hpp</text>
</a>
</g>
</g>
<!-- Node1&#45;&gt;Node2 -->
<g id="edge1" class="edge"><title>Node1&#45;&gt;Node2</title>
<path fill="none" stroke="midnightblue" d="M544.724,-459.399C536.806,-450.932 527.954,-440.099 521.587,-431.139"/>
<polygon fill="midnightblue" stroke="midnightblue" points="524.421,-429.08 515.995,-422.658 518.577,-432.933 524.421,-429.08"/>
</g>
<!-- Node14 -->
<g id="node14" class="node"><title>Node14</title>
<g id="a_node14"><a xlink:href="../../d0/da9/logging_8hpp.html" target="_top" xlink:title="pfasst/logging.hpp">
<polygon fill="white" stroke="black" points="398.94,-168.5 398.94,-187.5 496.94,-187.5 496.94,-168.5 398.94,-168.5"/>
<text text-anchor="middle" x="447.94" y="-175.5" font-family="Helvetica,sans-Serif" font-size="10.00">pfasst/logging.hpp</text>
</a>
</g>
</g>
<!-- Node1&#45;&gt;Node14 -->
<g id="edge40" class="edge"><title>Node1&#45;&gt;Node14</title>
<path fill="none" stroke="midnightblue" d="M572.119,-459.34C586.209,-438.309 609.94,-397.087 609.94,-358 609.94,-358 609.94,-358 609.94,-294.5 609.94,-236.979 541.39,-205.419 493.473,-190.385"/>
<polygon fill="midnightblue" stroke="midnightblue" points="494.477,-187.032 483.893,-187.51 492.465,-193.737 494.477,-187.032"/>
</g>
<!-- Node27 -->
<g id="node27" class="node"><title>Node27</title>
<polygon fill="white" stroke="#bfbfbf" points="637.94,-403.5 637.94,-422.5 695.94,-422.5 695.94,-403.5 637.94,-403.5"/>
<text text-anchor="middle" x="666.94" y="-410.5" font-family="Helvetica,sans-Serif" font-size="10.00">algorithm</text>
</g>
<!-- Node1&#45;&gt;Node27 -->
<g id="edge39" class="edge"><title>Node1&#45;&gt;Node27</title>
<path fill="none" stroke="midnightblue" d="M586.823,-459.399C603.654,-449.862 625.778,-437.325 642.512,-427.842"/>
<polygon fill="midnightblue" stroke="midnightblue" points="644.686,-430.633 651.661,-422.658 641.235,-424.543 644.686,-430.633"/>
</g>
<!-- Node2&#45;&gt;Node1 -->
<g id="edge38" class="edge"><title>Node2&#45;&gt;Node1</title>
<path fill="none" stroke="midnightblue" d="M525.853,-422.658C533.465,-430.106 542.948,-441.187 550.436,-451.104"/>
<polygon fill="midnightblue" stroke="midnightblue" points="547.723,-453.326 556.404,-459.399 553.405,-449.238 547.723,-453.326"/>
</g>
<!-- Node3 -->
<g id="node3" class="node"><title>Node3</title>
<polygon fill="white" stroke="#bfbfbf" points="491.94,-347.5 491.94,-366.5 535.94,-366.5 535.94,-347.5 491.94,-347.5"/>
<text text-anchor="middle" x="513.94" y="-354.5" font-family="Helvetica,sans-Serif" font-size="10.00">vector</text>
</g>
<!-- Node2&#45;&gt;Node3 -->
<g id="edge2" class="edge"><title>Node2&#45;&gt;Node3</title>
<path fill="none" stroke="midnightblue" d="M513.94,-403.083C513.94,-396.006 513.94,-385.861 513.94,-376.986"/>
<polygon fill="midnightblue" stroke="midnightblue" points="517.44,-376.751 513.94,-366.751 510.44,-376.751 517.44,-376.751"/>
</g>
<!-- Node4 -->
<g id="node4" class="node"><title>Node4</title>
<g id="a_node4"><a xlink:href="../../d7/d5c/controller_2interface_8hpp.html" target="_top" xlink:title="pfasst/controller/interface.hpp">
<polygon fill="white" stroke="black" points="300.94,-347.5 300.94,-366.5 446.94,-366.5 446.94,-347.5 300.94,-347.5"/>
<text text-anchor="middle" x="373.94" y="-354.5" font-family="Helvetica,sans-Serif" font-size="10.00">pfasst/controller/interface.hpp</text>
</a>
</g>
</g>
<!-- Node2&#45;&gt;Node4 -->
<g id="edge3" class="edge"><title>Node2&#45;&gt;Node4</title>
<path fill="none" stroke="midnightblue" d="M491.756,-403.444C468.511,-394.478 431.791,-380.314 405.524,-370.183"/>
<polygon fill="midnightblue" stroke="midnightblue" points="406.609,-366.85 396.019,-366.516 404.09,-373.381 406.609,-366.85"/>
</g>
<!-- Node5 -->
<g id="node5" class="node"><title>Node5</title>
<polygon fill="white" stroke="#bfbfbf" points="268.94,-168.5 268.94,-187.5 318.94,-187.5 318.94,-168.5 268.94,-168.5"/>
<text text-anchor="middle" x="293.94" y="-175.5" font-family="Helvetica,sans-Serif" font-size="10.00">cassert</text>
</g>
<!-- Node4&#45;&gt;Node5 -->
<g id="edge4" class="edge"><title>Node4&#45;&gt;Node5</title>
<path fill="none" stroke="midnightblue" d="M356.518,-347.47C342.909,-339.851 324.717,-327.368 314.94,-311 293.593,-275.267 291.851,-224.802 292.72,-197.794"/>
<polygon fill="midnightblue" stroke="midnightblue" points="296.218,-197.924 293.203,-187.767 289.226,-197.587 296.218,-197.924"/>
</g>
<!-- Node6 -->
<g id="node6" class="node"><title>Node6</title>
<polygon fill="white" stroke="#bfbfbf" points="323.94,-286 323.94,-305 369.94,-305 369.94,-286 323.94,-286"/>
<text text-anchor="middle" x="346.94" y="-293" font-family="Helvetica,sans-Serif" font-size="10.00">deque</text>
</g>
<!-- Node4&#45;&gt;Node6 -->
<g id="edge5" class="edge"><title>Node4&#45;&gt;Node6</title>
<path fill="none" stroke="midnightblue" d="M370.071,-347.475C366.141,-338.815 359.94,-325.149 354.947,-314.145"/>
<polygon fill="midnightblue" stroke="midnightblue" points="358.12,-312.669 350.801,-305.009 351.746,-315.562 358.12,-312.669"/>
</g>
<!-- Node7 -->
<g id="node7" class="node"><title>Node7</title>
<polygon fill="white" stroke="#bfbfbf" points="388.44,-286 388.44,-305 435.44,-305 435.44,-286 388.44,-286"/>
<text text-anchor="middle" x="411.94" y="-293" font-family="Helvetica,sans-Serif" font-size="10.00">iterator</text>
</g>
<!-- Node4&#45;&gt;Node7 -->
<g id="edge6" class="edge"><title>Node4&#45;&gt;Node7</title>
<path fill="none" stroke="midnightblue" d="M379.384,-347.475C385.028,-338.638 394.001,-324.589 401.098,-313.475"/>
<polygon fill="midnightblue" stroke="midnightblue" points="404.072,-315.321 406.505,-305.009 398.173,-311.553 404.072,-315.321"/>
</g>
<!-- Node8 -->
<g id="node8" class="node"><title>Node8</title>
<polygon fill="white" stroke="#bfbfbf" points="12.4396,-168.5 12.4396,-187.5 65.4396,-187.5 65.4396,-168.5 12.4396,-168.5"/>
<text text-anchor="middle" x="38.9396" y="-175.5" font-family="Helvetica,sans-Serif" font-size="10.00">memory</text>
</g>
<!-- Node4&#45;&gt;Node8 -->
<g id="edge7" class="edge"><title>Node4&#45;&gt;Node8</title>
<path fill="none" stroke="midnightblue" d="M300.824,-353.489C222.449,-349.381 104.597,-338.672 69.9396,-311 35.998,-283.9 34.879,-227.295 36.901,-197.793"/>
<polygon fill="midnightblue" stroke="midnightblue" points="40.407,-197.88 37.8029,-187.61 33.4342,-197.262 40.407,-197.88"/>
</g>
<!-- Node9 -->
<g id="node9" class="node"><title>Node9</title>
<g id="a_node9"><a xlink:href="../../d1/d1b/interfaces_8hpp.html" target="_top" xlink:title="interfaces for SDC/MLSDC/PFASST algorithms. ">
<polygon fill="white" stroke="black" points="79.4396,-286 79.4396,-305 186.44,-305 186.44,-286 79.4396,-286"/>
<text text-anchor="middle" x="132.94" y="-293" font-family="Helvetica,sans-Serif" font-size="10.00">pfasst/interfaces.hpp</text>
</a>
</g>
</g>
<!-- Node4&#45;&gt;Node9 -->
<g id="edge8" class="edge"><title>Node4&#45;&gt;Node9</title>
<path fill="none" stroke="midnightblue" d="M339.41,-347.475C296.728,-336.937 224.019,-318.986 177.257,-307.441"/>
<polygon fill="midnightblue" stroke="midnightblue" points="177.952,-304.008 167.405,-305.009 176.274,-310.804 177.952,-304.008"/>
</g>
<!-- Node26 -->
<g id="node26" class="node"><title>Node26</title>
<g id="a_node26"><a xlink:href="../../d2/dbc/controller_2interface__impl_8hpp.html" target="_top" xlink:title="pfasst/controller/interface\l_impl.hpp">
<polygon fill="white" stroke="black" points="453.94,-280.5 453.94,-310.5 581.94,-310.5 581.94,-280.5 453.94,-280.5"/>
<text text-anchor="start" x="461.94" y="-298.5" font-family="Helvetica,sans-Serif" font-size="10.00">pfasst/controller/interface</text>
<text text-anchor="middle" x="517.94" y="-287.5" font-family="Helvetica,sans-Serif" font-size="10.00">_impl.hpp</text>
</a>
</g>
</g>
<!-- Node4&#45;&gt;Node26 -->
<g id="edge35" class="edge"><title>Node4&#45;&gt;Node26</title>
<path fill="none" stroke="midnightblue" d="M389.671,-347.475C408.66,-338.852 441.098,-325.264 468.657,-314.285"/>
<polygon fill="midnightblue" stroke="midnightblue" points="470.159,-317.455 478.172,-310.523 467.585,-310.945 470.159,-317.455"/>
</g>
<!-- Node9&#45;&gt;Node8 -->
<g id="edge9" class="edge"><title>Node9&#45;&gt;Node8</title>
<path fill="none" stroke="midnightblue" d="M113.17,-285.969C96.1351,-277.64 72.1141,-263.388 57.9396,-244 48.0735,-230.505 43.3057,-211.949 41.0164,-198.117"/>
<polygon fill="midnightblue" stroke="midnightblue" points="44.4326,-197.262 39.6189,-187.824 37.4962,-198.204 44.4326,-197.262"/>
</g>
<!-- Node10 -->
<g id="node10" class="node"><title>Node10</title>
<polygon fill="white" stroke="#bfbfbf" points="216.94,-224.5 216.94,-243.5 276.94,-243.5 276.94,-224.5 216.94,-224.5"/>
<text text-anchor="middle" x="246.94" y="-231.5" font-family="Helvetica,sans-Serif" font-size="10.00">stdexcept</text>
</g>
<!-- Node9&#45;&gt;Node10 -->
<g id="edge10" class="edge"><title>Node9&#45;&gt;Node10</title>
<path fill="none" stroke="midnightblue" d="M149.273,-285.975C168.151,-276.122 199.446,-259.788 221.515,-248.27"/>
<polygon fill="midnightblue" stroke="midnightblue" points="223.391,-251.239 230.636,-243.509 220.152,-245.033 223.391,-251.239"/>
</g>
<!-- Node11 -->
<g id="node11" class="node"><title>Node11</title>
<polygon fill="white" stroke="#bfbfbf" points="111.44,-56.5 111.44,-75.5 152.44,-75.5 152.44,-56.5 111.44,-56.5"/>
<text text-anchor="middle" x="131.94" y="-63.5" font-family="Helvetica,sans-Serif" font-size="10.00">string</text>
</g>
<!-- Node9&#45;&gt;Node11 -->
<g id="edge11" class="edge"><title>Node9&#45;&gt;Node11</title>
<path fill="none" stroke="midnightblue" d="M111.569,-285.957C79.1567,-271.542 19.5768,-238.887 2.93957,-188 -14.4556,-134.794 58.3395,-96.0061 101.695,-78.0823"/>
<polygon fill="midnightblue" stroke="midnightblue" points="103.243,-81.2331 111.235,-74.2767 100.649,-74.7314 103.243,-81.2331"/>
</g>
<!-- Node12 -->
<g id="node12" class="node"><title>Node12</title>
<g id="a_node12"><a xlink:href="../../d8/dc4/interfaces__impl_8hpp.html" target="_top" xlink:title="pfasst/interfaces_impl.hpp">
<polygon fill="white" stroke="black" points="67.4396,-224.5 67.4396,-243.5 198.44,-243.5 198.44,-224.5 67.4396,-224.5"/>
<text text-anchor="middle" x="132.94" y="-231.5" font-family="Helvetica,sans-Serif" font-size="10.00">pfasst/interfaces_impl.hpp</text>
</a>
</g>
</g>
<!-- Node9&#45;&gt;Node12 -->
<g id="edge12" class="edge"><title>Node9&#45;&gt;Node12</title>
<path fill="none" stroke="midnightblue" d="M128.039,-285.975C126.208,-277.58 125.737,-264.481 126.625,-253.663"/>
<polygon fill="midnightblue" stroke="midnightblue" points="130.126,-253.897 128.042,-243.509 123.193,-252.929 130.126,-253.897"/>
</g>
<!-- Node12&#45;&gt;Node5 -->
<g id="edge14" class="edge"><title>Node12&#45;&gt;Node5</title>
<path fill="none" stroke="midnightblue" d="M158.451,-224.444C185.615,-215.332 228.783,-200.854 259.075,-190.694"/>
<polygon fill="midnightblue" stroke="midnightblue" points="260.445,-193.926 268.813,-187.428 258.219,-187.289 260.445,-193.926"/>
</g>
<!-- Node12&#45;&gt;Node8 -->
<g id="edge15" class="edge"><title>Node12&#45;&gt;Node8</title>
<path fill="none" stroke="midnightblue" d="M117.837,-224.324C103.036,-215.822 80.2453,-202.729 62.9574,-192.797"/>
<polygon fill="midnightblue" stroke="midnightblue" points="64.4193,-189.601 54.0048,-187.655 60.9324,-195.671 64.4193,-189.601"/>
</g>
<!-- Node12&#45;&gt;Node9 -->
<g id="edge13" class="edge"><title>Node12&#45;&gt;Node9</title>
<path fill="none" stroke="midnightblue" d="M137.837,-243.509C139.669,-251.898 140.143,-264.996 139.256,-275.817"/>
<polygon fill="midnightblue" stroke="midnightblue" points="135.754,-275.588 137.84,-285.975 142.687,-276.554 135.754,-275.588"/>
</g>
<!-- Node12&#45;&gt;Node11 -->
<g id="edge16" class="edge"><title>Node12&#45;&gt;Node11</title>
<path fill="none" stroke="midnightblue" d="M132.691,-224.374C132.443,-215.316 132.08,-200.659 131.94,-188 131.536,-151.716 131.677,-109.308 131.812,-85.5597"/>
<polygon fill="midnightblue" stroke="midnightblue" points="135.312,-85.5307 131.875,-75.5089 128.312,-85.4867 135.312,-85.5307"/>
</g>
<!-- Node13 -->
<g id="node13" class="node"><title>Node13</title>
<g id="a_node13"><a xlink:href="../../d5/d82/globals_8hpp.html" target="_top" xlink:title="pfasst/globals.hpp">
<polygon fill="white" stroke="black" points="141.44,-168.5 141.44,-187.5 238.44,-187.5 238.44,-168.5 141.44,-168.5"/>
<text text-anchor="middle" x="189.94" y="-175.5" font-family="Helvetica,sans-Serif" font-size="10.00">pfasst/globals.hpp</text>
</a>
</g>
</g>
<!-- Node12&#45;&gt;Node13 -->
<g id="edge17" class="edge"><title>Node12&#45;&gt;Node13</title>
<path fill="none" stroke="midnightblue" d="M142.098,-224.324C150.441,-216.42 162.972,-204.548 173.116,-194.938"/>
<polygon fill="midnightblue" stroke="midnightblue" points="175.762,-197.252 180.615,-187.834 170.948,-192.171 175.762,-197.252"/>
</g>
<!-- Node12&#45;&gt;Node14 -->
<g id="edge18" class="edge"><title>Node12&#45;&gt;Node14</title>
<path fill="none" stroke="midnightblue" d="M182.852,-224.444C238.774,-214.857 329.357,-199.328 388.79,-189.14"/>
<polygon fill="midnightblue" stroke="midnightblue" points="389.514,-192.567 398.779,-187.428 388.331,-185.668 389.514,-192.567"/>
</g>
<!-- Node14&#45;&gt;Node11 -->
<g id="edge21" class="edge"><title>Node14&#45;&gt;Node11</title>
<path fill="none" stroke="midnightblue" d="M398.868,-174.058C329.266,-169.057 206.279,-156.921 169.94,-132 153.805,-120.935 143.547,-100.59 137.81,-85.5984"/>
<polygon fill="midnightblue" stroke="midnightblue" points="141.005,-84.1309 134.412,-75.8376 134.394,-86.4325 141.005,-84.1309"/>
</g>
<!-- Node15 -->
<g id="node15" class="node"><title>Node15</title>
<polygon fill="white" stroke="#bfbfbf" points="506.94,-112.5 506.94,-131.5 558.94,-131.5 558.94,-112.5 506.94,-112.5"/>
<text text-anchor="middle" x="532.94" y="-119.5" font-family="Helvetica,sans-Serif" font-size="10.00">iomanip</text>
</g>
<!-- Node14&#45;&gt;Node15 -->
<g id="edge19" class="edge"><title>Node14&#45;&gt;Node15</title>
<path fill="none" stroke="midnightblue" d="M461.596,-168.324C474.856,-159.9 495.208,-146.971 510.786,-137.074"/>
<polygon fill="midnightblue" stroke="midnightblue" points="512.753,-139.971 519.317,-131.655 508.999,-134.063 512.753,-139.971"/>
</g>
<!-- Node16 -->
<g id="node16" class="node"><title>Node16</title>
<polygon fill="white" stroke="#bfbfbf" points="433.94,-56.5 433.94,-75.5 489.94,-75.5 489.94,-56.5 433.94,-56.5"/>
<text text-anchor="middle" x="461.94" y="-63.5" font-family="Helvetica,sans-Serif" font-size="10.00">iostream</text>
</g>
<!-- Node14&#45;&gt;Node16 -->
<g id="edge20" class="edge"><title>Node14&#45;&gt;Node16</title>
<path fill="none" stroke="midnightblue" d="M450.836,-168.496C453.738,-159.538 458.038,-144.96 459.94,-132 462.196,-116.621 462.604,-98.9849 462.499,-85.9666"/>
<polygon fill="midnightblue" stroke="midnightblue" points="465.997,-85.82 462.308,-75.888 458.998,-85.9525 465.997,-85.82"/>
</g>
<!-- Node17 -->
<g id="node17" class="node"><title>Node17</title>
<polygon fill="white" stroke="#bfbfbf" points="179.44,-112.5 179.44,-131.5 310.44,-131.5 310.44,-112.5 179.44,-112.5"/>
<text text-anchor="middle" x="244.94" y="-119.5" font-family="Helvetica,sans-Serif" font-size="10.00">boost/algorithm/string.hpp</text>
</g>
<!-- Node14&#45;&gt;Node17 -->
<g id="edge22" class="edge"><title>Node14&#45;&gt;Node17</title>
<path fill="none" stroke="midnightblue" d="M415.774,-168.444C380.88,-159.162 325.047,-144.309 286.769,-134.127"/>
<polygon fill="midnightblue" stroke="midnightblue" points="287.519,-130.705 276.955,-131.516 285.719,-137.47 287.519,-130.705"/>
</g>
<!-- Node18 -->
<g id="node18" class="node"><title>Node18</title>
<g id="a_node18"><a xlink:href="../../d8/dfd/config_8hpp.html" target="_top" xlink:title="pfasst/config.hpp">
<polygon fill="white" stroke="black" points="585.44,-112.5 585.44,-131.5 676.44,-131.5 676.44,-112.5 585.44,-112.5"/>
<text text-anchor="middle" x="630.94" y="-119.5" font-family="Helvetica,sans-Serif" font-size="10.00">pfasst/config.hpp</text>
</a>
</g>
</g>
<!-- Node14&#45;&gt;Node18 -->
<g id="edge23" class="edge"><title>Node14&#45;&gt;Node18</title>
<path fill="none" stroke="midnightblue" d="M476.936,-168.444C508.124,-159.241 557.869,-144.562 592.347,-134.388"/>
<polygon fill="midnightblue" stroke="midnightblue" points="593.478,-137.704 602.078,-131.516 591.497,-130.99 593.478,-137.704"/>
</g>
<!-- Node25 -->
<g id="node25" class="node"><title>Node25</title>
<polygon fill="white" stroke="#bfbfbf" points="328.94,-112.5 328.94,-131.5 450.94,-131.5 450.94,-112.5 328.94,-112.5"/>
<text text-anchor="middle" x="389.94" y="-119.5" font-family="Helvetica,sans-Serif" font-size="10.00">pfasst/easylogging++.h</text>
</g>
<!-- Node14&#45;&gt;Node25 -->
<g id="edge34" class="edge"><title>Node14&#45;&gt;Node25</title>
<path fill="none" stroke="midnightblue" d="M438.621,-168.324C430.047,-160.341 417.127,-148.313 406.752,-138.653"/>
<polygon fill="midnightblue" stroke="midnightblue" points="409.132,-136.086 399.428,-131.834 404.362,-141.21 409.132,-136.086"/>
</g>
<!-- Node18&#45;&gt;Node11 -->
<g id="edge26" class="edge"><title>Node18&#45;&gt;Node11</title>
<path fill="none" stroke="midnightblue" d="M585.203,-114.252C579.397,-113.459 573.532,-112.688 567.94,-112 416.358,-93.3575 234.476,-76.2878 162.968,-69.7828"/>
<polygon fill="midnightblue" stroke="midnightblue" points="163.122,-66.2825 152.847,-68.8657 162.49,-73.2539 163.122,-66.2825"/>
</g>
<!-- Node18&#45;&gt;Node16 -->
<g id="edge25" class="edge"><title>Node18&#45;&gt;Node16</title>
<path fill="none" stroke="midnightblue" d="M604.161,-112.444C575.606,-103.32 530.207,-88.8133 498.403,-78.6509"/>
<polygon fill="midnightblue" stroke="midnightblue" points="499.184,-75.2262 488.593,-75.5164 497.053,-81.8941 499.184,-75.2262"/>
</g>
<!-- Node19 -->
<g id="node19" class="node"><title>Node19</title>
<polygon fill="white" stroke="#bfbfbf" points="708.94,-0.5 708.94,-19.5 758.94,-19.5 758.94,-0.5 708.94,-0.5"/>
<text text-anchor="middle" x="733.94" y="-7.5" font-family="Helvetica,sans-Serif" font-size="10.00">fstream</text>
</g>
<!-- Node18&#45;&gt;Node19 -->
<g id="edge24" class="edge"><title>Node18&#45;&gt;Node19</title>
<path fill="none" stroke="midnightblue" d="M653.901,-112.396C670.842,-105.018 693.386,-92.8911 707.94,-76 719.458,-62.6318 726.274,-43.5198 730.017,-29.479"/>
<polygon fill="midnightblue" stroke="midnightblue" points="733.478,-30.0511 732.391,-19.5123 726.669,-28.4292 733.478,-30.0511"/>
</g>
<!-- Node20 -->
<g id="node20" class="node"><title>Node20</title>
<polygon fill="white" stroke="#bfbfbf" points="507.94,-56.5 507.94,-75.5 543.94,-75.5 543.94,-56.5 507.94,-56.5"/>
<text text-anchor="middle" x="525.94" y="-63.5" font-family="Helvetica,sans-Serif" font-size="10.00">map</text>
</g>
<!-- Node18&#45;&gt;Node20 -->
<g id="edge27" class="edge"><title>Node18&#45;&gt;Node20</title>
<path fill="none" stroke="midnightblue" d="M614.07,-112.324C597.231,-103.664 571.133,-90.2424 551.702,-80.249"/>
<polygon fill="midnightblue" stroke="midnightblue" points="553.261,-77.1155 542.768,-75.6545 550.06,-83.3405 553.261,-77.1155"/>
</g>
<!-- Node21 -->
<g id="node21" class="node"><title>Node21</title>
<polygon fill="white" stroke="#bfbfbf" points="562.44,-56.5 562.44,-75.5 699.44,-75.5 699.44,-56.5 562.44,-56.5"/>
<text text-anchor="middle" x="630.94" y="-63.5" font-family="Helvetica,sans-Serif" font-size="10.00">boost/program_options.hpp</text>
</g>
<!-- Node18&#45;&gt;Node21 -->
<g id="edge28" class="edge"><title>Node18&#45;&gt;Node21</title>
<path fill="none" stroke="midnightblue" d="M630.94,-112.083C630.94,-105.006 630.94,-94.8611 630.94,-85.9865"/>
<polygon fill="midnightblue" stroke="midnightblue" points="634.44,-85.751 630.94,-75.7511 627.44,-85.7511 634.44,-85.751"/>
</g>
<!-- Node22 -->
<g id="node22" class="node"><title>Node22</title>
<g id="a_node22"><a xlink:href="../../d5/d84/config__impl_8hpp.html" target="_top" xlink:title="pfasst/config_impl.hpp">
<polygon fill="white" stroke="black" points="755.94,-56.5 755.94,-75.5 869.94,-75.5 869.94,-56.5 755.94,-56.5"/>
<text text-anchor="middle" x="812.94" y="-63.5" font-family="Helvetica,sans-Serif" font-size="10.00">pfasst/config_impl.hpp</text>
</a>
</g>
</g>
<!-- Node18&#45;&gt;Node22 -->
<g id="edge29" class="edge"><title>Node18&#45;&gt;Node22</title>
<path fill="none" stroke="midnightblue" d="M654.689,-112.444C683.812,-103.201 733.406,-88.4356 769.395,-78.2572"/>
<polygon fill="midnightblue" stroke="midnightblue" points="770.475,-81.5894 779.156,-75.5164 768.582,-74.85 770.475,-81.5894"/>
</g>
<!-- Node22&#45;&gt;Node18 -->
<g id="edge30" class="edge"><title>Node22&#45;&gt;Node18</title>
<path fill="none" stroke="midnightblue" d="M789.316,-75.5164C760.252,-84.7429 710.669,-99.507 674.641,-109.699"/>
<polygon fill="midnightblue" stroke="midnightblue" points="673.548,-106.37 664.867,-112.444 675.441,-113.109 673.548,-106.37"/>
</g>
<!-- Node22&#45;&gt;Node19 -->
<g id="edge31" class="edge"><title>Node22&#45;&gt;Node19</title>
<path fill="none" stroke="midnightblue" d="M800.247,-56.324C788.038,-47.979 769.361,-35.2122 754.937,-25.3524"/>
<polygon fill="midnightblue" stroke="midnightblue" points="756.832,-22.4082 746.601,-19.6545 752.881,-28.1871 756.832,-22.4082"/>
</g>
<!-- Node23 -->
<g id="node23" class="node"><title>Node23</title>
<polygon fill="white" stroke="#bfbfbf" points="844.44,-0.5 844.44,-19.5 897.44,-19.5 897.44,-0.5 844.44,-0.5"/>
<text text-anchor="middle" x="870.94" y="-7.5" font-family="Helvetica,sans-Serif" font-size="10.00">sstream</text>
</g>
<!-- Node22&#45;&gt;Node23 -->
<g id="edge32" class="edge"><title>Node22&#45;&gt;Node23</title>
<path fill="none" stroke="midnightblue" d="M822.258,-56.324C830.832,-48.3414 843.752,-36.3128 854.127,-26.6529"/>
<polygon fill="midnightblue" stroke="midnightblue" points="856.517,-29.2098 861.451,-19.8339 851.747,-24.0865 856.517,-29.2098"/>
</g>
<!-- Node24 -->
<g id="node24" class="node"><title>Node24</title>
<polygon fill="white" stroke="#bfbfbf" points="787.94,-0.5 787.94,-19.5 825.94,-19.5 825.94,-0.5 787.94,-0.5"/>
<text text-anchor="middle" x="806.94" y="-7.5" font-family="Helvetica,sans-Serif" font-size="10.00">utility</text>
</g>
<!-- Node22&#45;&gt;Node24 -->
<g id="edge33" class="edge"><title>Node22&#45;&gt;Node24</title>
<path fill="none" stroke="midnightblue" d="M811.949,-56.083C811.154,-48.9272 810.01,-38.6353 809.016,-29.6911"/>
<polygon fill="midnightblue" stroke="midnightblue" points="812.495,-29.3034 807.912,-19.7511 805.538,-30.0765 812.495,-29.3034"/>
</g>
<!-- Node26&#45;&gt;Node4 -->
<g id="edge36" class="edge"><title>Node26&#45;&gt;Node4</title>
<path fill="none" stroke="midnightblue" d="M489.832,-310.523C466.639,-320.647 433.795,-334.182 408.917,-343.847"/>
<polygon fill="midnightblue" stroke="midnightblue" points="407.552,-340.622 399.472,-347.475 410.062,-347.157 407.552,-340.622"/>
</g>
<!-- Node26&#45;&gt;Node18 -->
<g id="edge37" class="edge"><title>Node26&#45;&gt;Node18</title>
<path fill="none" stroke="midnightblue" d="M527.187,-280.465C547.808,-249.169 597.492,-173.764 619.785,-139.929"/>
<polygon fill="midnightblue" stroke="midnightblue" points="622.72,-141.836 625.3,-131.56 616.875,-137.984 622.72,-141.836"/>
</g>
</g>
</svg>
        <g id="navigator" transform="translate(0 0)" fill="#404254">
                <rect fill="#f2f5e9" fill-opacity="0.5" stroke="#606060" stroke-width=".5" x="0" y="0" width="60" height="60"/>
                <use id="zoomplus" xlink:href="#zoomPlus" x="17" y="9" onmousedown="handleZoom(evt,'in')"/>
                <use id="zoomminus" xlink:href="#zoomMin" x="42" y="9" onmousedown="handleZoom(evt,'out')"/>
                <use id="reset" xlink:href="#resetDef" x="30" y="36" onmousedown="handleReset()"/>
                <g id="arrowUp" xlink:href="#dirArrow" transform="translate(30 24)" onmousedown="handlePan(0,-1)">
                  <use xlink:href="#rim" fill="#404040">
                        <set attributeName="fill" to="#808080" begin="arrowUp.mouseover" end="arrowUp.mouseout"/>
                  </use>
                  <path fill="none" stroke="white" stroke-width="1.5" d="M0,-3.0v7 M-2.5,-0.5L0,-3.0L2.5,-0.5"/>
                </g>
                <g id="arrowRight" xlink:href="#dirArrow" transform="rotate(90) translate(36 -43)" onmousedown="handlePan(1,0)">
                  <use xlink:href="#rim" fill="#404040">
                        <set attributeName="fill" to="#808080" begin="arrowRight.mouseover" end="arrowRight.mouseout"/>
                  </use>
                  <path fill="none" stroke="white" stroke-width="1.5" d="M0,-3.0v7 M-2.5,-0.5L0,-3.0L2.5,-0.5"/>
                </g>
                <g id="arrowDown" xlink:href="#dirArrow" transform="rotate(180) translate(-30 -48)" onmousedown="handlePan(0,1)">
                  <use xlink:href="#rim" fill="#404040">
                        <set attributeName="fill" to="#808080" begin="arrowDown.mouseover" end="arrowDown.mouseout"/>
                  </use>
                  <path fill="none" stroke="white" stroke-width="1.5" d="M0,-3.0v7 M-2.5,-0.5L0,-3.0L2.5,-0.5"/>
                </g>
                <g id="arrowLeft" xlink:href="#dirArrow" transform="rotate(270) translate(-36 17)" onmousedown="handlePan(-1,0)">
                  <use xlink:href="#rim" fill="#404040">
                        <set attributeName="fill" to="#808080" begin="arrowLeft.mouseover" end="arrowLeft.mouseout"/>
                  </use>
                  <path fill="none" stroke="white" stroke-width="1.5" d="M0,-3.0v7 M-2.5,-0.5L0,-3.0L2.5,-0.5"/>
                </g>
        </g>
        <svg viewBox="0 0 15 15" width="100%" height="30px" preserveAspectRatio="xMaxYMin meet">
         <g id="arrow_out" transform="scale(0.3 0.3)">
          <a xlink:href="mlsdc__impl_8hpp__incl_org.svg" target="_base">
           <rect id="button" ry="5" rx="5" y="6" x="6" height="38" width="38"
                fill="#f2f5e9" fill-opacity="0.5" stroke="#606060" stroke-width="1.0"/>
           <path id="arrow"
             d="M 11.500037,31.436501 C 11.940474,20.09759 22.043105,11.32322 32.158766,21.979434 L 37.068811,17.246167 C 37.068811,17.246167 37.088388,32 37.088388,32 L 22.160133,31.978069 C 22.160133,31.978069 26.997745,27.140456 26.997745,27.140456 C 18.528582,18.264221 13.291696,25.230495 11.500037,31.436501 z"
             style="fill:#404040;"/>
          </a>
         </g>
        </svg>
</svg>
