<?xml version="1.0" encoding="UTF-8" standalone="no"?>
<!DOCTYPE svg PUBLIC "-//W3C//DTD SVG 1.1//EN"
 "http://www.w3.org/Graphics/SVG/1.1/DTD/svg11.dtd">
<!-- Generated by graphviz version 2.38.0 (20140413.2041)
 -->
<!-- Title: examples/boris/particle_cloud_impl.hpp Pages: 1 -->
<!--zoomable 463 -->
<svg id="main" version="1.1" xmlns="http://www.w3.org/2000/svg" xmlns:xlink="http://www.w3.org/1999/xlink" xml:space="preserve" onload="init(evt)">
<style type="text/css"><![CDATA[
.edge:hover path { stroke: red; }
.edge:hover polygon { stroke: red; fill: red; }
]]></style>
<script type="text/javascript"><![CDATA[
var edges = document.getElementsByTagName('g');
if (edges && edges.length) {
  for (var i=0;i<edges.length;i++) {
    if (edges[i].id.substr(0,4)=='edge') {
      edges[i].setAttribute('class','edge');
    }
  }
}
]]></script>
        <defs>
                <circle id="rim" cx="0" cy="0" r="7"/>
                <circle id="rim2" cx="0" cy="0" r="3.5"/>
                <g id="zoomPlus">
                        <use xlink:href="#rim" fill="#404040">
                                <set attributeName="fill" to="#808080" begin="zoomplus.mouseover" end="zoomplus.mouseout"/>
                        </use>
                        <path d="M-4,0h8M0,-4v8" fill="none" stroke="white" stroke-width="1.5" pointer-events="none"/>
                </g>
                <g id="zoomMin">
                        <use xlink:href="#rim" fill="#404040">
                                <set attributeName="fill" to="#808080" begin="zoomminus.mouseover" end="zoomminus.mouseout"/>
                        </use>
                        <path d="M-4,0h8" fill="none" stroke="white" stroke-width="1.5" pointer-events="none"/>
                </g>
                <g id="dirArrow">
                        <path fill="none" stroke="white" stroke-width="1.5" d="M0,-3.0v7 M-2.5,-0.5L0,-3.0L2.5,-0.5"/>
                </g>
               <g id="resetDef">
                       <use xlink:href="#rim2" fill="#404040">
                               <set attributeName="fill" to="#808080" begin="reset.mouseover" end="reset.mouseout"/>
                       </use>
               </g>
        </defs>

<script type="text/javascript">
var viewWidth = 694;
var viewHeight = 463;
var sectionId = 'dynsection-1';
</script>
<script xlink:href="../../svgpan.js"/>
<svg id="graph" class="graph">
<g id="viewport">
<title>examples/boris/particle_cloud_impl.hpp</title>
<polygon fill="white" stroke="none" points="-4,4 -4,-459 690,-459 690,4 -4,4"/>
<!-- Node1 -->
<g id="node1" class="node"><title>Node1</title>
<polygon fill="#bfbfbf" stroke="black" points="355.5,-424.5 355.5,-454.5 476.5,-454.5 476.5,-424.5 355.5,-424.5"/>
<text text-anchor="start" x="363.5" y="-442.5" font-family="Helvetica,sans-Serif" font-size="10.00">examples/boris/particle</text>
<text text-anchor="middle" x="416" y="-431.5" font-family="Helvetica,sans-Serif" font-size="10.00">_cloud_impl.hpp</text>
</g>
<!-- Node2 -->
<g id="node2" class="node"><title>Node2</title>
<g id="a_node2"><a xlink:href="../../d8/d52/particle__cloud_8hpp.html" target="_top" xlink:title="examples/boris/particle\l_cloud.hpp">
<polygon fill="white" stroke="black" points="355.5,-357.5 355.5,-387.5 476.5,-387.5 476.5,-357.5 355.5,-357.5"/>
<text text-anchor="start" x="363.5" y="-375.5" font-family="Helvetica,sans-Serif" font-size="10.00">examples/boris/particle</text>
<text text-anchor="middle" x="416" y="-364.5" font-family="Helvetica,sans-Serif" font-size="10.00">_cloud.hpp</text>
</a>
</g>
</g>
<!-- Node1&#45;&gt;Node2 -->
<g id="edge1" class="edge"><title>Node1&#45;&gt;Node2</title>
<path fill="none" stroke="midnightblue" d="M409.455,-414.403C409.005,-405.37 409.296,-395.408 410.325,-387.577"/>
<polygon fill="midnightblue" stroke="midnightblue" points="405.97,-414.736 410.322,-424.396 412.944,-414.131 405.97,-414.736"/>
</g>
<!-- Node2&#45;&gt;Node1 -->
<g id="edge22" class="edge"><title>Node2&#45;&gt;Node1</title>
<path fill="none" stroke="midnightblue" d="M422.544,-397.565C422.995,-406.596 422.706,-416.56 421.678,-424.396"/>
<polygon fill="midnightblue" stroke="midnightblue" points="426.028,-397.236 421.675,-387.577 419.055,-397.842 426.028,-397.236"/>
</g>
<!-- Node3 -->
<g id="node3" class="node"><title>Node3</title>
<g id="a_node3"><a xlink:href="../../d9/dd9/wrapper__interface_8hpp.html" target="_top" xlink:title="examples/boris/bindings\l/wrapper_interface.hpp">
<polygon fill="white" stroke="black" points="353,-290.5 353,-320.5 479,-320.5 479,-290.5 353,-290.5"/>
<text text-anchor="start" x="361" y="-308.5" font-family="Helvetica,sans-Serif" font-size="10.00">examples/boris/bindings</text>
<text text-anchor="middle" x="416" y="-297.5" font-family="Helvetica,sans-Serif" font-size="10.00">/wrapper_interface.hpp</text>
</a>
</g>
</g>
<!-- Node2&#45;&gt;Node3 -->
<g id="edge2" class="edge"><title>Node2&#45;&gt;Node3</title>
<path fill="none" stroke="midnightblue" d="M416,-347.108C416,-338.154 416,-328.323 416,-320.577"/>
<polygon fill="midnightblue" stroke="midnightblue" points="412.5,-347.396 416,-357.396 419.5,-347.396 412.5,-347.396"/>
</g>
<!-- Node4 -->
<g id="node4" class="node"><title>Node4</title>
<g id="a_node4"><a xlink:href="../../dd/da4/wrapper__simple__physics__solver_8hpp.html" target="_top" xlink:title="examples/boris/bindings\l/wrapper_simple_physics\l_solver.hpp">
<polygon fill="white" stroke="black" points="156.5,-145.5 156.5,-186.5 285.5,-186.5 285.5,-145.5 156.5,-145.5"/>
<text text-anchor="start" x="164.5" y="-174.5" font-family="Helvetica,sans-Serif" font-size="10.00">examples/boris/bindings</text>
<text text-anchor="start" x="164.5" y="-163.5" font-family="Helvetica,sans-Serif" font-size="10.00">/wrapper_simple_physics</text>
<text text-anchor="middle" x="221" y="-152.5" font-family="Helvetica,sans-Serif" font-size="10.00">_solver.hpp</text>
</a>
</g>
</g>
<!-- Node2&#45;&gt;Node4 -->
<g id="edge23" class="edge"><title>Node2&#45;&gt;Node4</title>
<path fill="none" stroke="midnightblue" d="M354.352,-353.739C335.273,-346.002 315.276,-335.338 300,-321 259.247,-282.751 236.01,-218.787 226.349,-186.667"/>
<polygon fill="midnightblue" stroke="midnightblue" points="353.326,-357.095 363.916,-357.414 355.836,-350.56 353.326,-357.095"/>
</g>
<!-- Node6 -->
<g id="node6" class="node"><title>Node6</title>
<g id="a_node6"><a xlink:href="../../d7/d31/boris__mlsdc_8cpp.html" target="_top" xlink:title="examples/boris/boris\l_mlsdc.cpp">
<polygon fill="white" stroke="black" points="502,-0.5 502,-30.5 612,-30.5 612,-0.5 502,-0.5"/>
<text text-anchor="start" x="510" y="-18.5" font-family="Helvetica,sans-Serif" font-size="10.00">examples/boris/boris</text>
<text text-anchor="middle" x="557" y="-7.5" font-family="Helvetica,sans-Serif" font-size="10.00">_mlsdc.cpp</text>
</a>
</g>
</g>
<!-- Node2&#45;&gt;Node6 -->
<g id="edge24" class="edge"><title>Node2&#45;&gt;Node6</title>
<path fill="none" stroke="midnightblue" d="M486.629,-366.886C566.628,-357.38 686,-328.316 686,-239.5 686,-239.5 686,-239.5 686,-165 686,-117.956 677.059,-102.334 646,-67 631.925,-50.9881 611.49,-38.8911 593.75,-30.5571"/>
<polygon fill="midnightblue" stroke="midnightblue" points="486.145,-363.418 476.593,-368.002 486.919,-370.376 486.145,-363.418"/>
</g>
<!-- Node7 -->
<g id="node7" class="node"><title>Node7</title>
<g id="a_node7"><a xlink:href="../../d2/d1e/boris__pfasst_8cpp.html" target="_top" xlink:title="examples/boris/boris\l_pfasst.cpp">
<polygon fill="white" stroke="black" points="335,-0.5 335,-30.5 445,-30.5 445,-0.5 335,-0.5"/>
<text text-anchor="start" x="343" y="-18.5" font-family="Helvetica,sans-Serif" font-size="10.00">examples/boris/boris</text>
<text text-anchor="middle" x="390" y="-7.5" font-family="Helvetica,sans-Serif" font-size="10.00">_pfasst.cpp</text>
</a>
</g>
</g>
<!-- Node2&#45;&gt;Node7 -->
<g id="edge27" class="edge"><title>Node2&#45;&gt;Node7</title>
<path fill="none" stroke="midnightblue" d="M344.957,-363.762C226.142,-348.827 0,-311.008 0,-239.5 0,-239.5 0,-239.5 0,-165 0,-117.072 6.6386,-95.7313 45,-67 89.6964,-33.524 249.165,-22.0702 334.756,-18.2835"/>
<polygon fill="midnightblue" stroke="midnightblue" points="344.711,-367.258 355.065,-365.01 345.569,-360.311 344.711,-367.258"/>
</g>
<!-- Node8 -->
<g id="node8" class="node"><title>Node8</title>
<g id="a_node8"><a xlink:href="../../d3/d93/boris__sdc_8cpp.html" target="_top" xlink:title="examples/boris/boris\l_sdc.cpp">
<polygon fill="white" stroke="black" points="252,-73 252,-103 362,-103 362,-73 252,-73"/>
<text text-anchor="start" x="260" y="-91" font-family="Helvetica,sans-Serif" font-size="10.00">examples/boris/boris</text>
<text text-anchor="middle" x="307" y="-80" font-family="Helvetica,sans-Serif" font-size="10.00">_sdc.cpp</text>
</a>
</g>
</g>
<!-- Node2&#45;&gt;Node8 -->
<g id="edge28" class="edge"><title>Node2&#45;&gt;Node8</title>
<path fill="none" stroke="midnightblue" d="M376.703,-352.077C364.384,-344.099 351.945,-333.71 344,-321 299.142,-249.234 302.694,-141.387 305.651,-103.098"/>
<polygon fill="midnightblue" stroke="midnightblue" points="375.22,-355.27 385.586,-357.459 378.847,-349.284 375.22,-355.27"/>
</g>
<!-- Node9 -->
<g id="node9" class="node"><title>Node9</title>
<g id="a_node9"><a xlink:href="../../db/dfd/boris__sweeper_8hpp.html" target="_top" xlink:title="examples/boris/boris\l_sweeper.hpp">
<polygon fill="white" stroke="black" points="494,-151 494,-181 604,-181 604,-151 494,-151"/>
<text text-anchor="start" x="502" y="-169" font-family="Helvetica,sans-Serif" font-size="10.00">examples/boris/boris</text>
<text text-anchor="middle" x="549" y="-158" font-family="Helvetica,sans-Serif" font-size="10.00">_sweeper.hpp</text>
</a>
</g>
</g>
<!-- Node2&#45;&gt;Node9 -->
<g id="edge25" class="edge"><title>Node2&#45;&gt;Node9</title>
<path fill="none" stroke="midnightblue" d="M477.09,-354.176C524.101,-337.176 585.528,-306.061 613,-254 619.43,-241.815 618.693,-235.546 613,-223 604.947,-205.253 588.183,-190.919 573.832,-181.197"/>
<polygon fill="midnightblue" stroke="midnightblue" points="475.883,-350.89 467.595,-357.491 478.19,-357.499 475.883,-350.89"/>
</g>
<!-- Node10 -->
<g id="node10" class="node"><title>Node10</title>
<g id="a_node10"><a xlink:href="../../db/d9a/boris__sweeper__impl_8hpp.html" target="_top" xlink:title="examples/boris/boris\l_sweeper_impl.hpp">
<polygon fill="white" stroke="black" points="494,-223.5 494,-253.5 604,-253.5 604,-223.5 494,-223.5"/>
<text text-anchor="start" x="502" y="-241.5" font-family="Helvetica,sans-Serif" font-size="10.00">examples/boris/boris</text>
<text text-anchor="middle" x="549" y="-230.5" font-family="Helvetica,sans-Serif" font-size="10.00">_sweeper_impl.hpp</text>
</a>
</g>
</g>
<!-- Node2&#45;&gt;Node10 -->
<g id="edge26" class="edge"><title>Node2&#45;&gt;Node10</title>
<path fill="none" stroke="midnightblue" d="M448.77,-351.71C461.701,-343.11 476.244,-332.399 488,-321 509.697,-299.962 529.625,-270.666 540.467,-253.53"/>
<polygon fill="midnightblue" stroke="midnightblue" points="446.618,-348.933 440.129,-357.308 450.424,-354.808 446.618,-348.933"/>
</g>
<!-- Node3&#45;&gt;Node4 -->
<g id="edge3" class="edge"><title>Node3&#45;&gt;Node4</title>
<path fill="none" stroke="midnightblue" d="M384.676,-284.874C370.31,-275.706 353.143,-264.516 338,-254 305.981,-231.765 270.146,-204.798 246.672,-186.839"/>
<polygon fill="midnightblue" stroke="midnightblue" points="382.898,-287.891 393.216,-290.297 386.65,-281.982 382.898,-287.891"/>
</g>
<!-- Node3&#45;&gt;Node6 -->
<g id="edge9" class="edge"><title>Node3&#45;&gt;Node6</title>
<path fill="none" stroke="midnightblue" d="M417.777,-280.075C422.182,-234.282 436.997,-134.106 485,-67 496.015,-51.6016 513.252,-39.2721 528.099,-30.6513"/>
<polygon fill="midnightblue" stroke="midnightblue" points="414.273,-279.976 416.887,-290.243 421.246,-280.587 414.273,-279.976"/>
</g>
<!-- Node3&#45;&gt;Node7 -->
<g id="edge20" class="edge"><title>Node3&#45;&gt;Node7</title>
<path fill="none" stroke="midnightblue" d="M413.797,-280.102C408.543,-221.895 395.402,-76.333 391.266,-30.5286"/>
<polygon fill="midnightblue" stroke="midnightblue" points="410.326,-280.573 414.711,-290.218 417.297,-279.944 410.326,-280.573"/>
</g>
<!-- Node3&#45;&gt;Node8 -->
<g id="edge21" class="edge"><title>Node3&#45;&gt;Node8</title>
<path fill="none" stroke="midnightblue" d="M396.5,-282.594C389.481,-274.047 381.857,-263.928 376,-254 359.868,-226.655 325.479,-137.707 312.295,-103.026"/>
<polygon fill="midnightblue" stroke="midnightblue" points="393.84,-284.869 402.967,-290.25 399.188,-280.352 393.84,-284.869"/>
</g>
<!-- Node3&#45;&gt;Node9 -->
<g id="edge10" class="edge"><title>Node3&#45;&gt;Node9</title>
<path fill="none" stroke="midnightblue" d="M433.338,-282.248C446.809,-265.411 466.288,-242.019 485,-223 499.91,-207.845 518.297,-192.02 531.531,-181.075"/>
<polygon fill="midnightblue" stroke="midnightblue" points="430.347,-280.387 426.877,-290.398 435.832,-284.736 430.347,-280.387"/>
</g>
<!-- Node3&#45;&gt;Node10 -->
<g id="edge19" class="edge"><title>Node3&#45;&gt;Node10</title>
<path fill="none" stroke="midnightblue" d="M453.87,-285.992C474.951,-275.689 500.777,-263.068 520.197,-253.577"/>
<polygon fill="midnightblue" stroke="midnightblue" points="452.307,-282.86 444.859,-290.396 455.38,-289.15 452.307,-282.86"/>
</g>
<!-- Node5 -->
<g id="node5" class="node"><title>Node5</title>
<g id="a_node5"><a xlink:href="../../d5/d9e/wrapper__simple__physics__solver__impl_8hpp.html" target="_top" xlink:title="examples/boris/bindings\l/wrapper_simple_physics\l_solver_impl.hpp">
<polygon fill="white" stroke="black" points="66.5,-67.5 66.5,-108.5 195.5,-108.5 195.5,-67.5 66.5,-67.5"/>
<text text-anchor="start" x="74.5" y="-96.5" font-family="Helvetica,sans-Serif" font-size="10.00">examples/boris/bindings</text>
<text text-anchor="start" x="74.5" y="-85.5" font-family="Helvetica,sans-Serif" font-size="10.00">/wrapper_simple_physics</text>
<text text-anchor="middle" x="131" y="-74.5" font-family="Helvetica,sans-Serif" font-size="10.00">_solver_impl.hpp</text>
</a>
</g>
</g>
<!-- Node4&#45;&gt;Node5 -->
<g id="edge4" class="edge"><title>Node4&#45;&gt;Node5</title>
<path fill="none" stroke="midnightblue" d="M183.849,-139.065C171.464,-129.057 158.29,-117.804 148.116,-108.506"/>
<polygon fill="midnightblue" stroke="midnightblue" points="181.833,-141.933 191.835,-145.428 186.195,-136.459 181.833,-141.933"/>
</g>
<!-- Node4&#45;&gt;Node6 -->
<g id="edge6" class="edge"><title>Node4&#45;&gt;Node6</title>
<path fill="none" stroke="midnightblue" d="M219.44,-135.189C220.01,-113.21 224.661,-84.247 243,-67 247.701,-62.579 413.08,-37.6708 501.888,-24.5649"/>
<polygon fill="midnightblue" stroke="midnightblue" points="215.94,-135.338 219.447,-145.335 222.94,-135.333 215.94,-135.338"/>
</g>
<!-- Node4&#45;&gt;Node7 -->
<g id="edge7" class="edge"><title>Node4&#45;&gt;Node7</title>
<path fill="none" stroke="midnightblue" d="M146.103,-158.625C113.157,-151.656 77.3823,-137.498 57,-109 46.1407,-93.8171 44.8304,-81.1543 57,-67 92.1671,-26.0977 249.609,-17.9219 334.811,-16.5456"/>
<polygon fill="midnightblue" stroke="midnightblue" points="145.737,-162.118 156.217,-160.564 147.055,-155.243 145.737,-162.118"/>
</g>
<!-- Node4&#45;&gt;Node8 -->
<g id="edge8" class="edge"><title>Node4&#45;&gt;Node8</title>
<path fill="none" stroke="midnightblue" d="M250.808,-138.658C264.27,-126.761 279.643,-113.176 290.903,-103.225"/>
<polygon fill="midnightblue" stroke="midnightblue" points="248.323,-136.183 243.147,-145.428 252.958,-141.429 248.323,-136.183"/>
</g>
<!-- Node5&#45;&gt;Node4 -->
<g id="edge5" class="edge"><title>Node5&#45;&gt;Node4</title>
<path fill="none" stroke="midnightblue" d="M168.063,-114.864C180.444,-124.865 193.623,-136.12 203.811,-145.428"/>
<polygon fill="midnightblue" stroke="midnightblue" points="170.083,-111.999 160.081,-108.506 165.722,-117.474 170.083,-111.999"/>
</g>
<!-- Node9&#45;&gt;Node6 -->
<g id="edge11" class="edge"><title>Node9&#45;&gt;Node6</title>
<path fill="none" stroke="midnightblue" d="M590.845,-145.733C605.332,-136.767 619.945,-124.583 628,-109 636.571,-92.4176 636.558,-83.5892 628,-67 619.747,-51.0029 603.825,-38.9661 589.147,-30.6644"/>
<polygon fill="midnightblue" stroke="midnightblue" points="588.808,-142.867 581.901,-150.901 592.31,-148.928 588.808,-142.867"/>
</g>
<!-- Node9&#45;&gt;Node7 -->
<g id="edge17" class="edge"><title>Node9&#45;&gt;Node7</title>
<path fill="none" stroke="midnightblue" d="M524.608,-144.192C512.554,-133.774 497.869,-120.88 485,-109 455.569,-81.831 422.258,-48.8621 403.938,-30.529"/>
<polygon fill="midnightblue" stroke="midnightblue" points="522.616,-147.095 532.478,-150.966 527.182,-141.79 522.616,-147.095"/>
</g>
<!-- Node9&#45;&gt;Node8 -->
<g id="edge18" class="edge"><title>Node9&#45;&gt;Node8</title>
<path fill="none" stroke="midnightblue" d="M494.585,-147.911C451.535,-134.391 392.156,-115.743 351.818,-103.075"/>
<polygon fill="midnightblue" stroke="midnightblue" points="493.742,-151.315 504.331,-150.972 495.84,-144.636 493.742,-151.315"/>
</g>
<!-- Node9&#45;&gt;Node10 -->
<g id="edge12" class="edge"><title>Node9&#45;&gt;Node10</title>
<path fill="none" stroke="midnightblue" d="M555.449,-191.244C556.051,-201.905 555.751,-214.06 554.549,-223.233"/>
<polygon fill="midnightblue" stroke="midnightblue" points="558.931,-190.89 554.546,-181.246 551.959,-191.52 558.931,-190.89"/>
</g>
<!-- Node11 -->
<g id="node11" class="node"><title>Node11</title>
<g id="a_node11"><a xlink:href="../../d2/dc5/injective__transfer_8hpp.html" target="_top" xlink:title="examples/boris/injective\l_transfer.hpp">
<polygon fill="white" stroke="black" points="494.5,-73 494.5,-103 619.5,-103 619.5,-73 494.5,-73"/>
<text text-anchor="start" x="502.5" y="-91" font-family="Helvetica,sans-Serif" font-size="10.00">examples/boris/injective</text>
<text text-anchor="middle" x="557" y="-80" font-family="Helvetica,sans-Serif" font-size="10.00">_transfer.hpp</text>
</a>
</g>
</g>
<!-- Node9&#45;&gt;Node11 -->
<g id="edge14" class="edge"><title>Node9&#45;&gt;Node11</title>
<path fill="none" stroke="midnightblue" d="M551.569,-140.59C552.868,-128.257 554.398,-113.724 555.502,-103.231"/>
<polygon fill="midnightblue" stroke="midnightblue" points="548.071,-140.393 550.505,-150.705 555.032,-141.126 548.071,-140.393"/>
</g>
<!-- Node10&#45;&gt;Node9 -->
<g id="edge13" class="edge"><title>Node10&#45;&gt;Node9</title>
<path fill="none" stroke="midnightblue" d="M542.55,-213.232C541.949,-202.568 542.251,-190.414 543.454,-181.246"/>
<polygon fill="midnightblue" stroke="midnightblue" points="539.068,-213.588 543.451,-223.233 546.04,-212.959 539.068,-213.588"/>
</g>
<!-- Node11&#45;&gt;Node6 -->
<g id="edge15" class="edge"><title>Node11&#45;&gt;Node6</title>
<path fill="none" stroke="midnightblue" d="M557,-62.7317C557,-52.0679 557,-39.9145 557,-30.7455"/>
<polygon fill="midnightblue" stroke="midnightblue" points="553.5,-62.7332 557,-72.7333 560.5,-62.7333 553.5,-62.7332"/>
</g>
<!-- Node11&#45;&gt;Node7 -->
<g id="edge16" class="edge"><title>Node11&#45;&gt;Node7</title>
<path fill="none" stroke="midnightblue" d="M514.36,-68.9991C486.075,-57.0585 449.489,-41.6135 423.336,-30.5729"/>
<polygon fill="midnightblue" stroke="midnightblue" points="513.032,-72.2379 523.606,-72.9027 515.755,-65.789 513.032,-72.2379"/>
</g>
</g>
</svg>
        <g id="navigator" transform="translate(0 0)" fill="#404254">
                <rect fill="#f2f5e9" fill-opacity="0.5" stroke="#606060" stroke-width=".5" x="0" y="0" width="60" height="60"/>
                <use id="zoomplus" xlink:href="#zoomPlus" x="17" y="9" onmousedown="handleZoom(evt,'in')"/>
                <use id="zoomminus" xlink:href="#zoomMin" x="42" y="9" onmousedown="handleZoom(evt,'out')"/>
                <use id="reset" xlink:href="#resetDef" x="30" y="36" onmousedown="handleReset()"/>
                <g id="arrowUp" xlink:href="#dirArrow" transform="translate(30 24)" onmousedown="handlePan(0,-1)">
                  <use xlink:href="#rim" fill="#404040">
                        <set attributeName="fill" to="#808080" begin="arrowUp.mouseover" end="arrowUp.mouseout"/>
                  </use>
                  <path fill="none" stroke="white" stroke-width="1.5" d="M0,-3.0v7 M-2.5,-0.5L0,-3.0L2.5,-0.5"/>
                </g>
                <g id="arrowRight" xlink:href="#dirArrow" transform="rotate(90) translate(36 -43)" onmousedown="handlePan(1,0)">
                  <use xlink:href="#rim" fill="#404040">
                        <set attributeName="fill" to="#808080" begin="arrowRight.mouseover" end="arrowRight.mouseout"/>
                  </use>
                  <path fill="none" stroke="white" stroke-width="1.5" d="M0,-3.0v7 M-2.5,-0.5L0,-3.0L2.5,-0.5"/>
                </g>
                <g id="arrowDown" xlink:href="#dirArrow" transform="rotate(180) translate(-30 -48)" onmousedown="handlePan(0,1)">
                  <use xlink:href="#rim" fill="#404040">
                        <set attributeName="fill" to="#808080" begin="arrowDown.mouseover" end="arrowDown.mouseout"/>
                  </use>
                  <path fill="none" stroke="white" stroke-width="1.5" d="M0,-3.0v7 M-2.5,-0.5L0,-3.0L2.5,-0.5"/>
                </g>
                <g id="arrowLeft" xlink:href="#dirArrow" transform="rotate(270) translate(-36 17)" onmousedown="handlePan(-1,0)">
                  <use xlink:href="#rim" fill="#404040">
                        <set attributeName="fill" to="#808080" begin="arrowLeft.mouseover" end="arrowLeft.mouseout"/>
                  </use>
                  <path fill="none" stroke="white" stroke-width="1.5" d="M0,-3.0v7 M-2.5,-0.5L0,-3.0L2.5,-0.5"/>
                </g>
        </g>
        <svg viewBox="0 0 15 15" width="100%" height="30px" preserveAspectRatio="xMaxYMin meet">
         <g id="arrow_out" transform="scale(0.3 0.3)">
          <a xlink:href="particle__cloud__impl_8hpp__dep__incl_org.svg" target="_base">
           <rect id="button" ry="5" rx="5" y="6" x="6" height="38" width="38"
                fill="#f2f5e9" fill-opacity="0.5" stroke="#606060" stroke-width="1.0"/>
           <path id="arrow"
             d="M 11.500037,31.436501 C 11.940474,20.09759 22.043105,11.32322 32.158766,21.979434 L 37.068811,17.246167 C 37.068811,17.246167 37.088388,32 37.088388,32 L 22.160133,31.978069 C 22.160133,31.978069 26.997745,27.140456 26.997745,27.140456 C 18.528582,18.264221 13.291696,25.230495 11.500037,31.436501 z"
             style="fill:#404040;"/>
          </a>
         </g>
        </svg>
</svg>
