<?xml version="1.0" encoding="UTF-8" standalone="no"?>
<!DOCTYPE svg PUBLIC "-//W3C//DTD SVG 1.1//EN"
 "http://www.w3.org/Graphics/SVG/1.1/DTD/svg11.dtd">
<!-- Generated by graphviz version 2.38.0 (20140413.2041)
 -->
<!-- Title: examples/boris/particle_util_impl.hpp Pages: 1 -->
<!--zoomable 263 -->
<svg id="main" version="1.1" xmlns="http://www.w3.org/2000/svg" xmlns:xlink="http://www.w3.org/1999/xlink" xml:space="preserve" onload="init(evt)">
<style type="text/css"><![CDATA[
.edge:hover path { stroke: red; }
.edge:hover polygon { stroke: red; fill: red; }
]]></style>
<script type="text/javascript"><![CDATA[
var edges = document.getElementsByTagName('g');
if (edges && edges.length) {
  for (var i=0;i<edges.length;i++) {
    if (edges[i].id.substr(0,4)=='edge') {
      edges[i].setAttribute('class','edge');
    }
  }
}
]]></script>
        <defs>
                <circle id="rim" cx="0" cy="0" r="7"/>
                <circle id="rim2" cx="0" cy="0" r="3.5"/>
                <g id="zoomPlus">
                        <use xlink:href="#rim" fill="#404040">
                                <set attributeName="fill" to="#808080" begin="zoomplus.mouseover" end="zoomplus.mouseout"/>
                        </use>
                        <path d="M-4,0h8M0,-4v8" fill="none" stroke="white" stroke-width="1.5" pointer-events="none"/>
                </g>
                <g id="zoomMin">
                        <use xlink:href="#rim" fill="#404040">
                                <set attributeName="fill" to="#808080" begin="zoomminus.mouseover" end="zoomminus.mouseout"/>
                        </use>
                        <path d="M-4,0h8" fill="none" stroke="white" stroke-width="1.5" pointer-events="none"/>
                </g>
                <g id="dirArrow">
                        <path fill="none" stroke="white" stroke-width="1.5" d="M0,-3.0v7 M-2.5,-0.5L0,-3.0L2.5,-0.5"/>
                </g>
               <g id="resetDef">
                       <use xlink:href="#rim2" fill="#404040">
                               <set attributeName="fill" to="#808080" begin="reset.mouseover" end="reset.mouseout"/>
                       </use>
               </g>
        </defs>

<script type="text/javascript">
var viewWidth = 874;
var viewHeight = 263;
var sectionId = 'dynsection-0';
</script>
<script xlink:href="../../svgpan.js"/>
<svg id="graph" class="graph">
<g id="viewport">
<title>examples/boris/particle_util_impl.hpp</title>
<polygon fill="white" stroke="none" points="-4,4 -4,-259 869.5,-259 869.5,4 -4,4"/>
<!-- Node1 -->
<g id="node1" class="node"><title>Node1</title>
<polygon fill="#bfbfbf" stroke="black" points="225,-224.5 225,-254.5 346,-254.5 346,-224.5 225,-224.5"/>
<text text-anchor="start" x="233" y="-242.5" font-family="Helvetica,sans-Serif" font-size="10.00">examples/boris/particle</text>
<text text-anchor="middle" x="285.5" y="-231.5" font-family="Helvetica,sans-Serif" font-size="10.00">_util_impl.hpp</text>
</g>
<!-- Node2 -->
<g id="node2" class="node"><title>Node2</title>
<g id="a_node2"><a xlink:href="../../db/de5/particle__util_8hpp.html" target="_top" xlink:title="particle_util.hpp">
<polygon fill="white" stroke="black" points="17.5,-168.5 17.5,-187.5 101.5,-187.5 101.5,-168.5 17.5,-168.5"/>
<text text-anchor="middle" x="59.5" y="-175.5" font-family="Helvetica,sans-Serif" font-size="10.00">particle_util.hpp</text>
</a>
</g>
</g>
<!-- Node1&#45;&gt;Node2 -->
<g id="edge1" class="edge"><title>Node1&#45;&gt;Node2</title>
<path fill="none" stroke="midnightblue" d="M226.397,-224.475C185.376,-214.03 132.06,-199.958 96.7985,-190.247"/>
<polygon fill="midnightblue" stroke="midnightblue" points="97.485,-186.805 86.9134,-187.506 95.6148,-193.551 97.485,-186.805"/>
</g>
<!-- Node5 -->
<g id="node5" class="node"><title>Node5</title>
<polygon fill="white" stroke="#bfbfbf" points="119.5,-168.5 119.5,-187.5 177.5,-187.5 177.5,-168.5 119.5,-168.5"/>
<text text-anchor="middle" x="148.5" y="-175.5" font-family="Helvetica,sans-Serif" font-size="10.00">algorithm</text>
</g>
<!-- Node1&#45;&gt;Node5 -->
<g id="edge5" class="edge"><title>Node1&#45;&gt;Node5</title>
<path fill="none" stroke="midnightblue" d="M253.033,-224.399C230.149,-214.461 199.766,-201.265 177.656,-191.662"/>
<polygon fill="midnightblue" stroke="midnightblue" points="179.001,-188.431 168.435,-187.658 176.213,-194.852 179.001,-188.431"/>
</g>
<!-- Node6 -->
<g id="node6" class="node"><title>Node6</title>
<polygon fill="white" stroke="#bfbfbf" points="195.5,-168.5 195.5,-187.5 245.5,-187.5 245.5,-168.5 195.5,-168.5"/>
<text text-anchor="middle" x="220.5" y="-175.5" font-family="Helvetica,sans-Serif" font-size="10.00">cassert</text>
</g>
<!-- Node1&#45;&gt;Node6 -->
<g id="edge6" class="edge"><title>Node1&#45;&gt;Node6</title>
<path fill="none" stroke="midnightblue" d="M270.096,-224.399C260.261,-215.397 247.507,-203.721 237.395,-194.465"/>
<polygon fill="midnightblue" stroke="midnightblue" points="239.698,-191.828 229.958,-187.658 234.971,-196.992 239.698,-191.828"/>
</g>
<!-- Node7 -->
<g id="node7" class="node"><title>Node7</title>
<polygon fill="white" stroke="#bfbfbf" points="263.5,-168.5 263.5,-187.5 307.5,-187.5 307.5,-168.5 263.5,-168.5"/>
<text text-anchor="middle" x="285.5" y="-175.5" font-family="Helvetica,sans-Serif" font-size="10.00">cmath</text>
</g>
<!-- Node1&#45;&gt;Node7 -->
<g id="edge7" class="edge"><title>Node1&#45;&gt;Node7</title>
<path fill="none" stroke="midnightblue" d="M285.5,-224.399C285.5,-216.466 285.5,-206.458 285.5,-197.858"/>
<polygon fill="midnightblue" stroke="midnightblue" points="289,-197.658 285.5,-187.658 282,-197.658 289,-197.658"/>
</g>
<!-- Node8 -->
<g id="node8" class="node"><title>Node8</title>
<polygon fill="white" stroke="#bfbfbf" points="326,-168.5 326,-187.5 385,-187.5 385,-168.5 326,-168.5"/>
<text text-anchor="middle" x="355.5" y="-175.5" font-family="Helvetica,sans-Serif" font-size="10.00">functional</text>
</g>
<!-- Node1&#45;&gt;Node8 -->
<g id="edge8" class="edge"><title>Node1&#45;&gt;Node8</title>
<path fill="none" stroke="midnightblue" d="M302.089,-224.399C312.785,-215.308 326.688,-203.49 337.628,-194.191"/>
<polygon fill="midnightblue" stroke="midnightblue" points="339.962,-196.801 345.314,-187.658 335.428,-191.468 339.962,-196.801"/>
</g>
<!-- Node9 -->
<g id="node9" class="node"><title>Node9</title>
<polygon fill="white" stroke="#bfbfbf" points="403.5,-168.5 403.5,-187.5 465.5,-187.5 465.5,-168.5 403.5,-168.5"/>
<text text-anchor="middle" x="434.5" y="-175.5" font-family="Helvetica,sans-Serif" font-size="10.00">type_traits</text>
</g>
<!-- Node1&#45;&gt;Node9 -->
<g id="edge9" class="edge"><title>Node1&#45;&gt;Node9</title>
<path fill="none" stroke="midnightblue" d="M320.811,-224.399C345.922,-214.372 379.337,-201.028 403.435,-191.405"/>
<polygon fill="midnightblue" stroke="midnightblue" points="404.83,-194.617 412.819,-187.658 402.234,-188.116 404.83,-194.617"/>
</g>
<!-- Node10 -->
<g id="node10" class="node"><title>Node10</title>
<g id="a_node10"><a xlink:href="../../d5/d82/globals_8hpp.html" target="_top" xlink:title="pfasst/globals.hpp">
<polygon fill="white" stroke="black" points="483,-168.5 483,-187.5 580,-187.5 580,-168.5 483,-168.5"/>
<text text-anchor="middle" x="531.5" y="-175.5" font-family="Helvetica,sans-Serif" font-size="10.00">pfasst/globals.hpp</text>
</a>
</g>
</g>
<!-- Node1&#45;&gt;Node10 -->
<g id="edge10" class="edge"><title>Node1&#45;&gt;Node10</title>
<path fill="none" stroke="midnightblue" d="M343.487,-224.475C387.224,-213.896 446.352,-199.595 486.542,-189.874"/>
<polygon fill="midnightblue" stroke="midnightblue" points="487.434,-193.259 496.331,-187.506 485.788,-186.455 487.434,-193.259"/>
</g>
<!-- Node11 -->
<g id="node11" class="node"><title>Node11</title>
<g id="a_node11"><a xlink:href="../../d0/da9/logging_8hpp.html" target="_top" xlink:title="pfasst/logging.hpp">
<polygon fill="white" stroke="black" points="597.5,-168.5 597.5,-187.5 695.5,-187.5 695.5,-168.5 597.5,-168.5"/>
<text text-anchor="middle" x="646.5" y="-175.5" font-family="Helvetica,sans-Serif" font-size="10.00">pfasst/logging.hpp</text>
</a>
</g>
</g>
<!-- Node1&#45;&gt;Node11 -->
<g id="edge11" class="edge"><title>Node1&#45;&gt;Node11</title>
<path fill="none" stroke="midnightblue" d="M346.331,-228.474C413.513,-217.401 520.95,-199.693 587.423,-188.737"/>
<polygon fill="midnightblue" stroke="midnightblue" points="588.027,-192.185 597.325,-187.105 586.889,-185.278 588.027,-192.185"/>
</g>
<!-- Node2&#45;&gt;Node1 -->
<g id="edge4" class="edge"><title>Node2&#45;&gt;Node1</title>
<path fill="none" stroke="midnightblue" d="M96.7064,-187.506C132.546,-196.429 187.089,-210.68 228.395,-221.852"/>
<polygon fill="midnightblue" stroke="midnightblue" points="227.49,-225.233 238.058,-224.475 229.324,-218.477 227.49,-225.233"/>
</g>
<!-- Node3 -->
<g id="node3" class="node"><title>Node3</title>
<polygon fill="white" stroke="#bfbfbf" points="0,-112.5 0,-131.5 53,-131.5 53,-112.5 0,-112.5"/>
<text text-anchor="middle" x="26.5" y="-119.5" font-family="Helvetica,sans-Serif" font-size="10.00">memory</text>
</g>
<!-- Node2&#45;&gt;Node3 -->
<g id="edge2" class="edge"><title>Node2&#45;&gt;Node3</title>
<path fill="none" stroke="midnightblue" d="M54.0507,-168.083C49.4855,-160.613 42.8316,-149.724 37.2066,-140.52"/>
<polygon fill="midnightblue" stroke="midnightblue" points="40.0489,-138.459 31.8479,-131.751 34.0759,-142.109 40.0489,-138.459"/>
</g>
<!-- Node4 -->
<g id="node4" class="node"><title>Node4</title>
<polygon fill="white" stroke="#bfbfbf" points="71.5,-112.5 71.5,-131.5 115.5,-131.5 115.5,-112.5 71.5,-112.5"/>
<text text-anchor="middle" x="93.5" y="-119.5" font-family="Helvetica,sans-Serif" font-size="10.00">vector</text>
</g>
<!-- Node2&#45;&gt;Node4 -->
<g id="edge3" class="edge"><title>Node2&#45;&gt;Node4</title>
<path fill="none" stroke="midnightblue" d="M65.1144,-168.083C69.8674,-160.534 76.8181,-149.495 82.6516,-140.23"/>
<polygon fill="midnightblue" stroke="midnightblue" points="85.6237,-142.078 87.9901,-131.751 79.7001,-138.349 85.6237,-142.078"/>
</g>
<!-- Node12 -->
<g id="node12" class="node"><title>Node12</title>
<polygon fill="white" stroke="#bfbfbf" points="787.5,-112.5 787.5,-131.5 839.5,-131.5 839.5,-112.5 787.5,-112.5"/>
<text text-anchor="middle" x="813.5" y="-119.5" font-family="Helvetica,sans-Serif" font-size="10.00">iomanip</text>
</g>
<!-- Node11&#45;&gt;Node12 -->
<g id="edge12" class="edge"><title>Node11&#45;&gt;Node12</title>
<path fill="none" stroke="midnightblue" d="M672.962,-168.444C701.261,-159.293 746.305,-144.728 777.745,-134.561"/>
<polygon fill="midnightblue" stroke="midnightblue" points="778.999,-137.835 787.437,-131.428 776.845,-131.174 778.999,-137.835"/>
</g>
<!-- Node13 -->
<g id="node13" class="node"><title>Node13</title>
<polygon fill="white" stroke="#bfbfbf" points="809.5,-56.5 809.5,-75.5 865.5,-75.5 865.5,-56.5 809.5,-56.5"/>
<text text-anchor="middle" x="837.5" y="-63.5" font-family="Helvetica,sans-Serif" font-size="10.00">iostream</text>
</g>
<!-- Node11&#45;&gt;Node13 -->
<g id="edge13" class="edge"><title>Node11&#45;&gt;Node13</title>
<path fill="none" stroke="midnightblue" d="M695.964,-172.952C749.49,-167.425 829.734,-155.407 848.5,-132 859.1,-118.779 853.759,-99.1077 847.371,-84.8704"/>
<polygon fill="midnightblue" stroke="midnightblue" points="850.353,-83.0091 842.747,-75.6336 844.094,-86.1425 850.353,-83.0091"/>
</g>
<!-- Node14 -->
<g id="node14" class="node"><title>Node14</title>
<polygon fill="white" stroke="#bfbfbf" points="340,-56.5 340,-75.5 381,-75.5 381,-56.5 340,-56.5"/>
<text text-anchor="middle" x="360.5" y="-63.5" font-family="Helvetica,sans-Serif" font-size="10.00">string</text>
</g>
<!-- Node11&#45;&gt;Node14 -->
<g id="edge14" class="edge"><title>Node11&#45;&gt;Node14</title>
<path fill="none" stroke="midnightblue" d="M597.368,-169.053C520.812,-156.625 381.537,-133.81 379.5,-132 366.476,-120.422 362.164,-100.462 360.842,-85.7067"/>
<polygon fill="midnightblue" stroke="midnightblue" points="364.334,-85.4675 360.319,-75.6631 357.344,-85.8316 364.334,-85.4675"/>
</g>
<!-- Node15 -->
<g id="node15" class="node"><title>Node15</title>
<polygon fill="white" stroke="#bfbfbf" points="389,-112.5 389,-131.5 520,-131.5 520,-112.5 389,-112.5"/>
<text text-anchor="middle" x="454.5" y="-119.5" font-family="Helvetica,sans-Serif" font-size="10.00">boost/algorithm/string.hpp</text>
</g>
<!-- Node11&#45;&gt;Node15 -->
<g id="edge15" class="edge"><title>Node11&#45;&gt;Node15</title>
<path fill="none" stroke="midnightblue" d="M616.077,-168.444C583.215,-159.201 530.715,-144.436 494.526,-134.257"/>
<polygon fill="midnightblue" stroke="midnightblue" points="495.355,-130.855 484.781,-131.516 493.46,-137.593 495.355,-130.855"/>
</g>
<!-- Node16 -->
<g id="node16" class="node"><title>Node16</title>
<g id="a_node16"><a xlink:href="../../d8/dfd/config_8hpp.html" target="_top" xlink:title="pfasst/config.hpp">
<polygon fill="white" stroke="black" points="538,-112.5 538,-131.5 629,-131.5 629,-112.5 538,-112.5"/>
<text text-anchor="middle" x="583.5" y="-119.5" font-family="Helvetica,sans-Serif" font-size="10.00">pfasst/config.hpp</text>
</a>
</g>
</g>
<!-- Node11&#45;&gt;Node16 -->
<g id="edge16" class="edge"><title>Node11&#45;&gt;Node16</title>
<path fill="none" stroke="midnightblue" d="M636.378,-168.324C626.974,-160.263 612.756,-148.077 601.431,-138.369"/>
<polygon fill="midnightblue" stroke="midnightblue" points="603.677,-135.684 593.806,-131.834 599.121,-140.999 603.677,-135.684"/>
</g>
<!-- Node23 -->
<g id="node23" class="node"><title>Node23</title>
<polygon fill="white" stroke="#bfbfbf" points="647.5,-112.5 647.5,-131.5 769.5,-131.5 769.5,-112.5 647.5,-112.5"/>
<text text-anchor="middle" x="708.5" y="-119.5" font-family="Helvetica,sans-Serif" font-size="10.00">pfasst/easylogging++.h</text>
</g>
<!-- Node11&#45;&gt;Node23 -->
<g id="edge27" class="edge"><title>Node11&#45;&gt;Node23</title>
<path fill="none" stroke="midnightblue" d="M656.461,-168.324C665.627,-160.341 679.437,-148.313 690.528,-138.653"/>
<polygon fill="midnightblue" stroke="midnightblue" points="693.115,-141.041 698.357,-131.834 688.518,-135.762 693.115,-141.041"/>
</g>
<!-- Node16&#45;&gt;Node13 -->
<g id="edge18" class="edge"><title>Node16&#45;&gt;Node13</title>
<path fill="none" stroke="midnightblue" d="M623.747,-112.444C671.966,-102.192 752.146,-85.146 799.395,-75.101"/>
<polygon fill="midnightblue" stroke="midnightblue" points="800.185,-78.5115 809.238,-73.0084 798.729,-71.6645 800.185,-78.5115"/>
</g>
<!-- Node16&#45;&gt;Node14 -->
<g id="edge19" class="edge"><title>Node16&#45;&gt;Node14</title>
<path fill="none" stroke="midnightblue" d="M543.77,-112.497C506.688,-104.391 449.613,-91.485 390.922,-75.9802"/>
<polygon fill="midnightblue" stroke="midnightblue" points="391.673,-72.558 381.109,-73.3669 389.871,-79.3223 391.673,-72.558"/>
</g>
<!-- Node17 -->
<g id="node17" class="node"><title>Node17</title>
<polygon fill="white" stroke="#bfbfbf" points="720.5,-0.5 720.5,-19.5 770.5,-19.5 770.5,-0.5 720.5,-0.5"/>
<text text-anchor="middle" x="745.5" y="-7.5" font-family="Helvetica,sans-Serif" font-size="10.00">fstream</text>
</g>
<!-- Node16&#45;&gt;Node17 -->
<g id="edge17" class="edge"><title>Node16&#45;&gt;Node17</title>
<path fill="none" stroke="midnightblue" d="M629.325,-112.518C667.763,-104.472 718.555,-91.3511 732.5,-76 743.735,-63.6326 746.408,-44.3862 746.616,-30.0415"/>
<polygon fill="midnightblue" stroke="midnightblue" points="750.11,-29.7268 746.372,-19.8132 743.112,-29.894 750.11,-29.7268"/>
</g>
<!-- Node18 -->
<g id="node18" class="node"><title>Node18</title>
<polygon fill="white" stroke="#bfbfbf" points="399.5,-56.5 399.5,-75.5 435.5,-75.5 435.5,-56.5 399.5,-56.5"/>
<text text-anchor="middle" x="417.5" y="-63.5" font-family="Helvetica,sans-Serif" font-size="10.00">map</text>
</g>
<!-- Node16&#45;&gt;Node18 -->
<g id="edge20" class="edge"><title>Node16&#45;&gt;Node18</title>
<path fill="none" stroke="midnightblue" d="M556.83,-112.442C530.691,-104.037 489.478,-90.7415 445.031,-76.1555"/>
<polygon fill="midnightblue" stroke="midnightblue" points="446.095,-72.8209 435.502,-73.0247 443.91,-79.4712 446.095,-72.8209"/>
</g>
<!-- Node19 -->
<g id="node19" class="node"><title>Node19</title>
<polygon fill="white" stroke="#bfbfbf" points="454,-56.5 454,-75.5 591,-75.5 591,-56.5 454,-56.5"/>
<text text-anchor="middle" x="522.5" y="-63.5" font-family="Helvetica,sans-Serif" font-size="10.00">boost/program_options.hpp</text>
</g>
<!-- Node16&#45;&gt;Node19 -->
<g id="edge21" class="edge"><title>Node16&#45;&gt;Node19</title>
<path fill="none" stroke="midnightblue" d="M573.699,-112.324C564.682,-104.341 551.094,-92.3128 540.182,-82.6529"/>
<polygon fill="midnightblue" stroke="midnightblue" points="542.287,-79.8416 532.479,-75.8339 537.647,-85.083 542.287,-79.8416"/>
</g>
<!-- Node20 -->
<g id="node20" class="node"><title>Node20</title>
<g id="a_node20"><a xlink:href="../../d5/d84/config__impl_8hpp.html" target="_top" xlink:title="pfasst/config_impl.hpp">
<polygon fill="white" stroke="black" points="609.5,-56.5 609.5,-75.5 723.5,-75.5 723.5,-56.5 609.5,-56.5"/>
<text text-anchor="middle" x="666.5" y="-63.5" font-family="Helvetica,sans-Serif" font-size="10.00">pfasst/config_impl.hpp</text>
</a>
</g>
</g>
<!-- Node16&#45;&gt;Node20 -->
<g id="edge22" class="edge"><title>Node16&#45;&gt;Node20</title>
<path fill="none" stroke="midnightblue" d="M591.721,-112.324C602.948,-103.822 622.786,-90.7288 639.318,-80.7975"/>
<polygon fill="midnightblue" stroke="midnightblue" points="641.232,-83.7326 648.088,-75.6545 637.691,-77.6944 641.232,-83.7326"/>
</g>
<!-- Node20&#45;&gt;Node16 -->
<g id="edge23" class="edge"><title>Node20&#45;&gt;Node16</title>
<path fill="none" stroke="midnightblue" d="M658.071,-75.8339C646.804,-84.342 627.102,-97.339 610.669,-107.21"/>
<polygon fill="midnightblue" stroke="midnightblue" points="608.805,-104.246 601.95,-112.324 612.347,-110.284 608.805,-104.246"/>
</g>
<!-- Node20&#45;&gt;Node17 -->
<g id="edge24" class="edge"><title>Node20&#45;&gt;Node17</title>
<path fill="none" stroke="midnightblue" d="M679.193,-56.324C691.401,-47.979 710.078,-35.2122 724.503,-25.3524"/>
<polygon fill="midnightblue" stroke="midnightblue" points="726.558,-28.1871 732.839,-19.6545 722.608,-22.4082 726.558,-28.1871"/>
</g>
<!-- Node21 -->
<g id="node21" class="node"><title>Node21</title>
<polygon fill="white" stroke="#bfbfbf" points="587,-0.5 587,-19.5 640,-19.5 640,-0.5 587,-0.5"/>
<text text-anchor="middle" x="613.5" y="-7.5" font-family="Helvetica,sans-Serif" font-size="10.00">sstream</text>
</g>
<!-- Node20&#45;&gt;Node21 -->
<g id="edge25" class="edge"><title>Node20&#45;&gt;Node21</title>
<path fill="none" stroke="midnightblue" d="M657.748,-56.083C650.03,-48.2195 638.595,-36.5688 629.283,-27.0813"/>
<polygon fill="midnightblue" stroke="midnightblue" points="631.592,-24.4363 622.089,-19.7511 626.596,-29.3396 631.592,-24.4363"/>
</g>
<!-- Node22 -->
<g id="node22" class="node"><title>Node22</title>
<polygon fill="white" stroke="#bfbfbf" points="658.5,-0.5 658.5,-19.5 696.5,-19.5 696.5,-0.5 658.5,-0.5"/>
<text text-anchor="middle" x="677.5" y="-7.5" font-family="Helvetica,sans-Serif" font-size="10.00">utility</text>
</g>
<!-- Node20&#45;&gt;Node22 -->
<g id="edge26" class="edge"><title>Node20&#45;&gt;Node22</title>
<path fill="none" stroke="midnightblue" d="M668.316,-56.083C669.774,-48.9272 671.871,-38.6353 673.693,-29.6911"/>
<polygon fill="midnightblue" stroke="midnightblue" points="677.151,-30.2485 675.717,-19.7511 670.292,-28.8512 677.151,-30.2485"/>
</g>
</g>
</svg>
        <g id="navigator" transform="translate(0 0)" fill="#404254">
                <rect fill="#f2f5e9" fill-opacity="0.5" stroke="#606060" stroke-width=".5" x="0" y="0" width="60" height="60"/>
                <use id="zoomplus" xlink:href="#zoomPlus" x="17" y="9" onmousedown="handleZoom(evt,'in')"/>
                <use id="zoomminus" xlink:href="#zoomMin" x="42" y="9" onmousedown="handleZoom(evt,'out')"/>
                <use id="reset" xlink:href="#resetDef" x="30" y="36" onmousedown="handleReset()"/>
                <g id="arrowUp" xlink:href="#dirArrow" transform="translate(30 24)" onmousedown="handlePan(0,-1)">
                  <use xlink:href="#rim" fill="#404040">
                        <set attributeName="fill" to="#808080" begin="arrowUp.mouseover" end="arrowUp.mouseout"/>
                  </use>
                  <path fill="none" stroke="white" stroke-width="1.5" d="M0,-3.0v7 M-2.5,-0.5L0,-3.0L2.5,-0.5"/>
                </g>
                <g id="arrowRight" xlink:href="#dirArrow" transform="rotate(90) translate(36 -43)" onmousedown="handlePan(1,0)">
                  <use xlink:href="#rim" fill="#404040">
                        <set attributeName="fill" to="#808080" begin="arrowRight.mouseover" end="arrowRight.mouseout"/>
                  </use>
                  <path fill="none" stroke="white" stroke-width="1.5" d="M0,-3.0v7 M-2.5,-0.5L0,-3.0L2.5,-0.5"/>
                </g>
                <g id="arrowDown" xlink:href="#dirArrow" transform="rotate(180) translate(-30 -48)" onmousedown="handlePan(0,1)">
                  <use xlink:href="#rim" fill="#404040">
                        <set attributeName="fill" to="#808080" begin="arrowDown.mouseover" end="arrowDown.mouseout"/>
                  </use>
                  <path fill="none" stroke="white" stroke-width="1.5" d="M0,-3.0v7 M-2.5,-0.5L0,-3.0L2.5,-0.5"/>
                </g>
                <g id="arrowLeft" xlink:href="#dirArrow" transform="rotate(270) translate(-36 17)" onmousedown="handlePan(-1,0)">
                  <use xlink:href="#rim" fill="#404040">
                        <set attributeName="fill" to="#808080" begin="arrowLeft.mouseover" end="arrowLeft.mouseout"/>
                  </use>
                  <path fill="none" stroke="white" stroke-width="1.5" d="M0,-3.0v7 M-2.5,-0.5L0,-3.0L2.5,-0.5"/>
                </g>
        </g>
        <svg viewBox="0 0 15 15" width="100%" height="30px" preserveAspectRatio="xMaxYMin meet">
         <g id="arrow_out" transform="scale(0.3 0.3)">
          <a xlink:href="particle__util__impl_8hpp__incl_org.svg" target="_base">
           <rect id="button" ry="5" rx="5" y="6" x="6" height="38" width="38"
                fill="#f2f5e9" fill-opacity="0.5" stroke="#606060" stroke-width="1.0"/>
           <path id="arrow"
             d="M 11.500037,31.436501 C 11.940474,20.09759 22.043105,11.32322 32.158766,21.979434 L 37.068811,17.246167 C 37.068811,17.246167 37.088388,32 37.088388,32 L 22.160133,31.978069 C 22.160133,31.978069 26.997745,27.140456 26.997745,27.140456 C 18.528582,18.264221 13.291696,25.230495 11.500037,31.436501 z"
             style="fill:#404040;"/>
          </a>
         </g>
        </svg>
</svg>
