<?xml version="1.0" encoding="UTF-8" standalone="no"?>
<!DOCTYPE svg PUBLIC "-//W3C//DTD SVG 1.1//EN"
 "http://www.w3.org/Graphics/SVG/1.1/DTD/svg11.dtd">
<!-- Generated by graphviz version 2.38.0 (20140413.2041)
 -->
<!-- Title: pfasst::quadrature::Polynomial::evaluate Pages: 1 -->
<svg width="633pt" height="246pt"
 viewBox="0.00 0.00 633.00 245.50" xmlns="http://www.w3.org/2000/svg" xmlns:xlink="http://www.w3.org/1999/xlink">
<g id="graph0" class="graph" transform="scale(1 1) rotate(0) translate(4 241.5)">
<title>pfasst::quadrature::Polynomial::evaluate</title>
<polygon fill="white" stroke="none" points="-4,4 -4,-241.5 629,-241.5 629,4 -4,4"/>
<!-- Node1 -->
<g id="node1" class="node"><title>Node1</title>
<polygon fill="#bfbfbf" stroke="black" points="0,-74.5 0,-104.5 118,-104.5 118,-74.5 0,-74.5"/>
<text text-anchor="start" x="8" y="-92.5" font-family="Helvetica,sans-Serif" font-size="10.00">pfasst::quadrature</text>
<text text-anchor="middle" x="59" y="-81.5" font-family="Helvetica,sans-Serif" font-size="10.00">::Polynomial::evaluate</text>
</g>
<!-- Node2 -->
<g id="node2" class="node"><title>Node2</title>
<g id="a_node2"><a xlink:href="../../de/d84/namespacepfasst_1_1quadrature.html#a1a124b78f225d13b253ff8e2fb799aa5" target="_top" xlink:title="Compute quadrature matrix \( Q \) between two sets of nodes. ">
<polygon fill="white" stroke="black" points="154,-123.5 154,-153.5 258,-153.5 258,-123.5 154,-123.5"/>
<text text-anchor="start" x="162" y="-141.5" font-family="Helvetica,sans-Serif" font-size="10.00">pfasst::quadrature</text>
<text text-anchor="middle" x="206" y="-130.5" font-family="Helvetica,sans-Serif" font-size="10.00">::compute_q_matrix</text>
</a>
</g>
</g>
<!-- Node1&#45;&gt;Node2 -->
<g id="edge1" class="edge"><title>Node1&#45;&gt;Node2</title>
<path fill="none" stroke="midnightblue" d="M114.418,-107.89C129.516,-112.992 145.731,-118.471 160.21,-123.364"/>
<polygon fill="midnightblue" stroke="midnightblue" points="115.282,-104.487 104.688,-104.601 113.041,-111.119 115.282,-104.487"/>
</g>
<!-- Node9 -->
<g id="node9" class="node"><title>Node9</title>
<g id="a_node9"><a xlink:href="../../de/d84/namespacepfasst_1_1quadrature.html#a77ad709add97d78ea02404286fe15f02" target="_top" xlink:title="Compute vector \( q \) for integration from \( 0 \) to \( 1 \) for given set of nodes. ">
<polygon fill="white" stroke="black" points="157,-74.5 157,-104.5 255,-104.5 255,-74.5 157,-74.5"/>
<text text-anchor="start" x="165" y="-92.5" font-family="Helvetica,sans-Serif" font-size="10.00">pfasst::quadrature</text>
<text text-anchor="middle" x="206" y="-81.5" font-family="Helvetica,sans-Serif" font-size="10.00">::compute_q_vec</text>
</a>
</g>
</g>
<!-- Node1&#45;&gt;Node9 -->
<g id="edge8" class="edge"><title>Node1&#45;&gt;Node9</title>
<path fill="none" stroke="midnightblue" d="M128.412,-89.5C137.941,-89.5 147.563,-89.5 156.619,-89.5"/>
<polygon fill="midnightblue" stroke="midnightblue" points="128.142,-86.0001 118.142,-89.5 128.142,-93.0001 128.142,-86.0001"/>
</g>
<!-- Node10 -->
<g id="node10" class="node"><title>Node10</title>
<g id="a_node10"><a xlink:href="../../d6/dd0/classpfasst_1_1quadrature_1_1Polynomial.html#ab5a896c60948b58f92fb733d29e697c6" target="_top" xlink:title="Computes the roots of this polynomial. ">
<polygon fill="white" stroke="black" points="155.5,-25.5 155.5,-55.5 256.5,-55.5 256.5,-25.5 155.5,-25.5"/>
<text text-anchor="start" x="163.5" y="-43.5" font-family="Helvetica,sans-Serif" font-size="10.00">pfasst::quadrature</text>
<text text-anchor="middle" x="206" y="-32.5" font-family="Helvetica,sans-Serif" font-size="10.00">::Polynomial::roots</text>
</a>
</g>
</g>
<!-- Node1&#45;&gt;Node10 -->
<g id="edge10" class="edge"><title>Node1&#45;&gt;Node10</title>
<path fill="none" stroke="midnightblue" d="M114.418,-71.1104C129.516,-66.0084 145.731,-60.5289 160.21,-55.6359"/>
<polygon fill="midnightblue" stroke="midnightblue" points="113.041,-67.8813 104.688,-74.3986 115.282,-74.5128 113.041,-67.8813"/>
</g>
<!-- Node3 -->
<g id="node3" class="node"><title>Node3</title>
<g id="a_node3"><a xlink:href="../../de/d20/classpfasst_1_1quadrature_1_1IQuadrature.html#aa282053968e191e35b57d6a8820ca1f7" target="_top" xlink:title="pfasst::quadrature\l::IQuadrature::compute\l_weights">
<polygon fill="white" stroke="black" points="294,-93 294,-134 413,-134 413,-93 294,-93"/>
<text text-anchor="start" x="302" y="-122" font-family="Helvetica,sans-Serif" font-size="10.00">pfasst::quadrature</text>
<text text-anchor="start" x="302" y="-111" font-family="Helvetica,sans-Serif" font-size="10.00">::IQuadrature::compute</text>
<text text-anchor="middle" x="353.5" y="-100" font-family="Helvetica,sans-Serif" font-size="10.00">_weights</text>
</a>
</g>
</g>
<!-- Node2&#45;&gt;Node3 -->
<g id="edge2" class="edge"><title>Node2&#45;&gt;Node3</title>
<path fill="none" stroke="midnightblue" d="M268.19,-127.986C276.727,-126.519 285.481,-125.015 293.967,-123.557"/>
<polygon fill="midnightblue" stroke="midnightblue" points="267.561,-124.543 258.298,-129.686 268.746,-131.442 267.561,-124.543"/>
</g>
<!-- Node4 -->
<g id="node4" class="node"><title>Node4</title>
<g id="a_node4"><a xlink:href="../../d7/d70/classpfasst_1_1quadrature_1_1ClenshawCurtis.html#ae9392d76d3273e528e712a82eb18234e" target="_top" xlink:title="pfasst::quadrature\l::ClenshawCurtis::Clenshaw\lCurtis">
<polygon fill="white" stroke="black" points="465,-196 465,-237 609,-237 609,-196 465,-196"/>
<text text-anchor="start" x="473" y="-225" font-family="Helvetica,sans-Serif" font-size="10.00">pfasst::quadrature</text>
<text text-anchor="start" x="473" y="-214" font-family="Helvetica,sans-Serif" font-size="10.00">::ClenshawCurtis::Clenshaw</text>
<text text-anchor="middle" x="537" y="-203" font-family="Helvetica,sans-Serif" font-size="10.00">Curtis</text>
</a>
</g>
</g>
<!-- Node3&#45;&gt;Node4 -->
<g id="edge3" class="edge"><title>Node3&#45;&gt;Node4</title>
<path fill="none" stroke="midnightblue" d="M383.985,-140.908C401.752,-156.276 425.441,-174.842 449,-187.5 454.61,-190.514 460.591,-193.295 466.69,-195.84"/>
<polygon fill="midnightblue" stroke="midnightblue" points="386.078,-138.088 376.261,-134.105 381.452,-143.341 386.078,-138.088"/>
</g>
<!-- Node5 -->
<g id="node5" class="node"><title>Node5</title>
<g id="a_node5"><a xlink:href="../../df/d99/classpfasst_1_1quadrature_1_1GaussLegendre.html#a22e5a186dac303f94b3518f97d2d3580" target="_top" xlink:title="pfasst::quadrature\l::GaussLegendre::GaussLegendre">
<polygon fill="white" stroke="black" points="449,-147.5 449,-177.5 625,-177.5 625,-147.5 449,-147.5"/>
<text text-anchor="start" x="457" y="-165.5" font-family="Helvetica,sans-Serif" font-size="10.00">pfasst::quadrature</text>
<text text-anchor="middle" x="537" y="-154.5" font-family="Helvetica,sans-Serif" font-size="10.00">::GaussLegendre::GaussLegendre</text>
</a>
</g>
</g>
<!-- Node3&#45;&gt;Node5 -->
<g id="edge4" class="edge"><title>Node3&#45;&gt;Node5</title>
<path fill="none" stroke="midnightblue" d="M422.934,-131.975C441.87,-137.087 462.187,-142.573 480.303,-147.463"/>
<polygon fill="midnightblue" stroke="midnightblue" points="423.744,-128.569 413.177,-129.341 421.919,-135.327 423.744,-128.569"/>
</g>
<!-- Node6 -->
<g id="node6" class="node"><title>Node6</title>
<g id="a_node6"><a xlink:href="../../de/d23/classpfasst_1_1quadrature_1_1GaussLobatto.html#a64bab00188c1e1144d21af2f14827fba" target="_top" xlink:title="pfasst::quadrature\l::GaussLobatto::GaussLobatto">
<polygon fill="white" stroke="black" points="459.5,-98.5 459.5,-128.5 614.5,-128.5 614.5,-98.5 459.5,-98.5"/>
<text text-anchor="start" x="467.5" y="-116.5" font-family="Helvetica,sans-Serif" font-size="10.00">pfasst::quadrature</text>
<text text-anchor="middle" x="537" y="-105.5" font-family="Helvetica,sans-Serif" font-size="10.00">::GaussLobatto::GaussLobatto</text>
</a>
</g>
</g>
<!-- Node3&#45;&gt;Node6 -->
<g id="edge5" class="edge"><title>Node3&#45;&gt;Node6</title>
<path fill="none" stroke="midnightblue" d="M423.35,-113.5C435.104,-113.5 447.379,-113.5 459.321,-113.5"/>
<polygon fill="midnightblue" stroke="midnightblue" points="423.177,-110 413.177,-113.5 423.177,-117 423.177,-110"/>
</g>
<!-- Node7 -->
<g id="node7" class="node"><title>Node7</title>
<g id="a_node7"><a xlink:href="../../d1/da0/classpfasst_1_1quadrature_1_1GaussRadau.html#a894209ec241ce9ecf6023317f072f745" target="_top" xlink:title="pfasst::quadrature\l::GaussRadau::GaussRadau">
<polygon fill="white" stroke="black" points="462.5,-49.5 462.5,-79.5 611.5,-79.5 611.5,-49.5 462.5,-49.5"/>
<text text-anchor="start" x="470.5" y="-67.5" font-family="Helvetica,sans-Serif" font-size="10.00">pfasst::quadrature</text>
<text text-anchor="middle" x="537" y="-56.5" font-family="Helvetica,sans-Serif" font-size="10.00">::GaussRadau::GaussRadau</text>
</a>
</g>
</g>
<!-- Node3&#45;&gt;Node7 -->
<g id="edge6" class="edge"><title>Node3&#45;&gt;Node7</title>
<path fill="none" stroke="midnightblue" d="M422.934,-95.0246C441.87,-89.9126 462.187,-84.4274 480.303,-79.5367"/>
<polygon fill="midnightblue" stroke="midnightblue" points="421.919,-91.6733 413.177,-97.6588 423.744,-98.4313 421.919,-91.6733"/>
</g>
<!-- Node8 -->
<g id="node8" class="node"><title>Node8</title>
<g id="a_node8"><a xlink:href="../../d9/d7b/classpfasst_1_1quadrature_1_1Uniform.html#a05919b8af8b1f9cf05fbc4fcf7822717" target="_top" xlink:title="pfasst::quadrature\l::Uniform::Uniform">
<polygon fill="white" stroke="black" points="488,-0.5 488,-30.5 586,-30.5 586,-0.5 488,-0.5"/>
<text text-anchor="start" x="496" y="-18.5" font-family="Helvetica,sans-Serif" font-size="10.00">pfasst::quadrature</text>
<text text-anchor="middle" x="537" y="-7.5" font-family="Helvetica,sans-Serif" font-size="10.00">::Uniform::Uniform</text>
</a>
</g>
</g>
<!-- Node3&#45;&gt;Node8 -->
<g id="edge7" class="edge"><title>Node3&#45;&gt;Node8</title>
<path fill="none" stroke="midnightblue" d="M383.852,-86.1145C401.575,-70.8369 425.263,-52.5211 449,-40.5 461.057,-34.3939 474.832,-29.5689 487.809,-25.8535"/>
<polygon fill="midnightblue" stroke="midnightblue" points="381.349,-83.6548 376.151,-92.8866 385.972,-88.9116 381.349,-83.6548"/>
</g>
<!-- Node9&#45;&gt;Node3 -->
<g id="edge9" class="edge"><title>Node9&#45;&gt;Node3</title>
<path fill="none" stroke="midnightblue" d="M265.138,-99.0898C274.593,-100.649 284.392,-102.266 293.858,-103.827"/>
<polygon fill="midnightblue" stroke="midnightblue" points="265.482,-95.5992 255.045,-97.425 264.342,-102.506 265.482,-95.5992"/>
</g>
</g>
</svg>
