<?xml version="1.0" encoding="UTF-8" standalone="no"?>
<!DOCTYPE svg PUBLIC "-//W3C//DTD SVG 1.1//EN"
 "http://www.w3.org/Graphics/SVG/1.1/DTD/svg11.dtd">
<!-- Generated by graphviz version 2.38.0 (20140413.2041)
 -->
<!-- Title: pfasst::quadrature::Polynomial::legendre Pages: 1 -->
<!--zoomable 225 -->
<svg id="main" version="1.1" xmlns="http://www.w3.org/2000/svg" xmlns:xlink="http://www.w3.org/1999/xlink" xml:space="preserve" onload="init(evt)">
<style type="text/css"><![CDATA[
.edge:hover path { stroke: red; }
.edge:hover polygon { stroke: red; fill: red; }
]]></style>
<script type="text/javascript"><![CDATA[
var edges = document.getElementsByTagName('g');
if (edges && edges.length) {
  for (var i=0;i<edges.length;i++) {
    if (edges[i].id.substr(0,4)=='edge') {
      edges[i].setAttribute('class','edge');
    }
  }
}
]]></script>
        <defs>
                <circle id="rim" cx="0" cy="0" r="7"/>
                <circle id="rim2" cx="0" cy="0" r="3.5"/>
                <g id="zoomPlus">
                        <use xlink:href="#rim" fill="#404040">
                                <set attributeName="fill" to="#808080" begin="zoomplus.mouseover" end="zoomplus.mouseout"/>
                        </use>
                        <path d="M-4,0h8M0,-4v8" fill="none" stroke="white" stroke-width="1.5" pointer-events="none"/>
                </g>
                <g id="zoomMin">
                        <use xlink:href="#rim" fill="#404040">
                                <set attributeName="fill" to="#808080" begin="zoomminus.mouseover" end="zoomminus.mouseout"/>
                        </use>
                        <path d="M-4,0h8" fill="none" stroke="white" stroke-width="1.5" pointer-events="none"/>
                </g>
                <g id="dirArrow">
                        <path fill="none" stroke="white" stroke-width="1.5" d="M0,-3.0v7 M-2.5,-0.5L0,-3.0L2.5,-0.5"/>
                </g>
               <g id="resetDef">
                       <use xlink:href="#rim2" fill="#404040">
                               <set attributeName="fill" to="#808080" begin="reset.mouseover" end="reset.mouseout"/>
                       </use>
               </g>
        </defs>

<script type="text/javascript">
var viewWidth = 549;
var viewHeight = 225;
var sectionId = 'dynsection-3';
</script>
<script xlink:href="../../svgpan.js"/>
<svg id="graph" class="graph">
<g id="viewport">
<title>pfasst::quadrature::Polynomial::legendre</title>
<polygon fill="white" stroke="none" points="-4,4 -4,-220.5 545,-220.5 545,4 -4,4"/>
<!-- Node1 -->
<g id="node1" class="node"><title>Node1</title>
<polygon fill="#bfbfbf" stroke="black" points="0,-88 0,-118 119,-118 119,-88 0,-88"/>
<text text-anchor="start" x="8" y="-106" font-family="Helvetica,sans-Serif" font-size="10.00">pfasst::quadrature</text>
<text text-anchor="middle" x="59.5" y="-95" font-family="Helvetica,sans-Serif" font-size="10.00">::Polynomial::legendre</text>
</g>
<!-- Node2 -->
<g id="node2" class="node"><title>Node2</title>
<g id="a_node2"><a xlink:href="../../df/d99/classpfasst_1_1quadrature_1_1GaussLegendre.html#a6e8c5448b84377846a5015c9c94689a0" target="_top" xlink:title="pfasst::quadrature\l::GaussLegendre::compute_nodes">
<polygon fill="white" stroke="black" points="155,-186 155,-216 329,-216 329,-186 155,-186"/>
<text text-anchor="start" x="163" y="-204" font-family="Helvetica,sans-Serif" font-size="10.00">pfasst::quadrature</text>
<text text-anchor="middle" x="242" y="-193" font-family="Helvetica,sans-Serif" font-size="10.00">::GaussLegendre::compute_nodes</text>
</a>
</g>
</g>
<!-- Node1&#45;&gt;Node2 -->
<g id="edge1" class="edge"><title>Node1&#45;&gt;Node2</title>
<path fill="none" stroke="midnightblue" d="M84.0026,-125.232C102.152,-141.336 128.557,-162.557 155,-176 162.485,-179.805 170.638,-183.117 178.846,-185.975"/>
<polygon fill="midnightblue" stroke="midnightblue" points="86.0377,-122.353 76.2744,-118.238 81.341,-127.543 86.0377,-122.353"/>
</g>
<!-- Node4 -->
<g id="node4" class="node"><title>Node4</title>
<g id="a_node4"><a xlink:href="../../d1/da0/classpfasst_1_1quadrature_1_1GaussRadau.html#ae7702d1a873e0bddf51641d12ba62ec3" target="_top" xlink:title="pfasst::quadrature\l::GaussRadau::compute_nodes">
<polygon fill="white" stroke="black" points="161.5,-137 161.5,-167 322.5,-167 322.5,-137 161.5,-137"/>
<text text-anchor="start" x="169.5" y="-155" font-family="Helvetica,sans-Serif" font-size="10.00">pfasst::quadrature</text>
<text text-anchor="middle" x="242" y="-144" font-family="Helvetica,sans-Serif" font-size="10.00">::GaussRadau::compute_nodes</text>
</a>
</g>
</g>
<!-- Node1&#45;&gt;Node4 -->
<g id="edge3" class="edge"><title>Node1&#45;&gt;Node4</title>
<path fill="none" stroke="midnightblue" d="M125.88,-120.748C145.442,-126.059 166.696,-131.829 185.555,-136.948"/>
<polygon fill="midnightblue" stroke="midnightblue" points="126.696,-117.344 116.129,-118.101 124.863,-124.099 126.696,-117.344"/>
</g>
<!-- Node6 -->
<g id="node6" class="node"><title>Node6</title>
<g id="a_node6"><a xlink:href="../../de/d23/classpfasst_1_1quadrature_1_1GaussLobatto.html#a5fa573d4a52bdc49bee779cc248695be" target="_top" xlink:title="pfasst::quadrature\l::GaussLobatto::compute_nodes">
<polygon fill="white" stroke="black" points="160,-88 160,-118 324,-118 324,-88 160,-88"/>
<text text-anchor="start" x="168" y="-106" font-family="Helvetica,sans-Serif" font-size="10.00">pfasst::quadrature</text>
<text text-anchor="middle" x="242" y="-95" font-family="Helvetica,sans-Serif" font-size="10.00">::GaussLobatto::compute_nodes</text>
</a>
</g>
</g>
<!-- Node1&#45;&gt;Node6 -->
<g id="edge5" class="edge"><title>Node1&#45;&gt;Node6</title>
<path fill="none" stroke="midnightblue" d="M129.312,-103C139.258,-103 149.572,-103 159.733,-103"/>
<polygon fill="midnightblue" stroke="midnightblue" points="129.103,-99.5001 119.103,-103 129.103,-106.5 129.103,-99.5001"/>
</g>
<!-- Node8 -->
<g id="node8" class="node"><title>Node8</title>
<g id="a_node8"><a xlink:href="../../d7/d70/classpfasst_1_1quadrature_1_1ClenshawCurtis.html#a75d7ed838396512b722679535b97739d" target="_top" xlink:title="pfasst::quadrature\l::ClenshawCurtis::compute_nodes">
<polygon fill="white" stroke="black" points="156.5,-39 156.5,-69 327.5,-69 327.5,-39 156.5,-39"/>
<text text-anchor="start" x="164.5" y="-57" font-family="Helvetica,sans-Serif" font-size="10.00">pfasst::quadrature</text>
<text text-anchor="middle" x="242" y="-46" font-family="Helvetica,sans-Serif" font-size="10.00">::ClenshawCurtis::compute_nodes</text>
</a>
</g>
</g>
<!-- Node1&#45;&gt;Node8 -->
<g id="edge7" class="edge"><title>Node1&#45;&gt;Node8</title>
<path fill="none" stroke="midnightblue" d="M125.88,-85.2515C145.442,-79.9409 166.696,-74.1712 185.555,-69.0516"/>
<polygon fill="midnightblue" stroke="midnightblue" points="124.863,-81.9009 116.129,-87.8986 126.696,-88.6564 124.863,-81.9009"/>
</g>
<!-- Node10 -->
<g id="node10" class="node"><title>Node10</title>
<g id="a_node10"><a xlink:href="../../df/d51/test__polynomial_8cpp.html#ae02318eb01253a4b548c7d6b66418b27" target="_top" xlink:title="TEST">
<polygon fill="white" stroke="black" points="220,-0.5 220,-19.5 264,-19.5 264,-0.5 220,-0.5"/>
<text text-anchor="middle" x="242" y="-7.5" font-family="Helvetica,sans-Serif" font-size="10.00">TEST</text>
</a>
</g>
</g>
<!-- Node1&#45;&gt;Node10 -->
<g id="edge9" class="edge"><title>Node1&#45;&gt;Node10</title>
<path fill="none" stroke="midnightblue" d="M83.0473,-80.538C101.053,-63.8672 127.708,-41.8779 155,-29 175.743,-19.2123 201.703,-14.3715 219.646,-12.0407"/>
<polygon fill="midnightblue" stroke="midnightblue" points="80.2645,-78.3531 75.4121,-87.7715 85.0788,-83.4348 80.2645,-78.3531"/>
</g>
<!-- Node3 -->
<g id="node3" class="node"><title>Node3</title>
<g id="a_node3"><a xlink:href="../../df/d99/classpfasst_1_1quadrature_1_1GaussLegendre.html#a22e5a186dac303f94b3518f97d2d3580" target="_top" xlink:title="pfasst::quadrature\l::GaussLegendre::GaussLegendre">
<polygon fill="white" stroke="black" points="365,-186 365,-216 541,-216 541,-186 365,-186"/>
<text text-anchor="start" x="373" y="-204" font-family="Helvetica,sans-Serif" font-size="10.00">pfasst::quadrature</text>
<text text-anchor="middle" x="453" y="-193" font-family="Helvetica,sans-Serif" font-size="10.00">::GaussLegendre::GaussLegendre</text>
</a>
</g>
</g>
<!-- Node2&#45;&gt;Node3 -->
<g id="edge2" class="edge"><title>Node2&#45;&gt;Node3</title>
<path fill="none" stroke="midnightblue" d="M339.239,-201C347.819,-201 356.474,-201 364.971,-201"/>
<polygon fill="midnightblue" stroke="midnightblue" points="339.215,-197.5 329.215,-201 339.215,-204.5 339.215,-197.5"/>
</g>
<!-- Node5 -->
<g id="node5" class="node"><title>Node5</title>
<g id="a_node5"><a xlink:href="../../d1/da0/classpfasst_1_1quadrature_1_1GaussRadau.html#a894209ec241ce9ecf6023317f072f745" target="_top" xlink:title="pfasst::quadrature\l::GaussRadau::GaussRadau">
<polygon fill="white" stroke="black" points="378.5,-137 378.5,-167 527.5,-167 527.5,-137 378.5,-137"/>
<text text-anchor="start" x="386.5" y="-155" font-family="Helvetica,sans-Serif" font-size="10.00">pfasst::quadrature</text>
<text text-anchor="middle" x="453" y="-144" font-family="Helvetica,sans-Serif" font-size="10.00">::GaussRadau::GaussRadau</text>
</a>
</g>
</g>
<!-- Node4&#45;&gt;Node5 -->
<g id="edge4" class="edge"><title>Node4&#45;&gt;Node5</title>
<path fill="none" stroke="midnightblue" d="M333.026,-152C348.19,-152 363.769,-152 378.451,-152"/>
<polygon fill="midnightblue" stroke="midnightblue" points="332.61,-148.5 322.61,-152 332.61,-155.5 332.61,-148.5"/>
</g>
<!-- Node7 -->
<g id="node7" class="node"><title>Node7</title>
<g id="a_node7"><a xlink:href="../../de/d23/classpfasst_1_1quadrature_1_1GaussLobatto.html#a64bab00188c1e1144d21af2f14827fba" target="_top" xlink:title="pfasst::quadrature\l::GaussLobatto::GaussLobatto">
<polygon fill="white" stroke="black" points="375.5,-88 375.5,-118 530.5,-118 530.5,-88 375.5,-88"/>
<text text-anchor="start" x="383.5" y="-106" font-family="Helvetica,sans-Serif" font-size="10.00">pfasst::quadrature</text>
<text text-anchor="middle" x="453" y="-95" font-family="Helvetica,sans-Serif" font-size="10.00">::GaussLobatto::GaussLobatto</text>
</a>
</g>
</g>
<!-- Node6&#45;&gt;Node7 -->
<g id="edge6" class="edge"><title>Node6&#45;&gt;Node7</title>
<path fill="none" stroke="midnightblue" d="M334.473,-103C348.129,-103 362.088,-103 375.395,-103"/>
<polygon fill="midnightblue" stroke="midnightblue" points="334.104,-99.5001 324.104,-103 334.104,-106.5 334.104,-99.5001"/>
</g>
<!-- Node9 -->
<g id="node9" class="node"><title>Node9</title>
<g id="a_node9"><a xlink:href="../../d7/d70/classpfasst_1_1quadrature_1_1ClenshawCurtis.html#ae9392d76d3273e528e712a82eb18234e" target="_top" xlink:title="pfasst::quadrature\l::ClenshawCurtis::Clenshaw\lCurtis">
<polygon fill="white" stroke="black" points="381,-28.5 381,-69.5 525,-69.5 525,-28.5 381,-28.5"/>
<text text-anchor="start" x="389" y="-57.5" font-family="Helvetica,sans-Serif" font-size="10.00">pfasst::quadrature</text>
<text text-anchor="start" x="389" y="-46.5" font-family="Helvetica,sans-Serif" font-size="10.00">::ClenshawCurtis::Clenshaw</text>
<text text-anchor="middle" x="453" y="-35.5" font-family="Helvetica,sans-Serif" font-size="10.00">Curtis</text>
</a>
</g>
</g>
<!-- Node8&#45;&gt;Node9 -->
<g id="edge8" class="edge"><title>Node8&#45;&gt;Node9</title>
<path fill="none" stroke="midnightblue" d="M337.705,-51.7343C352.225,-51.387 366.999,-51.0335 380.894,-50.7011"/>
<polygon fill="midnightblue" stroke="midnightblue" points="337.62,-48.2353 327.707,-51.9735 337.788,-55.2333 337.62,-48.2353"/>
</g>
</g>
</svg>
        <g id="navigator" transform="translate(0 0)" fill="#404254">
                <rect fill="#f2f5e9" fill-opacity="0.5" stroke="#606060" stroke-width=".5" x="0" y="0" width="60" height="60"/>
                <use id="zoomplus" xlink:href="#zoomPlus" x="17" y="9" onmousedown="handleZoom(evt,'in')"/>
                <use id="zoomminus" xlink:href="#zoomMin" x="42" y="9" onmousedown="handleZoom(evt,'out')"/>
                <use id="reset" xlink:href="#resetDef" x="30" y="36" onmousedown="handleReset()"/>
                <g id="arrowUp" xlink:href="#dirArrow" transform="translate(30 24)" onmousedown="handlePan(0,-1)">
                  <use xlink:href="#rim" fill="#404040">
                        <set attributeName="fill" to="#808080" begin="arrowUp.mouseover" end="arrowUp.mouseout"/>
                  </use>
                  <path fill="none" stroke="white" stroke-width="1.5" d="M0,-3.0v7 M-2.5,-0.5L0,-3.0L2.5,-0.5"/>
                </g>
                <g id="arrowRight" xlink:href="#dirArrow" transform="rotate(90) translate(36 -43)" onmousedown="handlePan(1,0)">
                  <use xlink:href="#rim" fill="#404040">
                        <set attributeName="fill" to="#808080" begin="arrowRight.mouseover" end="arrowRight.mouseout"/>
                  </use>
                  <path fill="none" stroke="white" stroke-width="1.5" d="M0,-3.0v7 M-2.5,-0.5L0,-3.0L2.5,-0.5"/>
                </g>
                <g id="arrowDown" xlink:href="#dirArrow" transform="rotate(180) translate(-30 -48)" onmousedown="handlePan(0,1)">
                  <use xlink:href="#rim" fill="#404040">
                        <set attributeName="fill" to="#808080" begin="arrowDown.mouseover" end="arrowDown.mouseout"/>
                  </use>
                  <path fill="none" stroke="white" stroke-width="1.5" d="M0,-3.0v7 M-2.5,-0.5L0,-3.0L2.5,-0.5"/>
                </g>
                <g id="arrowLeft" xlink:href="#dirArrow" transform="rotate(270) translate(-36 17)" onmousedown="handlePan(-1,0)">
                  <use xlink:href="#rim" fill="#404040">
                        <set attributeName="fill" to="#808080" begin="arrowLeft.mouseover" end="arrowLeft.mouseout"/>
                  </use>
                  <path fill="none" stroke="white" stroke-width="1.5" d="M0,-3.0v7 M-2.5,-0.5L0,-3.0L2.5,-0.5"/>
                </g>
        </g>
        <svg viewBox="0 0 15 15" width="100%" height="30px" preserveAspectRatio="xMaxYMin meet">
         <g id="arrow_out" transform="scale(0.3 0.3)">
          <a xlink:href="classpfasst_1_1quadrature_1_1Polynomial_a9658a586f822aaafe057120cd258ad73_icgraph_org.svg" target="_base">
           <rect id="button" ry="5" rx="5" y="6" x="6" height="38" width="38"
                fill="#f2f5e9" fill-opacity="0.5" stroke="#606060" stroke-width="1.0"/>
           <path id="arrow"
             d="M 11.500037,31.436501 C 11.940474,20.09759 22.043105,11.32322 32.158766,21.979434 L 37.068811,17.246167 C 37.068811,17.246167 37.088388,32 37.088388,32 L 22.160133,31.978069 C 22.160133,31.978069 26.997745,27.140456 26.997745,27.140456 C 18.528582,18.264221 13.291696,25.230495 11.500037,31.436501 z"
             style="fill:#404040;"/>
          </a>
         </g>
        </svg>
</svg>
