<?xml version="1.0" encoding="UTF-8" standalone="no"?>
<!DOCTYPE svg PUBLIC "-//W3C//DTD SVG 1.1//EN"
 "http://www.w3.org/Graphics/SVG/1.1/DTD/svg11.dtd">
<!-- Generated by graphviz version 2.38.0 (20140413.2041)
 -->
<!-- Title: src/pfasst/controller/interface_impl.hpp Pages: 1 -->
<!--zoomable 307 -->
<svg id="main" version="1.1" xmlns="http://www.w3.org/2000/svg" xmlns:xlink="http://www.w3.org/1999/xlink" xml:space="preserve" onload="init(evt)">
<style type="text/css"><![CDATA[
.edge:hover path { stroke: red; }
.edge:hover polygon { stroke: red; fill: red; }
]]></style>
<script type="text/javascript"><![CDATA[
var edges = document.getElementsByTagName('g');
if (edges && edges.length) {
  for (var i=0;i<edges.length;i++) {
    if (edges[i].id.substr(0,4)=='edge') {
      edges[i].setAttribute('class','edge');
    }
  }
}
]]></script>
        <defs>
                <circle id="rim" cx="0" cy="0" r="7"/>
                <circle id="rim2" cx="0" cy="0" r="3.5"/>
                <g id="zoomPlus">
                        <use xlink:href="#rim" fill="#404040">
                                <set attributeName="fill" to="#808080" begin="zoomplus.mouseover" end="zoomplus.mouseout"/>
                        </use>
                        <path d="M-4,0h8M0,-4v8" fill="none" stroke="white" stroke-width="1.5" pointer-events="none"/>
                </g>
                <g id="zoomMin">
                        <use xlink:href="#rim" fill="#404040">
                                <set attributeName="fill" to="#808080" begin="zoomminus.mouseover" end="zoomminus.mouseout"/>
                        </use>
                        <path d="M-4,0h8" fill="none" stroke="white" stroke-width="1.5" pointer-events="none"/>
                </g>
                <g id="dirArrow">
                        <path fill="none" stroke="white" stroke-width="1.5" d="M0,-3.0v7 M-2.5,-0.5L0,-3.0L2.5,-0.5"/>
                </g>
               <g id="resetDef">
                       <use xlink:href="#rim2" fill="#404040">
                               <set attributeName="fill" to="#808080" begin="reset.mouseover" end="reset.mouseout"/>
                       </use>
               </g>
        </defs>

<script type="text/javascript">
var viewWidth = 1262;
var viewHeight = 307;
var sectionId = 'dynsection-1';
</script>
<script xlink:href="../../svgpan.js"/>
<svg id="graph" class="graph">
<g id="viewport">
<title>src/pfasst/controller/interface_impl.hpp</title>
<polygon fill="white" stroke="none" points="-4,4 -4,-303 1257.5,-303 1257.5,4 -4,4"/>
<!-- Node1 -->
<g id="node1" class="node"><title>Node1</title>
<polygon fill="#bfbfbf" stroke="black" points="470,-268.5 470,-298.5 574,-298.5 574,-268.5 470,-268.5"/>
<text text-anchor="start" x="478" y="-286.5" font-family="Helvetica,sans-Serif" font-size="10.00">src/pfasst/controller</text>
<text text-anchor="middle" x="522" y="-275.5" font-family="Helvetica,sans-Serif" font-size="10.00">/interface_impl.hpp</text>
</g>
<!-- Node2 -->
<g id="node2" class="node"><title>Node2</title>
<g id="a_node2"><a xlink:href="../../d7/d5c/controller_2interface_8hpp.html" target="_top" xlink:title="include/pfasst/controller\l/interface.hpp">
<polygon fill="white" stroke="black" points="461,-201.5 461,-231.5 583,-231.5 583,-201.5 461,-201.5"/>
<text text-anchor="start" x="469" y="-219.5" font-family="Helvetica,sans-Serif" font-size="10.00">include/pfasst/controller</text>
<text text-anchor="middle" x="522" y="-208.5" font-family="Helvetica,sans-Serif" font-size="10.00">/interface.hpp</text>
</a>
</g>
</g>
<!-- Node1&#45;&gt;Node2 -->
<g id="edge1" class="edge"><title>Node1&#45;&gt;Node2</title>
<path fill="none" stroke="midnightblue" d="M515.455,-258.403C515.005,-249.37 515.296,-239.408 516.325,-231.577"/>
<polygon fill="midnightblue" stroke="midnightblue" points="511.97,-258.736 516.322,-268.396 518.944,-258.131 511.97,-258.736"/>
</g>
<!-- Node2&#45;&gt;Node1 -->
<g id="edge20" class="edge"><title>Node2&#45;&gt;Node1</title>
<path fill="none" stroke="midnightblue" d="M528.544,-241.565C528.995,-250.596 528.706,-260.56 527.678,-268.396"/>
<polygon fill="midnightblue" stroke="midnightblue" points="532.028,-241.236 527.675,-231.577 525.055,-241.842 532.028,-241.236"/>
</g>
<!-- Node3 -->
<g id="node3" class="node"><title>Node3</title>
<g id="a_node3"><a xlink:href="../../da/d27/mlsdc_8hpp.html" target="_top" xlink:title="include/pfasst/controller\l/mlsdc.hpp">
<polygon fill="white" stroke="black" points="258,-134.5 258,-164.5 380,-164.5 380,-134.5 258,-134.5"/>
<text text-anchor="start" x="266" y="-152.5" font-family="Helvetica,sans-Serif" font-size="10.00">include/pfasst/controller</text>
<text text-anchor="middle" x="319" y="-141.5" font-family="Helvetica,sans-Serif" font-size="10.00">/mlsdc.hpp</text>
</a>
</g>
</g>
<!-- Node2&#45;&gt;Node3 -->
<g id="edge2" class="edge"><title>Node2&#45;&gt;Node3</title>
<path fill="none" stroke="midnightblue" d="M468.058,-198.228C435.219,-187.713 393.8,-174.451 362.962,-164.577"/>
<polygon fill="midnightblue" stroke="midnightblue" points="467.361,-201.68 477.952,-201.396 469.496,-195.013 467.361,-201.68"/>
</g>
<!-- Node11 -->
<g id="node11" class="node"><title>Node11</title>
<g id="a_node11"><a xlink:href="../../de/de4/sdc_8hpp.html" target="_top" xlink:title="include/pfasst/controller\l/sdc.hpp">
<polygon fill="white" stroke="black" points="663,-134.5 663,-164.5 785,-164.5 785,-134.5 663,-134.5"/>
<text text-anchor="start" x="671" y="-152.5" font-family="Helvetica,sans-Serif" font-size="10.00">include/pfasst/controller</text>
<text text-anchor="middle" x="724" y="-141.5" font-family="Helvetica,sans-Serif" font-size="10.00">/sdc.hpp</text>
</a>
</g>
</g>
<!-- Node2&#45;&gt;Node11 -->
<g id="edge12" class="edge"><title>Node2&#45;&gt;Node11</title>
<path fill="none" stroke="midnightblue" d="M575.677,-198.228C608.353,-187.713 649.568,-174.451 680.255,-164.577"/>
<polygon fill="midnightblue" stroke="midnightblue" points="574.278,-195.001 565.831,-201.396 576.422,-201.665 574.278,-195.001"/>
</g>
<!-- Node4 -->
<g id="node4" class="node"><title>Node4</title>
<g id="a_node4"><a xlink:href="../../d1/d0d/pfasst_2controller_2pfasst_8hpp.html" target="_top" xlink:title="include/pfasst/controller\l/pfasst.hpp">
<polygon fill="white" stroke="black" points="58,-67.5 58,-97.5 180,-97.5 180,-67.5 58,-67.5"/>
<text text-anchor="start" x="66" y="-85.5" font-family="Helvetica,sans-Serif" font-size="10.00">include/pfasst/controller</text>
<text text-anchor="middle" x="119" y="-74.5" font-family="Helvetica,sans-Serif" font-size="10.00">/pfasst.hpp</text>
</a>
</g>
</g>
<!-- Node3&#45;&gt;Node4 -->
<g id="edge3" class="edge"><title>Node3&#45;&gt;Node4</title>
<path fill="none" stroke="midnightblue" d="M265.855,-131.228C233.502,-120.713 192.695,-107.451 162.312,-97.5765"/>
<polygon fill="midnightblue" stroke="midnightblue" points="265.011,-134.634 275.603,-134.396 267.174,-127.976 265.011,-134.634"/>
</g>
<!-- Node8 -->
<g id="node8" class="node"><title>Node8</title>
<g id="a_node8"><a xlink:href="../../d5/d0a/mlsdc__impl_8hpp.html" target="_top" xlink:title="src/pfasst/controller\l/mlsdc_impl.hpp">
<polygon fill="white" stroke="black" points="198,-67.5 198,-97.5 302,-97.5 302,-67.5 198,-67.5"/>
<text text-anchor="start" x="206" y="-85.5" font-family="Helvetica,sans-Serif" font-size="10.00">src/pfasst/controller</text>
<text text-anchor="middle" x="250" y="-74.5" font-family="Helvetica,sans-Serif" font-size="10.00">/mlsdc_impl.hpp</text>
</a>
</g>
</g>
<!-- Node3&#45;&gt;Node8 -->
<g id="edge8" class="edge"><title>Node3&#45;&gt;Node8</title>
<path fill="none" stroke="midnightblue" d="M290.459,-127.598C279.339,-117.783 267.423,-106.344 259.268,-97.5765"/>
<polygon fill="midnightblue" stroke="midnightblue" points="288.489,-130.52 298.35,-134.396 293.058,-125.217 288.489,-130.52"/>
</g>
<!-- Node9 -->
<g id="node9" class="node"><title>Node9</title>
<g id="a_node9"><a xlink:href="../../d9/d86/serial__mlsdc_8cpp.html" target="_top" xlink:title="Advection&#45;Diffusion with serial MLSDC. ">
<polygon fill="white" stroke="black" points="320.5,-67.5 320.5,-97.5 457.5,-97.5 457.5,-67.5 320.5,-67.5"/>
<text text-anchor="start" x="328.5" y="-85.5" font-family="Helvetica,sans-Serif" font-size="10.00">examples/advection</text>
<text text-anchor="middle" x="389" y="-74.5" font-family="Helvetica,sans-Serif" font-size="10.00">_diffusion/serial_mlsdc.cpp</text>
</a>
</g>
</g>
<!-- Node3&#45;&gt;Node9 -->
<g id="edge10" class="edge"><title>Node3&#45;&gt;Node9</title>
<path fill="none" stroke="midnightblue" d="M341.818,-127.311C352.319,-117.561 364.49,-106.259 373.841,-97.5765"/>
<polygon fill="midnightblue" stroke="midnightblue" points="339.135,-125.027 334.189,-134.396 343.899,-130.156 339.135,-125.027"/>
</g>
<!-- Node10 -->
<g id="node10" class="node"><title>Node10</title>
<g id="a_node10"><a xlink:href="../../d7/d31/boris__mlsdc_8cpp.html" target="_top" xlink:title="examples/boris/boris\l_mlsdc.cpp">
<polygon fill="white" stroke="black" points="476,-67.5 476,-97.5 586,-97.5 586,-67.5 476,-67.5"/>
<text text-anchor="start" x="484" y="-85.5" font-family="Helvetica,sans-Serif" font-size="10.00">examples/boris/boris</text>
<text text-anchor="middle" x="531" y="-74.5" font-family="Helvetica,sans-Serif" font-size="10.00">_mlsdc.cpp</text>
</a>
</g>
</g>
<!-- Node3&#45;&gt;Node10 -->
<g id="edge11" class="edge"><title>Node3&#45;&gt;Node10</title>
<path fill="none" stroke="midnightblue" d="M374.628,-131.444C408.993,-120.908 452.562,-107.549 484.977,-97.6109"/>
<polygon fill="midnightblue" stroke="midnightblue" points="373.275,-128.198 364.74,-134.476 375.327,-134.891 373.275,-128.198"/>
</g>
<!-- Node5 -->
<g id="node5" class="node"><title>Node5</title>
<g id="a_node5"><a xlink:href="../../de/d75/pfasst__impl_8hpp.html" target="_top" xlink:title="src/pfasst/controller\l/pfasst_impl.hpp">
<polygon fill="white" stroke="black" points="0,-0.5 0,-30.5 104,-30.5 104,-0.5 0,-0.5"/>
<text text-anchor="start" x="8" y="-18.5" font-family="Helvetica,sans-Serif" font-size="10.00">src/pfasst/controller</text>
<text text-anchor="middle" x="52" y="-7.5" font-family="Helvetica,sans-Serif" font-size="10.00">/pfasst_impl.hpp</text>
</a>
</g>
</g>
<!-- Node4&#45;&gt;Node5 -->
<g id="edge4" class="edge"><title>Node4&#45;&gt;Node5</title>
<path fill="none" stroke="midnightblue" d="M91.1021,-60.5978C80.2846,-50.7831 68.7196,-39.3442 60.8348,-30.5765"/>
<polygon fill="midnightblue" stroke="midnightblue" points="88.9755,-63.3895 98.7836,-67.396 93.6147,-58.1475 88.9755,-63.3895"/>
</g>
<!-- Node6 -->
<g id="node6" class="node"><title>Node6</title>
<g id="a_node6"><a xlink:href="../../d1/d49/mpi__pfasst_8cpp.html" target="_top" xlink:title="Advection&#45;Diffusion with MPI&#45;enabled PFASST. ">
<polygon fill="white" stroke="black" points="122.5,-0.5 122.5,-30.5 249.5,-30.5 249.5,-0.5 122.5,-0.5"/>
<text text-anchor="start" x="130.5" y="-18.5" font-family="Helvetica,sans-Serif" font-size="10.00">examples/advection</text>
<text text-anchor="middle" x="186" y="-7.5" font-family="Helvetica,sans-Serif" font-size="10.00">_diffusion/mpi_pfasst.cpp</text>
</a>
</g>
</g>
<!-- Node4&#45;&gt;Node6 -->
<g id="edge6" class="edge"><title>Node4&#45;&gt;Node6</title>
<path fill="none" stroke="midnightblue" d="M140.84,-60.3115C150.891,-50.5612 162.541,-39.259 171.49,-30.5765"/>
<polygon fill="midnightblue" stroke="midnightblue" points="138.278,-57.9207 133.538,-67.396 143.153,-62.9449 138.278,-57.9207"/>
</g>
<!-- Node7 -->
<g id="node7" class="node"><title>Node7</title>
<g id="a_node7"><a xlink:href="../../d2/d1e/boris__pfasst_8cpp.html" target="_top" xlink:title="examples/boris/boris\l_pfasst.cpp">
<polygon fill="white" stroke="black" points="268,-0.5 268,-30.5 378,-30.5 378,-0.5 268,-0.5"/>
<text text-anchor="start" x="276" y="-18.5" font-family="Helvetica,sans-Serif" font-size="10.00">examples/boris/boris</text>
<text text-anchor="middle" x="323" y="-7.5" font-family="Helvetica,sans-Serif" font-size="10.00">_pfasst.cpp</text>
</a>
</g>
</g>
<!-- Node4&#45;&gt;Node7 -->
<g id="edge7" class="edge"><title>Node4&#45;&gt;Node7</title>
<path fill="none" stroke="midnightblue" d="M172.955,-64.3084C205.957,-53.7932 247.655,-40.5068 278.713,-30.6109"/>
<polygon fill="midnightblue" stroke="midnightblue" points="171.479,-61.1052 163.014,-67.476 173.604,-67.7748 171.479,-61.1052"/>
</g>
<!-- Node5&#45;&gt;Node4 -->
<g id="edge5" class="edge"><title>Node5&#45;&gt;Node4</title>
<path fill="none" stroke="midnightblue" d="M79.8639,-37.3714C90.6799,-47.1827 102.248,-58.6227 110.14,-67.396"/>
<polygon fill="midnightblue" stroke="midnightblue" points="81.993,-34.5819 72.1844,-30.5765 77.3544,-39.8243 81.993,-34.5819"/>
</g>
<!-- Node8&#45;&gt;Node3 -->
<g id="edge9" class="edge"><title>Node8&#45;&gt;Node3</title>
<path fill="none" stroke="midnightblue" d="M278.506,-104.371C289.624,-114.183 301.544,-125.623 309.706,-134.396"/>
<polygon fill="midnightblue" stroke="midnightblue" points="280.479,-101.451 270.618,-97.5765 275.91,-106.755 280.479,-101.451"/>
</g>
<!-- Node11&#45;&gt;Node10 -->
<g id="edge16" class="edge"><title>Node11&#45;&gt;Node10</title>
<path fill="none" stroke="midnightblue" d="M672.311,-131.092C641.155,-120.599 601.989,-107.408 572.796,-97.5765"/>
<polygon fill="midnightblue" stroke="midnightblue" points="671.528,-134.521 682.122,-134.396 673.762,-127.887 671.528,-134.521"/>
</g>
<!-- Node12 -->
<g id="node12" class="node"><title>Node12</title>
<g id="a_node12"><a xlink:href="../../d9/d01/sdc__impl_8hpp.html" target="_top" xlink:title="src/pfasst/controller\l/sdc_impl.hpp">
<polygon fill="white" stroke="black" points="604,-67.5 604,-97.5 708,-97.5 708,-67.5 604,-67.5"/>
<text text-anchor="start" x="612" y="-85.5" font-family="Helvetica,sans-Serif" font-size="10.00">src/pfasst/controller</text>
<text text-anchor="middle" x="656" y="-74.5" font-family="Helvetica,sans-Serif" font-size="10.00">/sdc_impl.hpp</text>
</a>
</g>
</g>
<!-- Node11&#45;&gt;Node12 -->
<g id="edge13" class="edge"><title>Node11&#45;&gt;Node12</title>
<path fill="none" stroke="midnightblue" d="M695.781,-127.598C684.812,-117.783 673.071,-106.344 665.051,-97.5765"/>
<polygon fill="midnightblue" stroke="midnightblue" points="693.732,-130.455 703.567,-134.396 698.336,-125.182 693.732,-130.455"/>
</g>
<!-- Node13 -->
<g id="node13" class="node"><title>Node13</title>
<g id="a_node13"><a xlink:href="../../d4/df0/vanilla__sdc_8cpp.html" target="_top" xlink:title="Advection&#45;Diffusion with vanilla SDC. ">
<polygon fill="white" stroke="black" points="726.5,-67.5 726.5,-97.5 857.5,-97.5 857.5,-67.5 726.5,-67.5"/>
<text text-anchor="start" x="734.5" y="-85.5" font-family="Helvetica,sans-Serif" font-size="10.00">examples/advection</text>
<text text-anchor="middle" x="792" y="-74.5" font-family="Helvetica,sans-Serif" font-size="10.00">_diffusion/vanilla_sdc.cpp</text>
</a>
</g>
</g>
<!-- Node11&#45;&gt;Node13 -->
<g id="edge15" class="edge"><title>Node11&#45;&gt;Node13</title>
<path fill="none" stroke="midnightblue" d="M746.166,-127.311C756.367,-117.561 768.191,-106.259 777.274,-97.5765"/>
<polygon fill="midnightblue" stroke="midnightblue" points="743.565,-124.956 738.755,-134.396 748.402,-130.016 743.565,-124.956"/>
</g>
<!-- Node14 -->
<g id="node14" class="node"><title>Node14</title>
<g id="a_node14"><a xlink:href="../../d3/d93/boris__sdc_8cpp.html" target="_top" xlink:title="examples/boris/boris\l_sdc.cpp">
<polygon fill="white" stroke="black" points="876,-67.5 876,-97.5 986,-97.5 986,-67.5 876,-67.5"/>
<text text-anchor="start" x="884" y="-85.5" font-family="Helvetica,sans-Serif" font-size="10.00">examples/boris/boris</text>
<text text-anchor="middle" x="931" y="-74.5" font-family="Helvetica,sans-Serif" font-size="10.00">_sdc.cpp</text>
</a>
</g>
</g>
<!-- Node11&#45;&gt;Node14 -->
<g id="edge17" class="edge"><title>Node11&#45;&gt;Node14</title>
<path fill="none" stroke="midnightblue" d="M778.316,-131.444C811.871,-120.908 854.412,-107.549 886.062,-97.6109"/>
<polygon fill="midnightblue" stroke="midnightblue" points="777.153,-128.141 768.661,-134.476 779.25,-134.819 777.153,-128.141"/>
</g>
<!-- Node15 -->
<g id="node15" class="node"><title>Node15</title>
<g id="a_node15"><a xlink:href="../../d2/daf/scalar__sdc_8cpp.html" target="_top" xlink:title="Scalar test equation example using an encapsulated IMEX sweeper. ">
<polygon fill="white" stroke="black" points="1004,-67.5 1004,-97.5 1126,-97.5 1126,-67.5 1004,-67.5"/>
<text text-anchor="start" x="1012" y="-85.5" font-family="Helvetica,sans-Serif" font-size="10.00">examples/scalar/scalar</text>
<text text-anchor="middle" x="1065" y="-74.5" font-family="Helvetica,sans-Serif" font-size="10.00">_sdc.cpp</text>
</a>
</g>
</g>
<!-- Node11&#45;&gt;Node15 -->
<g id="edge18" class="edge"><title>Node11&#45;&gt;Node15</title>
<path fill="none" stroke="midnightblue" d="M795.089,-135.654C849.796,-125.672 927.253,-111.328 995,-98 997.923,-97.4251 1000.91,-96.8305 1003.93,-96.225"/>
<polygon fill="midnightblue" stroke="midnightblue" points="794.357,-132.23 785.147,-137.466 795.612,-139.117 794.357,-132.23"/>
</g>
<!-- Node16 -->
<g id="node16" class="node"><title>Node16</title>
<g id="a_node16"><a xlink:href="../../df/de7/vdp__sdc_8cpp.html" target="_top" xlink:title="examples/vanderpol\l/vdp_sdc.cpp">
<polygon fill="white" stroke="black" points="1144.5,-67.5 1144.5,-97.5 1253.5,-97.5 1253.5,-67.5 1144.5,-67.5"/>
<text text-anchor="start" x="1152.5" y="-85.5" font-family="Helvetica,sans-Serif" font-size="10.00">examples/vanderpol</text>
<text text-anchor="middle" x="1199" y="-74.5" font-family="Helvetica,sans-Serif" font-size="10.00">/vdp_sdc.cpp</text>
</a>
</g>
</g>
<!-- Node11&#45;&gt;Node16 -->
<g id="edge19" class="edge"><title>Node11&#45;&gt;Node16</title>
<path fill="none" stroke="midnightblue" d="M795.197,-141.946C877.405,-133.871 1016.53,-118.645 1135,-98 1138.03,-97.4719 1141.13,-96.8939 1144.26,-96.2825"/>
<polygon fill="midnightblue" stroke="midnightblue" points="794.827,-138.465 785.213,-142.919 795.506,-145.432 794.827,-138.465"/>
</g>
<!-- Node12&#45;&gt;Node11 -->
<g id="edge14" class="edge"><title>Node12&#45;&gt;Node11</title>
<path fill="none" stroke="midnightblue" d="M684.185,-104.371C695.152,-114.183 706.896,-125.623 714.923,-134.396"/>
<polygon fill="midnightblue" stroke="midnightblue" points="686.236,-101.516 676.401,-97.5765 681.633,-106.789 686.236,-101.516"/>
</g>
</g>
</svg>
        <g id="navigator" transform="translate(0 0)" fill="#404254">
                <rect fill="#f2f5e9" fill-opacity="0.5" stroke="#606060" stroke-width=".5" x="0" y="0" width="60" height="60"/>
                <use id="zoomplus" xlink:href="#zoomPlus" x="17" y="9" onmousedown="handleZoom(evt,'in')"/>
                <use id="zoomminus" xlink:href="#zoomMin" x="42" y="9" onmousedown="handleZoom(evt,'out')"/>
                <use id="reset" xlink:href="#resetDef" x="30" y="36" onmousedown="handleReset()"/>
                <g id="arrowUp" xlink:href="#dirArrow" transform="translate(30 24)" onmousedown="handlePan(0,-1)">
                  <use xlink:href="#rim" fill="#404040">
                        <set attributeName="fill" to="#808080" begin="arrowUp.mouseover" end="arrowUp.mouseout"/>
                  </use>
                  <path fill="none" stroke="white" stroke-width="1.5" d="M0,-3.0v7 M-2.5,-0.5L0,-3.0L2.5,-0.5"/>
                </g>
                <g id="arrowRight" xlink:href="#dirArrow" transform="rotate(90) translate(36 -43)" onmousedown="handlePan(1,0)">
                  <use xlink:href="#rim" fill="#404040">
                        <set attributeName="fill" to="#808080" begin="arrowRight.mouseover" end="arrowRight.mouseout"/>
                  </use>
                  <path fill="none" stroke="white" stroke-width="1.5" d="M0,-3.0v7 M-2.5,-0.5L0,-3.0L2.5,-0.5"/>
                </g>
                <g id="arrowDown" xlink:href="#dirArrow" transform="rotate(180) translate(-30 -48)" onmousedown="handlePan(0,1)">
                  <use xlink:href="#rim" fill="#404040">
                        <set attributeName="fill" to="#808080" begin="arrowDown.mouseover" end="arrowDown.mouseout"/>
                  </use>
                  <path fill="none" stroke="white" stroke-width="1.5" d="M0,-3.0v7 M-2.5,-0.5L0,-3.0L2.5,-0.5"/>
                </g>
                <g id="arrowLeft" xlink:href="#dirArrow" transform="rotate(270) translate(-36 17)" onmousedown="handlePan(-1,0)">
                  <use xlink:href="#rim" fill="#404040">
                        <set attributeName="fill" to="#808080" begin="arrowLeft.mouseover" end="arrowLeft.mouseout"/>
                  </use>
                  <path fill="none" stroke="white" stroke-width="1.5" d="M0,-3.0v7 M-2.5,-0.5L0,-3.0L2.5,-0.5"/>
                </g>
        </g>
        <svg viewBox="0 0 15 15" width="100%" height="30px" preserveAspectRatio="xMaxYMin meet">
         <g id="arrow_out" transform="scale(0.3 0.3)">
          <a xlink:href="controller_2interface__impl_8hpp__dep__incl_org.svg" target="_base">
           <rect id="button" ry="5" rx="5" y="6" x="6" height="38" width="38"
                fill="#f2f5e9" fill-opacity="0.5" stroke="#606060" stroke-width="1.0"/>
           <path id="arrow"
             d="M 11.500037,31.436501 C 11.940474,20.09759 22.043105,11.32322 32.158766,21.979434 L 37.068811,17.246167 C 37.068811,17.246167 37.088388,32 37.088388,32 L 22.160133,31.978069 C 22.160133,31.978069 26.997745,27.140456 26.997745,27.140456 C 18.528582,18.264221 13.291696,25.230495 11.500037,31.436501 z"
             style="fill:#404040;"/>
          </a>
         </g>
        </svg>
</svg>
