<?xml version="1.0" encoding="UTF-8" standalone="no"?>
<!DOCTYPE svg PUBLIC "-//W3C//DTD SVG 1.1//EN"
 "http://www.w3.org/Graphics/SVG/1.1/DTD/svg11.dtd">
<!-- Generated by graphviz version 2.38.0 (20140413.2041)
 -->
<!-- Title: src/pfasst/encap/implicit_sweeper_impl.hpp Pages: 1 -->
<svg width="131pt" height="240pt"
 viewBox="0.00 0.00 131.00 240.00" xmlns="http://www.w3.org/2000/svg" xmlns:xlink="http://www.w3.org/1999/xlink">
<g id="graph0" class="graph" transform="scale(1 1) rotate(0) translate(4 236)">
<title>src/pfasst/encap/implicit_sweeper_impl.hpp</title>
<polygon fill="white" stroke="none" points="-4,4 -4,-236 127,-236 127,4 -4,4"/>
<!-- Node1 -->
<g id="node1" class="node"><title>Node1</title>
<polygon fill="#bfbfbf" stroke="black" points="0,-201.5 0,-231.5 123,-231.5 123,-201.5 0,-201.5"/>
<text text-anchor="start" x="8" y="-219.5" font-family="Helvetica,sans-Serif" font-size="10.00">src/pfasst/encap/implicit</text>
<text text-anchor="middle" x="61.5" y="-208.5" font-family="Helvetica,sans-Serif" font-size="10.00">_sweeper_impl.hpp</text>
</g>
<!-- Node2 -->
<g id="node2" class="node"><title>Node2</title>
<g id="a_node2"><a xlink:href="../../d7/daf/implicit__sweeper_8hpp.html" target="_top" xlink:title="include/pfasst/encap\l/implicit_sweeper.hpp">
<polygon fill="white" stroke="black" points="5.5,-134.5 5.5,-164.5 117.5,-164.5 117.5,-134.5 5.5,-134.5"/>
<text text-anchor="start" x="13.5" y="-152.5" font-family="Helvetica,sans-Serif" font-size="10.00">include/pfasst/encap</text>
<text text-anchor="middle" x="61.5" y="-141.5" font-family="Helvetica,sans-Serif" font-size="10.00">/implicit_sweeper.hpp</text>
</a>
</g>
</g>
<!-- Node1&#45;&gt;Node2 -->
<g id="edge1" class="edge"><title>Node1&#45;&gt;Node2</title>
<path fill="none" stroke="midnightblue" d="M54.9547,-191.403C54.5055,-182.37 54.7957,-172.408 55.8252,-164.577"/>
<polygon fill="midnightblue" stroke="midnightblue" points="51.4703,-191.736 55.8216,-201.396 58.4441,-191.131 51.4703,-191.736"/>
</g>
<!-- Node2&#45;&gt;Node1 -->
<g id="edge2" class="edge"><title>Node2&#45;&gt;Node1</title>
<path fill="none" stroke="midnightblue" d="M68.0438,-174.565C68.4947,-183.596 68.2062,-193.56 67.1784,-201.396"/>
<polygon fill="midnightblue" stroke="midnightblue" points="71.5284,-174.236 67.1748,-164.577 64.5547,-174.842 71.5284,-174.236"/>
</g>
<!-- Node3 -->
<g id="node3" class="node"><title>Node3</title>
<g id="a_node3"><a xlink:href="../../d6/d93/vdp__sweeper_8hpp.html" target="_top" xlink:title="examples/vanderpol\l/vdp_sweeper.hpp">
<polygon fill="white" stroke="black" points="7,-67.5 7,-97.5 116,-97.5 116,-67.5 7,-67.5"/>
<text text-anchor="start" x="15" y="-85.5" font-family="Helvetica,sans-Serif" font-size="10.00">examples/vanderpol</text>
<text text-anchor="middle" x="61.5" y="-74.5" font-family="Helvetica,sans-Serif" font-size="10.00">/vdp_sweeper.hpp</text>
</a>
</g>
</g>
<!-- Node2&#45;&gt;Node3 -->
<g id="edge3" class="edge"><title>Node2&#45;&gt;Node3</title>
<path fill="none" stroke="midnightblue" d="M61.5,-124.108C61.5,-115.154 61.5,-105.323 61.5,-97.5765"/>
<polygon fill="midnightblue" stroke="midnightblue" points="58.0001,-124.396 61.5,-134.396 65.0001,-124.396 58.0001,-124.396"/>
</g>
<!-- Node4 -->
<g id="node4" class="node"><title>Node4</title>
<g id="a_node4"><a xlink:href="../../df/de7/vdp__sdc_8cpp.html" target="_top" xlink:title="examples/vanderpol\l/vdp_sdc.cpp">
<polygon fill="white" stroke="black" points="7,-0.5 7,-30.5 116,-30.5 116,-0.5 7,-0.5"/>
<text text-anchor="start" x="15" y="-18.5" font-family="Helvetica,sans-Serif" font-size="10.00">examples/vanderpol</text>
<text text-anchor="middle" x="61.5" y="-7.5" font-family="Helvetica,sans-Serif" font-size="10.00">/vdp_sdc.cpp</text>
</a>
</g>
</g>
<!-- Node3&#45;&gt;Node4 -->
<g id="edge4" class="edge"><title>Node3&#45;&gt;Node4</title>
<path fill="none" stroke="midnightblue" d="M61.5,-57.1081C61.5,-48.1539 61.5,-38.3227 61.5,-30.5765"/>
<polygon fill="midnightblue" stroke="midnightblue" points="58.0001,-57.3959 61.5,-67.396 65.0001,-57.396 58.0001,-57.3959"/>
</g>
</g>
</svg>
