<?xml version="1.0" encoding="UTF-8" standalone="no"?>
<!DOCTYPE svg PUBLIC "-//W3C//DTD SVG 1.1//EN"
 "http://www.w3.org/Graphics/SVG/1.1/DTD/svg11.dtd">
<!-- Generated by graphviz version 2.38.0 (20140413.2041)
 -->
<!-- Title: pfasst::mpi::MPICommunicator Pages: 1 -->
<svg width="220pt" height="475pt"
 viewBox="0.00 0.00 219.50 475.00" xmlns="http://www.w3.org/2000/svg" xmlns:xlink="http://www.w3.org/1999/xlink">
<g id="graph0" class="graph" transform="scale(1 1) rotate(0) translate(4 471)">
<title>pfasst::mpi::MPICommunicator</title>
<polygon fill="white" stroke="none" points="-4,4 -4,-471 215.5,-471 215.5,4 -4,4"/>
<!-- Node1 -->
<g id="node1" class="node"><title>Node1</title>
<polygon fill="#bfbfbf" stroke="black" points="15.5,-0.5 15.5,-233.5 168.5,-233.5 168.5,-0.5 15.5,-0.5"/>
<text text-anchor="middle" x="92" y="-221.5" font-family="Helvetica,sans-Serif" font-size="10.00">pfasst::mpi::MPICommunicator</text>
<polyline fill="none" stroke="black" points="15.5,-214.5 168.5,-214.5 "/>
<text text-anchor="start" x="23.5" y="-202.5" font-family="Helvetica,sans-Serif" font-size="10.00">+ comm</text>
<text text-anchor="start" x="23.5" y="-191.5" font-family="Helvetica,sans-Serif" font-size="10.00">&#45; _rank</text>
<text text-anchor="start" x="23.5" y="-180.5" font-family="Helvetica,sans-Serif" font-size="10.00">&#45; _size</text>
<polyline fill="none" stroke="black" points="15.5,-173.5 168.5,-173.5 "/>
<text text-anchor="start" x="23.5" y="-161.5" font-family="Helvetica,sans-Serif" font-size="10.00">+ MPICommunicator()</text>
<text text-anchor="start" x="23.5" y="-150.5" font-family="Helvetica,sans-Serif" font-size="10.00">+ MPICommunicator()</text>
<text text-anchor="start" x="23.5" y="-139.5" font-family="Helvetica,sans-Serif" font-size="10.00">+ set_comm()</text>
<text text-anchor="start" x="23.5" y="-128.5" font-family="Helvetica,sans-Serif" font-size="10.00">+ size()</text>
<text text-anchor="start" x="23.5" y="-117.5" font-family="Helvetica,sans-Serif" font-size="10.00">+ rank()</text>
<text text-anchor="start" x="23.5" y="-106.5" font-family="Helvetica,sans-Serif" font-size="10.00">+ name()</text>
<text text-anchor="start" x="23.5" y="-95.5" font-family="Helvetica,sans-Serif" font-size="10.00">* _rank</text>
<text text-anchor="start" x="23.5" y="-84.5" font-family="Helvetica,sans-Serif" font-size="10.00">* _size</text>
<text text-anchor="start" x="23.5" y="-73.5" font-family="Helvetica,sans-Serif" font-size="10.00">* comm</text>
<text text-anchor="start" x="23.5" y="-62.5" font-family="Helvetica,sans-Serif" font-size="10.00">* MPICommunicator()</text>
<text text-anchor="start" x="23.5" y="-51.5" font-family="Helvetica,sans-Serif" font-size="10.00">* MPICommunicator()</text>
<text text-anchor="start" x="23.5" y="-40.5" font-family="Helvetica,sans-Serif" font-size="10.00">* set_comm()</text>
<text text-anchor="start" x="23.5" y="-29.5" font-family="Helvetica,sans-Serif" font-size="10.00">* size()</text>
<text text-anchor="start" x="23.5" y="-18.5" font-family="Helvetica,sans-Serif" font-size="10.00">* rank()</text>
<text text-anchor="start" x="23.5" y="-7.5" font-family="Helvetica,sans-Serif" font-size="10.00">* name()</text>
</g>
<!-- Node2 -->
<g id="node2" class="node"><title>Node2</title>
<g id="a_node2"><a xlink:href="../../d5/d14/classpfasst_1_1ICommunicator.html" target="_top" xlink:title="Abstract interface for communicators. ">
<polygon fill="white" stroke="black" points="0,-281.5 0,-360.5 116,-360.5 116,-281.5 0,-281.5"/>
<text text-anchor="middle" x="58" y="-348.5" font-family="Helvetica,sans-Serif" font-size="10.00">pfasst::ICommunicator</text>
<polyline fill="none" stroke="black" points="0,-341.5 116,-341.5 "/>
<text text-anchor="start" x="8" y="-329.5" font-family="Helvetica,sans-Serif" font-size="10.00">+ status</text>
<polyline fill="none" stroke="black" points="0,-322.5 116,-322.5 "/>
<text text-anchor="start" x="8" y="-310.5" font-family="Helvetica,sans-Serif" font-size="10.00">+ ~ICommunicator()</text>
<text text-anchor="start" x="8" y="-299.5" font-family="Helvetica,sans-Serif" font-size="10.00">+ size()</text>
<text text-anchor="start" x="8" y="-288.5" font-family="Helvetica,sans-Serif" font-size="10.00">+ rank()</text>
</a>
</g>
</g>
<!-- Node2&#45;&gt;Node1 -->
<g id="edge1" class="edge"><title>Node2&#45;&gt;Node1</title>
<path fill="none" stroke="midnightblue" d="M66.2637,-270.904C68.1914,-259.451 70.3249,-246.776 72.5146,-233.766"/>
<polygon fill="none" stroke="midnightblue" points="62.764,-270.61 64.5555,-281.052 69.6669,-271.772 62.764,-270.61"/>
</g>
<!-- Node3 -->
<g id="node3" class="node"><title>Node3</title>
<g id="a_node3"><a xlink:title="STL class. ">
<polygon fill="white" stroke="#bfbfbf" points="134,-292.5 134,-349.5 194,-349.5 194,-292.5 134,-292.5"/>
<text text-anchor="middle" x="164" y="-337.5" font-family="Helvetica,sans-Serif" font-size="10.00">std::string</text>
<polyline fill="none" stroke="#bfbfbf" points="134,-330.5 194,-330.5 "/>
<text text-anchor="middle" x="164" y="-318.5" font-family="Helvetica,sans-Serif" font-size="10.00"> </text>
<polyline fill="none" stroke="#bfbfbf" points="134,-311.5 194,-311.5 "/>
<text text-anchor="middle" x="164" y="-299.5" font-family="Helvetica,sans-Serif" font-size="10.00"> </text>
</a>
</g>
</g>
<!-- Node3&#45;&gt;Node1 -->
<g id="edge2" class="edge"><title>Node3&#45;&gt;Node1</title>
<path fill="none" stroke="#404040" d="M154.14,-292.336C149.505,-279.334 143.616,-262.813 137.319,-245.146"/>
<polygon fill="none" stroke="#404040" points="137.272,-245.012 131.489,-240.704 133.243,-233.709 139.025,-238.018 137.272,-245.012"/>
<text text-anchor="middle" x="160.5" y="-255" font-family="Helvetica,sans-Serif" font-size="10.00"> &#45;_name</text>
</g>
<!-- Node4 -->
<g id="node4" class="node"><title>Node4</title>
<g id="a_node4"><a xlink:title="STL class. ">
<polygon fill="white" stroke="#bfbfbf" points="116.5,-398.5 116.5,-466.5 211.5,-466.5 211.5,-398.5 116.5,-398.5"/>
<text text-anchor="start" x="124.5" y="-454.5" font-family="Helvetica,sans-Serif" font-size="10.00">std::basic_string&lt;</text>
<text text-anchor="middle" x="164" y="-443.5" font-family="Helvetica,sans-Serif" font-size="10.00"> char &gt;</text>
<polyline fill="none" stroke="#bfbfbf" points="116.5,-436.5 211.5,-436.5 "/>
<text text-anchor="middle" x="164" y="-424.5" font-family="Helvetica,sans-Serif" font-size="10.00"> </text>
<polyline fill="none" stroke="#bfbfbf" points="116.5,-417.5 211.5,-417.5 "/>
<text text-anchor="middle" x="164" y="-405.5" font-family="Helvetica,sans-Serif" font-size="10.00"> </text>
</a>
</g>
</g>
<!-- Node4&#45;&gt;Node3 -->
<g id="edge3" class="edge"><title>Node4&#45;&gt;Node3</title>
<path fill="none" stroke="midnightblue" d="M164,-388.158C164,-375.135 164,-361.21 164,-349.512"/>
<polygon fill="none" stroke="midnightblue" points="160.5,-388.349 164,-398.349 167.5,-388.349 160.5,-388.349"/>
</g>
</g>
</svg>
