<?xml version="1.0" encoding="UTF-8" standalone="no"?>
<!DOCTYPE svg PUBLIC "-//W3C//DTD SVG 1.1//EN"
 "http://www.w3.org/Graphics/SVG/1.1/DTD/svg11.dtd">
<!-- Generated by graphviz version 2.38.0 (20140413.2041)
 -->
<!-- Title: pfasst::quadrature::GaussRadau::GaussRadau Pages: 1 -->
<svg width="663pt" height="186pt"
 viewBox="0.00 0.00 663.00 186.00" xmlns="http://www.w3.org/2000/svg" xmlns:xlink="http://www.w3.org/1999/xlink">
<g id="graph0" class="graph" transform="scale(1 1) rotate(0) translate(4 182)">
<title>pfasst::quadrature::GaussRadau::GaussRadau</title>
<polygon fill="white" stroke="none" points="-4,4 -4,-182 659,-182 659,4 -4,4"/>
<!-- Node1 -->
<g id="node1" class="node"><title>Node1</title>
<polygon fill="#bfbfbf" stroke="black" points="0,-98.5 0,-128.5 149,-128.5 149,-98.5 0,-98.5"/>
<text text-anchor="start" x="8" y="-116.5" font-family="Helvetica,sans-Serif" font-size="10.00">pfasst::quadrature</text>
<text text-anchor="middle" x="74.5" y="-105.5" font-family="Helvetica,sans-Serif" font-size="10.00">::GaussRadau::GaussRadau</text>
</g>
<!-- Node2 -->
<g id="node2" class="node"><title>Node2</title>
<g id="a_node2"><a xlink:href="../../d1/da0/classpfasst_1_1quadrature_1_1GaussRadau.html#ae7702d1a873e0bddf51641d12ba62ec3" target="_top" xlink:title="pfasst::quadrature\l::GaussRadau::compute_nodes">
<polygon fill="white" stroke="black" points="185,-136.5 185,-166.5 346,-166.5 346,-136.5 185,-136.5"/>
<text text-anchor="start" x="193" y="-154.5" font-family="Helvetica,sans-Serif" font-size="10.00">pfasst::quadrature</text>
<text text-anchor="middle" x="265.5" y="-143.5" font-family="Helvetica,sans-Serif" font-size="10.00">::GaussRadau::compute_nodes</text>
</a>
</g>
</g>
<!-- Node1&#45;&gt;Node2 -->
<g id="edge1" class="edge"><title>Node1&#45;&gt;Node2</title>
<path fill="none" stroke="midnightblue" d="M149.114,-128.301C159.246,-130.338 169.716,-132.443 180.024,-134.515"/>
<polygon fill="midnightblue" stroke="midnightblue" points="179.349,-137.95 189.842,-136.489 180.729,-131.087 179.349,-137.95"/>
</g>
<!-- Node4 -->
<g id="node4" class="node"><title>Node4</title>
<g id="a_node4"><a xlink:href="../../de/d20/classpfasst_1_1quadrature_1_1IQuadrature.html#aa282053968e191e35b57d6a8820ca1f7" target="_top" xlink:title="pfasst::quadrature\l::IQuadrature::compute\l_weights">
<polygon fill="white" stroke="black" points="206,-55 206,-96 325,-96 325,-55 206,-55"/>
<text text-anchor="start" x="214" y="-84" font-family="Helvetica,sans-Serif" font-size="10.00">pfasst::quadrature</text>
<text text-anchor="start" x="214" y="-73" font-family="Helvetica,sans-Serif" font-size="10.00">::IQuadrature::compute</text>
<text text-anchor="middle" x="265.5" y="-62" font-family="Helvetica,sans-Serif" font-size="10.00">_weights</text>
</a>
</g>
</g>
<!-- Node1&#45;&gt;Node4 -->
<g id="edge3" class="edge"><title>Node1&#45;&gt;Node4</title>
<path fill="none" stroke="midnightblue" d="M149.114,-98.6994C164.588,-95.5881 180.849,-92.3187 196.122,-89.248"/>
<polygon fill="midnightblue" stroke="midnightblue" points="196.884,-92.6649 205.998,-87.2624 195.504,-85.8023 196.884,-92.6649"/>
</g>
<!-- Node3 -->
<g id="node3" class="node"><title>Node3</title>
<g id="a_node3"><a xlink:href="../../d6/dd0/classpfasst_1_1quadrature_1_1Polynomial.html#a9658a586f822aaafe057120cd258ad73" target="_top" xlink:title="Computes the Legendre polynomial of given order. ">
<polygon fill="white" stroke="black" points="382,-147.5 382,-177.5 501,-177.5 501,-147.5 382,-147.5"/>
<text text-anchor="start" x="390" y="-165.5" font-family="Helvetica,sans-Serif" font-size="10.00">pfasst::quadrature</text>
<text text-anchor="middle" x="441.5" y="-154.5" font-family="Helvetica,sans-Serif" font-size="10.00">::Polynomial::legendre</text>
</a>
</g>
</g>
<!-- Node2&#45;&gt;Node3 -->
<g id="edge2" class="edge"><title>Node2&#45;&gt;Node3</title>
<path fill="none" stroke="midnightblue" d="M346.116,-156.533C354.705,-157.076 363.39,-157.625 371.834,-158.159"/>
<polygon fill="midnightblue" stroke="midnightblue" points="371.79,-161.663 381.991,-158.801 372.232,-154.677 371.79,-161.663"/>
</g>
<!-- Node5 -->
<g id="node5" class="node"><title>Node5</title>
<g id="a_node5"><a xlink:href="../../de/d84/namespacepfasst_1_1quadrature.html#a1a124b78f225d13b253ff8e2fb799aa5" target="_top" xlink:title="Compute quadrature matrix \( Q \) between two sets of nodes. ">
<polygon fill="white" stroke="black" points="389.5,-98.5 389.5,-128.5 493.5,-128.5 493.5,-98.5 389.5,-98.5"/>
<text text-anchor="start" x="397.5" y="-116.5" font-family="Helvetica,sans-Serif" font-size="10.00">pfasst::quadrature</text>
<text text-anchor="middle" x="441.5" y="-105.5" font-family="Helvetica,sans-Serif" font-size="10.00">::compute_q_matrix</text>
</a>
</g>
</g>
<!-- Node4&#45;&gt;Node5 -->
<g id="edge4" class="edge"><title>Node4&#45;&gt;Node5</title>
<path fill="none" stroke="midnightblue" d="M325.408,-88.3651C342.716,-92.1448 361.685,-96.2875 379.141,-100.1"/>
<polygon fill="midnightblue" stroke="midnightblue" points="378.704,-103.587 389.221,-102.301 380.198,-96.748 378.704,-103.587"/>
</g>
<!-- Node9 -->
<g id="node9" class="node"><title>Node9</title>
<g id="a_node9"><a xlink:href="../../de/d84/namespacepfasst_1_1quadrature.html#a106e6af4f4fa7f33ae6c68ea391dc6e0" target="_top" xlink:title="Compute node&#45;to&#45;node quadrature matrix \( S \) from a given quadrature matrix \( Q \)...">
<polygon fill="white" stroke="black" points="389.5,-0.5 389.5,-30.5 493.5,-30.5 493.5,-0.5 389.5,-0.5"/>
<text text-anchor="start" x="397.5" y="-18.5" font-family="Helvetica,sans-Serif" font-size="10.00">pfasst::quadrature</text>
<text text-anchor="middle" x="441.5" y="-7.5" font-family="Helvetica,sans-Serif" font-size="10.00">::compute_s_matrix</text>
</a>
</g>
</g>
<!-- Node4&#45;&gt;Node9 -->
<g id="edge8" class="edge"><title>Node4&#45;&gt;Node9</title>
<path fill="none" stroke="midnightblue" d="M325.408,-55.1867C345.397,-48.294 367.603,-40.637 387.135,-33.9018"/>
<polygon fill="midnightblue" stroke="midnightblue" points="388.469,-37.144 396.782,-30.5752 386.187,-30.5263 388.469,-37.144"/>
</g>
<!-- Node10 -->
<g id="node10" class="node"><title>Node10</title>
<g id="a_node10"><a xlink:href="../../de/d84/namespacepfasst_1_1quadrature.html#a77ad709add97d78ea02404286fe15f02" target="_top" xlink:title="Compute vector \( q \) for integration from \( 0 \) to \( 1 \) for given set of nodes. ">
<polygon fill="white" stroke="black" points="392.5,-49.5 392.5,-79.5 490.5,-79.5 490.5,-49.5 392.5,-49.5"/>
<text text-anchor="start" x="400.5" y="-67.5" font-family="Helvetica,sans-Serif" font-size="10.00">pfasst::quadrature</text>
<text text-anchor="middle" x="441.5" y="-56.5" font-family="Helvetica,sans-Serif" font-size="10.00">::compute_q_vec</text>
</a>
</g>
</g>
<!-- Node4&#45;&gt;Node10 -->
<g id="edge9" class="edge"><title>Node4&#45;&gt;Node10</title>
<path fill="none" stroke="midnightblue" d="M325.408,-71.7759C343.708,-70.6191 363.864,-69.3448 382.127,-68.1903"/>
<polygon fill="midnightblue" stroke="midnightblue" points="382.583,-71.6685 392.342,-67.5445 382.141,-64.6825 382.583,-71.6685"/>
</g>
<!-- Node6 -->
<g id="node6" class="node"><title>Node6</title>
<g id="a_node6"><a xlink:href="../../de/d84/namespacepfasst_1_1quadrature.html#a37425ec75a53d150c06f1b47dc8bc047" target="_top" xlink:title="pfasst::quadrature\l::build_polynomial">
<polygon fill="white" stroke="black" points="547,-122.5 547,-152.5 645,-152.5 645,-122.5 547,-122.5"/>
<text text-anchor="start" x="555" y="-140.5" font-family="Helvetica,sans-Serif" font-size="10.00">pfasst::quadrature</text>
<text text-anchor="middle" x="596" y="-129.5" font-family="Helvetica,sans-Serif" font-size="10.00">::build_polynomial</text>
</a>
</g>
</g>
<!-- Node5&#45;&gt;Node6 -->
<g id="edge5" class="edge"><title>Node5&#45;&gt;Node6</title>
<path fill="none" stroke="midnightblue" d="M493.705,-121.558C507.491,-123.728 522.506,-126.091 536.651,-128.317"/>
<polygon fill="midnightblue" stroke="midnightblue" points="536.343,-131.812 546.766,-129.909 537.432,-124.897 536.343,-131.812"/>
</g>
<!-- Node7 -->
<g id="node7" class="node"><title>Node7</title>
<g id="a_node7"><a xlink:href="../../d6/dd0/classpfasst_1_1quadrature_1_1Polynomial.html#ab6ca606fac17e7b963a60ee34271090e" target="_top" xlink:title="Evaluate polynomial for given value. ">
<polygon fill="white" stroke="black" points="537,-73.5 537,-103.5 655,-103.5 655,-73.5 537,-73.5"/>
<text text-anchor="start" x="545" y="-91.5" font-family="Helvetica,sans-Serif" font-size="10.00">pfasst::quadrature</text>
<text text-anchor="middle" x="596" y="-80.5" font-family="Helvetica,sans-Serif" font-size="10.00">::Polynomial::evaluate</text>
</a>
</g>
</g>
<!-- Node5&#45;&gt;Node7 -->
<g id="edge6" class="edge"><title>Node5&#45;&gt;Node7</title>
<path fill="none" stroke="midnightblue" d="M493.705,-105.106C504.304,-103.368 515.631,-101.511 526.729,-99.692"/>
<polygon fill="midnightblue" stroke="midnightblue" points="527.528,-103.108 536.83,-98.0361 526.395,-96.2001 527.528,-103.108"/>
</g>
<!-- Node8 -->
<g id="node8" class="node"><title>Node8</title>
<g id="a_node8"><a xlink:href="../../d6/dd0/classpfasst_1_1quadrature_1_1Polynomial.html#a52bf17679c1a86638be7e7564bb6c78d" target="_top" xlink:title="Integrates this polynomial. ">
<polygon fill="white" stroke="black" points="537,-24.5 537,-54.5 655,-54.5 655,-24.5 537,-24.5"/>
<text text-anchor="start" x="545" y="-42.5" font-family="Helvetica,sans-Serif" font-size="10.00">pfasst::quadrature</text>
<text text-anchor="middle" x="596" y="-31.5" font-family="Helvetica,sans-Serif" font-size="10.00">::Polynomial::integrate</text>
</a>
</g>
</g>
<!-- Node5&#45;&gt;Node8 -->
<g id="edge7" class="edge"><title>Node5&#45;&gt;Node8</title>
<path fill="none" stroke="midnightblue" d="M482.691,-98.3714C488.926,-95.6374 495.214,-92.6471 501,-89.5 518.112,-80.1926 519.971,-73.9581 537,-64.5 540.46,-62.5784 544.097,-60.7017 547.793,-58.8954"/>
<polygon fill="midnightblue" stroke="midnightblue" points="549.463,-61.9781 557.032,-54.5651 546.492,-55.6397 549.463,-61.9781"/>
</g>
<!-- Node10&#45;&gt;Node6 -->
<g id="edge10" class="edge"><title>Node10&#45;&gt;Node6</title>
<path fill="none" stroke="midnightblue" d="M480.434,-79.5011C487.383,-82.5882 494.491,-85.9787 501,-89.5 517.913,-98.6504 520.035,-104.447 537,-113.5 540.024,-115.114 543.18,-116.693 546.391,-118.222"/>
<polygon fill="midnightblue" stroke="midnightblue" points="544.968,-121.42 555.518,-122.386 547.873,-115.051 544.968,-121.42"/>
</g>
<!-- Node10&#45;&gt;Node7 -->
<g id="edge11" class="edge"><title>Node10&#45;&gt;Node7</title>
<path fill="none" stroke="midnightblue" d="M490.752,-72.0938C502.205,-73.8962 514.637,-75.8527 526.793,-77.7657"/>
<polygon fill="midnightblue" stroke="midnightblue" points="526.489,-81.2609 536.911,-79.3582 527.577,-74.346 526.489,-81.2609"/>
</g>
<!-- Node10&#45;&gt;Node8 -->
<g id="edge12" class="edge"><title>Node10&#45;&gt;Node8</title>
<path fill="none" stroke="midnightblue" d="M490.752,-56.5898C502.205,-54.7123 514.637,-52.6743 526.793,-50.6815"/>
<polygon fill="midnightblue" stroke="midnightblue" points="527.609,-54.0945 536.911,-49.0227 526.477,-47.1867 527.609,-54.0945"/>
</g>
</g>
</svg>
