<?xml version="1.0" encoding="UTF-8" standalone="no"?>
<!DOCTYPE svg PUBLIC "-//W3C//DTD SVG 1.1//EN"
 "http://www.w3.org/Graphics/SVG/1.1/DTD/svg11.dtd">
<!-- Generated by graphviz version 2.38.0 (20140413.2041)
 -->
<!-- Title: pfasst::encap::EncapSweeper::get_nodes Pages: 1 -->
<svg width="341pt" height="88pt"
 viewBox="0.00 0.00 341.00 88.00" xmlns="http://www.w3.org/2000/svg" xmlns:xlink="http://www.w3.org/1999/xlink">
<g id="graph0" class="graph" transform="scale(1 1) rotate(0) translate(4 84)">
<title>pfasst::encap::EncapSweeper::get_nodes</title>
<polygon fill="white" stroke="none" points="-4,4 -4,-84 337,-84 337,4 -4,4"/>
<!-- Node1 -->
<g id="node1" class="node"><title>Node1</title>
<polygon fill="#bfbfbf" stroke="black" points="0,-24.5 0,-54.5 151,-54.5 151,-24.5 0,-24.5"/>
<text text-anchor="start" x="8" y="-42.5" font-family="Helvetica,sans-Serif" font-size="10.00">pfasst::encap::EncapSweeper</text>
<text text-anchor="middle" x="75.5" y="-31.5" font-family="Helvetica,sans-Serif" font-size="10.00">::get_nodes</text>
</g>
<!-- Node2 -->
<g id="node2" class="node"><title>Node2</title>
<g id="a_node2"><a xlink:href="../../da/db1/classpfasst_1_1encap_1_1IMEXSweeper.html#a2974442fc3ad3508dff5c8e65ed95534" target="_top" xlink:title="pfasst::encap::IMEXSweeper\l::sweep_with_left">
<polygon fill="white" stroke="black" points="187,-49.5 187,-79.5 333,-79.5 333,-49.5 187,-49.5"/>
<text text-anchor="start" x="195" y="-67.5" font-family="Helvetica,sans-Serif" font-size="10.00">pfasst::encap::IMEXSweeper</text>
<text text-anchor="middle" x="260" y="-56.5" font-family="Helvetica,sans-Serif" font-size="10.00">::sweep_with_left</text>
</a>
</g>
</g>
<!-- Node1&#45;&gt;Node2 -->
<g id="edge1" class="edge"><title>Node1&#45;&gt;Node2</title>
<path fill="none" stroke="midnightblue" d="M161.211,-51.1043C169.736,-52.2721 178.338,-53.4504 186.717,-54.5982"/>
<polygon fill="midnightblue" stroke="midnightblue" points="161.639,-47.6302 151.256,-49.7406 160.689,-54.5655 161.639,-47.6302"/>
</g>
<!-- Node3 -->
<g id="node3" class="node"><title>Node3</title>
<g id="a_node3"><a xlink:href="../../da/db1/classpfasst_1_1encap_1_1IMEXSweeper.html#ae159b48db88b0481fe1613abf74acc02" target="_top" xlink:title="pfasst::encap::IMEXSweeper\l::sweep_without_left">
<polygon fill="white" stroke="black" points="187,-0.5 187,-30.5 333,-30.5 333,-0.5 187,-0.5"/>
<text text-anchor="start" x="195" y="-18.5" font-family="Helvetica,sans-Serif" font-size="10.00">pfasst::encap::IMEXSweeper</text>
<text text-anchor="middle" x="260" y="-7.5" font-family="Helvetica,sans-Serif" font-size="10.00">::sweep_without_left</text>
</a>
</g>
</g>
<!-- Node1&#45;&gt;Node3 -->
<g id="edge2" class="edge"><title>Node1&#45;&gt;Node3</title>
<path fill="none" stroke="midnightblue" d="M161.211,-28.3599C169.736,-27.2388 178.338,-26.1076 186.717,-25.0058"/>
<polygon fill="midnightblue" stroke="midnightblue" points="160.715,-24.895 151.256,-29.669 161.627,-31.8352 160.715,-24.895"/>
</g>
</g>
</svg>
