<?xml version="1.0" encoding="UTF-8" standalone="no"?>
<!DOCTYPE svg PUBLIC "-//W3C//DTD SVG 1.1//EN"
 "http://www.w3.org/Graphics/SVG/1.1/DTD/svg11.dtd">
<!-- Generated by graphviz version 2.38.0 (20140413.2041)
 -->
<!-- Title: pfasst::encap::EncapSweeper::setup Pages: 1 -->
<svg width="348pt" height="137pt"
 viewBox="0.00 0.00 348.00 137.00" xmlns="http://www.w3.org/2000/svg" xmlns:xlink="http://www.w3.org/1999/xlink">
<g id="graph0" class="graph" transform="scale(1 1) rotate(0) translate(4 133)">
<title>pfasst::encap::EncapSweeper::setup</title>
<polygon fill="white" stroke="none" points="-4,4 -4,-133 344,-133 344,4 -4,4"/>
<!-- Node1 -->
<g id="node1" class="node"><title>Node1</title>
<polygon fill="#bfbfbf" stroke="black" points="0,-49.5 0,-79.5 151,-79.5 151,-49.5 0,-49.5"/>
<text text-anchor="start" x="8" y="-67.5" font-family="Helvetica,sans-Serif" font-size="10.00">pfasst::encap::EncapSweeper</text>
<text text-anchor="middle" x="75.5" y="-56.5" font-family="Helvetica,sans-Serif" font-size="10.00">::setup</text>
</g>
<!-- Node2 -->
<g id="node2" class="node"><title>Node2</title>
<g id="a_node2"><a xlink:href="../../d7/def/classpfasst_1_1encap_1_1ImplicitSweeper.html#a18129ed97a36c46128f7562783153301" target="_top" xlink:title="Setup (allocate etc) the sweeper. ">
<polygon fill="white" stroke="black" points="187,-98.5 187,-128.5 340,-128.5 340,-98.5 187,-98.5"/>
<text text-anchor="start" x="195" y="-116.5" font-family="Helvetica,sans-Serif" font-size="10.00">pfasst::encap::ImplicitSweeper</text>
<text text-anchor="middle" x="263.5" y="-105.5" font-family="Helvetica,sans-Serif" font-size="10.00">::setup</text>
</a>
</g>
</g>
<!-- Node1&#45;&gt;Node2 -->
<g id="edge1" class="edge"><title>Node1&#45;&gt;Node2</title>
<path fill="none" stroke="midnightblue" d="M143.395,-82.1229C163.744,-87.4837 185.908,-93.3225 205.538,-98.4938"/>
<polygon fill="midnightblue" stroke="midnightblue" points="144.132,-78.6977 133.57,-79.5346 142.349,-85.4667 144.132,-78.6977"/>
</g>
<!-- Node3 -->
<g id="node3" class="node"><title>Node3</title>
<g id="a_node3"><a xlink:href="../../da/db1/classpfasst_1_1encap_1_1IMEXSweeper.html#a2e5df328aff8256febabdb810e38320f" target="_top" xlink:title="Setup (allocate etc) the sweeper. ">
<polygon fill="white" stroke="black" points="190.5,-49.5 190.5,-79.5 336.5,-79.5 336.5,-49.5 190.5,-49.5"/>
<text text-anchor="start" x="198.5" y="-67.5" font-family="Helvetica,sans-Serif" font-size="10.00">pfasst::encap::IMEXSweeper</text>
<text text-anchor="middle" x="263.5" y="-56.5" font-family="Helvetica,sans-Serif" font-size="10.00">::setup</text>
</a>
</g>
</g>
<!-- Node1&#45;&gt;Node3 -->
<g id="edge2" class="edge"><title>Node1&#45;&gt;Node3</title>
<path fill="none" stroke="midnightblue" d="M161.168,-64.5C170.907,-64.5 180.769,-64.5 190.321,-64.5"/>
<polygon fill="midnightblue" stroke="midnightblue" points="161.082,-61.0001 151.082,-64.5 161.082,-68.0001 161.082,-61.0001"/>
</g>
<!-- Node4 -->
<g id="node4" class="node"><title>Node4</title>
<g id="a_node4"><a xlink:href="../../dc/d0f/classpfasst_1_1examples_1_1boris_1_1BorisSweeper.html#a96af733d949116ee28e9eef096b2fbf4" target="_top" xlink:title="Setup (allocate etc) the sweeper. ">
<polygon fill="white" stroke="black" points="203,-0.5 203,-30.5 324,-30.5 324,-0.5 203,-0.5"/>
<text text-anchor="start" x="211" y="-18.5" font-family="Helvetica,sans-Serif" font-size="10.00">pfasst::examples::boris</text>
<text text-anchor="middle" x="263.5" y="-7.5" font-family="Helvetica,sans-Serif" font-size="10.00">::BorisSweeper::setup</text>
</a>
</g>
</g>
<!-- Node1&#45;&gt;Node4 -->
<g id="edge3" class="edge"><title>Node1&#45;&gt;Node4</title>
<path fill="none" stroke="midnightblue" d="M143.395,-46.8771C163.744,-41.5163 185.908,-35.6775 205.538,-30.5062"/>
<polygon fill="midnightblue" stroke="midnightblue" points="142.349,-43.5333 133.57,-49.4654 144.132,-50.3023 142.349,-43.5333"/>
</g>
</g>
</svg>
