<?xml version="1.0" encoding="UTF-8" standalone="no"?>
<!DOCTYPE svg PUBLIC "-//W3C//DTD SVG 1.1//EN"
 "http://www.w3.org/Graphics/SVG/1.1/DTD/svg11.dtd">
<!-- Generated by graphviz version 2.38.0 (20140413.2041)
 -->
<!-- Title: pfasst::encap::EncapSweeper::broadcast Pages: 1 -->
<svg width="311pt" height="88pt"
 viewBox="0.00 0.00 311.00 88.00" xmlns="http://www.w3.org/2000/svg" xmlns:xlink="http://www.w3.org/1999/xlink">
<g id="graph0" class="graph" transform="scale(1 1) rotate(0) translate(4 84)">
<title>pfasst::encap::EncapSweeper::broadcast</title>
<polygon fill="white" stroke="none" points="-4,4 -4,-84 307,-84 307,4 -4,4"/>
<!-- Node1 -->
<g id="node1" class="node"><title>Node1</title>
<polygon fill="#bfbfbf" stroke="black" points="0,-24.5 0,-54.5 151,-54.5 151,-24.5 0,-24.5"/>
<text text-anchor="start" x="8" y="-42.5" font-family="Helvetica,sans-Serif" font-size="10.00">pfasst::encap::EncapSweeper</text>
<text text-anchor="middle" x="75.5" y="-31.5" font-family="Helvetica,sans-Serif" font-size="10.00">::broadcast</text>
</g>
<!-- Node2 -->
<g id="node2" class="node"><title>Node2</title>
<g id="a_node2"><a xlink:href="../../d5/d14/classpfasst_1_1ICommunicator.html#ad719c3ac9f9f81f31a10b767e37ebab5" target="_top" xlink:title="pfasst::ICommunicator\l::rank">
<polygon fill="white" stroke="black" points="187,-49.5 187,-79.5 303,-79.5 303,-49.5 187,-49.5"/>
<text text-anchor="start" x="195" y="-67.5" font-family="Helvetica,sans-Serif" font-size="10.00">pfasst::ICommunicator</text>
<text text-anchor="middle" x="245" y="-56.5" font-family="Helvetica,sans-Serif" font-size="10.00">::rank</text>
</a>
</g>
</g>
<!-- Node1&#45;&gt;Node2 -->
<g id="edge1" class="edge"><title>Node1&#45;&gt;Node2</title>
<path fill="none" stroke="midnightblue" d="M151.432,-50.6838C159.854,-51.9408 168.396,-53.2158 176.713,-54.4571"/>
<polygon fill="midnightblue" stroke="midnightblue" points="176.315,-57.9364 186.722,-55.9511 177.348,-51.0131 176.315,-57.9364"/>
</g>
<!-- Node3 -->
<g id="node3" class="node"><title>Node3</title>
<g id="a_node3"><a xlink:href="../../d5/d14/classpfasst_1_1ICommunicator.html#a896618cb196946bd85878622094cb05b" target="_top" xlink:title="pfasst::ICommunicator\l::size">
<polygon fill="white" stroke="black" points="187,-0.5 187,-30.5 303,-30.5 303,-0.5 187,-0.5"/>
<text text-anchor="start" x="195" y="-18.5" font-family="Helvetica,sans-Serif" font-size="10.00">pfasst::ICommunicator</text>
<text text-anchor="middle" x="245" y="-7.5" font-family="Helvetica,sans-Serif" font-size="10.00">::size</text>
</a>
</g>
</g>
<!-- Node1&#45;&gt;Node3 -->
<g id="edge2" class="edge"><title>Node1&#45;&gt;Node3</title>
<path fill="none" stroke="midnightblue" d="M151.432,-28.7635C159.854,-27.5568 168.396,-26.3328 176.713,-25.1412"/>
<polygon fill="midnightblue" stroke="midnightblue" points="177.32,-28.59 186.722,-23.707 176.327,-21.6608 177.32,-28.59"/>
</g>
</g>
</svg>
