<?xml version="1.0" encoding="UTF-8" standalone="no"?>
<!DOCTYPE svg PUBLIC "-//W3C//DTD SVG 1.1//EN"
 "http://www.w3.org/Graphics/SVG/1.1/DTD/svg11.dtd">
<!-- Generated by graphviz version 2.38.0 (20140413.2041)
 -->
<!-- Title: tests/examples/boris/mocks.hpp Pages: 1 -->
<svg width="570pt" height="106pt"
 viewBox="0.00 0.00 569.50 106.00" xmlns="http://www.w3.org/2000/svg" xmlns:xlink="http://www.w3.org/1999/xlink">
<g id="graph0" class="graph" transform="scale(1 1) rotate(0) translate(4 102)">
<title>tests/examples/boris/mocks.hpp</title>
<polygon fill="white" stroke="none" points="-4,4 -4,-102 565.5,-102 565.5,4 -4,4"/>
<!-- Node1 -->
<g id="node1" class="node"><title>Node1</title>
<polygon fill="#bfbfbf" stroke="black" points="149.5,-67.5 149.5,-97.5 259.5,-97.5 259.5,-67.5 149.5,-67.5"/>
<text text-anchor="start" x="157.5" y="-85.5" font-family="Helvetica,sans-Serif" font-size="10.00">tests/examples/boris</text>
<text text-anchor="middle" x="204.5" y="-74.5" font-family="Helvetica,sans-Serif" font-size="10.00">/mocks.hpp</text>
</g>
<!-- Node2 -->
<g id="node2" class="node"><title>Node2</title>
<polygon fill="white" stroke="#bfbfbf" points="0,-6 0,-25 53,-25 53,-6 0,-6"/>
<text text-anchor="middle" x="26.5" y="-13" font-family="Helvetica,sans-Serif" font-size="10.00">memory</text>
</g>
<!-- Node1&#45;&gt;Node2 -->
<g id="edge1" class="edge"><title>Node1&#45;&gt;Node2</title>
<path fill="none" stroke="midnightblue" d="M162.986,-67.4937C134.33,-57.6659 95.4259,-44.0073 61.5,-31 59.8534,-30.3687 58.1677,-29.7105 56.4693,-29.0381"/>
<polygon fill="midnightblue" stroke="midnightblue" points="57.3674,-25.6259 46.7847,-25.1182 54.7411,-32.1145 57.3674,-25.6259"/>
</g>
<!-- Node3 -->
<g id="node3" class="node"><title>Node3</title>
<polygon fill="white" stroke="#bfbfbf" points="71,-6 71,-25 142,-25 142,-6 71,-6"/>
<text text-anchor="middle" x="106.5" y="-13" font-family="Helvetica,sans-Serif" font-size="10.00">gtest/gtest.h</text>
</g>
<!-- Node1&#45;&gt;Node3 -->
<g id="edge2" class="edge"><title>Node1&#45;&gt;Node3</title>
<path fill="none" stroke="midnightblue" d="M183.235,-67.396C166.801,-56.4956 144.16,-41.4787 127.734,-30.5835"/>
<polygon fill="midnightblue" stroke="midnightblue" points="129.594,-27.6177 119.326,-25.007 125.725,-33.4512 129.594,-27.6177"/>
</g>
<!-- Node4 -->
<g id="node4" class="node"><title>Node4</title>
<polygon fill="white" stroke="#bfbfbf" points="160,-6 160,-25 249,-25 249,-6 160,-6"/>
<text text-anchor="middle" x="204.5" y="-13" font-family="Helvetica,sans-Serif" font-size="10.00">gmock/gmock.h</text>
</g>
<!-- Node1&#45;&gt;Node4 -->
<g id="edge3" class="edge"><title>Node1&#45;&gt;Node4</title>
<path fill="none" stroke="midnightblue" d="M204.5,-67.396C204.5,-58.0638 204.5,-45.7143 204.5,-35.5173"/>
<polygon fill="midnightblue" stroke="midnightblue" points="208,-35.1945 204.5,-25.1945 201,-35.1946 208,-35.1945"/>
</g>
<!-- Node5 -->
<g id="node5" class="node"><title>Node5</title>
<polygon fill="white" stroke="#bfbfbf" points="267.5,-6 267.5,-25 415.5,-25 415.5,-6 267.5,-6"/>
<text text-anchor="middle" x="341.5" y="-13" font-family="Helvetica,sans-Serif" font-size="10.00">../examples/boris/physics.hpp</text>
</g>
<!-- Node1&#45;&gt;Node5 -->
<g id="edge4" class="edge"><title>Node1&#45;&gt;Node5</title>
<path fill="none" stroke="midnightblue" d="M234.227,-67.396C258.052,-56.0919 291.209,-40.3607 314.331,-29.3903"/>
<polygon fill="midnightblue" stroke="midnightblue" points="316.035,-32.4557 323.57,-25.007 313.035,-26.1314 316.035,-32.4557"/>
</g>
<!-- Node6 -->
<g id="node6" class="node"><title>Node6</title>
<polygon fill="white" stroke="#bfbfbf" points="433.5,-0.5 433.5,-30.5 561.5,-30.5 561.5,-0.5 433.5,-0.5"/>
<text text-anchor="start" x="441.5" y="-18.5" font-family="Helvetica,sans-Serif" font-size="10.00">../examples/boris/particle</text>
<text text-anchor="middle" x="497.5" y="-7.5" font-family="Helvetica,sans-Serif" font-size="10.00">_3d.hpp</text>
</g>
<!-- Node1&#45;&gt;Node6 -->
<g id="edge5" class="edge"><title>Node1&#45;&gt;Node6</title>
<path fill="none" stroke="midnightblue" d="M259.611,-69.274C306.157,-58.9482 373.194,-44.0763 424.25,-32.7499"/>
<polygon fill="midnightblue" stroke="midnightblue" points="425.233,-36.1171 434.238,-30.5343 423.717,-29.2832 425.233,-36.1171"/>
</g>
</g>
</svg>
