<?xml version="1.0" encoding="UTF-8" standalone="no"?>
<!DOCTYPE svg PUBLIC "-//W3C//DTD SVG 1.1//EN"
 "http://www.w3.org/Graphics/SVG/1.1/DTD/svg11.dtd">
<!-- Generated by graphviz version 2.38.0 (20140413.2041)
 -->
<!-- Title: examples/boris/boris_sweeper.hpp Pages: 1 -->
<svg width="466pt" height="173pt"
 viewBox="0.00 0.00 466.00 173.00" xmlns="http://www.w3.org/2000/svg" xmlns:xlink="http://www.w3.org/1999/xlink">
<g id="graph0" class="graph" transform="scale(1 1) rotate(0) translate(4 169)">
<title>examples/boris/boris_sweeper.hpp</title>
<polygon fill="white" stroke="none" points="-4,4 -4,-169 462,-169 462,4 -4,4"/>
<!-- Node1 -->
<g id="node1" class="node"><title>Node1</title>
<polygon fill="#bfbfbf" stroke="black" points="106,-134.5 106,-164.5 216,-164.5 216,-134.5 106,-134.5"/>
<text text-anchor="start" x="114" y="-152.5" font-family="Helvetica,sans-Serif" font-size="10.00">examples/boris/boris</text>
<text text-anchor="middle" x="161" y="-141.5" font-family="Helvetica,sans-Serif" font-size="10.00">_sweeper.hpp</text>
</g>
<!-- Node2 -->
<g id="node2" class="node"><title>Node2</title>
<g id="a_node2"><a xlink:href="../../d7/d31/boris__mlsdc_8cpp.html" target="_top" xlink:title="examples/boris/boris\l_mlsdc.cpp">
<polygon fill="white" stroke="black" points="0,-0.5 0,-30.5 110,-30.5 110,-0.5 0,-0.5"/>
<text text-anchor="start" x="8" y="-18.5" font-family="Helvetica,sans-Serif" font-size="10.00">examples/boris/boris</text>
<text text-anchor="middle" x="55" y="-7.5" font-family="Helvetica,sans-Serif" font-size="10.00">_mlsdc.cpp</text>
</a>
</g>
</g>
<!-- Node1&#45;&gt;Node2 -->
<g id="edge1" class="edge"><title>Node1&#45;&gt;Node2</title>
<path fill="none" stroke="midnightblue" d="M95.7327,-139.554C70.5668,-132.565 44.226,-120.127 29,-98 14.6034,-77.078 31.0405,-47.7426 43.5429,-30.5687"/>
<polygon fill="midnightblue" stroke="midnightblue" points="95.1114,-143.006 105.664,-142.058 96.8235,-136.219 95.1114,-143.006"/>
</g>
<!-- Node3 -->
<g id="node3" class="node"><title>Node3</title>
<g id="a_node3"><a xlink:href="../../db/d9a/boris__sweeper__impl_8hpp.html" target="_top" xlink:title="examples/boris/boris\l_sweeper_impl.hpp">
<polygon fill="white" stroke="black" points="38,-67.5 38,-97.5 148,-97.5 148,-67.5 38,-67.5"/>
<text text-anchor="start" x="46" y="-85.5" font-family="Helvetica,sans-Serif" font-size="10.00">examples/boris/boris</text>
<text text-anchor="middle" x="93" y="-74.5" font-family="Helvetica,sans-Serif" font-size="10.00">_sweeper_impl.hpp</text>
</a>
</g>
</g>
<!-- Node1&#45;&gt;Node3 -->
<g id="edge2" class="edge"><title>Node1&#45;&gt;Node3</title>
<path fill="none" stroke="midnightblue" d="M132.781,-127.598C121.812,-117.783 110.071,-106.344 102.051,-97.5765"/>
<polygon fill="midnightblue" stroke="midnightblue" points="130.732,-130.455 140.567,-134.396 135.336,-125.182 130.732,-130.455"/>
</g>
<!-- Node4 -->
<g id="node4" class="node"><title>Node4</title>
<g id="a_node4"><a xlink:href="../../d2/dc5/injective__transfer_8hpp.html" target="_top" xlink:title="examples/boris/injective\l_transfer.hpp">
<polygon fill="white" stroke="black" points="166.5,-67.5 166.5,-97.5 291.5,-97.5 291.5,-67.5 166.5,-67.5"/>
<text text-anchor="start" x="174.5" y="-85.5" font-family="Helvetica,sans-Serif" font-size="10.00">examples/boris/injective</text>
<text text-anchor="middle" x="229" y="-74.5" font-family="Helvetica,sans-Serif" font-size="10.00">_transfer.hpp</text>
</a>
</g>
</g>
<!-- Node1&#45;&gt;Node4 -->
<g id="edge4" class="edge"><title>Node1&#45;&gt;Node4</title>
<path fill="none" stroke="midnightblue" d="M183.166,-127.311C193.367,-117.561 205.191,-106.259 214.274,-97.5765"/>
<polygon fill="midnightblue" stroke="midnightblue" points="180.565,-124.956 175.755,-134.396 185.402,-130.016 180.565,-124.956"/>
</g>
<!-- Node5 -->
<g id="node5" class="node"><title>Node5</title>
<g id="a_node5"><a xlink:href="../../d2/d1e/boris__pfasst_8cpp.html" target="_top" xlink:title="examples/boris/boris\l_pfasst.cpp">
<polygon fill="white" stroke="black" points="219,-0.5 219,-30.5 329,-30.5 329,-0.5 219,-0.5"/>
<text text-anchor="start" x="227" y="-18.5" font-family="Helvetica,sans-Serif" font-size="10.00">examples/boris/boris</text>
<text text-anchor="middle" x="274" y="-7.5" font-family="Helvetica,sans-Serif" font-size="10.00">_pfasst.cpp</text>
</a>
</g>
</g>
<!-- Node1&#45;&gt;Node5 -->
<g id="edge7" class="edge"><title>Node1&#45;&gt;Node5</title>
<path fill="none" stroke="midnightblue" d="M226.033,-141.328C253.574,-134.706 283.139,-122.065 300,-98 314.573,-77.2005 298.077,-47.824 285.515,-30.6092"/>
<polygon fill="midnightblue" stroke="midnightblue" points="225.034,-137.963 216.005,-143.505 226.52,-144.804 225.034,-137.963"/>
</g>
<!-- Node6 -->
<g id="node6" class="node"><title>Node6</title>
<g id="a_node6"><a xlink:href="../../d3/d93/boris__sdc_8cpp.html" target="_top" xlink:title="examples/boris/boris\l_sdc.cpp">
<polygon fill="white" stroke="black" points="348,-67.5 348,-97.5 458,-97.5 458,-67.5 348,-67.5"/>
<text text-anchor="start" x="356" y="-85.5" font-family="Helvetica,sans-Serif" font-size="10.00">examples/boris/boris</text>
<text text-anchor="middle" x="403" y="-74.5" font-family="Helvetica,sans-Serif" font-size="10.00">_sdc.cpp</text>
</a>
</g>
</g>
<!-- Node1&#45;&gt;Node6 -->
<g id="edge8" class="edge"><title>Node1&#45;&gt;Node6</title>
<path fill="none" stroke="midnightblue" d="M222.99,-131.85C262.445,-121.252 312.985,-107.677 350.464,-97.6109"/>
<polygon fill="midnightblue" stroke="midnightblue" points="221.962,-128.502 213.212,-134.476 223.778,-135.262 221.962,-128.502"/>
</g>
<!-- Node3&#45;&gt;Node1 -->
<g id="edge3" class="edge"><title>Node3&#45;&gt;Node1</title>
<path fill="none" stroke="midnightblue" d="M121.185,-104.371C132.152,-114.183 143.896,-125.623 151.923,-134.396"/>
<polygon fill="midnightblue" stroke="midnightblue" points="123.236,-101.516 113.401,-97.5765 118.633,-106.789 123.236,-101.516"/>
</g>
<!-- Node4&#45;&gt;Node2 -->
<g id="edge5" class="edge"><title>Node4&#45;&gt;Node2</title>
<path fill="none" stroke="midnightblue" d="M181.668,-63.8185C153.7,-53.3707 118.773,-40.3231 92.6817,-30.5765"/>
<polygon fill="midnightblue" stroke="midnightblue" points="180.652,-67.1752 191.245,-67.396 183.102,-60.6178 180.652,-67.1752"/>
</g>
<!-- Node4&#45;&gt;Node5 -->
<g id="edge6" class="edge"><title>Node4&#45;&gt;Node5</title>
<path fill="none" stroke="midnightblue" d="M244.468,-59.1575C251.03,-49.6788 258.479,-38.9186 264.255,-30.5765"/>
<polygon fill="midnightblue" stroke="midnightblue" points="241.579,-57.1818 238.764,-67.396 247.334,-61.1663 241.579,-57.1818"/>
</g>
</g>
</svg>
