<?xml version="1.0" encoding="UTF-8" standalone="no"?>
<!DOCTYPE svg PUBLIC "-//W3C//DTD SVG 1.1//EN"
 "http://www.w3.org/Graphics/SVG/1.1/DTD/svg11.dtd">
<!-- Generated by graphviz version 2.38.0 (20140413.2041)
 -->
<!-- Title: pfasst::ICommunicator::size Pages: 1 -->
<svg width="311pt" height="137pt"
 viewBox="0.00 0.00 311.00 137.00" xmlns="http://www.w3.org/2000/svg" xmlns:xlink="http://www.w3.org/1999/xlink">
<g id="graph0" class="graph" transform="scale(1 1) rotate(0) translate(4 133)">
<title>pfasst::ICommunicator::size</title>
<polygon fill="white" stroke="none" points="-4,4 -4,-133 307,-133 307,4 -4,4"/>
<!-- Node1 -->
<g id="node1" class="node"><title>Node1</title>
<polygon fill="#bfbfbf" stroke="black" points="0,-49.5 0,-79.5 116,-79.5 116,-49.5 0,-49.5"/>
<text text-anchor="start" x="8" y="-67.5" font-family="Helvetica,sans-Serif" font-size="10.00">pfasst::ICommunicator</text>
<text text-anchor="middle" x="58" y="-56.5" font-family="Helvetica,sans-Serif" font-size="10.00">::size</text>
</g>
<!-- Node2 -->
<g id="node2" class="node"><title>Node2</title>
<g id="a_node2"><a xlink:href="../../d7/d9e/classpfasst_1_1encap_1_1EncapSweeper.html#aa7d002604f70c71dfc80a8a44a8f0340" target="_top" xlink:title="pfasst::encap::EncapSweeper\l::broadcast">
<polygon fill="white" stroke="black" points="152,-98.5 152,-128.5 303,-128.5 303,-98.5 152,-98.5"/>
<text text-anchor="start" x="160" y="-116.5" font-family="Helvetica,sans-Serif" font-size="10.00">pfasst::encap::EncapSweeper</text>
<text text-anchor="middle" x="227.5" y="-105.5" font-family="Helvetica,sans-Serif" font-size="10.00">::broadcast</text>
</a>
</g>
</g>
<!-- Node1&#45;&gt;Node2 -->
<g id="edge1" class="edge"><title>Node1&#45;&gt;Node2</title>
<path fill="none" stroke="midnightblue" d="M120.418,-82.467C138.364,-87.717 157.787,-93.3989 175.048,-98.4484"/>
<polygon fill="midnightblue" stroke="midnightblue" points="121.203,-79.05 110.622,-79.6014 119.237,-85.7684 121.203,-79.05"/>
</g>
<!-- Node3 -->
<g id="node3" class="node"><title>Node3</title>
<g id="a_node3"><a xlink:href="../../dc/d0f/classpfasst_1_1examples_1_1boris_1_1BorisSweeper.html#ae6afdca9c0f3045b4bb7dc3cf0548ce2" target="_top" xlink:title="pfasst::examples::boris\l::BorisSweeper::broadcast">
<polygon fill="white" stroke="black" points="159,-49.5 159,-79.5 296,-79.5 296,-49.5 159,-49.5"/>
<text text-anchor="start" x="167" y="-67.5" font-family="Helvetica,sans-Serif" font-size="10.00">pfasst::examples::boris</text>
<text text-anchor="middle" x="227.5" y="-56.5" font-family="Helvetica,sans-Serif" font-size="10.00">::BorisSweeper::broadcast</text>
</a>
</g>
</g>
<!-- Node1&#45;&gt;Node3 -->
<g id="edge2" class="edge"><title>Node1&#45;&gt;Node3</title>
<path fill="none" stroke="midnightblue" d="M126.323,-64.5C137.052,-64.5 148.155,-64.5 158.891,-64.5"/>
<polygon fill="midnightblue" stroke="midnightblue" points="126.176,-61.0001 116.176,-64.5 126.175,-68.0001 126.176,-61.0001"/>
</g>
<!-- Node4 -->
<g id="node4" class="node"><title>Node4</title>
<g id="a_node4"><a xlink:href="../../da/d7a/classpfasst_1_1mpi_1_1MPIStatus.html#a05cc2a57d61cc9ed6d92020667e01c6c" target="_top" xlink:title="Set new communicator to use. ">
<polygon fill="white" stroke="black" points="169.5,-0.5 169.5,-30.5 285.5,-30.5 285.5,-0.5 169.5,-0.5"/>
<text text-anchor="start" x="177.5" y="-18.5" font-family="Helvetica,sans-Serif" font-size="10.00">pfasst::mpi::MPIStatus</text>
<text text-anchor="middle" x="227.5" y="-7.5" font-family="Helvetica,sans-Serif" font-size="10.00">::set_comm</text>
</a>
</g>
</g>
<!-- Node1&#45;&gt;Node4 -->
<g id="edge3" class="edge"><title>Node1&#45;&gt;Node4</title>
<path fill="none" stroke="midnightblue" d="M120.418,-46.533C138.364,-41.283 157.787,-35.6011 175.048,-30.5516"/>
<polygon fill="midnightblue" stroke="midnightblue" points="119.237,-43.2316 110.622,-49.3986 121.203,-49.95 119.237,-43.2316"/>
</g>
</g>
</svg>
