<?xml version="1.0" encoding="UTF-8" standalone="no"?>
<!DOCTYPE svg PUBLIC "-//W3C//DTD SVG 1.1//EN"
 "http://www.w3.org/Graphics/SVG/1.1/DTD/svg11.dtd">
<!-- Generated by graphviz version 2.38.0 (20140413.2041)
 -->
<!-- Title: pfasst::ICommunicator::rank Pages: 1 -->
<svg width="311pt" height="235pt"
 viewBox="0.00 0.00 311.00 235.00" xmlns="http://www.w3.org/2000/svg" xmlns:xlink="http://www.w3.org/1999/xlink">
<g id="graph0" class="graph" transform="scale(1 1) rotate(0) translate(4 231)">
<title>pfasst::ICommunicator::rank</title>
<polygon fill="white" stroke="none" points="-4,4 -4,-231 307,-231 307,4 -4,4"/>
<!-- Node1 -->
<g id="node1" class="node"><title>Node1</title>
<polygon fill="#bfbfbf" stroke="black" points="0,-98.5 0,-128.5 116,-128.5 116,-98.5 0,-98.5"/>
<text text-anchor="start" x="8" y="-116.5" font-family="Helvetica,sans-Serif" font-size="10.00">pfasst::ICommunicator</text>
<text text-anchor="middle" x="58" y="-105.5" font-family="Helvetica,sans-Serif" font-size="10.00">::rank</text>
</g>
<!-- Node2 -->
<g id="node2" class="node"><title>Node2</title>
<g id="a_node2"><a xlink:href="../../d7/d9e/classpfasst_1_1encap_1_1EncapSweeper.html#aa7d002604f70c71dfc80a8a44a8f0340" target="_top" xlink:title="pfasst::encap::EncapSweeper\l::broadcast">
<polygon fill="white" stroke="black" points="152,-196.5 152,-226.5 303,-226.5 303,-196.5 152,-196.5"/>
<text text-anchor="start" x="160" y="-214.5" font-family="Helvetica,sans-Serif" font-size="10.00">pfasst::encap::EncapSweeper</text>
<text text-anchor="middle" x="227.5" y="-203.5" font-family="Helvetica,sans-Serif" font-size="10.00">::broadcast</text>
</a>
</g>
</g>
<!-- Node1&#45;&gt;Node2 -->
<g id="edge1" class="edge"><title>Node1&#45;&gt;Node2</title>
<path fill="none" stroke="midnightblue" d="M81.8055,-135.557C99.6753,-151.822 125.819,-173.472 152,-187.5 158.228,-190.837 165,-193.809 171.838,-196.426"/>
<polygon fill="midnightblue" stroke="midnightblue" points="83.919,-132.743 74.2069,-128.509 79.1589,-137.876 83.919,-132.743"/>
</g>
<!-- Node3 -->
<g id="node3" class="node"><title>Node3</title>
<g id="a_node3"><a xlink:href="../../dc/d0f/classpfasst_1_1examples_1_1boris_1_1BorisSweeper.html#ae6afdca9c0f3045b4bb7dc3cf0548ce2" target="_top" xlink:title="pfasst::examples::boris\l::BorisSweeper::broadcast">
<polygon fill="white" stroke="black" points="159,-147.5 159,-177.5 296,-177.5 296,-147.5 159,-147.5"/>
<text text-anchor="start" x="167" y="-165.5" font-family="Helvetica,sans-Serif" font-size="10.00">pfasst::examples::boris</text>
<text text-anchor="middle" x="227.5" y="-154.5" font-family="Helvetica,sans-Serif" font-size="10.00">::BorisSweeper::broadcast</text>
</a>
</g>
</g>
<!-- Node1&#45;&gt;Node3 -->
<g id="edge2" class="edge"><title>Node1&#45;&gt;Node3</title>
<path fill="none" stroke="midnightblue" d="M120.418,-131.467C138.364,-136.717 157.787,-142.399 175.048,-147.448"/>
<polygon fill="midnightblue" stroke="midnightblue" points="121.203,-128.05 110.622,-128.601 119.237,-134.768 121.203,-128.05"/>
</g>
<!-- Node4 -->
<g id="node4" class="node"><title>Node4</title>
<g id="a_node4"><a xlink:href="../../da/da9/classpfasst_1_1IStatus.html#aa2e2e8a49577fef92a955a657cfa83de" target="_top" xlink:title="Check whether this processor should keep iterating. ">
<polygon fill="white" stroke="black" points="174,-98.5 174,-128.5 281,-128.5 281,-98.5 174,-98.5"/>
<text text-anchor="start" x="182" y="-116.5" font-family="Helvetica,sans-Serif" font-size="10.00">pfasst::IStatus::keep</text>
<text text-anchor="middle" x="227.5" y="-105.5" font-family="Helvetica,sans-Serif" font-size="10.00">_iterating</text>
</a>
</g>
</g>
<!-- Node1&#45;&gt;Node4 -->
<g id="edge3" class="edge"><title>Node1&#45;&gt;Node4</title>
<path fill="none" stroke="midnightblue" d="M126.405,-113.5C142.187,-113.5 158.774,-113.5 173.806,-113.5"/>
<polygon fill="midnightblue" stroke="midnightblue" points="126.176,-110 116.176,-113.5 126.175,-117 126.176,-110"/>
</g>
<!-- Node5 -->
<g id="node5" class="node"><title>Node5</title>
<g id="a_node5"><a xlink:href="../../da/da9/classpfasst_1_1IStatus.html#a7a98134b7678aad8807565b368c3374b" target="_top" xlink:title="Check whether previous processor is still iterating. ">
<polygon fill="white" stroke="black" points="166,-49.5 166,-79.5 289,-79.5 289,-49.5 166,-49.5"/>
<text text-anchor="start" x="174" y="-67.5" font-family="Helvetica,sans-Serif" font-size="10.00">pfasst::IStatus::previous</text>
<text text-anchor="middle" x="227.5" y="-56.5" font-family="Helvetica,sans-Serif" font-size="10.00">_is_iterating</text>
</a>
</g>
</g>
<!-- Node1&#45;&gt;Node5 -->
<g id="edge4" class="edge"><title>Node1&#45;&gt;Node5</title>
<path fill="none" stroke="midnightblue" d="M120.418,-95.533C138.364,-90.283 157.787,-84.6011 175.048,-79.5516"/>
<polygon fill="midnightblue" stroke="midnightblue" points="119.237,-92.2316 110.622,-98.3986 121.203,-98.95 119.237,-92.2316"/>
</g>
<!-- Node6 -->
<g id="node6" class="node"><title>Node6</title>
<g id="a_node6"><a xlink:href="../../da/d7a/classpfasst_1_1mpi_1_1MPIStatus.html#aee1dbcfefdce1bfde699a1439032fbb9" target="_top" xlink:title="sets a new converged state. ">
<polygon fill="white" stroke="black" points="169.5,-0.5 169.5,-30.5 285.5,-30.5 285.5,-0.5 169.5,-0.5"/>
<text text-anchor="start" x="177.5" y="-18.5" font-family="Helvetica,sans-Serif" font-size="10.00">pfasst::mpi::MPIStatus</text>
<text text-anchor="middle" x="227.5" y="-7.5" font-family="Helvetica,sans-Serif" font-size="10.00">::set_converged</text>
</a>
</g>
</g>
<!-- Node1&#45;&gt;Node6 -->
<g id="edge5" class="edge"><title>Node1&#45;&gt;Node6</title>
<path fill="none" stroke="midnightblue" d="M82.2309,-91.5598C100.144,-75.604 126.151,-54.4419 152,-40.5 158.844,-36.8085 166.334,-33.5215 173.843,-30.6418"/>
<polygon fill="midnightblue" stroke="midnightblue" points="79.6565,-89.1695 74.5999,-98.4798 84.3588,-94.3549 79.6565,-89.1695"/>
</g>
</g>
</svg>
