<?xml version="1.0" encoding="UTF-8" standalone="no"?>
<!DOCTYPE svg PUBLIC "-//W3C//DTD SVG 1.1//EN"
 "http://www.w3.org/Graphics/SVG/1.1/DTD/svg11.dtd">
<!-- Generated by graphviz version 2.38.0 (20140413.2041)
 -->
<!-- Title: ConvergenceTest Pages: 1 -->
<svg width="147pt" height="292pt"
 viewBox="0.00 0.00 147.00 292.00" xmlns="http://www.w3.org/2000/svg" xmlns:xlink="http://www.w3.org/1999/xlink">
<g id="graph0" class="graph" transform="scale(1 1) rotate(0) translate(4 288)">
<title>ConvergenceTest</title>
<polygon fill="white" stroke="none" points="-4,4 -4,-288 143,-288 143,4 -4,4"/>
<!-- Node1 -->
<g id="node1" class="node"><title>Node1</title>
<polygon fill="#bfbfbf" stroke="black" points="20,-0.5 20,-167.5 119,-167.5 119,-0.5 20,-0.5"/>
<text text-anchor="middle" x="69.5" y="-155.5" font-family="Helvetica,sans-Serif" font-size="10.00">ConvergenceTest</text>
<polyline fill="none" stroke="black" points="20,-148.5 119,-148.5 "/>
<text text-anchor="start" x="28" y="-136.5" font-family="Helvetica,sans-Serif" font-size="10.00"># nnodes</text>
<text text-anchor="start" x="28" y="-125.5" font-family="Helvetica,sans-Serif" font-size="10.00"># niters</text>
<text text-anchor="start" x="28" y="-114.5" font-family="Helvetica,sans-Serif" font-size="10.00"># nlevs</text>
<text text-anchor="start" x="28" y="-103.5" font-family="Helvetica,sans-Serif" font-size="10.00"># nsteps</text>
<text text-anchor="start" x="28" y="-92.5" font-family="Helvetica,sans-Serif" font-size="10.00"># err</text>
<text text-anchor="start" x="28" y="-81.5" font-family="Helvetica,sans-Serif" font-size="10.00"># convrate</text>
<text text-anchor="start" x="28" y="-70.5" font-family="Helvetica,sans-Serif" font-size="10.00"># nodetype</text>
<text text-anchor="start" x="28" y="-59.5" font-family="Helvetica,sans-Serif" font-size="10.00"># end_time</text>
<text text-anchor="start" x="28" y="-48.5" font-family="Helvetica,sans-Serif" font-size="10.00"># lambda</text>
<polyline fill="none" stroke="black" points="20,-41.5 119,-41.5 "/>
<text text-anchor="start" x="28" y="-29.5" font-family="Helvetica,sans-Serif" font-size="10.00">+ SetUp()</text>
<text text-anchor="start" x="28" y="-18.5" font-family="Helvetica,sans-Serif" font-size="10.00">+ SetUp()</text>
<text text-anchor="start" x="28" y="-7.5" font-family="Helvetica,sans-Serif" font-size="10.00">+ SetUp()</text>
</g>
<!-- Node2 -->
<g id="node2" class="node"><title>Node2</title>
<polygon fill="white" stroke="#bfbfbf" points="0,-204.5 0,-283.5 139,-283.5 139,-204.5 0,-204.5"/>
<text text-anchor="start" x="8" y="-271.5" font-family="Helvetica,sans-Serif" font-size="10.00">TestWithParam&lt; tuple</text>
<text text-anchor="start" x="8" y="-260.5" font-family="Helvetica,sans-Serif" font-size="10.00">&lt; size_t, pfasst::quadrature</text>
<text text-anchor="middle" x="69.5" y="-249.5" font-family="Helvetica,sans-Serif" font-size="10.00">::QuadratureType &gt; &gt;</text>
<polyline fill="none" stroke="#bfbfbf" points="0,-242.5 139,-242.5 "/>
<text text-anchor="middle" x="69.5" y="-230.5" font-family="Helvetica,sans-Serif" font-size="10.00"> </text>
<polyline fill="none" stroke="#bfbfbf" points="0,-223.5 139,-223.5 "/>
<text text-anchor="middle" x="69.5" y="-211.5" font-family="Helvetica,sans-Serif" font-size="10.00"> </text>
</g>
<!-- Node2&#45;&gt;Node1 -->
<g id="edge1" class="edge"><title>Node2&#45;&gt;Node1</title>
<path fill="none" stroke="midnightblue" d="M56.922,-194.264C56.3775,-185.744 56.0742,-176.671 56.012,-167.535"/>
<polygon fill="none" stroke="midnightblue" points="53.4414,-194.65 57.7058,-204.349 60.4204,-194.108 53.4414,-194.65"/>
</g>
<!-- Node2&#45;&gt;Node1 -->
<g id="edge2" class="edge"><title>Node2&#45;&gt;Node1</title>
<path fill="none" stroke="midnightblue" d="M69.5,-194.264C69.5,-185.744 69.5,-176.671 69.5,-167.535"/>
<polygon fill="none" stroke="midnightblue" points="66.0001,-194.349 69.5,-204.349 73.0001,-194.349 66.0001,-194.349"/>
</g>
<!-- Node2&#45;&gt;Node1 -->
<g id="edge3" class="edge"><title>Node2&#45;&gt;Node1</title>
<path fill="none" stroke="midnightblue" d="M82.078,-194.264C82.6225,-185.744 82.9258,-176.671 82.988,-167.535"/>
<polygon fill="none" stroke="midnightblue" points="78.5796,-194.108 81.2942,-204.349 85.5586,-194.65 78.5796,-194.108"/>
</g>
</g>
</svg>
