<?xml version="1.0" encoding="UTF-8" standalone="no"?>
<!DOCTYPE svg PUBLIC "-//W3C//DTD SVG 1.1//EN"
 "http://www.w3.org/Graphics/SVG/1.1/DTD/svg11.dtd">
<!-- Generated by graphviz version 2.38.0 (20140413.2041)
 -->
<!-- Title: pfasst::examples::advection_diffusion::SpectralTransfer1D::interpolate Pages: 1 -->
<svg width="534pt" height="127pt"
 viewBox="0.00 0.00 534.00 127.00" xmlns="http://www.w3.org/2000/svg" xmlns:xlink="http://www.w3.org/1999/xlink">
<g id="graph0" class="graph" transform="scale(1 1) rotate(0) translate(4 123)">
<title>pfasst::examples::advection_diffusion::SpectralTransfer1D::interpolate</title>
<polygon fill="white" stroke="none" points="-4,4 -4,-123 530,-123 530,4 -4,4"/>
<!-- Node1 -->
<g id="node1" class="node"><title>Node1</title>
<polygon fill="#bfbfbf" stroke="black" points="0,-39 0,-80 152,-80 152,-39 0,-39"/>
<text text-anchor="start" x="8" y="-68" font-family="Helvetica,sans-Serif" font-size="10.00">pfasst::examples::advection</text>
<text text-anchor="start" x="8" y="-57" font-family="Helvetica,sans-Serif" font-size="10.00">_diffusion::SpectralTransfer1D</text>
<text text-anchor="middle" x="76" y="-46" font-family="Helvetica,sans-Serif" font-size="10.00">::interpolate</text>
</g>
<!-- Node2 -->
<g id="node2" class="node"><title>Node2</title>
<g id="a_node2"><a xlink:href="../../d8/d6f/classpfasst_1_1examples_1_1advection__diffusion_1_1FFT.html#a71f4be58c1eb039a77bf6b8742e1ccdb" target="_top" xlink:title="pfasst::examples::advection\l_diffusion::FFT::backward">
<polygon fill="white" stroke="black" points="188,-88.5 188,-118.5 331,-118.5 331,-88.5 188,-88.5"/>
<text text-anchor="start" x="196" y="-106.5" font-family="Helvetica,sans-Serif" font-size="10.00">pfasst::examples::advection</text>
<text text-anchor="middle" x="259.5" y="-95.5" font-family="Helvetica,sans-Serif" font-size="10.00">_diffusion::FFT::backward</text>
</a>
</g>
</g>
<!-- Node1&#45;&gt;Node2 -->
<g id="edge1" class="edge"><title>Node1&#45;&gt;Node2</title>
<path fill="none" stroke="midnightblue" d="M152.133,-77.7141C163.523,-80.4752 175.251,-83.3184 186.57,-86.0625"/>
<polygon fill="midnightblue" stroke="midnightblue" points="185.85,-89.4893 196.394,-88.4439 187.5,-82.6863 185.85,-89.4893"/>
</g>
<!-- Node3 -->
<g id="node3" class="node"><title>Node3</title>
<g id="a_node3"><a xlink:href="../../d8/d6f/classpfasst_1_1examples_1_1advection__diffusion_1_1FFT.html#a7eff33c139c606f9c5fe65b7d94a03fa" target="_top" xlink:title="pfasst::examples::advection\l_diffusion::FFT::get_workspace">
<polygon fill="white" stroke="black" points="367,-44.5 367,-74.5 526,-74.5 526,-44.5 367,-44.5"/>
<text text-anchor="start" x="375" y="-62.5" font-family="Helvetica,sans-Serif" font-size="10.00">pfasst::examples::advection</text>
<text text-anchor="middle" x="446.5" y="-51.5" font-family="Helvetica,sans-Serif" font-size="10.00">_diffusion::FFT::get_workspace</text>
</a>
</g>
</g>
<!-- Node1&#45;&gt;Node3 -->
<g id="edge5" class="edge"><title>Node1&#45;&gt;Node3</title>
<path fill="none" stroke="midnightblue" d="M152.016,-59.5C211.22,-59.5 293.974,-59.5 356.521,-59.5"/>
<polygon fill="midnightblue" stroke="midnightblue" points="356.772,-63.0001 366.772,-59.5 356.772,-56.0001 356.772,-63.0001"/>
</g>
<!-- Node4 -->
<g id="node4" class="node"><title>Node4</title>
<g id="a_node4"><a xlink:href="../../d8/d6f/classpfasst_1_1examples_1_1advection__diffusion_1_1FFT.html#aba363e7a311e50f83cc16083c5204453" target="_top" xlink:title="pfasst::examples::advection\l_diffusion::FFT::forward">
<polygon fill="white" stroke="black" points="188,-0.5 188,-30.5 331,-30.5 331,-0.5 188,-0.5"/>
<text text-anchor="start" x="196" y="-18.5" font-family="Helvetica,sans-Serif" font-size="10.00">pfasst::examples::advection</text>
<text text-anchor="middle" x="259.5" y="-7.5" font-family="Helvetica,sans-Serif" font-size="10.00">_diffusion::FFT::forward</text>
</a>
</g>
</g>
<!-- Node1&#45;&gt;Node4 -->
<g id="edge3" class="edge"><title>Node1&#45;&gt;Node4</title>
<path fill="none" stroke="midnightblue" d="M152.133,-41.2859C163.523,-38.5248 175.251,-35.6816 186.57,-32.9375"/>
<polygon fill="midnightblue" stroke="midnightblue" points="187.5,-36.3137 196.394,-30.5561 185.85,-29.5107 187.5,-36.3137"/>
</g>
<!-- Node2&#45;&gt;Node3 -->
<g id="edge2" class="edge"><title>Node2&#45;&gt;Node3</title>
<path fill="none" stroke="midnightblue" d="M323.649,-88.4808C339.339,-84.7492 356.285,-80.7186 372.408,-76.884"/>
<polygon fill="midnightblue" stroke="midnightblue" points="373.403,-80.2451 382.322,-74.5262 371.783,-73.4351 373.403,-80.2451"/>
</g>
<!-- Node4&#45;&gt;Node3 -->
<g id="edge4" class="edge"><title>Node4&#45;&gt;Node3</title>
<path fill="none" stroke="midnightblue" d="M323.649,-30.5192C339.339,-34.2508 356.285,-38.2814 372.408,-42.116"/>
<polygon fill="midnightblue" stroke="midnightblue" points="371.783,-45.5649 382.322,-44.4738 373.403,-38.7549 371.783,-45.5649"/>
</g>
</g>
</svg>
