<?xml version="1.0" encoding="UTF-8" standalone="no"?>
<!DOCTYPE svg PUBLIC "-//W3C//DTD SVG 1.1//EN"
 "http://www.w3.org/Graphics/SVG/1.1/DTD/svg11.dtd">
<!-- Generated by graphviz version 2.38.0 (20140413.2041)
 -->
<!-- Title: src/pfasst/quadrature/gauss_legendre_impl.hpp Pages: 1 -->
<!--zoomable 520 -->
<svg id="main" version="1.1" xmlns="http://www.w3.org/2000/svg" xmlns:xlink="http://www.w3.org/1999/xlink" xml:space="preserve" onload="init(evt)">
<style type="text/css"><![CDATA[
.edge:hover path { stroke: red; }
.edge:hover polygon { stroke: red; fill: red; }
]]></style>
<script type="text/javascript"><![CDATA[
var edges = document.getElementsByTagName('g');
if (edges && edges.length) {
  for (var i=0;i<edges.length;i++) {
    if (edges[i].id.substr(0,4)=='edge') {
      edges[i].setAttribute('class','edge');
    }
  }
}
]]></script>
        <defs>
                <circle id="rim" cx="0" cy="0" r="7"/>
                <circle id="rim2" cx="0" cy="0" r="3.5"/>
                <g id="zoomPlus">
                        <use xlink:href="#rim" fill="#404040">
                                <set attributeName="fill" to="#808080" begin="zoomplus.mouseover" end="zoomplus.mouseout"/>
                        </use>
                        <path d="M-4,0h8M0,-4v8" fill="none" stroke="white" stroke-width="1.5" pointer-events="none"/>
                </g>
                <g id="zoomMin">
                        <use xlink:href="#rim" fill="#404040">
                                <set attributeName="fill" to="#808080" begin="zoomminus.mouseover" end="zoomminus.mouseout"/>
                        </use>
                        <path d="M-4,0h8" fill="none" stroke="white" stroke-width="1.5" pointer-events="none"/>
                </g>
                <g id="dirArrow">
                        <path fill="none" stroke="white" stroke-width="1.5" d="M0,-3.0v7 M-2.5,-0.5L0,-3.0L2.5,-0.5"/>
                </g>
               <g id="resetDef">
                       <use xlink:href="#rim2" fill="#404040">
                               <set attributeName="fill" to="#808080" begin="reset.mouseover" end="reset.mouseout"/>
                       </use>
               </g>
        </defs>

<script type="text/javascript">
var viewWidth = 714;
var viewHeight = 520;
var sectionId = 'dynsection-0';
</script>
<script xlink:href="../../svgpan.js"/>
<svg id="graph" class="graph">
<g id="viewport">
<title>src/pfasst/quadrature/gauss_legendre_impl.hpp</title>
<polygon fill="white" stroke="none" points="-4,4 -4,-516 709.5,-516 709.5,4 -4,4"/>
<!-- Node1 -->
<g id="node1" class="node"><title>Node1</title>
<polygon fill="#bfbfbf" stroke="black" points="186,-481.5 186,-511.5 320,-511.5 320,-481.5 186,-481.5"/>
<text text-anchor="start" x="194" y="-499.5" font-family="Helvetica,sans-Serif" font-size="10.00">src/pfasst/quadrature</text>
<text text-anchor="middle" x="253" y="-488.5" font-family="Helvetica,sans-Serif" font-size="10.00">/gauss_legendre_impl.hpp</text>
</g>
<!-- Node2 -->
<g id="node2" class="node"><title>Node2</title>
<g id="a_node2"><a xlink:href="../../de/d36/gauss__legendre_8hpp.html" target="_top" xlink:title="pfasst/quadrature/gauss\l_legendre.hpp">
<polygon fill="white" stroke="black" points="236.5,-414.5 236.5,-444.5 361.5,-444.5 361.5,-414.5 236.5,-414.5"/>
<text text-anchor="start" x="244.5" y="-432.5" font-family="Helvetica,sans-Serif" font-size="10.00">pfasst/quadrature/gauss</text>
<text text-anchor="middle" x="299" y="-421.5" font-family="Helvetica,sans-Serif" font-size="10.00">_legendre.hpp</text>
</a>
</g>
</g>
<!-- Node1&#45;&gt;Node2 -->
<g id="edge1" class="edge"><title>Node1&#45;&gt;Node2</title>
<path fill="none" stroke="midnightblue" d="M257.303,-481.396C262.165,-472.963 269.626,-462.067 276.987,-452.522"/>
<polygon fill="midnightblue" stroke="midnightblue" points="279.834,-454.566 283.363,-444.577 274.375,-450.185 279.834,-454.566"/>
</g>
<!-- Node5 -->
<g id="node5" class="node"><title>Node5</title>
<polygon fill="white" stroke="#bfbfbf" points="189,-230 189,-249 233,-249 233,-230 189,-230"/>
<text text-anchor="middle" x="211" y="-237" font-family="Helvetica,sans-Serif" font-size="10.00">vector</text>
</g>
<!-- Node1&#45;&gt;Node5 -->
<g id="edge45" class="edge"><title>Node1&#45;&gt;Node5</title>
<path fill="none" stroke="midnightblue" d="M243.633,-481.118C237.773,-471.347 230.665,-457.901 227,-445 208.209,-378.85 208.663,-296.139 210.02,-259.489"/>
<polygon fill="midnightblue" stroke="midnightblue" points="213.526,-259.432 210.469,-249.287 206.533,-259.124 213.526,-259.432"/>
</g>
<!-- Node25 -->
<g id="node25" class="node"><title>Node25</title>
<g id="a_node25"><a xlink:href="../../d0/d3e/polynomial_8hpp.html" target="_top" xlink:title="pfasst/quadrature/polynomial.hpp">
<polygon fill="white" stroke="black" points="16,-297 16,-316 180,-316 180,-297 16,-297"/>
<text text-anchor="middle" x="98" y="-304" font-family="Helvetica,sans-Serif" font-size="10.00">pfasst/quadrature/polynomial.hpp</text>
</a>
</g>
</g>
<!-- Node1&#45;&gt;Node25 -->
<g id="edge46" class="edge"><title>Node1&#45;&gt;Node25</title>
<path fill="none" stroke="midnightblue" d="M234.109,-481.359C221.961,-471.794 206.222,-458.488 194,-445 158.133,-405.418 124.368,-351.947 108.115,-324.826"/>
<polygon fill="midnightblue" stroke="midnightblue" points="111.054,-322.921 102.947,-316.101 105.031,-326.488 111.054,-322.921"/>
</g>
<!-- Node2&#45;&gt;Node1 -->
<g id="edge44" class="edge"><title>Node2&#45;&gt;Node1</title>
<path fill="none" stroke="midnightblue" d="M294.713,-444.577C289.857,-453.004 282.398,-463.899 275.037,-473.447"/>
<polygon fill="midnightblue" stroke="midnightblue" points="272.187,-471.406 268.66,-481.396 277.647,-475.786 272.187,-471.406"/>
</g>
<!-- Node3 -->
<g id="node3" class="node"><title>Node3</title>
<g id="a_node3"><a xlink:href="../../df/dea/quadrature_2interface_8hpp.html" target="_top" xlink:title="pfasst/quadrature/interface.hpp">
<polygon fill="white" stroke="black" points="245,-358.5 245,-377.5 399,-377.5 399,-358.5 245,-358.5"/>
<text text-anchor="middle" x="322" y="-365.5" font-family="Helvetica,sans-Serif" font-size="10.00">pfasst/quadrature/interface.hpp</text>
</a>
</g>
</g>
<!-- Node2&#45;&gt;Node3 -->
<g id="edge2" class="edge"><title>Node2&#45;&gt;Node3</title>
<path fill="none" stroke="midnightblue" d="M304.451,-414.399C307.621,-406.199 311.648,-395.781 315.044,-386.994"/>
<polygon fill="midnightblue" stroke="midnightblue" points="318.312,-388.247 318.653,-377.658 311.783,-385.723 318.312,-388.247"/>
</g>
<!-- Node4 -->
<g id="node4" class="node"><title>Node4</title>
<polygon fill="white" stroke="#bfbfbf" points="244,-168.5 244,-187.5 294,-187.5 294,-168.5 244,-168.5"/>
<text text-anchor="middle" x="269" y="-175.5" font-family="Helvetica,sans-Serif" font-size="10.00">cassert</text>
</g>
<!-- Node3&#45;&gt;Node4 -->
<g id="edge3" class="edge"><title>Node3&#45;&gt;Node4</title>
<path fill="none" stroke="midnightblue" d="M319.585,-358.434C311.514,-329.806 285.36,-237.03 274.163,-197.314"/>
<polygon fill="midnightblue" stroke="midnightblue" points="277.511,-196.292 271.429,-187.617 270.774,-198.191 277.511,-196.292"/>
</g>
<!-- Node3&#45;&gt;Node5 -->
<g id="edge4" class="edge"><title>Node3&#45;&gt;Node5</title>
<path fill="none" stroke="midnightblue" d="M310.578,-358.378C299.568,-349.787 282.747,-335.904 270,-322 251.251,-301.55 233.056,-275.104 221.945,-257.974"/>
<polygon fill="midnightblue" stroke="midnightblue" points="224.6,-255.628 216.27,-249.08 218.699,-259.393 224.6,-255.628"/>
</g>
<!-- Node6 -->
<g id="node6" class="node"><title>Node6</title>
<polygon fill="white" stroke="#bfbfbf" points="350.5,-297 350.5,-316 425.5,-316 425.5,-297 350.5,-297"/>
<text text-anchor="middle" x="388" y="-304" font-family="Helvetica,sans-Serif" font-size="10.00">Eigen/Dense</text>
</g>
<!-- Node3&#45;&gt;Node6 -->
<g id="edge5" class="edge"><title>Node3&#45;&gt;Node6</title>
<path fill="none" stroke="midnightblue" d="M331.456,-358.475C341.748,-349.197 358.416,-334.171 370.994,-322.831"/>
<polygon fill="midnightblue" stroke="midnightblue" points="373.478,-325.305 378.561,-316.009 368.79,-320.105 373.478,-325.305"/>
</g>
<!-- Node7 -->
<g id="node7" class="node"><title>Node7</title>
<g id="a_node7"><a xlink:href="../../d5/d82/globals_8hpp.html" target="_top" xlink:title="pfasst/globals.hpp">
<polygon fill="white" stroke="black" points="312.5,-168.5 312.5,-187.5 409.5,-187.5 409.5,-168.5 312.5,-168.5"/>
<text text-anchor="middle" x="361" y="-175.5" font-family="Helvetica,sans-Serif" font-size="10.00">pfasst/globals.hpp</text>
</a>
</g>
</g>
<!-- Node3&#45;&gt;Node7 -->
<g id="edge6" class="edge"><title>Node3&#45;&gt;Node7</title>
<path fill="none" stroke="midnightblue" d="M323.777,-358.434C329.703,-329.867 348.88,-237.426 357.148,-197.57"/>
<polygon fill="midnightblue" stroke="midnightblue" points="360.608,-198.119 359.212,-187.617 353.754,-196.697 360.608,-198.119"/>
</g>
<!-- Node8 -->
<g id="node8" class="node"><title>Node8</title>
<g id="a_node8"><a xlink:href="../../d1/d1b/interfaces_8hpp.html" target="_top" xlink:title="interfaces for SDC/MLSDC/PFASST algorithms. ">
<polygon fill="white" stroke="black" points="598.5,-297 598.5,-316 705.5,-316 705.5,-297 598.5,-297"/>
<text text-anchor="middle" x="652" y="-304" font-family="Helvetica,sans-Serif" font-size="10.00">pfasst/interfaces.hpp</text>
</a>
</g>
</g>
<!-- Node3&#45;&gt;Node8 -->
<g id="edge7" class="edge"><title>Node3&#45;&gt;Node8</title>
<path fill="none" stroke="midnightblue" d="M378.433,-358.483C432.596,-350.075 516.619,-336.416 589,-322 594.712,-320.862 600.696,-319.59 606.609,-318.285"/>
<polygon fill="midnightblue" stroke="midnightblue" points="607.442,-321.685 616.429,-316.074 605.905,-314.856 607.442,-321.685"/>
</g>
<!-- Node3&#45;&gt;Node25 -->
<g id="edge34" class="edge"><title>Node3&#45;&gt;Node25</title>
<path fill="none" stroke="midnightblue" d="M289.906,-358.475C250.401,-347.982 183.221,-330.137 139.739,-318.587"/>
<polygon fill="midnightblue" stroke="midnightblue" points="140.598,-315.194 130.034,-316.009 138.801,-321.959 140.598,-315.194"/>
</g>
<!-- Node30 -->
<g id="node30" class="node"><title>Node30</title>
<g id="a_node30"><a xlink:href="../../de/da5/quadrature_2interface__impl_8hpp.html" target="_top" xlink:title="pfasst/quadrature/interface\l_impl.hpp">
<polygon fill="white" stroke="black" points="444,-291.5 444,-321.5 580,-321.5 580,-291.5 444,-291.5"/>
<text text-anchor="start" x="452" y="-309.5" font-family="Helvetica,sans-Serif" font-size="10.00">pfasst/quadrature/interface</text>
<text text-anchor="middle" x="512" y="-298.5" font-family="Helvetica,sans-Serif" font-size="10.00">_impl.hpp</text>
</a>
</g>
</g>
<!-- Node3&#45;&gt;Node30 -->
<g id="edge42" class="edge"><title>Node3&#45;&gt;Node30</title>
<path fill="none" stroke="midnightblue" d="M344.322,-358.475C370.65,-349.626 415.183,-335.549 451.786,-324.428"/>
<polygon fill="midnightblue" stroke="midnightblue" points="452.832,-327.768 461.391,-321.523 450.806,-321.068 452.832,-327.768"/>
</g>
<!-- Node9 -->
<g id="node9" class="node"><title>Node9</title>
<polygon fill="white" stroke="#bfbfbf" points="620.5,-168.5 620.5,-187.5 673.5,-187.5 673.5,-168.5 620.5,-168.5"/>
<text text-anchor="middle" x="647" y="-175.5" font-family="Helvetica,sans-Serif" font-size="10.00">memory</text>
</g>
<!-- Node8&#45;&gt;Node9 -->
<g id="edge8" class="edge"><title>Node8&#45;&gt;Node9</title>
<path fill="none" stroke="midnightblue" d="M645.111,-296.829C637.973,-287.24 627.273,-271.021 623,-255 619.45,-241.688 619.658,-237.366 623,-224 625.439,-214.245 630.437,-204.29 635.243,-196.231"/>
<polygon fill="midnightblue" stroke="midnightblue" points="638.213,-198.083 640.633,-187.768 632.309,-194.322 638.213,-198.083"/>
</g>
<!-- Node10 -->
<g id="node10" class="node"><title>Node10</title>
<polygon fill="white" stroke="#bfbfbf" points="632,-230 632,-249 692,-249 692,-230 632,-230"/>
<text text-anchor="middle" x="662" y="-237" font-family="Helvetica,sans-Serif" font-size="10.00">stdexcept</text>
</g>
<!-- Node8&#45;&gt;Node10 -->
<g id="edge9" class="edge"><title>Node8&#45;&gt;Node10</title>
<path fill="none" stroke="midnightblue" d="M653.349,-296.734C654.818,-287.183 657.213,-271.618 659.11,-259.283"/>
<polygon fill="midnightblue" stroke="midnightblue" points="662.611,-259.543 660.673,-249.127 655.693,-258.479 662.611,-259.543"/>
</g>
<!-- Node11 -->
<g id="node11" class="node"><title>Node11</title>
<polygon fill="white" stroke="#bfbfbf" points="571.5,-56.5 571.5,-75.5 612.5,-75.5 612.5,-56.5 571.5,-56.5"/>
<text text-anchor="middle" x="592" y="-63.5" font-family="Helvetica,sans-Serif" font-size="10.00">string</text>
</g>
<!-- Node8&#45;&gt;Node11 -->
<g id="edge10" class="edge"><title>Node8&#45;&gt;Node11</title>
<path fill="none" stroke="midnightblue" d="M664.856,-296.828C676.783,-287.932 693.748,-272.887 701,-255 706.176,-242.232 703.243,-237.594 701,-224 696.721,-198.068 695.23,-190.71 682,-168 662.154,-133.932 629.636,-101.114 609.598,-82.5554"/>
<polygon fill="midnightblue" stroke="midnightblue" points="611.846,-79.8688 602.093,-75.7307 607.137,-85.0478 611.846,-79.8688"/>
</g>
<!-- Node12 -->
<g id="node12" class="node"><title>Node12</title>
<g id="a_node12"><a xlink:href="../../d8/dc4/interfaces__impl_8hpp.html" target="_top" xlink:title="pfasst/interfaces_impl.hpp">
<polygon fill="white" stroke="black" points="444.5,-230 444.5,-249 575.5,-249 575.5,-230 444.5,-230"/>
<text text-anchor="middle" x="510" y="-237" font-family="Helvetica,sans-Serif" font-size="10.00">pfasst/interfaces_impl.hpp</text>
</a>
</g>
</g>
<!-- Node8&#45;&gt;Node12 -->
<g id="edge11" class="edge"><title>Node8&#45;&gt;Node12</title>
<path fill="none" stroke="midnightblue" d="M628.383,-296.869C601.95,-285.845 559.761,-266.655 533.42,-253.768"/>
<polygon fill="midnightblue" stroke="midnightblue" points="534.679,-250.485 524.167,-249.167 531.563,-256.753 534.679,-250.485"/>
</g>
<!-- Node12&#45;&gt;Node4 -->
<g id="edge13" class="edge"><title>Node12&#45;&gt;Node4</title>
<path fill="none" stroke="midnightblue" d="M474.048,-229.954C434.736,-220.559 369.623,-204.854 304.296,-188.295"/>
<polygon fill="midnightblue" stroke="midnightblue" points="304.791,-184.81 294.237,-185.739 303.067,-191.594 304.791,-184.81"/>
</g>
<!-- Node12&#45;&gt;Node7 -->
<g id="edge16" class="edge"><title>Node12&#45;&gt;Node7</title>
<path fill="none" stroke="midnightblue" d="M488.652,-229.975C463.314,-219.857 420.862,-202.905 391.929,-191.351"/>
<polygon fill="midnightblue" stroke="midnightblue" points="392.893,-187.967 382.308,-187.509 390.297,-194.468 392.893,-187.967"/>
</g>
<!-- Node12&#45;&gt;Node8 -->
<g id="edge12" class="edge"><title>Node12&#45;&gt;Node8</title>
<path fill="none" stroke="midnightblue" d="M533.702,-249.167C560.169,-260.209 602.359,-279.4 628.665,-292.274"/>
<polygon fill="midnightblue" stroke="midnightblue" points="627.391,-295.549 637.903,-296.869 630.508,-289.282 627.391,-295.549"/>
</g>
<!-- Node12&#45;&gt;Node9 -->
<g id="edge14" class="edge"><title>Node12&#45;&gt;Node9</title>
<path fill="none" stroke="midnightblue" d="M529.629,-229.975C552.824,-219.901 591.619,-203.053 618.213,-191.502"/>
<polygon fill="midnightblue" stroke="midnightblue" points="619.63,-194.703 627.408,-187.509 616.841,-188.282 619.63,-194.703"/>
</g>
<!-- Node12&#45;&gt;Node11 -->
<g id="edge15" class="edge"><title>Node12&#45;&gt;Node11</title>
<path fill="none" stroke="midnightblue" d="M514.179,-229.76C527.011,-202.921 566.029,-121.318 583.446,-84.8903"/>
<polygon fill="midnightblue" stroke="midnightblue" points="586.771,-86.0509 587.927,-75.5194 580.455,-83.0314 586.771,-86.0509"/>
</g>
<!-- Node13 -->
<g id="node13" class="node"><title>Node13</title>
<g id="a_node13"><a xlink:href="../../d0/da9/logging_8hpp.html" target="_top" xlink:title="pfasst/logging.hpp">
<polygon fill="white" stroke="black" points="427,-168.5 427,-187.5 525,-187.5 525,-168.5 427,-168.5"/>
<text text-anchor="middle" x="476" y="-175.5" font-family="Helvetica,sans-Serif" font-size="10.00">pfasst/logging.hpp</text>
</a>
</g>
</g>
<!-- Node12&#45;&gt;Node13 -->
<g id="edge17" class="edge"><title>Node12&#45;&gt;Node13</title>
<path fill="none" stroke="midnightblue" d="M505.129,-229.975C500.13,-221.227 492.211,-207.369 485.891,-196.309"/>
<polygon fill="midnightblue" stroke="midnightblue" points="488.863,-194.455 480.862,-187.509 482.785,-197.928 488.863,-194.455"/>
</g>
<!-- Node13&#45;&gt;Node11 -->
<g id="edge20" class="edge"><title>Node13&#45;&gt;Node11</title>
<path fill="none" stroke="midnightblue" d="M485.102,-168.368C504.584,-149.894 550.564,-106.293 575.398,-82.7436"/>
<polygon fill="midnightblue" stroke="midnightblue" points="578.092,-85.0121 582.94,-75.5914 573.275,-79.9327 578.092,-85.0121"/>
</g>
<!-- Node14 -->
<g id="node14" class="node"><title>Node14</title>
<polygon fill="white" stroke="#bfbfbf" points="436,-112.5 436,-131.5 488,-131.5 488,-112.5 436,-112.5"/>
<text text-anchor="middle" x="462" y="-119.5" font-family="Helvetica,sans-Serif" font-size="10.00">iomanip</text>
</g>
<!-- Node13&#45;&gt;Node14 -->
<g id="edge18" class="edge"><title>Node13&#45;&gt;Node14</title>
<path fill="none" stroke="midnightblue" d="M473.688,-168.083C471.833,-160.927 469.165,-150.635 466.846,-141.691"/>
<polygon fill="midnightblue" stroke="midnightblue" points="470.166,-140.553 464.269,-131.751 463.391,-142.309 470.166,-140.553"/>
</g>
<!-- Node15 -->
<g id="node15" class="node"><title>Node15</title>
<polygon fill="white" stroke="#bfbfbf" points="497,-56.5 497,-75.5 553,-75.5 553,-56.5 497,-56.5"/>
<text text-anchor="middle" x="525" y="-63.5" font-family="Helvetica,sans-Serif" font-size="10.00">iostream</text>
</g>
<!-- Node13&#45;&gt;Node15 -->
<g id="edge19" class="edge"><title>Node13&#45;&gt;Node15</title>
<path fill="none" stroke="midnightblue" d="M480.103,-168.408C484.392,-159.379 491.283,-144.743 497,-132 504.064,-116.254 511.805,-98.2202 517.354,-85.1487"/>
<polygon fill="midnightblue" stroke="midnightblue" points="520.607,-86.4415 521.279,-75.868 514.16,-83.7146 520.607,-86.4415"/>
</g>
<!-- Node16 -->
<g id="node16" class="node"><title>Node16</title>
<polygon fill="white" stroke="#bfbfbf" points="36.5,-112.5 36.5,-131.5 167.5,-131.5 167.5,-112.5 36.5,-112.5"/>
<text text-anchor="middle" x="102" y="-119.5" font-family="Helvetica,sans-Serif" font-size="10.00">boost/algorithm/string.hpp</text>
</g>
<!-- Node13&#45;&gt;Node16 -->
<g id="edge21" class="edge"><title>Node13&#45;&gt;Node16</title>
<path fill="none" stroke="midnightblue" d="M426.959,-169.346C423.928,-168.887 420.923,-168.435 418,-168 334.105,-155.518 237.567,-141.875 173.496,-132.922"/>
<polygon fill="midnightblue" stroke="midnightblue" points="173.886,-129.442 163.498,-131.526 172.918,-136.375 173.886,-129.442"/>
</g>
<!-- Node17 -->
<g id="node17" class="node"><title>Node17</title>
<g id="a_node17"><a xlink:href="../../d8/dfd/config_8hpp.html" target="_top" xlink:title="pfasst/config.hpp">
<polygon fill="white" stroke="black" points="326.5,-112.5 326.5,-131.5 417.5,-131.5 417.5,-112.5 326.5,-112.5"/>
<text text-anchor="middle" x="372" y="-119.5" font-family="Helvetica,sans-Serif" font-size="10.00">pfasst/config.hpp</text>
</a>
</g>
</g>
<!-- Node13&#45;&gt;Node17 -->
<g id="edge22" class="edge"><title>Node13&#45;&gt;Node17</title>
<path fill="none" stroke="midnightblue" d="M459.291,-168.324C442.688,-159.703 416.998,-146.364 397.78,-136.386"/>
<polygon fill="midnightblue" stroke="midnightblue" points="399.156,-133.156 388.668,-131.655 395.93,-139.369 399.156,-133.156"/>
</g>
<!-- Node24 -->
<g id="node24" class="node"><title>Node24</title>
<polygon fill="white" stroke="#bfbfbf" points="186,-112.5 186,-131.5 308,-131.5 308,-112.5 186,-112.5"/>
<text text-anchor="middle" x="247" y="-119.5" font-family="Helvetica,sans-Serif" font-size="10.00">pfasst/easylogging++.h</text>
</g>
<!-- Node13&#45;&gt;Node24 -->
<g id="edge33" class="edge"><title>Node13&#45;&gt;Node24</title>
<path fill="none" stroke="midnightblue" d="M439.714,-168.444C400.017,-159.083 336.293,-144.056 293.088,-133.868"/>
<polygon fill="midnightblue" stroke="midnightblue" points="293.652,-130.405 283.116,-131.516 292.046,-137.218 293.652,-130.405"/>
</g>
<!-- Node17&#45;&gt;Node11 -->
<g id="edge25" class="edge"><title>Node17&#45;&gt;Node11</title>
<path fill="none" stroke="midnightblue" d="M411.105,-112.446C447.604,-104.304 503.788,-91.3717 561.703,-75.9548"/>
<polygon fill="midnightblue" stroke="midnightblue" points="562.637,-79.3283 571.389,-73.3574 560.823,-72.5672 562.637,-79.3283"/>
</g>
<!-- Node17&#45;&gt;Node15 -->
<g id="edge24" class="edge"><title>Node17&#45;&gt;Node15</title>
<path fill="none" stroke="midnightblue" d="M396.243,-112.444C421.871,-103.399 462.485,-89.064 491.238,-78.9158"/>
<polygon fill="midnightblue" stroke="midnightblue" points="492.605,-82.1452 500.87,-75.5164 490.275,-75.5442 492.605,-82.1452"/>
</g>
<!-- Node18 -->
<g id="node18" class="node"><title>Node18</title>
<polygon fill="white" stroke="#bfbfbf" points="109,-0.5 109,-19.5 159,-19.5 159,-0.5 109,-0.5"/>
<text text-anchor="middle" x="134" y="-7.5" font-family="Helvetica,sans-Serif" font-size="10.00">fstream</text>
</g>
<!-- Node17&#45;&gt;Node18 -->
<g id="edge23" class="edge"><title>Node17&#45;&gt;Node18</title>
<path fill="none" stroke="midnightblue" d="M326.277,-113.244C262.091,-102.162 152.338,-82.4271 146,-76 134.174,-64.0079 131.964,-44.4021 132.231,-29.854"/>
<polygon fill="midnightblue" stroke="midnightblue" points="135.746,-29.7015 132.839,-19.5131 128.758,-29.2901 135.746,-29.7015"/>
</g>
<!-- Node19 -->
<g id="node19" class="node"><title>Node19</title>
<polygon fill="white" stroke="#bfbfbf" points="287,-56.5 287,-75.5 323,-75.5 323,-56.5 287,-56.5"/>
<text text-anchor="middle" x="305" y="-63.5" font-family="Helvetica,sans-Serif" font-size="10.00">map</text>
</g>
<!-- Node17&#45;&gt;Node19 -->
<g id="edge26" class="edge"><title>Node17&#45;&gt;Node19</title>
<path fill="none" stroke="midnightblue" d="M361.235,-112.324C351.234,-104.263 336.113,-92.0765 324.07,-82.3695"/>
<polygon fill="midnightblue" stroke="midnightblue" points="325.943,-79.3841 315.961,-75.8339 321.55,-84.8343 325.943,-79.3841"/>
</g>
<!-- Node20 -->
<g id="node20" class="node"><title>Node20</title>
<polygon fill="white" stroke="#bfbfbf" points="341.5,-56.5 341.5,-75.5 478.5,-75.5 478.5,-56.5 341.5,-56.5"/>
<text text-anchor="middle" x="410" y="-63.5" font-family="Helvetica,sans-Serif" font-size="10.00">boost/program_options.hpp</text>
</g>
<!-- Node17&#45;&gt;Node20 -->
<g id="edge27" class="edge"><title>Node17&#45;&gt;Node20</title>
<path fill="none" stroke="midnightblue" d="M378.275,-112.083C383.642,-104.455 391.518,-93.2645 398.079,-83.9408"/>
<polygon fill="midnightblue" stroke="midnightblue" points="400.949,-85.9434 403.842,-75.7511 395.225,-81.9149 400.949,-85.9434"/>
</g>
<!-- Node21 -->
<g id="node21" class="node"><title>Node21</title>
<g id="a_node21"><a xlink:href="../../d5/d84/config__impl_8hpp.html" target="_top" xlink:title="pfasst/config_impl.hpp">
<polygon fill="white" stroke="black" points="155,-56.5 155,-75.5 269,-75.5 269,-56.5 155,-56.5"/>
<text text-anchor="middle" x="212" y="-63.5" font-family="Helvetica,sans-Serif" font-size="10.00">pfasst/config_impl.hpp</text>
</a>
</g>
</g>
<!-- Node17&#45;&gt;Node21 -->
<g id="edge28" class="edge"><title>Node17&#45;&gt;Node21</title>
<path fill="none" stroke="midnightblue" d="M341.559,-112.444C312.775,-103.399 270.095,-89.064 241.597,-78.9158"/>
<polygon fill="midnightblue" stroke="midnightblue" points="242.748,-75.6106 232.154,-75.5164 240.377,-82.1968 242.748,-75.6106"/>
</g>
<!-- Node21&#45;&gt;Node17 -->
<g id="edge29" class="edge"><title>Node21&#45;&gt;Node17</title>
<path fill="none" stroke="midnightblue" d="M242.314,-75.5164C271.057,-84.5457 313.737,-98.8786 342.277,-109.039"/>
<polygon fill="midnightblue" stroke="midnightblue" points="341.142,-112.35 351.736,-112.444 343.512,-105.764 341.142,-112.35"/>
</g>
<!-- Node21&#45;&gt;Node18 -->
<g id="edge30" class="edge"><title>Node21&#45;&gt;Node18</title>
<path fill="none" stroke="midnightblue" d="M199.468,-56.324C187.414,-47.979 168.973,-35.2122 154.731,-25.3524"/>
<polygon fill="midnightblue" stroke="midnightblue" points="156.715,-22.469 146.501,-19.6545 152.731,-28.2243 156.715,-22.469"/>
</g>
<!-- Node22 -->
<g id="node22" class="node"><title>Node22</title>
<polygon fill="white" stroke="#bfbfbf" points="181.5,-0.5 181.5,-19.5 234.5,-19.5 234.5,-0.5 181.5,-0.5"/>
<text text-anchor="middle" x="208" y="-7.5" font-family="Helvetica,sans-Serif" font-size="10.00">sstream</text>
</g>
<!-- Node21&#45;&gt;Node22 -->
<g id="edge31" class="edge"><title>Node21&#45;&gt;Node22</title>
<path fill="none" stroke="midnightblue" d="M211.339,-56.083C210.815,-49.0059 210.064,-38.8611 209.406,-29.9865"/>
<polygon fill="midnightblue" stroke="midnightblue" points="212.877,-29.4652 208.648,-19.7511 205.897,-29.9823 212.877,-29.4652"/>
</g>
<!-- Node23 -->
<g id="node23" class="node"><title>Node23</title>
<polygon fill="white" stroke="#bfbfbf" points="253,-0.5 253,-19.5 291,-19.5 291,-0.5 253,-0.5"/>
<text text-anchor="middle" x="272" y="-7.5" font-family="Helvetica,sans-Serif" font-size="10.00">utility</text>
</g>
<!-- Node21&#45;&gt;Node23 -->
<g id="edge32" class="edge"><title>Node21&#45;&gt;Node23</title>
<path fill="none" stroke="midnightblue" d="M221.64,-56.324C230.51,-48.3414 243.875,-36.3128 254.608,-26.6529"/>
<polygon fill="midnightblue" stroke="midnightblue" points="257.093,-29.1251 262.185,-19.8339 252.41,-23.922 257.093,-29.1251"/>
</g>
<!-- Node25&#45;&gt;Node5 -->
<g id="edge35" class="edge"><title>Node25&#45;&gt;Node5</title>
<path fill="none" stroke="midnightblue" d="M113.24,-296.734C132.216,-285.818 164.846,-267.049 187.147,-254.221"/>
<polygon fill="midnightblue" stroke="midnightblue" points="189.079,-257.147 196.002,-249.127 185.588,-251.08 189.079,-257.147"/>
</g>
<!-- Node26 -->
<g id="node26" class="node"><title>Node26</title>
<g id="a_node26"><a xlink:href="../../dc/de8/polynomial__impl_8hpp.html" target="_top" xlink:title="pfasst/quadrature/polynomial\l_impl.hpp">
<polygon fill="white" stroke="black" points="25,-224.5 25,-254.5 171,-254.5 171,-224.5 25,-224.5"/>
<text text-anchor="start" x="33" y="-242.5" font-family="Helvetica,sans-Serif" font-size="10.00">pfasst/quadrature/polynomial</text>
<text text-anchor="middle" x="98" y="-231.5" font-family="Helvetica,sans-Serif" font-size="10.00">_impl.hpp</text>
</a>
</g>
</g>
<!-- Node25&#45;&gt;Node26 -->
<g id="edge36" class="edge"><title>Node25&#45;&gt;Node26</title>
<path fill="none" stroke="midnightblue" d="M93.2115,-296.734C91.4874,-288.541 90.8999,-275.923 91.4489,-264.714"/>
<polygon fill="midnightblue" stroke="midnightblue" points="94.9498,-264.853 92.3235,-254.589 87.9758,-264.251 94.9498,-264.853"/>
</g>
<!-- Node26&#45;&gt;Node4 -->
<g id="edge39" class="edge"><title>Node26&#45;&gt;Node4</title>
<path fill="none" stroke="midnightblue" d="M138.525,-224.399C167.728,-214.238 206.717,-200.672 234.449,-191.022"/>
<polygon fill="midnightblue" stroke="midnightblue" points="235.824,-194.25 244.118,-187.658 233.523,-187.639 235.824,-194.25"/>
</g>
<!-- Node26&#45;&gt;Node25 -->
<g id="edge37" class="edge"><title>Node26&#45;&gt;Node25</title>
<path fill="none" stroke="midnightblue" d="M103.676,-254.589C104.912,-264.001 105.081,-276.487 104.183,-286.739"/>
<polygon fill="midnightblue" stroke="midnightblue" points="100.703,-286.346 102.789,-296.734 107.636,-287.313 100.703,-286.346"/>
</g>
<!-- Node27 -->
<g id="node27" class="node"><title>Node27</title>
<polygon fill="white" stroke="#bfbfbf" points="0,-168.5 0,-187.5 58,-187.5 58,-168.5 0,-168.5"/>
<text text-anchor="middle" x="29" y="-175.5" font-family="Helvetica,sans-Serif" font-size="10.00">algorithm</text>
</g>
<!-- Node26&#45;&gt;Node27 -->
<g id="edge38" class="edge"><title>Node26&#45;&gt;Node27</title>
<path fill="none" stroke="midnightblue" d="M81.648,-224.399C71.1046,-215.308 57.4001,-203.49 46.6164,-194.191"/>
<polygon fill="midnightblue" stroke="midnightblue" points="48.899,-191.538 39.0401,-187.658 44.3276,-196.839 48.899,-191.538"/>
</g>
<!-- Node28 -->
<g id="node28" class="node"><title>Node28</title>
<polygon fill="white" stroke="#bfbfbf" points="76,-168.5 76,-187.5 120,-187.5 120,-168.5 76,-168.5"/>
<text text-anchor="middle" x="98" y="-175.5" font-family="Helvetica,sans-Serif" font-size="10.00">cmath</text>
</g>
<!-- Node26&#45;&gt;Node28 -->
<g id="edge40" class="edge"><title>Node26&#45;&gt;Node28</title>
<path fill="none" stroke="midnightblue" d="M98,-224.399C98,-216.466 98,-206.458 98,-197.858"/>
<polygon fill="midnightblue" stroke="midnightblue" points="101.5,-197.658 98,-187.658 94.5001,-197.658 101.5,-197.658"/>
</g>
<!-- Node29 -->
<g id="node29" class="node"><title>Node29</title>
<polygon fill="white" stroke="#bfbfbf" points="138.5,-168.5 138.5,-187.5 193.5,-187.5 193.5,-168.5 138.5,-168.5"/>
<text text-anchor="middle" x="166" y="-175.5" font-family="Helvetica,sans-Serif" font-size="10.00">complex</text>
</g>
<!-- Node26&#45;&gt;Node29 -->
<g id="edge41" class="edge"><title>Node26&#45;&gt;Node29</title>
<path fill="none" stroke="midnightblue" d="M114.115,-224.399C124.404,-215.397 137.747,-203.721 148.326,-194.465"/>
<polygon fill="midnightblue" stroke="midnightblue" points="150.884,-196.877 156.105,-187.658 146.275,-191.609 150.884,-196.877"/>
</g>
<!-- Node30&#45;&gt;Node3 -->
<g id="edge43" class="edge"><title>Node30&#45;&gt;Node3</title>
<path fill="none" stroke="midnightblue" d="M473.051,-321.523C441.207,-331.916 396.415,-345.903 363.819,-355.609"/>
<polygon fill="midnightblue" stroke="midnightblue" points="362.721,-352.284 354.123,-358.475 364.705,-358.997 362.721,-352.284"/>
</g>
</g>
</svg>
        <g id="navigator" transform="translate(0 0)" fill="#404254">
                <rect fill="#f2f5e9" fill-opacity="0.5" stroke="#606060" stroke-width=".5" x="0" y="0" width="60" height="60"/>
                <use id="zoomplus" xlink:href="#zoomPlus" x="17" y="9" onmousedown="handleZoom(evt,'in')"/>
                <use id="zoomminus" xlink:href="#zoomMin" x="42" y="9" onmousedown="handleZoom(evt,'out')"/>
                <use id="reset" xlink:href="#resetDef" x="30" y="36" onmousedown="handleReset()"/>
                <g id="arrowUp" xlink:href="#dirArrow" transform="translate(30 24)" onmousedown="handlePan(0,-1)">
                  <use xlink:href="#rim" fill="#404040">
                        <set attributeName="fill" to="#808080" begin="arrowUp.mouseover" end="arrowUp.mouseout"/>
                  </use>
                  <path fill="none" stroke="white" stroke-width="1.5" d="M0,-3.0v7 M-2.5,-0.5L0,-3.0L2.5,-0.5"/>
                </g>
                <g id="arrowRight" xlink:href="#dirArrow" transform="rotate(90) translate(36 -43)" onmousedown="handlePan(1,0)">
                  <use xlink:href="#rim" fill="#404040">
                        <set attributeName="fill" to="#808080" begin="arrowRight.mouseover" end="arrowRight.mouseout"/>
                  </use>
                  <path fill="none" stroke="white" stroke-width="1.5" d="M0,-3.0v7 M-2.5,-0.5L0,-3.0L2.5,-0.5"/>
                </g>
                <g id="arrowDown" xlink:href="#dirArrow" transform="rotate(180) translate(-30 -48)" onmousedown="handlePan(0,1)">
                  <use xlink:href="#rim" fill="#404040">
                        <set attributeName="fill" to="#808080" begin="arrowDown.mouseover" end="arrowDown.mouseout"/>
                  </use>
                  <path fill="none" stroke="white" stroke-width="1.5" d="M0,-3.0v7 M-2.5,-0.5L0,-3.0L2.5,-0.5"/>
                </g>
                <g id="arrowLeft" xlink:href="#dirArrow" transform="rotate(270) translate(-36 17)" onmousedown="handlePan(-1,0)">
                  <use xlink:href="#rim" fill="#404040">
                        <set attributeName="fill" to="#808080" begin="arrowLeft.mouseover" end="arrowLeft.mouseout"/>
                  </use>
                  <path fill="none" stroke="white" stroke-width="1.5" d="M0,-3.0v7 M-2.5,-0.5L0,-3.0L2.5,-0.5"/>
                </g>
        </g>
        <svg viewBox="0 0 15 15" width="100%" height="30px" preserveAspectRatio="xMaxYMin meet">
         <g id="arrow_out" transform="scale(0.3 0.3)">
          <a xlink:href="gauss__legendre__impl_8hpp__incl_org.svg" target="_base">
           <rect id="button" ry="5" rx="5" y="6" x="6" height="38" width="38"
                fill="#f2f5e9" fill-opacity="0.5" stroke="#606060" stroke-width="1.0"/>
           <path id="arrow"
             d="M 11.500037,31.436501 C 11.940474,20.09759 22.043105,11.32322 32.158766,21.979434 L 37.068811,17.246167 C 37.068811,17.246167 37.088388,32 37.088388,32 L 22.160133,31.978069 C 22.160133,31.978069 26.997745,27.140456 26.997745,27.140456 C 18.528582,18.264221 13.291696,25.230495 11.500037,31.436501 z"
             style="fill:#404040;"/>
          </a>
         </g>
        </svg>
</svg>
