<?xml version="1.0" encoding="UTF-8" standalone="no"?>
<!DOCTYPE svg PUBLIC "-//W3C//DTD SVG 1.1//EN"
 "http://www.w3.org/Graphics/SVG/1.1/DTD/svg11.dtd">
<!-- Generated by graphviz version 2.38.0 (20140413.2041)
 -->
<!-- Title: pfasst::examples::boris::Particle::pos Pages: 1 -->
<svg width="286pt" height="78pt"
 viewBox="0.00 0.00 286.00 77.50" xmlns="http://www.w3.org/2000/svg" xmlns:xlink="http://www.w3.org/1999/xlink">
<g id="graph0" class="graph" transform="scale(1 1) rotate(0) translate(4 73.5)">
<title>pfasst::examples::boris::Particle::pos</title>
<polygon fill="white" stroke="none" points="-4,4 -4,-73.5 282,-73.5 282,4 -4,4"/>
<!-- Node1 -->
<g id="node1" class="node"><title>Node1</title>
<polygon fill="#bfbfbf" stroke="black" points="0,-17 0,-47 121,-47 121,-17 0,-17"/>
<text text-anchor="start" x="8" y="-35" font-family="Helvetica,sans-Serif" font-size="10.00">pfasst::examples::boris</text>
<text text-anchor="middle" x="60.5" y="-24" font-family="Helvetica,sans-Serif" font-size="10.00">::Particle::pos</text>
</g>
<!-- Node2 -->
<g id="node2" class="node"><title>Node2</title>
<g id="a_node2"><a xlink:href="../../da/d74/namespacepfasst_1_1examples_1_1boris.html#a4c19b41b345edd4b7408c7458d40c971" target="_top" xlink:title="pfasst::examples::boris\l::distance">
<polygon fill="white" stroke="black" points="157,-39 157,-69 278,-69 278,-39 157,-39"/>
<text text-anchor="start" x="165" y="-57" font-family="Helvetica,sans-Serif" font-size="10.00">pfasst::examples::boris</text>
<text text-anchor="middle" x="217.5" y="-46" font-family="Helvetica,sans-Serif" font-size="10.00">::distance</text>
</a>
</g>
</g>
<!-- Node1&#45;&gt;Node2 -->
<g id="edge1" class="edge"><title>Node1&#45;&gt;Node2</title>
<path fill="none" stroke="midnightblue" d="M131.382,-41.9188C139.933,-43.1324 148.609,-44.3638 156.988,-45.5531"/>
<polygon fill="midnightblue" stroke="midnightblue" points="131.82,-38.4459 121.427,-40.5058 130.836,-45.3764 131.82,-38.4459"/>
</g>
<!-- Node3 -->
<g id="node3" class="node"><title>Node3</title>
<g id="a_node3"><a xlink:href="../../d8/d1a/test__boris__particle__util_8cpp.html#a6e9dd1c0c66b75e53226dbc016aa41c6" target="_top" xlink:title="TEST">
<polygon fill="white" stroke="black" points="195.5,-0.5 195.5,-19.5 239.5,-19.5 239.5,-0.5 195.5,-0.5"/>
<text text-anchor="middle" x="217.5" y="-7.5" font-family="Helvetica,sans-Serif" font-size="10.00">TEST</text>
</a>
</g>
</g>
<!-- Node1&#45;&gt;Node3 -->
<g id="edge2" class="edge"><title>Node1&#45;&gt;Node3</title>
<path fill="none" stroke="midnightblue" d="M131.62,-22.0474C154.774,-18.7611 178.813,-15.3491 195.373,-12.9987"/>
<polygon fill="midnightblue" stroke="midnightblue" points="130.836,-18.6236 121.427,-23.4942 131.82,-25.5541 130.836,-18.6236"/>
</g>
</g>
</svg>
