<?xml version="1.0" encoding="UTF-8" standalone="no"?>
<!DOCTYPE svg PUBLIC "-//W3C//DTD SVG 1.1//EN"
 "http://www.w3.org/Graphics/SVG/1.1/DTD/svg11.dtd">
<!-- Generated by graphviz version 2.38.0 (20140413.2041)
 -->
<!-- Title: Scalar Pages: 1 -->
<svg width="225pt" height="28pt"
 viewBox="0.00 0.00 225.00 28.00" xmlns="http://www.w3.org/2000/svg" xmlns:xlink="http://www.w3.org/1999/xlink">
<g id="graph0" class="graph" transform="scale(1 1) rotate(0) translate(4 24)">
<title>Scalar</title>
<polygon fill="white" stroke="none" points="-4,4 -4,-24 221,-24 221,4 -4,4"/>
<!-- Node2 -->
<g id="node1" class="node"><title>Node2</title>
<g id="a_node1"><a xlink:href="../../db/de7/group__ScalarFiles.html" target="_top" xlink:title="This directory contains a simple implementations of scalar ODE solver using the PFASST framework...">
<polygon fill="white" stroke="black" points="179,-0.5 179,-19.5 217,-19.5 217,-0.5 179,-0.5"/>
<text text-anchor="middle" x="198" y="-7.5" font-family="Helvetica,sans-Serif" font-size="10.00">Files</text>
</a>
</g>
</g>
<!-- Node1 -->
<g id="node2" class="node"><title>Node1</title>
<g id="a_node2"><a xlink:href="../../d4/dfb/group__Examples.html" target="_top" xlink:title="A few different examples demonstrating the use and functionality of PFASST++. ">
<polygon fill="white" stroke="black" points="0,-0.5 0,-19.5 61,-19.5 61,-0.5 0,-0.5"/>
<text text-anchor="middle" x="30.5" y="-7.5" font-family="Helvetica,sans-Serif" font-size="10.00">Examples</text>
</a>
</g>
</g>
<!-- Node0 -->
<g id="node3" class="node"><title>Node0</title>
<polygon fill="#bfbfbf" stroke="black" points="97,-0.5 97,-19.5 143,-19.5 143,-0.5 97,-0.5"/>
<text text-anchor="middle" x="120" y="-7.5" font-family="Helvetica,sans-Serif" font-size="10.00">Scalar</text>
</g>
<!-- Node1&#45;&gt;Node0 -->
<g id="edge1" class="edge"><title>Node1&#45;&gt;Node0</title>
<path fill="none" stroke="black" d="M71.268,-10C80.0679,-10 89.0844,-10 96.8777,-10"/>
<polygon fill="black" stroke="black" points="71.1235,-6.5001 61.1235,-10 71.1235,-13.5001 71.1235,-6.5001"/>
</g>
<!-- Node0&#45;&gt;Node2 -->
<g id="edge2" class="edge"><title>Node0&#45;&gt;Node2</title>
<path fill="none" stroke="black" d="M153.541,-10C162.114,-10 171.067,-10 178.603,-10"/>
<polygon fill="black" stroke="black" points="153.391,-6.5001 143.391,-10 153.391,-13.5001 153.391,-6.5001"/>
</g>
</g>
</svg>
