<?xml version="1.0" encoding="UTF-8" standalone="no"?>
<!DOCTYPE svg PUBLIC "-//W3C//DTD SVG 1.1//EN"
 "http://www.w3.org/Graphics/SVG/1.1/DTD/svg11.dtd">
<!-- Generated by graphviz version 2.38.0 (20140413.2041)
 -->
<!-- Title: pfasst::examples::scalar::run_scalar_sdc Pages: 1 -->
<svg width="278pt" height="225pt"
 viewBox="0.00 0.00 278.00 225.00" xmlns="http://www.w3.org/2000/svg" xmlns:xlink="http://www.w3.org/1999/xlink">
<g id="graph0" class="graph" transform="scale(1 1) rotate(0) translate(4 221)">
<title>pfasst::examples::scalar::run_scalar_sdc</title>
<polygon fill="white" stroke="none" points="-4,4 -4,-221 274,-221 274,4 -4,4"/>
<!-- Node1 -->
<g id="node1" class="node"><title>Node1</title>
<polygon fill="#bfbfbf" stroke="black" points="0,-93.5 0,-123.5 127,-123.5 127,-93.5 0,-93.5"/>
<text text-anchor="start" x="8" y="-111.5" font-family="Helvetica,sans-Serif" font-size="10.00">pfasst::examples::scalar</text>
<text text-anchor="middle" x="63.5" y="-100.5" font-family="Helvetica,sans-Serif" font-size="10.00">::run_scalar_sdc</text>
</g>
<!-- Node2 -->
<g id="node2" class="node"><title>Node2</title>
<g id="a_node2"><a xlink:href="../../d4/da9/classpfasst_1_1Controller.html#a8f4f8f025572e57fc5975902a4118fa9" target="_top" xlink:title="Adding a level to the controller. ">
<polygon fill="white" stroke="black" points="170.5,-186.5 170.5,-216.5 262.5,-216.5 262.5,-186.5 170.5,-186.5"/>
<text text-anchor="start" x="178.5" y="-204.5" font-family="Helvetica,sans-Serif" font-size="10.00">pfasst::Controller</text>
<text text-anchor="middle" x="216.5" y="-193.5" font-family="Helvetica,sans-Serif" font-size="10.00">::add_level</text>
</a>
</g>
</g>
<!-- Node1&#45;&gt;Node2 -->
<g id="edge1" class="edge"><title>Node1&#45;&gt;Node2</title>
<path fill="none" stroke="midnightblue" d="M83.7991,-123.608C103.17,-138.384 134.189,-161.007 163,-177.5 165.654,-179.019 168.421,-180.518 171.237,-181.978"/>
<polygon fill="midnightblue" stroke="midnightblue" points="169.804,-185.174 180.317,-186.494 172.922,-178.907 169.804,-185.174"/>
</g>
<!-- Node3 -->
<g id="node3" class="node"><title>Node3</title>
<g id="a_node3"><a xlink:href="../../de/d84/namespacepfasst_1_1quadrature.html#ac4700c0b6dc90b32b3f8af4070d0e62d" target="_top" xlink:title="Instantiates quadrature handler for given number of nodes and type descriptor. ">
<polygon fill="white" stroke="black" points="163,-137.5 163,-167.5 270,-167.5 270,-137.5 163,-137.5"/>
<text text-anchor="start" x="171" y="-155.5" font-family="Helvetica,sans-Serif" font-size="10.00">pfasst::quadrature</text>
<text text-anchor="middle" x="216.5" y="-144.5" font-family="Helvetica,sans-Serif" font-size="10.00">::quadrature_factory</text>
</a>
</g>
</g>
<!-- Node1&#45;&gt;Node3 -->
<g id="edge2" class="edge"><title>Node1&#45;&gt;Node3</title>
<path fill="none" stroke="midnightblue" d="M116.043,-123.519C128.245,-127.075 141.379,-130.902 153.975,-134.572"/>
<polygon fill="midnightblue" stroke="midnightblue" points="153.353,-138.036 163.933,-137.474 155.311,-131.316 153.353,-138.036"/>
</g>
<!-- Node4 -->
<g id="node4" class="node"><title>Node4</title>
<g id="a_node4"><a xlink:href="../../db/d4c/classpfasst_1_1SDC.html#abaf353cbe65d6c3545cbd5f4540cb74b" target="_top" xlink:title="Run vanilla SDC. ">
<polygon fill="white" stroke="black" points="171.5,-99 171.5,-118 261.5,-118 261.5,-99 171.5,-99"/>
<text text-anchor="middle" x="216.5" y="-106" font-family="Helvetica,sans-Serif" font-size="10.00">pfasst::SDC::run</text>
</a>
</g>
</g>
<!-- Node1&#45;&gt;Node4 -->
<g id="edge3" class="edge"><title>Node1&#45;&gt;Node4</title>
<path fill="none" stroke="midnightblue" d="M127.226,-108.5C138.402,-108.5 149.962,-108.5 160.889,-108.5"/>
<polygon fill="midnightblue" stroke="midnightblue" points="161.137,-112 171.137,-108.5 161.137,-105 161.137,-112"/>
</g>
<!-- Node5 -->
<g id="node5" class="node"><title>Node5</title>
<g id="a_node5"><a xlink:href="../../d4/da9/classpfasst_1_1Controller.html#af31a86d9ccd9db325532c5ae3a5764f0" target="_top" xlink:title="Set basic time scope of the Controller. ">
<polygon fill="white" stroke="black" points="170.5,-49.5 170.5,-79.5 262.5,-79.5 262.5,-49.5 170.5,-49.5"/>
<text text-anchor="start" x="178.5" y="-67.5" font-family="Helvetica,sans-Serif" font-size="10.00">pfasst::Controller</text>
<text text-anchor="middle" x="216.5" y="-56.5" font-family="Helvetica,sans-Serif" font-size="10.00">::set_duration</text>
</a>
</g>
</g>
<!-- Node1&#45;&gt;Node5 -->
<g id="edge4" class="edge"><title>Node1&#45;&gt;Node5</title>
<path fill="none" stroke="midnightblue" d="M116.043,-93.4808C130.343,-89.3139 145.922,-84.7743 160.416,-80.5509"/>
<polygon fill="midnightblue" stroke="midnightblue" points="161.626,-83.844 170.248,-77.6861 159.668,-77.1235 161.626,-83.844"/>
</g>
<!-- Node6 -->
<g id="node6" class="node"><title>Node6</title>
<g id="a_node6"><a xlink:href="../../d4/da9/classpfasst_1_1Controller.html#a83d8b318cd15436d5910039313daab9f" target="_top" xlink:title="Basic setup routine for this controller. ">
<polygon fill="white" stroke="black" points="170.5,-0.5 170.5,-30.5 262.5,-30.5 262.5,-0.5 170.5,-0.5"/>
<text text-anchor="start" x="178.5" y="-18.5" font-family="Helvetica,sans-Serif" font-size="10.00">pfasst::Controller</text>
<text text-anchor="middle" x="216.5" y="-7.5" font-family="Helvetica,sans-Serif" font-size="10.00">::setup</text>
</a>
</g>
</g>
<!-- Node1&#45;&gt;Node6 -->
<g id="edge5" class="edge"><title>Node1&#45;&gt;Node6</title>
<path fill="none" stroke="midnightblue" d="M84.2574,-93.4604C103.719,-78.9869 134.578,-56.9367 163,-40.5 166.157,-38.6743 169.468,-36.866 172.828,-35.1066"/>
<polygon fill="midnightblue" stroke="midnightblue" points="174.418,-38.2244 181.759,-30.5851 171.257,-31.9791 174.418,-38.2244"/>
</g>
</g>
</svg>
