<?xml version="1.0" encoding="UTF-8" standalone="no"?>
<!DOCTYPE svg PUBLIC "-//W3C//DTD SVG 1.1//EN"
 "http://www.w3.org/Graphics/SVG/1.1/DTD/svg11.dtd">
<!-- Generated by graphviz version 2.38.0 (20140413.2041)
 -->
<!-- Title: pfasst::examples::scalar::run_scalar_sdc Pages: 1 -->
<svg width="303pt" height="116pt"
 viewBox="0.00 0.00 303.00 115.50" xmlns="http://www.w3.org/2000/svg" xmlns:xlink="http://www.w3.org/1999/xlink">
<g id="graph0" class="graph" transform="scale(1 1) rotate(0) translate(4 111.5)">
<title>pfasst::examples::scalar::run_scalar_sdc</title>
<polygon fill="white" stroke="none" points="-4,4 -4,-111.5 299,-111.5 299,4 -4,4"/>
<!-- Node1 -->
<g id="node1" class="node"><title>Node1</title>
<polygon fill="#bfbfbf" stroke="black" points="0,-44.5 0,-74.5 127,-74.5 127,-44.5 0,-44.5"/>
<text text-anchor="start" x="8" y="-62.5" font-family="Helvetica,sans-Serif" font-size="10.00">pfasst::examples::scalar</text>
<text text-anchor="middle" x="63.5" y="-51.5" font-family="Helvetica,sans-Serif" font-size="10.00">::run_scalar_sdc</text>
</g>
<!-- Node2 -->
<g id="node2" class="node"><title>Node2</title>
<g id="a_node2"><a xlink:href="../../d2/daf/scalar__sdc_8cpp.html#a3c04138a5bfe5d72780bb7e82a18e627" target="_top" xlink:title="main">
<polygon fill="white" stroke="black" points="210,-88 210,-107 248,-107 248,-88 210,-88"/>
<text text-anchor="middle" x="229" y="-95" font-family="Helvetica,sans-Serif" font-size="10.00">main</text>
</a>
</g>
</g>
<!-- Node1&#45;&gt;Node2 -->
<g id="edge1" class="edge"><title>Node1&#45;&gt;Node2</title>
<path fill="none" stroke="midnightblue" d="M137.042,-76.3599C163.855,-82.5916 192.006,-89.1344 209.76,-93.2607"/>
<polygon fill="midnightblue" stroke="midnightblue" points="137.779,-72.9379 127.246,-74.0831 136.194,-79.7561 137.779,-72.9379"/>
</g>
<!-- Node3 -->
<g id="node3" class="node"><title>Node3</title>
<g id="a_node3"><a xlink:href="../../d3/d6a/classConvergenceTest.html#a18a32024b87b7ee689df7e0375ea8ede" target="_top" xlink:title="ConvergenceTest::SetUp">
<polygon fill="white" stroke="black" points="163,-50 163,-69 295,-69 295,-50 163,-50"/>
<text text-anchor="middle" x="229" y="-57" font-family="Helvetica,sans-Serif" font-size="10.00">ConvergenceTest::SetUp</text>
</a>
</g>
</g>
<!-- Node1&#45;&gt;Node3 -->
<g id="edge2" class="edge"><title>Node1&#45;&gt;Node3</title>
<path fill="none" stroke="midnightblue" d="M137.511,-59.5C145.999,-59.5 154.614,-59.5 162.984,-59.5"/>
<polygon fill="midnightblue" stroke="midnightblue" points="137.246,-56.0001 127.246,-59.5 137.246,-63.0001 137.246,-56.0001"/>
</g>
<!-- Node4 -->
<g id="node4" class="node"><title>Node4</title>
<g id="a_node4"><a xlink:href="../../d1/dee/classHighPrecisionTest.html#a1d448fa5c3fe1a3f2f60cd1fb77dba08" target="_top" xlink:title="HighPrecisionTest::\lSetUp">
<polygon fill="white" stroke="black" points="176,-0.5 176,-30.5 282,-30.5 282,-0.5 176,-0.5"/>
<text text-anchor="start" x="184" y="-18.5" font-family="Helvetica,sans-Serif" font-size="10.00">HighPrecisionTest::</text>
<text text-anchor="middle" x="229" y="-7.5" font-family="Helvetica,sans-Serif" font-size="10.00">SetUp</text>
</a>
</g>
</g>
<!-- Node1&#45;&gt;Node4 -->
<g id="edge3" class="edge"><title>Node1&#45;&gt;Node4</title>
<path fill="none" stroke="midnightblue" d="M130.142,-41.835C145.307,-37.7539 161.242,-33.4656 175.746,-29.5622"/>
<polygon fill="midnightblue" stroke="midnightblue" points="129.057,-38.5023 120.31,-44.4808 130.876,-45.2618 129.057,-38.5023"/>
</g>
</g>
</svg>
