<?xml version="1.0" encoding="UTF-8" standalone="no"?>
<!DOCTYPE svg PUBLIC "-//W3C//DTD SVG 1.1//EN"
 "http://www.w3.org/Graphics/SVG/1.1/DTD/svg11.dtd">
<!-- Generated by graphviz version 2.38.0 (20140413.2041)
 -->
<!-- Title: pfasst::encap::EncapFactory&lt; time &gt; Pages: 1 -->
<svg width="316pt" height="398pt"
 viewBox="0.00 0.00 316.00 398.00" xmlns="http://www.w3.org/2000/svg" xmlns:xlink="http://www.w3.org/1999/xlink">
<g id="graph0" class="graph" transform="scale(1 1) rotate(0) translate(4 394)">
<title>pfasst::encap::EncapFactory&lt; time &gt;</title>
<polygon fill="white" stroke="none" points="-4,4 -4,-394 312,-394 312,4 -4,4"/>
<!-- Node1 -->
<g id="node1" class="node"><title>Node1</title>
<polygon fill="#bfbfbf" stroke="black" points="50,-321.5 50,-389.5 194,-389.5 194,-321.5 50,-321.5"/>
<text text-anchor="start" x="58" y="-377.5" font-family="Helvetica,sans-Serif" font-size="10.00">pfasst::encap::EncapFactory</text>
<text text-anchor="middle" x="122" y="-366.5" font-family="Helvetica,sans-Serif" font-size="10.00">&lt; time &gt;</text>
<polyline fill="none" stroke="black" points="50,-359.5 194,-359.5 "/>
<text text-anchor="middle" x="122" y="-347.5" font-family="Helvetica,sans-Serif" font-size="10.00"> </text>
<polyline fill="none" stroke="black" points="50,-340.5 194,-340.5 "/>
<text text-anchor="start" x="58" y="-328.5" font-family="Helvetica,sans-Serif" font-size="10.00">+ create()</text>
</g>
<!-- Node2 -->
<g id="node2" class="node"><title>Node2</title>
<g id="a_node2"><a xlink:href="../../d9/d1b/classpfasst_1_1encap_1_1VectorFactory.html" target="_top" xlink:title="{pfasst::encap::VectorFactory\l\&lt; time \&gt;\n|# size\l|+ VectorFactory()\l+ create()\l+ dofs()\l}">
<polygon fill="white" stroke="black" points="0,-183.5 0,-273.5 146,-273.5 146,-183.5 0,-183.5"/>
<text text-anchor="start" x="8" y="-261.5" font-family="Helvetica,sans-Serif" font-size="10.00">pfasst::encap::VectorFactory</text>
<text text-anchor="middle" x="73" y="-250.5" font-family="Helvetica,sans-Serif" font-size="10.00">&lt; time &gt;</text>
<polyline fill="none" stroke="black" points="0,-243.5 146,-243.5 "/>
<text text-anchor="start" x="8" y="-231.5" font-family="Helvetica,sans-Serif" font-size="10.00"># size</text>
<polyline fill="none" stroke="black" points="0,-224.5 146,-224.5 "/>
<text text-anchor="start" x="8" y="-212.5" font-family="Helvetica,sans-Serif" font-size="10.00">+ VectorFactory()</text>
<text text-anchor="start" x="8" y="-201.5" font-family="Helvetica,sans-Serif" font-size="10.00">+ create()</text>
<text text-anchor="start" x="8" y="-190.5" font-family="Helvetica,sans-Serif" font-size="10.00">+ dofs()</text>
</a>
</g>
</g>
<!-- Node1&#45;&gt;Node2 -->
<g id="edge1" class="edge"><title>Node1&#45;&gt;Node2</title>
<path fill="none" stroke="midnightblue" d="M105.245,-311.758C100.426,-299.465 95.1621,-286.036 90.3106,-273.66"/>
<polygon fill="none" stroke="midnightblue" points="102.089,-313.298 108.998,-321.33 108.606,-310.743 102.089,-313.298"/>
</g>
<!-- Node3 -->
<g id="node3" class="node"><title>Node3</title>
<g id="a_node3"><a xlink:href="../../d0/d51/classpfasst_1_1encap_1_1EncapFactory.html" target="_top" xlink:title="{pfasst::encap::EncapFactory\l\&lt; precision \&gt;\n||+ create()\l}">
<polygon fill="white" stroke="black" points="164,-194.5 164,-262.5 308,-262.5 308,-194.5 164,-194.5"/>
<text text-anchor="start" x="172" y="-250.5" font-family="Helvetica,sans-Serif" font-size="10.00">pfasst::encap::EncapFactory</text>
<text text-anchor="middle" x="236" y="-239.5" font-family="Helvetica,sans-Serif" font-size="10.00">&lt; precision &gt;</text>
<polyline fill="none" stroke="black" points="164,-232.5 308,-232.5 "/>
<text text-anchor="middle" x="236" y="-220.5" font-family="Helvetica,sans-Serif" font-size="10.00"> </text>
<polyline fill="none" stroke="black" points="164,-213.5 308,-213.5 "/>
<text text-anchor="start" x="172" y="-201.5" font-family="Helvetica,sans-Serif" font-size="10.00">+ create()</text>
</a>
</g>
</g>
<!-- Node1&#45;&gt;Node3 -->
<g id="edge2" class="edge"><title>Node1&#45;&gt;Node3</title>
<path fill="none" stroke="orange" d="M159.008,-313.922C174.08,-297.395 191.288,-278.526 205.608,-262.825"/>
<polygon fill="orange" stroke="orange" points="156.403,-311.583 152.251,-321.33 161.575,-316.3 156.403,-311.583"/>
<text text-anchor="middle" x="210" y="-295" font-family="Helvetica,sans-Serif" font-size="10.00"> &lt; precision &gt;</text>
</g>
<!-- Node4 -->
<g id="node4" class="node"><title>Node4</title>
<g id="a_node4"><a xlink:href="../../df/d69/classpfasst_1_1examples_1_1boris_1_1ParticleCloudFactory.html" target="_top" xlink:title="{pfasst::examples::boris\l::ParticleCloudFactory\l\&lt; precision \&gt;\n|&#45; _num_particles\l&#45; _dim\l&#45; _default_charge\l&#45; _default_mass\l|+ ParticleCloudFactory()\l+ num_particles()\l+ dim()\l+ create()\l}">
<polygon fill="white" stroke="black" points="173,-0.5 173,-145.5 299,-145.5 299,-0.5 173,-0.5"/>
<text text-anchor="start" x="181" y="-133.5" font-family="Helvetica,sans-Serif" font-size="10.00">pfasst::examples::boris</text>
<text text-anchor="start" x="181" y="-122.5" font-family="Helvetica,sans-Serif" font-size="10.00">::ParticleCloudFactory</text>
<text text-anchor="middle" x="236" y="-111.5" font-family="Helvetica,sans-Serif" font-size="10.00">&lt; precision &gt;</text>
<polyline fill="none" stroke="black" points="173,-104.5 299,-104.5 "/>
<text text-anchor="start" x="181" y="-92.5" font-family="Helvetica,sans-Serif" font-size="10.00">&#45; _num_particles</text>
<text text-anchor="start" x="181" y="-81.5" font-family="Helvetica,sans-Serif" font-size="10.00">&#45; _dim</text>
<text text-anchor="start" x="181" y="-70.5" font-family="Helvetica,sans-Serif" font-size="10.00">&#45; _default_charge</text>
<text text-anchor="start" x="181" y="-59.5" font-family="Helvetica,sans-Serif" font-size="10.00">&#45; _default_mass</text>
<polyline fill="none" stroke="black" points="173,-52.5 299,-52.5 "/>
<text text-anchor="start" x="181" y="-40.5" font-family="Helvetica,sans-Serif" font-size="10.00">+ ParticleCloudFactory()</text>
<text text-anchor="start" x="181" y="-29.5" font-family="Helvetica,sans-Serif" font-size="10.00">+ num_particles()</text>
<text text-anchor="start" x="181" y="-18.5" font-family="Helvetica,sans-Serif" font-size="10.00">+ dim()</text>
<text text-anchor="start" x="181" y="-7.5" font-family="Helvetica,sans-Serif" font-size="10.00">+ create()</text>
</a>
</g>
</g>
<!-- Node3&#45;&gt;Node4 -->
<g id="edge3" class="edge"><title>Node3&#45;&gt;Node4</title>
<path fill="none" stroke="midnightblue" d="M236,-184.062C236,-172.096 236,-158.791 236,-145.684"/>
<polygon fill="none" stroke="midnightblue" points="232.5,-184.193 236,-194.193 239.5,-184.193 232.5,-184.193"/>
</g>
</g>
</svg>
