<?xml version="1.0" encoding="UTF-8" standalone="no"?>
<!DOCTYPE svg PUBLIC "-//W3C//DTD SVG 1.1//EN"
 "http://www.w3.org/Graphics/SVG/1.1/DTD/svg11.dtd">
<!-- Generated by graphviz version 2.38.0 (20140413.2041)
 -->
<!-- Title: src/pfasst/encap/encapsulation_impl.hpp Pages: 1 -->
<!--zoomable 431 -->
<svg id="main" version="1.1" xmlns="http://www.w3.org/2000/svg" xmlns:xlink="http://www.w3.org/1999/xlink" xml:space="preserve" onload="init(evt)">
<style type="text/css"><![CDATA[
.edge:hover path { stroke: red; }
.edge:hover polygon { stroke: red; fill: red; }
]]></style>
<script type="text/javascript"><![CDATA[
var edges = document.getElementsByTagName('g');
if (edges && edges.length) {
  for (var i=0;i<edges.length;i++) {
    if (edges[i].id.substr(0,4)=='edge') {
      edges[i].setAttribute('class','edge');
    }
  }
}
]]></script>
        <defs>
                <circle id="rim" cx="0" cy="0" r="7"/>
                <circle id="rim2" cx="0" cy="0" r="3.5"/>
                <g id="zoomPlus">
                        <use xlink:href="#rim" fill="#404040">
                                <set attributeName="fill" to="#808080" begin="zoomplus.mouseover" end="zoomplus.mouseout"/>
                        </use>
                        <path d="M-4,0h8M0,-4v8" fill="none" stroke="white" stroke-width="1.5" pointer-events="none"/>
                </g>
                <g id="zoomMin">
                        <use xlink:href="#rim" fill="#404040">
                                <set attributeName="fill" to="#808080" begin="zoomminus.mouseover" end="zoomminus.mouseout"/>
                        </use>
                        <path d="M-4,0h8" fill="none" stroke="white" stroke-width="1.5" pointer-events="none"/>
                </g>
                <g id="dirArrow">
                        <path fill="none" stroke="white" stroke-width="1.5" d="M0,-3.0v7 M-2.5,-0.5L0,-3.0L2.5,-0.5"/>
                </g>
               <g id="resetDef">
                       <use xlink:href="#rim2" fill="#404040">
                               <set attributeName="fill" to="#808080" begin="reset.mouseover" end="reset.mouseout"/>
                       </use>
               </g>
        </defs>

<script type="text/javascript">
var viewWidth = 761;
var viewHeight = 431;
var sectionId = 'dynsection-0';
</script>
<script xlink:href="../../svgpan.js"/>
<svg id="graph" class="graph">
<g id="viewport">
<title>src/pfasst/encap/encapsulation_impl.hpp</title>
<polygon fill="white" stroke="none" points="-4,4 -4,-427 757.354,-427 757.354,4 -4,4"/>
<!-- Node1 -->
<g id="node1" class="node"><title>Node1</title>
<polygon fill="#bfbfbf" stroke="black" points="40.8543,-392.5 40.8543,-422.5 195.854,-422.5 195.854,-392.5 40.8543,-392.5"/>
<text text-anchor="start" x="48.8543" y="-410.5" font-family="Helvetica,sans-Serif" font-size="10.00">src/pfasst/encap/encapsulation</text>
<text text-anchor="middle" x="118.354" y="-399.5" font-family="Helvetica,sans-Serif" font-size="10.00">_impl.hpp</text>
</g>
<!-- Node2 -->
<g id="node2" class="node"><title>Node2</title>
<g id="a_node2"><a xlink:href="../../d8/d85/encapsulation_8hpp.html" target="_top" xlink:title="pfasst/encap/encapsulation.hpp">
<polygon fill="white" stroke="black" points="39.8543,-336.5 39.8543,-355.5 196.854,-355.5 196.854,-336.5 39.8543,-336.5"/>
<text text-anchor="middle" x="118.354" y="-343.5" font-family="Helvetica,sans-Serif" font-size="10.00">pfasst/encap/encapsulation.hpp</text>
</a>
</g>
</g>
<!-- Node1&#45;&gt;Node2 -->
<g id="edge1" class="edge"><title>Node1&#45;&gt;Node2</title>
<path fill="none" stroke="midnightblue" d="M112.514,-392.399C111.484,-384.377 111.329,-374.233 112.047,-365.569"/>
<polygon fill="midnightblue" stroke="midnightblue" points="115.515,-366.044 113.425,-355.658 108.581,-365.081 115.515,-366.044"/>
</g>
<!-- Node11 -->
<g id="node11" class="node"><title>Node11</title>
<g id="a_node11"><a xlink:href="../../d5/d82/globals_8hpp.html" target="_top" xlink:title="pfasst/globals.hpp">
<polygon fill="white" stroke="black" points="395.854,-168.5 395.854,-187.5 492.854,-187.5 492.854,-168.5 395.854,-168.5"/>
<text text-anchor="middle" x="444.354" y="-175.5" font-family="Helvetica,sans-Serif" font-size="10.00">pfasst/globals.hpp</text>
</a>
</g>
</g>
<!-- Node1&#45;&gt;Node11 -->
<g id="edge33" class="edge"><title>Node1&#45;&gt;Node11</title>
<path fill="none" stroke="midnightblue" d="M143.727,-392.323C161.213,-382.419 184.896,-368.74 205.354,-356 243.442,-332.282 252.978,-326.268 289.354,-300 339.769,-263.595 396.915,-217.735 425.689,-194.308"/>
<polygon fill="midnightblue" stroke="midnightblue" points="428.136,-196.828 433.668,-187.793 423.709,-191.406 428.136,-196.828"/>
</g>
<!-- Node2&#45;&gt;Node1 -->
<g id="edge32" class="edge"><title>Node2&#45;&gt;Node1</title>
<path fill="none" stroke="midnightblue" d="M123.284,-355.658C124.789,-362.655 125.361,-372.857 124.999,-382.289"/>
<polygon fill="midnightblue" stroke="midnightblue" points="121.499,-382.153 124.194,-392.399 128.477,-382.709 121.499,-382.153"/>
</g>
<!-- Node3 -->
<g id="node3" class="node"><title>Node3</title>
<polygon fill="white" stroke="#bfbfbf" points="2.8543,-168.5 2.8543,-187.5 55.8543,-187.5 55.8543,-168.5 2.8543,-168.5"/>
<text text-anchor="middle" x="29.3543" y="-175.5" font-family="Helvetica,sans-Serif" font-size="10.00">memory</text>
</g>
<!-- Node2&#45;&gt;Node3 -->
<g id="edge2" class="edge"><title>Node2&#45;&gt;Node3</title>
<path fill="none" stroke="midnightblue" d="M66.8238,-336.44C45.6211,-330.104 23.0864,-319.098 10.3543,-300 -10.6907,-268.432 6.82764,-222.093 19.3785,-196.905"/>
<polygon fill="midnightblue" stroke="midnightblue" points="22.6137,-198.273 24.1694,-187.793 16.4178,-195.015 22.6137,-198.273"/>
</g>
<!-- Node4 -->
<g id="node4" class="node"><title>Node4</title>
<polygon fill="white" stroke="#bfbfbf" points="19.3543,-280.5 19.3543,-299.5 63.3543,-299.5 63.3543,-280.5 19.3543,-280.5"/>
<text text-anchor="middle" x="41.3543" y="-287.5" font-family="Helvetica,sans-Serif" font-size="10.00">vector</text>
</g>
<!-- Node2&#45;&gt;Node4 -->
<g id="edge3" class="edge"><title>Node2&#45;&gt;Node4</title>
<path fill="none" stroke="midnightblue" d="M105.983,-336.324C94.1958,-328.058 76.222,-315.453 62.2188,-305.632"/>
<polygon fill="midnightblue" stroke="midnightblue" points="63.8919,-302.531 53.695,-299.655 59.8727,-308.262 63.8919,-302.531"/>
</g>
<!-- Node5 -->
<g id="node5" class="node"><title>Node5</title>
<polygon fill="white" stroke="#bfbfbf" points="80.8543,-280.5 80.8543,-299.5 155.854,-299.5 155.854,-280.5 80.8543,-280.5"/>
<text text-anchor="middle" x="118.354" y="-287.5" font-family="Helvetica,sans-Serif" font-size="10.00">Eigen/Dense</text>
</g>
<!-- Node2&#45;&gt;Node5 -->
<g id="edge4" class="edge"><title>Node2&#45;&gt;Node5</title>
<path fill="none" stroke="midnightblue" d="M118.354,-336.083C118.354,-329.006 118.354,-318.861 118.354,-309.986"/>
<polygon fill="midnightblue" stroke="midnightblue" points="121.854,-309.751 118.354,-299.751 114.854,-309.751 121.854,-309.751"/>
</g>
<!-- Node6 -->
<g id="node6" class="node"><title>Node6</title>
<g id="a_node6"><a xlink:href="../../d1/d1b/interfaces_8hpp.html" target="_top" xlink:title="interfaces for SDC/MLSDC/PFASST algorithms. ">
<polygon fill="white" stroke="black" points="173.854,-280.5 173.854,-299.5 280.854,-299.5 280.854,-280.5 173.854,-280.5"/>
<text text-anchor="middle" x="227.354" y="-287.5" font-family="Helvetica,sans-Serif" font-size="10.00">pfasst/interfaces.hpp</text>
</a>
</g>
</g>
<!-- Node2&#45;&gt;Node6 -->
<g id="edge5" class="edge"><title>Node2&#45;&gt;Node6</title>
<path fill="none" stroke="midnightblue" d="M135.867,-336.324C153.427,-327.625 180.686,-314.12 200.886,-304.113"/>
<polygon fill="midnightblue" stroke="midnightblue" points="202.478,-307.23 209.885,-299.655 199.371,-300.958 202.478,-307.23"/>
</g>
<!-- Node6&#45;&gt;Node3 -->
<g id="edge6" class="edge"><title>Node6&#45;&gt;Node3</title>
<path fill="none" stroke="midnightblue" d="M173.661,-281.483C127.693,-274.003 66.1878,-261.167 48.3543,-244 35.9229,-232.033 31.5006,-212.424 29.99,-197.868"/>
<polygon fill="midnightblue" stroke="midnightblue" points="33.458,-197.267 29.3054,-187.52 26.4733,-197.73 33.458,-197.267"/>
</g>
<!-- Node7 -->
<g id="node7" class="node"><title>Node7</title>
<polygon fill="white" stroke="#bfbfbf" points="57.3543,-224.5 57.3543,-243.5 117.354,-243.5 117.354,-224.5 57.3543,-224.5"/>
<text text-anchor="middle" x="87.3543" y="-231.5" font-family="Helvetica,sans-Serif" font-size="10.00">stdexcept</text>
</g>
<!-- Node6&#45;&gt;Node7 -->
<g id="edge7" class="edge"><title>Node6&#45;&gt;Node7</title>
<path fill="none" stroke="midnightblue" d="M205.171,-280.444C181.926,-271.478 145.205,-257.314 118.939,-247.183"/>
<polygon fill="midnightblue" stroke="midnightblue" points="120.024,-243.85 109.434,-243.516 117.504,-250.381 120.024,-243.85"/>
</g>
<!-- Node8 -->
<g id="node8" class="node"><title>Node8</title>
<polygon fill="white" stroke="#bfbfbf" points="181.854,-56.5 181.854,-75.5 222.854,-75.5 222.854,-56.5 181.854,-56.5"/>
<text text-anchor="middle" x="202.354" y="-63.5" font-family="Helvetica,sans-Serif" font-size="10.00">string</text>
</g>
<!-- Node6&#45;&gt;Node8 -->
<g id="edge8" class="edge"><title>Node6&#45;&gt;Node8</title>
<path fill="none" stroke="midnightblue" d="M206.507,-280.427C191.776,-273.129 173.149,-261.091 164.354,-244 136.724,-190.309 171.969,-117.515 191.277,-84.5313"/>
<polygon fill="midnightblue" stroke="midnightblue" points="194.477,-86.0038 196.67,-75.6384 188.492,-82.3738 194.477,-86.0038"/>
</g>
<!-- Node9 -->
<g id="node9" class="node"><title>Node9</title>
<g id="a_node9"><a xlink:href="../../d8/dc4/interfaces__impl_8hpp.html" target="_top" xlink:title="pfasst/interfaces_impl.hpp">
<polygon fill="white" stroke="black" points="173.854,-224.5 173.854,-243.5 304.854,-243.5 304.854,-224.5 173.854,-224.5"/>
<text text-anchor="middle" x="239.354" y="-231.5" font-family="Helvetica,sans-Serif" font-size="10.00">pfasst/interfaces_impl.hpp</text>
</a>
</g>
</g>
<!-- Node6&#45;&gt;Node9 -->
<g id="edge9" class="edge"><title>Node6&#45;&gt;Node9</title>
<path fill="none" stroke="midnightblue" d="M224.17,-280.083C224.251,-272.849 226.148,-262.409 228.83,-253.397"/>
<polygon fill="midnightblue" stroke="midnightblue" points="232.208,-254.346 232.279,-243.751 225.617,-251.989 232.208,-254.346"/>
</g>
<!-- Node9&#45;&gt;Node3 -->
<g id="edge12" class="edge"><title>Node9&#45;&gt;Node3</title>
<path fill="none" stroke="midnightblue" d="M206.079,-224.444C167.885,-214.622 105.435,-198.564 65.9124,-188.401"/>
<polygon fill="midnightblue" stroke="midnightblue" points="66.7,-184.989 56.1434,-185.889 64.9566,-191.769 66.7,-184.989"/>
</g>
<!-- Node9&#45;&gt;Node6 -->
<g id="edge10" class="edge"><title>Node9&#45;&gt;Node6</title>
<path fill="none" stroke="midnightblue" d="M242.541,-243.751C242.487,-250.936 240.61,-261.362 237.94,-270.396"/>
<polygon fill="midnightblue" stroke="midnightblue" points="234.548,-269.488 234.502,-280.083 241.145,-271.829 234.548,-269.488"/>
</g>
<!-- Node9&#45;&gt;Node8 -->
<g id="edge13" class="edge"><title>Node9&#45;&gt;Node8</title>
<path fill="none" stroke="midnightblue" d="M229.559,-224.497C220.806,-216.2 208.581,-202.706 203.354,-188 191.086,-153.482 195.067,-109.845 198.853,-85.5289"/>
<polygon fill="midnightblue" stroke="midnightblue" points="202.325,-85.9917 200.572,-75.5429 195.426,-84.8043 202.325,-85.9917"/>
</g>
<!-- Node10 -->
<g id="node10" class="node"><title>Node10</title>
<polygon fill="white" stroke="#bfbfbf" points="212.354,-168.5 212.354,-187.5 262.354,-187.5 262.354,-168.5 212.354,-168.5"/>
<text text-anchor="middle" x="237.354" y="-175.5" font-family="Helvetica,sans-Serif" font-size="10.00">cassert</text>
</g>
<!-- Node9&#45;&gt;Node10 -->
<g id="edge11" class="edge"><title>Node9&#45;&gt;Node10</title>
<path fill="none" stroke="midnightblue" d="M239.024,-224.083C238.762,-217.006 238.386,-206.861 238.057,-197.986"/>
<polygon fill="midnightblue" stroke="midnightblue" points="241.546,-197.615 237.678,-187.751 234.551,-197.874 241.546,-197.615"/>
</g>
<!-- Node9&#45;&gt;Node11 -->
<g id="edge14" class="edge"><title>Node9&#45;&gt;Node11</title>
<path fill="none" stroke="midnightblue" d="M271.837,-224.444C307.074,-215.162 363.458,-200.309 402.113,-190.127"/>
<polygon fill="midnightblue" stroke="midnightblue" points="403.245,-193.448 412.023,-187.516 401.462,-186.679 403.245,-193.448"/>
</g>
<!-- Node12 -->
<g id="node12" class="node"><title>Node12</title>
<g id="a_node12"><a xlink:href="../../d0/da9/logging_8hpp.html" target="_top" xlink:title="pfasst/logging.hpp">
<polygon fill="white" stroke="black" points="280.354,-168.5 280.354,-187.5 378.354,-187.5 378.354,-168.5 280.354,-168.5"/>
<text text-anchor="middle" x="329.354" y="-175.5" font-family="Helvetica,sans-Serif" font-size="10.00">pfasst/logging.hpp</text>
</a>
</g>
</g>
<!-- Node9&#45;&gt;Node12 -->
<g id="edge15" class="edge"><title>Node9&#45;&gt;Node12</title>
<path fill="none" stroke="midnightblue" d="M253.814,-224.324C267.854,-215.9 289.403,-202.971 305.897,-193.074"/>
<polygon fill="midnightblue" stroke="midnightblue" points="308.156,-195.801 314.93,-187.655 304.554,-189.798 308.156,-195.801"/>
</g>
<!-- Node12&#45;&gt;Node8 -->
<g id="edge18" class="edge"><title>Node12&#45;&gt;Node8</title>
<path fill="none" stroke="midnightblue" d="M303.181,-168.354C284.044,-161.019 258.387,-148.966 240.354,-132 226.258,-118.737 215.756,-99.073 209.406,-84.8484"/>
<polygon fill="midnightblue" stroke="midnightblue" points="212.628,-83.4816 205.524,-75.6215 206.176,-86.1963 212.628,-83.4816"/>
</g>
<!-- Node13 -->
<g id="node13" class="node"><title>Node13</title>
<polygon fill="white" stroke="#bfbfbf" points="249.354,-112.5 249.354,-131.5 301.354,-131.5 301.354,-112.5 249.354,-112.5"/>
<text text-anchor="middle" x="275.354" y="-119.5" font-family="Helvetica,sans-Serif" font-size="10.00">iomanip</text>
</g>
<!-- Node12&#45;&gt;Node13 -->
<g id="edge16" class="edge"><title>Node12&#45;&gt;Node13</title>
<path fill="none" stroke="midnightblue" d="M320.437,-168.083C312.574,-160.22 300.923,-148.569 291.436,-139.081"/>
<polygon fill="midnightblue" stroke="midnightblue" points="293.651,-136.347 284.105,-131.751 288.702,-141.297 293.651,-136.347"/>
</g>
<!-- Node14 -->
<g id="node14" class="node"><title>Node14</title>
<polygon fill="white" stroke="#bfbfbf" points="309.354,-56.5 309.354,-75.5 365.354,-75.5 365.354,-56.5 309.354,-56.5"/>
<text text-anchor="middle" x="337.354" y="-63.5" font-family="Helvetica,sans-Serif" font-size="10.00">iostream</text>
</g>
<!-- Node12&#45;&gt;Node14 -->
<g id="edge17" class="edge"><title>Node12&#45;&gt;Node14</title>
<path fill="none" stroke="midnightblue" d="M329.982,-168.368C331.273,-150.617 334.251,-109.666 336.002,-85.5974"/>
<polygon fill="midnightblue" stroke="midnightblue" points="339.495,-85.819 336.729,-75.5914 332.513,-85.3112 339.495,-85.819"/>
</g>
<!-- Node15 -->
<g id="node15" class="node"><title>Node15</title>
<polygon fill="white" stroke="#bfbfbf" points="357.854,-112.5 357.854,-131.5 488.854,-131.5 488.854,-112.5 357.854,-112.5"/>
<text text-anchor="middle" x="423.354" y="-119.5" font-family="Helvetica,sans-Serif" font-size="10.00">boost/algorithm/string.hpp</text>
</g>
<!-- Node12&#45;&gt;Node15 -->
<g id="edge19" class="edge"><title>Node12&#45;&gt;Node15</title>
<path fill="none" stroke="midnightblue" d="M344.457,-168.324C359.258,-159.822 382.049,-146.729 399.336,-136.797"/>
<polygon fill="midnightblue" stroke="midnightblue" points="401.361,-139.671 408.289,-131.655 397.875,-133.601 401.361,-139.671"/>
</g>
<!-- Node16 -->
<g id="node16" class="node"><title>Node16</title>
<g id="a_node16"><a xlink:href="../../d8/dfd/config_8hpp.html" target="_top" xlink:title="pfasst/config.hpp">
<polygon fill="white" stroke="black" points="506.854,-112.5 506.854,-131.5 597.854,-131.5 597.854,-112.5 506.854,-112.5"/>
<text text-anchor="middle" x="552.354" y="-119.5" font-family="Helvetica,sans-Serif" font-size="10.00">pfasst/config.hpp</text>
</a>
</g>
</g>
<!-- Node12&#45;&gt;Node16 -->
<g id="edge20" class="edge"><title>Node12&#45;&gt;Node16</title>
<path fill="none" stroke="midnightblue" d="M364.689,-168.444C403.265,-159.102 465.139,-144.119 507.207,-133.933"/>
<polygon fill="midnightblue" stroke="midnightblue" points="508.289,-137.272 517.185,-131.516 506.642,-130.468 508.289,-137.272"/>
</g>
<!-- Node23 -->
<g id="node23" class="node"><title>Node23</title>
<polygon fill="white" stroke="#bfbfbf" points="616.354,-112.5 616.354,-131.5 738.354,-131.5 738.354,-112.5 616.354,-112.5"/>
<text text-anchor="middle" x="677.354" y="-119.5" font-family="Helvetica,sans-Serif" font-size="10.00">pfasst/easylogging++.h</text>
</g>
<!-- Node12&#45;&gt;Node23 -->
<g id="edge31" class="edge"><title>Node12&#45;&gt;Node23</title>
<path fill="none" stroke="midnightblue" d="M378.478,-169.234C381.142,-168.815 383.781,-168.402 386.354,-168 463.822,-155.894 552.92,-142.141 611.904,-133.06"/>
<polygon fill="midnightblue" stroke="midnightblue" points="612.479,-136.513 621.83,-131.533 611.414,-129.595 612.479,-136.513"/>
</g>
<!-- Node16&#45;&gt;Node8 -->
<g id="edge23" class="edge"><title>Node16&#45;&gt;Node8</title>
<path fill="none" stroke="midnightblue" d="M506.742,-113.497C503.566,-112.987 500.413,-112.483 497.354,-112 400.927,-96.7563 286.62,-79.572 233.001,-71.5633"/>
<polygon fill="midnightblue" stroke="midnightblue" points="233.517,-68.1016 223.11,-70.0872 232.484,-75.025 233.517,-68.1016"/>
</g>
<!-- Node16&#45;&gt;Node14 -->
<g id="edge22" class="edge"><title>Node16&#45;&gt;Node14</title>
<path fill="none" stroke="midnightblue" d="M518.287,-112.444C479.318,-102.656 415.689,-86.6748 375.204,-76.5064"/>
<polygon fill="midnightblue" stroke="midnightblue" points="375.99,-73.0952 365.439,-74.0537 374.285,-79.8843 375.99,-73.0952"/>
</g>
<!-- Node17 -->
<g id="node17" class="node"><title>Node17</title>
<polygon fill="white" stroke="#bfbfbf" points="472.354,-0.5 472.354,-19.5 522.354,-19.5 522.354,-0.5 472.354,-0.5"/>
<text text-anchor="middle" x="497.354" y="-7.5" font-family="Helvetica,sans-Serif" font-size="10.00">fstream</text>
</g>
<!-- Node16&#45;&gt;Node17 -->
<g id="edge21" class="edge"><title>Node16&#45;&gt;Node17</title>
<path fill="none" stroke="midnightblue" d="M511.354,-112.482C476.768,-104.366 431.204,-91.161 420.354,-76 404.69,-54.1107 435.668,-35.0538 462.882,-23.3315"/>
<polygon fill="midnightblue" stroke="midnightblue" points="464.333,-26.5194 472.268,-19.4984 461.687,-20.039 464.333,-26.5194"/>
</g>
<!-- Node18 -->
<g id="node18" class="node"><title>Node18</title>
<polygon fill="white" stroke="#bfbfbf" points="429.354,-56.5 429.354,-75.5 465.354,-75.5 465.354,-56.5 429.354,-56.5"/>
<text text-anchor="middle" x="447.354" y="-63.5" font-family="Helvetica,sans-Serif" font-size="10.00">map</text>
</g>
<!-- Node16&#45;&gt;Node18 -->
<g id="edge24" class="edge"><title>Node16&#45;&gt;Node18</title>
<path fill="none" stroke="midnightblue" d="M535.484,-112.324C518.646,-103.664 492.548,-90.2424 473.116,-80.249"/>
<polygon fill="midnightblue" stroke="midnightblue" points="474.676,-77.1155 464.182,-75.6545 471.475,-83.3405 474.676,-77.1155"/>
</g>
<!-- Node19 -->
<g id="node19" class="node"><title>Node19</title>
<polygon fill="white" stroke="#bfbfbf" points="483.854,-56.5 483.854,-75.5 620.854,-75.5 620.854,-56.5 483.854,-56.5"/>
<text text-anchor="middle" x="552.354" y="-63.5" font-family="Helvetica,sans-Serif" font-size="10.00">boost/program_options.hpp</text>
</g>
<!-- Node16&#45;&gt;Node19 -->
<g id="edge25" class="edge"><title>Node16&#45;&gt;Node19</title>
<path fill="none" stroke="midnightblue" d="M552.354,-112.083C552.354,-105.006 552.354,-94.8611 552.354,-85.9865"/>
<polygon fill="midnightblue" stroke="midnightblue" points="555.854,-85.751 552.354,-75.7511 548.854,-85.7511 555.854,-85.751"/>
</g>
<!-- Node20 -->
<g id="node20" class="node"><title>Node20</title>
<g id="a_node20"><a xlink:href="../../d5/d84/config__impl_8hpp.html" target="_top" xlink:title="pfasst/config_impl.hpp">
<polygon fill="white" stroke="black" points="639.354,-56.5 639.354,-75.5 753.354,-75.5 753.354,-56.5 639.354,-56.5"/>
<text text-anchor="middle" x="696.354" y="-63.5" font-family="Helvetica,sans-Serif" font-size="10.00">pfasst/config_impl.hpp</text>
</a>
</g>
</g>
<!-- Node16&#45;&gt;Node20 -->
<g id="edge26" class="edge"><title>Node16&#45;&gt;Node20</title>
<path fill="none" stroke="midnightblue" d="M570.083,-112.444C592.219,-103.399 630.237,-89.064 658.869,-78.9158"/>
<polygon fill="midnightblue" stroke="midnightblue" points="660.285,-82.1283 668.564,-75.5164 657.969,-75.5226 660.285,-82.1283"/>
</g>
<!-- Node20&#45;&gt;Node16 -->
<g id="edge27" class="edge"><title>Node20&#45;&gt;Node16</title>
<path fill="none" stroke="midnightblue" d="M678.724,-75.5164C656.635,-84.5457 618.626,-98.8786 589.966,-109.039"/>
<polygon fill="midnightblue" stroke="midnightblue" points="588.538,-105.831 580.26,-112.444 590.855,-112.436 588.538,-105.831"/>
</g>
<!-- Node20&#45;&gt;Node17 -->
<g id="edge28" class="edge"><title>Node20&#45;&gt;Node17</title>
<path fill="none" stroke="midnightblue" d="M664.822,-56.4435C628.759,-46.6574 569.876,-30.6793 532.403,-20.5107"/>
<polygon fill="midnightblue" stroke="midnightblue" points="533.006,-17.0477 522.438,-17.8067 531.172,-23.8034 533.006,-17.0477"/>
</g>
<!-- Node21 -->
<g id="node21" class="node"><title>Node21</title>
<polygon fill="white" stroke="#bfbfbf" points="637.854,-0.5 637.854,-19.5 690.854,-19.5 690.854,-0.5 637.854,-0.5"/>
<text text-anchor="middle" x="664.354" y="-7.5" font-family="Helvetica,sans-Serif" font-size="10.00">sstream</text>
</g>
<!-- Node20&#45;&gt;Node21 -->
<g id="edge29" class="edge"><title>Node20&#45;&gt;Node21</title>
<path fill="none" stroke="midnightblue" d="M691.07,-56.083C686.643,-48.6127 680.191,-37.7244 674.736,-28.5199"/>
<polygon fill="midnightblue" stroke="midnightblue" points="677.649,-26.5697 669.54,-19.7511 671.627,-30.1383 677.649,-26.5697"/>
</g>
<!-- Node22 -->
<g id="node22" class="node"><title>Node22</title>
<polygon fill="white" stroke="#bfbfbf" points="709.354,-0.5 709.354,-19.5 747.354,-19.5 747.354,-0.5 709.354,-0.5"/>
<text text-anchor="middle" x="728.354" y="-7.5" font-family="Helvetica,sans-Serif" font-size="10.00">utility</text>
</g>
<!-- Node20&#45;&gt;Node22 -->
<g id="edge30" class="edge"><title>Node20&#45;&gt;Node22</title>
<path fill="none" stroke="midnightblue" d="M701.638,-56.083C706.065,-48.6127 712.518,-37.7244 717.972,-28.5199"/>
<polygon fill="midnightblue" stroke="midnightblue" points="721.081,-30.1383 723.168,-19.7511 715.059,-26.5697 721.081,-30.1383"/>
</g>
</g>
</svg>
        <g id="navigator" transform="translate(0 0)" fill="#404254">
                <rect fill="#f2f5e9" fill-opacity="0.5" stroke="#606060" stroke-width=".5" x="0" y="0" width="60" height="60"/>
                <use id="zoomplus" xlink:href="#zoomPlus" x="17" y="9" onmousedown="handleZoom(evt,'in')"/>
                <use id="zoomminus" xlink:href="#zoomMin" x="42" y="9" onmousedown="handleZoom(evt,'out')"/>
                <use id="reset" xlink:href="#resetDef" x="30" y="36" onmousedown="handleReset()"/>
                <g id="arrowUp" xlink:href="#dirArrow" transform="translate(30 24)" onmousedown="handlePan(0,-1)">
                  <use xlink:href="#rim" fill="#404040">
                        <set attributeName="fill" to="#808080" begin="arrowUp.mouseover" end="arrowUp.mouseout"/>
                  </use>
                  <path fill="none" stroke="white" stroke-width="1.5" d="M0,-3.0v7 M-2.5,-0.5L0,-3.0L2.5,-0.5"/>
                </g>
                <g id="arrowRight" xlink:href="#dirArrow" transform="rotate(90) translate(36 -43)" onmousedown="handlePan(1,0)">
                  <use xlink:href="#rim" fill="#404040">
                        <set attributeName="fill" to="#808080" begin="arrowRight.mouseover" end="arrowRight.mouseout"/>
                  </use>
                  <path fill="none" stroke="white" stroke-width="1.5" d="M0,-3.0v7 M-2.5,-0.5L0,-3.0L2.5,-0.5"/>
                </g>
                <g id="arrowDown" xlink:href="#dirArrow" transform="rotate(180) translate(-30 -48)" onmousedown="handlePan(0,1)">
                  <use xlink:href="#rim" fill="#404040">
                        <set attributeName="fill" to="#808080" begin="arrowDown.mouseover" end="arrowDown.mouseout"/>
                  </use>
                  <path fill="none" stroke="white" stroke-width="1.5" d="M0,-3.0v7 M-2.5,-0.5L0,-3.0L2.5,-0.5"/>
                </g>
                <g id="arrowLeft" xlink:href="#dirArrow" transform="rotate(270) translate(-36 17)" onmousedown="handlePan(-1,0)">
                  <use xlink:href="#rim" fill="#404040">
                        <set attributeName="fill" to="#808080" begin="arrowLeft.mouseover" end="arrowLeft.mouseout"/>
                  </use>
                  <path fill="none" stroke="white" stroke-width="1.5" d="M0,-3.0v7 M-2.5,-0.5L0,-3.0L2.5,-0.5"/>
                </g>
        </g>
        <svg viewBox="0 0 15 15" width="100%" height="30px" preserveAspectRatio="xMaxYMin meet">
         <g id="arrow_out" transform="scale(0.3 0.3)">
          <a xlink:href="encapsulation__impl_8hpp__incl_org.svg" target="_base">
           <rect id="button" ry="5" rx="5" y="6" x="6" height="38" width="38"
                fill="#f2f5e9" fill-opacity="0.5" stroke="#606060" stroke-width="1.0"/>
           <path id="arrow"
             d="M 11.500037,31.436501 C 11.940474,20.09759 22.043105,11.32322 32.158766,21.979434 L 37.068811,17.246167 C 37.068811,17.246167 37.088388,32 37.088388,32 L 22.160133,31.978069 C 22.160133,31.978069 26.997745,27.140456 26.997745,27.140456 C 18.528582,18.264221 13.291696,25.230495 11.500037,31.436501 z"
             style="fill:#404040;"/>
          </a>
         </g>
        </svg>
</svg>
