<?xml version="1.0" encoding="UTF-8" standalone="no"?>
<!DOCTYPE svg PUBLIC "-//W3C//DTD SVG 1.1//EN"
 "http://www.w3.org/Graphics/SVG/1.1/DTD/svg11.dtd">
<!-- Generated by graphviz version 2.38.0 (20140413.2041)
 -->
<!-- Title: pfasst::examples::boris::ParticleCloudFactory&lt; precision &gt; Pages: 1 -->
<svg width="152pt" height="376pt"
 viewBox="0.00 0.00 152.00 376.00" xmlns="http://www.w3.org/2000/svg" xmlns:xlink="http://www.w3.org/1999/xlink">
<g id="graph0" class="graph" transform="scale(1 1) rotate(0) translate(4 372)">
<title>pfasst::examples::boris::ParticleCloudFactory&lt; precision &gt;</title>
<polygon fill="white" stroke="none" points="-4,4 -4,-372 148,-372 148,4 -4,4"/>
<!-- Node1 -->
<g id="node1" class="node"><title>Node1</title>
<polygon fill="#bfbfbf" stroke="black" points="9,-0.5 9,-145.5 135,-145.5 135,-0.5 9,-0.5"/>
<text text-anchor="start" x="17" y="-133.5" font-family="Helvetica,sans-Serif" font-size="10.00">pfasst::examples::boris</text>
<text text-anchor="start" x="17" y="-122.5" font-family="Helvetica,sans-Serif" font-size="10.00">::ParticleCloudFactory</text>
<text text-anchor="middle" x="72" y="-111.5" font-family="Helvetica,sans-Serif" font-size="10.00">&lt; precision &gt;</text>
<polyline fill="none" stroke="black" points="9,-104.5 135,-104.5 "/>
<text text-anchor="start" x="17" y="-92.5" font-family="Helvetica,sans-Serif" font-size="10.00">&#45; _num_particles</text>
<text text-anchor="start" x="17" y="-81.5" font-family="Helvetica,sans-Serif" font-size="10.00">&#45; _dim</text>
<text text-anchor="start" x="17" y="-70.5" font-family="Helvetica,sans-Serif" font-size="10.00">&#45; _default_charge</text>
<text text-anchor="start" x="17" y="-59.5" font-family="Helvetica,sans-Serif" font-size="10.00">&#45; _default_mass</text>
<polyline fill="none" stroke="black" points="9,-52.5 135,-52.5 "/>
<text text-anchor="start" x="17" y="-40.5" font-family="Helvetica,sans-Serif" font-size="10.00">+ ParticleCloudFactory()</text>
<text text-anchor="start" x="17" y="-29.5" font-family="Helvetica,sans-Serif" font-size="10.00">+ num_particles()</text>
<text text-anchor="start" x="17" y="-18.5" font-family="Helvetica,sans-Serif" font-size="10.00">+ dim()</text>
<text text-anchor="start" x="17" y="-7.5" font-family="Helvetica,sans-Serif" font-size="10.00">+ create()</text>
</g>
<!-- Node2 -->
<g id="node2" class="node"><title>Node2</title>
<g id="a_node2"><a xlink:href="../../d0/d51/classpfasst_1_1encap_1_1EncapFactory.html" target="_top" xlink:title="{pfasst::encap::EncapFactory\l\&lt; precision \&gt;\n||+ create()\l}">
<polygon fill="white" stroke="black" points="0,-183.5 0,-251.5 144,-251.5 144,-183.5 0,-183.5"/>
<text text-anchor="start" x="8" y="-239.5" font-family="Helvetica,sans-Serif" font-size="10.00">pfasst::encap::EncapFactory</text>
<text text-anchor="middle" x="72" y="-228.5" font-family="Helvetica,sans-Serif" font-size="10.00">&lt; precision &gt;</text>
<polyline fill="none" stroke="black" points="0,-221.5 144,-221.5 "/>
<text text-anchor="middle" x="72" y="-209.5" font-family="Helvetica,sans-Serif" font-size="10.00"> </text>
<polyline fill="none" stroke="black" points="0,-202.5 144,-202.5 "/>
<text text-anchor="start" x="8" y="-190.5" font-family="Helvetica,sans-Serif" font-size="10.00">+ create()</text>
</a>
</g>
</g>
<!-- Node2&#45;&gt;Node1 -->
<g id="edge1" class="edge"><title>Node2&#45;&gt;Node1</title>
<path fill="none" stroke="midnightblue" d="M72,-173.194C72,-164.481 72,-155.106 72,-145.72"/>
<polygon fill="none" stroke="midnightblue" points="68.5001,-173.449 72,-183.449 75.5001,-173.449 68.5001,-173.449"/>
</g>
<!-- Node3 -->
<g id="node3" class="node"><title>Node3</title>
<g id="a_node3"><a xlink:href="../../d0/d51/classpfasst_1_1encap_1_1EncapFactory.html" target="_top" xlink:title="Abstract interface of factory for creating Encapsulation objects. ">
<polygon fill="white" stroke="black" points="0,-299.5 0,-367.5 144,-367.5 144,-299.5 0,-299.5"/>
<text text-anchor="start" x="8" y="-355.5" font-family="Helvetica,sans-Serif" font-size="10.00">pfasst::encap::EncapFactory</text>
<text text-anchor="middle" x="72" y="-344.5" font-family="Helvetica,sans-Serif" font-size="10.00">&lt; time &gt;</text>
<polyline fill="none" stroke="black" points="0,-337.5 144,-337.5 "/>
<text text-anchor="middle" x="72" y="-325.5" font-family="Helvetica,sans-Serif" font-size="10.00"> </text>
<polyline fill="none" stroke="black" points="0,-318.5 144,-318.5 "/>
<text text-anchor="start" x="8" y="-306.5" font-family="Helvetica,sans-Serif" font-size="10.00">+ create()</text>
</a>
</g>
</g>
<!-- Node3&#45;&gt;Node2 -->
<g id="edge2" class="edge"><title>Node3&#45;&gt;Node2</title>
<path fill="none" stroke="orange" d="M72,-289.06C72,-276.644 72,-263.316 72,-251.624"/>
<polygon fill="orange" stroke="orange" points="68.5001,-289.22 72,-299.22 75.5001,-289.22 68.5001,-289.22"/>
<text text-anchor="middle" x="103" y="-273" font-family="Helvetica,sans-Serif" font-size="10.00"> &lt; precision &gt;</text>
</g>
</g>
</svg>
