<?xml version="1.0" encoding="UTF-8" standalone="no"?>
<!DOCTYPE svg PUBLIC "-//W3C//DTD SVG 1.1//EN"
 "http://www.w3.org/Graphics/SVG/1.1/DTD/svg11.dtd">
<!-- Generated by graphviz version 2.38.0 (20140413.2041)
 -->
<!-- Title: pfasst::examples::boris::bindings::WrapperSimplePhysicsSolver::energy Pages: 1 -->
<svg width="502pt" height="148pt"
 viewBox="0.00 0.00 502.00 147.50" xmlns="http://www.w3.org/2000/svg" xmlns:xlink="http://www.w3.org/1999/xlink">
<g id="graph0" class="graph" transform="scale(1 1) rotate(0) translate(4 143.5)">
<title>pfasst::examples::boris::bindings::WrapperSimplePhysicsSolver::energy</title>
<polygon fill="white" stroke="none" points="-4,4 -4,-143.5 498,-143.5 498,4 -4,4"/>
<!-- Node1 -->
<g id="node1" class="node"><title>Node1</title>
<polygon fill="#bfbfbf" stroke="black" points="0,-54.5 0,-95.5 170,-95.5 170,-54.5 0,-54.5"/>
<text text-anchor="start" x="8" y="-83.5" font-family="Helvetica,sans-Serif" font-size="10.00">pfasst::examples::boris</text>
<text text-anchor="start" x="8" y="-72.5" font-family="Helvetica,sans-Serif" font-size="10.00">::bindings::WrapperSimplePhysics</text>
<text text-anchor="middle" x="85" y="-61.5" font-family="Helvetica,sans-Serif" font-size="10.00">Solver::energy</text>
</g>
<!-- Node2 -->
<g id="node2" class="node"><title>Node2</title>
<g id="a_node2"><a xlink:href="../../d3/d58/group__ExternalSolver.html#ga35a08082721768fea4430beb933878fe" target="_top" xlink:title="simple_physics_solver\l::compute_energy">
<polygon fill="white" stroke="black" points="206,-60 206,-90 324,-90 324,-60 206,-60"/>
<text text-anchor="start" x="214" y="-78" font-family="Helvetica,sans-Serif" font-size="10.00">simple_physics_solver</text>
<text text-anchor="middle" x="265" y="-67" font-family="Helvetica,sans-Serif" font-size="10.00">::compute_energy</text>
</a>
</g>
</g>
<!-- Node1&#45;&gt;Node2 -->
<g id="edge1" class="edge"><title>Node1&#45;&gt;Node2</title>
<path fill="none" stroke="midnightblue" d="M170.048,-75C178.688,-75 187.389,-75 195.827,-75"/>
<polygon fill="midnightblue" stroke="midnightblue" points="195.965,-78.5001 205.965,-75 195.965,-71.5001 195.965,-78.5001"/>
</g>
<!-- Node3 -->
<g id="node3" class="node"><title>Node3</title>
<g id="a_node3"><a xlink:href="../../d3/d58/group__ExternalSolver.html#gaa7b26227dd0c6353a2a7a668a04cdee9" target="_top" xlink:title="simple_physics_solver\l::evaluate_internal_e_field">
<polygon fill="white" stroke="black" points="360,-109 360,-139 494,-139 494,-109 360,-109"/>
<text text-anchor="start" x="368" y="-127" font-family="Helvetica,sans-Serif" font-size="10.00">simple_physics_solver</text>
<text text-anchor="middle" x="427" y="-116" font-family="Helvetica,sans-Serif" font-size="10.00">::evaluate_internal_e_field</text>
</a>
</g>
</g>
<!-- Node2&#45;&gt;Node3 -->
<g id="edge2" class="edge"><title>Node2&#45;&gt;Node3</title>
<path fill="none" stroke="midnightblue" d="M315.311,-90.1014C331.66,-95.1083 350.024,-100.732 367.025,-105.939"/>
<polygon fill="midnightblue" stroke="midnightblue" points="366.265,-109.367 376.852,-108.948 368.315,-102.674 366.265,-109.367"/>
</g>
<!-- Node4 -->
<g id="node4" class="node"><title>Node4</title>
<g id="a_node4"><a xlink:href="../../d0/d8f/namespacesimple__physics__solver_1_1internal.html#ae4d484ba5bbd03569aef4c3dd364eb4a" target="_top" xlink:title="simple_physics_solver\l::internal::scalar_prod">
<polygon fill="white" stroke="black" points="368,-60 368,-90 486,-90 486,-60 368,-60"/>
<text text-anchor="start" x="376" y="-78" font-family="Helvetica,sans-Serif" font-size="10.00">simple_physics_solver</text>
<text text-anchor="middle" x="427" y="-67" font-family="Helvetica,sans-Serif" font-size="10.00">::internal::scalar_prod</text>
</a>
</g>
</g>
<!-- Node2&#45;&gt;Node4 -->
<g id="edge3" class="edge"><title>Node2&#45;&gt;Node4</title>
<path fill="none" stroke="midnightblue" d="M324.216,-75C335.093,-75 346.552,-75 357.701,-75"/>
<polygon fill="midnightblue" stroke="midnightblue" points="357.827,-78.5001 367.827,-75 357.827,-71.5001 357.827,-78.5001"/>
</g>
<!-- Node5 -->
<g id="node5" class="node"><title>Node5</title>
<g id="a_node5"><a xlink:href="../../d0/d8f/namespacesimple__physics__solver_1_1internal.html#a62af8164189043e45b614c913eda3b94" target="_top" xlink:title="simple_physics_solver\l::internal::scale_mat\l_mul_vec">
<polygon fill="white" stroke="black" points="368,-0.5 368,-41.5 486,-41.5 486,-0.5 368,-0.5"/>
<text text-anchor="start" x="376" y="-29.5" font-family="Helvetica,sans-Serif" font-size="10.00">simple_physics_solver</text>
<text text-anchor="start" x="376" y="-18.5" font-family="Helvetica,sans-Serif" font-size="10.00">::internal::scale_mat</text>
<text text-anchor="middle" x="427" y="-7.5" font-family="Helvetica,sans-Serif" font-size="10.00">_mul_vec</text>
</a>
</g>
</g>
<!-- Node2&#45;&gt;Node5 -->
<g id="edge4" class="edge"><title>Node2&#45;&gt;Node5</title>
<path fill="none" stroke="midnightblue" d="M310.569,-59.958C325.271,-54.996 341.974,-49.3588 358.017,-43.9443"/>
<polygon fill="midnightblue" stroke="midnightblue" points="359.541,-47.1239 367.897,-40.6098 357.303,-40.4914 359.541,-47.1239"/>
</g>
</g>
</svg>
