<?xml version="1.0" encoding="UTF-8" standalone="no"?>
<!DOCTYPE svg PUBLIC "-//W3C//DTD SVG 1.1//EN"
 "http://www.w3.org/Graphics/SVG/1.1/DTD/svg11.dtd">
<!-- Generated by graphviz version 2.38.0 (20140413.2041)
 -->
<!-- Title: pfasst::examples::boris::bindings::WrapperSimplePhysicsSolver::e_field_evaluate Pages: 1 -->
<svg width="660pt" height="94pt"
 viewBox="0.00 0.00 660.00 93.50" xmlns="http://www.w3.org/2000/svg" xmlns:xlink="http://www.w3.org/1999/xlink">
<g id="graph0" class="graph" transform="scale(1 1) rotate(0) translate(4 89.5)">
<title>pfasst::examples::boris::bindings::WrapperSimplePhysicsSolver::e_field_evaluate</title>
<polygon fill="white" stroke="none" points="-4,4 -4,-89.5 656,-89.5 656,4 -4,4"/>
<!-- Node1 -->
<g id="node1" class="node"><title>Node1</title>
<polygon fill="#bfbfbf" stroke="black" points="0,-19 0,-60 170,-60 170,-19 0,-19"/>
<text text-anchor="start" x="8" y="-48" font-family="Helvetica,sans-Serif" font-size="10.00">pfasst::examples::boris</text>
<text text-anchor="start" x="8" y="-37" font-family="Helvetica,sans-Serif" font-size="10.00">::bindings::WrapperSimplePhysics</text>
<text text-anchor="middle" x="85" y="-26" font-family="Helvetica,sans-Serif" font-size="10.00">Solver::e_field_evaluate</text>
</g>
<!-- Node2 -->
<g id="node2" class="node"><title>Node2</title>
<g id="a_node2"><a xlink:href="../../d3/d58/group__ExternalSolver.html#ga62eb48c2baa39269409b587b30e61cf5" target="_top" xlink:title="simple_physics_solver\l::evaluate_e_field">
<polygon fill="white" stroke="black" points="206,-24.5 206,-54.5 324,-54.5 324,-24.5 206,-24.5"/>
<text text-anchor="start" x="214" y="-42.5" font-family="Helvetica,sans-Serif" font-size="10.00">simple_physics_solver</text>
<text text-anchor="middle" x="265" y="-31.5" font-family="Helvetica,sans-Serif" font-size="10.00">::evaluate_e_field</text>
</a>
</g>
</g>
<!-- Node1&#45;&gt;Node2 -->
<g id="edge1" class="edge"><title>Node1&#45;&gt;Node2</title>
<path fill="none" stroke="midnightblue" d="M170.048,-39.5C178.688,-39.5 187.389,-39.5 195.827,-39.5"/>
<polygon fill="midnightblue" stroke="midnightblue" points="195.965,-43.0001 205.965,-39.5 195.965,-36.0001 195.965,-43.0001"/>
</g>
<!-- Node3 -->
<g id="node3" class="node"><title>Node3</title>
<g id="a_node3"><a xlink:href="../../d3/d58/group__ExternalSolver.html#gaf772294be99b782e400e0f19c4bccf45" target="_top" xlink:title="simple_physics_solver\l::evaluate_external_e_field">
<polygon fill="white" stroke="black" points="360,-49.5 360,-79.5 498,-79.5 498,-49.5 360,-49.5"/>
<text text-anchor="start" x="368" y="-67.5" font-family="Helvetica,sans-Serif" font-size="10.00">simple_physics_solver</text>
<text text-anchor="middle" x="429" y="-56.5" font-family="Helvetica,sans-Serif" font-size="10.00">::evaluate_external_e_field</text>
</a>
</g>
</g>
<!-- Node2&#45;&gt;Node3 -->
<g id="edge2" class="edge"><title>Node2&#45;&gt;Node3</title>
<path fill="none" stroke="midnightblue" d="M324.028,-48.455C332.381,-49.7439 341.089,-51.0878 349.754,-52.4251"/>
<polygon fill="midnightblue" stroke="midnightblue" points="349.467,-55.9221 359.884,-53.9883 350.535,-49.004 349.467,-55.9221"/>
</g>
<!-- Node5 -->
<g id="node5" class="node"><title>Node5</title>
<g id="a_node5"><a xlink:href="../../d3/d58/group__ExternalSolver.html#gaa7b26227dd0c6353a2a7a668a04cdee9" target="_top" xlink:title="simple_physics_solver\l::evaluate_internal_e_field">
<polygon fill="white" stroke="black" points="362,-0.5 362,-30.5 496,-30.5 496,-0.5 362,-0.5"/>
<text text-anchor="start" x="370" y="-18.5" font-family="Helvetica,sans-Serif" font-size="10.00">simple_physics_solver</text>
<text text-anchor="middle" x="429" y="-7.5" font-family="Helvetica,sans-Serif" font-size="10.00">::evaluate_internal_e_field</text>
</a>
</g>
</g>
<!-- Node2&#45;&gt;Node5 -->
<g id="edge4" class="edge"><title>Node2&#45;&gt;Node5</title>
<path fill="none" stroke="midnightblue" d="M324.028,-30.9032C333.029,-29.5698 342.443,-28.1752 351.771,-26.7931"/>
<polygon fill="midnightblue" stroke="midnightblue" points="352.458,-30.2297 361.837,-25.3019 351.432,-23.3052 352.458,-30.2297"/>
</g>
<!-- Node4 -->
<g id="node4" class="node"><title>Node4</title>
<g id="a_node4"><a xlink:href="../../d0/d8f/namespacesimple__physics__solver_1_1internal.html#a62af8164189043e45b614c913eda3b94" target="_top" xlink:title="simple_physics_solver\l::internal::scale_mat\l_mul_vec">
<polygon fill="white" stroke="black" points="534,-44 534,-85 652,-85 652,-44 534,-44"/>
<text text-anchor="start" x="542" y="-73" font-family="Helvetica,sans-Serif" font-size="10.00">simple_physics_solver</text>
<text text-anchor="start" x="542" y="-62" font-family="Helvetica,sans-Serif" font-size="10.00">::internal::scale_mat</text>
<text text-anchor="middle" x="593" y="-51" font-family="Helvetica,sans-Serif" font-size="10.00">_mul_vec</text>
</a>
</g>
</g>
<!-- Node3&#45;&gt;Node4 -->
<g id="edge3" class="edge"><title>Node3&#45;&gt;Node4</title>
<path fill="none" stroke="midnightblue" d="M498.233,-64.5C506.655,-64.5 515.266,-64.5 523.69,-64.5"/>
<polygon fill="midnightblue" stroke="midnightblue" points="523.846,-68.0001 533.846,-64.5 523.846,-61.0001 523.846,-68.0001"/>
</g>
</g>
</svg>
