<?xml version="1.0" encoding="UTF-8" standalone="no"?>
<!DOCTYPE svg PUBLIC "-//W3C//DTD SVG 1.1//EN"
 "http://www.w3.org/Graphics/SVG/1.1/DTD/svg11.dtd">
<!-- Generated by graphviz version 2.38.0 (20140413.2041)
 -->
<!-- Title: pfasst::examples::boris::bindings::WrapperSimplePhysicsSolver::b_field_evaluate Pages: 1 -->
<svg width="486pt" height="50pt"
 viewBox="0.00 0.00 486.00 50.00" xmlns="http://www.w3.org/2000/svg" xmlns:xlink="http://www.w3.org/1999/xlink">
<g id="graph0" class="graph" transform="scale(1 1) rotate(0) translate(4 46)">
<title>pfasst::examples::boris::bindings::WrapperSimplePhysicsSolver::b_field_evaluate</title>
<polygon fill="white" stroke="none" points="-4,4 -4,-46 482,-46 482,4 -4,4"/>
<!-- Node1 -->
<g id="node1" class="node"><title>Node1</title>
<polygon fill="#bfbfbf" stroke="black" points="0,-0.5 0,-41.5 170,-41.5 170,-0.5 0,-0.5"/>
<text text-anchor="start" x="8" y="-29.5" font-family="Helvetica,sans-Serif" font-size="10.00">pfasst::examples::boris</text>
<text text-anchor="start" x="8" y="-18.5" font-family="Helvetica,sans-Serif" font-size="10.00">::bindings::WrapperSimplePhysics</text>
<text text-anchor="middle" x="85" y="-7.5" font-family="Helvetica,sans-Serif" font-size="10.00">Solver::b_field_evaluate</text>
</g>
<!-- Node2 -->
<g id="node2" class="node"><title>Node2</title>
<g id="a_node2"><a xlink:href="../../d3/d58/group__ExternalSolver.html#ga4d3f823dd780fdb9db70409092cfa56f" target="_top" xlink:title="simple_physics_solver\l::evaluate_b_field">
<polygon fill="white" stroke="black" points="206,-6 206,-36 324,-36 324,-6 206,-6"/>
<text text-anchor="start" x="214" y="-24" font-family="Helvetica,sans-Serif" font-size="10.00">simple_physics_solver</text>
<text text-anchor="middle" x="265" y="-13" font-family="Helvetica,sans-Serif" font-size="10.00">::evaluate_b_field</text>
</a>
</g>
</g>
<!-- Node1&#45;&gt;Node2 -->
<g id="edge1" class="edge"><title>Node1&#45;&gt;Node2</title>
<path fill="none" stroke="midnightblue" d="M170.048,-21C178.688,-21 187.389,-21 195.827,-21"/>
<polygon fill="midnightblue" stroke="midnightblue" points="195.965,-24.5001 205.965,-21 195.965,-17.5001 195.965,-24.5001"/>
</g>
<!-- Node3 -->
<g id="node3" class="node"><title>Node3</title>
<g id="a_node3"><a xlink:href="../../d0/d8f/namespacesimple__physics__solver_1_1internal.html#a62af8164189043e45b614c913eda3b94" target="_top" xlink:title="simple_physics_solver\l::internal::scale_mat\l_mul_vec">
<polygon fill="white" stroke="black" points="360,-0.5 360,-41.5 478,-41.5 478,-0.5 360,-0.5"/>
<text text-anchor="start" x="368" y="-29.5" font-family="Helvetica,sans-Serif" font-size="10.00">simple_physics_solver</text>
<text text-anchor="start" x="368" y="-18.5" font-family="Helvetica,sans-Serif" font-size="10.00">::internal::scale_mat</text>
<text text-anchor="middle" x="419" y="-7.5" font-family="Helvetica,sans-Serif" font-size="10.00">_mul_vec</text>
</a>
</g>
</g>
<!-- Node2&#45;&gt;Node3 -->
<g id="edge2" class="edge"><title>Node2&#45;&gt;Node3</title>
<path fill="none" stroke="midnightblue" d="M324.332,-21C332.606,-21 341.175,-21 349.617,-21"/>
<polygon fill="midnightblue" stroke="midnightblue" points="349.824,-24.5001 359.824,-21 349.824,-17.5001 349.824,-24.5001"/>
</g>
</g>
</svg>
