<?xml version="1.0" encoding="UTF-8" standalone="no"?>
<!DOCTYPE svg PUBLIC "-//W3C//DTD SVG 1.1//EN"
 "http://www.w3.org/Graphics/SVG/1.1/DTD/svg11.dtd">
<!-- Generated by graphviz version 2.38.0 (20140413.2041)
 -->
<!-- Title: include/pfasst/quadrature/uniform.hpp Pages: 1 -->
<!--zoomable 464 -->
<svg id="main" version="1.1" xmlns="http://www.w3.org/2000/svg" xmlns:xlink="http://www.w3.org/1999/xlink" xml:space="preserve" onload="init(evt)">
<style type="text/css"><![CDATA[
.edge:hover path { stroke: red; }
.edge:hover polygon { stroke: red; fill: red; }
]]></style>
<script type="text/javascript"><![CDATA[
var edges = document.getElementsByTagName('g');
if (edges && edges.length) {
  for (var i=0;i<edges.length;i++) {
    if (edges[i].id.substr(0,4)=='edge') {
      edges[i].setAttribute('class','edge');
    }
  }
}
]]></script>
        <defs>
                <circle id="rim" cx="0" cy="0" r="7"/>
                <circle id="rim2" cx="0" cy="0" r="3.5"/>
                <g id="zoomPlus">
                        <use xlink:href="#rim" fill="#404040">
                                <set attributeName="fill" to="#808080" begin="zoomplus.mouseover" end="zoomplus.mouseout"/>
                        </use>
                        <path d="M-4,0h8M0,-4v8" fill="none" stroke="white" stroke-width="1.5" pointer-events="none"/>
                </g>
                <g id="zoomMin">
                        <use xlink:href="#rim" fill="#404040">
                                <set attributeName="fill" to="#808080" begin="zoomminus.mouseover" end="zoomminus.mouseout"/>
                        </use>
                        <path d="M-4,0h8" fill="none" stroke="white" stroke-width="1.5" pointer-events="none"/>
                </g>
                <g id="dirArrow">
                        <path fill="none" stroke="white" stroke-width="1.5" d="M0,-3.0v7 M-2.5,-0.5L0,-3.0L2.5,-0.5"/>
                </g>
               <g id="resetDef">
                       <use xlink:href="#rim2" fill="#404040">
                               <set attributeName="fill" to="#808080" begin="reset.mouseover" end="reset.mouseout"/>
                       </use>
               </g>
        </defs>

<script type="text/javascript">
var viewWidth = 874;
var viewHeight = 464;
var sectionId = 'dynsection-0';
</script>
<script xlink:href="../../svgpan.js"/>
<svg id="graph" class="graph">
<g id="viewport">
<title>include/pfasst/quadrature/uniform.hpp</title>
<polygon fill="white" stroke="none" points="-4,4 -4,-460 870,-460 870,4 -4,4"/>
<!-- Node1 -->
<g id="node1" class="node"><title>Node1</title>
<polygon fill="#bfbfbf" stroke="black" points="542,-425.5 542,-455.5 672,-455.5 672,-425.5 542,-425.5"/>
<text text-anchor="start" x="550" y="-443.5" font-family="Helvetica,sans-Serif" font-size="10.00">include/pfasst/quadrature</text>
<text text-anchor="middle" x="607" y="-432.5" font-family="Helvetica,sans-Serif" font-size="10.00">/uniform.hpp</text>
</g>
<!-- Node2 -->
<g id="node2" class="node"><title>Node2</title>
<g id="a_node2"><a xlink:href="../../df/dea/quadrature_2interface_8hpp.html" target="_top" xlink:title="pfasst/quadrature/interface.hpp">
<polygon fill="white" stroke="black" points="370,-364 370,-383 524,-383 524,-364 370,-364"/>
<text text-anchor="middle" x="447" y="-371" font-family="Helvetica,sans-Serif" font-size="10.00">pfasst/quadrature/interface.hpp</text>
</a>
</g>
</g>
<!-- Node1&#45;&gt;Node2 -->
<g id="edge1" class="edge"><title>Node1&#45;&gt;Node2</title>
<path fill="none" stroke="midnightblue" d="M572.282,-425.396C543.96,-413.89 504.347,-397.797 477.295,-386.807"/>
<polygon fill="midnightblue" stroke="midnightblue" points="478.522,-383.528 467.94,-383.007 475.888,-390.013 478.522,-383.528"/>
</g>
<!-- Node30 -->
<g id="node30" class="node"><title>Node30</title>
<g id="a_node30"><a xlink:href="../../dc/da0/uniform__impl_8hpp.html" target="_top" xlink:title="pfasst/quadrature/uniform\l_impl.hpp">
<polygon fill="white" stroke="black" points="542,-358.5 542,-388.5 672,-388.5 672,-358.5 542,-358.5"/>
<text text-anchor="start" x="550" y="-376.5" font-family="Helvetica,sans-Serif" font-size="10.00">pfasst/quadrature/uniform</text>
<text text-anchor="middle" x="607" y="-365.5" font-family="Helvetica,sans-Serif" font-size="10.00">_impl.hpp</text>
</a>
</g>
</g>
<!-- Node1&#45;&gt;Node30 -->
<g id="edge43" class="edge"><title>Node1&#45;&gt;Node30</title>
<path fill="none" stroke="midnightblue" d="M601.322,-425.396C600.294,-417.56 600.005,-407.596 600.456,-398.565"/>
<polygon fill="midnightblue" stroke="midnightblue" points="603.945,-398.842 601.325,-388.577 596.972,-398.236 603.945,-398.842"/>
</g>
<!-- Node3 -->
<g id="node3" class="node"><title>Node3</title>
<polygon fill="white" stroke="#bfbfbf" points="359,-168.5 359,-187.5 409,-187.5 409,-168.5 359,-168.5"/>
<text text-anchor="middle" x="384" y="-175.5" font-family="Helvetica,sans-Serif" font-size="10.00">cassert</text>
</g>
<!-- Node2&#45;&gt;Node3 -->
<g id="edge2" class="edge"><title>Node2&#45;&gt;Node3</title>
<path fill="none" stroke="midnightblue" d="M446.837,-363.752C446.356,-348.629 444.459,-316.741 437,-291 426.818,-255.861 406.774,-217.981 394.465,-196.51"/>
<polygon fill="midnightblue" stroke="midnightblue" points="397.336,-194.486 389.268,-187.619 391.293,-198.018 397.336,-194.486"/>
</g>
<!-- Node4 -->
<g id="node4" class="node"><title>Node4</title>
<polygon fill="white" stroke="#bfbfbf" points="472,-230 472,-249 516,-249 516,-230 472,-230"/>
<text text-anchor="middle" x="494" y="-237" font-family="Helvetica,sans-Serif" font-size="10.00">vector</text>
</g>
<!-- Node2&#45;&gt;Node4 -->
<g id="edge3" class="edge"><title>Node2&#45;&gt;Node4</title>
<path fill="none" stroke="midnightblue" d="M451.458,-363.72C456.401,-353.77 464.413,-336.985 470,-322 477.871,-300.889 484.894,-275.955 489.278,-259.276"/>
<polygon fill="midnightblue" stroke="midnightblue" points="492.769,-259.753 491.87,-249.196 485.99,-258.01 492.769,-259.753"/>
</g>
<!-- Node5 -->
<g id="node5" class="node"><title>Node5</title>
<polygon fill="white" stroke="#bfbfbf" points="198.5,-297 198.5,-316 273.5,-316 273.5,-297 198.5,-297"/>
<text text-anchor="middle" x="236" y="-304" font-family="Helvetica,sans-Serif" font-size="10.00">Eigen/Dense</text>
</g>
<!-- Node2&#45;&gt;Node5 -->
<g id="edge4" class="edge"><title>Node2&#45;&gt;Node5</title>
<path fill="none" stroke="midnightblue" d="M419.141,-363.927C386.512,-353.884 330.829,-336.742 283,-322 279.899,-321.044 276.683,-320.053 273.455,-319.057"/>
<polygon fill="midnightblue" stroke="midnightblue" points="274.422,-315.693 263.834,-316.09 272.358,-322.382 274.422,-315.693"/>
</g>
<!-- Node6 -->
<g id="node6" class="node"><title>Node6</title>
<g id="a_node6"><a xlink:href="../../d5/d82/globals_8hpp.html" target="_top" xlink:title="pfasst/globals.hpp">
<polygon fill="white" stroke="black" points="427.5,-168.5 427.5,-187.5 524.5,-187.5 524.5,-168.5 427.5,-168.5"/>
<text text-anchor="middle" x="476" y="-175.5" font-family="Helvetica,sans-Serif" font-size="10.00">pfasst/globals.hpp</text>
</a>
</g>
</g>
<!-- Node2&#45;&gt;Node6 -->
<g id="edge5" class="edge"><title>Node2&#45;&gt;Node6</title>
<path fill="none" stroke="midnightblue" d="M455.96,-363.843C473.915,-345.723 513.56,-301.607 525,-255 528.284,-241.619 530.542,-236.614 525,-224 519.61,-211.732 509.042,-201.341 499.096,-193.646"/>
<polygon fill="midnightblue" stroke="midnightblue" points="500.828,-190.581 490.661,-187.598 496.748,-196.27 500.828,-190.581"/>
</g>
<!-- Node7 -->
<g id="node7" class="node"><title>Node7</title>
<g id="a_node7"><a xlink:href="../../d1/d1b/interfaces_8hpp.html" target="_top" xlink:title="interfaces for SDC/MLSDC/PFASST algorithms. ">
<polygon fill="white" stroke="black" points="652.5,-297 652.5,-316 759.5,-316 759.5,-297 652.5,-297"/>
<text text-anchor="middle" x="706" y="-304" font-family="Helvetica,sans-Serif" font-size="10.00">pfasst/interfaces.hpp</text>
</a>
</g>
</g>
<!-- Node2&#45;&gt;Node7 -->
<g id="edge6" class="edge"><title>Node2&#45;&gt;Node7</title>
<path fill="none" stroke="midnightblue" d="M481.126,-363.936C527.615,-352.268 610.9,-331.367 662.023,-318.537"/>
<polygon fill="midnightblue" stroke="midnightblue" points="662.951,-321.912 671.798,-316.083 661.247,-315.123 662.951,-321.912"/>
</g>
<!-- Node24 -->
<g id="node24" class="node"><title>Node24</title>
<g id="a_node24"><a xlink:href="../../d0/d3e/polynomial_8hpp.html" target="_top" xlink:title="pfasst/quadrature/polynomial.hpp">
<polygon fill="white" stroke="black" points="16,-297 16,-316 180,-316 180,-297 16,-297"/>
<text text-anchor="middle" x="98" y="-304" font-family="Helvetica,sans-Serif" font-size="10.00">pfasst/quadrature/polynomial.hpp</text>
</a>
</g>
</g>
<!-- Node2&#45;&gt;Node24 -->
<g id="edge33" class="edge"><title>Node2&#45;&gt;Node24</title>
<path fill="none" stroke="midnightblue" d="M401.015,-363.936C337.371,-352.082 222.545,-330.696 153.988,-317.928"/>
<polygon fill="midnightblue" stroke="midnightblue" points="154.281,-314.422 143.809,-316.032 152.999,-321.304 154.281,-314.422"/>
</g>
<!-- Node29 -->
<g id="node29" class="node"><title>Node29</title>
<g id="a_node29"><a xlink:href="../../de/da5/quadrature_2interface__impl_8hpp.html" target="_top" xlink:title="pfasst/quadrature/interface\l_impl.hpp">
<polygon fill="white" stroke="black" points="292,-291.5 292,-321.5 428,-321.5 428,-291.5 292,-291.5"/>
<text text-anchor="start" x="300" y="-309.5" font-family="Helvetica,sans-Serif" font-size="10.00">pfasst/quadrature/interface</text>
<text text-anchor="middle" x="360" y="-298.5" font-family="Helvetica,sans-Serif" font-size="10.00">_impl.hpp</text>
</a>
</g>
</g>
<!-- Node2&#45;&gt;Node29 -->
<g id="edge41" class="edge"><title>Node2&#45;&gt;Node29</title>
<path fill="none" stroke="midnightblue" d="M430.478,-363.734C416.349,-354.611 396.286,-340.004 381.069,-327.963"/>
<polygon fill="midnightblue" stroke="midnightblue" points="383.159,-325.152 373.181,-321.589 378.759,-330.597 383.159,-325.152"/>
</g>
<!-- Node8 -->
<g id="node8" class="node"><title>Node8</title>
<polygon fill="white" stroke="#bfbfbf" points="696.5,-168.5 696.5,-187.5 749.5,-187.5 749.5,-168.5 696.5,-168.5"/>
<text text-anchor="middle" x="723" y="-175.5" font-family="Helvetica,sans-Serif" font-size="10.00">memory</text>
</g>
<!-- Node7&#45;&gt;Node8 -->
<g id="edge7" class="edge"><title>Node7&#45;&gt;Node8</title>
<path fill="none" stroke="midnightblue" d="M707.168,-296.805C709.898,-276.494 716.744,-225.553 720.477,-197.777"/>
<polygon fill="midnightblue" stroke="midnightblue" points="723.96,-198.133 721.823,-187.756 717.023,-197.2 723.96,-198.133"/>
</g>
<!-- Node9 -->
<g id="node9" class="node"><title>Node9</title>
<polygon fill="white" stroke="#bfbfbf" points="806,-230 806,-249 866,-249 866,-230 806,-230"/>
<text text-anchor="middle" x="836" y="-237" font-family="Helvetica,sans-Serif" font-size="10.00">stdexcept</text>
</g>
<!-- Node7&#45;&gt;Node9 -->
<g id="edge8" class="edge"><title>Node7&#45;&gt;Node9</title>
<path fill="none" stroke="midnightblue" d="M723.263,-296.869C745.311,-285.845 783.689,-266.655 809.464,-253.768"/>
<polygon fill="midnightblue" stroke="midnightblue" points="811.287,-256.77 818.666,-249.167 808.156,-250.509 811.287,-256.77"/>
</g>
<!-- Node10 -->
<g id="node10" class="node"><title>Node10</title>
<polygon fill="white" stroke="#bfbfbf" points="720.5,-56.5 720.5,-75.5 761.5,-75.5 761.5,-56.5 720.5,-56.5"/>
<text text-anchor="middle" x="741" y="-63.5" font-family="Helvetica,sans-Serif" font-size="10.00">string</text>
</g>
<!-- Node7&#45;&gt;Node10 -->
<g id="edge9" class="edge"><title>Node7&#45;&gt;Node10</title>
<path fill="none" stroke="midnightblue" d="M711.419,-296.799C722.834,-277.887 749.041,-231.251 758,-188 765.466,-151.956 755.001,-109.183 747.482,-85.3631"/>
<polygon fill="midnightblue" stroke="midnightblue" points="750.701,-83.9512 744.214,-75.5738 744.061,-86.1676 750.701,-83.9512"/>
</g>
<!-- Node11 -->
<g id="node11" class="node"><title>Node11</title>
<g id="a_node11"><a xlink:href="../../d8/dc4/interfaces__impl_8hpp.html" target="_top" xlink:title="pfasst/interfaces_impl.hpp">
<polygon fill="white" stroke="black" points="572.5,-230 572.5,-249 703.5,-249 703.5,-230 572.5,-230"/>
<text text-anchor="middle" x="638" y="-237" font-family="Helvetica,sans-Serif" font-size="10.00">pfasst/interfaces_impl.hpp</text>
</a>
</g>
</g>
<!-- Node7&#45;&gt;Node11 -->
<g id="edge10" class="edge"><title>Node7&#45;&gt;Node11</title>
<path fill="none" stroke="midnightblue" d="M692.041,-296.734C679.182,-286.5 660.874,-269.364 649.01,-256.692"/>
<polygon fill="midnightblue" stroke="midnightblue" points="651.533,-254.263 642.266,-249.127 646.308,-258.921 651.533,-254.263"/>
</g>
<!-- Node11&#45;&gt;Node3 -->
<g id="edge12" class="edge"><title>Node11&#45;&gt;Node3</title>
<path fill="none" stroke="midnightblue" d="M598.962,-229.949C556.973,-220.661 488.002,-205.144 419.351,-188.275"/>
<polygon fill="midnightblue" stroke="midnightblue" points="419.774,-184.775 409.227,-185.777 418.097,-191.571 419.774,-184.775"/>
</g>
<!-- Node11&#45;&gt;Node6 -->
<g id="edge15" class="edge"><title>Node11&#45;&gt;Node6</title>
<path fill="none" stroke="midnightblue" d="M614.789,-229.975C587.001,-219.769 540.277,-202.608 508.806,-191.049"/>
<polygon fill="midnightblue" stroke="midnightblue" points="509.761,-187.671 499.168,-187.509 507.348,-194.242 509.761,-187.671"/>
</g>
<!-- Node11&#45;&gt;Node7 -->
<g id="edge11" class="edge"><title>Node11&#45;&gt;Node7</title>
<path fill="none" stroke="midnightblue" d="M651.785,-249.127C664.594,-259.298 682.906,-276.423 694.828,-289.135"/>
<polygon fill="midnightblue" stroke="midnightblue" points="692.345,-291.609 701.618,-296.734 697.565,-286.945 692.345,-291.609"/>
</g>
<!-- Node11&#45;&gt;Node8 -->
<g id="edge13" class="edge"><title>Node11&#45;&gt;Node8</title>
<path fill="none" stroke="midnightblue" d="M650.178,-229.975C663.812,-220.431 686.132,-204.807 702.474,-193.368"/>
<polygon fill="midnightblue" stroke="midnightblue" points="704.659,-196.111 710.844,-187.509 700.645,-190.376 704.659,-196.111"/>
</g>
<!-- Node11&#45;&gt;Node10 -->
<g id="edge14" class="edge"><title>Node11&#45;&gt;Node10</title>
<path fill="none" stroke="midnightblue" d="M643.249,-229.76C659.437,-202.806 708.799,-120.616 730.536,-84.4237"/>
<polygon fill="midnightblue" stroke="midnightblue" points="733.735,-85.8941 735.883,-75.5194 727.734,-82.2901 733.735,-85.8941"/>
</g>
<!-- Node12 -->
<g id="node12" class="node"><title>Node12</title>
<g id="a_node12"><a xlink:href="../../d0/da9/logging_8hpp.html" target="_top" xlink:title="pfasst/logging.hpp">
<polygon fill="white" stroke="black" points="542,-168.5 542,-187.5 640,-187.5 640,-168.5 542,-168.5"/>
<text text-anchor="middle" x="591" y="-175.5" font-family="Helvetica,sans-Serif" font-size="10.00">pfasst/logging.hpp</text>
</a>
</g>
</g>
<!-- Node11&#45;&gt;Node12 -->
<g id="edge16" class="edge"><title>Node11&#45;&gt;Node12</title>
<path fill="none" stroke="midnightblue" d="M631.266,-229.975C624.216,-221.05 612.965,-206.807 604.146,-195.643"/>
<polygon fill="midnightblue" stroke="midnightblue" points="606.667,-193.187 597.721,-187.509 601.174,-197.526 606.667,-193.187"/>
</g>
<!-- Node12&#45;&gt;Node10 -->
<g id="edge19" class="edge"><title>Node12&#45;&gt;Node10</title>
<path fill="none" stroke="midnightblue" d="M602.77,-168.368C628.401,-149.573 689.498,-104.768 721.182,-81.5334"/>
<polygon fill="midnightblue" stroke="midnightblue" points="723.29,-84.3275 729.284,-75.5914 719.151,-78.6827 723.29,-84.3275"/>
</g>
<!-- Node13 -->
<g id="node13" class="node"><title>Node13</title>
<polygon fill="white" stroke="#bfbfbf" points="185,-112.5 185,-131.5 237,-131.5 237,-112.5 185,-112.5"/>
<text text-anchor="middle" x="211" y="-119.5" font-family="Helvetica,sans-Serif" font-size="10.00">iomanip</text>
</g>
<!-- Node12&#45;&gt;Node13 -->
<g id="edge17" class="edge"><title>Node12&#45;&gt;Node13</title>
<path fill="none" stroke="midnightblue" d="M541.967,-169.289C538.934,-168.843 535.926,-168.411 533,-168 408.924,-150.595 374.041,-155.771 247.382,-132.056"/>
<polygon fill="midnightblue" stroke="midnightblue" points="247.77,-128.567 237.293,-130.142 246.465,-135.444 247.77,-128.567"/>
</g>
<!-- Node14 -->
<g id="node14" class="node"><title>Node14</title>
<polygon fill="white" stroke="#bfbfbf" points="197,-56.5 197,-75.5 253,-75.5 253,-56.5 197,-56.5"/>
<text text-anchor="middle" x="225" y="-63.5" font-family="Helvetica,sans-Serif" font-size="10.00">iostream</text>
</g>
<!-- Node12&#45;&gt;Node14 -->
<g id="edge18" class="edge"><title>Node12&#45;&gt;Node14</title>
<path fill="none" stroke="midnightblue" d="M541.978,-169.205C538.943,-168.78 535.931,-168.375 533,-168 493.454,-162.942 202.739,-161.571 176,-132 161.123,-115.547 182.909,-94.8345 201.993,-81.2707"/>
<polygon fill="midnightblue" stroke="midnightblue" points="204.095,-84.075 210.43,-75.5827 200.182,-78.2709 204.095,-84.075"/>
</g>
<!-- Node15 -->
<g id="node15" class="node"><title>Node15</title>
<polygon fill="white" stroke="#bfbfbf" points="255.5,-112.5 255.5,-131.5 386.5,-131.5 386.5,-112.5 255.5,-112.5"/>
<text text-anchor="middle" x="321" y="-119.5" font-family="Helvetica,sans-Serif" font-size="10.00">boost/algorithm/string.hpp</text>
</g>
<!-- Node12&#45;&gt;Node15 -->
<g id="edge20" class="edge"><title>Node12&#45;&gt;Node15</title>
<path fill="none" stroke="midnightblue" d="M548.218,-168.444C500.821,-158.964 424.374,-143.675 373.417,-133.483"/>
<polygon fill="midnightblue" stroke="midnightblue" points="374.074,-130.046 363.582,-131.516 372.702,-136.91 374.074,-130.046"/>
</g>
<!-- Node16 -->
<g id="node16" class="node"><title>Node16</title>
<g id="a_node16"><a xlink:href="../../d8/dfd/config_8hpp.html" target="_top" xlink:title="pfasst/config.hpp">
<polygon fill="white" stroke="black" points="545.5,-112.5 545.5,-131.5 636.5,-131.5 636.5,-112.5 545.5,-112.5"/>
<text text-anchor="middle" x="591" y="-119.5" font-family="Helvetica,sans-Serif" font-size="10.00">pfasst/config.hpp</text>
</a>
</g>
</g>
<!-- Node12&#45;&gt;Node16 -->
<g id="edge21" class="edge"><title>Node12&#45;&gt;Node16</title>
<path fill="none" stroke="midnightblue" d="M591,-168.083C591,-161.006 591,-150.861 591,-141.986"/>
<polygon fill="midnightblue" stroke="midnightblue" points="594.5,-141.751 591,-131.751 587.5,-141.751 594.5,-141.751"/>
</g>
<!-- Node23 -->
<g id="node23" class="node"><title>Node23</title>
<polygon fill="white" stroke="#bfbfbf" points="405,-112.5 405,-131.5 527,-131.5 527,-112.5 405,-112.5"/>
<text text-anchor="middle" x="466" y="-119.5" font-family="Helvetica,sans-Serif" font-size="10.00">pfasst/easylogging++.h</text>
</g>
<!-- Node12&#45;&gt;Node23 -->
<g id="edge32" class="edge"><title>Node12&#45;&gt;Node23</title>
<path fill="none" stroke="midnightblue" d="M571.193,-168.444C550.713,-159.596 518.517,-145.687 495.135,-135.586"/>
<polygon fill="midnightblue" stroke="midnightblue" points="496.282,-132.269 485.714,-131.516 493.506,-138.695 496.282,-132.269"/>
</g>
<!-- Node16&#45;&gt;Node10 -->
<g id="edge24" class="edge"><title>Node16&#45;&gt;Node10</title>
<path fill="none" stroke="midnightblue" d="M614.768,-112.444C640.666,-103.12 682.176,-88.1768 710.469,-77.9911"/>
<polygon fill="midnightblue" stroke="midnightblue" points="712.018,-81.1534 720.242,-74.473 709.647,-74.5672 712.018,-81.1534"/>
</g>
<!-- Node16&#45;&gt;Node14 -->
<g id="edge23" class="edge"><title>Node16&#45;&gt;Node14</title>
<path fill="none" stroke="midnightblue" d="M545.392,-113.47C542.214,-112.966 539.06,-112.472 536,-112 437.832,-96.8671 321.991,-80.4979 263.271,-72.3052"/>
<polygon fill="midnightblue" stroke="midnightblue" points="263.715,-68.8334 253.327,-70.92 262.749,-75.7664 263.715,-68.8334"/>
</g>
<!-- Node17 -->
<g id="node17" class="node"><title>Node17</title>
<polygon fill="white" stroke="#bfbfbf" points="485,-0.5 485,-19.5 535,-19.5 535,-0.5 485,-0.5"/>
<text text-anchor="middle" x="510" y="-7.5" font-family="Helvetica,sans-Serif" font-size="10.00">fstream</text>
</g>
<!-- Node16&#45;&gt;Node17 -->
<g id="edge22" class="edge"><title>Node16&#45;&gt;Node17</title>
<path fill="none" stroke="midnightblue" d="M571.244,-112.474C556.286,-105.002 536.426,-92.7158 525,-76 515.708,-62.4052 512.11,-43.8601 510.748,-30.0576"/>
<polygon fill="midnightblue" stroke="midnightblue" points="514.221,-29.5327 510.054,-19.7917 507.237,-30.0051 514.221,-29.5327"/>
</g>
<!-- Node18 -->
<g id="node18" class="node"><title>Node18</title>
<polygon fill="white" stroke="#bfbfbf" points="666,-56.5 666,-75.5 702,-75.5 702,-56.5 666,-56.5"/>
<text text-anchor="middle" x="684" y="-63.5" font-family="Helvetica,sans-Serif" font-size="10.00">map</text>
</g>
<!-- Node16&#45;&gt;Node18 -->
<g id="edge25" class="edge"><title>Node16&#45;&gt;Node18</title>
<path fill="none" stroke="midnightblue" d="M605.942,-112.324C620.585,-103.822 643.134,-90.7288 660.238,-80.7975"/>
<polygon fill="midnightblue" stroke="midnightblue" points="662.205,-83.7027 669.095,-75.6545 658.69,-77.6491 662.205,-83.7027"/>
</g>
<!-- Node19 -->
<g id="node19" class="node"><title>Node19</title>
<polygon fill="white" stroke="#bfbfbf" points="340.5,-56.5 340.5,-75.5 477.5,-75.5 477.5,-56.5 340.5,-56.5"/>
<text text-anchor="middle" x="409" y="-63.5" font-family="Helvetica,sans-Serif" font-size="10.00">boost/program_options.hpp</text>
</g>
<!-- Node16&#45;&gt;Node19 -->
<g id="edge26" class="edge"><title>Node16&#45;&gt;Node19</title>
<path fill="none" stroke="midnightblue" d="M562.162,-112.444C531.144,-103.241 481.671,-88.5617 447.382,-78.3879"/>
<polygon fill="midnightblue" stroke="midnightblue" points="448.286,-75.0055 437.704,-75.5164 446.295,-81.7164 448.286,-75.0055"/>
</g>
<!-- Node20 -->
<g id="node20" class="node"><title>Node20</title>
<g id="a_node20"><a xlink:href="../../d5/d84/config__impl_8hpp.html" target="_top" xlink:title="pfasst/config_impl.hpp">
<polygon fill="white" stroke="black" points="534,-56.5 534,-75.5 648,-75.5 648,-56.5 534,-56.5"/>
<text text-anchor="middle" x="591" y="-63.5" font-family="Helvetica,sans-Serif" font-size="10.00">pfasst/config_impl.hpp</text>
</a>
</g>
</g>
<!-- Node16&#45;&gt;Node20 -->
<g id="edge27" class="edge"><title>Node16&#45;&gt;Node20</title>
<path fill="none" stroke="midnightblue" d="M585.834,-112.083C584.324,-104.927 583.894,-94.6353 584.542,-85.6911"/>
<polygon fill="midnightblue" stroke="midnightblue" points="588.015,-86.1262 585.869,-75.7511 581.077,-85.2002 588.015,-86.1262"/>
</g>
<!-- Node20&#45;&gt;Node16 -->
<g id="edge28" class="edge"><title>Node20&#45;&gt;Node16</title>
<path fill="none" stroke="midnightblue" d="M596.131,-75.7511C597.657,-82.8579 598.104,-93.1357 597.472,-102.101"/>
<polygon fill="midnightblue" stroke="midnightblue" points="593.993,-101.713 596.166,-112.083 600.934,-102.622 593.993,-101.713"/>
</g>
<!-- Node20&#45;&gt;Node17 -->
<g id="edge29" class="edge"><title>Node20&#45;&gt;Node17</title>
<path fill="none" stroke="midnightblue" d="M577.986,-56.324C565.468,-47.979 546.318,-35.2122 531.529,-25.3524"/>
<polygon fill="midnightblue" stroke="midnightblue" points="533.244,-22.2894 522.982,-19.6545 529.361,-28.1137 533.244,-22.2894"/>
</g>
<!-- Node21 -->
<g id="node21" class="node"><title>Node21</title>
<polygon fill="white" stroke="#bfbfbf" points="560.5,-0.5 560.5,-19.5 613.5,-19.5 613.5,-0.5 560.5,-0.5"/>
<text text-anchor="middle" x="587" y="-7.5" font-family="Helvetica,sans-Serif" font-size="10.00">sstream</text>
</g>
<!-- Node20&#45;&gt;Node21 -->
<g id="edge30" class="edge"><title>Node20&#45;&gt;Node21</title>
<path fill="none" stroke="midnightblue" d="M590.339,-56.083C589.815,-49.0059 589.064,-38.8611 588.406,-29.9865"/>
<polygon fill="midnightblue" stroke="midnightblue" points="591.877,-29.4652 587.648,-19.7511 584.897,-29.9823 591.877,-29.4652"/>
</g>
<!-- Node22 -->
<g id="node22" class="node"><title>Node22</title>
<polygon fill="white" stroke="#bfbfbf" points="632,-0.5 632,-19.5 670,-19.5 670,-0.5 632,-0.5"/>
<text text-anchor="middle" x="651" y="-7.5" font-family="Helvetica,sans-Serif" font-size="10.00">utility</text>
</g>
<!-- Node20&#45;&gt;Node22 -->
<g id="edge31" class="edge"><title>Node20&#45;&gt;Node22</title>
<path fill="none" stroke="midnightblue" d="M600.64,-56.324C609.51,-48.3414 622.875,-36.3128 633.608,-26.6529"/>
<polygon fill="midnightblue" stroke="midnightblue" points="636.093,-29.1251 641.185,-19.8339 631.41,-23.922 636.093,-29.1251"/>
</g>
<!-- Node24&#45;&gt;Node4 -->
<g id="edge34" class="edge"><title>Node24&#45;&gt;Node4</title>
<path fill="none" stroke="midnightblue" d="M150.177,-296.936C233.309,-283.29 393.398,-257.013 461.767,-245.791"/>
<polygon fill="midnightblue" stroke="midnightblue" points="462.626,-249.197 471.927,-244.123 461.492,-242.289 462.626,-249.197"/>
</g>
<!-- Node25 -->
<g id="node25" class="node"><title>Node25</title>
<g id="a_node25"><a xlink:href="../../dc/de8/polynomial__impl_8hpp.html" target="_top" xlink:title="pfasst/quadrature/polynomial\l_impl.hpp">
<polygon fill="white" stroke="black" points="25,-224.5 25,-254.5 171,-254.5 171,-224.5 25,-224.5"/>
<text text-anchor="start" x="33" y="-242.5" font-family="Helvetica,sans-Serif" font-size="10.00">pfasst/quadrature/polynomial</text>
<text text-anchor="middle" x="98" y="-231.5" font-family="Helvetica,sans-Serif" font-size="10.00">_impl.hpp</text>
</a>
</g>
</g>
<!-- Node24&#45;&gt;Node25 -->
<g id="edge35" class="edge"><title>Node24&#45;&gt;Node25</title>
<path fill="none" stroke="midnightblue" d="M93.2115,-296.734C91.4874,-288.541 90.8999,-275.923 91.4489,-264.714"/>
<polygon fill="midnightblue" stroke="midnightblue" points="94.9498,-264.853 92.3235,-254.589 87.9758,-264.251 94.9498,-264.853"/>
</g>
<!-- Node25&#45;&gt;Node3 -->
<g id="edge38" class="edge"><title>Node25&#45;&gt;Node3</title>
<path fill="none" stroke="midnightblue" d="M165.416,-224.475C222.87,-212.522 303.167,-195.817 348.737,-186.336"/>
<polygon fill="midnightblue" stroke="midnightblue" points="349.649,-189.721 358.727,-184.258 348.223,-182.868 349.649,-189.721"/>
</g>
<!-- Node25&#45;&gt;Node24 -->
<g id="edge36" class="edge"><title>Node25&#45;&gt;Node24</title>
<path fill="none" stroke="midnightblue" d="M103.676,-254.589C104.912,-264.001 105.081,-276.487 104.183,-286.739"/>
<polygon fill="midnightblue" stroke="midnightblue" points="100.703,-286.346 102.789,-296.734 107.636,-287.313 100.703,-286.346"/>
</g>
<!-- Node26 -->
<g id="node26" class="node"><title>Node26</title>
<polygon fill="white" stroke="#bfbfbf" points="0,-168.5 0,-187.5 58,-187.5 58,-168.5 0,-168.5"/>
<text text-anchor="middle" x="29" y="-175.5" font-family="Helvetica,sans-Serif" font-size="10.00">algorithm</text>
</g>
<!-- Node25&#45;&gt;Node26 -->
<g id="edge37" class="edge"><title>Node25&#45;&gt;Node26</title>
<path fill="none" stroke="midnightblue" d="M81.648,-224.399C71.1046,-215.308 57.4001,-203.49 46.6164,-194.191"/>
<polygon fill="midnightblue" stroke="midnightblue" points="48.899,-191.538 39.0401,-187.658 44.3276,-196.839 48.899,-191.538"/>
</g>
<!-- Node27 -->
<g id="node27" class="node"><title>Node27</title>
<polygon fill="white" stroke="#bfbfbf" points="76,-168.5 76,-187.5 120,-187.5 120,-168.5 76,-168.5"/>
<text text-anchor="middle" x="98" y="-175.5" font-family="Helvetica,sans-Serif" font-size="10.00">cmath</text>
</g>
<!-- Node25&#45;&gt;Node27 -->
<g id="edge39" class="edge"><title>Node25&#45;&gt;Node27</title>
<path fill="none" stroke="midnightblue" d="M98,-224.399C98,-216.466 98,-206.458 98,-197.858"/>
<polygon fill="midnightblue" stroke="midnightblue" points="101.5,-197.658 98,-187.658 94.5001,-197.658 101.5,-197.658"/>
</g>
<!-- Node28 -->
<g id="node28" class="node"><title>Node28</title>
<polygon fill="white" stroke="#bfbfbf" points="138.5,-168.5 138.5,-187.5 193.5,-187.5 193.5,-168.5 138.5,-168.5"/>
<text text-anchor="middle" x="166" y="-175.5" font-family="Helvetica,sans-Serif" font-size="10.00">complex</text>
</g>
<!-- Node25&#45;&gt;Node28 -->
<g id="edge40" class="edge"><title>Node25&#45;&gt;Node28</title>
<path fill="none" stroke="midnightblue" d="M114.115,-224.399C124.404,-215.397 137.747,-203.721 148.326,-194.465"/>
<polygon fill="midnightblue" stroke="midnightblue" points="150.884,-196.877 156.105,-187.658 146.275,-191.609 150.884,-196.877"/>
</g>
<!-- Node29&#45;&gt;Node2 -->
<g id="edge42" class="edge"><title>Node29&#45;&gt;Node2</title>
<path fill="none" stroke="midnightblue" d="M384.534,-321.589C399.987,-332.102 419.241,-346.452 432.394,-357.237"/>
<polygon fill="midnightblue" stroke="midnightblue" points="430.165,-359.935 440.055,-363.734 434.692,-354.597 430.165,-359.935"/>
</g>
<!-- Node30&#45;&gt;Node1 -->
<g id="edge44" class="edge"><title>Node30&#45;&gt;Node1</title>
<path fill="none" stroke="midnightblue" d="M612.675,-388.577C613.704,-396.408 613.995,-406.37 613.545,-415.403"/>
<polygon fill="midnightblue" stroke="midnightblue" points="610.056,-415.131 612.678,-425.396 617.03,-415.736 610.056,-415.131"/>
</g>
<!-- Node30&#45;&gt;Node4 -->
<g id="edge46" class="edge"><title>Node30&#45;&gt;Node4</title>
<path fill="none" stroke="midnightblue" d="M594.907,-358.374C573.832,-333.755 530.488,-283.124 508.09,-256.959"/>
<polygon fill="midnightblue" stroke="midnightblue" points="510.522,-254.418 501.36,-249.097 505.204,-258.97 510.522,-254.418"/>
</g>
<!-- Node30&#45;&gt;Node9 -->
<g id="edge45" class="edge"><title>Node30&#45;&gt;Node9</title>
<path fill="none" stroke="midnightblue" d="M672.263,-360.958C703.129,-353.351 739.393,-341.142 768,-322 793.301,-305.07 814.266,-276.051 825.954,-257.595"/>
<polygon fill="midnightblue" stroke="midnightblue" points="828.963,-259.384 831.195,-249.027 822.991,-255.732 828.963,-259.384"/>
</g>
</g>
</svg>
        <g id="navigator" transform="translate(0 0)" fill="#404254">
                <rect fill="#f2f5e9" fill-opacity="0.5" stroke="#606060" stroke-width=".5" x="0" y="0" width="60" height="60"/>
                <use id="zoomplus" xlink:href="#zoomPlus" x="17" y="9" onmousedown="handleZoom(evt,'in')"/>
                <use id="zoomminus" xlink:href="#zoomMin" x="42" y="9" onmousedown="handleZoom(evt,'out')"/>
                <use id="reset" xlink:href="#resetDef" x="30" y="36" onmousedown="handleReset()"/>
                <g id="arrowUp" xlink:href="#dirArrow" transform="translate(30 24)" onmousedown="handlePan(0,-1)">
                  <use xlink:href="#rim" fill="#404040">
                        <set attributeName="fill" to="#808080" begin="arrowUp.mouseover" end="arrowUp.mouseout"/>
                  </use>
                  <path fill="none" stroke="white" stroke-width="1.5" d="M0,-3.0v7 M-2.5,-0.5L0,-3.0L2.5,-0.5"/>
                </g>
                <g id="arrowRight" xlink:href="#dirArrow" transform="rotate(90) translate(36 -43)" onmousedown="handlePan(1,0)">
                  <use xlink:href="#rim" fill="#404040">
                        <set attributeName="fill" to="#808080" begin="arrowRight.mouseover" end="arrowRight.mouseout"/>
                  </use>
                  <path fill="none" stroke="white" stroke-width="1.5" d="M0,-3.0v7 M-2.5,-0.5L0,-3.0L2.5,-0.5"/>
                </g>
                <g id="arrowDown" xlink:href="#dirArrow" transform="rotate(180) translate(-30 -48)" onmousedown="handlePan(0,1)">
                  <use xlink:href="#rim" fill="#404040">
                        <set attributeName="fill" to="#808080" begin="arrowDown.mouseover" end="arrowDown.mouseout"/>
                  </use>
                  <path fill="none" stroke="white" stroke-width="1.5" d="M0,-3.0v7 M-2.5,-0.5L0,-3.0L2.5,-0.5"/>
                </g>
                <g id="arrowLeft" xlink:href="#dirArrow" transform="rotate(270) translate(-36 17)" onmousedown="handlePan(-1,0)">
                  <use xlink:href="#rim" fill="#404040">
                        <set attributeName="fill" to="#808080" begin="arrowLeft.mouseover" end="arrowLeft.mouseout"/>
                  </use>
                  <path fill="none" stroke="white" stroke-width="1.5" d="M0,-3.0v7 M-2.5,-0.5L0,-3.0L2.5,-0.5"/>
                </g>
        </g>
        <svg viewBox="0 0 15 15" width="100%" height="30px" preserveAspectRatio="xMaxYMin meet">
         <g id="arrow_out" transform="scale(0.3 0.3)">
          <a xlink:href="uniform_8hpp__incl_org.svg" target="_base">
           <rect id="button" ry="5" rx="5" y="6" x="6" height="38" width="38"
                fill="#f2f5e9" fill-opacity="0.5" stroke="#606060" stroke-width="1.0"/>
           <path id="arrow"
             d="M 11.500037,31.436501 C 11.940474,20.09759 22.043105,11.32322 32.158766,21.979434 L 37.068811,17.246167 C 37.068811,17.246167 37.088388,32 37.088388,32 L 22.160133,31.978069 C 22.160133,31.978069 26.997745,27.140456 26.997745,27.140456 C 18.528582,18.264221 13.291696,25.230495 11.500037,31.436501 z"
             style="fill:#404040;"/>
          </a>
         </g>
        </svg>
</svg>
