<?xml version="1.0" encoding="UTF-8" standalone="no"?>
<!DOCTYPE svg PUBLIC "-//W3C//DTD SVG 1.1//EN"
 "http://www.w3.org/Graphics/SVG/1.1/DTD/svg11.dtd">
<!-- Generated by graphviz version 2.38.0 (20140413.2041)
 -->
<!-- Title: src/pfasst Pages: 1 -->
<svg width="342pt" height="159pt"
 viewBox="0.00 0.00 342.00 159.00" xmlns="http://www.w3.org/2000/svg" xmlns:xlink="http://www.w3.org/1999/xlink">
<g id="graph0" class="graph" transform="scale(1 1) rotate(0) translate(4 155)">
<title>src/pfasst</title>
<polygon fill="white" stroke="none" points="-4,4 -4,-155 338,-155 338,4 -4,4"/>
<g id="clust1" class="cluster"><title>clusterdir_68267d1309a1af8e8297ef4c3efbcdba</title>
<g id="a_clust1"><a xlink:href="dir_68267d1309a1af8e8297ef4c3efbcdba.html" target="_top" xlink:title="src">
<polygon fill="#ddddee" stroke="black" points="8,-56 8,-143 326,-143 326,-56 8,-56"/>
<text text-anchor="middle" x="167" y="-131" font-family="Helvetica,sans-Serif" font-size="10.00">src</text>
</a>
</g>
</g>
<g id="clust2" class="cluster"><title>clusterdir_390897841e68d16c0f0cb607616ea75a</title>
<g id="a_clust2"><a xlink:href="dir_390897841e68d16c0f0cb607616ea75a.html" target="_top">
<polygon fill="#eeeeff" stroke="black" points="16,-64 16,-116 318,-116 318,-64 16,-64"/>
</a>
</g>
</g>
<!-- dir_390897841e68d16c0f0cb607616ea75a -->
<g id="node1" class="node"><title>dir_390897841e68d16c0f0cb607616ea75a</title>
<text text-anchor="middle" x="283" y="-87.5" font-family="Helvetica,sans-Serif" font-size="10.00">pfasst</text>
</g>
<!-- dir_ac358aad37bbf699b25ddf7d77b3e312 -->
<g id="node2" class="node"><title>dir_ac358aad37bbf699b25ddf7d77b3e312</title>
<g id="a_node2"><a xlink:href="dir_ac358aad37bbf699b25ddf7d77b3e312.html" target="_top" xlink:title="controller">
<polygon fill="white" stroke="black" points="238,-108 180,-108 180,-72 238,-72 238,-108"/>
<text text-anchor="middle" x="209" y="-87.5" font-family="Helvetica,sans-Serif" font-size="10.00">controller</text>
</a>
</g>
</g>
<!-- dir_d44c64559bbebec7f509842c48db8b23 -->
<g id="node5" class="node"><title>dir_d44c64559bbebec7f509842c48db8b23</title>
<g id="a_node5"><a xlink:href="dir_d44c64559bbebec7f509842c48db8b23.html" target="_top" xlink:title="include">
<polygon fill="white" stroke="red" points="162,-36 108,-36 108,-0 162,-0 162,-36"/>
<text text-anchor="middle" x="135" y="-15.5" font-family="Helvetica,sans-Serif" font-size="10.00">include</text>
</a>
</g>
</g>
<!-- dir_ac358aad37bbf699b25ddf7d77b3e312&#45;&gt;dir_d44c64559bbebec7f509842c48db8b23 -->
<g id="edge2" class="edge"><title>dir_ac358aad37bbf699b25ddf7d77b3e312&#45;&gt;dir_d44c64559bbebec7f509842c48db8b23</title>
<path fill="none" stroke="black" d="M184.792,-71.6966C174.858,-63.135 163.599,-52.6562 154.232,-43.3045"/>
<polygon fill="black" stroke="black" points="156.682,-40.8043 147.187,-36.1043 151.679,-45.6998 156.682,-40.8043"/>
<g id="a_edge2&#45;headlabel"><a xlink:href="dir_000013_000006.html" target="_top" xlink:title="7">
<text text-anchor="middle" x="161.225" y="-38.8879" font-family="Helvetica,sans-Serif" font-size="10.00">7</text>
</a>
</g>
</g>
<!-- dir_81df837afe14638bfa94f3b8c93927c0 -->
<g id="node3" class="node"><title>dir_81df837afe14638bfa94f3b8c93927c0</title>
<g id="a_node3"><a xlink:href="dir_81df837afe14638bfa94f3b8c93927c0.html" target="_top" xlink:title="encap">
<polygon fill="white" stroke="black" points="162,-108 108,-108 108,-72 162,-72 162,-108"/>
<text text-anchor="middle" x="135" y="-87.5" font-family="Helvetica,sans-Serif" font-size="10.00">encap</text>
</a>
</g>
</g>
<!-- dir_81df837afe14638bfa94f3b8c93927c0&#45;&gt;dir_d44c64559bbebec7f509842c48db8b23 -->
<g id="edge1" class="edge"><title>dir_81df837afe14638bfa94f3b8c93927c0&#45;&gt;dir_d44c64559bbebec7f509842c48db8b23</title>
<path fill="none" stroke="black" d="M129.084,-71.6966C128.289,-63.9827 128.062,-54.7125 128.405,-46.1124"/>
<polygon fill="black" stroke="black" points="131.898,-46.3243 129.105,-36.1043 124.915,-45.8356 131.898,-46.3243"/>
<g id="a_edge1&#45;headlabel"><a xlink:href="dir_000015_000006.html" target="_top" xlink:title="16">
<text text-anchor="middle" x="134.48" y="-47.6083" font-family="Helvetica,sans-Serif" font-size="10.00">16</text>
</a>
</g>
</g>
<!-- dir_71b06e9a349c77df9a55223d5c6d0fa4 -->
<g id="node4" class="node"><title>dir_71b06e9a349c77df9a55223d5c6d0fa4</title>
<g id="a_node4"><a xlink:href="dir_71b06e9a349c77df9a55223d5c6d0fa4.html" target="_top" xlink:title="quadrature">
<polygon fill="white" stroke="black" points="89.5,-108 24.5,-108 24.5,-72 89.5,-72 89.5,-108"/>
<text text-anchor="middle" x="57" y="-87.5" font-family="Helvetica,sans-Serif" font-size="10.00">quadrature</text>
</a>
</g>
</g>
<!-- dir_71b06e9a349c77df9a55223d5c6d0fa4&#45;&gt;dir_d44c64559bbebec7f509842c48db8b23 -->
<g id="edge3" class="edge"><title>dir_71b06e9a349c77df9a55223d5c6d0fa4&#45;&gt;dir_d44c64559bbebec7f509842c48db8b23</title>
<path fill="none" stroke="black" d="M70.3652,-71.6966C79.1935,-62.9655 90.9728,-52.2405 102.105,-42.7503"/>
<polygon fill="black" stroke="black" points="104.624,-45.2066 110.046,-36.1043 100.131,-39.8387 104.624,-45.2066"/>
<g id="a_edge3&#45;headlabel"><a xlink:href="dir_000014_000006.html" target="_top" xlink:title="11">
<text text-anchor="middle" x="103.69" y="-47.191" font-family="Helvetica,sans-Serif" font-size="10.00">11</text>
</a>
</g>
</g>
<!-- dir_d44c64559bbebec7f509842c48db8b23&#45;&gt;dir_ac358aad37bbf699b25ddf7d77b3e312 -->
<g id="edge5" class="edge"><title>dir_d44c64559bbebec7f509842c48db8b23&#45;&gt;dir_ac358aad37bbf699b25ddf7d77b3e312</title>
<path fill="none" stroke="black" d="M158.977,-36.1043C168.89,-44.636 180.154,-55.1084 189.55,-64.4775"/>
<polygon fill="black" stroke="black" points="187.125,-67.0035 196.624,-71.6966 192.125,-62.1044 187.125,-67.0035"/>
<g id="a_edge5&#45;headlabel"><a xlink:href="dir_000006_000013.html" target="_top" xlink:title="4">
<text text-anchor="middle" x="182.581" y="-63.9232" font-family="Helvetica,sans-Serif" font-size="10.00">4</text>
</a>
</g>
</g>
<!-- dir_d44c64559bbebec7f509842c48db8b23&#45;&gt;dir_81df837afe14638bfa94f3b8c93927c0 -->
<g id="edge4" class="edge"><title>dir_d44c64559bbebec7f509842c48db8b23&#45;&gt;dir_81df837afe14638bfa94f3b8c93927c0</title>
<path fill="none" stroke="black" d="M140.895,-36.1043C141.701,-43.7913 141.937,-53.0537 141.604,-61.6651"/>
<polygon fill="black" stroke="black" points="138.109,-61.4805 140.916,-71.6966 145.092,-61.9597 138.109,-61.4805"/>
<g id="a_edge4&#45;headlabel"><a xlink:href="dir_000006_000015.html" target="_top" xlink:title="6">
<text text-anchor="middle" x="135.522" y="-55.2" font-family="Helvetica,sans-Serif" font-size="10.00">6</text>
</a>
</g>
</g>
<!-- dir_d44c64559bbebec7f509842c48db8b23&#45;&gt;dir_71b06e9a349c77df9a55223d5c6d0fa4 -->
<g id="edge6" class="edge"><title>dir_d44c64559bbebec7f509842c48db8b23&#45;&gt;dir_71b06e9a349c77df9a55223d5c6d0fa4</title>
<path fill="none" stroke="black" d="M121.836,-36.1043C113.053,-44.8049 101.291,-55.524 90.149,-65.0328"/>
<polygon fill="black" stroke="black" points="87.6134,-62.5911 82.1966,-71.6966 92.1093,-67.9564 87.6134,-62.5911"/>
<g id="a_edge6&#45;headlabel"><a xlink:href="dir_000006_000014.html" target="_top" xlink:title="7">
<text text-anchor="middle" x="88.5449" y="-55.6062" font-family="Helvetica,sans-Serif" font-size="10.00">7</text>
</a>
</g>
</g>
</g>
</svg>
