<?xml version="1.0" encoding="UTF-8" standalone="no"?>
<!DOCTYPE svg PUBLIC "-//W3C//DTD SVG 1.1//EN"
 "http://www.w3.org/Graphics/SVG/1.1/DTD/svg11.dtd">
<!-- Generated by graphviz version 2.38.0 (20140413.2041)
 -->
<!-- Title: tests Pages: 1 -->
<svg width="228pt" height="148pt"
 viewBox="0.00 0.00 228.00 148.00" xmlns="http://www.w3.org/2000/svg" xmlns:xlink="http://www.w3.org/1999/xlink">
<g id="graph0" class="graph" transform="scale(1 1) rotate(0) translate(4 144)">
<title>tests</title>
<polygon fill="white" stroke="none" points="-4,4 -4,-144 224,-144 224,4 -4,4"/>
<g id="clust1" class="cluster"><title>clusterdir_59425e443f801f1f2fd8bbe4959a3ccf</title>
<g id="a_clust1"><a xlink:href="dir_59425e443f801f1f2fd8bbe4959a3ccf.html" target="_top">
<polygon fill="#eeeeff" stroke="black" points="8,-8 8,-132 158,-132 158,-8 8,-8"/>
</a>
</g>
</g>
<!-- dir_59425e443f801f1f2fd8bbe4959a3ccf -->
<g id="node1" class="node"><title>dir_59425e443f801f1f2fd8bbe4959a3ccf</title>
<text text-anchor="middle" x="43" y="-103.5" font-family="Helvetica,sans-Serif" font-size="10.00">tests</text>
</g>
<!-- dir_b87ca3cfcec86d8417c05c08ca43e288 -->
<g id="node3" class="node"><title>dir_b87ca3cfcec86d8417c05c08ca43e288</title>
<g id="a_node3"><a xlink:href="dir_b87ca3cfcec86d8417c05c08ca43e288.html" target="_top" xlink:title="fixtures">
<polygon fill="white" stroke="black" points="70,-52 16,-52 16,-16 70,-16 70,-52"/>
<text text-anchor="middle" x="43" y="-31.5" font-family="Helvetica,sans-Serif" font-size="10.00">fixtures</text>
</a>
</g>
</g>
<!-- dir_59425e443f801f1f2fd8bbe4959a3ccf&#45;&gt;dir_b87ca3cfcec86d8417c05c08ca43e288 -->
<g id="edge1" class="edge"><title>dir_59425e443f801f1f2fd8bbe4959a3ccf&#45;&gt;dir_b87ca3cfcec86d8417c05c08ca43e288</title>
<path fill="none" stroke="black" d="M43,-87.6966C43,-79.9827 43,-70.7125 43,-62.1124"/>
<polygon fill="black" stroke="black" points="46.5001,-62.1043 43,-52.1043 39.5001,-62.1044 46.5001,-62.1043"/>
<g id="a_edge1&#45;headlabel"><a xlink:href="dir_000016_000022.html" target="_top" xlink:title="1">
<text text-anchor="middle" x="49.3393" y="-63.199" font-family="Helvetica,sans-Serif" font-size="10.00">1</text>
</a>
</g>
</g>
<!-- dir_1fd992445f68fa7f78d87c4e515972a4 -->
<g id="node2" class="node"><title>dir_1fd992445f68fa7f78d87c4e515972a4</title>
<g id="a_node2"><a xlink:href="dir_1fd992445f68fa7f78d87c4e515972a4.html" target="_top" xlink:title="examples">
<polygon fill="white" stroke="red" points="149.5,-124 88.5,-124 88.5,-88 149.5,-88 149.5,-124"/>
<text text-anchor="middle" x="119" y="-103.5" font-family="Helvetica,sans-Serif" font-size="10.00">examples</text>
</a>
</g>
</g>
<!-- dir_d44c64559bbebec7f509842c48db8b23 -->
<g id="node4" class="node"><title>dir_d44c64559bbebec7f509842c48db8b23</title>
<g id="a_node4"><a xlink:href="dir_d44c64559bbebec7f509842c48db8b23.html" target="_top" xlink:title="include">
<polygon fill="white" stroke="red" points="220,-52 166,-52 166,-16 220,-16 220,-52"/>
<text text-anchor="middle" x="193" y="-31.5" font-family="Helvetica,sans-Serif" font-size="10.00">include</text>
</a>
</g>
</g>
<!-- dir_1fd992445f68fa7f78d87c4e515972a4&#45;&gt;dir_d44c64559bbebec7f509842c48db8b23 -->
<g id="edge2" class="edge"><title>dir_1fd992445f68fa7f78d87c4e515972a4&#45;&gt;dir_d44c64559bbebec7f509842c48db8b23</title>
<path fill="none" stroke="black" d="M137.292,-87.6966C146.433,-79.0503 157.64,-68.4486 167.6,-59.027"/>
<polygon fill="black" stroke="black" points="170.059,-61.519 174.918,-52.1043 165.248,-56.4337 170.059,-61.519"/>
<g id="a_edge2&#45;headlabel"><a xlink:href="dir_000017_000006.html" target="_top" xlink:title="6">
<text text-anchor="middle" x="169.399" y="-63.5518" font-family="Helvetica,sans-Serif" font-size="10.00">6</text>
</a>
</g>
</g>
</g>
</svg>
