<?xml version="1.0" encoding="UTF-8" standalone="no"?>
<!DOCTYPE svg PUBLIC "-//W3C//DTD SVG 1.1//EN"
 "http://www.w3.org/Graphics/SVG/1.1/DTD/svg11.dtd">
<!-- Generated by graphviz version 2.38.0 (20140413.2041)
 -->
<!-- Title: examples Pages: 1 -->
<svg width="447pt" height="132pt"
 viewBox="0.00 0.00 447.00 132.00" xmlns="http://www.w3.org/2000/svg" xmlns:xlink="http://www.w3.org/1999/xlink">
<g id="graph0" class="graph" transform="scale(1 1) rotate(0) translate(4 128)">
<title>examples</title>
<polygon fill="white" stroke="none" points="-4,4 -4,-128 443,-128 443,4 -4,4"/>
<g id="clust1" class="cluster"><title>clusterdir_d28a4824dc47e487b107a5db32ef43c4</title>
<g id="a_clust1"><a xlink:href="dir_d28a4824dc47e487b107a5db32ef43c4.html" target="_top">
<polygon fill="#eeeeff" stroke="black" points="8,-64 8,-116 431,-116 431,-64 8,-64"/>
</a>
</g>
</g>
<!-- dir_d28a4824dc47e487b107a5db32ef43c4 -->
<g id="node1" class="node"><title>dir_d28a4824dc47e487b107a5db32ef43c4</title>
<text text-anchor="middle" x="392" y="-87.5" font-family="Helvetica,sans-Serif" font-size="10.00">examples</text>
</g>
<!-- dir_b4e0acfd15598a2322609dd426f4ea0d -->
<g id="node2" class="node"><title>dir_b4e0acfd15598a2322609dd426f4ea0d</title>
<g id="a_node2"><a xlink:href="dir_b4e0acfd15598a2322609dd426f4ea0d.html" target="_top" xlink:title="advection_diffusion">
<polygon fill="white" stroke="black" points="343.5,-108 240.5,-108 240.5,-72 343.5,-72 343.5,-108"/>
<text text-anchor="middle" x="292" y="-87.5" font-family="Helvetica,sans-Serif" font-size="10.00">advection_diffusion</text>
</a>
</g>
</g>
<!-- dir_d44c64559bbebec7f509842c48db8b23 -->
<g id="node6" class="node"><title>dir_d44c64559bbebec7f509842c48db8b23</title>
<g id="a_node6"><a xlink:href="dir_d44c64559bbebec7f509842c48db8b23.html" target="_top" xlink:title="include">
<polygon fill="white" stroke="red" points="186,-36 132,-36 132,-0 186,-0 186,-36"/>
<text text-anchor="middle" x="159" y="-15.5" font-family="Helvetica,sans-Serif" font-size="10.00">include</text>
</a>
</g>
</g>
<!-- dir_b4e0acfd15598a2322609dd426f4ea0d&#45;&gt;dir_d44c64559bbebec7f509842c48db8b23 -->
<g id="edge2" class="edge"><title>dir_b4e0acfd15598a2322609dd426f4ea0d&#45;&gt;dir_d44c64559bbebec7f509842c48db8b23</title>
<path fill="none" stroke="black" d="M259.465,-71.8761C239.991,-61.6269 215.206,-48.5822 195.127,-38.0141"/>
<polygon fill="black" stroke="black" points="196.747,-34.912 186.268,-33.3517 193.487,-41.1064 196.747,-34.912"/>
<g id="a_edge2&#45;headlabel"><a xlink:href="dir_000001_000006.html" target="_top" xlink:title="19">
<text text-anchor="middle" x="201.251" y="-31.5736" font-family="Helvetica,sans-Serif" font-size="10.00">19</text>
</a>
</g>
</g>
<!-- dir_5b49c79f642718f8fce9e85a418c7472 -->
<g id="node3" class="node"><title>dir_5b49c79f642718f8fce9e85a418c7472</title>
<g id="a_node3"><a xlink:href="dir_5b49c79f642718f8fce9e85a418c7472.html" target="_top" xlink:title="boris">
<polygon fill="white" stroke="red" points="222,-108 168,-108 168,-72 222,-72 222,-108"/>
<text text-anchor="middle" x="195" y="-87.5" font-family="Helvetica,sans-Serif" font-size="10.00">boris</text>
</a>
</g>
</g>
<!-- dir_5b49c79f642718f8fce9e85a418c7472&#45;&gt;dir_d44c64559bbebec7f509842c48db8b23 -->
<g id="edge4" class="edge"><title>dir_5b49c79f642718f8fce9e85a418c7472&#45;&gt;dir_d44c64559bbebec7f509842c48db8b23</title>
<path fill="none" stroke="black" d="M186.101,-71.6966C182.003,-63.7284 177.051,-54.0995 172.507,-45.2641"/>
<polygon fill="black" stroke="black" points="175.483,-43.3965 167.797,-36.1043 169.258,-46.598 175.483,-43.3965"/>
<g id="a_edge4&#45;headlabel"><a xlink:href="dir_000002_000006.html" target="_top" xlink:title="30">
<text text-anchor="middle" x="179.651" y="-42.7946" font-family="Helvetica,sans-Serif" font-size="10.00">30</text>
</a>
</g>
</g>
<!-- dir_4662b7d1ed9332cd0b2d791478e9cc5f -->
<g id="node4" class="node"><title>dir_4662b7d1ed9332cd0b2d791478e9cc5f</title>
<g id="a_node4"><a xlink:href="dir_4662b7d1ed9332cd0b2d791478e9cc5f.html" target="_top" xlink:title="scalar">
<polygon fill="white" stroke="black" points="150,-108 96,-108 96,-72 150,-72 150,-108"/>
<text text-anchor="middle" x="123" y="-87.5" font-family="Helvetica,sans-Serif" font-size="10.00">scalar</text>
</a>
</g>
</g>
<!-- dir_4662b7d1ed9332cd0b2d791478e9cc5f&#45;&gt;dir_d44c64559bbebec7f509842c48db8b23 -->
<g id="edge3" class="edge"><title>dir_4662b7d1ed9332cd0b2d791478e9cc5f&#45;&gt;dir_d44c64559bbebec7f509842c48db8b23</title>
<path fill="none" stroke="black" d="M131.899,-71.6966C135.997,-63.7284 140.949,-54.0995 145.493,-45.2641"/>
<polygon fill="black" stroke="black" points="148.742,-46.598 150.203,-36.1043 142.517,-43.3965 148.742,-46.598"/>
<g id="a_edge3&#45;headlabel"><a xlink:href="dir_000004_000006.html" target="_top" xlink:title="7">
<text text-anchor="middle" x="149.623" y="-48.5931" font-family="Helvetica,sans-Serif" font-size="10.00">7</text>
</a>
</g>
</g>
<!-- dir_27d61b12a139b433c53319c7bc62e4b8 -->
<g id="node5" class="node"><title>dir_27d61b12a139b433c53319c7bc62e4b8</title>
<g id="a_node5"><a xlink:href="dir_27d61b12a139b433c53319c7bc62e4b8.html" target="_top" xlink:title="vanderpol">
<polygon fill="white" stroke="black" points="78,-108 16,-108 16,-72 78,-72 78,-108"/>
<text text-anchor="middle" x="47" y="-87.5" font-family="Helvetica,sans-Serif" font-size="10.00">vanderpol</text>
</a>
</g>
</g>
<!-- dir_27d61b12a139b433c53319c7bc62e4b8&#45;&gt;dir_d44c64559bbebec7f509842c48db8b23 -->
<g id="edge1" class="edge"><title>dir_27d61b12a139b433c53319c7bc62e4b8&#45;&gt;dir_d44c64559bbebec7f509842c48db8b23</title>
<path fill="none" stroke="black" d="M74.3983,-71.8761C89.1516,-62.6553 107.525,-51.1717 123.377,-41.2646"/>
<polygon fill="black" stroke="black" points="125.26,-44.2152 131.885,-35.9471 121.55,-38.2792 125.26,-44.2152"/>
<g id="a_edge1&#45;headlabel"><a xlink:href="dir_000005_000006.html" target="_top" xlink:title="7">
<text text-anchor="middle" x="123.716" y="-46.028" font-family="Helvetica,sans-Serif" font-size="10.00">7</text>
</a>
</g>
</g>
</g>
</svg>
