<?xml version="1.0" encoding="UTF-8" standalone="no"?>
<!DOCTYPE svg PUBLIC "-//W3C//DTD SVG 1.1//EN"
 "http://www.w3.org/Graphics/SVG/1.1/DTD/svg11.dtd">
<!-- Generated by graphviz version 2.38.0 (20140413.2041)
 -->
<!-- Title: tests/examples Pages: 1 -->
<svg width="463pt" height="159pt"
 viewBox="0.00 0.00 463.00 159.00" xmlns="http://www.w3.org/2000/svg" xmlns:xlink="http://www.w3.org/1999/xlink">
<g id="graph0" class="graph" transform="scale(1 1) rotate(0) translate(4 155)">
<title>tests/examples</title>
<polygon fill="white" stroke="none" points="-4,4 -4,-155 459,-155 459,4 -4,4"/>
<g id="clust1" class="cluster"><title>clusterdir_59425e443f801f1f2fd8bbe4959a3ccf</title>
<g id="a_clust1"><a xlink:href="dir_59425e443f801f1f2fd8bbe4959a3ccf.html" target="_top" xlink:title="tests">
<polygon fill="#ddddee" stroke="black" points="8,-56 8,-143 447,-143 447,-56 8,-56"/>
<text text-anchor="middle" x="227.5" y="-131" font-family="Helvetica,sans-Serif" font-size="10.00">tests</text>
</a>
</g>
</g>
<g id="clust2" class="cluster"><title>clusterdir_1fd992445f68fa7f78d87c4e515972a4</title>
<g id="a_clust2"><a xlink:href="dir_1fd992445f68fa7f78d87c4e515972a4.html" target="_top">
<polygon fill="#eeeeff" stroke="black" points="16,-64 16,-116 439,-116 439,-64 16,-64"/>
</a>
</g>
</g>
<!-- dir_1fd992445f68fa7f78d87c4e515972a4 -->
<g id="node1" class="node"><title>dir_1fd992445f68fa7f78d87c4e515972a4</title>
<text text-anchor="middle" x="400" y="-87.5" font-family="Helvetica,sans-Serif" font-size="10.00">examples</text>
</g>
<!-- dir_6f22d4e36bcd61fcbef31ced89da7650 -->
<g id="node2" class="node"><title>dir_6f22d4e36bcd61fcbef31ced89da7650</title>
<g id="a_node2"><a xlink:href="dir_6f22d4e36bcd61fcbef31ced89da7650.html" target="_top" xlink:title="advection_diffusion">
<polygon fill="white" stroke="black" points="351.5,-108 248.5,-108 248.5,-72 351.5,-72 351.5,-108"/>
<text text-anchor="middle" x="300" y="-87.5" font-family="Helvetica,sans-Serif" font-size="10.00">advection_diffusion</text>
</a>
</g>
</g>
<!-- dir_d44c64559bbebec7f509842c48db8b23 -->
<g id="node6" class="node"><title>dir_d44c64559bbebec7f509842c48db8b23</title>
<g id="a_node6"><a xlink:href="dir_d44c64559bbebec7f509842c48db8b23.html" target="_top" xlink:title="include">
<polygon fill="white" stroke="red" points="194,-36 140,-36 140,-0 194,-0 194,-36"/>
<text text-anchor="middle" x="167" y="-15.5" font-family="Helvetica,sans-Serif" font-size="10.00">include</text>
</a>
</g>
</g>
<!-- dir_6f22d4e36bcd61fcbef31ced89da7650&#45;&gt;dir_d44c64559bbebec7f509842c48db8b23 -->
<g id="edge2" class="edge"><title>dir_6f22d4e36bcd61fcbef31ced89da7650&#45;&gt;dir_d44c64559bbebec7f509842c48db8b23</title>
<path fill="none" stroke="black" d="M268.722,-71.9147C259.201,-66.7584 248.692,-61.1111 239,-56 227.327,-49.8443 214.531,-43.2265 203.006,-37.3137"/>
<polygon fill="black" stroke="black" points="204.577,-34.1863 194.081,-32.7452 201.387,-40.4174 204.577,-34.1863"/>
<g id="a_edge2&#45;headlabel"><a xlink:href="dir_000018_000006.html" target="_top" xlink:title="2">
<text text-anchor="middle" x="209.071" y="-30.7967" font-family="Helvetica,sans-Serif" font-size="10.00">2</text>
</a>
</g>
</g>
<!-- dir_b4f8e99b81bd15ce40fa91baad70c0ff -->
<g id="node3" class="node"><title>dir_b4f8e99b81bd15ce40fa91baad70c0ff</title>
<g id="a_node3"><a xlink:href="dir_b4f8e99b81bd15ce40fa91baad70c0ff.html" target="_top" xlink:title="boris">
<polygon fill="white" stroke="black" points="230,-108 176,-108 176,-72 230,-72 230,-108"/>
<text text-anchor="middle" x="203" y="-87.5" font-family="Helvetica,sans-Serif" font-size="10.00">boris</text>
</a>
</g>
</g>
<!-- dir_b4f8e99b81bd15ce40fa91baad70c0ff&#45;&gt;dir_d44c64559bbebec7f509842c48db8b23 -->
<g id="edge4" class="edge"><title>dir_b4f8e99b81bd15ce40fa91baad70c0ff&#45;&gt;dir_d44c64559bbebec7f509842c48db8b23</title>
<path fill="none" stroke="black" d="M194.101,-71.6966C190.003,-63.7284 185.051,-54.0995 180.507,-45.2641"/>
<polygon fill="black" stroke="black" points="183.483,-43.3965 175.797,-36.1043 177.258,-46.598 183.483,-43.3965"/>
<g id="a_edge4&#45;headlabel"><a xlink:href="dir_000019_000006.html" target="_top" xlink:title="1">
<text text-anchor="middle" x="187.651" y="-42.7946" font-family="Helvetica,sans-Serif" font-size="10.00">1</text>
</a>
</g>
</g>
<!-- dir_107c7d2987bfda16b582410ad08cec26 -->
<g id="node4" class="node"><title>dir_107c7d2987bfda16b582410ad08cec26</title>
<g id="a_node4"><a xlink:href="dir_107c7d2987bfda16b582410ad08cec26.html" target="_top" xlink:title="scalar">
<polygon fill="white" stroke="black" points="158,-108 104,-108 104,-72 158,-72 158,-108"/>
<text text-anchor="middle" x="131" y="-87.5" font-family="Helvetica,sans-Serif" font-size="10.00">scalar</text>
</a>
</g>
</g>
<!-- dir_107c7d2987bfda16b582410ad08cec26&#45;&gt;dir_d44c64559bbebec7f509842c48db8b23 -->
<g id="edge3" class="edge"><title>dir_107c7d2987bfda16b582410ad08cec26&#45;&gt;dir_d44c64559bbebec7f509842c48db8b23</title>
<path fill="none" stroke="black" d="M139.899,-71.6966C143.997,-63.7284 148.949,-54.0995 153.493,-45.2641"/>
<polygon fill="black" stroke="black" points="156.742,-46.598 158.203,-36.1043 150.517,-43.3965 156.742,-46.598"/>
<g id="a_edge3&#45;headlabel"><a xlink:href="dir_000020_000006.html" target="_top" xlink:title="2">
<text text-anchor="middle" x="157.623" y="-48.5931" font-family="Helvetica,sans-Serif" font-size="10.00">2</text>
</a>
</g>
</g>
<!-- dir_36b24b9443e381544f711248c0e149d8 -->
<g id="node5" class="node"><title>dir_36b24b9443e381544f711248c0e149d8</title>
<g id="a_node5"><a xlink:href="dir_36b24b9443e381544f711248c0e149d8.html" target="_top" xlink:title="vanderpol">
<polygon fill="white" stroke="black" points="86,-108 24,-108 24,-72 86,-72 86,-108"/>
<text text-anchor="middle" x="55" y="-87.5" font-family="Helvetica,sans-Serif" font-size="10.00">vanderpol</text>
</a>
</g>
</g>
<!-- dir_36b24b9443e381544f711248c0e149d8&#45;&gt;dir_d44c64559bbebec7f509842c48db8b23 -->
<g id="edge1" class="edge"><title>dir_36b24b9443e381544f711248c0e149d8&#45;&gt;dir_d44c64559bbebec7f509842c48db8b23</title>
<path fill="none" stroke="black" d="M74.29,-71.671C80.6613,-66.339 87.9318,-60.6536 95,-56 106.207,-48.6213 119.07,-41.5999 130.794,-35.6956"/>
<polygon fill="black" stroke="black" points="132.472,-38.7706 139.899,-31.2146 129.381,-32.49 132.472,-38.7706"/>
<g id="a_edge1&#45;headlabel"><a xlink:href="dir_000021_000006.html" target="_top" xlink:title="1">
<text text-anchor="middle" x="130.501" y="-40.4053" font-family="Helvetica,sans-Serif" font-size="10.00">1</text>
</a>
</g>
</g>
</g>
</svg>
