<?xml version="1.0" encoding="UTF-8" standalone="no"?>
<!DOCTYPE svg PUBLIC "-//W3C//DTD SVG 1.1//EN"
 "http://www.w3.org/Graphics/SVG/1.1/DTD/svg11.dtd">
<!-- Generated by graphviz version 2.38.0 (20140413.2041)
 -->
<!-- Title: examples/advection_diffusion Pages: 1 -->
<svg width="144pt" height="151pt"
 viewBox="0.00 0.00 144.00 151.00" xmlns="http://www.w3.org/2000/svg" xmlns:xlink="http://www.w3.org/1999/xlink">
<g id="graph0" class="graph" transform="scale(1 1) rotate(0) translate(4 147)">
<title>examples/advection_diffusion</title>
<polygon fill="white" stroke="none" points="-4,4 -4,-147 140,-147 140,4 -4,4"/>
<g id="clust1" class="cluster"><title>clusterdir_d28a4824dc47e487b107a5db32ef43c4</title>
<g id="a_clust1"><a xlink:href="dir_d28a4824dc47e487b107a5db32ef43c4.html" target="_top" xlink:title="examples">
<polygon fill="#ddddee" stroke="black" points="8,-64 8,-135 128,-135 128,-64 8,-64"/>
<text text-anchor="middle" x="68" y="-123" font-family="Helvetica,sans-Serif" font-size="10.00">examples</text>
</a>
</g>
</g>
<!-- dir_b4e0acfd15598a2322609dd426f4ea0d -->
<g id="node1" class="node"><title>dir_b4e0acfd15598a2322609dd426f4ea0d</title>
<g id="a_node1"><a xlink:href="dir_b4e0acfd15598a2322609dd426f4ea0d.html" target="_top" xlink:title="advection_diffusion">
<polygon fill="#eeeeff" stroke="black" points="119.5,-108 16.5,-108 16.5,-72 119.5,-72 119.5,-108"/>
<text text-anchor="middle" x="68" y="-87.5" font-family="Helvetica,sans-Serif" font-size="10.00">advection_diffusion</text>
</a>
</g>
</g>
<!-- dir_d44c64559bbebec7f509842c48db8b23 -->
<g id="node2" class="node"><title>dir_d44c64559bbebec7f509842c48db8b23</title>
<g id="a_node2"><a xlink:href="dir_d44c64559bbebec7f509842c48db8b23.html" target="_top" xlink:title="include">
<polygon fill="white" stroke="red" points="95,-36 41,-36 41,-0 95,-0 95,-36"/>
<text text-anchor="middle" x="68" y="-15.5" font-family="Helvetica,sans-Serif" font-size="10.00">include</text>
</a>
</g>
</g>
<!-- dir_b4e0acfd15598a2322609dd426f4ea0d&#45;&gt;dir_d44c64559bbebec7f509842c48db8b23 -->
<g id="edge1" class="edge"><title>dir_b4e0acfd15598a2322609dd426f4ea0d&#45;&gt;dir_d44c64559bbebec7f509842c48db8b23</title>
<path fill="none" stroke="black" d="M68,-71.6966C68,-63.9827 68,-54.7125 68,-46.1124"/>
<polygon fill="black" stroke="black" points="71.5001,-46.1043 68,-36.1043 64.5001,-46.1044 71.5001,-46.1043"/>
<g id="a_edge1&#45;headlabel"><a xlink:href="dir_000001_000006.html" target="_top" xlink:title="19">
<text text-anchor="middle" x="74.3393" y="-47.199" font-family="Helvetica,sans-Serif" font-size="10.00">19</text>
</a>
</g>
</g>
</g>
</svg>
