<?xml version="1.0" encoding="UTF-8" standalone="no"?>
<!DOCTYPE svg PUBLIC "-//W3C//DTD SVG 1.1//EN"
 "http://www.w3.org/Graphics/SVG/1.1/DTD/svg11.dtd">
<!-- Generated by graphviz version 2.38.0 (20140413.2041)
 -->
<!-- Title: src Pages: 1 -->
<svg width="166pt" height="132pt"
 viewBox="0.00 0.00 166.00 132.00" xmlns="http://www.w3.org/2000/svg" xmlns:xlink="http://www.w3.org/1999/xlink">
<g id="graph0" class="graph" transform="scale(1 1) rotate(0) translate(4 128)">
<title>src</title>
<polygon fill="white" stroke="none" points="-4,4 -4,-128 162,-128 162,4 -4,4"/>
<g id="clust1" class="cluster"><title>clusterdir_68267d1309a1af8e8297ef4c3efbcdba</title>
<g id="a_clust1"><a xlink:href="dir_68267d1309a1af8e8297ef4c3efbcdba.html" target="_top">
<polygon fill="#eeeeff" stroke="black" points="8,-64 8,-116 150,-116 150,-64 8,-64"/>
</a>
</g>
</g>
<!-- dir_68267d1309a1af8e8297ef4c3efbcdba -->
<g id="node1" class="node"><title>dir_68267d1309a1af8e8297ef4c3efbcdba</title>
<text text-anchor="middle" x="115" y="-87.5" font-family="Helvetica,sans-Serif" font-size="10.00">src</text>
</g>
<!-- dir_390897841e68d16c0f0cb607616ea75a -->
<g id="node2" class="node"><title>dir_390897841e68d16c0f0cb607616ea75a</title>
<g id="a_node2"><a xlink:href="dir_390897841e68d16c0f0cb607616ea75a.html" target="_top" xlink:title="pfasst">
<polygon fill="white" stroke="red" points="70,-108 16,-108 16,-72 70,-72 70,-108"/>
<text text-anchor="middle" x="43" y="-87.5" font-family="Helvetica,sans-Serif" font-size="10.00">pfasst</text>
</a>
</g>
</g>
<!-- dir_d44c64559bbebec7f509842c48db8b23 -->
<g id="node3" class="node"><title>dir_d44c64559bbebec7f509842c48db8b23</title>
<g id="a_node3"><a xlink:href="dir_d44c64559bbebec7f509842c48db8b23.html" target="_top" xlink:title="include">
<polygon fill="white" stroke="red" points="70,-36 16,-36 16,-0 70,-0 70,-36"/>
<text text-anchor="middle" x="43" y="-15.5" font-family="Helvetica,sans-Serif" font-size="10.00">include</text>
</a>
</g>
</g>
<!-- dir_390897841e68d16c0f0cb607616ea75a&#45;&gt;dir_d44c64559bbebec7f509842c48db8b23 -->
<g id="edge2" class="edge"><title>dir_390897841e68d16c0f0cb607616ea75a&#45;&gt;dir_d44c64559bbebec7f509842c48db8b23</title>
<path fill="none" stroke="black" d="M37.0843,-71.6966C36.2886,-63.9827 36.0621,-54.7125 36.4047,-46.1124"/>
<polygon fill="black" stroke="black" points="39.8984,-46.3243 37.105,-36.1043 32.9154,-45.8356 39.8984,-46.3243"/>
<g id="a_edge2&#45;headlabel"><a xlink:href="dir_000012_000006.html" target="_top" xlink:title="40">
<text text-anchor="middle" x="42.4799" y="-47.6083" font-family="Helvetica,sans-Serif" font-size="10.00">40</text>
</a>
</g>
</g>
<!-- dir_d44c64559bbebec7f509842c48db8b23&#45;&gt;dir_390897841e68d16c0f0cb607616ea75a -->
<g id="edge1" class="edge"><title>dir_d44c64559bbebec7f509842c48db8b23&#45;&gt;dir_390897841e68d16c0f0cb607616ea75a</title>
<path fill="none" stroke="black" d="M48.895,-36.1043C49.7005,-43.7913 49.9369,-53.0537 49.604,-61.6651"/>
<polygon fill="black" stroke="black" points="46.1085,-61.4805 48.9157,-71.6966 53.0921,-61.9597 46.1085,-61.4805"/>
<g id="a_edge1&#45;headlabel"><a xlink:href="dir_000006_000012.html" target="_top" xlink:title="20">
<text text-anchor="middle" x="43.5219" y="-55.2" font-family="Helvetica,sans-Serif" font-size="10.00">20</text>
</a>
</g>
</g>
</g>
</svg>
