<?xml version="1.0" encoding="UTF-8" standalone="no"?>
<!DOCTYPE svg PUBLIC "-//W3C//DTD SVG 1.1//EN"
 "http://www.w3.org/Graphics/SVG/1.1/DTD/svg11.dtd">
<!-- Generated by graphviz version 2.38.0 (20140413.2041)
 -->
<!-- Title: include/pfasst Pages: 1 -->
<svg width="312pt" height="183pt"
 viewBox="0.00 0.00 312.00 183.00" xmlns="http://www.w3.org/2000/svg" xmlns:xlink="http://www.w3.org/1999/xlink">
<g id="graph0" class="graph" transform="scale(1 1) rotate(0) translate(4 179)">
<title>include/pfasst</title>
<polygon fill="white" stroke="none" points="-4,4 -4,-179 308,-179 308,4 -4,4"/>
<g id="clust1" class="cluster"><title>clusterdir_d44c64559bbebec7f509842c48db8b23</title>
<g id="a_clust1"><a xlink:href="dir_d44c64559bbebec7f509842c48db8b23.html" target="_top" xlink:title="include">
<polygon fill="#ddddee" stroke="black" points="8,-8 8,-167 242,-167 242,-8 8,-8"/>
<text text-anchor="middle" x="125" y="-155" font-family="Helvetica,sans-Serif" font-size="10.00">include</text>
</a>
</g>
</g>
<g id="clust2" class="cluster"><title>clusterdir_d2c18daaa3745e8123b21e3282b2c5fb</title>
<g id="a_clust2"><a xlink:href="dir_d2c18daaa3745e8123b21e3282b2c5fb.html" target="_top">
<polygon fill="#eeeeff" stroke="black" points="16,-16 16,-140 234,-140 234,-16 16,-16"/>
</a>
</g>
</g>
<!-- dir_d2c18daaa3745e8123b21e3282b2c5fb -->
<g id="node1" class="node"><title>dir_d2c18daaa3745e8123b21e3282b2c5fb</title>
<text text-anchor="middle" x="51" y="-111.5" font-family="Helvetica,sans-Serif" font-size="10.00">pfasst</text>
</g>
<!-- dir_f1a55989e7548cc64098d5f18cf8d9af -->
<g id="node4" class="node"><title>dir_f1a55989e7548cc64098d5f18cf8d9af</title>
<g id="a_node4"><a xlink:href="dir_f1a55989e7548cc64098d5f18cf8d9af.html" target="_top" xlink:title="quadrature">
<polygon fill="white" stroke="black" points="157.5,-60 92.5,-60 92.5,-24 157.5,-24 157.5,-60"/>
<text text-anchor="middle" x="125" y="-39.5" font-family="Helvetica,sans-Serif" font-size="10.00">quadrature</text>
</a>
</g>
</g>
<!-- dir_d2c18daaa3745e8123b21e3282b2c5fb&#45;&gt;dir_f1a55989e7548cc64098d5f18cf8d9af -->
<g id="edge6" class="edge"><title>dir_d2c18daaa3745e8123b21e3282b2c5fb&#45;&gt;dir_f1a55989e7548cc64098d5f18cf8d9af</title>
<path fill="none" stroke="black" d="M69.2921,-95.6966C78.4326,-87.0503 89.6401,-76.4486 99.6,-67.027"/>
<polygon fill="black" stroke="black" points="102.059,-69.519 106.918,-60.1043 97.2484,-64.4337 102.059,-69.519"/>
<g id="a_edge6&#45;headlabel"><a xlink:href="dir_000007_000009.html" target="_top" xlink:title="7">
<text text-anchor="middle" x="101.399" y="-71.5518" font-family="Helvetica,sans-Serif" font-size="10.00">7</text>
</a>
</g>
</g>
<!-- dir_d114f1e81cbea4e6868ed0c0b0c908c8 -->
<g id="node2" class="node"><title>dir_d114f1e81cbea4e6868ed0c0b0c908c8</title>
<g id="a_node2"><a xlink:href="dir_d114f1e81cbea4e6868ed0c0b0c908c8.html" target="_top" xlink:title="controller">
<polygon fill="white" stroke="black" points="226,-132 168,-132 168,-96 226,-96 226,-132"/>
<text text-anchor="middle" x="197" y="-111.5" font-family="Helvetica,sans-Serif" font-size="10.00">controller</text>
</a>
</g>
</g>
<!-- dir_68267d1309a1af8e8297ef4c3efbcdba -->
<g id="node5" class="node"><title>dir_68267d1309a1af8e8297ef4c3efbcdba</title>
<g id="a_node5"><a xlink:href="dir_68267d1309a1af8e8297ef4c3efbcdba.html" target="_top" xlink:title="src">
<polygon fill="white" stroke="red" points="304,-60 250,-60 250,-24 304,-24 304,-60"/>
<text text-anchor="middle" x="277" y="-39.5" font-family="Helvetica,sans-Serif" font-size="10.00">src</text>
</a>
</g>
</g>
<!-- dir_d114f1e81cbea4e6868ed0c0b0c908c8&#45;&gt;dir_68267d1309a1af8e8297ef4c3efbcdba -->
<g id="edge7" class="edge"><title>dir_d114f1e81cbea4e6868ed0c0b0c908c8&#45;&gt;dir_68267d1309a1af8e8297ef4c3efbcdba</title>
<path fill="none" stroke="black" d="M210.86,-95.6966C220.026,-86.8807 232.258,-76.0321 243.759,-66.4742"/>
<polygon fill="black" stroke="black" points="246.027,-69.1411 251.557,-60.1043 241.598,-63.7197 246.027,-69.1411"/>
<g id="a_edge7&#45;headlabel"><a xlink:href="dir_000008_000011.html" target="_top" xlink:title="4">
<text text-anchor="middle" x="245.039" y="-71.114" font-family="Helvetica,sans-Serif" font-size="10.00">4</text>
</a>
</g>
</g>
<!-- dir_9ca69143c4ada7134e33c338f59299c0 -->
<g id="node3" class="node"><title>dir_9ca69143c4ada7134e33c338f59299c0</title>
<g id="a_node3"><a xlink:href="dir_9ca69143c4ada7134e33c338f59299c0.html" target="_top" xlink:title="encap">
<polygon fill="white" stroke="black" points="150,-132 96,-132 96,-96 150,-96 150,-132"/>
<text text-anchor="middle" x="123" y="-111.5" font-family="Helvetica,sans-Serif" font-size="10.00">encap</text>
</a>
</g>
</g>
<!-- dir_9ca69143c4ada7134e33c338f59299c0&#45;&gt;dir_68267d1309a1af8e8297ef4c3efbcdba -->
<g id="edge5" class="edge"><title>dir_9ca69143c4ada7134e33c338f59299c0&#45;&gt;dir_68267d1309a1af8e8297ef4c3efbcdba</title>
<path fill="none" stroke="black" d="M150.306,-95.859C180.302,-82.0448 214.72,-66.641 240.265,-56.0427"/>
<polygon fill="black" stroke="black" points="241.661,-59.2531 249.593,-52.2294 239.012,-52.7736 241.661,-59.2531"/>
<g id="a_edge5&#45;headlabel"><a xlink:href="dir_000010_000011.html" target="_top" xlink:title="6">
<text text-anchor="middle" x="239.408" y="-60.7414" font-family="Helvetica,sans-Serif" font-size="10.00">6</text>
</a>
</g>
</g>
<!-- dir_f1a55989e7548cc64098d5f18cf8d9af&#45;&gt;dir_68267d1309a1af8e8297ef4c3efbcdba -->
<g id="edge4" class="edge"><title>dir_f1a55989e7548cc64098d5f18cf8d9af&#45;&gt;dir_68267d1309a1af8e8297ef4c3efbcdba</title>
<path fill="none" stroke="black" d="M157.656,-42C185.059,-42 212.462,-42 239.865,-42"/>
<polygon fill="black" stroke="black" points="239.961,-45.5001 249.961,-42 239.961,-38.5001 239.961,-45.5001"/>
<g id="a_edge4&#45;headlabel"><a xlink:href="dir_000009_000011.html" target="_top" xlink:title="7">
<text text-anchor="middle" x="236.367" y="-45.8393" font-family="Helvetica,sans-Serif" font-size="10.00">7</text>
</a>
</g>
</g>
<!-- dir_68267d1309a1af8e8297ef4c3efbcdba&#45;&gt;dir_d114f1e81cbea4e6868ed0c0b0c908c8 -->
<g id="edge3" class="edge"><title>dir_68267d1309a1af8e8297ef4c3efbcdba&#45;&gt;dir_d114f1e81cbea4e6868ed0c0b0c908c8</title>
<path fill="none" stroke="black" d="M263.347,-60.1043C254.228,-68.8894 242.013,-79.7323 230.501,-89.3094"/>
<polygon fill="black" stroke="black" points="228.216,-86.6567 222.691,-95.6966 232.648,-92.0755 228.216,-86.6567"/>
<g id="a_edge3&#45;headlabel"><a xlink:href="dir_000011_000008.html" target="_top" xlink:title="4">
<text text-anchor="middle" x="229.202" y="-79.6833" font-family="Helvetica,sans-Serif" font-size="10.00">4</text>
</a>
</g>
</g>
<!-- dir_68267d1309a1af8e8297ef4c3efbcdba&#45;&gt;dir_9ca69143c4ada7134e33c338f59299c0 -->
<g id="edge2" class="edge"><title>dir_68267d1309a1af8e8297ef4c3efbcdba&#45;&gt;dir_9ca69143c4ada7134e33c338f59299c0</title>
<path fill="none" stroke="black" d="M249.948,-58.3653C227.774,-68.8539 195.945,-83.1276 168,-96 165.263,-97.2606 162.415,-98.5849 159.527,-99.9146"/>
<polygon fill="black" stroke="black" points="157.929,-96.7963 150.262,-104.109 160.816,-103.173 157.929,-96.7963"/>
<g id="a_edge2&#45;headlabel"><a xlink:href="dir_000011_000010.html" target="_top" xlink:title="7">
<text text-anchor="middle" x="160.032" y="-90.2273" font-family="Helvetica,sans-Serif" font-size="10.00">7</text>
</a>
</g>
</g>
<!-- dir_68267d1309a1af8e8297ef4c3efbcdba&#45;&gt;dir_f1a55989e7548cc64098d5f18cf8d9af -->
<g id="edge1" class="edge"><title>dir_68267d1309a1af8e8297ef4c3efbcdba&#45;&gt;dir_f1a55989e7548cc64098d5f18cf8d9af</title>
<path fill="none" stroke="black" d="M249.961,-42C222.558,-42 195.155,-42 167.752,-42"/>
<polygon fill="black" stroke="black" points="167.656,-38.5001 157.656,-42 167.656,-45.5001 167.656,-38.5001"/>
<g id="a_edge1&#45;headlabel"><a xlink:href="dir_000011_000009.html" target="_top" xlink:title="11">
<text text-anchor="middle" x="171.251" y="-33.1607" font-family="Helvetica,sans-Serif" font-size="10.00">11</text>
</a>
</g>
</g>
</g>
</svg>
