<?xml version="1.0" encoding="UTF-8" standalone="no"?>
<!DOCTYPE svg PUBLIC "-//W3C//DTD SVG 1.1//EN"
 "http://www.w3.org/Graphics/SVG/1.1/DTD/svg11.dtd">
<!-- Generated by graphviz version 2.38.0 (20140413.2041)
 -->
<!-- Title: Graph Legend Pages: 1 -->
<svg width="524pt" height="159pt"
 viewBox="0.00 0.00 523.50 159.00" xmlns="http://www.w3.org/2000/svg" xmlns:xlink="http://www.w3.org/1999/xlink">
<g id="graph0" class="graph" transform="scale(1 1) rotate(0) translate(4 155)">
<title>Graph Legend</title>
<polygon fill="white" stroke="none" points="-4,4 -4,-155 519.5,-155 519.5,4 -4,4"/>
<!-- Node9 -->
<g id="node1" class="node"><title>Node9</title>
<polygon fill="#bfbfbf" stroke="black" points="299.5,-19 244.5,-19 244.5,-0 299.5,-0 299.5,-19"/>
<text text-anchor="middle" x="272" y="-7" font-family="Helvetica,sans-Serif" font-size="10.00">Inherited</text>
</g>
<!-- Node10 -->
<g id="node2" class="node"><title>Node10</title>
<g id="a_node2"><a xlink:href="$classPublicBase.html" xlink:title="PublicBase">
<polygon fill="none" stroke="black" points="68,-85 0,-85 0,-66 68,-66 68,-85"/>
<text text-anchor="middle" x="34" y="-73" font-family="Helvetica,sans-Serif" font-size="10.00">PublicBase</text>
</a>
</g>
</g>
<!-- Node10&#45;&gt;Node9 -->
<g id="edge1" class="edge"><title>Node10&#45;&gt;Node9</title>
<path fill="none" stroke="midnightblue" d="M75.9792,-63.2115C124.533,-50.155 203.079,-29.0333 244.464,-17.9046"/>
<polygon fill="midnightblue" stroke="midnightblue" points="74.8458,-59.8918 66.0977,-65.8687 76.6636,-66.6517 74.8458,-59.8918"/>
</g>
<!-- Node11 -->
<g id="node3" class="node"><title>Node11</title>
<g id="a_node3"><a xlink:href="$classTruncated.html" xlink:title="Truncated">
<polygon fill="none" stroke="red" points="65.5,-151 2.5,-151 2.5,-132 65.5,-132 65.5,-151"/>
<text text-anchor="middle" x="34" y="-139" font-family="Helvetica,sans-Serif" font-size="10.00">Truncated</text>
</a>
</g>
</g>
<!-- Node11&#45;&gt;Node10 -->
<g id="edge2" class="edge"><title>Node11&#45;&gt;Node10</title>
<path fill="none" stroke="midnightblue" d="M34,-121.584C34,-109.625 34,-94.7211 34,-85.4052"/>
<polygon fill="midnightblue" stroke="midnightblue" points="30.5001,-121.869 34,-131.869 37.5001,-121.869 30.5001,-121.869"/>
</g>
<!-- Node13 -->
<g id="node4" class="node"><title>Node13</title>
<g id="a_node4"><a xlink:href="$classProtectedBase.html" xlink:title="ProtectedBase">
<polygon fill="none" stroke="black" points="170,-85 86,-85 86,-66 170,-66 170,-85"/>
<text text-anchor="middle" x="128" y="-73" font-family="Helvetica,sans-Serif" font-size="10.00">ProtectedBase</text>
</a>
</g>
</g>
<!-- Node13&#45;&gt;Node9 -->
<g id="edge3" class="edge"><title>Node13&#45;&gt;Node9</title>
<path fill="none" stroke="darkgreen" d="M156.814,-61.6939C185.193,-49.081 227.769,-30.1584 252.427,-19.199"/>
<polygon fill="darkgreen" stroke="darkgreen" points="155.137,-58.6089 147.42,-65.8687 157.98,-65.0056 155.137,-58.6089"/>
</g>
<!-- Node14 -->
<g id="node5" class="node"><title>Node14</title>
<g id="a_node5"><a xlink:href="$classPrivateBase.html" xlink:title="PrivateBase">
<polygon fill="none" stroke="black" points="260,-85 188,-85 188,-66 260,-66 260,-85"/>
<text text-anchor="middle" x="224" y="-73" font-family="Helvetica,sans-Serif" font-size="10.00">PrivateBase</text>
</a>
</g>
</g>
<!-- Node14&#45;&gt;Node9 -->
<g id="edge4" class="edge"><title>Node14&#45;&gt;Node9</title>
<path fill="none" stroke="#8b1a1a" d="M236.55,-57.7673C245.757,-45.4902 257.902,-29.2973 265.321,-19.4052"/>
<polygon fill="#8b1a1a" stroke="#8b1a1a" points="233.674,-55.7686 230.473,-65.8687 239.274,-59.9687 233.674,-55.7686"/>
</g>
<!-- Node15 -->
<g id="node6" class="node"><title>Node15</title>
<polygon fill="none" stroke="#bfbfbf" points="363.5,-85 278.5,-85 278.5,-66 363.5,-66 363.5,-85"/>
<text text-anchor="middle" x="321" y="-73" font-family="Helvetica,sans-Serif" font-size="10.00">Undocumented</text>
</g>
<!-- Node15&#45;&gt;Node9 -->
<g id="edge5" class="edge"><title>Node15&#45;&gt;Node9</title>
<path fill="none" stroke="midnightblue" d="M308.189,-57.7673C298.789,-45.4902 286.392,-29.2973 278.818,-19.4052"/>
<polygon fill="midnightblue" stroke="midnightblue" points="305.533,-60.0563 314.392,-65.8687 311.092,-55.8009 305.533,-60.0563"/>
</g>
<!-- Node16 -->
<g id="node7" class="node"><title>Node16</title>
<g id="a_node7"><a xlink:href="$classTempl.html" xlink:title="Templ&lt; int &gt;">
<polygon fill="none" stroke="black" points="456,-85 382,-85 382,-66 456,-66 456,-85"/>
<text text-anchor="middle" x="419" y="-73" font-family="Helvetica,sans-Serif" font-size="10.00">Templ&lt; int &gt;</text>
</a>
</g>
</g>
<!-- Node16&#45;&gt;Node9 -->
<g id="edge6" class="edge"><title>Node16&#45;&gt;Node9</title>
<path fill="none" stroke="midnightblue" d="M389.965,-61.8588C360.996,-49.2465 317.263,-30.2063 291.98,-19.199"/>
<polygon fill="midnightblue" stroke="midnightblue" points="388.609,-65.0858 399.175,-65.8687 391.403,-58.6677 388.609,-65.0858"/>
</g>
<!-- Node17 -->
<g id="node8" class="node"><title>Node17</title>
<g id="a_node8"><a xlink:href="$classTempl.html" xlink:title="Templ&lt; T &gt;">
<polygon fill="none" stroke="black" points="454.5,-151 383.5,-151 383.5,-132 454.5,-132 454.5,-151"/>
<text text-anchor="middle" x="419" y="-139" font-family="Helvetica,sans-Serif" font-size="10.00">Templ&lt; T &gt;</text>
</a>
</g>
</g>
<!-- Node17&#45;&gt;Node16 -->
<g id="edge7" class="edge"><title>Node17&#45;&gt;Node16</title>
<path fill="none" stroke="orange" stroke-dasharray="5,2" d="M419,-121.584C419,-109.625 419,-94.7211 419,-85.4052"/>
<polygon fill="orange" stroke="orange" points="415.5,-121.869 419,-131.869 422.5,-121.869 415.5,-121.869"/>
<text text-anchor="middle" x="433" y="-106" font-family="Helvetica,sans-Serif" font-size="10.00">&lt; int &gt;</text>
</g>
<!-- Node18 -->
<g id="node9" class="node"><title>Node18</title>
<g id="a_node9"><a xlink:href="$classUsed.html" xlink:title="Used">
<polygon fill="none" stroke="black" points="515.5,-85 474.5,-85 474.5,-66 515.5,-66 515.5,-85"/>
<text text-anchor="middle" x="495" y="-73" font-family="Helvetica,sans-Serif" font-size="10.00">Used</text>
</a>
</g>
</g>
<!-- Node18&#45;&gt;Node9 -->
<g id="edge8" class="edge"><title>Node18&#45;&gt;Node9</title>
<path fill="none" stroke="#9a32cd" stroke-dasharray="5,2" d="M464.696,-65.803C421.224,-53.3267 341.783,-30.5274 299.764,-18.4682"/>
<polygon fill="#9a32cd" stroke="#9a32cd" points="463.843,-69.1993 474.42,-68.5938 465.774,-62.4709 463.843,-69.1993"/>
<text text-anchor="middle" x="428.5" y="-40" font-family="Helvetica,sans-Serif" font-size="10.00">m_usedClass</text>
</g>
</g>
</svg>
