<?xml version="1.0" encoding="UTF-8" standalone="no"?>
<!DOCTYPE svg PUBLIC "-//W3C//DTD SVG 1.1//EN"
 "http://www.w3.org/Graphics/SVG/1.1/DTD/svg11.dtd">
<!-- Generated by graphviz version 2.38.0 (20140413.2041)
 -->
<!-- Title: Graphical Class Hierarchy Pages: 1 -->
<svg width="736pt" height="207pt"
 viewBox="0.00 0.00 736.00 207.00" xmlns="http://www.w3.org/2000/svg" xmlns:xlink="http://www.w3.org/1999/xlink">
<g id="graph0" class="graph" transform="scale(1 1) rotate(0) translate(4 203)">
<title>Graphical Class Hierarchy</title>
<polygon fill="white" stroke="none" points="-4,4 -4,-203 732,-203 732,4 -4,4"/>
<!-- Node1 -->
<g id="node1" class="node"><title>Node1</title>
<g id="a_node1"><a xlink:href="d6/d78/classpfasst_1_1ISweeper.html" target="_top" xlink:title="Abstract SDC sweeper. ">
<polygon fill="white" stroke="black" points="0,-65.5 0,-84.5 128,-84.5 128,-65.5 0,-65.5"/>
<text text-anchor="middle" x="64" y="-72.5" font-family="Helvetica,sans-Serif" font-size="10.00">pfasst::ISweeper&lt; time &gt;</text>
</a>
</g>
</g>
<!-- Node2 -->
<g id="node2" class="node"><title>Node2</title>
<g id="a_node2"><a xlink:href="d7/d9e/classpfasst_1_1encap_1_1EncapSweeper.html" target="_top" xlink:title="Host based encapsulated base sweeper. ">
<polygon fill="white" stroke="black" points="164,-60 164,-90 315,-90 315,-60 164,-60"/>
<text text-anchor="start" x="172" y="-78" font-family="Helvetica,sans-Serif" font-size="10.00">pfasst::encap::EncapSweeper</text>
<text text-anchor="middle" x="239.5" y="-67" font-family="Helvetica,sans-Serif" font-size="10.00">&lt; time &gt;</text>
</a>
</g>
</g>
<!-- Node1&#45;&gt;Node2 -->
<g id="edge1" class="edge"><title>Node1&#45;&gt;Node2</title>
<path fill="none" stroke="midnightblue" d="M138.342,-75C146.805,-75 155.442,-75 163.921,-75"/>
<polygon fill="midnightblue" stroke="midnightblue" points="138.128,-71.5001 128.128,-75 138.128,-78.5001 138.128,-71.5001"/>
</g>
<!-- Node3 -->
<g id="node3" class="node"><title>Node3</title>
<g id="a_node3"><a xlink:href="da/db1/classpfasst_1_1encap_1_1IMEXSweeper.html" target="_top" xlink:title="Semi&#45;implicit IMEX sweeper. ">
<polygon fill="white" stroke="black" points="354.5,-109 354.5,-139 500.5,-139 500.5,-109 354.5,-109"/>
<text text-anchor="start" x="362.5" y="-127" font-family="Helvetica,sans-Serif" font-size="10.00">pfasst::encap::IMEXSweeper</text>
<text text-anchor="middle" x="427.5" y="-116" font-family="Helvetica,sans-Serif" font-size="10.00">&lt; time &gt;</text>
</a>
</g>
</g>
<!-- Node2&#45;&gt;Node3 -->
<g id="edge2" class="edge"><title>Node2&#45;&gt;Node3</title>
<path fill="none" stroke="midnightblue" d="M307.395,-92.6229C327.744,-97.9837 349.908,-103.823 369.538,-108.994"/>
<polygon fill="midnightblue" stroke="midnightblue" points="308.132,-89.1977 297.57,-90.0346 306.349,-95.9667 308.132,-89.1977"/>
</g>
<!-- Node6 -->
<g id="node6" class="node"><title>Node6</title>
<g id="a_node6"><a xlink:href="d7/def/classpfasst_1_1encap_1_1ImplicitSweeper.html" target="_top" xlink:title="Implicit sweeper. ">
<polygon fill="white" stroke="black" points="351,-60 351,-90 504,-90 504,-60 351,-60"/>
<text text-anchor="start" x="359" y="-78" font-family="Helvetica,sans-Serif" font-size="10.00">pfasst::encap::ImplicitSweeper</text>
<text text-anchor="middle" x="427.5" y="-67" font-family="Helvetica,sans-Serif" font-size="10.00">&lt; time &gt;</text>
</a>
</g>
</g>
<!-- Node2&#45;&gt;Node6 -->
<g id="edge5" class="edge"><title>Node2&#45;&gt;Node6</title>
<path fill="none" stroke="midnightblue" d="M325.139,-75C333.76,-75 342.477,-75 350.991,-75"/>
<polygon fill="midnightblue" stroke="midnightblue" points="325.082,-71.5001 315.082,-75 325.082,-78.5001 325.082,-71.5001"/>
</g>
<!-- Node8 -->
<g id="node8" class="node"><title>Node8</title>
<g id="a_node8"><a xlink:href="dc/d0f/classpfasst_1_1examples_1_1boris_1_1BorisSweeper.html" target="_top" xlink:title="pfasst::examples::boris\l::BorisSweeper\&lt; scalar,\l time \&gt;">
<polygon fill="white" stroke="black" points="364.5,-0.5 364.5,-41.5 490.5,-41.5 490.5,-0.5 364.5,-0.5"/>
<text text-anchor="start" x="372.5" y="-29.5" font-family="Helvetica,sans-Serif" font-size="10.00">pfasst::examples::boris</text>
<text text-anchor="start" x="372.5" y="-18.5" font-family="Helvetica,sans-Serif" font-size="10.00">::BorisSweeper&lt; scalar,</text>
<text text-anchor="middle" x="427.5" y="-7.5" font-family="Helvetica,sans-Serif" font-size="10.00"> time &gt;</text>
</a>
</g>
</g>
<!-- Node2&#45;&gt;Node8 -->
<g id="edge7" class="edge"><title>Node2&#45;&gt;Node8</title>
<path fill="none" stroke="midnightblue" d="M301.961,-57.1566C322.019,-51.3331 344.298,-44.8651 364.403,-39.0281"/>
<polygon fill="midnightblue" stroke="midnightblue" points="300.939,-53.8086 292.311,-59.958 302.891,-60.531 300.939,-53.8086"/>
</g>
<!-- Node4 -->
<g id="node4" class="node"><title>Node4</title>
<g id="a_node4"><a xlink:href="d2/dfe/classpfasst_1_1examples_1_1advection__diffusion_1_1AdvectionDiffusionSweeper.html" target="_top" xlink:title="advection&#45;diffusion sweeper with semi&#45;implicit time&#45;integration. ">
<polygon fill="white" stroke="black" points="540,-157.5 540,-198.5 728,-198.5 728,-157.5 540,-157.5"/>
<text text-anchor="start" x="548" y="-186.5" font-family="Helvetica,sans-Serif" font-size="10.00">pfasst::examples::advection</text>
<text text-anchor="start" x="548" y="-175.5" font-family="Helvetica,sans-Serif" font-size="10.00">_diffusion::AdvectionDiffusionSweeper</text>
<text text-anchor="middle" x="634" y="-164.5" font-family="Helvetica,sans-Serif" font-size="10.00">&lt; time &gt;</text>
</a>
</g>
</g>
<!-- Node3&#45;&gt;Node4 -->
<g id="edge3" class="edge"><title>Node3&#45;&gt;Node4</title>
<path fill="none" stroke="midnightblue" d="M495.303,-141.64C514.479,-146.703 535.554,-152.268 555.325,-157.489"/>
<polygon fill="midnightblue" stroke="midnightblue" points="496.027,-138.211 485.465,-139.042 494.24,-144.979 496.027,-138.211"/>
</g>
<!-- Node5 -->
<g id="node5" class="node"><title>Node5</title>
<g id="a_node5"><a xlink:href="da/d03/classpfasst_1_1examples_1_1scalar_1_1ScalarSweeper.html" target="_top" xlink:title="Sweeper for scalar test equation. ">
<polygon fill="white" stroke="black" points="569.5,-109 569.5,-139 698.5,-139 698.5,-109 569.5,-109"/>
<text text-anchor="start" x="577.5" y="-127" font-family="Helvetica,sans-Serif" font-size="10.00">pfasst::examples::scalar</text>
<text text-anchor="middle" x="634" y="-116" font-family="Helvetica,sans-Serif" font-size="10.00">::ScalarSweeper&lt; time &gt;</text>
</a>
</g>
</g>
<!-- Node3&#45;&gt;Node5 -->
<g id="edge4" class="edge"><title>Node3&#45;&gt;Node5</title>
<path fill="none" stroke="midnightblue" d="M510.709,-124C530.25,-124 550.807,-124 569.373,-124"/>
<polygon fill="midnightblue" stroke="midnightblue" points="510.599,-120.5 500.599,-124 510.599,-127.5 510.599,-120.5"/>
</g>
<!-- Node7 -->
<g id="node7" class="node"><title>Node7</title>
<g id="a_node7"><a xlink:href="d5/d3f/classpfasst_1_1examples_1_1vdp_1_1VdpSweeper.html" target="_top" xlink:title="Sweeper for the van der Pol oscillator. ">
<polygon fill="white" stroke="black" points="575,-60 575,-90 693,-90 693,-60 575,-60"/>
<text text-anchor="start" x="583" y="-78" font-family="Helvetica,sans-Serif" font-size="10.00">pfasst::examples::vdp</text>
<text text-anchor="middle" x="634" y="-67" font-family="Helvetica,sans-Serif" font-size="10.00">::VdpSweeper&lt; time &gt;</text>
</a>
</g>
</g>
<!-- Node6&#45;&gt;Node7 -->
<g id="edge6" class="edge"><title>Node6&#45;&gt;Node7</title>
<path fill="none" stroke="midnightblue" d="M514.289,-75C534.64,-75 555.884,-75 574.682,-75"/>
<polygon fill="midnightblue" stroke="midnightblue" points="514.067,-71.5001 504.067,-75 514.067,-78.5001 514.067,-71.5001"/>
</g>
</g>
</svg>
