<?xml version="1.0" encoding="UTF-8" standalone="no"?>
<!DOCTYPE svg PUBLIC "-//W3C//DTD SVG 1.1//EN"
 "http://www.w3.org/Graphics/SVG/1.1/DTD/svg11.dtd">
<!-- Generated by graphviz version 2.38.0 (20140413.2041)
 -->
<!-- Title: Graphical Class Hierarchy Pages: 1 -->
<svg width="250pt" height="142pt"
 viewBox="0.00 0.00 250.00 142.00" xmlns="http://www.w3.org/2000/svg" xmlns:xlink="http://www.w3.org/1999/xlink">
<g id="graph0" class="graph" transform="scale(1 1) rotate(0) translate(4 138)">
<title>Graphical Class Hierarchy</title>
<polygon fill="white" stroke="none" points="-4,4 -4,-138 246,-138 246,4 -4,4"/>
<!-- Node1 -->
<g id="node1" class="node"><title>Node1</title>
<polygon fill="white" stroke="#bfbfbf" points="0,-57.5 0,-76.5 87,-76.5 87,-57.5 0,-57.5"/>
<text text-anchor="middle" x="43.5" y="-64.5" font-family="Helvetica,sans-Serif" font-size="10.00">TestWithParam</text>
</g>
<!-- Node2 -->
<g id="node2" class="node"><title>Node2</title>
<g id="a_node2"><a xlink:href="d3/d6a/classConvergenceTest.html" target="_top" xlink:title="ConvergenceTest">
<polygon fill="white" stroke="black" points="133,-114.5 133,-133.5 232,-133.5 232,-114.5 133,-114.5"/>
<text text-anchor="middle" x="182.5" y="-121.5" font-family="Helvetica,sans-Serif" font-size="10.00">ConvergenceTest</text>
</a>
</g>
</g>
<!-- Node1&#45;&gt;Node2 -->
<g id="edge1" class="edge"><title>Node1&#45;&gt;Node2</title>
<path fill="none" stroke="midnightblue" d="M71.7438,-81.3262C86.6598,-88.8786 105.6,-98.001 123,-105 131.421,-108.387 140.699,-111.62 149.337,-114.427"/>
<polygon fill="midnightblue" stroke="midnightblue" points="73.075,-78.0756 62.5796,-76.628 69.8816,-84.3047 73.075,-78.0756"/>
</g>
<!-- Node3 -->
<g id="node3" class="node"><title>Node3</title>
<g id="a_node3"><a xlink:href="d1/dee/classHighPrecisionTest.html" target="_top" xlink:title="HighPrecisionTest">
<polygon fill="white" stroke="black" points="132.5,-76.5 132.5,-95.5 232.5,-95.5 232.5,-76.5 132.5,-76.5"/>
<text text-anchor="middle" x="182.5" y="-83.5" font-family="Helvetica,sans-Serif" font-size="10.00">HighPrecisionTest</text>
</a>
</g>
</g>
<!-- Node1&#45;&gt;Node3 -->
<g id="edge2" class="edge"><title>Node1&#45;&gt;Node3</title>
<path fill="none" stroke="midnightblue" d="M97.0496,-74.2879C108.604,-75.8903 120.799,-77.5816 132.218,-79.1653"/>
<polygon fill="midnightblue" stroke="midnightblue" points="97.4827,-70.8145 87.0967,-72.9076 96.521,-77.7482 97.4827,-70.8145"/>
</g>
<!-- Node4 -->
<g id="node4" class="node"><title>Node4</title>
<g id="a_node4"><a xlink:href="d8/dfb/classQmatTest.html" target="_top" xlink:title="QmatTest">
<polygon fill="white" stroke="black" points="151.5,-38.5 151.5,-57.5 213.5,-57.5 213.5,-38.5 151.5,-38.5"/>
<text text-anchor="middle" x="182.5" y="-45.5" font-family="Helvetica,sans-Serif" font-size="10.00">QmatTest</text>
</a>
</g>
</g>
<!-- Node1&#45;&gt;Node4 -->
<g id="edge3" class="edge"><title>Node1&#45;&gt;Node4</title>
<path fill="none" stroke="midnightblue" d="M97.0534,-59.7116C115.337,-57.1759 135.225,-54.4177 151.106,-52.2152"/>
<polygon fill="midnightblue" stroke="midnightblue" points="96.521,-56.2518 87.0967,-61.0924 97.4827,-63.1855 96.521,-56.2518"/>
</g>
<!-- Node5 -->
<g id="node5" class="node"><title>Node5</title>
<g id="a_node5"><a xlink:href="d8/d13/classVdPConvergenceTest.html" target="_top" xlink:title="VdPConvergenceTest">
<polygon fill="white" stroke="black" points="123,-0.5 123,-19.5 242,-19.5 242,-0.5 123,-0.5"/>
<text text-anchor="middle" x="182.5" y="-7.5" font-family="Helvetica,sans-Serif" font-size="10.00">VdPConvergenceTest</text>
</a>
</g>
</g>
<!-- Node1&#45;&gt;Node5 -->
<g id="edge4" class="edge"><title>Node1&#45;&gt;Node5</title>
<path fill="none" stroke="midnightblue" d="M71.7438,-52.6738C86.6598,-45.1214 105.6,-35.999 123,-29 131.421,-25.6128 140.699,-22.3802 149.337,-19.573"/>
<polygon fill="midnightblue" stroke="midnightblue" points="69.8816,-49.6953 62.5796,-57.372 73.075,-55.9244 69.8816,-49.6953"/>
</g>
</g>
</svg>
