<?xml version="1.0" encoding="UTF-8" standalone="no"?>
<!DOCTYPE svg PUBLIC "-//W3C//DTD SVG 1.1//EN"
 "http://www.w3.org/Graphics/SVG/1.1/DTD/svg11.dtd">
<!-- Generated by graphviz version 2.38.0 (20140413.2041)
 -->
<!-- Title: Graphical Class Hierarchy Pages: 1 -->
<svg width="524pt" height="104pt"
 viewBox="0.00 0.00 524.00 104.00" xmlns="http://www.w3.org/2000/svg" xmlns:xlink="http://www.w3.org/1999/xlink">
<g id="graph0" class="graph" transform="scale(1 1) rotate(0) translate(4 100)">
<title>Graphical Class Hierarchy</title>
<polygon fill="white" stroke="none" points="-4,4 -4,-100 520,-100 520,4 -4,4"/>
<!-- Node1 -->
<g id="node1" class="node"><title>Node1</title>
<g id="a_node1"><a xlink:title="STL class. ">
<polygon fill="white" stroke="#bfbfbf" points="0,-57.5 0,-76.5 80,-76.5 80,-57.5 0,-57.5"/>
<text text-anchor="middle" x="40" y="-64.5" font-family="Helvetica,sans-Serif" font-size="10.00">std::exception</text>
</a>
</g>
</g>
<!-- Node2 -->
<g id="node2" class="node"><title>Node2</title>
<g id="a_node2"><a xlink:title="STL class. ">
<polygon fill="white" stroke="#bfbfbf" points="121.5,-76.5 121.5,-95.5 205.5,-95.5 205.5,-76.5 121.5,-76.5"/>
<text text-anchor="middle" x="163.5" y="-83.5" font-family="Helvetica,sans-Serif" font-size="10.00">std::logic_error</text>
</a>
</g>
</g>
<!-- Node1&#45;&gt;Node2 -->
<g id="edge1" class="edge"><title>Node1&#45;&gt;Node2</title>
<path fill="none" stroke="midnightblue" d="M90.2442,-74.7007C100.576,-76.3165 111.37,-78.0043 121.368,-79.5679"/>
<polygon fill="midnightblue" stroke="midnightblue" points="90.5329,-71.2034 80.1122,-73.1163 89.4513,-78.1194 90.5329,-71.2034"/>
</g>
<!-- Node5 -->
<g id="node5" class="node"><title>Node5</title>
<g id="a_node5"><a xlink:title="STL class. ">
<polygon fill="white" stroke="#bfbfbf" points="116,-38.5 116,-57.5 211,-57.5 211,-38.5 116,-38.5"/>
<text text-anchor="middle" x="163.5" y="-45.5" font-family="Helvetica,sans-Serif" font-size="10.00">std::runtime_error</text>
</a>
</g>
</g>
<!-- Node1&#45;&gt;Node5 -->
<g id="edge4" class="edge"><title>Node1&#45;&gt;Node5</title>
<path fill="none" stroke="midnightblue" d="M90.2238,-59.3024C98.6772,-57.9805 107.44,-56.6103 115.824,-55.2992"/>
<polygon fill="midnightblue" stroke="midnightblue" points="89.4513,-55.8806 80.1122,-60.8837 90.5329,-62.7966 89.4513,-55.8806"/>
</g>
<!-- Node3 -->
<g id="node3" class="node"><title>Node3</title>
<g id="a_node3"><a xlink:title="STL class. ">
<polygon fill="white" stroke="#bfbfbf" points="259,-76.5 259,-95.5 372,-95.5 372,-76.5 259,-76.5"/>
<text text-anchor="middle" x="315.5" y="-83.5" font-family="Helvetica,sans-Serif" font-size="10.00">std::invalid_argument</text>
</a>
</g>
</g>
<!-- Node2&#45;&gt;Node3 -->
<g id="edge2" class="edge"><title>Node2&#45;&gt;Node3</title>
<path fill="none" stroke="midnightblue" d="M216.171,-86C229.967,-86 244.932,-86 258.928,-86"/>
<polygon fill="midnightblue" stroke="midnightblue" points="215.885,-82.5001 205.885,-86 215.885,-89.5001 215.885,-82.5001"/>
</g>
<!-- Node4 -->
<g id="node4" class="node"><title>Node4</title>
<g id="a_node4"><a xlink:href="d3/dec/classpfasst_1_1ValueError.html" target="_top" xlink:title="Value exception. ">
<polygon fill="white" stroke="black" points="420,-76.5 420,-95.5 516,-95.5 516,-76.5 420,-76.5"/>
<text text-anchor="middle" x="468" y="-83.5" font-family="Helvetica,sans-Serif" font-size="10.00">pfasst::ValueError</text>
</a>
</g>
</g>
<!-- Node3&#45;&gt;Node4 -->
<g id="edge3" class="edge"><title>Node3&#45;&gt;Node4</title>
<path fill="none" stroke="midnightblue" d="M382.476,-86C394.947,-86 407.762,-86 419.525,-86"/>
<polygon fill="midnightblue" stroke="midnightblue" points="382.113,-82.5001 372.113,-86 382.113,-89.5001 382.113,-82.5001"/>
</g>
<!-- Node6 -->
<g id="node6" class="node"><title>Node6</title>
<g id="a_node6"><a xlink:href="d3/d42/classpfasst_1_1mpi_1_1MPIError.html" target="_top" xlink:title="pfasst::mpi::MPIError">
<polygon fill="white" stroke="black" points="261,-38.5 261,-57.5 370,-57.5 370,-38.5 261,-38.5"/>
<text text-anchor="middle" x="315.5" y="-45.5" font-family="Helvetica,sans-Serif" font-size="10.00">pfasst::mpi::MPIError</text>
</a>
</g>
</g>
<!-- Node5&#45;&gt;Node6 -->
<g id="edge5" class="edge"><title>Node5&#45;&gt;Node6</title>
<path fill="none" stroke="midnightblue" d="M221.327,-48C234.276,-48 247.995,-48 260.808,-48"/>
<polygon fill="midnightblue" stroke="midnightblue" points="221.139,-44.5001 211.139,-48 221.139,-51.5001 221.139,-44.5001"/>
</g>
<!-- Node7 -->
<g id="node7" class="node"><title>Node7</title>
<g id="a_node7"><a xlink:href="da/d13/classpfasst_1_1NotImplementedYet.html" target="_top" xlink:title="Not implemented yet exception. ">
<polygon fill="white" stroke="black" points="247,-0.5 247,-19.5 384,-19.5 384,-0.5 247,-0.5"/>
<text text-anchor="middle" x="315.5" y="-7.5" font-family="Helvetica,sans-Serif" font-size="10.00">pfasst::NotImplementedYet</text>
</a>
</g>
</g>
<!-- Node5&#45;&gt;Node7 -->
<g id="edge6" class="edge"><title>Node5&#45;&gt;Node7</title>
<path fill="none" stroke="midnightblue" d="M212.311,-35.8879C233.202,-30.5956 257.347,-24.4787 276.921,-19.5201"/>
<polygon fill="midnightblue" stroke="midnightblue" points="211.186,-32.5623 202.351,-38.411 212.905,-39.348 211.186,-32.5623"/>
</g>
</g>
</svg>
