<?xml version="1.0" encoding="UTF-8" standalone="no"?>
<!DOCTYPE svg PUBLIC "-//W3C//DTD SVG 1.1//EN"
 "http://www.w3.org/Graphics/SVG/1.1/DTD/svg11.dtd">
<!-- Generated by graphviz version 2.38.0 (20140413.2041)
 -->
<!-- Title: Graphical Class Hierarchy Pages: 1 -->
<svg width="333pt" height="235pt"
 viewBox="0.00 0.00 333.00 235.00" xmlns="http://www.w3.org/2000/svg" xmlns:xlink="http://www.w3.org/1999/xlink">
<g id="graph0" class="graph" transform="scale(1 1) rotate(0) translate(4 231)">
<title>Graphical Class Hierarchy</title>
<polygon fill="white" stroke="none" points="-4,4 -4,-231 329,-231 329,4 -4,4"/>
<!-- Node1 -->
<g id="node1" class="node"><title>Node1</title>
<g id="a_node1"><a xlink:href="de/d20/classpfasst_1_1quadrature_1_1IQuadrature.html" target="_top" xlink:title="Interface for quadrature handlers. ">
<polygon fill="white" stroke="black" points="0,-98.5 0,-128.5 134,-128.5 134,-98.5 0,-98.5"/>
<text text-anchor="start" x="8" y="-116.5" font-family="Helvetica,sans-Serif" font-size="10.00">pfasst::quadrature</text>
<text text-anchor="middle" x="67" y="-105.5" font-family="Helvetica,sans-Serif" font-size="10.00">::IQuadrature&lt; precision &gt;</text>
</a>
</g>
</g>
<!-- Node2 -->
<g id="node2" class="node"><title>Node2</title>
<g id="a_node2"><a xlink:href="d7/d70/classpfasst_1_1quadrature_1_1ClenshawCurtis.html" target="_top" xlink:title="Quadrature handler for Clenshaw&#45;Curtis quadrature. ">
<polygon fill="white" stroke="black" points="171.5,-196.5 171.5,-226.5 323.5,-226.5 323.5,-196.5 171.5,-196.5"/>
<text text-anchor="start" x="179.5" y="-214.5" font-family="Helvetica,sans-Serif" font-size="10.00">pfasst::quadrature</text>
<text text-anchor="middle" x="247.5" y="-203.5" font-family="Helvetica,sans-Serif" font-size="10.00">::ClenshawCurtis&lt; precision &gt;</text>
</a>
</g>
</g>
<!-- Node1&#45;&gt;Node2 -->
<g id="edge1" class="edge"><title>Node1&#45;&gt;Node2</title>
<path fill="none" stroke="midnightblue" d="M93.1702,-135.347C112.948,-151.592 141.779,-173.313 170,-187.5 176.591,-190.814 183.732,-193.784 190.913,-196.411"/>
<polygon fill="midnightblue" stroke="midnightblue" points="95.1965,-132.479 85.2766,-128.758 90.7107,-137.853 95.1965,-132.479"/>
</g>
<!-- Node3 -->
<g id="node3" class="node"><title>Node3</title>
<g id="a_node3"><a xlink:href="df/d99/classpfasst_1_1quadrature_1_1GaussLegendre.html" target="_top" xlink:title="Quadrature handler for Gauss&#45;Legendre quadrature. ">
<polygon fill="white" stroke="black" points="170,-147.5 170,-177.5 325,-177.5 325,-147.5 170,-147.5"/>
<text text-anchor="start" x="178" y="-165.5" font-family="Helvetica,sans-Serif" font-size="10.00">pfasst::quadrature</text>
<text text-anchor="middle" x="247.5" y="-154.5" font-family="Helvetica,sans-Serif" font-size="10.00">::GaussLegendre&lt; precision &gt;</text>
</a>
</g>
</g>
<!-- Node1&#45;&gt;Node3 -->
<g id="edge2" class="edge"><title>Node1&#45;&gt;Node3</title>
<path fill="none" stroke="midnightblue" d="M132.92,-131.321C152.193,-136.612 173.104,-142.352 191.669,-147.448"/>
<polygon fill="midnightblue" stroke="midnightblue" points="133.582,-127.874 123.012,-128.601 131.729,-134.624 133.582,-127.874"/>
</g>
<!-- Node4 -->
<g id="node4" class="node"><title>Node4</title>
<g id="a_node4"><a xlink:href="de/d23/classpfasst_1_1quadrature_1_1GaussLobatto.html" target="_top" xlink:title="Quadrature handler for Gauss&#45;Lobatto quadrature. ">
<polygon fill="white" stroke="black" points="175.5,-98.5 175.5,-128.5 319.5,-128.5 319.5,-98.5 175.5,-98.5"/>
<text text-anchor="start" x="183.5" y="-116.5" font-family="Helvetica,sans-Serif" font-size="10.00">pfasst::quadrature</text>
<text text-anchor="middle" x="247.5" y="-105.5" font-family="Helvetica,sans-Serif" font-size="10.00">::GaussLobatto&lt; precision &gt;</text>
</a>
</g>
</g>
<!-- Node1&#45;&gt;Node4 -->
<g id="edge3" class="edge"><title>Node1&#45;&gt;Node4</title>
<path fill="none" stroke="midnightblue" d="M144.378,-113.5C154.64,-113.5 165.134,-113.5 175.302,-113.5"/>
<polygon fill="midnightblue" stroke="midnightblue" points="144.213,-110 134.213,-113.5 144.213,-117 144.213,-110"/>
</g>
<!-- Node5 -->
<g id="node5" class="node"><title>Node5</title>
<g id="a_node5"><a xlink:href="d1/da0/classpfasst_1_1quadrature_1_1GaussRadau.html" target="_top" xlink:title="Quadrature handler for Gauss&#45;Radau quadrature. ">
<polygon fill="white" stroke="black" points="177,-49.5 177,-79.5 318,-79.5 318,-49.5 177,-49.5"/>
<text text-anchor="start" x="185" y="-67.5" font-family="Helvetica,sans-Serif" font-size="10.00">pfasst::quadrature</text>
<text text-anchor="middle" x="247.5" y="-56.5" font-family="Helvetica,sans-Serif" font-size="10.00">::GaussRadau&lt; precision &gt;</text>
</a>
</g>
</g>
<!-- Node1&#45;&gt;Node5 -->
<g id="edge4" class="edge"><title>Node1&#45;&gt;Node5</title>
<path fill="none" stroke="midnightblue" d="M132.92,-95.6788C152.193,-90.3882 173.104,-84.6478 191.669,-79.5516"/>
<polygon fill="midnightblue" stroke="midnightblue" points="131.729,-92.3762 123.012,-98.3986 133.582,-99.1265 131.729,-92.3762"/>
</g>
<!-- Node6 -->
<g id="node6" class="node"><title>Node6</title>
<g id="a_node6"><a xlink:href="d9/d7b/classpfasst_1_1quadrature_1_1Uniform.html" target="_top" xlink:title="Quadrature handler for uniform distributed nodes. ">
<polygon fill="white" stroke="black" points="190,-0.5 190,-30.5 305,-30.5 305,-0.5 190,-0.5"/>
<text text-anchor="start" x="198" y="-18.5" font-family="Helvetica,sans-Serif" font-size="10.00">pfasst::quadrature</text>
<text text-anchor="middle" x="247.5" y="-7.5" font-family="Helvetica,sans-Serif" font-size="10.00">::Uniform&lt; precision &gt;</text>
</a>
</g>
</g>
<!-- Node1&#45;&gt;Node6 -->
<g id="edge5" class="edge"><title>Node1&#45;&gt;Node6</title>
<path fill="none" stroke="midnightblue" d="M93.6282,-91.7727C113.445,-75.8397 142.118,-54.6109 170,-40.5 177.355,-36.7774 185.384,-33.4428 193.384,-30.5151"/>
<polygon fill="midnightblue" stroke="midnightblue" points="91.2386,-89.2053 85.7057,-98.2407 95.6655,-94.6278 91.2386,-89.2053"/>
</g>
</g>
</svg>
