<?xml version="1.0" encoding="UTF-8" standalone="no"?>
<!DOCTYPE svg PUBLIC "-//W3C//DTD SVG 1.1//EN"
 "http://www.w3.org/Graphics/SVG/1.1/DTD/svg11.dtd">
<!-- Generated by graphviz version 2.38.0 (20140413.2041)
 -->
<!-- Title: Graphical Class Hierarchy Pages: 1 -->
<svg width="538pt" height="196pt"
 viewBox="0.00 0.00 538.00 196.00" xmlns="http://www.w3.org/2000/svg" xmlns:xlink="http://www.w3.org/1999/xlink">
<g id="graph0" class="graph" transform="scale(1 1) rotate(0) translate(4 192)">
<title>Graphical Class Hierarchy</title>
<polygon fill="white" stroke="none" points="-4,4 -4,-192 534,-192 534,4 -4,4"/>
<!-- Node1 -->
<g id="node1" class="node"><title>Node1</title>
<g id="a_node1"><a xlink:href="dc/ddd/classpfasst_1_1encap_1_1Encapsulation.html" target="_top" xlink:title="pfasst::encap::Encapsulation\l\&lt; precision \&gt;">
<polygon fill="white" stroke="black" points="0,-157.5 0,-187.5 145,-187.5 145,-157.5 0,-157.5"/>
<text text-anchor="start" x="8" y="-175.5" font-family="Helvetica,sans-Serif" font-size="10.00">pfasst::encap::Encapsulation</text>
<text text-anchor="middle" x="72.5" y="-164.5" font-family="Helvetica,sans-Serif" font-size="10.00">&lt; precision &gt;</text>
</a>
</g>
</g>
<!-- Node2 -->
<g id="node2" class="node"><title>Node2</title>
<g id="a_node2"><a xlink:href="d2/dd0/classpfasst_1_1examples_1_1boris_1_1ParticleCloud.html" target="_top" xlink:title="pfasst::examples::boris\l::ParticleCloud\&lt; precision \&gt;">
<polygon fill="white" stroke="black" points="181.5,-157.5 181.5,-187.5 323.5,-187.5 323.5,-157.5 181.5,-157.5"/>
<text text-anchor="start" x="189.5" y="-175.5" font-family="Helvetica,sans-Serif" font-size="10.00">pfasst::examples::boris</text>
<text text-anchor="middle" x="252.5" y="-164.5" font-family="Helvetica,sans-Serif" font-size="10.00">::ParticleCloud&lt; precision &gt;</text>
</a>
</g>
</g>
<!-- Node1&#45;&gt;Node2 -->
<g id="edge1" class="edge"><title>Node1&#45;&gt;Node2</title>
<path fill="none" stroke="midnightblue" d="M155.321,-172.5C164.055,-172.5 172.882,-172.5 181.463,-172.5"/>
<polygon fill="midnightblue" stroke="midnightblue" points="155.13,-169 145.13,-172.5 155.13,-176 155.13,-169"/>
</g>
<!-- Node3 -->
<g id="node3" class="node"><title>Node3</title>
<polygon fill="white" stroke="#bfbfbf" points="43,-82 43,-101 102,-101 102,-82 43,-82"/>
<text text-anchor="middle" x="72.5" y="-89" font-family="Helvetica,sans-Serif" font-size="10.00">Loggable</text>
</g>
<!-- Node3&#45;&gt;Node2 -->
<g id="edge5" class="edge"><title>Node3&#45;&gt;Node2</title>
<path fill="none" stroke="midnightblue" d="M98.2688,-106.09C119.707,-118.361 151.777,-135.874 181,-148.5 188.24,-151.628 196.033,-154.628 203.703,-157.384"/>
<polygon fill="midnightblue" stroke="midnightblue" points="99.9032,-102.992 89.4936,-101.019 96.401,-109.053 99.9032,-102.992"/>
</g>
<!-- Node4 -->
<g id="node4" class="node"><title>Node4</title>
<g id="a_node4"><a xlink:href="dd/d6e/classpfasst_1_1examples_1_1boris_1_1bindings_1_1WrapperInterface.html" target="_top" xlink:title="pfasst::examples::boris\l::bindings::WrapperInterface\l\&lt; scalar, time \&gt;">
<polygon fill="white" stroke="black" points="181,-98 181,-139 324,-139 324,-98 181,-98"/>
<text text-anchor="start" x="189" y="-127" font-family="Helvetica,sans-Serif" font-size="10.00">pfasst::examples::boris</text>
<text text-anchor="start" x="189" y="-116" font-family="Helvetica,sans-Serif" font-size="10.00">::bindings::WrapperInterface</text>
<text text-anchor="middle" x="252.5" y="-105" font-family="Helvetica,sans-Serif" font-size="10.00">&lt; scalar, time &gt;</text>
</a>
</g>
</g>
<!-- Node3&#45;&gt;Node4 -->
<g id="edge2" class="edge"><title>Node3&#45;&gt;Node4</title>
<path fill="none" stroke="midnightblue" d="M112.089,-97.3534C132.151,-100.397 157.313,-104.213 180.718,-107.763"/>
<polygon fill="midnightblue" stroke="midnightblue" points="112.511,-93.8774 102.099,-95.838 111.461,-100.798 112.511,-93.8774"/>
</g>
<!-- Node6 -->
<g id="node6" class="node"><title>Node6</title>
<g id="a_node6"><a xlink:href="da/da7/classpfasst_1_1examples_1_1boris_1_1Particle.html" target="_top" xlink:title="pfasst::examples::boris\l::Particle\&lt; precision \&gt;">
<polygon fill="white" stroke="black" points="192,-49.5 192,-79.5 313,-79.5 313,-49.5 192,-49.5"/>
<text text-anchor="start" x="200" y="-67.5" font-family="Helvetica,sans-Serif" font-size="10.00">pfasst::examples::boris</text>
<text text-anchor="middle" x="252.5" y="-56.5" font-family="Helvetica,sans-Serif" font-size="10.00">::Particle&lt; precision &gt;</text>
</a>
</g>
</g>
<!-- Node3&#45;&gt;Node6 -->
<g id="edge4" class="edge"><title>Node3&#45;&gt;Node6</title>
<path fill="none" stroke="midnightblue" d="M112.245,-85.6229C135.449,-82.1033 165.432,-77.5552 191.631,-73.5813"/>
<polygon fill="midnightblue" stroke="midnightblue" points="111.461,-82.2018 102.099,-87.162 112.511,-89.1226 111.461,-82.2018"/>
</g>
<!-- Node7 -->
<g id="node7" class="node"><title>Node7</title>
<g id="a_node7"><a xlink:href="d3/d9a/classpfasst_1_1examples_1_1boris_1_1ParticleError.html" target="_top" xlink:title="pfasst::examples::boris\l::ParticleError\&lt; scalar \&gt;">
<polygon fill="white" stroke="black" points="191,-0.5 191,-30.5 314,-30.5 314,-0.5 191,-0.5"/>
<text text-anchor="start" x="199" y="-18.5" font-family="Helvetica,sans-Serif" font-size="10.00">pfasst::examples::boris</text>
<text text-anchor="middle" x="252.5" y="-7.5" font-family="Helvetica,sans-Serif" font-size="10.00">::ParticleError&lt; scalar &gt;</text>
</a>
</g>
</g>
<!-- Node3&#45;&gt;Node7 -->
<g id="edge6" class="edge"><title>Node3&#45;&gt;Node7</title>
<path fill="none" stroke="midnightblue" d="M100.614,-77.2411C122.102,-66.2213 153.056,-50.9645 181,-39.5 188.536,-36.4082 196.632,-33.3847 204.557,-30.5831"/>
<polygon fill="midnightblue" stroke="midnightblue" points="98.728,-74.276 91.452,-81.9773 101.943,-80.4943 98.728,-74.276"/>
</g>
<!-- Node5 -->
<g id="node5" class="node"><title>Node5</title>
<g id="a_node5"><a xlink:href="d0/d84/classpfasst_1_1examples_1_1boris_1_1bindings_1_1WrapperSimplePhysicsSolver.html" target="_top" xlink:title="pfasst::examples::boris\l::bindings::WrapperSimplePhysics\lSolver\&lt; scalar, time \&gt;">
<polygon fill="white" stroke="black" points="360,-98 360,-139 530,-139 530,-98 360,-98"/>
<text text-anchor="start" x="368" y="-127" font-family="Helvetica,sans-Serif" font-size="10.00">pfasst::examples::boris</text>
<text text-anchor="start" x="368" y="-116" font-family="Helvetica,sans-Serif" font-size="10.00">::bindings::WrapperSimplePhysics</text>
<text text-anchor="middle" x="445" y="-105" font-family="Helvetica,sans-Serif" font-size="10.00">Solver&lt; scalar, time &gt;</text>
</a>
</g>
</g>
<!-- Node4&#45;&gt;Node5 -->
<g id="edge3" class="edge"><title>Node4&#45;&gt;Node5</title>
<path fill="none" stroke="midnightblue" d="M334.379,-118.5C342.83,-118.5 351.437,-118.5 359.923,-118.5"/>
<polygon fill="midnightblue" stroke="midnightblue" points="334.164,-115 324.164,-118.5 334.164,-122 334.164,-115"/>
</g>
</g>
</svg>
