<?xml version="1.0" encoding="UTF-8" standalone="no"?>
<!DOCTYPE svg PUBLIC "-//W3C//DTD SVG 1.1//EN"
 "http://www.w3.org/Graphics/SVG/1.1/DTD/svg11.dtd">
<!-- Generated by graphviz version 2.38.0 (20140413.2041)
 -->
<!-- Title: Graphical Class Hierarchy Pages: 1 -->
<svg width="363pt" height="78pt"
 viewBox="0.00 0.00 363.00 77.50" xmlns="http://www.w3.org/2000/svg" xmlns:xlink="http://www.w3.org/1999/xlink">
<g id="graph0" class="graph" transform="scale(1 1) rotate(0) translate(4 73.5)">
<title>Graphical Class Hierarchy</title>
<polygon fill="white" stroke="none" points="-4,4 -4,-73.5 359,-73.5 359,4 -4,4"/>
<!-- Node1 -->
<g id="node1" class="node"><title>Node1</title>
<g id="a_node1"><a xlink:href="dc/ddd/classpfasst_1_1encap_1_1Encapsulation.html" target="_top" xlink:title="Data/solution encapsulation. ">
<polygon fill="white" stroke="black" points="0,-39 0,-69 145,-69 145,-39 0,-39"/>
<text text-anchor="start" x="8" y="-57" font-family="Helvetica,sans-Serif" font-size="10.00">pfasst::encap::Encapsulation</text>
<text text-anchor="middle" x="72.5" y="-46" font-family="Helvetica,sans-Serif" font-size="10.00">&lt; time &gt;</text>
</a>
</g>
</g>
<!-- Node2 -->
<g id="node2" class="node"><title>Node2</title>
<g id="a_node2"><a xlink:href="d6/d2b/classpfasst_1_1encap_1_1VectorEncapsulation.html" target="_top" xlink:title="pfasst::encap::VectorEncapsulation\l\&lt; scalar, time \&gt;">
<polygon fill="white" stroke="black" points="181,-17 181,-47 355,-47 355,-17 181,-17"/>
<text text-anchor="start" x="189" y="-35" font-family="Helvetica,sans-Serif" font-size="10.00">pfasst::encap::VectorEncapsulation</text>
<text text-anchor="middle" x="268" y="-24" font-family="Helvetica,sans-Serif" font-size="10.00">&lt; scalar, time &gt;</text>
</a>
</g>
</g>
<!-- Node1&#45;&gt;Node2 -->
<g id="edge1" class="edge"><title>Node1&#45;&gt;Node2</title>
<path fill="none" stroke="midnightblue" d="M155.199,-44.7113C163.636,-43.752 172.23,-42.7749 180.715,-41.8102"/>
<polygon fill="midnightblue" stroke="midnightblue" points="154.543,-41.2632 145.002,-45.8705 155.334,-48.2184 154.543,-41.2632"/>
</g>
<!-- Node3 -->
<g id="node3" class="node"><title>Node3</title>
<g id="a_node3"><a xlink:title="STL class. ">
<polygon fill="white" stroke="#bfbfbf" points="28,-0.5 28,-19.5 117,-19.5 117,-0.5 28,-0.5"/>
<text text-anchor="middle" x="72.5" y="-7.5" font-family="Helvetica,sans-Serif" font-size="10.00">std::vector&lt; T &gt;</text>
</a>
</g>
</g>
<!-- Node3&#45;&gt;Node2 -->
<g id="edge2" class="edge"><title>Node3&#45;&gt;Node2</title>
<path fill="none" stroke="midnightblue" d="M127.443,-16.1331C144.035,-18.0194 162.729,-20.1449 180.915,-22.2126"/>
<polygon fill="midnightblue" stroke="midnightblue" points="127.74,-12.6443 117.408,-14.9921 126.949,-19.5995 127.74,-12.6443"/>
</g>
</g>
</svg>
