<?xml version="1.0" encoding="UTF-8" standalone="no"?>
<!DOCTYPE svg PUBLIC "-//W3C//DTD SVG 1.1//EN"
 "http://www.w3.org/Graphics/SVG/1.1/DTD/svg11.dtd">
<!-- Generated by graphviz version 2.38.0 (20140413.2041)
 -->
<!-- Title: Graphical Class Hierarchy Pages: 1 -->
<svg width="464pt" height="104pt"
 viewBox="0.00 0.00 464.00 104.00" xmlns="http://www.w3.org/2000/svg" xmlns:xlink="http://www.w3.org/1999/xlink">
<g id="graph0" class="graph" transform="scale(1 1) rotate(0) translate(4 100)">
<title>Graphical Class Hierarchy</title>
<polygon fill="white" stroke="none" points="-4,4 -4,-100 460,-100 460,4 -4,4"/>
<!-- Node1 -->
<g id="node1" class="node"><title>Node1</title>
<g id="a_node1"><a xlink:href="d2/d93/classpfasst_1_1ITransfer.html" target="_top" xlink:title="Abstract time/space transfer (restrict/interpolate) class. ">
<polygon fill="white" stroke="black" points="0,-33 0,-63 95,-63 95,-33 0,-33"/>
<text text-anchor="start" x="8" y="-51" font-family="Helvetica,sans-Serif" font-size="10.00">pfasst::ITransfer&lt;</text>
<text text-anchor="middle" x="47.5" y="-40" font-family="Helvetica,sans-Serif" font-size="10.00"> time &gt;</text>
</a>
</g>
</g>
<!-- Node2 -->
<g id="node2" class="node"><title>Node2</title>
<g id="a_node2"><a xlink:href="d9/d19/classpfasst_1_1encap_1_1PolyInterpMixin.html" target="_top" xlink:title="Polynomial time interpolation mixin. ">
<polygon fill="white" stroke="black" points="136,-60 136,-90 263,-90 263,-60 136,-60"/>
<text text-anchor="start" x="144" y="-78" font-family="Helvetica,sans-Serif" font-size="10.00">pfasst::encap::PolyInterp</text>
<text text-anchor="middle" x="199.5" y="-67" font-family="Helvetica,sans-Serif" font-size="10.00">Mixin&lt; time &gt;</text>
</a>
</g>
</g>
<!-- Node1&#45;&gt;Node2 -->
<g id="edge1" class="edge"><title>Node1&#45;&gt;Node2</title>
<path fill="none" stroke="midnightblue" d="M105.031,-58.1755C115.11,-59.9898 125.664,-61.8896 135.901,-63.7323"/>
<polygon fill="midnightblue" stroke="midnightblue" points="105.601,-54.7219 95.1387,-56.395 104.36,-61.6112 105.601,-54.7219"/>
</g>
<!-- Node4 -->
<g id="node4" class="node"><title>Node4</title>
<g id="a_node4"><a xlink:href="d5/d79/classpfasst_1_1examples_1_1boris_1_1InjectiveTransfer.html" target="_top" xlink:title="pfasst::examples::boris\l::InjectiveTransfer\&lt; scalar,\l time \&gt;">
<polygon fill="white" stroke="black" points="131,-0.5 131,-41.5 268,-41.5 268,-0.5 131,-0.5"/>
<text text-anchor="start" x="139" y="-29.5" font-family="Helvetica,sans-Serif" font-size="10.00">pfasst::examples::boris</text>
<text text-anchor="start" x="139" y="-18.5" font-family="Helvetica,sans-Serif" font-size="10.00">::InjectiveTransfer&lt; scalar,</text>
<text text-anchor="middle" x="199.5" y="-7.5" font-family="Helvetica,sans-Serif" font-size="10.00"> time &gt;</text>
</a>
</g>
</g>
<!-- Node1&#45;&gt;Node4 -->
<g id="edge3" class="edge"><title>Node1&#45;&gt;Node4</title>
<path fill="none" stroke="midnightblue" d="M105.207,-37.7927C113.62,-36.2784 122.359,-34.7053 130.967,-33.156"/>
<polygon fill="midnightblue" stroke="midnightblue" points="104.36,-34.3888 95.1387,-39.605 105.601,-41.2781 104.36,-34.3888"/>
</g>
<!-- Node3 -->
<g id="node3" class="node"><title>Node3</title>
<g id="a_node3"><a xlink:href="d1/d89/classpfasst_1_1examples_1_1advection__diffusion_1_1SpectralTransfer1D.html" target="_top" xlink:title="Spectral (FFT) transfer routines. ">
<polygon fill="white" stroke="black" points="304,-54.5 304,-95.5 456,-95.5 456,-54.5 304,-54.5"/>
<text text-anchor="start" x="312" y="-83.5" font-family="Helvetica,sans-Serif" font-size="10.00">pfasst::examples::advection</text>
<text text-anchor="start" x="312" y="-72.5" font-family="Helvetica,sans-Serif" font-size="10.00">_diffusion::SpectralTransfer1D</text>
<text text-anchor="middle" x="380" y="-61.5" font-family="Helvetica,sans-Serif" font-size="10.00">&lt; time &gt;</text>
</a>
</g>
</g>
<!-- Node2&#45;&gt;Node3 -->
<g id="edge2" class="edge"><title>Node2&#45;&gt;Node3</title>
<path fill="none" stroke="midnightblue" d="M273.19,-75C283.317,-75 293.739,-75 303.909,-75"/>
<polygon fill="midnightblue" stroke="midnightblue" points="273.181,-71.5001 263.181,-75 273.181,-78.5001 273.181,-71.5001"/>
</g>
</g>
</svg>
