<?xml version="1.0" encoding="UTF-8" standalone="no"?>
<!DOCTYPE svg PUBLIC "-//W3C//DTD SVG 1.1//EN"
 "http://www.w3.org/Graphics/SVG/1.1/DTD/svg11.dtd">
<!-- Generated by graphviz version 2.38.0 (20140413.2041)
 -->
<!-- Title: Graphical Class Hierarchy Pages: 1 -->
<svg width="419pt" height="66pt"
 viewBox="0.00 0.00 419.00 66.00" xmlns="http://www.w3.org/2000/svg" xmlns:xlink="http://www.w3.org/1999/xlink">
<g id="graph0" class="graph" transform="scale(1 1) rotate(0) translate(4 62)">
<title>Graphical Class Hierarchy</title>
<polygon fill="white" stroke="none" points="-4,4 -4,-62 415,-62 415,4 -4,4"/>
<!-- Node1 -->
<g id="node1" class="node"><title>Node1</title>
<g id="a_node1"><a xlink:href="d4/da9/classpfasst_1_1Controller.html" target="_top" xlink:title="Base SDC/MLSDC/PFASST controller. ">
<polygon fill="white" stroke="black" points="0,-14 0,-44 92,-44 92,-14 0,-14"/>
<text text-anchor="start" x="8" y="-32" font-family="Helvetica,sans-Serif" font-size="10.00">pfasst::Controller</text>
<text text-anchor="middle" x="46" y="-21" font-family="Helvetica,sans-Serif" font-size="10.00">&lt; time &gt;</text>
</a>
</g>
</g>
<!-- Node2 -->
<g id="node2" class="node"><title>Node2</title>
<g id="a_node2"><a xlink:href="db/d56/classpfasst_1_1MLSDC.html" target="_top" xlink:title="Multilevel SDC controller. ">
<polygon fill="white" stroke="black" points="128,-38.5 128,-57.5 249,-57.5 249,-38.5 128,-38.5"/>
<text text-anchor="middle" x="188.5" y="-45.5" font-family="Helvetica,sans-Serif" font-size="10.00">pfasst::MLSDC&lt; time &gt;</text>
</a>
</g>
</g>
<!-- Node1&#45;&gt;Node2 -->
<g id="edge1" class="edge"><title>Node1&#45;&gt;Node2</title>
<path fill="none" stroke="midnightblue" d="M102.325,-36.4817C110.753,-37.6214 119.482,-38.8018 127.995,-39.953"/>
<polygon fill="midnightblue" stroke="midnightblue" points="102.607,-32.9881 92.2285,-35.1163 101.669,-39.9249 102.607,-32.9881"/>
</g>
<!-- Node4 -->
<g id="node4" class="node"><title>Node4</title>
<g id="a_node4"><a xlink:href="db/d4c/classpfasst_1_1SDC.html" target="_top" xlink:title="Vanilla SDC controller. ">
<polygon fill="white" stroke="black" points="135,-0.5 135,-19.5 242,-19.5 242,-0.5 135,-0.5"/>
<text text-anchor="middle" x="188.5" y="-7.5" font-family="Helvetica,sans-Serif" font-size="10.00">pfasst::SDC&lt; time &gt;</text>
</a>
</g>
</g>
<!-- Node1&#45;&gt;Node4 -->
<g id="edge3" class="edge"><title>Node1&#45;&gt;Node4</title>
<path fill="none" stroke="midnightblue" d="M102.235,-21.5305C112.861,-20.0935 123.968,-18.5915 134.521,-17.1645"/>
<polygon fill="midnightblue" stroke="midnightblue" points="101.669,-18.0751 92.2285,-22.8837 102.607,-25.0119 101.669,-18.0751"/>
</g>
<!-- Node3 -->
<g id="node3" class="node"><title>Node3</title>
<g id="a_node3"><a xlink:href="d4/deb/classpfasst_1_1PFASST.html" target="_top" xlink:title="Implementation of the PFASST algorithm as described in &#160;. ">
<polygon fill="white" stroke="black" points="285,-38.5 285,-57.5 411,-57.5 411,-38.5 285,-38.5"/>
<text text-anchor="middle" x="348" y="-45.5" font-family="Helvetica,sans-Serif" font-size="10.00">pfasst::PFASST&lt; time &gt;</text>
</a>
</g>
</g>
<!-- Node2&#45;&gt;Node3 -->
<g id="edge2" class="edge"><title>Node2&#45;&gt;Node3</title>
<path fill="none" stroke="midnightblue" d="M259.29,-48C267.769,-48 276.389,-48 284.748,-48"/>
<polygon fill="midnightblue" stroke="midnightblue" points="259.044,-44.5001 249.044,-48 259.044,-51.5001 259.044,-44.5001"/>
</g>
</g>
</svg>
