<?xml version="1.0" encoding="UTF-8" standalone="no"?>
<!DOCTYPE svg PUBLIC "-//W3C//DTD SVG 1.1//EN"
 "http://www.w3.org/Graphics/SVG/1.1/DTD/svg11.dtd">
<!-- Generated by graphviz version 2.38.0 (20140413.2041)
 -->
<!-- Title: examples/boris/particle.hpp Pages: 1 -->
<svg width="791pt" height="420pt"
 viewBox="0.00 0.00 791.41 420.00" xmlns="http://www.w3.org/2000/svg" xmlns:xlink="http://www.w3.org/1999/xlink">
<g id="graph0" class="graph" transform="scale(1 1) rotate(0) translate(4 416)">
<title>examples/boris/particle.hpp</title>
<polygon fill="white" stroke="none" points="-4,4 -4,-416 787.407,-416 787.407,4 -4,4"/>
<!-- Node1 -->
<g id="node1" class="node"><title>Node1</title>
<polygon fill="#bfbfbf" stroke="black" points="364,-392.5 364,-411.5 503,-411.5 503,-392.5 364,-392.5"/>
<text text-anchor="middle" x="433.5" y="-399.5" font-family="Helvetica,sans-Serif" font-size="10.00">examples/boris/particle.hpp</text>
</g>
<!-- Node2 -->
<g id="node2" class="node"><title>Node2</title>
<polygon fill="white" stroke="#bfbfbf" points="340,-224.5 340,-243.5 393,-243.5 393,-224.5 340,-224.5"/>
<text text-anchor="middle" x="366.5" y="-231.5" font-family="Helvetica,sans-Serif" font-size="10.00">memory</text>
</g>
<!-- Node1&#45;&gt;Node2 -->
<g id="edge1" class="edge"><title>Node1&#45;&gt;Node2</title>
<path fill="none" stroke="midnightblue" d="M429.898,-392.075C419.306,-365.832 388.112,-288.545 373.812,-253.117"/>
<polygon fill="midnightblue" stroke="midnightblue" points="376.947,-251.531 369.958,-243.568 370.455,-254.151 376.947,-251.531"/>
</g>
<!-- Node3 -->
<g id="node3" class="node"><title>Node3</title>
<polygon fill="white" stroke="#bfbfbf" points="411.5,-224.5 411.5,-243.5 455.5,-243.5 455.5,-224.5 411.5,-224.5"/>
<text text-anchor="middle" x="433.5" y="-231.5" font-family="Helvetica,sans-Serif" font-size="10.00">vector</text>
</g>
<!-- Node1&#45;&gt;Node3 -->
<g id="edge2" class="edge"><title>Node1&#45;&gt;Node3</title>
<path fill="none" stroke="midnightblue" d="M433.5,-392.075C433.5,-365.945 433.5,-289.211 433.5,-253.577"/>
<polygon fill="midnightblue" stroke="midnightblue" points="437,-253.568 433.5,-243.568 430,-253.568 437,-253.568"/>
</g>
<!-- Node4 -->
<g id="node4" class="node"><title>Node4</title>
<g id="a_node4"><a xlink:href="../../d0/da9/logging_8hpp.html" target="_top" xlink:title="pfasst/logging.hpp">
<polygon fill="white" stroke="black" points="194.5,-168.5 194.5,-187.5 292.5,-187.5 292.5,-168.5 194.5,-168.5"/>
<text text-anchor="middle" x="243.5" y="-175.5" font-family="Helvetica,sans-Serif" font-size="10.00">pfasst/logging.hpp</text>
</a>
</g>
</g>
<!-- Node1&#45;&gt;Node4 -->
<g id="edge3" class="edge"><title>Node1&#45;&gt;Node4</title>
<path fill="none" stroke="midnightblue" d="M426.052,-392.297C397.622,-359.079 295.637,-239.918 257.779,-195.684"/>
<polygon fill="midnightblue" stroke="midnightblue" points="260.265,-193.205 251.103,-187.884 254.946,-197.757 260.265,-193.205"/>
</g>
<!-- Node17 -->
<g id="node17" class="node"><title>Node17</title>
<g id="a_node17"><a xlink:href="../../d3/d35/particle__impl_8hpp.html" target="_top" xlink:title="particle_impl.hpp">
<polygon fill="white" stroke="black" points="471.5,-336.5 471.5,-355.5 561.5,-355.5 561.5,-336.5 471.5,-336.5"/>
<text text-anchor="middle" x="516.5" y="-343.5" font-family="Helvetica,sans-Serif" font-size="10.00">particle_impl.hpp</text>
</a>
</g>
</g>
<!-- Node1&#45;&gt;Node17 -->
<g id="edge20" class="edge"><title>Node1&#45;&gt;Node17</title>
<path fill="none" stroke="midnightblue" d="M441.721,-392.324C452.948,-383.822 472.786,-370.729 489.318,-360.797"/>
<polygon fill="midnightblue" stroke="midnightblue" points="491.232,-363.733 498.088,-355.655 487.691,-357.694 491.232,-363.733"/>
</g>
<!-- Node5 -->
<g id="node5" class="node"><title>Node5</title>
<polygon fill="white" stroke="#bfbfbf" points="631.5,-112.5 631.5,-131.5 683.5,-131.5 683.5,-112.5 631.5,-112.5"/>
<text text-anchor="middle" x="657.5" y="-119.5" font-family="Helvetica,sans-Serif" font-size="10.00">iomanip</text>
</g>
<!-- Node4&#45;&gt;Node5 -->
<g id="edge4" class="edge"><title>Node4&#45;&gt;Node5</title>
<path fill="none" stroke="midnightblue" d="M292.533,-169.292C295.566,-168.846 298.574,-168.412 301.5,-168 418.08,-151.59 556.54,-134.886 621.047,-127.264"/>
<polygon fill="midnightblue" stroke="midnightblue" points="621.595,-130.723 631.116,-126.077 620.775,-123.772 621.595,-130.723"/>
</g>
<!-- Node6 -->
<g id="node6" class="node"><title>Node6</title>
<polygon fill="white" stroke="#bfbfbf" points="439.5,-56.5 439.5,-75.5 495.5,-75.5 495.5,-56.5 439.5,-56.5"/>
<text text-anchor="middle" x="467.5" y="-63.5" font-family="Helvetica,sans-Serif" font-size="10.00">iostream</text>
</g>
<!-- Node4&#45;&gt;Node6 -->
<g id="edge5" class="edge"><title>Node4&#45;&gt;Node6</title>
<path fill="none" stroke="midnightblue" d="M290.4,-168.445C344.367,-158.25 427.068,-141.415 438.5,-132 452.638,-120.356 460.126,-100.406 463.925,-85.6717"/>
<polygon fill="midnightblue" stroke="midnightblue" points="467.401,-86.1665 466.16,-75.6445 460.568,-84.6433 467.401,-86.1665"/>
</g>
<!-- Node7 -->
<g id="node7" class="node"><title>Node7</title>
<polygon fill="white" stroke="#bfbfbf" points="0,-56.5 0,-75.5 41,-75.5 41,-56.5 0,-56.5"/>
<text text-anchor="middle" x="20.5" y="-63.5" font-family="Helvetica,sans-Serif" font-size="10.00">string</text>
</g>
<!-- Node4&#45;&gt;Node7 -->
<g id="edge6" class="edge"><title>Node4&#45;&gt;Node7</title>
<path fill="none" stroke="midnightblue" d="M194.219,-171.906C141.215,-165.453 61.5557,-152.62 39.5,-132 26.8953,-120.216 22.4984,-100.58 21.041,-85.9676"/>
<polygon fill="midnightblue" stroke="midnightblue" points="24.509,-85.3385 20.4018,-75.5722 17.5222,-85.7682 24.509,-85.3385"/>
</g>
<!-- Node8 -->
<g id="node8" class="node"><title>Node8</title>
<polygon fill="white" stroke="#bfbfbf" points="49,-112.5 49,-131.5 180,-131.5 180,-112.5 49,-112.5"/>
<text text-anchor="middle" x="114.5" y="-119.5" font-family="Helvetica,sans-Serif" font-size="10.00">boost/algorithm/string.hpp</text>
</g>
<!-- Node4&#45;&gt;Node8 -->
<g id="edge7" class="edge"><title>Node4&#45;&gt;Node8</title>
<path fill="none" stroke="midnightblue" d="M223.06,-168.444C201.83,-159.557 168.401,-145.563 144.245,-135.451"/>
<polygon fill="midnightblue" stroke="midnightblue" points="145.421,-132.149 134.845,-131.516 142.718,-138.606 145.421,-132.149"/>
</g>
<!-- Node9 -->
<g id="node9" class="node"><title>Node9</title>
<g id="a_node9"><a xlink:href="../../d8/dfd/config_8hpp.html" target="_top" xlink:title="pfasst/config.hpp">
<polygon fill="white" stroke="black" points="198,-112.5 198,-131.5 289,-131.5 289,-112.5 198,-112.5"/>
<text text-anchor="middle" x="243.5" y="-119.5" font-family="Helvetica,sans-Serif" font-size="10.00">pfasst/config.hpp</text>
</a>
</g>
</g>
<!-- Node4&#45;&gt;Node9 -->
<g id="edge8" class="edge"><title>Node4&#45;&gt;Node9</title>
<path fill="none" stroke="midnightblue" d="M243.5,-168.083C243.5,-161.006 243.5,-150.861 243.5,-141.986"/>
<polygon fill="midnightblue" stroke="midnightblue" points="247,-141.751 243.5,-131.751 240,-141.751 247,-141.751"/>
</g>
<!-- Node16 -->
<g id="node16" class="node"><title>Node16</title>
<polygon fill="white" stroke="#bfbfbf" points="307.5,-112.5 307.5,-131.5 429.5,-131.5 429.5,-112.5 307.5,-112.5"/>
<text text-anchor="middle" x="368.5" y="-119.5" font-family="Helvetica,sans-Serif" font-size="10.00">pfasst/easylogging++.h</text>
</g>
<!-- Node4&#45;&gt;Node16 -->
<g id="edge19" class="edge"><title>Node4&#45;&gt;Node16</title>
<path fill="none" stroke="midnightblue" d="M263.307,-168.444C283.787,-159.596 315.983,-145.687 339.365,-135.586"/>
<polygon fill="midnightblue" stroke="midnightblue" points="340.994,-138.695 348.786,-131.516 338.218,-132.269 340.994,-138.695"/>
</g>
<!-- Node9&#45;&gt;Node6 -->
<g id="edge10" class="edge"><title>Node9&#45;&gt;Node6</title>
<path fill="none" stroke="midnightblue" d="M278.993,-112.444C320.021,-102.553 387.286,-86.3372 429.392,-76.1868"/>
<polygon fill="midnightblue" stroke="midnightblue" points="430.364,-79.5528 439.265,-73.8067 428.723,-72.7478 430.364,-79.5528"/>
</g>
<!-- Node9&#45;&gt;Node7 -->
<g id="edge11" class="edge"><title>Node9&#45;&gt;Node7</title>
<path fill="none" stroke="midnightblue" d="M203.77,-112.497C166.688,-104.391 109.613,-91.485 50.9225,-75.9802"/>
<polygon fill="midnightblue" stroke="midnightblue" points="51.6726,-72.558 41.1087,-73.3669 49.8713,-79.3223 51.6726,-72.558"/>
</g>
<!-- Node10 -->
<g id="node10" class="node"><title>Node10</title>
<polygon fill="white" stroke="#bfbfbf" points="169.5,-0.5 169.5,-19.5 219.5,-19.5 219.5,-0.5 169.5,-0.5"/>
<text text-anchor="middle" x="194.5" y="-7.5" font-family="Helvetica,sans-Serif" font-size="10.00">fstream</text>
</g>
<!-- Node9&#45;&gt;Node10 -->
<g id="edge9" class="edge"><title>Node9&#45;&gt;Node10</title>
<path fill="none" stroke="midnightblue" d="M238.853,-112.488C234.029,-103.523 226.38,-88.9403 220.5,-76 213.429,-60.4395 206.281,-42.3606 201.274,-29.2255"/>
<polygon fill="midnightblue" stroke="midnightblue" points="204.419,-27.6447 197.621,-19.5186 197.868,-30.1105 204.419,-27.6447"/>
</g>
<!-- Node11 -->
<g id="node11" class="node"><title>Node11</title>
<polygon fill="white" stroke="#bfbfbf" points="229.5,-56.5 229.5,-75.5 265.5,-75.5 265.5,-56.5 229.5,-56.5"/>
<text text-anchor="middle" x="247.5" y="-63.5" font-family="Helvetica,sans-Serif" font-size="10.00">map</text>
</g>
<!-- Node9&#45;&gt;Node11 -->
<g id="edge12" class="edge"><title>Node9&#45;&gt;Node11</title>
<path fill="none" stroke="midnightblue" d="M244.161,-112.083C244.685,-105.006 245.436,-94.8611 246.094,-85.9865"/>
<polygon fill="midnightblue" stroke="midnightblue" points="249.603,-85.9823 246.852,-75.7511 242.623,-85.4652 249.603,-85.9823"/>
</g>
<!-- Node12 -->
<g id="node12" class="node"><title>Node12</title>
<polygon fill="white" stroke="#bfbfbf" points="284,-56.5 284,-75.5 421,-75.5 421,-56.5 284,-56.5"/>
<text text-anchor="middle" x="352.5" y="-63.5" font-family="Helvetica,sans-Serif" font-size="10.00">boost/program_options.hpp</text>
</g>
<!-- Node9&#45;&gt;Node12 -->
<g id="edge13" class="edge"><title>Node9&#45;&gt;Node12</title>
<path fill="none" stroke="midnightblue" d="M261.013,-112.324C278.572,-103.625 305.831,-90.1202 326.031,-80.113"/>
<polygon fill="midnightblue" stroke="midnightblue" points="327.624,-83.23 335.031,-75.6545 324.516,-76.9575 327.624,-83.23"/>
</g>
<!-- Node13 -->
<g id="node13" class="node"><title>Node13</title>
<g id="a_node13"><a xlink:href="../../d5/d84/config__impl_8hpp.html" target="_top" xlink:title="pfasst/config_impl.hpp">
<polygon fill="white" stroke="black" points="59.5,-56.5 59.5,-75.5 173.5,-75.5 173.5,-56.5 59.5,-56.5"/>
<text text-anchor="middle" x="116.5" y="-63.5" font-family="Helvetica,sans-Serif" font-size="10.00">pfasst/config_impl.hpp</text>
</a>
</g>
</g>
<!-- Node9&#45;&gt;Node13 -->
<g id="edge14" class="edge"><title>Node9&#45;&gt;Node13</title>
<path fill="none" stroke="midnightblue" d="M218.288,-112.444C195.641,-103.636 162.882,-89.8116 140.591,-79.722"/>
<polygon fill="midnightblue" stroke="midnightblue" points="141.997,-76.5162 131.449,-75.5164 139.071,-82.8756 141.997,-76.5162"/>
</g>
<!-- Node13&#45;&gt;Node9 -->
<g id="edge15" class="edge"><title>Node13&#45;&gt;Node9</title>
<path fill="none" stroke="midnightblue" d="M141.609,-75.5164C164.226,-84.3091 196.985,-98.1312 219.308,-108.232"/>
<polygon fill="midnightblue" stroke="midnightblue" points="217.918,-111.445 228.465,-112.444 220.842,-105.085 217.918,-111.445"/>
</g>
<!-- Node13&#45;&gt;Node10 -->
<g id="edge16" class="edge"><title>Node13&#45;&gt;Node10</title>
<path fill="none" stroke="midnightblue" d="M129.032,-56.324C141.086,-47.979 159.527,-35.2122 173.769,-25.3524"/>
<polygon fill="midnightblue" stroke="midnightblue" points="175.769,-28.2243 181.999,-19.6545 171.785,-22.469 175.769,-28.2243"/>
</g>
<!-- Node14 -->
<g id="node14" class="node"><title>Node14</title>
<polygon fill="white" stroke="#bfbfbf" points="94,-0.5 94,-19.5 147,-19.5 147,-0.5 94,-0.5"/>
<text text-anchor="middle" x="120.5" y="-7.5" font-family="Helvetica,sans-Serif" font-size="10.00">sstream</text>
</g>
<!-- Node13&#45;&gt;Node14 -->
<g id="edge17" class="edge"><title>Node13&#45;&gt;Node14</title>
<path fill="none" stroke="midnightblue" d="M117.161,-56.083C117.685,-49.0059 118.436,-38.8611 119.094,-29.9865"/>
<polygon fill="midnightblue" stroke="midnightblue" points="122.603,-29.9823 119.852,-19.7511 115.623,-29.4652 122.603,-29.9823"/>
</g>
<!-- Node15 -->
<g id="node15" class="node"><title>Node15</title>
<polygon fill="white" stroke="#bfbfbf" points="37.5,-0.5 37.5,-19.5 75.5,-19.5 75.5,-0.5 37.5,-0.5"/>
<text text-anchor="middle" x="56.5" y="-7.5" font-family="Helvetica,sans-Serif" font-size="10.00">utility</text>
</g>
<!-- Node13&#45;&gt;Node15 -->
<g id="edge18" class="edge"><title>Node13&#45;&gt;Node15</title>
<path fill="none" stroke="midnightblue" d="M106.86,-56.324C97.9904,-48.3414 84.6253,-36.3128 73.8921,-26.6529"/>
<polygon fill="midnightblue" stroke="midnightblue" points="76.0898,-23.922 66.3154,-19.8339 71.407,-29.1251 76.0898,-23.922"/>
</g>
<!-- Node17&#45;&gt;Node1 -->
<g id="edge21" class="edge"><title>Node17&#45;&gt;Node1</title>
<path fill="none" stroke="midnightblue" d="M508.071,-355.834C496.804,-364.342 477.102,-377.339 460.669,-387.21"/>
<polygon fill="midnightblue" stroke="midnightblue" points="458.805,-384.246 451.95,-392.324 462.347,-390.284 458.805,-384.246"/>
</g>
<!-- Node17&#45;&gt;Node5 -->
<g id="edge35" class="edge"><title>Node17&#45;&gt;Node5</title>
<path fill="none" stroke="midnightblue" d="M551.2,-336.484C610.894,-319.723 731.251,-276.165 779.5,-188 799.457,-151.533 736.552,-134.656 693.782,-127.555"/>
<polygon fill="midnightblue" stroke="midnightblue" points="694.088,-124.061 683.67,-125.992 693.018,-130.979 694.088,-124.061"/>
</g>
<!-- Node18 -->
<g id="node18" class="node"><title>Node18</title>
<g id="a_node18"><a xlink:href="../../db/de5/particle__util_8hpp.html" target="_top" xlink:title="particle_util.hpp">
<polygon fill="white" stroke="black" points="474.5,-280.5 474.5,-299.5 558.5,-299.5 558.5,-280.5 474.5,-280.5"/>
<text text-anchor="middle" x="516.5" y="-287.5" font-family="Helvetica,sans-Serif" font-size="10.00">particle_util.hpp</text>
</a>
</g>
</g>
<!-- Node17&#45;&gt;Node18 -->
<g id="edge22" class="edge"><title>Node17&#45;&gt;Node18</title>
<path fill="none" stroke="midnightblue" d="M516.5,-336.083C516.5,-329.006 516.5,-318.861 516.5,-309.986"/>
<polygon fill="midnightblue" stroke="midnightblue" points="520,-309.751 516.5,-299.751 513,-309.751 520,-309.751"/>
</g>
<!-- Node21 -->
<g id="node21" class="node"><title>Node21</title>
<polygon fill="white" stroke="#bfbfbf" points="720.5,-168.5 720.5,-187.5 770.5,-187.5 770.5,-168.5 720.5,-168.5"/>
<text text-anchor="middle" x="745.5" y="-175.5" font-family="Helvetica,sans-Serif" font-size="10.00">cassert</text>
</g>
<!-- Node17&#45;&gt;Node21 -->
<g id="edge34" class="edge"><title>Node17&#45;&gt;Node21</title>
<path fill="none" stroke="midnightblue" d="M528.49,-336.309C565.588,-309.416 678.798,-227.352 725.267,-193.666"/>
<polygon fill="midnightblue" stroke="midnightblue" points="727.587,-196.308 733.629,-187.605 723.478,-190.64 727.587,-196.308"/>
</g>
<!-- Node18&#45;&gt;Node2 -->
<g id="edge23" class="edge"><title>Node18&#45;&gt;Node2</title>
<path fill="none" stroke="midnightblue" d="M492.732,-280.444C467.607,-271.399 427.789,-257.064 399.6,-246.916"/>
<polygon fill="midnightblue" stroke="midnightblue" points="400.751,-243.611 390.157,-243.516 398.38,-250.197 400.751,-243.611"/>
</g>
<!-- Node18&#45;&gt;Node3 -->
<g id="edge24" class="edge"><title>Node18&#45;&gt;Node3</title>
<path fill="none" stroke="midnightblue" d="M503.165,-280.324C490.338,-271.979 470.715,-259.212 455.56,-249.352"/>
<polygon fill="midnightblue" stroke="midnightblue" points="457.093,-246.174 446.802,-243.655 453.276,-252.042 457.093,-246.174"/>
</g>
<!-- Node19 -->
<g id="node19" class="node"><title>Node19</title>
<g id="a_node19"><a xlink:href="../../d0/d00/particle__util__impl_8hpp.html" target="_top" xlink:title="particle_util_impl.hpp">
<polygon fill="white" stroke="black" points="473,-224.5 473,-243.5 580,-243.5 580,-224.5 473,-224.5"/>
<text text-anchor="middle" x="526.5" y="-231.5" font-family="Helvetica,sans-Serif" font-size="10.00">particle_util_impl.hpp</text>
</a>
</g>
</g>
<!-- Node18&#45;&gt;Node19 -->
<g id="edge25" class="edge"><title>Node18&#45;&gt;Node19</title>
<path fill="none" stroke="midnightblue" d="M512.985,-280.083C512.799,-272.849 514.309,-262.409 516.657,-253.397"/>
<polygon fill="midnightblue" stroke="midnightblue" points="520.03,-254.342 519.748,-243.751 513.364,-252.206 520.03,-254.342"/>
</g>
<!-- Node19&#45;&gt;Node4 -->
<g id="edge33" class="edge"><title>Node19&#45;&gt;Node4</title>
<path fill="none" stroke="midnightblue" d="M481.658,-224.444C431.875,-214.944 351.517,-199.611 298.108,-189.42"/>
<polygon fill="midnightblue" stroke="midnightblue" points="298.611,-185.953 288.132,-187.516 297.299,-192.829 298.611,-185.953"/>
</g>
<!-- Node19&#45;&gt;Node18 -->
<g id="edge26" class="edge"><title>Node19&#45;&gt;Node18</title>
<path fill="none" stroke="midnightblue" d="M530.01,-243.751C530.223,-250.936 528.732,-261.362 526.396,-270.396"/>
<polygon fill="midnightblue" stroke="midnightblue" points="523.011,-269.493 523.318,-280.083 529.682,-271.613 523.011,-269.493"/>
</g>
<!-- Node20 -->
<g id="node20" class="node"><title>Node20</title>
<polygon fill="white" stroke="#bfbfbf" points="644.5,-168.5 644.5,-187.5 702.5,-187.5 702.5,-168.5 644.5,-168.5"/>
<text text-anchor="middle" x="673.5" y="-175.5" font-family="Helvetica,sans-Serif" font-size="10.00">algorithm</text>
</g>
<!-- Node19&#45;&gt;Node20 -->
<g id="edge27" class="edge"><title>Node19&#45;&gt;Node20</title>
<path fill="none" stroke="midnightblue" d="M549.793,-224.444C574.307,-215.438 613.096,-201.189 640.7,-191.049"/>
<polygon fill="midnightblue" stroke="midnightblue" points="642.137,-194.25 650.316,-187.516 639.723,-187.679 642.137,-194.25"/>
</g>
<!-- Node19&#45;&gt;Node21 -->
<g id="edge28" class="edge"><title>Node19&#45;&gt;Node21</title>
<path fill="none" stroke="midnightblue" d="M562.711,-224.42C598.004,-216.007 653.438,-202.66 710.371,-188.251"/>
<polygon fill="midnightblue" stroke="midnightblue" points="711.432,-191.593 720.264,-185.741 709.71,-184.808 711.432,-191.593"/>
</g>
<!-- Node22 -->
<g id="node22" class="node"><title>Node22</title>
<polygon fill="white" stroke="#bfbfbf" points="310.5,-168.5 310.5,-187.5 354.5,-187.5 354.5,-168.5 310.5,-168.5"/>
<text text-anchor="middle" x="332.5" y="-175.5" font-family="Helvetica,sans-Serif" font-size="10.00">cmath</text>
</g>
<!-- Node19&#45;&gt;Node22 -->
<g id="edge29" class="edge"><title>Node19&#45;&gt;Node22</title>
<path fill="none" stroke="midnightblue" d="M495.218,-224.495C464.366,-216.079 415.617,-202.703 364.429,-188.237"/>
<polygon fill="midnightblue" stroke="midnightblue" points="365.08,-184.784 354.505,-185.427 363.174,-191.519 365.08,-184.784"/>
</g>
<!-- Node23 -->
<g id="node23" class="node"><title>Node23</title>
<polygon fill="white" stroke="#bfbfbf" points="373,-168.5 373,-187.5 432,-187.5 432,-168.5 373,-168.5"/>
<text text-anchor="middle" x="402.5" y="-175.5" font-family="Helvetica,sans-Serif" font-size="10.00">functional</text>
</g>
<!-- Node19&#45;&gt;Node23 -->
<g id="edge30" class="edge"><title>Node19&#45;&gt;Node23</title>
<path fill="none" stroke="midnightblue" d="M506.852,-224.444C486.535,-215.596 454.597,-201.687 431.402,-191.586"/>
<polygon fill="midnightblue" stroke="midnightblue" points="432.622,-188.3 422.056,-187.516 429.827,-194.718 432.622,-188.3"/>
</g>
<!-- Node24 -->
<g id="node24" class="node"><title>Node24</title>
<polygon fill="white" stroke="#bfbfbf" points="450.5,-168.5 450.5,-187.5 512.5,-187.5 512.5,-168.5 450.5,-168.5"/>
<text text-anchor="middle" x="481.5" y="-175.5" font-family="Helvetica,sans-Serif" font-size="10.00">type_traits</text>
</g>
<!-- Node19&#45;&gt;Node24 -->
<g id="edge31" class="edge"><title>Node19&#45;&gt;Node24</title>
<path fill="none" stroke="midnightblue" d="M519.069,-224.083C512.647,-216.377 503.194,-205.033 495.378,-195.653"/>
<polygon fill="midnightblue" stroke="midnightblue" points="497.883,-193.193 488.793,-187.751 492.506,-197.674 497.883,-193.193"/>
</g>
<!-- Node25 -->
<g id="node25" class="node"><title>Node25</title>
<g id="a_node25"><a xlink:href="../../d5/d82/globals_8hpp.html" target="_top" xlink:title="pfasst/globals.hpp">
<polygon fill="white" stroke="black" points="530,-168.5 530,-187.5 627,-187.5 627,-168.5 530,-168.5"/>
<text text-anchor="middle" x="578.5" y="-175.5" font-family="Helvetica,sans-Serif" font-size="10.00">pfasst/globals.hpp</text>
</a>
</g>
</g>
<!-- Node19&#45;&gt;Node25 -->
<g id="edge32" class="edge"><title>Node19&#45;&gt;Node25</title>
<path fill="none" stroke="midnightblue" d="M535.087,-224.083C542.659,-216.22 553.878,-204.569 563.014,-195.081"/>
<polygon fill="midnightblue" stroke="midnightblue" points="565.658,-197.382 570.073,-187.751 560.615,-192.527 565.658,-197.382"/>
</g>
</g>
</svg>
