<?xml version="1.0" encoding="UTF-8" standalone="no"?>
<!DOCTYPE svg PUBLIC "-//W3C//DTD SVG 1.1//EN"
 "http://www.w3.org/Graphics/SVG/1.1/DTD/svg11.dtd">
<!-- Generated by graphviz version 2.38.0 (20140413.2041)
 -->
<!-- Title: src/pfasst/quadrature/clenshaw_curtis_impl.hpp Pages: 1 -->
<svg width="1246pt" height="520pt"
 viewBox="0.00 0.00 1245.50 520.00" xmlns="http://www.w3.org/2000/svg" xmlns:xlink="http://www.w3.org/1999/xlink">
<g id="graph0" class="graph" transform="scale(1 1) rotate(0) translate(4 516)">
<title>src/pfasst/quadrature/clenshaw_curtis_impl.hpp</title>
<polygon fill="white" stroke="none" points="-4,4 -4,-516 1241.5,-516 1241.5,4 -4,4"/>
<!-- Node1 -->
<g id="node1" class="node"><title>Node1</title>
<polygon fill="#bfbfbf" stroke="black" points="738,-481.5 738,-511.5 870,-511.5 870,-481.5 738,-481.5"/>
<text text-anchor="start" x="746" y="-499.5" font-family="Helvetica,sans-Serif" font-size="10.00">src/pfasst/quadrature</text>
<text text-anchor="middle" x="804" y="-488.5" font-family="Helvetica,sans-Serif" font-size="10.00">/clenshaw_curtis_impl.hpp</text>
</g>
<!-- Node2 -->
<g id="node2" class="node"><title>Node2</title>
<g id="a_node2"><a xlink:href="../../de/d84/clenshaw__curtis_8hpp.html" target="_top" xlink:title="pfasst/quadrature/clenshaw\l_curtis.hpp">
<polygon fill="white" stroke="black" points="734,-414.5 734,-444.5 874,-444.5 874,-414.5 734,-414.5"/>
<text text-anchor="start" x="742" y="-432.5" font-family="Helvetica,sans-Serif" font-size="10.00">pfasst/quadrature/clenshaw</text>
<text text-anchor="middle" x="804" y="-421.5" font-family="Helvetica,sans-Serif" font-size="10.00">_curtis.hpp</text>
</a>
</g>
</g>
<!-- Node1&#45;&gt;Node2 -->
<g id="edge1" class="edge"><title>Node1&#45;&gt;Node2</title>
<path fill="none" stroke="midnightblue" d="M798.322,-481.396C797.294,-473.56 797.005,-463.596 797.456,-454.565"/>
<polygon fill="midnightblue" stroke="midnightblue" points="800.945,-454.842 798.325,-444.577 793.972,-454.236 800.945,-454.842"/>
</g>
<!-- Node7 -->
<g id="node7" class="node"><title>Node7</title>
<polygon fill="white" stroke="#bfbfbf" points="356,-230 356,-249 416,-249 416,-230 356,-230"/>
<text text-anchor="middle" x="386" y="-237" font-family="Helvetica,sans-Serif" font-size="10.00">stdexcept</text>
</g>
<!-- Node1&#45;&gt;Node7 -->
<g id="edge48" class="edge"><title>Node1&#45;&gt;Node7</title>
<path fill="none" stroke="midnightblue" d="M770.646,-481.355C709.355,-454.632 575.854,-392.995 475,-322 446.879,-302.205 418.231,-274.289 401.292,-256.804"/>
<polygon fill="midnightblue" stroke="midnightblue" points="403.409,-253.953 393.971,-249.139 398.347,-258.788 403.409,-253.953"/>
</g>
<!-- Node25 -->
<g id="node25" class="node"><title>Node25</title>
<g id="a_node25"><a xlink:href="../../d0/d3e/polynomial_8hpp.html" target="_top" xlink:title="pfasst/quadrature/polynomial.hpp">
<polygon fill="white" stroke="black" points="1060,-297 1060,-316 1224,-316 1224,-297 1060,-297"/>
<text text-anchor="middle" x="1142" y="-304" font-family="Helvetica,sans-Serif" font-size="10.00">pfasst/quadrature/polynomial.hpp</text>
</a>
</g>
</g>
<!-- Node1&#45;&gt;Node25 -->
<g id="edge50" class="edge"><title>Node1&#45;&gt;Node25</title>
<path fill="none" stroke="midnightblue" d="M837.882,-481.381C885.623,-460.97 974.812,-420.936 1046,-378 1074.28,-360.944 1104.64,-337.731 1123.47,-322.681"/>
<polygon fill="midnightblue" stroke="midnightblue" points="1125.92,-325.205 1131.5,-316.201 1121.52,-319.758 1125.92,-325.205"/>
</g>
<!-- Node31 -->
<g id="node31" class="node"><title>Node31</title>
<polygon fill="white" stroke="#bfbfbf" points="1098,-414.5 1098,-444.5 1210,-444.5 1210,-414.5 1098,-414.5"/>
<text text-anchor="start" x="1106" y="-432.5" font-family="Helvetica,sans-Serif" font-size="10.00">boost/math/constants</text>
<text text-anchor="middle" x="1154" y="-421.5" font-family="Helvetica,sans-Serif" font-size="10.00">/constants.hpp</text>
</g>
<!-- Node1&#45;&gt;Node31 -->
<g id="edge49" class="edge"><title>Node1&#45;&gt;Node31</title>
<path fill="none" stroke="midnightblue" d="M870.281,-484.043C927.073,-474.106 1011.02,-459.138 1084,-445 1085.27,-444.754 1086.55,-444.505 1087.84,-444.252"/>
<polygon fill="midnightblue" stroke="midnightblue" points="1088.73,-447.642 1097.86,-442.262 1087.37,-440.776 1088.73,-447.642"/>
</g>
<!-- Node2&#45;&gt;Node1 -->
<g id="edge47" class="edge"><title>Node2&#45;&gt;Node1</title>
<path fill="none" stroke="midnightblue" d="M809.675,-444.577C810.704,-452.408 810.995,-462.37 810.545,-471.403"/>
<polygon fill="midnightblue" stroke="midnightblue" points="807.056,-471.131 809.678,-481.396 814.03,-471.736 807.056,-471.131"/>
</g>
<!-- Node3 -->
<g id="node3" class="node"><title>Node3</title>
<polygon fill="white" stroke="#bfbfbf" points="926,-168.5 926,-187.5 976,-187.5 976,-168.5 926,-168.5"/>
<text text-anchor="middle" x="951" y="-175.5" font-family="Helvetica,sans-Serif" font-size="10.00">cassert</text>
</g>
<!-- Node2&#45;&gt;Node3 -->
<g id="edge2" class="edge"><title>Node2&#45;&gt;Node3</title>
<path fill="none" stroke="midnightblue" d="M869.093,-414.399C917.793,-400.067 981.102,-372.534 1012,-322 1038.4,-278.825 993.409,-222.187 967.439,-194.966"/>
<polygon fill="midnightblue" stroke="midnightblue" points="969.901,-192.477 960.391,-187.806 964.912,-197.388 969.901,-192.477"/>
</g>
<!-- Node4 -->
<g id="node4" class="node"><title>Node4</title>
<polygon fill="white" stroke="#bfbfbf" points="729,-230 729,-249 773,-249 773,-230 729,-230"/>
<text text-anchor="middle" x="751" y="-237" font-family="Helvetica,sans-Serif" font-size="10.00">vector</text>
</g>
<!-- Node2&#45;&gt;Node4 -->
<g id="edge3" class="edge"><title>Node2&#45;&gt;Node4</title>
<path fill="none" stroke="midnightblue" d="M761.674,-414.302C744.985,-406.389 727.548,-394.679 718,-378 712.392,-368.204 701.677,-349.078 719,-291 722.687,-278.639 730.336,-266.377 737.231,-257.032"/>
<polygon fill="midnightblue" stroke="midnightblue" points="740.062,-259.094 743.457,-249.058 734.544,-254.787 740.062,-259.094"/>
</g>
<!-- Node5 -->
<g id="node5" class="node"><title>Node5</title>
<g id="a_node5"><a xlink:href="../../d1/d1b/interfaces_8hpp.html" target="_top" xlink:title="interfaces for SDC/MLSDC/PFASST algorithms. ">
<polygon fill="white" stroke="black" points="484.5,-297 484.5,-316 591.5,-316 591.5,-297 484.5,-297"/>
<text text-anchor="middle" x="538" y="-304" font-family="Helvetica,sans-Serif" font-size="10.00">pfasst/interfaces.hpp</text>
</a>
</g>
</g>
<!-- Node2&#45;&gt;Node5 -->
<g id="edge4" class="edge"><title>Node2&#45;&gt;Node5</title>
<path fill="none" stroke="midnightblue" d="M754.331,-414.412C725.112,-405.425 687.78,-392.717 656,-378 620.409,-361.518 581.881,-337.141 558.856,-321.799"/>
<polygon fill="midnightblue" stroke="midnightblue" points="560.52,-318.7 550.271,-316.017 556.61,-324.506 560.52,-318.7"/>
</g>
<!-- Node23 -->
<g id="node23" class="node"><title>Node23</title>
<g id="a_node23"><a xlink:href="../../df/dea/quadrature_2interface_8hpp.html" target="_top" xlink:title="pfasst/quadrature/interface.hpp">
<polygon fill="white" stroke="black" points="727,-358.5 727,-377.5 881,-377.5 881,-358.5 727,-358.5"/>
<text text-anchor="middle" x="804" y="-365.5" font-family="Helvetica,sans-Serif" font-size="10.00">pfasst/quadrature/interface.hpp</text>
</a>
</g>
</g>
<!-- Node2&#45;&gt;Node23 -->
<g id="edge31" class="edge"><title>Node2&#45;&gt;Node23</title>
<path fill="none" stroke="midnightblue" d="M804,-414.399C804,-406.466 804,-396.458 804,-387.858"/>
<polygon fill="midnightblue" stroke="midnightblue" points="807.5,-387.658 804,-377.658 800.5,-387.658 807.5,-387.658"/>
</g>
<!-- Node6 -->
<g id="node6" class="node"><title>Node6</title>
<polygon fill="white" stroke="#bfbfbf" points="343.5,-168.5 343.5,-187.5 396.5,-187.5 396.5,-168.5 343.5,-168.5"/>
<text text-anchor="middle" x="370" y="-175.5" font-family="Helvetica,sans-Serif" font-size="10.00">memory</text>
</g>
<!-- Node5&#45;&gt;Node6 -->
<g id="edge5" class="edge"><title>Node5&#45;&gt;Node6</title>
<path fill="none" stroke="midnightblue" d="M524.465,-296.925C509.244,-287.159 483.918,-270.538 463,-255 462.047,-254.292 415.304,-216.064 388.46,-194.104"/>
<polygon fill="midnightblue" stroke="midnightblue" points="390.483,-191.237 380.527,-187.613 386.051,-196.654 390.483,-191.237"/>
</g>
<!-- Node5&#45;&gt;Node7 -->
<g id="edge6" class="edge"><title>Node5&#45;&gt;Node7</title>
<path fill="none" stroke="midnightblue" d="M517.816,-296.869C491.696,-285.699 445.974,-266.147 415.839,-253.26"/>
<polygon fill="midnightblue" stroke="midnightblue" points="416.839,-249.881 406.268,-249.167 414.086,-256.317 416.839,-249.881"/>
</g>
<!-- Node8 -->
<g id="node8" class="node"><title>Node8</title>
<polygon fill="white" stroke="#bfbfbf" points="515.5,-56.5 515.5,-75.5 556.5,-75.5 556.5,-56.5 515.5,-56.5"/>
<text text-anchor="middle" x="536" y="-63.5" font-family="Helvetica,sans-Serif" font-size="10.00">string</text>
</g>
<!-- Node5&#45;&gt;Node8 -->
<g id="edge7" class="edge"><title>Node5&#45;&gt;Node8</title>
<path fill="none" stroke="midnightblue" d="M561.191,-296.978C609.238,-277.893 712.642,-228.602 681,-168 656.962,-121.962 601.308,-92.6455 566.364,-78.0673"/>
<polygon fill="midnightblue" stroke="midnightblue" points="567.255,-74.6539 556.671,-74.1791 564.649,-81.1507 567.255,-74.6539"/>
</g>
<!-- Node9 -->
<g id="node9" class="node"><title>Node9</title>
<g id="a_node9"><a xlink:href="../../d8/dc4/interfaces__impl_8hpp.html" target="_top" xlink:title="pfasst/interfaces_impl.hpp">
<polygon fill="white" stroke="black" points="472.5,-230 472.5,-249 603.5,-249 603.5,-230 472.5,-230"/>
<text text-anchor="middle" x="538" y="-237" font-family="Helvetica,sans-Serif" font-size="10.00">pfasst/interfaces_impl.hpp</text>
</a>
</g>
</g>
<!-- Node5&#45;&gt;Node9 -->
<g id="edge8" class="edge"><title>Node5&#45;&gt;Node9</title>
<path fill="none" stroke="midnightblue" d="M533.211,-296.734C531.202,-287.183 530.736,-271.618 531.816,-259.283"/>
<polygon fill="midnightblue" stroke="midnightblue" points="535.317,-259.517 533.241,-249.127 528.385,-258.544 535.317,-259.517"/>
</g>
<!-- Node9&#45;&gt;Node3 -->
<g id="edge10" class="edge"><title>Node9&#45;&gt;Node3</title>
<path fill="none" stroke="midnightblue" d="M597.173,-229.975C684.368,-217.413 844.687,-194.316 915.631,-184.096"/>
<polygon fill="midnightblue" stroke="midnightblue" points="916.429,-187.517 925.828,-182.627 915.431,-180.588 916.429,-187.517"/>
</g>
<!-- Node9&#45;&gt;Node5 -->
<g id="edge9" class="edge"><title>Node9&#45;&gt;Node5</title>
<path fill="none" stroke="midnightblue" d="M542.759,-249.127C544.784,-258.62 545.264,-274.17 544.2,-286.537"/>
<polygon fill="midnightblue" stroke="midnightblue" points="540.693,-286.348 542.789,-296.734 547.627,-287.308 540.693,-286.348"/>
</g>
<!-- Node9&#45;&gt;Node6 -->
<g id="edge11" class="edge"><title>Node9&#45;&gt;Node6</title>
<path fill="none" stroke="midnightblue" d="M513.93,-229.975C484.987,-219.725 436.238,-202.459 403.598,-190.899"/>
<polygon fill="midnightblue" stroke="midnightblue" points="404.62,-187.548 394.026,-187.509 402.283,-194.147 404.62,-187.548"/>
</g>
<!-- Node9&#45;&gt;Node8 -->
<g id="edge12" class="edge"><title>Node9&#45;&gt;Node8</title>
<path fill="none" stroke="midnightblue" d="M537.898,-229.76C537.588,-203.151 536.65,-122.715 536.22,-85.8382"/>
<polygon fill="midnightblue" stroke="midnightblue" points="539.716,-85.4778 536.099,-75.5194 532.716,-85.5595 539.716,-85.4778"/>
</g>
<!-- Node10 -->
<g id="node10" class="node"><title>Node10</title>
<g id="a_node10"><a xlink:href="../../d5/d82/globals_8hpp.html" target="_top" xlink:title="pfasst/globals.hpp">
<polygon fill="white" stroke="black" points="575.5,-168.5 575.5,-187.5 672.5,-187.5 672.5,-168.5 575.5,-168.5"/>
<text text-anchor="middle" x="624" y="-175.5" font-family="Helvetica,sans-Serif" font-size="10.00">pfasst/globals.hpp</text>
</a>
</g>
</g>
<!-- Node9&#45;&gt;Node10 -->
<g id="edge13" class="edge"><title>Node9&#45;&gt;Node10</title>
<path fill="none" stroke="midnightblue" d="M550.322,-229.975C564.116,-220.431 586.699,-204.807 603.232,-193.368"/>
<polygon fill="midnightblue" stroke="midnightblue" points="605.469,-196.077 611.701,-187.509 601.486,-190.32 605.469,-196.077"/>
</g>
<!-- Node11 -->
<g id="node11" class="node"><title>Node11</title>
<g id="a_node11"><a xlink:href="../../d0/da9/logging_8hpp.html" target="_top" xlink:title="pfasst/logging.hpp">
<polygon fill="white" stroke="black" points="414,-168.5 414,-187.5 512,-187.5 512,-168.5 414,-168.5"/>
<text text-anchor="middle" x="463" y="-175.5" font-family="Helvetica,sans-Serif" font-size="10.00">pfasst/logging.hpp</text>
</a>
</g>
</g>
<!-- Node9&#45;&gt;Node11 -->
<g id="edge14" class="edge"><title>Node9&#45;&gt;Node11</title>
<path fill="none" stroke="midnightblue" d="M527.254,-229.975C515.447,-220.608 496.257,-205.384 481.918,-194.008"/>
<polygon fill="midnightblue" stroke="midnightblue" points="483.735,-190.982 473.726,-187.509 479.385,-196.466 483.735,-190.982"/>
</g>
<!-- Node11&#45;&gt;Node8 -->
<g id="edge17" class="edge"><title>Node11&#45;&gt;Node8</title>
<path fill="none" stroke="midnightblue" d="M470.329,-168.294C477.671,-159.414 489.123,-145.114 498,-132 508.51,-116.473 519.172,-97.9395 526.516,-84.6432"/>
<polygon fill="midnightblue" stroke="midnightblue" points="529.715,-86.0883 531.428,-75.6329 523.569,-82.7377 529.715,-86.0883"/>
</g>
<!-- Node12 -->
<g id="node12" class="node"><title>Node12</title>
<polygon fill="white" stroke="#bfbfbf" points="437,-112.5 437,-131.5 489,-131.5 489,-112.5 437,-112.5"/>
<text text-anchor="middle" x="463" y="-119.5" font-family="Helvetica,sans-Serif" font-size="10.00">iomanip</text>
</g>
<!-- Node11&#45;&gt;Node12 -->
<g id="edge15" class="edge"><title>Node11&#45;&gt;Node12</title>
<path fill="none" stroke="midnightblue" d="M463,-168.083C463,-161.006 463,-150.861 463,-141.986"/>
<polygon fill="midnightblue" stroke="midnightblue" points="466.5,-141.751 463,-131.751 459.5,-141.751 466.5,-141.751"/>
</g>
<!-- Node13 -->
<g id="node13" class="node"><title>Node13</title>
<polygon fill="white" stroke="#bfbfbf" points="0,-56.5 0,-75.5 56,-75.5 56,-56.5 0,-56.5"/>
<text text-anchor="middle" x="28" y="-63.5" font-family="Helvetica,sans-Serif" font-size="10.00">iostream</text>
</g>
<!-- Node11&#45;&gt;Node13 -->
<g id="edge16" class="edge"><title>Node11&#45;&gt;Node13</title>
<path fill="none" stroke="midnightblue" d="M413.981,-169.187C410.944,-168.767 407.932,-168.368 405,-168 363.357,-162.78 57.4649,-162.84 29,-132 17.7764,-119.84 19.0815,-100.286 22.2454,-85.7974"/>
<polygon fill="midnightblue" stroke="midnightblue" points="25.6867,-86.4732 24.8505,-75.9114 18.9178,-84.6894 25.6867,-86.4732"/>
</g>
<!-- Node14 -->
<g id="node14" class="node"><title>Node14</title>
<polygon fill="white" stroke="#bfbfbf" points="38.5,-112.5 38.5,-131.5 169.5,-131.5 169.5,-112.5 38.5,-112.5"/>
<text text-anchor="middle" x="104" y="-119.5" font-family="Helvetica,sans-Serif" font-size="10.00">boost/algorithm/string.hpp</text>
</g>
<!-- Node11&#45;&gt;Node14 -->
<g id="edge18" class="edge"><title>Node11&#45;&gt;Node14</title>
<path fill="none" stroke="midnightblue" d="M413.955,-169.37C410.925,-168.905 407.921,-168.445 405,-168 324.842,-155.789 232.625,-142.048 171.611,-132.999"/>
<polygon fill="midnightblue" stroke="midnightblue" points="172.123,-129.536 161.718,-131.532 171.097,-136.461 172.123,-129.536"/>
</g>
<!-- Node15 -->
<g id="node15" class="node"><title>Node15</title>
<g id="a_node15"><a xlink:href="../../d8/dfd/config_8hpp.html" target="_top" xlink:title="pfasst/config.hpp">
<polygon fill="white" stroke="black" points="187.5,-112.5 187.5,-131.5 278.5,-131.5 278.5,-112.5 187.5,-112.5"/>
<text text-anchor="middle" x="233" y="-119.5" font-family="Helvetica,sans-Serif" font-size="10.00">pfasst/config.hpp</text>
</a>
</g>
</g>
<!-- Node11&#45;&gt;Node15 -->
<g id="edge19" class="edge"><title>Node11&#45;&gt;Node15</title>
<path fill="none" stroke="midnightblue" d="M426.556,-168.444C386.601,-159.063 322.413,-143.993 279.015,-133.804"/>
<polygon fill="midnightblue" stroke="midnightblue" points="279.809,-130.395 269.274,-131.516 278.209,-137.21 279.809,-130.395"/>
</g>
<!-- Node22 -->
<g id="node22" class="node"><title>Node22</title>
<polygon fill="white" stroke="#bfbfbf" points="297,-112.5 297,-131.5 419,-131.5 419,-112.5 297,-112.5"/>
<text text-anchor="middle" x="358" y="-119.5" font-family="Helvetica,sans-Serif" font-size="10.00">pfasst/easylogging++.h</text>
</g>
<!-- Node11&#45;&gt;Node22 -->
<g id="edge30" class="edge"><title>Node11&#45;&gt;Node22</title>
<path fill="none" stroke="midnightblue" d="M446.13,-168.324C429.291,-159.664 403.193,-146.242 383.762,-136.249"/>
<polygon fill="midnightblue" stroke="midnightblue" points="385.322,-133.116 374.828,-131.655 382.12,-139.341 385.322,-133.116"/>
</g>
<!-- Node15&#45;&gt;Node8 -->
<g id="edge22" class="edge"><title>Node15&#45;&gt;Node8</title>
<path fill="none" stroke="midnightblue" d="M278.69,-112.857C341.307,-101.698 452.089,-81.9545 505.511,-72.4338"/>
<polygon fill="midnightblue" stroke="midnightblue" points="506.168,-75.8718 515.399,-70.6715 504.94,-68.9804 506.168,-75.8718"/>
</g>
<!-- Node15&#45;&gt;Node13 -->
<g id="edge21" class="edge"><title>Node15&#45;&gt;Node13</title>
<path fill="none" stroke="midnightblue" d="M200.517,-112.444C163.933,-102.807 104.554,-87.1653 65.8872,-76.98"/>
<polygon fill="midnightblue" stroke="midnightblue" points="66.6103,-73.5512 56.0486,-74.3884 64.8272,-80.3203 66.6103,-73.5512"/>
</g>
<!-- Node16 -->
<g id="node16" class="node"><title>Node16</title>
<polygon fill="white" stroke="#bfbfbf" points="204,-0.5 204,-19.5 254,-19.5 254,-0.5 204,-0.5"/>
<text text-anchor="middle" x="229" y="-7.5" font-family="Helvetica,sans-Serif" font-size="10.00">fstream</text>
</g>
<!-- Node15&#45;&gt;Node16 -->
<g id="edge20" class="edge"><title>Node15&#45;&gt;Node16</title>
<path fill="none" stroke="midnightblue" d="M232.686,-112.368C232.041,-94.617 230.552,-53.6664 229.676,-29.5974"/>
<polygon fill="midnightblue" stroke="midnightblue" points="233.174,-29.4576 229.312,-19.5914 226.178,-29.712 233.174,-29.4576"/>
</g>
<!-- Node17 -->
<g id="node17" class="node"><title>Node17</title>
<polygon fill="white" stroke="#bfbfbf" points="261,-56.5 261,-75.5 297,-75.5 297,-56.5 261,-56.5"/>
<text text-anchor="middle" x="279" y="-63.5" font-family="Helvetica,sans-Serif" font-size="10.00">map</text>
</g>
<!-- Node15&#45;&gt;Node17 -->
<g id="edge23" class="edge"><title>Node15&#45;&gt;Node17</title>
<path fill="none" stroke="midnightblue" d="M240.596,-112.083C247.227,-104.298 257.021,-92.8015 265.058,-83.3665"/>
<polygon fill="midnightblue" stroke="midnightblue" points="267.725,-85.6332 271.545,-75.7511 262.396,-81.0939 267.725,-85.6332"/>
</g>
<!-- Node18 -->
<g id="node18" class="node"><title>Node18</title>
<polygon fill="white" stroke="#bfbfbf" points="315.5,-56.5 315.5,-75.5 452.5,-75.5 452.5,-56.5 315.5,-56.5"/>
<text text-anchor="middle" x="384" y="-63.5" font-family="Helvetica,sans-Serif" font-size="10.00">boost/program_options.hpp</text>
</g>
<!-- Node15&#45;&gt;Node18 -->
<g id="edge24" class="edge"><title>Node15&#45;&gt;Node18</title>
<path fill="none" stroke="midnightblue" d="M256.926,-112.444C282.219,-103.399 322.302,-89.064 350.68,-78.9158"/>
<polygon fill="midnightblue" stroke="midnightblue" points="351.948,-82.1794 360.186,-75.5164 349.591,-75.5882 351.948,-82.1794"/>
</g>
<!-- Node19 -->
<g id="node19" class="node"><title>Node19</title>
<g id="a_node19"><a xlink:href="../../d5/d84/config__impl_8hpp.html" target="_top" xlink:title="pfasst/config_impl.hpp">
<polygon fill="white" stroke="black" points="91,-56.5 91,-75.5 205,-75.5 205,-56.5 91,-56.5"/>
<text text-anchor="middle" x="148" y="-63.5" font-family="Helvetica,sans-Serif" font-size="10.00">pfasst/config_impl.hpp</text>
</a>
</g>
</g>
<!-- Node15&#45;&gt;Node19 -->
<g id="edge25" class="edge"><title>Node15&#45;&gt;Node19</title>
<path fill="none" stroke="midnightblue" d="M214.228,-112.324C199.515,-104.107 179.504,-91.6017 165.21,-81.8069"/>
<polygon fill="midnightblue" stroke="midnightblue" points="166.943,-78.7458 156.756,-75.8339 162.904,-84.4628 166.943,-78.7458"/>
</g>
<!-- Node19&#45;&gt;Node15 -->
<g id="edge26" class="edge"><title>Node19&#45;&gt;Node15</title>
<path fill="none" stroke="midnightblue" d="M166.733,-75.6545C181.525,-83.9132 201.687,-96.5169 216.007,-106.342"/>
<polygon fill="midnightblue" stroke="midnightblue" points="214.274,-109.403 224.458,-112.324 218.318,-103.69 214.274,-109.403"/>
</g>
<!-- Node19&#45;&gt;Node16 -->
<g id="edge27" class="edge"><title>Node19&#45;&gt;Node16</title>
<path fill="none" stroke="midnightblue" d="M161.014,-56.324C173.532,-47.979 192.682,-35.2122 207.471,-25.3524"/>
<polygon fill="midnightblue" stroke="midnightblue" points="209.639,-28.1137 216.018,-19.6545 205.756,-22.2894 209.639,-28.1137"/>
</g>
<!-- Node20 -->
<g id="node20" class="node"><title>Node20</title>
<polygon fill="white" stroke="#bfbfbf" points="125.5,-0.5 125.5,-19.5 178.5,-19.5 178.5,-0.5 125.5,-0.5"/>
<text text-anchor="middle" x="152" y="-7.5" font-family="Helvetica,sans-Serif" font-size="10.00">sstream</text>
</g>
<!-- Node19&#45;&gt;Node20 -->
<g id="edge28" class="edge"><title>Node19&#45;&gt;Node20</title>
<path fill="none" stroke="midnightblue" d="M148.661,-56.083C149.185,-49.0059 149.936,-38.8611 150.594,-29.9865"/>
<polygon fill="midnightblue" stroke="midnightblue" points="154.103,-29.9823 151.352,-19.7511 147.123,-29.4652 154.103,-29.9823"/>
</g>
<!-- Node21 -->
<g id="node21" class="node"><title>Node21</title>
<polygon fill="white" stroke="#bfbfbf" points="69,-0.5 69,-19.5 107,-19.5 107,-0.5 69,-0.5"/>
<text text-anchor="middle" x="88" y="-7.5" font-family="Helvetica,sans-Serif" font-size="10.00">utility</text>
</g>
<!-- Node19&#45;&gt;Node21 -->
<g id="edge29" class="edge"><title>Node19&#45;&gt;Node21</title>
<path fill="none" stroke="midnightblue" d="M138.36,-56.324C129.49,-48.3414 116.125,-36.3128 105.392,-26.6529"/>
<polygon fill="midnightblue" stroke="midnightblue" points="107.59,-23.922 97.8154,-19.8339 102.907,-29.1251 107.59,-23.922"/>
</g>
<!-- Node23&#45;&gt;Node3 -->
<g id="edge32" class="edge"><title>Node23&#45;&gt;Node3</title>
<path fill="none" stroke="midnightblue" d="M825.911,-358.389C842.733,-350.87 865.615,-338.563 881,-322 915.697,-284.648 936.733,-226.892 945.782,-197.52"/>
<polygon fill="midnightblue" stroke="midnightblue" points="949.19,-198.336 948.667,-187.754 942.477,-196.353 949.19,-198.336"/>
</g>
<!-- Node23&#45;&gt;Node4 -->
<g id="edge33" class="edge"><title>Node23&#45;&gt;Node4</title>
<path fill="none" stroke="midnightblue" d="M775.628,-358.495C758.248,-351.653 737.404,-340.13 727,-322 715.231,-301.491 727.614,-274.708 738.515,-257.551"/>
<polygon fill="midnightblue" stroke="midnightblue" points="741.525,-259.348 744.256,-249.111 735.737,-255.411 741.525,-259.348"/>
</g>
<!-- Node23&#45;&gt;Node5 -->
<g id="edge36" class="edge"><title>Node23&#45;&gt;Node5</title>
<path fill="none" stroke="midnightblue" d="M765.889,-358.475C718.483,-347.871 637.516,-329.76 585.944,-318.224"/>
<polygon fill="midnightblue" stroke="midnightblue" points="586.564,-314.776 576.041,-316.009 585.035,-321.608 586.564,-314.776"/>
</g>
<!-- Node23&#45;&gt;Node10 -->
<g id="edge35" class="edge"><title>Node23&#45;&gt;Node10</title>
<path fill="none" stroke="midnightblue" d="M780.79,-358.431C762.523,-350.864 737.198,-338.472 719,-322 677.885,-284.784 646.352,-226.126 632.191,-196.854"/>
<polygon fill="midnightblue" stroke="midnightblue" points="635.355,-195.357 627.919,-187.809 629.025,-198.346 635.355,-195.357"/>
</g>
<!-- Node24 -->
<g id="node24" class="node"><title>Node24</title>
<polygon fill="white" stroke="#bfbfbf" points="928.5,-297 928.5,-316 1003.5,-316 1003.5,-297 928.5,-297"/>
<text text-anchor="middle" x="966" y="-304" font-family="Helvetica,sans-Serif" font-size="10.00">Eigen/Dense</text>
</g>
<!-- Node23&#45;&gt;Node24 -->
<g id="edge34" class="edge"><title>Node23&#45;&gt;Node24</title>
<path fill="none" stroke="midnightblue" d="M827.211,-358.475C854.999,-348.269 901.723,-331.108 933.194,-319.549"/>
<polygon fill="midnightblue" stroke="midnightblue" points="934.652,-322.742 942.832,-316.009 932.239,-316.171 934.652,-322.742"/>
</g>
<!-- Node23&#45;&gt;Node25 -->
<g id="edge37" class="edge"><title>Node23&#45;&gt;Node25</title>
<path fill="none" stroke="midnightblue" d="M852.427,-358.475C913.418,-347.739 1018.13,-329.306 1083.52,-317.795"/>
<polygon fill="midnightblue" stroke="midnightblue" points="1084.42,-321.19 1093.66,-316.009 1083.21,-314.296 1084.42,-321.19"/>
</g>
<!-- Node30 -->
<g id="node30" class="node"><title>Node30</title>
<g id="a_node30"><a xlink:href="../../de/da5/quadrature_2interface__impl_8hpp.html" target="_top" xlink:title="pfasst/quadrature/interface\l_impl.hpp">
<polygon fill="white" stroke="black" points="736,-291.5 736,-321.5 872,-321.5 872,-291.5 736,-291.5"/>
<text text-anchor="start" x="744" y="-309.5" font-family="Helvetica,sans-Serif" font-size="10.00">pfasst/quadrature/interface</text>
<text text-anchor="middle" x="804" y="-298.5" font-family="Helvetica,sans-Serif" font-size="10.00">_impl.hpp</text>
</a>
</g>
</g>
<!-- Node23&#45;&gt;Node30 -->
<g id="edge45" class="edge"><title>Node23&#45;&gt;Node30</title>
<path fill="none" stroke="midnightblue" d="M799.099,-358.475C797.572,-351.471 796.991,-341.192 797.356,-331.696"/>
<polygon fill="midnightblue" stroke="midnightblue" points="800.861,-331.77 798.17,-321.523 793.883,-331.212 800.861,-331.77"/>
</g>
<!-- Node25&#45;&gt;Node4 -->
<g id="edge38" class="edge"><title>Node25&#45;&gt;Node4</title>
<path fill="none" stroke="midnightblue" d="M1090.48,-296.936C1008.6,-283.323 851.09,-257.139 783.313,-245.872"/>
<polygon fill="midnightblue" stroke="midnightblue" points="783.669,-242.383 773.231,-244.196 782.521,-249.288 783.669,-242.383"/>
</g>
<!-- Node26 -->
<g id="node26" class="node"><title>Node26</title>
<g id="a_node26"><a xlink:href="../../dc/de8/polynomial__impl_8hpp.html" target="_top" xlink:title="pfasst/quadrature/polynomial\l_impl.hpp">
<polygon fill="white" stroke="black" points="1069,-224.5 1069,-254.5 1215,-254.5 1215,-224.5 1069,-224.5"/>
<text text-anchor="start" x="1077" y="-242.5" font-family="Helvetica,sans-Serif" font-size="10.00">pfasst/quadrature/polynomial</text>
<text text-anchor="middle" x="1142" y="-231.5" font-family="Helvetica,sans-Serif" font-size="10.00">_impl.hpp</text>
</a>
</g>
</g>
<!-- Node25&#45;&gt;Node26 -->
<g id="edge39" class="edge"><title>Node25&#45;&gt;Node26</title>
<path fill="none" stroke="midnightblue" d="M1137.21,-296.734C1135.49,-288.541 1134.9,-275.923 1135.45,-264.714"/>
<polygon fill="midnightblue" stroke="midnightblue" points="1138.95,-264.853 1136.32,-254.589 1131.98,-264.251 1138.95,-264.853"/>
</g>
<!-- Node26&#45;&gt;Node3 -->
<g id="edge42" class="edge"><title>Node26&#45;&gt;Node3</title>
<path fill="none" stroke="midnightblue" d="M1096.74,-224.399C1062.69,-213.794 1016.74,-199.48 985.607,-189.781"/>
<polygon fill="midnightblue" stroke="midnightblue" points="986.641,-186.437 976.053,-186.804 984.559,-193.12 986.641,-186.437"/>
</g>
<!-- Node26&#45;&gt;Node25 -->
<g id="edge40" class="edge"><title>Node26&#45;&gt;Node25</title>
<path fill="none" stroke="midnightblue" d="M1147.68,-254.589C1148.91,-264.001 1149.08,-276.487 1148.18,-286.739"/>
<polygon fill="midnightblue" stroke="midnightblue" points="1144.7,-286.346 1146.79,-296.734 1151.64,-287.313 1144.7,-286.346"/>
</g>
<!-- Node27 -->
<g id="node27" class="node"><title>Node27</title>
<polygon fill="white" stroke="#bfbfbf" points="1044,-168.5 1044,-187.5 1102,-187.5 1102,-168.5 1044,-168.5"/>
<text text-anchor="middle" x="1073" y="-175.5" font-family="Helvetica,sans-Serif" font-size="10.00">algorithm</text>
</g>
<!-- Node26&#45;&gt;Node27 -->
<g id="edge41" class="edge"><title>Node26&#45;&gt;Node27</title>
<path fill="none" stroke="midnightblue" d="M1125.65,-224.399C1115.1,-215.308 1101.4,-203.49 1090.62,-194.191"/>
<polygon fill="midnightblue" stroke="midnightblue" points="1092.9,-191.538 1083.04,-187.658 1088.33,-196.839 1092.9,-191.538"/>
</g>
<!-- Node28 -->
<g id="node28" class="node"><title>Node28</title>
<polygon fill="white" stroke="#bfbfbf" points="1120,-168.5 1120,-187.5 1164,-187.5 1164,-168.5 1120,-168.5"/>
<text text-anchor="middle" x="1142" y="-175.5" font-family="Helvetica,sans-Serif" font-size="10.00">cmath</text>
</g>
<!-- Node26&#45;&gt;Node28 -->
<g id="edge43" class="edge"><title>Node26&#45;&gt;Node28</title>
<path fill="none" stroke="midnightblue" d="M1142,-224.399C1142,-216.466 1142,-206.458 1142,-197.858"/>
<polygon fill="midnightblue" stroke="midnightblue" points="1145.5,-197.658 1142,-187.658 1138.5,-197.658 1145.5,-197.658"/>
</g>
<!-- Node29 -->
<g id="node29" class="node"><title>Node29</title>
<polygon fill="white" stroke="#bfbfbf" points="1182.5,-168.5 1182.5,-187.5 1237.5,-187.5 1237.5,-168.5 1182.5,-168.5"/>
<text text-anchor="middle" x="1210" y="-175.5" font-family="Helvetica,sans-Serif" font-size="10.00">complex</text>
</g>
<!-- Node26&#45;&gt;Node29 -->
<g id="edge44" class="edge"><title>Node26&#45;&gt;Node29</title>
<path fill="none" stroke="midnightblue" d="M1158.12,-224.399C1168.4,-215.397 1181.75,-203.721 1192.33,-194.465"/>
<polygon fill="midnightblue" stroke="midnightblue" points="1194.88,-196.877 1200.11,-187.658 1190.27,-191.609 1194.88,-196.877"/>
</g>
<!-- Node30&#45;&gt;Node23 -->
<g id="edge46" class="edge"><title>Node30&#45;&gt;Node23</title>
<path fill="none" stroke="midnightblue" d="M809.83,-321.523C810.873,-329.586 811.029,-339.813 810.299,-348.526"/>
<polygon fill="midnightblue" stroke="midnightblue" points="806.827,-348.085 808.901,-358.475 813.759,-349.06 806.827,-348.085"/>
</g>
</g>
</svg>
