<?xml version="1.0" encoding="UTF-8" standalone="no"?>
<!DOCTYPE svg PUBLIC "-//W3C//DTD SVG 1.1//EN"
 "http://www.w3.org/Graphics/SVG/1.1/DTD/svg11.dtd">
<!-- Generated by graphviz version 2.38.0 (20140413.2041)
 -->
<!-- Title: pfasst::examples::boris::ParticleError&lt; scalar &gt; Pages: 1 -->
<svg width="131pt" height="226pt"
 viewBox="0.00 0.00 131.00 226.00" xmlns="http://www.w3.org/2000/svg" xmlns:xlink="http://www.w3.org/1999/xlink">
<g id="graph0" class="graph" transform="scale(1 1) rotate(0) translate(4 222)">
<title>pfasst::examples::boris::ParticleError&lt; scalar &gt;</title>
<polygon fill="white" stroke="none" points="-4,4 -4,-222 127,-222 127,4 -4,4"/>
<!-- Node1 -->
<g id="node1" class="node"><title>Node1</title>
<polygon fill="#bfbfbf" stroke="black" points="0,-0.5 0,-123.5 123,-123.5 123,-0.5 0,-0.5"/>
<text text-anchor="start" x="8" y="-111.5" font-family="Helvetica,sans-Serif" font-size="10.00">pfasst::examples::boris</text>
<text text-anchor="middle" x="61.5" y="-100.5" font-family="Helvetica,sans-Serif" font-size="10.00">::ParticleError&lt; scalar &gt;</text>
<polyline fill="none" stroke="black" points="0,-93.5 123,-93.5 "/>
<text text-anchor="start" x="8" y="-81.5" font-family="Helvetica,sans-Serif" font-size="10.00">+ x</text>
<text text-anchor="start" x="8" y="-70.5" font-family="Helvetica,sans-Serif" font-size="10.00">+ y</text>
<text text-anchor="start" x="8" y="-59.5" font-family="Helvetica,sans-Serif" font-size="10.00">+ z</text>
<text text-anchor="start" x="8" y="-48.5" font-family="Helvetica,sans-Serif" font-size="10.00">+ u</text>
<text text-anchor="start" x="8" y="-37.5" font-family="Helvetica,sans-Serif" font-size="10.00">+ v</text>
<text text-anchor="start" x="8" y="-26.5" font-family="Helvetica,sans-Serif" font-size="10.00">+ w</text>
<polyline fill="none" stroke="black" points="0,-19.5 123,-19.5 "/>
<text text-anchor="start" x="8" y="-7.5" font-family="Helvetica,sans-Serif" font-size="10.00">+ log()</text>
</g>
<!-- Node2 -->
<g id="node2" class="node"><title>Node2</title>
<polygon fill="white" stroke="#bfbfbf" points="24.5,-160.5 24.5,-217.5 98.5,-217.5 98.5,-160.5 24.5,-160.5"/>
<text text-anchor="middle" x="61.5" y="-205.5" font-family="Helvetica,sans-Serif" font-size="10.00">el::Loggable</text>
<polyline fill="none" stroke="#bfbfbf" points="24.5,-198.5 98.5,-198.5 "/>
<text text-anchor="middle" x="61.5" y="-186.5" font-family="Helvetica,sans-Serif" font-size="10.00"> </text>
<polyline fill="none" stroke="#bfbfbf" points="24.5,-179.5 98.5,-179.5 "/>
<text text-anchor="middle" x="61.5" y="-167.5" font-family="Helvetica,sans-Serif" font-size="10.00"> </text>
</g>
<!-- Node2&#45;&gt;Node1 -->
<g id="edge1" class="edge"><title>Node2&#45;&gt;Node1</title>
<path fill="none" stroke="midnightblue" d="M61.5,-150.099C61.5,-141.739 61.5,-132.68 61.5,-123.672"/>
<polygon fill="none" stroke="midnightblue" points="58.0001,-150.258 61.5,-160.258 65.0001,-150.258 58.0001,-150.258"/>
</g>
</g>
</svg>
