<?xml version="1.0" encoding="UTF-8" standalone="no"?>
<!DOCTYPE svg PUBLIC "-//W3C//DTD SVG 1.1//EN"
 "http://www.w3.org/Graphics/SVG/1.1/DTD/svg11.dtd">
<!-- Generated by graphviz version 2.38.0 (20140413.2041)
 -->
<!-- Title: examples/boris/particle_cloud.hpp Pages: 1 -->
<svg width="1494pt" height="498pt"
 viewBox="0.00 0.00 1493.50 498.00" xmlns="http://www.w3.org/2000/svg" xmlns:xlink="http://www.w3.org/1999/xlink">
<g id="graph0" class="graph" transform="scale(1 1) rotate(0) translate(4 494)">
<title>examples/boris/particle_cloud.hpp</title>
<polygon fill="white" stroke="none" points="-4,4 -4,-494 1489.5,-494 1489.5,4 -4,4"/>
<!-- Node1 -->
<g id="node1" class="node"><title>Node1</title>
<polygon fill="#bfbfbf" stroke="black" points="579.5,-459.5 579.5,-489.5 700.5,-489.5 700.5,-459.5 579.5,-459.5"/>
<text text-anchor="start" x="587.5" y="-477.5" font-family="Helvetica,sans-Serif" font-size="10.00">examples/boris/particle</text>
<text text-anchor="middle" x="640" y="-466.5" font-family="Helvetica,sans-Serif" font-size="10.00">_cloud.hpp</text>
</g>
<!-- Node2 -->
<g id="node2" class="node"><title>Node2</title>
<polygon fill="white" stroke="#bfbfbf" points="325.5,-168.5 325.5,-187.5 378.5,-187.5 378.5,-168.5 325.5,-168.5"/>
<text text-anchor="middle" x="352" y="-175.5" font-family="Helvetica,sans-Serif" font-size="10.00">memory</text>
</g>
<!-- Node1&#45;&gt;Node2 -->
<g id="edge1" class="edge"><title>Node1&#45;&gt;Node2</title>
<path fill="none" stroke="midnightblue" d="M579.213,-468.894C419.459,-455.979 0,-416.499 0,-358 0,-358 0,-358 0,-294.5 0,-252.774 25.4158,-244.067 62,-224 104.933,-200.451 246.887,-186.896 314.959,-181.603"/>
<polygon fill="midnightblue" stroke="midnightblue" points="315.517,-185.071 325.223,-180.824 314.987,-178.091 315.517,-185.071"/>
</g>
<!-- Node3 -->
<g id="node3" class="node"><title>Node3</title>
<polygon fill="white" stroke="#bfbfbf" points="494,-224.5 494,-243.5 538,-243.5 538,-224.5 494,-224.5"/>
<text text-anchor="middle" x="516" y="-231.5" font-family="Helvetica,sans-Serif" font-size="10.00">vector</text>
</g>
<!-- Node1&#45;&gt;Node3 -->
<g id="edge2" class="edge"><title>Node1&#45;&gt;Node3</title>
<path fill="none" stroke="midnightblue" d="M622.156,-459.459C599.305,-440.634 559.82,-405.14 536,-367 522,-344.584 520.511,-337.041 516,-311 512.662,-291.73 513.189,-269.298 514.225,-253.824"/>
<polygon fill="midnightblue" stroke="midnightblue" points="517.741,-253.766 515.06,-243.516 510.764,-253.2 517.741,-253.766"/>
</g>
<!-- Node4 -->
<g id="node4" class="node"><title>Node4</title>
<g id="a_node4"><a xlink:href="../../d0/da9/logging_8hpp.html" target="_top" xlink:title="pfasst/logging.hpp">
<polygon fill="white" stroke="black" points="1006,-168.5 1006,-187.5 1104,-187.5 1104,-168.5 1006,-168.5"/>
<text text-anchor="middle" x="1055" y="-175.5" font-family="Helvetica,sans-Serif" font-size="10.00">pfasst/logging.hpp</text>
</a>
</g>
</g>
<!-- Node1&#45;&gt;Node4 -->
<g id="edge3" class="edge"><title>Node1&#45;&gt;Node4</title>
<path fill="none" stroke="midnightblue" d="M700.683,-468.619C857.491,-455.196 1264,-414.911 1264,-358 1264,-358 1264,-358 1264,-294.5 1264,-225.58 1175.86,-197.465 1114.06,-186.222"/>
<polygon fill="midnightblue" stroke="midnightblue" points="1114.45,-182.738 1104,-184.497 1113.27,-189.637 1114.45,-182.738"/>
</g>
<!-- Node17 -->
<g id="node17" class="node"><title>Node17</title>
<g id="a_node17"><a xlink:href="../../d8/d85/encapsulation_8hpp.html" target="_top" xlink:title="pfasst/encap/encapsulation.hpp">
<polygon fill="white" stroke="black" points="275.5,-347.5 275.5,-366.5 432.5,-366.5 432.5,-347.5 275.5,-347.5"/>
<text text-anchor="middle" x="354" y="-354.5" font-family="Helvetica,sans-Serif" font-size="10.00">pfasst/encap/encapsulation.hpp</text>
</a>
</g>
</g>
<!-- Node1&#45;&gt;Node17 -->
<g id="edge20" class="edge"><title>Node1&#45;&gt;Node17</title>
<path fill="none" stroke="midnightblue" d="M585.16,-459.442C552.851,-450.465 511.485,-437.757 476,-423 440.005,-408.03 400.57,-385.888 376.553,-371.702"/>
<polygon fill="midnightblue" stroke="midnightblue" points="378.228,-368.626 367.847,-366.509 374.642,-374.638 378.228,-368.626"/>
</g>
<!-- Node25 -->
<g id="node25" class="node"><title>Node25</title>
<g id="a_node25"><a xlink:href="../../d4/dec/particle_8hpp.html" target="_top" xlink:title="particle.hpp">
<polygon fill="white" stroke="black" points="606.5,-403.5 606.5,-422.5 673.5,-422.5 673.5,-403.5 606.5,-403.5"/>
<text text-anchor="middle" x="640" y="-410.5" font-family="Helvetica,sans-Serif" font-size="10.00">particle.hpp</text>
</a>
</g>
</g>
<!-- Node1&#45;&gt;Node25 -->
<g id="edge38" class="edge"><title>Node1&#45;&gt;Node25</title>
<path fill="none" stroke="midnightblue" d="M640,-459.399C640,-451.466 640,-441.458 640,-432.858"/>
<polygon fill="midnightblue" stroke="midnightblue" points="643.5,-432.658 640,-422.658 636.5,-432.658 643.5,-432.658"/>
</g>
<!-- Node33 -->
<g id="node33" class="node"><title>Node33</title>
<g id="a_node33"><a xlink:href="../../d6/d1f/particle__cloud__impl_8hpp.html" target="_top" xlink:title="particle_cloud_impl.hpp">
<polygon fill="white" stroke="black" points="861,-347.5 861,-366.5 981,-366.5 981,-347.5 861,-347.5"/>
<text text-anchor="middle" x="921" y="-354.5" font-family="Helvetica,sans-Serif" font-size="10.00">particle_cloud_impl.hpp</text>
</a>
</g>
</g>
<!-- Node1&#45;&gt;Node33 -->
<g id="edge58" class="edge"><title>Node1&#45;&gt;Node33</title>
<path fill="none" stroke="midnightblue" d="M669.576,-459.453C722.231,-436.597 831.431,-391.748 887.054,-370.168"/>
<polygon fill="midnightblue" stroke="midnightblue" points="888.396,-373.402 896.47,-366.542 885.88,-366.869 888.396,-373.402"/>
</g>
<!-- Node5 -->
<g id="node5" class="node"><title>Node5</title>
<polygon fill="white" stroke="#bfbfbf" points="579,-112.5 579,-131.5 631,-131.5 631,-112.5 579,-112.5"/>
<text text-anchor="middle" x="605" y="-119.5" font-family="Helvetica,sans-Serif" font-size="10.00">iomanip</text>
</g>
<!-- Node4&#45;&gt;Node5 -->
<g id="edge4" class="edge"><title>Node4&#45;&gt;Node5</title>
<path fill="none" stroke="midnightblue" d="M1005.76,-169.351C1002.46,-168.881 999.184,-168.426 996,-168 865.818,-150.586 710.695,-133.953 641.478,-126.745"/>
<polygon fill="midnightblue" stroke="midnightblue" points="641.431,-123.222 631.123,-125.671 640.708,-130.184 641.431,-123.222"/>
</g>
<!-- Node6 -->
<g id="node6" class="node"><title>Node6</title>
<polygon fill="white" stroke="#bfbfbf" points="1022,-56.5 1022,-75.5 1078,-75.5 1078,-56.5 1022,-56.5"/>
<text text-anchor="middle" x="1050" y="-63.5" font-family="Helvetica,sans-Serif" font-size="10.00">iostream</text>
</g>
<!-- Node4&#45;&gt;Node6 -->
<g id="edge5" class="edge"><title>Node4&#45;&gt;Node6</title>
<path fill="none" stroke="midnightblue" d="M1060.91,-168.24C1068.54,-155.822 1080.27,-132.344 1075,-112 1072.45,-102.175 1067.25,-92.2118 1062.24,-84.166"/>
<polygon fill="midnightblue" stroke="midnightblue" points="1065.08,-82.1143 1056.63,-75.7252 1059.25,-85.9903 1065.08,-82.1143"/>
</g>
<!-- Node7 -->
<g id="node7" class="node"><title>Node7</title>
<polygon fill="white" stroke="#bfbfbf" points="745.5,-56.5 745.5,-75.5 786.5,-75.5 786.5,-56.5 745.5,-56.5"/>
<text text-anchor="middle" x="766" y="-63.5" font-family="Helvetica,sans-Serif" font-size="10.00">string</text>
</g>
<!-- Node4&#45;&gt;Node7 -->
<g id="edge6" class="edge"><title>Node4&#45;&gt;Node7</title>
<path fill="none" stroke="midnightblue" d="M1005.79,-169.473C929.036,-157.642 789.121,-135.657 785,-132 771.966,-120.434 767.655,-100.472 766.336,-85.7131"/>
<polygon fill="midnightblue" stroke="midnightblue" points="769.829,-85.4719 765.816,-75.6664 762.838,-85.8341 769.829,-85.4719"/>
</g>
<!-- Node8 -->
<g id="node8" class="node"><title>Node8</title>
<polygon fill="white" stroke="#bfbfbf" points="794.5,-112.5 794.5,-131.5 925.5,-131.5 925.5,-112.5 794.5,-112.5"/>
<text text-anchor="middle" x="860" y="-119.5" font-family="Helvetica,sans-Serif" font-size="10.00">boost/algorithm/string.hpp</text>
</g>
<!-- Node4&#45;&gt;Node8 -->
<g id="edge7" class="edge"><title>Node4&#45;&gt;Node8</title>
<path fill="none" stroke="midnightblue" d="M1024.1,-168.444C990.726,-159.201 937.406,-144.436 900.651,-134.257"/>
<polygon fill="midnightblue" stroke="midnightblue" points="901.325,-130.812 890.754,-131.516 899.457,-137.558 901.325,-130.812"/>
</g>
<!-- Node9 -->
<g id="node9" class="node"><title>Node9</title>
<g id="a_node9"><a xlink:href="../../d8/dfd/config_8hpp.html" target="_top" xlink:title="pfasst/config.hpp">
<polygon fill="white" stroke="black" points="1173.5,-112.5 1173.5,-131.5 1264.5,-131.5 1264.5,-112.5 1173.5,-112.5"/>
<text text-anchor="middle" x="1219" y="-119.5" font-family="Helvetica,sans-Serif" font-size="10.00">pfasst/config.hpp</text>
</a>
</g>
</g>
<!-- Node4&#45;&gt;Node9 -->
<g id="edge8" class="edge"><title>Node4&#45;&gt;Node9</title>
<path fill="none" stroke="midnightblue" d="M1080.99,-168.444C1108.7,-159.32 1152.75,-144.813 1183.62,-134.651"/>
<polygon fill="midnightblue" stroke="midnightblue" points="1184.73,-137.968 1193.14,-131.516 1182.54,-131.32 1184.73,-137.968"/>
</g>
<!-- Node16 -->
<g id="node16" class="node"><title>Node16</title>
<polygon fill="white" stroke="#bfbfbf" points="944,-112.5 944,-131.5 1066,-131.5 1066,-112.5 944,-112.5"/>
<text text-anchor="middle" x="1005" y="-119.5" font-family="Helvetica,sans-Serif" font-size="10.00">pfasst/easylogging++.h</text>
</g>
<!-- Node4&#45;&gt;Node16 -->
<g id="edge19" class="edge"><title>Node4&#45;&gt;Node16</title>
<path fill="none" stroke="midnightblue" d="M1046.74,-168.083C1039.54,-160.298 1028.89,-148.801 1020.15,-139.367"/>
<polygon fill="midnightblue" stroke="midnightblue" points="1022.47,-136.711 1013.1,-131.751 1017.33,-141.467 1022.47,-136.711"/>
</g>
<!-- Node9&#45;&gt;Node6 -->
<g id="edge10" class="edge"><title>Node9&#45;&gt;Node6</title>
<path fill="none" stroke="midnightblue" d="M1192.22,-112.444C1163.67,-103.32 1118.27,-88.8133 1086.46,-78.6509"/>
<polygon fill="midnightblue" stroke="midnightblue" points="1087.24,-75.2262 1076.65,-75.5164 1085.11,-81.8941 1087.24,-75.2262"/>
</g>
<!-- Node9&#45;&gt;Node7 -->
<g id="edge11" class="edge"><title>Node9&#45;&gt;Node7</title>
<path fill="none" stroke="midnightblue" d="M1173.44,-115.349C1164.35,-114.231 1154.87,-113.072 1146,-112 1016.32,-96.3276 861.674,-78.1834 796.914,-70.61"/>
<polygon fill="midnightblue" stroke="midnightblue" points="796.939,-67.0891 786.6,-69.4043 796.126,-74.0417 796.939,-67.0891"/>
</g>
<!-- Node10 -->
<g id="node10" class="node"><title>Node10</title>
<polygon fill="white" stroke="#bfbfbf" points="1302,-0.5 1302,-19.5 1352,-19.5 1352,-0.5 1302,-0.5"/>
<text text-anchor="middle" x="1327" y="-7.5" font-family="Helvetica,sans-Serif" font-size="10.00">fstream</text>
</g>
<!-- Node9&#45;&gt;Node10 -->
<g id="edge9" class="edge"><title>Node9&#45;&gt;Node10</title>
<path fill="none" stroke="midnightblue" d="M1240.96,-112.432C1257.81,-104.937 1280.7,-92.6409 1296,-76 1308.41,-62.5056 1316.77,-43.1461 1321.65,-29.0668"/>
<polygon fill="midnightblue" stroke="midnightblue" points="1325,-30.1053 1324.72,-19.5141 1318.33,-27.9673 1325,-30.1053"/>
</g>
<!-- Node11 -->
<g id="node11" class="node"><title>Node11</title>
<polygon fill="white" stroke="#bfbfbf" points="1096,-56.5 1096,-75.5 1132,-75.5 1132,-56.5 1096,-56.5"/>
<text text-anchor="middle" x="1114" y="-63.5" font-family="Helvetica,sans-Serif" font-size="10.00">map</text>
</g>
<!-- Node9&#45;&gt;Node11 -->
<g id="edge12" class="edge"><title>Node9&#45;&gt;Node11</title>
<path fill="none" stroke="midnightblue" d="M1202.13,-112.324C1185.29,-103.664 1159.19,-90.2424 1139.76,-80.249"/>
<polygon fill="midnightblue" stroke="midnightblue" points="1141.32,-77.1155 1130.83,-75.6545 1138.12,-83.3405 1141.32,-77.1155"/>
</g>
<!-- Node12 -->
<g id="node12" class="node"><title>Node12</title>
<polygon fill="white" stroke="#bfbfbf" points="1150.5,-56.5 1150.5,-75.5 1287.5,-75.5 1287.5,-56.5 1150.5,-56.5"/>
<text text-anchor="middle" x="1219" y="-63.5" font-family="Helvetica,sans-Serif" font-size="10.00">boost/program_options.hpp</text>
</g>
<!-- Node9&#45;&gt;Node12 -->
<g id="edge13" class="edge"><title>Node9&#45;&gt;Node12</title>
<path fill="none" stroke="midnightblue" d="M1219,-112.083C1219,-105.006 1219,-94.8611 1219,-85.9865"/>
<polygon fill="midnightblue" stroke="midnightblue" points="1222.5,-85.751 1219,-75.7511 1215.5,-85.7511 1222.5,-85.751"/>
</g>
<!-- Node13 -->
<g id="node13" class="node"><title>Node13</title>
<g id="a_node13"><a xlink:href="../../d5/d84/config__impl_8hpp.html" target="_top" xlink:title="pfasst/config_impl.hpp">
<polygon fill="white" stroke="black" points="1344,-56.5 1344,-75.5 1458,-75.5 1458,-56.5 1344,-56.5"/>
<text text-anchor="middle" x="1401" y="-63.5" font-family="Helvetica,sans-Serif" font-size="10.00">pfasst/config_impl.hpp</text>
</a>
</g>
</g>
<!-- Node9&#45;&gt;Node13 -->
<g id="edge14" class="edge"><title>Node9&#45;&gt;Node13</title>
<path fill="none" stroke="midnightblue" d="M1242.75,-112.444C1271.87,-103.201 1321.47,-88.4356 1357.45,-78.2572"/>
<polygon fill="midnightblue" stroke="midnightblue" points="1358.53,-81.5894 1367.22,-75.5164 1356.64,-74.85 1358.53,-81.5894"/>
</g>
<!-- Node13&#45;&gt;Node9 -->
<g id="edge15" class="edge"><title>Node13&#45;&gt;Node9</title>
<path fill="none" stroke="midnightblue" d="M1377.38,-75.5164C1348.31,-84.7429 1298.73,-99.507 1262.7,-109.699"/>
<polygon fill="midnightblue" stroke="midnightblue" points="1261.61,-106.37 1252.93,-112.444 1263.5,-113.109 1261.61,-106.37"/>
</g>
<!-- Node13&#45;&gt;Node10 -->
<g id="edge16" class="edge"><title>Node13&#45;&gt;Node10</title>
<path fill="none" stroke="midnightblue" d="M1389.11,-56.324C1377.85,-48.1066 1360.71,-35.6017 1347.29,-25.8069"/>
<polygon fill="midnightblue" stroke="midnightblue" points="1349.25,-22.9014 1339.11,-19.8339 1345.12,-28.5559 1349.25,-22.9014"/>
</g>
<!-- Node14 -->
<g id="node14" class="node"><title>Node14</title>
<polygon fill="white" stroke="#bfbfbf" points="1432.5,-0.5 1432.5,-19.5 1485.5,-19.5 1485.5,-0.5 1432.5,-0.5"/>
<text text-anchor="middle" x="1459" y="-7.5" font-family="Helvetica,sans-Serif" font-size="10.00">sstream</text>
</g>
<!-- Node13&#45;&gt;Node14 -->
<g id="edge17" class="edge"><title>Node13&#45;&gt;Node14</title>
<path fill="none" stroke="midnightblue" d="M1410.32,-56.324C1418.89,-48.3414 1431.81,-36.3128 1442.19,-26.6529"/>
<polygon fill="midnightblue" stroke="midnightblue" points="1444.58,-29.2098 1449.51,-19.8339 1439.81,-24.0865 1444.58,-29.2098"/>
</g>
<!-- Node15 -->
<g id="node15" class="node"><title>Node15</title>
<polygon fill="white" stroke="#bfbfbf" points="1376,-0.5 1376,-19.5 1414,-19.5 1414,-0.5 1376,-0.5"/>
<text text-anchor="middle" x="1395" y="-7.5" font-family="Helvetica,sans-Serif" font-size="10.00">utility</text>
</g>
<!-- Node13&#45;&gt;Node15 -->
<g id="edge18" class="edge"><title>Node13&#45;&gt;Node15</title>
<path fill="none" stroke="midnightblue" d="M1400.01,-56.083C1399.21,-48.9272 1398.07,-38.6353 1397.08,-29.6911"/>
<polygon fill="midnightblue" stroke="midnightblue" points="1400.56,-29.3034 1395.97,-19.7511 1393.6,-30.0765 1400.56,-29.3034"/>
</g>
<!-- Node17&#45;&gt;Node2 -->
<g id="edge21" class="edge"><title>Node17&#45;&gt;Node2</title>
<path fill="none" stroke="midnightblue" d="M275.14,-355.234C196.85,-352.6 84.6268,-343.128 57,-311 -18.7224,-222.94 220.867,-190.986 315.378,-181.979"/>
<polygon fill="midnightblue" stroke="midnightblue" points="315.733,-185.461 325.371,-181.061 315.093,-178.491 315.733,-185.461"/>
</g>
<!-- Node17&#45;&gt;Node3 -->
<g id="edge22" class="edge"><title>Node17&#45;&gt;Node3</title>
<path fill="none" stroke="midnightblue" d="M371.071,-347.498C387.316,-339.1 412.158,-325.448 432,-311 457.686,-292.297 484.407,-266.931 500.627,-250.761"/>
<polygon fill="midnightblue" stroke="midnightblue" points="503.14,-253.197 507.695,-243.632 498.169,-248.269 503.14,-253.197"/>
</g>
<!-- Node18 -->
<g id="node18" class="node"><title>Node18</title>
<polygon fill="white" stroke="#bfbfbf" points="66.5,-286 66.5,-305 141.5,-305 141.5,-286 66.5,-286"/>
<text text-anchor="middle" x="104" y="-293" font-family="Helvetica,sans-Serif" font-size="10.00">Eigen/Dense</text>
</g>
<!-- Node17&#45;&gt;Node18 -->
<g id="edge23" class="edge"><title>Node17&#45;&gt;Node18</title>
<path fill="none" stroke="midnightblue" d="M309.956,-347.454C268.455,-339.126 204.659,-325.613 150,-311 146.58,-310.086 143.034,-309.078 139.499,-308.032"/>
<polygon fill="midnightblue" stroke="midnightblue" points="140.258,-304.604 129.671,-305.032 138.214,-311.299 140.258,-304.604"/>
</g>
<!-- Node19 -->
<g id="node19" class="node"><title>Node19</title>
<g id="a_node19"><a xlink:href="../../d1/d1b/interfaces_8hpp.html" target="_top" xlink:title="interfaces for SDC/MLSDC/PFASST algorithms. ">
<polygon fill="white" stroke="black" points="159.5,-286 159.5,-305 266.5,-305 266.5,-286 159.5,-286"/>
<text text-anchor="middle" x="213" y="-293" font-family="Helvetica,sans-Serif" font-size="10.00">pfasst/interfaces.hpp</text>
</a>
</g>
</g>
<!-- Node17&#45;&gt;Node19 -->
<g id="edge24" class="edge"><title>Node17&#45;&gt;Node19</title>
<path fill="none" stroke="midnightblue" d="M333.798,-347.475C309.926,-337.401 269.998,-320.553 242.627,-309.002"/>
<polygon fill="midnightblue" stroke="midnightblue" points="243.738,-305.672 233.164,-305.009 241.017,-312.122 243.738,-305.672"/>
</g>
<!-- Node24 -->
<g id="node24" class="node"><title>Node24</title>
<g id="a_node24"><a xlink:href="../../d1/d99/encapsulation__impl_8hpp.html" target="_top" xlink:title="pfasst/encap/encapsulation\l_impl.hpp">
<polygon fill="white" stroke="black" points="284.5,-280.5 284.5,-310.5 423.5,-310.5 423.5,-280.5 284.5,-280.5"/>
<text text-anchor="start" x="292.5" y="-298.5" font-family="Helvetica,sans-Serif" font-size="10.00">pfasst/encap/encapsulation</text>
<text text-anchor="middle" x="354" y="-287.5" font-family="Helvetica,sans-Serif" font-size="10.00">_impl.hpp</text>
</a>
</g>
</g>
<!-- Node17&#45;&gt;Node24 -->
<g id="edge35" class="edge"><title>Node17&#45;&gt;Node24</title>
<path fill="none" stroke="midnightblue" d="M349.099,-347.475C347.572,-340.471 346.991,-330.192 347.356,-320.696"/>
<polygon fill="midnightblue" stroke="midnightblue" points="350.861,-320.77 348.17,-310.523 343.883,-320.212 350.861,-320.77"/>
</g>
<!-- Node19&#45;&gt;Node2 -->
<g id="edge25" class="edge"><title>Node19&#45;&gt;Node2</title>
<path fill="none" stroke="midnightblue" d="M203.247,-285.555C189.038,-271.438 165.9,-243.588 181,-224 197.258,-202.91 270.012,-189.739 315.224,-183.438"/>
<polygon fill="midnightblue" stroke="midnightblue" points="315.803,-186.892 325.248,-182.091 314.871,-179.954 315.803,-186.892"/>
</g>
<!-- Node19&#45;&gt;Node7 -->
<g id="edge27" class="edge"><title>Node19&#45;&gt;Node7</title>
<path fill="none" stroke="midnightblue" d="M221.406,-285.788C230.835,-275.899 246.451,-259.169 259,-244 285.913,-211.467 281.023,-191.65 316,-168 451.568,-76.3347 657.504,-66.6586 735.032,-66.4829"/>
<polygon fill="midnightblue" stroke="midnightblue" points="735.088,-69.983 745.099,-66.5136 735.11,-62.983 735.088,-69.983"/>
</g>
<!-- Node20 -->
<g id="node20" class="node"><title>Node20</title>
<polygon fill="white" stroke="#bfbfbf" points="190,-224.5 190,-243.5 250,-243.5 250,-224.5 190,-224.5"/>
<text text-anchor="middle" x="220" y="-231.5" font-family="Helvetica,sans-Serif" font-size="10.00">stdexcept</text>
</g>
<!-- Node19&#45;&gt;Node20 -->
<g id="edge26" class="edge"><title>Node19&#45;&gt;Node20</title>
<path fill="none" stroke="midnightblue" d="M214.003,-285.975C214.991,-277.58 216.532,-264.481 217.804,-253.663"/>
<polygon fill="midnightblue" stroke="midnightblue" points="221.306,-253.85 218.999,-243.509 214.354,-253.032 221.306,-253.85"/>
</g>
<!-- Node21 -->
<g id="node21" class="node"><title>Node21</title>
<g id="a_node21"><a xlink:href="../../d8/dc4/interfaces__impl_8hpp.html" target="_top" xlink:title="pfasst/interfaces_impl.hpp">
<polygon fill="white" stroke="black" points="306.5,-224.5 306.5,-243.5 437.5,-243.5 437.5,-224.5 306.5,-224.5"/>
<text text-anchor="middle" x="372" y="-231.5" font-family="Helvetica,sans-Serif" font-size="10.00">pfasst/interfaces_impl.hpp</text>
</a>
</g>
</g>
<!-- Node19&#45;&gt;Node21 -->
<g id="edge28" class="edge"><title>Node19&#45;&gt;Node21</title>
<path fill="none" stroke="midnightblue" d="M230.88,-285.975C256.037,-275.725 301.966,-258.459 334.675,-246.899"/>
<polygon fill="midnightblue" stroke="midnightblue" points="336.081,-250.115 344.364,-243.509 333.769,-243.508 336.081,-250.115"/>
</g>
<!-- Node21&#45;&gt;Node2 -->
<g id="edge31" class="edge"><title>Node21&#45;&gt;Node2</title>
<path fill="none" stroke="midnightblue" d="M368.697,-224.083C366.018,-216.849 362.151,-206.409 358.814,-197.397"/>
<polygon fill="midnightblue" stroke="midnightblue" points="361.996,-195.913 355.241,-187.751 355.432,-198.344 361.996,-195.913"/>
</g>
<!-- Node21&#45;&gt;Node4 -->
<g id="edge34" class="edge"><title>Node21&#45;&gt;Node4</title>
<path fill="none" stroke="midnightblue" d="M437.72,-227.664C453.223,-226.433 469.693,-225.149 485,-224 708.71,-207.211 767.997,-213.01 995.524,-187.951"/>
<polygon fill="midnightblue" stroke="midnightblue" points="996.231,-191.394 1005.78,-186.813 995.459,-184.437 996.231,-191.394"/>
</g>
<!-- Node21&#45;&gt;Node7 -->
<g id="edge32" class="edge"><title>Node21&#45;&gt;Node7</title>
<path fill="none" stroke="midnightblue" d="M383.338,-224.219C412.562,-202.014 493.526,-143.178 570,-112 625.971,-89.1813 695.879,-76.6453 735.275,-70.9203"/>
<polygon fill="midnightblue" stroke="midnightblue" points="735.89,-74.3685 745.307,-69.5147 734.918,-67.4362 735.89,-74.3685"/>
</g>
<!-- Node21&#45;&gt;Node19 -->
<g id="edge29" class="edge"><title>Node21&#45;&gt;Node19</title>
<path fill="none" stroke="midnightblue" d="M354.159,-243.509C329.023,-253.752 283.099,-271.017 250.375,-282.583"/>
<polygon fill="midnightblue" stroke="midnightblue" points="248.964,-279.368 240.681,-285.975 251.276,-285.976 248.964,-279.368"/>
</g>
<!-- Node22 -->
<g id="node22" class="node"><title>Node22</title>
<polygon fill="white" stroke="#bfbfbf" points="642,-168.5 642,-187.5 692,-187.5 692,-168.5 642,-168.5"/>
<text text-anchor="middle" x="667" y="-175.5" font-family="Helvetica,sans-Serif" font-size="10.00">cassert</text>
</g>
<!-- Node21&#45;&gt;Node22 -->
<g id="edge30" class="edge"><title>Node21&#45;&gt;Node22</title>
<path fill="none" stroke="midnightblue" d="M429.059,-224.475C481.907,-216.26 562.577,-202.908 632,-188 632.1,-187.979 632.2,-187.957 632.299,-187.936"/>
<polygon fill="midnightblue" stroke="midnightblue" points="632.869,-191.396 641.822,-185.732 631.291,-184.577 632.869,-191.396"/>
</g>
<!-- Node23 -->
<g id="node23" class="node"><title>Node23</title>
<g id="a_node23"><a xlink:href="../../d5/d82/globals_8hpp.html" target="_top" xlink:title="pfasst/globals.hpp">
<polygon fill="white" stroke="black" points="526.5,-168.5 526.5,-187.5 623.5,-187.5 623.5,-168.5 526.5,-168.5"/>
<text text-anchor="middle" x="575" y="-175.5" font-family="Helvetica,sans-Serif" font-size="10.00">pfasst/globals.hpp</text>
</a>
</g>
</g>
<!-- Node21&#45;&gt;Node23 -->
<g id="edge33" class="edge"><title>Node21&#45;&gt;Node23</title>
<path fill="none" stroke="midnightblue" d="M404.166,-224.444C439.059,-215.162 494.893,-200.309 533.171,-190.127"/>
<polygon fill="midnightblue" stroke="midnightblue" points="534.22,-193.47 542.985,-187.516 532.421,-186.705 534.22,-193.47"/>
</g>
<!-- Node24&#45;&gt;Node17 -->
<g id="edge36" class="edge"><title>Node24&#45;&gt;Node17</title>
<path fill="none" stroke="midnightblue" d="M359.83,-310.523C360.873,-318.586 361.029,-328.813 360.299,-337.526"/>
<polygon fill="midnightblue" stroke="midnightblue" points="356.827,-337.085 358.901,-347.475 363.759,-338.06 356.827,-337.085"/>
</g>
<!-- Node24&#45;&gt;Node23 -->
<g id="edge37" class="edge"><title>Node24&#45;&gt;Node23</title>
<path fill="none" stroke="midnightblue" d="M379.483,-280.493C405.794,-266.1 448.092,-243.153 485,-224 506.064,-213.069 530.115,-201.068 548.052,-192.21"/>
<polygon fill="midnightblue" stroke="midnightblue" points="549.907,-195.199 557.33,-187.64 546.813,-188.919 549.907,-195.199"/>
</g>
<!-- Node25&#45;&gt;Node2 -->
<g id="edge39" class="edge"><title>Node25&#45;&gt;Node2</title>
<path fill="none" stroke="midnightblue" d="M625.47,-403.48C613.185,-395.543 596.028,-382.605 586,-367 550.387,-311.579 594.492,-269.654 547,-224 524.668,-202.532 438.837,-189.138 388.802,-182.986"/>
<polygon fill="midnightblue" stroke="midnightblue" points="389.048,-179.491 378.704,-181.783 388.219,-186.441 389.048,-179.491"/>
</g>
<!-- Node25&#45;&gt;Node3 -->
<g id="edge40" class="edge"><title>Node25&#45;&gt;Node3</title>
<path fill="none" stroke="midnightblue" d="M609.394,-403.395C590.279,-396.512 566.605,-384.981 552,-367 525.005,-333.766 518.177,-281.892 516.5,-254.103"/>
<polygon fill="midnightblue" stroke="midnightblue" points="519.983,-253.631 516.053,-243.793 512.99,-253.935 519.983,-253.631"/>
</g>
<!-- Node25&#45;&gt;Node4 -->
<g id="edge41" class="edge"><title>Node25&#45;&gt;Node4</title>
<path fill="none" stroke="midnightblue" d="M655.262,-403.431C717.667,-368.394 953.746,-235.849 1030.63,-192.681"/>
<polygon fill="midnightblue" stroke="midnightblue" points="1032.59,-195.594 1039.6,-187.647 1029.17,-189.491 1032.59,-195.594"/>
</g>
<!-- Node26 -->
<g id="node26" class="node"><title>Node26</title>
<g id="a_node26"><a xlink:href="../../d3/d35/particle__impl_8hpp.html" target="_top" xlink:title="particle_impl.hpp">
<polygon fill="white" stroke="black" points="595,-347.5 595,-366.5 685,-366.5 685,-347.5 595,-347.5"/>
<text text-anchor="middle" x="640" y="-354.5" font-family="Helvetica,sans-Serif" font-size="10.00">particle_impl.hpp</text>
</a>
</g>
</g>
<!-- Node25&#45;&gt;Node26 -->
<g id="edge42" class="edge"><title>Node25&#45;&gt;Node26</title>
<path fill="none" stroke="midnightblue" d="M634.834,-403.083C633.324,-395.927 632.894,-385.635 633.542,-376.691"/>
<polygon fill="midnightblue" stroke="midnightblue" points="637.015,-377.126 634.869,-366.751 630.077,-376.2 637.015,-377.126"/>
</g>
<!-- Node26&#45;&gt;Node5 -->
<g id="edge57" class="edge"><title>Node26&#45;&gt;Node5</title>
<path fill="none" stroke="midnightblue" d="M638.025,-347.247C632.497,-324.443 614.933,-262.324 580,-224 558.275,-200.166 533.187,-215.893 517,-188 501.989,-162.133 538.735,-143.496 569.249,-132.98"/>
<polygon fill="midnightblue" stroke="midnightblue" points="570.437,-136.275 578.864,-129.853 568.271,-129.618 570.437,-136.275"/>
</g>
<!-- Node26&#45;&gt;Node22 -->
<g id="edge56" class="edge"><title>Node26&#45;&gt;Node22</title>
<path fill="none" stroke="midnightblue" d="M641.302,-347.463C645.426,-320.428 658.269,-236.239 664.085,-198.109"/>
<polygon fill="midnightblue" stroke="midnightblue" points="667.599,-198.282 665.647,-187.868 660.679,-197.226 667.599,-198.282"/>
</g>
<!-- Node26&#45;&gt;Node25 -->
<g id="edge43" class="edge"><title>Node26&#45;&gt;Node25</title>
<path fill="none" stroke="midnightblue" d="M645.131,-366.751C646.657,-373.858 647.104,-384.136 646.472,-393.101"/>
<polygon fill="midnightblue" stroke="midnightblue" points="642.993,-392.713 645.166,-403.083 649.934,-393.622 642.993,-392.713"/>
</g>
<!-- Node27 -->
<g id="node27" class="node"><title>Node27</title>
<g id="a_node27"><a xlink:href="../../db/de5/particle__util_8hpp.html" target="_top" xlink:title="particle_util.hpp">
<polygon fill="white" stroke="black" points="670,-286 670,-305 754,-305 754,-286 670,-286"/>
<text text-anchor="middle" x="712" y="-293" font-family="Helvetica,sans-Serif" font-size="10.00">particle_util.hpp</text>
</a>
</g>
</g>
<!-- Node26&#45;&gt;Node27 -->
<g id="edge44" class="edge"><title>Node26&#45;&gt;Node27</title>
<path fill="none" stroke="midnightblue" d="M650.316,-347.475C661.651,-338.108 680.073,-322.884 693.839,-311.508"/>
<polygon fill="midnightblue" stroke="midnightblue" points="696.224,-314.077 701.703,-305.009 691.765,-308.681 696.224,-314.077"/>
</g>
<!-- Node27&#45;&gt;Node2 -->
<g id="edge45" class="edge"><title>Node27&#45;&gt;Node2</title>
<path fill="none" stroke="midnightblue" d="M699.111,-285.931C676.156,-271.064 626.248,-240.5 580,-224 514.779,-200.73 434.529,-188.435 388.718,-182.859"/>
<polygon fill="midnightblue" stroke="midnightblue" points="389.003,-179.369 378.662,-181.676 388.185,-186.321 389.003,-179.369"/>
</g>
<!-- Node27&#45;&gt;Node3 -->
<g id="edge46" class="edge"><title>Node27&#45;&gt;Node3</title>
<path fill="none" stroke="midnightblue" d="M683.918,-285.975C648.022,-275.078 586.012,-256.254 548.228,-244.784"/>
<polygon fill="midnightblue" stroke="midnightblue" points="548.841,-241.312 538.256,-241.756 546.808,-248.01 548.841,-241.312"/>
</g>
<!-- Node28 -->
<g id="node28" class="node"><title>Node28</title>
<g id="a_node28"><a xlink:href="../../d0/d00/particle__util__impl_8hpp.html" target="_top" xlink:title="particle_util_impl.hpp">
<polygon fill="white" stroke="black" points="784.5,-224.5 784.5,-243.5 891.5,-243.5 891.5,-224.5 784.5,-224.5"/>
<text text-anchor="middle" x="838" y="-231.5" font-family="Helvetica,sans-Serif" font-size="10.00">particle_util_impl.hpp</text>
</a>
</g>
</g>
<!-- Node27&#45;&gt;Node28 -->
<g id="edge47" class="edge"><title>Node27&#45;&gt;Node28</title>
<path fill="none" stroke="midnightblue" d="M725.152,-285.975C744.288,-275.901 779.728,-259.053 805.906,-247.502"/>
<polygon fill="midnightblue" stroke="midnightblue" points="807.31,-250.708 815.084,-243.509 804.518,-244.289 807.31,-250.708"/>
</g>
<!-- Node28&#45;&gt;Node4 -->
<g id="edge55" class="edge"><title>Node28&#45;&gt;Node4</title>
<path fill="none" stroke="midnightblue" d="M872.384,-224.444C909.922,-215.102 970.131,-200.119 1011.07,-189.933"/>
<polygon fill="midnightblue" stroke="midnightblue" points="1011.92,-193.328 1020.78,-187.516 1010.23,-186.535 1011.92,-193.328"/>
</g>
<!-- Node28&#45;&gt;Node22 -->
<g id="edge50" class="edge"><title>Node28&#45;&gt;Node22</title>
<path fill="none" stroke="midnightblue" d="M810.905,-224.444C781.417,-215.132 734.177,-200.214 701.925,-190.029"/>
<polygon fill="midnightblue" stroke="midnightblue" points="702.611,-186.575 692.022,-186.902 700.503,-193.25 702.611,-186.575"/>
</g>
<!-- Node28&#45;&gt;Node23 -->
<g id="edge54" class="edge"><title>Node28&#45;&gt;Node23</title>
<path fill="none" stroke="midnightblue" d="M796.327,-224.444C750.255,-214.984 676.004,-199.738 626.369,-189.547"/>
<polygon fill="midnightblue" stroke="midnightblue" points="626.978,-186.099 616.478,-187.516 625.57,-192.956 626.978,-186.099"/>
</g>
<!-- Node28&#45;&gt;Node27 -->
<g id="edge48" class="edge"><title>Node28&#45;&gt;Node27</title>
<path fill="none" stroke="midnightblue" d="M824.878,-243.509C805.759,-253.576 770.323,-270.424 744.135,-281.98"/>
<polygon fill="midnightblue" stroke="midnightblue" points="742.726,-278.776 734.953,-285.975 745.519,-285.194 742.726,-278.776"/>
</g>
<!-- Node29 -->
<g id="node29" class="node"><title>Node29</title>
<polygon fill="white" stroke="#bfbfbf" points="852,-168.5 852,-187.5 910,-187.5 910,-168.5 852,-168.5"/>
<text text-anchor="middle" x="881" y="-175.5" font-family="Helvetica,sans-Serif" font-size="10.00">algorithm</text>
</g>
<!-- Node28&#45;&gt;Node29 -->
<g id="edge49" class="edge"><title>Node28&#45;&gt;Node29</title>
<path fill="none" stroke="midnightblue" d="M845.101,-224.083C851.237,-216.377 860.27,-205.033 867.739,-195.653"/>
<polygon fill="midnightblue" stroke="midnightblue" points="870.54,-197.754 874.032,-187.751 865.064,-193.394 870.54,-197.754"/>
</g>
<!-- Node30 -->
<g id="node30" class="node"><title>Node30</title>
<polygon fill="white" stroke="#bfbfbf" points="710,-168.5 710,-187.5 754,-187.5 754,-168.5 710,-168.5"/>
<text text-anchor="middle" x="732" y="-175.5" font-family="Helvetica,sans-Serif" font-size="10.00">cmath</text>
</g>
<!-- Node28&#45;&gt;Node30 -->
<g id="edge51" class="edge"><title>Node28&#45;&gt;Node30</title>
<path fill="none" stroke="midnightblue" d="M820.969,-224.324C803.97,-215.664 777.624,-202.242 758.007,-192.249"/>
<polygon fill="midnightblue" stroke="midnightblue" points="759.488,-189.075 748.988,-187.655 756.31,-195.312 759.488,-189.075"/>
</g>
<!-- Node31 -->
<g id="node31" class="node"><title>Node31</title>
<polygon fill="white" stroke="#bfbfbf" points="928.5,-168.5 928.5,-187.5 987.5,-187.5 987.5,-168.5 928.5,-168.5"/>
<text text-anchor="middle" x="958" y="-175.5" font-family="Helvetica,sans-Serif" font-size="10.00">functional</text>
</g>
<!-- Node28&#45;&gt;Node31 -->
<g id="edge52" class="edge"><title>Node28&#45;&gt;Node31</title>
<path fill="none" stroke="midnightblue" d="M857.014,-224.444C876.588,-215.636 907.308,-201.812 929.729,-191.722"/>
<polygon fill="midnightblue" stroke="midnightblue" points="931.392,-194.812 939.075,-187.516 928.519,-188.428 931.392,-194.812"/>
</g>
<!-- Node32 -->
<g id="node32" class="node"><title>Node32</title>
<polygon fill="white" stroke="#bfbfbf" points="772,-168.5 772,-187.5 834,-187.5 834,-168.5 772,-168.5"/>
<text text-anchor="middle" x="803" y="-175.5" font-family="Helvetica,sans-Serif" font-size="10.00">type_traits</text>
</g>
<!-- Node28&#45;&gt;Node32 -->
<g id="edge53" class="edge"><title>Node28&#45;&gt;Node32</title>
<path fill="none" stroke="midnightblue" d="M832.22,-224.083C827.328,-216.534 820.173,-205.495 814.167,-196.23"/>
<polygon fill="midnightblue" stroke="midnightblue" points="817.048,-194.239 808.672,-187.751 811.174,-198.046 817.048,-194.239"/>
</g>
<!-- Node33&#45;&gt;Node1 -->
<g id="edge59" class="edge"><title>Node33&#45;&gt;Node1</title>
<path fill="none" stroke="midnightblue" d="M903.965,-366.542C861.799,-385.319 752.269,-430.515 688.258,-455.733"/>
<polygon fill="midnightblue" stroke="midnightblue" points="686.806,-452.543 678.775,-459.453 689.362,-459.06 686.806,-452.543"/>
</g>
<!-- Node33&#45;&gt;Node4 -->
<g id="edge68" class="edge"><title>Node33&#45;&gt;Node4</title>
<path fill="none" stroke="midnightblue" d="M981.104,-352.678C1041.9,-347.913 1129.86,-336.679 1151,-311 1185.02,-269.685 1116.59,-217.488 1078.37,-192.951"/>
<polygon fill="midnightblue" stroke="midnightblue" points="1080.15,-189.942 1069.82,-187.602 1076.44,-195.875 1080.15,-189.942"/>
</g>
<!-- Node33&#45;&gt;Node7 -->
<g id="edge64" class="edge"><title>Node33&#45;&gt;Node7</title>
<path fill="none" stroke="midnightblue" d="M922.801,-347.031C926.274,-331.702 935.177,-300.168 953,-280 1010.48,-214.956 1138.49,-250.974 1113,-168 1104.17,-139.248 1100.49,-127.967 1075,-112 1028.99,-83.1806 865.837,-71.9115 797,-68.3714"/>
<polygon fill="midnightblue" stroke="midnightblue" points="796.954,-64.865 786.794,-67.8681 796.609,-71.8565 796.954,-64.865"/>
</g>
<!-- Node33&#45;&gt;Node9 -->
<g id="edge67" class="edge"><title>Node33&#45;&gt;Node9</title>
<path fill="none" stroke="midnightblue" d="M981.187,-352.46C1045.91,-347.415 1143.17,-335.856 1170,-311 1218.43,-266.125 1221.45,-179.956 1220.18,-141.882"/>
<polygon fill="midnightblue" stroke="midnightblue" points="1223.67,-141.531 1219.7,-131.708 1216.68,-141.863 1223.67,-141.531"/>
</g>
<!-- Node33&#45;&gt;Node22 -->
<g id="edge61" class="edge"><title>Node33&#45;&gt;Node22</title>
<path fill="none" stroke="midnightblue" d="M908.629,-347.334C878.463,-326.207 798.705,-270.384 732,-224 717.31,-213.785 700.726,-202.305 687.987,-193.497"/>
<polygon fill="midnightblue" stroke="midnightblue" points="689.688,-190.418 679.471,-187.612 685.708,-196.177 689.688,-190.418"/>
</g>
<!-- Node33&#45;&gt;Node23 -->
<g id="edge66" class="edge"><title>Node33&#45;&gt;Node23</title>
<path fill="none" stroke="midnightblue" d="M895.676,-347.36C872.754,-339.161 838.343,-325.904 810,-311 787.852,-299.353 784.488,-292.823 763,-280 706.486,-246.275 637.887,-210.725 601.182,-192.12"/>
<polygon fill="midnightblue" stroke="midnightblue" points="602.641,-188.936 592.137,-187.551 599.485,-195.184 602.641,-188.936"/>
</g>
<!-- Node33&#45;&gt;Node27 -->
<g id="edge69" class="edge"><title>Node33&#45;&gt;Node27</title>
<path fill="none" stroke="midnightblue" d="M891.055,-347.475C854.428,-337.048 792.305,-319.362 751.716,-307.807"/>
<polygon fill="midnightblue" stroke="midnightblue" points="752.465,-304.381 741.889,-305.009 750.549,-311.113 752.465,-304.381"/>
</g>
<!-- Node33&#45;&gt;Node29 -->
<g id="edge60" class="edge"><title>Node33&#45;&gt;Node29</title>
<path fill="none" stroke="midnightblue" d="M920.338,-347.193C918.57,-325.754 912.956,-269.289 900,-224 897.376,-214.828 893.389,-205.027 889.744,-196.921"/>
<polygon fill="midnightblue" stroke="midnightblue" points="892.851,-195.304 885.437,-187.735 886.513,-198.275 892.851,-195.304"/>
</g>
<!-- Node33&#45;&gt;Node31 -->
<g id="edge62" class="edge"><title>Node33&#45;&gt;Node31</title>
<path fill="none" stroke="midnightblue" d="M981.097,-351.39C1036.35,-345.754 1112.42,-333.979 1131,-311 1175.64,-255.783 1061.49,-210.495 997.641,-190.319"/>
<polygon fill="midnightblue" stroke="midnightblue" points="998.446,-186.904 987.858,-187.299 996.381,-193.593 998.446,-186.904"/>
</g>
<!-- Node34 -->
<g id="node34" class="node"><title>Node34</title>
<polygon fill="white" stroke="#bfbfbf" points="962.5,-286 962.5,-305 1013.5,-305 1013.5,-286 962.5,-286"/>
<text text-anchor="middle" x="988" y="-293" font-family="Helvetica,sans-Serif" font-size="10.00">random</text>
</g>
<!-- Node33&#45;&gt;Node34 -->
<g id="edge63" class="edge"><title>Node33&#45;&gt;Node34</title>
<path fill="none" stroke="midnightblue" d="M930.599,-347.475C941.048,-338.197 957.968,-323.171 970.736,-311.831"/>
<polygon fill="midnightblue" stroke="midnightblue" points="973.265,-314.266 978.418,-305.009 968.617,-309.032 973.265,-314.266"/>
</g>
<!-- Node35 -->
<g id="node35" class="node"><title>Node35</title>
<polygon fill="white" stroke="#bfbfbf" points="1032,-286 1032,-305 1122,-305 1122,-286 1032,-286"/>
<text text-anchor="middle" x="1077" y="-293" font-family="Helvetica,sans-Serif" font-size="10.00">boost/format.hpp</text>
</g>
<!-- Node33&#45;&gt;Node35 -->
<g id="edge65" class="edge"><title>Node33&#45;&gt;Node35</title>
<path fill="none" stroke="midnightblue" d="M943.351,-347.475C969.995,-337.313 1014.71,-320.256 1045.01,-308.7"/>
<polygon fill="midnightblue" stroke="midnightblue" points="1046.59,-311.843 1054.69,-305.009 1044.1,-305.303 1046.59,-311.843"/>
</g>
</g>
</svg>
