<?xml version="1.0" encoding="UTF-8" standalone="no"?>
<!DOCTYPE svg PUBLIC "-//W3C//DTD SVG 1.1//EN"
 "http://www.w3.org/Graphics/SVG/1.1/DTD/svg11.dtd">
<!-- Generated by graphviz version 2.38.0 (20140413.2041)
 -->
<!-- Title: pfasst::encap::VectorFactory&lt; scalar, time &gt; Pages: 1 -->
<svg width="154pt" height="204pt"
 viewBox="0.00 0.00 154.00 204.00" xmlns="http://www.w3.org/2000/svg" xmlns:xlink="http://www.w3.org/1999/xlink">
<g id="graph0" class="graph" transform="scale(1 1) rotate(0) translate(4 200)">
<title>pfasst::encap::VectorFactory&lt; scalar, time &gt;</title>
<polygon fill="white" stroke="none" points="-4,4 -4,-200 150,-200 150,4 -4,4"/>
<!-- Node1 -->
<g id="node1" class="node"><title>Node1</title>
<polygon fill="#bfbfbf" stroke="black" points="0,-0.5 0,-90.5 146,-90.5 146,-0.5 0,-0.5"/>
<text text-anchor="start" x="8" y="-78.5" font-family="Helvetica,sans-Serif" font-size="10.00">pfasst::encap::VectorFactory</text>
<text text-anchor="middle" x="73" y="-67.5" font-family="Helvetica,sans-Serif" font-size="10.00">&lt; scalar, time &gt;</text>
<polyline fill="none" stroke="black" points="0,-60.5 146,-60.5 "/>
<text text-anchor="start" x="8" y="-48.5" font-family="Helvetica,sans-Serif" font-size="10.00"># size</text>
<polyline fill="none" stroke="black" points="0,-41.5 146,-41.5 "/>
<text text-anchor="start" x="8" y="-29.5" font-family="Helvetica,sans-Serif" font-size="10.00">+ VectorFactory()</text>
<text text-anchor="start" x="8" y="-18.5" font-family="Helvetica,sans-Serif" font-size="10.00">+ create()</text>
<text text-anchor="start" x="8" y="-7.5" font-family="Helvetica,sans-Serif" font-size="10.00">+ dofs()</text>
</g>
<!-- Node2 -->
<g id="node2" class="node"><title>Node2</title>
<g id="a_node2"><a xlink:href="../../d0/d51/classpfasst_1_1encap_1_1EncapFactory.html" target="_top" xlink:title="Abstract interface of factory for creating Encapsulation objects. ">
<polygon fill="white" stroke="black" points="1,-127.5 1,-195.5 145,-195.5 145,-127.5 1,-127.5"/>
<text text-anchor="start" x="9" y="-183.5" font-family="Helvetica,sans-Serif" font-size="10.00">pfasst::encap::EncapFactory</text>
<text text-anchor="middle" x="73" y="-172.5" font-family="Helvetica,sans-Serif" font-size="10.00">&lt; time &gt;</text>
<polyline fill="none" stroke="black" points="1,-165.5 145,-165.5 "/>
<text text-anchor="middle" x="73" y="-153.5" font-family="Helvetica,sans-Serif" font-size="10.00"> </text>
<polyline fill="none" stroke="black" points="1,-146.5 145,-146.5 "/>
<text text-anchor="start" x="9" y="-134.5" font-family="Helvetica,sans-Serif" font-size="10.00">+ create()</text>
</a>
</g>
</g>
<!-- Node2&#45;&gt;Node1 -->
<g id="edge1" class="edge"><title>Node2&#45;&gt;Node1</title>
<path fill="none" stroke="midnightblue" d="M73,-116.972C73,-108.346 73,-99.2838 73,-90.6378"/>
<polygon fill="none" stroke="midnightblue" points="69.5001,-117.22 73,-127.22 76.5001,-117.22 69.5001,-117.22"/>
</g>
</g>
</svg>
