<?xml version="1.0" encoding="UTF-8" standalone="no"?>
<!DOCTYPE svg PUBLIC "-//W3C//DTD SVG 1.1//EN"
 "http://www.w3.org/Graphics/SVG/1.1/DTD/svg11.dtd">
<!-- Generated by graphviz version 2.38.0 (20140413.2041)
 -->
<!-- Title: pfasst::encap::VectorEncapsulation&lt; scalar, time &gt; Pages: 1 -->
<svg width="282pt" height="794pt"
 viewBox="0.00 0.00 281.50 794.00" xmlns="http://www.w3.org/2000/svg" xmlns:xlink="http://www.w3.org/1999/xlink">
<g id="graph0" class="graph" transform="scale(1 1) rotate(0) translate(4 790)">
<title>pfasst::encap::VectorEncapsulation&lt; scalar, time &gt;</title>
<polygon fill="white" stroke="none" points="-4,4 -4,-790 277.5,-790 277.5,4 -4,4"/>
<!-- Node1 -->
<g id="node1" class="node"><title>Node1</title>
<polygon fill="#bfbfbf" stroke="black" points="77,-0.5 77,-365.5 251,-365.5 251,-0.5 77,-0.5"/>
<text text-anchor="start" x="85" y="-353.5" font-family="Helvetica,sans-Serif" font-size="10.00">pfasst::encap::VectorEncapsulation</text>
<text text-anchor="middle" x="164" y="-342.5" font-family="Helvetica,sans-Serif" font-size="10.00">&lt; scalar, time &gt;</text>
<polyline fill="none" stroke="black" points="77,-335.5 251,-335.5 "/>
<text text-anchor="middle" x="164" y="-323.5" font-family="Helvetica,sans-Serif" font-size="10.00"> </text>
<polyline fill="none" stroke="black" points="77,-316.5 251,-316.5 "/>
<text text-anchor="start" x="85" y="-304.5" font-family="Helvetica,sans-Serif" font-size="10.00">+ VectorEncapsulation()</text>
<text text-anchor="start" x="85" y="-293.5" font-family="Helvetica,sans-Serif" font-size="10.00">+ VectorEncapsulation()</text>
<text text-anchor="start" x="85" y="-282.5" font-family="Helvetica,sans-Serif" font-size="10.00">+ VectorEncapsulation()</text>
<text text-anchor="start" x="85" y="-271.5" font-family="Helvetica,sans-Serif" font-size="10.00">+ VectorEncapsulation()</text>
<text text-anchor="start" x="85" y="-260.5" font-family="Helvetica,sans-Serif" font-size="10.00">+ VectorEncapsulation()</text>
<text text-anchor="start" x="85" y="-249.5" font-family="Helvetica,sans-Serif" font-size="10.00">+ ~VectorEncapsulation()</text>
<text text-anchor="start" x="85" y="-238.5" font-family="Helvetica,sans-Serif" font-size="10.00">+ zero()</text>
<text text-anchor="start" x="85" y="-227.5" font-family="Helvetica,sans-Serif" font-size="10.00">+ copy()</text>
<text text-anchor="start" x="85" y="-216.5" font-family="Helvetica,sans-Serif" font-size="10.00">+ copy()</text>
<text text-anchor="start" x="85" y="-205.5" font-family="Helvetica,sans-Serif" font-size="10.00">+ saxpy()</text>
<text text-anchor="start" x="85" y="-194.5" font-family="Helvetica,sans-Serif" font-size="10.00">+ saxpy()</text>
<text text-anchor="start" x="85" y="-183.5" font-family="Helvetica,sans-Serif" font-size="10.00">+ mat_apply()</text>
<text text-anchor="start" x="85" y="-172.5" font-family="Helvetica,sans-Serif" font-size="10.00">+ mat_apply()</text>
<text text-anchor="start" x="85" y="-161.5" font-family="Helvetica,sans-Serif" font-size="10.00">+ norm0()</text>
<text text-anchor="start" x="85" y="-150.5" font-family="Helvetica,sans-Serif" font-size="10.00">* VectorEncapsulation()</text>
<text text-anchor="start" x="85" y="-139.5" font-family="Helvetica,sans-Serif" font-size="10.00">* VectorEncapsulation()</text>
<text text-anchor="start" x="85" y="-128.5" font-family="Helvetica,sans-Serif" font-size="10.00">* VectorEncapsulation()</text>
<text text-anchor="start" x="85" y="-117.5" font-family="Helvetica,sans-Serif" font-size="10.00">* VectorEncapsulation()</text>
<text text-anchor="start" x="85" y="-106.5" font-family="Helvetica,sans-Serif" font-size="10.00">* VectorEncapsulation()</text>
<text text-anchor="start" x="85" y="-95.5" font-family="Helvetica,sans-Serif" font-size="10.00">* ~VectorEncapsulation()</text>
<text text-anchor="start" x="85" y="-84.5" font-family="Helvetica,sans-Serif" font-size="10.00">* zero()</text>
<text text-anchor="start" x="85" y="-73.5" font-family="Helvetica,sans-Serif" font-size="10.00">* copy()</text>
<text text-anchor="start" x="85" y="-62.5" font-family="Helvetica,sans-Serif" font-size="10.00">* copy()</text>
<text text-anchor="start" x="85" y="-51.5" font-family="Helvetica,sans-Serif" font-size="10.00">* saxpy()</text>
<text text-anchor="start" x="85" y="-40.5" font-family="Helvetica,sans-Serif" font-size="10.00">* saxpy()</text>
<text text-anchor="start" x="85" y="-29.5" font-family="Helvetica,sans-Serif" font-size="10.00">* mat_apply()</text>
<text text-anchor="start" x="85" y="-18.5" font-family="Helvetica,sans-Serif" font-size="10.00">* mat_apply()</text>
<text text-anchor="start" x="85" y="-7.5" font-family="Helvetica,sans-Serif" font-size="10.00">* norm0()</text>
</g>
<!-- Node2 -->
<g id="node2" class="node"><title>Node2</title>
<g id="a_node2"><a xlink:title="STL class. ">
<polygon fill="white" stroke="#bfbfbf" points="0,-513.5 0,-570.5 110,-570.5 110,-513.5 0,-513.5"/>
<text text-anchor="middle" x="55" y="-558.5" font-family="Helvetica,sans-Serif" font-size="10.00">std::vector&lt; scalar &gt;</text>
<polyline fill="none" stroke="#bfbfbf" points="0,-551.5 110,-551.5 "/>
<text text-anchor="middle" x="55" y="-539.5" font-family="Helvetica,sans-Serif" font-size="10.00"> </text>
<polyline fill="none" stroke="#bfbfbf" points="0,-532.5 110,-532.5 "/>
<text text-anchor="middle" x="55" y="-520.5" font-family="Helvetica,sans-Serif" font-size="10.00"> </text>
</a>
</g>
</g>
<!-- Node2&#45;&gt;Node1 -->
<g id="edge1" class="edge"><title>Node2&#45;&gt;Node1</title>
<path fill="none" stroke="midnightblue" d="M66.4603,-503.465C76.7174,-469.87 92.5582,-417.988 108.512,-365.736"/>
<polygon fill="none" stroke="midnightblue" points="63.0351,-502.698 63.4623,-513.284 69.73,-504.742 63.0351,-502.698"/>
</g>
<!-- Node3 -->
<g id="node3" class="node"><title>Node3</title>
<polygon fill="white" stroke="#bfbfbf" points="40.5,-728.5 40.5,-785.5 69.5,-785.5 69.5,-728.5 40.5,-728.5"/>
<text text-anchor="middle" x="55" y="-773.5" font-family="Helvetica,sans-Serif" font-size="10.00">T</text>
<polyline fill="none" stroke="#bfbfbf" points="40.5,-766.5 69.5,-766.5 "/>
<text text-anchor="middle" x="55" y="-754.5" font-family="Helvetica,sans-Serif" font-size="10.00"> </text>
<polyline fill="none" stroke="#bfbfbf" points="40.5,-747.5 69.5,-747.5 "/>
<text text-anchor="middle" x="55" y="-735.5" font-family="Helvetica,sans-Serif" font-size="10.00"> </text>
</g>
<!-- Node3&#45;&gt;Node2 -->
<g id="edge2" class="edge"><title>Node3&#45;&gt;Node2</title>
<path fill="none" stroke="#404040" d="M55,-728.154C55,-690.978 55,-624.91 55,-582.572"/>
<polygon fill="none" stroke="#404040" points="55.0001,-582.515 51,-576.515 55,-570.515 59,-576.515 55.0001,-582.515"/>
<text text-anchor="middle" x="80.5" y="-702" font-family="Helvetica,sans-Serif" font-size="10.00"> +elements</text>
</g>
<!-- Node4 -->
<g id="node4" class="node"><title>Node4</title>
<g id="a_node4"><a xlink:href="../../dc/ddd/classpfasst_1_1encap_1_1Encapsulation.html" target="_top" xlink:title="Data/solution encapsulation. ">
<polygon fill="white" stroke="black" points="128.5,-403.5 128.5,-680.5 273.5,-680.5 273.5,-403.5 128.5,-403.5"/>
<text text-anchor="start" x="136.5" y="-668.5" font-family="Helvetica,sans-Serif" font-size="10.00">pfasst::encap::Encapsulation</text>
<text text-anchor="middle" x="201" y="-657.5" font-family="Helvetica,sans-Serif" font-size="10.00">&lt; time &gt;</text>
<polyline fill="none" stroke="black" points="128.5,-650.5 273.5,-650.5 "/>
<text text-anchor="middle" x="201" y="-638.5" font-family="Helvetica,sans-Serif" font-size="10.00"> </text>
<polyline fill="none" stroke="black" points="128.5,-631.5 273.5,-631.5 "/>
<text text-anchor="start" x="136.5" y="-619.5" font-family="Helvetica,sans-Serif" font-size="10.00">+ ~Encapsulation()</text>
<text text-anchor="start" x="136.5" y="-608.5" font-family="Helvetica,sans-Serif" font-size="10.00">+ zero()</text>
<text text-anchor="start" x="136.5" y="-597.5" font-family="Helvetica,sans-Serif" font-size="10.00">+ copy()</text>
<text text-anchor="start" x="136.5" y="-586.5" font-family="Helvetica,sans-Serif" font-size="10.00">+ norm0()</text>
<text text-anchor="start" x="136.5" y="-575.5" font-family="Helvetica,sans-Serif" font-size="10.00">+ saxpy()</text>
<text text-anchor="start" x="136.5" y="-564.5" font-family="Helvetica,sans-Serif" font-size="10.00">+ mat_apply()</text>
<text text-anchor="start" x="136.5" y="-553.5" font-family="Helvetica,sans-Serif" font-size="10.00">+ post()</text>
<text text-anchor="start" x="136.5" y="-542.5" font-family="Helvetica,sans-Serif" font-size="10.00">+ send()</text>
<text text-anchor="start" x="136.5" y="-531.5" font-family="Helvetica,sans-Serif" font-size="10.00">+ recv()</text>
<text text-anchor="start" x="136.5" y="-520.5" font-family="Helvetica,sans-Serif" font-size="10.00">+ broadcast()</text>
<text text-anchor="start" x="136.5" y="-509.5" font-family="Helvetica,sans-Serif" font-size="10.00">* ~Encapsulation()</text>
<text text-anchor="start" x="136.5" y="-498.5" font-family="Helvetica,sans-Serif" font-size="10.00">* zero()</text>
<text text-anchor="start" x="136.5" y="-487.5" font-family="Helvetica,sans-Serif" font-size="10.00">* copy()</text>
<text text-anchor="start" x="136.5" y="-476.5" font-family="Helvetica,sans-Serif" font-size="10.00">* norm0()</text>
<text text-anchor="start" x="136.5" y="-465.5" font-family="Helvetica,sans-Serif" font-size="10.00">* saxpy()</text>
<text text-anchor="start" x="136.5" y="-454.5" font-family="Helvetica,sans-Serif" font-size="10.00">* mat_apply()</text>
<text text-anchor="start" x="136.5" y="-443.5" font-family="Helvetica,sans-Serif" font-size="10.00">* post()</text>
<text text-anchor="start" x="136.5" y="-432.5" font-family="Helvetica,sans-Serif" font-size="10.00">* send()</text>
<text text-anchor="start" x="136.5" y="-421.5" font-family="Helvetica,sans-Serif" font-size="10.00">* recv()</text>
<text text-anchor="start" x="136.5" y="-410.5" font-family="Helvetica,sans-Serif" font-size="10.00">* broadcast()</text>
</a>
</g>
</g>
<!-- Node4&#45;&gt;Node1 -->
<g id="edge3" class="edge"><title>Node4&#45;&gt;Node1</title>
<path fill="none" stroke="midnightblue" d="M185.69,-393.277C184.748,-384.19 183.795,-374.992 182.84,-365.784"/>
<polygon fill="none" stroke="midnightblue" points="182.235,-393.899 186.748,-403.485 189.198,-393.178 182.235,-393.899"/>
</g>
</g>
</svg>
