<?xml version="1.0" encoding="UTF-8" standalone="no"?>
<!DOCTYPE svg PUBLIC "-//W3C//DTD SVG 1.1//EN"
 "http://www.w3.org/Graphics/SVG/1.1/DTD/svg11.dtd">
<!-- Generated by graphviz version 2.38.0 (20140413.2041)
 -->
<!-- Title: pfasst::examples::boris::bindings::setup Pages: 1 -->
<svg width="286pt" height="137pt"
 viewBox="0.00 0.00 286.00 137.00" xmlns="http://www.w3.org/2000/svg" xmlns:xlink="http://www.w3.org/1999/xlink">
<g id="graph0" class="graph" transform="scale(1 1) rotate(0) translate(4 133)">
<title>pfasst::examples::boris::bindings::setup</title>
<polygon fill="white" stroke="none" points="-4,4 -4,-133 282,-133 282,4 -4,4"/>
<!-- Node1 -->
<g id="node1" class="node"><title>Node1</title>
<polygon fill="#bfbfbf" stroke="black" points="0,-49.5 0,-79.5 121,-79.5 121,-49.5 0,-49.5"/>
<text text-anchor="start" x="8" y="-67.5" font-family="Helvetica,sans-Serif" font-size="10.00">pfasst::examples::boris</text>
<text text-anchor="middle" x="60.5" y="-56.5" font-family="Helvetica,sans-Serif" font-size="10.00">::bindings::setup</text>
</g>
<!-- Node2 -->
<g id="node2" class="node"><title>Node2</title>
<g id="a_node2"><a xlink:href="../../da/d74/namespacepfasst_1_1examples_1_1boris.html#a0f75e9bba0cc129f1b7089130f678e92" target="_top" xlink:title="pfasst::examples::boris\l::run_boris_pfasst">
<polygon fill="white" stroke="black" points="157,-98.5 157,-128.5 278,-128.5 278,-98.5 157,-98.5"/>
<text text-anchor="start" x="165" y="-116.5" font-family="Helvetica,sans-Serif" font-size="10.00">pfasst::examples::boris</text>
<text text-anchor="middle" x="217.5" y="-105.5" font-family="Helvetica,sans-Serif" font-size="10.00">::run_boris_pfasst</text>
</a>
</g>
</g>
<!-- Node1&#45;&gt;Node2 -->
<g id="edge1" class="edge"><title>Node1&#45;&gt;Node2</title>
<path fill="none" stroke="midnightblue" d="M119.258,-82.7591C135.607,-87.9273 153.211,-93.4924 168.888,-98.4484"/>
<polygon fill="midnightblue" stroke="midnightblue" points="119.86,-79.2785 109.27,-79.6014 117.75,-85.953 119.86,-79.2785"/>
</g>
<!-- Node3 -->
<g id="node3" class="node"><title>Node3</title>
<g id="a_node3"><a xlink:href="../../da/d74/namespacepfasst_1_1examples_1_1boris.html#a8d5b021ed3d567b8abe80a2830aa88f1" target="_top" xlink:title="pfasst::examples::boris\l::run_boris_sdc">
<polygon fill="white" stroke="black" points="157,-49.5 157,-79.5 278,-79.5 278,-49.5 157,-49.5"/>
<text text-anchor="start" x="165" y="-67.5" font-family="Helvetica,sans-Serif" font-size="10.00">pfasst::examples::boris</text>
<text text-anchor="middle" x="217.5" y="-56.5" font-family="Helvetica,sans-Serif" font-size="10.00">::run_boris_sdc</text>
</a>
</g>
</g>
<!-- Node1&#45;&gt;Node3 -->
<g id="edge2" class="edge"><title>Node1&#45;&gt;Node3</title>
<path fill="none" stroke="midnightblue" d="M131.661,-64.5C140.122,-64.5 148.7,-64.5 156.988,-64.5"/>
<polygon fill="midnightblue" stroke="midnightblue" points="131.427,-61.0001 121.427,-64.5 131.427,-68.0001 131.427,-61.0001"/>
</g>
<!-- Node4 -->
<g id="node4" class="node"><title>Node4</title>
<g id="a_node4"><a xlink:href="../../d7/d55/namespacepfasst_1_1examples_1_1boris_1_1bindings.html#a2d1710afe2918425c1ef9e1cdac6ff2d" target="_top" xlink:title="pfasst::examples::boris\l::bindings::setup">
<polygon fill="white" stroke="black" points="157,-0.5 157,-30.5 278,-30.5 278,-0.5 157,-0.5"/>
<text text-anchor="start" x="165" y="-18.5" font-family="Helvetica,sans-Serif" font-size="10.00">pfasst::examples::boris</text>
<text text-anchor="middle" x="217.5" y="-7.5" font-family="Helvetica,sans-Serif" font-size="10.00">::bindings::setup</text>
</a>
</g>
</g>
<!-- Node1&#45;&gt;Node4 -->
<g id="edge3" class="edge"><title>Node1&#45;&gt;Node4</title>
<path fill="none" stroke="midnightblue" d="M119.258,-46.2409C135.607,-41.0727 153.211,-35.5076 168.888,-30.5516"/>
<polygon fill="midnightblue" stroke="midnightblue" points="117.75,-43.047 109.27,-49.3986 119.86,-49.7215 117.75,-43.047"/>
</g>
</g>
</svg>
