<?xml version="1.0" encoding="UTF-8" standalone="no"?>
<!DOCTYPE svg PUBLIC "-//W3C//DTD SVG 1.1//EN"
 "http://www.w3.org/Graphics/SVG/1.1/DTD/svg11.dtd">
<!-- Generated by graphviz version 2.38.0 (20140413.2041)
 -->
<!-- Title: src/pfasst/quadrature/interface_impl.hpp Pages: 1 -->
<svg width="941pt" height="442pt"
 viewBox="0.00 0.00 940.50 442.00" xmlns="http://www.w3.org/2000/svg" xmlns:xlink="http://www.w3.org/1999/xlink">
<g id="graph0" class="graph" transform="scale(1 1) rotate(0) translate(4 438)">
<title>src/pfasst/quadrature/interface_impl.hpp</title>
<polygon fill="white" stroke="none" points="-4,4 -4,-438 936.5,-438 936.5,4 -4,4"/>
<!-- Node1 -->
<g id="node1" class="node"><title>Node1</title>
<polygon fill="#bfbfbf" stroke="black" points="585.5,-403.5 585.5,-433.5 696.5,-433.5 696.5,-403.5 585.5,-403.5"/>
<text text-anchor="start" x="593.5" y="-421.5" font-family="Helvetica,sans-Serif" font-size="10.00">src/pfasst/quadrature</text>
<text text-anchor="middle" x="641" y="-410.5" font-family="Helvetica,sans-Serif" font-size="10.00">/interface_impl.hpp</text>
</g>
<!-- Node2 -->
<g id="node2" class="node"><title>Node2</title>
<g id="a_node2"><a xlink:href="../../df/dea/quadrature_2interface_8hpp.html" target="_top" xlink:title="pfasst/quadrature/interface.hpp">
<polygon fill="white" stroke="black" points="564,-347.5 564,-366.5 718,-366.5 718,-347.5 564,-347.5"/>
<text text-anchor="middle" x="641" y="-354.5" font-family="Helvetica,sans-Serif" font-size="10.00">pfasst/quadrature/interface.hpp</text>
</a>
</g>
</g>
<!-- Node1&#45;&gt;Node2 -->
<g id="edge1" class="edge"><title>Node1&#45;&gt;Node2</title>
<path fill="none" stroke="midnightblue" d="M635.16,-403.399C634.13,-395.377 633.974,-385.233 634.693,-376.569"/>
<polygon fill="midnightblue" stroke="midnightblue" points="638.16,-377.044 636.071,-366.658 631.227,-376.081 638.16,-377.044"/>
</g>
<!-- Node2&#45;&gt;Node1 -->
<g id="edge41" class="edge"><title>Node2&#45;&gt;Node1</title>
<path fill="none" stroke="midnightblue" d="M645.929,-366.658C647.435,-373.655 648.007,-383.857 647.645,-393.289"/>
<polygon fill="midnightblue" stroke="midnightblue" points="644.145,-393.153 646.84,-403.399 651.123,-393.709 644.145,-393.153"/>
</g>
<!-- Node3 -->
<g id="node3" class="node"><title>Node3</title>
<polygon fill="white" stroke="#bfbfbf" points="664,-168.5 664,-187.5 714,-187.5 714,-168.5 664,-168.5"/>
<text text-anchor="middle" x="689" y="-175.5" font-family="Helvetica,sans-Serif" font-size="10.00">cassert</text>
</g>
<!-- Node2&#45;&gt;Node3 -->
<g id="edge2" class="edge"><title>Node2&#45;&gt;Node3</title>
<path fill="none" stroke="midnightblue" d="M643.549,-347.389C646.212,-338.344 650.483,-323.696 654,-311 665.191,-270.597 677.621,-223.029 684.239,-197.472"/>
<polygon fill="midnightblue" stroke="midnightblue" points="687.66,-198.224 686.773,-187.667 680.882,-196.473 687.66,-198.224"/>
</g>
<!-- Node4 -->
<g id="node4" class="node"><title>Node4</title>
<polygon fill="white" stroke="#bfbfbf" points="702,-230 702,-249 746,-249 746,-230 702,-230"/>
<text text-anchor="middle" x="724" y="-237" font-family="Helvetica,sans-Serif" font-size="10.00">vector</text>
</g>
<!-- Node2&#45;&gt;Node4 -->
<g id="edge3" class="edge"><title>Node2&#45;&gt;Node4</title>
<path fill="none" stroke="midnightblue" d="M652.097,-347.237C662.329,-338.756 677.481,-325.139 688,-311 700.146,-294.674 710.284,-273.65 716.675,-258.824"/>
<polygon fill="midnightblue" stroke="midnightblue" points="720.036,-259.856 720.641,-249.279 713.572,-257.17 720.036,-259.856"/>
</g>
<!-- Node5 -->
<g id="node5" class="node"><title>Node5</title>
<polygon fill="white" stroke="#bfbfbf" points="570.5,-291.5 570.5,-310.5 645.5,-310.5 645.5,-291.5 570.5,-291.5"/>
<text text-anchor="middle" x="608" y="-298.5" font-family="Helvetica,sans-Serif" font-size="10.00">Eigen/Dense</text>
</g>
<!-- Node2&#45;&gt;Node5 -->
<g id="edge4" class="edge"><title>Node2&#45;&gt;Node5</title>
<path fill="none" stroke="midnightblue" d="M635.551,-347.083C630.986,-339.613 624.332,-328.724 618.707,-319.52"/>
<polygon fill="midnightblue" stroke="midnightblue" points="621.549,-317.459 613.348,-310.751 615.576,-321.109 621.549,-317.459"/>
</g>
<!-- Node6 -->
<g id="node6" class="node"><title>Node6</title>
<g id="a_node6"><a xlink:href="../../d5/d82/globals_8hpp.html" target="_top" xlink:title="pfasst/globals.hpp">
<polygon fill="white" stroke="black" points="229.5,-168.5 229.5,-187.5 326.5,-187.5 326.5,-168.5 229.5,-168.5"/>
<text text-anchor="middle" x="278" y="-175.5" font-family="Helvetica,sans-Serif" font-size="10.00">pfasst/globals.hpp</text>
</a>
</g>
</g>
<!-- Node2&#45;&gt;Node6 -->
<g id="edge5" class="edge"><title>Node2&#45;&gt;Node6</title>
<path fill="none" stroke="midnightblue" d="M563.955,-351.022C519.302,-345.617 463.162,-334.372 418,-311 362.317,-282.183 313.03,-224.669 290.691,-196.026"/>
<polygon fill="midnightblue" stroke="midnightblue" points="293.266,-193.631 284.411,-187.813 287.706,-197.883 293.266,-193.631"/>
</g>
<!-- Node7 -->
<g id="node7" class="node"><title>Node7</title>
<g id="a_node7"><a xlink:href="../../d1/d1b/interfaces_8hpp.html" target="_top" xlink:title="interfaces for SDC/MLSDC/PFASST algorithms. ">
<polygon fill="white" stroke="black" points="427.5,-291.5 427.5,-310.5 534.5,-310.5 534.5,-291.5 427.5,-291.5"/>
<text text-anchor="middle" x="481" y="-298.5" font-family="Helvetica,sans-Serif" font-size="10.00">pfasst/interfaces.hpp</text>
</a>
</g>
</g>
<!-- Node2&#45;&gt;Node7 -->
<g id="edge6" class="edge"><title>Node2&#45;&gt;Node7</title>
<path fill="none" stroke="midnightblue" d="M615.648,-347.444C588.731,-338.359 546.004,-323.939 515.913,-313.783"/>
<polygon fill="midnightblue" stroke="midnightblue" points="516.828,-310.398 506.234,-310.516 514.59,-317.031 516.828,-310.398"/>
</g>
<!-- Node24 -->
<g id="node24" class="node"><title>Node24</title>
<g id="a_node24"><a xlink:href="../../d0/d3e/polynomial_8hpp.html" target="_top" xlink:title="pfasst/quadrature/polynomial.hpp">
<polygon fill="white" stroke="black" points="751,-291.5 751,-310.5 915,-310.5 915,-291.5 751,-291.5"/>
<text text-anchor="middle" x="833" y="-298.5" font-family="Helvetica,sans-Serif" font-size="10.00">pfasst/quadrature/polynomial.hpp</text>
</a>
</g>
</g>
<!-- Node2&#45;&gt;Node24 -->
<g id="edge33" class="edge"><title>Node2&#45;&gt;Node24</title>
<path fill="none" stroke="midnightblue" d="M671.423,-347.444C704.285,-338.201 756.785,-323.436 792.974,-313.257"/>
<polygon fill="midnightblue" stroke="midnightblue" points="794.04,-316.593 802.719,-310.516 792.145,-309.855 794.04,-316.593"/>
</g>
<!-- Node8 -->
<g id="node8" class="node"><title>Node8</title>
<polygon fill="white" stroke="#bfbfbf" points="344.5,-168.5 344.5,-187.5 397.5,-187.5 397.5,-168.5 344.5,-168.5"/>
<text text-anchor="middle" x="371" y="-175.5" font-family="Helvetica,sans-Serif" font-size="10.00">memory</text>
</g>
<!-- Node7&#45;&gt;Node8 -->
<g id="edge7" class="edge"><title>Node7&#45;&gt;Node8</title>
<path fill="none" stroke="midnightblue" d="M447.469,-291.459C427.654,-284.726 403.652,-273.335 389,-255 375.932,-238.648 372.079,-214.38 371.08,-197.69"/>
<polygon fill="midnightblue" stroke="midnightblue" points="374.573,-197.424 370.765,-187.537 367.577,-197.64 374.573,-197.424"/>
</g>
<!-- Node9 -->
<g id="node9" class="node"><title>Node9</title>
<polygon fill="white" stroke="#bfbfbf" points="548,-230 548,-249 608,-249 608,-230 548,-230"/>
<text text-anchor="middle" x="578" y="-237" font-family="Helvetica,sans-Serif" font-size="10.00">stdexcept</text>
</g>
<!-- Node7&#45;&gt;Node9 -->
<g id="edge8" class="edge"><title>Node7&#45;&gt;Node9</title>
<path fill="none" stroke="midnightblue" d="M494.898,-291.475C510.672,-281.799 536.637,-265.872 555.349,-254.394"/>
<polygon fill="midnightblue" stroke="midnightblue" points="557.434,-257.221 564.128,-249.009 553.774,-251.254 557.434,-257.221"/>
</g>
<!-- Node10 -->
<g id="node10" class="node"><title>Node10</title>
<polygon fill="white" stroke="#bfbfbf" points="558.5,-56.5 558.5,-75.5 599.5,-75.5 599.5,-56.5 558.5,-56.5"/>
<text text-anchor="middle" x="579" y="-63.5" font-family="Helvetica,sans-Serif" font-size="10.00">string</text>
</g>
<!-- Node7&#45;&gt;Node10 -->
<g id="edge9" class="edge"><title>Node7&#45;&gt;Node10</title>
<path fill="none" stroke="midnightblue" d="M534.675,-296.909C564.092,-292.142 598.285,-280.905 617,-255 655.144,-202.201 612.81,-120.326 590.714,-84.6355"/>
<polygon fill="midnightblue" stroke="midnightblue" points="593.437,-82.3969 585.103,-75.8562 587.539,-86.167 593.437,-82.3969"/>
</g>
<!-- Node11 -->
<g id="node11" class="node"><title>Node11</title>
<g id="a_node11"><a xlink:href="../../d8/dc4/interfaces__impl_8hpp.html" target="_top" xlink:title="pfasst/interfaces_impl.hpp">
<polygon fill="white" stroke="black" points="398.5,-230 398.5,-249 529.5,-249 529.5,-230 398.5,-230"/>
<text text-anchor="middle" x="464" y="-237" font-family="Helvetica,sans-Serif" font-size="10.00">pfasst/interfaces_impl.hpp</text>
</a>
</g>
</g>
<!-- Node7&#45;&gt;Node11 -->
<g id="edge10" class="edge"><title>Node7&#45;&gt;Node11</title>
<path fill="none" stroke="midnightblue" d="M473.664,-291.475C469.434,-283.08 465.22,-269.981 463.017,-259.163"/>
<polygon fill="midnightblue" stroke="midnightblue" points="466.443,-258.398 461.534,-249.009 459.516,-259.41 466.443,-258.398"/>
</g>
<!-- Node11&#45;&gt;Node3 -->
<g id="edge12" class="edge"><title>Node11&#45;&gt;Node3</title>
<path fill="none" stroke="midnightblue" d="M496.237,-229.975C538.085,-218.909 610.85,-199.666 654.006,-188.254"/>
<polygon fill="midnightblue" stroke="midnightblue" points="655.011,-191.609 663.783,-185.668 653.221,-184.841 655.011,-191.609"/>
</g>
<!-- Node11&#45;&gt;Node6 -->
<g id="edge15" class="edge"><title>Node11&#45;&gt;Node6</title>
<path fill="none" stroke="midnightblue" d="M437.351,-229.975C405.031,-219.636 350.403,-202.161 314.267,-190.602"/>
<polygon fill="midnightblue" stroke="midnightblue" points="315.191,-187.222 304.6,-187.509 313.058,-193.89 315.191,-187.222"/>
</g>
<!-- Node11&#45;&gt;Node7 -->
<g id="edge11" class="edge"><title>Node11&#45;&gt;Node7</title>
<path fill="none" stroke="midnightblue" d="M471.328,-249.009C475.558,-257.398 479.773,-270.496 481.978,-281.317"/>
<polygon fill="midnightblue" stroke="midnightblue" points="478.554,-282.087 483.465,-291.475 485.48,-281.074 478.554,-282.087"/>
</g>
<!-- Node11&#45;&gt;Node8 -->
<g id="edge13" class="edge"><title>Node11&#45;&gt;Node8</title>
<path fill="none" stroke="midnightblue" d="M450.675,-229.975C435.62,-220.343 410.884,-204.517 392.963,-193.052"/>
<polygon fill="midnightblue" stroke="midnightblue" points="394.61,-189.95 384.3,-187.509 390.837,-195.847 394.61,-189.95"/>
</g>
<!-- Node11&#45;&gt;Node10 -->
<g id="edge14" class="edge"><title>Node11&#45;&gt;Node10</title>
<path fill="none" stroke="midnightblue" d="M475.962,-229.839C497.536,-213.471 542.608,-175.692 563,-132 569.912,-117.191 574.058,-99.0377 576.391,-85.6832"/>
<polygon fill="midnightblue" stroke="midnightblue" points="579.854,-86.1944 577.946,-75.7728 572.938,-85.1096 579.854,-86.1944"/>
</g>
<!-- Node12 -->
<g id="node12" class="node"><title>Node12</title>
<g id="a_node12"><a xlink:href="../../d0/da9/logging_8hpp.html" target="_top" xlink:title="pfasst/logging.hpp">
<polygon fill="white" stroke="black" points="415,-168.5 415,-187.5 513,-187.5 513,-168.5 415,-168.5"/>
<text text-anchor="middle" x="464" y="-175.5" font-family="Helvetica,sans-Serif" font-size="10.00">pfasst/logging.hpp</text>
</a>
</g>
</g>
<!-- Node11&#45;&gt;Node12 -->
<g id="edge16" class="edge"><title>Node11&#45;&gt;Node12</title>
<path fill="none" stroke="midnightblue" d="M464,-229.975C464,-221.58 464,-208.481 464,-197.663"/>
<polygon fill="midnightblue" stroke="midnightblue" points="467.5,-197.509 464,-187.509 460.5,-197.509 467.5,-197.509"/>
</g>
<!-- Node12&#45;&gt;Node10 -->
<g id="edge19" class="edge"><title>Node12&#45;&gt;Node10</title>
<path fill="none" stroke="midnightblue" d="M484.898,-168.382C501.591,-160.711 524.795,-148.203 541,-132 554.406,-118.596 564.819,-99.5172 571.327,-85.4958"/>
<polygon fill="midnightblue" stroke="midnightblue" points="574.708,-86.5003 575.527,-75.9371 568.3,-83.684 574.708,-86.5003"/>
</g>
<!-- Node13 -->
<g id="node13" class="node"><title>Node13</title>
<polygon fill="white" stroke="#bfbfbf" points="81,-112.5 81,-131.5 133,-131.5 133,-112.5 81,-112.5"/>
<text text-anchor="middle" x="107" y="-119.5" font-family="Helvetica,sans-Serif" font-size="10.00">iomanip</text>
</g>
<!-- Node12&#45;&gt;Node13 -->
<g id="edge17" class="edge"><title>Node12&#45;&gt;Node13</title>
<path fill="none" stroke="midnightblue" d="M414.962,-169.326C411.93,-168.871 408.924,-168.426 406,-168 292.023,-151.387 259.946,-154.588 143.337,-132.073"/>
<polygon fill="midnightblue" stroke="midnightblue" points="143.784,-128.594 133.299,-130.112 142.442,-135.464 143.784,-128.594"/>
</g>
<!-- Node14 -->
<g id="node14" class="node"><title>Node14</title>
<polygon fill="white" stroke="#bfbfbf" points="0,-56.5 0,-75.5 56,-75.5 56,-56.5 0,-56.5"/>
<text text-anchor="middle" x="28" y="-63.5" font-family="Helvetica,sans-Serif" font-size="10.00">iostream</text>
</g>
<!-- Node12&#45;&gt;Node14 -->
<g id="edge18" class="edge"><title>Node12&#45;&gt;Node14</title>
<path fill="none" stroke="midnightblue" d="M414.975,-169.228C411.94,-168.798 408.93,-168.385 406,-168 331.984,-158.274 135.97,-170.48 72,-132 54.1631,-121.27 41.9468,-100.203 34.9942,-84.9552"/>
<polygon fill="midnightblue" stroke="midnightblue" points="38.1287,-83.3805 31.0174,-75.5269 31.679,-86.1011 38.1287,-83.3805"/>
</g>
<!-- Node15 -->
<g id="node15" class="node"><title>Node15</title>
<polygon fill="white" stroke="#bfbfbf" points="260.5,-112.5 260.5,-131.5 391.5,-131.5 391.5,-112.5 260.5,-112.5"/>
<text text-anchor="middle" x="326" y="-119.5" font-family="Helvetica,sans-Serif" font-size="10.00">boost/algorithm/string.hpp</text>
</g>
<!-- Node12&#45;&gt;Node15 -->
<g id="edge20" class="edge"><title>Node12&#45;&gt;Node15</title>
<path fill="none" stroke="midnightblue" d="M442.133,-168.444C419.221,-159.478 383.025,-145.314 357.134,-135.183"/>
<polygon fill="midnightblue" stroke="midnightblue" points="358.352,-131.901 347.764,-131.516 355.801,-138.42 358.352,-131.901"/>
</g>
<!-- Node16 -->
<g id="node16" class="node"><title>Node16</title>
<g id="a_node16"><a xlink:href="../../d8/dfd/config_8hpp.html" target="_top" xlink:title="pfasst/config.hpp">
<polygon fill="white" stroke="black" points="151.5,-112.5 151.5,-131.5 242.5,-131.5 242.5,-112.5 151.5,-112.5"/>
<text text-anchor="middle" x="197" y="-119.5" font-family="Helvetica,sans-Serif" font-size="10.00">pfasst/config.hpp</text>
</a>
</g>
</g>
<!-- Node12&#45;&gt;Node16 -->
<g id="edge21" class="edge"><title>Node12&#45;&gt;Node16</title>
<path fill="none" stroke="midnightblue" d="M421.693,-168.444C374.92,-158.984 299.54,-143.738 249.15,-133.547"/>
<polygon fill="midnightblue" stroke="midnightblue" points="249.604,-130.068 239.109,-131.516 248.217,-136.929 249.604,-130.068"/>
</g>
<!-- Node23 -->
<g id="node23" class="node"><title>Node23</title>
<polygon fill="white" stroke="#bfbfbf" points="410,-112.5 410,-131.5 532,-131.5 532,-112.5 410,-112.5"/>
<text text-anchor="middle" x="471" y="-119.5" font-family="Helvetica,sans-Serif" font-size="10.00">pfasst/easylogging++.h</text>
</g>
<!-- Node12&#45;&gt;Node23 -->
<g id="edge32" class="edge"><title>Node12&#45;&gt;Node23</title>
<path fill="none" stroke="midnightblue" d="M465.156,-168.083C466.084,-160.927 467.418,-150.635 468.577,-141.691"/>
<polygon fill="midnightblue" stroke="midnightblue" points="472.051,-142.118 469.866,-131.751 465.109,-141.218 472.051,-142.118"/>
</g>
<!-- Node16&#45;&gt;Node10 -->
<g id="edge24" class="edge"><title>Node16&#45;&gt;Node10</title>
<path fill="none" stroke="midnightblue" d="M242.65,-113.297C245.474,-112.85 248.275,-112.414 251,-112 360.133,-95.4229 490.116,-78.3927 548.25,-70.9183"/>
<polygon fill="midnightblue" stroke="midnightblue" points="548.774,-74.3799 558.247,-69.6362 547.883,-67.4368 548.774,-74.3799"/>
</g>
<!-- Node16&#45;&gt;Node14 -->
<g id="edge23" class="edge"><title>Node16&#45;&gt;Node14</title>
<path fill="none" stroke="midnightblue" d="M170.221,-112.444C141.667,-103.32 96.2674,-88.8133 64.4631,-78.6509"/>
<polygon fill="midnightblue" stroke="midnightblue" points="65.2441,-75.2262 54.6533,-75.5164 63.1135,-81.8941 65.2441,-75.2262"/>
</g>
<!-- Node17 -->
<g id="node17" class="node"><title>Node17</title>
<polygon fill="white" stroke="#bfbfbf" points="395,-0.5 395,-19.5 445,-19.5 445,-0.5 395,-0.5"/>
<text text-anchor="middle" x="420" y="-7.5" font-family="Helvetica,sans-Serif" font-size="10.00">fstream</text>
</g>
<!-- Node16&#45;&gt;Node17 -->
<g id="edge22" class="edge"><title>Node16&#45;&gt;Node17</title>
<path fill="none" stroke="midnightblue" d="M242.743,-112.515C302.758,-101.191 401.199,-81.8814 407,-76 418.861,-63.9754 421.395,-44.3743 421.398,-29.8362"/>
<polygon fill="midnightblue" stroke="midnightblue" points="424.882,-29.3569 420.987,-19.5038 417.887,-29.6349 424.882,-29.3569"/>
</g>
<!-- Node18 -->
<g id="node18" class="node"><title>Node18</title>
<polygon fill="white" stroke="#bfbfbf" points="74,-56.5 74,-75.5 110,-75.5 110,-56.5 74,-56.5"/>
<text text-anchor="middle" x="92" y="-63.5" font-family="Helvetica,sans-Serif" font-size="10.00">map</text>
</g>
<!-- Node16&#45;&gt;Node18 -->
<g id="edge25" class="edge"><title>Node16&#45;&gt;Node18</title>
<path fill="none" stroke="midnightblue" d="M180.13,-112.324C163.291,-103.664 137.193,-90.2424 117.762,-80.249"/>
<polygon fill="midnightblue" stroke="midnightblue" points="119.322,-77.1155 108.828,-75.6545 116.12,-83.3405 119.322,-77.1155"/>
</g>
<!-- Node19 -->
<g id="node19" class="node"><title>Node19</title>
<polygon fill="white" stroke="#bfbfbf" points="128.5,-56.5 128.5,-75.5 265.5,-75.5 265.5,-56.5 128.5,-56.5"/>
<text text-anchor="middle" x="197" y="-63.5" font-family="Helvetica,sans-Serif" font-size="10.00">boost/program_options.hpp</text>
</g>
<!-- Node16&#45;&gt;Node19 -->
<g id="edge26" class="edge"><title>Node16&#45;&gt;Node19</title>
<path fill="none" stroke="midnightblue" d="M197,-112.083C197,-105.006 197,-94.8611 197,-85.9865"/>
<polygon fill="midnightblue" stroke="midnightblue" points="200.5,-85.751 197,-75.7511 193.5,-85.7511 200.5,-85.751"/>
</g>
<!-- Node20 -->
<g id="node20" class="node"><title>Node20</title>
<g id="a_node20"><a xlink:href="../../d5/d84/config__impl_8hpp.html" target="_top" xlink:title="pfasst/config_impl.hpp">
<polygon fill="white" stroke="black" points="284,-56.5 284,-75.5 398,-75.5 398,-56.5 284,-56.5"/>
<text text-anchor="middle" x="341" y="-63.5" font-family="Helvetica,sans-Serif" font-size="10.00">pfasst/config_impl.hpp</text>
</a>
</g>
</g>
<!-- Node16&#45;&gt;Node20 -->
<g id="edge27" class="edge"><title>Node16&#45;&gt;Node20</title>
<path fill="none" stroke="midnightblue" d="M214.728,-112.444C236.864,-103.399 274.883,-89.064 303.515,-78.9158"/>
<polygon fill="midnightblue" stroke="midnightblue" points="304.931,-82.1283 313.21,-75.5164 302.615,-75.5226 304.931,-82.1283"/>
</g>
<!-- Node20&#45;&gt;Node16 -->
<g id="edge28" class="edge"><title>Node20&#45;&gt;Node16</title>
<path fill="none" stroke="midnightblue" d="M323.369,-75.5164C301.281,-84.5457 263.272,-98.8786 234.612,-109.039"/>
<polygon fill="midnightblue" stroke="midnightblue" points="233.184,-105.831 224.906,-112.444 235.501,-112.436 233.184,-105.831"/>
</g>
<!-- Node20&#45;&gt;Node17 -->
<g id="edge29" class="edge"><title>Node20&#45;&gt;Node17</title>
<path fill="none" stroke="midnightblue" d="M353.693,-56.324C365.901,-47.979 384.578,-35.2122 399.003,-25.3524"/>
<polygon fill="midnightblue" stroke="midnightblue" points="401.058,-28.1871 407.339,-19.6545 397.108,-22.4082 401.058,-28.1871"/>
</g>
<!-- Node21 -->
<g id="node21" class="node"><title>Node21</title>
<polygon fill="white" stroke="#bfbfbf" points="256.5,-0.5 256.5,-19.5 309.5,-19.5 309.5,-0.5 256.5,-0.5"/>
<text text-anchor="middle" x="283" y="-7.5" font-family="Helvetica,sans-Serif" font-size="10.00">sstream</text>
</g>
<!-- Node20&#45;&gt;Node21 -->
<g id="edge30" class="edge"><title>Node20&#45;&gt;Node21</title>
<path fill="none" stroke="midnightblue" d="M331.681,-56.324C323.107,-48.3414 310.188,-36.3128 299.812,-26.6529"/>
<polygon fill="midnightblue" stroke="midnightblue" points="302.192,-24.0865 292.488,-19.8339 297.422,-29.2098 302.192,-24.0865"/>
</g>
<!-- Node22 -->
<g id="node22" class="node"><title>Node22</title>
<polygon fill="white" stroke="#bfbfbf" points="328,-0.5 328,-19.5 366,-19.5 366,-0.5 328,-0.5"/>
<text text-anchor="middle" x="347" y="-7.5" font-family="Helvetica,sans-Serif" font-size="10.00">utility</text>
</g>
<!-- Node20&#45;&gt;Node22 -->
<g id="edge31" class="edge"><title>Node20&#45;&gt;Node22</title>
<path fill="none" stroke="midnightblue" d="M341.991,-56.083C342.786,-48.9272 343.929,-38.6353 344.923,-29.6911"/>
<polygon fill="midnightblue" stroke="midnightblue" points="348.402,-30.0765 346.028,-19.7511 341.445,-29.3034 348.402,-30.0765"/>
</g>
<!-- Node24&#45;&gt;Node4 -->
<g id="edge34" class="edge"><title>Node24&#45;&gt;Node4</title>
<path fill="none" stroke="midnightblue" d="M817.383,-291.475C799.414,-281.666 769.679,-265.435 748.594,-253.925"/>
<polygon fill="midnightblue" stroke="midnightblue" points="750.042,-250.728 739.588,-249.009 746.689,-256.873 750.042,-250.728"/>
</g>
<!-- Node25 -->
<g id="node25" class="node"><title>Node25</title>
<g id="a_node25"><a xlink:href="../../dc/de8/polynomial__impl_8hpp.html" target="_top" xlink:title="pfasst/quadrature/polynomial\l_impl.hpp">
<polygon fill="white" stroke="black" points="764,-224.5 764,-254.5 910,-254.5 910,-224.5 764,-224.5"/>
<text text-anchor="start" x="772" y="-242.5" font-family="Helvetica,sans-Serif" font-size="10.00">pfasst/quadrature/polynomial</text>
<text text-anchor="middle" x="837" y="-231.5" font-family="Helvetica,sans-Serif" font-size="10.00">_impl.hpp</text>
</a>
</g>
</g>
<!-- Node24&#45;&gt;Node25 -->
<g id="edge35" class="edge"><title>Node24&#45;&gt;Node25</title>
<path fill="none" stroke="midnightblue" d="M828.673,-291.475C827.616,-284.471 827.726,-274.192 828.729,-264.696"/>
<polygon fill="midnightblue" stroke="midnightblue" points="832.233,-264.926 830.227,-254.523 825.307,-263.906 832.233,-264.926"/>
</g>
<!-- Node25&#45;&gt;Node3 -->
<g id="edge38" class="edge"><title>Node25&#45;&gt;Node3</title>
<path fill="none" stroke="midnightblue" d="M801.926,-224.399C776.983,-214.372 743.792,-201.028 719.856,-191.405"/>
<polygon fill="midnightblue" stroke="midnightblue" points="721.119,-188.141 710.535,-187.658 718.508,-194.635 721.119,-188.141"/>
</g>
<!-- Node25&#45;&gt;Node24 -->
<g id="edge36" class="edge"><title>Node25&#45;&gt;Node24</title>
<path fill="none" stroke="midnightblue" d="M841.887,-254.523C842.388,-262.586 841.857,-272.813 840.541,-281.526"/>
<polygon fill="midnightblue" stroke="midnightblue" points="837.082,-280.972 838.474,-291.475 843.935,-282.396 837.082,-280.972"/>
</g>
<!-- Node26 -->
<g id="node26" class="node"><title>Node26</title>
<polygon fill="white" stroke="#bfbfbf" points="739,-168.5 739,-187.5 797,-187.5 797,-168.5 739,-168.5"/>
<text text-anchor="middle" x="768" y="-175.5" font-family="Helvetica,sans-Serif" font-size="10.00">algorithm</text>
</g>
<!-- Node25&#45;&gt;Node26 -->
<g id="edge37" class="edge"><title>Node25&#45;&gt;Node26</title>
<path fill="none" stroke="midnightblue" d="M820.648,-224.399C810.105,-215.308 796.4,-203.49 785.616,-194.191"/>
<polygon fill="midnightblue" stroke="midnightblue" points="787.899,-191.538 778.04,-187.658 783.328,-196.839 787.899,-191.538"/>
</g>
<!-- Node27 -->
<g id="node27" class="node"><title>Node27</title>
<polygon fill="white" stroke="#bfbfbf" points="815,-168.5 815,-187.5 859,-187.5 859,-168.5 815,-168.5"/>
<text text-anchor="middle" x="837" y="-175.5" font-family="Helvetica,sans-Serif" font-size="10.00">cmath</text>
</g>
<!-- Node25&#45;&gt;Node27 -->
<g id="edge39" class="edge"><title>Node25&#45;&gt;Node27</title>
<path fill="none" stroke="midnightblue" d="M837,-224.399C837,-216.466 837,-206.458 837,-197.858"/>
<polygon fill="midnightblue" stroke="midnightblue" points="840.5,-197.658 837,-187.658 833.5,-197.658 840.5,-197.658"/>
</g>
<!-- Node28 -->
<g id="node28" class="node"><title>Node28</title>
<polygon fill="white" stroke="#bfbfbf" points="877.5,-168.5 877.5,-187.5 932.5,-187.5 932.5,-168.5 877.5,-168.5"/>
<text text-anchor="middle" x="905" y="-175.5" font-family="Helvetica,sans-Serif" font-size="10.00">complex</text>
</g>
<!-- Node25&#45;&gt;Node28 -->
<g id="edge40" class="edge"><title>Node25&#45;&gt;Node28</title>
<path fill="none" stroke="midnightblue" d="M853.115,-224.399C863.404,-215.397 876.747,-203.721 887.326,-194.465"/>
<polygon fill="midnightblue" stroke="midnightblue" points="889.884,-196.877 895.105,-187.658 885.275,-191.609 889.884,-196.877"/>
</g>
</g>
</svg>
