<?xml version="1.0" encoding="UTF-8" standalone="no"?>
<!DOCTYPE svg PUBLIC "-//W3C//DTD SVG 1.1//EN"
 "http://www.w3.org/Graphics/SVG/1.1/DTD/svg11.dtd">
<!-- Generated by graphviz version 2.38.0 (20140413.2041)
 -->
<!-- Title: pfasst::mpi::MPICommunicator::size Pages: 1 -->
<svg width="313pt" height="88pt"
 viewBox="0.00 0.00 313.00 88.00" xmlns="http://www.w3.org/2000/svg" xmlns:xlink="http://www.w3.org/1999/xlink">
<g id="graph0" class="graph" transform="scale(1 1) rotate(0) translate(4 84)">
<title>pfasst::mpi::MPICommunicator::size</title>
<polygon fill="white" stroke="none" points="-4,4 -4,-84 309,-84 309,4 -4,4"/>
<!-- Node1 -->
<g id="node1" class="node"><title>Node1</title>
<polygon fill="#bfbfbf" stroke="black" points="0,-24.5 0,-54.5 153,-54.5 153,-24.5 0,-24.5"/>
<text text-anchor="start" x="8" y="-42.5" font-family="Helvetica,sans-Serif" font-size="10.00">pfasst::mpi::MPICommunicator</text>
<text text-anchor="middle" x="76.5" y="-31.5" font-family="Helvetica,sans-Serif" font-size="10.00">::size</text>
</g>
<!-- Node2 -->
<g id="node2" class="node"><title>Node2</title>
<g id="a_node2"><a xlink:href="../../da/d7a/classpfasst_1_1mpi_1_1MPIStatus.html#a08fd7af69e979573df74ac9b3d334c3a" target="_top" xlink:title="pfasst::mpi::MPIStatus\l::recv">
<polygon fill="white" stroke="black" points="189,-49.5 189,-79.5 305,-79.5 305,-49.5 189,-49.5"/>
<text text-anchor="start" x="197" y="-67.5" font-family="Helvetica,sans-Serif" font-size="10.00">pfasst::mpi::MPIStatus</text>
<text text-anchor="middle" x="247" y="-56.5" font-family="Helvetica,sans-Serif" font-size="10.00">::recv</text>
</a>
</g>
</g>
<!-- Node1&#45;&gt;Node2 -->
<g id="edge1" class="edge"><title>Node1&#45;&gt;Node2</title>
<path fill="none" stroke="midnightblue" d="M163.5,-52.2596C172.138,-53.5412 180.751,-54.8192 188.977,-56.0395"/>
<polygon fill="midnightblue" stroke="midnightblue" points="163.776,-48.7623 153.37,-50.7567 162.748,-55.6865 163.776,-48.7623"/>
</g>
<!-- Node3 -->
<g id="node3" class="node"><title>Node3</title>
<g id="a_node3"><a xlink:href="../../da/d7a/classpfasst_1_1mpi_1_1MPIStatus.html#a8490da240fc0be2433b2f679dad12399" target="_top" xlink:title="pfasst::mpi::MPIStatus\l::send">
<polygon fill="white" stroke="black" points="189,-0.5 189,-30.5 305,-30.5 305,-0.5 189,-0.5"/>
<text text-anchor="start" x="197" y="-18.5" font-family="Helvetica,sans-Serif" font-size="10.00">pfasst::mpi::MPIStatus</text>
<text text-anchor="middle" x="247" y="-7.5" font-family="Helvetica,sans-Serif" font-size="10.00">::send</text>
</a>
</g>
</g>
<!-- Node1&#45;&gt;Node3 -->
<g id="edge2" class="edge"><title>Node1&#45;&gt;Node3</title>
<path fill="none" stroke="midnightblue" d="M163.5,-27.2508C172.138,-26.0204 180.751,-24.7936 188.977,-23.622"/>
<polygon fill="midnightblue" stroke="midnightblue" points="162.777,-23.8183 153.37,-28.6936 163.764,-30.7484 162.777,-23.8183"/>
</g>
</g>
</svg>
