<?xml version="1.0" encoding="UTF-8" standalone="no"?>
<!DOCTYPE svg PUBLIC "-//W3C//DTD SVG 1.1//EN"
 "http://www.w3.org/Graphics/SVG/1.1/DTD/svg11.dtd">
<!-- Generated by graphviz version 2.38.0 (20140413.2041)
 -->
<!-- Title: pfasst::mpi::MPIStatus::recv Pages: 1 -->
<svg width="313pt" height="225pt"
 viewBox="0.00 0.00 313.00 225.00" xmlns="http://www.w3.org/2000/svg" xmlns:xlink="http://www.w3.org/1999/xlink">
<g id="graph0" class="graph" transform="scale(1 1) rotate(0) translate(4 221)">
<title>pfasst::mpi::MPIStatus::recv</title>
<polygon fill="white" stroke="none" points="-4,4 -4,-221 309,-221 309,4 -4,4"/>
<!-- Node1 -->
<g id="node1" class="node"><title>Node1</title>
<polygon fill="#bfbfbf" stroke="black" points="0,-93.5 0,-123.5 116,-123.5 116,-93.5 0,-93.5"/>
<text text-anchor="start" x="8" y="-111.5" font-family="Helvetica,sans-Serif" font-size="10.00">pfasst::mpi::MPIStatus</text>
<text text-anchor="middle" x="58" y="-100.5" font-family="Helvetica,sans-Serif" font-size="10.00">::recv</text>
</g>
<!-- Node2 -->
<g id="node2" class="node"><title>Node2</title>
<g id="a_node2"><a xlink:href="../../dd/d0f/group__Utilities.html#ga186af383a1821e2a59ccc6888b77f278" target="_top" xlink:title="checks MPI error code ">
<polygon fill="white" stroke="black" points="179.5,-186.5 179.5,-216.5 277.5,-216.5 277.5,-186.5 179.5,-186.5"/>
<text text-anchor="start" x="187.5" y="-204.5" font-family="Helvetica,sans-Serif" font-size="10.00">pfasst::mpi::check</text>
<text text-anchor="middle" x="228.5" y="-193.5" font-family="Helvetica,sans-Serif" font-size="10.00">_mpi_error</text>
</a>
</g>
</g>
<!-- Node1&#45;&gt;Node2 -->
<g id="edge1" class="edge"><title>Node1&#45;&gt;Node2</title>
<path fill="none" stroke="midnightblue" d="M75.6815,-123.575C93.4666,-138.972 123.007,-162.661 152,-177.5 157.624,-180.379 163.661,-182.997 169.782,-185.356"/>
<polygon fill="midnightblue" stroke="midnightblue" points="168.827,-188.732 179.421,-188.849 171.212,-182.151 168.827,-188.732"/>
</g>
<!-- Node3 -->
<g id="node3" class="node"><title>Node3</title>
<g id="a_node3"><a xlink:href="../../da/d7a/classpfasst_1_1mpi_1_1MPIStatus.html#adbbf83f4e597c23029bdf282b8b7b0cc" target="_top" xlink:title="Retreive converged state for specific processor. ">
<polygon fill="white" stroke="black" points="170.5,-137.5 170.5,-167.5 286.5,-167.5 286.5,-137.5 170.5,-137.5"/>
<text text-anchor="start" x="178.5" y="-155.5" font-family="Helvetica,sans-Serif" font-size="10.00">pfasst::mpi::MPIStatus</text>
<text text-anchor="middle" x="228.5" y="-144.5" font-family="Helvetica,sans-Serif" font-size="10.00">::get_converged</text>
</a>
</g>
</g>
<!-- Node1&#45;&gt;Node3 -->
<g id="edge2" class="edge"><title>Node1&#45;&gt;Node3</title>
<path fill="none" stroke="midnightblue" d="M116.046,-123.396C130.242,-127.103 145.593,-131.112 160.229,-134.934"/>
<polygon fill="midnightblue" stroke="midnightblue" points="159.666,-138.404 170.226,-137.544 161.435,-131.631 159.666,-138.404"/>
</g>
<!-- Node4 -->
<g id="node4" class="node"><title>Node4</title>
<g id="a_node4"><a xlink:href="../../dd/d0f/group__Utilities.html#gaf83ba533d756f0f5c25a2717aaa54e41" target="_top" xlink:title="creates and initializes a new empty MPI_Status object ">
<polygon fill="white" stroke="black" points="177.5,-99 177.5,-118 279.5,-118 279.5,-99 177.5,-99"/>
<text text-anchor="middle" x="228.5" y="-106" font-family="Helvetica,sans-Serif" font-size="10.00">MPI_Status_factory</text>
</a>
</g>
</g>
<!-- Node1&#45;&gt;Node4 -->
<g id="edge3" class="edge"><title>Node1&#45;&gt;Node4</title>
<path fill="none" stroke="midnightblue" d="M116.046,-108.5C132.492,-108.5 150.487,-108.5 167.127,-108.5"/>
<polygon fill="midnightblue" stroke="midnightblue" points="167.287,-112 177.287,-108.5 167.287,-105 167.287,-112"/>
</g>
<!-- Node5 -->
<g id="node5" class="node"><title>Node5</title>
<g id="a_node5"><a xlink:href="../../de/dd3/classpfasst_1_1mpi_1_1MPICommunicator.html#a2fd0852dd4f60e36ed755b88574fc036" target="_top" xlink:title="pfasst::mpi::MPICommunicator\l::rank">
<polygon fill="white" stroke="black" points="152,-49.5 152,-79.5 305,-79.5 305,-49.5 152,-49.5"/>
<text text-anchor="start" x="160" y="-67.5" font-family="Helvetica,sans-Serif" font-size="10.00">pfasst::mpi::MPICommunicator</text>
<text text-anchor="middle" x="228.5" y="-56.5" font-family="Helvetica,sans-Serif" font-size="10.00">::rank</text>
</a>
</g>
</g>
<!-- Node1&#45;&gt;Node5 -->
<g id="edge4" class="edge"><title>Node1&#45;&gt;Node5</title>
<path fill="none" stroke="midnightblue" d="M116.046,-93.6036C130.165,-89.9169 145.425,-85.9321 159.989,-82.1289"/>
<polygon fill="midnightblue" stroke="midnightblue" points="161.148,-85.4438 169.939,-79.5308 159.379,-78.6709 161.148,-85.4438"/>
</g>
<!-- Node6 -->
<g id="node6" class="node"><title>Node6</title>
<g id="a_node6"><a xlink:href="../../de/dd3/classpfasst_1_1mpi_1_1MPICommunicator.html#afc7544a0e0780489e35080c721afa86f" target="_top" xlink:title="pfasst::mpi::MPICommunicator\l::size">
<polygon fill="white" stroke="black" points="152,-0.5 152,-30.5 305,-30.5 305,-0.5 152,-0.5"/>
<text text-anchor="start" x="160" y="-18.5" font-family="Helvetica,sans-Serif" font-size="10.00">pfasst::mpi::MPICommunicator</text>
<text text-anchor="middle" x="228.5" y="-7.5" font-family="Helvetica,sans-Serif" font-size="10.00">::size</text>
</a>
</g>
</g>
<!-- Node1&#45;&gt;Node6 -->
<g id="edge5" class="edge"><title>Node1&#45;&gt;Node6</title>
<path fill="none" stroke="midnightblue" d="M76.0884,-93.448C93.9682,-78.3379 123.371,-55.2433 152,-40.5 156.3,-38.2855 160.837,-36.2089 165.466,-34.274"/>
<polygon fill="midnightblue" stroke="midnightblue" points="167.025,-37.4216 175.049,-30.5024 164.462,-30.9079 167.025,-37.4216"/>
</g>
</g>
</svg>
