<?xml version="1.0" encoding="UTF-8" standalone="no"?>
<!DOCTYPE svg PUBLIC "-//W3C//DTD SVG 1.1//EN"
 "http://www.w3.org/Graphics/SVG/1.1/DTD/svg11.dtd">
<!-- Generated by graphviz version 2.38.0 (20140413.2041)
 -->
<!-- Title: pfasst::mpi::MPIStatus::send Pages: 1 -->
<svg width="313pt" height="137pt"
 viewBox="0.00 0.00 313.00 137.00" xmlns="http://www.w3.org/2000/svg" xmlns:xlink="http://www.w3.org/1999/xlink">
<g id="graph0" class="graph" transform="scale(1 1) rotate(0) translate(4 133)">
<title>pfasst::mpi::MPIStatus::send</title>
<polygon fill="white" stroke="none" points="-4,4 -4,-133 309,-133 309,4 -4,4"/>
<!-- Node1 -->
<g id="node1" class="node"><title>Node1</title>
<polygon fill="#bfbfbf" stroke="black" points="0,-49.5 0,-79.5 116,-79.5 116,-49.5 0,-49.5"/>
<text text-anchor="start" x="8" y="-67.5" font-family="Helvetica,sans-Serif" font-size="10.00">pfasst::mpi::MPIStatus</text>
<text text-anchor="middle" x="58" y="-56.5" font-family="Helvetica,sans-Serif" font-size="10.00">::send</text>
</g>
<!-- Node2 -->
<g id="node2" class="node"><title>Node2</title>
<g id="a_node2"><a xlink:href="../../dd/d0f/group__Utilities.html#ga186af383a1821e2a59ccc6888b77f278" target="_top" xlink:title="checks MPI error code ">
<polygon fill="white" stroke="black" points="179.5,-98.5 179.5,-128.5 277.5,-128.5 277.5,-98.5 179.5,-98.5"/>
<text text-anchor="start" x="187.5" y="-116.5" font-family="Helvetica,sans-Serif" font-size="10.00">pfasst::mpi::check</text>
<text text-anchor="middle" x="228.5" y="-105.5" font-family="Helvetica,sans-Serif" font-size="10.00">_mpi_error</text>
</a>
</g>
</g>
<!-- Node1&#45;&gt;Node2 -->
<g id="edge1" class="edge"><title>Node1&#45;&gt;Node2</title>
<path fill="none" stroke="midnightblue" d="M110.93,-79.6014C129.54,-85.0132 150.63,-91.1461 169.706,-96.6933"/>
<polygon fill="midnightblue" stroke="midnightblue" points="168.894,-100.102 179.474,-99.5339 170.849,-93.3807 168.894,-100.102"/>
</g>
<!-- Node3 -->
<g id="node3" class="node"><title>Node3</title>
<g id="a_node3"><a xlink:href="../../de/dd3/classpfasst_1_1mpi_1_1MPICommunicator.html#a2fd0852dd4f60e36ed755b88574fc036" target="_top" xlink:title="pfasst::mpi::MPICommunicator\l::rank">
<polygon fill="white" stroke="black" points="152,-49.5 152,-79.5 305,-79.5 305,-49.5 152,-49.5"/>
<text text-anchor="start" x="160" y="-67.5" font-family="Helvetica,sans-Serif" font-size="10.00">pfasst::mpi::MPICommunicator</text>
<text text-anchor="middle" x="228.5" y="-56.5" font-family="Helvetica,sans-Serif" font-size="10.00">::rank</text>
</a>
</g>
</g>
<!-- Node1&#45;&gt;Node3 -->
<g id="edge2" class="edge"><title>Node1&#45;&gt;Node3</title>
<path fill="none" stroke="midnightblue" d="M116.046,-64.5C124.35,-64.5 133.048,-64.5 141.767,-64.5"/>
<polygon fill="midnightblue" stroke="midnightblue" points="141.991,-68.0001 151.991,-64.5 141.991,-61.0001 141.991,-68.0001"/>
</g>
<!-- Node4 -->
<g id="node4" class="node"><title>Node4</title>
<g id="a_node4"><a xlink:href="../../de/dd3/classpfasst_1_1mpi_1_1MPICommunicator.html#afc7544a0e0780489e35080c721afa86f" target="_top" xlink:title="pfasst::mpi::MPICommunicator\l::size">
<polygon fill="white" stroke="black" points="152,-0.5 152,-30.5 305,-30.5 305,-0.5 152,-0.5"/>
<text text-anchor="start" x="160" y="-18.5" font-family="Helvetica,sans-Serif" font-size="10.00">pfasst::mpi::MPICommunicator</text>
<text text-anchor="middle" x="228.5" y="-7.5" font-family="Helvetica,sans-Serif" font-size="10.00">::size</text>
</a>
</g>
</g>
<!-- Node1&#45;&gt;Node4 -->
<g id="edge3" class="edge"><title>Node1&#45;&gt;Node4</title>
<path fill="none" stroke="midnightblue" d="M110.93,-49.3986C128.309,-44.3449 147.85,-38.6624 165.894,-33.4152"/>
<polygon fill="midnightblue" stroke="midnightblue" points="167.116,-36.7048 175.741,-30.5516 165.161,-29.9832 167.116,-36.7048"/>
</g>
</g>
</svg>
