<?xml version="1.0" encoding="UTF-8" standalone="no"?>
<!DOCTYPE svg PUBLIC "-//W3C//DTD SVG 1.1//EN"
 "http://www.w3.org/Graphics/SVG/1.1/DTD/svg11.dtd">
<!-- Generated by graphviz version 2.38.0 (20140413.2041)
 -->
<!-- Title: VdPConvergenceTest Pages: 1 -->
<svg width="147pt" height="281pt"
 viewBox="0.00 0.00 147.00 281.00" xmlns="http://www.w3.org/2000/svg" xmlns:xlink="http://www.w3.org/1999/xlink">
<g id="graph0" class="graph" transform="scale(1 1) rotate(0) translate(4 277)">
<title>VdPConvergenceTest</title>
<polygon fill="white" stroke="none" points="-4,4 -4,-277 143,-277 143,4 -4,4"/>
<!-- Node1 -->
<g id="node1" class="node"><title>Node1</title>
<polygon fill="#bfbfbf" stroke="black" points="10,-0.5 10,-156.5 129,-156.5 129,-0.5 10,-0.5"/>
<text text-anchor="middle" x="69.5" y="-144.5" font-family="Helvetica,sans-Serif" font-size="10.00">VdPConvergenceTest</text>
<polyline fill="none" stroke="black" points="10,-137.5 129,-137.5 "/>
<text text-anchor="start" x="18" y="-125.5" font-family="Helvetica,sans-Serif" font-size="10.00"># nnodes</text>
<text text-anchor="start" x="18" y="-114.5" font-family="Helvetica,sans-Serif" font-size="10.00"># nu</text>
<text text-anchor="start" x="18" y="-103.5" font-family="Helvetica,sans-Serif" font-size="10.00"># x0</text>
<text text-anchor="start" x="18" y="-92.5" font-family="Helvetica,sans-Serif" font-size="10.00"># y0</text>
<text text-anchor="start" x="18" y="-81.5" font-family="Helvetica,sans-Serif" font-size="10.00"># niters</text>
<text text-anchor="start" x="18" y="-70.5" font-family="Helvetica,sans-Serif" font-size="10.00"># end_time</text>
<text text-anchor="start" x="18" y="-59.5" font-family="Helvetica,sans-Serif" font-size="10.00"># nsteps</text>
<text text-anchor="start" x="18" y="-48.5" font-family="Helvetica,sans-Serif" font-size="10.00"># err</text>
<text text-anchor="start" x="18" y="-37.5" font-family="Helvetica,sans-Serif" font-size="10.00"># convrate</text>
<text text-anchor="start" x="18" y="-26.5" font-family="Helvetica,sans-Serif" font-size="10.00"># nodetype</text>
<polyline fill="none" stroke="black" points="10,-19.5 129,-19.5 "/>
<text text-anchor="start" x="18" y="-7.5" font-family="Helvetica,sans-Serif" font-size="10.00">+ SetUp()</text>
</g>
<!-- Node2 -->
<g id="node2" class="node"><title>Node2</title>
<polygon fill="white" stroke="#bfbfbf" points="0,-193.5 0,-272.5 139,-272.5 139,-193.5 0,-193.5"/>
<text text-anchor="start" x="8" y="-260.5" font-family="Helvetica,sans-Serif" font-size="10.00">TestWithParam&lt; tuple</text>
<text text-anchor="start" x="8" y="-249.5" font-family="Helvetica,sans-Serif" font-size="10.00">&lt; size_t, pfasst::quadrature</text>
<text text-anchor="middle" x="69.5" y="-238.5" font-family="Helvetica,sans-Serif" font-size="10.00">::QuadratureType &gt; &gt;</text>
<polyline fill="none" stroke="#bfbfbf" points="0,-231.5 139,-231.5 "/>
<text text-anchor="middle" x="69.5" y="-219.5" font-family="Helvetica,sans-Serif" font-size="10.00"> </text>
<polyline fill="none" stroke="#bfbfbf" points="0,-212.5 139,-212.5 "/>
<text text-anchor="middle" x="69.5" y="-200.5" font-family="Helvetica,sans-Serif" font-size="10.00"> </text>
</g>
<!-- Node2&#45;&gt;Node1 -->
<g id="edge1" class="edge"><title>Node2&#45;&gt;Node1</title>
<path fill="none" stroke="midnightblue" d="M69.5,-183.08C69.5,-174.607 69.5,-165.615 69.5,-156.608"/>
<polygon fill="none" stroke="midnightblue" points="66.0001,-183.123 69.5,-193.123 73.0001,-183.123 66.0001,-183.123"/>
</g>
</g>
</svg>
