<?xml version="1.0" encoding="UTF-8" standalone="no"?>
<!DOCTYPE svg PUBLIC "-//W3C//DTD SVG 1.1//EN"
 "http://www.w3.org/Graphics/SVG/1.1/DTD/svg11.dtd">
<!-- Generated by graphviz version 2.38.0 (20140413.2041)
 -->
<!-- Title: include/pfasst/quadrature/interface.hpp Pages: 1 -->
<!--zoomable 397 -->
<svg id="main" version="1.1" xmlns="http://www.w3.org/2000/svg" xmlns:xlink="http://www.w3.org/1999/xlink" xml:space="preserve" onload="init(evt)">
<style type="text/css"><![CDATA[
.edge:hover path { stroke: red; }
.edge:hover polygon { stroke: red; fill: red; }
]]></style>
<script type="text/javascript"><![CDATA[
var edges = document.getElementsByTagName('g');
if (edges && edges.length) {
  for (var i=0;i<edges.length;i++) {
    if (edges[i].id.substr(0,4)=='edge') {
      edges[i].setAttribute('class','edge');
    }
  }
}
]]></script>
        <defs>
                <circle id="rim" cx="0" cy="0" r="7"/>
                <circle id="rim2" cx="0" cy="0" r="3.5"/>
                <g id="zoomPlus">
                        <use xlink:href="#rim" fill="#404040">
                                <set attributeName="fill" to="#808080" begin="zoomplus.mouseover" end="zoomplus.mouseout"/>
                        </use>
                        <path d="M-4,0h8M0,-4v8" fill="none" stroke="white" stroke-width="1.5" pointer-events="none"/>
                </g>
                <g id="zoomMin">
                        <use xlink:href="#rim" fill="#404040">
                                <set attributeName="fill" to="#808080" begin="zoomminus.mouseover" end="zoomminus.mouseout"/>
                        </use>
                        <path d="M-4,0h8" fill="none" stroke="white" stroke-width="1.5" pointer-events="none"/>
                </g>
                <g id="dirArrow">
                        <path fill="none" stroke="white" stroke-width="1.5" d="M0,-3.0v7 M-2.5,-0.5L0,-3.0L2.5,-0.5"/>
                </g>
               <g id="resetDef">
                       <use xlink:href="#rim2" fill="#404040">
                               <set attributeName="fill" to="#808080" begin="reset.mouseover" end="reset.mouseout"/>
                       </use>
               </g>
        </defs>

<script type="text/javascript">
var viewWidth = 1066;
var viewHeight = 397;
var sectionId = 'dynsection-0';
</script>
<script xlink:href="../../svgpan.js"/>
<svg id="graph" class="graph">
<g id="viewport">
<title>include/pfasst/quadrature/interface.hpp</title>
<polygon fill="white" stroke="none" points="-4,4 -4,-393 1062,-393 1062,4 -4,4"/>
<!-- Node1 -->
<g id="node1" class="node"><title>Node1</title>
<polygon fill="#bfbfbf" stroke="black" points="628,-358.5 628,-388.5 758,-388.5 758,-358.5 628,-358.5"/>
<text text-anchor="start" x="636" y="-376.5" font-family="Helvetica,sans-Serif" font-size="10.00">include/pfasst/quadrature</text>
<text text-anchor="middle" x="693" y="-365.5" font-family="Helvetica,sans-Serif" font-size="10.00">/interface.hpp</text>
</g>
<!-- Node2 -->
<g id="node2" class="node"><title>Node2</title>
<polygon fill="white" stroke="#bfbfbf" points="664,-168.5 664,-187.5 714,-187.5 714,-168.5 664,-168.5"/>
<text text-anchor="middle" x="689" y="-175.5" font-family="Helvetica,sans-Serif" font-size="10.00">cassert</text>
</g>
<!-- Node1&#45;&gt;Node2 -->
<g id="edge1" class="edge"><title>Node1&#45;&gt;Node2</title>
<path fill="none" stroke="midnightblue" d="M692.706,-358.271C691.996,-323.944 690.19,-236.566 689.391,-197.9"/>
<polygon fill="midnightblue" stroke="midnightblue" points="692.883,-197.502 689.177,-187.577 685.885,-197.647 692.883,-197.502"/>
</g>
<!-- Node3 -->
<g id="node3" class="node"><title>Node3</title>
<polygon fill="white" stroke="#bfbfbf" points="702,-230 702,-249 746,-249 746,-230 702,-230"/>
<text text-anchor="middle" x="724" y="-237" font-family="Helvetica,sans-Serif" font-size="10.00">vector</text>
</g>
<!-- Node1&#45;&gt;Node3 -->
<g id="edge2" class="edge"><title>Node1&#45;&gt;Node3</title>
<path fill="none" stroke="midnightblue" d="M696.318,-358.374C701.948,-334.397 713.374,-285.748 719.642,-259.056"/>
<polygon fill="midnightblue" stroke="midnightblue" points="723.102,-259.633 721.981,-249.097 716.287,-258.032 723.102,-259.633"/>
</g>
<!-- Node4 -->
<g id="node4" class="node"><title>Node4</title>
<polygon fill="white" stroke="#bfbfbf" points="570.5,-297 570.5,-316 645.5,-316 645.5,-297 570.5,-297"/>
<text text-anchor="middle" x="608" y="-304" font-family="Helvetica,sans-Serif" font-size="10.00">Eigen/Dense</text>
</g>
<!-- Node1&#45;&gt;Node4 -->
<g id="edge3" class="edge"><title>Node1&#45;&gt;Node4</title>
<path fill="none" stroke="midnightblue" d="M674.556,-358.396C660.647,-347.759 641.611,-333.203 627.46,-322.381"/>
<polygon fill="midnightblue" stroke="midnightblue" points="629.439,-319.489 619.37,-316.195 625.187,-325.049 629.439,-319.489"/>
</g>
<!-- Node5 -->
<g id="node5" class="node"><title>Node5</title>
<g id="a_node5"><a xlink:href="../../d5/d82/globals_8hpp.html" target="_top" xlink:title="pfasst/globals.hpp">
<polygon fill="white" stroke="black" points="229.5,-168.5 229.5,-187.5 326.5,-187.5 326.5,-168.5 229.5,-168.5"/>
<text text-anchor="middle" x="278" y="-175.5" font-family="Helvetica,sans-Serif" font-size="10.00">pfasst/globals.hpp</text>
</a>
</g>
</g>
<!-- Node1&#45;&gt;Node5 -->
<g id="edge4" class="edge"><title>Node1&#45;&gt;Node5</title>
<path fill="none" stroke="midnightblue" d="M627.968,-371.539C569.83,-368.211 483.893,-357.045 418,-322 359.344,-290.804 310.204,-226.427 289.089,-195.844"/>
<polygon fill="midnightblue" stroke="midnightblue" points="291.957,-193.836 283.457,-187.511 286.158,-197.756 291.957,-193.836"/>
</g>
<!-- Node6 -->
<g id="node6" class="node"><title>Node6</title>
<g id="a_node6"><a xlink:href="../../d1/d1b/interfaces_8hpp.html" target="_top" xlink:title="interfaces for SDC/MLSDC/PFASST algorithms. ">
<polygon fill="white" stroke="black" points="427.5,-297 427.5,-316 534.5,-316 534.5,-297 427.5,-297"/>
<text text-anchor="middle" x="481" y="-304" font-family="Helvetica,sans-Serif" font-size="10.00">pfasst/interfaces.hpp</text>
</a>
</g>
</g>
<!-- Node1&#45;&gt;Node6 -->
<g id="edge5" class="edge"><title>Node1&#45;&gt;Node6</title>
<path fill="none" stroke="midnightblue" d="M647.26,-358.476C608.763,-346.673 554.388,-330.001 518.439,-318.979"/>
<polygon fill="midnightblue" stroke="midnightblue" points="519.403,-315.614 508.817,-316.029 517.351,-322.306 519.403,-315.614"/>
</g>
<!-- Node23 -->
<g id="node23" class="node"><title>Node23</title>
<g id="a_node23"><a xlink:href="../../d0/d3e/polynomial_8hpp.html" target="_top" xlink:title="pfasst/quadrature/polynomial.hpp">
<polygon fill="white" stroke="black" points="740,-297 740,-316 904,-316 904,-297 740,-297"/>
<text text-anchor="middle" x="822" y="-304" font-family="Helvetica,sans-Serif" font-size="10.00">pfasst/quadrature/polynomial.hpp</text>
</a>
</g>
</g>
<!-- Node1&#45;&gt;Node23 -->
<g id="edge32" class="edge"><title>Node1&#45;&gt;Node23</title>
<path fill="none" stroke="midnightblue" d="M720.991,-358.396C743.325,-347.142 774.367,-331.501 796.126,-320.538"/>
<polygon fill="midnightblue" stroke="midnightblue" points="797.761,-323.633 805.117,-316.007 794.612,-317.381 797.761,-323.633"/>
</g>
<!-- Node28 -->
<g id="node28" class="node"><title>Node28</title>
<g id="a_node28"><a xlink:href="../../de/da5/quadrature_2interface__impl_8hpp.html" target="_top" xlink:title="pfasst/quadrature/interface\l_impl.hpp">
<polygon fill="white" stroke="black" points="922,-291.5 922,-321.5 1058,-321.5 1058,-291.5 922,-291.5"/>
<text text-anchor="start" x="930" y="-309.5" font-family="Helvetica,sans-Serif" font-size="10.00">pfasst/quadrature/interface</text>
<text text-anchor="middle" x="990" y="-298.5" font-family="Helvetica,sans-Serif" font-size="10.00">_impl.hpp</text>
</a>
</g>
</g>
<!-- Node1&#45;&gt;Node28 -->
<g id="edge40" class="edge"><title>Node1&#45;&gt;Node28</title>
<path fill="none" stroke="midnightblue" d="M751.411,-358.476C797.365,-348.119 861.741,-334.015 912.074,-323.267"/>
<polygon fill="midnightblue" stroke="midnightblue" points="912.893,-326.671 921.944,-321.165 911.434,-319.825 912.893,-326.671"/>
</g>
<!-- Node7 -->
<g id="node7" class="node"><title>Node7</title>
<polygon fill="white" stroke="#bfbfbf" points="344.5,-168.5 344.5,-187.5 397.5,-187.5 397.5,-168.5 344.5,-168.5"/>
<text text-anchor="middle" x="371" y="-175.5" font-family="Helvetica,sans-Serif" font-size="10.00">memory</text>
</g>
<!-- Node6&#45;&gt;Node7 -->
<g id="edge6" class="edge"><title>Node6&#45;&gt;Node7</title>
<path fill="none" stroke="midnightblue" d="M452.706,-296.947C432.015,-289.245 404.892,-275.876 389,-255 376.454,-238.52 372.472,-214.648 371.3,-198.074"/>
<polygon fill="midnightblue" stroke="midnightblue" points="374.791,-197.786 370.867,-187.945 367.797,-198.085 374.791,-197.786"/>
</g>
<!-- Node8 -->
<g id="node8" class="node"><title>Node8</title>
<polygon fill="white" stroke="#bfbfbf" points="548,-230 548,-249 608,-249 608,-230 548,-230"/>
<text text-anchor="middle" x="578" y="-237" font-family="Helvetica,sans-Serif" font-size="10.00">stdexcept</text>
</g>
<!-- Node6&#45;&gt;Node8 -->
<g id="edge7" class="edge"><title>Node6&#45;&gt;Node8</title>
<path fill="none" stroke="midnightblue" d="M494.082,-296.734C510.153,-285.964 537.633,-267.55 556.75,-254.739"/>
<polygon fill="midnightblue" stroke="midnightblue" points="558.766,-257.602 565.125,-249.127 554.87,-251.787 558.766,-257.602"/>
</g>
<!-- Node9 -->
<g id="node9" class="node"><title>Node9</title>
<polygon fill="white" stroke="#bfbfbf" points="558.5,-56.5 558.5,-75.5 599.5,-75.5 599.5,-56.5 558.5,-56.5"/>
<text text-anchor="middle" x="579" y="-63.5" font-family="Helvetica,sans-Serif" font-size="10.00">string</text>
</g>
<!-- Node6&#45;&gt;Node9 -->
<g id="edge8" class="edge"><title>Node6&#45;&gt;Node9</title>
<path fill="none" stroke="midnightblue" d="M517.498,-296.935C553.668,-287.62 605.317,-271.801 617,-255 654.187,-201.523 612.359,-120.006 590.555,-84.5223"/>
<polygon fill="midnightblue" stroke="midnightblue" points="593.331,-82.3649 585.018,-75.7963 587.42,-86.1152 593.331,-82.3649"/>
</g>
<!-- Node10 -->
<g id="node10" class="node"><title>Node10</title>
<g id="a_node10"><a xlink:href="../../d8/dc4/interfaces__impl_8hpp.html" target="_top" xlink:title="pfasst/interfaces_impl.hpp">
<polygon fill="white" stroke="black" points="398.5,-230 398.5,-249 529.5,-249 529.5,-230 398.5,-230"/>
<text text-anchor="middle" x="464" y="-237" font-family="Helvetica,sans-Serif" font-size="10.00">pfasst/interfaces_impl.hpp</text>
</a>
</g>
</g>
<!-- Node6&#45;&gt;Node10 -->
<g id="edge9" class="edge"><title>Node6&#45;&gt;Node10</title>
<path fill="none" stroke="midnightblue" d="M473.919,-296.734C469.411,-287.183 464.875,-271.618 462.728,-259.283"/>
<polygon fill="midnightblue" stroke="midnightblue" points="466.175,-258.634 461.497,-249.127 459.226,-259.476 466.175,-258.634"/>
</g>
<!-- Node10&#45;&gt;Node2 -->
<g id="edge11" class="edge"><title>Node10&#45;&gt;Node2</title>
<path fill="none" stroke="midnightblue" d="M496.237,-229.975C538.085,-218.909 610.85,-199.666 654.006,-188.254"/>
<polygon fill="midnightblue" stroke="midnightblue" points="655.011,-191.609 663.783,-185.668 653.221,-184.841 655.011,-191.609"/>
</g>
<!-- Node10&#45;&gt;Node5 -->
<g id="edge14" class="edge"><title>Node10&#45;&gt;Node5</title>
<path fill="none" stroke="midnightblue" d="M437.351,-229.975C405.031,-219.636 350.403,-202.161 314.267,-190.602"/>
<polygon fill="midnightblue" stroke="midnightblue" points="315.191,-187.222 304.6,-187.509 313.058,-193.89 315.191,-187.222"/>
</g>
<!-- Node10&#45;&gt;Node6 -->
<g id="edge10" class="edge"><title>Node10&#45;&gt;Node6</title>
<path fill="none" stroke="midnightblue" d="M471.015,-249.127C475.523,-258.62 480.07,-274.17 482.241,-286.537"/>
<polygon fill="midnightblue" stroke="midnightblue" points="478.8,-287.236 483.496,-296.734 485.748,-286.381 478.8,-287.236"/>
</g>
<!-- Node10&#45;&gt;Node7 -->
<g id="edge12" class="edge"><title>Node10&#45;&gt;Node7</title>
<path fill="none" stroke="midnightblue" d="M450.675,-229.975C435.62,-220.343 410.884,-204.517 392.963,-193.052"/>
<polygon fill="midnightblue" stroke="midnightblue" points="394.61,-189.95 384.3,-187.509 390.837,-195.847 394.61,-189.95"/>
</g>
<!-- Node10&#45;&gt;Node9 -->
<g id="edge13" class="edge"><title>Node10&#45;&gt;Node9</title>
<path fill="none" stroke="midnightblue" d="M475.962,-229.839C497.536,-213.471 542.608,-175.692 563,-132 569.912,-117.191 574.058,-99.0377 576.391,-85.6832"/>
<polygon fill="midnightblue" stroke="midnightblue" points="579.854,-86.1944 577.946,-75.7728 572.938,-85.1096 579.854,-86.1944"/>
</g>
<!-- Node11 -->
<g id="node11" class="node"><title>Node11</title>
<g id="a_node11"><a xlink:href="../../d0/da9/logging_8hpp.html" target="_top" xlink:title="pfasst/logging.hpp">
<polygon fill="white" stroke="black" points="415,-168.5 415,-187.5 513,-187.5 513,-168.5 415,-168.5"/>
<text text-anchor="middle" x="464" y="-175.5" font-family="Helvetica,sans-Serif" font-size="10.00">pfasst/logging.hpp</text>
</a>
</g>
</g>
<!-- Node10&#45;&gt;Node11 -->
<g id="edge15" class="edge"><title>Node10&#45;&gt;Node11</title>
<path fill="none" stroke="midnightblue" d="M464,-229.975C464,-221.58 464,-208.481 464,-197.663"/>
<polygon fill="midnightblue" stroke="midnightblue" points="467.5,-197.509 464,-187.509 460.5,-197.509 467.5,-197.509"/>
</g>
<!-- Node11&#45;&gt;Node9 -->
<g id="edge18" class="edge"><title>Node11&#45;&gt;Node9</title>
<path fill="none" stroke="midnightblue" d="M484.898,-168.382C501.591,-160.711 524.795,-148.203 541,-132 554.406,-118.596 564.819,-99.5172 571.327,-85.4958"/>
<polygon fill="midnightblue" stroke="midnightblue" points="574.708,-86.5003 575.527,-75.9371 568.3,-83.684 574.708,-86.5003"/>
</g>
<!-- Node12 -->
<g id="node12" class="node"><title>Node12</title>
<polygon fill="white" stroke="#bfbfbf" points="81,-112.5 81,-131.5 133,-131.5 133,-112.5 81,-112.5"/>
<text text-anchor="middle" x="107" y="-119.5" font-family="Helvetica,sans-Serif" font-size="10.00">iomanip</text>
</g>
<!-- Node11&#45;&gt;Node12 -->
<g id="edge16" class="edge"><title>Node11&#45;&gt;Node12</title>
<path fill="none" stroke="midnightblue" d="M414.962,-169.326C411.93,-168.871 408.924,-168.426 406,-168 292.023,-151.387 259.946,-154.588 143.337,-132.073"/>
<polygon fill="midnightblue" stroke="midnightblue" points="143.784,-128.594 133.299,-130.112 142.442,-135.464 143.784,-128.594"/>
</g>
<!-- Node13 -->
<g id="node13" class="node"><title>Node13</title>
<polygon fill="white" stroke="#bfbfbf" points="0,-56.5 0,-75.5 56,-75.5 56,-56.5 0,-56.5"/>
<text text-anchor="middle" x="28" y="-63.5" font-family="Helvetica,sans-Serif" font-size="10.00">iostream</text>
</g>
<!-- Node11&#45;&gt;Node13 -->
<g id="edge17" class="edge"><title>Node11&#45;&gt;Node13</title>
<path fill="none" stroke="midnightblue" d="M414.975,-169.228C411.94,-168.798 408.93,-168.385 406,-168 331.984,-158.274 135.97,-170.48 72,-132 54.1631,-121.27 41.9468,-100.203 34.9942,-84.9552"/>
<polygon fill="midnightblue" stroke="midnightblue" points="38.1287,-83.3805 31.0174,-75.5269 31.679,-86.1011 38.1287,-83.3805"/>
</g>
<!-- Node14 -->
<g id="node14" class="node"><title>Node14</title>
<polygon fill="white" stroke="#bfbfbf" points="260.5,-112.5 260.5,-131.5 391.5,-131.5 391.5,-112.5 260.5,-112.5"/>
<text text-anchor="middle" x="326" y="-119.5" font-family="Helvetica,sans-Serif" font-size="10.00">boost/algorithm/string.hpp</text>
</g>
<!-- Node11&#45;&gt;Node14 -->
<g id="edge19" class="edge"><title>Node11&#45;&gt;Node14</title>
<path fill="none" stroke="midnightblue" d="M442.133,-168.444C419.221,-159.478 383.025,-145.314 357.134,-135.183"/>
<polygon fill="midnightblue" stroke="midnightblue" points="358.352,-131.901 347.764,-131.516 355.801,-138.42 358.352,-131.901"/>
</g>
<!-- Node15 -->
<g id="node15" class="node"><title>Node15</title>
<g id="a_node15"><a xlink:href="../../d8/dfd/config_8hpp.html" target="_top" xlink:title="pfasst/config.hpp">
<polygon fill="white" stroke="black" points="151.5,-112.5 151.5,-131.5 242.5,-131.5 242.5,-112.5 151.5,-112.5"/>
<text text-anchor="middle" x="197" y="-119.5" font-family="Helvetica,sans-Serif" font-size="10.00">pfasst/config.hpp</text>
</a>
</g>
</g>
<!-- Node11&#45;&gt;Node15 -->
<g id="edge20" class="edge"><title>Node11&#45;&gt;Node15</title>
<path fill="none" stroke="midnightblue" d="M421.693,-168.444C374.92,-158.984 299.54,-143.738 249.15,-133.547"/>
<polygon fill="midnightblue" stroke="midnightblue" points="249.604,-130.068 239.109,-131.516 248.217,-136.929 249.604,-130.068"/>
</g>
<!-- Node22 -->
<g id="node22" class="node"><title>Node22</title>
<polygon fill="white" stroke="#bfbfbf" points="410,-112.5 410,-131.5 532,-131.5 532,-112.5 410,-112.5"/>
<text text-anchor="middle" x="471" y="-119.5" font-family="Helvetica,sans-Serif" font-size="10.00">pfasst/easylogging++.h</text>
</g>
<!-- Node11&#45;&gt;Node22 -->
<g id="edge31" class="edge"><title>Node11&#45;&gt;Node22</title>
<path fill="none" stroke="midnightblue" d="M465.156,-168.083C466.084,-160.927 467.418,-150.635 468.577,-141.691"/>
<polygon fill="midnightblue" stroke="midnightblue" points="472.051,-142.118 469.866,-131.751 465.109,-141.218 472.051,-142.118"/>
</g>
<!-- Node15&#45;&gt;Node9 -->
<g id="edge23" class="edge"><title>Node15&#45;&gt;Node9</title>
<path fill="none" stroke="midnightblue" d="M242.65,-113.297C245.474,-112.85 248.275,-112.414 251,-112 360.133,-95.4229 490.116,-78.3927 548.25,-70.9183"/>
<polygon fill="midnightblue" stroke="midnightblue" points="548.774,-74.3799 558.247,-69.6362 547.883,-67.4368 548.774,-74.3799"/>
</g>
<!-- Node15&#45;&gt;Node13 -->
<g id="edge22" class="edge"><title>Node15&#45;&gt;Node13</title>
<path fill="none" stroke="midnightblue" d="M170.221,-112.444C141.667,-103.32 96.2674,-88.8133 64.4631,-78.6509"/>
<polygon fill="midnightblue" stroke="midnightblue" points="65.2441,-75.2262 54.6533,-75.5164 63.1135,-81.8941 65.2441,-75.2262"/>
</g>
<!-- Node16 -->
<g id="node16" class="node"><title>Node16</title>
<polygon fill="white" stroke="#bfbfbf" points="395,-0.5 395,-19.5 445,-19.5 445,-0.5 395,-0.5"/>
<text text-anchor="middle" x="420" y="-7.5" font-family="Helvetica,sans-Serif" font-size="10.00">fstream</text>
</g>
<!-- Node15&#45;&gt;Node16 -->
<g id="edge21" class="edge"><title>Node15&#45;&gt;Node16</title>
<path fill="none" stroke="midnightblue" d="M242.743,-112.515C302.758,-101.191 401.199,-81.8814 407,-76 418.861,-63.9754 421.395,-44.3743 421.398,-29.8362"/>
<polygon fill="midnightblue" stroke="midnightblue" points="424.882,-29.3569 420.987,-19.5038 417.887,-29.6349 424.882,-29.3569"/>
</g>
<!-- Node17 -->
<g id="node17" class="node"><title>Node17</title>
<polygon fill="white" stroke="#bfbfbf" points="74,-56.5 74,-75.5 110,-75.5 110,-56.5 74,-56.5"/>
<text text-anchor="middle" x="92" y="-63.5" font-family="Helvetica,sans-Serif" font-size="10.00">map</text>
</g>
<!-- Node15&#45;&gt;Node17 -->
<g id="edge24" class="edge"><title>Node15&#45;&gt;Node17</title>
<path fill="none" stroke="midnightblue" d="M180.13,-112.324C163.291,-103.664 137.193,-90.2424 117.762,-80.249"/>
<polygon fill="midnightblue" stroke="midnightblue" points="119.322,-77.1155 108.828,-75.6545 116.12,-83.3405 119.322,-77.1155"/>
</g>
<!-- Node18 -->
<g id="node18" class="node"><title>Node18</title>
<polygon fill="white" stroke="#bfbfbf" points="128.5,-56.5 128.5,-75.5 265.5,-75.5 265.5,-56.5 128.5,-56.5"/>
<text text-anchor="middle" x="197" y="-63.5" font-family="Helvetica,sans-Serif" font-size="10.00">boost/program_options.hpp</text>
</g>
<!-- Node15&#45;&gt;Node18 -->
<g id="edge25" class="edge"><title>Node15&#45;&gt;Node18</title>
<path fill="none" stroke="midnightblue" d="M197,-112.083C197,-105.006 197,-94.8611 197,-85.9865"/>
<polygon fill="midnightblue" stroke="midnightblue" points="200.5,-85.751 197,-75.7511 193.5,-85.7511 200.5,-85.751"/>
</g>
<!-- Node19 -->
<g id="node19" class="node"><title>Node19</title>
<g id="a_node19"><a xlink:href="../../d5/d84/config__impl_8hpp.html" target="_top" xlink:title="pfasst/config_impl.hpp">
<polygon fill="white" stroke="black" points="284,-56.5 284,-75.5 398,-75.5 398,-56.5 284,-56.5"/>
<text text-anchor="middle" x="341" y="-63.5" font-family="Helvetica,sans-Serif" font-size="10.00">pfasst/config_impl.hpp</text>
</a>
</g>
</g>
<!-- Node15&#45;&gt;Node19 -->
<g id="edge26" class="edge"><title>Node15&#45;&gt;Node19</title>
<path fill="none" stroke="midnightblue" d="M214.728,-112.444C236.864,-103.399 274.883,-89.064 303.515,-78.9158"/>
<polygon fill="midnightblue" stroke="midnightblue" points="304.931,-82.1283 313.21,-75.5164 302.615,-75.5226 304.931,-82.1283"/>
</g>
<!-- Node19&#45;&gt;Node15 -->
<g id="edge27" class="edge"><title>Node19&#45;&gt;Node15</title>
<path fill="none" stroke="midnightblue" d="M323.369,-75.5164C301.281,-84.5457 263.272,-98.8786 234.612,-109.039"/>
<polygon fill="midnightblue" stroke="midnightblue" points="233.184,-105.831 224.906,-112.444 235.501,-112.436 233.184,-105.831"/>
</g>
<!-- Node19&#45;&gt;Node16 -->
<g id="edge28" class="edge"><title>Node19&#45;&gt;Node16</title>
<path fill="none" stroke="midnightblue" d="M353.693,-56.324C365.901,-47.979 384.578,-35.2122 399.003,-25.3524"/>
<polygon fill="midnightblue" stroke="midnightblue" points="401.058,-28.1871 407.339,-19.6545 397.108,-22.4082 401.058,-28.1871"/>
</g>
<!-- Node20 -->
<g id="node20" class="node"><title>Node20</title>
<polygon fill="white" stroke="#bfbfbf" points="256.5,-0.5 256.5,-19.5 309.5,-19.5 309.5,-0.5 256.5,-0.5"/>
<text text-anchor="middle" x="283" y="-7.5" font-family="Helvetica,sans-Serif" font-size="10.00">sstream</text>
</g>
<!-- Node19&#45;&gt;Node20 -->
<g id="edge29" class="edge"><title>Node19&#45;&gt;Node20</title>
<path fill="none" stroke="midnightblue" d="M331.681,-56.324C323.107,-48.3414 310.188,-36.3128 299.812,-26.6529"/>
<polygon fill="midnightblue" stroke="midnightblue" points="302.192,-24.0865 292.488,-19.8339 297.422,-29.2098 302.192,-24.0865"/>
</g>
<!-- Node21 -->
<g id="node21" class="node"><title>Node21</title>
<polygon fill="white" stroke="#bfbfbf" points="328,-0.5 328,-19.5 366,-19.5 366,-0.5 328,-0.5"/>
<text text-anchor="middle" x="347" y="-7.5" font-family="Helvetica,sans-Serif" font-size="10.00">utility</text>
</g>
<!-- Node19&#45;&gt;Node21 -->
<g id="edge30" class="edge"><title>Node19&#45;&gt;Node21</title>
<path fill="none" stroke="midnightblue" d="M341.991,-56.083C342.786,-48.9272 343.929,-38.6353 344.923,-29.6911"/>
<polygon fill="midnightblue" stroke="midnightblue" points="348.402,-30.0765 346.028,-19.7511 341.445,-29.3034 348.402,-30.0765"/>
</g>
<!-- Node23&#45;&gt;Node3 -->
<g id="edge33" class="edge"><title>Node23&#45;&gt;Node3</title>
<path fill="none" stroke="midnightblue" d="M808.783,-296.734C792.546,-285.964 764.783,-267.55 745.469,-254.739"/>
<polygon fill="midnightblue" stroke="midnightblue" points="747.275,-251.738 737.007,-249.127 743.406,-257.571 747.275,-251.738"/>
</g>
<!-- Node24 -->
<g id="node24" class="node"><title>Node24</title>
<g id="a_node24"><a xlink:href="../../dc/de8/polynomial__impl_8hpp.html" target="_top" xlink:title="pfasst/quadrature/polynomial\l_impl.hpp">
<polygon fill="white" stroke="black" points="764,-224.5 764,-254.5 910,-254.5 910,-224.5 764,-224.5"/>
<text text-anchor="start" x="772" y="-242.5" font-family="Helvetica,sans-Serif" font-size="10.00">pfasst/quadrature/polynomial</text>
<text text-anchor="middle" x="837" y="-231.5" font-family="Helvetica,sans-Serif" font-size="10.00">_impl.hpp</text>
</a>
</g>
</g>
<!-- Node23&#45;&gt;Node24 -->
<g id="edge34" class="edge"><title>Node23&#45;&gt;Node24</title>
<path fill="none" stroke="midnightblue" d="M819.234,-296.734C819.403,-288.456 821.774,-275.662 824.958,-264.367"/>
<polygon fill="midnightblue" stroke="midnightblue" points="828.373,-265.18 828.072,-254.589 821.703,-263.056 828.373,-265.18"/>
</g>
<!-- Node24&#45;&gt;Node2 -->
<g id="edge37" class="edge"><title>Node24&#45;&gt;Node2</title>
<path fill="none" stroke="midnightblue" d="M801.926,-224.399C776.983,-214.372 743.792,-201.028 719.856,-191.405"/>
<polygon fill="midnightblue" stroke="midnightblue" points="721.119,-188.141 710.535,-187.658 718.508,-194.635 721.119,-188.141"/>
</g>
<!-- Node24&#45;&gt;Node23 -->
<g id="edge35" class="edge"><title>Node24&#45;&gt;Node23</title>
<path fill="none" stroke="midnightblue" d="M839.425,-254.589C838.479,-264.101 835.718,-276.753 832.408,-287.065"/>
<polygon fill="midnightblue" stroke="midnightblue" points="829.017,-286.141 828.811,-296.734 835.578,-288.581 829.017,-286.141"/>
</g>
<!-- Node25 -->
<g id="node25" class="node"><title>Node25</title>
<polygon fill="white" stroke="#bfbfbf" points="739,-168.5 739,-187.5 797,-187.5 797,-168.5 739,-168.5"/>
<text text-anchor="middle" x="768" y="-175.5" font-family="Helvetica,sans-Serif" font-size="10.00">algorithm</text>
</g>
<!-- Node24&#45;&gt;Node25 -->
<g id="edge36" class="edge"><title>Node24&#45;&gt;Node25</title>
<path fill="none" stroke="midnightblue" d="M820.648,-224.399C810.105,-215.308 796.4,-203.49 785.616,-194.191"/>
<polygon fill="midnightblue" stroke="midnightblue" points="787.899,-191.538 778.04,-187.658 783.328,-196.839 787.899,-191.538"/>
</g>
<!-- Node26 -->
<g id="node26" class="node"><title>Node26</title>
<polygon fill="white" stroke="#bfbfbf" points="815,-168.5 815,-187.5 859,-187.5 859,-168.5 815,-168.5"/>
<text text-anchor="middle" x="837" y="-175.5" font-family="Helvetica,sans-Serif" font-size="10.00">cmath</text>
</g>
<!-- Node24&#45;&gt;Node26 -->
<g id="edge38" class="edge"><title>Node24&#45;&gt;Node26</title>
<path fill="none" stroke="midnightblue" d="M837,-224.399C837,-216.466 837,-206.458 837,-197.858"/>
<polygon fill="midnightblue" stroke="midnightblue" points="840.5,-197.658 837,-187.658 833.5,-197.658 840.5,-197.658"/>
</g>
<!-- Node27 -->
<g id="node27" class="node"><title>Node27</title>
<polygon fill="white" stroke="#bfbfbf" points="877.5,-168.5 877.5,-187.5 932.5,-187.5 932.5,-168.5 877.5,-168.5"/>
<text text-anchor="middle" x="905" y="-175.5" font-family="Helvetica,sans-Serif" font-size="10.00">complex</text>
</g>
<!-- Node24&#45;&gt;Node27 -->
<g id="edge39" class="edge"><title>Node24&#45;&gt;Node27</title>
<path fill="none" stroke="midnightblue" d="M853.115,-224.399C863.404,-215.397 876.747,-203.721 887.326,-194.465"/>
<polygon fill="midnightblue" stroke="midnightblue" points="889.884,-196.877 895.105,-187.658 885.275,-191.609 889.884,-196.877"/>
</g>
<!-- Node28&#45;&gt;Node1 -->
<g id="edge41" class="edge"><title>Node28&#45;&gt;Node1</title>
<path fill="none" stroke="midnightblue" d="M931.648,-321.511C884.862,-332.055 818.953,-346.491 768.217,-357.311"/>
<polygon fill="midnightblue" stroke="midnightblue" points="767.335,-353.92 758.283,-359.424 768.792,-360.767 767.335,-353.92"/>
</g>
</g>
</svg>
        <g id="navigator" transform="translate(0 0)" fill="#404254">
                <rect fill="#f2f5e9" fill-opacity="0.5" stroke="#606060" stroke-width=".5" x="0" y="0" width="60" height="60"/>
                <use id="zoomplus" xlink:href="#zoomPlus" x="17" y="9" onmousedown="handleZoom(evt,'in')"/>
                <use id="zoomminus" xlink:href="#zoomMin" x="42" y="9" onmousedown="handleZoom(evt,'out')"/>
                <use id="reset" xlink:href="#resetDef" x="30" y="36" onmousedown="handleReset()"/>
                <g id="arrowUp" xlink:href="#dirArrow" transform="translate(30 24)" onmousedown="handlePan(0,-1)">
                  <use xlink:href="#rim" fill="#404040">
                        <set attributeName="fill" to="#808080" begin="arrowUp.mouseover" end="arrowUp.mouseout"/>
                  </use>
                  <path fill="none" stroke="white" stroke-width="1.5" d="M0,-3.0v7 M-2.5,-0.5L0,-3.0L2.5,-0.5"/>
                </g>
                <g id="arrowRight" xlink:href="#dirArrow" transform="rotate(90) translate(36 -43)" onmousedown="handlePan(1,0)">
                  <use xlink:href="#rim" fill="#404040">
                        <set attributeName="fill" to="#808080" begin="arrowRight.mouseover" end="arrowRight.mouseout"/>
                  </use>
                  <path fill="none" stroke="white" stroke-width="1.5" d="M0,-3.0v7 M-2.5,-0.5L0,-3.0L2.5,-0.5"/>
                </g>
                <g id="arrowDown" xlink:href="#dirArrow" transform="rotate(180) translate(-30 -48)" onmousedown="handlePan(0,1)">
                  <use xlink:href="#rim" fill="#404040">
                        <set attributeName="fill" to="#808080" begin="arrowDown.mouseover" end="arrowDown.mouseout"/>
                  </use>
                  <path fill="none" stroke="white" stroke-width="1.5" d="M0,-3.0v7 M-2.5,-0.5L0,-3.0L2.5,-0.5"/>
                </g>
                <g id="arrowLeft" xlink:href="#dirArrow" transform="rotate(270) translate(-36 17)" onmousedown="handlePan(-1,0)">
                  <use xlink:href="#rim" fill="#404040">
                        <set attributeName="fill" to="#808080" begin="arrowLeft.mouseover" end="arrowLeft.mouseout"/>
                  </use>
                  <path fill="none" stroke="white" stroke-width="1.5" d="M0,-3.0v7 M-2.5,-0.5L0,-3.0L2.5,-0.5"/>
                </g>
        </g>
        <svg viewBox="0 0 15 15" width="100%" height="30px" preserveAspectRatio="xMaxYMin meet">
         <g id="arrow_out" transform="scale(0.3 0.3)">
          <a xlink:href="quadrature_2interface_8hpp__incl_org.svg" target="_base">
           <rect id="button" ry="5" rx="5" y="6" x="6" height="38" width="38"
                fill="#f2f5e9" fill-opacity="0.5" stroke="#606060" stroke-width="1.0"/>
           <path id="arrow"
             d="M 11.500037,31.436501 C 11.940474,20.09759 22.043105,11.32322 32.158766,21.979434 L 37.068811,17.246167 C 37.068811,17.246167 37.088388,32 37.088388,32 L 22.160133,31.978069 C 22.160133,31.978069 26.997745,27.140456 26.997745,27.140456 C 18.528582,18.264221 13.291696,25.230495 11.500037,31.436501 z"
             style="fill:#404040;"/>
          </a>
         </g>
        </svg>
</svg>
