<?xml version="1.0" encoding="UTF-8" standalone="no"?>
<!DOCTYPE svg PUBLIC "-//W3C//DTD SVG 1.1//EN"
 "http://www.w3.org/Graphics/SVG/1.1/DTD/svg11.dtd">
<!-- Generated by graphviz version 2.38.0 (20140413.2041)
 -->
<!-- Title: pfasst::log::get_log_file_name Pages: 1 -->
<svg width="962pt" height="177pt"
 viewBox="0.00 0.00 962.00 176.98" xmlns="http://www.w3.org/2000/svg" xmlns:xlink="http://www.w3.org/1999/xlink">
<g id="graph0" class="graph" transform="scale(1 1) rotate(0) translate(4 172.981)">
<title>pfasst::log::get_log_file_name</title>
<polygon fill="white" stroke="none" points="-4,4 -4,-172.981 958,-172.981 958,4 -4,4"/>
<!-- Node1 -->
<g id="node1" class="node"><title>Node1</title>
<polygon fill="#bfbfbf" stroke="black" points="0,-26.5 0,-56.5 103,-56.5 103,-26.5 0,-26.5"/>
<text text-anchor="start" x="8" y="-44.5" font-family="Helvetica,sans-Serif" font-size="10.00">pfasst::log::get_log</text>
<text text-anchor="middle" x="51.5" y="-33.5" font-family="Helvetica,sans-Serif" font-size="10.00">_file_name</text>
</g>
<!-- Node2 -->
<g id="node2" class="node"><title>Node2</title>
<g id="a_node2"><a xlink:href="../../de/d8c/group__Internals.html#ga2f4ba84c8482c3fb5c86e599804f832a" target="_top" xlink:title="Sets global logging options. ">
<polygon fill="white" stroke="black" points="139,-26.5 139,-56.5 255,-56.5 255,-26.5 139,-26.5"/>
<text text-anchor="start" x="147" y="-44.5" font-family="Helvetica,sans-Serif" font-size="10.00">pfasst::log::set_global</text>
<text text-anchor="middle" x="197" y="-33.5" font-family="Helvetica,sans-Serif" font-size="10.00">_logging_options</text>
</a>
</g>
</g>
<!-- Node1&#45;&gt;Node2 -->
<g id="edge1" class="edge"><title>Node1&#45;&gt;Node2</title>
<path fill="none" stroke="midnightblue" d="M113.196,-41.5C121.588,-41.5 130.188,-41.5 138.52,-41.5"/>
<polygon fill="midnightblue" stroke="midnightblue" points="113.093,-38.0001 103.093,-41.5 113.093,-45.0001 113.093,-38.0001"/>
</g>
<!-- Node3 -->
<g id="node3" class="node"><title>Node3</title>
<g id="a_node3"><a xlink:href="../../da/d50/namespacepfasst_1_1log.html#a8502afef42b4e98a12249d5fa1fed092" target="_top" xlink:title="Provides convenient way of adding additional named loggers. ">
<polygon fill="white" stroke="black" points="291,-49.5 291,-79.5 416,-79.5 416,-49.5 291,-49.5"/>
<text text-anchor="start" x="299" y="-67.5" font-family="Helvetica,sans-Serif" font-size="10.00">pfasst::log::add_custom</text>
<text text-anchor="middle" x="353.5" y="-56.5" font-family="Helvetica,sans-Serif" font-size="10.00">_logger</text>
</a>
</g>
</g>
<!-- Node2&#45;&gt;Node3 -->
<g id="edge2" class="edge"><title>Node2&#45;&gt;Node3</title>
<path fill="none" stroke="midnightblue" d="M265.086,-51.4869C273.689,-52.7677 282.464,-54.0739 290.973,-55.3406"/>
<polygon fill="midnightblue" stroke="midnightblue" points="265.498,-48.0097 255.091,-49.999 264.467,-54.9334 265.498,-48.0097"/>
</g>
<!-- Node6 -->
<g id="node6" class="node"><title>Node6</title>
<g id="a_node6"><a xlink:href="../../de/d8c/group__Internals.html#ga94bc88666f61bcc6d85072e6dfdd21f4" target="_top" xlink:title="Sets default configuration for default loggers. ">
<polygon fill="white" stroke="black" points="483.5,-0.5 483.5,-30.5 608.5,-30.5 608.5,-0.5 483.5,-0.5"/>
<text text-anchor="start" x="491.5" y="-18.5" font-family="Helvetica,sans-Serif" font-size="10.00">pfasst::log::load_default</text>
<text text-anchor="middle" x="546" y="-7.5" font-family="Helvetica,sans-Serif" font-size="10.00">_config</text>
</a>
</g>
</g>
<!-- Node2&#45;&gt;Node6 -->
<g id="edge11" class="edge"><title>Node2&#45;&gt;Node6</title>
<path fill="none" stroke="midnightblue" d="M265.546,-36.4389C328.649,-31.7107 422.055,-24.712 483.223,-20.1288"/>
<polygon fill="midnightblue" stroke="midnightblue" points="265.01,-32.9691 255.3,-37.2066 265.534,-39.9496 265.01,-32.9691"/>
</g>
<!-- Node4 -->
<g id="node4" class="node"><title>Node4</title>
<g id="a_node4"><a xlink:href="../../d2/dfe/classpfasst_1_1examples_1_1advection__diffusion_1_1AdvectionDiffusionSweeper.html#aeadc517097ebebd2eb14398271d6d576" target="_top" xlink:title="pfasst::examples::advection\l_diffusion::AdvectionDiffusionSweeper\l::init_logs">
<polygon fill="white" stroke="black" points="452,-98 452,-139 640,-139 640,-98 452,-98"/>
<text text-anchor="start" x="460" y="-127" font-family="Helvetica,sans-Serif" font-size="10.00">pfasst::examples::advection</text>
<text text-anchor="start" x="460" y="-116" font-family="Helvetica,sans-Serif" font-size="10.00">_diffusion::AdvectionDiffusionSweeper</text>
<text text-anchor="middle" x="546" y="-105" font-family="Helvetica,sans-Serif" font-size="10.00">::init_logs</text>
</a>
</g>
</g>
<!-- Node3&#45;&gt;Node4 -->
<g id="edge3" class="edge"><title>Node3&#45;&gt;Node4</title>
<path fill="none" stroke="midnightblue" d="M417.221,-82.2793C434.953,-87.3056 454.394,-92.8163 472.643,-97.9893"/>
<polygon fill="midnightblue" stroke="midnightblue" points="418.14,-78.9019 407.565,-79.542 416.231,-85.6366 418.14,-78.9019"/>
</g>
<!-- Node5 -->
<g id="node5" class="node"><title>Node5</title>
<g id="a_node5"><a xlink:href="../../da/d74/namespacepfasst_1_1examples_1_1boris.html#a87ab9b1f4a83b4f932e9a3cd588cbbad" target="_top" xlink:title="pfasst::examples::boris\l::init_logs">
<polygon fill="white" stroke="black" points="485.5,-49.5 485.5,-79.5 606.5,-79.5 606.5,-49.5 485.5,-49.5"/>
<text text-anchor="start" x="493.5" y="-67.5" font-family="Helvetica,sans-Serif" font-size="10.00">pfasst::examples::boris</text>
<text text-anchor="middle" x="546" y="-56.5" font-family="Helvetica,sans-Serif" font-size="10.00">::init_logs</text>
</a>
</g>
</g>
<!-- Node3&#45;&gt;Node5 -->
<g id="edge4" class="edge"><title>Node3&#45;&gt;Node5</title>
<path fill="none" stroke="midnightblue" d="M426.128,-64.5C445.611,-64.5 466.501,-64.5 485.249,-64.5"/>
<polygon fill="midnightblue" stroke="midnightblue" points="426.087,-61.0001 416.087,-64.5 426.087,-68.0001 426.087,-61.0001"/>
</g>
<!-- Node3&#45;&gt;Node6 -->
<g id="edge5" class="edge"><title>Node3&#45;&gt;Node6</title>
<path fill="none" stroke="midnightblue" d="M422.729,-46.9502C443.649,-41.5694 466.464,-35.701 486.66,-30.5062"/>
<polygon fill="midnightblue" stroke="midnightblue" points="421.764,-43.5846 412.951,-49.4654 423.508,-50.3639 421.764,-43.5846"/>
</g>
<!-- Node10 -->
<g id="node10" class="node"><title>Node10</title>
<g id="a_node10"><a xlink:href="../../df/df8/test__advection__diffusion_8cpp.html#a3c04138a5bfe5d72780bb7e82a18e627" target="_top" xlink:title="main">
<polygon fill="white" stroke="black" points="830.5,-101 830.5,-120 868.5,-120 868.5,-101 830.5,-101"/>
<text text-anchor="middle" x="849.5" y="-108" font-family="Helvetica,sans-Serif" font-size="10.00">main</text>
</a>
</g>
</g>
<!-- Node3&#45;&gt;Node10 -->
<g id="edge10" class="edge"><title>Node3&#45;&gt;Node10</title>
<path fill="none" stroke="midnightblue" d="M372.7,-87.5547C390.429,-107.986 419.416,-136.4 452,-148.5 590.08,-199.778 772.874,-139.42 830.385,-117.696"/>
<polygon fill="midnightblue" stroke="midnightblue" points="375.148,-85.028 366.033,-79.6277 369.791,-89.5336 375.148,-85.028"/>
</g>
<!-- Node7 -->
<g id="node7" class="node"><title>Node7</title>
<g id="a_node7"><a xlink:href="../../de/d8c/group__Internals.html#ga73cf933834ba5e5141119310aee971b9" target="_top" xlink:title="Starts easylogging++ with given arguments and loads configuration. ">
<polygon fill="white" stroke="black" points="676,-35 676,-54 783,-54 783,-35 676,-35"/>
<text text-anchor="middle" x="729.5" y="-42" font-family="Helvetica,sans-Serif" font-size="10.00">pfasst::log::start_log</text>
</a>
</g>
</g>
<!-- Node6&#45;&gt;Node7 -->
<g id="edge6" class="edge"><title>Node6&#45;&gt;Node7</title>
<path fill="none" stroke="midnightblue" d="M618.811,-26.974C637.81,-30.0096 657.967,-33.2303 675.749,-36.0715"/>
<polygon fill="midnightblue" stroke="midnightblue" points="619.128,-23.4802 608.701,-25.3585 618.023,-30.3926 619.128,-23.4802"/>
</g>
<!-- Node8 -->
<g id="node8" class="node"><title>Node8</title>
<g id="a_node8"><a xlink:href="../../dc/d57/namespacepfasst.html#a2ad4b6987b5c66b90166f77fc4230e92" target="_top" xlink:title="pfasst::init">
<polygon fill="white" stroke="black" points="819,-35 819,-54 880,-54 880,-35 819,-35"/>
<text text-anchor="middle" x="849.5" y="-42" font-family="Helvetica,sans-Serif" font-size="10.00">pfasst::init</text>
</a>
</g>
</g>
<!-- Node7&#45;&gt;Node8 -->
<g id="edge7" class="edge"><title>Node7&#45;&gt;Node8</title>
<path fill="none" stroke="midnightblue" d="M793.291,-44.5C802.147,-44.5 810.888,-44.5 818.712,-44.5"/>
<polygon fill="midnightblue" stroke="midnightblue" points="793.288,-41.0001 783.288,-44.5 793.288,-48.0001 793.288,-41.0001"/>
</g>
<!-- Node7&#45;&gt;Node10 -->
<g id="edge9" class="edge"><title>Node7&#45;&gt;Node10</title>
<path fill="none" stroke="midnightblue" d="M756.454,-59.0168C779.211,-71.7452 811.649,-89.8886 831.321,-100.891"/>
<polygon fill="midnightblue" stroke="midnightblue" points="758.094,-55.9239 747.658,-54.097 754.677,-62.0332 758.094,-55.9239"/>
</g>
<!-- Node9 -->
<g id="node9" class="node"><title>Node9</title>
<g id="a_node9"><a xlink:href="../../d1/d49/mpi__pfasst_8cpp.html#a3c04138a5bfe5d72780bb7e82a18e627" target="_top" xlink:title="main">
<polygon fill="white" stroke="black" points="916,-35 916,-54 954,-54 954,-35 916,-35"/>
<text text-anchor="middle" x="935" y="-42" font-family="Helvetica,sans-Serif" font-size="10.00">main</text>
</a>
</g>
</g>
<!-- Node8&#45;&gt;Node9 -->
<g id="edge8" class="edge"><title>Node8&#45;&gt;Node9</title>
<path fill="none" stroke="midnightblue" d="M890.381,-44.5C899.201,-44.5 908.131,-44.5 915.595,-44.5"/>
<polygon fill="midnightblue" stroke="midnightblue" points="890.174,-41.0001 880.174,-44.5 890.174,-48.0001 890.174,-41.0001"/>
</g>
</g>
</svg>
