<?xml version="1.0" encoding="UTF-8" standalone="no"?>
<!DOCTYPE svg PUBLIC "-//W3C//DTD SVG 1.1//EN"
 "http://www.w3.org/Graphics/SVG/1.1/DTD/svg11.dtd">
<!-- Generated by graphviz version 2.38.0 (20140413.2041)
 -->
<!-- Title: pfasst::log::set_global_logging_options Pages: 1 -->
<svg width="823pt" height="177pt"
 viewBox="0.00 0.00 823.00 176.98" xmlns="http://www.w3.org/2000/svg" xmlns:xlink="http://www.w3.org/1999/xlink">
<g id="graph0" class="graph" transform="scale(1 1) rotate(0) translate(4 172.981)">
<title>pfasst::log::set_global_logging_options</title>
<polygon fill="white" stroke="none" points="-4,4 -4,-172.981 819,-172.981 819,4 -4,4"/>
<!-- Node1 -->
<g id="node1" class="node"><title>Node1</title>
<polygon fill="#bfbfbf" stroke="black" points="0,-26.5 0,-56.5 116,-56.5 116,-26.5 0,-26.5"/>
<text text-anchor="start" x="8" y="-44.5" font-family="Helvetica,sans-Serif" font-size="10.00">pfasst::log::set_global</text>
<text text-anchor="middle" x="58" y="-33.5" font-family="Helvetica,sans-Serif" font-size="10.00">_logging_options</text>
</g>
<!-- Node2 -->
<g id="node2" class="node"><title>Node2</title>
<g id="a_node2"><a xlink:href="../../da/d50/namespacepfasst_1_1log.html#a8502afef42b4e98a12249d5fa1fed092" target="_top" xlink:title="Provides convenient way of adding additional named loggers. ">
<polygon fill="white" stroke="black" points="152,-49.5 152,-79.5 277,-79.5 277,-49.5 152,-49.5"/>
<text text-anchor="start" x="160" y="-67.5" font-family="Helvetica,sans-Serif" font-size="10.00">pfasst::log::add_custom</text>
<text text-anchor="middle" x="214.5" y="-56.5" font-family="Helvetica,sans-Serif" font-size="10.00">_logger</text>
</a>
</g>
</g>
<!-- Node1&#45;&gt;Node2 -->
<g id="edge1" class="edge"><title>Node1&#45;&gt;Node2</title>
<path fill="none" stroke="midnightblue" d="M126.086,-51.4869C134.689,-52.7677 143.464,-54.0739 151.973,-55.3406"/>
<polygon fill="midnightblue" stroke="midnightblue" points="126.498,-48.0097 116.091,-49.999 125.467,-54.9334 126.498,-48.0097"/>
</g>
<!-- Node5 -->
<g id="node5" class="node"><title>Node5</title>
<g id="a_node5"><a xlink:href="../../de/d8c/group__Internals.html#ga94bc88666f61bcc6d85072e6dfdd21f4" target="_top" xlink:title="Sets default configuration for default loggers. ">
<polygon fill="white" stroke="black" points="344.5,-0.5 344.5,-30.5 469.5,-30.5 469.5,-0.5 344.5,-0.5"/>
<text text-anchor="start" x="352.5" y="-18.5" font-family="Helvetica,sans-Serif" font-size="10.00">pfasst::log::load_default</text>
<text text-anchor="middle" x="407" y="-7.5" font-family="Helvetica,sans-Serif" font-size="10.00">_config</text>
</a>
</g>
</g>
<!-- Node1&#45;&gt;Node5 -->
<g id="edge10" class="edge"><title>Node1&#45;&gt;Node5</title>
<path fill="none" stroke="midnightblue" d="M126.546,-36.4389C189.649,-31.7107 283.055,-24.712 344.223,-20.1288"/>
<polygon fill="midnightblue" stroke="midnightblue" points="126.01,-32.9691 116.3,-37.2066 126.534,-39.9496 126.01,-32.9691"/>
</g>
<!-- Node3 -->
<g id="node3" class="node"><title>Node3</title>
<g id="a_node3"><a xlink:href="../../d2/dfe/classpfasst_1_1examples_1_1advection__diffusion_1_1AdvectionDiffusionSweeper.html#aeadc517097ebebd2eb14398271d6d576" target="_top" xlink:title="pfasst::examples::advection\l_diffusion::AdvectionDiffusionSweeper\l::init_logs">
<polygon fill="white" stroke="black" points="313,-98 313,-139 501,-139 501,-98 313,-98"/>
<text text-anchor="start" x="321" y="-127" font-family="Helvetica,sans-Serif" font-size="10.00">pfasst::examples::advection</text>
<text text-anchor="start" x="321" y="-116" font-family="Helvetica,sans-Serif" font-size="10.00">_diffusion::AdvectionDiffusionSweeper</text>
<text text-anchor="middle" x="407" y="-105" font-family="Helvetica,sans-Serif" font-size="10.00">::init_logs</text>
</a>
</g>
</g>
<!-- Node2&#45;&gt;Node3 -->
<g id="edge2" class="edge"><title>Node2&#45;&gt;Node3</title>
<path fill="none" stroke="midnightblue" d="M278.221,-82.2793C295.953,-87.3056 315.394,-92.8163 333.643,-97.9893"/>
<polygon fill="midnightblue" stroke="midnightblue" points="279.14,-78.9019 268.565,-79.542 277.231,-85.6366 279.14,-78.9019"/>
</g>
<!-- Node4 -->
<g id="node4" class="node"><title>Node4</title>
<g id="a_node4"><a xlink:href="../../da/d74/namespacepfasst_1_1examples_1_1boris.html#a87ab9b1f4a83b4f932e9a3cd588cbbad" target="_top" xlink:title="pfasst::examples::boris\l::init_logs">
<polygon fill="white" stroke="black" points="346.5,-49.5 346.5,-79.5 467.5,-79.5 467.5,-49.5 346.5,-49.5"/>
<text text-anchor="start" x="354.5" y="-67.5" font-family="Helvetica,sans-Serif" font-size="10.00">pfasst::examples::boris</text>
<text text-anchor="middle" x="407" y="-56.5" font-family="Helvetica,sans-Serif" font-size="10.00">::init_logs</text>
</a>
</g>
</g>
<!-- Node2&#45;&gt;Node4 -->
<g id="edge3" class="edge"><title>Node2&#45;&gt;Node4</title>
<path fill="none" stroke="midnightblue" d="M287.128,-64.5C306.611,-64.5 327.501,-64.5 346.249,-64.5"/>
<polygon fill="midnightblue" stroke="midnightblue" points="287.087,-61.0001 277.087,-64.5 287.087,-68.0001 287.087,-61.0001"/>
</g>
<!-- Node2&#45;&gt;Node5 -->
<g id="edge4" class="edge"><title>Node2&#45;&gt;Node5</title>
<path fill="none" stroke="midnightblue" d="M283.729,-46.9502C304.649,-41.5694 327.464,-35.701 347.66,-30.5062"/>
<polygon fill="midnightblue" stroke="midnightblue" points="282.764,-43.5846 273.951,-49.4654 284.508,-50.3639 282.764,-43.5846"/>
</g>
<!-- Node9 -->
<g id="node9" class="node"><title>Node9</title>
<g id="a_node9"><a xlink:href="../../df/df8/test__advection__diffusion_8cpp.html#a3c04138a5bfe5d72780bb7e82a18e627" target="_top" xlink:title="main">
<polygon fill="white" stroke="black" points="691.5,-101 691.5,-120 729.5,-120 729.5,-101 691.5,-101"/>
<text text-anchor="middle" x="710.5" y="-108" font-family="Helvetica,sans-Serif" font-size="10.00">main</text>
</a>
</g>
</g>
<!-- Node2&#45;&gt;Node9 -->
<g id="edge9" class="edge"><title>Node2&#45;&gt;Node9</title>
<path fill="none" stroke="midnightblue" d="M233.7,-87.5547C251.429,-107.986 280.416,-136.4 313,-148.5 451.08,-199.778 633.874,-139.42 691.385,-117.696"/>
<polygon fill="midnightblue" stroke="midnightblue" points="236.148,-85.028 227.033,-79.6277 230.791,-89.5336 236.148,-85.028"/>
</g>
<!-- Node6 -->
<g id="node6" class="node"><title>Node6</title>
<g id="a_node6"><a xlink:href="../../de/d8c/group__Internals.html#ga73cf933834ba5e5141119310aee971b9" target="_top" xlink:title="Starts easylogging++ with given arguments and loads configuration. ">
<polygon fill="white" stroke="black" points="537,-35 537,-54 644,-54 644,-35 537,-35"/>
<text text-anchor="middle" x="590.5" y="-42" font-family="Helvetica,sans-Serif" font-size="10.00">pfasst::log::start_log</text>
</a>
</g>
</g>
<!-- Node5&#45;&gt;Node6 -->
<g id="edge5" class="edge"><title>Node5&#45;&gt;Node6</title>
<path fill="none" stroke="midnightblue" d="M479.811,-26.974C498.81,-30.0096 518.967,-33.2303 536.749,-36.0715"/>
<polygon fill="midnightblue" stroke="midnightblue" points="480.128,-23.4802 469.701,-25.3585 479.023,-30.3926 480.128,-23.4802"/>
</g>
<!-- Node7 -->
<g id="node7" class="node"><title>Node7</title>
<g id="a_node7"><a xlink:href="../../dc/d57/namespacepfasst.html#a2ad4b6987b5c66b90166f77fc4230e92" target="_top" xlink:title="pfasst::init">
<polygon fill="white" stroke="black" points="680,-35 680,-54 741,-54 741,-35 680,-35"/>
<text text-anchor="middle" x="710.5" y="-42" font-family="Helvetica,sans-Serif" font-size="10.00">pfasst::init</text>
</a>
</g>
</g>
<!-- Node6&#45;&gt;Node7 -->
<g id="edge6" class="edge"><title>Node6&#45;&gt;Node7</title>
<path fill="none" stroke="midnightblue" d="M654.291,-44.5C663.147,-44.5 671.888,-44.5 679.712,-44.5"/>
<polygon fill="midnightblue" stroke="midnightblue" points="654.288,-41.0001 644.288,-44.5 654.288,-48.0001 654.288,-41.0001"/>
</g>
<!-- Node6&#45;&gt;Node9 -->
<g id="edge8" class="edge"><title>Node6&#45;&gt;Node9</title>
<path fill="none" stroke="midnightblue" d="M617.454,-59.0168C640.211,-71.7452 672.649,-89.8886 692.321,-100.891"/>
<polygon fill="midnightblue" stroke="midnightblue" points="619.094,-55.9239 608.658,-54.097 615.677,-62.0332 619.094,-55.9239"/>
</g>
<!-- Node8 -->
<g id="node8" class="node"><title>Node8</title>
<g id="a_node8"><a xlink:href="../../d1/d49/mpi__pfasst_8cpp.html#a3c04138a5bfe5d72780bb7e82a18e627" target="_top" xlink:title="main">
<polygon fill="white" stroke="black" points="777,-35 777,-54 815,-54 815,-35 777,-35"/>
<text text-anchor="middle" x="796" y="-42" font-family="Helvetica,sans-Serif" font-size="10.00">main</text>
</a>
</g>
</g>
<!-- Node7&#45;&gt;Node8 -->
<g id="edge7" class="edge"><title>Node7&#45;&gt;Node8</title>
<path fill="none" stroke="midnightblue" d="M751.381,-44.5C760.201,-44.5 769.131,-44.5 776.595,-44.5"/>
<polygon fill="midnightblue" stroke="midnightblue" points="751.174,-41.0001 741.174,-44.5 751.174,-48.0001 751.174,-41.0001"/>
</g>
</g>
</svg>
