<?xml version="1.0" encoding="UTF-8" standalone="no"?>
<!DOCTYPE svg PUBLIC "-//W3C//DTD SVG 1.1//EN"
 "http://www.w3.org/Graphics/SVG/1.1/DTD/svg11.dtd">
<!-- Generated by graphviz version 2.38.0 (20140413.2041)
 -->
<!-- Title: pfasst::log::format_mpi_rank Pages: 1 -->
<svg width="1095pt" height="177pt"
 viewBox="0.00 0.00 1095.00 176.98" xmlns="http://www.w3.org/2000/svg" xmlns:xlink="http://www.w3.org/1999/xlink">
<g id="graph0" class="graph" transform="scale(1 1) rotate(0) translate(4 172.981)">
<title>pfasst::log::format_mpi_rank</title>
<polygon fill="white" stroke="none" points="-4,4 -4,-172.981 1091,-172.981 1091,4 -4,4"/>
<!-- Node1 -->
<g id="node1" class="node"><title>Node1</title>
<polygon fill="#bfbfbf" stroke="black" points="0,-27.5 0,-57.5 97,-57.5 97,-27.5 0,-27.5"/>
<text text-anchor="start" x="8" y="-45.5" font-family="Helvetica,sans-Serif" font-size="10.00">pfasst::log::format</text>
<text text-anchor="middle" x="48.5" y="-34.5" font-family="Helvetica,sans-Serif" font-size="10.00">_mpi_rank</text>
</g>
<!-- Node2 -->
<g id="node2" class="node"><title>Node2</title>
<g id="a_node2"><a xlink:href="../../da/d50/namespacepfasst_1_1log.html#a8502afef42b4e98a12249d5fa1fed092" target="_top" xlink:title="Provides convenient way of adding additional named loggers. ">
<polygon fill="white" stroke="black" points="424,-49.5 424,-79.5 549,-79.5 549,-49.5 424,-49.5"/>
<text text-anchor="start" x="432" y="-67.5" font-family="Helvetica,sans-Serif" font-size="10.00">pfasst::log::add_custom</text>
<text text-anchor="middle" x="486.5" y="-56.5" font-family="Helvetica,sans-Serif" font-size="10.00">_logger</text>
</a>
</g>
</g>
<!-- Node1&#45;&gt;Node2 -->
<g id="edge1" class="edge"><title>Node1&#45;&gt;Node2</title>
<path fill="none" stroke="midnightblue" d="M107.584,-45.4308C189.871,-49.5829 339.715,-57.1439 423.886,-61.391"/>
<polygon fill="midnightblue" stroke="midnightblue" points="107.571,-41.9258 97.4068,-44.9173 107.218,-48.9169 107.571,-41.9258"/>
</g>
<!-- Node10 -->
<g id="node10" class="node"><title>Node10</title>
<g id="a_node10"><a xlink:href="../../de/d8c/group__Internals.html#ga74a6cd18764de8c81da478a7eb33ee4a" target="_top" xlink:title="Composes the log file name for the local rank. ">
<polygon fill="white" stroke="black" points="133,-5.5 133,-35.5 236,-35.5 236,-5.5 133,-5.5"/>
<text text-anchor="start" x="141" y="-23.5" font-family="Helvetica,sans-Serif" font-size="10.00">pfasst::log::get_log</text>
<text text-anchor="middle" x="184.5" y="-12.5" font-family="Helvetica,sans-Serif" font-size="10.00">_file_name</text>
</a>
</g>
</g>
<!-- Node1&#45;&gt;Node10 -->
<g id="edge10" class="edge"><title>Node1&#45;&gt;Node10</title>
<path fill="none" stroke="midnightblue" d="M107.061,-33.0496C115.641,-31.641 124.432,-30.1977 132.855,-28.8148"/>
<polygon fill="midnightblue" stroke="midnightblue" points="106.422,-29.6077 97.1207,-34.6817 107.556,-36.5153 106.422,-29.6077"/>
</g>
<!-- Node3 -->
<g id="node3" class="node"><title>Node3</title>
<g id="a_node3"><a xlink:href="../../d2/dfe/classpfasst_1_1examples_1_1advection__diffusion_1_1AdvectionDiffusionSweeper.html#aeadc517097ebebd2eb14398271d6d576" target="_top" xlink:title="pfasst::examples::advection\l_diffusion::AdvectionDiffusionSweeper\l::init_logs">
<polygon fill="white" stroke="black" points="585,-98 585,-139 773,-139 773,-98 585,-98"/>
<text text-anchor="start" x="593" y="-127" font-family="Helvetica,sans-Serif" font-size="10.00">pfasst::examples::advection</text>
<text text-anchor="start" x="593" y="-116" font-family="Helvetica,sans-Serif" font-size="10.00">_diffusion::AdvectionDiffusionSweeper</text>
<text text-anchor="middle" x="679" y="-105" font-family="Helvetica,sans-Serif" font-size="10.00">::init_logs</text>
</a>
</g>
</g>
<!-- Node2&#45;&gt;Node3 -->
<g id="edge2" class="edge"><title>Node2&#45;&gt;Node3</title>
<path fill="none" stroke="midnightblue" d="M550.221,-82.2793C567.953,-87.3056 587.394,-92.8163 605.643,-97.9893"/>
<polygon fill="midnightblue" stroke="midnightblue" points="551.14,-78.9019 540.565,-79.542 549.231,-85.6366 551.14,-78.9019"/>
</g>
<!-- Node4 -->
<g id="node4" class="node"><title>Node4</title>
<g id="a_node4"><a xlink:href="../../da/d74/namespacepfasst_1_1examples_1_1boris.html#a87ab9b1f4a83b4f932e9a3cd588cbbad" target="_top" xlink:title="pfasst::examples::boris\l::init_logs">
<polygon fill="white" stroke="black" points="618.5,-49.5 618.5,-79.5 739.5,-79.5 739.5,-49.5 618.5,-49.5"/>
<text text-anchor="start" x="626.5" y="-67.5" font-family="Helvetica,sans-Serif" font-size="10.00">pfasst::examples::boris</text>
<text text-anchor="middle" x="679" y="-56.5" font-family="Helvetica,sans-Serif" font-size="10.00">::init_logs</text>
</a>
</g>
</g>
<!-- Node2&#45;&gt;Node4 -->
<g id="edge3" class="edge"><title>Node2&#45;&gt;Node4</title>
<path fill="none" stroke="midnightblue" d="M559.128,-64.5C578.611,-64.5 599.501,-64.5 618.249,-64.5"/>
<polygon fill="midnightblue" stroke="midnightblue" points="559.087,-61.0001 549.087,-64.5 559.087,-68.0001 559.087,-61.0001"/>
</g>
<!-- Node5 -->
<g id="node5" class="node"><title>Node5</title>
<g id="a_node5"><a xlink:href="../../de/d8c/group__Internals.html#ga94bc88666f61bcc6d85072e6dfdd21f4" target="_top" xlink:title="Sets default configuration for default loggers. ">
<polygon fill="white" stroke="black" points="616.5,-0.5 616.5,-30.5 741.5,-30.5 741.5,-0.5 616.5,-0.5"/>
<text text-anchor="start" x="624.5" y="-18.5" font-family="Helvetica,sans-Serif" font-size="10.00">pfasst::log::load_default</text>
<text text-anchor="middle" x="679" y="-7.5" font-family="Helvetica,sans-Serif" font-size="10.00">_config</text>
</a>
</g>
</g>
<!-- Node2&#45;&gt;Node5 -->
<g id="edge4" class="edge"><title>Node2&#45;&gt;Node5</title>
<path fill="none" stroke="midnightblue" d="M555.729,-46.9502C576.649,-41.5694 599.464,-35.701 619.66,-30.5062"/>
<polygon fill="midnightblue" stroke="midnightblue" points="554.764,-43.5846 545.951,-49.4654 556.508,-50.3639 554.764,-43.5846"/>
</g>
<!-- Node9 -->
<g id="node9" class="node"><title>Node9</title>
<g id="a_node9"><a xlink:href="../../df/df8/test__advection__diffusion_8cpp.html#a3c04138a5bfe5d72780bb7e82a18e627" target="_top" xlink:title="main">
<polygon fill="white" stroke="black" points="963.5,-101 963.5,-120 1001.5,-120 1001.5,-101 963.5,-101"/>
<text text-anchor="middle" x="982.5" y="-108" font-family="Helvetica,sans-Serif" font-size="10.00">main</text>
</a>
</g>
</g>
<!-- Node2&#45;&gt;Node9 -->
<g id="edge9" class="edge"><title>Node2&#45;&gt;Node9</title>
<path fill="none" stroke="midnightblue" d="M505.7,-87.5547C523.429,-107.986 552.416,-136.4 585,-148.5 723.08,-199.778 905.874,-139.42 963.385,-117.696"/>
<polygon fill="midnightblue" stroke="midnightblue" points="508.148,-85.028 499.033,-79.6277 502.791,-89.5336 508.148,-85.028"/>
</g>
<!-- Node6 -->
<g id="node6" class="node"><title>Node6</title>
<g id="a_node6"><a xlink:href="../../de/d8c/group__Internals.html#ga73cf933834ba5e5141119310aee971b9" target="_top" xlink:title="Starts easylogging++ with given arguments and loads configuration. ">
<polygon fill="white" stroke="black" points="809,-35 809,-54 916,-54 916,-35 809,-35"/>
<text text-anchor="middle" x="862.5" y="-42" font-family="Helvetica,sans-Serif" font-size="10.00">pfasst::log::start_log</text>
</a>
</g>
</g>
<!-- Node5&#45;&gt;Node6 -->
<g id="edge5" class="edge"><title>Node5&#45;&gt;Node6</title>
<path fill="none" stroke="midnightblue" d="M751.811,-26.974C770.81,-30.0096 790.967,-33.2303 808.749,-36.0715"/>
<polygon fill="midnightblue" stroke="midnightblue" points="752.128,-23.4802 741.701,-25.3585 751.023,-30.3926 752.128,-23.4802"/>
</g>
<!-- Node7 -->
<g id="node7" class="node"><title>Node7</title>
<g id="a_node7"><a xlink:href="../../dc/d57/namespacepfasst.html#a2ad4b6987b5c66b90166f77fc4230e92" target="_top" xlink:title="pfasst::init">
<polygon fill="white" stroke="black" points="952,-35 952,-54 1013,-54 1013,-35 952,-35"/>
<text text-anchor="middle" x="982.5" y="-42" font-family="Helvetica,sans-Serif" font-size="10.00">pfasst::init</text>
</a>
</g>
</g>
<!-- Node6&#45;&gt;Node7 -->
<g id="edge6" class="edge"><title>Node6&#45;&gt;Node7</title>
<path fill="none" stroke="midnightblue" d="M926.291,-44.5C935.147,-44.5 943.888,-44.5 951.712,-44.5"/>
<polygon fill="midnightblue" stroke="midnightblue" points="926.288,-41.0001 916.288,-44.5 926.288,-48.0001 926.288,-41.0001"/>
</g>
<!-- Node6&#45;&gt;Node9 -->
<g id="edge8" class="edge"><title>Node6&#45;&gt;Node9</title>
<path fill="none" stroke="midnightblue" d="M889.454,-59.0168C912.211,-71.7452 944.649,-89.8886 964.321,-100.891"/>
<polygon fill="midnightblue" stroke="midnightblue" points="891.094,-55.9239 880.658,-54.097 887.677,-62.0332 891.094,-55.9239"/>
</g>
<!-- Node8 -->
<g id="node8" class="node"><title>Node8</title>
<g id="a_node8"><a xlink:href="../../d1/d49/mpi__pfasst_8cpp.html#a3c04138a5bfe5d72780bb7e82a18e627" target="_top" xlink:title="main">
<polygon fill="white" stroke="black" points="1049,-35 1049,-54 1087,-54 1087,-35 1049,-35"/>
<text text-anchor="middle" x="1068" y="-42" font-family="Helvetica,sans-Serif" font-size="10.00">main</text>
</a>
</g>
</g>
<!-- Node7&#45;&gt;Node8 -->
<g id="edge7" class="edge"><title>Node7&#45;&gt;Node8</title>
<path fill="none" stroke="midnightblue" d="M1023.38,-44.5C1032.2,-44.5 1041.13,-44.5 1048.59,-44.5"/>
<polygon fill="midnightblue" stroke="midnightblue" points="1023.17,-41.0001 1013.17,-44.5 1023.17,-48.0001 1023.17,-41.0001"/>
</g>
<!-- Node11 -->
<g id="node11" class="node"><title>Node11</title>
<g id="a_node11"><a xlink:href="../../de/d8c/group__Internals.html#ga2f4ba84c8482c3fb5c86e599804f832a" target="_top" xlink:title="Sets global logging options. ">
<polygon fill="white" stroke="black" points="272,-5.5 272,-35.5 388,-35.5 388,-5.5 272,-5.5"/>
<text text-anchor="start" x="280" y="-23.5" font-family="Helvetica,sans-Serif" font-size="10.00">pfasst::log::set_global</text>
<text text-anchor="middle" x="330" y="-12.5" font-family="Helvetica,sans-Serif" font-size="10.00">_logging_options</text>
</a>
</g>
</g>
<!-- Node10&#45;&gt;Node11 -->
<g id="edge11" class="edge"><title>Node10&#45;&gt;Node11</title>
<path fill="none" stroke="midnightblue" d="M246.196,-20.5C254.588,-20.5 263.188,-20.5 271.52,-20.5"/>
<polygon fill="midnightblue" stroke="midnightblue" points="246.093,-17.0001 236.093,-20.5 246.093,-24.0001 246.093,-17.0001"/>
</g>
<!-- Node11&#45;&gt;Node2 -->
<g id="edge12" class="edge"><title>Node11&#45;&gt;Node2</title>
<path fill="none" stroke="midnightblue" d="M393.544,-38.3118C406.547,-42.015 420.128,-45.8827 432.738,-49.4738"/>
<polygon fill="midnightblue" stroke="midnightblue" points="394.314,-34.8921 383.738,-35.5192 392.397,-41.6245 394.314,-34.8921"/>
</g>
<!-- Node11&#45;&gt;Node5 -->
<g id="edge13" class="edge"><title>Node11&#45;&gt;Node5</title>
<path fill="none" stroke="midnightblue" d="M398.546,-19.5267C461.649,-18.6174 555.055,-17.2715 616.223,-16.3902"/>
<polygon fill="midnightblue" stroke="midnightblue" points="398.248,-16.0305 388.3,-19.6744 398.349,-23.0298 398.248,-16.0305"/>
</g>
</g>
</svg>
