<?xml version="1.0" encoding="UTF-8" standalone="no"?>
<!DOCTYPE svg PUBLIC "-//W3C//DTD SVG 1.1//EN"
 "http://www.w3.org/Graphics/SVG/1.1/DTD/svg11.dtd">
<!-- Generated by graphviz version 2.38.0 (20140413.2041)
 -->
<!-- Title: pfasst::log::start_log Pages: 1 -->
<svg width="1029pt" height="158pt"
 viewBox="0.00 0.00 1029.00 157.91" xmlns="http://www.w3.org/2000/svg" xmlns:xlink="http://www.w3.org/1999/xlink">
<g id="graph0" class="graph" transform="scale(1 1) rotate(0) translate(4 153.911)">
<title>pfasst::log::start_log</title>
<polygon fill="white" stroke="none" points="-4,4 -4,-153.911 1025,-153.911 1025,4 -4,4"/>
<!-- Node1 -->
<g id="node1" class="node"><title>Node1</title>
<polygon fill="#bfbfbf" stroke="black" points="0,-58.9111 0,-77.9111 107,-77.9111 107,-58.9111 0,-58.9111"/>
<text text-anchor="middle" x="53.5" y="-65.9111" font-family="Helvetica,sans-Serif" font-size="10.00">pfasst::log::start_log</text>
</g>
<!-- Node2 -->
<g id="node2" class="node"><title>Node2</title>
<g id="a_node2"><a xlink:href="../../de/d8c/group__Internals.html#ga94bc88666f61bcc6d85072e6dfdd21f4" target="_top" xlink:title="Sets default configuration for default loggers. ">
<polygon fill="white" stroke="black" points="143,-78.4111 143,-108.411 268,-108.411 268,-78.4111 143,-78.4111"/>
<text text-anchor="start" x="151" y="-96.4111" font-family="Helvetica,sans-Serif" font-size="10.00">pfasst::log::load_default</text>
<text text-anchor="middle" x="205.5" y="-85.4111" font-family="Helvetica,sans-Serif" font-size="10.00">_config</text>
</a>
</g>
</g>
<!-- Node1&#45;&gt;Node2 -->
<g id="edge1" class="edge"><title>Node1&#45;&gt;Node2</title>
<path fill="none" stroke="midnightblue" d="M107.384,-77.2252C115.629,-78.5993 124.266,-80.0388 132.844,-81.4685"/>
<polygon fill="midnightblue" stroke="midnightblue" points="132.421,-84.9461 142.86,-83.1378 133.572,-78.0414 132.421,-84.9461"/>
</g>
<!-- Node10 -->
<g id="node10" class="node"><title>Node10</title>
<g id="a_node10"><a xlink:href="../../de/d8c/group__Internals.html#gaabd9df9fe7db34deb4ec893d6b0b7fa2" target="_top" xlink:title="Sets some default flags for easylogging++. ">
<polygon fill="white" stroke="black" points="144.5,-29.4111 144.5,-59.4111 266.5,-59.4111 266.5,-29.4111 144.5,-29.4111"/>
<text text-anchor="start" x="152.5" y="-47.4111" font-family="Helvetica,sans-Serif" font-size="10.00">pfasst::log::set_logging</text>
<text text-anchor="middle" x="205.5" y="-36.4111" font-family="Helvetica,sans-Serif" font-size="10.00">_flags</text>
</a>
</g>
</g>
<!-- Node1&#45;&gt;Node10 -->
<g id="edge13" class="edge"><title>Node1&#45;&gt;Node10</title>
<path fill="none" stroke="midnightblue" d="M107.384,-59.9496C116.087,-58.5572 125.225,-57.0951 134.271,-55.6478"/>
<polygon fill="midnightblue" stroke="midnightblue" points="135.095,-59.0606 144.416,-54.0246 133.989,-52.1485 135.095,-59.0606"/>
</g>
<!-- Node3 -->
<g id="node3" class="node"><title>Node3</title>
<g id="a_node3"><a xlink:href="../../da/d50/namespacepfasst_1_1log.html#a8502afef42b4e98a12249d5fa1fed092" target="_top" xlink:title="Provides convenient way of adding additional named loggers. ">
<polygon fill="white" stroke="black" points="304,-56.4111 304,-86.4111 429,-86.4111 429,-56.4111 304,-56.4111"/>
<text text-anchor="start" x="312" y="-74.4111" font-family="Helvetica,sans-Serif" font-size="10.00">pfasst::log::add_custom</text>
<text text-anchor="middle" x="366.5" y="-63.4111" font-family="Helvetica,sans-Serif" font-size="10.00">_logger</text>
</a>
</g>
</g>
<!-- Node2&#45;&gt;Node3 -->
<g id="edge2" class="edge"><title>Node2&#45;&gt;Node3</title>
<path fill="none" stroke="midnightblue" d="M268.429,-84.8423C276.674,-83.7016 285.184,-82.524 293.58,-81.3623"/>
<polygon fill="midnightblue" stroke="midnightblue" points="294.314,-84.7941 303.74,-79.9565 293.355,-77.8602 294.314,-84.7941"/>
</g>
<!-- Node8 -->
<g id="node8" class="node"><title>Node8</title>
<g id="a_node8"><a xlink:href="../../de/d8c/group__Internals.html#ga2f4ba84c8482c3fb5c86e599804f832a" target="_top" xlink:title="Sets global logging options. ">
<polygon fill="white" stroke="black" points="465,-100.411 465,-130.411 581,-130.411 581,-100.411 465,-100.411"/>
<text text-anchor="start" x="473" y="-118.411" font-family="Helvetica,sans-Serif" font-size="10.00">pfasst::log::set_global</text>
<text text-anchor="middle" x="523" y="-107.411" font-family="Helvetica,sans-Serif" font-size="10.00">_logging_options</text>
</a>
</g>
</g>
<!-- Node2&#45;&gt;Node8 -->
<g id="edge12" class="edge"><title>Node2&#45;&gt;Node8</title>
<path fill="none" stroke="midnightblue" d="M268.081,-97.7052C321.766,-101.449 399.48,-106.868 454.77,-110.723"/>
<polygon fill="midnightblue" stroke="midnightblue" points="454.603,-114.22 464.822,-111.424 455.09,-107.237 454.603,-114.22"/>
</g>
<!-- Node4 -->
<g id="node4" class="node"><title>Node4</title>
<g id="a_node4"><a xlink:href="../../da/d27/classpfasst_1_1config_1_1options.html#a4f130f9b500d6f3dee7df20894233608" target="_top" xlink:title="Accessor to the singleton instance. ">
<polygon fill="white" stroke="black" points="617,-70.4111 617,-100.411 731,-100.411 731,-70.4111 617,-70.4111"/>
<text text-anchor="start" x="625" y="-88.4111" font-family="Helvetica,sans-Serif" font-size="10.00">pfasst::config::options</text>
<text text-anchor="middle" x="674" y="-77.4111" font-family="Helvetica,sans-Serif" font-size="10.00">::get_instance</text>
</a>
</g>
</g>
<!-- Node3&#45;&gt;Node4 -->
<g id="edge3" class="edge"><title>Node3&#45;&gt;Node4</title>
<path fill="none" stroke="midnightblue" d="M429.322,-74.2442C480.811,-76.6037 553.97,-79.9564 606.672,-82.3716"/>
<polygon fill="midnightblue" stroke="midnightblue" points="606.778,-85.88 616.928,-82.8415 607.098,-78.8873 606.778,-85.88"/>
</g>
<!-- Node5 -->
<g id="node5" class="node"><title>Node5</title>
<g id="a_node5"><a xlink:href="../../da/d27/classpfasst_1_1config_1_1options.html#a9ad40d67da1066f5053e47e278b3b154" target="_top" xlink:title="pfasst::config::options\l::get_variables_map">
<polygon fill="white" stroke="black" points="617,-21.4111 617,-51.4111 731,-51.4111 731,-21.4111 617,-21.4111"/>
<text text-anchor="start" x="625" y="-39.4111" font-family="Helvetica,sans-Serif" font-size="10.00">pfasst::config::options</text>
<text text-anchor="middle" x="674" y="-28.4111" font-family="Helvetica,sans-Serif" font-size="10.00">::get_variables_map</text>
</a>
</g>
</g>
<!-- Node3&#45;&gt;Node5 -->
<g id="edge4" class="edge"><title>Node3&#45;&gt;Node5</title>
<path fill="none" stroke="midnightblue" d="M429.322,-64.3283C480.811,-58.4295 553.97,-50.0479 606.672,-44.01"/>
<polygon fill="midnightblue" stroke="midnightblue" points="607.391,-47.4507 616.928,-42.8351 606.594,-40.4962 607.391,-47.4507"/>
</g>
<!-- Node6 -->
<g id="node6" class="node"><title>Node6</title>
<g id="a_node6"><a xlink:href="../../de/d8c/group__Internals.html#ga2fbecb551eda65e49c93122c05142aec" target="_top" xlink:title="Formats the local MPI world rank as a string. ">
<polygon fill="white" stroke="black" points="767,-48.4111 767,-78.4111 864,-78.4111 864,-48.4111 767,-48.4111"/>
<text text-anchor="start" x="775" y="-66.4111" font-family="Helvetica,sans-Serif" font-size="10.00">pfasst::log::format</text>
<text text-anchor="middle" x="815.5" y="-55.4111" font-family="Helvetica,sans-Serif" font-size="10.00">_mpi_rank</text>
</a>
</g>
</g>
<!-- Node3&#45;&gt;Node6 -->
<g id="edge5" class="edge"><title>Node3&#45;&gt;Node6</title>
<path fill="none" stroke="midnightblue" d="M400.641,-56.3446C465.22,-29.0773 612.003,22.6127 731,-11.4111 752.058,-17.4322 772.974,-30.4712 788.604,-41.9854"/>
<polygon fill="midnightblue" stroke="midnightblue" points="786.638,-44.8878 796.712,-48.1711 790.885,-39.3227 786.638,-44.8878"/>
</g>
<!-- Node3&#45;&gt;Node8 -->
<g id="edge7" class="edge"><title>Node3&#45;&gt;Node8</title>
<path fill="none" stroke="midnightblue" d="M420.238,-86.4304C432.847,-90.0211 446.427,-93.8887 459.431,-97.5922"/>
<polygon fill="midnightblue" stroke="midnightblue" points="458.661,-101.012 469.238,-100.385 460.579,-94.2797 458.661,-101.012"/>
</g>
<!-- Node7 -->
<g id="node7" class="node"><title>Node7</title>
<g id="a_node7"><a xlink:href="../../d3/d91/namespacepfasst_1_1config.html#a69bf5d072b24805ad0004d40bcd2744e" target="_top" xlink:title="Get MPI rank during initialization. ">
<polygon fill="white" stroke="black" points="900,-53.9111 900,-72.9111 1021,-72.9111 1021,-53.9111 900,-53.9111"/>
<text text-anchor="middle" x="960.5" y="-60.9111" font-family="Helvetica,sans-Serif" font-size="10.00">pfasst::config::get_rank</text>
</a>
</g>
</g>
<!-- Node6&#45;&gt;Node7 -->
<g id="edge6" class="edge"><title>Node6&#45;&gt;Node7</title>
<path fill="none" stroke="midnightblue" d="M864.117,-63.4111C872.351,-63.4111 881.062,-63.4111 889.739,-63.4111"/>
<polygon fill="midnightblue" stroke="midnightblue" points="889.879,-66.9112 899.879,-63.4111 889.879,-59.9112 889.879,-66.9112"/>
</g>
<!-- Node8&#45;&gt;Node4 -->
<g id="edge8" class="edge"><title>Node8&#45;&gt;Node4</title>
<path fill="none" stroke="midnightblue" d="M581.181,-103.898C589.557,-102.212 598.242,-100.463 606.781,-98.7438"/>
<polygon fill="midnightblue" stroke="midnightblue" points="607.597,-102.15 616.709,-96.7448 606.215,-95.2876 607.597,-102.15"/>
</g>
<!-- Node8&#45;&gt;Node5 -->
<g id="edge11" class="edge"><title>Node8&#45;&gt;Node5</title>
<path fill="none" stroke="midnightblue" d="M548.471,-100.244C566.999,-88.9974 593.233,-73.5732 617,-61.4111 620.732,-59.5014 624.641,-57.5877 628.584,-55.7164"/>
<polygon fill="midnightblue" stroke="midnightblue" points="630.181,-58.8336 637.779,-51.449 627.234,-52.4841 630.181,-58.8336"/>
</g>
<!-- Node9 -->
<g id="node9" class="node"><title>Node9</title>
<g id="a_node9"><a xlink:href="../../de/d8c/group__Internals.html#ga74a6cd18764de8c81da478a7eb33ee4a" target="_top" xlink:title="Composes the log file name for the local rank. ">
<polygon fill="white" stroke="black" points="622.5,-119.411 622.5,-149.411 725.5,-149.411 725.5,-119.411 622.5,-119.411"/>
<text text-anchor="start" x="630.5" y="-137.411" font-family="Helvetica,sans-Serif" font-size="10.00">pfasst::log::get_log</text>
<text text-anchor="middle" x="674" y="-126.411" font-family="Helvetica,sans-Serif" font-size="10.00">_file_name</text>
</a>
</g>
</g>
<!-- Node8&#45;&gt;Node9 -->
<g id="edge9" class="edge"><title>Node8&#45;&gt;Node9</title>
<path fill="none" stroke="midnightblue" d="M581.181,-122.703C591.276,-123.99 601.819,-125.334 612.013,-126.634"/>
<polygon fill="midnightblue" stroke="midnightblue" points="611.699,-130.122 622.061,-127.916 612.584,-123.179 611.699,-130.122"/>
</g>
<!-- Node9&#45;&gt;Node6 -->
<g id="edge10" class="edge"><title>Node9&#45;&gt;Node6</title>
<path fill="none" stroke="midnightblue" d="M711.708,-119.352C718.191,-116.502 724.836,-113.456 731,-110.411 747.551,-102.236 765.443,-92.3171 780.403,-83.7022"/>
<polygon fill="midnightblue" stroke="midnightblue" points="782.411,-86.5832 789.301,-78.534 778.896,-80.5301 782.411,-86.5832"/>
</g>
</g>
</svg>
