<?xml version="1.0" encoding="UTF-8" standalone="no"?>
<!DOCTYPE svg PUBLIC "-//W3C//DTD SVG 1.1//EN"
 "http://www.w3.org/Graphics/SVG/1.1/DTD/svg11.dtd">
<!-- Generated by graphviz version 2.38.0 (20140413.2041)
 -->
<!-- Title: pfasst::log::load_default_config Pages: 1 -->
<!--zoomable 158 -->
<svg id="main" version="1.1" xmlns="http://www.w3.org/2000/svg" xmlns:xlink="http://www.w3.org/1999/xlink" xml:space="preserve" onload="init(evt)">
<style type="text/css"><![CDATA[
.edge:hover path { stroke: red; }
.edge:hover polygon { stroke: red; fill: red; }
]]></style>
<script type="text/javascript"><![CDATA[
var edges = document.getElementsByTagName('g');
if (edges && edges.length) {
  for (var i=0;i<edges.length;i++) {
    if (edges[i].id.substr(0,4)=='edge') {
      edges[i].setAttribute('class','edge');
    }
  }
}
]]></script>
        <defs>
                <circle id="rim" cx="0" cy="0" r="7"/>
                <circle id="rim2" cx="0" cy="0" r="3.5"/>
                <g id="zoomPlus">
                        <use xlink:href="#rim" fill="#404040">
                                <set attributeName="fill" to="#808080" begin="zoomplus.mouseover" end="zoomplus.mouseout"/>
                        </use>
                        <path d="M-4,0h8M0,-4v8" fill="none" stroke="white" stroke-width="1.5" pointer-events="none"/>
                </g>
                <g id="zoomMin">
                        <use xlink:href="#rim" fill="#404040">
                                <set attributeName="fill" to="#808080" begin="zoomminus.mouseover" end="zoomminus.mouseout"/>
                        </use>
                        <path d="M-4,0h8" fill="none" stroke="white" stroke-width="1.5" pointer-events="none"/>
                </g>
                <g id="dirArrow">
                        <path fill="none" stroke="white" stroke-width="1.5" d="M0,-3.0v7 M-2.5,-0.5L0,-3.0L2.5,-0.5"/>
                </g>
               <g id="resetDef">
                       <use xlink:href="#rim2" fill="#404040">
                               <set attributeName="fill" to="#808080" begin="reset.mouseover" end="reset.mouseout"/>
                       </use>
               </g>
        </defs>

<script type="text/javascript">
var viewWidth = 886;
var viewHeight = 158;
var sectionId = 'dynsection-4';
</script>
<script xlink:href="../../svgpan.js"/>
<svg id="graph" class="graph">
<g id="viewport">
<title>pfasst::log::load_default_config</title>
<polygon fill="white" stroke="none" points="-4,4 -4,-153.911 882,-153.911 882,4 -4,4"/>
<!-- Node1 -->
<g id="node1" class="node"><title>Node1</title>
<polygon fill="#bfbfbf" stroke="black" points="0,-78.4111 0,-108.411 125,-108.411 125,-78.4111 0,-78.4111"/>
<text text-anchor="start" x="8" y="-96.4111" font-family="Helvetica,sans-Serif" font-size="10.00">pfasst::log::load_default</text>
<text text-anchor="middle" x="62.5" y="-85.4111" font-family="Helvetica,sans-Serif" font-size="10.00">_config</text>
</g>
<!-- Node2 -->
<g id="node2" class="node"><title>Node2</title>
<g id="a_node2"><a xlink:href="../../da/d50/namespacepfasst_1_1log.html#a8502afef42b4e98a12249d5fa1fed092" target="_top" xlink:title="Provides convenient way of adding additional named loggers. ">
<polygon fill="white" stroke="black" points="161,-56.4111 161,-86.4111 286,-86.4111 286,-56.4111 161,-56.4111"/>
<text text-anchor="start" x="169" y="-74.4111" font-family="Helvetica,sans-Serif" font-size="10.00">pfasst::log::add_custom</text>
<text text-anchor="middle" x="223.5" y="-63.4111" font-family="Helvetica,sans-Serif" font-size="10.00">_logger</text>
</a>
</g>
</g>
<!-- Node1&#45;&gt;Node2 -->
<g id="edge1" class="edge"><title>Node1&#45;&gt;Node2</title>
<path fill="none" stroke="midnightblue" d="M125.429,-84.8423C133.674,-83.7016 142.184,-82.524 150.58,-81.3623"/>
<polygon fill="midnightblue" stroke="midnightblue" points="151.314,-84.7941 160.74,-79.9565 150.355,-77.8602 151.314,-84.7941"/>
</g>
<!-- Node7 -->
<g id="node7" class="node"><title>Node7</title>
<g id="a_node7"><a xlink:href="../../de/d8c/group__Internals.html#ga2f4ba84c8482c3fb5c86e599804f832a" target="_top" xlink:title="Sets global logging options. ">
<polygon fill="white" stroke="black" points="322,-100.411 322,-130.411 438,-130.411 438,-100.411 322,-100.411"/>
<text text-anchor="start" x="330" y="-118.411" font-family="Helvetica,sans-Serif" font-size="10.00">pfasst::log::set_global</text>
<text text-anchor="middle" x="380" y="-107.411" font-family="Helvetica,sans-Serif" font-size="10.00">_logging_options</text>
</a>
</g>
</g>
<!-- Node1&#45;&gt;Node7 -->
<g id="edge11" class="edge"><title>Node1&#45;&gt;Node7</title>
<path fill="none" stroke="midnightblue" d="M125.081,-97.7052C178.766,-101.449 256.48,-106.868 311.77,-110.723"/>
<polygon fill="midnightblue" stroke="midnightblue" points="311.603,-114.22 321.822,-111.424 312.09,-107.237 311.603,-114.22"/>
</g>
<!-- Node3 -->
<g id="node3" class="node"><title>Node3</title>
<g id="a_node3"><a xlink:href="../../da/d27/classpfasst_1_1config_1_1options.html#a4f130f9b500d6f3dee7df20894233608" target="_top" xlink:title="Accessor to the singleton instance. ">
<polygon fill="white" stroke="black" points="474,-70.4111 474,-100.411 588,-100.411 588,-70.4111 474,-70.4111"/>
<text text-anchor="start" x="482" y="-88.4111" font-family="Helvetica,sans-Serif" font-size="10.00">pfasst::config::options</text>
<text text-anchor="middle" x="531" y="-77.4111" font-family="Helvetica,sans-Serif" font-size="10.00">::get_instance</text>
</a>
</g>
</g>
<!-- Node2&#45;&gt;Node3 -->
<g id="edge2" class="edge"><title>Node2&#45;&gt;Node3</title>
<path fill="none" stroke="midnightblue" d="M286.322,-74.2442C337.811,-76.6037 410.97,-79.9564 463.672,-82.3716"/>
<polygon fill="midnightblue" stroke="midnightblue" points="463.778,-85.88 473.928,-82.8415 464.098,-78.8873 463.778,-85.88"/>
</g>
<!-- Node4 -->
<g id="node4" class="node"><title>Node4</title>
<g id="a_node4"><a xlink:href="../../da/d27/classpfasst_1_1config_1_1options.html#a9ad40d67da1066f5053e47e278b3b154" target="_top" xlink:title="pfasst::config::options\l::get_variables_map">
<polygon fill="white" stroke="black" points="474,-21.4111 474,-51.4111 588,-51.4111 588,-21.4111 474,-21.4111"/>
<text text-anchor="start" x="482" y="-39.4111" font-family="Helvetica,sans-Serif" font-size="10.00">pfasst::config::options</text>
<text text-anchor="middle" x="531" y="-28.4111" font-family="Helvetica,sans-Serif" font-size="10.00">::get_variables_map</text>
</a>
</g>
</g>
<!-- Node2&#45;&gt;Node4 -->
<g id="edge3" class="edge"><title>Node2&#45;&gt;Node4</title>
<path fill="none" stroke="midnightblue" d="M286.322,-64.3283C337.811,-58.4295 410.97,-50.0479 463.672,-44.01"/>
<polygon fill="midnightblue" stroke="midnightblue" points="464.391,-47.4507 473.928,-42.8351 463.594,-40.4962 464.391,-47.4507"/>
</g>
<!-- Node5 -->
<g id="node5" class="node"><title>Node5</title>
<g id="a_node5"><a xlink:href="../../de/d8c/group__Internals.html#ga2fbecb551eda65e49c93122c05142aec" target="_top" xlink:title="Formats the local MPI world rank as a string. ">
<polygon fill="white" stroke="black" points="624,-48.4111 624,-78.4111 721,-78.4111 721,-48.4111 624,-48.4111"/>
<text text-anchor="start" x="632" y="-66.4111" font-family="Helvetica,sans-Serif" font-size="10.00">pfasst::log::format</text>
<text text-anchor="middle" x="672.5" y="-55.4111" font-family="Helvetica,sans-Serif" font-size="10.00">_mpi_rank</text>
</a>
</g>
</g>
<!-- Node2&#45;&gt;Node5 -->
<g id="edge4" class="edge"><title>Node2&#45;&gt;Node5</title>
<path fill="none" stroke="midnightblue" d="M257.641,-56.3446C322.22,-29.0773 469.003,22.6127 588,-11.4111 609.058,-17.4322 629.974,-30.4712 645.604,-41.9854"/>
<polygon fill="midnightblue" stroke="midnightblue" points="643.638,-44.8878 653.712,-48.1711 647.885,-39.3227 643.638,-44.8878"/>
</g>
<!-- Node2&#45;&gt;Node7 -->
<g id="edge6" class="edge"><title>Node2&#45;&gt;Node7</title>
<path fill="none" stroke="midnightblue" d="M277.238,-86.4304C289.847,-90.0211 303.427,-93.8887 316.431,-97.5922"/>
<polygon fill="midnightblue" stroke="midnightblue" points="315.661,-101.012 326.238,-100.385 317.579,-94.2797 315.661,-101.012"/>
</g>
<!-- Node6 -->
<g id="node6" class="node"><title>Node6</title>
<g id="a_node6"><a xlink:href="../../d3/d91/namespacepfasst_1_1config.html#a69bf5d072b24805ad0004d40bcd2744e" target="_top" xlink:title="Get MPI rank during initialization. ">
<polygon fill="white" stroke="black" points="757,-53.9111 757,-72.9111 878,-72.9111 878,-53.9111 757,-53.9111"/>
<text text-anchor="middle" x="817.5" y="-60.9111" font-family="Helvetica,sans-Serif" font-size="10.00">pfasst::config::get_rank</text>
</a>
</g>
</g>
<!-- Node5&#45;&gt;Node6 -->
<g id="edge5" class="edge"><title>Node5&#45;&gt;Node6</title>
<path fill="none" stroke="midnightblue" d="M721.117,-63.4111C729.351,-63.4111 738.062,-63.4111 746.739,-63.4111"/>
<polygon fill="midnightblue" stroke="midnightblue" points="746.879,-66.9112 756.879,-63.4111 746.879,-59.9112 746.879,-66.9112"/>
</g>
<!-- Node7&#45;&gt;Node3 -->
<g id="edge7" class="edge"><title>Node7&#45;&gt;Node3</title>
<path fill="none" stroke="midnightblue" d="M438.181,-103.898C446.557,-102.212 455.242,-100.463 463.781,-98.7438"/>
<polygon fill="midnightblue" stroke="midnightblue" points="464.597,-102.15 473.709,-96.7448 463.215,-95.2876 464.597,-102.15"/>
</g>
<!-- Node7&#45;&gt;Node4 -->
<g id="edge8" class="edge"><title>Node7&#45;&gt;Node4</title>
<path fill="none" stroke="midnightblue" d="M404.61,-100.298C423.129,-88.7272 449.744,-72.7167 474,-60.4111 477.113,-58.8319 480.354,-57.261 483.638,-55.7226"/>
<polygon fill="midnightblue" stroke="midnightblue" points="485.284,-58.819 492.938,-51.4928 482.386,-52.4471 485.284,-58.819"/>
</g>
<!-- Node8 -->
<g id="node8" class="node"><title>Node8</title>
<g id="a_node8"><a xlink:href="../../de/d8c/group__Internals.html#ga74a6cd18764de8c81da478a7eb33ee4a" target="_top" xlink:title="Composes the log file name for the local rank. ">
<polygon fill="white" stroke="black" points="479.5,-119.411 479.5,-149.411 582.5,-149.411 582.5,-119.411 479.5,-119.411"/>
<text text-anchor="start" x="487.5" y="-137.411" font-family="Helvetica,sans-Serif" font-size="10.00">pfasst::log::get_log</text>
<text text-anchor="middle" x="531" y="-126.411" font-family="Helvetica,sans-Serif" font-size="10.00">_file_name</text>
</a>
</g>
</g>
<!-- Node7&#45;&gt;Node8 -->
<g id="edge9" class="edge"><title>Node7&#45;&gt;Node8</title>
<path fill="none" stroke="midnightblue" d="M438.181,-122.703C448.276,-123.99 458.819,-125.334 469.013,-126.634"/>
<polygon fill="midnightblue" stroke="midnightblue" points="468.699,-130.122 479.061,-127.916 469.584,-123.179 468.699,-130.122"/>
</g>
<!-- Node8&#45;&gt;Node5 -->
<g id="edge10" class="edge"><title>Node8&#45;&gt;Node5</title>
<path fill="none" stroke="midnightblue" d="M566.864,-119.389C573.911,-116.201 581.232,-112.779 588,-109.411 604.198,-101.352 621.787,-91.7877 636.626,-83.4737"/>
<polygon fill="midnightblue" stroke="midnightblue" points="638.483,-86.4448 645.473,-78.4832 635.044,-80.3478 638.483,-86.4448"/>
</g>
</g>
</svg>
        <g id="navigator" transform="translate(0 0)" fill="#404254">
                <rect fill="#f2f5e9" fill-opacity="0.5" stroke="#606060" stroke-width=".5" x="0" y="0" width="60" height="60"/>
                <use id="zoomplus" xlink:href="#zoomPlus" x="17" y="9" onmousedown="handleZoom(evt,'in')"/>
                <use id="zoomminus" xlink:href="#zoomMin" x="42" y="9" onmousedown="handleZoom(evt,'out')"/>
                <use id="reset" xlink:href="#resetDef" x="30" y="36" onmousedown="handleReset()"/>
                <g id="arrowUp" xlink:href="#dirArrow" transform="translate(30 24)" onmousedown="handlePan(0,-1)">
                  <use xlink:href="#rim" fill="#404040">
                        <set attributeName="fill" to="#808080" begin="arrowUp.mouseover" end="arrowUp.mouseout"/>
                  </use>
                  <path fill="none" stroke="white" stroke-width="1.5" d="M0,-3.0v7 M-2.5,-0.5L0,-3.0L2.5,-0.5"/>
                </g>
                <g id="arrowRight" xlink:href="#dirArrow" transform="rotate(90) translate(36 -43)" onmousedown="handlePan(1,0)">
                  <use xlink:href="#rim" fill="#404040">
                        <set attributeName="fill" to="#808080" begin="arrowRight.mouseover" end="arrowRight.mouseout"/>
                  </use>
                  <path fill="none" stroke="white" stroke-width="1.5" d="M0,-3.0v7 M-2.5,-0.5L0,-3.0L2.5,-0.5"/>
                </g>
                <g id="arrowDown" xlink:href="#dirArrow" transform="rotate(180) translate(-30 -48)" onmousedown="handlePan(0,1)">
                  <use xlink:href="#rim" fill="#404040">
                        <set attributeName="fill" to="#808080" begin="arrowDown.mouseover" end="arrowDown.mouseout"/>
                  </use>
                  <path fill="none" stroke="white" stroke-width="1.5" d="M0,-3.0v7 M-2.5,-0.5L0,-3.0L2.5,-0.5"/>
                </g>
                <g id="arrowLeft" xlink:href="#dirArrow" transform="rotate(270) translate(-36 17)" onmousedown="handlePan(-1,0)">
                  <use xlink:href="#rim" fill="#404040">
                        <set attributeName="fill" to="#808080" begin="arrowLeft.mouseover" end="arrowLeft.mouseout"/>
                  </use>
                  <path fill="none" stroke="white" stroke-width="1.5" d="M0,-3.0v7 M-2.5,-0.5L0,-3.0L2.5,-0.5"/>
                </g>
        </g>
        <svg viewBox="0 0 15 15" width="100%" height="30px" preserveAspectRatio="xMaxYMin meet">
         <g id="arrow_out" transform="scale(0.3 0.3)">
          <a xlink:href="group__Internals_ga94bc88666f61bcc6d85072e6dfdd21f4_cgraph_org.svg" target="_base">
           <rect id="button" ry="5" rx="5" y="6" x="6" height="38" width="38"
                fill="#f2f5e9" fill-opacity="0.5" stroke="#606060" stroke-width="1.0"/>
           <path id="arrow"
             d="M 11.500037,31.436501 C 11.940474,20.09759 22.043105,11.32322 32.158766,21.979434 L 37.068811,17.246167 C 37.068811,17.246167 37.088388,32 37.088388,32 L 22.160133,31.978069 C 22.160133,31.978069 26.997745,27.140456 26.997745,27.140456 C 18.528582,18.264221 13.291696,25.230495 11.500037,31.436501 z"
             style="fill:#404040;"/>
          </a>
         </g>
        </svg>
</svg>
