<?xml version="1.0" encoding="UTF-8" standalone="no"?>
<!DOCTYPE svg PUBLIC "-//W3C//DTD SVG 1.1//EN"
 "http://www.w3.org/Graphics/SVG/1.1/DTD/svg11.dtd">
<!-- Generated by graphviz version 2.38.0 (20140413.2041)
 -->
<!-- Title: pfasst::log::set_logging_flags Pages: 1 -->
<svg width="444pt" height="66pt"
 viewBox="0.00 0.00 444.00 66.00" xmlns="http://www.w3.org/2000/svg" xmlns:xlink="http://www.w3.org/1999/xlink">
<g id="graph0" class="graph" transform="scale(1 1) rotate(0) translate(4 62)">
<title>pfasst::log::set_logging_flags</title>
<polygon fill="white" stroke="none" points="-4,4 -4,-62 440,-62 440,4 -4,4"/>
<!-- Node1 -->
<g id="node1" class="node"><title>Node1</title>
<polygon fill="#bfbfbf" stroke="black" points="0,-14 0,-44 122,-44 122,-14 0,-14"/>
<text text-anchor="start" x="8" y="-32" font-family="Helvetica,sans-Serif" font-size="10.00">pfasst::log::set_logging</text>
<text text-anchor="middle" x="61" y="-21" font-family="Helvetica,sans-Serif" font-size="10.00">_flags</text>
</g>
<!-- Node2 -->
<g id="node2" class="node"><title>Node2</title>
<g id="a_node2"><a xlink:href="../../de/d8c/group__Internals.html#ga73cf933834ba5e5141119310aee971b9" target="_top" xlink:title="Starts easylogging++ with given arguments and loads configuration. ">
<polygon fill="white" stroke="black" points="158,-19.5 158,-38.5 265,-38.5 265,-19.5 158,-19.5"/>
<text text-anchor="middle" x="211.5" y="-26.5" font-family="Helvetica,sans-Serif" font-size="10.00">pfasst::log::start_log</text>
</a>
</g>
</g>
<!-- Node1&#45;&gt;Node2 -->
<g id="edge1" class="edge"><title>Node1&#45;&gt;Node2</title>
<path fill="none" stroke="midnightblue" d="M132.657,-29C141.116,-29 149.636,-29 157.779,-29"/>
<polygon fill="midnightblue" stroke="midnightblue" points="132.401,-25.5001 122.401,-29 132.401,-32.5001 132.401,-25.5001"/>
</g>
<!-- Node3 -->
<g id="node3" class="node"><title>Node3</title>
<g id="a_node3"><a xlink:href="../../dc/d57/namespacepfasst.html#a2ad4b6987b5c66b90166f77fc4230e92" target="_top" xlink:title="pfasst::init">
<polygon fill="white" stroke="black" points="301,-38.5 301,-57.5 362,-57.5 362,-38.5 301,-38.5"/>
<text text-anchor="middle" x="331.5" y="-45.5" font-family="Helvetica,sans-Serif" font-size="10.00">pfasst::init</text>
</a>
</g>
</g>
<!-- Node2&#45;&gt;Node3 -->
<g id="edge2" class="edge"><title>Node2&#45;&gt;Node3</title>
<path fill="none" stroke="midnightblue" d="M275.291,-39.1105C284.147,-40.5363 292.888,-41.9438 300.712,-43.2036"/>
<polygon fill="midnightblue" stroke="midnightblue" points="275.717,-35.634 265.288,-37.4997 274.604,-42.545 275.717,-35.634"/>
</g>
<!-- Node5 -->
<g id="node5" class="node"><title>Node5</title>
<g id="a_node5"><a xlink:href="../../df/df8/test__advection__diffusion_8cpp.html#a3c04138a5bfe5d72780bb7e82a18e627" target="_top" xlink:title="main">
<polygon fill="white" stroke="black" points="312.5,-0.5 312.5,-19.5 350.5,-19.5 350.5,-0.5 312.5,-0.5"/>
<text text-anchor="middle" x="331.5" y="-7.5" font-family="Helvetica,sans-Serif" font-size="10.00">main</text>
</a>
</g>
</g>
<!-- Node2&#45;&gt;Node5 -->
<g id="edge4" class="edge"><title>Node2&#45;&gt;Node5</title>
<path fill="none" stroke="midnightblue" d="M275.176,-18.9081C288.749,-16.7226 302.062,-14.579 312.226,-12.9424"/>
<polygon fill="midnightblue" stroke="midnightblue" points="274.604,-15.455 265.288,-20.5003 275.717,-22.366 274.604,-15.455"/>
</g>
<!-- Node4 -->
<g id="node4" class="node"><title>Node4</title>
<g id="a_node4"><a xlink:href="../../d1/d49/mpi__pfasst_8cpp.html#a3c04138a5bfe5d72780bb7e82a18e627" target="_top" xlink:title="main">
<polygon fill="white" stroke="black" points="398,-38.5 398,-57.5 436,-57.5 436,-38.5 398,-38.5"/>
<text text-anchor="middle" x="417" y="-45.5" font-family="Helvetica,sans-Serif" font-size="10.00">main</text>
</a>
</g>
</g>
<!-- Node3&#45;&gt;Node4 -->
<g id="edge3" class="edge"><title>Node3&#45;&gt;Node4</title>
<path fill="none" stroke="midnightblue" d="M372.381,-48C381.201,-48 390.131,-48 397.595,-48"/>
<polygon fill="midnightblue" stroke="midnightblue" points="372.174,-44.5001 362.174,-48 372.174,-51.5001 372.174,-44.5001"/>
</g>
</g>
</svg>
