<?xml version="1.0" encoding="UTF-8" standalone="no"?>
<!DOCTYPE svg PUBLIC "-//W3C//DTD SVG 1.1//EN"
 "http://www.w3.org/Graphics/SVG/1.1/DTD/svg11.dtd">
<!-- Generated by graphviz version 2.38.0 (20140413.2041)
 -->
<!-- Title: pfasst::log::start_log Pages: 1 -->
<svg width="286pt" height="66pt"
 viewBox="0.00 0.00 286.00 66.00" xmlns="http://www.w3.org/2000/svg" xmlns:xlink="http://www.w3.org/1999/xlink">
<g id="graph0" class="graph" transform="scale(1 1) rotate(0) translate(4 62)">
<title>pfasst::log::start_log</title>
<polygon fill="white" stroke="none" points="-4,4 -4,-62 282,-62 282,4 -4,4"/>
<!-- Node1 -->
<g id="node1" class="node"><title>Node1</title>
<polygon fill="#bfbfbf" stroke="black" points="0,-19.5 0,-38.5 107,-38.5 107,-19.5 0,-19.5"/>
<text text-anchor="middle" x="53.5" y="-26.5" font-family="Helvetica,sans-Serif" font-size="10.00">pfasst::log::start_log</text>
</g>
<!-- Node2 -->
<g id="node2" class="node"><title>Node2</title>
<g id="a_node2"><a xlink:href="../../dc/d57/namespacepfasst.html#a2ad4b6987b5c66b90166f77fc4230e92" target="_top" xlink:title="pfasst::init">
<polygon fill="white" stroke="black" points="143,-38.5 143,-57.5 204,-57.5 204,-38.5 143,-38.5"/>
<text text-anchor="middle" x="173.5" y="-45.5" font-family="Helvetica,sans-Serif" font-size="10.00">pfasst::init</text>
</a>
</g>
</g>
<!-- Node1&#45;&gt;Node2 -->
<g id="edge1" class="edge"><title>Node1&#45;&gt;Node2</title>
<path fill="none" stroke="midnightblue" d="M117.291,-39.1105C126.147,-40.5363 134.888,-41.9438 142.712,-43.2036"/>
<polygon fill="midnightblue" stroke="midnightblue" points="117.717,-35.634 107.288,-37.4997 116.604,-42.545 117.717,-35.634"/>
</g>
<!-- Node4 -->
<g id="node4" class="node"><title>Node4</title>
<g id="a_node4"><a xlink:href="../../df/df8/test__advection__diffusion_8cpp.html#a3c04138a5bfe5d72780bb7e82a18e627" target="_top" xlink:title="main">
<polygon fill="white" stroke="black" points="154.5,-0.5 154.5,-19.5 192.5,-19.5 192.5,-0.5 154.5,-0.5"/>
<text text-anchor="middle" x="173.5" y="-7.5" font-family="Helvetica,sans-Serif" font-size="10.00">main</text>
</a>
</g>
</g>
<!-- Node1&#45;&gt;Node4 -->
<g id="edge3" class="edge"><title>Node1&#45;&gt;Node4</title>
<path fill="none" stroke="midnightblue" d="M117.176,-18.9081C130.749,-16.7226 144.062,-14.579 154.226,-12.9424"/>
<polygon fill="midnightblue" stroke="midnightblue" points="116.604,-15.455 107.288,-20.5003 117.717,-22.366 116.604,-15.455"/>
</g>
<!-- Node3 -->
<g id="node3" class="node"><title>Node3</title>
<g id="a_node3"><a xlink:href="../../d1/d49/mpi__pfasst_8cpp.html#a3c04138a5bfe5d72780bb7e82a18e627" target="_top" xlink:title="main">
<polygon fill="white" stroke="black" points="240,-38.5 240,-57.5 278,-57.5 278,-38.5 240,-38.5"/>
<text text-anchor="middle" x="259" y="-45.5" font-family="Helvetica,sans-Serif" font-size="10.00">main</text>
</a>
</g>
</g>
<!-- Node2&#45;&gt;Node3 -->
<g id="edge2" class="edge"><title>Node2&#45;&gt;Node3</title>
<path fill="none" stroke="midnightblue" d="M214.381,-48C223.201,-48 232.131,-48 239.595,-48"/>
<polygon fill="midnightblue" stroke="midnightblue" points="214.174,-44.5001 204.174,-48 214.174,-51.5001 214.174,-44.5001"/>
</g>
</g>
</svg>
