<?xml version="1.0" encoding="UTF-8" standalone="no"?>
<!DOCTYPE svg PUBLIC "-//W3C//DTD SVG 1.1//EN"
 "http://www.w3.org/Graphics/SVG/1.1/DTD/svg11.dtd">
<!-- Generated by graphviz version 2.38.0 (20140413.2041)
 -->
<!-- Title: examples/boris/particle_impl.hpp Pages: 1 -->
<svg width="846pt" height="519pt"
 viewBox="0.00 0.00 846.00 519.00" xmlns="http://www.w3.org/2000/svg" xmlns:xlink="http://www.w3.org/1999/xlink">
<g id="graph0" class="graph" transform="scale(1 1) rotate(0) translate(4 515)">
<title>examples/boris/particle_impl.hpp</title>
<polygon fill="white" stroke="none" points="-4,4 -4,-515 842,-515 842,4 -4,4"/>
<!-- Node1 -->
<g id="node1" class="node"><title>Node1</title>
<polygon fill="#bfbfbf" stroke="black" points="34.5,-480.5 34.5,-510.5 155.5,-510.5 155.5,-480.5 34.5,-480.5"/>
<text text-anchor="start" x="42.5" y="-498.5" font-family="Helvetica,sans-Serif" font-size="10.00">examples/boris/particle</text>
<text text-anchor="middle" x="95" y="-487.5" font-family="Helvetica,sans-Serif" font-size="10.00">_impl.hpp</text>
</g>
<!-- Node2 -->
<g id="node2" class="node"><title>Node2</title>
<g id="a_node2"><a xlink:href="../../d4/dec/particle_8hpp.html" target="_top" xlink:title="examples/boris/particle.hpp">
<polygon fill="white" stroke="black" points="25.5,-424.5 25.5,-443.5 164.5,-443.5 164.5,-424.5 25.5,-424.5"/>
<text text-anchor="middle" x="95" y="-431.5" font-family="Helvetica,sans-Serif" font-size="10.00">examples/boris/particle.hpp</text>
</a>
</g>
</g>
<!-- Node1&#45;&gt;Node2 -->
<g id="edge1" class="edge"><title>Node1&#45;&gt;Node2</title>
<path fill="none" stroke="midnightblue" d="M88.3551,-470.289C87.9934,-460.857 88.5653,-450.655 90.0706,-443.658"/>
<polygon fill="midnightblue" stroke="midnightblue" points="84.8773,-470.709 89.1601,-480.399 91.8552,-470.153 84.8773,-470.709"/>
</g>
<!-- Node2&#45;&gt;Node1 -->
<g id="edge31" class="edge"><title>Node2&#45;&gt;Node1</title>
<path fill="none" stroke="midnightblue" d="M101.307,-453.569C102.026,-462.233 101.87,-472.377 100.84,-480.399"/>
<polygon fill="midnightblue" stroke="midnightblue" points="104.773,-453.081 99.9294,-443.658 97.8396,-454.044 104.773,-453.081"/>
</g>
<!-- Node3 -->
<g id="node3" class="node"><title>Node3</title>
<g id="a_node3"><a xlink:href="../../d8/d52/particle__cloud_8hpp.html" target="_top" xlink:title="examples/boris/particle\l_cloud.hpp">
<polygon fill="white" stroke="black" points="284.5,-357.5 284.5,-387.5 405.5,-387.5 405.5,-357.5 284.5,-357.5"/>
<text text-anchor="start" x="292.5" y="-375.5" font-family="Helvetica,sans-Serif" font-size="10.00">examples/boris/particle</text>
<text text-anchor="middle" x="345" y="-364.5" font-family="Helvetica,sans-Serif" font-size="10.00">_cloud.hpp</text>
</a>
</g>
</g>
<!-- Node2&#45;&gt;Node3 -->
<g id="edge2" class="edge"><title>Node2&#45;&gt;Node3</title>
<path fill="none" stroke="midnightblue" d="M140.768,-422.107C181.613,-412.386 241.659,-398.095 286.08,-387.523"/>
<polygon fill="midnightblue" stroke="midnightblue" points="139.737,-418.755 130.819,-424.475 141.358,-425.565 139.737,-418.755"/>
</g>
<!-- Node7 -->
<g id="node7" class="node"><title>Node7</title>
<g id="a_node7"><a xlink:href="../../d7/d31/boris__mlsdc_8cpp.html" target="_top" xlink:title="examples/boris/boris\l_mlsdc.cpp">
<polygon fill="white" stroke="black" points="595,-0.5 595,-30.5 705,-30.5 705,-0.5 595,-0.5"/>
<text text-anchor="start" x="603" y="-18.5" font-family="Helvetica,sans-Serif" font-size="10.00">examples/boris/boris</text>
<text text-anchor="middle" x="650" y="-7.5" font-family="Helvetica,sans-Serif" font-size="10.00">_mlsdc.cpp</text>
</a>
</g>
</g>
<!-- Node2&#45;&gt;Node7 -->
<g id="edge32" class="edge"><title>Node2&#45;&gt;Node7</title>
<path fill="none" stroke="midnightblue" d="M174.584,-427.717C366.302,-413.929 838,-373.225 838,-306.5 838,-306.5 838,-306.5 838,-165 838,-116.303 825.358,-99.3949 789,-67 765.613,-46.1622 732.948,-33.7162 705.16,-26.3962"/>
<polygon fill="midnightblue" stroke="midnightblue" points="174.291,-424.229 164.566,-428.432 174.789,-431.212 174.291,-424.229"/>
</g>
<!-- Node8 -->
<g id="node8" class="node"><title>Node8</title>
<g id="a_node8"><a xlink:href="../../d2/d1e/boris__pfasst_8cpp.html" target="_top" xlink:title="examples/boris/boris\l_pfasst.cpp">
<polygon fill="white" stroke="black" points="142,-0.5 142,-30.5 252,-30.5 252,-0.5 142,-0.5"/>
<text text-anchor="start" x="150" y="-18.5" font-family="Helvetica,sans-Serif" font-size="10.00">examples/boris/boris</text>
<text text-anchor="middle" x="197" y="-7.5" font-family="Helvetica,sans-Serif" font-size="10.00">_pfasst.cpp</text>
</a>
</g>
</g>
<!-- Node2&#45;&gt;Node8 -->
<g id="edge35" class="edge"><title>Node2&#45;&gt;Node8</title>
<path fill="none" stroke="midnightblue" d="M73.3762,-418.133C45.3419,-396.91 0,-355.075 0,-306.5 0,-306.5 0,-306.5 0,-165 0,-91.7607 87.8979,-50.1065 146.268,-30.5197"/>
<polygon fill="midnightblue" stroke="midnightblue" points="71.6516,-421.208 81.7907,-424.282 75.7817,-415.556 71.6516,-421.208"/>
</g>
<!-- Node9 -->
<g id="node9" class="node"><title>Node9</title>
<g id="a_node9"><a xlink:href="../../d3/d93/boris__sdc_8cpp.html" target="_top" xlink:title="examples/boris/boris\l_sdc.cpp">
<polygon fill="white" stroke="black" points="400,-73 400,-103 510,-103 510,-73 400,-73"/>
<text text-anchor="start" x="408" y="-91" font-family="Helvetica,sans-Serif" font-size="10.00">examples/boris/boris</text>
<text text-anchor="middle" x="455" y="-80" font-family="Helvetica,sans-Serif" font-size="10.00">_sdc.cpp</text>
</a>
</g>
</g>
<!-- Node2&#45;&gt;Node9 -->
<g id="edge36" class="edge"><title>Node2&#45;&gt;Node9</title>
<path fill="none" stroke="midnightblue" d="M81.9409,-416.304C65.1139,-393.069 38,-349.031 38,-306.5 38,-306.5 38,-306.5 38,-237.5 38,-161.611 286.193,-114.431 399.626,-96.8311"/>
<polygon fill="midnightblue" stroke="midnightblue" points="79.2134,-418.5 88.0107,-424.405 84.8154,-414.303 79.2134,-418.5"/>
</g>
<!-- Node10 -->
<g id="node10" class="node"><title>Node10</title>
<g id="a_node10"><a xlink:href="../../db/dfd/boris__sweeper_8hpp.html" target="_top" xlink:title="examples/boris/boris\l_sweeper.hpp">
<polygon fill="white" stroke="black" points="188,-151 188,-181 298,-181 298,-151 188,-151"/>
<text text-anchor="start" x="196" y="-169" font-family="Helvetica,sans-Serif" font-size="10.00">examples/boris/boris</text>
<text text-anchor="middle" x="243" y="-158" font-family="Helvetica,sans-Serif" font-size="10.00">_sweeper.hpp</text>
</a>
</g>
</g>
<!-- Node2&#45;&gt;Node10 -->
<g id="edge33" class="edge"><title>Node2&#45;&gt;Node10</title>
<path fill="none" stroke="midnightblue" d="M93.2054,-414.314C90.4254,-374.829 89.3314,-281.718 133,-223 147.834,-203.053 171.811,-189.685 193.598,-181.029"/>
<polygon fill="midnightblue" stroke="midnightblue" points="89.7234,-414.678 94.0365,-424.355 96.6996,-414.101 89.7234,-414.678"/>
</g>
<!-- Node11 -->
<g id="node11" class="node"><title>Node11</title>
<g id="a_node11"><a xlink:href="../../db/d9a/boris__sweeper__impl_8hpp.html" target="_top" xlink:title="examples/boris/boris\l_sweeper_impl.hpp">
<polygon fill="white" stroke="black" points="142,-223.5 142,-253.5 252,-253.5 252,-223.5 142,-223.5"/>
<text text-anchor="start" x="150" y="-241.5" font-family="Helvetica,sans-Serif" font-size="10.00">examples/boris/boris</text>
<text text-anchor="middle" x="197" y="-230.5" font-family="Helvetica,sans-Serif" font-size="10.00">_sweeper_impl.hpp</text>
</a>
</g>
</g>
<!-- Node2&#45;&gt;Node11 -->
<g id="edge34" class="edge"><title>Node2&#45;&gt;Node11</title>
<path fill="none" stroke="midnightblue" d="M104.181,-415.582C124.162,-377.678 171.258,-288.333 189.552,-253.63"/>
<polygon fill="midnightblue" stroke="midnightblue" points="101.081,-413.958 99.5144,-424.436 107.274,-417.222 101.081,-413.958"/>
</g>
<!-- Node4 -->
<g id="node4" class="node"><title>Node4</title>
<g id="a_node4"><a xlink:href="../../d9/dd9/wrapper__interface_8hpp.html" target="_top" xlink:title="examples/boris/bindings\l/wrapper_interface.hpp">
<polygon fill="white" stroke="black" points="424,-290.5 424,-320.5 550,-320.5 550,-290.5 424,-290.5"/>
<text text-anchor="start" x="432" y="-308.5" font-family="Helvetica,sans-Serif" font-size="10.00">examples/boris/bindings</text>
<text text-anchor="middle" x="487" y="-297.5" font-family="Helvetica,sans-Serif" font-size="10.00">/wrapper_interface.hpp</text>
</a>
</g>
</g>
<!-- Node3&#45;&gt;Node4 -->
<g id="edge3" class="edge"><title>Node3&#45;&gt;Node4</title>
<path fill="none" stroke="midnightblue" d="M385.13,-353.131C407.693,-342.802 435.421,-330.11 456.248,-320.577"/>
<polygon fill="midnightblue" stroke="midnightblue" points="383.448,-350.051 375.812,-357.396 386.361,-356.416 383.448,-350.051"/>
</g>
<!-- Node5 -->
<g id="node5" class="node"><title>Node5</title>
<g id="a_node5"><a xlink:href="../../dd/da4/wrapper__simple__physics__solver_8hpp.html" target="_top" xlink:title="examples/boris/bindings\l/wrapper_simple_physics\l_solver.hpp">
<polygon fill="white" stroke="black" points="566.5,-145.5 566.5,-186.5 695.5,-186.5 695.5,-145.5 566.5,-145.5"/>
<text text-anchor="start" x="574.5" y="-174.5" font-family="Helvetica,sans-Serif" font-size="10.00">examples/boris/bindings</text>
<text text-anchor="start" x="574.5" y="-163.5" font-family="Helvetica,sans-Serif" font-size="10.00">/wrapper_simple_physics</text>
<text text-anchor="middle" x="631" y="-152.5" font-family="Helvetica,sans-Serif" font-size="10.00">_solver.hpp</text>
</a>
</g>
</g>
<!-- Node3&#45;&gt;Node5 -->
<g id="edge25" class="edge"><title>Node3&#45;&gt;Node5</title>
<path fill="none" stroke="midnightblue" d="M415.692,-365.373C479.508,-358.402 567.095,-344.776 592,-321 629.404,-285.291 632.938,-219.278 632.152,-186.508"/>
<polygon fill="midnightblue" stroke="midnightblue" points="415.243,-361.901 405.667,-366.435 415.98,-368.862 415.243,-361.901"/>
</g>
<!-- Node3&#45;&gt;Node7 -->
<g id="edge26" class="edge"><title>Node3&#45;&gt;Node7</title>
<path fill="none" stroke="midnightblue" d="M415.996,-365.69C543.932,-353.248 800,-318.48 800,-239.5 800,-239.5 800,-239.5 800,-165 800,-117.956 792.545,-100.97 760,-67 743.864,-50.157 721.04,-38.4259 700.362,-30.5402"/>
<polygon fill="midnightblue" stroke="midnightblue" points="415.514,-362.219 405.891,-366.652 416.178,-369.188 415.514,-362.219"/>
</g>
<!-- Node3&#45;&gt;Node8 -->
<g id="edge29" class="edge"><title>Node3&#45;&gt;Node8</title>
<path fill="none" stroke="midnightblue" d="M274.738,-355.406C223.75,-339.399 159.295,-309.019 133,-254 113.325,-212.833 104.779,-208.127 163,-67 168.482,-53.7121 177.735,-40.2902 185.205,-30.6268"/>
<polygon fill="midnightblue" stroke="midnightblue" points="273.831,-358.788 284.415,-358.324 275.852,-352.086 273.831,-358.788"/>
</g>
<!-- Node3&#45;&gt;Node9 -->
<g id="edge30" class="edge"><title>Node3&#45;&gt;Node9</title>
<path fill="none" stroke="midnightblue" d="M415.636,-364.23C470.891,-356.914 541.241,-343.437 559,-321 615.842,-249.183 512.211,-141.367 470.905,-103.093"/>
<polygon fill="midnightblue" stroke="midnightblue" points="414.986,-360.785 405.511,-365.526 415.874,-367.728 414.986,-360.785"/>
</g>
<!-- Node3&#45;&gt;Node10 -->
<g id="edge27" class="edge"><title>Node3&#45;&gt;Node10</title>
<path fill="none" stroke="midnightblue" d="M306.667,-351.938C294.68,-343.949 282.612,-333.589 275,-321 252.233,-283.35 270.878,-265.874 261,-223 257.653,-208.471 252.269,-192.3 248.26,-181.085"/>
<polygon fill="midnightblue" stroke="midnightblue" points="304.98,-355.011 315.317,-357.335 308.685,-349.072 304.98,-355.011"/>
</g>
<!-- Node3&#45;&gt;Node11 -->
<g id="edge28" class="edge"><title>Node3&#45;&gt;Node11</title>
<path fill="none" stroke="midnightblue" d="M292.704,-353.294C275.127,-345.352 256.358,-334.676 242,-321 221.753,-301.715 208.321,-271.275 201.739,-253.564"/>
<polygon fill="midnightblue" stroke="midnightblue" points="291.742,-356.691 302.311,-357.427 294.508,-350.26 291.742,-356.691"/>
</g>
<!-- Node13 -->
<g id="node13" class="node"><title>Node13</title>
<g id="a_node13"><a xlink:href="../../d6/d1f/particle__cloud__impl_8hpp.html" target="_top" xlink:title="examples/boris/particle\l_cloud_impl.hpp">
<polygon fill="white" stroke="black" points="284.5,-290.5 284.5,-320.5 405.5,-320.5 405.5,-290.5 284.5,-290.5"/>
<text text-anchor="start" x="292.5" y="-308.5" font-family="Helvetica,sans-Serif" font-size="10.00">examples/boris/particle</text>
<text text-anchor="middle" x="345" y="-297.5" font-family="Helvetica,sans-Serif" font-size="10.00">_cloud_impl.hpp</text>
</a>
</g>
</g>
<!-- Node3&#45;&gt;Node13 -->
<g id="edge23" class="edge"><title>Node3&#45;&gt;Node13</title>
<path fill="none" stroke="midnightblue" d="M338.455,-347.403C338.005,-338.37 338.296,-328.408 339.325,-320.577"/>
<polygon fill="midnightblue" stroke="midnightblue" points="334.97,-347.736 339.322,-357.396 341.944,-347.131 334.97,-347.736"/>
</g>
<!-- Node4&#45;&gt;Node5 -->
<g id="edge4" class="edge"><title>Node4&#45;&gt;Node5</title>
<path fill="none" stroke="midnightblue" d="M509.113,-283.385C536.727,-257.018 583.594,-212.266 610.454,-186.618"/>
<polygon fill="midnightblue" stroke="midnightblue" points="506.684,-280.866 501.868,-290.303 511.518,-285.928 506.684,-280.866"/>
</g>
<!-- Node4&#45;&gt;Node7 -->
<g id="edge10" class="edge"><title>Node4&#45;&gt;Node7</title>
<path fill="none" stroke="midnightblue" d="M494.106,-280.533C508.222,-235.557 542.989,-136.757 595,-67 605.306,-53.1781 619.748,-40.0875 631.248,-30.6989"/>
<polygon fill="midnightblue" stroke="midnightblue" points="490.706,-279.683 491.111,-290.27 497.396,-281.741 490.706,-279.683"/>
</g>
<!-- Node4&#45;&gt;Node8 -->
<g id="edge21" class="edge"><title>Node4&#45;&gt;Node8</title>
<path fill="none" stroke="midnightblue" d="M475.665,-281.472C451.766,-235.036 391.934,-129.298 314,-67 293.695,-50.7685 267.381,-38.7983 244.852,-30.5972"/>
<polygon fill="midnightblue" stroke="midnightblue" points="472.569,-283.107 480.213,-290.444 478.813,-279.942 472.569,-283.107"/>
</g>
<!-- Node4&#45;&gt;Node9 -->
<g id="edge22" class="edge"><title>Node4&#45;&gt;Node9</title>
<path fill="none" stroke="midnightblue" d="M483.404,-280.282C476.696,-235.111 462.472,-139.322 457.107,-103.192"/>
<polygon fill="midnightblue" stroke="midnightblue" points="479.969,-280.983 484.9,-290.36 486.894,-279.955 479.969,-280.983"/>
</g>
<!-- Node4&#45;&gt;Node10 -->
<g id="edge11" class="edge"><title>Node4&#45;&gt;Node10</title>
<path fill="none" stroke="midnightblue" d="M421.104,-287.459C395.442,-279.334 366.399,-268.232 342,-254 307.215,-233.709 273.466,-200.197 255.77,-181.234"/>
<polygon fill="midnightblue" stroke="midnightblue" points="420.171,-290.834 430.758,-290.428 422.228,-284.143 420.171,-290.834"/>
</g>
<!-- Node4&#45;&gt;Node11 -->
<g id="edge20" class="edge"><title>Node4&#45;&gt;Node11</title>
<path fill="none" stroke="midnightblue" d="M414.585,-288.269C364.25,-276.987 298.19,-262.181 252.12,-251.854"/>
<polygon fill="midnightblue" stroke="midnightblue" points="413.908,-291.704 424.431,-290.476 415.439,-284.874 413.908,-291.704"/>
</g>
<!-- Node6 -->
<g id="node6" class="node"><title>Node6</title>
<g id="a_node6"><a xlink:href="../../d5/d9e/wrapper__simple__physics__solver__impl_8hpp.html" target="_top" xlink:title="examples/boris/bindings\l/wrapper_simple_physics\l_solver_impl.hpp">
<polygon fill="white" stroke="black" points="604.5,-67.5 604.5,-108.5 733.5,-108.5 733.5,-67.5 604.5,-67.5"/>
<text text-anchor="start" x="612.5" y="-96.5" font-family="Helvetica,sans-Serif" font-size="10.00">examples/boris/bindings</text>
<text text-anchor="start" x="612.5" y="-85.5" font-family="Helvetica,sans-Serif" font-size="10.00">/wrapper_simple_physics</text>
<text text-anchor="middle" x="669" y="-74.5" font-family="Helvetica,sans-Serif" font-size="10.00">_solver_impl.hpp</text>
</a>
</g>
</g>
<!-- Node5&#45;&gt;Node6 -->
<g id="edge5" class="edge"><title>Node5&#45;&gt;Node6</title>
<path fill="none" stroke="midnightblue" d="M638.841,-136.174C643.097,-126.932 648.3,-116.919 653.265,-108.506"/>
<polygon fill="midnightblue" stroke="midnightblue" points="635.594,-134.863 634.798,-145.428 642.009,-137.666 635.594,-134.863"/>
</g>
<!-- Node5&#45;&gt;Node7 -->
<g id="edge7" class="edge"><title>Node5&#45;&gt;Node7</title>
<path fill="none" stroke="midnightblue" d="M704.639,-142.658C719.85,-134.534 733.971,-123.609 743,-109 752.814,-93.1212 752.544,-83.0425 743,-67 732.855,-49.947 714.718,-38.2946 697.138,-30.521"/>
<polygon fill="midnightblue" stroke="midnightblue" points="703.006,-139.56 695.587,-147.124 706.104,-145.838 703.006,-139.56"/>
</g>
<!-- Node5&#45;&gt;Node8 -->
<g id="edge8" class="edge"><title>Node5&#45;&gt;Node8</title>
<path fill="none" stroke="midnightblue" d="M607.842,-137.481C587.036,-114.719 554.386,-83.5379 519,-67 431.852,-26.2702 318.452,-17.3652 252.097,-15.9787"/>
<polygon fill="midnightblue" stroke="midnightblue" points="605.418,-140.021 614.692,-145.143 610.636,-135.356 605.418,-140.021"/>
</g>
<!-- Node5&#45;&gt;Node9 -->
<g id="edge9" class="edge"><title>Node5&#45;&gt;Node9</title>
<path fill="none" stroke="midnightblue" d="M576.453,-141.446C547.366,-128.886 512.551,-113.852 487.668,-103.106"/>
<polygon fill="midnightblue" stroke="midnightblue" points="575.107,-144.677 585.676,-145.428 577.883,-138.25 575.107,-144.677"/>
</g>
<!-- Node6&#45;&gt;Node5 -->
<g id="edge6" class="edge"><title>Node6&#45;&gt;Node5</title>
<path fill="none" stroke="midnightblue" d="M661.193,-117.753C656.941,-126.991 651.74,-137.006 646.774,-145.428"/>
<polygon fill="midnightblue" stroke="midnightblue" points="664.436,-119.071 665.229,-108.506 658.021,-116.27 664.436,-119.071"/>
</g>
<!-- Node10&#45;&gt;Node7 -->
<g id="edge12" class="edge"><title>Node10&#45;&gt;Node7</title>
<path fill="none" stroke="midnightblue" d="M267.541,-144.305C295.575,-121.772 343.705,-86.3701 391,-67 458.089,-39.523 541.205,-26.7192 594.896,-20.9474"/>
<polygon fill="midnightblue" stroke="midnightblue" points="265.049,-141.821 259.509,-150.852 269.472,-147.247 265.049,-141.821"/>
</g>
<!-- Node10&#45;&gt;Node8 -->
<g id="edge18" class="edge"><title>Node10&#45;&gt;Node8</title>
<path fill="none" stroke="midnightblue" d="M205.338,-145.337C191.941,-136.23 178.362,-124.053 171,-109 158.174,-82.776 175.034,-49.1799 186.986,-30.5451"/>
<polygon fill="midnightblue" stroke="midnightblue" points="203.732,-148.464 214.048,-150.877 207.489,-142.557 203.732,-148.464"/>
</g>
<!-- Node10&#45;&gt;Node9 -->
<g id="edge19" class="edge"><title>Node10&#45;&gt;Node9</title>
<path fill="none" stroke="midnightblue" d="M292.118,-147.392C329.739,-133.905 380.943,-115.549 415.832,-103.041"/>
<polygon fill="midnightblue" stroke="midnightblue" points="290.611,-144.214 282.379,-150.883 292.973,-150.803 290.611,-144.214"/>
</g>
<!-- Node10&#45;&gt;Node11 -->
<g id="edge13" class="edge"><title>Node10&#45;&gt;Node11</title>
<path fill="none" stroke="midnightblue" d="M234.22,-190.249C227.791,-201.143 219.27,-213.773 211.857,-223.233"/>
<polygon fill="midnightblue" stroke="midnightblue" points="237.428,-191.682 239.251,-181.246 231.318,-188.268 237.428,-191.682"/>
</g>
<!-- Node12 -->
<g id="node12" class="node"><title>Node12</title>
<g id="a_node12"><a xlink:href="../../d2/dc5/injective__transfer_8hpp.html" target="_top" xlink:title="examples/boris/injective\l_transfer.hpp">
<polygon fill="white" stroke="black" points="180.5,-73 180.5,-103 305.5,-103 305.5,-73 180.5,-73"/>
<text text-anchor="start" x="188.5" y="-91" font-family="Helvetica,sans-Serif" font-size="10.00">examples/boris/injective</text>
<text text-anchor="middle" x="243" y="-80" font-family="Helvetica,sans-Serif" font-size="10.00">_transfer.hpp</text>
</a>
</g>
</g>
<!-- Node10&#45;&gt;Node12 -->
<g id="edge15" class="edge"><title>Node10&#45;&gt;Node12</title>
<path fill="none" stroke="midnightblue" d="M243,-140.59C243,-128.257 243,-113.724 243,-103.231"/>
<polygon fill="midnightblue" stroke="midnightblue" points="239.5,-140.705 243,-150.705 246.5,-140.705 239.5,-140.705"/>
</g>
<!-- Node11&#45;&gt;Node10 -->
<g id="edge14" class="edge"><title>Node11&#45;&gt;Node10</title>
<path fill="none" stroke="midnightblue" d="M205.794,-214.227C212.226,-203.33 220.749,-190.701 228.159,-181.246"/>
<polygon fill="midnightblue" stroke="midnightblue" points="202.584,-212.797 200.76,-223.233 208.694,-216.212 202.584,-212.797"/>
</g>
<!-- Node12&#45;&gt;Node7 -->
<g id="edge16" class="edge"><title>Node12&#45;&gt;Node7</title>
<path fill="none" stroke="midnightblue" d="M315.756,-74.3361C329.774,-71.8991 344.343,-69.3685 358,-67 440.498,-52.6924 536.119,-36.1662 594.833,-26.025"/>
<polygon fill="midnightblue" stroke="midnightblue" points="314.92,-70.929 305.667,-76.0904 316.119,-77.8255 314.92,-70.929"/>
</g>
<!-- Node12&#45;&gt;Node8 -->
<g id="edge17" class="edge"><title>Node12&#45;&gt;Node8</title>
<path fill="none" stroke="midnightblue" d="M228.03,-64.0566C220.872,-53.0859 212.527,-40.2965 206.295,-30.7455"/>
<polygon fill="midnightblue" stroke="midnightblue" points="225.295,-66.2709 233.691,-72.7333 231.158,-62.4457 225.295,-66.2709"/>
</g>
<!-- Node13&#45;&gt;Node3 -->
<g id="edge24" class="edge"><title>Node13&#45;&gt;Node3</title>
<path fill="none" stroke="midnightblue" d="M351.544,-330.565C351.995,-339.596 351.706,-349.56 350.678,-357.396"/>
<polygon fill="midnightblue" stroke="midnightblue" points="355.028,-330.236 350.675,-320.577 348.055,-330.842 355.028,-330.236"/>
</g>
</g>
</svg>
