<?xml version="1.0" encoding="UTF-8" standalone="no"?>
<!DOCTYPE svg PUBLIC "-//W3C//DTD SVG 1.1//EN"
 "http://www.w3.org/Graphics/SVG/1.1/DTD/svg11.dtd">
<!-- Generated by graphviz version 2.38.0 (20140413.2041)
 -->
<!-- Title: VdPConvergenceTest::SetUp Pages: 1 -->
<svg width="422pt" height="225pt"
 viewBox="0.00 0.00 422.00 225.00" xmlns="http://www.w3.org/2000/svg" xmlns:xlink="http://www.w3.org/1999/xlink">
<g id="graph0" class="graph" transform="scale(1 1) rotate(0) translate(4 221)">
<title>VdPConvergenceTest::SetUp</title>
<polygon fill="white" stroke="none" points="-4,4 -4,-221 418,-221 418,4 -4,4"/>
<!-- Node1 -->
<g id="node1" class="node"><title>Node1</title>
<polygon fill="#bfbfbf" stroke="black" points="0,-93.5 0,-123.5 119,-123.5 119,-93.5 0,-93.5"/>
<text text-anchor="start" x="8" y="-111.5" font-family="Helvetica,sans-Serif" font-size="10.00">VdPConvergenceTest</text>
<text text-anchor="middle" x="59.5" y="-100.5" font-family="Helvetica,sans-Serif" font-size="10.00">::SetUp</text>
</g>
<!-- Node2 -->
<g id="node2" class="node"><title>Node2</title>
<g id="a_node2"><a xlink:href="../../dd/d53/group__VanDerPol.html#gaa51c826dc921007c0e95faf30a4510d5" target="_top" xlink:title="pfasst::examples::vdp\l::run_vdp_sdc">
<polygon fill="white" stroke="black" points="155,-93.5 155,-123.5 271,-123.5 271,-93.5 155,-93.5"/>
<text text-anchor="start" x="163" y="-111.5" font-family="Helvetica,sans-Serif" font-size="10.00">pfasst::examples::vdp</text>
<text text-anchor="middle" x="213" y="-100.5" font-family="Helvetica,sans-Serif" font-size="10.00">::run_vdp_sdc</text>
</a>
</g>
</g>
<!-- Node1&#45;&gt;Node2 -->
<g id="edge1" class="edge"><title>Node1&#45;&gt;Node2</title>
<path fill="none" stroke="midnightblue" d="M119.074,-108.5C127.361,-108.5 135.938,-108.5 144.379,-108.5"/>
<polygon fill="midnightblue" stroke="midnightblue" points="144.579,-112 154.579,-108.5 144.579,-105 144.579,-112"/>
</g>
<!-- Node3 -->
<g id="node3" class="node"><title>Node3</title>
<g id="a_node3"><a xlink:href="../../d4/da9/classpfasst_1_1Controller.html#a8f4f8f025572e57fc5975902a4118fa9" target="_top" xlink:title="Adding a level to the controller. ">
<polygon fill="white" stroke="black" points="314.5,-186.5 314.5,-216.5 406.5,-216.5 406.5,-186.5 314.5,-186.5"/>
<text text-anchor="start" x="322.5" y="-204.5" font-family="Helvetica,sans-Serif" font-size="10.00">pfasst::Controller</text>
<text text-anchor="middle" x="360.5" y="-193.5" font-family="Helvetica,sans-Serif" font-size="10.00">::add_level</text>
</a>
</g>
</g>
<!-- Node2&#45;&gt;Node3 -->
<g id="edge2" class="edge"><title>Node2&#45;&gt;Node3</title>
<path fill="none" stroke="midnightblue" d="M232.083,-123.709C250.267,-138.562 279.477,-161.242 307,-177.5 309.508,-178.981 312.123,-180.436 314.788,-181.85"/>
<polygon fill="midnightblue" stroke="midnightblue" points="313.46,-185.1 323.964,-186.486 316.616,-178.852 313.46,-185.1"/>
</g>
<!-- Node4 -->
<g id="node4" class="node"><title>Node4</title>
<g id="a_node4"><a xlink:href="../../de/d84/namespacepfasst_1_1quadrature.html#ac4700c0b6dc90b32b3f8af4070d0e62d" target="_top" xlink:title="Instantiates quadrature handler for given number of nodes and type descriptor. ">
<polygon fill="white" stroke="black" points="307,-137.5 307,-167.5 414,-167.5 414,-137.5 307,-137.5"/>
<text text-anchor="start" x="315" y="-155.5" font-family="Helvetica,sans-Serif" font-size="10.00">pfasst::quadrature</text>
<text text-anchor="middle" x="360.5" y="-144.5" font-family="Helvetica,sans-Serif" font-size="10.00">::quadrature_factory</text>
</a>
</g>
</g>
<!-- Node2&#45;&gt;Node4 -->
<g id="edge3" class="edge"><title>Node2&#45;&gt;Node4</title>
<path fill="none" stroke="midnightblue" d="M263.666,-123.519C275.243,-127.02 287.69,-130.784 299.656,-134.403"/>
<polygon fill="midnightblue" stroke="midnightblue" points="298.979,-137.855 309.564,-137.399 301.005,-131.154 298.979,-137.855"/>
</g>
<!-- Node5 -->
<g id="node5" class="node"><title>Node5</title>
<g id="a_node5"><a xlink:href="../../db/d4c/classpfasst_1_1SDC.html#abaf353cbe65d6c3545cbd5f4540cb74b" target="_top" xlink:title="Run vanilla SDC. ">
<polygon fill="white" stroke="black" points="315.5,-99 315.5,-118 405.5,-118 405.5,-99 315.5,-99"/>
<text text-anchor="middle" x="360.5" y="-106" font-family="Helvetica,sans-Serif" font-size="10.00">pfasst::SDC::run</text>
</a>
</g>
</g>
<!-- Node2&#45;&gt;Node5 -->
<g id="edge4" class="edge"><title>Node2&#45;&gt;Node5</title>
<path fill="none" stroke="midnightblue" d="M271.088,-108.5C282.304,-108.5 294.041,-108.5 305.163,-108.5"/>
<polygon fill="midnightblue" stroke="midnightblue" points="305.172,-112 315.172,-108.5 305.172,-105 305.172,-112"/>
</g>
<!-- Node6 -->
<g id="node6" class="node"><title>Node6</title>
<g id="a_node6"><a xlink:href="../../d4/da9/classpfasst_1_1Controller.html#af31a86d9ccd9db325532c5ae3a5764f0" target="_top" xlink:title="Set basic time scope of the Controller. ">
<polygon fill="white" stroke="black" points="314.5,-49.5 314.5,-79.5 406.5,-79.5 406.5,-49.5 314.5,-49.5"/>
<text text-anchor="start" x="322.5" y="-67.5" font-family="Helvetica,sans-Serif" font-size="10.00">pfasst::Controller</text>
<text text-anchor="middle" x="360.5" y="-56.5" font-family="Helvetica,sans-Serif" font-size="10.00">::set_duration</text>
</a>
</g>
</g>
<!-- Node2&#45;&gt;Node6 -->
<g id="edge5" class="edge"><title>Node2&#45;&gt;Node6</title>
<path fill="none" stroke="midnightblue" d="M263.666,-93.4808C276.915,-89.4742 291.304,-85.1229 304.807,-81.0396"/>
<polygon fill="midnightblue" stroke="midnightblue" points="305.894,-84.3673 314.453,-78.1224 303.868,-77.6669 305.894,-84.3673"/>
</g>
<!-- Node7 -->
<g id="node7" class="node"><title>Node7</title>
<g id="a_node7"><a xlink:href="../../d4/da9/classpfasst_1_1Controller.html#a83d8b318cd15436d5910039313daab9f" target="_top" xlink:title="Basic setup routine for this controller. ">
<polygon fill="white" stroke="black" points="314.5,-0.5 314.5,-30.5 406.5,-30.5 406.5,-0.5 314.5,-0.5"/>
<text text-anchor="start" x="322.5" y="-18.5" font-family="Helvetica,sans-Serif" font-size="10.00">pfasst::Controller</text>
<text text-anchor="middle" x="360.5" y="-7.5" font-family="Helvetica,sans-Serif" font-size="10.00">::setup</text>
</a>
</g>
</g>
<!-- Node2&#45;&gt;Node7 -->
<g id="edge6" class="edge"><title>Node2&#45;&gt;Node7</title>
<path fill="none" stroke="midnightblue" d="M232.52,-93.3522C250.795,-78.7984 279.86,-56.6905 307,-40.5 309.995,-38.7132 313.138,-36.9534 316.334,-35.2459"/>
<polygon fill="midnightblue" stroke="midnightblue" points="318.104,-38.2715 325.404,-30.5928 314.909,-32.0432 318.104,-38.2715"/>
</g>
</g>
</svg>
