<?xml version="1.0" encoding="UTF-8" standalone="no"?>
<!DOCTYPE svg PUBLIC "-//W3C//DTD SVG 1.1//EN"
 "http://www.w3.org/Graphics/SVG/1.1/DTD/svg11.dtd">
<!-- Generated by graphviz version 2.38.0 (20140413.2041)
 -->
<!-- Title: examples/boris/bindings/wrapper_simple_physics_solver.hpp Pages: 1 -->
<svg width="1730pt" height="632pt"
 viewBox="0.00 0.00 1730.00 632.00" xmlns="http://www.w3.org/2000/svg" xmlns:xlink="http://www.w3.org/1999/xlink">
<g id="graph0" class="graph" transform="scale(1 1) rotate(0) translate(4 628)">
<title>examples/boris/bindings/wrapper_simple_physics_solver.hpp</title>
<polygon fill="white" stroke="none" points="-4,4 -4,-628 1726,-628 1726,4 -4,4"/>
<!-- Node1 -->
<g id="node1" class="node"><title>Node1</title>
<polygon fill="#bfbfbf" stroke="black" points="1441.5,-582.5 1441.5,-623.5 1570.5,-623.5 1570.5,-582.5 1441.5,-582.5"/>
<text text-anchor="start" x="1449.5" y="-611.5" font-family="Helvetica,sans-Serif" font-size="10.00">examples/boris/bindings</text>
<text text-anchor="start" x="1449.5" y="-600.5" font-family="Helvetica,sans-Serif" font-size="10.00">/wrapper_simple_physics</text>
<text text-anchor="middle" x="1506" y="-589.5" font-family="Helvetica,sans-Serif" font-size="10.00">_solver.hpp</text>
</g>
<!-- Node2 -->
<g id="node2" class="node"><title>Node2</title>
<polygon fill="white" stroke="#bfbfbf" points="1565.5,-403.5 1565.5,-422.5 1610.5,-422.5 1610.5,-403.5 1565.5,-403.5"/>
<text text-anchor="middle" x="1588" y="-410.5" font-family="Helvetica,sans-Serif" font-size="10.00">cstdlib</text>
</g>
<!-- Node1&#45;&gt;Node2 -->
<g id="edge1" class="edge"><title>Node1&#45;&gt;Node2</title>
<path fill="none" stroke="midnightblue" d="M1552.11,-582.401C1591.27,-562.795 1644.32,-528.417 1665,-479 1668.43,-470.8 1669.42,-466.71 1665,-459 1655.34,-442.161 1636.67,-431.021 1620.13,-424.038"/>
<polygon fill="midnightblue" stroke="midnightblue" points="1621.32,-420.744 1610.73,-420.395 1618.79,-427.271 1621.32,-420.744"/>
</g>
<!-- Node3 -->
<g id="node3" class="node"><title>Node3</title>
<polygon fill="white" stroke="#bfbfbf" points="102.5,-168.5 102.5,-187.5 155.5,-187.5 155.5,-168.5 102.5,-168.5"/>
<text text-anchor="middle" x="129" y="-175.5" font-family="Helvetica,sans-Serif" font-size="10.00">memory</text>
</g>
<!-- Node1&#45;&gt;Node3 -->
<g id="edge2" class="edge"><title>Node1&#45;&gt;Node3</title>
<path fill="none" stroke="midnightblue" d="M1441.29,-599.773C1153.03,-589.435 0,-543.489 0,-470 0,-470 0,-470 0,-294.5 0,-242.816 58.1851,-208.458 96.401,-191.466"/>
<polygon fill="midnightblue" stroke="midnightblue" points="97.8177,-194.667 105.639,-187.52 95.068,-188.229 97.8177,-194.667"/>
</g>
<!-- Node4 -->
<g id="node4" class="node"><title>Node4</title>
<polygon fill="white" stroke="#bfbfbf" points="1561,-0.5 1561,-19.5 1599,-19.5 1599,-0.5 1561,-0.5"/>
<text text-anchor="middle" x="1580" y="-7.5" font-family="Helvetica,sans-Serif" font-size="10.00">utility</text>
</g>
<!-- Node1&#45;&gt;Node4 -->
<g id="edge3" class="edge"><title>Node1&#45;&gt;Node4</title>
<path fill="none" stroke="midnightblue" d="M1570.51,-590.827C1634.16,-575.666 1722,-541.745 1722,-470 1722,-470 1722,-470 1722,-121 1722,-64.2463 1650.23,-32.5927 1608.74,-19.0345"/>
<polygon fill="midnightblue" stroke="midnightblue" points="1609.74,-15.68 1599.15,-16.0459 1607.66,-22.3629 1609.74,-15.68"/>
</g>
<!-- Node5 -->
<g id="node5" class="node"><title>Node5</title>
<g id="a_node5"><a xlink:href="../../d8/d52/particle__cloud_8hpp.html" target="_top" xlink:title="../particle_cloud.hpp">
<polygon fill="white" stroke="black" points="936,-459.5 936,-478.5 1040,-478.5 1040,-459.5 936,-459.5"/>
<text text-anchor="middle" x="988" y="-466.5" font-family="Helvetica,sans-Serif" font-size="10.00">../particle_cloud.hpp</text>
</a>
</g>
</g>
<!-- Node1&#45;&gt;Node5 -->
<g id="edge4" class="edge"><title>Node1&#45;&gt;Node5</title>
<path fill="none" stroke="midnightblue" d="M1441.44,-585.549C1334.26,-558.237 1122.4,-504.248 1031.3,-481.035"/>
<polygon fill="midnightblue" stroke="midnightblue" points="1032.13,-477.635 1021.58,-478.557 1030.4,-484.418 1032.13,-477.635"/>
</g>
<!-- Node38 -->
<g id="node38" class="node"><title>Node38</title>
<g id="a_node38"><a xlink:href="../../d9/dd9/wrapper__interface_8hpp.html" target="_top" xlink:title="wrapper_interface.hpp">
<polygon fill="white" stroke="black" points="1311,-521 1311,-540 1425,-540 1425,-521 1311,-521"/>
<text text-anchor="middle" x="1368" y="-528" font-family="Helvetica,sans-Serif" font-size="10.00">wrapper_interface.hpp</text>
</a>
</g>
</g>
<!-- Node1&#45;&gt;Node38 -->
<g id="edge74" class="edge"><title>Node1&#45;&gt;Node38</title>
<path fill="none" stroke="midnightblue" d="M1467.56,-582.362C1444.15,-570.403 1414.86,-555.44 1394.13,-544.848"/>
<polygon fill="midnightblue" stroke="midnightblue" points="1395.48,-541.606 1384.98,-540.173 1392.29,-547.84 1395.48,-541.606"/>
</g>
<!-- Node39 -->
<g id="node39" class="node"><title>Node39</title>
<g id="a_node39"><a xlink:href="../../de/dca/simple__physics__solver_8hpp.html" target="_top" xlink:title="simple_physics_solver.hpp">
<polygon fill="white" stroke="black" points="1520,-459.5 1520,-478.5 1656,-478.5 1656,-459.5 1520,-459.5"/>
<text text-anchor="middle" x="1588" y="-466.5" font-family="Helvetica,sans-Serif" font-size="10.00">simple_physics_solver.hpp</text>
</a>
</g>
</g>
<!-- Node1&#45;&gt;Node39 -->
<g id="edge80" class="edge"><title>Node1&#45;&gt;Node39</title>
<path fill="none" stroke="midnightblue" d="M1541.84,-582.37C1555.35,-573.125 1569.5,-560.84 1578,-546 1588.01,-528.531 1589.68,-505.168 1589.37,-488.978"/>
<polygon fill="midnightblue" stroke="midnightblue" points="1592.85,-488.469 1588.89,-478.643 1585.86,-488.795 1592.85,-488.469"/>
</g>
<!-- Node40 -->
<g id="node40" class="node"><title>Node40</title>
<g id="a_node40"><a xlink:href="../../d5/d9e/wrapper__simple__physics__solver__impl_8hpp.html" target="_top" xlink:title="wrapper_simple_physics\l_solver_impl.hpp">
<polygon fill="white" stroke="black" points="1443,-515.5 1443,-545.5 1569,-545.5 1569,-515.5 1443,-515.5"/>
<text text-anchor="start" x="1451" y="-533.5" font-family="Helvetica,sans-Serif" font-size="10.00">wrapper_simple_physics</text>
<text text-anchor="middle" x="1506" y="-522.5" font-family="Helvetica,sans-Serif" font-size="10.00">_solver_impl.hpp</text>
</a>
</g>
</g>
<!-- Node1&#45;&gt;Node40 -->
<g id="edge82" class="edge"><title>Node1&#45;&gt;Node40</title>
<path fill="none" stroke="midnightblue" d="M1499.88,-582.362C1499.18,-574.226 1499.06,-564.7 1499.53,-556.105"/>
<polygon fill="midnightblue" stroke="midnightblue" points="1503.04,-556.161 1500.44,-545.892 1496.07,-555.544 1503.04,-556.161"/>
</g>
<!-- Node5&#45;&gt;Node3 -->
<g id="edge5" class="edge"><title>Node5&#45;&gt;Node3</title>
<path fill="none" stroke="midnightblue" d="M935.822,-467.224C763.33,-463.426 216.603,-441.147 114,-311 87.7905,-277.754 106.876,-224.324 119.778,-196.744"/>
<polygon fill="midnightblue" stroke="midnightblue" points="123.035,-198.053 124.313,-187.536 116.755,-194.961 123.035,-198.053"/>
</g>
<!-- Node6 -->
<g id="node6" class="node"><title>Node6</title>
<polygon fill="white" stroke="#bfbfbf" points="608,-224.5 608,-243.5 652,-243.5 652,-224.5 608,-224.5"/>
<text text-anchor="middle" x="630" y="-231.5" font-family="Helvetica,sans-Serif" font-size="10.00">vector</text>
</g>
<!-- Node5&#45;&gt;Node6 -->
<g id="edge6" class="edge"><title>Node5&#45;&gt;Node6</title>
<path fill="none" stroke="midnightblue" d="M935.884,-466.568C857.674,-463.432 714.857,-453.574 675,-423 622.407,-382.657 624.181,-292.663 627.737,-253.643"/>
<polygon fill="midnightblue" stroke="midnightblue" points="631.22,-253.987 628.792,-243.674 624.259,-253.25 631.22,-253.987"/>
</g>
<!-- Node7 -->
<g id="node7" class="node"><title>Node7</title>
<g id="a_node7"><a xlink:href="../../d0/da9/logging_8hpp.html" target="_top" xlink:title="pfasst/logging.hpp">
<polygon fill="white" stroke="black" points="1254,-168.5 1254,-187.5 1352,-187.5 1352,-168.5 1254,-168.5"/>
<text text-anchor="middle" x="1303" y="-175.5" font-family="Helvetica,sans-Serif" font-size="10.00">pfasst/logging.hpp</text>
</a>
</g>
</g>
<!-- Node5&#45;&gt;Node7 -->
<g id="edge7" class="edge"><title>Node5&#45;&gt;Node7</title>
<path fill="none" stroke="midnightblue" d="M1040.32,-462.653C1138.37,-451.172 1340,-420.025 1340,-358 1340,-358 1340,-358 1340,-294.5 1340,-258.509 1323.5,-219.088 1312.54,-196.863"/>
<polygon fill="midnightblue" stroke="midnightblue" points="1315.51,-194.984 1307.84,-187.68 1309.28,-198.176 1315.51,-194.984"/>
</g>
<!-- Node19 -->
<g id="node19" class="node"><title>Node19</title>
<g id="a_node19"><a xlink:href="../../d8/d85/encapsulation_8hpp.html" target="_top" xlink:title="pfasst/encap/encapsulation.hpp">
<polygon fill="white" stroke="black" points="351.5,-347.5 351.5,-366.5 508.5,-366.5 508.5,-347.5 351.5,-347.5"/>
<text text-anchor="middle" x="430" y="-354.5" font-family="Helvetica,sans-Serif" font-size="10.00">pfasst/encap/encapsulation.hpp</text>
</a>
</g>
</g>
<!-- Node5&#45;&gt;Node19 -->
<g id="edge24" class="edge"><title>Node5&#45;&gt;Node19</title>
<path fill="none" stroke="midnightblue" d="M935.704,-465.128C836.031,-459.24 622.509,-444.517 552,-423 513.903,-411.374 473.926,-387.502 450.519,-372.15"/>
<polygon fill="midnightblue" stroke="midnightblue" points="452.375,-369.181 442.116,-366.535 448.486,-375.001 452.375,-369.181"/>
</g>
<!-- Node27 -->
<g id="node27" class="node"><title>Node27</title>
<g id="a_node27"><a xlink:href="../../d4/dec/particle_8hpp.html" target="_top" xlink:title="particle.hpp">
<polygon fill="white" stroke="black" points="684.5,-403.5 684.5,-422.5 751.5,-422.5 751.5,-403.5 684.5,-403.5"/>
<text text-anchor="middle" x="718" y="-410.5" font-family="Helvetica,sans-Serif" font-size="10.00">particle.hpp</text>
</a>
</g>
</g>
<!-- Node5&#45;&gt;Node27 -->
<g id="edge42" class="edge"><title>Node5&#45;&gt;Node27</title>
<path fill="none" stroke="midnightblue" d="M945.218,-459.444C894.998,-449.4 812.165,-432.833 761.596,-422.719"/>
<polygon fill="midnightblue" stroke="midnightblue" points="762.118,-419.254 751.625,-420.725 760.745,-426.118 762.118,-419.254"/>
</g>
<!-- Node35 -->
<g id="node35" class="node"><title>Node35</title>
<g id="a_node35"><a xlink:href="../../d6/d1f/particle__cloud__impl_8hpp.html" target="_top" xlink:title="particle_cloud_impl.hpp">
<polygon fill="white" stroke="black" points="928,-347.5 928,-366.5 1048,-366.5 1048,-347.5 928,-347.5"/>
<text text-anchor="middle" x="988" y="-354.5" font-family="Helvetica,sans-Serif" font-size="10.00">particle_cloud_impl.hpp</text>
</a>
</g>
</g>
<!-- Node5&#45;&gt;Node35 -->
<g id="edge62" class="edge"><title>Node5&#45;&gt;Node35</title>
<path fill="none" stroke="midnightblue" d="M984.157,-459.368C980.809,-441.617 980.353,-400.666 982.789,-376.597"/>
<polygon fill="midnightblue" stroke="midnightblue" points="986.27,-376.975 984.165,-366.591 979.335,-376.022 986.27,-376.975"/>
</g>
<!-- Node8 -->
<g id="node8" class="node"><title>Node8</title>
<polygon fill="white" stroke="#bfbfbf" points="1024,-112.5 1024,-131.5 1076,-131.5 1076,-112.5 1024,-112.5"/>
<text text-anchor="middle" x="1050" y="-119.5" font-family="Helvetica,sans-Serif" font-size="10.00">iomanip</text>
</g>
<!-- Node7&#45;&gt;Node8 -->
<g id="edge8" class="edge"><title>Node7&#45;&gt;Node8</title>
<path fill="none" stroke="midnightblue" d="M1261.73,-168.449C1218.8,-159.513 1149.64,-145.008 1090,-132 1088.75,-131.727 1087.47,-131.448 1086.19,-131.165"/>
<polygon fill="midnightblue" stroke="midnightblue" points="1086.76,-127.706 1076.24,-128.955 1085.24,-134.54 1086.76,-127.706"/>
</g>
<!-- Node9 -->
<g id="node9" class="node"><title>Node9</title>
<polygon fill="white" stroke="#bfbfbf" points="1476,-56.5 1476,-75.5 1532,-75.5 1532,-56.5 1476,-56.5"/>
<text text-anchor="middle" x="1504" y="-63.5" font-family="Helvetica,sans-Serif" font-size="10.00">iostream</text>
</g>
<!-- Node7&#45;&gt;Node9 -->
<g id="edge9" class="edge"><title>Node7&#45;&gt;Node9</title>
<path fill="none" stroke="midnightblue" d="M1352.21,-173.939C1410.09,-169.191 1501,-157.758 1522,-132 1533.17,-118.303 1524.91,-98.1613 1516.25,-83.9364"/>
<polygon fill="midnightblue" stroke="midnightblue" points="1519.15,-81.9695 1510.7,-75.5702 1513.31,-85.8384 1519.15,-81.9695"/>
</g>
<!-- Node10 -->
<g id="node10" class="node"><title>Node10</title>
<polygon fill="white" stroke="#bfbfbf" points="975.5,-56.5 975.5,-75.5 1016.5,-75.5 1016.5,-56.5 975.5,-56.5"/>
<text text-anchor="middle" x="996" y="-63.5" font-family="Helvetica,sans-Serif" font-size="10.00">string</text>
</g>
<!-- Node7&#45;&gt;Node10 -->
<g id="edge10" class="edge"><title>Node7&#45;&gt;Node10</title>
<path fill="none" stroke="midnightblue" d="M1255.82,-168.43C1218.94,-160.968 1166.79,-148.718 1123,-132 1105.17,-125.192 1101.96,-120.751 1085,-112 1063.97,-101.149 1040.02,-89.0566 1022.27,-80.1419"/>
<polygon fill="midnightblue" stroke="midnightblue" points="1023.61,-76.8989 1013.1,-75.5442 1020.47,-83.156 1023.61,-76.8989"/>
</g>
<!-- Node11 -->
<g id="node11" class="node"><title>Node11</title>
<polygon fill="white" stroke="#bfbfbf" points="1382.5,-112.5 1382.5,-131.5 1513.5,-131.5 1513.5,-112.5 1382.5,-112.5"/>
<text text-anchor="middle" x="1448" y="-119.5" font-family="Helvetica,sans-Serif" font-size="10.00">boost/algorithm/string.hpp</text>
</g>
<!-- Node7&#45;&gt;Node11 -->
<g id="edge11" class="edge"><title>Node7&#45;&gt;Node11</title>
<path fill="none" stroke="midnightblue" d="M1325.98,-168.444C1350.16,-159.438 1388.42,-145.189 1415.65,-135.049"/>
<polygon fill="midnightblue" stroke="midnightblue" points="1416.98,-138.286 1425.13,-131.516 1414.54,-131.727 1416.98,-138.286"/>
</g>
<!-- Node12 -->
<g id="node12" class="node"><title>Node12</title>
<g id="a_node12"><a xlink:href="../../d8/dfd/config_8hpp.html" target="_top" xlink:title="pfasst/config.hpp">
<polygon fill="white" stroke="black" points="1132.5,-112.5 1132.5,-131.5 1223.5,-131.5 1223.5,-112.5 1132.5,-112.5"/>
<text text-anchor="middle" x="1178" y="-119.5" font-family="Helvetica,sans-Serif" font-size="10.00">pfasst/config.hpp</text>
</a>
</g>
</g>
<!-- Node7&#45;&gt;Node12 -->
<g id="edge12" class="edge"><title>Node7&#45;&gt;Node12</title>
<path fill="none" stroke="midnightblue" d="M1283.19,-168.444C1262.71,-159.596 1230.52,-145.687 1207.14,-135.586"/>
<polygon fill="midnightblue" stroke="midnightblue" points="1208.28,-132.269 1197.71,-131.516 1205.51,-138.695 1208.28,-132.269"/>
</g>
<!-- Node18 -->
<g id="node18" class="node"><title>Node18</title>
<polygon fill="white" stroke="#bfbfbf" points="1242,-112.5 1242,-131.5 1364,-131.5 1364,-112.5 1242,-112.5"/>
<text text-anchor="middle" x="1303" y="-119.5" font-family="Helvetica,sans-Serif" font-size="10.00">pfasst/easylogging++.h</text>
</g>
<!-- Node7&#45;&gt;Node18 -->
<g id="edge23" class="edge"><title>Node7&#45;&gt;Node18</title>
<path fill="none" stroke="midnightblue" d="M1303,-168.083C1303,-161.006 1303,-150.861 1303,-141.986"/>
<polygon fill="midnightblue" stroke="midnightblue" points="1306.5,-141.751 1303,-131.751 1299.5,-141.751 1306.5,-141.751"/>
</g>
<!-- Node12&#45;&gt;Node9 -->
<g id="edge14" class="edge"><title>Node12&#45;&gt;Node9</title>
<path fill="none" stroke="midnightblue" d="M1223.67,-113.435C1288.31,-102.728 1405.3,-83.3483 1465.67,-73.3487"/>
<polygon fill="midnightblue" stroke="midnightblue" points="1466.62,-76.7401 1475.91,-71.6529 1465.47,-69.8342 1466.62,-76.7401"/>
</g>
<!-- Node12&#45;&gt;Node10 -->
<g id="edge15" class="edge"><title>Node12&#45;&gt;Node10</title>
<path fill="none" stroke="midnightblue" d="M1149.16,-112.444C1115.64,-102.499 1060.57,-86.1587 1026.4,-76.02"/>
<polygon fill="midnightblue" stroke="midnightblue" points="1027.1,-72.5756 1016.51,-73.0865 1025.1,-79.2864 1027.1,-72.5756"/>
</g>
<!-- Node13 -->
<g id="node13" class="node"><title>Node13</title>
<polygon fill="white" stroke="#bfbfbf" points="1271,-0.5 1271,-19.5 1321,-19.5 1321,-0.5 1271,-0.5"/>
<text text-anchor="middle" x="1296" y="-7.5" font-family="Helvetica,sans-Serif" font-size="10.00">fstream</text>
</g>
<!-- Node12&#45;&gt;Node13 -->
<g id="edge13" class="edge"><title>Node12&#45;&gt;Node13</title>
<path fill="none" stroke="midnightblue" d="M1223.66,-112.716C1283.85,-101.579 1382.8,-82.4335 1388,-76 1408.2,-51.0151 1364.59,-31.3292 1330.74,-20.4304"/>
<polygon fill="midnightblue" stroke="midnightblue" points="1331.66,-17.052 1321.08,-17.4631 1329.61,-23.7438 1331.66,-17.052"/>
</g>
<!-- Node14 -->
<g id="node14" class="node"><title>Node14</title>
<polygon fill="white" stroke="#bfbfbf" points="1188,-56.5 1188,-75.5 1224,-75.5 1224,-56.5 1188,-56.5"/>
<text text-anchor="middle" x="1206" y="-63.5" font-family="Helvetica,sans-Serif" font-size="10.00">map</text>
</g>
<!-- Node12&#45;&gt;Node14 -->
<g id="edge16" class="edge"><title>Node12&#45;&gt;Node14</title>
<path fill="none" stroke="midnightblue" d="M1182.62,-112.083C1186.46,-104.691 1192.02,-93.9533 1196.76,-84.8111"/>
<polygon fill="midnightblue" stroke="midnightblue" points="1199.97,-86.2398 1201.46,-75.7511 1193.75,-83.0175 1199.97,-86.2398"/>
</g>
<!-- Node15 -->
<g id="node15" class="node"><title>Node15</title>
<polygon fill="white" stroke="#bfbfbf" points="1242.5,-56.5 1242.5,-75.5 1379.5,-75.5 1379.5,-56.5 1242.5,-56.5"/>
<text text-anchor="middle" x="1311" y="-63.5" font-family="Helvetica,sans-Serif" font-size="10.00">boost/program_options.hpp</text>
</g>
<!-- Node12&#45;&gt;Node15 -->
<g id="edge17" class="edge"><title>Node12&#45;&gt;Node15</title>
<path fill="none" stroke="midnightblue" d="M1199.07,-112.444C1221.06,-103.517 1255.73,-89.4387 1280.66,-79.3168"/>
<polygon fill="midnightblue" stroke="midnightblue" points="1282.08,-82.5213 1290.02,-75.5164 1279.44,-76.0355 1282.08,-82.5213"/>
</g>
<!-- Node16 -->
<g id="node16" class="node"><title>Node16</title>
<g id="a_node16"><a xlink:href="../../d5/d84/config__impl_8hpp.html" target="_top" xlink:title="pfasst/config_impl.hpp">
<polygon fill="white" stroke="black" points="1056,-56.5 1056,-75.5 1170,-75.5 1170,-56.5 1056,-56.5"/>
<text text-anchor="middle" x="1113" y="-63.5" font-family="Helvetica,sans-Serif" font-size="10.00">pfasst/config_impl.hpp</text>
</a>
</g>
</g>
<!-- Node12&#45;&gt;Node16 -->
<g id="edge18" class="edge"><title>Node12&#45;&gt;Node16</title>
<path fill="none" stroke="midnightblue" d="M1162.44,-112.324C1151.22,-104.42 1136.56,-92.5482 1125.97,-82.9377"/>
<polygon fill="midnightblue" stroke="midnightblue" points="1128.15,-80.182 1118.48,-75.8339 1123.33,-85.258 1128.15,-80.182"/>
</g>
<!-- Node16&#45;&gt;Node4 -->
<g id="edge22" class="edge"><title>Node16&#45;&gt;Node4</title>
<path fill="none" stroke="midnightblue" d="M1170.23,-57.1116C1173.19,-56.7293 1176.13,-56.3565 1179,-56 1317.95,-38.7319 1484.37,-20.9971 1550.66,-14.0506"/>
<polygon fill="midnightblue" stroke="midnightblue" points="1551.2,-17.5136 1560.78,-12.9927 1550.47,-10.5516 1551.2,-17.5136"/>
</g>
<!-- Node16&#45;&gt;Node12 -->
<g id="edge19" class="edge"><title>Node16&#45;&gt;Node12</title>
<path fill="none" stroke="midnightblue" d="M1128.66,-75.7511C1139.85,-83.6389 1154.41,-95.4329 1164.97,-105.002"/>
<polygon fill="midnightblue" stroke="midnightblue" points="1162.77,-107.74 1172.43,-112.083 1167.59,-102.662 1162.77,-107.74"/>
</g>
<!-- Node16&#45;&gt;Node13 -->
<g id="edge20" class="edge"><title>Node16&#45;&gt;Node13</title>
<path fill="none" stroke="midnightblue" d="M1142,-56.4435C1174.38,-46.8887 1226.76,-31.4312 1261.29,-21.2413"/>
<polygon fill="midnightblue" stroke="midnightblue" points="1262.36,-24.5756 1270.96,-18.3884 1260.38,-17.8618 1262.36,-24.5756"/>
</g>
<!-- Node17 -->
<g id="node17" class="node"><title>Node17</title>
<polygon fill="white" stroke="#bfbfbf" points="1086.5,-0.5 1086.5,-19.5 1139.5,-19.5 1139.5,-0.5 1086.5,-0.5"/>
<text text-anchor="middle" x="1113" y="-7.5" font-family="Helvetica,sans-Serif" font-size="10.00">sstream</text>
</g>
<!-- Node16&#45;&gt;Node17 -->
<g id="edge21" class="edge"><title>Node16&#45;&gt;Node17</title>
<path fill="none" stroke="midnightblue" d="M1113,-56.083C1113,-49.0059 1113,-38.8611 1113,-29.9865"/>
<polygon fill="midnightblue" stroke="midnightblue" points="1116.5,-29.751 1113,-19.7511 1109.5,-29.7511 1116.5,-29.751"/>
</g>
<!-- Node19&#45;&gt;Node3 -->
<g id="edge25" class="edge"><title>Node19&#45;&gt;Node3</title>
<path fill="none" stroke="midnightblue" d="M351.334,-355.065C273.203,-352.292 161.11,-342.706 133,-311 105.205,-279.65 115.054,-225.795 122.967,-197.54"/>
<polygon fill="midnightblue" stroke="midnightblue" points="126.382,-198.339 125.923,-187.754 119.681,-196.314 126.382,-198.339"/>
</g>
<!-- Node19&#45;&gt;Node6 -->
<g id="edge26" class="edge"><title>Node19&#45;&gt;Node6</title>
<path fill="none" stroke="midnightblue" d="M445.334,-347.356C461.128,-338.406 486.414,-323.945 508,-311 543.296,-289.833 583.751,-264.395 608.067,-248.975"/>
<polygon fill="midnightblue" stroke="midnightblue" points="609.987,-251.901 616.552,-243.585 606.234,-245.993 609.987,-251.901"/>
</g>
<!-- Node20 -->
<g id="node20" class="node"><title>Node20</title>
<polygon fill="white" stroke="#bfbfbf" points="142.5,-286 142.5,-305 217.5,-305 217.5,-286 142.5,-286"/>
<text text-anchor="middle" x="180" y="-293" font-family="Helvetica,sans-Serif" font-size="10.00">Eigen/Dense</text>
</g>
<!-- Node19&#45;&gt;Node20 -->
<g id="edge27" class="edge"><title>Node19&#45;&gt;Node20</title>
<path fill="none" stroke="midnightblue" d="M385.956,-347.454C344.455,-339.126 280.659,-325.613 226,-311 222.58,-310.086 219.034,-309.078 215.499,-308.032"/>
<polygon fill="midnightblue" stroke="midnightblue" points="216.258,-304.604 205.671,-305.032 214.214,-311.299 216.258,-304.604"/>
</g>
<!-- Node21 -->
<g id="node21" class="node"><title>Node21</title>
<g id="a_node21"><a xlink:href="../../d1/d1b/interfaces_8hpp.html" target="_top" xlink:title="interfaces for SDC/MLSDC/PFASST algorithms. ">
<polygon fill="white" stroke="black" points="235.5,-286 235.5,-305 342.5,-305 342.5,-286 235.5,-286"/>
<text text-anchor="middle" x="289" y="-293" font-family="Helvetica,sans-Serif" font-size="10.00">pfasst/interfaces.hpp</text>
</a>
</g>
</g>
<!-- Node19&#45;&gt;Node21 -->
<g id="edge28" class="edge"><title>Node19&#45;&gt;Node21</title>
<path fill="none" stroke="midnightblue" d="M409.798,-347.475C385.926,-337.401 345.998,-320.553 318.627,-309.002"/>
<polygon fill="midnightblue" stroke="midnightblue" points="319.738,-305.672 309.164,-305.009 317.017,-312.122 319.738,-305.672"/>
</g>
<!-- Node26 -->
<g id="node26" class="node"><title>Node26</title>
<g id="a_node26"><a xlink:href="../../d1/d99/encapsulation__impl_8hpp.html" target="_top" xlink:title="pfasst/encap/encapsulation\l_impl.hpp">
<polygon fill="white" stroke="black" points="360.5,-280.5 360.5,-310.5 499.5,-310.5 499.5,-280.5 360.5,-280.5"/>
<text text-anchor="start" x="368.5" y="-298.5" font-family="Helvetica,sans-Serif" font-size="10.00">pfasst/encap/encapsulation</text>
<text text-anchor="middle" x="430" y="-287.5" font-family="Helvetica,sans-Serif" font-size="10.00">_impl.hpp</text>
</a>
</g>
</g>
<!-- Node19&#45;&gt;Node26 -->
<g id="edge39" class="edge"><title>Node19&#45;&gt;Node26</title>
<path fill="none" stroke="midnightblue" d="M425.099,-347.475C423.572,-340.471 422.991,-330.192 423.356,-320.696"/>
<polygon fill="midnightblue" stroke="midnightblue" points="426.861,-320.77 424.17,-310.523 419.883,-320.212 426.861,-320.77"/>
</g>
<!-- Node21&#45;&gt;Node3 -->
<g id="edge29" class="edge"><title>Node21&#45;&gt;Node3</title>
<path fill="none" stroke="midnightblue" d="M293.596,-285.646C300.405,-271.157 310.949,-242.176 297,-224 281.131,-203.32 210.248,-190.066 165.778,-183.627"/>
<polygon fill="midnightblue" stroke="midnightblue" points="166.021,-180.128 155.633,-182.21 165.053,-187.06 166.021,-180.128"/>
</g>
<!-- Node21&#45;&gt;Node10 -->
<g id="edge31" class="edge"><title>Node21&#45;&gt;Node10</title>
<path fill="none" stroke="midnightblue" d="M268.966,-285.91C241.955,-273.139 199.376,-248.058 219,-224 315.878,-105.232 832.382,-74.2845 964.964,-68.2475"/>
<polygon fill="midnightblue" stroke="midnightblue" points="965.381,-71.7326 975.218,-67.796 965.073,-64.7394 965.381,-71.7326"/>
</g>
<!-- Node22 -->
<g id="node22" class="node"><title>Node22</title>
<polygon fill="white" stroke="#bfbfbf" points="228,-224.5 228,-243.5 288,-243.5 288,-224.5 228,-224.5"/>
<text text-anchor="middle" x="258" y="-231.5" font-family="Helvetica,sans-Serif" font-size="10.00">stdexcept</text>
</g>
<!-- Node21&#45;&gt;Node22 -->
<g id="edge30" class="edge"><title>Node21&#45;&gt;Node22</title>
<path fill="none" stroke="midnightblue" d="M284.558,-285.975C280.047,-277.315 272.926,-263.649 267.193,-252.645"/>
<polygon fill="midnightblue" stroke="midnightblue" points="270.158,-250.76 262.433,-243.509 263.95,-253.995 270.158,-250.76"/>
</g>
<!-- Node23 -->
<g id="node23" class="node"><title>Node23</title>
<g id="a_node23"><a xlink:href="../../d8/dc4/interfaces__impl_8hpp.html" target="_top" xlink:title="pfasst/interfaces_impl.hpp">
<polygon fill="white" stroke="black" points="420.5,-224.5 420.5,-243.5 551.5,-243.5 551.5,-224.5 420.5,-224.5"/>
<text text-anchor="middle" x="486" y="-231.5" font-family="Helvetica,sans-Serif" font-size="10.00">pfasst/interfaces_impl.hpp</text>
</a>
</g>
</g>
<!-- Node21&#45;&gt;Node23 -->
<g id="edge32" class="edge"><title>Node21&#45;&gt;Node23</title>
<path fill="none" stroke="midnightblue" d="M312.325,-285.975C344.574,-275.548 402.955,-257.862 443.134,-246.307"/>
<polygon fill="midnightblue" stroke="midnightblue" points="444.275,-249.621 452.93,-243.509 442.353,-242.89 444.275,-249.621"/>
</g>
<!-- Node23&#45;&gt;Node3 -->
<g id="edge35" class="edge"><title>Node23&#45;&gt;Node3</title>
<path fill="none" stroke="midnightblue" d="M429.432,-224.444C355.647,-213.283 228.616,-194.068 166.038,-184.602"/>
<polygon fill="midnightblue" stroke="midnightblue" points="166.259,-181.096 155.848,-183.061 165.212,-188.017 166.259,-181.096"/>
</g>
<!-- Node23&#45;&gt;Node7 -->
<g id="edge38" class="edge"><title>Node23&#45;&gt;Node7</title>
<path fill="none" stroke="midnightblue" d="M551.714,-227.584C567.217,-226.357 583.688,-225.094 599,-224 851.75,-205.94 915.139,-204.428 1168,-188 1192.81,-186.388 1220.18,-184.571 1243.75,-182.993"/>
<polygon fill="midnightblue" stroke="midnightblue" points="1244.2,-186.471 1253.95,-182.31 1243.74,-179.487 1244.2,-186.471"/>
</g>
<!-- Node23&#45;&gt;Node10 -->
<g id="edge36" class="edge"><title>Node23&#45;&gt;Node10</title>
<path fill="none" stroke="midnightblue" d="M506.75,-224.476C538.591,-211.531 601.539,-186.471 656,-168 768.774,-129.752 905.19,-91.6539 965.172,-75.3058"/>
<polygon fill="midnightblue" stroke="midnightblue" points="966.396,-78.6004 975.128,-72.601 964.56,-71.8452 966.396,-78.6004"/>
</g>
<!-- Node23&#45;&gt;Node21 -->
<g id="edge33" class="edge"><title>Node23&#45;&gt;Node21</title>
<path fill="none" stroke="midnightblue" d="M462.724,-243.509C430.501,-253.929 372.125,-271.614 331.927,-283.176"/>
<polygon fill="midnightblue" stroke="midnightblue" points="330.78,-279.863 322.126,-285.975 332.703,-286.594 330.78,-279.863"/>
</g>
<!-- Node24 -->
<g id="node24" class="node"><title>Node24</title>
<polygon fill="white" stroke="#bfbfbf" points="814,-168.5 814,-187.5 864,-187.5 864,-168.5 814,-168.5"/>
<text text-anchor="middle" x="839" y="-175.5" font-family="Helvetica,sans-Serif" font-size="10.00">cassert</text>
</g>
<!-- Node23&#45;&gt;Node24 -->
<g id="edge34" class="edge"><title>Node23&#45;&gt;Node24</title>
<path fill="none" stroke="midnightblue" d="M551.525,-225.884C616.072,-218.369 717.317,-205.223 804,-188 804.1,-187.98 804.2,-187.96 804.3,-187.94"/>
<polygon fill="midnightblue" stroke="midnightblue" points="804.836,-191.406 813.842,-185.826 803.321,-184.572 804.836,-191.406"/>
</g>
<!-- Node25 -->
<g id="node25" class="node"><title>Node25</title>
<g id="a_node25"><a xlink:href="../../d5/d82/globals_8hpp.html" target="_top" xlink:title="pfasst/globals.hpp">
<polygon fill="white" stroke="black" points="698.5,-168.5 698.5,-187.5 795.5,-187.5 795.5,-168.5 698.5,-168.5"/>
<text text-anchor="middle" x="747" y="-175.5" font-family="Helvetica,sans-Serif" font-size="10.00">pfasst/globals.hpp</text>
</a>
</g>
</g>
<!-- Node23&#45;&gt;Node25 -->
<g id="edge37" class="edge"><title>Node23&#45;&gt;Node25</title>
<path fill="none" stroke="midnightblue" d="M527.356,-224.444C573.078,-214.984 646.764,-199.738 696.022,-189.547"/>
<polygon fill="midnightblue" stroke="midnightblue" points="696.754,-192.97 705.837,-187.516 695.336,-186.115 696.754,-192.97"/>
</g>
<!-- Node26&#45;&gt;Node19 -->
<g id="edge40" class="edge"><title>Node26&#45;&gt;Node19</title>
<path fill="none" stroke="midnightblue" d="M435.83,-310.523C436.873,-318.586 437.029,-328.813 436.299,-337.526"/>
<polygon fill="midnightblue" stroke="midnightblue" points="432.827,-337.085 434.901,-347.475 439.759,-338.06 432.827,-337.085"/>
</g>
<!-- Node26&#45;&gt;Node25 -->
<g id="edge41" class="edge"><title>Node26&#45;&gt;Node25</title>
<path fill="none" stroke="midnightblue" d="M469.401,-280.402C495.406,-270.803 530.073,-257.443 560,-244 577.769,-236.018 580.943,-231.307 599,-224 633.221,-210.152 673.363,-198.201 703.201,-190.103"/>
<polygon fill="midnightblue" stroke="midnightblue" points="704.146,-193.473 712.902,-187.507 702.337,-186.711 704.146,-193.473"/>
</g>
<!-- Node27&#45;&gt;Node3 -->
<g id="edge43" class="edge"><title>Node27&#45;&gt;Node3</title>
<path fill="none" stroke="midnightblue" d="M704.905,-403.438C662.31,-375.632 529.211,-289.129 508,-280 448.987,-254.601 429.257,-263.37 368,-244 343.995,-236.409 339.059,-231.419 315,-224 263.925,-208.251 203.59,-194.525 165.803,-186.499"/>
<polygon fill="midnightblue" stroke="midnightblue" points="166.276,-183.022 155.769,-184.389 164.835,-189.872 166.276,-183.022"/>
</g>
<!-- Node27&#45;&gt;Node6 -->
<g id="edge44" class="edge"><title>Node27&#45;&gt;Node6</title>
<path fill="none" stroke="midnightblue" d="M702.926,-403.2C690.644,-395.26 673.787,-382.469 664,-367 641.306,-331.128 633.722,-280.719 631.215,-253.757"/>
<polygon fill="midnightblue" stroke="midnightblue" points="634.701,-253.44 630.422,-243.748 627.723,-253.993 634.701,-253.44"/>
</g>
<!-- Node27&#45;&gt;Node7 -->
<g id="edge45" class="edge"><title>Node27&#45;&gt;Node7</title>
<path fill="none" stroke="midnightblue" d="M751.618,-410.413C858.763,-404.673 1189.59,-381.469 1265,-311 1296.85,-281.234 1302.59,-226.666 1303.27,-197.899"/>
<polygon fill="midnightblue" stroke="midnightblue" points="1306.77,-197.626 1303.32,-187.61 1299.77,-197.594 1306.77,-197.626"/>
</g>
<!-- Node28 -->
<g id="node28" class="node"><title>Node28</title>
<g id="a_node28"><a xlink:href="../../d3/d35/particle__impl_8hpp.html" target="_top" xlink:title="particle_impl.hpp">
<polygon fill="white" stroke="black" points="673,-347.5 673,-366.5 763,-366.5 763,-347.5 673,-347.5"/>
<text text-anchor="middle" x="718" y="-354.5" font-family="Helvetica,sans-Serif" font-size="10.00">particle_impl.hpp</text>
</a>
</g>
</g>
<!-- Node27&#45;&gt;Node28 -->
<g id="edge46" class="edge"><title>Node27&#45;&gt;Node28</title>
<path fill="none" stroke="midnightblue" d="M712.834,-403.083C711.324,-395.927 710.894,-385.635 711.542,-376.691"/>
<polygon fill="midnightblue" stroke="midnightblue" points="715.015,-377.126 712.869,-366.751 708.077,-376.2 715.015,-377.126"/>
</g>
<!-- Node28&#45;&gt;Node8 -->
<g id="edge61" class="edge"><title>Node28&#45;&gt;Node8</title>
<path fill="none" stroke="midnightblue" d="M712.39,-347.173C694.4,-317.651 642.001,-221.222 689,-168 710.295,-143.885 926.373,-129.651 1013.69,-124.845"/>
<polygon fill="midnightblue" stroke="midnightblue" points="1014.12,-128.327 1023.92,-124.293 1013.74,-121.337 1014.12,-128.327"/>
</g>
<!-- Node28&#45;&gt;Node24 -->
<g id="edge60" class="edge"><title>Node28&#45;&gt;Node24</title>
<path fill="none" stroke="midnightblue" d="M718.631,-347.465C720.031,-332.791 724.347,-302.219 737,-280 757.667,-243.707 794.988,-211.647 818.301,-193.832"/>
<polygon fill="midnightblue" stroke="midnightblue" points="820.566,-196.509 826.486,-187.723 816.379,-190.899 820.566,-196.509"/>
</g>
<!-- Node28&#45;&gt;Node27 -->
<g id="edge47" class="edge"><title>Node28&#45;&gt;Node27</title>
<path fill="none" stroke="midnightblue" d="M723.131,-366.751C724.657,-373.858 725.104,-384.136 724.472,-393.101"/>
<polygon fill="midnightblue" stroke="midnightblue" points="720.993,-392.713 723.166,-403.083 727.934,-393.622 720.993,-392.713"/>
</g>
<!-- Node29 -->
<g id="node29" class="node"><title>Node29</title>
<g id="a_node29"><a xlink:href="../../db/de5/particle__util_8hpp.html" target="_top" xlink:title="particle_util.hpp">
<polygon fill="white" stroke="black" points="746,-286 746,-305 830,-305 830,-286 746,-286"/>
<text text-anchor="middle" x="788" y="-293" font-family="Helvetica,sans-Serif" font-size="10.00">particle_util.hpp</text>
</a>
</g>
</g>
<!-- Node28&#45;&gt;Node29 -->
<g id="edge48" class="edge"><title>Node28&#45;&gt;Node29</title>
<path fill="none" stroke="midnightblue" d="M728.029,-347.475C739.049,-338.108 756.96,-322.884 770.343,-311.508"/>
<polygon fill="midnightblue" stroke="midnightblue" points="772.637,-314.152 777.989,-305.009 768.103,-308.819 772.637,-314.152"/>
</g>
<!-- Node29&#45;&gt;Node3 -->
<g id="edge49" class="edge"><title>Node29&#45;&gt;Node3</title>
<path fill="none" stroke="midnightblue" d="M745.867,-292.992C675.274,-289.556 529.215,-278.539 411,-244 390.769,-238.089 388.068,-230.444 368,-224 298.298,-201.617 213.378,-188.911 165.828,-183.041"/>
<polygon fill="midnightblue" stroke="midnightblue" points="166.05,-179.543 155.704,-181.826 165.215,-186.493 166.05,-179.543"/>
</g>
<!-- Node29&#45;&gt;Node6 -->
<g id="edge50" class="edge"><title>Node29&#45;&gt;Node6</title>
<path fill="none" stroke="midnightblue" d="M765.362,-285.975C738.106,-275.711 692.172,-258.413 661.474,-246.853"/>
<polygon fill="midnightblue" stroke="midnightblue" points="662.678,-243.566 652.086,-243.317 660.211,-250.117 662.678,-243.566"/>
</g>
<!-- Node30 -->
<g id="node30" class="node"><title>Node30</title>
<g id="a_node30"><a xlink:href="../../d0/d00/particle__util__impl_8hpp.html" target="_top" xlink:title="particle_util_impl.hpp">
<polygon fill="white" stroke="black" points="921.5,-224.5 921.5,-243.5 1028.5,-243.5 1028.5,-224.5 921.5,-224.5"/>
<text text-anchor="middle" x="975" y="-231.5" font-family="Helvetica,sans-Serif" font-size="10.00">particle_util_impl.hpp</text>
</a>
</g>
</g>
<!-- Node29&#45;&gt;Node30 -->
<g id="edge51" class="edge"><title>Node29&#45;&gt;Node30</title>
<path fill="none" stroke="midnightblue" d="M809.892,-285.975C840.26,-275.592 895.328,-258.012 933.547,-246.454"/>
<polygon fill="midnightblue" stroke="midnightblue" points="934.788,-249.736 943.36,-243.509 932.776,-243.031 934.788,-249.736"/>
</g>
<!-- Node30&#45;&gt;Node7 -->
<g id="edge59" class="edge"><title>Node30&#45;&gt;Node7</title>
<path fill="none" stroke="midnightblue" d="M1026.97,-224.444C1086.01,-214.725 1182.14,-198.898 1243.96,-188.721"/>
<polygon fill="midnightblue" stroke="midnightblue" points="1244.65,-192.154 1253.95,-187.075 1243.51,-185.246 1244.65,-192.154"/>
</g>
<!-- Node30&#45;&gt;Node24 -->
<g id="edge54" class="edge"><title>Node30&#45;&gt;Node24</title>
<path fill="none" stroke="midnightblue" d="M953.45,-224.444C930.969,-215.517 895.512,-201.439 870.02,-191.317"/>
<polygon fill="midnightblue" stroke="midnightblue" points="871.035,-187.954 860.449,-187.516 868.451,-194.46 871.035,-187.954"/>
</g>
<!-- Node30&#45;&gt;Node25 -->
<g id="edge58" class="edge"><title>Node30&#45;&gt;Node25</title>
<path fill="none" stroke="midnightblue" d="M938.873,-224.444C899.349,-215.083 835.903,-200.056 792.887,-189.868"/>
<polygon fill="midnightblue" stroke="midnightblue" points="793.496,-186.415 782.958,-187.516 791.882,-193.227 793.496,-186.415"/>
</g>
<!-- Node30&#45;&gt;Node29 -->
<g id="edge52" class="edge"><title>Node30&#45;&gt;Node29</title>
<path fill="none" stroke="midnightblue" d="M953.154,-243.509C922.811,-253.885 867.747,-271.465 829.511,-283.029"/>
<polygon fill="midnightblue" stroke="midnightblue" points="828.265,-279.748 819.693,-285.975 830.277,-286.453 828.265,-279.748"/>
</g>
<!-- Node31 -->
<g id="node31" class="node"><title>Node31</title>
<polygon fill="white" stroke="#bfbfbf" points="1024,-168.5 1024,-187.5 1082,-187.5 1082,-168.5 1024,-168.5"/>
<text text-anchor="middle" x="1053" y="-175.5" font-family="Helvetica,sans-Serif" font-size="10.00">algorithm</text>
</g>
<!-- Node30&#45;&gt;Node31 -->
<g id="edge53" class="edge"><title>Node30&#45;&gt;Node31</title>
<path fill="none" stroke="midnightblue" d="M987.532,-224.324C999.586,-215.979 1018.03,-203.212 1032.27,-193.352"/>
<polygon fill="midnightblue" stroke="midnightblue" points="1034.27,-196.224 1040.5,-187.655 1030.28,-190.469 1034.27,-196.224"/>
</g>
<!-- Node32 -->
<g id="node32" class="node"><title>Node32</title>
<polygon fill="white" stroke="#bfbfbf" points="962,-168.5 962,-187.5 1006,-187.5 1006,-168.5 962,-168.5"/>
<text text-anchor="middle" x="984" y="-175.5" font-family="Helvetica,sans-Serif" font-size="10.00">cmath</text>
</g>
<!-- Node30&#45;&gt;Node32 -->
<g id="edge55" class="edge"><title>Node30&#45;&gt;Node32</title>
<path fill="none" stroke="midnightblue" d="M976.486,-224.083C977.679,-216.927 979.394,-206.635 980.885,-197.691"/>
<polygon fill="midnightblue" stroke="midnightblue" points="984.35,-198.19 982.541,-187.751 977.445,-197.04 984.35,-198.19"/>
</g>
<!-- Node33 -->
<g id="node33" class="node"><title>Node33</title>
<polygon fill="white" stroke="#bfbfbf" points="1100.5,-168.5 1100.5,-187.5 1159.5,-187.5 1159.5,-168.5 1100.5,-168.5"/>
<text text-anchor="middle" x="1130" y="-175.5" font-family="Helvetica,sans-Serif" font-size="10.00">functional</text>
</g>
<!-- Node30&#45;&gt;Node33 -->
<g id="edge56" class="edge"><title>Node30&#45;&gt;Node33</title>
<path fill="none" stroke="midnightblue" d="M999.56,-224.444C1025.52,-215.399 1066.67,-201.064 1095.8,-190.916"/>
<polygon fill="midnightblue" stroke="midnightblue" points="1097.26,-194.112 1105.55,-187.516 1094.96,-187.501 1097.26,-194.112"/>
</g>
<!-- Node34 -->
<g id="node34" class="node"><title>Node34</title>
<polygon fill="white" stroke="#bfbfbf" points="882,-168.5 882,-187.5 944,-187.5 944,-168.5 882,-168.5"/>
<text text-anchor="middle" x="913" y="-175.5" font-family="Helvetica,sans-Serif" font-size="10.00">type_traits</text>
</g>
<!-- Node30&#45;&gt;Node34 -->
<g id="edge57" class="edge"><title>Node30&#45;&gt;Node34</title>
<path fill="none" stroke="midnightblue" d="M965.039,-224.324C955.873,-216.341 942.063,-204.313 930.972,-194.653"/>
<polygon fill="midnightblue" stroke="midnightblue" points="932.982,-191.762 923.143,-187.834 928.385,-197.041 932.982,-191.762"/>
</g>
<!-- Node35&#45;&gt;Node5 -->
<g id="edge63" class="edge"><title>Node35&#45;&gt;Node5</title>
<path fill="none" stroke="midnightblue" d="M991.835,-366.591C995.188,-384.308 995.648,-425.254 993.216,-449.348"/>
<polygon fill="midnightblue" stroke="midnightblue" points="989.733,-448.986 991.843,-459.368 996.668,-449.936 989.733,-448.986"/>
</g>
<!-- Node35&#45;&gt;Node7 -->
<g id="edge72" class="edge"><title>Node35&#45;&gt;Node7</title>
<path fill="none" stroke="midnightblue" d="M1048.08,-351.567C1112.82,-345.714 1210.57,-333.423 1240,-311 1259.33,-296.275 1284.96,-229.803 1296.68,-197.177"/>
<polygon fill="midnightblue" stroke="midnightblue" points="1300.05,-198.129 1300.09,-187.534 1293.45,-195.796 1300.05,-198.129"/>
</g>
<!-- Node35&#45;&gt;Node10 -->
<g id="edge68" class="edge"><title>Node35&#45;&gt;Node10</title>
<path fill="none" stroke="midnightblue" d="M1043.7,-347.453C1085.44,-339.862 1137.7,-327.425 1152,-311 1188.19,-269.416 1164.44,-243.012 1168,-188 1168.57,-179.13 1173.52,-174.968 1168,-168 1124.63,-113.238 1065.69,-180.063 1015,-132 1002.48,-120.128 998.069,-100.505 996.586,-85.9196"/>
<polygon fill="midnightblue" stroke="midnightblue" points="1000.05,-85.3044 995.925,-75.5472 993.068,-85.7496 1000.05,-85.3044"/>
</g>
<!-- Node35&#45;&gt;Node12 -->
<g id="edge71" class="edge"><title>Node35&#45;&gt;Node12</title>
<path fill="none" stroke="midnightblue" d="M1048.17,-351.659C1104.54,-346.192 1182.92,-334.509 1202,-311 1242.05,-261.652 1217.41,-229.658 1202,-168 1199.56,-158.245 1194.56,-148.29 1189.76,-140.231"/>
<polygon fill="midnightblue" stroke="midnightblue" points="1192.69,-138.322 1184.37,-131.768 1186.79,-142.083 1192.69,-138.322"/>
</g>
<!-- Node35&#45;&gt;Node24 -->
<g id="edge65" class="edge"><title>Node35&#45;&gt;Node24</title>
<path fill="none" stroke="midnightblue" d="M979.202,-347.247C970.343,-338.33 956.395,-324.002 945,-311 909.804,-270.841 871.174,-221.197 851.713,-195.759"/>
<polygon fill="midnightblue" stroke="midnightblue" points="854.298,-193.376 845.452,-187.545 848.731,-197.62 854.298,-193.376"/>
</g>
<!-- Node35&#45;&gt;Node25 -->
<g id="edge70" class="edge"><title>Node35&#45;&gt;Node25</title>
<path fill="none" stroke="midnightblue" d="M973.369,-347.469C958.615,-338.724 935.32,-324.527 916,-311 859.376,-271.353 795.989,-219.78 765.435,-194.436"/>
<polygon fill="midnightblue" stroke="midnightblue" points="767.31,-191.443 757.385,-187.734 762.831,-196.822 767.31,-191.443"/>
</g>
<!-- Node35&#45;&gt;Node29 -->
<g id="edge73" class="edge"><title>Node35&#45;&gt;Node29</title>
<path fill="none" stroke="midnightblue" d="M959.345,-347.475C924.444,-337.092 865.35,-319.512 826.5,-307.954"/>
<polygon fill="midnightblue" stroke="midnightblue" points="827.185,-304.506 816.602,-305.009 825.189,-311.215 827.185,-304.506"/>
</g>
<!-- Node35&#45;&gt;Node31 -->
<g id="edge64" class="edge"><title>Node35&#45;&gt;Node31</title>
<path fill="none" stroke="midnightblue" d="M978.244,-347.12C963.342,-332.456 938.126,-302.557 953,-280 975.36,-246.091 1010.72,-274.971 1037,-244 1047.92,-231.134 1051.6,-211.955 1052.74,-197.761"/>
<polygon fill="midnightblue" stroke="midnightblue" points="1056.24,-197.812 1053.2,-187.663 1049.25,-197.494 1056.24,-197.812"/>
</g>
<!-- Node35&#45;&gt;Node33 -->
<g id="edge66" class="edge"><title>Node35&#45;&gt;Node33</title>
<path fill="none" stroke="midnightblue" d="M1048.35,-353.083C1078.31,-348.208 1112.06,-336.811 1131,-311 1155.65,-277.396 1144.78,-224.922 1136.41,-197.346"/>
<polygon fill="midnightblue" stroke="midnightblue" points="1139.72,-196.21 1133.3,-187.783 1133.06,-198.375 1139.72,-196.21"/>
</g>
<!-- Node36 -->
<g id="node36" class="node"><title>Node36</title>
<polygon fill="white" stroke="#bfbfbf" points="962.5,-286 962.5,-305 1013.5,-305 1013.5,-286 962.5,-286"/>
<text text-anchor="middle" x="988" y="-293" font-family="Helvetica,sans-Serif" font-size="10.00">random</text>
</g>
<!-- Node35&#45;&gt;Node36 -->
<g id="edge67" class="edge"><title>Node35&#45;&gt;Node36</title>
<path fill="none" stroke="midnightblue" d="M988,-347.475C988,-339.08 988,-325.981 988,-315.163"/>
<polygon fill="midnightblue" stroke="midnightblue" points="991.5,-315.009 988,-305.009 984.5,-315.009 991.5,-315.009"/>
</g>
<!-- Node37 -->
<g id="node37" class="node"><title>Node37</title>
<polygon fill="white" stroke="#bfbfbf" points="1032,-286 1032,-305 1122,-305 1122,-286 1032,-286"/>
<text text-anchor="middle" x="1077" y="-293" font-family="Helvetica,sans-Serif" font-size="10.00">boost/format.hpp</text>
</g>
<!-- Node35&#45;&gt;Node37 -->
<g id="edge69" class="edge"><title>Node35&#45;&gt;Node37</title>
<path fill="none" stroke="midnightblue" d="M1000.75,-347.475C1015.03,-337.931 1038.4,-322.307 1055.51,-310.868"/>
<polygon fill="midnightblue" stroke="midnightblue" points="1057.9,-313.477 1064.27,-305.009 1054.01,-307.657 1057.9,-313.477"/>
</g>
<!-- Node38&#45;&gt;Node2 -->
<g id="edge75" class="edge"><title>Node38&#45;&gt;Node2</title>
<path fill="none" stroke="midnightblue" d="M1384.54,-520.819C1422.69,-500.786 1517.1,-451.222 1562.64,-427.316"/>
<polygon fill="midnightblue" stroke="midnightblue" points="1564.35,-430.372 1571.57,-422.624 1561.09,-424.174 1564.35,-430.372"/>
</g>
<!-- Node38&#45;&gt;Node3 -->
<g id="edge76" class="edge"><title>Node38&#45;&gt;Node3</title>
<path fill="none" stroke="midnightblue" d="M1310.86,-527.275C1065.54,-517.354 114,-474.943 114,-414 114,-414 114,-414 114,-294.5 114,-260.077 120.633,-220.36 125.078,-197.613"/>
<polygon fill="midnightblue" stroke="midnightblue" points="128.542,-198.14 127.1,-187.644 121.682,-196.748 128.542,-198.14"/>
</g>
<!-- Node38&#45;&gt;Node4 -->
<g id="edge77" class="edge"><title>Node38&#45;&gt;Node4</title>
<path fill="none" stroke="midnightblue" d="M1374.89,-520.919C1397.22,-492.672 1468.38,-399.338 1506,-311 1549.1,-209.776 1570.64,-78.1959 1577.5,-29.8649"/>
<polygon fill="midnightblue" stroke="midnightblue" points="1581.01,-30.055 1578.9,-19.6715 1574.07,-29.1015 1581.01,-30.055"/>
</g>
<!-- Node38&#45;&gt;Node5 -->
<g id="edge79" class="edge"><title>Node38&#45;&gt;Node5</title>
<path fill="none" stroke="midnightblue" d="M1313.56,-520.975C1243.88,-510.065 1123.45,-491.208 1050.22,-479.742"/>
<polygon fill="midnightblue" stroke="midnightblue" points="1050.63,-476.264 1040.21,-478.174 1049.54,-483.179 1050.63,-476.264"/>
</g>
<!-- Node38&#45;&gt;Node7 -->
<g id="edge78" class="edge"><title>Node38&#45;&gt;Node7</title>
<path fill="none" stroke="midnightblue" d="M1369.27,-520.829C1371.96,-501.628 1378,-454.053 1378,-414 1378,-414 1378,-414 1378,-294.5 1378,-252.977 1343.48,-214.636 1321.28,-194.27"/>
<polygon fill="midnightblue" stroke="midnightblue" points="1323.56,-191.609 1313.75,-187.607 1318.92,-196.853 1323.56,-191.609"/>
</g>
<!-- Node39&#45;&gt;Node2 -->
<g id="edge81" class="edge"><title>Node39&#45;&gt;Node2</title>
<path fill="none" stroke="midnightblue" d="M1588,-459.083C1588,-452.006 1588,-441.861 1588,-432.986"/>
<polygon fill="midnightblue" stroke="midnightblue" points="1591.5,-432.751 1588,-422.751 1584.5,-432.751 1591.5,-432.751"/>
</g>
<!-- Node40&#45;&gt;Node1 -->
<g id="edge83" class="edge"><title>Node40&#45;&gt;Node1</title>
<path fill="none" stroke="midnightblue" d="M1511.56,-545.892C1512.56,-553.532 1512.93,-563.214 1512.67,-572.376"/>
<polygon fill="midnightblue" stroke="midnightblue" points="1509.18,-572.185 1512.12,-582.362 1516.17,-572.569 1509.18,-572.185"/>
</g>
<!-- Node40&#45;&gt;Node7 -->
<g id="edge85" class="edge"><title>Node40&#45;&gt;Node7</title>
<path fill="none" stroke="midnightblue" d="M1503.17,-515.342C1499.08,-493.63 1492,-450.762 1492,-414 1492,-414 1492,-414 1492,-294.5 1492,-232.649 1417.39,-202.925 1361.93,-189.374"/>
<polygon fill="midnightblue" stroke="midnightblue" points="1362.7,-185.959 1352.16,-187.104 1361.11,-192.778 1362.7,-185.959"/>
</g>
<!-- Node40&#45;&gt;Node39 -->
<g id="edge84" class="edge"><title>Node40&#45;&gt;Node39</title>
<path fill="none" stroke="midnightblue" d="M1525.43,-515.399C1538.21,-506.129 1554.89,-494.025 1567.81,-484.647"/>
<polygon fill="midnightblue" stroke="midnightblue" points="1570.03,-487.364 1576.07,-478.658 1565.92,-481.698 1570.03,-487.364"/>
</g>
</g>
</svg>
