<?xml version="1.0" encoding="UTF-8" standalone="no"?>
<!DOCTYPE svg PUBLIC "-//W3C//DTD SVG 1.1//EN"
 "http://www.w3.org/Graphics/SVG/1.1/DTD/svg11.dtd">
<!-- Generated by graphviz version 2.38.0 (20140413.2041)
 -->
<!-- Title: examples/boris/particle_cloud_impl.hpp Pages: 1 -->
<!--zoomable 554 -->
<svg id="main" version="1.1" xmlns="http://www.w3.org/2000/svg" xmlns:xlink="http://www.w3.org/1999/xlink" xml:space="preserve" onload="init(evt)">
<style type="text/css"><![CDATA[
.edge:hover path { stroke: red; }
.edge:hover polygon { stroke: red; fill: red; }
]]></style>
<script type="text/javascript"><![CDATA[
var edges = document.getElementsByTagName('g');
if (edges && edges.length) {
  for (var i=0;i<edges.length;i++) {
    if (edges[i].id.substr(0,4)=='edge') {
      edges[i].setAttribute('class','edge');
    }
  }
}
]]></script>
        <defs>
                <circle id="rim" cx="0" cy="0" r="7"/>
                <circle id="rim2" cx="0" cy="0" r="3.5"/>
                <g id="zoomPlus">
                        <use xlink:href="#rim" fill="#404040">
                                <set attributeName="fill" to="#808080" begin="zoomplus.mouseover" end="zoomplus.mouseout"/>
                        </use>
                        <path d="M-4,0h8M0,-4v8" fill="none" stroke="white" stroke-width="1.5" pointer-events="none"/>
                </g>
                <g id="zoomMin">
                        <use xlink:href="#rim" fill="#404040">
                                <set attributeName="fill" to="#808080" begin="zoomminus.mouseover" end="zoomminus.mouseout"/>
                        </use>
                        <path d="M-4,0h8" fill="none" stroke="white" stroke-width="1.5" pointer-events="none"/>
                </g>
                <g id="dirArrow">
                        <path fill="none" stroke="white" stroke-width="1.5" d="M0,-3.0v7 M-2.5,-0.5L0,-3.0L2.5,-0.5"/>
                </g>
               <g id="resetDef">
                       <use xlink:href="#rim2" fill="#404040">
                               <set attributeName="fill" to="#808080" begin="reset.mouseover" end="reset.mouseout"/>
                       </use>
               </g>
        </defs>

<script type="text/javascript">
var viewWidth = 1369;
var viewHeight = 554;
var sectionId = 'dynsection-0';
</script>
<script xlink:href="../../svgpan.js"/>
<svg id="graph" class="graph">
<g id="viewport">
<title>examples/boris/particle_cloud_impl.hpp</title>
<polygon fill="white" stroke="none" points="-4,4 -4,-550 1365,-550 1365,4 -4,4"/>
<!-- Node1 -->
<g id="node1" class="node"><title>Node1</title>
<polygon fill="#bfbfbf" stroke="black" points="920.5,-515.5 920.5,-545.5 1041.5,-545.5 1041.5,-515.5 920.5,-515.5"/>
<text text-anchor="start" x="928.5" y="-533.5" font-family="Helvetica,sans-Serif" font-size="10.00">examples/boris/particle</text>
<text text-anchor="middle" x="981" y="-522.5" font-family="Helvetica,sans-Serif" font-size="10.00">_cloud_impl.hpp</text>
</g>
<!-- Node2 -->
<g id="node2" class="node"><title>Node2</title>
<g id="a_node2"><a xlink:href="../../d8/d52/particle__cloud_8hpp.html" target="_top" xlink:title="particle_cloud.hpp">
<polygon fill="white" stroke="black" points="640.5,-459.5 640.5,-478.5 737.5,-478.5 737.5,-459.5 640.5,-459.5"/>
<text text-anchor="middle" x="689" y="-466.5" font-family="Helvetica,sans-Serif" font-size="10.00">particle_cloud.hpp</text>
</a>
</g>
</g>
<!-- Node1&#45;&gt;Node2 -->
<g id="edge1" class="edge"><title>Node1&#45;&gt;Node2</title>
<path fill="none" stroke="midnightblue" d="M920.311,-518.239C865.45,-507.427 785.944,-491.219 735.835,-480.626"/>
<polygon fill="midnightblue" stroke="midnightblue" points="736.423,-477.173 725.914,-478.52 734.97,-484.021 736.423,-477.173"/>
</g>
<!-- Node5 -->
<g id="node5" class="node"><title>Node5</title>
<g id="a_node5"><a xlink:href="../../d0/da9/logging_8hpp.html" target="_top" xlink:title="pfasst/logging.hpp">
<polygon fill="white" stroke="black" points="645,-168.5 645,-187.5 743,-187.5 743,-168.5 645,-168.5"/>
<text text-anchor="middle" x="694" y="-175.5" font-family="Helvetica,sans-Serif" font-size="10.00">pfasst/logging.hpp</text>
</a>
</g>
</g>
<!-- Node1&#45;&gt;Node5 -->
<g id="edge68" class="edge"><title>Node1&#45;&gt;Node5</title>
<path fill="none" stroke="midnightblue" d="M965.465,-515.49C944.842,-495.273 911,-455.736 911,-414 911,-414 911,-414 911,-356 911,-277.899 862.501,-263.286 795,-224 773.043,-211.221 746.795,-199.628 726.561,-191.41"/>
<polygon fill="midnightblue" stroke="midnightblue" points="727.741,-188.113 717.156,-187.657 725.147,-194.614 727.741,-188.113"/>
</g>
<!-- Node8 -->
<g id="node8" class="node"><title>Node8</title>
<polygon fill="white" stroke="#bfbfbf" points="650.5,-56.5 650.5,-75.5 691.5,-75.5 691.5,-56.5 650.5,-56.5"/>
<text text-anchor="middle" x="671" y="-63.5" font-family="Helvetica,sans-Serif" font-size="10.00">string</text>
</g>
<!-- Node1&#45;&gt;Node8 -->
<g id="edge64" class="edge"><title>Node1&#45;&gt;Node8</title>
<path fill="none" stroke="midnightblue" d="M1030.15,-515.36C1075.22,-499.023 1135,-467.305 1135,-414 1135,-414 1135,-414 1135,-233 1135,-202.775 1135.34,-190.36 1115,-168 1058.78,-106.19 792.689,-77.593 701.639,-69.5021"/>
<polygon fill="midnightblue" stroke="midnightblue" points="701.936,-66.0148 691.671,-68.6367 701.331,-72.9886 701.936,-66.0148"/>
</g>
<!-- Node10 -->
<g id="node10" class="node"><title>Node10</title>
<g id="a_node10"><a xlink:href="../../d8/dfd/config_8hpp.html" target="_top" xlink:title="pfasst/config.hpp">
<polygon fill="white" stroke="black" points="1127.5,-112.5 1127.5,-131.5 1218.5,-131.5 1218.5,-112.5 1127.5,-112.5"/>
<text text-anchor="middle" x="1173" y="-119.5" font-family="Helvetica,sans-Serif" font-size="10.00">pfasst/config.hpp</text>
</a>
</g>
</g>
<!-- Node1&#45;&gt;Node10 -->
<g id="edge67" class="edge"><title>Node1&#45;&gt;Node10</title>
<path fill="none" stroke="midnightblue" d="M1041.66,-524.618C1076.95,-518.815 1120.04,-506.224 1149,-479 1171.44,-457.907 1173,-444.795 1173,-414 1173,-414 1173,-414 1173,-233 1173,-200.948 1173,-163.643 1173,-141.749"/>
<polygon fill="midnightblue" stroke="midnightblue" points="1176.5,-141.558 1173,-131.558 1169.5,-141.558 1176.5,-141.558"/>
</g>
<!-- Node23 -->
<g id="node23" class="node"><title>Node23</title>
<polygon fill="white" stroke="#bfbfbf" points="761,-168.5 761,-187.5 811,-187.5 811,-168.5 761,-168.5"/>
<text text-anchor="middle" x="786" y="-175.5" font-family="Helvetica,sans-Serif" font-size="10.00">cassert</text>
</g>
<!-- Node1&#45;&gt;Node23 -->
<g id="edge61" class="edge"><title>Node1&#45;&gt;Node23</title>
<path fill="none" stroke="midnightblue" d="M974.37,-515.266C964.997,-493.805 949,-451.661 949,-414 949,-414 949,-414 949,-356 949,-320.578 946.625,-308.055 925,-280 906.708,-256.269 892.442,-261.331 868,-244 845.159,-227.804 820.097,-207.548 803.769,-193.992"/>
<polygon fill="midnightblue" stroke="midnightblue" points="806.002,-191.297 796.084,-187.571 801.513,-196.669 806.002,-191.297"/>
</g>
<!-- Node24 -->
<g id="node24" class="node"><title>Node24</title>
<g id="a_node24"><a xlink:href="../../d5/d82/globals_8hpp.html" target="_top" xlink:title="pfasst/globals.hpp">
<polygon fill="white" stroke="black" points="426.5,-168.5 426.5,-187.5 523.5,-187.5 523.5,-168.5 426.5,-168.5"/>
<text text-anchor="middle" x="475" y="-175.5" font-family="Helvetica,sans-Serif" font-size="10.00">pfasst/globals.hpp</text>
</a>
</g>
</g>
<!-- Node1&#45;&gt;Node24 -->
<g id="edge66" class="edge"><title>Node1&#45;&gt;Node24</title>
<path fill="none" stroke="midnightblue" d="M920.273,-528.532C784.26,-524.722 467,-505.976 467,-414 467,-414 467,-414 467,-356 467,-298.468 471.27,-230.525 473.571,-198.091"/>
<polygon fill="midnightblue" stroke="midnightblue" points="477.082,-198.062 474.318,-187.834 470.101,-197.553 477.082,-198.062"/>
</g>
<!-- Node28 -->
<g id="node28" class="node"><title>Node28</title>
<g id="a_node28"><a xlink:href="../../db/de5/particle__util_8hpp.html" target="_top" xlink:title="particle_util.hpp">
<polygon fill="white" stroke="black" points="761,-286 761,-305 845,-305 845,-286 761,-286"/>
<text text-anchor="middle" x="803" y="-293" font-family="Helvetica,sans-Serif" font-size="10.00">particle_util.hpp</text>
</a>
</g>
</g>
<!-- Node1&#45;&gt;Node28 -->
<g id="edge69" class="edge"><title>Node1&#45;&gt;Node28</title>
<path fill="none" stroke="midnightblue" d="M948.535,-515.351C931.581,-506.731 911.422,-494.401 897,-479 849.96,-428.765 820.401,-350.477 808.716,-315.04"/>
<polygon fill="midnightblue" stroke="midnightblue" points="811.927,-313.59 805.551,-305.129 805.259,-315.72 811.927,-313.59"/>
</g>
<!-- Node30 -->
<g id="node30" class="node"><title>Node30</title>
<polygon fill="white" stroke="#bfbfbf" points="971,-168.5 971,-187.5 1029,-187.5 1029,-168.5 971,-168.5"/>
<text text-anchor="middle" x="1000" y="-175.5" font-family="Helvetica,sans-Serif" font-size="10.00">algorithm</text>
</g>
<!-- Node1&#45;&gt;Node30 -->
<g id="edge60" class="edge"><title>Node1&#45;&gt;Node30</title>
<path fill="none" stroke="midnightblue" d="M987.63,-515.266C997.003,-493.805 1013,-451.661 1013,-414 1013,-414 1013,-414 1013,-294.5 1013,-260.148 1007.25,-220.408 1003.4,-197.637"/>
<polygon fill="midnightblue" stroke="midnightblue" points="1006.82,-196.9 1001.65,-187.656 999.929,-198.111 1006.82,-196.9"/>
</g>
<!-- Node32 -->
<g id="node32" class="node"><title>Node32</title>
<polygon fill="white" stroke="#bfbfbf" points="1047.5,-168.5 1047.5,-187.5 1106.5,-187.5 1106.5,-168.5 1047.5,-168.5"/>
<text text-anchor="middle" x="1077" y="-175.5" font-family="Helvetica,sans-Serif" font-size="10.00">functional</text>
</g>
<!-- Node1&#45;&gt;Node32 -->
<g id="edge62" class="edge"><title>Node1&#45;&gt;Node32</title>
<path fill="none" stroke="midnightblue" d="M1000.25,-515.444C1024.77,-495.754 1064,-457.459 1064,-414 1064,-414 1064,-414 1064,-294.5 1064,-260.148 1069.75,-220.408 1073.6,-197.637"/>
<polygon fill="midnightblue" stroke="midnightblue" points="1077.07,-198.111 1075.35,-187.656 1070.18,-196.9 1077.07,-198.111"/>
</g>
<!-- Node34 -->
<g id="node34" class="node"><title>Node34</title>
<polygon fill="white" stroke="#bfbfbf" points="1201.5,-459.5 1201.5,-478.5 1252.5,-478.5 1252.5,-459.5 1201.5,-459.5"/>
<text text-anchor="middle" x="1227" y="-466.5" font-family="Helvetica,sans-Serif" font-size="10.00">random</text>
</g>
<!-- Node1&#45;&gt;Node34 -->
<g id="edge63" class="edge"><title>Node1&#45;&gt;Node34</title>
<path fill="none" stroke="midnightblue" d="M1038.99,-515.475C1086.29,-504.033 1151.6,-488.238 1191.48,-478.592"/>
<polygon fill="midnightblue" stroke="midnightblue" points="1192.39,-481.973 1201.28,-476.22 1190.74,-475.169 1192.39,-481.973"/>
</g>
<!-- Node35 -->
<g id="node35" class="node"><title>Node35</title>
<polygon fill="white" stroke="#bfbfbf" points="1271,-459.5 1271,-478.5 1361,-478.5 1361,-459.5 1271,-459.5"/>
<text text-anchor="middle" x="1316" y="-466.5" font-family="Helvetica,sans-Serif" font-size="10.00">boost/format.hpp</text>
</g>
<!-- Node1&#45;&gt;Node35 -->
<g id="edge65" class="edge"><title>Node1&#45;&gt;Node35</title>
<path fill="none" stroke="midnightblue" d="M1041.67,-518.725C1104.05,-507.645 1200.37,-490.538 1260.71,-479.82"/>
<polygon fill="midnightblue" stroke="midnightblue" points="1261.57,-483.222 1270.81,-478.027 1260.35,-476.33 1261.57,-483.222"/>
</g>
<!-- Node2&#45;&gt;Node1 -->
<g id="edge59" class="edge"><title>Node2&#45;&gt;Node1</title>
<path fill="none" stroke="midnightblue" d="M735.871,-478.551C783.002,-487.747 856.106,-502.567 910.265,-513.859"/>
<polygon fill="midnightblue" stroke="midnightblue" points="909.642,-517.304 920.146,-515.924 911.074,-510.452 909.642,-517.304"/>
</g>
<!-- Node3 -->
<g id="node3" class="node"><title>Node3</title>
<polygon fill="white" stroke="#bfbfbf" points="184.5,-168.5 184.5,-187.5 237.5,-187.5 237.5,-168.5 184.5,-168.5"/>
<text text-anchor="middle" x="211" y="-175.5" font-family="Helvetica,sans-Serif" font-size="10.00">memory</text>
</g>
<!-- Node2&#45;&gt;Node3 -->
<g id="edge2" class="edge"><title>Node2&#45;&gt;Node3</title>
<path fill="none" stroke="midnightblue" d="M640.276,-465.37C483.156,-456.248 0,-422.92 0,-358 0,-358 0,-358 0,-294.5 0,-216.103 113.465,-190.575 173.984,-182.535"/>
<polygon fill="midnightblue" stroke="midnightblue" points="174.779,-185.964 184.277,-181.268 173.924,-179.016 174.779,-185.964"/>
</g>
<!-- Node4 -->
<g id="node4" class="node"><title>Node4</title>
<polygon fill="white" stroke="#bfbfbf" points="565,-224.5 565,-243.5 609,-243.5 609,-224.5 565,-224.5"/>
<text text-anchor="middle" x="587" y="-231.5" font-family="Helvetica,sans-Serif" font-size="10.00">vector</text>
</g>
<!-- Node2&#45;&gt;Node4 -->
<g id="edge3" class="edge"><title>Node2&#45;&gt;Node4</title>
<path fill="none" stroke="midnightblue" d="M678.366,-459.41C668.664,-451.05 654.571,-437.515 646,-423 612.715,-366.63 596.224,-289.482 590.018,-254.12"/>
<polygon fill="midnightblue" stroke="midnightblue" points="593.398,-253.107 588.299,-243.82 586.493,-254.26 593.398,-253.107"/>
</g>
<!-- Node2&#45;&gt;Node5 -->
<g id="edge4" class="edge"><title>Node2&#45;&gt;Node5</title>
<path fill="none" stroke="midnightblue" d="M706.178,-459.452C743.568,-439.631 830.831,-386.406 854,-311 858.047,-297.83 860.652,-292.066 854,-280 854,-280 760.159,-220.763 716.211,-193.02"/>
<polygon fill="midnightblue" stroke="midnightblue" points="717.966,-189.99 707.642,-187.611 714.229,-195.909 717.966,-189.99"/>
</g>
<!-- Node18 -->
<g id="node18" class="node"><title>Node18</title>
<g id="a_node18"><a xlink:href="../../d8/d85/encapsulation_8hpp.html" target="_top" xlink:title="pfasst/encap/encapsulation.hpp">
<polygon fill="white" stroke="black" points="281.5,-347.5 281.5,-366.5 438.5,-366.5 438.5,-347.5 281.5,-347.5"/>
<text text-anchor="middle" x="360" y="-354.5" font-family="Helvetica,sans-Serif" font-size="10.00">pfasst/encap/encapsulation.hpp</text>
</a>
</g>
</g>
<!-- Node2&#45;&gt;Node18 -->
<g id="edge21" class="edge"><title>Node2&#45;&gt;Node18</title>
<path fill="none" stroke="midnightblue" d="M655.012,-459.422C622.431,-450.97 571.994,-437.28 529,-423 479.659,-406.612 423.533,-384.269 389.984,-370.505"/>
<polygon fill="midnightblue" stroke="midnightblue" points="390.909,-367.101 380.329,-366.526 388.241,-373.573 390.909,-367.101"/>
</g>
<!-- Node26 -->
<g id="node26" class="node"><title>Node26</title>
<g id="a_node26"><a xlink:href="../../d4/dec/particle_8hpp.html" target="_top" xlink:title="particle.hpp">
<polygon fill="white" stroke="black" points="655.5,-403.5 655.5,-422.5 722.5,-422.5 722.5,-403.5 655.5,-403.5"/>
<text text-anchor="middle" x="689" y="-410.5" font-family="Helvetica,sans-Serif" font-size="10.00">particle.hpp</text>
</a>
</g>
</g>
<!-- Node2&#45;&gt;Node26 -->
<g id="edge39" class="edge"><title>Node2&#45;&gt;Node26</title>
<path fill="none" stroke="midnightblue" d="M689,-459.083C689,-452.006 689,-441.861 689,-432.986"/>
<polygon fill="midnightblue" stroke="midnightblue" points="692.5,-432.751 689,-422.751 685.5,-432.751 692.5,-432.751"/>
</g>
<!-- Node6 -->
<g id="node6" class="node"><title>Node6</title>
<polygon fill="white" stroke="#bfbfbf" points="591,-112.5 591,-131.5 643,-131.5 643,-112.5 591,-112.5"/>
<text text-anchor="middle" x="617" y="-119.5" font-family="Helvetica,sans-Serif" font-size="10.00">iomanip</text>
</g>
<!-- Node5&#45;&gt;Node6 -->
<g id="edge5" class="edge"><title>Node5&#45;&gt;Node6</title>
<path fill="none" stroke="midnightblue" d="M681.629,-168.324C669.842,-160.058 651.868,-147.453 637.864,-137.632"/>
<polygon fill="midnightblue" stroke="midnightblue" points="639.538,-134.531 629.341,-131.655 635.518,-140.262 639.538,-134.531"/>
</g>
<!-- Node7 -->
<g id="node7" class="node"><title>Node7</title>
<polygon fill="white" stroke="#bfbfbf" points="886,-56.5 886,-75.5 942,-75.5 942,-56.5 886,-56.5"/>
<text text-anchor="middle" x="914" y="-63.5" font-family="Helvetica,sans-Serif" font-size="10.00">iostream</text>
</g>
<!-- Node5&#45;&gt;Node7 -->
<g id="edge6" class="edge"><title>Node5&#45;&gt;Node7</title>
<path fill="none" stroke="midnightblue" d="M743.065,-169.382C824.683,-156.695 979.519,-132.563 980,-132 996.402,-112.815 967.885,-92.7224 943.362,-80.0461"/>
<polygon fill="midnightblue" stroke="midnightblue" points="944.779,-76.8425 934.261,-75.5683 941.689,-83.1235 944.779,-76.8425"/>
</g>
<!-- Node5&#45;&gt;Node8 -->
<g id="edge7" class="edge"><title>Node5&#45;&gt;Node8</title>
<path fill="none" stroke="midnightblue" d="M692.195,-168.368C688.484,-150.617 679.921,-109.666 674.889,-85.5974"/>
<polygon fill="midnightblue" stroke="midnightblue" points="678.269,-84.6634 672.796,-75.5914 671.417,-86.0961 678.269,-84.6634"/>
</g>
<!-- Node9 -->
<g id="node9" class="node"><title>Node9</title>
<polygon fill="white" stroke="#bfbfbf" points="699.5,-112.5 699.5,-131.5 830.5,-131.5 830.5,-112.5 699.5,-112.5"/>
<text text-anchor="middle" x="765" y="-119.5" font-family="Helvetica,sans-Serif" font-size="10.00">boost/algorithm/string.hpp</text>
</g>
<!-- Node5&#45;&gt;Node9 -->
<g id="edge8" class="edge"><title>Node5&#45;&gt;Node9</title>
<path fill="none" stroke="midnightblue" d="M705.407,-168.324C716.109,-160.185 732.341,-147.839 745.163,-138.087"/>
<polygon fill="midnightblue" stroke="midnightblue" points="747.544,-140.673 753.385,-131.834 743.307,-135.102 747.544,-140.673"/>
</g>
<!-- Node5&#45;&gt;Node10 -->
<g id="edge9" class="edge"><title>Node5&#45;&gt;Node10</title>
<path fill="none" stroke="midnightblue" d="M743.021,-169.201C746.057,-168.778 749.069,-168.373 752,-168 911.948,-147.63 953.001,-151.965 1113,-132 1114.47,-131.817 1115.96,-131.626 1117.46,-131.43"/>
<polygon fill="midnightblue" stroke="midnightblue" points="1118.06,-134.881 1127.5,-130.067 1117.12,-127.945 1118.06,-134.881"/>
</g>
<!-- Node17 -->
<g id="node17" class="node"><title>Node17</title>
<polygon fill="white" stroke="#bfbfbf" points="849,-112.5 849,-131.5 971,-131.5 971,-112.5 849,-112.5"/>
<text text-anchor="middle" x="910" y="-119.5" font-family="Helvetica,sans-Serif" font-size="10.00">pfasst/easylogging++.h</text>
</g>
<!-- Node5&#45;&gt;Node17 -->
<g id="edge20" class="edge"><title>Node5&#45;&gt;Node17</title>
<path fill="none" stroke="midnightblue" d="M728.226,-168.444C765.512,-159.122 825.269,-144.183 866.011,-133.997"/>
<polygon fill="midnightblue" stroke="midnightblue" points="867.082,-137.337 875.934,-131.516 865.384,-130.546 867.082,-137.337"/>
</g>
<!-- Node10&#45;&gt;Node7 -->
<g id="edge11" class="edge"><title>Node10&#45;&gt;Node7</title>
<path fill="none" stroke="midnightblue" d="M1128.25,-112.455C1085.44,-104.164 1018.83,-90.9564 952.099,-76.1826"/>
<polygon fill="midnightblue" stroke="midnightblue" points="952.777,-72.7479 942.256,-73.9919 951.256,-79.5807 952.777,-72.7479"/>
</g>
<!-- Node10&#45;&gt;Node8 -->
<g id="edge12" class="edge"><title>Node10&#45;&gt;Node8</title>
<path fill="none" stroke="midnightblue" d="M1127.12,-116.065C1026.15,-105.204 786.924,-79.4699 701.761,-70.3089"/>
<polygon fill="midnightblue" stroke="midnightblue" points="702.019,-66.8166 691.702,-69.2269 701.27,-73.7764 702.019,-66.8166"/>
</g>
<!-- Node11 -->
<g id="node11" class="node"><title>Node11</title>
<polygon fill="white" stroke="#bfbfbf" points="1222,-0.5 1222,-19.5 1272,-19.5 1272,-0.5 1222,-0.5"/>
<text text-anchor="middle" x="1247" y="-7.5" font-family="Helvetica,sans-Serif" font-size="10.00">fstream</text>
</g>
<!-- Node10&#45;&gt;Node11 -->
<g id="edge10" class="edge"><title>Node10&#45;&gt;Node11</title>
<path fill="none" stroke="midnightblue" d="M1193.88,-112.488C1209.02,-105.159 1228.61,-93.052 1239,-76 1247.41,-62.1959 1248.95,-43.674 1248.65,-29.9335"/>
<polygon fill="midnightblue" stroke="midnightblue" points="1252.13,-29.5135 1248.08,-19.7245 1245.14,-29.9043 1252.13,-29.5135"/>
</g>
<!-- Node12 -->
<g id="node12" class="node"><title>Node12</title>
<polygon fill="white" stroke="#bfbfbf" points="1286,-56.5 1286,-75.5 1322,-75.5 1322,-56.5 1286,-56.5"/>
<text text-anchor="middle" x="1304" y="-63.5" font-family="Helvetica,sans-Serif" font-size="10.00">map</text>
</g>
<!-- Node10&#45;&gt;Node12 -->
<g id="edge13" class="edge"><title>Node10&#45;&gt;Node12</title>
<path fill="none" stroke="midnightblue" d="M1193.76,-112.444C1216.08,-103.243 1251.68,-88.5691 1276.35,-78.3957"/>
<polygon fill="midnightblue" stroke="midnightblue" points="1277.96,-81.52 1285.87,-74.473 1275.29,-75.0483 1277.96,-81.52"/>
</g>
<!-- Node13 -->
<g id="node13" class="node"><title>Node13</title>
<polygon fill="white" stroke="#bfbfbf" points="960.5,-56.5 960.5,-75.5 1097.5,-75.5 1097.5,-56.5 960.5,-56.5"/>
<text text-anchor="middle" x="1029" y="-63.5" font-family="Helvetica,sans-Serif" font-size="10.00">boost/program_options.hpp</text>
</g>
<!-- Node10&#45;&gt;Node13 -->
<g id="edge14" class="edge"><title>Node10&#45;&gt;Node13</title>
<path fill="none" stroke="midnightblue" d="M1150.18,-112.444C1126.17,-103.438 1088.17,-89.1891 1061.13,-79.049"/>
<polygon fill="midnightblue" stroke="midnightblue" points="1062.3,-75.7506 1051.71,-75.5164 1059.84,-82.3049 1062.3,-75.7506"/>
</g>
<!-- Node14 -->
<g id="node14" class="node"><title>Node14</title>
<g id="a_node14"><a xlink:href="../../d5/d84/config__impl_8hpp.html" target="_top" xlink:title="pfasst/config_impl.hpp">
<polygon fill="white" stroke="black" points="1116,-56.5 1116,-75.5 1230,-75.5 1230,-56.5 1116,-56.5"/>
<text text-anchor="middle" x="1173" y="-63.5" font-family="Helvetica,sans-Serif" font-size="10.00">pfasst/config_impl.hpp</text>
</a>
</g>
</g>
<!-- Node10&#45;&gt;Node14 -->
<g id="edge15" class="edge"><title>Node10&#45;&gt;Node14</title>
<path fill="none" stroke="midnightblue" d="M1167.83,-112.083C1166.32,-104.927 1165.89,-94.6353 1166.54,-85.6911"/>
<polygon fill="midnightblue" stroke="midnightblue" points="1170.02,-86.1262 1167.87,-75.7511 1163.08,-85.2002 1170.02,-86.1262"/>
</g>
<!-- Node14&#45;&gt;Node10 -->
<g id="edge16" class="edge"><title>Node14&#45;&gt;Node10</title>
<path fill="none" stroke="midnightblue" d="M1178.13,-75.7511C1179.66,-82.8579 1180.1,-93.1357 1179.47,-102.101"/>
<polygon fill="midnightblue" stroke="midnightblue" points="1175.99,-101.713 1178.17,-112.083 1182.93,-102.622 1175.99,-101.713"/>
</g>
<!-- Node14&#45;&gt;Node11 -->
<g id="edge17" class="edge"><title>Node14&#45;&gt;Node11</title>
<path fill="none" stroke="midnightblue" d="M1184.89,-56.324C1196.15,-48.1066 1213.29,-35.6017 1226.71,-25.8069"/>
<polygon fill="midnightblue" stroke="midnightblue" points="1228.88,-28.5559 1234.89,-19.8339 1224.75,-22.9014 1228.88,-28.5559"/>
</g>
<!-- Node15 -->
<g id="node15" class="node"><title>Node15</title>
<polygon fill="white" stroke="#bfbfbf" points="1088.5,-0.5 1088.5,-19.5 1141.5,-19.5 1141.5,-0.5 1088.5,-0.5"/>
<text text-anchor="middle" x="1115" y="-7.5" font-family="Helvetica,sans-Serif" font-size="10.00">sstream</text>
</g>
<!-- Node14&#45;&gt;Node15 -->
<g id="edge18" class="edge"><title>Node14&#45;&gt;Node15</title>
<path fill="none" stroke="midnightblue" d="M1163.68,-56.324C1155.11,-48.3414 1142.19,-36.3128 1131.81,-26.6529"/>
<polygon fill="midnightblue" stroke="midnightblue" points="1134.19,-24.0865 1124.49,-19.8339 1129.42,-29.2098 1134.19,-24.0865"/>
</g>
<!-- Node16 -->
<g id="node16" class="node"><title>Node16</title>
<polygon fill="white" stroke="#bfbfbf" points="1160,-0.5 1160,-19.5 1198,-19.5 1198,-0.5 1160,-0.5"/>
<text text-anchor="middle" x="1179" y="-7.5" font-family="Helvetica,sans-Serif" font-size="10.00">utility</text>
</g>
<!-- Node14&#45;&gt;Node16 -->
<g id="edge19" class="edge"><title>Node14&#45;&gt;Node16</title>
<path fill="none" stroke="midnightblue" d="M1173.99,-56.083C1174.79,-48.9272 1175.93,-38.6353 1176.92,-29.6911"/>
<polygon fill="midnightblue" stroke="midnightblue" points="1180.4,-30.0765 1178.03,-19.7511 1173.44,-29.3034 1180.4,-30.0765"/>
</g>
<!-- Node18&#45;&gt;Node3 -->
<g id="edge22" class="edge"><title>Node18&#45;&gt;Node3</title>
<path fill="none" stroke="midnightblue" d="M301.484,-347.431C260.125,-340.038 209.848,-327.876 197,-311 171.501,-277.507 189.518,-224.606 201.934,-197.045"/>
<polygon fill="midnightblue" stroke="midnightblue" points="205.188,-198.351 206.315,-187.817 198.865,-195.349 205.188,-198.351"/>
</g>
<!-- Node18&#45;&gt;Node4 -->
<g id="edge23" class="edge"><title>Node18&#45;&gt;Node4</title>
<path fill="none" stroke="midnightblue" d="M376.73,-347.472C394.285,-338.494 422.659,-323.9 447,-311 487.658,-289.452 534.604,-263.81 562.49,-248.498"/>
<polygon fill="midnightblue" stroke="midnightblue" points="564.439,-251.42 571.517,-243.536 561.067,-245.286 564.439,-251.42"/>
</g>
<!-- Node19 -->
<g id="node19" class="node"><title>Node19</title>
<polygon fill="white" stroke="#bfbfbf" points="206.5,-286 206.5,-305 281.5,-305 281.5,-286 206.5,-286"/>
<text text-anchor="middle" x="244" y="-293" font-family="Helvetica,sans-Serif" font-size="10.00">Eigen/Dense</text>
</g>
<!-- Node18&#45;&gt;Node19 -->
<g id="edge24" class="edge"><title>Node18&#45;&gt;Node19</title>
<path fill="none" stroke="midnightblue" d="M343.38,-347.475C324.085,-337.578 292.041,-321.142 269.569,-309.615"/>
<polygon fill="midnightblue" stroke="midnightblue" points="271.084,-306.459 260.589,-305.009 267.89,-312.687 271.084,-306.459"/>
</g>
<!-- Node20 -->
<g id="node20" class="node"><title>Node20</title>
<g id="a_node20"><a xlink:href="../../d1/d1b/interfaces_8hpp.html" target="_top" xlink:title="interfaces for SDC/MLSDC/PFASST algorithms. ">
<polygon fill="white" stroke="black" points="42.5,-286 42.5,-305 149.5,-305 149.5,-286 42.5,-286"/>
<text text-anchor="middle" x="96" y="-293" font-family="Helvetica,sans-Serif" font-size="10.00">pfasst/interfaces.hpp</text>
</a>
</g>
</g>
<!-- Node18&#45;&gt;Node20 -->
<g id="edge25" class="edge"><title>Node18&#45;&gt;Node20</title>
<path fill="none" stroke="midnightblue" d="M322.175,-347.475C275.126,-336.871 194.768,-318.76 143.584,-307.224"/>
<polygon fill="midnightblue" stroke="midnightblue" points="144.279,-303.793 133.755,-305.009 142.74,-310.622 144.279,-303.793"/>
</g>
<!-- Node25 -->
<g id="node25" class="node"><title>Node25</title>
<g id="a_node25"><a xlink:href="../../d1/d99/encapsulation__impl_8hpp.html" target="_top" xlink:title="pfasst/encap/encapsulation\l_impl.hpp">
<polygon fill="white" stroke="black" points="299.5,-280.5 299.5,-310.5 438.5,-310.5 438.5,-280.5 299.5,-280.5"/>
<text text-anchor="start" x="307.5" y="-298.5" font-family="Helvetica,sans-Serif" font-size="10.00">pfasst/encap/encapsulation</text>
<text text-anchor="middle" x="369" y="-287.5" font-family="Helvetica,sans-Serif" font-size="10.00">_impl.hpp</text>
</a>
</g>
</g>
<!-- Node18&#45;&gt;Node25 -->
<g id="edge36" class="edge"><title>Node18&#45;&gt;Node25</title>
<path fill="none" stroke="midnightblue" d="M356.389,-347.475C355.916,-340.396 356.915,-329.97 358.754,-320.39"/>
<polygon fill="midnightblue" stroke="midnightblue" points="362.193,-321.056 361.049,-310.523 355.375,-319.47 362.193,-321.056"/>
</g>
<!-- Node20&#45;&gt;Node3 -->
<g id="edge26" class="edge"><title>Node20&#45;&gt;Node3</title>
<path fill="none" stroke="midnightblue" d="M104.644,-285.819C123.875,-266.504 170.44,-219.737 195.086,-194.983"/>
<polygon fill="midnightblue" stroke="midnightblue" points="197.681,-197.338 202.256,-187.782 192.72,-192.399 197.681,-197.338"/>
</g>
<!-- Node20&#45;&gt;Node8 -->
<g id="edge28" class="edge"><title>Node20&#45;&gt;Node8</title>
<path fill="none" stroke="midnightblue" d="M84.9577,-285.849C69.1271,-272.364 43.3198,-245.635 57,-224 88.0247,-174.935 119.933,-186.371 175,-168 345.779,-111.028 560.865,-80.5592 639.978,-70.6602"/>
<polygon fill="midnightblue" stroke="midnightblue" points="640.722,-74.095 650.219,-69.3993 639.867,-67.1475 640.722,-74.095"/>
</g>
<!-- Node21 -->
<g id="node21" class="node"><title>Node21</title>
<polygon fill="white" stroke="#bfbfbf" points="66,-224.5 66,-243.5 126,-243.5 126,-224.5 66,-224.5"/>
<text text-anchor="middle" x="96" y="-231.5" font-family="Helvetica,sans-Serif" font-size="10.00">stdexcept</text>
</g>
<!-- Node20&#45;&gt;Node21 -->
<g id="edge27" class="edge"><title>Node20&#45;&gt;Node21</title>
<path fill="none" stroke="midnightblue" d="M96,-285.975C96,-277.58 96,-264.481 96,-253.663"/>
<polygon fill="midnightblue" stroke="midnightblue" points="99.5001,-253.509 96,-243.509 92.5001,-253.509 99.5001,-253.509"/>
</g>
<!-- Node22 -->
<g id="node22" class="node"><title>Node22</title>
<g id="a_node22"><a xlink:href="../../d8/dc4/interfaces__impl_8hpp.html" target="_top" xlink:title="pfasst/interfaces_impl.hpp">
<polygon fill="white" stroke="black" points="296.5,-224.5 296.5,-243.5 427.5,-243.5 427.5,-224.5 296.5,-224.5"/>
<text text-anchor="middle" x="362" y="-231.5" font-family="Helvetica,sans-Serif" font-size="10.00">pfasst/interfaces_impl.hpp</text>
</a>
</g>
</g>
<!-- Node20&#45;&gt;Node22 -->
<g id="edge29" class="edge"><title>Node20&#45;&gt;Node22</title>
<path fill="none" stroke="midnightblue" d="M129.211,-285.975C174.398,-275.349 255.464,-257.185 309.059,-245.652"/>
<polygon fill="midnightblue" stroke="midnightblue" points="310.017,-249.027 319.062,-243.509 308.551,-242.182 310.017,-249.027"/>
</g>
<!-- Node22&#45;&gt;Node3 -->
<g id="edge32" class="edge"><title>Node22&#45;&gt;Node3</title>
<path fill="none" stroke="midnightblue" d="M338.074,-224.444C312.781,-215.399 272.698,-201.064 244.32,-190.916"/>
<polygon fill="midnightblue" stroke="midnightblue" points="245.409,-187.588 234.814,-187.516 243.052,-194.179 245.409,-187.588"/>
</g>
<!-- Node22&#45;&gt;Node5 -->
<g id="edge35" class="edge"><title>Node22&#45;&gt;Node5</title>
<path fill="none" stroke="midnightblue" d="M414.606,-224.444C474.534,-214.696 572.228,-198.806 634.779,-188.632"/>
<polygon fill="midnightblue" stroke="midnightblue" points="635.578,-192.048 644.887,-186.988 634.454,-185.139 635.578,-192.048"/>
</g>
<!-- Node22&#45;&gt;Node8 -->
<g id="edge33" class="edge"><title>Node22&#45;&gt;Node8</title>
<path fill="none" stroke="midnightblue" d="M367.364,-224.236C376.166,-210.512 394.918,-183.881 417,-168 488.576,-116.522 590.039,-86.5673 640.312,-74.0083"/>
<polygon fill="midnightblue" stroke="midnightblue" points="641.346,-77.3587 650.233,-71.5909 639.689,-70.5577 641.346,-77.3587"/>
</g>
<!-- Node22&#45;&gt;Node20 -->
<g id="edge30" class="edge"><title>Node22&#45;&gt;Node20</title>
<path fill="none" stroke="midnightblue" d="M328.857,-243.509C283.705,-254.128 202.643,-272.292 149.021,-283.83"/>
<polygon fill="midnightblue" stroke="midnightblue" points="148.057,-280.458 139.012,-285.975 149.523,-287.302 148.057,-280.458"/>
</g>
<!-- Node22&#45;&gt;Node23 -->
<g id="edge31" class="edge"><title>Node22&#45;&gt;Node23</title>
<path fill="none" stroke="midnightblue" d="M427.643,-228.326C503.374,-222.285 631.727,-210.055 750.821,-187.977"/>
<polygon fill="midnightblue" stroke="midnightblue" points="751.661,-191.38 760.841,-186.091 750.367,-184.501 751.661,-191.38"/>
</g>
<!-- Node22&#45;&gt;Node24 -->
<g id="edge34" class="edge"><title>Node22&#45;&gt;Node24</title>
<path fill="none" stroke="midnightblue" d="M379.905,-224.444C398.254,-215.675 427.005,-201.935 448.094,-191.858"/>
<polygon fill="midnightblue" stroke="midnightblue" points="449.665,-194.986 457.179,-187.516 446.647,-188.67 449.665,-194.986"/>
</g>
<!-- Node25&#45;&gt;Node18 -->
<g id="edge37" class="edge"><title>Node25&#45;&gt;Node18</title>
<path fill="none" stroke="midnightblue" d="M372.709,-310.523C372.53,-318.676 371.11,-329.041 369.025,-337.816"/>
<polygon fill="midnightblue" stroke="midnightblue" points="365.648,-336.894 366.19,-347.475 372.365,-338.866 365.648,-336.894"/>
</g>
<!-- Node25&#45;&gt;Node24 -->
<g id="edge38" class="edge"><title>Node25&#45;&gt;Node24</title>
<path fill="none" stroke="midnightblue" d="M391.878,-280.494C405.729,-271.273 423.14,-258.293 436,-244 448.766,-229.811 459.585,-210.837 466.565,-197.054"/>
<polygon fill="midnightblue" stroke="midnightblue" points="469.893,-198.214 471.124,-187.69 463.599,-195.149 469.893,-198.214"/>
</g>
<!-- Node26&#45;&gt;Node3 -->
<g id="edge40" class="edge"><title>Node26&#45;&gt;Node3</title>
<path fill="none" stroke="midnightblue" d="M676.56,-403.334C641.932,-379.639 540.798,-313.329 447,-280 364.367,-250.638 325.854,-292.812 253,-244 236.132,-232.698 224.543,-212.088 217.878,-197.098"/>
<polygon fill="midnightblue" stroke="midnightblue" points="221.093,-195.714 214.047,-187.802 214.621,-198.381 221.093,-195.714"/>
</g>
<!-- Node26&#45;&gt;Node4 -->
<g id="edge41" class="edge"><title>Node26&#45;&gt;Node4</title>
<path fill="none" stroke="midnightblue" d="M684.08,-403.463C668.299,-376.078 618.725,-290.052 597.173,-252.653"/>
<polygon fill="midnightblue" stroke="midnightblue" points="600.136,-250.785 592.111,-243.868 594.071,-254.28 600.136,-250.785"/>
</g>
<!-- Node26&#45;&gt;Node5 -->
<g id="edge42" class="edge"><title>Node26&#45;&gt;Node5</title>
<path fill="none" stroke="midnightblue" d="M689.184,-403.431C689.907,-369.754 692.562,-245.994 693.59,-198.102"/>
<polygon fill="midnightblue" stroke="midnightblue" points="697.094,-197.969 693.809,-187.896 690.095,-197.818 697.094,-197.969"/>
</g>
<!-- Node27 -->
<g id="node27" class="node"><title>Node27</title>
<g id="a_node27"><a xlink:href="../../d3/d35/particle__impl_8hpp.html" target="_top" xlink:title="particle_impl.hpp">
<polygon fill="white" stroke="black" points="717,-347.5 717,-366.5 807,-366.5 807,-347.5 717,-347.5"/>
<text text-anchor="middle" x="762" y="-354.5" font-family="Helvetica,sans-Serif" font-size="10.00">particle_impl.hpp</text>
</a>
</g>
</g>
<!-- Node26&#45;&gt;Node27 -->
<g id="edge43" class="edge"><title>Node26&#45;&gt;Node27</title>
<path fill="none" stroke="midnightblue" d="M695.614,-403.324C705.088,-394.979 722.038,-382.212 736.554,-372.352"/>
<polygon fill="midnightblue" stroke="midnightblue" points="738.771,-375.083 745.19,-366.655 734.916,-369.24 738.771,-375.083"/>
</g>
<!-- Node27&#45;&gt;Node6 -->
<g id="edge58" class="edge"><title>Node27&#45;&gt;Node6</title>
<path fill="none" stroke="midnightblue" d="M753.63,-347.309C731.31,-323.679 669.771,-255.491 636,-188 628.602,-173.214 623.598,-155.059 620.591,-141.698"/>
<polygon fill="midnightblue" stroke="midnightblue" points="623.991,-140.857 618.526,-131.781 617.138,-142.284 623.991,-140.857"/>
</g>
<!-- Node27&#45;&gt;Node23 -->
<g id="edge57" class="edge"><title>Node27&#45;&gt;Node23</title>
<path fill="none" stroke="midnightblue" d="M759.518,-347.467C757.043,-338.485 753.415,-323.888 752,-311 750.497,-297.304 749.773,-293.597 752,-280 756.918,-249.975 769.547,-216.848 777.952,-196.994"/>
<polygon fill="midnightblue" stroke="midnightblue" points="781.228,-198.236 782.004,-187.67 774.808,-195.446 781.228,-198.236"/>
</g>
<!-- Node27&#45;&gt;Node26 -->
<g id="edge44" class="edge"><title>Node27&#45;&gt;Node26</title>
<path fill="none" stroke="midnightblue" d="M755.207,-366.834C745.695,-375.184 728.859,-387.859 714.43,-397.658"/>
<polygon fill="midnightblue" stroke="midnightblue" points="712.263,-394.895 705.844,-403.324 716.118,-400.738 712.263,-394.895"/>
</g>
<!-- Node27&#45;&gt;Node28 -->
<g id="edge45" class="edge"><title>Node27&#45;&gt;Node28</title>
<path fill="none" stroke="midnightblue" d="M767.874,-347.475C773.963,-338.638 783.645,-324.589 791.303,-313.475"/>
<polygon fill="midnightblue" stroke="midnightblue" points="794.344,-315.229 797.137,-305.009 788.58,-311.258 794.344,-315.229"/>
</g>
<!-- Node28&#45;&gt;Node3 -->
<g id="edge46" class="edge"><title>Node28&#45;&gt;Node3</title>
<path fill="none" stroke="midnightblue" d="M760.757,-291.828C645.3,-284.319 330.168,-262.381 287,-244 261.661,-233.211 238.544,-210.836 224.624,-195.376"/>
<polygon fill="midnightblue" stroke="midnightblue" points="227.082,-192.868 217.881,-187.615 221.798,-197.46 227.082,-192.868"/>
</g>
<!-- Node28&#45;&gt;Node4 -->
<g id="edge47" class="edge"><title>Node28&#45;&gt;Node4</title>
<path fill="none" stroke="midnightblue" d="M772.052,-285.975C731.295,-274.748 659.99,-255.106 618.808,-243.762"/>
<polygon fill="midnightblue" stroke="midnightblue" points="619.594,-240.348 609.024,-241.067 617.735,-247.097 619.594,-240.348"/>
</g>
<!-- Node29 -->
<g id="node29" class="node"><title>Node29</title>
<g id="a_node29"><a xlink:href="../../d0/d00/particle__util__impl_8hpp.html" target="_top" xlink:title="particle_util_impl.hpp">
<polygon fill="white" stroke="black" points="877.5,-224.5 877.5,-243.5 984.5,-243.5 984.5,-224.5 877.5,-224.5"/>
<text text-anchor="middle" x="931" y="-231.5" font-family="Helvetica,sans-Serif" font-size="10.00">particle_util_impl.hpp</text>
</a>
</g>
</g>
<!-- Node28&#45;&gt;Node29 -->
<g id="edge48" class="edge"><title>Node28&#45;&gt;Node29</title>
<path fill="none" stroke="midnightblue" d="M816.439,-285.975C835.913,-275.901 871.92,-259.053 898.485,-247.502"/>
<polygon fill="midnightblue" stroke="midnightblue" points="899.986,-250.667 907.798,-243.509 897.228,-244.234 899.986,-250.667"/>
</g>
<!-- Node29&#45;&gt;Node5 -->
<g id="edge56" class="edge"><title>Node29&#45;&gt;Node5</title>
<path fill="none" stroke="midnightblue" d="M893.447,-224.444C852.189,-215.043 785.856,-199.929 741.134,-189.739"/>
<polygon fill="midnightblue" stroke="midnightblue" points="741.905,-186.326 731.378,-187.516 740.35,-193.151 741.905,-186.326"/>
</g>
<!-- Node29&#45;&gt;Node23 -->
<g id="edge51" class="edge"><title>Node29&#45;&gt;Node23</title>
<path fill="none" stroke="midnightblue" d="M908.024,-224.444C883.843,-215.438 845.582,-201.189 818.354,-191.049"/>
<polygon fill="midnightblue" stroke="midnightblue" points="819.461,-187.727 808.868,-187.516 817.018,-194.286 819.461,-187.727"/>
</g>
<!-- Node29&#45;&gt;Node24 -->
<g id="edge55" class="edge"><title>Node29&#45;&gt;Node24</title>
<path fill="none" stroke="midnightblue" d="M877.35,-226.647C791.207,-216.446 622.7,-196.491 533.546,-185.933"/>
<polygon fill="midnightblue" stroke="midnightblue" points="533.943,-182.456 523.601,-184.755 533.12,-189.407 533.943,-182.456"/>
</g>
<!-- Node29&#45;&gt;Node28 -->
<g id="edge49" class="edge"><title>Node29&#45;&gt;Node28</title>
<path fill="none" stroke="midnightblue" d="M917.592,-243.509C898.135,-253.576 862.132,-270.424 835.556,-281.98"/>
<polygon fill="midnightblue" stroke="midnightblue" points="834.051,-278.817 826.24,-285.975 836.81,-285.25 834.051,-278.817"/>
</g>
<!-- Node29&#45;&gt;Node30 -->
<g id="edge50" class="edge"><title>Node29&#45;&gt;Node30</title>
<path fill="none" stroke="midnightblue" d="M942.086,-224.324C952.486,-216.185 968.261,-203.839 980.722,-194.087"/>
<polygon fill="midnightblue" stroke="midnightblue" points="982.994,-196.753 988.712,-187.834 978.68,-191.241 982.994,-196.753"/>
</g>
<!-- Node31 -->
<g id="node31" class="node"><title>Node31</title>
<polygon fill="white" stroke="#bfbfbf" points="909,-168.5 909,-187.5 953,-187.5 953,-168.5 909,-168.5"/>
<text text-anchor="middle" x="931" y="-175.5" font-family="Helvetica,sans-Serif" font-size="10.00">cmath</text>
</g>
<!-- Node29&#45;&gt;Node31 -->
<g id="edge52" class="edge"><title>Node29&#45;&gt;Node31</title>
<path fill="none" stroke="midnightblue" d="M931,-224.083C931,-217.006 931,-206.861 931,-197.986"/>
<polygon fill="midnightblue" stroke="midnightblue" points="934.5,-197.751 931,-187.751 927.5,-197.751 934.5,-197.751"/>
</g>
<!-- Node29&#45;&gt;Node32 -->
<g id="edge53" class="edge"><title>Node29&#45;&gt;Node32</title>
<path fill="none" stroke="midnightblue" d="M954.134,-224.444C978.482,-215.438 1017.01,-201.189 1044.42,-191.049"/>
<polygon fill="midnightblue" stroke="midnightblue" points="1045.81,-194.268 1053.97,-187.516 1043.38,-187.703 1045.81,-194.268"/>
</g>
<!-- Node33 -->
<g id="node33" class="node"><title>Node33</title>
<polygon fill="white" stroke="#bfbfbf" points="829,-168.5 829,-187.5 891,-187.5 891,-168.5 829,-168.5"/>
<text text-anchor="middle" x="860" y="-175.5" font-family="Helvetica,sans-Serif" font-size="10.00">type_traits</text>
</g>
<!-- Node29&#45;&gt;Node33 -->
<g id="edge54" class="edge"><title>Node29&#45;&gt;Node33</title>
<path fill="none" stroke="midnightblue" d="M919.593,-224.324C908.891,-216.185 892.659,-203.839 879.837,-194.087"/>
<polygon fill="midnightblue" stroke="midnightblue" points="881.693,-191.102 871.615,-187.834 877.456,-196.673 881.693,-191.102"/>
</g>
</g>
</svg>
        <g id="navigator" transform="translate(0 0)" fill="#404254">
                <rect fill="#f2f5e9" fill-opacity="0.5" stroke="#606060" stroke-width=".5" x="0" y="0" width="60" height="60"/>
                <use id="zoomplus" xlink:href="#zoomPlus" x="17" y="9" onmousedown="handleZoom(evt,'in')"/>
                <use id="zoomminus" xlink:href="#zoomMin" x="42" y="9" onmousedown="handleZoom(evt,'out')"/>
                <use id="reset" xlink:href="#resetDef" x="30" y="36" onmousedown="handleReset()"/>
                <g id="arrowUp" xlink:href="#dirArrow" transform="translate(30 24)" onmousedown="handlePan(0,-1)">
                  <use xlink:href="#rim" fill="#404040">
                        <set attributeName="fill" to="#808080" begin="arrowUp.mouseover" end="arrowUp.mouseout"/>
                  </use>
                  <path fill="none" stroke="white" stroke-width="1.5" d="M0,-3.0v7 M-2.5,-0.5L0,-3.0L2.5,-0.5"/>
                </g>
                <g id="arrowRight" xlink:href="#dirArrow" transform="rotate(90) translate(36 -43)" onmousedown="handlePan(1,0)">
                  <use xlink:href="#rim" fill="#404040">
                        <set attributeName="fill" to="#808080" begin="arrowRight.mouseover" end="arrowRight.mouseout"/>
                  </use>
                  <path fill="none" stroke="white" stroke-width="1.5" d="M0,-3.0v7 M-2.5,-0.5L0,-3.0L2.5,-0.5"/>
                </g>
                <g id="arrowDown" xlink:href="#dirArrow" transform="rotate(180) translate(-30 -48)" onmousedown="handlePan(0,1)">
                  <use xlink:href="#rim" fill="#404040">
                        <set attributeName="fill" to="#808080" begin="arrowDown.mouseover" end="arrowDown.mouseout"/>
                  </use>
                  <path fill="none" stroke="white" stroke-width="1.5" d="M0,-3.0v7 M-2.5,-0.5L0,-3.0L2.5,-0.5"/>
                </g>
                <g id="arrowLeft" xlink:href="#dirArrow" transform="rotate(270) translate(-36 17)" onmousedown="handlePan(-1,0)">
                  <use xlink:href="#rim" fill="#404040">
                        <set attributeName="fill" to="#808080" begin="arrowLeft.mouseover" end="arrowLeft.mouseout"/>
                  </use>
                  <path fill="none" stroke="white" stroke-width="1.5" d="M0,-3.0v7 M-2.5,-0.5L0,-3.0L2.5,-0.5"/>
                </g>
        </g>
        <svg viewBox="0 0 15 15" width="100%" height="30px" preserveAspectRatio="xMaxYMin meet">
         <g id="arrow_out" transform="scale(0.3 0.3)">
          <a xlink:href="particle__cloud__impl_8hpp__incl_org.svg" target="_base">
           <rect id="button" ry="5" rx="5" y="6" x="6" height="38" width="38"
                fill="#f2f5e9" fill-opacity="0.5" stroke="#606060" stroke-width="1.0"/>
           <path id="arrow"
             d="M 11.500037,31.436501 C 11.940474,20.09759 22.043105,11.32322 32.158766,21.979434 L 37.068811,17.246167 C 37.068811,17.246167 37.088388,32 37.088388,32 L 22.160133,31.978069 C 22.160133,31.978069 26.997745,27.140456 26.997745,27.140456 C 18.528582,18.264221 13.291696,25.230495 11.500037,31.436501 z"
             style="fill:#404040;"/>
          </a>
         </g>
        </svg>
</svg>
