<?xml version="1.0" encoding="UTF-8" standalone="no"?>
<!DOCTYPE svg PUBLIC "-//W3C//DTD SVG 1.1//EN"
 "http://www.w3.org/Graphics/SVG/1.1/DTD/svg11.dtd">
<!-- Generated by graphviz version 2.38.0 (20140413.2041)
 -->
<!-- Title: examples/boris/particle_impl.hpp Pages: 1 -->
<svg width="902pt" height="375pt"
 viewBox="0.00 0.00 902.18 375.00" xmlns="http://www.w3.org/2000/svg" xmlns:xlink="http://www.w3.org/1999/xlink">
<g id="graph0" class="graph" transform="scale(1 1) rotate(0) translate(4 371)">
<title>examples/boris/particle_impl.hpp</title>
<polygon fill="white" stroke="none" points="-4,4 -4,-371 898.184,-371 898.184,4 -4,4"/>
<!-- Node1 -->
<g id="node1" class="node"><title>Node1</title>
<polygon fill="#bfbfbf" stroke="black" points="567,-336.5 567,-366.5 688,-366.5 688,-336.5 567,-336.5"/>
<text text-anchor="start" x="575" y="-354.5" font-family="Helvetica,sans-Serif" font-size="10.00">examples/boris/particle</text>
<text text-anchor="middle" x="627.5" y="-343.5" font-family="Helvetica,sans-Serif" font-size="10.00">_impl.hpp</text>
</g>
<!-- Node2 -->
<g id="node2" class="node"><title>Node2</title>
<g id="a_node2"><a xlink:href="../../d4/dec/particle_8hpp.html" target="_top" xlink:title="particle.hpp">
<polygon fill="white" stroke="black" points="500,-280.5 500,-299.5 567,-299.5 567,-280.5 500,-280.5"/>
<text text-anchor="middle" x="533.5" y="-287.5" font-family="Helvetica,sans-Serif" font-size="10.00">particle.hpp</text>
</a>
</g>
</g>
<!-- Node1&#45;&gt;Node2 -->
<g id="edge1" class="edge"><title>Node1&#45;&gt;Node2</title>
<path fill="none" stroke="midnightblue" d="M599.383,-336.399C583.548,-327.129 564.403,-315.025 550.731,-305.647"/>
<polygon fill="midnightblue" stroke="midnightblue" points="552.436,-302.566 542.248,-299.658 548.399,-308.285 552.436,-302.566"/>
</g>
<!-- Node6 -->
<g id="node6" class="node"><title>Node6</title>
<polygon fill="white" stroke="#bfbfbf" points="749.5,-112.5 749.5,-131.5 801.5,-131.5 801.5,-112.5 749.5,-112.5"/>
<text text-anchor="middle" x="775.5" y="-119.5" font-family="Helvetica,sans-Serif" font-size="10.00">iomanip</text>
</g>
<!-- Node1&#45;&gt;Node6 -->
<g id="edge35" class="edge"><title>Node1&#45;&gt;Node6</title>
<path fill="none" stroke="midnightblue" d="M677.874,-336.418C741.074,-315.689 846.497,-270.221 890.5,-188 908.917,-153.588 852.024,-136.203 811.812,-128.415"/>
<polygon fill="midnightblue" stroke="midnightblue" points="812.214,-124.931 801.75,-126.594 810.967,-131.819 812.214,-124.931"/>
</g>
<!-- Node18 -->
<g id="node18" class="node"><title>Node18</title>
<g id="a_node18"><a xlink:href="../../db/de5/particle__util_8hpp.html" target="_top" xlink:title="particle_util.hpp">
<polygon fill="white" stroke="black" points="585.5,-280.5 585.5,-299.5 669.5,-299.5 669.5,-280.5 585.5,-280.5"/>
<text text-anchor="middle" x="627.5" y="-287.5" font-family="Helvetica,sans-Serif" font-size="10.00">particle_util.hpp</text>
</a>
</g>
</g>
<!-- Node1&#45;&gt;Node18 -->
<g id="edge22" class="edge"><title>Node1&#45;&gt;Node18</title>
<path fill="none" stroke="midnightblue" d="M627.5,-336.399C627.5,-328.466 627.5,-318.458 627.5,-309.858"/>
<polygon fill="midnightblue" stroke="midnightblue" points="631,-309.658 627.5,-299.658 624,-309.658 631,-309.658"/>
</g>
<!-- Node21 -->
<g id="node21" class="node"><title>Node21</title>
<polygon fill="white" stroke="#bfbfbf" points="831.5,-168.5 831.5,-187.5 881.5,-187.5 881.5,-168.5 831.5,-168.5"/>
<text text-anchor="middle" x="856.5" y="-175.5" font-family="Helvetica,sans-Serif" font-size="10.00">cassert</text>
</g>
<!-- Node1&#45;&gt;Node21 -->
<g id="edge34" class="edge"><title>Node1&#45;&gt;Node21</title>
<path fill="none" stroke="midnightblue" d="M646.24,-336.465C689.012,-304.433 793.482,-226.195 836.987,-193.613"/>
<polygon fill="midnightblue" stroke="midnightblue" points="839.164,-196.356 845.07,-187.56 834.968,-190.753 839.164,-196.356"/>
</g>
<!-- Node2&#45;&gt;Node1 -->
<g id="edge21" class="edge"><title>Node2&#45;&gt;Node1</title>
<path fill="none" stroke="midnightblue" d="M552.107,-299.658C566.692,-307.783 586.848,-320.231 602.737,-330.776"/>
<polygon fill="midnightblue" stroke="midnightblue" points="600.817,-333.703 611.063,-336.399 604.735,-327.902 600.817,-333.703"/>
</g>
<!-- Node3 -->
<g id="node3" class="node"><title>Node3</title>
<polygon fill="white" stroke="#bfbfbf" points="441,-224.5 441,-243.5 494,-243.5 494,-224.5 441,-224.5"/>
<text text-anchor="middle" x="467.5" y="-231.5" font-family="Helvetica,sans-Serif" font-size="10.00">memory</text>
</g>
<!-- Node2&#45;&gt;Node3 -->
<g id="edge2" class="edge"><title>Node2&#45;&gt;Node3</title>
<path fill="none" stroke="midnightblue" d="M522.896,-280.324C513.044,-272.263 498.149,-260.077 486.285,-250.369"/>
<polygon fill="midnightblue" stroke="midnightblue" points="488.253,-247.457 478.297,-243.834 483.82,-252.875 488.253,-247.457"/>
</g>
<!-- Node4 -->
<g id="node4" class="node"><title>Node4</title>
<polygon fill="white" stroke="#bfbfbf" points="512.5,-224.5 512.5,-243.5 556.5,-243.5 556.5,-224.5 512.5,-224.5"/>
<text text-anchor="middle" x="534.5" y="-231.5" font-family="Helvetica,sans-Serif" font-size="10.00">vector</text>
</g>
<!-- Node2&#45;&gt;Node4 -->
<g id="edge3" class="edge"><title>Node2&#45;&gt;Node4</title>
<path fill="none" stroke="midnightblue" d="M533.665,-280.083C533.796,-273.006 533.984,-262.861 534.148,-253.986"/>
<polygon fill="midnightblue" stroke="midnightblue" points="537.652,-253.814 534.338,-243.751 530.653,-253.685 537.652,-253.814"/>
</g>
<!-- Node5 -->
<g id="node5" class="node"><title>Node5</title>
<g id="a_node5"><a xlink:href="../../d0/da9/logging_8hpp.html" target="_top" xlink:title="pfasst/logging.hpp">
<polygon fill="white" stroke="black" points="304.5,-168.5 304.5,-187.5 402.5,-187.5 402.5,-168.5 304.5,-168.5"/>
<text text-anchor="middle" x="353.5" y="-175.5" font-family="Helvetica,sans-Serif" font-size="10.00">pfasst/logging.hpp</text>
</a>
</g>
</g>
<!-- Node2&#45;&gt;Node5 -->
<g id="edge4" class="edge"><title>Node2&#45;&gt;Node5</title>
<path fill="none" stroke="midnightblue" d="M509.055,-280.431C487.773,-272.462 456.502,-259.505 431.5,-244 408.496,-229.734 385.024,-209.194 369.922,-195.041"/>
<polygon fill="midnightblue" stroke="midnightblue" points="372.103,-192.284 362.45,-187.915 367.272,-197.349 372.103,-192.284"/>
</g>
<!-- Node5&#45;&gt;Node6 -->
<g id="edge5" class="edge"><title>Node5&#45;&gt;Node6</title>
<path fill="none" stroke="midnightblue" d="M402.532,-169.282C405.565,-168.839 408.573,-168.408 411.5,-168 531.279,-151.307 673.682,-134.614 739.21,-127.11"/>
<polygon fill="midnightblue" stroke="midnightblue" points="739.884,-130.555 749.423,-125.943 739.09,-123.601 739.884,-130.555"/>
</g>
<!-- Node7 -->
<g id="node7" class="node"><title>Node7</title>
<polygon fill="white" stroke="#bfbfbf" points="498.5,-56.5 498.5,-75.5 554.5,-75.5 554.5,-56.5 498.5,-56.5"/>
<text text-anchor="middle" x="526.5" y="-63.5" font-family="Helvetica,sans-Serif" font-size="10.00">iostream</text>
</g>
<!-- Node5&#45;&gt;Node7 -->
<g id="edge6" class="edge"><title>Node5&#45;&gt;Node7</title>
<path fill="none" stroke="midnightblue" d="M401.816,-168.471C463.573,-157.339 563.21,-138.512 568.5,-132 581.557,-115.927 563.666,-95.6457 547.361,-82.0503"/>
<polygon fill="midnightblue" stroke="midnightblue" points="549.178,-79.0277 539.151,-75.6079 544.857,-84.5347 549.178,-79.0277"/>
</g>
<!-- Node8 -->
<g id="node8" class="node"><title>Node8</title>
<polygon fill="white" stroke="#bfbfbf" points="0,-56.5 0,-75.5 41,-75.5 41,-56.5 0,-56.5"/>
<text text-anchor="middle" x="20.5" y="-63.5" font-family="Helvetica,sans-Serif" font-size="10.00">string</text>
</g>
<!-- Node5&#45;&gt;Node8 -->
<g id="edge7" class="edge"><title>Node5&#45;&gt;Node8</title>
<path fill="none" stroke="midnightblue" d="M309.4,-168.438C271.743,-160.602 216.393,-147.832 169.5,-132 125.296,-117.076 76.0495,-94.3216 46.7055,-80.0731"/>
<polygon fill="midnightblue" stroke="midnightblue" points="48.0734,-76.8459 37.5532,-75.5907 44.9945,-83.1324 48.0734,-76.8459"/>
</g>
<!-- Node9 -->
<g id="node9" class="node"><title>Node9</title>
<polygon fill="white" stroke="#bfbfbf" points="288,-112.5 288,-131.5 419,-131.5 419,-112.5 288,-112.5"/>
<text text-anchor="middle" x="353.5" y="-119.5" font-family="Helvetica,sans-Serif" font-size="10.00">boost/algorithm/string.hpp</text>
</g>
<!-- Node5&#45;&gt;Node9 -->
<g id="edge8" class="edge"><title>Node5&#45;&gt;Node9</title>
<path fill="none" stroke="midnightblue" d="M353.5,-168.083C353.5,-161.006 353.5,-150.861 353.5,-141.986"/>
<polygon fill="midnightblue" stroke="midnightblue" points="357,-141.751 353.5,-131.751 350,-141.751 357,-141.751"/>
</g>
<!-- Node10 -->
<g id="node10" class="node"><title>Node10</title>
<g id="a_node10"><a xlink:href="../../d8/dfd/config_8hpp.html" target="_top" xlink:title="pfasst/config.hpp">
<polygon fill="white" stroke="black" points="179,-112.5 179,-131.5 270,-131.5 270,-112.5 179,-112.5"/>
<text text-anchor="middle" x="224.5" y="-119.5" font-family="Helvetica,sans-Serif" font-size="10.00">pfasst/config.hpp</text>
</a>
</g>
</g>
<!-- Node5&#45;&gt;Node10 -->
<g id="edge9" class="edge"><title>Node5&#45;&gt;Node10</title>
<path fill="none" stroke="midnightblue" d="M333.06,-168.444C311.83,-159.557 278.401,-145.563 254.245,-135.451"/>
<polygon fill="midnightblue" stroke="midnightblue" points="255.421,-132.149 244.845,-131.516 252.718,-138.606 255.421,-132.149"/>
</g>
<!-- Node17 -->
<g id="node17" class="node"><title>Node17</title>
<polygon fill="white" stroke="#bfbfbf" points="437.5,-112.5 437.5,-131.5 559.5,-131.5 559.5,-112.5 437.5,-112.5"/>
<text text-anchor="middle" x="498.5" y="-119.5" font-family="Helvetica,sans-Serif" font-size="10.00">pfasst/easylogging++.h</text>
</g>
<!-- Node5&#45;&gt;Node17 -->
<g id="edge20" class="edge"><title>Node5&#45;&gt;Node17</title>
<path fill="none" stroke="midnightblue" d="M376.476,-168.444C400.657,-159.438 438.918,-145.189 466.146,-135.049"/>
<polygon fill="midnightblue" stroke="midnightblue" points="467.482,-138.286 475.632,-131.516 465.039,-131.727 467.482,-138.286"/>
</g>
<!-- Node10&#45;&gt;Node7 -->
<g id="edge11" class="edge"><title>Node10&#45;&gt;Node7</title>
<path fill="none" stroke="midnightblue" d="M270.039,-112.857C329.483,-102.228 432.479,-83.8117 488.144,-73.8584"/>
<polygon fill="midnightblue" stroke="midnightblue" points="489.064,-77.2494 498.292,-72.0438 487.832,-70.3587 489.064,-77.2494"/>
</g>
<!-- Node10&#45;&gt;Node8 -->
<g id="edge12" class="edge"><title>Node10&#45;&gt;Node8</title>
<path fill="none" stroke="midnightblue" d="M189.168,-112.457C155.801,-104.269 104.14,-91.2847 50.9944,-76.3314"/>
<polygon fill="midnightblue" stroke="midnightblue" points="51.6332,-72.8747 41.0578,-73.517 49.7256,-79.6098 51.6332,-72.8747"/>
</g>
<!-- Node11 -->
<g id="node11" class="node"><title>Node11</title>
<polygon fill="white" stroke="#bfbfbf" points="206.5,-0.5 206.5,-19.5 256.5,-19.5 256.5,-0.5 206.5,-0.5"/>
<text text-anchor="middle" x="231.5" y="-7.5" font-family="Helvetica,sans-Serif" font-size="10.00">fstream</text>
</g>
<!-- Node10&#45;&gt;Node11 -->
<g id="edge10" class="edge"><title>Node10&#45;&gt;Node11</title>
<path fill="none" stroke="midnightblue" d="M225.049,-112.368C226.179,-94.617 228.785,-53.6664 230.317,-29.5974"/>
<polygon fill="midnightblue" stroke="midnightblue" points="233.811,-29.7935 230.953,-19.5914 226.825,-29.3489 233.811,-29.7935"/>
</g>
<!-- Node12 -->
<g id="node12" class="node"><title>Node12</title>
<polygon fill="white" stroke="#bfbfbf" points="384.5,-56.5 384.5,-75.5 420.5,-75.5 420.5,-56.5 384.5,-56.5"/>
<text text-anchor="middle" x="402.5" y="-63.5" font-family="Helvetica,sans-Serif" font-size="10.00">map</text>
</g>
<!-- Node10&#45;&gt;Node12 -->
<g id="edge13" class="edge"><title>Node10&#45;&gt;Node12</title>
<path fill="none" stroke="midnightblue" d="M254.098,-112.484C282.639,-104.206 327.274,-91.0851 374.445,-76.2656"/>
<polygon fill="midnightblue" stroke="midnightblue" points="375.743,-79.5264 384.226,-73.1796 373.636,-72.8508 375.743,-79.5264"/>
</g>
<!-- Node13 -->
<g id="node13" class="node"><title>Node13</title>
<polygon fill="white" stroke="#bfbfbf" points="59,-56.5 59,-75.5 196,-75.5 196,-56.5 59,-56.5"/>
<text text-anchor="middle" x="127.5" y="-63.5" font-family="Helvetica,sans-Serif" font-size="10.00">boost/program_options.hpp</text>
</g>
<!-- Node10&#45;&gt;Node13 -->
<g id="edge14" class="edge"><title>Node10&#45;&gt;Node13</title>
<path fill="none" stroke="midnightblue" d="M208.915,-112.324C193.501,-103.743 169.688,-90.486 151.79,-80.5224"/>
<polygon fill="midnightblue" stroke="midnightblue" points="153.486,-77.4606 143.046,-75.6545 150.081,-83.5767 153.486,-77.4606"/>
</g>
<!-- Node14 -->
<g id="node14" class="node"><title>Node14</title>
<g id="a_node14"><a xlink:href="../../d5/d84/config__impl_8hpp.html" target="_top" xlink:title="pfasst/config_impl.hpp">
<polygon fill="white" stroke="black" points="252.5,-56.5 252.5,-75.5 366.5,-75.5 366.5,-56.5 252.5,-56.5"/>
<text text-anchor="middle" x="309.5" y="-63.5" font-family="Helvetica,sans-Serif" font-size="10.00">pfasst/config_impl.hpp</text>
</a>
</g>
</g>
<!-- Node10&#45;&gt;Node14 -->
<g id="edge15" class="edge"><title>Node10&#45;&gt;Node14</title>
<path fill="none" stroke="midnightblue" d="M233.042,-112.324C244.585,-103.822 264.907,-90.7288 281.807,-80.7975"/>
<polygon fill="midnightblue" stroke="midnightblue" points="283.837,-83.6683 290.767,-75.6545 280.352,-77.5974 283.837,-83.6683"/>
</g>
<!-- Node14&#45;&gt;Node10 -->
<g id="edge16" class="edge"><title>Node14&#45;&gt;Node10</title>
<path fill="none" stroke="midnightblue" d="M300.744,-75.8339C289.162,-84.342 268.979,-97.339 252.18,-107.21"/>
<polygon fill="midnightblue" stroke="midnightblue" points="250.202,-104.31 243.272,-112.324 253.687,-110.381 250.202,-104.31"/>
</g>
<!-- Node14&#45;&gt;Node11 -->
<g id="edge17" class="edge"><title>Node14&#45;&gt;Node11</title>
<path fill="none" stroke="midnightblue" d="M296.968,-56.324C284.914,-47.979 266.473,-35.2122 252.231,-25.3524"/>
<polygon fill="midnightblue" stroke="midnightblue" points="254.215,-22.469 244.001,-19.6545 250.231,-28.2243 254.215,-22.469"/>
</g>
<!-- Node15 -->
<g id="node15" class="node"><title>Node15</title>
<polygon fill="white" stroke="#bfbfbf" points="279,-0.5 279,-19.5 332,-19.5 332,-0.5 279,-0.5"/>
<text text-anchor="middle" x="305.5" y="-7.5" font-family="Helvetica,sans-Serif" font-size="10.00">sstream</text>
</g>
<!-- Node14&#45;&gt;Node15 -->
<g id="edge18" class="edge"><title>Node14&#45;&gt;Node15</title>
<path fill="none" stroke="midnightblue" d="M308.839,-56.083C308.315,-49.0059 307.564,-38.8611 306.906,-29.9865"/>
<polygon fill="midnightblue" stroke="midnightblue" points="310.377,-29.4652 306.148,-19.7511 303.397,-29.9823 310.377,-29.4652"/>
</g>
<!-- Node16 -->
<g id="node16" class="node"><title>Node16</title>
<polygon fill="white" stroke="#bfbfbf" points="350.5,-0.5 350.5,-19.5 388.5,-19.5 388.5,-0.5 350.5,-0.5"/>
<text text-anchor="middle" x="369.5" y="-7.5" font-family="Helvetica,sans-Serif" font-size="10.00">utility</text>
</g>
<!-- Node14&#45;&gt;Node16 -->
<g id="edge19" class="edge"><title>Node14&#45;&gt;Node16</title>
<path fill="none" stroke="midnightblue" d="M319.14,-56.324C328.01,-48.3414 341.375,-36.3128 352.108,-26.6529"/>
<polygon fill="midnightblue" stroke="midnightblue" points="354.593,-29.1251 359.685,-19.8339 349.91,-23.922 354.593,-29.1251"/>
</g>
<!-- Node18&#45;&gt;Node3 -->
<g id="edge23" class="edge"><title>Node18&#45;&gt;Node3</title>
<path fill="none" stroke="midnightblue" d="M602.148,-280.444C575.231,-271.359 532.504,-256.939 502.413,-246.783"/>
<polygon fill="midnightblue" stroke="midnightblue" points="503.328,-243.398 492.734,-243.516 501.09,-250.031 503.328,-243.398"/>
</g>
<!-- Node18&#45;&gt;Node4 -->
<g id="edge24" class="edge"><title>Node18&#45;&gt;Node4</title>
<path fill="none" stroke="midnightblue" d="M612.558,-280.324C597.915,-271.822 575.366,-258.729 558.262,-248.797"/>
<polygon fill="midnightblue" stroke="midnightblue" points="559.81,-245.649 549.405,-243.655 556.295,-251.703 559.81,-245.649"/>
</g>
<!-- Node19 -->
<g id="node19" class="node"><title>Node19</title>
<g id="a_node19"><a xlink:href="../../d0/d00/particle__util__impl_8hpp.html" target="_top" xlink:title="particle_util_impl.hpp">
<polygon fill="white" stroke="black" points="574,-224.5 574,-243.5 681,-243.5 681,-224.5 574,-224.5"/>
<text text-anchor="middle" x="627.5" y="-231.5" font-family="Helvetica,sans-Serif" font-size="10.00">particle_util_impl.hpp</text>
</a>
</g>
</g>
<!-- Node18&#45;&gt;Node19 -->
<g id="edge25" class="edge"><title>Node18&#45;&gt;Node19</title>
<path fill="none" stroke="midnightblue" d="M622.334,-280.083C620.824,-272.927 620.394,-262.635 621.042,-253.691"/>
<polygon fill="midnightblue" stroke="midnightblue" points="624.515,-254.126 622.369,-243.751 617.577,-253.2 624.515,-254.126"/>
</g>
<!-- Node19&#45;&gt;Node5 -->
<g id="edge33" class="edge"><title>Node19&#45;&gt;Node5</title>
<path fill="none" stroke="midnightblue" d="M584.084,-224.444C535.985,-214.964 458.405,-199.675 406.694,-189.483"/>
<polygon fill="midnightblue" stroke="midnightblue" points="407.201,-186.016 396.713,-187.516 405.847,-192.884 407.201,-186.016"/>
</g>
<!-- Node19&#45;&gt;Node18 -->
<g id="edge26" class="edge"><title>Node19&#45;&gt;Node18</title>
<path fill="none" stroke="midnightblue" d="M632.631,-243.751C634.157,-250.858 634.604,-261.136 633.972,-270.101"/>
<polygon fill="midnightblue" stroke="midnightblue" points="630.493,-269.713 632.666,-280.083 637.434,-270.622 630.493,-269.713"/>
</g>
<!-- Node20 -->
<g id="node20" class="node"><title>Node20</title>
<polygon fill="white" stroke="#bfbfbf" points="420.5,-168.5 420.5,-187.5 478.5,-187.5 478.5,-168.5 420.5,-168.5"/>
<text text-anchor="middle" x="449.5" y="-175.5" font-family="Helvetica,sans-Serif" font-size="10.00">algorithm</text>
</g>
<!-- Node19&#45;&gt;Node20 -->
<g id="edge27" class="edge"><title>Node19&#45;&gt;Node20</title>
<path fill="none" stroke="midnightblue" d="M599.295,-224.444C569.09,-215.28 520.989,-200.688 487.471,-190.519"/>
<polygon fill="midnightblue" stroke="midnightblue" points="488.158,-187.07 477.573,-187.516 486.126,-193.769 488.158,-187.07"/>
</g>
<!-- Node19&#45;&gt;Node21 -->
<g id="edge28" class="edge"><title>Node19&#45;&gt;Node21</title>
<path fill="none" stroke="midnightblue" d="M665.48,-224.471C704.637,-215.611 767.428,-201.221 821.5,-188 821.599,-187.976 821.698,-187.952 821.798,-187.927"/>
<polygon fill="midnightblue" stroke="midnightblue" points="822.428,-191.377 831.283,-185.561 820.733,-184.586 822.428,-191.377"/>
</g>
<!-- Node22 -->
<g id="node22" class="node"><title>Node22</title>
<polygon fill="white" stroke="#bfbfbf" points="496.5,-168.5 496.5,-187.5 540.5,-187.5 540.5,-168.5 496.5,-168.5"/>
<text text-anchor="middle" x="518.5" y="-175.5" font-family="Helvetica,sans-Serif" font-size="10.00">cmath</text>
</g>
<!-- Node19&#45;&gt;Node22 -->
<g id="edge29" class="edge"><title>Node19&#45;&gt;Node22</title>
<path fill="none" stroke="midnightblue" d="M609.987,-224.324C592.428,-215.625 565.169,-202.12 544.969,-192.113"/>
<polygon fill="midnightblue" stroke="midnightblue" points="546.484,-188.958 535.969,-187.655 543.376,-195.23 546.484,-188.958"/>
</g>
<!-- Node23 -->
<g id="node23" class="node"><title>Node23</title>
<polygon fill="white" stroke="#bfbfbf" points="559,-168.5 559,-187.5 618,-187.5 618,-168.5 559,-168.5"/>
<text text-anchor="middle" x="588.5" y="-175.5" font-family="Helvetica,sans-Serif" font-size="10.00">functional</text>
</g>
<!-- Node19&#45;&gt;Node23 -->
<g id="edge30" class="edge"><title>Node19&#45;&gt;Node23</title>
<path fill="none" stroke="midnightblue" d="M621.06,-224.083C615.551,-216.455 607.469,-205.264 600.735,-195.941"/>
<polygon fill="midnightblue" stroke="midnightblue" points="603.513,-193.809 594.82,-187.751 597.838,-197.907 603.513,-193.809"/>
</g>
<!-- Node24 -->
<g id="node24" class="node"><title>Node24</title>
<polygon fill="white" stroke="#bfbfbf" points="636.5,-168.5 636.5,-187.5 698.5,-187.5 698.5,-168.5 636.5,-168.5"/>
<text text-anchor="middle" x="667.5" y="-175.5" font-family="Helvetica,sans-Serif" font-size="10.00">type_traits</text>
</g>
<!-- Node19&#45;&gt;Node24 -->
<g id="edge31" class="edge"><title>Node19&#45;&gt;Node24</title>
<path fill="none" stroke="midnightblue" d="M634.105,-224.083C639.755,-216.455 648.045,-205.264 654.951,-195.941"/>
<polygon fill="midnightblue" stroke="midnightblue" points="657.878,-197.87 661.018,-187.751 652.253,-193.703 657.878,-197.87"/>
</g>
<!-- Node25 -->
<g id="node25" class="node"><title>Node25</title>
<g id="a_node25"><a xlink:href="../../d5/d82/globals_8hpp.html" target="_top" xlink:title="pfasst/globals.hpp">
<polygon fill="white" stroke="black" points="716,-168.5 716,-187.5 813,-187.5 813,-168.5 716,-168.5"/>
<text text-anchor="middle" x="764.5" y="-175.5" font-family="Helvetica,sans-Serif" font-size="10.00">pfasst/globals.hpp</text>
</a>
</g>
</g>
<!-- Node19&#45;&gt;Node25 -->
<g id="edge32" class="edge"><title>Node19&#45;&gt;Node25</title>
<path fill="none" stroke="midnightblue" d="M649.208,-224.444C671.855,-215.517 707.572,-201.439 733.252,-191.317"/>
<polygon fill="midnightblue" stroke="midnightblue" points="734.874,-194.44 742.894,-187.516 732.307,-187.927 734.874,-194.44"/>
</g>
</g>
</svg>
