<?xml version="1.0" encoding="UTF-8" standalone="no"?>
<!DOCTYPE svg PUBLIC "-//W3C//DTD SVG 1.1//EN"
 "http://www.w3.org/Graphics/SVG/1.1/DTD/svg11.dtd">
<!-- Generated by graphviz version 2.38.0 (20140413.2041)
 -->
<!-- Title: Examples Pages: 1 -->
<svg width="221pt" height="142pt"
 viewBox="0.00 0.00 221.00 142.00" xmlns="http://www.w3.org/2000/svg" xmlns:xlink="http://www.w3.org/1999/xlink">
<g id="graph0" class="graph" transform="scale(1 1) rotate(0) translate(4 138)">
<title>Examples</title>
<polygon fill="white" stroke="none" points="-4,4 -4,-138 217,-138 217,4 -4,4"/>
<!-- Node2 -->
<g id="node1" class="node"><title>Node2</title>
<g id="a_node1"><a xlink:href="../../d0/d70/group__Boris.html" target="_top" xlink:title="This directory contains an implementations of a modification to the Boris method to solve second orde...">
<polygon fill="white" stroke="black" points="135,-114.5 135,-133.5 175,-133.5 175,-114.5 135,-114.5"/>
<text text-anchor="middle" x="155" y="-121.5" font-family="Helvetica,sans-Serif" font-size="10.00">Boris</text>
</a>
</g>
</g>
<!-- Node1 -->
<g id="node2" class="node"><title>Node1</title>
<g id="a_node2"><a xlink:href="../../d9/d85/group__AdvectionDiffusion.html" target="_top" xlink:title="Advection&#45;Diffusion example. ">
<polygon fill="white" stroke="black" points="103.5,-76.5 103.5,-95.5 206.5,-95.5 206.5,-76.5 103.5,-76.5"/>
<text text-anchor="middle" x="155" y="-83.5" font-family="Helvetica,sans-Serif" font-size="10.00">Advection Diffusion</text>
</a>
</g>
</g>
<!-- Node0 -->
<g id="node3" class="node"><title>Node0</title>
<polygon fill="#bfbfbf" stroke="black" points="0,-57.5 0,-76.5 61,-76.5 61,-57.5 0,-57.5"/>
<text text-anchor="middle" x="30.5" y="-64.5" font-family="Helvetica,sans-Serif" font-size="10.00">Examples</text>
</g>
<!-- Node0&#45;&gt;Node2 -->
<g id="edge2" class="edge"><title>Node0&#45;&gt;Node2</title>
<path fill="none" stroke="black" d="M54.7984,-82.0772C67.0415,-89.5942 82.4843,-98.4528 97,-105 109.266,-110.533 123.644,-115.314 134.89,-118.696"/>
<polygon fill="black" stroke="black" points="56.4617,-78.9892 46.1281,-76.6509 52.748,-84.923 56.4617,-78.9892"/>
</g>
<!-- Node0&#45;&gt;Node1 -->
<g id="edge1" class="edge"><title>Node0&#45;&gt;Node1</title>
<path fill="none" stroke="black" d="M71.337,-73.1788C81.4728,-74.7509 92.5035,-76.4618 103.108,-78.1065"/>
<polygon fill="black" stroke="black" points="71.5722,-69.6735 61.1538,-71.5994 70.4992,-76.5908 71.5722,-69.6735"/>
</g>
<!-- Node3 -->
<g id="node4" class="node"><title>Node3</title>
<g id="a_node4"><a xlink:href="../../d1/d6e/group__Scalar.html" target="_top" xlink:title="This directory contains a simple implementations of scalar ODE solver using the PFASST framework...">
<polygon fill="white" stroke="black" points="132,-38.5 132,-57.5 178,-57.5 178,-38.5 132,-38.5"/>
<text text-anchor="middle" x="155" y="-45.5" font-family="Helvetica,sans-Serif" font-size="10.00">Scalar</text>
</a>
</g>
</g>
<!-- Node0&#45;&gt;Node3 -->
<g id="edge3" class="edge"><title>Node0&#45;&gt;Node3</title>
<path fill="none" stroke="black" d="M71.2974,-60.8273C91.4157,-57.707 115.068,-54.0384 131.914,-51.4256"/>
<polygon fill="black" stroke="black" points="70.4992,-57.4092 61.1538,-62.4006 71.5722,-64.3265 70.4992,-57.4092"/>
</g>
<!-- Node4 -->
<g id="node5" class="node"><title>Node4</title>
<g id="a_node5"><a xlink:href="../../dd/d53/group__VanDerPol.html" target="_top" xlink:title="This directory contains an implementations of solver for the Van&#45;der&#45;Pol oscillator using the PFASST ...">
<polygon fill="white" stroke="black" points="97,-0.5 97,-19.5 213,-19.5 213,-0.5 97,-0.5"/>
<text text-anchor="middle" x="155" y="-7.5" font-family="Helvetica,sans-Serif" font-size="10.00">Van&#45;der&#45;Pol Oscillator</text>
</a>
</g>
</g>
<!-- Node0&#45;&gt;Node4 -->
<g id="edge4" class="edge"><title>Node0&#45;&gt;Node4</title>
<path fill="none" stroke="black" d="M54.7984,-51.9228C67.0415,-44.4058 82.4843,-35.5472 97,-29 104.797,-25.4831 113.447,-22.2699 121.604,-19.5265"/>
<polygon fill="black" stroke="black" points="52.748,-49.077 46.1281,-57.3491 56.4617,-55.0108 52.748,-49.077"/>
</g>
</g>
</svg>
