<?xml version="1.0" encoding="UTF-8" standalone="no"?>
<!DOCTYPE svg PUBLIC "-//W3C//DTD SVG 1.1//EN"
 "http://www.w3.org/Graphics/SVG/1.1/DTD/svg11.dtd">
<!-- Generated by graphviz version 2.38.0 (20140413.2041)
 -->
<!-- Title: QmatTest Pages: 1 -->
<svg width="158pt" height="193pt"
 viewBox="0.00 0.00 158.00 193.00" xmlns="http://www.w3.org/2000/svg" xmlns:xlink="http://www.w3.org/1999/xlink">
<g id="graph0" class="graph" transform="scale(1 1) rotate(0) translate(4 189)">
<title>QmatTest</title>
<polygon fill="white" stroke="none" points="-4,4 -4,-189 154,-189 154,4 -4,4"/>
<!-- Node1 -->
<g id="node1" class="node"><title>Node1</title>
<polygon fill="#bfbfbf" stroke="black" points="44,-0.5 44,-79.5 106,-79.5 106,-0.5 44,-0.5"/>
<text text-anchor="middle" x="75" y="-67.5" font-family="Helvetica,sans-Serif" font-size="10.00">QmatTest</text>
<polyline fill="none" stroke="black" points="44,-60.5 106,-60.5 "/>
<text text-anchor="start" x="52" y="-48.5" font-family="Helvetica,sans-Serif" font-size="10.00"># nnodes</text>
<text text-anchor="start" x="52" y="-37.5" font-family="Helvetica,sans-Serif" font-size="10.00"># qtype</text>
<text text-anchor="start" x="52" y="-26.5" font-family="Helvetica,sans-Serif" font-size="10.00"># quad</text>
<polyline fill="none" stroke="black" points="44,-19.5 106,-19.5 "/>
<text text-anchor="start" x="52" y="-7.5" font-family="Helvetica,sans-Serif" font-size="10.00">+ SetUp()</text>
</g>
<!-- Node2 -->
<g id="node2" class="node"><title>Node2</title>
<polygon fill="white" stroke="#bfbfbf" points="-1.42109e-14,-116.5 -1.42109e-14,-184.5 150,-184.5 150,-116.5 -1.42109e-14,-116.5"/>
<text text-anchor="start" x="8" y="-172.5" font-family="Helvetica,sans-Serif" font-size="10.00">TestWithParam&lt; tuple</text>
<text text-anchor="middle" x="75" y="-161.5" font-family="Helvetica,sans-Serif" font-size="10.00">&lt; size_t, QuadratureType &gt; &gt;</text>
<polyline fill="none" stroke="#bfbfbf" points="-1.42109e-14,-154.5 150,-154.5 "/>
<text text-anchor="middle" x="75" y="-142.5" font-family="Helvetica,sans-Serif" font-size="10.00"> </text>
<polyline fill="none" stroke="#bfbfbf" points="-1.42109e-14,-135.5 150,-135.5 "/>
<text text-anchor="middle" x="75" y="-123.5" font-family="Helvetica,sans-Serif" font-size="10.00"> </text>
</g>
<!-- Node2&#45;&gt;Node1 -->
<g id="edge1" class="edge"><title>Node2&#45;&gt;Node1</title>
<path fill="none" stroke="midnightblue" d="M75,-106.274C75,-97.4764 75,-88.2753 75,-79.6493"/>
<polygon fill="none" stroke="midnightblue" points="71.5001,-106.357 75,-116.357 78.5001,-106.357 71.5001,-106.357"/>
</g>
</g>
</svg>
