<?xml version="1.0" encoding="UTF-8" standalone="no"?>
<!DOCTYPE svg PUBLIC "-//W3C//DTD SVG 1.1//EN"
 "http://www.w3.org/Graphics/SVG/1.1/DTD/svg11.dtd">
<!-- Generated by graphviz version 2.38.0 (20140413.2041)
 -->
<!-- Title: src/pfasst/quadrature/gauss_radau_impl.hpp Pages: 1 -->
<!--zoomable 520 -->
<svg id="main" version="1.1" xmlns="http://www.w3.org/2000/svg" xmlns:xlink="http://www.w3.org/1999/xlink" xml:space="preserve" onload="init(evt)">
<style type="text/css"><![CDATA[
.edge:hover path { stroke: red; }
.edge:hover polygon { stroke: red; fill: red; }
]]></style>
<script type="text/javascript"><![CDATA[
var edges = document.getElementsByTagName('g');
if (edges && edges.length) {
  for (var i=0;i<edges.length;i++) {
    if (edges[i].id.substr(0,4)=='edge') {
      edges[i].setAttribute('class','edge');
    }
  }
}
]]></script>
        <defs>
                <circle id="rim" cx="0" cy="0" r="7"/>
                <circle id="rim2" cx="0" cy="0" r="3.5"/>
                <g id="zoomPlus">
                        <use xlink:href="#rim" fill="#404040">
                                <set attributeName="fill" to="#808080" begin="zoomplus.mouseover" end="zoomplus.mouseout"/>
                        </use>
                        <path d="M-4,0h8M0,-4v8" fill="none" stroke="white" stroke-width="1.5" pointer-events="none"/>
                </g>
                <g id="zoomMin">
                        <use xlink:href="#rim" fill="#404040">
                                <set attributeName="fill" to="#808080" begin="zoomminus.mouseover" end="zoomminus.mouseout"/>
                        </use>
                        <path d="M-4,0h8" fill="none" stroke="white" stroke-width="1.5" pointer-events="none"/>
                </g>
                <g id="dirArrow">
                        <path fill="none" stroke="white" stroke-width="1.5" d="M0,-3.0v7 M-2.5,-0.5L0,-3.0L2.5,-0.5"/>
                </g>
               <g id="resetDef">
                       <use xlink:href="#rim2" fill="#404040">
                               <set attributeName="fill" to="#808080" begin="reset.mouseover" end="reset.mouseout"/>
                       </use>
               </g>
        </defs>

<script type="text/javascript">
var viewWidth = 873;
var viewHeight = 520;
var sectionId = 'dynsection-0';
</script>
<script xlink:href="../../svgpan.js"/>
<svg id="graph" class="graph">
<g id="viewport">
<title>src/pfasst/quadrature/gauss_radau_impl.hpp</title>
<polygon fill="white" stroke="none" points="-4,4 -4,-516 868.5,-516 868.5,4 -4,4"/>
<!-- Node1 -->
<g id="node1" class="node"><title>Node1</title>
<polygon fill="#bfbfbf" stroke="black" points="385,-481.5 385,-511.5 505,-511.5 505,-481.5 385,-481.5"/>
<text text-anchor="start" x="393" y="-499.5" font-family="Helvetica,sans-Serif" font-size="10.00">src/pfasst/quadrature</text>
<text text-anchor="middle" x="445" y="-488.5" font-family="Helvetica,sans-Serif" font-size="10.00">/gauss_radau_impl.hpp</text>
</g>
<!-- Node2 -->
<g id="node2" class="node"><title>Node2</title>
<g id="a_node2"><a xlink:href="../../d5/d98/gauss__radau_8hpp.html" target="_top" xlink:title="pfasst/quadrature/gauss\l_radau.hpp">
<polygon fill="white" stroke="black" points="382.5,-414.5 382.5,-444.5 507.5,-444.5 507.5,-414.5 382.5,-414.5"/>
<text text-anchor="start" x="390.5" y="-432.5" font-family="Helvetica,sans-Serif" font-size="10.00">pfasst/quadrature/gauss</text>
<text text-anchor="middle" x="445" y="-421.5" font-family="Helvetica,sans-Serif" font-size="10.00">_radau.hpp</text>
</a>
</g>
</g>
<!-- Node1&#45;&gt;Node2 -->
<g id="edge1" class="edge"><title>Node1&#45;&gt;Node2</title>
<path fill="none" stroke="midnightblue" d="M439.322,-481.396C438.294,-473.56 438.005,-463.596 438.456,-454.565"/>
<polygon fill="midnightblue" stroke="midnightblue" points="441.945,-454.842 439.325,-444.577 434.972,-454.236 441.945,-454.842"/>
</g>
<!-- Node5 -->
<g id="node5" class="node"><title>Node5</title>
<polygon fill="white" stroke="#bfbfbf" points="551,-230 551,-249 595,-249 595,-230 551,-230"/>
<text text-anchor="middle" x="573" y="-237" font-family="Helvetica,sans-Serif" font-size="10.00">vector</text>
</g>
<!-- Node1&#45;&gt;Node5 -->
<g id="edge46" class="edge"><title>Node1&#45;&gt;Node5</title>
<path fill="none" stroke="midnightblue" d="M473.566,-481.31C488.226,-472.678 505.221,-460.35 516,-445 557.46,-385.955 568.843,-297.639 571.904,-259.339"/>
<polygon fill="midnightblue" stroke="midnightblue" points="575.41,-259.364 572.611,-249.146 568.427,-258.88 575.41,-259.364"/>
</g>
<!-- Node10 -->
<g id="node10" class="node"><title>Node10</title>
<polygon fill="white" stroke="#bfbfbf" points="0,-230 0,-249 60,-249 60,-230 0,-230"/>
<text text-anchor="middle" x="30" y="-237" font-family="Helvetica,sans-Serif" font-size="10.00">stdexcept</text>
</g>
<!-- Node1&#45;&gt;Node10 -->
<g id="edge45" class="edge"><title>Node1&#45;&gt;Node10</title>
<path fill="none" stroke="midnightblue" d="M401.878,-481.473C331.713,-457.156 190.847,-401.993 93,-322 70.5699,-303.663 51.2995,-275.897 40.1719,-257.978"/>
<polygon fill="midnightblue" stroke="midnightblue" points="43.0175,-255.919 34.8593,-249.159 37.0214,-259.531 43.0175,-255.919"/>
</g>
<!-- Node25 -->
<g id="node25" class="node"><title>Node25</title>
<g id="a_node25"><a xlink:href="../../d0/d3e/polynomial_8hpp.html" target="_top" xlink:title="pfasst/quadrature/polynomial.hpp">
<polygon fill="white" stroke="black" points="604,-297 604,-316 768,-316 768,-297 604,-297"/>
<text text-anchor="middle" x="686" y="-304" font-family="Helvetica,sans-Serif" font-size="10.00">pfasst/quadrature/polynomial.hpp</text>
</a>
</g>
</g>
<!-- Node1&#45;&gt;Node25 -->
<g id="edge47" class="edge"><title>Node1&#45;&gt;Node25</title>
<path fill="none" stroke="midnightblue" d="M505.191,-483.559C532.991,-475.893 565.244,-463.75 590,-445 632.994,-412.437 664.034,-355 677.907,-325.74"/>
<polygon fill="midnightblue" stroke="midnightblue" points="681.235,-326.881 682.232,-316.333 674.875,-323.957 681.235,-326.881"/>
</g>
<!-- Node2&#45;&gt;Node1 -->
<g id="edge44" class="edge"><title>Node2&#45;&gt;Node1</title>
<path fill="none" stroke="midnightblue" d="M450.675,-444.577C451.704,-452.408 451.995,-462.37 451.545,-471.403"/>
<polygon fill="midnightblue" stroke="midnightblue" points="448.056,-471.131 450.678,-481.396 455.03,-471.736 448.056,-471.131"/>
</g>
<!-- Node3 -->
<g id="node3" class="node"><title>Node3</title>
<g id="a_node3"><a xlink:href="../../df/dea/quadrature_2interface_8hpp.html" target="_top" xlink:title="pfasst/quadrature/interface.hpp">
<polygon fill="white" stroke="black" points="329,-358.5 329,-377.5 483,-377.5 483,-358.5 329,-358.5"/>
<text text-anchor="middle" x="406" y="-365.5" font-family="Helvetica,sans-Serif" font-size="10.00">pfasst/quadrature/interface.hpp</text>
</a>
</g>
</g>
<!-- Node2&#45;&gt;Node3 -->
<g id="edge2" class="edge"><title>Node2&#45;&gt;Node3</title>
<path fill="none" stroke="midnightblue" d="M435.758,-414.399C430.207,-405.932 423.107,-395.099 417.234,-386.139"/>
<polygon fill="midnightblue" stroke="midnightblue" points="420.084,-384.103 411.675,-377.658 414.23,-387.94 420.084,-384.103"/>
</g>
<!-- Node4 -->
<g id="node4" class="node"><title>Node4</title>
<polygon fill="white" stroke="#bfbfbf" points="554,-168.5 554,-187.5 604,-187.5 604,-168.5 554,-168.5"/>
<text text-anchor="middle" x="579" y="-175.5" font-family="Helvetica,sans-Serif" font-size="10.00">cassert</text>
</g>
<!-- Node3&#45;&gt;Node4 -->
<g id="edge3" class="edge"><title>Node3&#45;&gt;Node4</title>
<path fill="none" stroke="midnightblue" d="M406.283,-358.248C407.156,-343.248 410.7,-312.197 425,-291 456.771,-243.905 515.281,-209.57 550.315,-192.084"/>
<polygon fill="midnightblue" stroke="midnightblue" points="552.07,-195.123 559.533,-187.603 549.009,-188.828 552.07,-195.123"/>
</g>
<!-- Node3&#45;&gt;Node5 -->
<g id="edge4" class="edge"><title>Node3&#45;&gt;Node5</title>
<path fill="none" stroke="midnightblue" d="M441.886,-358.489C465.386,-351.577 495.751,-339.977 518,-322 539.41,-304.701 555.67,-276.859 564.773,-258.62"/>
<polygon fill="midnightblue" stroke="midnightblue" points="568.038,-259.905 569.186,-249.372 561.72,-256.89 568.038,-259.905"/>
</g>
<!-- Node6 -->
<g id="node6" class="node"><title>Node6</title>
<polygon fill="white" stroke="#bfbfbf" points="434.5,-297 434.5,-316 509.5,-316 509.5,-297 434.5,-297"/>
<text text-anchor="middle" x="472" y="-304" font-family="Helvetica,sans-Serif" font-size="10.00">Eigen/Dense</text>
</g>
<!-- Node3&#45;&gt;Node6 -->
<g id="edge5" class="edge"><title>Node3&#45;&gt;Node6</title>
<path fill="none" stroke="midnightblue" d="M415.456,-358.475C425.748,-349.197 442.416,-334.171 454.994,-322.831"/>
<polygon fill="midnightblue" stroke="midnightblue" points="457.478,-325.305 462.561,-316.009 452.79,-320.105 457.478,-325.305"/>
</g>
<!-- Node7 -->
<g id="node7" class="node"><title>Node7</title>
<g id="a_node7"><a xlink:href="../../d5/d82/globals_8hpp.html" target="_top" xlink:title="pfasst/globals.hpp">
<polygon fill="white" stroke="black" points="141.5,-168.5 141.5,-187.5 238.5,-187.5 238.5,-168.5 141.5,-168.5"/>
<text text-anchor="middle" x="190" y="-175.5" font-family="Helvetica,sans-Serif" font-size="10.00">pfasst/globals.hpp</text>
</a>
</g>
</g>
<!-- Node3&#45;&gt;Node7 -->
<g id="edge6" class="edge"><title>Node3&#45;&gt;Node7</title>
<path fill="none" stroke="midnightblue" d="M328.788,-366.382C249.893,-363.917 135.082,-354.624 107,-322 71.2647,-280.484 134.925,-221.403 169.653,-194.013"/>
<polygon fill="midnightblue" stroke="midnightblue" points="171.988,-196.633 177.781,-187.762 167.721,-191.084 171.988,-196.633"/>
</g>
<!-- Node8 -->
<g id="node8" class="node"><title>Node8</title>
<g id="a_node8"><a xlink:href="../../d1/d1b/interfaces_8hpp.html" target="_top" xlink:title="interfaces for SDC/MLSDC/PFASST algorithms. ">
<polygon fill="white" stroke="black" points="270.5,-297 270.5,-316 377.5,-316 377.5,-297 270.5,-297"/>
<text text-anchor="middle" x="324" y="-304" font-family="Helvetica,sans-Serif" font-size="10.00">pfasst/interfaces.hpp</text>
</a>
</g>
</g>
<!-- Node3&#45;&gt;Node8 -->
<g id="edge7" class="edge"><title>Node3&#45;&gt;Node8</title>
<path fill="none" stroke="midnightblue" d="M394.251,-358.475C381.221,-349.02 359.964,-333.596 344.241,-322.187"/>
<polygon fill="midnightblue" stroke="midnightblue" points="345.876,-319.049 335.727,-316.009 341.765,-324.715 345.876,-319.049"/>
</g>
<!-- Node3&#45;&gt;Node25 -->
<g id="edge34" class="edge"><title>Node3&#45;&gt;Node25</title>
<path fill="none" stroke="midnightblue" d="M446.117,-358.475C496.122,-347.849 581.601,-329.685 635.871,-318.152"/>
<polygon fill="midnightblue" stroke="midnightblue" points="636.903,-321.511 645.957,-316.009 635.448,-314.664 636.903,-321.511"/>
</g>
<!-- Node30 -->
<g id="node30" class="node"><title>Node30</title>
<g id="a_node30"><a xlink:href="../../de/da5/quadrature_2interface__impl_8hpp.html" target="_top" xlink:title="pfasst/quadrature/interface\l_impl.hpp">
<polygon fill="white" stroke="black" points="116,-291.5 116,-321.5 252,-321.5 252,-291.5 116,-291.5"/>
<text text-anchor="start" x="124" y="-309.5" font-family="Helvetica,sans-Serif" font-size="10.00">pfasst/quadrature/interface</text>
<text text-anchor="middle" x="184" y="-298.5" font-family="Helvetica,sans-Serif" font-size="10.00">_impl.hpp</text>
</a>
</g>
</g>
<!-- Node3&#45;&gt;Node30 -->
<g id="edge42" class="edge"><title>Node3&#45;&gt;Node30</title>
<path fill="none" stroke="midnightblue" d="M369.292,-358.475C334.122,-349.569 280.726,-335.369 240.228,-324.215"/>
<polygon fill="midnightblue" stroke="midnightblue" points="241.062,-320.815 230.491,-321.523 239.197,-327.561 241.062,-320.815"/>
</g>
<!-- Node9 -->
<g id="node9" class="node"><title>Node9</title>
<polygon fill="white" stroke="#bfbfbf" points="256.5,-168.5 256.5,-187.5 309.5,-187.5 309.5,-168.5 256.5,-168.5"/>
<text text-anchor="middle" x="283" y="-175.5" font-family="Helvetica,sans-Serif" font-size="10.00">memory</text>
</g>
<!-- Node8&#45;&gt;Node9 -->
<g id="edge8" class="edge"><title>Node8&#45;&gt;Node9</title>
<path fill="none" stroke="midnightblue" d="M300.685,-296.909C282.962,-288.997 259.841,-275.37 249,-255 238.342,-234.975 253.529,-210.94 266.879,-195.338"/>
<polygon fill="midnightblue" stroke="midnightblue" points="269.771,-197.36 273.931,-187.616 264.603,-192.64 269.771,-197.36"/>
</g>
<!-- Node8&#45;&gt;Node10 -->
<g id="edge9" class="edge"><title>Node8&#45;&gt;Node10</title>
<path fill="none" stroke="midnightblue" d="M287.371,-296.998C278.727,-295.011 269.542,-292.917 261,-291 194.156,-276.002 116.299,-259.098 70.1918,-249.146"/>
<polygon fill="midnightblue" stroke="midnightblue" points="70.807,-245.699 60.2938,-247.012 69.3311,-252.541 70.807,-245.699"/>
</g>
<!-- Node11 -->
<g id="node11" class="node"><title>Node11</title>
<polygon fill="white" stroke="#bfbfbf" points="288.5,-56.5 288.5,-75.5 329.5,-75.5 329.5,-56.5 288.5,-56.5"/>
<text text-anchor="middle" x="309" y="-63.5" font-family="Helvetica,sans-Serif" font-size="10.00">string</text>
</g>
<!-- Node8&#45;&gt;Node11 -->
<g id="edge10" class="edge"><title>Node8&#45;&gt;Node11</title>
<path fill="none" stroke="midnightblue" d="M292.749,-296.925C247.791,-282.709 166.485,-249.535 132,-188 96.3784,-124.438 218.719,-87.3345 278.28,-73.3902"/>
<polygon fill="midnightblue" stroke="midnightblue" points="279.301,-76.7479 288.282,-71.1282 277.757,-69.9203 279.301,-76.7479"/>
</g>
<!-- Node12 -->
<g id="node12" class="node"><title>Node12</title>
<g id="a_node12"><a xlink:href="../../d8/dc4/interfaces__impl_8hpp.html" target="_top" xlink:title="pfasst/interfaces_impl.hpp">
<polygon fill="white" stroke="black" points="258.5,-230 258.5,-249 389.5,-249 389.5,-230 258.5,-230"/>
<text text-anchor="middle" x="324" y="-237" font-family="Helvetica,sans-Serif" font-size="10.00">pfasst/interfaces_impl.hpp</text>
</a>
</g>
</g>
<!-- Node8&#45;&gt;Node12 -->
<g id="edge11" class="edge"><title>Node8&#45;&gt;Node12</title>
<path fill="none" stroke="midnightblue" d="M319.211,-296.734C317.202,-287.183 316.736,-271.618 317.816,-259.283"/>
<polygon fill="midnightblue" stroke="midnightblue" points="321.317,-259.517 319.241,-249.127 314.385,-258.544 321.317,-259.517"/>
</g>
<!-- Node12&#45;&gt;Node4 -->
<g id="edge13" class="edge"><title>Node12&#45;&gt;Node4</title>
<path fill="none" stroke="midnightblue" d="M363.218,-229.962C405.486,-220.667 474.97,-205.115 544.034,-188.179"/>
<polygon fill="midnightblue" stroke="midnightblue" points="544.901,-191.57 553.774,-185.78 543.227,-184.773 544.901,-191.57"/>
</g>
<!-- Node12&#45;&gt;Node7 -->
<g id="edge16" class="edge"><title>Node12&#45;&gt;Node7</title>
<path fill="none" stroke="midnightblue" d="M304.801,-229.975C282.213,-219.945 244.501,-203.2 218.499,-191.655"/>
<polygon fill="midnightblue" stroke="midnightblue" points="219.723,-188.369 209.163,-187.509 216.882,-194.766 219.723,-188.369"/>
</g>
<!-- Node12&#45;&gt;Node8 -->
<g id="edge12" class="edge"><title>Node12&#45;&gt;Node8</title>
<path fill="none" stroke="midnightblue" d="M328.759,-249.127C330.784,-258.62 331.264,-274.17 330.2,-286.537"/>
<polygon fill="midnightblue" stroke="midnightblue" points="326.693,-286.348 328.789,-296.734 333.627,-287.308 326.693,-286.348"/>
</g>
<!-- Node12&#45;&gt;Node9 -->
<g id="edge14" class="edge"><title>Node12&#45;&gt;Node9</title>
<path fill="none" stroke="midnightblue" d="M318.126,-229.975C312.037,-221.138 302.355,-207.089 294.697,-195.975"/>
<polygon fill="midnightblue" stroke="midnightblue" points="297.42,-193.758 288.863,-187.509 291.656,-197.729 297.42,-193.758"/>
</g>
<!-- Node12&#45;&gt;Node11 -->
<g id="edge15" class="edge"><title>Node12&#45;&gt;Node11</title>
<path fill="none" stroke="midnightblue" d="M323.272,-229.816C322.154,-216.509 319.94,-190.272 318,-168 315.498,-139.278 312.514,-105.971 310.689,-85.6987"/>
<polygon fill="midnightblue" stroke="midnightblue" points="314.166,-85.2909 309.782,-75.6456 307.194,-85.9196 314.166,-85.2909"/>
</g>
<!-- Node13 -->
<g id="node13" class="node"><title>Node13</title>
<g id="a_node13"><a xlink:href="../../d0/da9/logging_8hpp.html" target="_top" xlink:title="pfasst/logging.hpp">
<polygon fill="white" stroke="black" points="438,-168.5 438,-187.5 536,-187.5 536,-168.5 438,-168.5"/>
<text text-anchor="middle" x="487" y="-175.5" font-family="Helvetica,sans-Serif" font-size="10.00">pfasst/logging.hpp</text>
</a>
</g>
</g>
<!-- Node12&#45;&gt;Node13 -->
<g id="edge17" class="edge"><title>Node12&#45;&gt;Node13</title>
<path fill="none" stroke="midnightblue" d="M347.354,-229.975C375.314,-219.769 422.326,-202.608 453.991,-191.049"/>
<polygon fill="midnightblue" stroke="midnightblue" points="455.496,-194.226 463.689,-187.509 453.095,-187.65 455.496,-194.226"/>
</g>
<!-- Node13&#45;&gt;Node11 -->
<g id="edge20" class="edge"><title>Node13&#45;&gt;Node11</title>
<path fill="none" stroke="midnightblue" d="M486.982,-168.082C486.457,-154.147 483.362,-127.231 468,-112 449.915,-94.0692 380.437,-79.3651 339.551,-72.0366"/>
<polygon fill="midnightblue" stroke="midnightblue" points="340.03,-68.5673 329.577,-70.2932 338.825,-75.4627 340.03,-68.5673"/>
</g>
<!-- Node14 -->
<g id="node14" class="node"><title>Node14</title>
<polygon fill="white" stroke="#bfbfbf" points="625,-112.5 625,-131.5 677,-131.5 677,-112.5 625,-112.5"/>
<text text-anchor="middle" x="651" y="-119.5" font-family="Helvetica,sans-Serif" font-size="10.00">iomanip</text>
</g>
<!-- Node13&#45;&gt;Node14 -->
<g id="edge18" class="edge"><title>Node13&#45;&gt;Node14</title>
<path fill="none" stroke="midnightblue" d="M512.986,-168.444C540.696,-159.32 584.752,-144.813 615.616,-134.651"/>
<polygon fill="midnightblue" stroke="midnightblue" points="616.732,-137.968 625.135,-131.516 614.542,-131.32 616.732,-137.968"/>
</g>
<!-- Node15 -->
<g id="node15" class="node"><title>Node15</title>
<polygon fill="white" stroke="#bfbfbf" points="728,-56.5 728,-75.5 784,-75.5 784,-56.5 728,-56.5"/>
<text text-anchor="middle" x="756" y="-63.5" font-family="Helvetica,sans-Serif" font-size="10.00">iostream</text>
</g>
<!-- Node13&#45;&gt;Node15 -->
<g id="edge19" class="edge"><title>Node13&#45;&gt;Node15</title>
<path fill="none" stroke="midnightblue" d="M536.136,-168.912C586.319,-160.118 660.388,-145.51 686,-132 708.807,-119.97 729.732,-98.5752 742.648,-83.6292"/>
<polygon fill="midnightblue" stroke="midnightblue" points="745.553,-85.6113 749.281,-75.6939 740.182,-81.122 745.553,-85.6113"/>
</g>
<!-- Node16 -->
<g id="node16" class="node"><title>Node16</title>
<polygon fill="white" stroke="#bfbfbf" points="733.5,-112.5 733.5,-131.5 864.5,-131.5 864.5,-112.5 733.5,-112.5"/>
<text text-anchor="middle" x="799" y="-119.5" font-family="Helvetica,sans-Serif" font-size="10.00">boost/algorithm/string.hpp</text>
</g>
<!-- Node13&#45;&gt;Node16 -->
<g id="edge21" class="edge"><title>Node13&#45;&gt;Node16</title>
<path fill="none" stroke="midnightblue" d="M536.093,-168.503C591.249,-158.957 680.76,-143.465 739.758,-133.253"/>
<polygon fill="midnightblue" stroke="midnightblue" points="740.422,-136.691 749.678,-131.536 739.228,-129.793 740.422,-136.691"/>
</g>
<!-- Node17 -->
<g id="node17" class="node"><title>Node17</title>
<g id="a_node17"><a xlink:href="../../d8/dfd/config_8hpp.html" target="_top" xlink:title="pfasst/config.hpp">
<polygon fill="white" stroke="black" points="515.5,-112.5 515.5,-131.5 606.5,-131.5 606.5,-112.5 515.5,-112.5"/>
<text text-anchor="middle" x="561" y="-119.5" font-family="Helvetica,sans-Serif" font-size="10.00">pfasst/config.hpp</text>
</a>
</g>
</g>
<!-- Node13&#45;&gt;Node17 -->
<g id="edge22" class="edge"><title>Node13&#45;&gt;Node17</title>
<path fill="none" stroke="midnightblue" d="M498.889,-168.324C510.15,-160.107 527.287,-147.602 540.709,-137.807"/>
<polygon fill="midnightblue" stroke="midnightblue" points="542.88,-140.556 548.894,-131.834 538.753,-134.901 542.88,-140.556"/>
</g>
<!-- Node24 -->
<g id="node24" class="node"><title>Node24</title>
<polygon fill="white" stroke="#bfbfbf" points="337,-112.5 337,-131.5 459,-131.5 459,-112.5 337,-112.5"/>
<text text-anchor="middle" x="398" y="-119.5" font-family="Helvetica,sans-Serif" font-size="10.00">pfasst/easylogging++.h</text>
</g>
<!-- Node13&#45;&gt;Node24 -->
<g id="edge33" class="edge"><title>Node13&#45;&gt;Node24</title>
<path fill="none" stroke="midnightblue" d="M472.701,-168.324C458.817,-159.9 437.508,-146.971 421.196,-137.074"/>
<polygon fill="midnightblue" stroke="midnightblue" points="422.629,-133.85 412.264,-131.655 418.998,-139.834 422.629,-133.85"/>
</g>
<!-- Node17&#45;&gt;Node11 -->
<g id="edge25" class="edge"><title>Node17&#45;&gt;Node11</title>
<path fill="none" stroke="midnightblue" d="M516.812,-112.472C472.868,-103.841 403.591,-89.8324 344,-76 342.548,-75.6631 341.065,-75.3112 339.568,-74.9501"/>
<polygon fill="midnightblue" stroke="midnightblue" points="340.238,-71.51 329.688,-72.4923 338.548,-78.303 340.238,-71.51"/>
</g>
<!-- Node17&#45;&gt;Node15 -->
<g id="edge24" class="edge"><title>Node17&#45;&gt;Node15</title>
<path fill="none" stroke="midnightblue" d="M591.898,-112.444C626.059,-102.984 681.114,-87.7377 717.915,-77.5465"/>
<polygon fill="midnightblue" stroke="midnightblue" points="719.076,-80.857 727.779,-74.8151 717.207,-74.1109 719.076,-80.857"/>
</g>
<!-- Node18 -->
<g id="node18" class="node"><title>Node18</title>
<polygon fill="white" stroke="#bfbfbf" points="446,-0.5 446,-19.5 496,-19.5 496,-0.5 446,-0.5"/>
<text text-anchor="middle" x="471" y="-7.5" font-family="Helvetica,sans-Serif" font-size="10.00">fstream</text>
</g>
<!-- Node17&#45;&gt;Node18 -->
<g id="edge23" class="edge"><title>Node17&#45;&gt;Node18</title>
<path fill="none" stroke="midnightblue" d="M515.121,-112.814C463.478,-103.135 385.604,-86.962 377,-76 356.819,-50.2884 401.537,-30.7513 435.985,-20.0894"/>
<polygon fill="midnightblue" stroke="midnightblue" points="437.21,-23.3772 445.814,-17.194 435.232,-16.6624 437.21,-23.3772"/>
</g>
<!-- Node19 -->
<g id="node19" class="node"><title>Node19</title>
<polygon fill="white" stroke="#bfbfbf" points="386,-56.5 386,-75.5 422,-75.5 422,-56.5 386,-56.5"/>
<text text-anchor="middle" x="404" y="-63.5" font-family="Helvetica,sans-Serif" font-size="10.00">map</text>
</g>
<!-- Node17&#45;&gt;Node19 -->
<g id="edge26" class="edge"><title>Node17&#45;&gt;Node19</title>
<path fill="none" stroke="midnightblue" d="M536.123,-112.444C507.815,-102.707 461.685,-86.8408 432.101,-76.6654"/>
<polygon fill="midnightblue" stroke="midnightblue" points="432.978,-73.2658 422.383,-73.323 430.701,-79.8852 432.978,-73.2658"/>
</g>
<!-- Node20 -->
<g id="node20" class="node"><title>Node20</title>
<polygon fill="white" stroke="#bfbfbf" points="440.5,-56.5 440.5,-75.5 577.5,-75.5 577.5,-56.5 440.5,-56.5"/>
<text text-anchor="middle" x="509" y="-63.5" font-family="Helvetica,sans-Serif" font-size="10.00">boost/program_options.hpp</text>
</g>
<!-- Node17&#45;&gt;Node20 -->
<g id="edge27" class="edge"><title>Node17&#45;&gt;Node20</title>
<path fill="none" stroke="midnightblue" d="M552.413,-112.083C544.841,-104.22 533.622,-92.5688 524.486,-83.0813"/>
<polygon fill="midnightblue" stroke="midnightblue" points="526.885,-80.5266 517.427,-75.7511 521.842,-85.3821 526.885,-80.5266"/>
</g>
<!-- Node21 -->
<g id="node21" class="node"><title>Node21</title>
<g id="a_node21"><a xlink:href="../../d5/d84/config__impl_8hpp.html" target="_top" xlink:title="pfasst/config_impl.hpp">
<polygon fill="white" stroke="black" points="596,-56.5 596,-75.5 710,-75.5 710,-56.5 596,-56.5"/>
<text text-anchor="middle" x="653" y="-63.5" font-family="Helvetica,sans-Serif" font-size="10.00">pfasst/config_impl.hpp</text>
</a>
</g>
</g>
<!-- Node17&#45;&gt;Node21 -->
<g id="edge28" class="edge"><title>Node17&#45;&gt;Node21</title>
<path fill="none" stroke="midnightblue" d="M570.667,-112.324C583.487,-103.703 605.944,-90.3643 624.274,-80.3855"/>
<polygon fill="midnightblue" stroke="midnightblue" points="625.969,-83.4486 633.145,-75.6545 622.675,-77.2721 625.969,-83.4486"/>
</g>
<!-- Node21&#45;&gt;Node17 -->
<g id="edge29" class="edge"><title>Node21&#45;&gt;Node17</title>
<path fill="none" stroke="midnightblue" d="M643.365,-75.6545C630.561,-84.2672 608.108,-97.6052 589.771,-107.59"/>
<polygon fill="midnightblue" stroke="midnightblue" points="588.072,-104.529 580.896,-112.324 591.367,-110.705 588.072,-104.529"/>
</g>
<!-- Node21&#45;&gt;Node18 -->
<g id="edge30" class="edge"><title>Node21&#45;&gt;Node18</title>
<path fill="none" stroke="midnightblue" d="M624.162,-56.4435C592.05,-46.9158 540.156,-31.5187 505.809,-21.328"/>
<polygon fill="midnightblue" stroke="midnightblue" points="506.769,-17.9621 496.187,-18.473 504.778,-24.673 506.769,-17.9621"/>
</g>
<!-- Node22 -->
<g id="node22" class="node"><title>Node22</title>
<polygon fill="white" stroke="#bfbfbf" points="594.5,-0.5 594.5,-19.5 647.5,-19.5 647.5,-0.5 594.5,-0.5"/>
<text text-anchor="middle" x="621" y="-7.5" font-family="Helvetica,sans-Serif" font-size="10.00">sstream</text>
</g>
<!-- Node21&#45;&gt;Node22 -->
<g id="edge31" class="edge"><title>Node21&#45;&gt;Node22</title>
<path fill="none" stroke="midnightblue" d="M647.716,-56.083C643.289,-48.6127 636.837,-37.7244 631.382,-28.5199"/>
<polygon fill="midnightblue" stroke="midnightblue" points="634.295,-26.5697 626.186,-19.7511 628.273,-30.1383 634.295,-26.5697"/>
</g>
<!-- Node23 -->
<g id="node23" class="node"><title>Node23</title>
<polygon fill="white" stroke="#bfbfbf" points="666,-0.5 666,-19.5 704,-19.5 704,-0.5 666,-0.5"/>
<text text-anchor="middle" x="685" y="-7.5" font-family="Helvetica,sans-Serif" font-size="10.00">utility</text>
</g>
<!-- Node21&#45;&gt;Node23 -->
<g id="edge32" class="edge"><title>Node21&#45;&gt;Node23</title>
<path fill="none" stroke="midnightblue" d="M658.284,-56.083C662.711,-48.6127 669.163,-37.7244 674.618,-28.5199"/>
<polygon fill="midnightblue" stroke="midnightblue" points="677.727,-30.1383 679.814,-19.7511 671.705,-26.5697 677.727,-30.1383"/>
</g>
<!-- Node25&#45;&gt;Node5 -->
<g id="edge35" class="edge"><title>Node25&#45;&gt;Node5</title>
<path fill="none" stroke="midnightblue" d="M670.76,-296.734C651.784,-285.818 619.154,-267.049 596.853,-254.221"/>
<polygon fill="midnightblue" stroke="midnightblue" points="598.412,-251.08 587.998,-249.127 594.921,-257.147 598.412,-251.08"/>
</g>
<!-- Node26 -->
<g id="node26" class="node"><title>Node26</title>
<g id="a_node26"><a xlink:href="../../dc/de8/polynomial__impl_8hpp.html" target="_top" xlink:title="pfasst/quadrature/polynomial\l_impl.hpp">
<polygon fill="white" stroke="black" points="613,-224.5 613,-254.5 759,-254.5 759,-224.5 613,-224.5"/>
<text text-anchor="start" x="621" y="-242.5" font-family="Helvetica,sans-Serif" font-size="10.00">pfasst/quadrature/polynomial</text>
<text text-anchor="middle" x="686" y="-231.5" font-family="Helvetica,sans-Serif" font-size="10.00">_impl.hpp</text>
</a>
</g>
</g>
<!-- Node25&#45;&gt;Node26 -->
<g id="edge36" class="edge"><title>Node25&#45;&gt;Node26</title>
<path fill="none" stroke="midnightblue" d="M681.211,-296.734C679.487,-288.541 678.9,-275.923 679.449,-264.714"/>
<polygon fill="midnightblue" stroke="midnightblue" points="682.95,-264.853 680.324,-254.589 675.976,-264.251 682.95,-264.853"/>
</g>
<!-- Node26&#45;&gt;Node4 -->
<g id="edge39" class="edge"><title>Node26&#45;&gt;Node4</title>
<path fill="none" stroke="midnightblue" d="M660.642,-224.399C643.331,-214.773 620.524,-202.09 603.416,-192.577"/>
<polygon fill="midnightblue" stroke="midnightblue" points="605.01,-189.459 594.569,-187.658 601.608,-195.577 605.01,-189.459"/>
</g>
<!-- Node26&#45;&gt;Node25 -->
<g id="edge37" class="edge"><title>Node26&#45;&gt;Node25</title>
<path fill="none" stroke="midnightblue" d="M691.676,-254.589C692.912,-264.001 693.081,-276.487 692.183,-286.739"/>
<polygon fill="midnightblue" stroke="midnightblue" points="688.703,-286.346 690.789,-296.734 695.636,-287.313 688.703,-286.346"/>
</g>
<!-- Node27 -->
<g id="node27" class="node"><title>Node27</title>
<polygon fill="white" stroke="#bfbfbf" points="622,-168.5 622,-187.5 680,-187.5 680,-168.5 622,-168.5"/>
<text text-anchor="middle" x="651" y="-175.5" font-family="Helvetica,sans-Serif" font-size="10.00">algorithm</text>
</g>
<!-- Node26&#45;&gt;Node27 -->
<g id="edge38" class="edge"><title>Node26&#45;&gt;Node27</title>
<path fill="none" stroke="midnightblue" d="M677.705,-224.399C672.777,-216.021 666.486,-205.327 661.249,-196.423"/>
<polygon fill="midnightblue" stroke="midnightblue" points="664.18,-194.503 656.093,-187.658 658.146,-198.052 664.18,-194.503"/>
</g>
<!-- Node28 -->
<g id="node28" class="node"><title>Node28</title>
<polygon fill="white" stroke="#bfbfbf" points="698,-168.5 698,-187.5 742,-187.5 742,-168.5 698,-168.5"/>
<text text-anchor="middle" x="720" y="-175.5" font-family="Helvetica,sans-Serif" font-size="10.00">cmath</text>
</g>
<!-- Node26&#45;&gt;Node28 -->
<g id="edge40" class="edge"><title>Node26&#45;&gt;Node28</title>
<path fill="none" stroke="midnightblue" d="M694.058,-224.399C698.845,-216.021 704.956,-205.327 710.044,-196.423"/>
<polygon fill="midnightblue" stroke="midnightblue" points="713.13,-198.077 715.053,-187.658 707.052,-194.604 713.13,-198.077"/>
</g>
<!-- Node29 -->
<g id="node29" class="node"><title>Node29</title>
<polygon fill="white" stroke="#bfbfbf" points="760.5,-168.5 760.5,-187.5 815.5,-187.5 815.5,-168.5 760.5,-168.5"/>
<text text-anchor="middle" x="788" y="-175.5" font-family="Helvetica,sans-Serif" font-size="10.00">complex</text>
</g>
<!-- Node26&#45;&gt;Node29 -->
<g id="edge41" class="edge"><title>Node26&#45;&gt;Node29</title>
<path fill="none" stroke="midnightblue" d="M710.173,-224.399C726.522,-214.862 748.015,-202.325 764.27,-192.842"/>
<polygon fill="midnightblue" stroke="midnightblue" points="766.284,-195.72 773.158,-187.658 762.757,-189.673 766.284,-195.72"/>
</g>
<!-- Node30&#45;&gt;Node3 -->
<g id="edge43" class="edge"><title>Node30&#45;&gt;Node3</title>
<path fill="none" stroke="midnightblue" d="M242.151,-321.523C282.445,-331.961 334.779,-346.023 369.39,-355.734"/>
<polygon fill="midnightblue" stroke="midnightblue" points="368.519,-359.125 379.093,-358.475 370.421,-352.388 368.519,-359.125"/>
</g>
</g>
</svg>
        <g id="navigator" transform="translate(0 0)" fill="#404254">
                <rect fill="#f2f5e9" fill-opacity="0.5" stroke="#606060" stroke-width=".5" x="0" y="0" width="60" height="60"/>
                <use id="zoomplus" xlink:href="#zoomPlus" x="17" y="9" onmousedown="handleZoom(evt,'in')"/>
                <use id="zoomminus" xlink:href="#zoomMin" x="42" y="9" onmousedown="handleZoom(evt,'out')"/>
                <use id="reset" xlink:href="#resetDef" x="30" y="36" onmousedown="handleReset()"/>
                <g id="arrowUp" xlink:href="#dirArrow" transform="translate(30 24)" onmousedown="handlePan(0,-1)">
                  <use xlink:href="#rim" fill="#404040">
                        <set attributeName="fill" to="#808080" begin="arrowUp.mouseover" end="arrowUp.mouseout"/>
                  </use>
                  <path fill="none" stroke="white" stroke-width="1.5" d="M0,-3.0v7 M-2.5,-0.5L0,-3.0L2.5,-0.5"/>
                </g>
                <g id="arrowRight" xlink:href="#dirArrow" transform="rotate(90) translate(36 -43)" onmousedown="handlePan(1,0)">
                  <use xlink:href="#rim" fill="#404040">
                        <set attributeName="fill" to="#808080" begin="arrowRight.mouseover" end="arrowRight.mouseout"/>
                  </use>
                  <path fill="none" stroke="white" stroke-width="1.5" d="M0,-3.0v7 M-2.5,-0.5L0,-3.0L2.5,-0.5"/>
                </g>
                <g id="arrowDown" xlink:href="#dirArrow" transform="rotate(180) translate(-30 -48)" onmousedown="handlePan(0,1)">
                  <use xlink:href="#rim" fill="#404040">
                        <set attributeName="fill" to="#808080" begin="arrowDown.mouseover" end="arrowDown.mouseout"/>
                  </use>
                  <path fill="none" stroke="white" stroke-width="1.5" d="M0,-3.0v7 M-2.5,-0.5L0,-3.0L2.5,-0.5"/>
                </g>
                <g id="arrowLeft" xlink:href="#dirArrow" transform="rotate(270) translate(-36 17)" onmousedown="handlePan(-1,0)">
                  <use xlink:href="#rim" fill="#404040">
                        <set attributeName="fill" to="#808080" begin="arrowLeft.mouseover" end="arrowLeft.mouseout"/>
                  </use>
                  <path fill="none" stroke="white" stroke-width="1.5" d="M0,-3.0v7 M-2.5,-0.5L0,-3.0L2.5,-0.5"/>
                </g>
        </g>
        <svg viewBox="0 0 15 15" width="100%" height="30px" preserveAspectRatio="xMaxYMin meet">
         <g id="arrow_out" transform="scale(0.3 0.3)">
          <a xlink:href="gauss__radau__impl_8hpp__incl_org.svg" target="_base">
           <rect id="button" ry="5" rx="5" y="6" x="6" height="38" width="38"
                fill="#f2f5e9" fill-opacity="0.5" stroke="#606060" stroke-width="1.0"/>
           <path id="arrow"
             d="M 11.500037,31.436501 C 11.940474,20.09759 22.043105,11.32322 32.158766,21.979434 L 37.068811,17.246167 C 37.068811,17.246167 37.088388,32 37.088388,32 L 22.160133,31.978069 C 22.160133,31.978069 26.997745,27.140456 26.997745,27.140456 C 18.528582,18.264221 13.291696,25.230495 11.500037,31.436501 z"
             style="fill:#404040;"/>
          </a>
         </g>
        </svg>
</svg>
