<?xml version="1.0" encoding="UTF-8" standalone="no"?>
<!DOCTYPE svg PUBLIC "-//W3C//DTD SVG 1.1//EN"
 "http://www.w3.org/Graphics/SVG/1.1/DTD/svg11.dtd">
<!-- Generated by graphviz version 2.38.0 (20140413.2041)
 -->
<!-- Title: examples/advection_diffusion/advection_diffusion_sweeper.hpp Pages: 1 -->
<svg width="439pt" height="117pt"
 viewBox="0.00 0.00 439.00 117.00" xmlns="http://www.w3.org/2000/svg" xmlns:xlink="http://www.w3.org/1999/xlink">
<g id="graph0" class="graph" transform="scale(1 1) rotate(0) translate(4 113)">
<title>examples/advection_diffusion/advection_diffusion_sweeper.hpp</title>
<polygon fill="white" stroke="none" points="-4,4 -4,-113 435,-113 435,4 -4,4"/>
<!-- Node1 -->
<g id="node1" class="node"><title>Node1</title>
<polygon fill="#bfbfbf" stroke="black" points="153,-67.5 153,-108.5 274,-108.5 274,-67.5 153,-67.5"/>
<text text-anchor="start" x="161" y="-96.5" font-family="Helvetica,sans-Serif" font-size="10.00">examples/advection</text>
<text text-anchor="start" x="161" y="-85.5" font-family="Helvetica,sans-Serif" font-size="10.00">_diffusion/advection</text>
<text text-anchor="middle" x="213.5" y="-74.5" font-family="Helvetica,sans-Serif" font-size="10.00">_diffusion_sweeper.hpp</text>
</g>
<!-- Node2 -->
<g id="node2" class="node"><title>Node2</title>
<g id="a_node2"><a xlink:href="../../d1/d49/mpi__pfasst_8cpp.html" target="_top" xlink:title="Advection&#45;Diffusion with MPI&#45;enabled PFASST. ">
<polygon fill="white" stroke="black" points="0,-0.5 0,-30.5 127,-30.5 127,-0.5 0,-0.5"/>
<text text-anchor="start" x="8" y="-18.5" font-family="Helvetica,sans-Serif" font-size="10.00">examples/advection</text>
<text text-anchor="middle" x="63.5" y="-7.5" font-family="Helvetica,sans-Serif" font-size="10.00">_diffusion/mpi_pfasst.cpp</text>
</a>
</g>
</g>
<!-- Node1&#45;&gt;Node2 -->
<g id="edge1" class="edge"><title>Node1&#45;&gt;Node2</title>
<path fill="none" stroke="midnightblue" d="M162.469,-63.0153C139.574,-52.2547 113.349,-39.9289 93.649,-30.67"/>
<polygon fill="midnightblue" stroke="midnightblue" points="161.178,-66.2757 171.717,-67.3618 164.155,-59.9406 161.178,-66.2757"/>
</g>
<!-- Node3 -->
<g id="node3" class="node"><title>Node3</title>
<g id="a_node3"><a xlink:href="../../d9/d86/serial__mlsdc_8cpp.html" target="_top" xlink:title="Advection&#45;Diffusion with serial MLSDC. ">
<polygon fill="white" stroke="black" points="145,-0.5 145,-30.5 282,-30.5 282,-0.5 145,-0.5"/>
<text text-anchor="start" x="153" y="-18.5" font-family="Helvetica,sans-Serif" font-size="10.00">examples/advection</text>
<text text-anchor="middle" x="213.5" y="-7.5" font-family="Helvetica,sans-Serif" font-size="10.00">_diffusion/serial_mlsdc.cpp</text>
</a>
</g>
</g>
<!-- Node1&#45;&gt;Node3 -->
<g id="edge2" class="edge"><title>Node1&#45;&gt;Node3</title>
<path fill="none" stroke="midnightblue" d="M213.5,-57.08C213.5,-48.0061 213.5,-38.4498 213.5,-30.8916"/>
<polygon fill="midnightblue" stroke="midnightblue" points="210,-57.3618 213.5,-67.3618 217,-57.3619 210,-57.3618"/>
</g>
<!-- Node4 -->
<g id="node4" class="node"><title>Node4</title>
<g id="a_node4"><a xlink:href="../../d4/df0/vanilla__sdc_8cpp.html" target="_top" xlink:title="Advection&#45;Diffusion with vanilla SDC. ">
<polygon fill="white" stroke="black" points="300,-0.5 300,-30.5 431,-30.5 431,-0.5 300,-0.5"/>
<text text-anchor="start" x="308" y="-18.5" font-family="Helvetica,sans-Serif" font-size="10.00">examples/advection</text>
<text text-anchor="middle" x="365.5" y="-7.5" font-family="Helvetica,sans-Serif" font-size="10.00">_diffusion/vanilla_sdc.cpp</text>
</a>
</g>
</g>
<!-- Node1&#45;&gt;Node4 -->
<g id="edge3" class="edge"><title>Node1&#45;&gt;Node4</title>
<path fill="none" stroke="midnightblue" d="M265.212,-63.0153C288.412,-52.2547 314.987,-39.9289 334.949,-30.67"/>
<polygon fill="midnightblue" stroke="midnightblue" points="263.44,-59.9791 255.84,-67.3618 266.385,-66.3293 263.44,-59.9791"/>
</g>
</g>
</svg>
