<?xml version="1.0" encoding="UTF-8" standalone="no"?>
<!DOCTYPE svg PUBLIC "-//W3C//DTD SVG 1.1//EN"
 "http://www.w3.org/Graphics/SVG/1.1/DTD/svg11.dtd">
<!-- Generated by graphviz version 2.38.0 (20140413.2041)
 -->
<!-- Title: pfasst::Controller&lt; time &gt; Pages: 1 -->
<!--zoomable 1085 -->
<svg id="main" version="1.1" xmlns="http://www.w3.org/2000/svg" xmlns:xlink="http://www.w3.org/1999/xlink" xml:space="preserve" onload="init(evt)">
<style type="text/css"><![CDATA[
.edge:hover path { stroke: red; }
.edge:hover polygon { stroke: red; fill: red; }
]]></style>
<script type="text/javascript"><![CDATA[
var edges = document.getElementsByTagName('g');
if (edges && edges.length) {
  for (var i=0;i<edges.length;i++) {
    if (edges[i].id.substr(0,4)=='edge') {
      edges[i].setAttribute('class','edge');
    }
  }
}
]]></script>
        <defs>
                <circle id="rim" cx="0" cy="0" r="7"/>
                <circle id="rim2" cx="0" cy="0" r="3.5"/>
                <g id="zoomPlus">
                        <use xlink:href="#rim" fill="#404040">
                                <set attributeName="fill" to="#808080" begin="zoomplus.mouseover" end="zoomplus.mouseout"/>
                        </use>
                        <path d="M-4,0h8M0,-4v8" fill="none" stroke="white" stroke-width="1.5" pointer-events="none"/>
                </g>
                <g id="zoomMin">
                        <use xlink:href="#rim" fill="#404040">
                                <set attributeName="fill" to="#808080" begin="zoomminus.mouseover" end="zoomminus.mouseout"/>
                        </use>
                        <path d="M-4,0h8" fill="none" stroke="white" stroke-width="1.5" pointer-events="none"/>
                </g>
                <g id="dirArrow">
                        <path fill="none" stroke="white" stroke-width="1.5" d="M0,-3.0v7 M-2.5,-0.5L0,-3.0L2.5,-0.5"/>
                </g>
               <g id="resetDef">
                       <use xlink:href="#rim2" fill="#404040">
                               <set attributeName="fill" to="#808080" begin="reset.mouseover" end="reset.mouseout"/>
                       </use>
               </g>
        </defs>

<script type="text/javascript">
var viewWidth = 286;
var viewHeight = 1085;
var sectionId = 'dynsection-1';
</script>
<script xlink:href="../../svgpan.js"/>
<svg id="graph" class="graph">
<g id="viewport">
<title>pfasst::Controller&lt; time &gt;</title>
<polygon fill="white" stroke="none" points="-4,4 -4,-1081 282,-1081 282,4 -4,4"/>
<!-- Node1 -->
<g id="node1" class="node"><title>Node1</title>
<polygon fill="#bfbfbf" stroke="black" points="75,-0.5 75,-728.5 191,-728.5 191,-0.5 75,-0.5"/>
<text text-anchor="start" x="83" y="-716.5" font-family="Helvetica,sans-Serif" font-size="10.00">pfasst::Controller</text>
<text text-anchor="middle" x="133" y="-705.5" font-family="Helvetica,sans-Serif" font-size="10.00">&lt; time &gt;</text>
<polyline fill="none" stroke="black" points="75,-698.5 191,-698.5 "/>
<text text-anchor="start" x="83" y="-686.5" font-family="Helvetica,sans-Serif" font-size="10.00"># step</text>
<text text-anchor="start" x="83" y="-675.5" font-family="Helvetica,sans-Serif" font-size="10.00"># iteration</text>
<text text-anchor="start" x="83" y="-664.5" font-family="Helvetica,sans-Serif" font-size="10.00"># max_iterations</text>
<text text-anchor="start" x="83" y="-653.5" font-family="Helvetica,sans-Serif" font-size="10.00"># t</text>
<text text-anchor="start" x="83" y="-642.5" font-family="Helvetica,sans-Serif" font-size="10.00"># dt</text>
<text text-anchor="start" x="83" y="-631.5" font-family="Helvetica,sans-Serif" font-size="10.00"># tend</text>
<polyline fill="none" stroke="black" points="75,-624.5 191,-624.5 "/>
<text text-anchor="start" x="83" y="-612.5" font-family="Helvetica,sans-Serif" font-size="10.00">+ Controller()</text>
<text text-anchor="start" x="83" y="-601.5" font-family="Helvetica,sans-Serif" font-size="10.00">+ ~Controller()</text>
<text text-anchor="start" x="83" y="-590.5" font-family="Helvetica,sans-Serif" font-size="10.00">+ set_options()</text>
<text text-anchor="start" x="83" y="-579.5" font-family="Helvetica,sans-Serif" font-size="10.00">+ setup()</text>
<text text-anchor="start" x="83" y="-568.5" font-family="Helvetica,sans-Serif" font-size="10.00">+ set_duration()</text>
<text text-anchor="start" x="83" y="-557.5" font-family="Helvetica,sans-Serif" font-size="10.00">+ add_level()</text>
<text text-anchor="start" x="83" y="-546.5" font-family="Helvetica,sans-Serif" font-size="10.00">+ nlevels()</text>
<text text-anchor="start" x="83" y="-535.5" font-family="Helvetica,sans-Serif" font-size="10.00">+ get_level()</text>
<text text-anchor="start" x="83" y="-524.5" font-family="Helvetica,sans-Serif" font-size="10.00">+ get_finest()</text>
<text text-anchor="start" x="83" y="-513.5" font-family="Helvetica,sans-Serif" font-size="10.00">+ get_coarsest()</text>
<text text-anchor="start" x="83" y="-502.5" font-family="Helvetica,sans-Serif" font-size="10.00">+ get_transfer()</text>
<text text-anchor="start" x="83" y="-491.5" font-family="Helvetica,sans-Serif" font-size="10.00">+ get_step()</text>
<text text-anchor="start" x="83" y="-480.5" font-family="Helvetica,sans-Serif" font-size="10.00">+ set_step()</text>
<text text-anchor="start" x="83" y="-469.5" font-family="Helvetica,sans-Serif" font-size="10.00">+ get_step_size()</text>
<text text-anchor="start" x="83" y="-458.5" font-family="Helvetica,sans-Serif" font-size="10.00">+ get_dt()</text>
<text text-anchor="start" x="83" y="-447.5" font-family="Helvetica,sans-Serif" font-size="10.00">+ get_time()</text>
<text text-anchor="start" x="83" y="-436.5" font-family="Helvetica,sans-Serif" font-size="10.00">+ get_t()</text>
<text text-anchor="start" x="83" y="-425.5" font-family="Helvetica,sans-Serif" font-size="10.00">+ advance_time()</text>
<text text-anchor="start" x="83" y="-414.5" font-family="Helvetica,sans-Serif" font-size="10.00">+ get_end_time()</text>
<text text-anchor="start" x="83" y="-403.5" font-family="Helvetica,sans-Serif" font-size="10.00">+ get_iteration()</text>
<text text-anchor="start" x="83" y="-392.5" font-family="Helvetica,sans-Serif" font-size="10.00">+ set_iteration()</text>
<text text-anchor="start" x="83" y="-381.5" font-family="Helvetica,sans-Serif" font-size="10.00">+ advance_iteration()</text>
<text text-anchor="start" x="83" y="-370.5" font-family="Helvetica,sans-Serif" font-size="10.00">+ get_max_iterations()</text>
<text text-anchor="start" x="83" y="-359.5" font-family="Helvetica,sans-Serif" font-size="10.00">+ finest()</text>
<text text-anchor="start" x="83" y="-348.5" font-family="Helvetica,sans-Serif" font-size="10.00">+ coarsest()</text>
<text text-anchor="start" x="83" y="-337.5" font-family="Helvetica,sans-Serif" font-size="10.00">* step</text>
<text text-anchor="start" x="83" y="-326.5" font-family="Helvetica,sans-Serif" font-size="10.00">* iteration</text>
<text text-anchor="start" x="83" y="-315.5" font-family="Helvetica,sans-Serif" font-size="10.00">* max_iterations</text>
<text text-anchor="start" x="83" y="-304.5" font-family="Helvetica,sans-Serif" font-size="10.00">* t</text>
<text text-anchor="start" x="83" y="-293.5" font-family="Helvetica,sans-Serif" font-size="10.00">* dt</text>
<text text-anchor="start" x="83" y="-282.5" font-family="Helvetica,sans-Serif" font-size="10.00">* tend</text>
<text text-anchor="start" x="83" y="-271.5" font-family="Helvetica,sans-Serif" font-size="10.00">* Controller()</text>
<text text-anchor="start" x="83" y="-260.5" font-family="Helvetica,sans-Serif" font-size="10.00">* ~Controller()</text>
<text text-anchor="start" x="83" y="-249.5" font-family="Helvetica,sans-Serif" font-size="10.00">* set_options()</text>
<text text-anchor="start" x="83" y="-238.5" font-family="Helvetica,sans-Serif" font-size="10.00">* setup()</text>
<text text-anchor="start" x="83" y="-227.5" font-family="Helvetica,sans-Serif" font-size="10.00">* set_duration()</text>
<text text-anchor="start" x="83" y="-216.5" font-family="Helvetica,sans-Serif" font-size="10.00">* add_level()</text>
<text text-anchor="start" x="83" y="-205.5" font-family="Helvetica,sans-Serif" font-size="10.00">* nlevels()</text>
<text text-anchor="start" x="83" y="-194.5" font-family="Helvetica,sans-Serif" font-size="10.00">* get_level()</text>
<text text-anchor="start" x="83" y="-183.5" font-family="Helvetica,sans-Serif" font-size="10.00">* get_finest()</text>
<text text-anchor="start" x="83" y="-172.5" font-family="Helvetica,sans-Serif" font-size="10.00">* get_coarsest()</text>
<text text-anchor="start" x="83" y="-161.5" font-family="Helvetica,sans-Serif" font-size="10.00">* get_transfer()</text>
<text text-anchor="start" x="83" y="-150.5" font-family="Helvetica,sans-Serif" font-size="10.00">* get_step()</text>
<text text-anchor="start" x="83" y="-139.5" font-family="Helvetica,sans-Serif" font-size="10.00">* set_step()</text>
<text text-anchor="start" x="83" y="-128.5" font-family="Helvetica,sans-Serif" font-size="10.00">* get_step_size()</text>
<text text-anchor="start" x="83" y="-117.5" font-family="Helvetica,sans-Serif" font-size="10.00">* get_dt()</text>
<text text-anchor="start" x="83" y="-106.5" font-family="Helvetica,sans-Serif" font-size="10.00">* get_time()</text>
<text text-anchor="start" x="83" y="-95.5" font-family="Helvetica,sans-Serif" font-size="10.00">* get_t()</text>
<text text-anchor="start" x="83" y="-84.5" font-family="Helvetica,sans-Serif" font-size="10.00">* advance_time()</text>
<text text-anchor="start" x="83" y="-73.5" font-family="Helvetica,sans-Serif" font-size="10.00">* get_end_time()</text>
<text text-anchor="start" x="83" y="-62.5" font-family="Helvetica,sans-Serif" font-size="10.00">* get_iteration()</text>
<text text-anchor="start" x="83" y="-51.5" font-family="Helvetica,sans-Serif" font-size="10.00">* set_iteration()</text>
<text text-anchor="start" x="83" y="-40.5" font-family="Helvetica,sans-Serif" font-size="10.00">* advance_iteration()</text>
<text text-anchor="start" x="83" y="-29.5" font-family="Helvetica,sans-Serif" font-size="10.00">* get_max_iterations()</text>
<text text-anchor="start" x="83" y="-18.5" font-family="Helvetica,sans-Serif" font-size="10.00">* finest()</text>
<text text-anchor="start" x="83" y="-7.5" font-family="Helvetica,sans-Serif" font-size="10.00">* coarsest()</text>
</g>
<!-- Node2 -->
<g id="node2" class="node"><title>Node2</title>
<polygon fill="white" stroke="#bfbfbf" points="0,-776.5 0,-855.5 116,-855.5 116,-776.5 0,-776.5"/>
<text text-anchor="start" x="8" y="-843.5" font-family="Helvetica,sans-Serif" font-size="10.00">std::deque&lt; shared</text>
<text text-anchor="start" x="8" y="-832.5" font-family="Helvetica,sans-Serif" font-size="10.00">_ptr&lt; pfasst::ISweeper</text>
<text text-anchor="middle" x="58" y="-821.5" font-family="Helvetica,sans-Serif" font-size="10.00">&lt; time &gt; &gt; &gt;</text>
<polyline fill="none" stroke="#bfbfbf" points="0,-814.5 116,-814.5 "/>
<text text-anchor="start" x="8" y="-802.5" font-family="Helvetica,sans-Serif" font-size="10.00">+ elements</text>
<polyline fill="none" stroke="#bfbfbf" points="0,-795.5 116,-795.5 "/>
<text text-anchor="middle" x="58" y="-783.5" font-family="Helvetica,sans-Serif" font-size="10.00"> </text>
</g>
<!-- Node2&#45;&gt;Node1 -->
<g id="edge1" class="edge"><title>Node2&#45;&gt;Node1</title>
<path fill="none" stroke="#404040" d="M64.4594,-776.287C66.8097,-762.201 69.6967,-744.898 72.9425,-725.445"/>
<polygon fill="none" stroke="#404040" points="72.9757,-725.245 70.0177,-718.669 74.9507,-713.409 77.9086,-719.986 72.9757,-725.245"/>
<text text-anchor="middle" x="87" y="-750" font-family="Helvetica,sans-Serif" font-size="10.00"> #levels</text>
</g>
<!-- Node3 -->
<g id="node3" class="node"><title>Node3</title>
<g id="a_node3"><a xlink:title="STL class. ">
<polygon fill="white" stroke="#bfbfbf" points="76.5,-914.5 76.5,-971.5 167.5,-971.5 167.5,-914.5 76.5,-914.5"/>
<text text-anchor="middle" x="122" y="-959.5" font-family="Helvetica,sans-Serif" font-size="10.00">std::deque&lt; T &gt;</text>
<polyline fill="none" stroke="#bfbfbf" points="76.5,-952.5 167.5,-952.5 "/>
<text text-anchor="middle" x="122" y="-940.5" font-family="Helvetica,sans-Serif" font-size="10.00"> </text>
<polyline fill="none" stroke="#bfbfbf" points="76.5,-933.5 167.5,-933.5 "/>
<text text-anchor="middle" x="122" y="-921.5" font-family="Helvetica,sans-Serif" font-size="10.00"> </text>
</a>
</g>
</g>
<!-- Node3&#45;&gt;Node2 -->
<g id="edge2" class="edge"><title>Node3&#45;&gt;Node2</title>
<path fill="none" stroke="orange" d="M70.2923,-906.781C67.4957,-903.408 65.013,-899.812 63,-896 56.5822,-883.848 54.4153,-869.135 54.1577,-855.717"/>
<polygon fill="orange" stroke="orange" points="67.9122,-909.359 77.3147,-914.242 73.0095,-904.561 67.9122,-909.359"/>
<text text-anchor="start" x="63" y="-888" font-family="Helvetica,sans-Serif" font-size="10.00"> &lt; shared_ptr&lt; pfasst</text>
<text text-anchor="middle" x="115" y="-877" font-family="Helvetica,sans-Serif" font-size="10.00">::ISweeper&lt; time &gt; &gt; &gt;</text>
</g>
<!-- Node5 -->
<g id="node5" class="node"><title>Node5</title>
<polygon fill="white" stroke="#bfbfbf" points="134,-776.5 134,-855.5 248,-855.5 248,-776.5 134,-776.5"/>
<text text-anchor="start" x="142" y="-843.5" font-family="Helvetica,sans-Serif" font-size="10.00">std::deque&lt; shared</text>
<text text-anchor="start" x="142" y="-832.5" font-family="Helvetica,sans-Serif" font-size="10.00">_ptr&lt; pfasst::ITransfer</text>
<text text-anchor="middle" x="191" y="-821.5" font-family="Helvetica,sans-Serif" font-size="10.00">&lt; time &gt; &gt; &gt;</text>
<polyline fill="none" stroke="#bfbfbf" points="134,-814.5 248,-814.5 "/>
<text text-anchor="start" x="142" y="-802.5" font-family="Helvetica,sans-Serif" font-size="10.00">+ elements</text>
<polyline fill="none" stroke="#bfbfbf" points="134,-795.5 248,-795.5 "/>
<text text-anchor="middle" x="191" y="-783.5" font-family="Helvetica,sans-Serif" font-size="10.00"> </text>
</g>
<!-- Node3&#45;&gt;Node5 -->
<g id="edge5" class="edge"><title>Node3&#45;&gt;Node5</title>
<path fill="none" stroke="orange" d="M159.681,-906.601C162.365,-903.176 164.855,-899.623 167,-896 174.304,-883.666 179.564,-868.914 183.262,-855.514"/>
<polygon fill="orange" stroke="orange" points="156.923,-904.442 153.13,-914.335 162.264,-908.967 156.923,-904.442"/>
<text text-anchor="start" x="176" y="-888" font-family="Helvetica,sans-Serif" font-size="10.00"> &lt; shared_ptr&lt; pfasst</text>
<text text-anchor="middle" x="227" y="-877" font-family="Helvetica,sans-Serif" font-size="10.00">::ITransfer&lt; time &gt; &gt; &gt;</text>
</g>
<!-- Node4 -->
<g id="node4" class="node"><title>Node4</title>
<polygon fill="white" stroke="#bfbfbf" points="107.5,-1019.5 107.5,-1076.5 136.5,-1076.5 136.5,-1019.5 107.5,-1019.5"/>
<text text-anchor="middle" x="122" y="-1064.5" font-family="Helvetica,sans-Serif" font-size="10.00">T</text>
<polyline fill="none" stroke="#bfbfbf" points="107.5,-1057.5 136.5,-1057.5 "/>
<text text-anchor="middle" x="122" y="-1045.5" font-family="Helvetica,sans-Serif" font-size="10.00"> </text>
<polyline fill="none" stroke="#bfbfbf" points="107.5,-1038.5 136.5,-1038.5 "/>
<text text-anchor="middle" x="122" y="-1026.5" font-family="Helvetica,sans-Serif" font-size="10.00"> </text>
</g>
<!-- Node4&#45;&gt;Node3 -->
<g id="edge3" class="edge"><title>Node4&#45;&gt;Node3</title>
<path fill="none" stroke="#404040" d="M122,-1019.4C122,-1008.55 122,-995.873 122,-984.049"/>
<polygon fill="none" stroke="#404040" points="122,-983.678 118,-977.678 122,-971.678 126,-977.678 122,-983.678"/>
<text text-anchor="middle" x="147.5" y="-993" font-family="Helvetica,sans-Serif" font-size="10.00"> +elements</text>
</g>
<!-- Node5&#45;&gt;Node1 -->
<g id="edge4" class="edge"><title>Node5&#45;&gt;Node1</title>
<path fill="none" stroke="#404040" d="M186.005,-776.287C184.676,-765.993 183.127,-753.981 181.409,-740.667"/>
<polygon fill="none" stroke="#404040" points="181.393,-740.543 176.658,-735.105 179.857,-728.642 184.592,-734.081 181.393,-740.543"/>
<text text-anchor="middle" x="203" y="-750" font-family="Helvetica,sans-Serif" font-size="10.00"> #transfer</text>
</g>
</g>
</svg>
        <g id="navigator" transform="translate(0 0)" fill="#404254">
                <rect fill="#f2f5e9" fill-opacity="0.5" stroke="#606060" stroke-width=".5" x="0" y="0" width="60" height="60"/>
                <use id="zoomplus" xlink:href="#zoomPlus" x="17" y="9" onmousedown="handleZoom(evt,'in')"/>
                <use id="zoomminus" xlink:href="#zoomMin" x="42" y="9" onmousedown="handleZoom(evt,'out')"/>
                <use id="reset" xlink:href="#resetDef" x="30" y="36" onmousedown="handleReset()"/>
                <g id="arrowUp" xlink:href="#dirArrow" transform="translate(30 24)" onmousedown="handlePan(0,-1)">
                  <use xlink:href="#rim" fill="#404040">
                        <set attributeName="fill" to="#808080" begin="arrowUp.mouseover" end="arrowUp.mouseout"/>
                  </use>
                  <path fill="none" stroke="white" stroke-width="1.5" d="M0,-3.0v7 M-2.5,-0.5L0,-3.0L2.5,-0.5"/>
                </g>
                <g id="arrowRight" xlink:href="#dirArrow" transform="rotate(90) translate(36 -43)" onmousedown="handlePan(1,0)">
                  <use xlink:href="#rim" fill="#404040">
                        <set attributeName="fill" to="#808080" begin="arrowRight.mouseover" end="arrowRight.mouseout"/>
                  </use>
                  <path fill="none" stroke="white" stroke-width="1.5" d="M0,-3.0v7 M-2.5,-0.5L0,-3.0L2.5,-0.5"/>
                </g>
                <g id="arrowDown" xlink:href="#dirArrow" transform="rotate(180) translate(-30 -48)" onmousedown="handlePan(0,1)">
                  <use xlink:href="#rim" fill="#404040">
                        <set attributeName="fill" to="#808080" begin="arrowDown.mouseover" end="arrowDown.mouseout"/>
                  </use>
                  <path fill="none" stroke="white" stroke-width="1.5" d="M0,-3.0v7 M-2.5,-0.5L0,-3.0L2.5,-0.5"/>
                </g>
                <g id="arrowLeft" xlink:href="#dirArrow" transform="rotate(270) translate(-36 17)" onmousedown="handlePan(-1,0)">
                  <use xlink:href="#rim" fill="#404040">
                        <set attributeName="fill" to="#808080" begin="arrowLeft.mouseover" end="arrowLeft.mouseout"/>
                  </use>
                  <path fill="none" stroke="white" stroke-width="1.5" d="M0,-3.0v7 M-2.5,-0.5L0,-3.0L2.5,-0.5"/>
                </g>
        </g>
        <svg viewBox="0 0 15 15" width="100%" height="30px" preserveAspectRatio="xMaxYMin meet">
         <g id="arrow_out" transform="scale(0.3 0.3)">
          <a xlink:href="classpfasst_1_1Controller__coll__graph_org.svg" target="_base">
           <rect id="button" ry="5" rx="5" y="6" x="6" height="38" width="38"
                fill="#f2f5e9" fill-opacity="0.5" stroke="#606060" stroke-width="1.0"/>
           <path id="arrow"
             d="M 11.500037,31.436501 C 11.940474,20.09759 22.043105,11.32322 32.158766,21.979434 L 37.068811,17.246167 C 37.068811,17.246167 37.088388,32 37.088388,32 L 22.160133,31.978069 C 22.160133,31.978069 26.997745,27.140456 26.997745,27.140456 C 18.528582,18.264221 13.291696,25.230495 11.500037,31.436501 z"
             style="fill:#404040;"/>
          </a>
         </g>
        </svg>
</svg>
