<?xml version="1.0" encoding="UTF-8" standalone="no"?>
<!DOCTYPE svg PUBLIC "-//W3C//DTD SVG 1.1//EN"
 "http://www.w3.org/Graphics/SVG/1.1/DTD/svg11.dtd">
<!-- Generated by graphviz version 2.38.0 (20140413.2041)
 -->
<!-- Title: include/pfasst/quadrature/gauss_legendre.hpp Pages: 1 -->
<svg width="885pt" height="464pt"
 viewBox="0.00 0.00 885.11 464.00" xmlns="http://www.w3.org/2000/svg" xmlns:xlink="http://www.w3.org/1999/xlink">
<g id="graph0" class="graph" transform="scale(1 1) rotate(0) translate(4 460)">
<title>include/pfasst/quadrature/gauss_legendre.hpp</title>
<polygon fill="white" stroke="none" points="-4,4 -4,-460 881.113,-460 881.113,4 -4,4"/>
<!-- Node1 -->
<g id="node1" class="node"><title>Node1</title>
<polygon fill="#bfbfbf" stroke="black" points="143,-425.5 143,-455.5 273,-455.5 273,-425.5 143,-425.5"/>
<text text-anchor="start" x="151" y="-443.5" font-family="Helvetica,sans-Serif" font-size="10.00">include/pfasst/quadrature</text>
<text text-anchor="middle" x="208" y="-432.5" font-family="Helvetica,sans-Serif" font-size="10.00">/gauss_legendre.hpp</text>
</g>
<!-- Node2 -->
<g id="node2" class="node"><title>Node2</title>
<g id="a_node2"><a xlink:href="../../df/dea/quadrature_2interface_8hpp.html" target="_top" xlink:title="pfasst/quadrature/interface.hpp">
<polygon fill="white" stroke="black" points="321,-364 321,-383 475,-383 475,-364 321,-364"/>
<text text-anchor="middle" x="398" y="-371" font-family="Helvetica,sans-Serif" font-size="10.00">pfasst/quadrature/interface.hpp</text>
</a>
</g>
</g>
<!-- Node1&#45;&gt;Node2 -->
<g id="edge1" class="edge"><title>Node1&#45;&gt;Node2</title>
<path fill="none" stroke="midnightblue" d="M249.227,-425.396C283.302,-413.739 331.14,-397.373 363.285,-386.376"/>
<polygon fill="midnightblue" stroke="midnightblue" points="364.805,-389.556 373.133,-383.007 362.539,-382.932 364.805,-389.556"/>
</g>
<!-- Node30 -->
<g id="node30" class="node"><title>Node30</title>
<g id="a_node30"><a xlink:href="../../d5/d09/gauss__legendre__impl_8hpp.html" target="_top" xlink:title="pfasst/quadrature/gauss\l_legendre_impl.hpp">
<polygon fill="white" stroke="black" points="145.5,-358.5 145.5,-388.5 270.5,-388.5 270.5,-358.5 145.5,-358.5"/>
<text text-anchor="start" x="153.5" y="-376.5" font-family="Helvetica,sans-Serif" font-size="10.00">pfasst/quadrature/gauss</text>
<text text-anchor="middle" x="208" y="-365.5" font-family="Helvetica,sans-Serif" font-size="10.00">_legendre_impl.hpp</text>
</a>
</g>
</g>
<!-- Node1&#45;&gt;Node30 -->
<g id="edge43" class="edge"><title>Node1&#45;&gt;Node30</title>
<path fill="none" stroke="midnightblue" d="M202.322,-425.396C201.294,-417.56 201.005,-407.596 201.456,-398.565"/>
<polygon fill="midnightblue" stroke="midnightblue" points="204.945,-398.842 202.325,-388.577 197.972,-398.236 204.945,-398.842"/>
</g>
<!-- Node3 -->
<g id="node3" class="node"><title>Node3</title>
<polygon fill="white" stroke="#bfbfbf" points="447,-168.5 447,-187.5 497,-187.5 497,-168.5 447,-168.5"/>
<text text-anchor="middle" x="472" y="-175.5" font-family="Helvetica,sans-Serif" font-size="10.00">cassert</text>
</g>
<!-- Node2&#45;&gt;Node3 -->
<g id="edge2" class="edge"><title>Node2&#45;&gt;Node3</title>
<path fill="none" stroke="midnightblue" d="M432.076,-363.868C453.349,-356.525 479.07,-343.624 492,-322 515.717,-282.335 494.902,-225.637 481.394,-197.01"/>
<polygon fill="midnightblue" stroke="midnightblue" points="484.417,-195.226 476.845,-187.816 478.143,-198.331 484.417,-195.226"/>
</g>
<!-- Node4 -->
<g id="node4" class="node"><title>Node4</title>
<polygon fill="white" stroke="#bfbfbf" points="189,-230 189,-249 233,-249 233,-230 189,-230"/>
<text text-anchor="middle" x="211" y="-237" font-family="Helvetica,sans-Serif" font-size="10.00">vector</text>
</g>
<!-- Node2&#45;&gt;Node4 -->
<g id="edge3" class="edge"><title>Node2&#45;&gt;Node4</title>
<path fill="none" stroke="midnightblue" d="M417.298,-363.81C446.969,-349.283 498.071,-318.903 475,-291 445.977,-255.899 307.713,-244.966 243.682,-241.753"/>
<polygon fill="midnightblue" stroke="midnightblue" points="243.503,-238.24 233.35,-241.269 243.176,-245.233 243.503,-238.24"/>
</g>
<!-- Node5 -->
<g id="node5" class="node"><title>Node5</title>
<polygon fill="white" stroke="#bfbfbf" points="236.5,-297 236.5,-316 311.5,-316 311.5,-297 236.5,-297"/>
<text text-anchor="middle" x="274" y="-304" font-family="Helvetica,sans-Serif" font-size="10.00">Eigen/Dense</text>
</g>
<!-- Node2&#45;&gt;Node5 -->
<g id="edge4" class="edge"><title>Node2&#45;&gt;Node5</title>
<path fill="none" stroke="midnightblue" d="M381.534,-363.869C360.596,-352.893 324.219,-333.824 299.637,-320.938"/>
<polygon fill="midnightblue" stroke="midnightblue" points="301.016,-317.71 290.534,-316.167 297.766,-323.91 301.016,-317.71"/>
</g>
<!-- Node6 -->
<g id="node6" class="node"><title>Node6</title>
<g id="a_node6"><a xlink:href="../../d5/d82/globals_8hpp.html" target="_top" xlink:title="pfasst/globals.hpp">
<polygon fill="white" stroke="black" points="515.5,-168.5 515.5,-187.5 612.5,-187.5 612.5,-168.5 515.5,-168.5"/>
<text text-anchor="middle" x="564" y="-175.5" font-family="Helvetica,sans-Serif" font-size="10.00">pfasst/globals.hpp</text>
</a>
</g>
</g>
<!-- Node2&#45;&gt;Node6 -->
<g id="edge5" class="edge"><title>Node2&#45;&gt;Node6</title>
<path fill="none" stroke="midnightblue" d="M435.876,-363.958C460.532,-356.612 491.758,-343.673 512,-322 545.27,-286.379 557.594,-227.822 561.883,-197.894"/>
<polygon fill="midnightblue" stroke="midnightblue" points="565.401,-197.973 563.196,-187.61 558.457,-197.086 565.401,-197.973"/>
</g>
<!-- Node7 -->
<g id="node7" class="node"><title>Node7</title>
<g id="a_node7"><a xlink:href="../../d1/d1b/interfaces_8hpp.html" target="_top" xlink:title="interfaces for SDC/MLSDC/PFASST algorithms. ">
<polygon fill="white" stroke="black" points="667.5,-297 667.5,-316 774.5,-316 774.5,-297 667.5,-297"/>
<text text-anchor="middle" x="721" y="-304" font-family="Helvetica,sans-Serif" font-size="10.00">pfasst/interfaces.hpp</text>
</a>
</g>
</g>
<!-- Node2&#45;&gt;Node7 -->
<g id="edge6" class="edge"><title>Node2&#45;&gt;Node7</title>
<path fill="none" stroke="midnightblue" d="M440.559,-363.936C499.341,-352.106 605.297,-330.784 668.792,-318.006"/>
<polygon fill="midnightblue" stroke="midnightblue" points="669.491,-321.436 678.604,-316.032 668.11,-314.573 669.491,-321.436"/>
</g>
<!-- Node24 -->
<g id="node24" class="node"><title>Node24</title>
<g id="a_node24"><a xlink:href="../../d0/d3e/polynomial_8hpp.html" target="_top" xlink:title="pfasst/quadrature/polynomial.hpp">
<polygon fill="white" stroke="black" points="16,-297 16,-316 180,-316 180,-297 16,-297"/>
<text text-anchor="middle" x="98" y="-304" font-family="Helvetica,sans-Serif" font-size="10.00">pfasst/quadrature/polynomial.hpp</text>
</a>
</g>
</g>
<!-- Node2&#45;&gt;Node24 -->
<g id="edge33" class="edge"><title>Node2&#45;&gt;Node24</title>
<path fill="none" stroke="midnightblue" d="M358.472,-363.936C304.175,-352.171 206.544,-331.018 147.466,-318.218"/>
<polygon fill="midnightblue" stroke="midnightblue" points="148.13,-314.78 137.616,-316.083 146.648,-321.622 148.13,-314.78"/>
</g>
<!-- Node29 -->
<g id="node29" class="node"><title>Node29</title>
<g id="a_node29"><a xlink:href="../../de/da5/quadrature_2interface__impl_8hpp.html" target="_top" xlink:title="pfasst/quadrature/interface\l_impl.hpp">
<polygon fill="white" stroke="black" points="330,-291.5 330,-321.5 466,-321.5 466,-291.5 330,-291.5"/>
<text text-anchor="start" x="338" y="-309.5" font-family="Helvetica,sans-Serif" font-size="10.00">pfasst/quadrature/interface</text>
<text text-anchor="middle" x="398" y="-298.5" font-family="Helvetica,sans-Serif" font-size="10.00">_impl.hpp</text>
</a>
</g>
</g>
<!-- Node2&#45;&gt;Node29 -->
<g id="edge41" class="edge"><title>Node2&#45;&gt;Node29</title>
<path fill="none" stroke="midnightblue" d="M393.211,-363.734C391.487,-355.541 390.9,-342.923 391.449,-331.714"/>
<polygon fill="midnightblue" stroke="midnightblue" points="394.95,-331.853 392.324,-321.589 387.976,-331.251 394.95,-331.853"/>
</g>
<!-- Node8 -->
<g id="node8" class="node"><title>Node8</title>
<polygon fill="white" stroke="#bfbfbf" points="793.5,-168.5 793.5,-187.5 846.5,-187.5 846.5,-168.5 793.5,-168.5"/>
<text text-anchor="middle" x="820" y="-175.5" font-family="Helvetica,sans-Serif" font-size="10.00">memory</text>
</g>
<!-- Node7&#45;&gt;Node8 -->
<g id="edge7" class="edge"><title>Node7&#45;&gt;Node8</title>
<path fill="none" stroke="midnightblue" d="M727.805,-296.805C744.054,-276.043 785.351,-223.274 806.727,-195.96"/>
<polygon fill="midnightblue" stroke="midnightblue" points="809.741,-197.788 813.148,-187.756 804.228,-193.474 809.741,-197.788"/>
</g>
<!-- Node9 -->
<g id="node9" class="node"><title>Node9</title>
<polygon fill="white" stroke="#bfbfbf" points="796,-230 796,-249 856,-249 856,-230 796,-230"/>
<text text-anchor="middle" x="826" y="-237" font-family="Helvetica,sans-Serif" font-size="10.00">stdexcept</text>
</g>
<!-- Node7&#45;&gt;Node9 -->
<g id="edge8" class="edge"><title>Node7&#45;&gt;Node9</title>
<path fill="none" stroke="midnightblue" d="M735.161,-296.734C752.715,-285.867 782.843,-267.216 803.557,-254.393"/>
<polygon fill="midnightblue" stroke="midnightblue" points="805.403,-257.367 812.064,-249.127 801.719,-251.415 805.403,-257.367"/>
</g>
<!-- Node10 -->
<g id="node10" class="node"><title>Node10</title>
<polygon fill="white" stroke="#bfbfbf" points="744.5,-56.5 744.5,-75.5 785.5,-75.5 785.5,-56.5 744.5,-56.5"/>
<text text-anchor="middle" x="765" y="-63.5" font-family="Helvetica,sans-Serif" font-size="10.00">string</text>
</g>
<!-- Node7&#45;&gt;Node10 -->
<g id="edge9" class="edge"><title>Node7&#45;&gt;Node10</title>
<path fill="none" stroke="midnightblue" d="M774.669,-301.635C806.549,-296.251 844.62,-283.744 865,-255 907.342,-195.28 824.344,-115.461 784.579,-82.3707"/>
<polygon fill="midnightblue" stroke="midnightblue" points="786.337,-79.2894 776.371,-75.6936 781.92,-84.7194 786.337,-79.2894"/>
</g>
<!-- Node11 -->
<g id="node11" class="node"><title>Node11</title>
<g id="a_node11"><a xlink:href="../../d8/dc4/interfaces__impl_8hpp.html" target="_top" xlink:title="pfasst/interfaces_impl.hpp">
<polygon fill="white" stroke="black" points="608.5,-230 608.5,-249 739.5,-249 739.5,-230 608.5,-230"/>
<text text-anchor="middle" x="674" y="-237" font-family="Helvetica,sans-Serif" font-size="10.00">pfasst/interfaces_impl.hpp</text>
</a>
</g>
</g>
<!-- Node7&#45;&gt;Node11 -->
<g id="edge10" class="edge"><title>Node7&#45;&gt;Node11</title>
<path fill="none" stroke="midnightblue" d="M709.873,-296.734C700.684,-286.89 688.517,-270.66 680.688,-258.159"/>
<polygon fill="midnightblue" stroke="midnightblue" points="683.507,-256.041 675.479,-249.127 677.443,-259.539 683.507,-256.041"/>
</g>
<!-- Node11&#45;&gt;Node3 -->
<g id="edge12" class="edge"><title>Node11&#45;&gt;Node3</title>
<path fill="none" stroke="midnightblue" d="M645.058,-229.975C608.529,-219.215 545.759,-200.726 506.696,-189.22"/>
<polygon fill="midnightblue" stroke="midnightblue" points="507.648,-185.852 497.067,-186.384 505.671,-192.567 507.648,-185.852"/>
</g>
<!-- Node11&#45;&gt;Node6 -->
<g id="edge15" class="edge"><title>Node11&#45;&gt;Node6</title>
<path fill="none" stroke="midnightblue" d="M658.24,-229.975C640.024,-220.122 609.827,-203.788 588.532,-192.27"/>
<polygon fill="midnightblue" stroke="midnightblue" points="590.192,-189.188 579.731,-187.509 586.862,-195.345 590.192,-189.188"/>
</g>
<!-- Node11&#45;&gt;Node7 -->
<g id="edge11" class="edge"><title>Node11&#45;&gt;Node7</title>
<path fill="none" stroke="midnightblue" d="M684.997,-249.127C694.249,-259.007 706.572,-275.45 714.433,-288.035"/>
<polygon fill="midnightblue" stroke="midnightblue" points="711.422,-289.82 719.45,-296.734 717.486,-286.323 711.422,-289.82"/>
</g>
<!-- Node11&#45;&gt;Node8 -->
<g id="edge13" class="edge"><title>Node11&#45;&gt;Node8</title>
<path fill="none" stroke="midnightblue" d="M694.918,-229.975C719.746,-219.857 761.343,-202.905 789.694,-191.351"/>
<polygon fill="midnightblue" stroke="midnightblue" points="791.181,-194.524 799.121,-187.509 788.539,-188.042 791.181,-194.524"/>
</g>
<!-- Node11&#45;&gt;Node10 -->
<g id="edge14" class="edge"><title>Node11&#45;&gt;Node10</title>
<path fill="none" stroke="midnightblue" d="M690.001,-229.878C704.513,-221.216 725.361,-206.513 737,-188 757.112,-156.01 762.809,-111.115 764.403,-85.975"/>
<polygon fill="midnightblue" stroke="midnightblue" points="767.915,-85.801 764.892,-75.6465 760.923,-85.4697 767.915,-85.801"/>
</g>
<!-- Node12 -->
<g id="node12" class="node"><title>Node12</title>
<g id="a_node12"><a xlink:href="../../d0/da9/logging_8hpp.html" target="_top" xlink:title="pfasst/logging.hpp">
<polygon fill="white" stroke="black" points="630,-168.5 630,-187.5 728,-187.5 728,-168.5 630,-168.5"/>
<text text-anchor="middle" x="679" y="-175.5" font-family="Helvetica,sans-Serif" font-size="10.00">pfasst/logging.hpp</text>
</a>
</g>
</g>
<!-- Node11&#45;&gt;Node12 -->
<g id="edge16" class="edge"><title>Node11&#45;&gt;Node12</title>
<path fill="none" stroke="midnightblue" d="M674.716,-229.975C675.422,-221.58 676.523,-208.481 677.432,-197.663"/>
<polygon fill="midnightblue" stroke="midnightblue" points="680.935,-197.767 678.285,-187.509 673.96,-197.181 680.935,-197.767"/>
</g>
<!-- Node12&#45;&gt;Node10 -->
<g id="edge19" class="edge"><title>Node12&#45;&gt;Node10</title>
<path fill="none" stroke="midnightblue" d="M685.748,-168.368C700.004,-150.135 733.394,-107.426 751.963,-83.6752"/>
<polygon fill="midnightblue" stroke="midnightblue" points="754.881,-85.6253 758.283,-75.5914 749.366,-81.3138 754.881,-85.6253"/>
</g>
<!-- Node13 -->
<g id="node13" class="node"><title>Node13</title>
<polygon fill="white" stroke="#bfbfbf" points="209,-112.5 209,-131.5 261,-131.5 261,-112.5 209,-112.5"/>
<text text-anchor="middle" x="235" y="-119.5" font-family="Helvetica,sans-Serif" font-size="10.00">iomanip</text>
</g>
<!-- Node12&#45;&gt;Node13 -->
<g id="edge17" class="edge"><title>Node12&#45;&gt;Node13</title>
<path fill="none" stroke="midnightblue" d="M629.978,-169.211C626.942,-168.785 623.931,-168.377 621,-168 468.656,-148.381 426.103,-159.14 271.163,-131.965"/>
<polygon fill="midnightblue" stroke="midnightblue" points="271.739,-128.512 261.281,-130.207 270.513,-135.404 271.739,-128.512"/>
</g>
<!-- Node14 -->
<g id="node14" class="node"><title>Node14</title>
<polygon fill="white" stroke="#bfbfbf" points="670,-56.5 670,-75.5 726,-75.5 726,-56.5 670,-56.5"/>
<text text-anchor="middle" x="698" y="-63.5" font-family="Helvetica,sans-Serif" font-size="10.00">iostream</text>
</g>
<!-- Node12&#45;&gt;Node14 -->
<g id="edge18" class="edge"><title>Node12&#45;&gt;Node14</title>
<path fill="none" stroke="midnightblue" d="M680.491,-168.368C683.557,-150.617 690.63,-109.666 694.788,-85.5974"/>
<polygon fill="midnightblue" stroke="midnightblue" points="698.263,-86.0413 696.516,-75.5914 691.365,-84.8498 698.263,-86.0413"/>
</g>
<!-- Node15 -->
<g id="node15" class="node"><title>Node15</title>
<polygon fill="white" stroke="#bfbfbf" points="279.5,-112.5 279.5,-131.5 410.5,-131.5 410.5,-112.5 279.5,-112.5"/>
<text text-anchor="middle" x="345" y="-119.5" font-family="Helvetica,sans-Serif" font-size="10.00">boost/algorithm/string.hpp</text>
</g>
<!-- Node12&#45;&gt;Node15 -->
<g id="edge20" class="edge"><title>Node12&#45;&gt;Node15</title>
<path fill="none" stroke="midnightblue" d="M629.717,-169.032C570.809,-159.508 472.141,-143.556 407.814,-133.156"/>
<polygon fill="midnightblue" stroke="midnightblue" points="408.227,-129.677 397.797,-131.536 407.11,-136.587 408.227,-129.677"/>
</g>
<!-- Node16 -->
<g id="node16" class="node"><title>Node16</title>
<g id="a_node16"><a xlink:href="../../d8/dfd/config_8hpp.html" target="_top" xlink:title="pfasst/config.hpp">
<polygon fill="white" stroke="black" points="569.5,-112.5 569.5,-131.5 660.5,-131.5 660.5,-112.5 569.5,-112.5"/>
<text text-anchor="middle" x="615" y="-119.5" font-family="Helvetica,sans-Serif" font-size="10.00">pfasst/config.hpp</text>
</a>
</g>
</g>
<!-- Node12&#45;&gt;Node16 -->
<g id="edge21" class="edge"><title>Node12&#45;&gt;Node16</title>
<path fill="none" stroke="midnightblue" d="M668.717,-168.324C659.164,-160.263 644.72,-148.077 633.216,-138.369"/>
<polygon fill="midnightblue" stroke="midnightblue" points="635.37,-135.608 625.47,-131.834 630.856,-140.958 635.37,-135.608"/>
</g>
<!-- Node23 -->
<g id="node23" class="node"><title>Node23</title>
<polygon fill="white" stroke="#bfbfbf" points="429,-112.5 429,-131.5 551,-131.5 551,-112.5 429,-112.5"/>
<text text-anchor="middle" x="490" y="-119.5" font-family="Helvetica,sans-Serif" font-size="10.00">pfasst/easylogging++.h</text>
</g>
<!-- Node12&#45;&gt;Node23 -->
<g id="edge32" class="edge"><title>Node12&#45;&gt;Node23</title>
<path fill="none" stroke="midnightblue" d="M649.052,-168.444C616.842,-159.241 565.466,-144.562 529.858,-134.388"/>
<polygon fill="midnightblue" stroke="midnightblue" points="530.384,-130.898 519.808,-131.516 528.461,-137.629 530.384,-130.898"/>
</g>
<!-- Node16&#45;&gt;Node10 -->
<g id="edge24" class="edge"><title>Node16&#45;&gt;Node10</title>
<path fill="none" stroke="midnightblue" d="M638.768,-112.444C664.666,-103.12 706.176,-88.1768 734.469,-77.9911"/>
<polygon fill="midnightblue" stroke="midnightblue" points="736.018,-81.1534 744.242,-74.473 733.647,-74.5672 736.018,-81.1534"/>
</g>
<!-- Node16&#45;&gt;Node14 -->
<g id="edge23" class="edge"><title>Node16&#45;&gt;Node14</title>
<path fill="none" stroke="midnightblue" d="M628.335,-112.324C641.162,-103.979 660.785,-91.2122 675.94,-81.3524"/>
<polygon fill="midnightblue" stroke="midnightblue" points="678.224,-84.0417 684.698,-75.6545 674.407,-78.1742 678.224,-84.0417"/>
</g>
<!-- Node17 -->
<g id="node17" class="node"><title>Node17</title>
<polygon fill="white" stroke="#bfbfbf" points="442,-0.5 442,-19.5 492,-19.5 492,-0.5 442,-0.5"/>
<text text-anchor="middle" x="467" y="-7.5" font-family="Helvetica,sans-Serif" font-size="10.00">fstream</text>
</g>
<!-- Node16&#45;&gt;Node17 -->
<g id="edge22" class="edge"><title>Node16&#45;&gt;Node17</title>
<path fill="none" stroke="midnightblue" d="M572.002,-112.475C535.648,-104.355 487.53,-91.1473 475,-76 464.478,-63.2804 463.318,-44.0814 464.285,-29.8436"/>
<polygon fill="midnightblue" stroke="midnightblue" points="467.785,-30.0251 465.378,-19.7073 460.826,-29.2743 467.785,-30.0251"/>
</g>
<!-- Node18 -->
<g id="node18" class="node"><title>Node18</title>
<polygon fill="white" stroke="#bfbfbf" points="616,-56.5 616,-75.5 652,-75.5 652,-56.5 616,-56.5"/>
<text text-anchor="middle" x="634" y="-63.5" font-family="Helvetica,sans-Serif" font-size="10.00">map</text>
</g>
<!-- Node16&#45;&gt;Node18 -->
<g id="edge25" class="edge"><title>Node16&#45;&gt;Node18</title>
<path fill="none" stroke="midnightblue" d="M618.137,-112.083C620.683,-104.849 624.356,-94.4087 627.527,-85.3968"/>
<polygon fill="midnightblue" stroke="midnightblue" points="630.903,-86.3459 630.921,-75.7511 624.3,-84.0225 630.903,-86.3459"/>
</g>
<!-- Node19 -->
<g id="node19" class="node"><title>Node19</title>
<polygon fill="white" stroke="#bfbfbf" points="290.5,-56.5 290.5,-75.5 427.5,-75.5 427.5,-56.5 290.5,-56.5"/>
<text text-anchor="middle" x="359" y="-63.5" font-family="Helvetica,sans-Serif" font-size="10.00">boost/program_options.hpp</text>
</g>
<!-- Node16&#45;&gt;Node19 -->
<g id="edge26" class="edge"><title>Node16&#45;&gt;Node19</title>
<path fill="none" stroke="midnightblue" d="M574.436,-112.444C529.684,-103.004 457.617,-87.802 409.305,-77.6111"/>
<polygon fill="midnightblue" stroke="midnightblue" points="409.881,-74.1558 399.374,-75.5164 408.436,-81.0051 409.881,-74.1558"/>
</g>
<!-- Node20 -->
<g id="node20" class="node"><title>Node20</title>
<g id="a_node20"><a xlink:href="../../d5/d84/config__impl_8hpp.html" target="_top" xlink:title="pfasst/config_impl.hpp">
<polygon fill="white" stroke="black" points="484,-56.5 484,-75.5 598,-75.5 598,-56.5 484,-56.5"/>
<text text-anchor="middle" x="541" y="-63.5" font-family="Helvetica,sans-Serif" font-size="10.00">pfasst/config_impl.hpp</text>
</a>
</g>
</g>
<!-- Node16&#45;&gt;Node20 -->
<g id="edge27" class="edge"><title>Node16&#45;&gt;Node20</title>
<path fill="none" stroke="midnightblue" d="M597.996,-112.324C585.204,-104.263 568.156,-92.0765 555.902,-82.3695"/>
<polygon fill="midnightblue" stroke="midnightblue" points="557.903,-79.4834 547.957,-75.8339 553.457,-84.8896 557.903,-79.4834"/>
</g>
<!-- Node20&#45;&gt;Node16 -->
<g id="edge28" class="edge"><title>Node20&#45;&gt;Node16</title>
<path fill="none" stroke="midnightblue" d="M557.97,-75.6545C570.83,-83.7559 588.006,-96.0383 600.283,-105.778"/>
<polygon fill="midnightblue" stroke="midnightblue" points="598.283,-108.664 608.225,-112.324 602.735,-103.263 598.283,-108.664"/>
</g>
<!-- Node20&#45;&gt;Node17 -->
<g id="edge29" class="edge"><title>Node20&#45;&gt;Node17</title>
<path fill="none" stroke="midnightblue" d="M529.111,-56.324C517.85,-48.1066 500.713,-35.6017 487.291,-25.8069"/>
<polygon fill="midnightblue" stroke="midnightblue" points="489.247,-22.9014 479.106,-19.8339 485.12,-28.5559 489.247,-22.9014"/>
</g>
<!-- Node21 -->
<g id="node21" class="node"><title>Node21</title>
<polygon fill="white" stroke="#bfbfbf" points="572.5,-0.5 572.5,-19.5 625.5,-19.5 625.5,-0.5 572.5,-0.5"/>
<text text-anchor="middle" x="599" y="-7.5" font-family="Helvetica,sans-Serif" font-size="10.00">sstream</text>
</g>
<!-- Node20&#45;&gt;Node21 -->
<g id="edge30" class="edge"><title>Node20&#45;&gt;Node21</title>
<path fill="none" stroke="midnightblue" d="M550.319,-56.324C558.893,-48.3414 571.812,-36.3128 582.188,-26.6529"/>
<polygon fill="midnightblue" stroke="midnightblue" points="584.578,-29.2098 589.512,-19.8339 579.808,-24.0865 584.578,-29.2098"/>
</g>
<!-- Node22 -->
<g id="node22" class="node"><title>Node22</title>
<polygon fill="white" stroke="#bfbfbf" points="516,-0.5 516,-19.5 554,-19.5 554,-0.5 516,-0.5"/>
<text text-anchor="middle" x="535" y="-7.5" font-family="Helvetica,sans-Serif" font-size="10.00">utility</text>
</g>
<!-- Node20&#45;&gt;Node22 -->
<g id="edge31" class="edge"><title>Node20&#45;&gt;Node22</title>
<path fill="none" stroke="midnightblue" d="M540.009,-56.083C539.214,-48.9272 538.071,-38.6353 537.077,-29.6911"/>
<polygon fill="midnightblue" stroke="midnightblue" points="540.555,-29.3034 535.972,-19.7511 533.598,-30.0765 540.555,-29.3034"/>
</g>
<!-- Node24&#45;&gt;Node4 -->
<g id="edge34" class="edge"><title>Node24&#45;&gt;Node4</title>
<path fill="none" stroke="midnightblue" d="M113.24,-296.734C132.216,-285.818 164.846,-267.049 187.147,-254.221"/>
<polygon fill="midnightblue" stroke="midnightblue" points="189.079,-257.147 196.002,-249.127 185.588,-251.08 189.079,-257.147"/>
</g>
<!-- Node25 -->
<g id="node25" class="node"><title>Node25</title>
<g id="a_node25"><a xlink:href="../../dc/de8/polynomial__impl_8hpp.html" target="_top" xlink:title="pfasst/quadrature/polynomial\l_impl.hpp">
<polygon fill="white" stroke="black" points="25,-224.5 25,-254.5 171,-254.5 171,-224.5 25,-224.5"/>
<text text-anchor="start" x="33" y="-242.5" font-family="Helvetica,sans-Serif" font-size="10.00">pfasst/quadrature/polynomial</text>
<text text-anchor="middle" x="98" y="-231.5" font-family="Helvetica,sans-Serif" font-size="10.00">_impl.hpp</text>
</a>
</g>
</g>
<!-- Node24&#45;&gt;Node25 -->
<g id="edge35" class="edge"><title>Node24&#45;&gt;Node25</title>
<path fill="none" stroke="midnightblue" d="M93.2115,-296.734C91.4874,-288.541 90.8999,-275.923 91.4489,-264.714"/>
<polygon fill="midnightblue" stroke="midnightblue" points="94.9498,-264.853 92.3235,-254.589 87.9758,-264.251 94.9498,-264.853"/>
</g>
<!-- Node25&#45;&gt;Node3 -->
<g id="edge38" class="edge"><title>Node25&#45;&gt;Node3</title>
<path fill="none" stroke="midnightblue" d="M171.304,-225.455C174.24,-224.959 177.147,-224.472 180,-224 272.705,-208.662 382.259,-192.232 437.075,-184.127"/>
<polygon fill="midnightblue" stroke="midnightblue" points="437.59,-187.589 446.972,-182.666 436.568,-180.664 437.59,-187.589"/>
</g>
<!-- Node25&#45;&gt;Node24 -->
<g id="edge36" class="edge"><title>Node25&#45;&gt;Node24</title>
<path fill="none" stroke="midnightblue" d="M103.676,-254.589C104.912,-264.001 105.081,-276.487 104.183,-286.739"/>
<polygon fill="midnightblue" stroke="midnightblue" points="100.703,-286.346 102.789,-296.734 107.636,-287.313 100.703,-286.346"/>
</g>
<!-- Node26 -->
<g id="node26" class="node"><title>Node26</title>
<polygon fill="white" stroke="#bfbfbf" points="0,-168.5 0,-187.5 58,-187.5 58,-168.5 0,-168.5"/>
<text text-anchor="middle" x="29" y="-175.5" font-family="Helvetica,sans-Serif" font-size="10.00">algorithm</text>
</g>
<!-- Node25&#45;&gt;Node26 -->
<g id="edge37" class="edge"><title>Node25&#45;&gt;Node26</title>
<path fill="none" stroke="midnightblue" d="M81.648,-224.399C71.1046,-215.308 57.4001,-203.49 46.6164,-194.191"/>
<polygon fill="midnightblue" stroke="midnightblue" points="48.899,-191.538 39.0401,-187.658 44.3276,-196.839 48.899,-191.538"/>
</g>
<!-- Node27 -->
<g id="node27" class="node"><title>Node27</title>
<polygon fill="white" stroke="#bfbfbf" points="76,-168.5 76,-187.5 120,-187.5 120,-168.5 76,-168.5"/>
<text text-anchor="middle" x="98" y="-175.5" font-family="Helvetica,sans-Serif" font-size="10.00">cmath</text>
</g>
<!-- Node25&#45;&gt;Node27 -->
<g id="edge39" class="edge"><title>Node25&#45;&gt;Node27</title>
<path fill="none" stroke="midnightblue" d="M98,-224.399C98,-216.466 98,-206.458 98,-197.858"/>
<polygon fill="midnightblue" stroke="midnightblue" points="101.5,-197.658 98,-187.658 94.5001,-197.658 101.5,-197.658"/>
</g>
<!-- Node28 -->
<g id="node28" class="node"><title>Node28</title>
<polygon fill="white" stroke="#bfbfbf" points="138.5,-168.5 138.5,-187.5 193.5,-187.5 193.5,-168.5 138.5,-168.5"/>
<text text-anchor="middle" x="166" y="-175.5" font-family="Helvetica,sans-Serif" font-size="10.00">complex</text>
</g>
<!-- Node25&#45;&gt;Node28 -->
<g id="edge40" class="edge"><title>Node25&#45;&gt;Node28</title>
<path fill="none" stroke="midnightblue" d="M114.115,-224.399C124.404,-215.397 137.747,-203.721 148.326,-194.465"/>
<polygon fill="midnightblue" stroke="midnightblue" points="150.884,-196.877 156.105,-187.658 146.275,-191.609 150.884,-196.877"/>
</g>
<!-- Node29&#45;&gt;Node2 -->
<g id="edge42" class="edge"><title>Node29&#45;&gt;Node2</title>
<path fill="none" stroke="midnightblue" d="M403.676,-321.589C404.912,-331.001 405.081,-343.487 404.183,-353.739"/>
<polygon fill="midnightblue" stroke="midnightblue" points="400.703,-353.346 402.789,-363.734 407.636,-354.313 400.703,-353.346"/>
</g>
<!-- Node30&#45;&gt;Node1 -->
<g id="edge44" class="edge"><title>Node30&#45;&gt;Node1</title>
<path fill="none" stroke="midnightblue" d="M213.675,-388.577C214.704,-396.408 214.995,-406.37 214.545,-415.403"/>
<polygon fill="midnightblue" stroke="midnightblue" points="211.056,-415.131 213.678,-425.396 218.03,-415.736 211.056,-415.131"/>
</g>
<!-- Node30&#45;&gt;Node4 -->
<g id="edge45" class="edge"><title>Node30&#45;&gt;Node4</title>
<path fill="none" stroke="midnightblue" d="M208.321,-358.374C208.864,-334.504 209.962,-286.181 210.57,-259.415"/>
<polygon fill="midnightblue" stroke="midnightblue" points="214.076,-259.174 210.805,-249.097 207.078,-259.015 214.076,-259.174"/>
</g>
<!-- Node30&#45;&gt;Node24 -->
<g id="edge46" class="edge"><title>Node30&#45;&gt;Node24</title>
<path fill="none" stroke="midnightblue" d="M184.132,-358.396C165.429,-347.344 139.564,-332.061 121.069,-321.132"/>
<polygon fill="midnightblue" stroke="midnightblue" points="122.786,-318.081 112.396,-316.007 119.225,-324.108 122.786,-318.081"/>
</g>
</g>
</svg>
