<?xml version="1.0" encoding="UTF-8" standalone="no"?>
<!DOCTYPE svg PUBLIC "-//W3C//DTD SVG 1.1//EN"
 "http://www.w3.org/Graphics/SVG/1.1/DTD/svg11.dtd">
<!-- Generated by graphviz version 2.38.0 (20140413.2041)
 -->
<!-- Title: pfasst::quadrature::IQuadrature::compute_weights Pages: 1 -->
<svg width="421pt" height="161pt"
 viewBox="0.00 0.00 421.00 161.00" xmlns="http://www.w3.org/2000/svg" xmlns:xlink="http://www.w3.org/1999/xlink">
<g id="graph0" class="graph" transform="scale(1 1) rotate(0) translate(4 157)">
<title>pfasst::quadrature::IQuadrature::compute_weights</title>
<polygon fill="white" stroke="none" points="-4,4 -4,-157 417,-157 417,4 -4,4"/>
<!-- Node1 -->
<g id="node1" class="node"><title>Node1</title>
<polygon fill="#bfbfbf" stroke="black" points="0,-44 0,-85 119,-85 119,-44 0,-44"/>
<text text-anchor="start" x="8" y="-73" font-family="Helvetica,sans-Serif" font-size="10.00">pfasst::quadrature</text>
<text text-anchor="start" x="8" y="-62" font-family="Helvetica,sans-Serif" font-size="10.00">::IQuadrature::compute</text>
<text text-anchor="middle" x="59.5" y="-51" font-family="Helvetica,sans-Serif" font-size="10.00">_weights</text>
</g>
<!-- Node2 -->
<g id="node2" class="node"><title>Node2</title>
<g id="a_node2"><a xlink:href="../../de/d84/namespacepfasst_1_1quadrature.html#a1a124b78f225d13b253ff8e2fb799aa5" target="_top" xlink:title="Compute quadrature matrix \( Q \) between two sets of nodes. ">
<polygon fill="white" stroke="black" points="155,-49.5 155,-79.5 259,-79.5 259,-49.5 155,-49.5"/>
<text text-anchor="start" x="163" y="-67.5" font-family="Helvetica,sans-Serif" font-size="10.00">pfasst::quadrature</text>
<text text-anchor="middle" x="207" y="-56.5" font-family="Helvetica,sans-Serif" font-size="10.00">::compute_q_matrix</text>
</a>
</g>
</g>
<!-- Node1&#45;&gt;Node2 -->
<g id="edge1" class="edge"><title>Node1&#45;&gt;Node2</title>
<path fill="none" stroke="midnightblue" d="M119.261,-64.5C127.672,-64.5 136.342,-64.5 144.798,-64.5"/>
<polygon fill="midnightblue" stroke="midnightblue" points="144.975,-68.0001 154.975,-64.5 144.975,-61.0001 144.975,-68.0001"/>
</g>
<!-- Node6 -->
<g id="node6" class="node"><title>Node6</title>
<g id="a_node6"><a xlink:href="../../de/d84/namespacepfasst_1_1quadrature.html#a77ad709add97d78ea02404286fe15f02" target="_top" xlink:title="Compute vector \( q \) for integration from \( 0 \) to \( 1 \) for given set of nodes. ">
<polygon fill="white" stroke="black" points="158,-98.5 158,-128.5 256,-128.5 256,-98.5 158,-98.5"/>
<text text-anchor="start" x="166" y="-116.5" font-family="Helvetica,sans-Serif" font-size="10.00">pfasst::quadrature</text>
<text text-anchor="middle" x="207" y="-105.5" font-family="Helvetica,sans-Serif" font-size="10.00">::compute_q_vec</text>
</a>
</g>
</g>
<!-- Node1&#45;&gt;Node6 -->
<g id="edge5" class="edge"><title>Node1&#45;&gt;Node6</title>
<path fill="none" stroke="midnightblue" d="M119.261,-84.2889C130.01,-87.9087 141.181,-91.6711 151.79,-95.2437"/>
<polygon fill="midnightblue" stroke="midnightblue" points="150.751,-98.587 161.346,-98.4617 152.986,-91.9531 150.751,-98.587"/>
</g>
<!-- Node7 -->
<g id="node7" class="node"><title>Node7</title>
<g id="a_node7"><a xlink:href="../../de/d84/namespacepfasst_1_1quadrature.html#a106e6af4f4fa7f33ae6c68ea391dc6e0" target="_top" xlink:title="Compute node&#45;to&#45;node quadrature matrix \( S \) from a given quadrature matrix \( Q \)...">
<polygon fill="white" stroke="black" points="155,-0.5 155,-30.5 259,-30.5 259,-0.5 155,-0.5"/>
<text text-anchor="start" x="163" y="-18.5" font-family="Helvetica,sans-Serif" font-size="10.00">pfasst::quadrature</text>
<text text-anchor="middle" x="207" y="-7.5" font-family="Helvetica,sans-Serif" font-size="10.00">::compute_s_matrix</text>
</a>
</g>
</g>
<!-- Node1&#45;&gt;Node7 -->
<g id="edge9" class="edge"><title>Node1&#45;&gt;Node7</title>
<path fill="none" stroke="midnightblue" d="M119.261,-44.7111C130.01,-41.0913 141.181,-37.3289 151.79,-33.7563"/>
<polygon fill="midnightblue" stroke="midnightblue" points="152.986,-37.0469 161.346,-30.5383 150.751,-30.413 152.986,-37.0469"/>
</g>
<!-- Node3 -->
<g id="node3" class="node"><title>Node3</title>
<g id="a_node3"><a xlink:href="../../de/d84/namespacepfasst_1_1quadrature.html#a37425ec75a53d150c06f1b47dc8bc047" target="_top" xlink:title="pfasst::quadrature\l::build_polynomial">
<polygon fill="white" stroke="black" points="305,-122.5 305,-152.5 403,-152.5 403,-122.5 305,-122.5"/>
<text text-anchor="start" x="313" y="-140.5" font-family="Helvetica,sans-Serif" font-size="10.00">pfasst::quadrature</text>
<text text-anchor="middle" x="354" y="-129.5" font-family="Helvetica,sans-Serif" font-size="10.00">::build_polynomial</text>
</a>
</g>
</g>
<!-- Node2&#45;&gt;Node3 -->
<g id="edge2" class="edge"><title>Node2&#45;&gt;Node3</title>
<path fill="none" stroke="midnightblue" d="M240.441,-79.6009C246.678,-82.7285 253.102,-86.1081 259,-89.5 275.67,-99.0863 278.035,-104.447 295,-113.5 298.024,-115.114 301.18,-116.693 304.391,-118.222"/>
<polygon fill="midnightblue" stroke="midnightblue" points="302.968,-121.42 313.518,-122.386 305.873,-115.051 302.968,-121.42"/>
</g>
<!-- Node4 -->
<g id="node4" class="node"><title>Node4</title>
<g id="a_node4"><a xlink:href="../../d6/dd0/classpfasst_1_1quadrature_1_1Polynomial.html#ab6ca606fac17e7b963a60ee34271090e" target="_top" xlink:title="Evaluate polynomial for given value. ">
<polygon fill="white" stroke="black" points="295,-73.5 295,-103.5 413,-103.5 413,-73.5 295,-73.5"/>
<text text-anchor="start" x="303" y="-91.5" font-family="Helvetica,sans-Serif" font-size="10.00">pfasst::quadrature</text>
<text text-anchor="middle" x="354" y="-80.5" font-family="Helvetica,sans-Serif" font-size="10.00">::Polynomial::evaluate</text>
</a>
</g>
</g>
<!-- Node2&#45;&gt;Node4 -->
<g id="edge3" class="edge"><title>Node2&#45;&gt;Node4</title>
<path fill="none" stroke="midnightblue" d="M259.122,-72.9615C267.443,-74.3389 276.178,-75.7846 284.83,-77.2166"/>
<polygon fill="midnightblue" stroke="midnightblue" points="284.481,-80.7065 294.919,-78.8866 285.625,-73.8005 284.481,-80.7065"/>
</g>
<!-- Node5 -->
<g id="node5" class="node"><title>Node5</title>
<g id="a_node5"><a xlink:href="../../d6/dd0/classpfasst_1_1quadrature_1_1Polynomial.html#a52bf17679c1a86638be7e7564bb6c78d" target="_top" xlink:title="Integrates this polynomial. ">
<polygon fill="white" stroke="black" points="295,-24.5 295,-54.5 413,-54.5 413,-24.5 295,-24.5"/>
<text text-anchor="start" x="303" y="-42.5" font-family="Helvetica,sans-Serif" font-size="10.00">pfasst::quadrature</text>
<text text-anchor="middle" x="354" y="-31.5" font-family="Helvetica,sans-Serif" font-size="10.00">::Polynomial::integrate</text>
</a>
</g>
</g>
<!-- Node2&#45;&gt;Node5 -->
<g id="edge4" class="edge"><title>Node2&#45;&gt;Node5</title>
<path fill="none" stroke="midnightblue" d="M259.122,-55.6859C267.443,-54.2511 276.178,-52.7452 284.83,-51.2535"/>
<polygon fill="midnightblue" stroke="midnightblue" points="285.659,-54.6623 294.919,-49.514 284.469,-47.764 285.659,-54.6623"/>
</g>
<!-- Node6&#45;&gt;Node3 -->
<g id="edge6" class="edge"><title>Node6&#45;&gt;Node3</title>
<path fill="none" stroke="midnightblue" d="M256.283,-121.492C268.634,-123.536 282.045,-125.756 294.835,-127.873"/>
<polygon fill="midnightblue" stroke="midnightblue" points="294.491,-131.363 304.928,-129.543 295.634,-124.457 294.491,-131.363"/>
</g>
<!-- Node6&#45;&gt;Node4 -->
<g id="edge7" class="edge"><title>Node6&#45;&gt;Node4</title>
<path fill="none" stroke="midnightblue" d="M256.283,-105.175C265.455,-103.594 275.21,-101.912 284.863,-100.248"/>
<polygon fill="midnightblue" stroke="midnightblue" points="285.595,-103.673 294.855,-98.525 284.406,-96.775 285.595,-103.673"/>
</g>
<!-- Node6&#45;&gt;Node5 -->
<g id="edge8" class="edge"><title>Node6&#45;&gt;Node5</title>
<path fill="none" stroke="midnightblue" d="M242.15,-98.3994C247.86,-95.5998 253.66,-92.5815 259,-89.5 275.872,-79.7633 277.971,-73.9581 295,-64.5 298.46,-62.5784 302.097,-60.7017 305.793,-58.8954"/>
<polygon fill="midnightblue" stroke="midnightblue" points="307.463,-61.9781 315.032,-54.5651 304.492,-55.6397 307.463,-61.9781"/>
</g>
</g>
</svg>
