<?xml version="1.0" encoding="UTF-8" standalone="no"?>
<!DOCTYPE svg PUBLIC "-//W3C//DTD SVG 1.1//EN"
 "http://www.w3.org/Graphics/SVG/1.1/DTD/svg11.dtd">
<!-- Generated by graphviz version 2.38.0 (20140413.2041)
 -->
<!-- Title: main Pages: 1 -->
<svg width="1266pt" height="467pt"
 viewBox="0.00 0.00 1266.00 467.26" xmlns="http://www.w3.org/2000/svg" xmlns:xlink="http://www.w3.org/1999/xlink">
<g id="graph0" class="graph" transform="scale(1 1) rotate(0) translate(4 463.26)">
<title>main</title>
<polygon fill="white" stroke="none" points="-4,4 -4,-463.26 1262,-463.26 1262,4 -4,4"/>
<!-- Node1 -->
<g id="node1" class="node"><title>Node1</title>
<polygon fill="#bfbfbf" stroke="black" points="0,-196 0,-215 38,-215 38,-196 0,-196"/>
<text text-anchor="middle" x="19" y="-203" font-family="Helvetica,sans-Serif" font-size="10.00">main</text>
</g>
<!-- Node2 -->
<g id="node2" class="node"><title>Node2</title>
<g id="a_node2"><a xlink:href="../../dc/d57/namespacepfasst.html#a2ad4b6987b5c66b90166f77fc4230e92" target="_top" xlink:title="pfasst::init">
<polygon fill="white" stroke="black" points="107,-241 107,-260 168,-260 168,-241 107,-241"/>
<text text-anchor="middle" x="137.5" y="-248" font-family="Helvetica,sans-Serif" font-size="10.00">pfasst::init</text>
</a>
</g>
</g>
<!-- Node1&#45;&gt;Node2 -->
<g id="edge1" class="edge"><title>Node1&#45;&gt;Node2</title>
<path fill="none" stroke="midnightblue" d="M38.2031,-212.531C55.2189,-219.104 81.0712,-229.09 101.993,-237.171"/>
<polygon fill="midnightblue" stroke="midnightblue" points="100.918,-240.508 111.508,-240.846 103.441,-233.978 100.918,-240.508"/>
</g>
<!-- Node16 -->
<g id="node16" class="node"><title>Node16</title>
<g id="a_node16"><a xlink:href="../../d1/d6e/group__Scalar.html#ga2e2a4c57c66ad0f2716d59ee2f4f457a" target="_top" xlink:title="Scalar test equation example using an encapsulated IMEX sweeper. ">
<polygon fill="white" stroke="black" points="74,-122.5 74,-152.5 201,-152.5 201,-122.5 74,-122.5"/>
<text text-anchor="start" x="82" y="-140.5" font-family="Helvetica,sans-Serif" font-size="10.00">pfasst::examples::scalar</text>
<text text-anchor="middle" x="137.5" y="-129.5" font-family="Helvetica,sans-Serif" font-size="10.00">::run_scalar_sdc</text>
</a>
</g>
</g>
<!-- Node1&#45;&gt;Node16 -->
<g id="edge20" class="edge"><title>Node1&#45;&gt;Node16</title>
<path fill="none" stroke="midnightblue" d="M36.6916,-195.757C53.5375,-185.924 80.0595,-170.444 101.53,-157.911"/>
<polygon fill="midnightblue" stroke="midnightblue" points="103.508,-160.81 110.38,-152.746 99.9792,-154.764 103.508,-160.81"/>
</g>
<!-- Node3 -->
<g id="node3" class="node"><title>Node3</title>
<g id="a_node3"><a xlink:href="../../d3/d91/namespacepfasst_1_1config.html#a5eaff8155eff1d5f8fe5cf2034b12422" target="_top" xlink:title="Read and parse command line parameters. ">
<polygon fill="white" stroke="black" points="239,-235.5 239,-265.5 342,-265.5 342,-235.5 239,-235.5"/>
<text text-anchor="start" x="247" y="-253.5" font-family="Helvetica,sans-Serif" font-size="10.00">pfasst::config::read</text>
<text text-anchor="middle" x="290.5" y="-242.5" font-family="Helvetica,sans-Serif" font-size="10.00">_commandline</text>
</a>
</g>
</g>
<!-- Node2&#45;&gt;Node3 -->
<g id="edge2" class="edge"><title>Node2&#45;&gt;Node3</title>
<path fill="none" stroke="midnightblue" d="M168.333,-250.5C185.617,-250.5 208.015,-250.5 228.844,-250.5"/>
<polygon fill="midnightblue" stroke="midnightblue" points="228.914,-254 238.914,-250.5 228.914,-247 228.914,-254"/>
</g>
<!-- Node7 -->
<g id="node7" class="node"><title>Node7</title>
<g id="a_node7"><a xlink:href="../../de/d8c/group__Internals.html#ga73cf933834ba5e5141119310aee971b9" target="_top" xlink:title="Starts easylogging++ with given arguments and loads configuration. ">
<polygon fill="white" stroke="black" points="237,-304 237,-323 344,-323 344,-304 237,-304"/>
<text text-anchor="middle" x="290.5" y="-311" font-family="Helvetica,sans-Serif" font-size="10.00">pfasst::log::start_log</text>
</a>
</g>
</g>
<!-- Node2&#45;&gt;Node7 -->
<g id="edge6" class="edge"><title>Node2&#45;&gt;Node7</title>
<path fill="none" stroke="midnightblue" d="M161.434,-260.068C186.932,-270.707 228.312,-287.971 257.108,-299.986"/>
<polygon fill="midnightblue" stroke="midnightblue" points="255.774,-303.221 266.351,-303.842 258.469,-296.761 255.774,-303.221"/>
</g>
<!-- Node4 -->
<g id="node4" class="node"><title>Node4</title>
<g id="a_node4"><a xlink:href="../../d3/d91/namespacepfasst_1_1config.html#a717f3272ec67e59af97e711397beeb29" target="_top" xlink:title="Read config parameters from file. ">
<polygon fill="white" stroke="black" points="391,-172.5 391,-202.5 494,-202.5 494,-172.5 391,-172.5"/>
<text text-anchor="start" x="399" y="-190.5" font-family="Helvetica,sans-Serif" font-size="10.00">pfasst::config::read</text>
<text text-anchor="middle" x="442.5" y="-179.5" font-family="Helvetica,sans-Serif" font-size="10.00">_config_file</text>
</a>
</g>
</g>
<!-- Node3&#45;&gt;Node4 -->
<g id="edge3" class="edge"><title>Node3&#45;&gt;Node4</title>
<path fill="none" stroke="midnightblue" d="M326.321,-235.363C342.597,-228.336 362.258,-219.914 380,-212.5 384.731,-210.523 389.674,-208.478 394.614,-206.449"/>
<polygon fill="midnightblue" stroke="midnightblue" points="396.121,-209.614 404.051,-202.588 393.471,-203.135 396.121,-209.614"/>
</g>
<!-- Node5 -->
<g id="node5" class="node"><title>Node5</title>
<g id="a_node5"><a xlink:href="../../d3/d91/namespacepfasst_1_1config.html#a69bf5d072b24805ad0004d40bcd2744e" target="_top" xlink:title="Get MPI rank during initialization. ">
<polygon fill="white" stroke="black" points="1137,-282 1137,-301 1258,-301 1258,-282 1137,-282"/>
<text text-anchor="middle" x="1197.5" y="-289" font-family="Helvetica,sans-Serif" font-size="10.00">pfasst::config::get_rank</text>
</a>
</g>
</g>
<!-- Node3&#45;&gt;Node5 -->
<g id="edge4" class="edge"><title>Node3&#45;&gt;Node5</title>
<path fill="none" stroke="midnightblue" d="M342.078,-255.492C403.57,-261.121 510.541,-269.5 602.5,-269.5 602.5,-269.5 602.5,-269.5 912,-269.5 985.489,-269.5 1069.34,-276.887 1126.87,-283.1"/>
<polygon fill="midnightblue" stroke="midnightblue" points="1126.61,-286.593 1136.94,-284.205 1127.38,-279.635 1126.61,-286.593"/>
</g>
<!-- Node6 -->
<g id="node6" class="node"><title>Node6</title>
<g id="a_node6"><a xlink:href="../../d3/d91/namespacepfasst_1_1config.html#ad40fd72bbe8905d32032195b313b7d06" target="_top" xlink:title="Compile basic help and usage information. ">
<polygon fill="white" stroke="black" points="380.5,-222 380.5,-241 504.5,-241 504.5,-222 380.5,-222"/>
<text text-anchor="middle" x="442.5" y="-229" font-family="Helvetica,sans-Serif" font-size="10.00">pfasst::config::print_help</text>
</a>
</g>
</g>
<!-- Node3&#45;&gt;Node6 -->
<g id="edge5" class="edge"><title>Node3&#45;&gt;Node6</title>
<path fill="none" stroke="midnightblue" d="M342.283,-244.067C351.271,-242.929 360.779,-241.725 370.208,-240.53"/>
<polygon fill="midnightblue" stroke="midnightblue" points="370.9,-243.971 380.381,-239.242 370.021,-237.026 370.9,-243.971"/>
</g>
<!-- Node8 -->
<g id="node8" class="node"><title>Node8</title>
<g id="a_node8"><a xlink:href="../../de/d8c/group__Internals.html#gaabd9df9fe7db34deb4ec893d6b0b7fa2" target="_top" xlink:title="Sets some default flags for easylogging++. ">
<polygon fill="white" stroke="black" points="381.5,-298.5 381.5,-328.5 503.5,-328.5 503.5,-298.5 381.5,-298.5"/>
<text text-anchor="start" x="389.5" y="-316.5" font-family="Helvetica,sans-Serif" font-size="10.00">pfasst::log::set_logging</text>
<text text-anchor="middle" x="442.5" y="-305.5" font-family="Helvetica,sans-Serif" font-size="10.00">_flags</text>
</a>
</g>
</g>
<!-- Node7&#45;&gt;Node8 -->
<g id="edge7" class="edge"><title>Node7&#45;&gt;Node8</title>
<path fill="none" stroke="midnightblue" d="M344.384,-313.5C353.087,-313.5 362.225,-313.5 371.271,-313.5"/>
<polygon fill="midnightblue" stroke="midnightblue" points="371.416,-317 381.416,-313.5 371.416,-310 371.416,-317"/>
</g>
<!-- Node9 -->
<g id="node9" class="node"><title>Node9</title>
<g id="a_node9"><a xlink:href="../../de/d8c/group__Internals.html#ga94bc88666f61bcc6d85072e6dfdd21f4" target="_top" xlink:title="Sets default configuration for default loggers. ">
<polygon fill="white" stroke="black" points="380,-347.5 380,-377.5 505,-377.5 505,-347.5 380,-347.5"/>
<text text-anchor="start" x="388" y="-365.5" font-family="Helvetica,sans-Serif" font-size="10.00">pfasst::log::load_default</text>
<text text-anchor="middle" x="442.5" y="-354.5" font-family="Helvetica,sans-Serif" font-size="10.00">_config</text>
</a>
</g>
</g>
<!-- Node7&#45;&gt;Node9 -->
<g id="edge8" class="edge"><title>Node7&#45;&gt;Node9</title>
<path fill="none" stroke="midnightblue" d="M320.778,-323.064C339.271,-329.105 363.761,-337.105 385.848,-344.32"/>
<polygon fill="midnightblue" stroke="midnightblue" points="384.876,-347.685 395.468,-347.463 387.05,-341.031 384.876,-347.685"/>
</g>
<!-- Node10 -->
<g id="node10" class="node"><title>Node10</title>
<g id="a_node10"><a xlink:href="../../de/d8c/group__Internals.html#ga2f4ba84c8482c3fb5c86e599804f832a" target="_top" xlink:title="Sets global logging options. ">
<polygon fill="white" stroke="black" points="702,-317.5 702,-347.5 818,-347.5 818,-317.5 702,-317.5"/>
<text text-anchor="start" x="710" y="-335.5" font-family="Helvetica,sans-Serif" font-size="10.00">pfasst::log::set_global</text>
<text text-anchor="middle" x="760" y="-324.5" font-family="Helvetica,sans-Serif" font-size="10.00">_logging_options</text>
</a>
</g>
</g>
<!-- Node9&#45;&gt;Node10 -->
<g id="edge9" class="edge"><title>Node9&#45;&gt;Node10</title>
<path fill="none" stroke="midnightblue" d="M505.108,-355.309C517.011,-353.988 529.389,-352.661 541,-351.5 591.395,-346.462 648.421,-341.519 691.506,-337.937"/>
<polygon fill="midnightblue" stroke="midnightblue" points="691.912,-341.416 701.589,-337.103 691.334,-334.44 691.912,-341.416"/>
</g>
<!-- Node15 -->
<g id="node15" class="node"><title>Node15</title>
<g id="a_node15"><a xlink:href="../../da/d50/namespacepfasst_1_1log.html#a8502afef42b4e98a12249d5fa1fed092" target="_top" xlink:title="Provides convenient way of adding additional named loggers. ">
<polygon fill="white" stroke="black" points="541,-361.5 541,-391.5 666,-391.5 666,-361.5 541,-361.5"/>
<text text-anchor="start" x="549" y="-379.5" font-family="Helvetica,sans-Serif" font-size="10.00">pfasst::log::add_custom</text>
<text text-anchor="middle" x="603.5" y="-368.5" font-family="Helvetica,sans-Serif" font-size="10.00">_logger</text>
</a>
</g>
</g>
<!-- Node9&#45;&gt;Node15 -->
<g id="edge15" class="edge"><title>Node9&#45;&gt;Node15</title>
<path fill="none" stroke="midnightblue" d="M505.429,-367.953C513.674,-368.679 522.184,-369.428 530.58,-370.167"/>
<polygon fill="midnightblue" stroke="midnightblue" points="530.472,-373.671 540.74,-371.062 531.086,-366.698 530.472,-373.671"/>
</g>
<!-- Node11 -->
<g id="node11" class="node"><title>Node11</title>
<g id="a_node11"><a xlink:href="../../da/d27/classpfasst_1_1config_1_1options.html#a4f130f9b500d6f3dee7df20894233608" target="_top" xlink:title="Accessor to the singleton instance. ">
<polygon fill="white" stroke="black" points="854,-347.5 854,-377.5 968,-377.5 968,-347.5 854,-347.5"/>
<text text-anchor="start" x="862" y="-365.5" font-family="Helvetica,sans-Serif" font-size="10.00">pfasst::config::options</text>
<text text-anchor="middle" x="911" y="-354.5" font-family="Helvetica,sans-Serif" font-size="10.00">::get_instance</text>
</a>
</g>
</g>
<!-- Node10&#45;&gt;Node11 -->
<g id="edge10" class="edge"><title>Node10&#45;&gt;Node11</title>
<path fill="none" stroke="midnightblue" d="M818.181,-344.013C826.557,-345.699 835.242,-347.448 843.781,-349.167"/>
<polygon fill="midnightblue" stroke="midnightblue" points="843.215,-352.624 853.709,-351.166 844.597,-345.761 843.215,-352.624"/>
</g>
<!-- Node12 -->
<g id="node12" class="node"><title>Node12</title>
<g id="a_node12"><a xlink:href="../../da/d27/classpfasst_1_1config_1_1options.html#a9ad40d67da1066f5053e47e278b3b154" target="_top" xlink:title="pfasst::config::options\l::get_variables_map">
<polygon fill="white" stroke="black" points="854,-396.5 854,-426.5 968,-426.5 968,-396.5 854,-396.5"/>
<text text-anchor="start" x="862" y="-414.5" font-family="Helvetica,sans-Serif" font-size="10.00">pfasst::config::options</text>
<text text-anchor="middle" x="911" y="-403.5" font-family="Helvetica,sans-Serif" font-size="10.00">::get_variables_map</text>
</a>
</g>
</g>
<!-- Node10&#45;&gt;Node12 -->
<g id="edge11" class="edge"><title>Node10&#45;&gt;Node12</title>
<path fill="none" stroke="midnightblue" d="M785.471,-347.667C803.999,-358.914 830.233,-374.338 854,-386.5 857.732,-388.41 861.641,-390.323 865.584,-392.195"/>
<polygon fill="midnightblue" stroke="midnightblue" points="864.234,-395.427 874.779,-396.462 867.181,-389.077 864.234,-395.427"/>
</g>
<!-- Node13 -->
<g id="node13" class="node"><title>Node13</title>
<g id="a_node13"><a xlink:href="../../de/d8c/group__Internals.html#ga74a6cd18764de8c81da478a7eb33ee4a" target="_top" xlink:title="Composes the log file name for the local rank. ">
<polygon fill="white" stroke="black" points="859.5,-298.5 859.5,-328.5 962.5,-328.5 962.5,-298.5 859.5,-298.5"/>
<text text-anchor="start" x="867.5" y="-316.5" font-family="Helvetica,sans-Serif" font-size="10.00">pfasst::log::get_log</text>
<text text-anchor="middle" x="911" y="-305.5" font-family="Helvetica,sans-Serif" font-size="10.00">_file_name</text>
</a>
</g>
</g>
<!-- Node10&#45;&gt;Node13 -->
<g id="edge12" class="edge"><title>Node10&#45;&gt;Node13</title>
<path fill="none" stroke="midnightblue" d="M818.181,-325.208C828.276,-323.921 838.819,-322.577 849.013,-321.277"/>
<polygon fill="midnightblue" stroke="midnightblue" points="849.584,-324.732 859.061,-319.996 848.699,-317.789 849.584,-324.732"/>
</g>
<!-- Node14 -->
<g id="node14" class="node"><title>Node14</title>
<g id="a_node14"><a xlink:href="../../de/d8c/group__Internals.html#ga2fbecb551eda65e49c93122c05142aec" target="_top" xlink:title="Formats the local MPI world rank as a string. ">
<polygon fill="white" stroke="black" points="1004,-298.5 1004,-328.5 1101,-328.5 1101,-298.5 1004,-298.5"/>
<text text-anchor="start" x="1012" y="-316.5" font-family="Helvetica,sans-Serif" font-size="10.00">pfasst::log::format</text>
<text text-anchor="middle" x="1052.5" y="-305.5" font-family="Helvetica,sans-Serif" font-size="10.00">_mpi_rank</text>
</a>
</g>
</g>
<!-- Node13&#45;&gt;Node14 -->
<g id="edge13" class="edge"><title>Node13&#45;&gt;Node14</title>
<path fill="none" stroke="midnightblue" d="M962.757,-313.5C972.807,-313.5 983.426,-313.5 993.689,-313.5"/>
<polygon fill="midnightblue" stroke="midnightblue" points="993.8,-317 1003.8,-313.5 993.8,-310 993.8,-317"/>
</g>
<!-- Node14&#45;&gt;Node5 -->
<g id="edge14" class="edge"><title>Node14&#45;&gt;Node5</title>
<path fill="none" stroke="midnightblue" d="M1101.12,-306.174C1109.35,-304.908 1118.06,-303.567 1126.74,-302.232"/>
<polygon fill="midnightblue" stroke="midnightblue" points="1127.53,-305.652 1136.88,-300.672 1126.46,-298.734 1127.53,-305.652"/>
</g>
<!-- Node15&#45;&gt;Node10 -->
<g id="edge19" class="edge"><title>Node15&#45;&gt;Node10</title>
<path fill="none" stroke="midnightblue" d="M657.238,-361.481C669.847,-357.89 683.427,-354.022 696.431,-350.319"/>
<polygon fill="midnightblue" stroke="midnightblue" points="697.579,-353.631 706.238,-347.526 695.661,-346.899 697.579,-353.631"/>
</g>
<!-- Node15&#45;&gt;Node11 -->
<g id="edge16" class="edge"><title>Node15&#45;&gt;Node11</title>
<path fill="none" stroke="midnightblue" d="M666.322,-373.667C717.811,-371.307 790.97,-367.955 843.672,-365.54"/>
<polygon fill="midnightblue" stroke="midnightblue" points="844.098,-369.024 853.928,-365.07 843.778,-362.031 844.098,-369.024"/>
</g>
<!-- Node15&#45;&gt;Node12 -->
<g id="edge17" class="edge"><title>Node15&#45;&gt;Node12</title>
<path fill="none" stroke="midnightblue" d="M666.322,-383.583C717.811,-389.482 790.97,-397.863 843.672,-403.901"/>
<polygon fill="midnightblue" stroke="midnightblue" points="843.594,-407.415 853.928,-405.076 844.391,-400.46 843.594,-407.415"/>
</g>
<!-- Node15&#45;&gt;Node14 -->
<g id="edge18" class="edge"><title>Node15&#45;&gt;Node14</title>
<path fill="none" stroke="midnightblue" d="M631.416,-391.554C694.279,-424.534 854.049,-495.594 968,-435.5 1006.79,-415.044 1031,-367.551 1042.81,-338.221"/>
<polygon fill="midnightblue" stroke="midnightblue" points="1046.15,-339.269 1046.47,-328.679 1039.62,-336.759 1046.15,-339.269"/>
</g>
<!-- Node17 -->
<g id="node17" class="node"><title>Node17</title>
<g id="a_node17"><a xlink:href="../../de/d84/namespacepfasst_1_1quadrature.html#ac4700c0b6dc90b32b3f8af4070d0e62d" target="_top" xlink:title="Instantiates quadrature handler for given number of nodes and type descriptor. ">
<polygon fill="white" stroke="black" points="237,-147.5 237,-177.5 344,-177.5 344,-147.5 237,-147.5"/>
<text text-anchor="start" x="245" y="-165.5" font-family="Helvetica,sans-Serif" font-size="10.00">pfasst::quadrature</text>
<text text-anchor="middle" x="290.5" y="-154.5" font-family="Helvetica,sans-Serif" font-size="10.00">::quadrature_factory</text>
</a>
</g>
</g>
<!-- Node16&#45;&gt;Node17 -->
<g id="edge21" class="edge"><title>Node16&#45;&gt;Node17</title>
<path fill="none" stroke="midnightblue" d="M201.226,-147.885C209.636,-149.278 218.265,-150.706 226.677,-152.099"/>
<polygon fill="midnightblue" stroke="midnightblue" points="226.364,-155.595 236.802,-153.775 227.508,-148.689 226.364,-155.595"/>
</g>
<!-- Node18 -->
<g id="node18" class="node"><title>Node18</title>
<g id="a_node18"><a xlink:href="../../d4/da9/classpfasst_1_1Controller.html#a8f4f8f025572e57fc5975902a4118fa9" target="_top" xlink:title="Adding a level to the controller. ">
<polygon fill="white" stroke="black" points="244.5,-98.5 244.5,-128.5 336.5,-128.5 336.5,-98.5 244.5,-98.5"/>
<text text-anchor="start" x="252.5" y="-116.5" font-family="Helvetica,sans-Serif" font-size="10.00">pfasst::Controller</text>
<text text-anchor="middle" x="290.5" y="-105.5" font-family="Helvetica,sans-Serif" font-size="10.00">::add_level</text>
</a>
</g>
</g>
<!-- Node16&#45;&gt;Node18 -->
<g id="edge22" class="edge"><title>Node16&#45;&gt;Node18</title>
<path fill="none" stroke="midnightblue" d="M201.226,-127.53C212.156,-125.793 223.454,-123.997 234.167,-122.295"/>
<polygon fill="midnightblue" stroke="midnightblue" points="234.902,-125.722 244.229,-120.695 233.803,-118.809 234.902,-125.722"/>
</g>
<!-- Node19 -->
<g id="node19" class="node"><title>Node19</title>
<g id="a_node19"><a xlink:href="../../d4/da9/classpfasst_1_1Controller.html#af31a86d9ccd9db325532c5ae3a5764f0" target="_top" xlink:title="Set basic time scope of the Controller. ">
<polygon fill="white" stroke="black" points="244.5,-49.5 244.5,-79.5 336.5,-79.5 336.5,-49.5 244.5,-49.5"/>
<text text-anchor="start" x="252.5" y="-67.5" font-family="Helvetica,sans-Serif" font-size="10.00">pfasst::Controller</text>
<text text-anchor="middle" x="290.5" y="-56.5" font-family="Helvetica,sans-Serif" font-size="10.00">::set_duration</text>
</a>
</g>
</g>
<!-- Node16&#45;&gt;Node19 -->
<g id="edge23" class="edge"><title>Node16&#45;&gt;Node19</title>
<path fill="none" stroke="midnightblue" d="M168.117,-122.45C187.609,-112.623 213.729,-99.6038 237,-88.5 240.171,-86.9868 243.459,-85.4379 246.771,-83.8914"/>
<polygon fill="midnightblue" stroke="midnightblue" points="248.494,-86.9509 256.096,-79.5714 245.551,-80.5994 248.494,-86.9509"/>
</g>
<!-- Node20 -->
<g id="node20" class="node"><title>Node20</title>
<g id="a_node20"><a xlink:href="../../d4/da9/classpfasst_1_1Controller.html#a83d8b318cd15436d5910039313daab9f" target="_top" xlink:title="Basic setup routine for this controller. ">
<polygon fill="white" stroke="black" points="244.5,-0.5 244.5,-30.5 336.5,-30.5 336.5,-0.5 244.5,-0.5"/>
<text text-anchor="start" x="252.5" y="-18.5" font-family="Helvetica,sans-Serif" font-size="10.00">pfasst::Controller</text>
<text text-anchor="middle" x="290.5" y="-7.5" font-family="Helvetica,sans-Serif" font-size="10.00">::setup</text>
</a>
</g>
</g>
<!-- Node16&#45;&gt;Node20 -->
<g id="edge24" class="edge"><title>Node16&#45;&gt;Node20</title>
<path fill="none" stroke="midnightblue" d="M150.824,-122.208C168.25,-101.354 201.901,-63.8132 237,-39.5 238.908,-38.1785 240.9,-36.8998 242.945,-35.6668"/>
<polygon fill="midnightblue" stroke="midnightblue" points="245.109,-38.4697 252.162,-30.5637 241.718,-32.3458 245.109,-38.4697"/>
</g>
<!-- Node21 -->
<g id="node21" class="node"><title>Node21</title>
<g id="a_node21"><a xlink:href="../../db/d4c/classpfasst_1_1SDC.html#abaf353cbe65d6c3545cbd5f4540cb74b" target="_top" xlink:title="Run vanilla SDC. ">
<polygon fill="white" stroke="black" points="245.5,-197 245.5,-216 335.5,-216 335.5,-197 245.5,-197"/>
<text text-anchor="middle" x="290.5" y="-204" font-family="Helvetica,sans-Serif" font-size="10.00">pfasst::SDC::run</text>
</a>
</g>
</g>
<!-- Node16&#45;&gt;Node21 -->
<g id="edge25" class="edge"><title>Node16&#45;&gt;Node21</title>
<path fill="none" stroke="midnightblue" d="M167.027,-152.615C186.507,-162.708 213.031,-176.003 237,-186.5 242.193,-188.774 247.734,-191.047 253.198,-193.201"/>
<polygon fill="midnightblue" stroke="midnightblue" points="252.268,-196.594 262.857,-196.926 254.786,-190.063 252.268,-196.594"/>
</g>
</g>
</svg>
