<?xml version="1.0" encoding="UTF-8" standalone="no"?>
<!DOCTYPE svg PUBLIC "-//W3C//DTD SVG 1.1//EN"
 "http://www.w3.org/Graphics/SVG/1.1/DTD/svg11.dtd">
<!-- Generated by graphviz version 2.38.0 (20140413.2041)
 -->
<!-- Title: examples/boris/bindings/simple_physics_solver.cpp Pages: 1 -->
<svg width="348pt" height="151pt"
 viewBox="0.00 0.00 348.00 151.00" xmlns="http://www.w3.org/2000/svg" xmlns:xlink="http://www.w3.org/1999/xlink">
<g id="graph0" class="graph" transform="scale(1 1) rotate(0) translate(4 147)">
<title>examples/boris/bindings/simple_physics_solver.cpp</title>
<polygon fill="white" stroke="none" points="-4,4 -4,-147 344,-147 344,4 -4,4"/>
<!-- Node1 -->
<g id="node1" class="node"><title>Node1</title>
<polygon fill="#bfbfbf" stroke="black" points="144.5,-112.5 144.5,-142.5 283.5,-142.5 283.5,-112.5 144.5,-112.5"/>
<text text-anchor="start" x="152.5" y="-130.5" font-family="Helvetica,sans-Serif" font-size="10.00">examples/boris/bindings</text>
<text text-anchor="middle" x="214" y="-119.5" font-family="Helvetica,sans-Serif" font-size="10.00">/simple_physics_solver.cpp</text>
</g>
<!-- Node2 -->
<g id="node2" class="node"><title>Node2</title>
<g id="a_node2"><a xlink:href="../../de/dca/simple__physics__solver_8hpp.html" target="_top" xlink:title="simple_physics_solver.hpp">
<polygon fill="white" stroke="black" points="0,-56.5 0,-75.5 136,-75.5 136,-56.5 0,-56.5"/>
<text text-anchor="middle" x="68" y="-63.5" font-family="Helvetica,sans-Serif" font-size="10.00">simple_physics_solver.hpp</text>
</a>
</g>
</g>
<!-- Node1&#45;&gt;Node2 -->
<g id="edge1" class="edge"><title>Node1&#45;&gt;Node2</title>
<path fill="none" stroke="midnightblue" d="M179.4,-112.399C154.904,-102.416 122.343,-89.1465 98.7545,-79.5335"/>
<polygon fill="midnightblue" stroke="midnightblue" points="99.8257,-76.1906 89.2443,-75.6578 97.1839,-82.673 99.8257,-76.1906"/>
</g>
<!-- Node4 -->
<g id="node4" class="node"><title>Node4</title>
<polygon fill="white" stroke="#bfbfbf" points="154,-56.5 154,-75.5 204,-75.5 204,-56.5 154,-56.5"/>
<text text-anchor="middle" x="179" y="-63.5" font-family="Helvetica,sans-Serif" font-size="10.00">cassert</text>
</g>
<!-- Node1&#45;&gt;Node4 -->
<g id="edge3" class="edge"><title>Node1&#45;&gt;Node4</title>
<path fill="none" stroke="midnightblue" d="M205.705,-112.399C200.777,-104.021 194.486,-93.3269 189.249,-84.4229"/>
<polygon fill="midnightblue" stroke="midnightblue" points="192.18,-82.5025 184.093,-75.6578 186.146,-86.0517 192.18,-82.5025"/>
</g>
<!-- Node5 -->
<g id="node5" class="node"><title>Node5</title>
<polygon fill="white" stroke="#bfbfbf" points="222,-56.5 222,-75.5 278,-75.5 278,-56.5 222,-56.5"/>
<text text-anchor="middle" x="250" y="-63.5" font-family="Helvetica,sans-Serif" font-size="10.00">iostream</text>
</g>
<!-- Node1&#45;&gt;Node5 -->
<g id="edge4" class="edge"><title>Node1&#45;&gt;Node5</title>
<path fill="none" stroke="midnightblue" d="M222.531,-112.399C227.601,-104.021 234.071,-93.3269 239.458,-84.4229"/>
<polygon fill="midnightblue" stroke="midnightblue" points="242.58,-86.0255 244.762,-75.6578 236.59,-82.4018 242.58,-86.0255"/>
</g>
<!-- Node6 -->
<g id="node6" class="node"><title>Node6</title>
<polygon fill="white" stroke="#bfbfbf" points="296,-56.5 296,-75.5 340,-75.5 340,-56.5 296,-56.5"/>
<text text-anchor="middle" x="318" y="-63.5" font-family="Helvetica,sans-Serif" font-size="10.00">cmath</text>
</g>
<!-- Node1&#45;&gt;Node6 -->
<g id="edge5" class="edge"><title>Node1&#45;&gt;Node6</title>
<path fill="none" stroke="midnightblue" d="M238.647,-112.399C255.317,-102.862 277.231,-90.3248 293.805,-80.8422"/>
<polygon fill="midnightblue" stroke="midnightblue" points="295.925,-83.6617 302.867,-75.6578 292.449,-77.5858 295.925,-83.6617"/>
</g>
<!-- Node3 -->
<g id="node3" class="node"><title>Node3</title>
<polygon fill="white" stroke="#bfbfbf" points="45.5,-0.5 45.5,-19.5 90.5,-19.5 90.5,-0.5 45.5,-0.5"/>
<text text-anchor="middle" x="68" y="-7.5" font-family="Helvetica,sans-Serif" font-size="10.00">cstdlib</text>
</g>
<!-- Node2&#45;&gt;Node3 -->
<g id="edge2" class="edge"><title>Node2&#45;&gt;Node3</title>
<path fill="none" stroke="midnightblue" d="M68,-56.083C68,-49.0059 68,-38.8611 68,-29.9865"/>
<polygon fill="midnightblue" stroke="midnightblue" points="71.5001,-29.751 68,-19.7511 64.5001,-29.7511 71.5001,-29.751"/>
</g>
</g>
</svg>
