<?xml version="1.0" encoding="UTF-8" standalone="no"?>
<!DOCTYPE svg PUBLIC "-//W3C//DTD SVG 1.1//EN"
 "http://www.w3.org/Graphics/SVG/1.1/DTD/svg11.dtd">
<!-- Generated by graphviz version 2.38.0 (20140413.2041)
 -->
<!-- Title: examples/boris/particle_util.hpp Pages: 1 -->
<!--zoomable 586 -->
<svg id="main" version="1.1" xmlns="http://www.w3.org/2000/svg" xmlns:xlink="http://www.w3.org/1999/xlink" xml:space="preserve" onload="init(evt)">
<style type="text/css"><![CDATA[
.edge:hover path { stroke: red; }
.edge:hover polygon { stroke: red; fill: red; }
]]></style>
<script type="text/javascript"><![CDATA[
var edges = document.getElementsByTagName('g');
if (edges && edges.length) {
  for (var i=0;i<edges.length;i++) {
    if (edges[i].id.substr(0,4)=='edge') {
      edges[i].setAttribute('class','edge');
    }
  }
}
]]></script>
        <defs>
                <circle id="rim" cx="0" cy="0" r="7"/>
                <circle id="rim2" cx="0" cy="0" r="3.5"/>
                <g id="zoomPlus">
                        <use xlink:href="#rim" fill="#404040">
                                <set attributeName="fill" to="#808080" begin="zoomplus.mouseover" end="zoomplus.mouseout"/>
                        </use>
                        <path d="M-4,0h8M0,-4v8" fill="none" stroke="white" stroke-width="1.5" pointer-events="none"/>
                </g>
                <g id="zoomMin">
                        <use xlink:href="#rim" fill="#404040">
                                <set attributeName="fill" to="#808080" begin="zoomminus.mouseover" end="zoomminus.mouseout"/>
                        </use>
                        <path d="M-4,0h8" fill="none" stroke="white" stroke-width="1.5" pointer-events="none"/>
                </g>
                <g id="dirArrow">
                        <path fill="none" stroke="white" stroke-width="1.5" d="M0,-3.0v7 M-2.5,-0.5L0,-3.0L2.5,-0.5"/>
                </g>
               <g id="resetDef">
                       <use xlink:href="#rim2" fill="#404040">
                               <set attributeName="fill" to="#808080" begin="reset.mouseover" end="reset.mouseout"/>
                       </use>
               </g>
        </defs>

<script type="text/javascript">
var viewWidth = 808;
var viewHeight = 586;
var sectionId = 'dynsection-1';
</script>
<script xlink:href="../../svgpan.js"/>
<svg id="graph" class="graph">
<g id="viewport">
<title>examples/boris/particle_util.hpp</title>
<polygon fill="white" stroke="none" points="-4,4 -4,-582 804,-582 804,4 -4,4"/>
<!-- Node1 -->
<g id="node1" class="node"><title>Node1</title>
<polygon fill="#bfbfbf" stroke="black" points="285.5,-547.5 285.5,-577.5 406.5,-577.5 406.5,-547.5 285.5,-547.5"/>
<text text-anchor="start" x="293.5" y="-565.5" font-family="Helvetica,sans-Serif" font-size="10.00">examples/boris/particle</text>
<text text-anchor="middle" x="346" y="-554.5" font-family="Helvetica,sans-Serif" font-size="10.00">_util.hpp</text>
</g>
<!-- Node2 -->
<g id="node2" class="node"><title>Node2</title>
<g id="a_node2"><a xlink:href="../../d3/d35/particle__impl_8hpp.html" target="_top" xlink:title="examples/boris/particle\l_impl.hpp">
<polygon fill="white" stroke="black" points="98.5,-480.5 98.5,-510.5 219.5,-510.5 219.5,-480.5 98.5,-480.5"/>
<text text-anchor="start" x="106.5" y="-498.5" font-family="Helvetica,sans-Serif" font-size="10.00">examples/boris/particle</text>
<text text-anchor="middle" x="159" y="-487.5" font-family="Helvetica,sans-Serif" font-size="10.00">_impl.hpp</text>
</a>
</g>
</g>
<!-- Node1&#45;&gt;Node2 -->
<g id="edge1" class="edge"><title>Node1&#45;&gt;Node2</title>
<path fill="none" stroke="midnightblue" d="M295.918,-544.092C265.73,-533.599 227.782,-520.408 199.497,-510.577"/>
<polygon fill="midnightblue" stroke="midnightblue" points="294.829,-547.419 305.424,-547.396 297.127,-540.807 294.829,-547.419"/>
</g>
<!-- Node11 -->
<g id="node11" class="node"><title>Node11</title>
<g id="a_node11"><a xlink:href="../../db/dfd/boris__sweeper_8hpp.html" target="_top" xlink:title="examples/boris/boris\l_sweeper.hpp">
<polygon fill="white" stroke="black" points="150,-151 150,-181 260,-181 260,-151 150,-151"/>
<text text-anchor="start" x="158" y="-169" font-family="Helvetica,sans-Serif" font-size="10.00">examples/boris/boris</text>
<text text-anchor="middle" x="205" y="-158" font-family="Helvetica,sans-Serif" font-size="10.00">_sweeper.hpp</text>
</a>
</g>
</g>
<!-- Node1&#45;&gt;Node11 -->
<g id="edge41" class="edge"><title>Node1&#45;&gt;Node11</title>
<path fill="none" stroke="midnightblue" d="M275.286,-557.324C221.867,-551.915 147.937,-539.499 89,-511 42.1721,-488.356 0,-487.015 0,-435 0,-435 0,-435 0,-304.5 0,-232.183 89.0762,-195.459 149.794,-178.828"/>
<polygon fill="midnightblue" stroke="midnightblue" points="275.061,-560.819 285.349,-558.285 275.727,-553.85 275.061,-560.819"/>
</g>
<!-- Node12 -->
<g id="node12" class="node"><title>Node12</title>
<g id="a_node12"><a xlink:href="../../db/d9a/boris__sweeper__impl_8hpp.html" target="_top" xlink:title="examples/boris/boris\l_sweeper_impl.hpp">
<polygon fill="white" stroke="black" points="150,-223.5 150,-253.5 260,-253.5 260,-223.5 150,-223.5"/>
<text text-anchor="start" x="158" y="-241.5" font-family="Helvetica,sans-Serif" font-size="10.00">examples/boris/boris</text>
<text text-anchor="middle" x="205" y="-230.5" font-family="Helvetica,sans-Serif" font-size="10.00">_sweeper_impl.hpp</text>
</a>
</g>
</g>
<!-- Node1&#45;&gt;Node12 -->
<g id="edge42" class="edge"><title>Node1&#45;&gt;Node12</title>
<path fill="none" stroke="midnightblue" d="M335.594,-537.736C307.928,-474.556 233.166,-303.823 211.168,-253.587"/>
<polygon fill="midnightblue" stroke="midnightblue" points="332.542,-539.492 339.759,-547.249 338.954,-536.684 332.542,-539.492"/>
</g>
<!-- Node14 -->
<g id="node14" class="node"><title>Node14</title>
<g id="a_node14"><a xlink:href="../../d6/d1f/particle__cloud__impl_8hpp.html" target="_top" xlink:title="examples/boris/particle\l_cloud_impl.hpp">
<polygon fill="white" stroke="black" points="612.5,-290.5 612.5,-320.5 733.5,-320.5 733.5,-290.5 612.5,-290.5"/>
<text text-anchor="start" x="620.5" y="-308.5" font-family="Helvetica,sans-Serif" font-size="10.00">examples/boris/particle</text>
<text text-anchor="middle" x="673" y="-297.5" font-family="Helvetica,sans-Serif" font-size="10.00">_cloud_impl.hpp</text>
</a>
</g>
</g>
<!-- Node1&#45;&gt;Node14 -->
<g id="edge40" class="edge"><title>Node1&#45;&gt;Node14</title>
<path fill="none" stroke="midnightblue" d="M372.06,-541.178C436.182,-491.175 600.369,-363.139 655.009,-320.53"/>
<polygon fill="midnightblue" stroke="midnightblue" points="369.78,-538.517 364.047,-547.427 374.085,-544.037 369.78,-538.517"/>
</g>
<!-- Node15 -->
<g id="node15" class="node"><title>Node15</title>
<g id="a_node15"><a xlink:href="../../d0/d00/particle__util__impl_8hpp.html" target="_top" xlink:title="examples/boris/particle\l_util_impl.hpp">
<polygon fill="white" stroke="black" points="472.5,-480.5 472.5,-510.5 593.5,-510.5 593.5,-480.5 472.5,-480.5"/>
<text text-anchor="start" x="480.5" y="-498.5" font-family="Helvetica,sans-Serif" font-size="10.00">examples/boris/particle</text>
<text text-anchor="middle" x="533" y="-487.5" font-family="Helvetica,sans-Serif" font-size="10.00">_util_impl.hpp</text>
</a>
</g>
</g>
<!-- Node1&#45;&gt;Node15 -->
<g id="edge38" class="edge"><title>Node1&#45;&gt;Node15</title>
<path fill="none" stroke="midnightblue" d="M390.405,-543.955C419.504,-533.485 457.379,-520.366 486.828,-510.577"/>
<polygon fill="midnightblue" stroke="midnightblue" points="389.11,-540.702 380.898,-547.396 391.492,-547.284 389.11,-540.702"/>
</g>
<!-- Node3 -->
<g id="node3" class="node"><title>Node3</title>
<g id="a_node3"><a xlink:href="../../d4/dec/particle_8hpp.html" target="_top" xlink:title="examples/boris/particle.hpp">
<polygon fill="white" stroke="black" points="89.5,-424.5 89.5,-443.5 228.5,-443.5 228.5,-424.5 89.5,-424.5"/>
<text text-anchor="middle" x="159" y="-431.5" font-family="Helvetica,sans-Serif" font-size="10.00">examples/boris/particle.hpp</text>
</a>
</g>
</g>
<!-- Node2&#45;&gt;Node3 -->
<g id="edge2" class="edge"><title>Node2&#45;&gt;Node3</title>
<path fill="none" stroke="midnightblue" d="M152.355,-470.289C151.993,-460.857 152.565,-450.655 154.071,-443.658"/>
<polygon fill="midnightblue" stroke="midnightblue" points="148.877,-470.709 153.16,-480.399 155.855,-470.153 148.877,-470.709"/>
</g>
<!-- Node3&#45;&gt;Node2 -->
<g id="edge32" class="edge"><title>Node3&#45;&gt;Node2</title>
<path fill="none" stroke="midnightblue" d="M165.307,-453.569C166.026,-462.233 165.87,-472.377 164.84,-480.399"/>
<polygon fill="midnightblue" stroke="midnightblue" points="168.773,-453.081 163.929,-443.658 161.84,-454.044 168.773,-453.081"/>
</g>
<!-- Node4 -->
<g id="node4" class="node"><title>Node4</title>
<g id="a_node4"><a xlink:href="../../d8/d52/particle__cloud_8hpp.html" target="_top" xlink:title="examples/boris/particle\l_cloud.hpp">
<polygon fill="white" stroke="black" points="294.5,-357.5 294.5,-387.5 415.5,-387.5 415.5,-357.5 294.5,-357.5"/>
<text text-anchor="start" x="302.5" y="-375.5" font-family="Helvetica,sans-Serif" font-size="10.00">examples/boris/particle</text>
<text text-anchor="middle" x="355" y="-364.5" font-family="Helvetica,sans-Serif" font-size="10.00">_cloud.hpp</text>
</a>
</g>
</g>
<!-- Node3&#45;&gt;Node4 -->
<g id="edge3" class="edge"><title>Node3&#45;&gt;Node4</title>
<path fill="none" stroke="midnightblue" d="M196.938,-421.483C228.894,-411.782 274.719,-397.871 308.807,-387.523"/>
<polygon fill="midnightblue" stroke="midnightblue" points="195.634,-418.221 187.082,-424.475 197.668,-424.919 195.634,-418.221"/>
</g>
<!-- Node8 -->
<g id="node8" class="node"><title>Node8</title>
<g id="a_node8"><a xlink:href="../../d7/d31/boris__mlsdc_8cpp.html" target="_top" xlink:title="examples/boris/boris\l_mlsdc.cpp">
<polygon fill="white" stroke="black" points="104,-0.5 104,-30.5 214,-30.5 214,-0.5 104,-0.5"/>
<text text-anchor="start" x="112" y="-18.5" font-family="Helvetica,sans-Serif" font-size="10.00">examples/boris/boris</text>
<text text-anchor="middle" x="159" y="-7.5" font-family="Helvetica,sans-Serif" font-size="10.00">_mlsdc.cpp</text>
</a>
</g>
</g>
<!-- Node3&#45;&gt;Node8 -->
<g id="edge33" class="edge"><title>Node3&#45;&gt;Node8</title>
<path fill="none" stroke="midnightblue" d="M131.645,-419.718C95.953,-400.248 38,-360.343 38,-306.5 38,-306.5 38,-306.5 38,-165 38,-103.809 100.509,-53.8647 135.67,-30.6114"/>
<polygon fill="midnightblue" stroke="midnightblue" points="130.143,-422.883 140.623,-424.444 133.404,-416.689 130.143,-422.883"/>
</g>
<!-- Node9 -->
<g id="node9" class="node"><title>Node9</title>
<g id="a_node9"><a xlink:href="../../d2/d1e/boris__pfasst_8cpp.html" target="_top" xlink:title="examples/boris/boris\l_pfasst.cpp">
<polygon fill="white" stroke="black" points="512,-0.5 512,-30.5 622,-30.5 622,-0.5 512,-0.5"/>
<text text-anchor="start" x="520" y="-18.5" font-family="Helvetica,sans-Serif" font-size="10.00">examples/boris/boris</text>
<text text-anchor="middle" x="567" y="-7.5" font-family="Helvetica,sans-Serif" font-size="10.00">_pfasst.cpp</text>
</a>
</g>
</g>
<!-- Node3&#45;&gt;Node9 -->
<g id="edge36" class="edge"><title>Node3&#45;&gt;Node9</title>
<path fill="none" stroke="midnightblue" d="M238.762,-433.769C410.529,-433.275 800,-419.675 800,-306.5 800,-306.5 800,-306.5 800,-165 800,-114.16 781.298,-97.9967 741,-67 706.718,-40.6305 659.066,-28.019 622.296,-21.9937"/>
<polygon fill="midnightblue" stroke="midnightblue" points="238.508,-430.269 228.513,-433.784 238.518,-437.269 238.508,-430.269"/>
</g>
<!-- Node10 -->
<g id="node10" class="node"><title>Node10</title>
<g id="a_node10"><a xlink:href="../../d3/d93/boris__sdc_8cpp.html" target="_top" xlink:title="examples/boris/boris\l_sdc.cpp">
<polygon fill="white" stroke="black" points="586,-73 586,-103 696,-103 696,-73 586,-73"/>
<text text-anchor="start" x="594" y="-91" font-family="Helvetica,sans-Serif" font-size="10.00">examples/boris/boris</text>
<text text-anchor="middle" x="641" y="-80" font-family="Helvetica,sans-Serif" font-size="10.00">_sdc.cpp</text>
</a>
</g>
</g>
<!-- Node3&#45;&gt;Node10 -->
<g id="edge37" class="edge"><title>Node3&#45;&gt;Node10</title>
<path fill="none" stroke="midnightblue" d="M238.644,-429.895C383.221,-422.392 679.699,-397.796 742,-321 799.428,-250.212 697.404,-141.757 656.685,-103.204"/>
<polygon fill="midnightblue" stroke="midnightblue" points="238.313,-426.407 228.502,-430.406 238.666,-433.398 238.313,-426.407"/>
</g>
<!-- Node3&#45;&gt;Node11 -->
<g id="edge34" class="edge"><title>Node3&#45;&gt;Node11</title>
<path fill="none" stroke="midnightblue" d="M151.74,-414.906C137.819,-377.248 111.274,-288.509 141,-223 149.053,-205.253 165.817,-190.919 180.168,-181.197"/>
<polygon fill="midnightblue" stroke="midnightblue" points="148.57,-416.416 155.427,-424.493 155.104,-413.903 148.57,-416.416"/>
</g>
<!-- Node3&#45;&gt;Node12 -->
<g id="edge35" class="edge"><title>Node3&#45;&gt;Node12</title>
<path fill="none" stroke="midnightblue" d="M163.373,-414.603C172.512,-376.161 193.461,-288.038 201.641,-253.63"/>
<polygon fill="midnightblue" stroke="midnightblue" points="159.944,-413.897 161.036,-424.436 166.754,-415.517 159.944,-413.897"/>
</g>
<!-- Node5 -->
<g id="node5" class="node"><title>Node5</title>
<g id="a_node5"><a xlink:href="../../d9/dd9/wrapper__interface_8hpp.html" target="_top" xlink:title="examples/boris/bindings\l/wrapper_interface.hpp">
<polygon fill="white" stroke="black" points="316,-290.5 316,-320.5 442,-320.5 442,-290.5 316,-290.5"/>
<text text-anchor="start" x="324" y="-308.5" font-family="Helvetica,sans-Serif" font-size="10.00">examples/boris/bindings</text>
<text text-anchor="middle" x="379" y="-297.5" font-family="Helvetica,sans-Serif" font-size="10.00">/wrapper_interface.hpp</text>
</a>
</g>
</g>
<!-- Node4&#45;&gt;Node5 -->
<g id="edge4" class="edge"><title>Node4&#45;&gt;Node5</title>
<path fill="none" stroke="midnightblue" d="M363.68,-347.991C367.072,-338.804 370.848,-328.578 373.803,-320.577"/>
<polygon fill="midnightblue" stroke="midnightblue" points="360.388,-346.803 360.208,-357.396 366.955,-349.227 360.388,-346.803"/>
</g>
<!-- Node6 -->
<g id="node6" class="node"><title>Node6</title>
<g id="a_node6"><a xlink:href="../../dd/da4/wrapper__simple__physics__solver_8hpp.html" target="_top" xlink:title="examples/boris/bindings\l/wrapper_simple_physics\l_solver.hpp">
<polygon fill="white" stroke="black" points="341.5,-145.5 341.5,-186.5 470.5,-186.5 470.5,-145.5 341.5,-145.5"/>
<text text-anchor="start" x="349.5" y="-174.5" font-family="Helvetica,sans-Serif" font-size="10.00">examples/boris/bindings</text>
<text text-anchor="start" x="349.5" y="-163.5" font-family="Helvetica,sans-Serif" font-size="10.00">/wrapper_simple_physics</text>
<text text-anchor="middle" x="406" y="-152.5" font-family="Helvetica,sans-Serif" font-size="10.00">_solver.hpp</text>
</a>
</g>
</g>
<!-- Node4&#45;&gt;Node6 -->
<g id="edge26" class="edge"><title>Node4&#45;&gt;Node6</title>
<path fill="none" stroke="midnightblue" d="M413.809,-353.071C428.482,-345.535 442.455,-335.151 451,-321 477.422,-277.247 442.845,-217.093 421.141,-186.531"/>
<polygon fill="midnightblue" stroke="midnightblue" points="412.176,-349.972 404.625,-357.404 415.162,-356.303 412.176,-349.972"/>
</g>
<!-- Node4&#45;&gt;Node8 -->
<g id="edge27" class="edge"><title>Node4&#45;&gt;Node8</title>
<path fill="none" stroke="midnightblue" d="M288.039,-354.252C238.092,-337.532 173.164,-306.757 141,-254 97.5787,-182.778 100.646,-146.78 125,-67 129.135,-53.4543 138.257,-40.2529 146.012,-30.7467"/>
<polygon fill="midnightblue" stroke="midnightblue" points="287.223,-357.666 297.814,-357.411 289.375,-351.005 287.223,-357.666"/>
</g>
<!-- Node4&#45;&gt;Node9 -->
<g id="edge30" class="edge"><title>Node4&#45;&gt;Node9</title>
<path fill="none" stroke="midnightblue" d="M418.653,-354.448C444.967,-346.148 475.273,-334.922 501,-321 620.987,-256.069 685.238,-240.099 723,-109 728.167,-91.0626 733.98,-82.0957 723,-67 700.143,-35.576 657.309,-23.3053 622.3,-18.6968"/>
<polygon fill="midnightblue" stroke="midnightblue" points="417.31,-351.199 408.782,-357.485 419.369,-357.889 417.31,-351.199"/>
</g>
<!-- Node4&#45;&gt;Node10 -->
<g id="edge31" class="edge"><title>Node4&#45;&gt;Node10</title>
<path fill="none" stroke="midnightblue" d="M411.019,-353.707C430.917,-345.698 452.66,-334.871 470,-321 551.468,-255.831 613.662,-142.923 633.938,-103.267"/>
<polygon fill="midnightblue" stroke="midnightblue" points="409.493,-350.544 401.426,-357.413 412.016,-357.074 409.493,-350.544"/>
</g>
<!-- Node4&#45;&gt;Node11 -->
<g id="edge28" class="edge"><title>Node4&#45;&gt;Node11</title>
<path fill="none" stroke="midnightblue" d="M331.364,-350.38C322.856,-341.88 313.712,-331.588 307,-321 281.989,-281.544 295.798,-261.265 269,-223 257.313,-206.311 239.628,-191.342 225.808,-181.088"/>
<polygon fill="midnightblue" stroke="midnightblue" points="328.969,-352.933 338.599,-357.351 333.826,-347.893 328.969,-352.933"/>
</g>
<!-- Node4&#45;&gt;Node12 -->
<g id="edge29" class="edge"><title>Node4&#45;&gt;Node12</title>
<path fill="none" stroke="midnightblue" d="M318.857,-352.232C304.219,-343.619 287.6,-332.758 274,-321 250.018,-300.266 227.288,-270.868 214.838,-253.631"/>
<polygon fill="midnightblue" stroke="midnightblue" points="317.255,-355.348 327.67,-357.293 320.741,-349.278 317.255,-355.348"/>
</g>
<!-- Node4&#45;&gt;Node14 -->
<g id="edge24" class="edge"><title>Node4&#45;&gt;Node14</title>
<path fill="none" stroke="midnightblue" d="M425.529,-355.885C481.591,-344.149 559.105,-328.346 612.405,-317.81"/>
<polygon fill="midnightblue" stroke="midnightblue" points="424.741,-352.474 415.673,-357.953 426.178,-359.325 424.741,-352.474"/>
</g>
<!-- Node5&#45;&gt;Node6 -->
<g id="edge5" class="edge"><title>Node5&#45;&gt;Node6</title>
<path fill="none" stroke="midnightblue" d="M383.759,-280.263C388.994,-253.604 397.305,-211.28 402.148,-186.618"/>
<polygon fill="midnightblue" stroke="midnightblue" points="380.28,-279.816 381.788,-290.303 387.149,-281.165 380.28,-279.816"/>
</g>
<!-- Node5&#45;&gt;Node8 -->
<g id="edge11" class="edge"><title>Node5&#45;&gt;Node8</title>
<path fill="none" stroke="midnightblue" d="M369.233,-280.697C345.123,-222.121 284.139,-75.1249 276,-67 259.012,-50.0411 235.407,-38.3862 213.846,-30.5856"/>
<polygon fill="midnightblue" stroke="midnightblue" points="366.118,-282.325 373.158,-290.243 372.592,-279.663 366.118,-282.325"/>
</g>
<!-- Node5&#45;&gt;Node9 -->
<g id="edge22" class="edge"><title>Node5&#45;&gt;Node9</title>
<path fill="none" stroke="midnightblue" d="M442.035,-287.441C519.853,-262.61 648.784,-208.262 705,-109 714.199,-92.7573 715.693,-82.3001 705,-67 686.366,-40.3384 652.062,-27.7077 622.319,-21.7453"/>
<polygon fill="midnightblue" stroke="midnightblue" points="440.844,-284.146 432.34,-290.466 442.929,-290.829 440.844,-284.146"/>
</g>
<!-- Node5&#45;&gt;Node10 -->
<g id="edge23" class="edge"><title>Node5&#45;&gt;Node10</title>
<path fill="none" stroke="midnightblue" d="M397.403,-282.783C425.752,-250.187 482.835,-187.872 540,-145 562.135,-128.399 589.755,-113.423 610.515,-103.144"/>
<polygon fill="midnightblue" stroke="midnightblue" points="394.714,-280.542 390.832,-290.4 400.014,-285.114 394.714,-280.542"/>
</g>
<!-- Node5&#45;&gt;Node11 -->
<g id="edge12" class="edge"><title>Node5&#45;&gt;Node11</title>
<path fill="none" stroke="midnightblue" d="M361.206,-282.388C346.494,-264.964 324.445,-240.734 302,-223 280.945,-206.364 254.402,-191.391 234.407,-181.122"/>
<polygon fill="midnightblue" stroke="midnightblue" points="358.727,-284.881 367.809,-290.337 364.111,-280.408 358.727,-284.881"/>
</g>
<!-- Node5&#45;&gt;Node12 -->
<g id="edge21" class="edge"><title>Node5&#45;&gt;Node12</title>
<path fill="none" stroke="midnightblue" d="M331.668,-286.819C303.7,-276.371 268.773,-263.323 242.682,-253.577"/>
<polygon fill="midnightblue" stroke="midnightblue" points="330.652,-290.175 341.245,-290.396 333.102,-283.618 330.652,-290.175"/>
</g>
<!-- Node7 -->
<g id="node7" class="node"><title>Node7</title>
<g id="a_node7"><a xlink:href="../../d5/d9e/wrapper__simple__physics__solver__impl_8hpp.html" target="_top" xlink:title="examples/boris/bindings\l/wrapper_simple_physics\l_solver_impl.hpp">
<polygon fill="white" stroke="black" points="438.5,-67.5 438.5,-108.5 567.5,-108.5 567.5,-67.5 438.5,-67.5"/>
<text text-anchor="start" x="446.5" y="-96.5" font-family="Helvetica,sans-Serif" font-size="10.00">examples/boris/bindings</text>
<text text-anchor="start" x="446.5" y="-85.5" font-family="Helvetica,sans-Serif" font-size="10.00">/wrapper_simple_physics</text>
<text text-anchor="middle" x="503" y="-74.5" font-family="Helvetica,sans-Serif" font-size="10.00">_solver_impl.hpp</text>
</a>
</g>
</g>
<!-- Node6&#45;&gt;Node7 -->
<g id="edge6" class="edge"><title>Node6&#45;&gt;Node7</title>
<path fill="none" stroke="midnightblue" d="M433.014,-138.779C445.178,-128.843 459.537,-117.716 472.122,-108.506"/>
<polygon fill="midnightblue" stroke="midnightblue" points="430.457,-136.352 424.992,-145.428 434.924,-141.741 430.457,-136.352"/>
</g>
<!-- Node6&#45;&gt;Node8 -->
<g id="edge8" class="edge"><title>Node6&#45;&gt;Node8</title>
<path fill="none" stroke="midnightblue" d="M385.142,-137.412C367.327,-115.566 339.896,-85.7111 310,-67 280.71,-48.6685 244.023,-36.1988 214.145,-28.2369"/>
<polygon fill="midnightblue" stroke="midnightblue" points="382.508,-139.723 391.484,-145.353 387.978,-135.355 382.508,-139.723"/>
</g>
<!-- Node6&#45;&gt;Node9 -->
<g id="edge9" class="edge"><title>Node6&#45;&gt;Node9</title>
<path fill="none" stroke="midnightblue" d="M405.828,-135.058C407.262,-113.695 412.538,-85.5717 429,-67 450.069,-43.2311 483.284,-30.6372 511.848,-23.9705"/>
<polygon fill="midnightblue" stroke="midnightblue" points="402.323,-135.089 405.394,-145.229 409.317,-135.387 402.323,-135.089"/>
</g>
<!-- Node6&#45;&gt;Node10 -->
<g id="edge10" class="edge"><title>Node6&#45;&gt;Node10</title>
<path fill="none" stroke="midnightblue" d="M476.322,-142.258C515.651,-129.538 563.437,-114.084 597.381,-103.106"/>
<polygon fill="midnightblue" stroke="midnightblue" points="474.956,-139.021 466.518,-145.428 477.11,-145.681 474.956,-139.021"/>
</g>
<!-- Node7&#45;&gt;Node6 -->
<g id="edge7" class="edge"><title>Node7&#45;&gt;Node6</title>
<path fill="none" stroke="midnightblue" d="M476.074,-115.15C463.92,-125.08 449.562,-136.209 436.968,-145.428"/>
<polygon fill="midnightblue" stroke="midnightblue" points="478.623,-117.583 484.087,-108.506 474.155,-112.194 478.623,-117.583"/>
</g>
<!-- Node11&#45;&gt;Node8 -->
<g id="edge13" class="edge"><title>Node11&#45;&gt;Node8</title>
<path fill="none" stroke="midnightblue" d="M167.338,-145.337C153.941,-136.23 140.362,-124.053 133,-109 120.174,-82.776 137.034,-49.1799 148.986,-30.5451"/>
<polygon fill="midnightblue" stroke="midnightblue" points="165.732,-148.464 176.048,-150.877 169.489,-142.557 165.732,-148.464"/>
</g>
<!-- Node11&#45;&gt;Node9 -->
<g id="edge19" class="edge"><title>Node11&#45;&gt;Node9</title>
<path fill="none" stroke="midnightblue" d="M239.732,-146.084C279.241,-125.036 346.059,-90.8576 406,-67 441.927,-52.7004 483.609,-39.7208 515.56,-30.5019"/>
<polygon fill="midnightblue" stroke="midnightblue" points="237.938,-143.074 230.774,-150.88 241.242,-149.245 237.938,-143.074"/>
</g>
<!-- Node11&#45;&gt;Node10 -->
<g id="edge20" class="edge"><title>Node11&#45;&gt;Node10</title>
<path fill="none" stroke="midnightblue" d="M270.444,-154.569C290.217,-151.451 311.989,-148.052 332,-145 440.365,-128.474 469.084,-133.188 576,-109 583.37,-107.333 591.118,-105.249 598.593,-103.061"/>
<polygon fill="midnightblue" stroke="midnightblue" points="269.637,-151.153 260.306,-156.171 270.73,-158.068 269.637,-151.153"/>
</g>
<!-- Node11&#45;&gt;Node12 -->
<g id="edge14" class="edge"><title>Node11&#45;&gt;Node12</title>
<path fill="none" stroke="midnightblue" d="M211.449,-191.244C212.051,-201.905 211.751,-214.06 210.549,-223.233"/>
<polygon fill="midnightblue" stroke="midnightblue" points="214.931,-190.89 210.546,-181.246 207.959,-191.52 214.931,-190.89"/>
</g>
<!-- Node13 -->
<g id="node13" class="node"><title>Node13</title>
<g id="a_node13"><a xlink:href="../../d2/dc5/injective__transfer_8hpp.html" target="_top" xlink:title="examples/boris/injective\l_transfer.hpp">
<polygon fill="white" stroke="black" points="142.5,-73 142.5,-103 267.5,-103 267.5,-73 142.5,-73"/>
<text text-anchor="start" x="150.5" y="-91" font-family="Helvetica,sans-Serif" font-size="10.00">examples/boris/injective</text>
<text text-anchor="middle" x="205" y="-80" font-family="Helvetica,sans-Serif" font-size="10.00">_transfer.hpp</text>
</a>
</g>
</g>
<!-- Node11&#45;&gt;Node13 -->
<g id="edge16" class="edge"><title>Node11&#45;&gt;Node13</title>
<path fill="none" stroke="midnightblue" d="M205,-140.59C205,-128.257 205,-113.724 205,-103.231"/>
<polygon fill="midnightblue" stroke="midnightblue" points="201.5,-140.705 205,-150.705 208.5,-140.705 201.5,-140.705"/>
</g>
<!-- Node12&#45;&gt;Node11 -->
<g id="edge15" class="edge"><title>Node12&#45;&gt;Node11</title>
<path fill="none" stroke="midnightblue" d="M198.55,-213.232C197.949,-202.568 198.251,-190.414 199.454,-181.246"/>
<polygon fill="midnightblue" stroke="midnightblue" points="195.068,-213.588 199.451,-223.233 202.04,-212.959 195.068,-213.588"/>
</g>
<!-- Node13&#45;&gt;Node8 -->
<g id="edge17" class="edge"><title>Node13&#45;&gt;Node8</title>
<path fill="none" stroke="midnightblue" d="M190.03,-64.0566C182.872,-53.0859 174.527,-40.2965 168.295,-30.7455"/>
<polygon fill="midnightblue" stroke="midnightblue" points="187.295,-66.2709 195.691,-72.7333 193.158,-62.4457 187.295,-66.2709"/>
</g>
<!-- Node13&#45;&gt;Node9 -->
<g id="edge18" class="edge"><title>Node13&#45;&gt;Node9</title>
<path fill="none" stroke="midnightblue" d="M277.592,-72.8626C346.73,-59.3979 449.283,-39.4256 511.931,-27.2247"/>
<polygon fill="midnightblue" stroke="midnightblue" points="276.789,-69.4532 267.642,-74.8003 278.127,-76.3241 276.789,-69.4532"/>
</g>
<!-- Node14&#45;&gt;Node4 -->
<g id="edge25" class="edge"><title>Node14&#45;&gt;Node4</title>
<path fill="none" stroke="midnightblue" d="M602.44,-322.121C546.403,-333.852 468.946,-349.644 415.658,-360.178"/>
<polygon fill="midnightblue" stroke="midnightblue" points="603.224,-325.533 612.292,-320.054 601.787,-318.682 603.224,-325.533"/>
</g>
<!-- Node15&#45;&gt;Node1 -->
<g id="edge39" class="edge"><title>Node15&#45;&gt;Node1</title>
<path fill="none" stroke="midnightblue" d="M488.677,-514.015C459.594,-524.481 421.72,-537.601 392.255,-547.396"/>
<polygon fill="midnightblue" stroke="midnightblue" points="489.966,-517.271 498.178,-510.577 487.584,-510.689 489.966,-517.271"/>
</g>
</g>
</svg>
        <g id="navigator" transform="translate(0 0)" fill="#404254">
                <rect fill="#f2f5e9" fill-opacity="0.5" stroke="#606060" stroke-width=".5" x="0" y="0" width="60" height="60"/>
                <use id="zoomplus" xlink:href="#zoomPlus" x="17" y="9" onmousedown="handleZoom(evt,'in')"/>
                <use id="zoomminus" xlink:href="#zoomMin" x="42" y="9" onmousedown="handleZoom(evt,'out')"/>
                <use id="reset" xlink:href="#resetDef" x="30" y="36" onmousedown="handleReset()"/>
                <g id="arrowUp" xlink:href="#dirArrow" transform="translate(30 24)" onmousedown="handlePan(0,-1)">
                  <use xlink:href="#rim" fill="#404040">
                        <set attributeName="fill" to="#808080" begin="arrowUp.mouseover" end="arrowUp.mouseout"/>
                  </use>
                  <path fill="none" stroke="white" stroke-width="1.5" d="M0,-3.0v7 M-2.5,-0.5L0,-3.0L2.5,-0.5"/>
                </g>
                <g id="arrowRight" xlink:href="#dirArrow" transform="rotate(90) translate(36 -43)" onmousedown="handlePan(1,0)">
                  <use xlink:href="#rim" fill="#404040">
                        <set attributeName="fill" to="#808080" begin="arrowRight.mouseover" end="arrowRight.mouseout"/>
                  </use>
                  <path fill="none" stroke="white" stroke-width="1.5" d="M0,-3.0v7 M-2.5,-0.5L0,-3.0L2.5,-0.5"/>
                </g>
                <g id="arrowDown" xlink:href="#dirArrow" transform="rotate(180) translate(-30 -48)" onmousedown="handlePan(0,1)">
                  <use xlink:href="#rim" fill="#404040">
                        <set attributeName="fill" to="#808080" begin="arrowDown.mouseover" end="arrowDown.mouseout"/>
                  </use>
                  <path fill="none" stroke="white" stroke-width="1.5" d="M0,-3.0v7 M-2.5,-0.5L0,-3.0L2.5,-0.5"/>
                </g>
                <g id="arrowLeft" xlink:href="#dirArrow" transform="rotate(270) translate(-36 17)" onmousedown="handlePan(-1,0)">
                  <use xlink:href="#rim" fill="#404040">
                        <set attributeName="fill" to="#808080" begin="arrowLeft.mouseover" end="arrowLeft.mouseout"/>
                  </use>
                  <path fill="none" stroke="white" stroke-width="1.5" d="M0,-3.0v7 M-2.5,-0.5L0,-3.0L2.5,-0.5"/>
                </g>
        </g>
        <svg viewBox="0 0 15 15" width="100%" height="30px" preserveAspectRatio="xMaxYMin meet">
         <g id="arrow_out" transform="scale(0.3 0.3)">
          <a xlink:href="particle__util_8hpp__dep__incl_org.svg" target="_base">
           <rect id="button" ry="5" rx="5" y="6" x="6" height="38" width="38"
                fill="#f2f5e9" fill-opacity="0.5" stroke="#606060" stroke-width="1.0"/>
           <path id="arrow"
             d="M 11.500037,31.436501 C 11.940474,20.09759 22.043105,11.32322 32.158766,21.979434 L 37.068811,17.246167 C 37.068811,17.246167 37.088388,32 37.088388,32 L 22.160133,31.978069 C 22.160133,31.978069 26.997745,27.140456 26.997745,27.140456 C 18.528582,18.264221 13.291696,25.230495 11.500037,31.436501 z"
             style="fill:#404040;"/>
          </a>
         </g>
        </svg>
</svg>
