<?xml version="1.0" encoding="UTF-8" standalone="no"?>
<!DOCTYPE svg PUBLIC "-//W3C//DTD SVG 1.1//EN"
 "http://www.w3.org/Graphics/SVG/1.1/DTD/svg11.dtd">
<!-- Generated by graphviz version 2.38.0 (20140413.2041)
 -->
<!-- Title: include/pfasst/encap/poly_interp.hpp Pages: 1 -->
<svg width="336pt" height="184pt"
 viewBox="0.00 0.00 335.50 184.00" xmlns="http://www.w3.org/2000/svg" xmlns:xlink="http://www.w3.org/1999/xlink">
<g id="graph0" class="graph" transform="scale(1 1) rotate(0) translate(4 180)">
<title>include/pfasst/encap/poly_interp.hpp</title>
<polygon fill="white" stroke="none" points="-4,4 -4,-180 331.5,-180 331.5,4 -4,4"/>
<!-- Node1 -->
<g id="node1" class="node"><title>Node1</title>
<polygon fill="#bfbfbf" stroke="black" points="1.5,-145.5 1.5,-175.5 110.5,-175.5 110.5,-145.5 1.5,-145.5"/>
<text text-anchor="start" x="9.5" y="-163.5" font-family="Helvetica,sans-Serif" font-size="10.00">include/pfasst/encap</text>
<text text-anchor="middle" x="56" y="-152.5" font-family="Helvetica,sans-Serif" font-size="10.00">/poly_interp.hpp</text>
</g>
<!-- Node2 -->
<g id="node2" class="node"><title>Node2</title>
<g id="a_node2"><a xlink:href="../../d9/d3c/poly__interp__impl_8hpp.html" target="_top" xlink:title="src/pfasst/encap/poly\l_interp_impl.hpp">
<polygon fill="white" stroke="black" points="-7.10543e-15,-73 -7.10543e-15,-103 112,-103 112,-73 -7.10543e-15,-73"/>
<text text-anchor="start" x="8" y="-91" font-family="Helvetica,sans-Serif" font-size="10.00">src/pfasst/encap/poly</text>
<text text-anchor="middle" x="56" y="-80" font-family="Helvetica,sans-Serif" font-size="10.00">_interp_impl.hpp</text>
</a>
</g>
</g>
<!-- Node1&#45;&gt;Node2 -->
<g id="edge1" class="edge"><title>Node1&#45;&gt;Node2</title>
<path fill="none" stroke="midnightblue" d="M49.55,-135.232C48.9493,-124.568 49.2507,-112.414 50.4541,-103.246"/>
<polygon fill="midnightblue" stroke="midnightblue" points="46.0678,-135.588 50.4514,-145.233 53.0395,-134.959 46.0678,-135.588"/>
</g>
<!-- Node3 -->
<g id="node3" class="node"><title>Node3</title>
<g id="a_node3"><a xlink:href="../../d0/dbe/spectral__transfer__1d_8hpp.html" target="_top" xlink:title="examples/advection\l_diffusion/spectral\l_transfer_1d.hpp">
<polygon fill="white" stroke="black" points="130,-67.5 130,-108.5 238,-108.5 238,-67.5 130,-67.5"/>
<text text-anchor="start" x="138" y="-96.5" font-family="Helvetica,sans-Serif" font-size="10.00">examples/advection</text>
<text text-anchor="start" x="138" y="-85.5" font-family="Helvetica,sans-Serif" font-size="10.00">_diffusion/spectral</text>
<text text-anchor="middle" x="184" y="-74.5" font-family="Helvetica,sans-Serif" font-size="10.00">_transfer_1d.hpp</text>
</a>
</g>
</g>
<!-- Node1&#45;&gt;Node3 -->
<g id="edge3" class="edge"><title>Node1&#45;&gt;Node3</title>
<path fill="none" stroke="midnightblue" d="M90.5458,-140.473C108.423,-130.626 130.223,-118.62 148.269,-108.68"/>
<polygon fill="midnightblue" stroke="midnightblue" points="88.6658,-137.512 81.5951,-145.403 92.0429,-143.644 88.6658,-137.512"/>
</g>
<!-- Node2&#45;&gt;Node1 -->
<g id="edge2" class="edge"><title>Node2&#45;&gt;Node1</title>
<path fill="none" stroke="midnightblue" d="M62.4486,-113.244C63.0507,-123.905 62.7507,-136.06 61.5486,-145.233"/>
<polygon fill="midnightblue" stroke="midnightblue" points="65.931,-112.89 61.5459,-103.246 58.9594,-113.52 65.931,-112.89"/>
</g>
<!-- Node4 -->
<g id="node4" class="node"><title>Node4</title>
<g id="a_node4"><a xlink:href="../../d1/d49/mpi__pfasst_8cpp.html" target="_top" xlink:title="Advection&#45;Diffusion with MPI&#45;enabled PFASST. ">
<polygon fill="white" stroke="black" points="45.5,-0.5 45.5,-30.5 172.5,-30.5 172.5,-0.5 45.5,-0.5"/>
<text text-anchor="start" x="53.5" y="-18.5" font-family="Helvetica,sans-Serif" font-size="10.00">examples/advection</text>
<text text-anchor="middle" x="109" y="-7.5" font-family="Helvetica,sans-Serif" font-size="10.00">_diffusion/mpi_pfasst.cpp</text>
</a>
</g>
</g>
<!-- Node3&#45;&gt;Node4 -->
<g id="edge4" class="edge"><title>Node3&#45;&gt;Node4</title>
<path fill="none" stroke="midnightblue" d="M155.606,-60.3098C144.979,-50.3198 133.312,-39.3535 124.31,-30.8916"/>
<polygon fill="midnightblue" stroke="midnightblue" points="153.425,-63.0629 163.108,-67.3618 158.219,-57.9625 153.425,-63.0629"/>
</g>
<!-- Node5 -->
<g id="node5" class="node"><title>Node5</title>
<g id="a_node5"><a xlink:href="../../d9/d86/serial__mlsdc_8cpp.html" target="_top" xlink:title="Advection&#45;Diffusion with serial MLSDC. ">
<polygon fill="white" stroke="black" points="190.5,-0.5 190.5,-30.5 327.5,-30.5 327.5,-0.5 190.5,-0.5"/>
<text text-anchor="start" x="198.5" y="-18.5" font-family="Helvetica,sans-Serif" font-size="10.00">examples/advection</text>
<text text-anchor="middle" x="259" y="-7.5" font-family="Helvetica,sans-Serif" font-size="10.00">_diffusion/serial_mlsdc.cpp</text>
</a>
</g>
</g>
<!-- Node3&#45;&gt;Node5 -->
<g id="edge5" class="edge"><title>Node3&#45;&gt;Node5</title>
<path fill="none" stroke="midnightblue" d="M212.394,-60.3098C223.021,-50.3198 234.688,-39.3535 243.69,-30.8916"/>
<polygon fill="midnightblue" stroke="midnightblue" points="209.781,-57.9625 204.892,-67.3618 214.575,-63.0629 209.781,-57.9625"/>
</g>
</g>
</svg>
