<?xml version="1.0" encoding="UTF-8" standalone="no"?>
<!DOCTYPE svg PUBLIC "-//W3C//DTD SVG 1.1//EN"
 "http://www.w3.org/Graphics/SVG/1.1/DTD/svg11.dtd">
<!-- Generated by graphviz version 2.38.0 (20140413.2041)
 -->
<!-- Title: src/pfasst/encap/vector_impl.hpp Pages: 1 -->
<svg width="711pt" height="318pt"
 viewBox="0.00 0.00 711.00 318.00" xmlns="http://www.w3.org/2000/svg" xmlns:xlink="http://www.w3.org/1999/xlink">
<g id="graph0" class="graph" transform="scale(1 1) rotate(0) translate(4 314)">
<title>src/pfasst/encap/vector_impl.hpp</title>
<polygon fill="white" stroke="none" points="-4,4 -4,-314 707,-314 707,4 -4,4"/>
<!-- Node1 -->
<g id="node1" class="node"><title>Node1</title>
<polygon fill="#bfbfbf" stroke="black" points="293,-279.5 293,-309.5 414,-309.5 414,-279.5 293,-279.5"/>
<text text-anchor="start" x="301" y="-297.5" font-family="Helvetica,sans-Serif" font-size="10.00">src/pfasst/encap/vector</text>
<text text-anchor="middle" x="353.5" y="-286.5" font-family="Helvetica,sans-Serif" font-size="10.00">_impl.hpp</text>
</g>
<!-- Node2 -->
<g id="node2" class="node"><title>Node2</title>
<g id="a_node2"><a xlink:href="../../da/d16/vector_8hpp.html" target="_top" xlink:title="include/pfasst/encap\l/vector.hpp">
<polygon fill="white" stroke="black" points="299,-212.5 299,-242.5 408,-242.5 408,-212.5 299,-212.5"/>
<text text-anchor="start" x="307" y="-230.5" font-family="Helvetica,sans-Serif" font-size="10.00">include/pfasst/encap</text>
<text text-anchor="middle" x="353.5" y="-219.5" font-family="Helvetica,sans-Serif" font-size="10.00">/vector.hpp</text>
</a>
</g>
</g>
<!-- Node1&#45;&gt;Node2 -->
<g id="edge1" class="edge"><title>Node1&#45;&gt;Node2</title>
<path fill="none" stroke="midnightblue" d="M346.955,-269.403C346.505,-260.37 346.796,-250.408 347.825,-242.577"/>
<polygon fill="midnightblue" stroke="midnightblue" points="343.47,-269.736 347.822,-279.396 350.444,-269.131 343.47,-269.736"/>
</g>
<!-- Node2&#45;&gt;Node1 -->
<g id="edge2" class="edge"><title>Node2&#45;&gt;Node1</title>
<path fill="none" stroke="midnightblue" d="M360.044,-252.565C360.495,-261.596 360.206,-271.56 359.178,-279.396"/>
<polygon fill="midnightblue" stroke="midnightblue" points="363.528,-252.236 359.175,-242.577 356.555,-252.842 363.528,-252.236"/>
</g>
<!-- Node3 -->
<g id="node3" class="node"><title>Node3</title>
<g id="a_node3"><a xlink:href="../../db/d53/fft_8hpp.html" target="_top" xlink:title="examples/advection\l_diffusion/fft.hpp">
<polygon fill="white" stroke="black" points="172.5,-145.5 172.5,-175.5 280.5,-175.5 280.5,-145.5 172.5,-145.5"/>
<text text-anchor="start" x="180.5" y="-163.5" font-family="Helvetica,sans-Serif" font-size="10.00">examples/advection</text>
<text text-anchor="middle" x="226.5" y="-152.5" font-family="Helvetica,sans-Serif" font-size="10.00">_diffusion/fft.hpp</text>
</a>
</g>
</g>
<!-- Node2&#45;&gt;Node3 -->
<g id="edge3" class="edge"><title>Node2&#45;&gt;Node3</title>
<path fill="none" stroke="midnightblue" d="M316.796,-207.714C296.766,-197.463 272.381,-184.983 254.003,-175.577"/>
<polygon fill="midnightblue" stroke="midnightblue" points="315.446,-210.956 325.943,-212.396 318.636,-204.724 315.446,-210.956"/>
</g>
<!-- Node5 -->
<g id="node5" class="node"><title>Node5</title>
<g id="a_node5"><a xlink:href="../../d1/d49/mpi__pfasst_8cpp.html" target="_top" xlink:title="Advection&#45;Diffusion with MPI&#45;enabled PFASST. ">
<polygon fill="white" stroke="black" points="0,-0.5 0,-30.5 127,-30.5 127,-0.5 0,-0.5"/>
<text text-anchor="start" x="8" y="-18.5" font-family="Helvetica,sans-Serif" font-size="10.00">examples/advection</text>
<text text-anchor="middle" x="63.5" y="-7.5" font-family="Helvetica,sans-Serif" font-size="10.00">_diffusion/mpi_pfasst.cpp</text>
</a>
</g>
</g>
<!-- Node2&#45;&gt;Node5 -->
<g id="edge11" class="edge"><title>Node2&#45;&gt;Node5</title>
<path fill="none" stroke="midnightblue" d="M288.357,-226.3C208.576,-221.948 78.167,-200.396 30.5,-109 16.7807,-82.695 36.9563,-49.4157 51.2888,-30.795"/>
<polygon fill="midnightblue" stroke="midnightblue" points="288.633,-229.817 298.785,-226.787 288.959,-222.825 288.633,-229.817"/>
</g>
<!-- Node6 -->
<g id="node6" class="node"><title>Node6</title>
<g id="a_node6"><a xlink:href="../../d9/d86/serial__mlsdc_8cpp.html" target="_top" xlink:title="Advection&#45;Diffusion with serial MLSDC. ">
<polygon fill="white" stroke="black" points="145,-0.5 145,-30.5 282,-30.5 282,-0.5 145,-0.5"/>
<text text-anchor="start" x="153" y="-18.5" font-family="Helvetica,sans-Serif" font-size="10.00">examples/advection</text>
<text text-anchor="middle" x="213.5" y="-7.5" font-family="Helvetica,sans-Serif" font-size="10.00">_diffusion/serial_mlsdc.cpp</text>
</a>
</g>
</g>
<!-- Node2&#45;&gt;Node6 -->
<g id="edge13" class="edge"><title>Node2&#45;&gt;Node6</title>
<path fill="none" stroke="midnightblue" d="M349.831,-202.29C343.691,-168.723 328.589,-107.602 295.5,-67 282.614,-51.1881 263.387,-38.9778 246.789,-30.5274"/>
<polygon fill="midnightblue" stroke="midnightblue" points="346.383,-202.894 351.521,-212.159 353.283,-201.712 346.383,-202.894"/>
</g>
<!-- Node7 -->
<g id="node7" class="node"><title>Node7</title>
<g id="a_node7"><a xlink:href="../../d4/df0/vanilla__sdc_8cpp.html" target="_top" xlink:title="Advection&#45;Diffusion with vanilla SDC. ">
<polygon fill="white" stroke="black" points="300,-0.5 300,-30.5 431,-30.5 431,-0.5 300,-0.5"/>
<text text-anchor="start" x="308" y="-18.5" font-family="Helvetica,sans-Serif" font-size="10.00">examples/advection</text>
<text text-anchor="middle" x="365.5" y="-7.5" font-family="Helvetica,sans-Serif" font-size="10.00">_diffusion/vanilla_sdc.cpp</text>
</a>
</g>
</g>
<!-- Node2&#45;&gt;Node7 -->
<g id="edge14" class="edge"><title>Node2&#45;&gt;Node7</title>
<path fill="none" stroke="midnightblue" d="M354.885,-202.263C357.41,-158.079 362.686,-65.7445 364.698,-30.5434"/>
<polygon fill="midnightblue" stroke="midnightblue" points="351.382,-202.212 354.306,-212.395 358.371,-202.611 351.382,-202.212"/>
</g>
<!-- Node8 -->
<g id="node8" class="node"><title>Node8</title>
<g id="a_node8"><a xlink:href="../../d0/dbe/spectral__transfer__1d_8hpp.html" target="_top" xlink:title="examples/advection\l_diffusion/spectral\l_transfer_1d.hpp">
<polygon fill="white" stroke="black" points="39.5,-67.5 39.5,-108.5 147.5,-108.5 147.5,-67.5 39.5,-67.5"/>
<text text-anchor="start" x="47.5" y="-96.5" font-family="Helvetica,sans-Serif" font-size="10.00">examples/advection</text>
<text text-anchor="start" x="47.5" y="-85.5" font-family="Helvetica,sans-Serif" font-size="10.00">_diffusion/spectral</text>
<text text-anchor="middle" x="93.5" y="-74.5" font-family="Helvetica,sans-Serif" font-size="10.00">_transfer_1d.hpp</text>
</a>
</g>
</g>
<!-- Node2&#45;&gt;Node8 -->
<g id="edge12" class="edge"><title>Node2&#45;&gt;Node8</title>
<path fill="none" stroke="midnightblue" d="M288.482,-219.542C249.718,-212.989 200.931,-200.338 163.5,-176 137.171,-158.88 116.133,-128.589 104.233,-108.651"/>
<polygon fill="midnightblue" stroke="midnightblue" points="288.193,-223.04 298.619,-221.157 289.294,-216.127 288.193,-223.04"/>
</g>
<!-- Node9 -->
<g id="node9" class="node"><title>Node9</title>
<g id="a_node9"><a xlink:href="../../d2/daf/scalar__sdc_8cpp.html" target="_top" xlink:title="Scalar test equation example using an encapsulated IMEX sweeper. ">
<polygon fill="white" stroke="black" points="437.5,-73 437.5,-103 559.5,-103 559.5,-73 437.5,-73"/>
<text text-anchor="start" x="445.5" y="-91" font-family="Helvetica,sans-Serif" font-size="10.00">examples/scalar/scalar</text>
<text text-anchor="middle" x="498.5" y="-80" font-family="Helvetica,sans-Serif" font-size="10.00">_sdc.cpp</text>
</a>
</g>
</g>
<!-- Node2&#45;&gt;Node9 -->
<g id="edge15" class="edge"><title>Node2&#45;&gt;Node9</title>
<path fill="none" stroke="midnightblue" d="M418.584,-223.382C452.396,-218.048 491.035,-205.339 512.5,-176 528.308,-154.393 515.961,-121.672 506.566,-103.128"/>
<polygon fill="midnightblue" stroke="midnightblue" points="417.696,-219.972 408.27,-224.811 418.656,-226.905 417.696,-219.972"/>
</g>
<!-- Node10 -->
<g id="node10" class="node"><title>Node10</title>
<g id="a_node10"><a xlink:href="../../d8/d93/scalar__sweeper_8hpp.html" target="_top" xlink:title="examples/scalar/scalar\l_sweeper.hpp">
<polygon fill="white" stroke="black" points="381.5,-145.5 381.5,-175.5 503.5,-175.5 503.5,-145.5 381.5,-145.5"/>
<text text-anchor="start" x="389.5" y="-163.5" font-family="Helvetica,sans-Serif" font-size="10.00">examples/scalar/scalar</text>
<text text-anchor="middle" x="442.5" y="-152.5" font-family="Helvetica,sans-Serif" font-size="10.00">_sweeper.hpp</text>
</a>
</g>
</g>
<!-- Node2&#45;&gt;Node10 -->
<g id="edge16" class="edge"><title>Node2&#45;&gt;Node10</title>
<path fill="none" stroke="midnightblue" d="M380.952,-206.451C394.643,-196.452 410.871,-184.6 423.226,-175.577"/>
<polygon fill="midnightblue" stroke="midnightblue" points="378.823,-203.672 372.812,-212.396 382.952,-209.324 378.823,-203.672"/>
</g>
<!-- Node11 -->
<g id="node11" class="node"><title>Node11</title>
<g id="a_node11"><a xlink:href="../../df/de7/vdp__sdc_8cpp.html" target="_top" xlink:title="examples/vanderpol\l/vdp_sdc.cpp">
<polygon fill="white" stroke="black" points="594,-73 594,-103 703,-103 703,-73 594,-73"/>
<text text-anchor="start" x="602" y="-91" font-family="Helvetica,sans-Serif" font-size="10.00">examples/vanderpol</text>
<text text-anchor="middle" x="648.5" y="-80" font-family="Helvetica,sans-Serif" font-size="10.00">/vdp_sdc.cpp</text>
</a>
</g>
</g>
<!-- Node2&#45;&gt;Node11 -->
<g id="edge18" class="edge"><title>Node2&#45;&gt;Node11</title>
<path fill="none" stroke="midnightblue" d="M418.126,-225.998C503.148,-223.808 645.659,-214.338 678.5,-176 696.689,-154.766 675.991,-121.908 661.073,-103.24"/>
<polygon fill="midnightblue" stroke="midnightblue" points="417.97,-222.501 408.053,-226.231 418.131,-229.499 417.97,-222.501"/>
</g>
<!-- Node12 -->
<g id="node12" class="node"><title>Node12</title>
<g id="a_node12"><a xlink:href="../../d6/d93/vdp__sweeper_8hpp.html" target="_top" xlink:title="examples/vanderpol\l/vdp_sweeper.hpp">
<polygon fill="white" stroke="black" points="560,-145.5 560,-175.5 669,-175.5 669,-145.5 560,-145.5"/>
<text text-anchor="start" x="568" y="-163.5" font-family="Helvetica,sans-Serif" font-size="10.00">examples/vanderpol</text>
<text text-anchor="middle" x="614.5" y="-152.5" font-family="Helvetica,sans-Serif" font-size="10.00">/vdp_sweeper.hpp</text>
</a>
</g>
</g>
<!-- Node2&#45;&gt;Node12 -->
<g id="edge19" class="edge"><title>Node2&#45;&gt;Node12</title>
<path fill="none" stroke="midnightblue" d="M418.14,-210.402C461.709,-199.551 518.55,-185.396 559.858,-175.108"/>
<polygon fill="midnightblue" stroke="midnightblue" points="417.072,-207.061 408.214,-212.874 418.764,-213.853 417.072,-207.061"/>
</g>
<!-- Node4 -->
<g id="node4" class="node"><title>Node4</title>
<g id="a_node4"><a xlink:href="../../dc/d7d/advection__diffusion__sweeper_8hpp.html" target="_top" xlink:title="examples/advection\l_diffusion/advection\l_diffusion_sweeper.hpp">
<polygon fill="white" stroke="black" points="166,-67.5 166,-108.5 287,-108.5 287,-67.5 166,-67.5"/>
<text text-anchor="start" x="174" y="-96.5" font-family="Helvetica,sans-Serif" font-size="10.00">examples/advection</text>
<text text-anchor="start" x="174" y="-85.5" font-family="Helvetica,sans-Serif" font-size="10.00">_diffusion/advection</text>
<text text-anchor="middle" x="226.5" y="-74.5" font-family="Helvetica,sans-Serif" font-size="10.00">_diffusion_sweeper.hpp</text>
</a>
</g>
</g>
<!-- Node3&#45;&gt;Node4 -->
<g id="edge4" class="edge"><title>Node3&#45;&gt;Node4</title>
<path fill="none" stroke="midnightblue" d="M226.5,-134.982C226.5,-126.347 226.5,-116.762 226.5,-108.588"/>
<polygon fill="midnightblue" stroke="midnightblue" points="223,-135.233 226.5,-145.233 230,-135.233 223,-135.233"/>
</g>
<!-- Node3&#45;&gt;Node8 -->
<g id="edge8" class="edge"><title>Node3&#45;&gt;Node8</title>
<path fill="none" stroke="midnightblue" d="M190.824,-140.589C172.124,-130.677 149.249,-118.551 130.375,-108.546"/>
<polygon fill="midnightblue" stroke="midnightblue" points="189.43,-143.812 199.905,-145.403 192.709,-137.627 189.43,-143.812"/>
</g>
<!-- Node4&#45;&gt;Node5 -->
<g id="edge5" class="edge"><title>Node4&#45;&gt;Node5</title>
<path fill="none" stroke="midnightblue" d="M171.675,-63.2874C146.55,-52.4202 117.622,-39.9088 96.0067,-30.5597"/>
<polygon fill="midnightblue" stroke="midnightblue" points="170.528,-66.6044 181.095,-67.3618 173.307,-60.1796 170.528,-66.6044"/>
</g>
<!-- Node4&#45;&gt;Node6 -->
<g id="edge6" class="edge"><title>Node4&#45;&gt;Node6</title>
<path fill="none" stroke="midnightblue" d="M221.037,-57.3757C219.348,-48.214 217.563,-38.5319 216.154,-30.8916"/>
<polygon fill="midnightblue" stroke="midnightblue" points="217.623,-58.1623 222.879,-67.3618 224.507,-56.8929 217.623,-58.1623"/>
</g>
<!-- Node4&#45;&gt;Node7 -->
<g id="edge7" class="edge"><title>Node4&#45;&gt;Node7</title>
<path fill="none" stroke="midnightblue" d="M274.355,-62.728C295.436,-52.0358 319.469,-39.8466 337.562,-30.67"/>
<polygon fill="midnightblue" stroke="midnightblue" points="272.555,-59.7169 265.219,-67.3618 275.721,-65.9598 272.555,-59.7169"/>
</g>
<!-- Node8&#45;&gt;Node5 -->
<g id="edge9" class="edge"><title>Node8&#45;&gt;Node5</title>
<path fill="none" stroke="midnightblue" d="M81.1451,-57.966C77.1729,-48.6314 72.9452,-38.6962 69.6241,-30.8916"/>
<polygon fill="midnightblue" stroke="midnightblue" points="78.0072,-59.5307 85.1433,-67.3618 84.4483,-56.7898 78.0072,-59.5307"/>
</g>
<!-- Node8&#45;&gt;Node6 -->
<g id="edge10" class="edge"><title>Node8&#45;&gt;Node6</title>
<path fill="none" stroke="midnightblue" d="M135.55,-62.2957C153.571,-51.7084 173.971,-39.7232 189.381,-30.67"/>
<polygon fill="midnightblue" stroke="midnightblue" points="133.776,-59.2785 126.927,-67.3618 137.322,-65.314 133.776,-59.2785"/>
</g>
<!-- Node10&#45;&gt;Node9 -->
<g id="edge17" class="edge"><title>Node10&#45;&gt;Node9</title>
<path fill="none" stroke="midnightblue" d="M460.203,-137.213C469.031,-126.099 479.446,-112.988 487.184,-103.246"/>
<polygon fill="midnightblue" stroke="midnightblue" points="457.312,-135.226 453.832,-145.233 462.793,-139.58 457.312,-135.226"/>
</g>
<!-- Node12&#45;&gt;Node11 -->
<g id="edge20" class="edge"><title>Node12&#45;&gt;Node11</title>
<path fill="none" stroke="midnightblue" d="M625.883,-135.896C631.102,-125.076 637.116,-112.606 641.63,-103.246"/>
<polygon fill="midnightblue" stroke="midnightblue" points="622.572,-134.706 621.38,-145.233 628.877,-137.746 622.572,-134.706"/>
</g>
</g>
</svg>
