<?xml version="1.0" encoding="UTF-8" standalone="no"?>
<!DOCTYPE svg PUBLIC "-//W3C//DTD SVG 1.1//EN"
 "http://www.w3.org/Graphics/SVG/1.1/DTD/svg11.dtd">
<!-- Generated by graphviz version 2.38.0 (20140413.2041)
 -->
<!-- Title: pfasst::MLSDC&lt; time &gt; Pages: 1 -->
<!--zoomable 1326 -->
<svg id="main" version="1.1" xmlns="http://www.w3.org/2000/svg" xmlns:xlink="http://www.w3.org/1999/xlink" xml:space="preserve" onload="init(evt)">
<style type="text/css"><![CDATA[
.edge:hover path { stroke: red; }
.edge:hover polygon { stroke: red; fill: red; }
]]></style>
<script type="text/javascript"><![CDATA[
var edges = document.getElementsByTagName('g');
if (edges && edges.length) {
  for (var i=0;i<edges.length;i++) {
    if (edges[i].id.substr(0,4)=='edge') {
      edges[i].setAttribute('class','edge');
    }
  }
}
]]></script>
        <defs>
                <circle id="rim" cx="0" cy="0" r="7"/>
                <circle id="rim2" cx="0" cy="0" r="3.5"/>
                <g id="zoomPlus">
                        <use xlink:href="#rim" fill="#404040">
                                <set attributeName="fill" to="#808080" begin="zoomplus.mouseover" end="zoomplus.mouseout"/>
                        </use>
                        <path d="M-4,0h8M0,-4v8" fill="none" stroke="white" stroke-width="1.5" pointer-events="none"/>
                </g>
                <g id="zoomMin">
                        <use xlink:href="#rim" fill="#404040">
                                <set attributeName="fill" to="#808080" begin="zoomminus.mouseover" end="zoomminus.mouseout"/>
                        </use>
                        <path d="M-4,0h8" fill="none" stroke="white" stroke-width="1.5" pointer-events="none"/>
                </g>
                <g id="dirArrow">
                        <path fill="none" stroke="white" stroke-width="1.5" d="M0,-3.0v7 M-2.5,-0.5L0,-3.0L2.5,-0.5"/>
                </g>
               <g id="resetDef">
                       <use xlink:href="#rim2" fill="#404040">
                               <set attributeName="fill" to="#808080" begin="reset.mouseover" end="reset.mouseout"/>
                       </use>
               </g>
        </defs>

<script type="text/javascript">
var viewWidth = 363;
var viewHeight = 1326;
var sectionId = 'dynsection-1';
</script>
<script xlink:href="../../svgpan.js"/>
<svg id="graph" class="graph">
<g id="viewport">
<title>pfasst::MLSDC&lt; time &gt;</title>
<polygon fill="white" stroke="none" points="-4,4 -4,-1322 359,-1322 359,4 -4,4"/>
<!-- Node1 -->
<g id="node1" class="node"><title>Node1</title>
<polygon fill="#bfbfbf" stroke="black" points="200.5,-0.5 200.5,-156.5 321.5,-156.5 321.5,-0.5 200.5,-0.5"/>
<text text-anchor="middle" x="261" y="-144.5" font-family="Helvetica,sans-Serif" font-size="10.00">pfasst::MLSDC&lt; time &gt;</text>
<polyline fill="none" stroke="black" points="200.5,-137.5 321.5,-137.5 "/>
<text text-anchor="start" x="208.5" y="-125.5" font-family="Helvetica,sans-Serif" font-size="10.00"># predict</text>
<text text-anchor="start" x="208.5" y="-114.5" font-family="Helvetica,sans-Serif" font-size="10.00"># initial</text>
<text text-anchor="start" x="208.5" y="-103.5" font-family="Helvetica,sans-Serif" font-size="10.00"># converged</text>
<polyline fill="none" stroke="black" points="200.5,-96.5 321.5,-96.5 "/>
<text text-anchor="start" x="208.5" y="-84.5" font-family="Helvetica,sans-Serif" font-size="10.00">+ setup()</text>
<text text-anchor="start" x="208.5" y="-73.5" font-family="Helvetica,sans-Serif" font-size="10.00">+ set_nsweeps()</text>
<text text-anchor="start" x="208.5" y="-62.5" font-family="Helvetica,sans-Serif" font-size="10.00">+ run()</text>
<text text-anchor="start" x="208.5" y="-51.5" font-family="Helvetica,sans-Serif" font-size="10.00"># perform_sweeps()</text>
<text text-anchor="start" x="208.5" y="-40.5" font-family="Helvetica,sans-Serif" font-size="10.00">&#45; cycle_down()</text>
<text text-anchor="start" x="208.5" y="-29.5" font-family="Helvetica,sans-Serif" font-size="10.00">&#45; cycle_up()</text>
<text text-anchor="start" x="208.5" y="-18.5" font-family="Helvetica,sans-Serif" font-size="10.00">&#45; cycle_bottom()</text>
<text text-anchor="start" x="208.5" y="-7.5" font-family="Helvetica,sans-Serif" font-size="10.00">&#45; cycle_v()</text>
</g>
<!-- Node2 -->
<g id="node2" class="node"><title>Node2</title>
<g id="a_node2"><a xlink:href="../../d4/da9/classpfasst_1_1Controller.html" target="_top" xlink:title="Base SDC/MLSDC/PFASST controller. ">
<polygon fill="white" stroke="black" points="133,-194.5 133,-922.5 249,-922.5 249,-194.5 133,-194.5"/>
<text text-anchor="start" x="141" y="-910.5" font-family="Helvetica,sans-Serif" font-size="10.00">pfasst::Controller</text>
<text text-anchor="middle" x="191" y="-899.5" font-family="Helvetica,sans-Serif" font-size="10.00">&lt; time &gt;</text>
<polyline fill="none" stroke="black" points="133,-892.5 249,-892.5 "/>
<text text-anchor="start" x="141" y="-880.5" font-family="Helvetica,sans-Serif" font-size="10.00"># step</text>
<text text-anchor="start" x="141" y="-869.5" font-family="Helvetica,sans-Serif" font-size="10.00"># iteration</text>
<text text-anchor="start" x="141" y="-858.5" font-family="Helvetica,sans-Serif" font-size="10.00"># max_iterations</text>
<text text-anchor="start" x="141" y="-847.5" font-family="Helvetica,sans-Serif" font-size="10.00"># t</text>
<text text-anchor="start" x="141" y="-836.5" font-family="Helvetica,sans-Serif" font-size="10.00"># dt</text>
<text text-anchor="start" x="141" y="-825.5" font-family="Helvetica,sans-Serif" font-size="10.00"># tend</text>
<polyline fill="none" stroke="black" points="133,-818.5 249,-818.5 "/>
<text text-anchor="start" x="141" y="-806.5" font-family="Helvetica,sans-Serif" font-size="10.00">+ Controller()</text>
<text text-anchor="start" x="141" y="-795.5" font-family="Helvetica,sans-Serif" font-size="10.00">+ ~Controller()</text>
<text text-anchor="start" x="141" y="-784.5" font-family="Helvetica,sans-Serif" font-size="10.00">+ set_options()</text>
<text text-anchor="start" x="141" y="-773.5" font-family="Helvetica,sans-Serif" font-size="10.00">+ setup()</text>
<text text-anchor="start" x="141" y="-762.5" font-family="Helvetica,sans-Serif" font-size="10.00">+ set_duration()</text>
<text text-anchor="start" x="141" y="-751.5" font-family="Helvetica,sans-Serif" font-size="10.00">+ add_level()</text>
<text text-anchor="start" x="141" y="-740.5" font-family="Helvetica,sans-Serif" font-size="10.00">+ nlevels()</text>
<text text-anchor="start" x="141" y="-729.5" font-family="Helvetica,sans-Serif" font-size="10.00">+ get_level()</text>
<text text-anchor="start" x="141" y="-718.5" font-family="Helvetica,sans-Serif" font-size="10.00">+ get_finest()</text>
<text text-anchor="start" x="141" y="-707.5" font-family="Helvetica,sans-Serif" font-size="10.00">+ get_coarsest()</text>
<text text-anchor="start" x="141" y="-696.5" font-family="Helvetica,sans-Serif" font-size="10.00">+ get_transfer()</text>
<text text-anchor="start" x="141" y="-685.5" font-family="Helvetica,sans-Serif" font-size="10.00">+ get_step()</text>
<text text-anchor="start" x="141" y="-674.5" font-family="Helvetica,sans-Serif" font-size="10.00">+ set_step()</text>
<text text-anchor="start" x="141" y="-663.5" font-family="Helvetica,sans-Serif" font-size="10.00">+ get_step_size()</text>
<text text-anchor="start" x="141" y="-652.5" font-family="Helvetica,sans-Serif" font-size="10.00">+ get_dt()</text>
<text text-anchor="start" x="141" y="-641.5" font-family="Helvetica,sans-Serif" font-size="10.00">+ get_time()</text>
<text text-anchor="start" x="141" y="-630.5" font-family="Helvetica,sans-Serif" font-size="10.00">+ get_t()</text>
<text text-anchor="start" x="141" y="-619.5" font-family="Helvetica,sans-Serif" font-size="10.00">+ advance_time()</text>
<text text-anchor="start" x="141" y="-608.5" font-family="Helvetica,sans-Serif" font-size="10.00">+ get_end_time()</text>
<text text-anchor="start" x="141" y="-597.5" font-family="Helvetica,sans-Serif" font-size="10.00">+ get_iteration()</text>
<text text-anchor="start" x="141" y="-586.5" font-family="Helvetica,sans-Serif" font-size="10.00">+ set_iteration()</text>
<text text-anchor="start" x="141" y="-575.5" font-family="Helvetica,sans-Serif" font-size="10.00">+ advance_iteration()</text>
<text text-anchor="start" x="141" y="-564.5" font-family="Helvetica,sans-Serif" font-size="10.00">+ get_max_iterations()</text>
<text text-anchor="start" x="141" y="-553.5" font-family="Helvetica,sans-Serif" font-size="10.00">+ finest()</text>
<text text-anchor="start" x="141" y="-542.5" font-family="Helvetica,sans-Serif" font-size="10.00">+ coarsest()</text>
<text text-anchor="start" x="141" y="-531.5" font-family="Helvetica,sans-Serif" font-size="10.00">* step</text>
<text text-anchor="start" x="141" y="-520.5" font-family="Helvetica,sans-Serif" font-size="10.00">* iteration</text>
<text text-anchor="start" x="141" y="-509.5" font-family="Helvetica,sans-Serif" font-size="10.00">* max_iterations</text>
<text text-anchor="start" x="141" y="-498.5" font-family="Helvetica,sans-Serif" font-size="10.00">* t</text>
<text text-anchor="start" x="141" y="-487.5" font-family="Helvetica,sans-Serif" font-size="10.00">* dt</text>
<text text-anchor="start" x="141" y="-476.5" font-family="Helvetica,sans-Serif" font-size="10.00">* tend</text>
<text text-anchor="start" x="141" y="-465.5" font-family="Helvetica,sans-Serif" font-size="10.00">* Controller()</text>
<text text-anchor="start" x="141" y="-454.5" font-family="Helvetica,sans-Serif" font-size="10.00">* ~Controller()</text>
<text text-anchor="start" x="141" y="-443.5" font-family="Helvetica,sans-Serif" font-size="10.00">* set_options()</text>
<text text-anchor="start" x="141" y="-432.5" font-family="Helvetica,sans-Serif" font-size="10.00">* setup()</text>
<text text-anchor="start" x="141" y="-421.5" font-family="Helvetica,sans-Serif" font-size="10.00">* set_duration()</text>
<text text-anchor="start" x="141" y="-410.5" font-family="Helvetica,sans-Serif" font-size="10.00">* add_level()</text>
<text text-anchor="start" x="141" y="-399.5" font-family="Helvetica,sans-Serif" font-size="10.00">* nlevels()</text>
<text text-anchor="start" x="141" y="-388.5" font-family="Helvetica,sans-Serif" font-size="10.00">* get_level()</text>
<text text-anchor="start" x="141" y="-377.5" font-family="Helvetica,sans-Serif" font-size="10.00">* get_finest()</text>
<text text-anchor="start" x="141" y="-366.5" font-family="Helvetica,sans-Serif" font-size="10.00">* get_coarsest()</text>
<text text-anchor="start" x="141" y="-355.5" font-family="Helvetica,sans-Serif" font-size="10.00">* get_transfer()</text>
<text text-anchor="start" x="141" y="-344.5" font-family="Helvetica,sans-Serif" font-size="10.00">* get_step()</text>
<text text-anchor="start" x="141" y="-333.5" font-family="Helvetica,sans-Serif" font-size="10.00">* set_step()</text>
<text text-anchor="start" x="141" y="-322.5" font-family="Helvetica,sans-Serif" font-size="10.00">* get_step_size()</text>
<text text-anchor="start" x="141" y="-311.5" font-family="Helvetica,sans-Serif" font-size="10.00">* get_dt()</text>
<text text-anchor="start" x="141" y="-300.5" font-family="Helvetica,sans-Serif" font-size="10.00">* get_time()</text>
<text text-anchor="start" x="141" y="-289.5" font-family="Helvetica,sans-Serif" font-size="10.00">* get_t()</text>
<text text-anchor="start" x="141" y="-278.5" font-family="Helvetica,sans-Serif" font-size="10.00">* advance_time()</text>
<text text-anchor="start" x="141" y="-267.5" font-family="Helvetica,sans-Serif" font-size="10.00">* get_end_time()</text>
<text text-anchor="start" x="141" y="-256.5" font-family="Helvetica,sans-Serif" font-size="10.00">* get_iteration()</text>
<text text-anchor="start" x="141" y="-245.5" font-family="Helvetica,sans-Serif" font-size="10.00">* set_iteration()</text>
<text text-anchor="start" x="141" y="-234.5" font-family="Helvetica,sans-Serif" font-size="10.00">* advance_iteration()</text>
<text text-anchor="start" x="141" y="-223.5" font-family="Helvetica,sans-Serif" font-size="10.00">* get_max_iterations()</text>
<text text-anchor="start" x="141" y="-212.5" font-family="Helvetica,sans-Serif" font-size="10.00">* finest()</text>
<text text-anchor="start" x="141" y="-201.5" font-family="Helvetica,sans-Serif" font-size="10.00">* coarsest()</text>
</a>
</g>
</g>
<!-- Node2&#45;&gt;Node1 -->
<g id="edge1" class="edge"><title>Node2&#45;&gt;Node1</title>
<path fill="none" stroke="midnightblue" d="M245.676,-184.143C247.081,-174.544 248.425,-165.373 249.69,-156.733"/>
<polygon fill="none" stroke="midnightblue" points="242.175,-183.895 244.189,-194.297 249.101,-184.91 242.175,-183.895"/>
</g>
<!-- Node3 -->
<g id="node3" class="node"><title>Node3</title>
<polygon fill="white" stroke="#bfbfbf" points="0,-1017.5 0,-1096.5 116,-1096.5 116,-1017.5 0,-1017.5"/>
<text text-anchor="start" x="8" y="-1084.5" font-family="Helvetica,sans-Serif" font-size="10.00">std::deque&lt; shared</text>
<text text-anchor="start" x="8" y="-1073.5" font-family="Helvetica,sans-Serif" font-size="10.00">_ptr&lt; pfasst::ISweeper</text>
<text text-anchor="middle" x="58" y="-1062.5" font-family="Helvetica,sans-Serif" font-size="10.00">&lt; time &gt; &gt; &gt;</text>
<polyline fill="none" stroke="#bfbfbf" points="0,-1055.5 116,-1055.5 "/>
<text text-anchor="start" x="8" y="-1043.5" font-family="Helvetica,sans-Serif" font-size="10.00">+ elements</text>
<polyline fill="none" stroke="#bfbfbf" points="0,-1036.5 116,-1036.5 "/>
<text text-anchor="middle" x="58" y="-1024.5" font-family="Helvetica,sans-Serif" font-size="10.00"> </text>
</g>
<!-- Node3&#45;&gt;Node2 -->
<g id="edge2" class="edge"><title>Node3&#45;&gt;Node2</title>
<path fill="none" stroke="#404040" d="M68.3256,-1017.45C81.7308,-967.411 106.21,-876.028 129.795,-787.982"/>
<polygon fill="none" stroke="#404040" points="129.861,-787.739 127.549,-780.908 132.966,-776.147 135.277,-782.978 129.861,-787.739"/>
<text text-anchor="middle" x="105" y="-967.5" font-family="Helvetica,sans-Serif" font-size="10.00"> #levels</text>
</g>
<!-- Node4 -->
<g id="node4" class="node"><title>Node4</title>
<g id="a_node4"><a xlink:title="STL class. ">
<polygon fill="white" stroke="#bfbfbf" points="139.5,-1155.5 139.5,-1212.5 230.5,-1212.5 230.5,-1155.5 139.5,-1155.5"/>
<text text-anchor="middle" x="185" y="-1200.5" font-family="Helvetica,sans-Serif" font-size="10.00">std::deque&lt; T &gt;</text>
<polyline fill="none" stroke="#bfbfbf" points="139.5,-1193.5 230.5,-1193.5 "/>
<text text-anchor="middle" x="185" y="-1181.5" font-family="Helvetica,sans-Serif" font-size="10.00"> </text>
<polyline fill="none" stroke="#bfbfbf" points="139.5,-1174.5 230.5,-1174.5 "/>
<text text-anchor="middle" x="185" y="-1162.5" font-family="Helvetica,sans-Serif" font-size="10.00"> </text>
</a>
</g>
</g>
<!-- Node4&#45;&gt;Node3 -->
<g id="edge3" class="edge"><title>Node4&#45;&gt;Node3</title>
<path fill="none" stroke="orange" d="M129.588,-1169.99C110.836,-1163.04 91.2998,-1152.59 78,-1137 68.4496,-1125.81 63.3581,-1110.67 60.6789,-1096.64"/>
<polygon fill="orange" stroke="orange" points="128.691,-1173.38 139.285,-1173.31 130.958,-1166.76 128.691,-1173.38"/>
<text text-anchor="start" x="78" y="-1129" font-family="Helvetica,sans-Serif" font-size="10.00"> &lt; shared_ptr&lt; pfasst</text>
<text text-anchor="middle" x="130" y="-1118" font-family="Helvetica,sans-Serif" font-size="10.00">::ISweeper&lt; time &gt; &gt; &gt;</text>
</g>
<!-- Node6 -->
<g id="node6" class="node"><title>Node6</title>
<polygon fill="white" stroke="#bfbfbf" points="134,-1017.5 134,-1096.5 248,-1096.5 248,-1017.5 134,-1017.5"/>
<text text-anchor="start" x="142" y="-1084.5" font-family="Helvetica,sans-Serif" font-size="10.00">std::deque&lt; shared</text>
<text text-anchor="start" x="142" y="-1073.5" font-family="Helvetica,sans-Serif" font-size="10.00">_ptr&lt; pfasst::ITransfer</text>
<text text-anchor="middle" x="191" y="-1062.5" font-family="Helvetica,sans-Serif" font-size="10.00">&lt; time &gt; &gt; &gt;</text>
<polyline fill="none" stroke="#bfbfbf" points="134,-1055.5 248,-1055.5 "/>
<text text-anchor="start" x="142" y="-1043.5" font-family="Helvetica,sans-Serif" font-size="10.00">+ elements</text>
<polyline fill="none" stroke="#bfbfbf" points="134,-1036.5 248,-1036.5 "/>
<text text-anchor="middle" x="191" y="-1024.5" font-family="Helvetica,sans-Serif" font-size="10.00"> </text>
</g>
<!-- Node4&#45;&gt;Node6 -->
<g id="edge6" class="edge"><title>Node4&#45;&gt;Node6</title>
<path fill="none" stroke="orange" d="M185.071,-1144.95C185.223,-1135.18 185.504,-1124.7 186,-1115 186.304,-1109.05 186.741,-1102.75 187.231,-1096.61"/>
<polygon fill="orange" stroke="orange" points="181.569,-1145.15 184.952,-1155.19 188.568,-1145.24 181.569,-1145.15"/>
<text text-anchor="start" x="186" y="-1129" font-family="Helvetica,sans-Serif" font-size="10.00"> &lt; shared_ptr&lt; pfasst</text>
<text text-anchor="middle" x="237" y="-1118" font-family="Helvetica,sans-Serif" font-size="10.00">::ITransfer&lt; time &gt; &gt; &gt;</text>
</g>
<!-- Node5 -->
<g id="node5" class="node"><title>Node5</title>
<polygon fill="white" stroke="#bfbfbf" points="233.5,-1260.5 233.5,-1317.5 262.5,-1317.5 262.5,-1260.5 233.5,-1260.5"/>
<text text-anchor="middle" x="248" y="-1305.5" font-family="Helvetica,sans-Serif" font-size="10.00">T</text>
<polyline fill="none" stroke="#bfbfbf" points="233.5,-1298.5 262.5,-1298.5 "/>
<text text-anchor="middle" x="248" y="-1286.5" font-family="Helvetica,sans-Serif" font-size="10.00"> </text>
<polyline fill="none" stroke="#bfbfbf" points="233.5,-1279.5 262.5,-1279.5 "/>
<text text-anchor="middle" x="248" y="-1267.5" font-family="Helvetica,sans-Serif" font-size="10.00"> </text>
</g>
<!-- Node5&#45;&gt;Node4 -->
<g id="edge4" class="edge"><title>Node5&#45;&gt;Node4</title>
<path fill="none" stroke="#404040" d="M233.437,-1267.17C228.122,-1259.36 222.153,-1250.36 217,-1242 213.262,-1235.93 209.433,-1229.42 205.782,-1223.03"/>
<polygon fill="none" stroke="#404040" points="205.748,-1222.97 199.316,-1219.71 199.854,-1212.52 206.285,-1215.78 205.748,-1222.97"/>
<text text-anchor="middle" x="242.5" y="-1234" font-family="Helvetica,sans-Serif" font-size="10.00"> +elements</text>
</g>
<!-- Node8 -->
<g id="node8" class="node"><title>Node8</title>
<g id="a_node8"><a xlink:title="STL class. ">
<polygon fill="white" stroke="#bfbfbf" points="256.5,-1155.5 256.5,-1212.5 345.5,-1212.5 345.5,-1155.5 256.5,-1155.5"/>
<text text-anchor="middle" x="301" y="-1200.5" font-family="Helvetica,sans-Serif" font-size="10.00">std::vector&lt; T &gt;</text>
<polyline fill="none" stroke="#bfbfbf" points="256.5,-1193.5 345.5,-1193.5 "/>
<text text-anchor="middle" x="301" y="-1181.5" font-family="Helvetica,sans-Serif" font-size="10.00"> </text>
<polyline fill="none" stroke="#bfbfbf" points="256.5,-1174.5 345.5,-1174.5 "/>
<text text-anchor="middle" x="301" y="-1162.5" font-family="Helvetica,sans-Serif" font-size="10.00"> </text>
</a>
</g>
</g>
<!-- Node5&#45;&gt;Node8 -->
<g id="edge9" class="edge"><title>Node5&#45;&gt;Node8</title>
<path fill="none" stroke="#404040" d="M262.203,-1260.4C268.025,-1249.08 274.865,-1235.79 281.166,-1223.54"/>
<polygon fill="none" stroke="#404040" points="281.267,-1223.35 280.456,-1216.18 286.758,-1212.68 287.569,-1219.84 281.267,-1223.35"/>
<text text-anchor="middle" x="301.5" y="-1234" font-family="Helvetica,sans-Serif" font-size="10.00"> +elements</text>
</g>
<!-- Node6&#45;&gt;Node2 -->
<g id="edge5" class="edge"><title>Node6&#45;&gt;Node2</title>
<path fill="none" stroke="#404040" d="M191,-1017.45C191,-996.248 191,-967.62 191,-934.968"/>
<polygon fill="none" stroke="#404040" points="191,-934.763 187,-928.763 191,-922.763 195,-928.763 191,-934.763"/>
<text text-anchor="middle" x="212" y="-967.5" font-family="Helvetica,sans-Serif" font-size="10.00"> #transfer</text>
</g>
<!-- Node7 -->
<g id="node7" class="node"><title>Node7</title>
<polygon fill="white" stroke="#bfbfbf" points="247,-941.5 247,-998.5 355,-998.5 355,-941.5 247,-941.5"/>
<text text-anchor="middle" x="301" y="-986.5" font-family="Helvetica,sans-Serif" font-size="10.00">std::vector&lt; size_t &gt;</text>
<polyline fill="none" stroke="#bfbfbf" points="247,-979.5 355,-979.5 "/>
<text text-anchor="start" x="255" y="-967.5" font-family="Helvetica,sans-Serif" font-size="10.00">+ elements</text>
<polyline fill="none" stroke="#bfbfbf" points="247,-960.5 355,-960.5 "/>
<text text-anchor="middle" x="301" y="-948.5" font-family="Helvetica,sans-Serif" font-size="10.00"> </text>
</g>
<!-- Node7&#45;&gt;Node1 -->
<g id="edge7" class="edge"><title>Node7&#45;&gt;Node1</title>
<path fill="none" stroke="#404040" d="M299.759,-941.404C294.489,-824.203 273.828,-364.762 265.017,-168.821"/>
<polygon fill="none" stroke="#404040" points="265.006,-168.571 260.74,-162.757 264.466,-156.583 268.732,-162.398 265.006,-168.571"/>
<text text-anchor="middle" x="322.5" y="-556" font-family="Helvetica,sans-Serif" font-size="10.00"> #nsweeps</text>
</g>
<!-- Node8&#45;&gt;Node7 -->
<g id="edge8" class="edge"><title>Node8&#45;&gt;Node7</title>
<path fill="none" stroke="orange" d="M301,-1145.16C301,-1103.1 301,-1036.18 301,-998.722"/>
<polygon fill="orange" stroke="orange" points="297.5,-1145.28 301,-1155.28 304.5,-1145.28 297.5,-1145.28"/>
<text text-anchor="middle" x="325" y="-1123.5" font-family="Helvetica,sans-Serif" font-size="10.00"> &lt; size_t &gt;</text>
</g>
</g>
</svg>
        <g id="navigator" transform="translate(0 0)" fill="#404254">
                <rect fill="#f2f5e9" fill-opacity="0.5" stroke="#606060" stroke-width=".5" x="0" y="0" width="60" height="60"/>
                <use id="zoomplus" xlink:href="#zoomPlus" x="17" y="9" onmousedown="handleZoom(evt,'in')"/>
                <use id="zoomminus" xlink:href="#zoomMin" x="42" y="9" onmousedown="handleZoom(evt,'out')"/>
                <use id="reset" xlink:href="#resetDef" x="30" y="36" onmousedown="handleReset()"/>
                <g id="arrowUp" xlink:href="#dirArrow" transform="translate(30 24)" onmousedown="handlePan(0,-1)">
                  <use xlink:href="#rim" fill="#404040">
                        <set attributeName="fill" to="#808080" begin="arrowUp.mouseover" end="arrowUp.mouseout"/>
                  </use>
                  <path fill="none" stroke="white" stroke-width="1.5" d="M0,-3.0v7 M-2.5,-0.5L0,-3.0L2.5,-0.5"/>
                </g>
                <g id="arrowRight" xlink:href="#dirArrow" transform="rotate(90) translate(36 -43)" onmousedown="handlePan(1,0)">
                  <use xlink:href="#rim" fill="#404040">
                        <set attributeName="fill" to="#808080" begin="arrowRight.mouseover" end="arrowRight.mouseout"/>
                  </use>
                  <path fill="none" stroke="white" stroke-width="1.5" d="M0,-3.0v7 M-2.5,-0.5L0,-3.0L2.5,-0.5"/>
                </g>
                <g id="arrowDown" xlink:href="#dirArrow" transform="rotate(180) translate(-30 -48)" onmousedown="handlePan(0,1)">
                  <use xlink:href="#rim" fill="#404040">
                        <set attributeName="fill" to="#808080" begin="arrowDown.mouseover" end="arrowDown.mouseout"/>
                  </use>
                  <path fill="none" stroke="white" stroke-width="1.5" d="M0,-3.0v7 M-2.5,-0.5L0,-3.0L2.5,-0.5"/>
                </g>
                <g id="arrowLeft" xlink:href="#dirArrow" transform="rotate(270) translate(-36 17)" onmousedown="handlePan(-1,0)">
                  <use xlink:href="#rim" fill="#404040">
                        <set attributeName="fill" to="#808080" begin="arrowLeft.mouseover" end="arrowLeft.mouseout"/>
                  </use>
                  <path fill="none" stroke="white" stroke-width="1.5" d="M0,-3.0v7 M-2.5,-0.5L0,-3.0L2.5,-0.5"/>
                </g>
        </g>
        <svg viewBox="0 0 15 15" width="100%" height="30px" preserveAspectRatio="xMaxYMin meet">
         <g id="arrow_out" transform="scale(0.3 0.3)">
          <a xlink:href="classpfasst_1_1MLSDC__coll__graph_org.svg" target="_base">
           <rect id="button" ry="5" rx="5" y="6" x="6" height="38" width="38"
                fill="#f2f5e9" fill-opacity="0.5" stroke="#606060" stroke-width="1.0"/>
           <path id="arrow"
             d="M 11.500037,31.436501 C 11.940474,20.09759 22.043105,11.32322 32.158766,21.979434 L 37.068811,17.246167 C 37.068811,17.246167 37.088388,32 37.088388,32 L 22.160133,31.978069 C 22.160133,31.978069 26.997745,27.140456 26.997745,27.140456 C 18.528582,18.264221 13.291696,25.230495 11.500037,31.436501 z"
             style="fill:#404040;"/>
          </a>
         </g>
        </svg>
</svg>
