<?xml version="1.0" encoding="UTF-8" standalone="no"?>
<!DOCTYPE svg PUBLIC "-//W3C//DTD SVG 1.1//EN"
 "http://www.w3.org/Graphics/SVG/1.1/DTD/svg11.dtd">
<!-- Generated by graphviz version 2.38.0 (20140413.2041)
 -->
<!-- Title: pfasst::quadrature::compute_q_vec Pages: 1 -->
<svg width="260pt" height="137pt"
 viewBox="0.00 0.00 260.00 137.00" xmlns="http://www.w3.org/2000/svg" xmlns:xlink="http://www.w3.org/1999/xlink">
<g id="graph0" class="graph" transform="scale(1 1) rotate(0) translate(4 133)">
<title>pfasst::quadrature::compute_q_vec</title>
<polygon fill="white" stroke="none" points="-4,4 -4,-133 256,-133 256,4 -4,4"/>
<!-- Node1 -->
<g id="node1" class="node"><title>Node1</title>
<polygon fill="#bfbfbf" stroke="black" points="0,-49.5 0,-79.5 98,-79.5 98,-49.5 0,-49.5"/>
<text text-anchor="start" x="8" y="-67.5" font-family="Helvetica,sans-Serif" font-size="10.00">pfasst::quadrature</text>
<text text-anchor="middle" x="49" y="-56.5" font-family="Helvetica,sans-Serif" font-size="10.00">::compute_q_vec</text>
</g>
<!-- Node2 -->
<g id="node2" class="node"><title>Node2</title>
<g id="a_node2"><a xlink:href="../../de/d84/namespacepfasst_1_1quadrature.html#a37425ec75a53d150c06f1b47dc8bc047" target="_top" xlink:title="pfasst::quadrature\l::build_polynomial">
<polygon fill="white" stroke="black" points="144,-98.5 144,-128.5 242,-128.5 242,-98.5 144,-98.5"/>
<text text-anchor="start" x="152" y="-116.5" font-family="Helvetica,sans-Serif" font-size="10.00">pfasst::quadrature</text>
<text text-anchor="middle" x="193" y="-105.5" font-family="Helvetica,sans-Serif" font-size="10.00">::build_polynomial</text>
</a>
</g>
</g>
<!-- Node1&#45;&gt;Node2 -->
<g id="edge1" class="edge"><title>Node1&#45;&gt;Node2</title>
<path fill="none" stroke="midnightblue" d="M93.7634,-79.6014C107.935,-84.4917 123.813,-89.9707 138.603,-95.0744"/>
<polygon fill="midnightblue" stroke="midnightblue" points="137.542,-98.4106 148.137,-98.3641 139.825,-91.7935 137.542,-98.4106"/>
</g>
<!-- Node3 -->
<g id="node3" class="node"><title>Node3</title>
<g id="a_node3"><a xlink:href="../../d6/dd0/classpfasst_1_1quadrature_1_1Polynomial.html#ab6ca606fac17e7b963a60ee34271090e" target="_top" xlink:title="Evaluate polynomial for given value. ">
<polygon fill="white" stroke="black" points="134,-49.5 134,-79.5 252,-79.5 252,-49.5 134,-49.5"/>
<text text-anchor="start" x="142" y="-67.5" font-family="Helvetica,sans-Serif" font-size="10.00">pfasst::quadrature</text>
<text text-anchor="middle" x="193" y="-56.5" font-family="Helvetica,sans-Serif" font-size="10.00">::Polynomial::evaluate</text>
</a>
</g>
</g>
<!-- Node1&#45;&gt;Node3 -->
<g id="edge2" class="edge"><title>Node1&#45;&gt;Node3</title>
<path fill="none" stroke="midnightblue" d="M98.0747,-64.5C106.344,-64.5 115.079,-64.5 123.759,-64.5"/>
<polygon fill="midnightblue" stroke="midnightblue" points="123.891,-68.0001 133.891,-64.5 123.891,-61.0001 123.891,-68.0001"/>
</g>
<!-- Node4 -->
<g id="node4" class="node"><title>Node4</title>
<g id="a_node4"><a xlink:href="../../d6/dd0/classpfasst_1_1quadrature_1_1Polynomial.html#a52bf17679c1a86638be7e7564bb6c78d" target="_top" xlink:title="Integrates this polynomial. ">
<polygon fill="white" stroke="black" points="134,-0.5 134,-30.5 252,-30.5 252,-0.5 134,-0.5"/>
<text text-anchor="start" x="142" y="-18.5" font-family="Helvetica,sans-Serif" font-size="10.00">pfasst::quadrature</text>
<text text-anchor="middle" x="193" y="-7.5" font-family="Helvetica,sans-Serif" font-size="10.00">::Polynomial::integrate</text>
</a>
</g>
</g>
<!-- Node1&#45;&gt;Node4 -->
<g id="edge3" class="edge"><title>Node1&#45;&gt;Node4</title>
<path fill="none" stroke="midnightblue" d="M93.7634,-49.3986C107.935,-44.5083 123.813,-39.0293 138.603,-33.9256"/>
<polygon fill="midnightblue" stroke="midnightblue" points="139.825,-37.2065 148.137,-30.6359 137.542,-30.5894 139.825,-37.2065"/>
</g>
</g>
</svg>
