<?xml version="1.0" encoding="UTF-8" standalone="no"?>
<!DOCTYPE svg PUBLIC "-//W3C//DTD SVG 1.1//EN"
 "http://www.w3.org/Graphics/SVG/1.1/DTD/svg11.dtd">
<!-- Generated by graphviz version 2.38.0 (20140413.2041)
 -->
<!-- Title: pfasst::quadrature::compute_q_vec Pages: 1 -->
<svg width="473pt" height="246pt"
 viewBox="0.00 0.00 473.00 245.50" xmlns="http://www.w3.org/2000/svg" xmlns:xlink="http://www.w3.org/1999/xlink">
<g id="graph0" class="graph" transform="scale(1 1) rotate(0) translate(4 241.5)">
<title>pfasst::quadrature::compute_q_vec</title>
<polygon fill="white" stroke="none" points="-4,4 -4,-241.5 469,-241.5 469,4 -4,4"/>
<!-- Node1 -->
<g id="node1" class="node"><title>Node1</title>
<polygon fill="#bfbfbf" stroke="black" points="0,-98.5 0,-128.5 98,-128.5 98,-98.5 0,-98.5"/>
<text text-anchor="start" x="8" y="-116.5" font-family="Helvetica,sans-Serif" font-size="10.00">pfasst::quadrature</text>
<text text-anchor="middle" x="49" y="-105.5" font-family="Helvetica,sans-Serif" font-size="10.00">::compute_q_vec</text>
</g>
<!-- Node2 -->
<g id="node2" class="node"><title>Node2</title>
<g id="a_node2"><a xlink:href="../../de/d20/classpfasst_1_1quadrature_1_1IQuadrature.html#aa282053968e191e35b57d6a8820ca1f7" target="_top" xlink:title="pfasst::quadrature\l::IQuadrature::compute\l_weights">
<polygon fill="white" stroke="black" points="134,-93 134,-134 253,-134 253,-93 134,-93"/>
<text text-anchor="start" x="142" y="-122" font-family="Helvetica,sans-Serif" font-size="10.00">pfasst::quadrature</text>
<text text-anchor="start" x="142" y="-111" font-family="Helvetica,sans-Serif" font-size="10.00">::IQuadrature::compute</text>
<text text-anchor="middle" x="193.5" y="-100" font-family="Helvetica,sans-Serif" font-size="10.00">_weights</text>
</a>
</g>
</g>
<!-- Node1&#45;&gt;Node2 -->
<g id="edge1" class="edge"><title>Node1&#45;&gt;Node2</title>
<path fill="none" stroke="midnightblue" d="M108.377,-113.5C116.812,-113.5 125.497,-113.5 133.936,-113.5"/>
<polygon fill="midnightblue" stroke="midnightblue" points="108.244,-110 98.244,-113.5 108.244,-117 108.244,-110"/>
</g>
<!-- Node3 -->
<g id="node3" class="node"><title>Node3</title>
<g id="a_node3"><a xlink:href="../../d7/d70/classpfasst_1_1quadrature_1_1ClenshawCurtis.html#ae9392d76d3273e528e712a82eb18234e" target="_top" xlink:title="pfasst::quadrature\l::ClenshawCurtis::Clenshaw\lCurtis">
<polygon fill="white" stroke="black" points="305,-196 305,-237 449,-237 449,-196 305,-196"/>
<text text-anchor="start" x="313" y="-225" font-family="Helvetica,sans-Serif" font-size="10.00">pfasst::quadrature</text>
<text text-anchor="start" x="313" y="-214" font-family="Helvetica,sans-Serif" font-size="10.00">::ClenshawCurtis::Clenshaw</text>
<text text-anchor="middle" x="377" y="-203" font-family="Helvetica,sans-Serif" font-size="10.00">Curtis</text>
</a>
</g>
</g>
<!-- Node2&#45;&gt;Node3 -->
<g id="edge2" class="edge"><title>Node2&#45;&gt;Node3</title>
<path fill="none" stroke="midnightblue" d="M223.985,-140.908C241.752,-156.276 265.441,-174.842 289,-187.5 294.61,-190.514 300.591,-193.295 306.69,-195.84"/>
<polygon fill="midnightblue" stroke="midnightblue" points="226.078,-138.088 216.261,-134.105 221.452,-143.341 226.078,-138.088"/>
</g>
<!-- Node4 -->
<g id="node4" class="node"><title>Node4</title>
<g id="a_node4"><a xlink:href="../../df/d99/classpfasst_1_1quadrature_1_1GaussLegendre.html#a22e5a186dac303f94b3518f97d2d3580" target="_top" xlink:title="pfasst::quadrature\l::GaussLegendre::GaussLegendre">
<polygon fill="white" stroke="black" points="289,-147.5 289,-177.5 465,-177.5 465,-147.5 289,-147.5"/>
<text text-anchor="start" x="297" y="-165.5" font-family="Helvetica,sans-Serif" font-size="10.00">pfasst::quadrature</text>
<text text-anchor="middle" x="377" y="-154.5" font-family="Helvetica,sans-Serif" font-size="10.00">::GaussLegendre::GaussLegendre</text>
</a>
</g>
</g>
<!-- Node2&#45;&gt;Node4 -->
<g id="edge3" class="edge"><title>Node2&#45;&gt;Node4</title>
<path fill="none" stroke="midnightblue" d="M262.934,-131.975C281.87,-137.087 302.187,-142.573 320.303,-147.463"/>
<polygon fill="midnightblue" stroke="midnightblue" points="263.744,-128.569 253.177,-129.341 261.919,-135.327 263.744,-128.569"/>
</g>
<!-- Node5 -->
<g id="node5" class="node"><title>Node5</title>
<g id="a_node5"><a xlink:href="../../de/d23/classpfasst_1_1quadrature_1_1GaussLobatto.html#a64bab00188c1e1144d21af2f14827fba" target="_top" xlink:title="pfasst::quadrature\l::GaussLobatto::GaussLobatto">
<polygon fill="white" stroke="black" points="299.5,-98.5 299.5,-128.5 454.5,-128.5 454.5,-98.5 299.5,-98.5"/>
<text text-anchor="start" x="307.5" y="-116.5" font-family="Helvetica,sans-Serif" font-size="10.00">pfasst::quadrature</text>
<text text-anchor="middle" x="377" y="-105.5" font-family="Helvetica,sans-Serif" font-size="10.00">::GaussLobatto::GaussLobatto</text>
</a>
</g>
</g>
<!-- Node2&#45;&gt;Node5 -->
<g id="edge4" class="edge"><title>Node2&#45;&gt;Node5</title>
<path fill="none" stroke="midnightblue" d="M263.35,-113.5C275.104,-113.5 287.379,-113.5 299.321,-113.5"/>
<polygon fill="midnightblue" stroke="midnightblue" points="263.177,-110 253.177,-113.5 263.177,-117 263.177,-110"/>
</g>
<!-- Node6 -->
<g id="node6" class="node"><title>Node6</title>
<g id="a_node6"><a xlink:href="../../d1/da0/classpfasst_1_1quadrature_1_1GaussRadau.html#a894209ec241ce9ecf6023317f072f745" target="_top" xlink:title="pfasst::quadrature\l::GaussRadau::GaussRadau">
<polygon fill="white" stroke="black" points="302.5,-49.5 302.5,-79.5 451.5,-79.5 451.5,-49.5 302.5,-49.5"/>
<text text-anchor="start" x="310.5" y="-67.5" font-family="Helvetica,sans-Serif" font-size="10.00">pfasst::quadrature</text>
<text text-anchor="middle" x="377" y="-56.5" font-family="Helvetica,sans-Serif" font-size="10.00">::GaussRadau::GaussRadau</text>
</a>
</g>
</g>
<!-- Node2&#45;&gt;Node6 -->
<g id="edge5" class="edge"><title>Node2&#45;&gt;Node6</title>
<path fill="none" stroke="midnightblue" d="M262.934,-95.0246C281.87,-89.9126 302.187,-84.4274 320.303,-79.5367"/>
<polygon fill="midnightblue" stroke="midnightblue" points="261.919,-91.6733 253.177,-97.6588 263.744,-98.4313 261.919,-91.6733"/>
</g>
<!-- Node7 -->
<g id="node7" class="node"><title>Node7</title>
<g id="a_node7"><a xlink:href="../../d9/d7b/classpfasst_1_1quadrature_1_1Uniform.html#a05919b8af8b1f9cf05fbc4fcf7822717" target="_top" xlink:title="pfasst::quadrature\l::Uniform::Uniform">
<polygon fill="white" stroke="black" points="328,-0.5 328,-30.5 426,-30.5 426,-0.5 328,-0.5"/>
<text text-anchor="start" x="336" y="-18.5" font-family="Helvetica,sans-Serif" font-size="10.00">pfasst::quadrature</text>
<text text-anchor="middle" x="377" y="-7.5" font-family="Helvetica,sans-Serif" font-size="10.00">::Uniform::Uniform</text>
</a>
</g>
</g>
<!-- Node2&#45;&gt;Node7 -->
<g id="edge6" class="edge"><title>Node2&#45;&gt;Node7</title>
<path fill="none" stroke="midnightblue" d="M223.852,-86.1145C241.575,-70.8369 265.263,-52.5211 289,-40.5 301.057,-34.3939 314.832,-29.5689 327.809,-25.8535"/>
<polygon fill="midnightblue" stroke="midnightblue" points="221.349,-83.6548 216.151,-92.8866 225.972,-88.9116 221.349,-83.6548"/>
</g>
</g>
</svg>
