<?xml version="1.0" encoding="UTF-8" standalone="no"?>
<!DOCTYPE svg PUBLIC "-//W3C//DTD SVG 1.1//EN"
 "http://www.w3.org/Graphics/SVG/1.1/DTD/svg11.dtd">
<!-- Generated by graphviz version 2.38.0 (20140413.2041)
 -->
<!-- Title: pfasst::quadrature::build_polynomial Pages: 1 -->
<svg width="613pt" height="246pt"
 viewBox="0.00 0.00 613.00 245.50" xmlns="http://www.w3.org/2000/svg" xmlns:xlink="http://www.w3.org/1999/xlink">
<g id="graph0" class="graph" transform="scale(1 1) rotate(0) translate(4 241.5)">
<title>pfasst::quadrature::build_polynomial</title>
<polygon fill="white" stroke="none" points="-4,4 -4,-241.5 609,-241.5 609,4 -4,4"/>
<!-- Node1 -->
<g id="node1" class="node"><title>Node1</title>
<polygon fill="#bfbfbf" stroke="black" points="0,-98.5 0,-128.5 98,-128.5 98,-98.5 0,-98.5"/>
<text text-anchor="start" x="8" y="-116.5" font-family="Helvetica,sans-Serif" font-size="10.00">pfasst::quadrature</text>
<text text-anchor="middle" x="49" y="-105.5" font-family="Helvetica,sans-Serif" font-size="10.00">::build_polynomial</text>
</g>
<!-- Node2 -->
<g id="node2" class="node"><title>Node2</title>
<g id="a_node2"><a xlink:href="../../de/d84/namespacepfasst_1_1quadrature.html#a1a124b78f225d13b253ff8e2fb799aa5" target="_top" xlink:title="Compute quadrature matrix \( Q \) between two sets of nodes. ">
<polygon fill="white" stroke="black" points="134,-123.5 134,-153.5 238,-153.5 238,-123.5 134,-123.5"/>
<text text-anchor="start" x="142" y="-141.5" font-family="Helvetica,sans-Serif" font-size="10.00">pfasst::quadrature</text>
<text text-anchor="middle" x="186" y="-130.5" font-family="Helvetica,sans-Serif" font-size="10.00">::compute_q_matrix</text>
</a>
</g>
</g>
<!-- Node1&#45;&gt;Node2 -->
<g id="edge1" class="edge"><title>Node1&#45;&gt;Node2</title>
<path fill="none" stroke="midnightblue" d="M108.218,-124.281C116.726,-125.857 125.434,-127.469 133.788,-129.016"/>
<polygon fill="midnightblue" stroke="midnightblue" points="108.827,-120.834 98.3568,-122.455 107.552,-127.717 108.827,-120.834"/>
</g>
<!-- Node9 -->
<g id="node9" class="node"><title>Node9</title>
<g id="a_node9"><a xlink:href="../../de/d84/namespacepfasst_1_1quadrature.html#a77ad709add97d78ea02404286fe15f02" target="_top" xlink:title="Compute vector \( q \) for integration from \( 0 \) to \( 1 \) for given set of nodes. ">
<polygon fill="white" stroke="black" points="137,-74.5 137,-104.5 235,-104.5 235,-74.5 137,-74.5"/>
<text text-anchor="start" x="145" y="-92.5" font-family="Helvetica,sans-Serif" font-size="10.00">pfasst::quadrature</text>
<text text-anchor="middle" x="186" y="-81.5" font-family="Helvetica,sans-Serif" font-size="10.00">::compute_q_vec</text>
</a>
</g>
</g>
<!-- Node1&#45;&gt;Node9 -->
<g id="edge8" class="edge"><title>Node1&#45;&gt;Node9</title>
<path fill="none" stroke="midnightblue" d="M108.229,-103.148C117.824,-101.442 127.672,-99.6916 136.981,-98.0367"/>
<polygon fill="midnightblue" stroke="midnightblue" points="107.59,-99.7069 98.3568,-104.903 108.815,-106.599 107.59,-99.7069"/>
</g>
<!-- Node3 -->
<g id="node3" class="node"><title>Node3</title>
<g id="a_node3"><a xlink:href="../../de/d20/classpfasst_1_1quadrature_1_1IQuadrature.html#aa282053968e191e35b57d6a8820ca1f7" target="_top" xlink:title="pfasst::quadrature\l::IQuadrature::compute\l_weights">
<polygon fill="white" stroke="black" points="274,-93 274,-134 393,-134 393,-93 274,-93"/>
<text text-anchor="start" x="282" y="-122" font-family="Helvetica,sans-Serif" font-size="10.00">pfasst::quadrature</text>
<text text-anchor="start" x="282" y="-111" font-family="Helvetica,sans-Serif" font-size="10.00">::IQuadrature::compute</text>
<text text-anchor="middle" x="333.5" y="-100" font-family="Helvetica,sans-Serif" font-size="10.00">_weights</text>
</a>
</g>
</g>
<!-- Node2&#45;&gt;Node3 -->
<g id="edge2" class="edge"><title>Node2&#45;&gt;Node3</title>
<path fill="none" stroke="midnightblue" d="M248.19,-127.986C256.727,-126.519 265.481,-125.015 273.967,-123.557"/>
<polygon fill="midnightblue" stroke="midnightblue" points="247.561,-124.543 238.298,-129.686 248.746,-131.442 247.561,-124.543"/>
</g>
<!-- Node4 -->
<g id="node4" class="node"><title>Node4</title>
<g id="a_node4"><a xlink:href="../../d7/d70/classpfasst_1_1quadrature_1_1ClenshawCurtis.html#ae9392d76d3273e528e712a82eb18234e" target="_top" xlink:title="pfasst::quadrature\l::ClenshawCurtis::Clenshaw\lCurtis">
<polygon fill="white" stroke="black" points="445,-196 445,-237 589,-237 589,-196 445,-196"/>
<text text-anchor="start" x="453" y="-225" font-family="Helvetica,sans-Serif" font-size="10.00">pfasst::quadrature</text>
<text text-anchor="start" x="453" y="-214" font-family="Helvetica,sans-Serif" font-size="10.00">::ClenshawCurtis::Clenshaw</text>
<text text-anchor="middle" x="517" y="-203" font-family="Helvetica,sans-Serif" font-size="10.00">Curtis</text>
</a>
</g>
</g>
<!-- Node3&#45;&gt;Node4 -->
<g id="edge3" class="edge"><title>Node3&#45;&gt;Node4</title>
<path fill="none" stroke="midnightblue" d="M363.985,-140.908C381.752,-156.276 405.441,-174.842 429,-187.5 434.61,-190.514 440.591,-193.295 446.69,-195.84"/>
<polygon fill="midnightblue" stroke="midnightblue" points="366.078,-138.088 356.261,-134.105 361.452,-143.341 366.078,-138.088"/>
</g>
<!-- Node5 -->
<g id="node5" class="node"><title>Node5</title>
<g id="a_node5"><a xlink:href="../../df/d99/classpfasst_1_1quadrature_1_1GaussLegendre.html#a22e5a186dac303f94b3518f97d2d3580" target="_top" xlink:title="pfasst::quadrature\l::GaussLegendre::GaussLegendre">
<polygon fill="white" stroke="black" points="429,-147.5 429,-177.5 605,-177.5 605,-147.5 429,-147.5"/>
<text text-anchor="start" x="437" y="-165.5" font-family="Helvetica,sans-Serif" font-size="10.00">pfasst::quadrature</text>
<text text-anchor="middle" x="517" y="-154.5" font-family="Helvetica,sans-Serif" font-size="10.00">::GaussLegendre::GaussLegendre</text>
</a>
</g>
</g>
<!-- Node3&#45;&gt;Node5 -->
<g id="edge4" class="edge"><title>Node3&#45;&gt;Node5</title>
<path fill="none" stroke="midnightblue" d="M402.934,-131.975C421.87,-137.087 442.187,-142.573 460.303,-147.463"/>
<polygon fill="midnightblue" stroke="midnightblue" points="403.744,-128.569 393.177,-129.341 401.919,-135.327 403.744,-128.569"/>
</g>
<!-- Node6 -->
<g id="node6" class="node"><title>Node6</title>
<g id="a_node6"><a xlink:href="../../de/d23/classpfasst_1_1quadrature_1_1GaussLobatto.html#a64bab00188c1e1144d21af2f14827fba" target="_top" xlink:title="pfasst::quadrature\l::GaussLobatto::GaussLobatto">
<polygon fill="white" stroke="black" points="439.5,-98.5 439.5,-128.5 594.5,-128.5 594.5,-98.5 439.5,-98.5"/>
<text text-anchor="start" x="447.5" y="-116.5" font-family="Helvetica,sans-Serif" font-size="10.00">pfasst::quadrature</text>
<text text-anchor="middle" x="517" y="-105.5" font-family="Helvetica,sans-Serif" font-size="10.00">::GaussLobatto::GaussLobatto</text>
</a>
</g>
</g>
<!-- Node3&#45;&gt;Node6 -->
<g id="edge5" class="edge"><title>Node3&#45;&gt;Node6</title>
<path fill="none" stroke="midnightblue" d="M403.35,-113.5C415.104,-113.5 427.379,-113.5 439.321,-113.5"/>
<polygon fill="midnightblue" stroke="midnightblue" points="403.177,-110 393.177,-113.5 403.177,-117 403.177,-110"/>
</g>
<!-- Node7 -->
<g id="node7" class="node"><title>Node7</title>
<g id="a_node7"><a xlink:href="../../d1/da0/classpfasst_1_1quadrature_1_1GaussRadau.html#a894209ec241ce9ecf6023317f072f745" target="_top" xlink:title="pfasst::quadrature\l::GaussRadau::GaussRadau">
<polygon fill="white" stroke="black" points="442.5,-49.5 442.5,-79.5 591.5,-79.5 591.5,-49.5 442.5,-49.5"/>
<text text-anchor="start" x="450.5" y="-67.5" font-family="Helvetica,sans-Serif" font-size="10.00">pfasst::quadrature</text>
<text text-anchor="middle" x="517" y="-56.5" font-family="Helvetica,sans-Serif" font-size="10.00">::GaussRadau::GaussRadau</text>
</a>
</g>
</g>
<!-- Node3&#45;&gt;Node7 -->
<g id="edge6" class="edge"><title>Node3&#45;&gt;Node7</title>
<path fill="none" stroke="midnightblue" d="M402.934,-95.0246C421.87,-89.9126 442.187,-84.4274 460.303,-79.5367"/>
<polygon fill="midnightblue" stroke="midnightblue" points="401.919,-91.6733 393.177,-97.6588 403.744,-98.4313 401.919,-91.6733"/>
</g>
<!-- Node8 -->
<g id="node8" class="node"><title>Node8</title>
<g id="a_node8"><a xlink:href="../../d9/d7b/classpfasst_1_1quadrature_1_1Uniform.html#a05919b8af8b1f9cf05fbc4fcf7822717" target="_top" xlink:title="pfasst::quadrature\l::Uniform::Uniform">
<polygon fill="white" stroke="black" points="468,-0.5 468,-30.5 566,-30.5 566,-0.5 468,-0.5"/>
<text text-anchor="start" x="476" y="-18.5" font-family="Helvetica,sans-Serif" font-size="10.00">pfasst::quadrature</text>
<text text-anchor="middle" x="517" y="-7.5" font-family="Helvetica,sans-Serif" font-size="10.00">::Uniform::Uniform</text>
</a>
</g>
</g>
<!-- Node3&#45;&gt;Node8 -->
<g id="edge7" class="edge"><title>Node3&#45;&gt;Node8</title>
<path fill="none" stroke="midnightblue" d="M363.386,-85.9408C381.109,-70.3528 404.955,-51.6158 429,-39.5 441.033,-33.4365 454.8,-28.7385 467.778,-25.1727"/>
<polygon fill="midnightblue" stroke="midnightblue" points="360.797,-83.5609 355.695,-92.8461 365.474,-88.7695 360.797,-83.5609"/>
</g>
<!-- Node9&#45;&gt;Node3 -->
<g id="edge9" class="edge"><title>Node9&#45;&gt;Node3</title>
<path fill="none" stroke="midnightblue" d="M245.138,-99.0898C254.593,-100.649 264.392,-102.266 273.858,-103.827"/>
<polygon fill="midnightblue" stroke="midnightblue" points="245.482,-95.5992 235.045,-97.425 244.342,-102.506 245.482,-95.5992"/>
</g>
</g>
</svg>
