<?xml version="1.0" encoding="UTF-8" standalone="no"?>
<!DOCTYPE svg PUBLIC "-//W3C//DTD SVG 1.1//EN"
 "http://www.w3.org/Graphics/SVG/1.1/DTD/svg11.dtd">
<!-- Generated by graphviz version 2.38.0 (20140413.2041)
 -->
<!-- Title: pfasst::quadrature::quadrature_factory Pages: 1 -->
<svg width="462pt" height="432pt"
 viewBox="0.00 0.00 462.00 432.00" xmlns="http://www.w3.org/2000/svg" xmlns:xlink="http://www.w3.org/1999/xlink">
<g id="graph0" class="graph" transform="scale(1 1) rotate(0) translate(4 428)">
<title>pfasst::quadrature::quadrature_factory</title>
<polygon fill="white" stroke="none" points="-4,4 -4,-428 458,-428 458,4 -4,4"/>
<!-- Node1 -->
<g id="node1" class="node"><title>Node1</title>
<polygon fill="#bfbfbf" stroke="black" points="0,-197 0,-227 107,-227 107,-197 0,-197"/>
<text text-anchor="start" x="8" y="-215" font-family="Helvetica,sans-Serif" font-size="10.00">pfasst::quadrature</text>
<text text-anchor="middle" x="53.5" y="-204" font-family="Helvetica,sans-Serif" font-size="10.00">::quadrature_factory</text>
</g>
<!-- Node2 -->
<g id="node2" class="node"><title>Node2</title>
<g id="a_node2"><a xlink:href="../../d9/d85/group__AdvectionDiffusion.html#gacf2af7cceb96a5587032bc0e83b93e00" target="_top" xlink:title="Advection/diffusion example using an encapsulated IMEX sweeper. ">
<polygon fill="white" stroke="black" points="143,-342 143,-372 286,-372 286,-342 143,-342"/>
<text text-anchor="start" x="151" y="-360" font-family="Helvetica,sans-Serif" font-size="10.00">pfasst::examples::advection</text>
<text text-anchor="middle" x="214.5" y="-349" font-family="Helvetica,sans-Serif" font-size="10.00">_diffusion::run_mpi_pfasst</text>
</a>
</g>
</g>
<!-- Node1&#45;&gt;Node2 -->
<g id="edge1" class="edge"><title>Node1&#45;&gt;Node2</title>
<path fill="none" stroke="midnightblue" d="M75.7629,-234.383C93.3244,-252.563 119.15,-278.603 143,-300 159.519,-314.82 179.228,-330.607 193.602,-341.799"/>
<polygon fill="midnightblue" stroke="midnightblue" points="78.2253,-231.895 68.7725,-227.11 73.1783,-236.745 78.2253,-231.895"/>
</g>
<!-- Node6 -->
<g id="node6" class="node"><title>Node6</title>
<g id="a_node6"><a xlink:href="../../d1/d6e/group__Scalar.html#ga2e2a4c57c66ad0f2716d59ee2f4f457a" target="_top" xlink:title="Scalar test equation example using an encapsulated IMEX sweeper. ">
<polygon fill="white" stroke="black" points="151,-260 151,-290 278,-290 278,-260 151,-260"/>
<text text-anchor="start" x="159" y="-278" font-family="Helvetica,sans-Serif" font-size="10.00">pfasst::examples::scalar</text>
<text text-anchor="middle" x="214.5" y="-267" font-family="Helvetica,sans-Serif" font-size="10.00">::run_scalar_sdc</text>
</a>
</g>
</g>
<!-- Node1&#45;&gt;Node6 -->
<g id="edge5" class="edge"><title>Node1&#45;&gt;Node6</title>
<path fill="none" stroke="midnightblue" d="M102.005,-230.823C125.476,-240.123 153.413,-251.192 175.451,-259.924"/>
<polygon fill="midnightblue" stroke="midnightblue" points="103.171,-227.52 92.5845,-227.09 100.592,-234.028 103.171,-227.52"/>
</g>
<!-- Node9 -->
<g id="node9" class="node"><title>Node9</title>
<g id="a_node9"><a xlink:href="../../d9/d85/group__AdvectionDiffusion.html#ga54ea0f33dff1236bd3d9349a8ea75575" target="_top" xlink:title="Advection/diffusion example using an encapsulated IMEX sweeper. ">
<polygon fill="white" stroke="black" points="143,-197 143,-227 286,-227 286,-197 143,-197"/>
<text text-anchor="start" x="151" y="-215" font-family="Helvetica,sans-Serif" font-size="10.00">pfasst::examples::advection</text>
<text text-anchor="middle" x="214.5" y="-204" font-family="Helvetica,sans-Serif" font-size="10.00">_diffusion::run_serial_mlsdc</text>
</a>
</g>
</g>
<!-- Node1&#45;&gt;Node9 -->
<g id="edge9" class="edge"><title>Node1&#45;&gt;Node9</title>
<path fill="none" stroke="midnightblue" d="M117.152,-212C125.603,-212 134.32,-212 142.897,-212"/>
<polygon fill="midnightblue" stroke="midnightblue" points="117.003,-208.5 107.003,-212 117.003,-215.5 117.003,-208.5"/>
</g>
<!-- Node12 -->
<g id="node12" class="node"><title>Node12</title>
<g id="a_node12"><a xlink:href="../../d9/d85/group__AdvectionDiffusion.html#ga5a89fd6a8787527e482f6c853d0eec57" target="_top" xlink:title="Advection/diffusion example using an encapsulated IMEX sweeper. ">
<polygon fill="white" stroke="black" points="143,-121 143,-151 286,-151 286,-121 143,-121"/>
<text text-anchor="start" x="151" y="-139" font-family="Helvetica,sans-Serif" font-size="10.00">pfasst::examples::advection</text>
<text text-anchor="middle" x="214.5" y="-128" font-family="Helvetica,sans-Serif" font-size="10.00">_diffusion::run_vanilla_sdc</text>
</a>
</g>
</g>
<!-- Node1&#45;&gt;Node12 -->
<g id="edge13" class="edge"><title>Node1&#45;&gt;Node12</title>
<path fill="none" stroke="midnightblue" d="M95.0939,-192.597C122.067,-179.704 156.971,-163.02 181.88,-151.114"/>
<polygon fill="midnightblue" stroke="midnightblue" points="93.4262,-189.514 85.9133,-196.985 96.445,-195.83 93.4262,-189.514"/>
</g>
<!-- Node15 -->
<g id="node15" class="node"><title>Node15</title>
<g id="a_node15"><a xlink:href="../../dd/d53/group__VanDerPol.html#gaa51c826dc921007c0e95faf30a4510d5" target="_top" xlink:title="pfasst::examples::vdp\l::run_vdp_sdc">
<polygon fill="white" stroke="black" points="156.5,-39 156.5,-69 272.5,-69 272.5,-39 156.5,-39"/>
<text text-anchor="start" x="164.5" y="-57" font-family="Helvetica,sans-Serif" font-size="10.00">pfasst::examples::vdp</text>
<text text-anchor="middle" x="214.5" y="-46" font-family="Helvetica,sans-Serif" font-size="10.00">::run_vdp_sdc</text>
</a>
</g>
</g>
<!-- Node1&#45;&gt;Node15 -->
<g id="edge16" class="edge"><title>Node1&#45;&gt;Node15</title>
<path fill="none" stroke="midnightblue" d="M72.6659,-189.088C89.8683,-167.939 116.883,-136.102 143,-111 158.887,-95.7303 178.482,-80.1147 192.978,-69.0983"/>
<polygon fill="midnightblue" stroke="midnightblue" points="69.9145,-186.924 66.3591,-196.905 75.3624,-191.32 69.9145,-186.924"/>
</g>
<!-- Node3 -->
<g id="node3" class="node"><title>Node3</title>
<g id="a_node3"><a xlink:href="../../d1/d49/mpi__pfasst_8cpp.html#a3c04138a5bfe5d72780bb7e82a18e627" target="_top" xlink:title="main">
<polygon fill="white" stroke="black" points="369,-366.5 369,-385.5 407,-385.5 407,-366.5 369,-366.5"/>
<text text-anchor="middle" x="388" y="-373.5" font-family="Helvetica,sans-Serif" font-size="10.00">main</text>
</a>
</g>
</g>
<!-- Node2&#45;&gt;Node3 -->
<g id="edge2" class="edge"><title>Node2&#45;&gt;Node3</title>
<path fill="none" stroke="midnightblue" d="M296.187,-365.939C323.307,-368.944 351.106,-372.023 368.68,-373.97"/>
<polygon fill="midnightblue" stroke="midnightblue" points="296.57,-362.46 286.246,-364.838 295.8,-369.418 296.57,-362.46"/>
</g>
<!-- Node4 -->
<g id="node4" class="node"><title>Node4</title>
<g id="a_node4"><a xlink:href="../../d3/d6a/classConvergenceTest.html#a18a32024b87b7ee689df7e0375ea8ede" target="_top" xlink:title="ConvergenceTest::SetUp">
<polygon fill="white" stroke="black" points="322,-328.5 322,-347.5 454,-347.5 454,-328.5 322,-328.5"/>
<text text-anchor="middle" x="388" y="-335.5" font-family="Helvetica,sans-Serif" font-size="10.00">ConvergenceTest::SetUp</text>
</a>
</g>
</g>
<!-- Node2&#45;&gt;Node4 -->
<g id="edge3" class="edge"><title>Node2&#45;&gt;Node4</title>
<path fill="none" stroke="midnightblue" d="M296.283,-348.05C304.877,-347.098 313.538,-346.139 321.919,-345.21"/>
<polygon fill="midnightblue" stroke="midnightblue" points="295.8,-344.582 286.246,-349.162 296.57,-351.54 295.8,-344.582"/>
</g>
<!-- Node5 -->
<g id="node5" class="node"><title>Node5</title>
<g id="a_node5"><a xlink:href="../../dd/db6/test__mpi__advection__diffusion_8cpp.html#a88d3a04b41904a6a44c0a94330e3389a" target="_top" xlink:title="TEST">
<polygon fill="white" stroke="black" points="366,-404.5 366,-423.5 410,-423.5 410,-404.5 366,-404.5"/>
<text text-anchor="middle" x="388" y="-411.5" font-family="Helvetica,sans-Serif" font-size="10.00">TEST</text>
</a>
</g>
</g>
<!-- Node2&#45;&gt;Node5 -->
<g id="edge4" class="edge"><title>Node2&#45;&gt;Node5</title>
<path fill="none" stroke="midnightblue" d="M265.601,-375.555C283.34,-381.944 303.486,-388.997 322,-395 336.539,-399.714 353.073,-404.54 365.828,-408.149"/>
<polygon fill="midnightblue" stroke="midnightblue" points="266.615,-372.2 256.02,-372.085 264.231,-378.782 266.615,-372.2"/>
</g>
<!-- Node6&#45;&gt;Node4 -->
<g id="edge7" class="edge"><title>Node6&#45;&gt;Node4</title>
<path fill="none" stroke="midnightblue" d="M258.584,-294.035C277.808,-302.206 300.85,-311.564 322,-319 331.539,-322.354 342.004,-325.598 351.697,-328.429"/>
<polygon fill="midnightblue" stroke="midnightblue" points="259.765,-290.733 249.195,-290.009 257.006,-297.167 259.765,-290.733"/>
</g>
<!-- Node7 -->
<g id="node7" class="node"><title>Node7</title>
<g id="a_node7"><a xlink:href="../../d2/daf/scalar__sdc_8cpp.html#a3c04138a5bfe5d72780bb7e82a18e627" target="_top" xlink:title="main">
<polygon fill="white" stroke="black" points="369,-290.5 369,-309.5 407,-309.5 407,-290.5 369,-290.5"/>
<text text-anchor="middle" x="388" y="-297.5" font-family="Helvetica,sans-Serif" font-size="10.00">main</text>
</a>
</g>
</g>
<!-- Node6&#45;&gt;Node7 -->
<g id="edge6" class="edge"><title>Node6&#45;&gt;Node7</title>
<path fill="none" stroke="midnightblue" d="M288.295,-285.612C317.812,-289.914 349.425,-294.523 368.707,-297.333"/>
<polygon fill="midnightblue" stroke="midnightblue" points="288.787,-282.146 278.386,-284.167 287.777,-289.073 288.787,-282.146"/>
</g>
<!-- Node8 -->
<g id="node8" class="node"><title>Node8</title>
<g id="a_node8"><a xlink:href="../../d1/dee/classHighPrecisionTest.html#a1d448fa5c3fe1a3f2f60cd1fb77dba08" target="_top" xlink:title="HighPrecisionTest::\lSetUp">
<polygon fill="white" stroke="black" points="335,-241 335,-271 441,-271 441,-241 335,-241"/>
<text text-anchor="start" x="343" y="-259" font-family="Helvetica,sans-Serif" font-size="10.00">HighPrecisionTest::</text>
<text text-anchor="middle" x="388" y="-248" font-family="Helvetica,sans-Serif" font-size="10.00">SetUp</text>
</a>
</g>
</g>
<!-- Node6&#45;&gt;Node8 -->
<g id="edge8" class="edge"><title>Node6&#45;&gt;Node8</title>
<path fill="none" stroke="midnightblue" d="M288.511,-266.911C304.077,-265.187 320.215,-263.399 334.813,-261.782"/>
<polygon fill="midnightblue" stroke="midnightblue" points="287.94,-263.453 278.386,-268.033 288.711,-270.41 287.94,-263.453"/>
</g>
<!-- Node9&#45;&gt;Node4 -->
<g id="edge11" class="edge"><title>Node9&#45;&gt;Node4</title>
<path fill="none" stroke="midnightblue" d="M260.921,-232.016C269.919,-237.325 278.797,-243.664 286,-251 309.957,-275.402 295.499,-297.388 322,-319 326.738,-322.864 332.233,-325.942 337.982,-328.394"/>
<polygon fill="midnightblue" stroke="midnightblue" points="262.386,-228.827 251.941,-227.052 259,-234.953 262.386,-228.827"/>
</g>
<!-- Node10 -->
<g id="node10" class="node"><title>Node10</title>
<g id="a_node10"><a xlink:href="../../d9/d86/serial__mlsdc_8cpp.html#a3c04138a5bfe5d72780bb7e82a18e627" target="_top" xlink:title="main">
<polygon fill="white" stroke="black" points="369,-164.5 369,-183.5 407,-183.5 407,-164.5 369,-164.5"/>
<text text-anchor="middle" x="388" y="-171.5" font-family="Helvetica,sans-Serif" font-size="10.00">main</text>
</a>
</g>
</g>
<!-- Node9&#45;&gt;Node10 -->
<g id="edge10" class="edge"><title>Node9&#45;&gt;Node10</title>
<path fill="none" stroke="midnightblue" d="M293.146,-194.796C321.23,-188.573 350.483,-182.091 368.713,-178.052"/>
<polygon fill="midnightblue" stroke="midnightblue" points="292.287,-191.401 283.281,-196.981 293.802,-198.235 292.287,-191.401"/>
</g>
<!-- Node11 -->
<g id="node11" class="node"><title>Node11</title>
<g id="a_node11"><a xlink:href="../../df/df8/test__advection__diffusion_8cpp.html#a14b7af1ba2e39c56da0f65c963f0e6d2" target="_top" xlink:title="TEST">
<polygon fill="white" stroke="black" points="366,-202.5 366,-221.5 410,-221.5 410,-202.5 366,-202.5"/>
<text text-anchor="middle" x="388" y="-209.5" font-family="Helvetica,sans-Serif" font-size="10.00">TEST</text>
</a>
</g>
</g>
<!-- Node9&#45;&gt;Node11 -->
<g id="edge12" class="edge"><title>Node9&#45;&gt;Node11</title>
<path fill="none" stroke="midnightblue" d="M296.375,-212C321.941,-212 348.087,-212 365.683,-212"/>
<polygon fill="midnightblue" stroke="midnightblue" points="296.246,-208.5 286.246,-212 296.246,-215.5 296.246,-208.5"/>
</g>
<!-- Node13 -->
<g id="node13" class="node"><title>Node13</title>
<g id="a_node13"><a xlink:href="../../d4/df0/vanilla__sdc_8cpp.html#a3c04138a5bfe5d72780bb7e82a18e627" target="_top" xlink:title="main">
<polygon fill="white" stroke="black" points="369,-88.5 369,-107.5 407,-107.5 407,-88.5 369,-88.5"/>
<text text-anchor="middle" x="388" y="-95.5" font-family="Helvetica,sans-Serif" font-size="10.00">main</text>
</a>
</g>
</g>
<!-- Node12&#45;&gt;Node13 -->
<g id="edge14" class="edge"><title>Node12&#45;&gt;Node13</title>
<path fill="none" stroke="midnightblue" d="M293.146,-118.796C321.23,-112.573 350.483,-106.091 368.713,-102.052"/>
<polygon fill="midnightblue" stroke="midnightblue" points="292.287,-115.401 283.281,-120.981 293.802,-122.235 292.287,-115.401"/>
</g>
<!-- Node14 -->
<g id="node14" class="node"><title>Node14</title>
<g id="a_node14"><a xlink:href="../../df/df8/test__advection__diffusion_8cpp.html#aa11b7a5c6a1ab75dcaf86ed3e74c7a3f" target="_top" xlink:title="TEST">
<polygon fill="white" stroke="black" points="366,-126.5 366,-145.5 410,-145.5 410,-126.5 366,-126.5"/>
<text text-anchor="middle" x="388" y="-133.5" font-family="Helvetica,sans-Serif" font-size="10.00">TEST</text>
</a>
</g>
</g>
<!-- Node12&#45;&gt;Node14 -->
<g id="edge15" class="edge"><title>Node12&#45;&gt;Node14</title>
<path fill="none" stroke="midnightblue" d="M296.375,-136C321.941,-136 348.087,-136 365.683,-136"/>
<polygon fill="midnightblue" stroke="midnightblue" points="296.246,-132.5 286.246,-136 296.246,-139.5 296.246,-132.5"/>
</g>
<!-- Node16 -->
<g id="node16" class="node"><title>Node16</title>
<g id="a_node16"><a xlink:href="../../df/de7/vdp__sdc_8cpp.html#a3c04138a5bfe5d72780bb7e82a18e627" target="_top" xlink:title="main">
<polygon fill="white" stroke="black" points="369,-0.5 369,-19.5 407,-19.5 407,-0.5 369,-0.5"/>
<text text-anchor="middle" x="388" y="-7.5" font-family="Helvetica,sans-Serif" font-size="10.00">main</text>
</a>
</g>
</g>
<!-- Node15&#45;&gt;Node16 -->
<g id="edge17" class="edge"><title>Node15&#45;&gt;Node16</title>
<path fill="none" stroke="midnightblue" d="M282.594,-36.7865C313.796,-28.7812 348.462,-19.8874 368.961,-14.6282"/>
<polygon fill="midnightblue" stroke="midnightblue" points="281.423,-33.4732 272.607,-39.3486 283.163,-40.2537 281.423,-33.4732"/>
</g>
<!-- Node17 -->
<g id="node17" class="node"><title>Node17</title>
<g id="a_node17"><a xlink:href="../../d8/d13/classVdPConvergenceTest.html#a08c22d8d5be8f9796e0866f3fe3277bb" target="_top" xlink:title="VdPConvergenceTest\l::SetUp">
<polygon fill="white" stroke="black" points="328.5,-39 328.5,-69 447.5,-69 447.5,-39 328.5,-39"/>
<text text-anchor="start" x="336.5" y="-57" font-family="Helvetica,sans-Serif" font-size="10.00">VdPConvergenceTest</text>
<text text-anchor="middle" x="388" y="-46" font-family="Helvetica,sans-Serif" font-size="10.00">::SetUp</text>
</a>
</g>
</g>
<!-- Node15&#45;&gt;Node17 -->
<g id="edge18" class="edge"><title>Node15&#45;&gt;Node17</title>
<path fill="none" stroke="midnightblue" d="M282.867,-54C297.904,-54 313.733,-54 328.384,-54"/>
<polygon fill="midnightblue" stroke="midnightblue" points="282.607,-50.5001 272.607,-54 282.607,-57.5001 282.607,-50.5001"/>
</g>
</g>
</svg>
