<?xml version="1.0" encoding="UTF-8" standalone="no"?>
<!DOCTYPE svg PUBLIC "-//W3C//DTD SVG 1.1//EN"
 "http://www.w3.org/Graphics/SVG/1.1/DTD/svg11.dtd">
<!-- Generated by graphviz version 2.38.0 (20140413.2041)
 -->
<!-- Title: pfasst::quadrature::GaussLegendre&lt; precision &gt; Pages: 1 -->
<!--zoomable 1015 -->
<svg id="main" version="1.1" xmlns="http://www.w3.org/2000/svg" xmlns:xlink="http://www.w3.org/1999/xlink" xml:space="preserve" onload="init(evt)">
<style type="text/css"><![CDATA[
.edge:hover path { stroke: red; }
.edge:hover polygon { stroke: red; fill: red; }
]]></style>
<script type="text/javascript"><![CDATA[
var edges = document.getElementsByTagName('g');
if (edges && edges.length) {
  for (var i=0;i<edges.length;i++) {
    if (edges[i].id.substr(0,4)=='edge') {
      edges[i].setAttribute('class','edge');
    }
  }
}
]]></script>
        <defs>
                <circle id="rim" cx="0" cy="0" r="7"/>
                <circle id="rim2" cx="0" cy="0" r="3.5"/>
                <g id="zoomPlus">
                        <use xlink:href="#rim" fill="#404040">
                                <set attributeName="fill" to="#808080" begin="zoomplus.mouseover" end="zoomplus.mouseout"/>
                        </use>
                        <path d="M-4,0h8M0,-4v8" fill="none" stroke="white" stroke-width="1.5" pointer-events="none"/>
                </g>
                <g id="zoomMin">
                        <use xlink:href="#rim" fill="#404040">
                                <set attributeName="fill" to="#808080" begin="zoomminus.mouseover" end="zoomminus.mouseout"/>
                        </use>
                        <path d="M-4,0h8" fill="none" stroke="white" stroke-width="1.5" pointer-events="none"/>
                </g>
                <g id="dirArrow">
                        <path fill="none" stroke="white" stroke-width="1.5" d="M0,-3.0v7 M-2.5,-0.5L0,-3.0L2.5,-0.5"/>
                </g>
               <g id="resetDef">
                       <use xlink:href="#rim2" fill="#404040">
                               <set attributeName="fill" to="#808080" begin="reset.mouseover" end="reset.mouseout"/>
                       </use>
               </g>
        </defs>

<script type="text/javascript">
var viewWidth = 163;
var viewHeight = 1015;
var sectionId = 'dynsection-1';
</script>
<script xlink:href="../../svgpan.js"/>
<svg id="graph" class="graph">
<g id="viewport">
<title>pfasst::quadrature::GaussLegendre&lt; precision &gt;</title>
<polygon fill="white" stroke="none" points="-4,4 -4,-1011 159,-1011 159,4 -4,4"/>
<!-- Node1 -->
<g id="node1" class="node"><title>Node1</title>
<polygon fill="#bfbfbf" stroke="black" points="0,-0.5 0,-222.5 155,-222.5 155,-0.5 0,-0.5"/>
<text text-anchor="start" x="8" y="-210.5" font-family="Helvetica,sans-Serif" font-size="10.00">pfasst::quadrature</text>
<text text-anchor="middle" x="77.5" y="-199.5" font-family="Helvetica,sans-Serif" font-size="10.00">::GaussLegendre&lt; precision &gt;</text>
<polyline fill="none" stroke="black" points="0,-192.5 155,-192.5 "/>
<text text-anchor="start" x="8" y="-180.5" font-family="Helvetica,sans-Serif" font-size="10.00"># LEFT_IS_NODE</text>
<text text-anchor="start" x="8" y="-169.5" font-family="Helvetica,sans-Serif" font-size="10.00"># RIGHT_IS_NODE</text>
<polyline fill="none" stroke="black" points="0,-162.5 155,-162.5 "/>
<text text-anchor="start" x="8" y="-150.5" font-family="Helvetica,sans-Serif" font-size="10.00">+ GaussLegendre()</text>
<text text-anchor="start" x="8" y="-139.5" font-family="Helvetica,sans-Serif" font-size="10.00">+ GaussLegendre()</text>
<text text-anchor="start" x="8" y="-128.5" font-family="Helvetica,sans-Serif" font-size="10.00">+ ~GaussLegendre()</text>
<text text-anchor="start" x="8" y="-117.5" font-family="Helvetica,sans-Serif" font-size="10.00">+ left_is_node()</text>
<text text-anchor="start" x="8" y="-106.5" font-family="Helvetica,sans-Serif" font-size="10.00">+ right_is_node()</text>
<text text-anchor="start" x="8" y="-95.5" font-family="Helvetica,sans-Serif" font-size="10.00"># compute_nodes()</text>
<text text-anchor="start" x="8" y="-84.5" font-family="Helvetica,sans-Serif" font-size="10.00">* LEFT_IS_NODE</text>
<text text-anchor="start" x="8" y="-73.5" font-family="Helvetica,sans-Serif" font-size="10.00">* RIGHT_IS_NODE</text>
<text text-anchor="start" x="8" y="-62.5" font-family="Helvetica,sans-Serif" font-size="10.00">* GaussLegendre()</text>
<text text-anchor="start" x="8" y="-51.5" font-family="Helvetica,sans-Serif" font-size="10.00">* GaussLegendre()</text>
<text text-anchor="start" x="8" y="-40.5" font-family="Helvetica,sans-Serif" font-size="10.00">* ~GaussLegendre()</text>
<text text-anchor="start" x="8" y="-29.5" font-family="Helvetica,sans-Serif" font-size="10.00">* left_is_node()</text>
<text text-anchor="start" x="8" y="-18.5" font-family="Helvetica,sans-Serif" font-size="10.00">* right_is_node()</text>
<text text-anchor="start" x="8" y="-7.5" font-family="Helvetica,sans-Serif" font-size="10.00">* compute_nodes()</text>
</g>
<!-- Node2 -->
<g id="node2" class="node"><title>Node2</title>
<g id="a_node2"><a xlink:href="../../de/d20/classpfasst_1_1quadrature_1_1IQuadrature.html" target="_top" xlink:title="Interface for quadrature handlers. ">
<polygon fill="white" stroke="black" points="10.5,-260.5 10.5,-680.5 144.5,-680.5 144.5,-260.5 10.5,-260.5"/>
<text text-anchor="start" x="18.5" y="-668.5" font-family="Helvetica,sans-Serif" font-size="10.00">pfasst::quadrature</text>
<text text-anchor="middle" x="77.5" y="-657.5" font-family="Helvetica,sans-Serif" font-size="10.00">::IQuadrature&lt; precision &gt;</text>
<polyline fill="none" stroke="black" points="10.5,-650.5 144.5,-650.5 "/>
<text text-anchor="middle" x="77.5" y="-638.5" font-family="Helvetica,sans-Serif" font-size="10.00"> </text>
<polyline fill="none" stroke="black" points="10.5,-631.5 144.5,-631.5 "/>
<text text-anchor="start" x="18.5" y="-619.5" font-family="Helvetica,sans-Serif" font-size="10.00">+ expected_error()</text>
<text text-anchor="start" x="18.5" y="-608.5" font-family="Helvetica,sans-Serif" font-size="10.00">+ IQuadrature()</text>
<text text-anchor="start" x="18.5" y="-597.5" font-family="Helvetica,sans-Serif" font-size="10.00">+ IQuadrature()</text>
<text text-anchor="start" x="18.5" y="-586.5" font-family="Helvetica,sans-Serif" font-size="10.00">+ ~IQuadrature()</text>
<text text-anchor="start" x="18.5" y="-575.5" font-family="Helvetica,sans-Serif" font-size="10.00">+ get_q_mat()</text>
<text text-anchor="start" x="18.5" y="-564.5" font-family="Helvetica,sans-Serif" font-size="10.00">+ get_s_mat()</text>
<text text-anchor="start" x="18.5" y="-553.5" font-family="Helvetica,sans-Serif" font-size="10.00">+ get_b_mat()</text>
<text text-anchor="start" x="18.5" y="-542.5" font-family="Helvetica,sans-Serif" font-size="10.00">+ get_q_vec()</text>
<text text-anchor="start" x="18.5" y="-531.5" font-family="Helvetica,sans-Serif" font-size="10.00">+ get_nodes()</text>
<text text-anchor="start" x="18.5" y="-520.5" font-family="Helvetica,sans-Serif" font-size="10.00">+ get_num_nodes()</text>
<text text-anchor="start" x="18.5" y="-509.5" font-family="Helvetica,sans-Serif" font-size="10.00">+ left_is_node()</text>
<text text-anchor="start" x="18.5" y="-498.5" font-family="Helvetica,sans-Serif" font-size="10.00">+ right_is_node()</text>
<text text-anchor="start" x="18.5" y="-487.5" font-family="Helvetica,sans-Serif" font-size="10.00"># compute_nodes()</text>
<text text-anchor="start" x="18.5" y="-476.5" font-family="Helvetica,sans-Serif" font-size="10.00"># compute_weights()</text>
<text text-anchor="start" x="18.5" y="-465.5" font-family="Helvetica,sans-Serif" font-size="10.00">* LEFT_IS_NODE</text>
<text text-anchor="start" x="18.5" y="-454.5" font-family="Helvetica,sans-Serif" font-size="10.00">* RIGHT_IS_NODE</text>
<text text-anchor="start" x="18.5" y="-443.5" font-family="Helvetica,sans-Serif" font-size="10.00">* num_nodes</text>
<text text-anchor="start" x="18.5" y="-432.5" font-family="Helvetica,sans-Serif" font-size="10.00">* q_mat</text>
<text text-anchor="start" x="18.5" y="-421.5" font-family="Helvetica,sans-Serif" font-size="10.00">* s_mat</text>
<text text-anchor="start" x="18.5" y="-410.5" font-family="Helvetica,sans-Serif" font-size="10.00">* b_mat</text>
<text text-anchor="start" x="18.5" y="-399.5" font-family="Helvetica,sans-Serif" font-size="10.00">* IQuadrature()</text>
<text text-anchor="start" x="18.5" y="-388.5" font-family="Helvetica,sans-Serif" font-size="10.00">* IQuadrature()</text>
<text text-anchor="start" x="18.5" y="-377.5" font-family="Helvetica,sans-Serif" font-size="10.00">* ~IQuadrature()</text>
<text text-anchor="start" x="18.5" y="-366.5" font-family="Helvetica,sans-Serif" font-size="10.00">* get_q_mat()</text>
<text text-anchor="start" x="18.5" y="-355.5" font-family="Helvetica,sans-Serif" font-size="10.00">* get_s_mat()</text>
<text text-anchor="start" x="18.5" y="-344.5" font-family="Helvetica,sans-Serif" font-size="10.00">* get_b_mat()</text>
<text text-anchor="start" x="18.5" y="-333.5" font-family="Helvetica,sans-Serif" font-size="10.00">* get_q_vec()</text>
<text text-anchor="start" x="18.5" y="-322.5" font-family="Helvetica,sans-Serif" font-size="10.00">* get_nodes()</text>
<text text-anchor="start" x="18.5" y="-311.5" font-family="Helvetica,sans-Serif" font-size="10.00">* get_num_nodes()</text>
<text text-anchor="start" x="18.5" y="-300.5" font-family="Helvetica,sans-Serif" font-size="10.00">* left_is_node()</text>
<text text-anchor="start" x="18.5" y="-289.5" font-family="Helvetica,sans-Serif" font-size="10.00">* right_is_node()</text>
<text text-anchor="start" x="18.5" y="-278.5" font-family="Helvetica,sans-Serif" font-size="10.00">* compute_nodes()</text>
<text text-anchor="start" x="18.5" y="-267.5" font-family="Helvetica,sans-Serif" font-size="10.00">* compute_weights()</text>
</a>
</g>
</g>
<!-- Node2&#45;&gt;Node1 -->
<g id="edge1" class="edge"><title>Node2&#45;&gt;Node1</title>
<path fill="none" stroke="midnightblue" d="M77.5,-250.147C77.5,-240.858 77.5,-231.725 77.5,-222.856"/>
<polygon fill="none" stroke="midnightblue" points="74.0001,-250.283 77.5,-260.283 81.0001,-250.283 74.0001,-250.283"/>
</g>
<!-- Node3 -->
<g id="node3" class="node"><title>Node3</title>
<polygon fill="white" stroke="#bfbfbf" points="16.5,-739.5 16.5,-796.5 138.5,-796.5 138.5,-739.5 16.5,-739.5"/>
<text text-anchor="middle" x="77.5" y="-784.5" font-family="Helvetica,sans-Serif" font-size="10.00">std::vector&lt; precision &gt;</text>
<polyline fill="none" stroke="#bfbfbf" points="16.5,-777.5 138.5,-777.5 "/>
<text text-anchor="start" x="24.5" y="-765.5" font-family="Helvetica,sans-Serif" font-size="10.00">+ elements</text>
<polyline fill="none" stroke="#bfbfbf" points="16.5,-758.5 138.5,-758.5 "/>
<text text-anchor="middle" x="77.5" y="-746.5" font-family="Helvetica,sans-Serif" font-size="10.00"> </text>
</g>
<!-- Node3&#45;&gt;Node2 -->
<g id="edge2" class="edge"><title>Node3&#45;&gt;Node2</title>
<path fill="none" stroke="#404040" d="M77.5,-739.465C77.5,-726.948 77.5,-710.901 77.5,-692.893"/>
<polygon fill="none" stroke="#404040" points="77.5001,-692.793 73.5,-686.793 77.5,-680.793 81.5,-686.793 77.5001,-692.793"/>
<text text-anchor="middle" x="96" y="-713" font-family="Helvetica,sans-Serif" font-size="10.00"> #nodes</text>
<text text-anchor="middle" x="96" y="-702" font-family="Helvetica,sans-Serif" font-size="10.00">#q_vec</text>
</g>
<!-- Node4 -->
<g id="node4" class="node"><title>Node4</title>
<g id="a_node4"><a xlink:title="STL class. ">
<polygon fill="white" stroke="#bfbfbf" points="33,-844.5 33,-901.5 122,-901.5 122,-844.5 33,-844.5"/>
<text text-anchor="middle" x="77.5" y="-889.5" font-family="Helvetica,sans-Serif" font-size="10.00">std::vector&lt; T &gt;</text>
<polyline fill="none" stroke="#bfbfbf" points="33,-882.5 122,-882.5 "/>
<text text-anchor="middle" x="77.5" y="-870.5" font-family="Helvetica,sans-Serif" font-size="10.00"> </text>
<polyline fill="none" stroke="#bfbfbf" points="33,-863.5 122,-863.5 "/>
<text text-anchor="middle" x="77.5" y="-851.5" font-family="Helvetica,sans-Serif" font-size="10.00"> </text>
</a>
</g>
</g>
<!-- Node4&#45;&gt;Node3 -->
<g id="edge3" class="edge"><title>Node4&#45;&gt;Node3</title>
<path fill="none" stroke="orange" d="M77.5,-834.286C77.5,-821.839 77.5,-808.233 77.5,-796.678"/>
<polygon fill="orange" stroke="orange" points="74.0001,-834.398 77.5,-844.398 81.0001,-834.398 74.0001,-834.398"/>
<text text-anchor="middle" x="108.5" y="-818" font-family="Helvetica,sans-Serif" font-size="10.00"> &lt; precision &gt;</text>
</g>
<!-- Node5 -->
<g id="node5" class="node"><title>Node5</title>
<polygon fill="white" stroke="#bfbfbf" points="63,-949.5 63,-1006.5 92,-1006.5 92,-949.5 63,-949.5"/>
<text text-anchor="middle" x="77.5" y="-994.5" font-family="Helvetica,sans-Serif" font-size="10.00">T</text>
<polyline fill="none" stroke="#bfbfbf" points="63,-987.5 92,-987.5 "/>
<text text-anchor="middle" x="77.5" y="-975.5" font-family="Helvetica,sans-Serif" font-size="10.00"> </text>
<polyline fill="none" stroke="#bfbfbf" points="63,-968.5 92,-968.5 "/>
<text text-anchor="middle" x="77.5" y="-956.5" font-family="Helvetica,sans-Serif" font-size="10.00"> </text>
</g>
<!-- Node5&#45;&gt;Node4 -->
<g id="edge4" class="edge"><title>Node5&#45;&gt;Node4</title>
<path fill="none" stroke="#404040" d="M77.5,-949.398C77.5,-938.545 77.5,-925.873 77.5,-914.049"/>
<polygon fill="none" stroke="#404040" points="77.5001,-913.678 73.5,-907.678 77.5,-901.678 81.5,-907.678 77.5001,-913.678"/>
<text text-anchor="middle" x="103" y="-923" font-family="Helvetica,sans-Serif" font-size="10.00"> +elements</text>
</g>
</g>
</svg>
        <g id="navigator" transform="translate(0 0)" fill="#404254">
                <rect fill="#f2f5e9" fill-opacity="0.5" stroke="#606060" stroke-width=".5" x="0" y="0" width="60" height="60"/>
                <use id="zoomplus" xlink:href="#zoomPlus" x="17" y="9" onmousedown="handleZoom(evt,'in')"/>
                <use id="zoomminus" xlink:href="#zoomMin" x="42" y="9" onmousedown="handleZoom(evt,'out')"/>
                <use id="reset" xlink:href="#resetDef" x="30" y="36" onmousedown="handleReset()"/>
                <g id="arrowUp" xlink:href="#dirArrow" transform="translate(30 24)" onmousedown="handlePan(0,-1)">
                  <use xlink:href="#rim" fill="#404040">
                        <set attributeName="fill" to="#808080" begin="arrowUp.mouseover" end="arrowUp.mouseout"/>
                  </use>
                  <path fill="none" stroke="white" stroke-width="1.5" d="M0,-3.0v7 M-2.5,-0.5L0,-3.0L2.5,-0.5"/>
                </g>
                <g id="arrowRight" xlink:href="#dirArrow" transform="rotate(90) translate(36 -43)" onmousedown="handlePan(1,0)">
                  <use xlink:href="#rim" fill="#404040">
                        <set attributeName="fill" to="#808080" begin="arrowRight.mouseover" end="arrowRight.mouseout"/>
                  </use>
                  <path fill="none" stroke="white" stroke-width="1.5" d="M0,-3.0v7 M-2.5,-0.5L0,-3.0L2.5,-0.5"/>
                </g>
                <g id="arrowDown" xlink:href="#dirArrow" transform="rotate(180) translate(-30 -48)" onmousedown="handlePan(0,1)">
                  <use xlink:href="#rim" fill="#404040">
                        <set attributeName="fill" to="#808080" begin="arrowDown.mouseover" end="arrowDown.mouseout"/>
                  </use>
                  <path fill="none" stroke="white" stroke-width="1.5" d="M0,-3.0v7 M-2.5,-0.5L0,-3.0L2.5,-0.5"/>
                </g>
                <g id="arrowLeft" xlink:href="#dirArrow" transform="rotate(270) translate(-36 17)" onmousedown="handlePan(-1,0)">
                  <use xlink:href="#rim" fill="#404040">
                        <set attributeName="fill" to="#808080" begin="arrowLeft.mouseover" end="arrowLeft.mouseout"/>
                  </use>
                  <path fill="none" stroke="white" stroke-width="1.5" d="M0,-3.0v7 M-2.5,-0.5L0,-3.0L2.5,-0.5"/>
                </g>
        </g>
        <svg viewBox="0 0 15 15" width="100%" height="30px" preserveAspectRatio="xMaxYMin meet">
         <g id="arrow_out" transform="scale(0.3 0.3)">
          <a xlink:href="classpfasst_1_1quadrature_1_1GaussLegendre__coll__graph_org.svg" target="_base">
           <rect id="button" ry="5" rx="5" y="6" x="6" height="38" width="38"
                fill="#f2f5e9" fill-opacity="0.5" stroke="#606060" stroke-width="1.0"/>
           <path id="arrow"
             d="M 11.500037,31.436501 C 11.940474,20.09759 22.043105,11.32322 32.158766,21.979434 L 37.068811,17.246167 C 37.068811,17.246167 37.088388,32 37.088388,32 L 22.160133,31.978069 C 22.160133,31.978069 26.997745,27.140456 26.997745,27.140456 C 18.528582,18.264221 13.291696,25.230495 11.500037,31.436501 z"
             style="fill:#404040;"/>
          </a>
         </g>
        </svg>
</svg>
