<?xml version="1.0" encoding="UTF-8" standalone="no"?>
<!DOCTYPE svg PUBLIC "-//W3C//DTD SVG 1.1//EN"
 "http://www.w3.org/Graphics/SVG/1.1/DTD/svg11.dtd">
<!-- Generated by graphviz version 2.38.0 (20140413.2041)
 -->
<!-- Title: pfasst::encap::VectorEncapsulation::VectorEncapsulation Pages: 1 -->
<svg width="392pt" height="39pt"
 viewBox="0.00 0.00 392.00 39.00" xmlns="http://www.w3.org/2000/svg" xmlns:xlink="http://www.w3.org/1999/xlink">
<g id="graph0" class="graph" transform="scale(1 1) rotate(0) translate(4 35)">
<title>pfasst::encap::VectorEncapsulation::VectorEncapsulation</title>
<polygon fill="white" stroke="none" points="-4,4 -4,-35 388,-35 388,4 -4,4"/>
<!-- Node1 -->
<g id="node1" class="node"><title>Node1</title>
<polygon fill="#bfbfbf" stroke="black" points="0,-0.5 0,-30.5 174,-30.5 174,-0.5 0,-0.5"/>
<text text-anchor="start" x="8" y="-18.5" font-family="Helvetica,sans-Serif" font-size="10.00">pfasst::encap::VectorEncapsulation</text>
<text text-anchor="middle" x="87" y="-7.5" font-family="Helvetica,sans-Serif" font-size="10.00">::VectorEncapsulation</text>
</g>
<!-- Node2 -->
<g id="node2" class="node"><title>Node2</title>
<g id="a_node2"><a xlink:href="../../d6/d2b/classpfasst_1_1encap_1_1VectorEncapsulation.html#a61d87981eb981d2f88ffc2dcf2dcade9" target="_top" xlink:title="Zeroes out all values of this data structure. ">
<polygon fill="white" stroke="black" points="210,-0.5 210,-30.5 384,-30.5 384,-0.5 210,-0.5"/>
<text text-anchor="start" x="218" y="-18.5" font-family="Helvetica,sans-Serif" font-size="10.00">pfasst::encap::VectorEncapsulation</text>
<text text-anchor="middle" x="297" y="-7.5" font-family="Helvetica,sans-Serif" font-size="10.00">::zero</text>
</a>
</g>
</g>
<!-- Node1&#45;&gt;Node2 -->
<g id="edge1" class="edge"><title>Node1&#45;&gt;Node2</title>
<path fill="none" stroke="midnightblue" d="M174.103,-15.5C182.618,-15.5 191.298,-15.5 199.905,-15.5"/>
<polygon fill="midnightblue" stroke="midnightblue" points="199.962,-19.0001 209.962,-15.5 199.962,-12.0001 199.962,-19.0001"/>
</g>
</g>
</svg>
