<?xml version="1.0" encoding="UTF-8" standalone="no"?>
<!DOCTYPE svg PUBLIC "-//W3C//DTD SVG 1.1//EN"
 "http://www.w3.org/Graphics/SVG/1.1/DTD/svg11.dtd">
<!-- Generated by graphviz version 2.38.0 (20140413.2041)
 -->
<!-- Title: pfasst::encap::VectorEncapsulation::~VectorEncapsulation Pages: 1 -->
<svg width="320pt" height="78pt"
 viewBox="0.00 0.00 320.00 77.50" xmlns="http://www.w3.org/2000/svg" xmlns:xlink="http://www.w3.org/1999/xlink">
<g id="graph0" class="graph" transform="scale(1 1) rotate(0) translate(4 73.5)">
<title>pfasst::encap::VectorEncapsulation::~VectorEncapsulation</title>
<polygon fill="white" stroke="none" points="-4,4 -4,-73.5 316,-73.5 316,4 -4,4"/>
<!-- Node1 -->
<g id="node1" class="node"><title>Node1</title>
<polygon fill="#bfbfbf" stroke="black" points="0,-17 0,-47 174,-47 174,-17 0,-17"/>
<text text-anchor="start" x="8" y="-35" font-family="Helvetica,sans-Serif" font-size="10.00">pfasst::encap::VectorEncapsulation</text>
<text text-anchor="middle" x="87" y="-24" font-family="Helvetica,sans-Serif" font-size="10.00">::~VectorEncapsulation</text>
</g>
<!-- Node2 -->
<g id="node2" class="node"><title>Node2</title>
<g id="a_node2"><a xlink:href="../../dd/d0f/group__Utilities.html#ga186af383a1821e2a59ccc6888b77f278" target="_top" xlink:title="checks MPI error code ">
<polygon fill="white" stroke="black" points="212,-39 212,-69 310,-69 310,-39 212,-39"/>
<text text-anchor="start" x="220" y="-57" font-family="Helvetica,sans-Serif" font-size="10.00">pfasst::mpi::check</text>
<text text-anchor="middle" x="261" y="-46" font-family="Helvetica,sans-Serif" font-size="10.00">_mpi_error</text>
</a>
</g>
</g>
<!-- Node1&#45;&gt;Node2 -->
<g id="edge1" class="edge"><title>Node1&#45;&gt;Node2</title>
<path fill="none" stroke="midnightblue" d="M174.252,-43.0322C183.53,-44.2189 192.804,-45.4051 201.642,-46.5356"/>
<polygon fill="midnightblue" stroke="midnightblue" points="201.428,-50.0366 211.791,-47.8337 202.316,-43.0932 201.428,-50.0366"/>
</g>
<!-- Node3 -->
<g id="node3" class="node"><title>Node3</title>
<g id="a_node3"><a xlink:href="../../dd/d0f/group__Utilities.html#gaf83ba533d756f0f5c25a2717aaa54e41" target="_top" xlink:title="creates and initializes a new empty MPI_Status object ">
<polygon fill="white" stroke="black" points="210,-0.5 210,-19.5 312,-19.5 312,-0.5 210,-0.5"/>
<text text-anchor="middle" x="261" y="-7.5" font-family="Helvetica,sans-Serif" font-size="10.00">MPI_Status_factory</text>
</a>
</g>
</g>
<!-- Node1&#45;&gt;Node3 -->
<g id="edge2" class="edge"><title>Node1&#45;&gt;Node3</title>
<path fill="none" stroke="midnightblue" d="M174.252,-20.9678C182.952,-19.8549 191.649,-18.7426 199.986,-17.6762"/>
<polygon fill="midnightblue" stroke="midnightblue" points="200.478,-21.1418 209.953,-16.4013 199.59,-14.1984 200.478,-21.1418"/>
</g>
</g>
</svg>
