<?xml version="1.0" encoding="UTF-8" standalone="no"?>
<!DOCTYPE svg PUBLIC "-//W3C//DTD SVG 1.1//EN"
 "http://www.w3.org/Graphics/SVG/1.1/DTD/svg11.dtd">
<!-- Generated by graphviz version 2.38.0 (20140413.2041)
 -->
<!-- Title: pfasst::examples::advection_diffusion::SpectralTransfer1D&lt; time &gt; Pages: 1 -->
<!--zoomable 882 -->
<svg id="main" version="1.1" xmlns="http://www.w3.org/2000/svg" xmlns:xlink="http://www.w3.org/1999/xlink" xml:space="preserve" onload="init(evt)">
<style type="text/css"><![CDATA[
.edge:hover path { stroke: red; }
.edge:hover polygon { stroke: red; fill: red; }
]]></style>
<script type="text/javascript"><![CDATA[
var edges = document.getElementsByTagName('g');
if (edges && edges.length) {
  for (var i=0;i<edges.length;i++) {
    if (edges[i].id.substr(0,4)=='edge') {
      edges[i].setAttribute('class','edge');
    }
  }
}
]]></script>
        <defs>
                <circle id="rim" cx="0" cy="0" r="7"/>
                <circle id="rim2" cx="0" cy="0" r="3.5"/>
                <g id="zoomPlus">
                        <use xlink:href="#rim" fill="#404040">
                                <set attributeName="fill" to="#808080" begin="zoomplus.mouseover" end="zoomplus.mouseout"/>
                        </use>
                        <path d="M-4,0h8M0,-4v8" fill="none" stroke="white" stroke-width="1.5" pointer-events="none"/>
                </g>
                <g id="zoomMin">
                        <use xlink:href="#rim" fill="#404040">
                                <set attributeName="fill" to="#808080" begin="zoomminus.mouseover" end="zoomminus.mouseout"/>
                        </use>
                        <path d="M-4,0h8" fill="none" stroke="white" stroke-width="1.5" pointer-events="none"/>
                </g>
                <g id="dirArrow">
                        <path fill="none" stroke="white" stroke-width="1.5" d="M0,-3.0v7 M-2.5,-0.5L0,-3.0L2.5,-0.5"/>
                </g>
               <g id="resetDef">
                       <use xlink:href="#rim2" fill="#404040">
                               <set attributeName="fill" to="#808080" begin="reset.mouseover" end="reset.mouseout"/>
                       </use>
               </g>
        </defs>

<script type="text/javascript">
var viewWidth = 367;
var viewHeight = 882;
var sectionId = 'dynsection-1';
</script>
<script xlink:href="../../svgpan.js"/>
<svg id="graph" class="graph">
<g id="viewport">
<title>pfasst::examples::advection_diffusion::SpectralTransfer1D&lt; time &gt;</title>
<polygon fill="white" stroke="none" points="-4,4 -4,-878 362.5,-878 362.5,4 -4,4"/>
<!-- Node1 -->
<g id="node1" class="node"><title>Node1</title>
<polygon fill="#bfbfbf" stroke="black" points="78.5,-0.5 78.5,-90.5 230.5,-90.5 230.5,-0.5 78.5,-0.5"/>
<text text-anchor="start" x="86.5" y="-78.5" font-family="Helvetica,sans-Serif" font-size="10.00">pfasst::examples::advection</text>
<text text-anchor="start" x="86.5" y="-67.5" font-family="Helvetica,sans-Serif" font-size="10.00">_diffusion::SpectralTransfer1D</text>
<text text-anchor="middle" x="154.5" y="-56.5" font-family="Helvetica,sans-Serif" font-size="10.00">&lt; time &gt;</text>
<polyline fill="none" stroke="black" points="78.5,-49.5 230.5,-49.5 "/>
<text text-anchor="middle" x="154.5" y="-37.5" font-family="Helvetica,sans-Serif" font-size="10.00"> </text>
<polyline fill="none" stroke="black" points="78.5,-30.5 230.5,-30.5 "/>
<text text-anchor="start" x="86.5" y="-18.5" font-family="Helvetica,sans-Serif" font-size="10.00">+ interpolate()</text>
<text text-anchor="start" x="86.5" y="-7.5" font-family="Helvetica,sans-Serif" font-size="10.00">+ restrict()</text>
</g>
<!-- Node2 -->
<g id="node2" class="node"><title>Node2</title>
<g id="a_node2"><a xlink:href="../../d9/d19/classpfasst_1_1encap_1_1PolyInterpMixin.html" target="_top" xlink:title="Polynomial time interpolation mixin. ">
<polygon fill="white" stroke="black" points="0,-138.5 0,-404.5 127,-404.5 127,-138.5 0,-138.5"/>
<text text-anchor="start" x="8" y="-392.5" font-family="Helvetica,sans-Serif" font-size="10.00">pfasst::encap::PolyInterp</text>
<text text-anchor="middle" x="63.5" y="-381.5" font-family="Helvetica,sans-Serif" font-size="10.00">Mixin&lt; time &gt;</text>
<polyline fill="none" stroke="black" points="0,-374.5 127,-374.5 "/>
<text text-anchor="middle" x="63.5" y="-362.5" font-family="Helvetica,sans-Serif" font-size="10.00"> </text>
<polyline fill="none" stroke="black" points="0,-355.5 127,-355.5 "/>
<text text-anchor="start" x="8" y="-343.5" font-family="Helvetica,sans-Serif" font-size="10.00">+ ~PolyInterpMixin()</text>
<text text-anchor="start" x="8" y="-332.5" font-family="Helvetica,sans-Serif" font-size="10.00">+ interpolate_initial()</text>
<text text-anchor="start" x="8" y="-321.5" font-family="Helvetica,sans-Serif" font-size="10.00">+ interpolate()</text>
<text text-anchor="start" x="8" y="-310.5" font-family="Helvetica,sans-Serif" font-size="10.00">+ interpolate()</text>
<text text-anchor="start" x="8" y="-299.5" font-family="Helvetica,sans-Serif" font-size="10.00">+ restrict_initial()</text>
<text text-anchor="start" x="8" y="-288.5" font-family="Helvetica,sans-Serif" font-size="10.00">+ restrict()</text>
<text text-anchor="start" x="8" y="-277.5" font-family="Helvetica,sans-Serif" font-size="10.00">+ restrict()</text>
<text text-anchor="start" x="8" y="-266.5" font-family="Helvetica,sans-Serif" font-size="10.00">+ fas()</text>
<text text-anchor="start" x="8" y="-255.5" font-family="Helvetica,sans-Serif" font-size="10.00">* EncapVecT</text>
<text text-anchor="start" x="8" y="-244.5" font-family="Helvetica,sans-Serif" font-size="10.00">* tmat</text>
<text text-anchor="start" x="8" y="-233.5" font-family="Helvetica,sans-Serif" font-size="10.00">* fmat</text>
<text text-anchor="start" x="8" y="-222.5" font-family="Helvetica,sans-Serif" font-size="10.00">* ~PolyInterpMixin()</text>
<text text-anchor="start" x="8" y="-211.5" font-family="Helvetica,sans-Serif" font-size="10.00">* interpolate_initial()</text>
<text text-anchor="start" x="8" y="-200.5" font-family="Helvetica,sans-Serif" font-size="10.00">* interpolate()</text>
<text text-anchor="start" x="8" y="-189.5" font-family="Helvetica,sans-Serif" font-size="10.00">* interpolate()</text>
<text text-anchor="start" x="8" y="-178.5" font-family="Helvetica,sans-Serif" font-size="10.00">* restrict_initial()</text>
<text text-anchor="start" x="8" y="-167.5" font-family="Helvetica,sans-Serif" font-size="10.00">* restrict()</text>
<text text-anchor="start" x="8" y="-156.5" font-family="Helvetica,sans-Serif" font-size="10.00">* restrict()</text>
<text text-anchor="start" x="8" y="-145.5" font-family="Helvetica,sans-Serif" font-size="10.00">* fas()</text>
</a>
</g>
</g>
<!-- Node2&#45;&gt;Node1 -->
<g id="edge1" class="edge"><title>Node2&#45;&gt;Node1</title>
<path fill="none" stroke="midnightblue" d="M121.088,-128.744C126.617,-115.136 131.888,-102.159 136.543,-90.7009"/>
<polygon fill="none" stroke="midnightblue" points="117.745,-127.674 117.224,-138.256 124.231,-130.308 117.745,-127.674"/>
</g>
<!-- Node3 -->
<g id="node3" class="node"><title>Node3</title>
<g id="a_node3"><a xlink:href="../../d2/d93/classpfasst_1_1ITransfer.html" target="_top" xlink:title="Abstract time/space transfer (restrict/interpolate) class. ">
<polygon fill="white" stroke="black" points="10.5,-452.5 10.5,-641.5 116.5,-641.5 116.5,-452.5 10.5,-452.5"/>
<text text-anchor="start" x="18.5" y="-629.5" font-family="Helvetica,sans-Serif" font-size="10.00">pfasst::ITransfer&lt;</text>
<text text-anchor="middle" x="63.5" y="-618.5" font-family="Helvetica,sans-Serif" font-size="10.00"> time &gt;</text>
<polyline fill="none" stroke="black" points="10.5,-611.5 116.5,-611.5 "/>
<text text-anchor="middle" x="63.5" y="-599.5" font-family="Helvetica,sans-Serif" font-size="10.00"> </text>
<polyline fill="none" stroke="black" points="10.5,-592.5 116.5,-592.5 "/>
<text text-anchor="start" x="18.5" y="-580.5" font-family="Helvetica,sans-Serif" font-size="10.00">+ ~ITransfer()</text>
<text text-anchor="start" x="18.5" y="-569.5" font-family="Helvetica,sans-Serif" font-size="10.00">+ interpolate_initial()</text>
<text text-anchor="start" x="18.5" y="-558.5" font-family="Helvetica,sans-Serif" font-size="10.00">+ interpolate()</text>
<text text-anchor="start" x="18.5" y="-547.5" font-family="Helvetica,sans-Serif" font-size="10.00">+ restrict_initial()</text>
<text text-anchor="start" x="18.5" y="-536.5" font-family="Helvetica,sans-Serif" font-size="10.00">+ restrict()</text>
<text text-anchor="start" x="18.5" y="-525.5" font-family="Helvetica,sans-Serif" font-size="10.00">+ fas()</text>
<text text-anchor="start" x="18.5" y="-514.5" font-family="Helvetica,sans-Serif" font-size="10.00">* ~ITransfer()</text>
<text text-anchor="start" x="18.5" y="-503.5" font-family="Helvetica,sans-Serif" font-size="10.00">* interpolate_initial()</text>
<text text-anchor="start" x="18.5" y="-492.5" font-family="Helvetica,sans-Serif" font-size="10.00">* interpolate()</text>
<text text-anchor="start" x="18.5" y="-481.5" font-family="Helvetica,sans-Serif" font-size="10.00">* restrict_initial()</text>
<text text-anchor="start" x="18.5" y="-470.5" font-family="Helvetica,sans-Serif" font-size="10.00">* restrict()</text>
<text text-anchor="start" x="18.5" y="-459.5" font-family="Helvetica,sans-Serif" font-size="10.00">* fas()</text>
</a>
</g>
</g>
<!-- Node3&#45;&gt;Node2 -->
<g id="edge2" class="edge"><title>Node3&#45;&gt;Node2</title>
<path fill="none" stroke="midnightblue" d="M63.5,-442.107C63.5,-429.907 63.5,-417.335 63.5,-404.813"/>
<polygon fill="none" stroke="midnightblue" points="60.0001,-442.259 63.5,-452.259 67.0001,-442.259 60.0001,-442.259"/>
</g>
<!-- Node4 -->
<g id="node4" class="node"><title>Node4</title>
<g id="a_node4"><a xlink:href="../../d8/d6f/classpfasst_1_1examples_1_1advection__diffusion_1_1FFT.html" target="_top" xlink:title="FFT helper class. ">
<polygon fill="white" stroke="black" points="145,-221 145,-322 288,-322 288,-221 145,-221"/>
<text text-anchor="start" x="153" y="-310" font-family="Helvetica,sans-Serif" font-size="10.00">pfasst::examples::advection</text>
<text text-anchor="middle" x="216.5" y="-299" font-family="Helvetica,sans-Serif" font-size="10.00">_diffusion::FFT</text>
<polyline fill="none" stroke="black" points="145,-292 288,-292 "/>
<text text-anchor="middle" x="216.5" y="-280" font-family="Helvetica,sans-Serif" font-size="10.00"> </text>
<polyline fill="none" stroke="black" points="145,-273 288,-273 "/>
<text text-anchor="start" x="153" y="-261" font-family="Helvetica,sans-Serif" font-size="10.00">+ ~FFT()</text>
<text text-anchor="start" x="153" y="-250" font-family="Helvetica,sans-Serif" font-size="10.00">+ get_workspace()</text>
<text text-anchor="start" x="153" y="-239" font-family="Helvetica,sans-Serif" font-size="10.00">+ forward()</text>
<text text-anchor="start" x="153" y="-228" font-family="Helvetica,sans-Serif" font-size="10.00">+ backward()</text>
</a>
</g>
</g>
<!-- Node4&#45;&gt;Node1 -->
<g id="edge3" class="edge"><title>Node4&#45;&gt;Node1</title>
<path fill="none" stroke="#404040" d="M202.74,-220.787C193.061,-185.815 180.093,-138.964 170.04,-102.644"/>
<polygon fill="none" stroke="#404040" points="169.953,-102.329 164.497,-97.6132 166.752,-90.7636 172.207,-95.4791 169.953,-102.329"/>
<text text-anchor="middle" x="181" y="-112" font-family="Helvetica,sans-Serif" font-size="10.00"> &#45;fft</text>
</g>
<!-- Node5 -->
<g id="node5" class="node"><title>Node5</title>
<polygon fill="white" stroke="#bfbfbf" points="149.5,-496.5 149.5,-597.5 283.5,-597.5 283.5,-496.5 149.5,-496.5"/>
<text text-anchor="start" x="157.5" y="-585.5" font-family="Helvetica,sans-Serif" font-size="10.00">std::map&lt; size_t, shared</text>
<text text-anchor="start" x="157.5" y="-574.5" font-family="Helvetica,sans-Serif" font-size="10.00">_ptr&lt; pfasst::examples</text>
<text text-anchor="start" x="157.5" y="-563.5" font-family="Helvetica,sans-Serif" font-size="10.00">::advection_diffusion::FFT</text>
<text text-anchor="middle" x="216.5" y="-552.5" font-family="Helvetica,sans-Serif" font-size="10.00">::workspace &gt; &gt;</text>
<polyline fill="none" stroke="#bfbfbf" points="149.5,-545.5 283.5,-545.5 "/>
<text text-anchor="start" x="157.5" y="-533.5" font-family="Helvetica,sans-Serif" font-size="10.00">+ keys</text>
<text text-anchor="start" x="157.5" y="-522.5" font-family="Helvetica,sans-Serif" font-size="10.00">+ elements</text>
<polyline fill="none" stroke="#bfbfbf" points="149.5,-515.5 283.5,-515.5 "/>
<text text-anchor="middle" x="216.5" y="-503.5" font-family="Helvetica,sans-Serif" font-size="10.00"> </text>
</g>
<!-- Node5&#45;&gt;Node4 -->
<g id="edge4" class="edge"><title>Node5&#45;&gt;Node4</title>
<path fill="none" stroke="#404040" d="M216.5,-496.471C216.5,-450.918 216.5,-383.204 216.5,-334.163"/>
<polygon fill="none" stroke="#404040" points="216.5,-334.122 212.5,-328.122 216.5,-322.122 220.5,-328.122 216.5,-334.122"/>
<text text-anchor="middle" x="247" y="-426" font-family="Helvetica,sans-Serif" font-size="10.00"> &#45;workspaces</text>
</g>
<!-- Node6 -->
<g id="node6" class="node"><title>Node6</title>
<g id="a_node6"><a xlink:title="STL class. ">
<polygon fill="white" stroke="#bfbfbf" points="169.5,-711.5 169.5,-768.5 263.5,-768.5 263.5,-711.5 169.5,-711.5"/>
<text text-anchor="middle" x="216.5" y="-756.5" font-family="Helvetica,sans-Serif" font-size="10.00">std::map&lt; K, T &gt;</text>
<polyline fill="none" stroke="#bfbfbf" points="169.5,-749.5 263.5,-749.5 "/>
<text text-anchor="middle" x="216.5" y="-737.5" font-family="Helvetica,sans-Serif" font-size="10.00"> </text>
<polyline fill="none" stroke="#bfbfbf" points="169.5,-730.5 263.5,-730.5 "/>
<text text-anchor="middle" x="216.5" y="-718.5" font-family="Helvetica,sans-Serif" font-size="10.00"> </text>
</a>
</g>
</g>
<!-- Node6&#45;&gt;Node5 -->
<g id="edge5" class="edge"><title>Node6&#45;&gt;Node5</title>
<path fill="none" stroke="orange" d="M216.5,-700.876C216.5,-671.238 216.5,-629.883 216.5,-597.658"/>
<polygon fill="orange" stroke="orange" points="213,-701.227 216.5,-711.227 220,-701.227 213,-701.227"/>
<text text-anchor="start" x="216.5" y="-685" font-family="Helvetica,sans-Serif" font-size="10.00"> &lt; size_t, shared_ptr</text>
<text text-anchor="start" x="216.5" y="-674" font-family="Helvetica,sans-Serif" font-size="10.00">&lt; pfasst::examples::advection</text>
<text text-anchor="middle" x="287.5" y="-663" font-family="Helvetica,sans-Serif" font-size="10.00">_diffusion::FFT::workspace &gt; &gt;</text>
</g>
<!-- Node7 -->
<g id="node7" class="node"><title>Node7</title>
<polygon fill="white" stroke="#bfbfbf" points="175,-816.5 175,-873.5 204,-873.5 204,-816.5 175,-816.5"/>
<text text-anchor="middle" x="189.5" y="-861.5" font-family="Helvetica,sans-Serif" font-size="10.00">K</text>
<polyline fill="none" stroke="#bfbfbf" points="175,-854.5 204,-854.5 "/>
<text text-anchor="middle" x="189.5" y="-842.5" font-family="Helvetica,sans-Serif" font-size="10.00"> </text>
<polyline fill="none" stroke="#bfbfbf" points="175,-835.5 204,-835.5 "/>
<text text-anchor="middle" x="189.5" y="-823.5" font-family="Helvetica,sans-Serif" font-size="10.00"> </text>
</g>
<!-- Node7&#45;&gt;Node6 -->
<g id="edge6" class="edge"><title>Node7&#45;&gt;Node6</title>
<path fill="none" stroke="#404040" d="M187.259,-816.358C187.206,-806.905 187.95,-796.358 190.5,-787 191.159,-784.58 191.975,-782.152 192.905,-779.745"/>
<polygon fill="none" stroke="#404040" points="192.944,-779.66 191.806,-772.54 197.942,-768.751 199.079,-775.872 192.944,-779.66"/>
<text text-anchor="middle" x="206" y="-790" font-family="Helvetica,sans-Serif" font-size="10.00"> +keys</text>
</g>
<!-- Node8 -->
<g id="node8" class="node"><title>Node8</title>
<polygon fill="white" stroke="#bfbfbf" points="229,-816.5 229,-873.5 258,-873.5 258,-816.5 229,-816.5"/>
<text text-anchor="middle" x="243.5" y="-861.5" font-family="Helvetica,sans-Serif" font-size="10.00">T</text>
<polyline fill="none" stroke="#bfbfbf" points="229,-854.5 258,-854.5 "/>
<text text-anchor="middle" x="243.5" y="-842.5" font-family="Helvetica,sans-Serif" font-size="10.00"> </text>
<polyline fill="none" stroke="#bfbfbf" points="229,-835.5 258,-835.5 "/>
<text text-anchor="middle" x="243.5" y="-823.5" font-family="Helvetica,sans-Serif" font-size="10.00"> </text>
</g>
<!-- Node8&#45;&gt;Node6 -->
<g id="edge7" class="edge"><title>Node8&#45;&gt;Node6</title>
<path fill="none" stroke="#404040" d="M236.264,-816.398C233.359,-805.314 229.956,-792.333 226.801,-780.296"/>
<polygon fill="none" stroke="#404040" points="226.798,-780.286 221.408,-775.497 223.755,-768.678 229.146,-773.468 226.798,-780.286"/>
<text text-anchor="middle" x="256" y="-790" font-family="Helvetica,sans-Serif" font-size="10.00"> +elements</text>
</g>
</g>
</svg>
        <g id="navigator" transform="translate(0 0)" fill="#404254">
                <rect fill="#f2f5e9" fill-opacity="0.5" stroke="#606060" stroke-width=".5" x="0" y="0" width="60" height="60"/>
                <use id="zoomplus" xlink:href="#zoomPlus" x="17" y="9" onmousedown="handleZoom(evt,'in')"/>
                <use id="zoomminus" xlink:href="#zoomMin" x="42" y="9" onmousedown="handleZoom(evt,'out')"/>
                <use id="reset" xlink:href="#resetDef" x="30" y="36" onmousedown="handleReset()"/>
                <g id="arrowUp" xlink:href="#dirArrow" transform="translate(30 24)" onmousedown="handlePan(0,-1)">
                  <use xlink:href="#rim" fill="#404040">
                        <set attributeName="fill" to="#808080" begin="arrowUp.mouseover" end="arrowUp.mouseout"/>
                  </use>
                  <path fill="none" stroke="white" stroke-width="1.5" d="M0,-3.0v7 M-2.5,-0.5L0,-3.0L2.5,-0.5"/>
                </g>
                <g id="arrowRight" xlink:href="#dirArrow" transform="rotate(90) translate(36 -43)" onmousedown="handlePan(1,0)">
                  <use xlink:href="#rim" fill="#404040">
                        <set attributeName="fill" to="#808080" begin="arrowRight.mouseover" end="arrowRight.mouseout"/>
                  </use>
                  <path fill="none" stroke="white" stroke-width="1.5" d="M0,-3.0v7 M-2.5,-0.5L0,-3.0L2.5,-0.5"/>
                </g>
                <g id="arrowDown" xlink:href="#dirArrow" transform="rotate(180) translate(-30 -48)" onmousedown="handlePan(0,1)">
                  <use xlink:href="#rim" fill="#404040">
                        <set attributeName="fill" to="#808080" begin="arrowDown.mouseover" end="arrowDown.mouseout"/>
                  </use>
                  <path fill="none" stroke="white" stroke-width="1.5" d="M0,-3.0v7 M-2.5,-0.5L0,-3.0L2.5,-0.5"/>
                </g>
                <g id="arrowLeft" xlink:href="#dirArrow" transform="rotate(270) translate(-36 17)" onmousedown="handlePan(-1,0)">
                  <use xlink:href="#rim" fill="#404040">
                        <set attributeName="fill" to="#808080" begin="arrowLeft.mouseover" end="arrowLeft.mouseout"/>
                  </use>
                  <path fill="none" stroke="white" stroke-width="1.5" d="M0,-3.0v7 M-2.5,-0.5L0,-3.0L2.5,-0.5"/>
                </g>
        </g>
        <svg viewBox="0 0 15 15" width="100%" height="30px" preserveAspectRatio="xMaxYMin meet">
         <g id="arrow_out" transform="scale(0.3 0.3)">
          <a xlink:href="classpfasst_1_1examples_1_1advection__diffusion_1_1SpectralTransfer1D__coll__graph_org.svg" target="_base">
           <rect id="button" ry="5" rx="5" y="6" x="6" height="38" width="38"
                fill="#f2f5e9" fill-opacity="0.5" stroke="#606060" stroke-width="1.0"/>
           <path id="arrow"
             d="M 11.500037,31.436501 C 11.940474,20.09759 22.043105,11.32322 32.158766,21.979434 L 37.068811,17.246167 C 37.068811,17.246167 37.088388,32 37.088388,32 L 22.160133,31.978069 C 22.160133,31.978069 26.997745,27.140456 26.997745,27.140456 C 18.528582,18.264221 13.291696,25.230495 11.500037,31.436501 z"
             style="fill:#404040;"/>
          </a>
         </g>
        </svg>
</svg>
