<?xml version="1.0" encoding="UTF-8" standalone="no"?>
<!DOCTYPE svg PUBLIC "-//W3C//DTD SVG 1.1//EN"
 "http://www.w3.org/Graphics/SVG/1.1/DTD/svg11.dtd">
<!-- Generated by graphviz version 2.38.0 (20140413.2041)
 -->
<!-- Title: pfasst::examples::boris::BorisSweeper::compute_residual_max Pages: 1 -->
<svg width="321pt" height="50pt"
 viewBox="0.00 0.00 321.00 50.00" xmlns="http://www.w3.org/2000/svg" xmlns:xlink="http://www.w3.org/1999/xlink">
<g id="graph0" class="graph" transform="scale(1 1) rotate(0) translate(4 46)">
<title>pfasst::examples::boris::BorisSweeper::compute_residual_max</title>
<polygon fill="white" stroke="none" points="-4,4 -4,-46 317,-46 317,4 -4,4"/>
<!-- Node1 -->
<g id="node1" class="node"><title>Node1</title>
<polygon fill="#bfbfbf" stroke="black" points="0,-0.5 0,-41.5 131,-41.5 131,-0.5 0,-0.5"/>
<text text-anchor="start" x="8" y="-29.5" font-family="Helvetica,sans-Serif" font-size="10.00">pfasst::examples::boris</text>
<text text-anchor="start" x="8" y="-18.5" font-family="Helvetica,sans-Serif" font-size="10.00">::BorisSweeper::compute</text>
<text text-anchor="middle" x="65.5" y="-7.5" font-family="Helvetica,sans-Serif" font-size="10.00">_residual_max</text>
</g>
<!-- Node2 -->
<g id="node2" class="node"><title>Node2</title>
<g id="a_node2"><a xlink:href="../../d3/d59/group__BorisUtilities.html#gab3fffee6da14f85d545e5c758393fb00" target="_top" xlink:title="pfasst::examples::boris::max">
<polygon fill="white" stroke="black" points="167,-11.5 167,-30.5 313,-30.5 313,-11.5 167,-11.5"/>
<text text-anchor="middle" x="240" y="-18.5" font-family="Helvetica,sans-Serif" font-size="10.00">pfasst::examples::boris::max</text>
</a>
</g>
</g>
<!-- Node1&#45;&gt;Node2 -->
<g id="edge1" class="edge"><title>Node1&#45;&gt;Node2</title>
<path fill="none" stroke="midnightblue" d="M131.223,-21C139.606,-21 148.279,-21 156.897,-21"/>
<polygon fill="midnightblue" stroke="midnightblue" points="156.967,-24.5001 166.967,-21 156.967,-17.5001 156.967,-24.5001"/>
</g>
</g>
</svg>
