<?xml version="1.0" encoding="UTF-8" standalone="no"?>
<!DOCTYPE svg PUBLIC "-//W3C//DTD SVG 1.1//EN"
 "http://www.w3.org/Graphics/SVG/1.1/DTD/svg11.dtd">
<!-- Generated by graphviz version 2.38.0 (20140413.2041)
 -->
<!-- Title: pfasst::examples::boris::BorisSweeper::exact Pages: 1 -->
<svg width="297pt" height="88pt"
 viewBox="0.00 0.00 297.00 88.00" xmlns="http://www.w3.org/2000/svg" xmlns:xlink="http://www.w3.org/1999/xlink">
<g id="graph0" class="graph" transform="scale(1 1) rotate(0) translate(4 84)">
<title>pfasst::examples::boris::BorisSweeper::exact</title>
<polygon fill="white" stroke="none" points="-4,4 -4,-84 293,-84 293,4 -4,4"/>
<!-- Node1 -->
<g id="node1" class="node"><title>Node1</title>
<polygon fill="#bfbfbf" stroke="black" points="0,-24.5 0,-54.5 121,-54.5 121,-24.5 0,-24.5"/>
<text text-anchor="start" x="8" y="-42.5" font-family="Helvetica,sans-Serif" font-size="10.00">pfasst::examples::boris</text>
<text text-anchor="middle" x="60.5" y="-31.5" font-family="Helvetica,sans-Serif" font-size="10.00">::BorisSweeper::exact</text>
</g>
<!-- Node2 -->
<g id="node2" class="node"><title>Node2</title>
<g id="a_node2"><a xlink:href="../../d2/dd0/classpfasst_1_1examples_1_1boris_1_1ParticleCloud.html#a5a344da53e2e58a1fb8cef5bca6973e7" target="_top" xlink:title="pfasst::examples::boris\l::ParticleCloud::positions">
<polygon fill="white" stroke="black" points="158.5,-49.5 158.5,-79.5 287.5,-79.5 287.5,-49.5 158.5,-49.5"/>
<text text-anchor="start" x="166.5" y="-67.5" font-family="Helvetica,sans-Serif" font-size="10.00">pfasst::examples::boris</text>
<text text-anchor="middle" x="223" y="-56.5" font-family="Helvetica,sans-Serif" font-size="10.00">::ParticleCloud::positions</text>
</a>
</g>
</g>
<!-- Node1&#45;&gt;Node2 -->
<g id="edge1" class="edge"><title>Node1&#45;&gt;Node2</title>
<path fill="none" stroke="midnightblue" d="M121.264,-48.8091C130.071,-50.1808 139.231,-51.6076 148.279,-53.0169"/>
<polygon fill="midnightblue" stroke="midnightblue" points="148.003,-56.516 158.422,-54.5969 149.08,-49.5994 148.003,-56.516"/>
</g>
<!-- Node3 -->
<g id="node3" class="node"><title>Node3</title>
<g id="a_node3"><a xlink:href="../../d2/dd0/classpfasst_1_1examples_1_1boris_1_1ParticleCloud.html#a27b1dffec3aaf9459aa0a61800c0d251" target="_top" xlink:title="pfasst::examples::boris\l::ParticleCloud::velocities">
<polygon fill="white" stroke="black" points="157,-0.5 157,-30.5 289,-30.5 289,-0.5 157,-0.5"/>
<text text-anchor="start" x="165" y="-18.5" font-family="Helvetica,sans-Serif" font-size="10.00">pfasst::examples::boris</text>
<text text-anchor="middle" x="223" y="-7.5" font-family="Helvetica,sans-Serif" font-size="10.00">::ParticleCloud::velocities</text>
</a>
</g>
</g>
<!-- Node1&#45;&gt;Node3 -->
<g id="edge2" class="edge"><title>Node1&#45;&gt;Node3</title>
<path fill="none" stroke="midnightblue" d="M121.264,-30.5633C129.592,-29.318 138.235,-28.0256 146.801,-26.7447"/>
<polygon fill="midnightblue" stroke="midnightblue" points="147.426,-30.1903 156.798,-25.2498 146.39,-23.2673 147.426,-30.1903"/>
</g>
</g>
</svg>
