<?xml version="1.0" encoding="UTF-8" standalone="no"?>
<!DOCTYPE svg PUBLIC "-//W3C//DTD SVG 1.1//EN"
 "http://www.w3.org/Graphics/SVG/1.1/DTD/svg11.dtd">
<!-- Generated by graphviz version 2.38.0 (20140413.2041)
 -->
<!-- Title: pfasst::examples::boris::BorisSweeper::boris_solve Pages: 1 -->
<svg width="309pt" height="186pt"
 viewBox="0.00 0.00 309.00 186.00" xmlns="http://www.w3.org/2000/svg" xmlns:xlink="http://www.w3.org/1999/xlink">
<g id="graph0" class="graph" transform="scale(1 1) rotate(0) translate(4 182)">
<title>pfasst::examples::boris::BorisSweeper::boris_solve</title>
<polygon fill="white" stroke="none" points="-4,4 -4,-182 305,-182 305,4 -4,4"/>
<!-- Node1 -->
<g id="node1" class="node"><title>Node1</title>
<polygon fill="#bfbfbf" stroke="black" points="0,-73.5 0,-103.5 144,-103.5 144,-73.5 0,-73.5"/>
<text text-anchor="start" x="8" y="-91.5" font-family="Helvetica,sans-Serif" font-size="10.00">pfasst::examples::boris</text>
<text text-anchor="middle" x="72" y="-80.5" font-family="Helvetica,sans-Serif" font-size="10.00">::BorisSweeper::boris_solve</text>
</g>
<!-- Node2 -->
<g id="node2" class="node"><title>Node2</title>
<g id="a_node2"><a xlink:href="../../d3/d59/group__BorisUtilities.html#ga5bd520899d3f16df3752ffeeaf9c97bc" target="_top" xlink:title="pfasst::examples::boris\l::cmp_wise_div">
<polygon fill="white" stroke="black" points="180,-147.5 180,-177.5 301,-177.5 301,-147.5 180,-147.5"/>
<text text-anchor="start" x="188" y="-165.5" font-family="Helvetica,sans-Serif" font-size="10.00">pfasst::examples::boris</text>
<text text-anchor="middle" x="240.5" y="-154.5" font-family="Helvetica,sans-Serif" font-size="10.00">::cmp_wise_div</text>
</a>
</g>
</g>
<!-- Node1&#45;&gt;Node2 -->
<g id="edge1" class="edge"><title>Node1&#45;&gt;Node2</title>
<path fill="none" stroke="midnightblue" d="M104.168,-103.605C125.407,-113.764 154.24,-127.296 180,-138.5 183.849,-140.174 187.855,-141.876 191.887,-143.56"/>
<polygon fill="midnightblue" stroke="midnightblue" points="190.705,-146.858 201.284,-147.439 193.375,-140.388 190.705,-146.858"/>
</g>
<!-- Node3 -->
<g id="node3" class="node"><title>Node3</title>
<g id="a_node3"><a xlink:href="../../d3/d59/group__BorisUtilities.html#ga3d236097a2c286345616e49913b60ffe" target="_top" xlink:title="pfasst::examples::boris\l::cross_prod">
<polygon fill="white" stroke="black" points="180,-98.5 180,-128.5 301,-128.5 301,-98.5 180,-98.5"/>
<text text-anchor="start" x="188" y="-116.5" font-family="Helvetica,sans-Serif" font-size="10.00">pfasst::examples::boris</text>
<text text-anchor="middle" x="240.5" y="-105.5" font-family="Helvetica,sans-Serif" font-size="10.00">::cross_prod</text>
</a>
</g>
</g>
<!-- Node1&#45;&gt;Node3 -->
<g id="edge2" class="edge"><title>Node1&#45;&gt;Node3</title>
<path fill="none" stroke="midnightblue" d="M144.094,-99.1748C152.67,-100.463 161.422,-101.777 169.976,-103.061"/>
<polygon fill="midnightblue" stroke="midnightblue" points="169.494,-106.528 179.903,-104.552 170.534,-99.6054 169.494,-106.528"/>
</g>
<!-- Node4 -->
<g id="node4" class="node"><title>Node4</title>
<g id="a_node4"><a xlink:href="../../d3/d59/group__BorisUtilities.html#ga6c5176afd5e7ef5c59c2e002660aceda" target="_top" xlink:title="pfasst::examples::boris\l::kronecker">
<polygon fill="white" stroke="black" points="180,-49.5 180,-79.5 301,-79.5 301,-49.5 180,-49.5"/>
<text text-anchor="start" x="188" y="-67.5" font-family="Helvetica,sans-Serif" font-size="10.00">pfasst::examples::boris</text>
<text text-anchor="middle" x="240.5" y="-56.5" font-family="Helvetica,sans-Serif" font-size="10.00">::kronecker</text>
</a>
</g>
</g>
<!-- Node1&#45;&gt;Node4 -->
<g id="edge3" class="edge"><title>Node1&#45;&gt;Node4</title>
<path fill="none" stroke="midnightblue" d="M144.094,-78.2522C152.67,-77.016 161.422,-75.7544 169.976,-74.5215"/>
<polygon fill="midnightblue" stroke="midnightblue" points="170.505,-77.9815 179.903,-73.0905 169.506,-71.0531 170.505,-77.9815"/>
</g>
<!-- Node5 -->
<g id="node5" class="node"><title>Node5</title>
<g id="a_node5"><a xlink:href="../../d3/d59/group__BorisUtilities.html#ga5374e5957f0d8485f418456e191c4650" target="_top" xlink:title="pfasst::examples::boris\l::norm_sq_npart">
<polygon fill="white" stroke="black" points="180,-0.5 180,-30.5 301,-30.5 301,-0.5 180,-0.5"/>
<text text-anchor="start" x="188" y="-18.5" font-family="Helvetica,sans-Serif" font-size="10.00">pfasst::examples::boris</text>
<text text-anchor="middle" x="240.5" y="-7.5" font-family="Helvetica,sans-Serif" font-size="10.00">::norm_sq_npart</text>
</a>
</g>
</g>
<!-- Node1&#45;&gt;Node5 -->
<g id="edge4" class="edge"><title>Node1&#45;&gt;Node5</title>
<path fill="none" stroke="midnightblue" d="M106.166,-73.3761C127.252,-63.8215 155.163,-51.2871 180,-40.5 184.455,-38.5654 189.106,-36.5692 193.761,-34.5877"/>
<polygon fill="midnightblue" stroke="midnightblue" points="195.413,-37.6888 203.256,-30.5657 192.683,-31.2432 195.413,-37.6888"/>
</g>
</g>
</svg>
