<?xml version="1.0" encoding="UTF-8" standalone="no"?>
<!DOCTYPE svg PUBLIC "-//W3C//DTD SVG 1.1//EN"
 "http://www.w3.org/Graphics/SVG/1.1/DTD/svg11.dtd">
<!-- Generated by graphviz version 2.38.0 (20140413.2041)
 -->
<!-- Title: pfasst::examples::boris::BorisSweeper::build_rhs Pages: 1 -->
<svg width="294pt" height="39pt"
 viewBox="0.00 0.00 294.00 39.00" xmlns="http://www.w3.org/2000/svg" xmlns:xlink="http://www.w3.org/1999/xlink">
<g id="graph0" class="graph" transform="scale(1 1) rotate(0) translate(4 35)">
<title>pfasst::examples::boris::BorisSweeper::build_rhs</title>
<polygon fill="white" stroke="none" points="-4,4 -4,-35 290,-35 290,4 -4,4"/>
<!-- Node1 -->
<g id="node1" class="node"><title>Node1</title>
<polygon fill="#bfbfbf" stroke="black" points="0,-0.5 0,-30.5 132,-30.5 132,-0.5 0,-0.5"/>
<text text-anchor="start" x="8" y="-18.5" font-family="Helvetica,sans-Serif" font-size="10.00">pfasst::examples::boris</text>
<text text-anchor="middle" x="66" y="-7.5" font-family="Helvetica,sans-Serif" font-size="10.00">::BorisSweeper::build_rhs</text>
</g>
<!-- Node2 -->
<g id="node2" class="node"><title>Node2</title>
<g id="a_node2"><a xlink:href="../../d0/d8f/namespacesimple__physics__solver_1_1internal.html#af6c0fdc0e98c47d3d3c72b9d00d4f930" target="_top" xlink:title="simple_physics_solver\l::internal::cross_prod">
<polygon fill="white" stroke="black" points="168,-0.5 168,-30.5 286,-30.5 286,-0.5 168,-0.5"/>
<text text-anchor="start" x="176" y="-18.5" font-family="Helvetica,sans-Serif" font-size="10.00">simple_physics_solver</text>
<text text-anchor="middle" x="227" y="-7.5" font-family="Helvetica,sans-Serif" font-size="10.00">::internal::cross_prod</text>
</a>
</g>
</g>
<!-- Node1&#45;&gt;Node2 -->
<g id="edge1" class="edge"><title>Node1&#45;&gt;Node2</title>
<path fill="none" stroke="midnightblue" d="M132.13,-15.5C140.544,-15.5 149.18,-15.5 157.645,-15.5"/>
<polygon fill="midnightblue" stroke="midnightblue" points="157.857,-19.0001 167.857,-15.5 157.857,-12.0001 157.857,-19.0001"/>
</g>
</g>
</svg>
