<?xml version="1.0" encoding="UTF-8" standalone="no"?>
<!DOCTYPE svg PUBLIC "-//W3C//DTD SVG 1.1//EN"
 "http://www.w3.org/Graphics/SVG/1.1/DTD/svg11.dtd">
<!-- Generated by graphviz version 2.38.0 (20140413.2041)
 -->
<!-- Title: pfasst::examples::boris::LogIndent Pages: 1 -->
<svg width="129pt" height="436pt"
 viewBox="0.00 0.00 129.00 436.00" xmlns="http://www.w3.org/2000/svg" xmlns:xlink="http://www.w3.org/1999/xlink">
<g id="graph0" class="graph" transform="scale(1 1) rotate(0) translate(4 432)">
<title>pfasst::examples::boris::LogIndent</title>
<polygon fill="white" stroke="none" points="-4,4 -4,-432 125,-432 125,4 -4,4"/>
<!-- Node1 -->
<g id="node1" class="node"><title>Node1</title>
<polygon fill="#bfbfbf" stroke="black" points="-7.10543e-15,-0.5 -7.10543e-15,-112.5 121,-112.5 121,-0.5 -7.10543e-15,-0.5"/>
<text text-anchor="start" x="8" y="-100.5" font-family="Helvetica,sans-Serif" font-size="10.00">pfasst::examples::boris</text>
<text text-anchor="middle" x="60.5" y="-89.5" font-family="Helvetica,sans-Serif" font-size="10.00">::LogIndent</text>
<polyline fill="none" stroke="black" points="-7.10543e-15,-82.5 121,-82.5 "/>
<text text-anchor="middle" x="60.5" y="-70.5" font-family="Helvetica,sans-Serif" font-size="10.00"> </text>
<polyline fill="none" stroke="black" points="-7.10543e-15,-63.5 121,-63.5 "/>
<text text-anchor="start" x="8" y="-51.5" font-family="Helvetica,sans-Serif" font-size="10.00">+ LogIndent()</text>
<text text-anchor="start" x="8" y="-40.5" font-family="Helvetica,sans-Serif" font-size="10.00">+ ~LogIndent()</text>
<text text-anchor="start" x="8" y="-29.5" font-family="Helvetica,sans-Serif" font-size="10.00">+ increment()</text>
<text text-anchor="start" x="8" y="-18.5" font-family="Helvetica,sans-Serif" font-size="10.00">+ decrement()</text>
<text text-anchor="start" x="8" y="-7.5" font-family="Helvetica,sans-Serif" font-size="10.00">+ indent()</text>
</g>
<!-- Node2 -->
<g id="node2" class="node"><title>Node2</title>
<polygon fill="white" stroke="#bfbfbf" points="3,-160.5 3,-217.5 118,-217.5 118,-160.5 3,-160.5"/>
<text text-anchor="middle" x="60.5" y="-205.5" font-family="Helvetica,sans-Serif" font-size="10.00">std::array&lt; size_t, 9 &gt;</text>
<polyline fill="none" stroke="#bfbfbf" points="3,-198.5 118,-198.5 "/>
<text text-anchor="start" x="11" y="-186.5" font-family="Helvetica,sans-Serif" font-size="10.00">+ elements</text>
<polyline fill="none" stroke="#bfbfbf" points="3,-179.5 118,-179.5 "/>
<text text-anchor="middle" x="60.5" y="-167.5" font-family="Helvetica,sans-Serif" font-size="10.00"> </text>
</g>
<!-- Node2&#45;&gt;Node1 -->
<g id="edge1" class="edge"><title>Node2&#45;&gt;Node1</title>
<path fill="none" stroke="#404040" d="M60.5,-160.324C60.5,-149.778 60.5,-137.246 60.5,-124.62"/>
<polygon fill="none" stroke="#404040" points="60.5001,-124.548 56.5,-118.548 60.5,-112.548 64.5,-118.548 60.5001,-124.548"/>
<text text-anchor="middle" x="89.5" y="-134" font-family="Helvetica,sans-Serif" font-size="10.00"> &#45;vlog_levels</text>
</g>
<!-- Node3 -->
<g id="node3" class="node"><title>Node3</title>
<g id="a_node3"><a xlink:title="STL class. ">
<polygon fill="white" stroke="#bfbfbf" points="18,-265.5 18,-322.5 103,-322.5 103,-265.5 18,-265.5"/>
<text text-anchor="middle" x="60.5" y="-310.5" font-family="Helvetica,sans-Serif" font-size="10.00">std::array&lt; T &gt;</text>
<polyline fill="none" stroke="#bfbfbf" points="18,-303.5 103,-303.5 "/>
<text text-anchor="middle" x="60.5" y="-291.5" font-family="Helvetica,sans-Serif" font-size="10.00"> </text>
<polyline fill="none" stroke="#bfbfbf" points="18,-284.5 103,-284.5 "/>
<text text-anchor="middle" x="60.5" y="-272.5" font-family="Helvetica,sans-Serif" font-size="10.00"> </text>
</a>
</g>
</g>
<!-- Node3&#45;&gt;Node2 -->
<g id="edge2" class="edge"><title>Node3&#45;&gt;Node2</title>
<path fill="none" stroke="orange" d="M60.5,-255.286C60.5,-242.839 60.5,-229.233 60.5,-217.678"/>
<polygon fill="orange" stroke="orange" points="57.0001,-255.398 60.5,-265.398 64.0001,-255.398 57.0001,-255.398"/>
<text text-anchor="middle" x="90" y="-239" font-family="Helvetica,sans-Serif" font-size="10.00"> &lt; size_t, 9 &gt;</text>
</g>
<!-- Node4 -->
<g id="node4" class="node"><title>Node4</title>
<polygon fill="white" stroke="#bfbfbf" points="46,-370.5 46,-427.5 75,-427.5 75,-370.5 46,-370.5"/>
<text text-anchor="middle" x="60.5" y="-415.5" font-family="Helvetica,sans-Serif" font-size="10.00">T</text>
<polyline fill="none" stroke="#bfbfbf" points="46,-408.5 75,-408.5 "/>
<text text-anchor="middle" x="60.5" y="-396.5" font-family="Helvetica,sans-Serif" font-size="10.00"> </text>
<polyline fill="none" stroke="#bfbfbf" points="46,-389.5 75,-389.5 "/>
<text text-anchor="middle" x="60.5" y="-377.5" font-family="Helvetica,sans-Serif" font-size="10.00"> </text>
</g>
<!-- Node4&#45;&gt;Node3 -->
<g id="edge3" class="edge"><title>Node4&#45;&gt;Node3</title>
<path fill="none" stroke="#404040" d="M60.5,-370.398C60.5,-359.545 60.5,-346.873 60.5,-335.049"/>
<polygon fill="none" stroke="#404040" points="60.5001,-334.678 56.5,-328.678 60.5,-322.678 64.5,-328.678 60.5001,-334.678"/>
<text text-anchor="middle" x="86" y="-344" font-family="Helvetica,sans-Serif" font-size="10.00"> +elements</text>
</g>
</g>
</svg>
