<?xml version="1.0" encoding="UTF-8" standalone="no"?>
<!DOCTYPE svg PUBLIC "-//W3C//DTD SVG 1.1//EN"
 "http://www.w3.org/Graphics/SVG/1.1/DTD/svg11.dtd">
<!-- Generated by graphviz version 2.38.0 (20140413.2041)
 -->
<!-- Title: include/pfasst/controller/sdc.hpp Pages: 1 -->
<svg width="786pt" height="106pt"
 viewBox="0.00 0.00 785.50 106.00" xmlns="http://www.w3.org/2000/svg" xmlns:xlink="http://www.w3.org/1999/xlink">
<g id="graph0" class="graph" transform="scale(1 1) rotate(0) translate(4 102)">
<title>include/pfasst/controller/sdc.hpp</title>
<polygon fill="white" stroke="none" points="-4,4 -4,-102 781.5,-102 781.5,4 -4,4"/>
<!-- Node1 -->
<g id="node1" class="node"><title>Node1</title>
<polygon fill="#bfbfbf" stroke="black" points="266,-67.5 266,-97.5 388,-97.5 388,-67.5 266,-67.5"/>
<text text-anchor="start" x="274" y="-85.5" font-family="Helvetica,sans-Serif" font-size="10.00">include/pfasst/controller</text>
<text text-anchor="middle" x="327" y="-74.5" font-family="Helvetica,sans-Serif" font-size="10.00">/sdc.hpp</text>
</g>
<!-- Node2 -->
<g id="node2" class="node"><title>Node2</title>
<g id="a_node2"><a xlink:href="../../d9/d01/sdc__impl_8hpp.html" target="_top" xlink:title="src/pfasst/controller\l/sdc_impl.hpp">
<polygon fill="white" stroke="black" points="0,-0.5 0,-30.5 104,-30.5 104,-0.5 0,-0.5"/>
<text text-anchor="start" x="8" y="-18.5" font-family="Helvetica,sans-Serif" font-size="10.00">src/pfasst/controller</text>
<text text-anchor="middle" x="52" y="-7.5" font-family="Helvetica,sans-Serif" font-size="10.00">/sdc_impl.hpp</text>
</a>
</g>
</g>
<!-- Node1&#45;&gt;Node2 -->
<g id="edge1" class="edge"><title>Node1&#45;&gt;Node2</title>
<path fill="none" stroke="midnightblue" d="M255.584,-66.4818C211.684,-56.4522 154.486,-42.9572 104,-31 103.364,-30.8495 102.725,-30.698 102.083,-30.5458"/>
<polygon fill="midnightblue" stroke="midnightblue" points="255.064,-69.9529 265.591,-68.7602 256.618,-63.1275 255.064,-69.9529"/>
</g>
<!-- Node3 -->
<g id="node3" class="node"><title>Node3</title>
<g id="a_node3"><a xlink:href="../../d4/df0/vanilla__sdc_8cpp.html" target="_top" xlink:title="Advection&#45;Diffusion with vanilla SDC. ">
<polygon fill="white" stroke="black" points="122.5,-0.5 122.5,-30.5 253.5,-30.5 253.5,-0.5 122.5,-0.5"/>
<text text-anchor="start" x="130.5" y="-18.5" font-family="Helvetica,sans-Serif" font-size="10.00">examples/advection</text>
<text text-anchor="middle" x="188" y="-7.5" font-family="Helvetica,sans-Serif" font-size="10.00">_diffusion/vanilla_sdc.cpp</text>
</a>
</g>
</g>
<!-- Node1&#45;&gt;Node3 -->
<g id="edge3" class="edge"><title>Node1&#45;&gt;Node3</title>
<path fill="none" stroke="midnightblue" d="M287.718,-63.1305C265.631,-52.8025 238.49,-40.1103 218.102,-30.5765"/>
<polygon fill="midnightblue" stroke="midnightblue" points="286.298,-66.3304 296.839,-67.396 289.263,-59.9894 286.298,-66.3304"/>
</g>
<!-- Node4 -->
<g id="node4" class="node"><title>Node4</title>
<g id="a_node4"><a xlink:href="../../d7/d31/boris__mlsdc_8cpp.html" target="_top" xlink:title="examples/boris/boris\l_mlsdc.cpp">
<polygon fill="white" stroke="black" points="272,-0.5 272,-30.5 382,-30.5 382,-0.5 272,-0.5"/>
<text text-anchor="start" x="280" y="-18.5" font-family="Helvetica,sans-Serif" font-size="10.00">examples/boris/boris</text>
<text text-anchor="middle" x="327" y="-7.5" font-family="Helvetica,sans-Serif" font-size="10.00">_mlsdc.cpp</text>
</a>
</g>
</g>
<!-- Node1&#45;&gt;Node4 -->
<g id="edge4" class="edge"><title>Node1&#45;&gt;Node4</title>
<path fill="none" stroke="midnightblue" d="M327,-57.1081C327,-48.1539 327,-38.3227 327,-30.5765"/>
<polygon fill="midnightblue" stroke="midnightblue" points="323.5,-57.3959 327,-67.396 330.5,-57.396 323.5,-57.3959"/>
</g>
<!-- Node5 -->
<g id="node5" class="node"><title>Node5</title>
<g id="a_node5"><a xlink:href="../../d3/d93/boris__sdc_8cpp.html" target="_top" xlink:title="examples/boris/boris\l_sdc.cpp">
<polygon fill="white" stroke="black" points="400,-0.5 400,-30.5 510,-30.5 510,-0.5 400,-0.5"/>
<text text-anchor="start" x="408" y="-18.5" font-family="Helvetica,sans-Serif" font-size="10.00">examples/boris/boris</text>
<text text-anchor="middle" x="455" y="-7.5" font-family="Helvetica,sans-Serif" font-size="10.00">_sdc.cpp</text>
</a>
</g>
</g>
<!-- Node1&#45;&gt;Node5 -->
<g id="edge5" class="edge"><title>Node1&#45;&gt;Node5</title>
<path fill="none" stroke="midnightblue" d="M363.72,-62.8533C383.958,-52.5761 408.674,-40.0252 427.28,-30.5765"/>
<polygon fill="midnightblue" stroke="midnightblue" points="362.106,-59.7475 354.774,-67.396 365.275,-65.9888 362.106,-59.7475"/>
</g>
<!-- Node6 -->
<g id="node6" class="node"><title>Node6</title>
<g id="a_node6"><a xlink:href="../../d2/daf/scalar__sdc_8cpp.html" target="_top" xlink:title="Scalar test equation example using an encapsulated IMEX sweeper. ">
<polygon fill="white" stroke="black" points="528,-0.5 528,-30.5 650,-30.5 650,-0.5 528,-0.5"/>
<text text-anchor="start" x="536" y="-18.5" font-family="Helvetica,sans-Serif" font-size="10.00">examples/scalar/scalar</text>
<text text-anchor="middle" x="589" y="-7.5" font-family="Helvetica,sans-Serif" font-size="10.00">_sdc.cpp</text>
</a>
</g>
</g>
<!-- Node1&#45;&gt;Node6 -->
<g id="edge6" class="edge"><title>Node1&#45;&gt;Node6</title>
<path fill="none" stroke="midnightblue" d="M393.3,-65.0515C436.133,-54.425 491.288,-40.7414 532.122,-30.6109"/>
<polygon fill="midnightblue" stroke="midnightblue" points="392.391,-61.671 383.528,-67.476 394.076,-68.465 392.391,-61.671"/>
</g>
<!-- Node7 -->
<g id="node7" class="node"><title>Node7</title>
<g id="a_node7"><a xlink:href="../../df/de7/vdp__sdc_8cpp.html" target="_top" xlink:title="examples/vanderpol\l/vdp_sdc.cpp">
<polygon fill="white" stroke="black" points="668.5,-0.5 668.5,-30.5 777.5,-30.5 777.5,-0.5 668.5,-0.5"/>
<text text-anchor="start" x="676.5" y="-18.5" font-family="Helvetica,sans-Serif" font-size="10.00">examples/vanderpol</text>
<text text-anchor="middle" x="723" y="-7.5" font-family="Helvetica,sans-Serif" font-size="10.00">/vdp_sdc.cpp</text>
</a>
</g>
</g>
<!-- Node1&#45;&gt;Node7 -->
<g id="edge7" class="edge"><title>Node1&#45;&gt;Node7</title>
<path fill="none" stroke="midnightblue" d="M398.193,-72.1788C465.592,-62.9984 569.501,-47.9227 659,-31 662.022,-30.4285 665.119,-29.8163 668.241,-29.1782"/>
<polygon fill="midnightblue" stroke="midnightblue" points="397.548,-68.7341 388.109,-73.5455 398.488,-75.6707 397.548,-68.7341"/>
</g>
<!-- Node2&#45;&gt;Node1 -->
<g id="edge2" class="edge"><title>Node2&#45;&gt;Node1</title>
<path fill="none" stroke="midnightblue" d="M114.067,-29.1216C116.755,-29.7572 119.408,-30.3861 122,-31 174.19,-43.3607 233.552,-57.3649 275.007,-67.4853"/>
<polygon fill="midnightblue" stroke="midnightblue" points="114.77,-25.6916 104.234,-26.8063 113.166,-32.5052 114.77,-25.6916"/>
</g>
</g>
</svg>
