<?xml version="1.0" encoding="UTF-8" standalone="no"?>
<!DOCTYPE svg PUBLIC "-//W3C//DTD SVG 1.1//EN"
 "http://www.w3.org/Graphics/SVG/1.1/DTD/svg11.dtd">
<!-- Generated by graphviz version 2.38.0 (20140413.2041)
 -->
<!-- Title: Van&#45;der&#45;Pol Oscillator Pages: 1 -->
<svg width="295pt" height="28pt"
 viewBox="0.00 0.00 295.00 28.00" xmlns="http://www.w3.org/2000/svg" xmlns:xlink="http://www.w3.org/1999/xlink">
<g id="graph0" class="graph" transform="scale(1 1) rotate(0) translate(4 24)">
<title>Van&#45;der&#45;Pol Oscillator</title>
<polygon fill="white" stroke="none" points="-4,4 -4,-24 291,-24 291,4 -4,4"/>
<!-- Node2 -->
<g id="node1" class="node"><title>Node2</title>
<g id="a_node1"><a xlink:href="../../d0/d42/group__VanDerPolFiles.html" target="_top" xlink:title="Files">
<polygon fill="white" stroke="black" points="249,-0.5 249,-19.5 287,-19.5 287,-0.5 249,-0.5"/>
<text text-anchor="middle" x="268" y="-7.5" font-family="Helvetica,sans-Serif" font-size="10.00">Files</text>
</a>
</g>
</g>
<!-- Node1 -->
<g id="node2" class="node"><title>Node1</title>
<g id="a_node2"><a xlink:href="../../d4/dfb/group__Examples.html" target="_top" xlink:title="A few different examples demonstrating the use and functionality of PFASST++. ">
<polygon fill="white" stroke="black" points="0,-0.5 0,-19.5 61,-19.5 61,-0.5 0,-0.5"/>
<text text-anchor="middle" x="30.5" y="-7.5" font-family="Helvetica,sans-Serif" font-size="10.00">Examples</text>
</a>
</g>
</g>
<!-- Node0 -->
<g id="node3" class="node"><title>Node0</title>
<polygon fill="#bfbfbf" stroke="black" points="97,-0.5 97,-19.5 213,-19.5 213,-0.5 97,-0.5"/>
<text text-anchor="middle" x="155" y="-7.5" font-family="Helvetica,sans-Serif" font-size="10.00">Van&#45;der&#45;Pol Oscillator</text>
</g>
<!-- Node1&#45;&gt;Node0 -->
<g id="edge1" class="edge"><title>Node1&#45;&gt;Node0</title>
<path fill="none" stroke="black" d="M71.1609,-10C79.3522,-10 88.1342,-10 96.8073,-10"/>
<polygon fill="black" stroke="black" points="71.1539,-6.5001 61.1538,-10 71.1538,-13.5001 71.1539,-6.5001"/>
</g>
<!-- Node0&#45;&gt;Node2 -->
<g id="edge2" class="edge"><title>Node0&#45;&gt;Node2</title>
<path fill="none" stroke="black" d="M223.376,-10C232.702,-10 241.558,-10 248.824,-10"/>
<polygon fill="black" stroke="black" points="223.126,-6.5001 213.126,-10 223.126,-13.5001 223.126,-6.5001"/>
</g>
</g>
</svg>
