<?xml version="1.0" encoding="UTF-8" standalone="no"?>
<!DOCTYPE svg PUBLIC "-//W3C//DTD SVG 1.1//EN"
 "http://www.w3.org/Graphics/SVG/1.1/DTD/svg11.dtd">
<!-- Generated by graphviz version 2.38.0 (20140413.2041)
 -->
<!-- Title: pfasst::examples::vdp::run_vdp_sdc Pages: 1 -->
<svg width="279pt" height="78pt"
 viewBox="0.00 0.00 279.00 77.50" xmlns="http://www.w3.org/2000/svg" xmlns:xlink="http://www.w3.org/1999/xlink">
<g id="graph0" class="graph" transform="scale(1 1) rotate(0) translate(4 73.5)">
<title>pfasst::examples::vdp::run_vdp_sdc</title>
<polygon fill="white" stroke="none" points="-4,4 -4,-73.5 275,-73.5 275,4 -4,4"/>
<!-- Node1 -->
<g id="node1" class="node"><title>Node1</title>
<polygon fill="#bfbfbf" stroke="black" points="0,-22.5 0,-52.5 116,-52.5 116,-22.5 0,-22.5"/>
<text text-anchor="start" x="8" y="-40.5" font-family="Helvetica,sans-Serif" font-size="10.00">pfasst::examples::vdp</text>
<text text-anchor="middle" x="58" y="-29.5" font-family="Helvetica,sans-Serif" font-size="10.00">::run_vdp_sdc</text>
</g>
<!-- Node2 -->
<g id="node2" class="node"><title>Node2</title>
<g id="a_node2"><a xlink:href="../../df/de7/vdp__sdc_8cpp.html#a3c04138a5bfe5d72780bb7e82a18e627" target="_top" xlink:title="main">
<polygon fill="white" stroke="black" points="192.5,-50 192.5,-69 230.5,-69 230.5,-50 192.5,-50"/>
<text text-anchor="middle" x="211.5" y="-57" font-family="Helvetica,sans-Serif" font-size="10.00">main</text>
</a>
</g>
</g>
<!-- Node1&#45;&gt;Node2 -->
<g id="edge1" class="edge"><title>Node1&#45;&gt;Node2</title>
<path fill="none" stroke="midnightblue" d="M126.198,-47.2581C150.429,-50.7768 175.843,-54.4673 192.35,-56.8644"/>
<polygon fill="midnightblue" stroke="midnightblue" points="126.675,-43.7907 116.276,-45.8173 125.669,-50.7181 126.675,-43.7907"/>
</g>
<!-- Node3 -->
<g id="node3" class="node"><title>Node3</title>
<g id="a_node3"><a xlink:href="../../d8/d13/classVdPConvergenceTest.html#a08c22d8d5be8f9796e0866f3fe3277bb" target="_top" xlink:title="VdPConvergenceTest\l::SetUp">
<polygon fill="white" stroke="black" points="152,-0.5 152,-30.5 271,-30.5 271,-0.5 152,-0.5"/>
<text text-anchor="start" x="160" y="-18.5" font-family="Helvetica,sans-Serif" font-size="10.00">VdPConvergenceTest</text>
<text text-anchor="middle" x="211.5" y="-7.5" font-family="Helvetica,sans-Serif" font-size="10.00">::SetUp</text>
</a>
</g>
</g>
<!-- Node1&#45;&gt;Node3 -->
<g id="edge2" class="edge"><title>Node1&#45;&gt;Node3</title>
<path fill="none" stroke="midnightblue" d="M126.224,-27.7381C134.778,-26.4959 143.479,-25.2324 151.884,-24.0119"/>
<polygon fill="midnightblue" stroke="midnightblue" points="125.669,-24.2819 116.276,-29.1827 126.675,-31.2093 125.669,-24.2819"/>
</g>
</g>
</svg>
