<?xml version="1.0" encoding="UTF-8" standalone="no"?>
<!DOCTYPE svg PUBLIC "-//W3C//DTD SVG 1.1//EN"
 "http://www.w3.org/Graphics/SVG/1.1/DTD/svg11.dtd">
<!-- Generated by graphviz version 2.38.0 (20140413.2041)
 -->
<!-- Title: pfasst::examples::vdp::run_vdp_sdc Pages: 1 -->
<svg width="267pt" height="225pt"
 viewBox="0.00 0.00 267.00 225.00" xmlns="http://www.w3.org/2000/svg" xmlns:xlink="http://www.w3.org/1999/xlink">
<g id="graph0" class="graph" transform="scale(1 1) rotate(0) translate(4 221)">
<title>pfasst::examples::vdp::run_vdp_sdc</title>
<polygon fill="white" stroke="none" points="-4,4 -4,-221 263,-221 263,4 -4,4"/>
<!-- Node1 -->
<g id="node1" class="node"><title>Node1</title>
<polygon fill="#bfbfbf" stroke="black" points="0,-93.5 0,-123.5 116,-123.5 116,-93.5 0,-93.5"/>
<text text-anchor="start" x="8" y="-111.5" font-family="Helvetica,sans-Serif" font-size="10.00">pfasst::examples::vdp</text>
<text text-anchor="middle" x="58" y="-100.5" font-family="Helvetica,sans-Serif" font-size="10.00">::run_vdp_sdc</text>
</g>
<!-- Node2 -->
<g id="node2" class="node"><title>Node2</title>
<g id="a_node2"><a xlink:href="../../d4/da9/classpfasst_1_1Controller.html#a8f4f8f025572e57fc5975902a4118fa9" target="_top" xlink:title="Adding a level to the controller. ">
<polygon fill="white" stroke="black" points="159.5,-186.5 159.5,-216.5 251.5,-216.5 251.5,-186.5 159.5,-186.5"/>
<text text-anchor="start" x="167.5" y="-204.5" font-family="Helvetica,sans-Serif" font-size="10.00">pfasst::Controller</text>
<text text-anchor="middle" x="205.5" y="-193.5" font-family="Helvetica,sans-Serif" font-size="10.00">::add_level</text>
</a>
</g>
</g>
<!-- Node1&#45;&gt;Node2 -->
<g id="edge1" class="edge"><title>Node1&#45;&gt;Node2</title>
<path fill="none" stroke="midnightblue" d="M77.0833,-123.709C95.2673,-138.562 124.477,-161.242 152,-177.5 154.508,-178.981 157.123,-180.436 159.788,-181.85"/>
<polygon fill="midnightblue" stroke="midnightblue" points="158.46,-185.1 168.964,-186.486 161.616,-178.852 158.46,-185.1"/>
</g>
<!-- Node3 -->
<g id="node3" class="node"><title>Node3</title>
<g id="a_node3"><a xlink:href="../../de/d84/namespacepfasst_1_1quadrature.html#ac4700c0b6dc90b32b3f8af4070d0e62d" target="_top" xlink:title="Instantiates quadrature handler for given number of nodes and type descriptor. ">
<polygon fill="white" stroke="black" points="152,-137.5 152,-167.5 259,-167.5 259,-137.5 152,-137.5"/>
<text text-anchor="start" x="160" y="-155.5" font-family="Helvetica,sans-Serif" font-size="10.00">pfasst::quadrature</text>
<text text-anchor="middle" x="205.5" y="-144.5" font-family="Helvetica,sans-Serif" font-size="10.00">::quadrature_factory</text>
</a>
</g>
</g>
<!-- Node1&#45;&gt;Node3 -->
<g id="edge2" class="edge"><title>Node1&#45;&gt;Node3</title>
<path fill="none" stroke="midnightblue" d="M108.666,-123.519C120.243,-127.02 132.69,-130.784 144.656,-134.403"/>
<polygon fill="midnightblue" stroke="midnightblue" points="143.979,-137.855 154.564,-137.399 146.005,-131.154 143.979,-137.855"/>
</g>
<!-- Node4 -->
<g id="node4" class="node"><title>Node4</title>
<g id="a_node4"><a xlink:href="../../db/d4c/classpfasst_1_1SDC.html#abaf353cbe65d6c3545cbd5f4540cb74b" target="_top" xlink:title="Run vanilla SDC. ">
<polygon fill="white" stroke="black" points="160.5,-99 160.5,-118 250.5,-118 250.5,-99 160.5,-99"/>
<text text-anchor="middle" x="205.5" y="-106" font-family="Helvetica,sans-Serif" font-size="10.00">pfasst::SDC::run</text>
</a>
</g>
</g>
<!-- Node1&#45;&gt;Node4 -->
<g id="edge3" class="edge"><title>Node1&#45;&gt;Node4</title>
<path fill="none" stroke="midnightblue" d="M116.088,-108.5C127.304,-108.5 139.041,-108.5 150.163,-108.5"/>
<polygon fill="midnightblue" stroke="midnightblue" points="150.172,-112 160.172,-108.5 150.172,-105 150.172,-112"/>
</g>
<!-- Node5 -->
<g id="node5" class="node"><title>Node5</title>
<g id="a_node5"><a xlink:href="../../d4/da9/classpfasst_1_1Controller.html#af31a86d9ccd9db325532c5ae3a5764f0" target="_top" xlink:title="Set basic time scope of the Controller. ">
<polygon fill="white" stroke="black" points="159.5,-49.5 159.5,-79.5 251.5,-79.5 251.5,-49.5 159.5,-49.5"/>
<text text-anchor="start" x="167.5" y="-67.5" font-family="Helvetica,sans-Serif" font-size="10.00">pfasst::Controller</text>
<text text-anchor="middle" x="205.5" y="-56.5" font-family="Helvetica,sans-Serif" font-size="10.00">::set_duration</text>
</a>
</g>
</g>
<!-- Node1&#45;&gt;Node5 -->
<g id="edge4" class="edge"><title>Node1&#45;&gt;Node5</title>
<path fill="none" stroke="midnightblue" d="M108.666,-93.4808C121.915,-89.4742 136.304,-85.1229 149.807,-81.0396"/>
<polygon fill="midnightblue" stroke="midnightblue" points="150.894,-84.3673 159.453,-78.1224 148.868,-77.6669 150.894,-84.3673"/>
</g>
<!-- Node6 -->
<g id="node6" class="node"><title>Node6</title>
<g id="a_node6"><a xlink:href="../../d4/da9/classpfasst_1_1Controller.html#a83d8b318cd15436d5910039313daab9f" target="_top" xlink:title="Basic setup routine for this controller. ">
<polygon fill="white" stroke="black" points="159.5,-0.5 159.5,-30.5 251.5,-30.5 251.5,-0.5 159.5,-0.5"/>
<text text-anchor="start" x="167.5" y="-18.5" font-family="Helvetica,sans-Serif" font-size="10.00">pfasst::Controller</text>
<text text-anchor="middle" x="205.5" y="-7.5" font-family="Helvetica,sans-Serif" font-size="10.00">::setup</text>
</a>
</g>
</g>
<!-- Node1&#45;&gt;Node6 -->
<g id="edge5" class="edge"><title>Node1&#45;&gt;Node6</title>
<path fill="none" stroke="midnightblue" d="M77.52,-93.3522C95.7954,-78.7984 124.86,-56.6905 152,-40.5 154.995,-38.7132 158.138,-36.9534 161.334,-35.2459"/>
<polygon fill="midnightblue" stroke="midnightblue" points="163.104,-38.2715 170.404,-30.5928 159.909,-32.0432 163.104,-38.2715"/>
</g>
</g>
</svg>
