<?xml version="1.0" encoding="UTF-8" standalone="no"?>
<!DOCTYPE svg PUBLIC "-//W3C//DTD SVG 1.1//EN"
 "http://www.w3.org/Graphics/SVG/1.1/DTD/svg11.dtd">
<!-- Generated by graphviz version 2.38.0 (20140413.2041)
 -->
<!-- Title: include/pfasst/controller/mlsdc.hpp Pages: 1 -->
<svg width="898pt" height="453pt"
 viewBox="0.00 0.00 897.89 453.00" xmlns="http://www.w3.org/2000/svg" xmlns:xlink="http://www.w3.org/1999/xlink">
<g id="graph0" class="graph" transform="scale(1 1) rotate(0) translate(4 449)">
<title>include/pfasst/controller/mlsdc.hpp</title>
<polygon fill="white" stroke="none" points="-4,4 -4,-449 893.892,-449 893.892,4 -4,4"/>
<!-- Node1 -->
<g id="node1" class="node"><title>Node1</title>
<polygon fill="#bfbfbf" stroke="black" points="327.392,-414.5 327.392,-444.5 449.392,-444.5 449.392,-414.5 327.392,-414.5"/>
<text text-anchor="start" x="335.392" y="-432.5" font-family="Helvetica,sans-Serif" font-size="10.00">include/pfasst/controller</text>
<text text-anchor="middle" x="388.392" y="-421.5" font-family="Helvetica,sans-Serif" font-size="10.00">/mlsdc.hpp</text>
</g>
<!-- Node2 -->
<g id="node2" class="node"><title>Node2</title>
<polygon fill="white" stroke="#bfbfbf" points="161.392,-353 161.392,-372 205.392,-372 205.392,-353 161.392,-353"/>
<text text-anchor="middle" x="183.392" y="-360" font-family="Helvetica,sans-Serif" font-size="10.00">vector</text>
</g>
<!-- Node1&#45;&gt;Node2 -->
<g id="edge1" class="edge"><title>Node1&#45;&gt;Node2</title>
<path fill="none" stroke="midnightblue" d="M331.639,-414.415C297.275,-405.301 252.81,-392.46 214.392,-378 212.967,-377.464 211.517,-376.889 210.061,-376.29"/>
<polygon fill="midnightblue" stroke="midnightblue" points="211.131,-372.937 200.569,-372.111 208.311,-379.344 211.131,-372.937"/>
</g>
<!-- Node3 -->
<g id="node3" class="node"><title>Node3</title>
<g id="a_node3"><a xlink:href="../../d7/d5c/controller_2interface_8hpp.html" target="_top" xlink:title="pfasst/controller/interface.hpp">
<polygon fill="white" stroke="black" points="223.392,-353 223.392,-372 369.392,-372 369.392,-353 223.392,-353"/>
<text text-anchor="middle" x="296.392" y="-360" font-family="Helvetica,sans-Serif" font-size="10.00">pfasst/controller/interface.hpp</text>
</a>
</g>
</g>
<!-- Node1&#45;&gt;Node3 -->
<g id="edge2" class="edge"><title>Node1&#45;&gt;Node3</title>
<path fill="none" stroke="midnightblue" d="M368.43,-414.396C353.144,-403.597 332.14,-388.756 316.756,-377.887"/>
<polygon fill="midnightblue" stroke="midnightblue" points="318.62,-374.919 308.433,-372.007 314.581,-380.636 318.62,-374.919"/>
</g>
<!-- Node26 -->
<g id="node26" class="node"><title>Node26</title>
<g id="a_node26"><a xlink:href="../../d5/d0a/mlsdc__impl_8hpp.html" target="_top" xlink:title="pfasst/controller/mlsdc\l_impl.hpp">
<polygon fill="white" stroke="black" points="404.892,-347.5 404.892,-377.5 521.892,-377.5 521.892,-347.5 404.892,-347.5"/>
<text text-anchor="start" x="412.892" y="-365.5" font-family="Helvetica,sans-Serif" font-size="10.00">pfasst/controller/mlsdc</text>
<text text-anchor="middle" x="463.392" y="-354.5" font-family="Helvetica,sans-Serif" font-size="10.00">_impl.hpp</text>
</a>
</g>
</g>
<!-- Node1&#45;&gt;Node26 -->
<g id="edge37" class="edge"><title>Node1&#45;&gt;Node26</title>
<path fill="none" stroke="midnightblue" d="M398.988,-414.396C408.047,-405.538 421.188,-393.96 433.31,-384.086"/>
<polygon fill="midnightblue" stroke="midnightblue" points="435.838,-386.547 441.475,-377.577 431.474,-381.073 435.838,-386.547"/>
</g>
<!-- Node4 -->
<g id="node4" class="node"><title>Node4</title>
<polygon fill="white" stroke="#bfbfbf" points="270.392,-168.5 270.392,-187.5 320.392,-187.5 320.392,-168.5 270.392,-168.5"/>
<text text-anchor="middle" x="295.392" y="-175.5" font-family="Helvetica,sans-Serif" font-size="10.00">cassert</text>
</g>
<!-- Node3&#45;&gt;Node4 -->
<g id="edge3" class="edge"><title>Node3&#45;&gt;Node4</title>
<path fill="none" stroke="midnightblue" d="M296.344,-352.698C296.191,-324.693 295.711,-237.213 295.497,-198.16"/>
<polygon fill="midnightblue" stroke="midnightblue" points="298.995,-197.695 295.44,-187.714 291.995,-197.733 298.995,-197.695"/>
</g>
<!-- Node5 -->
<g id="node5" class="node"><title>Node5</title>
<polygon fill="white" stroke="#bfbfbf" points="156.392,-286 156.392,-305 202.392,-305 202.392,-286 156.392,-286"/>
<text text-anchor="middle" x="179.392" y="-293" font-family="Helvetica,sans-Serif" font-size="10.00">deque</text>
</g>
<!-- Node3&#45;&gt;Node5 -->
<g id="edge4" class="edge"><title>Node3&#45;&gt;Node5</title>
<path fill="none" stroke="midnightblue" d="M280.613,-352.734C260.877,-341.769 226.878,-322.881 203.781,-310.049"/>
<polygon fill="midnightblue" stroke="midnightblue" points="205.363,-306.924 194.921,-305.127 201.963,-313.043 205.363,-306.924"/>
</g>
<!-- Node6 -->
<g id="node6" class="node"><title>Node6</title>
<polygon fill="white" stroke="#bfbfbf" points="220.892,-286 220.892,-305 267.892,-305 267.892,-286 220.892,-286"/>
<text text-anchor="middle" x="244.392" y="-293" font-family="Helvetica,sans-Serif" font-size="10.00">iterator</text>
</g>
<!-- Node3&#45;&gt;Node6 -->
<g id="edge5" class="edge"><title>Node3&#45;&gt;Node6</title>
<path fill="none" stroke="midnightblue" d="M289.379,-352.734C281.271,-342.598 267.744,-325.69 257.637,-313.056"/>
<polygon fill="midnightblue" stroke="midnightblue" points="260.274,-310.75 251.294,-305.127 254.808,-315.122 260.274,-310.75"/>
</g>
<!-- Node7 -->
<g id="node7" class="node"><title>Node7</title>
<polygon fill="white" stroke="#bfbfbf" points="31.8923,-168.5 31.8923,-187.5 84.8923,-187.5 84.8923,-168.5 31.8923,-168.5"/>
<text text-anchor="middle" x="58.3923" y="-175.5" font-family="Helvetica,sans-Serif" font-size="10.00">memory</text>
</g>
<!-- Node3&#45;&gt;Node7 -->
<g id="edge6" class="edge"><title>Node3&#45;&gt;Node7</title>
<path fill="none" stroke="midnightblue" d="M249.014,-352.977C170.622,-338.851 22.3849,-312.026 21.3923,-311 -5.66497,-283.022 -3.89208,-259.795 11.3923,-224 16.5391,-211.947 26.6737,-201.576 36.2183,-193.839"/>
<polygon fill="midnightblue" stroke="midnightblue" points="38.4322,-196.553 44.3139,-187.741 34.2205,-190.962 38.4322,-196.553"/>
</g>
<!-- Node8 -->
<g id="node8" class="node"><title>Node8</title>
<g id="a_node8"><a xlink:href="../../d1/d1b/interfaces_8hpp.html" target="_top" xlink:title="interfaces for SDC/MLSDC/PFASST algorithms. ">
<polygon fill="white" stroke="black" points="30.8923,-286 30.8923,-305 137.892,-305 137.892,-286 30.8923,-286"/>
<text text-anchor="middle" x="84.3923" y="-293" font-family="Helvetica,sans-Serif" font-size="10.00">pfasst/interfaces.hpp</text>
</a>
</g>
</g>
<!-- Node3&#45;&gt;Node8 -->
<g id="edge7" class="edge"><title>Node3&#45;&gt;Node8</title>
<path fill="none" stroke="midnightblue" d="M268.24,-352.869C230.598,-341.327 163.763,-320.835 121.886,-307.996"/>
<polygon fill="midnightblue" stroke="midnightblue" points="122.91,-304.649 112.323,-305.064 120.858,-311.341 122.91,-304.649"/>
</g>
<!-- Node25 -->
<g id="node25" class="node"><title>Node25</title>
<g id="a_node25"><a xlink:href="../../d2/dbc/controller_2interface__impl_8hpp.html" target="_top" xlink:title="pfasst/controller/interface\l_impl.hpp">
<polygon fill="white" stroke="black" points="324.392,-280.5 324.392,-310.5 452.392,-310.5 452.392,-280.5 324.392,-280.5"/>
<text text-anchor="start" x="332.392" y="-298.5" font-family="Helvetica,sans-Serif" font-size="10.00">pfasst/controller/interface</text>
<text text-anchor="middle" x="388.392" y="-287.5" font-family="Helvetica,sans-Serif" font-size="10.00">_impl.hpp</text>
</a>
</g>
</g>
<!-- Node3&#45;&gt;Node25 -->
<g id="edge34" class="edge"><title>Node3&#45;&gt;Node25</title>
<path fill="none" stroke="midnightblue" d="M304.011,-352.734C315.207,-343.443 335.918,-328.461 354.103,-316.297"/>
<polygon fill="midnightblue" stroke="midnightblue" points="356.346,-319.011 362.775,-310.589 352.497,-313.164 356.346,-319.011"/>
</g>
<!-- Node8&#45;&gt;Node7 -->
<g id="edge8" class="edge"><title>Node8&#45;&gt;Node7</title>
<path fill="none" stroke="midnightblue" d="M87.0671,-285.579C90.7005,-271.961 96.0263,-245.324 89.3923,-224 86.1638,-213.622 79.6166,-203.521 73.3676,-195.527"/>
<polygon fill="midnightblue" stroke="midnightblue" points="75.9762,-193.19 66.875,-187.766 70.6072,-197.682 75.9762,-193.19"/>
</g>
<!-- Node9 -->
<g id="node9" class="node"><title>Node9</title>
<polygon fill="white" stroke="#bfbfbf" points="20.3923,-224.5 20.3923,-243.5 80.3923,-243.5 80.3923,-224.5 20.3923,-224.5"/>
<text text-anchor="middle" x="50.3923" y="-231.5" font-family="Helvetica,sans-Serif" font-size="10.00">stdexcept</text>
</g>
<!-- Node8&#45;&gt;Node9 -->
<g id="edge9" class="edge"><title>Node8&#45;&gt;Node9</title>
<path fill="none" stroke="midnightblue" d="M79.521,-285.975C74.5219,-277.227 66.6033,-263.369 60.2834,-252.309"/>
<polygon fill="midnightblue" stroke="midnightblue" points="63.255,-250.455 55.2547,-243.509 57.1773,-253.928 63.255,-250.455"/>
</g>
<!-- Node10 -->
<g id="node10" class="node"><title>Node10</title>
<polygon fill="white" stroke="#bfbfbf" points="111.892,-56.5 111.892,-75.5 152.892,-75.5 152.892,-56.5 111.892,-56.5"/>
<text text-anchor="middle" x="132.392" y="-63.5" font-family="Helvetica,sans-Serif" font-size="10.00">string</text>
</g>
<!-- Node8&#45;&gt;Node10 -->
<g id="edge10" class="edge"><title>Node8&#45;&gt;Node10</title>
<path fill="none" stroke="midnightblue" d="M62.0312,-285.906C44.7253,-277.923 21.9812,-264.201 11.3923,-244 2.43998,-226.921 13.2267,-184.348 22.3923,-168 43.6219,-130.135 84.1373,-98.5951 109.629,-81.3045"/>
<polygon fill="midnightblue" stroke="midnightblue" points="111.861,-84.0248 118.277,-75.5937 108.004,-78.1834 111.861,-84.0248"/>
</g>
<!-- Node11 -->
<g id="node11" class="node"><title>Node11</title>
<g id="a_node11"><a xlink:href="../../d8/dc4/interfaces__impl_8hpp.html" target="_top" xlink:title="pfasst/interfaces_impl.hpp">
<polygon fill="white" stroke="black" points="136.892,-224.5 136.892,-243.5 267.892,-243.5 267.892,-224.5 136.892,-224.5"/>
<text text-anchor="middle" x="202.392" y="-231.5" font-family="Helvetica,sans-Serif" font-size="10.00">pfasst/interfaces_impl.hpp</text>
</a>
</g>
</g>
<!-- Node8&#45;&gt;Node11 -->
<g id="edge11" class="edge"><title>Node8&#45;&gt;Node11</title>
<path fill="none" stroke="midnightblue" d="M96.3983,-285.975C114.023,-275.99 146.774,-259.348 171.329,-247.807"/>
<polygon fill="midnightblue" stroke="midnightblue" points="173.014,-250.885 180.62,-243.509 170.075,-244.531 173.014,-250.885"/>
</g>
<!-- Node11&#45;&gt;Node4 -->
<g id="edge13" class="edge"><title>Node11&#45;&gt;Node4</title>
<path fill="none" stroke="midnightblue" d="M217.334,-224.324C231.978,-215.822 254.526,-202.729 271.63,-192.797"/>
<polygon fill="midnightblue" stroke="midnightblue" points="273.597,-195.703 280.487,-187.655 270.082,-189.649 273.597,-195.703"/>
</g>
<!-- Node11&#45;&gt;Node7 -->
<g id="edge14" class="edge"><title>Node11&#45;&gt;Node7</title>
<path fill="none" stroke="midnightblue" d="M179.575,-224.444C155.561,-215.438 117.563,-201.189 90.5231,-191.049"/>
<polygon fill="midnightblue" stroke="midnightblue" points="91.6951,-187.751 81.1028,-187.516 89.2372,-194.305 91.6951,-187.751"/>
</g>
<!-- Node11&#45;&gt;Node8 -->
<g id="edge12" class="edge"><title>Node11&#45;&gt;Node8</title>
<path fill="none" stroke="midnightblue" d="M190.414,-243.509C172.805,-253.487 140.059,-270.129 115.495,-281.674"/>
<polygon fill="midnightblue" stroke="midnightblue" points="113.805,-278.599 106.199,-285.975 116.745,-284.952 113.805,-278.599"/>
</g>
<!-- Node11&#45;&gt;Node10 -->
<g id="edge15" class="edge"><title>Node11&#45;&gt;Node10</title>
<path fill="none" stroke="midnightblue" d="M185.336,-224.451C172.057,-216.821 154.416,-204.333 145.392,-188 127.487,-155.592 128.004,-110.852 130.112,-85.8501"/>
<polygon fill="midnightblue" stroke="midnightblue" points="133.626,-85.8895 131.166,-75.5842 126.663,-85.1743 133.626,-85.8895"/>
</g>
<!-- Node12 -->
<g id="node12" class="node"><title>Node12</title>
<g id="a_node12"><a xlink:href="../../d5/d82/globals_8hpp.html" target="_top" xlink:title="pfasst/globals.hpp">
<polygon fill="white" stroke="black" points="153.892,-168.5 153.892,-187.5 250.892,-187.5 250.892,-168.5 153.892,-168.5"/>
<text text-anchor="middle" x="202.392" y="-175.5" font-family="Helvetica,sans-Serif" font-size="10.00">pfasst/globals.hpp</text>
</a>
</g>
</g>
<!-- Node11&#45;&gt;Node12 -->
<g id="edge16" class="edge"><title>Node11&#45;&gt;Node12</title>
<path fill="none" stroke="midnightblue" d="M202.392,-224.083C202.392,-217.006 202.392,-206.861 202.392,-197.986"/>
<polygon fill="midnightblue" stroke="midnightblue" points="205.892,-197.751 202.392,-187.751 198.892,-197.751 205.892,-197.751"/>
</g>
<!-- Node13 -->
<g id="node13" class="node"><title>Node13</title>
<g id="a_node13"><a xlink:href="../../d0/da9/logging_8hpp.html" target="_top" xlink:title="pfasst/logging.hpp">
<polygon fill="white" stroke="black" points="412.392,-168.5 412.392,-187.5 510.392,-187.5 510.392,-168.5 412.392,-168.5"/>
<text text-anchor="middle" x="461.392" y="-175.5" font-family="Helvetica,sans-Serif" font-size="10.00">pfasst/logging.hpp</text>
</a>
</g>
</g>
<!-- Node11&#45;&gt;Node13 -->
<g id="edge17" class="edge"><title>Node11&#45;&gt;Node13</title>
<path fill="none" stroke="midnightblue" d="M243.432,-224.444C288.708,-215.004 361.62,-199.802 410.498,-189.611"/>
<polygon fill="midnightblue" stroke="midnightblue" points="411.47,-192.984 420.545,-187.516 410.041,-186.131 411.47,-192.984"/>
</g>
<!-- Node13&#45;&gt;Node10 -->
<g id="edge20" class="edge"><title>Node13&#45;&gt;Node10</title>
<path fill="none" stroke="midnightblue" d="M412.144,-174.455C339.707,-169.877 208.85,-158.175 170.392,-132 154.218,-120.992 143.968,-100.637 138.243,-85.6279"/>
<polygon fill="midnightblue" stroke="midnightblue" points="141.436,-84.1552 134.854,-75.8535 134.823,-86.4483 141.436,-84.1552"/>
</g>
<!-- Node14 -->
<g id="node14" class="node"><title>Node14</title>
<polygon fill="white" stroke="#bfbfbf" points="469.392,-112.5 469.392,-131.5 521.392,-131.5 521.392,-112.5 469.392,-112.5"/>
<text text-anchor="middle" x="495.392" y="-119.5" font-family="Helvetica,sans-Serif" font-size="10.00">iomanip</text>
</g>
<!-- Node13&#45;&gt;Node14 -->
<g id="edge18" class="edge"><title>Node13&#45;&gt;Node14</title>
<path fill="none" stroke="midnightblue" d="M467.007,-168.083C471.76,-160.534 478.71,-149.495 484.544,-140.23"/>
<polygon fill="midnightblue" stroke="midnightblue" points="487.516,-142.078 489.882,-131.751 481.592,-138.349 487.516,-142.078"/>
</g>
<!-- Node15 -->
<g id="node15" class="node"><title>Node15</title>
<polygon fill="white" stroke="#bfbfbf" points="426.392,-56.5 426.392,-75.5 482.392,-75.5 482.392,-56.5 426.392,-56.5"/>
<text text-anchor="middle" x="454.392" y="-63.5" font-family="Helvetica,sans-Serif" font-size="10.00">iostream</text>
</g>
<!-- Node13&#45;&gt;Node15 -->
<g id="edge19" class="edge"><title>Node13&#45;&gt;Node15</title>
<path fill="none" stroke="midnightblue" d="M483.771,-168.347C508.861,-157.237 544.329,-136.449 530.392,-112 521.983,-97.2475 506.627,-86.8375 491.908,-79.7738"/>
<polygon fill="midnightblue" stroke="midnightblue" points="492.971,-76.4179 482.407,-75.603 490.157,-82.8275 492.971,-76.4179"/>
</g>
<!-- Node16 -->
<g id="node16" class="node"><title>Node16</title>
<polygon fill="white" stroke="#bfbfbf" points="179.892,-112.5 179.892,-131.5 310.892,-131.5 310.892,-112.5 179.892,-112.5"/>
<text text-anchor="middle" x="245.392" y="-119.5" font-family="Helvetica,sans-Serif" font-size="10.00">boost/algorithm/string.hpp</text>
</g>
<!-- Node13&#45;&gt;Node16 -->
<g id="edge21" class="edge"><title>Node13&#45;&gt;Node16</title>
<path fill="none" stroke="midnightblue" d="M427.167,-168.444C389.881,-159.122 330.123,-144.183 289.381,-133.997"/>
<polygon fill="midnightblue" stroke="midnightblue" points="290.008,-130.546 279.458,-131.516 288.311,-137.337 290.008,-130.546"/>
</g>
<!-- Node17 -->
<g id="node17" class="node"><title>Node17</title>
<g id="a_node17"><a xlink:href="../../d8/dfd/config_8hpp.html" target="_top" xlink:title="pfasst/config.hpp">
<polygon fill="white" stroke="black" points="577.892,-112.5 577.892,-131.5 668.892,-131.5 668.892,-112.5 577.892,-112.5"/>
<text text-anchor="middle" x="623.392" y="-119.5" font-family="Helvetica,sans-Serif" font-size="10.00">pfasst/config.hpp</text>
</a>
</g>
</g>
<!-- Node13&#45;&gt;Node17 -->
<g id="edge22" class="edge"><title>Node13&#45;&gt;Node17</title>
<path fill="none" stroke="midnightblue" d="M487.062,-168.444C514.315,-159.359 557.576,-144.939 588.043,-134.783"/>
<polygon fill="midnightblue" stroke="midnightblue" points="589.463,-137.999 597.843,-131.516 587.249,-131.358 589.463,-137.999"/>
</g>
<!-- Node24 -->
<g id="node24" class="node"><title>Node24</title>
<polygon fill="white" stroke="#bfbfbf" points="329.392,-112.5 329.392,-131.5 451.392,-131.5 451.392,-112.5 329.392,-112.5"/>
<text text-anchor="middle" x="390.392" y="-119.5" font-family="Helvetica,sans-Serif" font-size="10.00">pfasst/easylogging++.h</text>
</g>
<!-- Node13&#45;&gt;Node24 -->
<g id="edge33" class="edge"><title>Node13&#45;&gt;Node24</title>
<path fill="none" stroke="midnightblue" d="M449.985,-168.324C439.284,-160.185 423.052,-147.839 410.23,-138.087"/>
<polygon fill="midnightblue" stroke="midnightblue" points="412.086,-135.102 402.007,-131.834 407.848,-140.673 412.086,-135.102"/>
</g>
<!-- Node17&#45;&gt;Node10 -->
<g id="edge25" class="edge"><title>Node17&#45;&gt;Node10</title>
<path fill="none" stroke="midnightblue" d="M577.641,-115.968C478.658,-105.082 246.819,-79.5846 163.172,-70.3852"/>
<polygon fill="midnightblue" stroke="midnightblue" points="163.374,-66.8863 153.051,-69.272 162.608,-73.8443 163.374,-66.8863"/>
</g>
<!-- Node17&#45;&gt;Node15 -->
<g id="edge24" class="edge"><title>Node17&#45;&gt;Node15</title>
<path fill="none" stroke="midnightblue" d="M596.614,-112.444C568.059,-103.32 522.66,-88.8133 490.855,-78.6509"/>
<polygon fill="midnightblue" stroke="midnightblue" points="491.636,-75.2262 481.046,-75.5164 489.506,-81.8941 491.636,-75.2262"/>
</g>
<!-- Node18 -->
<g id="node18" class="node"><title>Node18</title>
<polygon fill="white" stroke="#bfbfbf" points="701.392,-0.5 701.392,-19.5 751.392,-19.5 751.392,-0.5 701.392,-0.5"/>
<text text-anchor="middle" x="726.392" y="-7.5" font-family="Helvetica,sans-Serif" font-size="10.00">fstream</text>
</g>
<!-- Node17&#45;&gt;Node18 -->
<g id="edge23" class="edge"><title>Node17&#45;&gt;Node18</title>
<path fill="none" stroke="midnightblue" d="M647.077,-112.37C664.229,-105.043 686.865,-92.9927 701.392,-76 712.799,-62.6573 719.309,-43.542 722.807,-29.4933"/>
<polygon fill="midnightblue" stroke="midnightblue" points="726.271,-30.0386 725.003,-19.52 719.434,-28.5335 726.271,-30.0386"/>
</g>
<!-- Node19 -->
<g id="node19" class="node"><title>Node19</title>
<polygon fill="white" stroke="#bfbfbf" points="500.392,-56.5 500.392,-75.5 536.392,-75.5 536.392,-56.5 500.392,-56.5"/>
<text text-anchor="middle" x="518.392" y="-63.5" font-family="Helvetica,sans-Serif" font-size="10.00">map</text>
</g>
<!-- Node17&#45;&gt;Node19 -->
<g id="edge26" class="edge"><title>Node17&#45;&gt;Node19</title>
<path fill="none" stroke="midnightblue" d="M606.522,-112.324C589.684,-103.664 563.586,-90.2424 544.154,-80.249"/>
<polygon fill="midnightblue" stroke="midnightblue" points="545.714,-77.1155 535.221,-75.6545 542.513,-83.3405 545.714,-77.1155"/>
</g>
<!-- Node20 -->
<g id="node20" class="node"><title>Node20</title>
<polygon fill="white" stroke="#bfbfbf" points="554.892,-56.5 554.892,-75.5 691.892,-75.5 691.892,-56.5 554.892,-56.5"/>
<text text-anchor="middle" x="623.392" y="-63.5" font-family="Helvetica,sans-Serif" font-size="10.00">boost/program_options.hpp</text>
</g>
<!-- Node17&#45;&gt;Node20 -->
<g id="edge27" class="edge"><title>Node17&#45;&gt;Node20</title>
<path fill="none" stroke="midnightblue" d="M623.392,-112.083C623.392,-105.006 623.392,-94.8611 623.392,-85.9865"/>
<polygon fill="midnightblue" stroke="midnightblue" points="626.892,-85.751 623.392,-75.7511 619.892,-85.7511 626.892,-85.751"/>
</g>
<!-- Node21 -->
<g id="node21" class="node"><title>Node21</title>
<g id="a_node21"><a xlink:href="../../d5/d84/config__impl_8hpp.html" target="_top" xlink:title="pfasst/config_impl.hpp">
<polygon fill="white" stroke="black" points="748.392,-56.5 748.392,-75.5 862.392,-75.5 862.392,-56.5 748.392,-56.5"/>
<text text-anchor="middle" x="805.392" y="-63.5" font-family="Helvetica,sans-Serif" font-size="10.00">pfasst/config_impl.hpp</text>
</a>
</g>
</g>
<!-- Node17&#45;&gt;Node21 -->
<g id="edge28" class="edge"><title>Node17&#45;&gt;Node21</title>
<path fill="none" stroke="midnightblue" d="M647.142,-112.444C676.265,-103.201 725.859,-88.4356 761.847,-78.2572"/>
<polygon fill="midnightblue" stroke="midnightblue" points="762.927,-81.5894 771.609,-75.5164 761.035,-74.85 762.927,-81.5894"/>
</g>
<!-- Node21&#45;&gt;Node17 -->
<g id="edge29" class="edge"><title>Node21&#45;&gt;Node17</title>
<path fill="none" stroke="midnightblue" d="M781.769,-75.5164C752.705,-84.7429 703.121,-99.507 667.093,-109.699"/>
<polygon fill="midnightblue" stroke="midnightblue" points="666.001,-106.37 657.32,-112.444 667.893,-113.109 666.001,-106.37"/>
</g>
<!-- Node21&#45;&gt;Node18 -->
<g id="edge30" class="edge"><title>Node21&#45;&gt;Node18</title>
<path fill="none" stroke="midnightblue" d="M792.7,-56.324C780.491,-47.979 761.814,-35.2122 747.389,-25.3524"/>
<polygon fill="midnightblue" stroke="midnightblue" points="749.284,-22.4082 739.054,-19.6545 745.334,-28.1871 749.284,-22.4082"/>
</g>
<!-- Node22 -->
<g id="node22" class="node"><title>Node22</title>
<polygon fill="white" stroke="#bfbfbf" points="836.892,-0.5 836.892,-19.5 889.892,-19.5 889.892,-0.5 836.892,-0.5"/>
<text text-anchor="middle" x="863.392" y="-7.5" font-family="Helvetica,sans-Serif" font-size="10.00">sstream</text>
</g>
<!-- Node21&#45;&gt;Node22 -->
<g id="edge31" class="edge"><title>Node21&#45;&gt;Node22</title>
<path fill="none" stroke="midnightblue" d="M814.711,-56.324C823.285,-48.3414 836.205,-36.3128 846.58,-26.6529"/>
<polygon fill="midnightblue" stroke="midnightblue" points="848.97,-29.2098 853.904,-19.8339 844.2,-24.0865 848.97,-29.2098"/>
</g>
<!-- Node23 -->
<g id="node23" class="node"><title>Node23</title>
<polygon fill="white" stroke="#bfbfbf" points="780.392,-0.5 780.392,-19.5 818.392,-19.5 818.392,-0.5 780.392,-0.5"/>
<text text-anchor="middle" x="799.392" y="-7.5" font-family="Helvetica,sans-Serif" font-size="10.00">utility</text>
</g>
<!-- Node21&#45;&gt;Node23 -->
<g id="edge32" class="edge"><title>Node21&#45;&gt;Node23</title>
<path fill="none" stroke="midnightblue" d="M804.402,-56.083C803.606,-48.9272 802.463,-38.6353 801.469,-29.6911"/>
<polygon fill="midnightblue" stroke="midnightblue" points="804.948,-29.3034 800.365,-19.7511 797.991,-30.0765 804.948,-29.3034"/>
</g>
<!-- Node25&#45;&gt;Node3 -->
<g id="edge35" class="edge"><title>Node25&#45;&gt;Node3</title>
<path fill="none" stroke="midnightblue" d="M374.127,-310.589C360.242,-321.403 339.203,-336.275 322.409,-347.153"/>
<polygon fill="midnightblue" stroke="midnightblue" points="320.168,-344.429 313.588,-352.734 323.91,-350.345 320.168,-344.429"/>
</g>
<!-- Node25&#45;&gt;Node17 -->
<g id="edge36" class="edge"><title>Node25&#45;&gt;Node17</title>
<path fill="none" stroke="midnightblue" d="M407.623,-280.465C451.516,-248.433 558.723,-170.195 603.368,-137.613"/>
<polygon fill="midnightblue" stroke="midnightblue" points="605.649,-140.282 611.663,-131.56 601.522,-134.628 605.649,-140.282"/>
</g>
<!-- Node26&#45;&gt;Node1 -->
<g id="edge38" class="edge"><title>Node26&#45;&gt;Node1</title>
<path fill="none" stroke="midnightblue" d="M452.825,-377.577C443.774,-386.429 430.636,-398.005 418.513,-407.883"/>
<polygon fill="midnightblue" stroke="midnightblue" points="415.982,-405.425 410.345,-414.396 420.346,-410.898 415.982,-405.425"/>
</g>
<!-- Node26&#45;&gt;Node13 -->
<g id="edge40" class="edge"><title>Node26&#45;&gt;Node13</title>
<path fill="none" stroke="midnightblue" d="M463.239,-347.483C462.884,-315.097 462.006,-235.037 461.602,-198.159"/>
<polygon fill="midnightblue" stroke="midnightblue" points="465.098,-197.78 461.489,-187.819 458.099,-197.857 465.098,-197.78"/>
</g>
<!-- Node27 -->
<g id="node27" class="node"><title>Node27</title>
<polygon fill="white" stroke="#bfbfbf" points="508.392,-286 508.392,-305 566.392,-305 566.392,-286 508.392,-286"/>
<text text-anchor="middle" x="537.392" y="-293" font-family="Helvetica,sans-Serif" font-size="10.00">algorithm</text>
</g>
<!-- Node26&#45;&gt;Node27 -->
<g id="edge39" class="edge"><title>Node26&#45;&gt;Node27</title>
<path fill="none" stroke="midnightblue" d="M479.449,-347.396C491.33,-336.96 507.507,-322.751 519.749,-311.998"/>
<polygon fill="midnightblue" stroke="midnightblue" points="522.291,-314.424 527.494,-305.195 517.671,-309.164 522.291,-314.424"/>
</g>
</g>
</svg>
