<?xml version="1.0" encoding="UTF-8" standalone="no"?>
<!DOCTYPE svg PUBLIC "-//W3C//DTD SVG 1.1//EN"
 "http://www.w3.org/Graphics/SVG/1.1/DTD/svg11.dtd">
<!-- Generated by graphviz version 2.38.0 (20140413.2041)
 -->
<!-- Title: tests/fixtures/concepts.hpp Pages: 1 -->
<svg width="267pt" height="84pt"
 viewBox="0.00 0.00 266.50 84.00" xmlns="http://www.w3.org/2000/svg" xmlns:xlink="http://www.w3.org/1999/xlink">
<g id="graph0" class="graph" transform="scale(1 1) rotate(0) translate(4 80)">
<title>tests/fixtures/concepts.hpp</title>
<polygon fill="white" stroke="none" points="-4,4 -4,-80 262.5,-80 262.5,4 -4,4"/>
<!-- Node1 -->
<g id="node1" class="node"><title>Node1</title>
<polygon fill="#bfbfbf" stroke="black" points="49,-56.5 49,-75.5 183,-75.5 183,-56.5 49,-56.5"/>
<text text-anchor="middle" x="116" y="-63.5" font-family="Helvetica,sans-Serif" font-size="10.00">tests/fixtures/concepts.hpp</text>
</g>
<!-- Node2 -->
<g id="node2" class="node"><title>Node2</title>
<polygon fill="white" stroke="#bfbfbf" points="0,-0.5 0,-19.5 62,-19.5 62,-0.5 0,-0.5"/>
<text text-anchor="middle" x="31" y="-7.5" font-family="Helvetica,sans-Serif" font-size="10.00">type_traits</text>
</g>
<!-- Node1&#45;&gt;Node2 -->
<g id="edge1" class="edge"><title>Node1&#45;&gt;Node2</title>
<path fill="none" stroke="midnightblue" d="M102.343,-56.324C89.0837,-47.9002 68.732,-34.9709 53.1538,-25.0741"/>
<polygon fill="midnightblue" stroke="midnightblue" points="54.9404,-22.0626 44.6228,-19.6545 51.1867,-27.9711 54.9404,-22.0626"/>
</g>
<!-- Node3 -->
<g id="node3" class="node"><title>Node3</title>
<polygon fill="white" stroke="#bfbfbf" points="80.5,-0.5 80.5,-19.5 151.5,-19.5 151.5,-0.5 80.5,-0.5"/>
<text text-anchor="middle" x="116" y="-7.5" font-family="Helvetica,sans-Serif" font-size="10.00">gtest/gtest.h</text>
</g>
<!-- Node1&#45;&gt;Node3 -->
<g id="edge2" class="edge"><title>Node1&#45;&gt;Node3</title>
<path fill="none" stroke="midnightblue" d="M116,-56.083C116,-49.0059 116,-38.8611 116,-29.9865"/>
<polygon fill="midnightblue" stroke="midnightblue" points="119.5,-29.751 116,-19.7511 112.5,-29.7511 119.5,-29.751"/>
</g>
<!-- Node4 -->
<g id="node4" class="node"><title>Node4</title>
<polygon fill="white" stroke="#bfbfbf" points="169.5,-0.5 169.5,-19.5 258.5,-19.5 258.5,-0.5 169.5,-0.5"/>
<text text-anchor="middle" x="214" y="-7.5" font-family="Helvetica,sans-Serif" font-size="10.00">gmock/gmock.h</text>
</g>
<!-- Node1&#45;&gt;Node4 -->
<g id="edge3" class="edge"><title>Node1&#45;&gt;Node4</title>
<path fill="none" stroke="midnightblue" d="M131.745,-56.324C147.319,-47.7428 171.377,-34.486 189.459,-24.5224"/>
<polygon fill="midnightblue" stroke="midnightblue" points="191.224,-27.546 198.294,-19.6545 187.846,-21.4152 191.224,-27.546"/>
</g>
</g>
</svg>
