<?xml version="1.0" encoding="UTF-8" standalone="no"?>
<!DOCTYPE svg PUBLIC "-//W3C//DTD SVG 1.1//EN"
 "http://www.w3.org/Graphics/SVG/1.1/DTD/svg11.dtd">
<!-- Generated by graphviz version 2.38.0 (20140413.2041)
 -->
<!-- Title: pfasst::examples::vdp::VdpSweeper&lt; time &gt; Pages: 1 -->
<svg width="602pt" height="2260pt"
 viewBox="0.00 0.00 601.50 2260.00" xmlns="http://www.w3.org/2000/svg" xmlns:xlink="http://www.w3.org/1999/xlink">
<g id="graph0" class="graph" transform="scale(1 1) rotate(0) translate(4 2256)">
<title>pfasst::examples::vdp::VdpSweeper&lt; time &gt;</title>
<polygon fill="white" stroke="none" points="-4,4 -4,-2256 597.5,-2256 597.5,4 -4,4"/>
<!-- Node1 -->
<g id="node1" class="node"><title>Node1</title>
<polygon fill="#bfbfbf" stroke="black" points="328.5,-0.5 328.5,-255.5 446.5,-255.5 446.5,-0.5 328.5,-0.5"/>
<text text-anchor="start" x="336.5" y="-243.5" font-family="Helvetica,sans-Serif" font-size="10.00">pfasst::examples::vdp</text>
<text text-anchor="middle" x="387.5" y="-232.5" font-family="Helvetica,sans-Serif" font-size="10.00">::VdpSweeper&lt; time &gt;</text>
<polyline fill="none" stroke="black" points="328.5,-225.5 446.5,-225.5 "/>
<text text-anchor="start" x="336.5" y="-213.5" font-family="Helvetica,sans-Serif" font-size="10.00">&#45; nu</text>
<text text-anchor="start" x="336.5" y="-202.5" font-family="Helvetica,sans-Serif" font-size="10.00">&#45; x0</text>
<text text-anchor="start" x="336.5" y="-191.5" font-family="Helvetica,sans-Serif" font-size="10.00">&#45; y0</text>
<text text-anchor="start" x="336.5" y="-180.5" font-family="Helvetica,sans-Serif" font-size="10.00">&#45; newton_maxit</text>
<text text-anchor="start" x="336.5" y="-169.5" font-family="Helvetica,sans-Serif" font-size="10.00">&#45; newton_tol</text>
<text text-anchor="start" x="336.5" y="-158.5" font-family="Helvetica,sans-Serif" font-size="10.00">&#45; n_f_impl_eval</text>
<text text-anchor="start" x="336.5" y="-147.5" font-family="Helvetica,sans-Serif" font-size="10.00">&#45; n_impl_solve</text>
<text text-anchor="start" x="336.5" y="-136.5" font-family="Helvetica,sans-Serif" font-size="10.00">&#45; n_newton_iter</text>
<text text-anchor="start" x="336.5" y="-125.5" font-family="Helvetica,sans-Serif" font-size="10.00">&#45; error</text>
<polyline fill="none" stroke="black" points="328.5,-118.5 446.5,-118.5 "/>
<text text-anchor="start" x="336.5" y="-106.5" font-family="Helvetica,sans-Serif" font-size="10.00">+ VdpSweeper()</text>
<text text-anchor="start" x="336.5" y="-95.5" font-family="Helvetica,sans-Serif" font-size="10.00">+ ~VdpSweeper()</text>
<text text-anchor="start" x="336.5" y="-84.5" font-family="Helvetica,sans-Serif" font-size="10.00">+ echo_error()</text>
<text text-anchor="start" x="336.5" y="-73.5" font-family="Helvetica,sans-Serif" font-size="10.00">+ get_errors()</text>
<text text-anchor="start" x="336.5" y="-62.5" font-family="Helvetica,sans-Serif" font-size="10.00">+ post_predict()</text>
<text text-anchor="start" x="336.5" y="-51.5" font-family="Helvetica,sans-Serif" font-size="10.00">+ post_sweep()</text>
<text text-anchor="start" x="336.5" y="-40.5" font-family="Helvetica,sans-Serif" font-size="10.00">+ exact()</text>
<text text-anchor="start" x="336.5" y="-29.5" font-family="Helvetica,sans-Serif" font-size="10.00">+ exact()</text>
<text text-anchor="start" x="336.5" y="-18.5" font-family="Helvetica,sans-Serif" font-size="10.00">+ f_impl_eval()</text>
<text text-anchor="start" x="336.5" y="-7.5" font-family="Helvetica,sans-Serif" font-size="10.00">+ impl_solve()</text>
</g>
<!-- Node2 -->
<g id="node2" class="node"><title>Node2</title>
<g id="a_node2"><a xlink:href="../../d7/def/classpfasst_1_1encap_1_1ImplicitSweeper.html" target="_top" xlink:title="Implicit sweeper. ">
<polygon fill="white" stroke="black" points="235,-303.5 235,-591.5 388,-591.5 388,-303.5 235,-303.5"/>
<text text-anchor="start" x="243" y="-579.5" font-family="Helvetica,sans-Serif" font-size="10.00">pfasst::encap::ImplicitSweeper</text>
<text text-anchor="middle" x="311.5" y="-568.5" font-family="Helvetica,sans-Serif" font-size="10.00">&lt; time &gt;</text>
<polyline fill="none" stroke="black" points="235,-561.5 388,-561.5 "/>
<text text-anchor="start" x="243" y="-549.5" font-family="Helvetica,sans-Serif" font-size="10.00"># q_tilde</text>
<polyline fill="none" stroke="black" points="235,-542.5 388,-542.5 "/>
<text text-anchor="start" x="243" y="-530.5" font-family="Helvetica,sans-Serif" font-size="10.00">+ ImplicitSweeper()</text>
<text text-anchor="start" x="243" y="-519.5" font-family="Helvetica,sans-Serif" font-size="10.00">+ ~ImplicitSweeper()</text>
<text text-anchor="start" x="243" y="-508.5" font-family="Helvetica,sans-Serif" font-size="10.00">+ setup()</text>
<text text-anchor="start" x="243" y="-497.5" font-family="Helvetica,sans-Serif" font-size="10.00">+ predict()</text>
<text text-anchor="start" x="243" y="-486.5" font-family="Helvetica,sans-Serif" font-size="10.00">+ sweep()</text>
<text text-anchor="start" x="243" y="-475.5" font-family="Helvetica,sans-Serif" font-size="10.00">+ advance()</text>
<text text-anchor="start" x="243" y="-464.5" font-family="Helvetica,sans-Serif" font-size="10.00">+ reevaluate()</text>
<text text-anchor="start" x="243" y="-453.5" font-family="Helvetica,sans-Serif" font-size="10.00">+ integrate()</text>
<text text-anchor="start" x="243" y="-442.5" font-family="Helvetica,sans-Serif" font-size="10.00">+ f_impl_eval()</text>
<text text-anchor="start" x="243" y="-431.5" font-family="Helvetica,sans-Serif" font-size="10.00">+ impl_solve()</text>
<text text-anchor="start" x="243" y="-420.5" font-family="Helvetica,sans-Serif" font-size="10.00"># set_end_state()</text>
<text text-anchor="start" x="243" y="-409.5" font-family="Helvetica,sans-Serif" font-size="10.00">* ImplicitSweeper()</text>
<text text-anchor="start" x="243" y="-398.5" font-family="Helvetica,sans-Serif" font-size="10.00">* ~ImplicitSweeper()</text>
<text text-anchor="start" x="243" y="-387.5" font-family="Helvetica,sans-Serif" font-size="10.00">* setup()</text>
<text text-anchor="start" x="243" y="-376.5" font-family="Helvetica,sans-Serif" font-size="10.00">* predict()</text>
<text text-anchor="start" x="243" y="-365.5" font-family="Helvetica,sans-Serif" font-size="10.00">* sweep()</text>
<text text-anchor="start" x="243" y="-354.5" font-family="Helvetica,sans-Serif" font-size="10.00">* advance()</text>
<text text-anchor="start" x="243" y="-343.5" font-family="Helvetica,sans-Serif" font-size="10.00">* reevaluate()</text>
<text text-anchor="start" x="243" y="-332.5" font-family="Helvetica,sans-Serif" font-size="10.00">* integrate()</text>
<text text-anchor="start" x="243" y="-321.5" font-family="Helvetica,sans-Serif" font-size="10.00">* f_impl_eval()</text>
<text text-anchor="start" x="243" y="-310.5" font-family="Helvetica,sans-Serif" font-size="10.00">* impl_solve()</text>
</a>
</g>
</g>
<!-- Node2&#45;&gt;Node1 -->
<g id="edge1" class="edge"><title>Node2&#45;&gt;Node1</title>
<path fill="none" stroke="midnightblue" d="M348.226,-293.072C351.217,-280.578 354.218,-268.04 357.156,-255.768"/>
<polygon fill="none" stroke="midnightblue" points="344.755,-292.537 345.831,-303.077 351.563,-294.166 344.755,-292.537"/>
</g>
<!-- Node3 -->
<g id="node3" class="node"><title>Node3</title>
<g id="a_node3"><a xlink:href="../../d7/d9e/classpfasst_1_1encap_1_1EncapSweeper.html" target="_top" xlink:title="Host based encapsulated base sweeper. ">
<polygon fill="white" stroke="black" points="104,-629.5 104,-1368.5 255,-1368.5 255,-629.5 104,-629.5"/>
<text text-anchor="start" x="112" y="-1356.5" font-family="Helvetica,sans-Serif" font-size="10.00">pfasst::encap::EncapSweeper</text>
<text text-anchor="middle" x="179.5" y="-1345.5" font-family="Helvetica,sans-Serif" font-size="10.00">&lt; time &gt;</text>
<polyline fill="none" stroke="black" points="104,-1338.5 255,-1338.5 "/>
<text text-anchor="start" x="112" y="-1326.5" font-family="Helvetica,sans-Serif" font-size="10.00"># quadrature</text>
<text text-anchor="start" x="112" y="-1315.5" font-family="Helvetica,sans-Serif" font-size="10.00"># factory</text>
<text text-anchor="start" x="112" y="-1304.5" font-family="Helvetica,sans-Serif" font-size="10.00"># start_state</text>
<text text-anchor="start" x="112" y="-1293.5" font-family="Helvetica,sans-Serif" font-size="10.00"># end_state</text>
<text text-anchor="start" x="112" y="-1282.5" font-family="Helvetica,sans-Serif" font-size="10.00"># residual_norm_order</text>
<text text-anchor="start" x="112" y="-1271.5" font-family="Helvetica,sans-Serif" font-size="10.00"># abs_residual_tol</text>
<text text-anchor="start" x="112" y="-1260.5" font-family="Helvetica,sans-Serif" font-size="10.00"># rel_residual_tol</text>
<polyline fill="none" stroke="black" points="104,-1253.5 255,-1253.5 "/>
<text text-anchor="start" x="112" y="-1241.5" font-family="Helvetica,sans-Serif" font-size="10.00">+ EncapSweeper()</text>
<text text-anchor="start" x="112" y="-1230.5" font-family="Helvetica,sans-Serif" font-size="10.00">+ get_state()</text>
<text text-anchor="start" x="112" y="-1219.5" font-family="Helvetica,sans-Serif" font-size="10.00">+ get_tau()</text>
<text text-anchor="start" x="112" y="-1208.5" font-family="Helvetica,sans-Serif" font-size="10.00">+ get_saved_state()</text>
<text text-anchor="start" x="112" y="-1197.5" font-family="Helvetica,sans-Serif" font-size="10.00">+ set_options()</text>
<text text-anchor="start" x="112" y="-1186.5" font-family="Helvetica,sans-Serif" font-size="10.00">+ setup()</text>
<text text-anchor="start" x="112" y="-1175.5" font-family="Helvetica,sans-Serif" font-size="10.00">+ spread()</text>
<text text-anchor="start" x="112" y="-1164.5" font-family="Helvetica,sans-Serif" font-size="10.00">+ save()</text>
<text text-anchor="start" x="112" y="-1153.5" font-family="Helvetica,sans-Serif" font-size="10.00">+ set_quadrature()</text>
<text text-anchor="start" x="112" y="-1142.5" font-family="Helvetica,sans-Serif" font-size="10.00">+ get_quadrature()</text>
<text text-anchor="start" x="112" y="-1131.5" font-family="Helvetica,sans-Serif" font-size="10.00">+ get_nodes()</text>
<text text-anchor="start" x="112" y="-1120.5" font-family="Helvetica,sans-Serif" font-size="10.00">+ set_factory()</text>
<text text-anchor="start" x="112" y="-1109.5" font-family="Helvetica,sans-Serif" font-size="10.00">+ get_factory()</text>
<text text-anchor="start" x="112" y="-1098.5" font-family="Helvetica,sans-Serif" font-size="10.00">+ get_start_state()</text>
<text text-anchor="start" x="112" y="-1087.5" font-family="Helvetica,sans-Serif" font-size="10.00">+ get_end_state()</text>
<text text-anchor="start" x="112" y="-1076.5" font-family="Helvetica,sans-Serif" font-size="10.00">+ advance()</text>
<text text-anchor="start" x="112" y="-1065.5" font-family="Helvetica,sans-Serif" font-size="10.00">+ reevaluate()</text>
<text text-anchor="start" x="112" y="-1054.5" font-family="Helvetica,sans-Serif" font-size="10.00">+ integrate()</text>
<text text-anchor="start" x="112" y="-1043.5" font-family="Helvetica,sans-Serif" font-size="10.00">+ set_residual_tolerances()</text>
<text text-anchor="start" x="112" y="-1032.5" font-family="Helvetica,sans-Serif" font-size="10.00">+ residual()</text>
<text text-anchor="start" x="112" y="-1021.5" font-family="Helvetica,sans-Serif" font-size="10.00">+ converged()</text>
<text text-anchor="start" x="112" y="-1010.5" font-family="Helvetica,sans-Serif" font-size="10.00">+ post()</text>
<text text-anchor="start" x="112" y="-999.5" font-family="Helvetica,sans-Serif" font-size="10.00">+ send()</text>
<text text-anchor="start" x="112" y="-988.5" font-family="Helvetica,sans-Serif" font-size="10.00">+ recv()</text>
<text text-anchor="start" x="112" y="-977.5" font-family="Helvetica,sans-Serif" font-size="10.00">+ broadcast()</text>
<text text-anchor="start" x="112" y="-966.5" font-family="Helvetica,sans-Serif" font-size="10.00">* quadrature</text>
<text text-anchor="start" x="112" y="-955.5" font-family="Helvetica,sans-Serif" font-size="10.00">* factory</text>
<text text-anchor="start" x="112" y="-944.5" font-family="Helvetica,sans-Serif" font-size="10.00">* start_state</text>
<text text-anchor="start" x="112" y="-933.5" font-family="Helvetica,sans-Serif" font-size="10.00">* end_state</text>
<text text-anchor="start" x="112" y="-922.5" font-family="Helvetica,sans-Serif" font-size="10.00">* residual_norm_order</text>
<text text-anchor="start" x="112" y="-911.5" font-family="Helvetica,sans-Serif" font-size="10.00">* abs_residual_tol</text>
<text text-anchor="start" x="112" y="-900.5" font-family="Helvetica,sans-Serif" font-size="10.00">* rel_residual_tol</text>
<text text-anchor="start" x="112" y="-889.5" font-family="Helvetica,sans-Serif" font-size="10.00">* get_state()</text>
<text text-anchor="start" x="112" y="-878.5" font-family="Helvetica,sans-Serif" font-size="10.00">* get_tau()</text>
<text text-anchor="start" x="112" y="-867.5" font-family="Helvetica,sans-Serif" font-size="10.00">* get_saved_state()</text>
<text text-anchor="start" x="112" y="-856.5" font-family="Helvetica,sans-Serif" font-size="10.00">* set_options()</text>
<text text-anchor="start" x="112" y="-845.5" font-family="Helvetica,sans-Serif" font-size="10.00">* setup()</text>
<text text-anchor="start" x="112" y="-834.5" font-family="Helvetica,sans-Serif" font-size="10.00">* spread()</text>
<text text-anchor="start" x="112" y="-823.5" font-family="Helvetica,sans-Serif" font-size="10.00">* save()</text>
<text text-anchor="start" x="112" y="-812.5" font-family="Helvetica,sans-Serif" font-size="10.00">* set_quadrature()</text>
<text text-anchor="start" x="112" y="-801.5" font-family="Helvetica,sans-Serif" font-size="10.00">* get_quadrature()</text>
<text text-anchor="start" x="112" y="-790.5" font-family="Helvetica,sans-Serif" font-size="10.00">* get_nodes()</text>
<text text-anchor="start" x="112" y="-779.5" font-family="Helvetica,sans-Serif" font-size="10.00">* set_factory()</text>
<text text-anchor="start" x="112" y="-768.5" font-family="Helvetica,sans-Serif" font-size="10.00">* get_factory()</text>
<text text-anchor="start" x="112" y="-757.5" font-family="Helvetica,sans-Serif" font-size="10.00">* get_start_state()</text>
<text text-anchor="start" x="112" y="-746.5" font-family="Helvetica,sans-Serif" font-size="10.00">* get_end_state()</text>
<text text-anchor="start" x="112" y="-735.5" font-family="Helvetica,sans-Serif" font-size="10.00">* advance()</text>
<text text-anchor="start" x="112" y="-724.5" font-family="Helvetica,sans-Serif" font-size="10.00">* reevaluate()</text>
<text text-anchor="start" x="112" y="-713.5" font-family="Helvetica,sans-Serif" font-size="10.00">* integrate()</text>
<text text-anchor="start" x="112" y="-702.5" font-family="Helvetica,sans-Serif" font-size="10.00">* set_residual_tolerances()</text>
<text text-anchor="start" x="112" y="-691.5" font-family="Helvetica,sans-Serif" font-size="10.00">* residual()</text>
<text text-anchor="start" x="112" y="-680.5" font-family="Helvetica,sans-Serif" font-size="10.00">* converged()</text>
<text text-anchor="start" x="112" y="-669.5" font-family="Helvetica,sans-Serif" font-size="10.00">* post()</text>
<text text-anchor="start" x="112" y="-658.5" font-family="Helvetica,sans-Serif" font-size="10.00">* send()</text>
<text text-anchor="start" x="112" y="-647.5" font-family="Helvetica,sans-Serif" font-size="10.00">* recv()</text>
<text text-anchor="start" x="112" y="-636.5" font-family="Helvetica,sans-Serif" font-size="10.00">* broadcast()</text>
</a>
</g>
</g>
<!-- Node3&#45;&gt;Node2 -->
<g id="edge2" class="edge"><title>Node3&#45;&gt;Node2</title>
<path fill="none" stroke="midnightblue" d="M257.462,-673.452C264.287,-645.042 270.935,-617.367 277.101,-591.697"/>
<polygon fill="none" stroke="midnightblue" points="253.974,-672.989 255.041,-683.53 260.78,-674.624 253.974,-672.989"/>
</g>
<!-- Node4 -->
<g id="node4" class="node"><title>Node4</title>
<g id="a_node4"><a xlink:href="../../d6/d78/classpfasst_1_1ISweeper.html" target="_top" xlink:title="Abstract SDC sweeper. ">
<polygon fill="white" stroke="black" points="95.5,-1449.5 95.5,-1913.5 223.5,-1913.5 223.5,-1449.5 95.5,-1449.5"/>
<text text-anchor="middle" x="159.5" y="-1901.5" font-family="Helvetica,sans-Serif" font-size="10.00">pfasst::ISweeper&lt; time &gt;</text>
<polyline fill="none" stroke="black" points="95.5,-1894.5 223.5,-1894.5 "/>
<text text-anchor="start" x="103.5" y="-1882.5" font-family="Helvetica,sans-Serif" font-size="10.00"># controller</text>
<polyline fill="none" stroke="black" points="95.5,-1875.5 223.5,-1875.5 "/>
<text text-anchor="start" x="103.5" y="-1863.5" font-family="Helvetica,sans-Serif" font-size="10.00">+ ISweeper()</text>
<text text-anchor="start" x="103.5" y="-1852.5" font-family="Helvetica,sans-Serif" font-size="10.00">+ ~ISweeper()</text>
<text text-anchor="start" x="103.5" y="-1841.5" font-family="Helvetica,sans-Serif" font-size="10.00">+ set_controller()</text>
<text text-anchor="start" x="103.5" y="-1830.5" font-family="Helvetica,sans-Serif" font-size="10.00">+ get_controller()</text>
<text text-anchor="start" x="103.5" y="-1819.5" font-family="Helvetica,sans-Serif" font-size="10.00">+ set_options()</text>
<text text-anchor="start" x="103.5" y="-1808.5" font-family="Helvetica,sans-Serif" font-size="10.00">+ setup()</text>
<text text-anchor="start" x="103.5" y="-1797.5" font-family="Helvetica,sans-Serif" font-size="10.00">+ predict()</text>
<text text-anchor="start" x="103.5" y="-1786.5" font-family="Helvetica,sans-Serif" font-size="10.00">+ sweep()</text>
<text text-anchor="start" x="103.5" y="-1775.5" font-family="Helvetica,sans-Serif" font-size="10.00">+ advance()</text>
<text text-anchor="start" x="103.5" y="-1764.5" font-family="Helvetica,sans-Serif" font-size="10.00">+ converged()</text>
<text text-anchor="start" x="103.5" y="-1753.5" font-family="Helvetica,sans-Serif" font-size="10.00">+ save()</text>
<text text-anchor="start" x="103.5" y="-1742.5" font-family="Helvetica,sans-Serif" font-size="10.00">+ spread()</text>
<text text-anchor="start" x="103.5" y="-1731.5" font-family="Helvetica,sans-Serif" font-size="10.00">+ post_sweep()</text>
<text text-anchor="start" x="103.5" y="-1720.5" font-family="Helvetica,sans-Serif" font-size="10.00">+ post_predict()</text>
<text text-anchor="start" x="103.5" y="-1709.5" font-family="Helvetica,sans-Serif" font-size="10.00">+ post_step()</text>
<text text-anchor="start" x="103.5" y="-1698.5" font-family="Helvetica,sans-Serif" font-size="10.00">+ post()</text>
<text text-anchor="start" x="103.5" y="-1687.5" font-family="Helvetica,sans-Serif" font-size="10.00">+ send()</text>
<text text-anchor="start" x="103.5" y="-1676.5" font-family="Helvetica,sans-Serif" font-size="10.00">+ recv()</text>
<text text-anchor="start" x="103.5" y="-1665.5" font-family="Helvetica,sans-Serif" font-size="10.00">+ broadcast()</text>
<text text-anchor="start" x="103.5" y="-1654.5" font-family="Helvetica,sans-Serif" font-size="10.00">* ISweeper()</text>
<text text-anchor="start" x="103.5" y="-1643.5" font-family="Helvetica,sans-Serif" font-size="10.00">* ~ISweeper()</text>
<text text-anchor="start" x="103.5" y="-1632.5" font-family="Helvetica,sans-Serif" font-size="10.00">* set_controller()</text>
<text text-anchor="start" x="103.5" y="-1621.5" font-family="Helvetica,sans-Serif" font-size="10.00">* get_controller()</text>
<text text-anchor="start" x="103.5" y="-1610.5" font-family="Helvetica,sans-Serif" font-size="10.00">* set_options()</text>
<text text-anchor="start" x="103.5" y="-1599.5" font-family="Helvetica,sans-Serif" font-size="10.00">* setup()</text>
<text text-anchor="start" x="103.5" y="-1588.5" font-family="Helvetica,sans-Serif" font-size="10.00">* predict()</text>
<text text-anchor="start" x="103.5" y="-1577.5" font-family="Helvetica,sans-Serif" font-size="10.00">* sweep()</text>
<text text-anchor="start" x="103.5" y="-1566.5" font-family="Helvetica,sans-Serif" font-size="10.00">* advance()</text>
<text text-anchor="start" x="103.5" y="-1555.5" font-family="Helvetica,sans-Serif" font-size="10.00">* converged()</text>
<text text-anchor="start" x="103.5" y="-1544.5" font-family="Helvetica,sans-Serif" font-size="10.00">* save()</text>
<text text-anchor="start" x="103.5" y="-1533.5" font-family="Helvetica,sans-Serif" font-size="10.00">* spread()</text>
<text text-anchor="start" x="103.5" y="-1522.5" font-family="Helvetica,sans-Serif" font-size="10.00">* post_sweep()</text>
<text text-anchor="start" x="103.5" y="-1511.5" font-family="Helvetica,sans-Serif" font-size="10.00">* post_predict()</text>
<text text-anchor="start" x="103.5" y="-1500.5" font-family="Helvetica,sans-Serif" font-size="10.00">* post_step()</text>
<text text-anchor="start" x="103.5" y="-1489.5" font-family="Helvetica,sans-Serif" font-size="10.00">* post()</text>
<text text-anchor="start" x="103.5" y="-1478.5" font-family="Helvetica,sans-Serif" font-size="10.00">* send()</text>
<text text-anchor="start" x="103.5" y="-1467.5" font-family="Helvetica,sans-Serif" font-size="10.00">* recv()</text>
<text text-anchor="start" x="103.5" y="-1456.5" font-family="Helvetica,sans-Serif" font-size="10.00">* broadcast()</text>
</a>
</g>
</g>
<!-- Node4&#45;&gt;Node3 -->
<g id="edge3" class="edge"><title>Node4&#45;&gt;Node3</title>
<path fill="none" stroke="midnightblue" d="M166.597,-1439.02C167.271,-1416.08 167.965,-1392.48 168.664,-1368.69"/>
<polygon fill="none" stroke="midnightblue" points="163.094,-1439.07 166.299,-1449.16 170.091,-1439.27 163.094,-1439.07"/>
</g>
<!-- Node5 -->
<g id="node5" class="node"><title>Node5</title>
<polygon fill="white" stroke="#bfbfbf" points="241.5,-1642 241.5,-1721 381.5,-1721 381.5,-1642 241.5,-1642"/>
<text text-anchor="start" x="249.5" y="-1709" font-family="Helvetica,sans-Serif" font-size="10.00">std::vector&lt; shared</text>
<text text-anchor="start" x="249.5" y="-1698" font-family="Helvetica,sans-Serif" font-size="10.00">_ptr&lt; pfasst::encap</text>
<text text-anchor="middle" x="311.5" y="-1687" font-family="Helvetica,sans-Serif" font-size="10.00">::Encapsulation&lt; time &gt; &gt; &gt;</text>
<polyline fill="none" stroke="#bfbfbf" points="241.5,-1680 381.5,-1680 "/>
<text text-anchor="start" x="249.5" y="-1668" font-family="Helvetica,sans-Serif" font-size="10.00">+ elements</text>
<polyline fill="none" stroke="#bfbfbf" points="241.5,-1661 381.5,-1661 "/>
<text text-anchor="middle" x="311.5" y="-1649" font-family="Helvetica,sans-Serif" font-size="10.00"> </text>
</g>
<!-- Node5&#45;&gt;Node2 -->
<g id="edge9" class="edge"><title>Node5&#45;&gt;Node2</title>
<path fill="none" stroke="#404040" d="M311.5,-1641.94C311.5,-1485.08 311.5,-889.753 311.5,-603.735"/>
<polygon fill="none" stroke="#404040" points="311.5,-603.604 307.5,-597.604 311.5,-591.604 315.5,-597.604 311.5,-603.604"/>
<text text-anchor="middle" x="340.5" y="-1002" font-family="Helvetica,sans-Serif" font-size="10.00"> #s_integrals</text>
<text text-anchor="middle" x="340.5" y="-991" font-family="Helvetica,sans-Serif" font-size="10.00">#fs_impl</text>
</g>
<!-- Node5&#45;&gt;Node3 -->
<g id="edge4" class="edge"><title>Node5&#45;&gt;Node3</title>
<path fill="none" stroke="#404040" d="M300.053,-1641.81C285.907,-1595.36 260.282,-1515.4 232.5,-1449 229.048,-1440.75 225.995,-1439.59 223.5,-1431 218.727,-1414.57 214.455,-1397.65 210.632,-1380.47"/>
<polygon fill="none" stroke="#404040" points="210.588,-1380.26 205.412,-1375.24 208.057,-1368.53 213.232,-1373.55 210.588,-1380.26"/>
<text text-anchor="middle" x="260.5" y="-1423" font-family="Helvetica,sans-Serif" font-size="10.00"> #residuals</text>
<text text-anchor="middle" x="260.5" y="-1412" font-family="Helvetica,sans-Serif" font-size="10.00">#fas_corrections</text>
<text text-anchor="middle" x="260.5" y="-1401" font-family="Helvetica,sans-Serif" font-size="10.00">#saved_state</text>
<text text-anchor="middle" x="260.5" y="-1390" font-family="Helvetica,sans-Serif" font-size="10.00">#state</text>
</g>
<!-- Node6 -->
<g id="node6" class="node"><title>Node6</title>
<g id="a_node6"><a xlink:title="STL class. ">
<polygon fill="white" stroke="#bfbfbf" points="267,-1989 267,-2046 356,-2046 356,-1989 267,-1989"/>
<text text-anchor="middle" x="311.5" y="-2034" font-family="Helvetica,sans-Serif" font-size="10.00">std::vector&lt; T &gt;</text>
<polyline fill="none" stroke="#bfbfbf" points="267,-2027 356,-2027 "/>
<text text-anchor="middle" x="311.5" y="-2015" font-family="Helvetica,sans-Serif" font-size="10.00"> </text>
<polyline fill="none" stroke="#bfbfbf" points="267,-2008 356,-2008 "/>
<text text-anchor="middle" x="311.5" y="-1996" font-family="Helvetica,sans-Serif" font-size="10.00"> </text>
</a>
</g>
</g>
<!-- Node6&#45;&gt;Node5 -->
<g id="edge5" class="edge"><title>Node6&#45;&gt;Node5</title>
<path fill="none" stroke="orange" d="M311.5,-1978.84C311.5,-1914.93 311.5,-1785.89 311.5,-1721.25"/>
<polygon fill="orange" stroke="orange" points="308,-1978.88 311.5,-1988.88 315,-1978.88 308,-1978.88"/>
<text text-anchor="start" x="311.5" y="-1957" font-family="Helvetica,sans-Serif" font-size="10.00"> &lt; shared_ptr&lt; pfasst</text>
<text text-anchor="start" x="311.5" y="-1946" font-family="Helvetica,sans-Serif" font-size="10.00">::encap::Encapsulation</text>
<text text-anchor="middle" x="363" y="-1935" font-family="Helvetica,sans-Serif" font-size="10.00">&lt; time &gt; &gt; &gt;</text>
</g>
<!-- Node7 -->
<g id="node7" class="node"><title>Node7</title>
<polygon fill="white" stroke="#bfbfbf" points="297,-2099.5 297,-2156.5 326,-2156.5 326,-2099.5 297,-2099.5"/>
<text text-anchor="middle" x="311.5" y="-2144.5" font-family="Helvetica,sans-Serif" font-size="10.00">T</text>
<polyline fill="none" stroke="#bfbfbf" points="297,-2137.5 326,-2137.5 "/>
<text text-anchor="middle" x="311.5" y="-2125.5" font-family="Helvetica,sans-Serif" font-size="10.00"> </text>
<polyline fill="none" stroke="#bfbfbf" points="297,-2118.5 326,-2118.5 "/>
<text text-anchor="middle" x="311.5" y="-2106.5" font-family="Helvetica,sans-Serif" font-size="10.00"> </text>
</g>
<!-- Node7&#45;&gt;Node6 -->
<g id="edge6" class="edge"><title>Node7&#45;&gt;Node6</title>
<path fill="none" stroke="#404040" d="M311.5,-2099.34C311.5,-2086.84 311.5,-2071.84 311.5,-2058.18"/>
<polygon fill="none" stroke="#404040" points="311.5,-2058.11 307.5,-2052.11 311.5,-2046.11 315.5,-2052.11 311.5,-2058.11"/>
<text text-anchor="middle" x="337" y="-2073" font-family="Helvetica,sans-Serif" font-size="10.00"> +elements</text>
</g>
<!-- Node8 -->
<g id="node8" class="node"><title>Node8</title>
<g id="a_node8"><a xlink:title="STL class. ">
<polygon fill="white" stroke="#bfbfbf" points="17.5,-1653 17.5,-1710 77.5,-1710 77.5,-1653 17.5,-1653"/>
<text text-anchor="middle" x="47.5" y="-1698" font-family="Helvetica,sans-Serif" font-size="10.00">std::string</text>
<polyline fill="none" stroke="#bfbfbf" points="17.5,-1691 77.5,-1691 "/>
<text text-anchor="middle" x="47.5" y="-1679" font-family="Helvetica,sans-Serif" font-size="10.00"> </text>
<polyline fill="none" stroke="#bfbfbf" points="17.5,-1672 77.5,-1672 "/>
<text text-anchor="middle" x="47.5" y="-1660" font-family="Helvetica,sans-Serif" font-size="10.00"> </text>
</a>
</g>
</g>
<!-- Node8&#45;&gt;Node3 -->
<g id="edge7" class="edge"><title>Node8&#45;&gt;Node3</title>
<path fill="none" stroke="#404040" d="M50.062,-1652.83C55.1237,-1600.59 67.4975,-1483.99 85.5,-1387 90.2536,-1361.39 95.644,-1334.93 101.381,-1308.44"/>
<polygon fill="none" stroke="#404040" points="101.389,-1308.4 98.7612,-1301.68 103.949,-1296.68 106.577,-1303.39 101.389,-1308.4"/>
<text text-anchor="middle" x="124.5" y="-1406.5" font-family="Helvetica,sans-Serif" font-size="10.00"> #FORMAT_STR</text>
</g>
<!-- Node9 -->
<g id="node9" class="node"><title>Node9</title>
<g id="a_node9"><a xlink:title="STL class. ">
<polygon fill="white" stroke="#bfbfbf" points="0,-1983.5 0,-2051.5 95,-2051.5 95,-1983.5 0,-1983.5"/>
<text text-anchor="start" x="8" y="-2039.5" font-family="Helvetica,sans-Serif" font-size="10.00">std::basic_string&lt;</text>
<text text-anchor="middle" x="47.5" y="-2028.5" font-family="Helvetica,sans-Serif" font-size="10.00"> char &gt;</text>
<polyline fill="none" stroke="#bfbfbf" points="0,-2021.5 95,-2021.5 "/>
<text text-anchor="middle" x="47.5" y="-2009.5" font-family="Helvetica,sans-Serif" font-size="10.00"> </text>
<polyline fill="none" stroke="#bfbfbf" points="0,-2002.5 95,-2002.5 "/>
<text text-anchor="middle" x="47.5" y="-1990.5" font-family="Helvetica,sans-Serif" font-size="10.00"> </text>
</a>
</g>
</g>
<!-- Node9&#45;&gt;Node8 -->
<g id="edge8" class="edge"><title>Node9&#45;&gt;Node8</title>
<path fill="none" stroke="midnightblue" d="M47.5,-1973.06C47.5,-1903.37 47.5,-1768.56 47.5,-1710.36"/>
<polygon fill="none" stroke="midnightblue" points="44.0001,-1973.25 47.5,-1983.25 51.0001,-1973.25 44.0001,-1973.25"/>
</g>
<!-- Node10 -->
<g id="node10" class="node"><title>Node10</title>
<g id="a_node10"><a xlink:title="STL class. ">
<polygon fill="white" stroke="#bfbfbf" points="407,-419 407,-476 476,-476 476,-419 407,-419"/>
<text text-anchor="middle" x="441.5" y="-464" font-family="Helvetica,sans-Serif" font-size="10.00">std::fstream</text>
<polyline fill="none" stroke="#bfbfbf" points="407,-457 476,-457 "/>
<text text-anchor="middle" x="441.5" y="-445" font-family="Helvetica,sans-Serif" font-size="10.00"> </text>
<polyline fill="none" stroke="#bfbfbf" points="407,-438 476,-438 "/>
<text text-anchor="middle" x="441.5" y="-426" font-family="Helvetica,sans-Serif" font-size="10.00"> </text>
</a>
</g>
</g>
<!-- Node10&#45;&gt;Node1 -->
<g id="edge10" class="edge"><title>Node10&#45;&gt;Node1</title>
<path fill="none" stroke="#404040" d="M436.802,-418.879C431.017,-384.864 420.766,-324.594 411.105,-267.789"/>
<polygon fill="none" stroke="#404040" points="411.066,-267.561 406.117,-262.317 409.054,-255.731 414.004,-260.975 411.066,-267.561"/>
<text text-anchor="middle" x="439" y="-277" font-family="Helvetica,sans-Serif" font-size="10.00"> &#45;output_file</text>
</g>
<!-- Node11 -->
<g id="node11" class="node"><title>Node11</title>
<g id="a_node11"><a xlink:title="STL class. ">
<polygon fill="white" stroke="#bfbfbf" points="396.5,-965 396.5,-1033 494.5,-1033 494.5,-965 396.5,-965"/>
<text text-anchor="start" x="404.5" y="-1021" font-family="Helvetica,sans-Serif" font-size="10.00">std::basic_fstream</text>
<text text-anchor="middle" x="445.5" y="-1010" font-family="Helvetica,sans-Serif" font-size="10.00">&lt; char &gt;</text>
<polyline fill="none" stroke="#bfbfbf" points="396.5,-1003 494.5,-1003 "/>
<text text-anchor="middle" x="445.5" y="-991" font-family="Helvetica,sans-Serif" font-size="10.00"> </text>
<polyline fill="none" stroke="#bfbfbf" points="396.5,-984 494.5,-984 "/>
<text text-anchor="middle" x="445.5" y="-972" font-family="Helvetica,sans-Serif" font-size="10.00"> </text>
</a>
</g>
</g>
<!-- Node11&#45;&gt;Node10 -->
<g id="edge11" class="edge"><title>Node11&#45;&gt;Node10</title>
<path fill="none" stroke="midnightblue" d="M445.184,-954.618C444.395,-846.197 442.353,-565.717 441.702,-476.314"/>
<polygon fill="none" stroke="midnightblue" points="441.686,-954.89 445.259,-964.864 448.686,-954.839 441.686,-954.89"/>
</g>
<!-- Node12 -->
<g id="node12" class="node"><title>Node12</title>
<g id="a_node12"><a xlink:title="STL class. ">
<polygon fill="white" stroke="#bfbfbf" points="399.5,-1647.5 399.5,-1715.5 503.5,-1715.5 503.5,-1647.5 399.5,-1647.5"/>
<text text-anchor="start" x="407.5" y="-1703.5" font-family="Helvetica,sans-Serif" font-size="10.00">std::basic_iostream</text>
<text text-anchor="middle" x="451.5" y="-1692.5" font-family="Helvetica,sans-Serif" font-size="10.00">&lt; Char &gt;</text>
<polyline fill="none" stroke="#bfbfbf" points="399.5,-1685.5 503.5,-1685.5 "/>
<text text-anchor="middle" x="451.5" y="-1673.5" font-family="Helvetica,sans-Serif" font-size="10.00"> </text>
<polyline fill="none" stroke="#bfbfbf" points="399.5,-1666.5 503.5,-1666.5 "/>
<text text-anchor="middle" x="451.5" y="-1654.5" font-family="Helvetica,sans-Serif" font-size="10.00"> </text>
</a>
</g>
</g>
<!-- Node12&#45;&gt;Node11 -->
<g id="edge12" class="edge"><title>Node12&#45;&gt;Node11</title>
<path fill="none" stroke="midnightblue" d="M451.118,-1637.15C450.005,-1510.93 446.783,-1145.51 445.793,-1033.22"/>
<polygon fill="none" stroke="midnightblue" points="447.618,-1637.25 451.207,-1647.22 454.618,-1637.19 447.618,-1637.25"/>
</g>
<!-- Node13 -->
<g id="node13" class="node"><title>Node13</title>
<g id="a_node13"><a xlink:title="STL class. ">
<polygon fill="white" stroke="#bfbfbf" points="495.5,-1983.5 495.5,-2051.5 593.5,-2051.5 593.5,-1983.5 495.5,-1983.5"/>
<text text-anchor="start" x="503.5" y="-2039.5" font-family="Helvetica,sans-Serif" font-size="10.00">std::basic_istream</text>
<text text-anchor="middle" x="544.5" y="-2028.5" font-family="Helvetica,sans-Serif" font-size="10.00">&lt; Char &gt;</text>
<polyline fill="none" stroke="#bfbfbf" points="495.5,-2021.5 593.5,-2021.5 "/>
<text text-anchor="middle" x="544.5" y="-2009.5" font-family="Helvetica,sans-Serif" font-size="10.00"> </text>
<polyline fill="none" stroke="#bfbfbf" points="495.5,-2002.5 593.5,-2002.5 "/>
<text text-anchor="middle" x="544.5" y="-1990.5" font-family="Helvetica,sans-Serif" font-size="10.00"> </text>
</a>
</g>
</g>
<!-- Node13&#45;&gt;Node12 -->
<g id="edge13" class="edge"><title>Node13&#45;&gt;Node12</title>
<path fill="none" stroke="midnightblue" d="M532.486,-1973.35C513.668,-1905.77 477.647,-1776.41 460.72,-1715.61"/>
<polygon fill="none" stroke="midnightblue" points="529.189,-1974.56 535.243,-1983.25 535.932,-1972.68 529.189,-1974.56"/>
</g>
<!-- Node14 -->
<g id="node14" class="node"><title>Node14</title>
<g id="a_node14"><a xlink:title="STL class. ">
<polygon fill="white" stroke="#bfbfbf" points="426,-2099.5 426,-2156.5 545,-2156.5 545,-2099.5 426,-2099.5"/>
<text text-anchor="middle" x="485.5" y="-2144.5" font-family="Helvetica,sans-Serif" font-size="10.00">std::basic_ios&lt; Char &gt;</text>
<polyline fill="none" stroke="#bfbfbf" points="426,-2137.5 545,-2137.5 "/>
<text text-anchor="middle" x="485.5" y="-2125.5" font-family="Helvetica,sans-Serif" font-size="10.00"> </text>
<polyline fill="none" stroke="#bfbfbf" points="426,-2118.5 545,-2118.5 "/>
<text text-anchor="middle" x="485.5" y="-2106.5" font-family="Helvetica,sans-Serif" font-size="10.00"> </text>
</a>
</g>
</g>
<!-- Node14&#45;&gt;Node13 -->
<g id="edge14" class="edge"><title>Node14&#45;&gt;Node13</title>
<path fill="none" stroke="midnightblue" d="M505.369,-2090.46C512.222,-2077.86 519.854,-2063.82 526.545,-2051.52"/>
<polygon fill="none" stroke="midnightblue" points="502.243,-2088.88 500.541,-2099.34 508.393,-2092.23 502.243,-2088.88"/>
</g>
<!-- Node16 -->
<g id="node16" class="node"><title>Node16</title>
<g id="a_node16"><a xlink:title="STL class. ">
<polygon fill="white" stroke="#bfbfbf" points="375.5,-1983.5 375.5,-2051.5 477.5,-2051.5 477.5,-1983.5 375.5,-1983.5"/>
<text text-anchor="start" x="383.5" y="-2039.5" font-family="Helvetica,sans-Serif" font-size="10.00">std::basic_ostream</text>
<text text-anchor="middle" x="426.5" y="-2028.5" font-family="Helvetica,sans-Serif" font-size="10.00">&lt; Char &gt;</text>
<polyline fill="none" stroke="#bfbfbf" points="375.5,-2021.5 477.5,-2021.5 "/>
<text text-anchor="middle" x="426.5" y="-2009.5" font-family="Helvetica,sans-Serif" font-size="10.00"> </text>
<polyline fill="none" stroke="#bfbfbf" points="375.5,-2002.5 477.5,-2002.5 "/>
<text text-anchor="middle" x="426.5" y="-1990.5" font-family="Helvetica,sans-Serif" font-size="10.00"> </text>
</a>
</g>
</g>
<!-- Node14&#45;&gt;Node16 -->
<g id="edge17" class="edge"><title>Node14&#45;&gt;Node16</title>
<path fill="none" stroke="midnightblue" d="M465.631,-2090.46C458.778,-2077.86 451.146,-2063.82 444.455,-2051.52"/>
<polygon fill="none" stroke="midnightblue" points="462.607,-2092.23 470.459,-2099.34 468.757,-2088.88 462.607,-2092.23"/>
</g>
<!-- Node15 -->
<g id="node15" class="node"><title>Node15</title>
<g id="a_node15"><a xlink:title="STL class. ">
<polygon fill="white" stroke="#bfbfbf" points="447,-2194.5 447,-2251.5 524,-2251.5 524,-2194.5 447,-2194.5"/>
<text text-anchor="middle" x="485.5" y="-2239.5" font-family="Helvetica,sans-Serif" font-size="10.00">std::ios_base</text>
<polyline fill="none" stroke="#bfbfbf" points="447,-2232.5 524,-2232.5 "/>
<text text-anchor="middle" x="485.5" y="-2220.5" font-family="Helvetica,sans-Serif" font-size="10.00"> </text>
<polyline fill="none" stroke="#bfbfbf" points="447,-2213.5 524,-2213.5 "/>
<text text-anchor="middle" x="485.5" y="-2201.5" font-family="Helvetica,sans-Serif" font-size="10.00"> </text>
</a>
</g>
</g>
<!-- Node15&#45;&gt;Node14 -->
<g id="edge15" class="edge"><title>Node15&#45;&gt;Node14</title>
<path fill="none" stroke="midnightblue" d="M485.5,-2184.24C485.5,-2175.03 485.5,-2165.35 485.5,-2156.71"/>
<polygon fill="none" stroke="midnightblue" points="482,-2184.35 485.5,-2194.35 489,-2184.35 482,-2184.35"/>
</g>
<!-- Node16&#45;&gt;Node12 -->
<g id="edge16" class="edge"><title>Node16&#45;&gt;Node12</title>
<path fill="none" stroke="midnightblue" d="M429.761,-1972.93C434.828,-1905.24 444.48,-1776.28 449.022,-1715.61"/>
<polygon fill="none" stroke="midnightblue" points="426.245,-1973.02 428.988,-1983.25 433.225,-1973.54 426.245,-1973.02"/>
</g>
</g>
</svg>
