<?xml version="1.0" encoding="UTF-8" standalone="no"?>
<!DOCTYPE svg PUBLIC "-//W3C//DTD SVG 1.1//EN"
 "http://www.w3.org/Graphics/SVG/1.1/DTD/svg11.dtd">
<!-- Generated by graphviz version 2.38.0 (20140413.2041)
 -->
<!-- Title: main Pages: 1 -->
<!--zoomable 748 -->
<svg id="main" version="1.1" xmlns="http://www.w3.org/2000/svg" xmlns:xlink="http://www.w3.org/1999/xlink" xml:space="preserve" onload="init(evt)">
<style type="text/css"><![CDATA[
.edge:hover path { stroke: red; }
.edge:hover polygon { stroke: red; fill: red; }
]]></style>
<script type="text/javascript"><![CDATA[
var edges = document.getElementsByTagName('g');
if (edges && edges.length) {
  for (var i=0;i<edges.length;i++) {
    if (edges[i].id.substr(0,4)=='edge') {
      edges[i].setAttribute('class','edge');
    }
  }
}
]]></script>
        <defs>
                <circle id="rim" cx="0" cy="0" r="7"/>
                <circle id="rim2" cx="0" cy="0" r="3.5"/>
                <g id="zoomPlus">
                        <use xlink:href="#rim" fill="#404040">
                                <set attributeName="fill" to="#808080" begin="zoomplus.mouseover" end="zoomplus.mouseout"/>
                        </use>
                        <path d="M-4,0h8M0,-4v8" fill="none" stroke="white" stroke-width="1.5" pointer-events="none"/>
                </g>
                <g id="zoomMin">
                        <use xlink:href="#rim" fill="#404040">
                                <set attributeName="fill" to="#808080" begin="zoomminus.mouseover" end="zoomminus.mouseout"/>
                        </use>
                        <path d="M-4,0h8" fill="none" stroke="white" stroke-width="1.5" pointer-events="none"/>
                </g>
                <g id="dirArrow">
                        <path fill="none" stroke="white" stroke-width="1.5" d="M0,-3.0v7 M-2.5,-0.5L0,-3.0L2.5,-0.5"/>
                </g>
               <g id="resetDef">
                       <use xlink:href="#rim2" fill="#404040">
                               <set attributeName="fill" to="#808080" begin="reset.mouseover" end="reset.mouseout"/>
                       </use>
               </g>
        </defs>

<script type="text/javascript">
var viewWidth = 1363;
var viewHeight = 748;
var sectionId = 'dynsection-1';
</script>
<script xlink:href="../../svgpan.js"/>
<svg id="graph" class="graph">
<g id="viewport">
<title>main</title>
<polygon fill="white" stroke="none" points="-4,4 -4,-744 1359,-744 1359,4 -4,4"/>
<!-- Node1 -->
<g id="node1" class="node"><title>Node1</title>
<polygon fill="#bfbfbf" stroke="black" points="0,-442 0,-461 38,-461 38,-442 0,-442"/>
<text text-anchor="middle" x="19" y="-449" font-family="Helvetica,sans-Serif" font-size="10.00">main</text>
</g>
<!-- Node2 -->
<g id="node2" class="node"><title>Node2</title>
<g id="a_node2"><a xlink:href="../../dc/d57/namespacepfasst.html#a2ad4b6987b5c66b90166f77fc4230e92" target="_top" xlink:title="pfasst::init">
<polygon fill="white" stroke="black" points="115,-589 115,-608 176,-608 176,-589 115,-589"/>
<text text-anchor="middle" x="145.5" y="-596" font-family="Helvetica,sans-Serif" font-size="10.00">pfasst::init</text>
</a>
</g>
</g>
<!-- Node1&#45;&gt;Node2 -->
<g id="edge1" class="edge"><title>Node1&#45;&gt;Node2</title>
<path fill="none" stroke="midnightblue" d="M28.1688,-461.145C48.7394,-485.433 102.92,-549.405 129.442,-580.72"/>
<polygon fill="midnightblue" stroke="midnightblue" points="127.004,-583.258 136.138,-588.627 132.346,-578.734 127.004,-583.258"/>
</g>
<!-- Node16 -->
<g id="node16" class="node"><title>Node16</title>
<g id="a_node16"><a xlink:href="../../d9/d85/group__AdvectionDiffusion.html#ga54ea0f33dff1236bd3d9349a8ea75575" target="_top" xlink:title="Advection/diffusion example using an encapsulated IMEX sweeper. ">
<polygon fill="white" stroke="black" points="74,-289.5 74,-319.5 217,-319.5 217,-289.5 74,-289.5"/>
<text text-anchor="start" x="82" y="-307.5" font-family="Helvetica,sans-Serif" font-size="10.00">pfasst::examples::advection</text>
<text text-anchor="middle" x="145.5" y="-296.5" font-family="Helvetica,sans-Serif" font-size="10.00">_diffusion::run_serial_mlsdc</text>
</a>
</g>
</g>
<!-- Node1&#45;&gt;Node16 -->
<g id="edge20" class="edge"><title>Node1&#45;&gt;Node16</title>
<path fill="none" stroke="midnightblue" d="M28.1688,-441.855C47.6185,-418.89 97.1154,-360.448 124.87,-327.678"/>
<polygon fill="midnightblue" stroke="midnightblue" points="127.634,-329.829 131.426,-319.936 122.293,-325.305 127.634,-329.829"/>
</g>
<!-- Node3 -->
<g id="node3" class="node"><title>Node3</title>
<g id="a_node3"><a xlink:href="../../d3/d91/namespacepfasst_1_1config.html#a5eaff8155eff1d5f8fe5cf2034b12422" target="_top" xlink:title="Read and parse command line parameters. ">
<polygon fill="white" stroke="black" points="295.5,-646.5 295.5,-676.5 398.5,-676.5 398.5,-646.5 295.5,-646.5"/>
<text text-anchor="start" x="303.5" y="-664.5" font-family="Helvetica,sans-Serif" font-size="10.00">pfasst::config::read</text>
<text text-anchor="middle" x="347" y="-653.5" font-family="Helvetica,sans-Serif" font-size="10.00">_commandline</text>
</a>
</g>
</g>
<!-- Node2&#45;&gt;Node3 -->
<g id="edge2" class="edge"><title>Node2&#45;&gt;Node3</title>
<path fill="none" stroke="midnightblue" d="M176.367,-607.932C206.002,-617.29 252.176,-631.871 288.871,-643.459"/>
<polygon fill="midnightblue" stroke="midnightblue" points="287.873,-646.815 298.463,-646.488 289.981,-640.139 287.873,-646.815"/>
</g>
<!-- Node7 -->
<g id="node7" class="node"><title>Node7</title>
<g id="a_node7"><a xlink:href="../../de/d8c/group__Internals.html#ga73cf933834ba5e5141119310aee971b9" target="_top" xlink:title="Starts easylogging++ with given arguments and loads configuration. ">
<polygon fill="white" stroke="black" points="293.5,-589 293.5,-608 400.5,-608 400.5,-589 293.5,-589"/>
<text text-anchor="middle" x="347" y="-596" font-family="Helvetica,sans-Serif" font-size="10.00">pfasst::log::start_log</text>
</a>
</g>
</g>
<!-- Node2&#45;&gt;Node7 -->
<g id="edge6" class="edge"><title>Node2&#45;&gt;Node7</title>
<path fill="none" stroke="midnightblue" d="M176.367,-598.5C204.464,-598.5 247.427,-598.5 283.084,-598.5"/>
<polygon fill="midnightblue" stroke="midnightblue" points="283.408,-602 293.408,-598.5 283.408,-595 283.408,-602"/>
</g>
<!-- Node4 -->
<g id="node4" class="node"><title>Node4</title>
<g id="a_node4"><a xlink:href="../../d3/d91/namespacepfasst_1_1config.html#a717f3272ec67e59af97e711397beeb29" target="_top" xlink:title="Read config parameters from file. ">
<polygon fill="white" stroke="black" points="488,-709.5 488,-739.5 591,-739.5 591,-709.5 488,-709.5"/>
<text text-anchor="start" x="496" y="-727.5" font-family="Helvetica,sans-Serif" font-size="10.00">pfasst::config::read</text>
<text text-anchor="middle" x="539.5" y="-716.5" font-family="Helvetica,sans-Serif" font-size="10.00">_config_file</text>
</a>
</g>
</g>
<!-- Node3&#45;&gt;Node4 -->
<g id="edge3" class="edge"><title>Node3&#45;&gt;Node4</title>
<path fill="none" stroke="midnightblue" d="M393.629,-676.59C420.51,-685.48 454.706,-696.789 483.124,-706.187"/>
<polygon fill="midnightblue" stroke="midnightblue" points="482.32,-709.607 492.913,-709.424 484.518,-702.961 482.32,-709.607"/>
</g>
<!-- Node5 -->
<g id="node5" class="node"><title>Node5</title>
<g id="a_node5"><a xlink:href="../../d3/d91/namespacepfasst_1_1config.html#a69bf5d072b24805ad0004d40bcd2744e" target="_top" xlink:title="Get MPI rank during initialization. ">
<polygon fill="white" stroke="black" points="1234,-646 1234,-665 1355,-665 1355,-646 1234,-646"/>
<text text-anchor="middle" x="1294.5" y="-653" font-family="Helvetica,sans-Serif" font-size="10.00">pfasst::config::get_rank</text>
</a>
</g>
</g>
<!-- Node3&#45;&gt;Node5 -->
<g id="edge4" class="edge"><title>Node3&#45;&gt;Node5</title>
<path fill="none" stroke="midnightblue" d="M398.595,-665.955C466.851,-671.57 592.246,-680.5 699.5,-680.5 699.5,-680.5 699.5,-680.5 1009,-680.5 1082.55,-680.5 1166.39,-672.105 1223.9,-665.045"/>
<polygon fill="midnightblue" stroke="midnightblue" points="1224.48,-668.501 1233.97,-663.79 1223.61,-661.554 1224.48,-668.501"/>
</g>
<!-- Node6 -->
<g id="node6" class="node"><title>Node6</title>
<g id="a_node6"><a xlink:href="../../d3/d91/namespacepfasst_1_1config.html#ad40fd72bbe8905d32032195b313b7d06" target="_top" xlink:title="Compile basic help and usage information. ">
<polygon fill="white" stroke="black" points="477.5,-633 477.5,-652 601.5,-652 601.5,-633 477.5,-633"/>
<text text-anchor="middle" x="539.5" y="-640" font-family="Helvetica,sans-Serif" font-size="10.00">pfasst::config::print_help</text>
</a>
</g>
</g>
<!-- Node3&#45;&gt;Node6 -->
<g id="edge5" class="edge"><title>Node3&#45;&gt;Node6</title>
<path fill="none" stroke="midnightblue" d="M398.55,-656.458C419.578,-654.361 444.366,-651.889 467.191,-649.612"/>
<polygon fill="midnightblue" stroke="midnightblue" points="467.574,-653.091 477.177,-648.616 466.879,-646.126 467.574,-653.091"/>
</g>
<!-- Node8 -->
<g id="node8" class="node"><title>Node8</title>
<g id="a_node8"><a xlink:href="../../de/d8c/group__Internals.html#gaabd9df9fe7db34deb4ec893d6b0b7fa2" target="_top" xlink:title="Sets some default flags for easylogging++. ">
<polygon fill="white" stroke="black" points="478.5,-583.5 478.5,-613.5 600.5,-613.5 600.5,-583.5 478.5,-583.5"/>
<text text-anchor="start" x="486.5" y="-601.5" font-family="Helvetica,sans-Serif" font-size="10.00">pfasst::log::set_logging</text>
<text text-anchor="middle" x="539.5" y="-590.5" font-family="Helvetica,sans-Serif" font-size="10.00">_flags</text>
</a>
</g>
</g>
<!-- Node7&#45;&gt;Node8 -->
<g id="edge7" class="edge"><title>Node7&#45;&gt;Node8</title>
<path fill="none" stroke="midnightblue" d="M400.559,-598.5C421.475,-598.5 445.853,-598.5 468.247,-598.5"/>
<polygon fill="midnightblue" stroke="midnightblue" points="468.377,-602 478.377,-598.5 468.377,-595 468.377,-602"/>
</g>
<!-- Node9 -->
<g id="node9" class="node"><title>Node9</title>
<g id="a_node9"><a xlink:href="../../de/d8c/group__Internals.html#ga94bc88666f61bcc6d85072e6dfdd21f4" target="_top" xlink:title="Sets default configuration for default loggers. ">
<polygon fill="white" stroke="black" points="477,-534.5 477,-564.5 602,-564.5 602,-534.5 477,-534.5"/>
<text text-anchor="start" x="485" y="-552.5" font-family="Helvetica,sans-Serif" font-size="10.00">pfasst::log::load_default</text>
<text text-anchor="middle" x="539.5" y="-541.5" font-family="Helvetica,sans-Serif" font-size="10.00">_config</text>
</a>
</g>
</g>
<!-- Node7&#45;&gt;Node9 -->
<g id="edge8" class="edge"><title>Node7&#45;&gt;Node9</title>
<path fill="none" stroke="midnightblue" d="M395.955,-588.927C410.48,-585.829 426.44,-582.225 441,-578.5 453.952,-575.186 467.77,-571.297 480.809,-567.461"/>
<polygon fill="midnightblue" stroke="midnightblue" points="482.014,-570.754 490.601,-564.549 480.018,-564.045 482.014,-570.754"/>
</g>
<!-- Node10 -->
<g id="node10" class="node"><title>Node10</title>
<g id="a_node10"><a xlink:href="../../de/d8c/group__Internals.html#ga2f4ba84c8482c3fb5c86e599804f832a" target="_top" xlink:title="Sets global logging options. ">
<polygon fill="white" stroke="black" points="799,-594.5 799,-624.5 915,-624.5 915,-594.5 799,-594.5"/>
<text text-anchor="start" x="807" y="-612.5" font-family="Helvetica,sans-Serif" font-size="10.00">pfasst::log::set_global</text>
<text text-anchor="middle" x="857" y="-601.5" font-family="Helvetica,sans-Serif" font-size="10.00">_logging_options</text>
</a>
</g>
</g>
<!-- Node9&#45;&gt;Node10 -->
<g id="edge9" class="edge"><title>Node9&#45;&gt;Node10</title>
<path fill="none" stroke="midnightblue" d="M598.333,-564.521C611.339,-567.68 625.108,-570.853 638,-573.5 688.267,-583.821 745.528,-593.186 788.747,-599.775"/>
<polygon fill="midnightblue" stroke="midnightblue" points="788.449,-603.27 798.86,-601.306 789.496,-596.349 788.449,-603.27"/>
</g>
<!-- Node15 -->
<g id="node15" class="node"><title>Node15</title>
<g id="a_node15"><a xlink:href="../../da/d50/namespacepfasst_1_1log.html#a8502afef42b4e98a12249d5fa1fed092" target="_top" xlink:title="Provides convenient way of adding additional named loggers. ">
<polygon fill="white" stroke="black" points="638,-534.5 638,-564.5 763,-564.5 763,-534.5 638,-534.5"/>
<text text-anchor="start" x="646" y="-552.5" font-family="Helvetica,sans-Serif" font-size="10.00">pfasst::log::add_custom</text>
<text text-anchor="middle" x="700.5" y="-541.5" font-family="Helvetica,sans-Serif" font-size="10.00">_logger</text>
</a>
</g>
</g>
<!-- Node9&#45;&gt;Node15 -->
<g id="edge15" class="edge"><title>Node9&#45;&gt;Node15</title>
<path fill="none" stroke="midnightblue" d="M602.429,-549.5C610.674,-549.5 619.184,-549.5 627.58,-549.5"/>
<polygon fill="midnightblue" stroke="midnightblue" points="627.74,-553 637.74,-549.5 627.74,-546 627.74,-553"/>
</g>
<!-- Node11 -->
<g id="node11" class="node"><title>Node11</title>
<g id="a_node11"><a xlink:href="../../da/d27/classpfasst_1_1config_1_1options.html#a4f130f9b500d6f3dee7df20894233608" target="_top" xlink:title="Accessor to the singleton instance. ">
<polygon fill="white" stroke="black" points="951,-567.5 951,-597.5 1065,-597.5 1065,-567.5 951,-567.5"/>
<text text-anchor="start" x="959" y="-585.5" font-family="Helvetica,sans-Serif" font-size="10.00">pfasst::config::options</text>
<text text-anchor="middle" x="1008" y="-574.5" font-family="Helvetica,sans-Serif" font-size="10.00">::get_instance</text>
</a>
</g>
</g>
<!-- Node10&#45;&gt;Node11 -->
<g id="edge10" class="edge"><title>Node10&#45;&gt;Node11</title>
<path fill="none" stroke="midnightblue" d="M915.181,-599.138C923.557,-597.621 932.242,-596.047 940.781,-594.499"/>
<polygon fill="midnightblue" stroke="midnightblue" points="941.494,-597.927 950.709,-592.7 940.245,-591.04 941.494,-597.927"/>
</g>
<!-- Node12 -->
<g id="node12" class="node"><title>Node12</title>
<g id="a_node12"><a xlink:href="../../da/d27/classpfasst_1_1config_1_1options.html#a9ad40d67da1066f5053e47e278b3b154" target="_top" xlink:title="pfasst::config::options\l::get_variables_map">
<polygon fill="white" stroke="black" points="951,-518.5 951,-548.5 1065,-548.5 1065,-518.5 951,-518.5"/>
<text text-anchor="start" x="959" y="-536.5" font-family="Helvetica,sans-Serif" font-size="10.00">pfasst::config::options</text>
<text text-anchor="middle" x="1008" y="-525.5" font-family="Helvetica,sans-Serif" font-size="10.00">::get_variables_map</text>
</a>
</g>
</g>
<!-- Node10&#45;&gt;Node12 -->
<g id="edge11" class="edge"><title>Node10&#45;&gt;Node12</title>
<path fill="none" stroke="midnightblue" d="M883.273,-594.42C901.762,-583.623 927.598,-569.018 951,-557.5 954.277,-555.887 957.689,-554.273 961.14,-552.686"/>
<polygon fill="midnightblue" stroke="midnightblue" points="962.61,-555.863 970.299,-548.574 959.743,-549.477 962.61,-555.863"/>
</g>
<!-- Node13 -->
<g id="node13" class="node"><title>Node13</title>
<g id="a_node13"><a xlink:href="../../de/d8c/group__Internals.html#ga74a6cd18764de8c81da478a7eb33ee4a" target="_top" xlink:title="Composes the log file name for the local rank. ">
<polygon fill="white" stroke="black" points="956.5,-616.5 956.5,-646.5 1059.5,-646.5 1059.5,-616.5 956.5,-616.5"/>
<text text-anchor="start" x="964.5" y="-634.5" font-family="Helvetica,sans-Serif" font-size="10.00">pfasst::log::get_log</text>
<text text-anchor="middle" x="1008" y="-623.5" font-family="Helvetica,sans-Serif" font-size="10.00">_file_name</text>
</a>
</g>
</g>
<!-- Node10&#45;&gt;Node13 -->
<g id="edge12" class="edge"><title>Node10&#45;&gt;Node13</title>
<path fill="none" stroke="midnightblue" d="M915.181,-617.943C925.276,-619.433 935.819,-620.99 946.013,-622.495"/>
<polygon fill="midnightblue" stroke="midnightblue" points="945.657,-625.981 956.061,-623.979 946.68,-619.056 945.657,-625.981"/>
</g>
<!-- Node14 -->
<g id="node14" class="node"><title>Node14</title>
<g id="a_node14"><a xlink:href="../../de/d8c/group__Internals.html#ga2fbecb551eda65e49c93122c05142aec" target="_top" xlink:title="Formats the local MPI world rank as a string. ">
<polygon fill="white" stroke="black" points="1101,-616.5 1101,-646.5 1198,-646.5 1198,-616.5 1101,-616.5"/>
<text text-anchor="start" x="1109" y="-634.5" font-family="Helvetica,sans-Serif" font-size="10.00">pfasst::log::format</text>
<text text-anchor="middle" x="1149.5" y="-623.5" font-family="Helvetica,sans-Serif" font-size="10.00">_mpi_rank</text>
</a>
</g>
</g>
<!-- Node13&#45;&gt;Node14 -->
<g id="edge13" class="edge"><title>Node13&#45;&gt;Node14</title>
<path fill="none" stroke="midnightblue" d="M1059.76,-631.5C1069.81,-631.5 1080.43,-631.5 1090.69,-631.5"/>
<polygon fill="midnightblue" stroke="midnightblue" points="1090.8,-635 1100.8,-631.5 1090.8,-628 1090.8,-635"/>
</g>
<!-- Node14&#45;&gt;Node5 -->
<g id="edge14" class="edge"><title>Node14&#45;&gt;Node5</title>
<path fill="none" stroke="midnightblue" d="M1198.12,-639.492C1207.28,-641.03 1217.04,-642.668 1226.68,-644.286"/>
<polygon fill="midnightblue" stroke="midnightblue" points="1226.22,-647.757 1236.66,-645.961 1227.38,-640.854 1226.22,-647.757"/>
</g>
<!-- Node15&#45;&gt;Node10 -->
<g id="edge19" class="edge"><title>Node15&#45;&gt;Node10</title>
<path fill="none" stroke="midnightblue" d="M740.487,-564.641C760.967,-572.594 786.247,-582.411 807.93,-590.832"/>
<polygon fill="midnightblue" stroke="midnightblue" points="806.705,-594.111 817.293,-594.468 809.239,-587.586 806.705,-594.111"/>
</g>
<!-- Node15&#45;&gt;Node11 -->
<g id="edge16" class="edge"><title>Node15&#45;&gt;Node11</title>
<path fill="none" stroke="midnightblue" d="M763.322,-556.178C814.811,-561.74 887.97,-569.642 940.672,-575.335"/>
<polygon fill="midnightblue" stroke="midnightblue" points="940.61,-578.849 950.928,-576.443 941.361,-571.889 940.61,-578.849"/>
</g>
<!-- Node15&#45;&gt;Node12 -->
<g id="edge17" class="edge"><title>Node15&#45;&gt;Node12</title>
<path fill="none" stroke="midnightblue" d="M763.322,-546.262C814.811,-543.566 887.97,-539.734 940.672,-536.974"/>
<polygon fill="midnightblue" stroke="midnightblue" points="941.124,-540.455 950.928,-536.437 940.758,-533.465 941.124,-540.455"/>
</g>
<!-- Node15&#45;&gt;Node14 -->
<g id="edge18" class="edge"><title>Node15&#45;&gt;Node14</title>
<path fill="none" stroke="midnightblue" d="M733.41,-534.417C799.575,-505.499 954.727,-450.078 1065,-508.5 1103.97,-529.144 1128.11,-577.02 1139.87,-606.583"/>
<polygon fill="midnightblue" stroke="midnightblue" points="1136.69,-608.09 1143.51,-616.201 1143.24,-605.61 1136.69,-608.09"/>
</g>
<!-- Node17 -->
<g id="node17" class="node"><title>Node17</title>
<g id="a_node17"><a xlink:href="../../de/d84/namespacepfasst_1_1quadrature.html#ac4700c0b6dc90b32b3f8af4070d0e62d" target="_top" xlink:title="Instantiates quadrature handler for given number of nodes and type descriptor. ">
<polygon fill="white" stroke="black" points="293.5,-235.5 293.5,-265.5 400.5,-265.5 400.5,-235.5 293.5,-235.5"/>
<text text-anchor="start" x="301.5" y="-253.5" font-family="Helvetica,sans-Serif" font-size="10.00">pfasst::quadrature</text>
<text text-anchor="middle" x="347" y="-242.5" font-family="Helvetica,sans-Serif" font-size="10.00">::quadrature_factory</text>
</a>
</g>
</g>
<!-- Node16&#45;&gt;Node17 -->
<g id="edge21" class="edge"><title>Node16&#45;&gt;Node17</title>
<path fill="none" stroke="midnightblue" d="M198.981,-289.469C216.173,-284.611 235.381,-279.254 253,-274.5 262.882,-271.833 273.372,-269.066 283.61,-266.399"/>
<polygon fill="midnightblue" stroke="midnightblue" points="284.52,-269.779 293.321,-263.879 282.762,-263.003 284.52,-269.779"/>
</g>
<!-- Node18 -->
<g id="node18" class="node"><title>Node18</title>
<g id="a_node18"><a xlink:href="../../d4/da9/classpfasst_1_1Controller.html#a8f4f8f025572e57fc5975902a4118fa9" target="_top" xlink:title="Adding a level to the controller. ">
<polygon fill="white" stroke="black" points="301,-186.5 301,-216.5 393,-216.5 393,-186.5 301,-186.5"/>
<text text-anchor="start" x="309" y="-204.5" font-family="Helvetica,sans-Serif" font-size="10.00">pfasst::Controller</text>
<text text-anchor="middle" x="347" y="-193.5" font-family="Helvetica,sans-Serif" font-size="10.00">::add_level</text>
</a>
</g>
</g>
<!-- Node16&#45;&gt;Node18 -->
<g id="edge22" class="edge"><title>Node16&#45;&gt;Node18</title>
<path fill="none" stroke="midnightblue" d="M162.524,-289.452C182.306,-271.665 217.682,-242.36 253,-225.5 264.755,-219.888 277.996,-215.467 290.721,-212.031"/>
<polygon fill="midnightblue" stroke="midnightblue" points="291.943,-215.332 300.777,-209.484 290.224,-208.547 291.943,-215.332"/>
</g>
<!-- Node19 -->
<g id="node19" class="node"><title>Node19</title>
<g id="a_node19"><a xlink:href="../../db/d56/classpfasst_1_1MLSDC.html#ac6e9d00fcb9b7363239e98c3798a3025" target="_top" xlink:title="Basic setup routine for this controller. ">
<polygon fill="white" stroke="black" points="290,-148 290,-167 404,-167 404,-148 290,-148"/>
<text text-anchor="middle" x="347" y="-155" font-family="Helvetica,sans-Serif" font-size="10.00">pfasst::MLSDC::setup</text>
</a>
</g>
</g>
<!-- Node16&#45;&gt;Node19 -->
<g id="edge23" class="edge"><title>Node16&#45;&gt;Node19</title>
<path fill="none" stroke="midnightblue" d="M154.447,-289.417C169.655,-262.148 205.618,-204.849 253,-176.5 261.187,-171.602 270.426,-167.947 279.824,-165.225"/>
<polygon fill="midnightblue" stroke="midnightblue" points="280.819,-168.583 289.638,-162.711 279.082,-161.802 280.819,-168.583"/>
</g>
<!-- Node20 -->
<g id="node20" class="node"><title>Node20</title>
<g id="a_node20"><a xlink:href="../../d4/da9/classpfasst_1_1Controller.html#a842fcbd63bdcf3a38b562ef0200bf42c" target="_top" xlink:title="Get coarsest level. ">
<polygon fill="white" stroke="black" points="301,-98.5 301,-128.5 393,-128.5 393,-98.5 301,-98.5"/>
<text text-anchor="start" x="309" y="-116.5" font-family="Helvetica,sans-Serif" font-size="10.00">pfasst::Controller</text>
<text text-anchor="middle" x="347" y="-105.5" font-family="Helvetica,sans-Serif" font-size="10.00">::get_finest</text>
</a>
</g>
</g>
<!-- Node16&#45;&gt;Node20 -->
<g id="edge24" class="edge"><title>Node16&#45;&gt;Node20</title>
<path fill="none" stroke="midnightblue" d="M151.809,-289.459C164.155,-256.721 198.002,-178.726 253,-138.5 264.076,-130.399 277.61,-124.923 290.887,-121.221"/>
<polygon fill="midnightblue" stroke="midnightblue" points="292.084,-124.53 300.945,-118.722 290.396,-117.736 292.084,-124.53"/>
</g>
<!-- Node21 -->
<g id="node21" class="node"><title>Node21</title>
<g id="a_node21"><a xlink:href="../../d7/d9e/classpfasst_1_1encap_1_1EncapSweeper.html#a49173904c7c4b21bdb2b498be46aeeec" target="_top" xlink:title="pfasst::encap::EncapSweeper\l::get_start_state">
<polygon fill="white" stroke="black" points="271.5,-49.5 271.5,-79.5 422.5,-79.5 422.5,-49.5 271.5,-49.5"/>
<text text-anchor="start" x="279.5" y="-67.5" font-family="Helvetica,sans-Serif" font-size="10.00">pfasst::encap::EncapSweeper</text>
<text text-anchor="middle" x="347" y="-56.5" font-family="Helvetica,sans-Serif" font-size="10.00">::get_start_state</text>
</a>
</g>
</g>
<!-- Node16&#45;&gt;Node21 -->
<g id="edge25" class="edge"><title>Node16&#45;&gt;Node21</title>
<path fill="none" stroke="midnightblue" d="M149.453,-289.217C157.934,-249.589 186.171,-142.834 253,-88.5 255.802,-86.2219 258.795,-84.1576 261.928,-82.287"/>
<polygon fill="midnightblue" stroke="midnightblue" points="263.833,-85.2407 271.08,-77.5121 260.595,-79.0346 263.833,-85.2407"/>
</g>
<!-- Node22 -->
<g id="node22" class="node"><title>Node22</title>
<g id="a_node22"><a xlink:href="../../d4/da9/classpfasst_1_1Controller.html#af31a86d9ccd9db325532c5ae3a5764f0" target="_top" xlink:title="Set basic time scope of the Controller. ">
<polygon fill="white" stroke="black" points="301,-0.5 301,-30.5 393,-30.5 393,-0.5 301,-0.5"/>
<text text-anchor="start" x="309" y="-18.5" font-family="Helvetica,sans-Serif" font-size="10.00">pfasst::Controller</text>
<text text-anchor="middle" x="347" y="-7.5" font-family="Helvetica,sans-Serif" font-size="10.00">::set_duration</text>
</a>
</g>
</g>
<!-- Node16&#45;&gt;Node22 -->
<g id="edge26" class="edge"><title>Node16&#45;&gt;Node22</title>
<path fill="none" stroke="midnightblue" d="M147.928,-289.213C153.013,-243.794 174.388,-108.533 253,-39.5 263.586,-30.2035 277.315,-24.4293 290.959,-20.8649"/>
<polygon fill="midnightblue" stroke="midnightblue" points="291.847,-24.2529 300.833,-18.6413 290.309,-17.4239 291.847,-24.2529"/>
</g>
<!-- Node23 -->
<g id="node23" class="node"><title>Node23</title>
<g id="a_node23"><a xlink:href="../../d4/da9/classpfasst_1_1Controller.html#a6dba360b0794fb0cdde418d3ab1a160d" target="_top" xlink:title="Set options from command line etc. ">
<polygon fill="white" stroke="black" points="301,-539.5 301,-569.5 393,-569.5 393,-539.5 301,-539.5"/>
<text text-anchor="start" x="309" y="-557.5" font-family="Helvetica,sans-Serif" font-size="10.00">pfasst::Controller</text>
<text text-anchor="middle" x="347" y="-546.5" font-family="Helvetica,sans-Serif" font-size="10.00">::set_options</text>
</a>
</g>
</g>
<!-- Node16&#45;&gt;Node23 -->
<g id="edge27" class="edge"><title>Node16&#45;&gt;Node23</title>
<path fill="none" stroke="midnightblue" d="M149.164,-319.772C157.079,-360.441 184.328,-472.166 253,-529.5 263.74,-538.467 277.397,-544.243 290.916,-547.956"/>
<polygon fill="midnightblue" stroke="midnightblue" points="290.15,-551.372 300.692,-550.311 291.79,-544.566 290.15,-551.372"/>
</g>
<!-- Node24 -->
<g id="node24" class="node"><title>Node24</title>
<g id="a_node24"><a xlink:href="../../db/d56/classpfasst_1_1MLSDC.html#a698768ef6d03e6432beea8c0c574c05b" target="_top" xlink:title="Solve ODE using MLSDC. ">
<polygon fill="white" stroke="black" points="295,-501 295,-520 399,-520 399,-501 295,-501"/>
<text text-anchor="middle" x="347" y="-508" font-family="Helvetica,sans-Serif" font-size="10.00">pfasst::MLSDC::run</text>
</a>
</g>
</g>
<!-- Node16&#45;&gt;Node24 -->
<g id="edge28" class="edge"><title>Node16&#45;&gt;Node24</title>
<path fill="none" stroke="midnightblue" d="M150.409,-319.502C160.608,-355.481 191.597,-446.982 253,-491.5 262.287,-498.233 273.4,-502.71 284.659,-505.658"/>
<polygon fill="midnightblue" stroke="midnightblue" points="284.024,-509.103 294.548,-507.875 285.556,-502.273 284.024,-509.103"/>
</g>
<!-- Node25 -->
<g id="node25" class="node"><title>Node25</title>
<g id="a_node25"><a xlink:href="../../d2/dfe/classpfasst_1_1examples_1_1advection__diffusion_1_1AdvectionDiffusionSweeper.html#a7a3337385f19d68dda91c3d9c5d068a3" target="_top" xlink:title="pfasst::examples::advection\l_diffusion::AdvectionDiffusionSweeper\l::get_errors">
<polygon fill="white" stroke="black" points="253,-441 253,-482 441,-482 441,-441 253,-441"/>
<text text-anchor="start" x="261" y="-470" font-family="Helvetica,sans-Serif" font-size="10.00">pfasst::examples::advection</text>
<text text-anchor="start" x="261" y="-459" font-family="Helvetica,sans-Serif" font-size="10.00">_diffusion::AdvectionDiffusionSweeper</text>
<text text-anchor="middle" x="347" y="-448" font-family="Helvetica,sans-Serif" font-size="10.00">::get_errors</text>
</a>
</g>
</g>
<!-- Node16&#45;&gt;Node25 -->
<g id="edge29" class="edge"><title>Node16&#45;&gt;Node25</title>
<path fill="none" stroke="midnightblue" d="M155.296,-319.803C171.336,-346.38 207.885,-401.129 253,-431.5 255.441,-433.143 257.978,-434.701 260.587,-436.179"/>
<polygon fill="midnightblue" stroke="midnightblue" points="259.209,-439.406 269.699,-440.895 262.427,-433.19 259.209,-439.406"/>
</g>
<!-- Node26 -->
<g id="node26" class="node"><title>Node26</title>
<g id="a_node26"><a xlink:href="../../d4/da9/classpfasst_1_1Controller.html#aa5d33e38181e67d0e57a64f4fb275643" target="_top" xlink:title="Convenience accessor to the coarsest level. ">
<polygon fill="white" stroke="black" points="301,-392.5 301,-422.5 393,-422.5 393,-392.5 301,-392.5"/>
<text text-anchor="start" x="309" y="-410.5" font-family="Helvetica,sans-Serif" font-size="10.00">pfasst::Controller</text>
<text text-anchor="middle" x="347" y="-399.5" font-family="Helvetica,sans-Serif" font-size="10.00">::coarsest</text>
</a>
</g>
</g>
<!-- Node16&#45;&gt;Node26 -->
<g id="edge30" class="edge"><title>Node16&#45;&gt;Node26</title>
<path fill="none" stroke="midnightblue" d="M162.941,-319.597C182.852,-337.119 218.08,-365.745 253,-382.5 264.892,-388.206 278.286,-392.769 291.128,-396.352"/>
<polygon fill="midnightblue" stroke="midnightblue" points="290.244,-399.739 300.806,-398.904 292.029,-392.97 290.244,-399.739"/>
</g>
<!-- Node27 -->
<g id="node27" class="node"><title>Node27</title>
<g id="a_node27"><a xlink:href="../../d4/da9/classpfasst_1_1Controller.html#a2834ad338a9e1482b74d5d0f01ad4703" target="_top" xlink:title="Convenience accessor to the finest level. ">
<polygon fill="white" stroke="black" points="301,-343.5 301,-373.5 393,-373.5 393,-343.5 301,-343.5"/>
<text text-anchor="start" x="309" y="-361.5" font-family="Helvetica,sans-Serif" font-size="10.00">pfasst::Controller</text>
<text text-anchor="middle" x="347" y="-350.5" font-family="Helvetica,sans-Serif" font-size="10.00">::finest</text>
</a>
</g>
</g>
<!-- Node16&#45;&gt;Node27 -->
<g id="edge31" class="edge"><title>Node16&#45;&gt;Node27</title>
<path fill="none" stroke="midnightblue" d="M198.981,-319.531C216.173,-324.389 235.381,-329.746 253,-334.5 265.195,-337.791 278.316,-341.235 290.747,-344.455"/>
<polygon fill="midnightblue" stroke="midnightblue" points="289.98,-347.871 300.537,-346.981 291.729,-341.093 289.98,-347.871"/>
</g>
<!-- Node28 -->
<g id="node28" class="node"><title>Node28</title>
<g id="a_node28"><a xlink:href="../../d2/dfe/classpfasst_1_1examples_1_1advection__diffusion_1_1AdvectionDiffusionSweeper.html#a7701e8680d88a3e6d153a77db28b53d7" target="_top" xlink:title="pfasst::examples::advection\l_diffusion::AdvectionDiffusionSweeper\l::get_residuals">
<polygon fill="white" stroke="black" points="253,-284 253,-325 441,-325 441,-284 253,-284"/>
<text text-anchor="start" x="261" y="-313" font-family="Helvetica,sans-Serif" font-size="10.00">pfasst::examples::advection</text>
<text text-anchor="start" x="261" y="-302" font-family="Helvetica,sans-Serif" font-size="10.00">_diffusion::AdvectionDiffusionSweeper</text>
<text text-anchor="middle" x="347" y="-291" font-family="Helvetica,sans-Serif" font-size="10.00">::get_residuals</text>
</a>
</g>
</g>
<!-- Node16&#45;&gt;Node28 -->
<g id="edge32" class="edge"><title>Node16&#45;&gt;Node28</title>
<path fill="none" stroke="midnightblue" d="M217.117,-304.5C225.415,-304.5 234.008,-304.5 242.637,-304.5"/>
<polygon fill="midnightblue" stroke="midnightblue" points="242.768,-308 252.768,-304.5 242.768,-301 242.768,-308"/>
</g>
</g>
</svg>
        <g id="navigator" transform="translate(0 0)" fill="#404254">
                <rect fill="#f2f5e9" fill-opacity="0.5" stroke="#606060" stroke-width=".5" x="0" y="0" width="60" height="60"/>
                <use id="zoomplus" xlink:href="#zoomPlus" x="17" y="9" onmousedown="handleZoom(evt,'in')"/>
                <use id="zoomminus" xlink:href="#zoomMin" x="42" y="9" onmousedown="handleZoom(evt,'out')"/>
                <use id="reset" xlink:href="#resetDef" x="30" y="36" onmousedown="handleReset()"/>
                <g id="arrowUp" xlink:href="#dirArrow" transform="translate(30 24)" onmousedown="handlePan(0,-1)">
                  <use xlink:href="#rim" fill="#404040">
                        <set attributeName="fill" to="#808080" begin="arrowUp.mouseover" end="arrowUp.mouseout"/>
                  </use>
                  <path fill="none" stroke="white" stroke-width="1.5" d="M0,-3.0v7 M-2.5,-0.5L0,-3.0L2.5,-0.5"/>
                </g>
                <g id="arrowRight" xlink:href="#dirArrow" transform="rotate(90) translate(36 -43)" onmousedown="handlePan(1,0)">
                  <use xlink:href="#rim" fill="#404040">
                        <set attributeName="fill" to="#808080" begin="arrowRight.mouseover" end="arrowRight.mouseout"/>
                  </use>
                  <path fill="none" stroke="white" stroke-width="1.5" d="M0,-3.0v7 M-2.5,-0.5L0,-3.0L2.5,-0.5"/>
                </g>
                <g id="arrowDown" xlink:href="#dirArrow" transform="rotate(180) translate(-30 -48)" onmousedown="handlePan(0,1)">
                  <use xlink:href="#rim" fill="#404040">
                        <set attributeName="fill" to="#808080" begin="arrowDown.mouseover" end="arrowDown.mouseout"/>
                  </use>
                  <path fill="none" stroke="white" stroke-width="1.5" d="M0,-3.0v7 M-2.5,-0.5L0,-3.0L2.5,-0.5"/>
                </g>
                <g id="arrowLeft" xlink:href="#dirArrow" transform="rotate(270) translate(-36 17)" onmousedown="handlePan(-1,0)">
                  <use xlink:href="#rim" fill="#404040">
                        <set attributeName="fill" to="#808080" begin="arrowLeft.mouseover" end="arrowLeft.mouseout"/>
                  </use>
                  <path fill="none" stroke="white" stroke-width="1.5" d="M0,-3.0v7 M-2.5,-0.5L0,-3.0L2.5,-0.5"/>
                </g>
        </g>
        <svg viewBox="0 0 15 15" width="100%" height="30px" preserveAspectRatio="xMaxYMin meet">
         <g id="arrow_out" transform="scale(0.3 0.3)">
          <a xlink:href="serial__mlsdc_8cpp_a3c04138a5bfe5d72780bb7e82a18e627_cgraph_org.svg" target="_base">
           <rect id="button" ry="5" rx="5" y="6" x="6" height="38" width="38"
                fill="#f2f5e9" fill-opacity="0.5" stroke="#606060" stroke-width="1.0"/>
           <path id="arrow"
             d="M 11.500037,31.436501 C 11.940474,20.09759 22.043105,11.32322 32.158766,21.979434 L 37.068811,17.246167 C 37.068811,17.246167 37.088388,32 37.088388,32 L 22.160133,31.978069 C 22.160133,31.978069 26.997745,27.140456 26.997745,27.140456 C 18.528582,18.264221 13.291696,25.230495 11.500037,31.436501 z"
             style="fill:#404040;"/>
          </a>
         </g>
        </svg>
</svg>
