<?xml version="1.0" encoding="UTF-8" standalone="no"?>
<!DOCTYPE svg PUBLIC "-//W3C//DTD SVG 1.1//EN"
 "http://www.w3.org/Graphics/SVG/1.1/DTD/svg11.dtd">
<!-- Generated by graphviz version 2.38.0 (20140413.2041)
 -->
<!-- Title: HighPrecisionTest Pages: 1 -->
<svg width="310pt" height="375pt"
 viewBox="0.00 0.00 310.00 375.00" xmlns="http://www.w3.org/2000/svg" xmlns:xlink="http://www.w3.org/1999/xlink">
<g id="graph0" class="graph" transform="scale(1 1) rotate(0) translate(4 371)">
<title>HighPrecisionTest</title>
<polygon fill="white" stroke="none" points="-4,4 -4,-371 306,-371 306,4 -4,4"/>
<!-- Node1 -->
<g id="node1" class="node"><title>Node1</title>
<polygon fill="#bfbfbf" stroke="black" points="78,-0.5 78,-145.5 179,-145.5 179,-0.5 78,-0.5"/>
<text text-anchor="middle" x="128.5" y="-133.5" font-family="Helvetica,sans-Serif" font-size="10.00">HighPrecisionTest</text>
<polyline fill="none" stroke="black" points="78,-126.5 179,-126.5 "/>
<text text-anchor="start" x="86" y="-114.5" font-family="Helvetica,sans-Serif" font-size="10.00"># nodetype</text>
<text text-anchor="start" x="86" y="-103.5" font-family="Helvetica,sans-Serif" font-size="10.00"># dt</text>
<text text-anchor="start" x="86" y="-92.5" font-family="Helvetica,sans-Serif" font-size="10.00"># nsteps</text>
<text text-anchor="start" x="86" y="-81.5" font-family="Helvetica,sans-Serif" font-size="10.00"># niters</text>
<text text-anchor="start" x="86" y="-70.5" font-family="Helvetica,sans-Serif" font-size="10.00"># nnodes</text>
<text text-anchor="start" x="86" y="-59.5" font-family="Helvetica,sans-Serif" font-size="10.00"># nnodes_in_call</text>
<text text-anchor="start" x="86" y="-48.5" font-family="Helvetica,sans-Serif" font-size="10.00"># err</text>
<polyline fill="none" stroke="black" points="78,-41.5 179,-41.5 "/>
<text text-anchor="start" x="86" y="-29.5" font-family="Helvetica,sans-Serif" font-size="10.00">+ SetUp()</text>
<text text-anchor="start" x="86" y="-18.5" font-family="Helvetica,sans-Serif" font-size="10.00">+ TearDown()</text>
<text text-anchor="start" x="86" y="-7.5" font-family="Helvetica,sans-Serif" font-size="10.00"># set_parameters()</text>
</g>
<!-- Node2 -->
<g id="node2" class="node"><title>Node2</title>
<polygon fill="white" stroke="#bfbfbf" points="0,-193.5 0,-261.5 161,-261.5 161,-193.5 0,-193.5"/>
<text text-anchor="start" x="8" y="-249.5" font-family="Helvetica,sans-Serif" font-size="10.00">TestWithParam&lt; pfasst</text>
<text text-anchor="middle" x="80.5" y="-238.5" font-family="Helvetica,sans-Serif" font-size="10.00">::quadrature::QuadratureType &gt;</text>
<polyline fill="none" stroke="#bfbfbf" points="0,-231.5 161,-231.5 "/>
<text text-anchor="middle" x="80.5" y="-219.5" font-family="Helvetica,sans-Serif" font-size="10.00"> </text>
<polyline fill="none" stroke="#bfbfbf" points="0,-212.5 161,-212.5 "/>
<text text-anchor="middle" x="80.5" y="-200.5" font-family="Helvetica,sans-Serif" font-size="10.00"> </text>
</g>
<!-- Node2&#45;&gt;Node1 -->
<g id="edge1" class="edge"><title>Node2&#45;&gt;Node1</title>
<path fill="none" stroke="midnightblue" d="M93.9506,-183.766C97.6965,-171.865 101.871,-158.604 105.986,-145.528"/>
<polygon fill="none" stroke="midnightblue" points="90.5792,-182.82 90.9153,-193.41 97.2562,-184.922 90.5792,-182.82"/>
</g>
<!-- Node3 -->
<g id="node3" class="node"><title>Node3</title>
<polygon fill="white" stroke="#bfbfbf" points="179,-199 179,-256 302,-256 302,-199 179,-199"/>
<text text-anchor="middle" x="240.5" y="-244" font-family="Helvetica,sans-Serif" font-size="10.00">std::complex&lt; double &gt;</text>
<polyline fill="none" stroke="#bfbfbf" points="179,-237 302,-237 "/>
<text text-anchor="middle" x="240.5" y="-225" font-family="Helvetica,sans-Serif" font-size="10.00"> </text>
<polyline fill="none" stroke="#bfbfbf" points="179,-218 302,-218 "/>
<text text-anchor="middle" x="240.5" y="-206" font-family="Helvetica,sans-Serif" font-size="10.00"> </text>
</g>
<!-- Node3&#45;&gt;Node1 -->
<g id="edge2" class="edge"><title>Node3&#45;&gt;Node1</title>
<path fill="none" stroke="#404040" d="M220.218,-198.883C210.574,-185.753 198.506,-169.32 186.322,-152.731"/>
<polygon fill="none" stroke="#404040" points="186.256,-152.641 179.48,-150.173 179.153,-142.969 185.928,-145.437 186.256,-152.641"/>
<text text-anchor="middle" x="222" y="-167" font-family="Helvetica,sans-Serif" font-size="10.00"> #lambda</text>
</g>
<!-- Node4 -->
<g id="node4" class="node"><title>Node4</title>
<g id="a_node4"><a xlink:title="STL class. ">
<polygon fill="white" stroke="#bfbfbf" points="203.5,-309.5 203.5,-366.5 277.5,-366.5 277.5,-309.5 203.5,-309.5"/>
<text text-anchor="middle" x="240.5" y="-354.5" font-family="Helvetica,sans-Serif" font-size="10.00">std::complex</text>
<polyline fill="none" stroke="#bfbfbf" points="203.5,-347.5 277.5,-347.5 "/>
<text text-anchor="middle" x="240.5" y="-335.5" font-family="Helvetica,sans-Serif" font-size="10.00"> </text>
<polyline fill="none" stroke="#bfbfbf" points="203.5,-328.5 277.5,-328.5 "/>
<text text-anchor="middle" x="240.5" y="-316.5" font-family="Helvetica,sans-Serif" font-size="10.00"> </text>
</a>
</g>
</g>
<!-- Node4&#45;&gt;Node3 -->
<g id="edge3" class="edge"><title>Node4&#45;&gt;Node3</title>
<path fill="none" stroke="orange" d="M240.5,-298.936C240.5,-284.827 240.5,-269.111 240.5,-256.109"/>
<polygon fill="orange" stroke="orange" points="237,-299.34 240.5,-309.34 244,-299.34 237,-299.34"/>
<text text-anchor="middle" x="266.5" y="-283" font-family="Helvetica,sans-Serif" font-size="10.00"> &lt; double &gt;</text>
</g>
</g>
</svg>
