<?xml version="1.0" encoding="UTF-8" standalone="no"?>
<!DOCTYPE svg PUBLIC "-//W3C//DTD SVG 1.1//EN"
 "http://www.w3.org/Graphics/SVG/1.1/DTD/svg11.dtd">
<!-- Generated by graphviz version 2.38.0 (20140413.2041)
 -->
<!-- Title: pfasst::quadrature::ClenshawCurtis&lt; precision &gt; Pages: 1 -->
<svg width="160pt" height="1015pt"
 viewBox="0.00 0.00 160.00 1015.00" xmlns="http://www.w3.org/2000/svg" xmlns:xlink="http://www.w3.org/1999/xlink">
<g id="graph0" class="graph" transform="scale(1 1) rotate(0) translate(4 1011)">
<title>pfasst::quadrature::ClenshawCurtis&lt; precision &gt;</title>
<polygon fill="white" stroke="none" points="-4,4 -4,-1011 156,-1011 156,4 -4,4"/>
<!-- Node1 -->
<g id="node1" class="node"><title>Node1</title>
<polygon fill="#bfbfbf" stroke="black" points="0,-0.5 0,-222.5 152,-222.5 152,-0.5 0,-0.5"/>
<text text-anchor="start" x="8" y="-210.5" font-family="Helvetica,sans-Serif" font-size="10.00">pfasst::quadrature</text>
<text text-anchor="middle" x="76" y="-199.5" font-family="Helvetica,sans-Serif" font-size="10.00">::ClenshawCurtis&lt; precision &gt;</text>
<polyline fill="none" stroke="black" points="0,-192.5 152,-192.5 "/>
<text text-anchor="start" x="8" y="-180.5" font-family="Helvetica,sans-Serif" font-size="10.00"># LEFT_IS_NODE</text>
<text text-anchor="start" x="8" y="-169.5" font-family="Helvetica,sans-Serif" font-size="10.00"># RIGHT_IS_NODE</text>
<polyline fill="none" stroke="black" points="0,-162.5 152,-162.5 "/>
<text text-anchor="start" x="8" y="-150.5" font-family="Helvetica,sans-Serif" font-size="10.00">+ ClenshawCurtis()</text>
<text text-anchor="start" x="8" y="-139.5" font-family="Helvetica,sans-Serif" font-size="10.00">+ ClenshawCurtis()</text>
<text text-anchor="start" x="8" y="-128.5" font-family="Helvetica,sans-Serif" font-size="10.00">+ ~ClenshawCurtis()</text>
<text text-anchor="start" x="8" y="-117.5" font-family="Helvetica,sans-Serif" font-size="10.00">+ left_is_node()</text>
<text text-anchor="start" x="8" y="-106.5" font-family="Helvetica,sans-Serif" font-size="10.00">+ right_is_node()</text>
<text text-anchor="start" x="8" y="-95.5" font-family="Helvetica,sans-Serif" font-size="10.00"># compute_nodes()</text>
<text text-anchor="start" x="8" y="-84.5" font-family="Helvetica,sans-Serif" font-size="10.00">* LEFT_IS_NODE</text>
<text text-anchor="start" x="8" y="-73.5" font-family="Helvetica,sans-Serif" font-size="10.00">* RIGHT_IS_NODE</text>
<text text-anchor="start" x="8" y="-62.5" font-family="Helvetica,sans-Serif" font-size="10.00">* ClenshawCurtis()</text>
<text text-anchor="start" x="8" y="-51.5" font-family="Helvetica,sans-Serif" font-size="10.00">* ClenshawCurtis()</text>
<text text-anchor="start" x="8" y="-40.5" font-family="Helvetica,sans-Serif" font-size="10.00">* ~ClenshawCurtis()</text>
<text text-anchor="start" x="8" y="-29.5" font-family="Helvetica,sans-Serif" font-size="10.00">* left_is_node()</text>
<text text-anchor="start" x="8" y="-18.5" font-family="Helvetica,sans-Serif" font-size="10.00">* right_is_node()</text>
<text text-anchor="start" x="8" y="-7.5" font-family="Helvetica,sans-Serif" font-size="10.00">* compute_nodes()</text>
</g>
<!-- Node2 -->
<g id="node2" class="node"><title>Node2</title>
<g id="a_node2"><a xlink:href="../../de/d20/classpfasst_1_1quadrature_1_1IQuadrature.html" target="_top" xlink:title="Interface for quadrature handlers. ">
<polygon fill="white" stroke="black" points="9,-260.5 9,-680.5 143,-680.5 143,-260.5 9,-260.5"/>
<text text-anchor="start" x="17" y="-668.5" font-family="Helvetica,sans-Serif" font-size="10.00">pfasst::quadrature</text>
<text text-anchor="middle" x="76" y="-657.5" font-family="Helvetica,sans-Serif" font-size="10.00">::IQuadrature&lt; precision &gt;</text>
<polyline fill="none" stroke="black" points="9,-650.5 143,-650.5 "/>
<text text-anchor="middle" x="76" y="-638.5" font-family="Helvetica,sans-Serif" font-size="10.00"> </text>
<polyline fill="none" stroke="black" points="9,-631.5 143,-631.5 "/>
<text text-anchor="start" x="17" y="-619.5" font-family="Helvetica,sans-Serif" font-size="10.00">+ expected_error()</text>
<text text-anchor="start" x="17" y="-608.5" font-family="Helvetica,sans-Serif" font-size="10.00">+ IQuadrature()</text>
<text text-anchor="start" x="17" y="-597.5" font-family="Helvetica,sans-Serif" font-size="10.00">+ IQuadrature()</text>
<text text-anchor="start" x="17" y="-586.5" font-family="Helvetica,sans-Serif" font-size="10.00">+ ~IQuadrature()</text>
<text text-anchor="start" x="17" y="-575.5" font-family="Helvetica,sans-Serif" font-size="10.00">+ get_q_mat()</text>
<text text-anchor="start" x="17" y="-564.5" font-family="Helvetica,sans-Serif" font-size="10.00">+ get_s_mat()</text>
<text text-anchor="start" x="17" y="-553.5" font-family="Helvetica,sans-Serif" font-size="10.00">+ get_b_mat()</text>
<text text-anchor="start" x="17" y="-542.5" font-family="Helvetica,sans-Serif" font-size="10.00">+ get_q_vec()</text>
<text text-anchor="start" x="17" y="-531.5" font-family="Helvetica,sans-Serif" font-size="10.00">+ get_nodes()</text>
<text text-anchor="start" x="17" y="-520.5" font-family="Helvetica,sans-Serif" font-size="10.00">+ get_num_nodes()</text>
<text text-anchor="start" x="17" y="-509.5" font-family="Helvetica,sans-Serif" font-size="10.00">+ left_is_node()</text>
<text text-anchor="start" x="17" y="-498.5" font-family="Helvetica,sans-Serif" font-size="10.00">+ right_is_node()</text>
<text text-anchor="start" x="17" y="-487.5" font-family="Helvetica,sans-Serif" font-size="10.00"># compute_nodes()</text>
<text text-anchor="start" x="17" y="-476.5" font-family="Helvetica,sans-Serif" font-size="10.00"># compute_weights()</text>
<text text-anchor="start" x="17" y="-465.5" font-family="Helvetica,sans-Serif" font-size="10.00">* LEFT_IS_NODE</text>
<text text-anchor="start" x="17" y="-454.5" font-family="Helvetica,sans-Serif" font-size="10.00">* RIGHT_IS_NODE</text>
<text text-anchor="start" x="17" y="-443.5" font-family="Helvetica,sans-Serif" font-size="10.00">* num_nodes</text>
<text text-anchor="start" x="17" y="-432.5" font-family="Helvetica,sans-Serif" font-size="10.00">* q_mat</text>
<text text-anchor="start" x="17" y="-421.5" font-family="Helvetica,sans-Serif" font-size="10.00">* s_mat</text>
<text text-anchor="start" x="17" y="-410.5" font-family="Helvetica,sans-Serif" font-size="10.00">* b_mat</text>
<text text-anchor="start" x="17" y="-399.5" font-family="Helvetica,sans-Serif" font-size="10.00">* IQuadrature()</text>
<text text-anchor="start" x="17" y="-388.5" font-family="Helvetica,sans-Serif" font-size="10.00">* IQuadrature()</text>
<text text-anchor="start" x="17" y="-377.5" font-family="Helvetica,sans-Serif" font-size="10.00">* ~IQuadrature()</text>
<text text-anchor="start" x="17" y="-366.5" font-family="Helvetica,sans-Serif" font-size="10.00">* get_q_mat()</text>
<text text-anchor="start" x="17" y="-355.5" font-family="Helvetica,sans-Serif" font-size="10.00">* get_s_mat()</text>
<text text-anchor="start" x="17" y="-344.5" font-family="Helvetica,sans-Serif" font-size="10.00">* get_b_mat()</text>
<text text-anchor="start" x="17" y="-333.5" font-family="Helvetica,sans-Serif" font-size="10.00">* get_q_vec()</text>
<text text-anchor="start" x="17" y="-322.5" font-family="Helvetica,sans-Serif" font-size="10.00">* get_nodes()</text>
<text text-anchor="start" x="17" y="-311.5" font-family="Helvetica,sans-Serif" font-size="10.00">* get_num_nodes()</text>
<text text-anchor="start" x="17" y="-300.5" font-family="Helvetica,sans-Serif" font-size="10.00">* left_is_node()</text>
<text text-anchor="start" x="17" y="-289.5" font-family="Helvetica,sans-Serif" font-size="10.00">* right_is_node()</text>
<text text-anchor="start" x="17" y="-278.5" font-family="Helvetica,sans-Serif" font-size="10.00">* compute_nodes()</text>
<text text-anchor="start" x="17" y="-267.5" font-family="Helvetica,sans-Serif" font-size="10.00">* compute_weights()</text>
</a>
</g>
</g>
<!-- Node2&#45;&gt;Node1 -->
<g id="edge1" class="edge"><title>Node2&#45;&gt;Node1</title>
<path fill="none" stroke="midnightblue" d="M76,-250.147C76,-240.858 76,-231.725 76,-222.856"/>
<polygon fill="none" stroke="midnightblue" points="72.5001,-250.283 76,-260.283 79.5001,-250.283 72.5001,-250.283"/>
</g>
<!-- Node3 -->
<g id="node3" class="node"><title>Node3</title>
<polygon fill="white" stroke="#bfbfbf" points="15,-739.5 15,-796.5 137,-796.5 137,-739.5 15,-739.5"/>
<text text-anchor="middle" x="76" y="-784.5" font-family="Helvetica,sans-Serif" font-size="10.00">std::vector&lt; precision &gt;</text>
<polyline fill="none" stroke="#bfbfbf" points="15,-777.5 137,-777.5 "/>
<text text-anchor="start" x="23" y="-765.5" font-family="Helvetica,sans-Serif" font-size="10.00">+ elements</text>
<polyline fill="none" stroke="#bfbfbf" points="15,-758.5 137,-758.5 "/>
<text text-anchor="middle" x="76" y="-746.5" font-family="Helvetica,sans-Serif" font-size="10.00"> </text>
</g>
<!-- Node3&#45;&gt;Node2 -->
<g id="edge2" class="edge"><title>Node3&#45;&gt;Node2</title>
<path fill="none" stroke="#404040" d="M76,-739.465C76,-726.948 76,-710.901 76,-692.893"/>
<polygon fill="none" stroke="#404040" points="76.0001,-692.793 72,-686.793 76,-680.793 80,-686.793 76.0001,-692.793"/>
<text text-anchor="middle" x="94.5" y="-713" font-family="Helvetica,sans-Serif" font-size="10.00"> #nodes</text>
<text text-anchor="middle" x="94.5" y="-702" font-family="Helvetica,sans-Serif" font-size="10.00">#q_vec</text>
</g>
<!-- Node4 -->
<g id="node4" class="node"><title>Node4</title>
<g id="a_node4"><a xlink:title="STL class. ">
<polygon fill="white" stroke="#bfbfbf" points="31.5,-844.5 31.5,-901.5 120.5,-901.5 120.5,-844.5 31.5,-844.5"/>
<text text-anchor="middle" x="76" y="-889.5" font-family="Helvetica,sans-Serif" font-size="10.00">std::vector&lt; T &gt;</text>
<polyline fill="none" stroke="#bfbfbf" points="31.5,-882.5 120.5,-882.5 "/>
<text text-anchor="middle" x="76" y="-870.5" font-family="Helvetica,sans-Serif" font-size="10.00"> </text>
<polyline fill="none" stroke="#bfbfbf" points="31.5,-863.5 120.5,-863.5 "/>
<text text-anchor="middle" x="76" y="-851.5" font-family="Helvetica,sans-Serif" font-size="10.00"> </text>
</a>
</g>
</g>
<!-- Node4&#45;&gt;Node3 -->
<g id="edge3" class="edge"><title>Node4&#45;&gt;Node3</title>
<path fill="none" stroke="orange" d="M76,-834.286C76,-821.839 76,-808.233 76,-796.678"/>
<polygon fill="orange" stroke="orange" points="72.5001,-834.398 76,-844.398 79.5001,-834.398 72.5001,-834.398"/>
<text text-anchor="middle" x="107" y="-818" font-family="Helvetica,sans-Serif" font-size="10.00"> &lt; precision &gt;</text>
</g>
<!-- Node5 -->
<g id="node5" class="node"><title>Node5</title>
<polygon fill="white" stroke="#bfbfbf" points="61.5,-949.5 61.5,-1006.5 90.5,-1006.5 90.5,-949.5 61.5,-949.5"/>
<text text-anchor="middle" x="76" y="-994.5" font-family="Helvetica,sans-Serif" font-size="10.00">T</text>
<polyline fill="none" stroke="#bfbfbf" points="61.5,-987.5 90.5,-987.5 "/>
<text text-anchor="middle" x="76" y="-975.5" font-family="Helvetica,sans-Serif" font-size="10.00"> </text>
<polyline fill="none" stroke="#bfbfbf" points="61.5,-968.5 90.5,-968.5 "/>
<text text-anchor="middle" x="76" y="-956.5" font-family="Helvetica,sans-Serif" font-size="10.00"> </text>
</g>
<!-- Node5&#45;&gt;Node4 -->
<g id="edge4" class="edge"><title>Node5&#45;&gt;Node4</title>
<path fill="none" stroke="#404040" d="M76,-949.398C76,-938.545 76,-925.873 76,-914.049"/>
<polygon fill="none" stroke="#404040" points="76.0001,-913.678 72,-907.678 76,-901.678 80,-907.678 76.0001,-913.678"/>
<text text-anchor="middle" x="101.5" y="-923" font-family="Helvetica,sans-Serif" font-size="10.00"> +elements</text>
</g>
</g>
</svg>
