<?xml version="1.0" encoding="UTF-8" standalone="no"?>
<!DOCTYPE svg PUBLIC "-//W3C//DTD SVG 1.1//EN"
 "http://www.w3.org/Graphics/SVG/1.1/DTD/svg11.dtd">
<!-- Generated by graphviz version 2.38.0 (20140413.2041)
 -->
<!-- Title: include/pfasst/config.hpp Pages: 1 -->
<svg width="482pt" height="140pt"
 viewBox="0.00 0.00 481.62 140.00" xmlns="http://www.w3.org/2000/svg" xmlns:xlink="http://www.w3.org/1999/xlink">
<g id="graph0" class="graph" transform="scale(1 1) rotate(0) translate(4 136)">
<title>include/pfasst/config.hpp</title>
<polygon fill="white" stroke="none" points="-4,4 -4,-136 477.62,-136 477.62,4 -4,4"/>
<!-- Node1 -->
<g id="node1" class="node"><title>Node1</title>
<polygon fill="#bfbfbf" stroke="black" points="104.62,-112.5 104.62,-131.5 230.62,-131.5 230.62,-112.5 104.62,-112.5"/>
<text text-anchor="middle" x="167.62" y="-119.5" font-family="Helvetica,sans-Serif" font-size="10.00">include/pfasst/config.hpp</text>
</g>
<!-- Node2 -->
<g id="node2" class="node"><title>Node2</title>
<polygon fill="white" stroke="#bfbfbf" points="125.62,-0.5 125.62,-19.5 175.62,-19.5 175.62,-0.5 125.62,-0.5"/>
<text text-anchor="middle" x="150.62" y="-7.5" font-family="Helvetica,sans-Serif" font-size="10.00">fstream</text>
</g>
<!-- Node1&#45;&gt;Node2 -->
<g id="edge1" class="edge"><title>Node1&#45;&gt;Node2</title>
<path fill="none" stroke="midnightblue" d="M110.66,-112.487C69.6462,-105.057 19.3829,-92.8197 6.61975,-76 -23.861,-35.8316 63.6923,-19.8346 115.476,-14.0076"/>
<polygon fill="midnightblue" stroke="midnightblue" points="116.039,-17.4679 125.619,-12.9435 115.308,-10.5061 116.039,-17.4679"/>
</g>
<!-- Node3 -->
<g id="node3" class="node"><title>Node3</title>
<polygon fill="white" stroke="#bfbfbf" points="15.6197,-56.5 15.6197,-75.5 71.6197,-75.5 71.6197,-56.5 15.6197,-56.5"/>
<text text-anchor="middle" x="43.6197" y="-63.5" font-family="Helvetica,sans-Serif" font-size="10.00">iostream</text>
</g>
<!-- Node1&#45;&gt;Node3 -->
<g id="edge2" class="edge"><title>Node1&#45;&gt;Node3</title>
<path fill="none" stroke="midnightblue" d="M147.972,-112.444C127.655,-103.596 95.7169,-89.6875 72.522,-79.5865"/>
<polygon fill="midnightblue" stroke="midnightblue" points="73.7418,-76.3002 63.176,-75.5164 70.9469,-82.7181 73.7418,-76.3002"/>
</g>
<!-- Node4 -->
<g id="node4" class="node"><title>Node4</title>
<polygon fill="white" stroke="#bfbfbf" points="90.1197,-56.5 90.1197,-75.5 131.12,-75.5 131.12,-56.5 90.1197,-56.5"/>
<text text-anchor="middle" x="110.62" y="-63.5" font-family="Helvetica,sans-Serif" font-size="10.00">string</text>
</g>
<!-- Node1&#45;&gt;Node4 -->
<g id="edge3" class="edge"><title>Node1&#45;&gt;Node4</title>
<path fill="none" stroke="midnightblue" d="M158.462,-112.324C150.118,-104.42 137.587,-92.5482 127.443,-82.9377"/>
<polygon fill="midnightblue" stroke="midnightblue" points="129.611,-80.1705 119.944,-75.8339 124.797,-85.2522 129.611,-80.1705"/>
</g>
<!-- Node5 -->
<g id="node5" class="node"><title>Node5</title>
<polygon fill="white" stroke="#bfbfbf" points="149.62,-56.5 149.62,-75.5 185.62,-75.5 185.62,-56.5 149.62,-56.5"/>
<text text-anchor="middle" x="167.62" y="-63.5" font-family="Helvetica,sans-Serif" font-size="10.00">map</text>
</g>
<!-- Node1&#45;&gt;Node5 -->
<g id="edge4" class="edge"><title>Node1&#45;&gt;Node5</title>
<path fill="none" stroke="midnightblue" d="M167.62,-112.083C167.62,-105.006 167.62,-94.8611 167.62,-85.9865"/>
<polygon fill="midnightblue" stroke="midnightblue" points="171.12,-85.751 167.62,-75.7511 164.12,-85.7511 171.12,-85.751"/>
</g>
<!-- Node6 -->
<g id="node6" class="node"><title>Node6</title>
<polygon fill="white" stroke="#bfbfbf" points="204.12,-56.5 204.12,-75.5 341.12,-75.5 341.12,-56.5 204.12,-56.5"/>
<text text-anchor="middle" x="272.62" y="-63.5" font-family="Helvetica,sans-Serif" font-size="10.00">boost/program_options.hpp</text>
</g>
<!-- Node1&#45;&gt;Node6 -->
<g id="edge5" class="edge"><title>Node1&#45;&gt;Node6</title>
<path fill="none" stroke="midnightblue" d="M184.49,-112.324C201.329,-103.664 227.426,-90.2424 246.858,-80.249"/>
<polygon fill="midnightblue" stroke="midnightblue" points="248.499,-83.3405 255.792,-75.6545 245.298,-77.1155 248.499,-83.3405"/>
</g>
<!-- Node7 -->
<g id="node7" class="node"><title>Node7</title>
<g id="a_node7"><a xlink:href="../../d5/d84/config__impl_8hpp.html" target="_top" xlink:title="pfasst/config_impl.hpp">
<polygon fill="white" stroke="black" points="359.62,-56.5 359.62,-75.5 473.62,-75.5 473.62,-56.5 359.62,-56.5"/>
<text text-anchor="middle" x="416.62" y="-63.5" font-family="Helvetica,sans-Serif" font-size="10.00">pfasst/config_impl.hpp</text>
</a>
</g>
</g>
<!-- Node1&#45;&gt;Node7 -->
<g id="edge6" class="edge"><title>Node1&#45;&gt;Node7</title>
<path fill="none" stroke="midnightblue" d="M201.986,-112.444C243.444,-103.004 313.405,-87.802 362.197,-77.6111"/>
<polygon fill="midnightblue" stroke="midnightblue" points="363.192,-80.9792 372.27,-75.5164 361.766,-74.1259 363.192,-80.9792"/>
</g>
<!-- Node7&#45;&gt;Node1 -->
<g id="edge7" class="edge"><title>Node7&#45;&gt;Node1</title>
<path fill="none" stroke="midnightblue" d="M382.43,-75.5164C341.052,-84.94 271.102,-100.141 222.25,-110.346"/>
<polygon fill="midnightblue" stroke="midnightblue" points="221.241,-106.98 212.163,-112.444 222.667,-113.834 221.241,-106.98"/>
</g>
<!-- Node7&#45;&gt;Node2 -->
<g id="edge8" class="edge"><title>Node7&#45;&gt;Node2</title>
<path fill="none" stroke="midnightblue" d="M374.471,-56.4435C322.336,-45.8597 234.524,-28.0332 185.822,-18.1463"/>
<polygon fill="midnightblue" stroke="midnightblue" points="186.259,-14.6637 175.762,-16.1041 184.866,-21.5237 186.259,-14.6637"/>
</g>
<!-- Node8 -->
<g id="node8" class="node"><title>Node8</title>
<polygon fill="white" stroke="#bfbfbf" points="358.12,-0.5 358.12,-19.5 411.12,-19.5 411.12,-0.5 358.12,-0.5"/>
<text text-anchor="middle" x="384.62" y="-7.5" font-family="Helvetica,sans-Serif" font-size="10.00">sstream</text>
</g>
<!-- Node7&#45;&gt;Node8 -->
<g id="edge9" class="edge"><title>Node7&#45;&gt;Node8</title>
<path fill="none" stroke="midnightblue" d="M411.336,-56.083C406.909,-48.6127 400.456,-37.7244 395.002,-28.5199"/>
<polygon fill="midnightblue" stroke="midnightblue" points="397.915,-26.5697 389.806,-19.7511 391.893,-30.1383 397.915,-26.5697"/>
</g>
<!-- Node9 -->
<g id="node9" class="node"><title>Node9</title>
<polygon fill="white" stroke="#bfbfbf" points="429.62,-0.5 429.62,-19.5 467.62,-19.5 467.62,-0.5 429.62,-0.5"/>
<text text-anchor="middle" x="448.62" y="-7.5" font-family="Helvetica,sans-Serif" font-size="10.00">utility</text>
</g>
<!-- Node7&#45;&gt;Node9 -->
<g id="edge10" class="edge"><title>Node7&#45;&gt;Node9</title>
<path fill="none" stroke="midnightblue" d="M421.904,-56.083C426.331,-48.6127 432.783,-37.7244 438.238,-28.5199"/>
<polygon fill="midnightblue" stroke="midnightblue" points="441.347,-30.1383 443.434,-19.7511 435.325,-26.5697 441.347,-30.1383"/>
</g>
</g>
</svg>
