<?xml version="1.0" encoding="UTF-8" standalone="no"?>
<!DOCTYPE svg PUBLIC "-//W3C//DTD SVG 1.1//EN"
 "http://www.w3.org/Graphics/SVG/1.1/DTD/svg11.dtd">
<!-- Generated by graphviz version 2.38.0 (20140413.2041)
 -->
<!-- Title: boris_analyse.distance Pages: 1 -->
<svg width="293pt" height="78pt"
 viewBox="0.00 0.00 293.00 77.50" xmlns="http://www.w3.org/2000/svg" xmlns:xlink="http://www.w3.org/1999/xlink">
<g id="graph0" class="graph" transform="scale(1 1) rotate(0) translate(4 73.5)">
<title>boris_analyse.distance</title>
<polygon fill="white" stroke="none" points="-4,4 -4,-73.5 289,-73.5 289,4 -4,4"/>
<!-- Node1 -->
<g id="node1" class="node"><title>Node1</title>
<polygon fill="#bfbfbf" stroke="black" points="0,-22.5 0,-41.5 120,-41.5 120,-22.5 0,-22.5"/>
<text text-anchor="middle" x="60" y="-29.5" font-family="Helvetica,sans-Serif" font-size="10.00">boris_analyse.distance</text>
</g>
<!-- Node2 -->
<g id="node2" class="node"><title>Node2</title>
<g id="a_node2"><a xlink:href="../../d6/daf/classboris__analyse_1_1BorisData.html#a184076e9c8468c3fdaf22b006712375e" target="_top" xlink:title="boris_analyse.BorisData.\l_read_data">
<polygon fill="white" stroke="black" points="156,-39 156,-69 285,-69 285,-39 156,-39"/>
<text text-anchor="start" x="164" y="-57" font-family="Helvetica,sans-Serif" font-size="10.00">boris_analyse.BorisData.</text>
<text text-anchor="middle" x="220.5" y="-46" font-family="Helvetica,sans-Serif" font-size="10.00">_read_data</text>
</a>
</g>
</g>
<!-- Node1&#45;&gt;Node2 -->
<g id="edge1" class="edge"><title>Node1&#45;&gt;Node2</title>
<path fill="none" stroke="midnightblue" d="M130.021,-41.5803C138.627,-42.7747 147.396,-43.9918 155.913,-45.1741"/>
<polygon fill="midnightblue" stroke="midnightblue" points="130.406,-38.1001 120.02,-40.192 129.443,-45.0337 130.406,-38.1001"/>
</g>
<!-- Node3 -->
<g id="node3" class="node"><title>Node3</title>
<g id="a_node3"><a xlink:href="../../d8/d1a/test__boris__particle__util_8cpp.html#a6e9dd1c0c66b75e53226dbc016aa41c6" target="_top" xlink:title="TEST">
<polygon fill="white" stroke="black" points="198.5,-0.5 198.5,-19.5 242.5,-19.5 242.5,-0.5 198.5,-0.5"/>
<text text-anchor="middle" x="220.5" y="-7.5" font-family="Helvetica,sans-Serif" font-size="10.00">TEST</text>
</a>
</g>
</g>
<!-- Node1&#45;&gt;Node3 -->
<g id="edge2" class="edge"><title>Node1&#45;&gt;Node3</title>
<path fill="none" stroke="midnightblue" d="M130.123,-22.4057C154.811,-18.9789 180.833,-15.367 198.391,-12.93"/>
<polygon fill="midnightblue" stroke="midnightblue" points="129.443,-18.9663 120.02,-23.808 130.406,-25.8999 129.443,-18.9663"/>
</g>
</g>
</svg>
