<?xml version="1.0" encoding="UTF-8" standalone="no"?>
<!DOCTYPE svg PUBLIC "-//W3C//DTD SVG 1.1//EN"
 "http://www.w3.org/Graphics/SVG/1.1/DTD/svg11.dtd">
<!-- Generated by graphviz version 2.38.0 (20140413.2041)
 -->
<!-- Title: src/pfasst/encap/vector_impl.hpp Pages: 1 -->
<svg width="742pt" height="498pt"
 viewBox="0.00 0.00 742.37 498.00" xmlns="http://www.w3.org/2000/svg" xmlns:xlink="http://www.w3.org/1999/xlink">
<g id="graph0" class="graph" transform="scale(1 1) rotate(0) translate(4 494)">
<title>src/pfasst/encap/vector_impl.hpp</title>
<polygon fill="white" stroke="none" points="-4,4 -4,-494 738.365,-494 738.365,4 -4,4"/>
<!-- Node1 -->
<g id="node1" class="node"><title>Node1</title>
<polygon fill="#bfbfbf" stroke="black" points="219.5,-459.5 219.5,-489.5 340.5,-489.5 340.5,-459.5 219.5,-459.5"/>
<text text-anchor="start" x="227.5" y="-477.5" font-family="Helvetica,sans-Serif" font-size="10.00">src/pfasst/encap/vector</text>
<text text-anchor="middle" x="280" y="-466.5" font-family="Helvetica,sans-Serif" font-size="10.00">_impl.hpp</text>
</g>
<!-- Node2 -->
<g id="node2" class="node"><title>Node2</title>
<polygon fill="white" stroke="#bfbfbf" points="150,-403.5 150,-422.5 208,-422.5 208,-403.5 150,-403.5"/>
<text text-anchor="middle" x="179" y="-410.5" font-family="Helvetica,sans-Serif" font-size="10.00">algorithm</text>
</g>
<!-- Node1&#45;&gt;Node2 -->
<g id="edge1" class="edge"><title>Node1&#45;&gt;Node2</title>
<path fill="none" stroke="midnightblue" d="M256.064,-459.399C239.875,-449.862 218.593,-437.325 202.497,-427.842"/>
<polygon fill="midnightblue" stroke="midnightblue" points="204.089,-424.718 193.696,-422.658 200.536,-430.749 204.089,-424.718"/>
</g>
<!-- Node3 -->
<g id="node3" class="node"><title>Node3</title>
<polygon fill="white" stroke="#bfbfbf" points="222,-168.5 222,-187.5 272,-187.5 272,-168.5 222,-168.5"/>
<text text-anchor="middle" x="247" y="-175.5" font-family="Helvetica,sans-Serif" font-size="10.00">cassert</text>
</g>
<!-- Node1&#45;&gt;Node3 -->
<g id="edge2" class="edge"><title>Node1&#45;&gt;Node3</title>
<path fill="none" stroke="midnightblue" d="M270.669,-459.218C257.753,-438.035 236,-396.624 236,-358 236,-358 236,-358 236,-294.5 236,-260.209 240.864,-220.449 244.124,-197.657"/>
<polygon fill="midnightblue" stroke="midnightblue" points="247.6,-198.072 245.607,-187.667 240.676,-197.044 247.6,-198.072"/>
</g>
<!-- Node4 -->
<g id="node4" class="node"><title>Node4</title>
<g id="a_node4"><a xlink:href="../../da/d16/vector_8hpp.html" target="_top" xlink:title="pfasst/encap/vector.hpp">
<polygon fill="white" stroke="black" points="264,-403.5 264,-422.5 386,-422.5 386,-403.5 264,-403.5"/>
<text text-anchor="middle" x="325" y="-410.5" font-family="Helvetica,sans-Serif" font-size="10.00">pfasst/encap/vector.hpp</text>
</a>
</g>
</g>
<!-- Node1&#45;&gt;Node4 -->
<g id="edge3" class="edge"><title>Node1&#45;&gt;Node4</title>
<path fill="none" stroke="midnightblue" d="M284.824,-459.399C290.309,-450.664 298.734,-439.413 306.58,-430.296"/>
<polygon fill="midnightblue" stroke="midnightblue" points="309.387,-432.412 313.523,-422.658 304.207,-427.704 309.387,-432.412"/>
</g>
<!-- Node4&#45;&gt;Node1 -->
<g id="edge40" class="edge"><title>Node4&#45;&gt;Node1</title>
<path fill="none" stroke="midnightblue" d="M323.381,-422.658C319.269,-430.257 311.197,-441.636 303.015,-451.704"/>
<polygon fill="midnightblue" stroke="midnightblue" points="300.291,-449.504 296.504,-459.399 305.635,-454.026 300.291,-449.504"/>
</g>
<!-- Node5 -->
<g id="node5" class="node"><title>Node5</title>
<polygon fill="white" stroke="#bfbfbf" points="674.5,-168.5 674.5,-187.5 727.5,-187.5 727.5,-168.5 674.5,-168.5"/>
<text text-anchor="middle" x="701" y="-175.5" font-family="Helvetica,sans-Serif" font-size="10.00">memory</text>
</g>
<!-- Node4&#45;&gt;Node5 -->
<g id="edge4" class="edge"><title>Node4&#45;&gt;Node5</title>
<path fill="none" stroke="midnightblue" d="M386.297,-404.304C484.634,-390.669 671.078,-359.096 715,-311 741.282,-282.22 735.776,-261.728 726,-224 723.454,-214.175 718.247,-204.212 713.241,-196.166"/>
<polygon fill="midnightblue" stroke="midnightblue" points="716.08,-194.114 707.629,-187.725 710.251,-197.99 716.08,-194.114"/>
</g>
<!-- Node6 -->
<g id="node6" class="node"><title>Node6</title>
<polygon fill="white" stroke="#bfbfbf" points="264,-286 264,-305 308,-305 308,-286 264,-286"/>
<text text-anchor="middle" x="286" y="-293" font-family="Helvetica,sans-Serif" font-size="10.00">vector</text>
</g>
<!-- Node4&#45;&gt;Node6 -->
<g id="edge5" class="edge"><title>Node4&#45;&gt;Node6</title>
<path fill="none" stroke="midnightblue" d="M321.59,-403.428C318.045,-394.414 312.408,-379.791 308,-367 301.942,-349.419 295.687,-329.131 291.403,-314.846"/>
<polygon fill="midnightblue" stroke="midnightblue" points="294.75,-313.825 288.546,-305.236 288.041,-315.819 294.75,-313.825"/>
</g>
<!-- Node7 -->
<g id="node7" class="node"><title>Node7</title>
<g id="a_node7"><a xlink:href="../../d8/d85/encapsulation_8hpp.html" target="_top" xlink:title="pfasst/encap/encapsulation.hpp">
<polygon fill="white" stroke="black" points="317.5,-347.5 317.5,-366.5 474.5,-366.5 474.5,-347.5 317.5,-347.5"/>
<text text-anchor="middle" x="396" y="-354.5" font-family="Helvetica,sans-Serif" font-size="10.00">pfasst/encap/encapsulation.hpp</text>
</a>
</g>
</g>
<!-- Node4&#45;&gt;Node7 -->
<g id="edge6" class="edge"><title>Node4&#45;&gt;Node7</title>
<path fill="none" stroke="midnightblue" d="M336.407,-403.324C347.109,-395.185 363.341,-382.839 376.163,-373.087"/>
<polygon fill="midnightblue" stroke="midnightblue" points="378.544,-375.673 384.385,-366.834 374.307,-370.102 378.544,-375.673"/>
</g>
<!-- Node7&#45;&gt;Node5 -->
<g id="edge7" class="edge"><title>Node7&#45;&gt;Node5</title>
<path fill="none" stroke="midnightblue" d="M474.836,-354.88C552.793,-351.949 664.458,-342.229 693,-311 721.305,-280.031 713.276,-226.013 706.363,-197.634"/>
<polygon fill="midnightblue" stroke="midnightblue" points="709.702,-196.57 703.757,-187.801 702.936,-198.364 709.702,-196.57"/>
</g>
<!-- Node7&#45;&gt;Node6 -->
<g id="edge8" class="edge"><title>Node7&#45;&gt;Node6</title>
<path fill="none" stroke="midnightblue" d="M380.24,-347.475C362.024,-337.622 331.827,-321.288 310.532,-309.77"/>
<polygon fill="midnightblue" stroke="midnightblue" points="312.192,-306.688 301.731,-305.009 308.862,-312.845 312.192,-306.688"/>
</g>
<!-- Node8 -->
<g id="node8" class="node"><title>Node8</title>
<polygon fill="white" stroke="#bfbfbf" points="608.5,-286 608.5,-305 683.5,-305 683.5,-286 608.5,-286"/>
<text text-anchor="middle" x="646" y="-293" font-family="Helvetica,sans-Serif" font-size="10.00">Eigen/Dense</text>
</g>
<!-- Node7&#45;&gt;Node8 -->
<g id="edge9" class="edge"><title>Node7&#45;&gt;Node8</title>
<path fill="none" stroke="midnightblue" d="M440.044,-347.454C481.545,-339.126 545.341,-325.613 600,-311 603.42,-310.086 606.966,-309.078 610.501,-308.032"/>
<polygon fill="midnightblue" stroke="midnightblue" points="611.786,-311.299 620.329,-305.032 609.742,-304.604 611.786,-311.299"/>
</g>
<!-- Node9 -->
<g id="node9" class="node"><title>Node9</title>
<g id="a_node9"><a xlink:href="../../d1/d1b/interfaces_8hpp.html" target="_top" xlink:title="interfaces for SDC/MLSDC/PFASST algorithms. ">
<polygon fill="white" stroke="black" points="483.5,-286 483.5,-305 590.5,-305 590.5,-286 483.5,-286"/>
<text text-anchor="middle" x="537" y="-293" font-family="Helvetica,sans-Serif" font-size="10.00">pfasst/interfaces.hpp</text>
</a>
</g>
</g>
<!-- Node7&#45;&gt;Node9 -->
<g id="edge10" class="edge"><title>Node7&#45;&gt;Node9</title>
<path fill="none" stroke="midnightblue" d="M416.202,-347.475C440.074,-337.401 480.002,-320.553 507.373,-309.002"/>
<polygon fill="midnightblue" stroke="midnightblue" points="508.983,-312.122 516.836,-305.009 506.262,-305.672 508.983,-312.122"/>
</g>
<!-- Node26 -->
<g id="node26" class="node"><title>Node26</title>
<g id="a_node26"><a xlink:href="../../d1/d99/encapsulation__impl_8hpp.html" target="_top" xlink:title="pfasst/encap/encapsulation\l_impl.hpp">
<polygon fill="white" stroke="black" points="326.5,-280.5 326.5,-310.5 465.5,-310.5 465.5,-280.5 326.5,-280.5"/>
<text text-anchor="start" x="334.5" y="-298.5" font-family="Helvetica,sans-Serif" font-size="10.00">pfasst/encap/encapsulation</text>
<text text-anchor="middle" x="396" y="-287.5" font-family="Helvetica,sans-Serif" font-size="10.00">_impl.hpp</text>
</a>
</g>
</g>
<!-- Node7&#45;&gt;Node26 -->
<g id="edge37" class="edge"><title>Node7&#45;&gt;Node26</title>
<path fill="none" stroke="midnightblue" d="M391.099,-347.475C389.572,-340.471 388.991,-330.192 389.356,-320.696"/>
<polygon fill="midnightblue" stroke="midnightblue" points="392.861,-320.77 390.17,-310.523 385.883,-320.212 392.861,-320.77"/>
</g>
<!-- Node9&#45;&gt;Node5 -->
<g id="edge11" class="edge"><title>Node9&#45;&gt;Node5</title>
<path fill="none" stroke="midnightblue" d="M566.01,-285.898C590.165,-277.764 624.594,-263.836 650,-244 666.902,-230.804 681.456,-210.853 690.64,-196.537"/>
<polygon fill="midnightblue" stroke="midnightblue" points="693.833,-198.027 696.103,-187.678 687.875,-194.353 693.833,-198.027"/>
</g>
<!-- Node10 -->
<g id="node10" class="node"><title>Node10</title>
<polygon fill="white" stroke="#bfbfbf" points="548,-224.5 548,-243.5 608,-243.5 608,-224.5 548,-224.5"/>
<text text-anchor="middle" x="578" y="-231.5" font-family="Helvetica,sans-Serif" font-size="10.00">stdexcept</text>
</g>
<!-- Node9&#45;&gt;Node10 -->
<g id="edge12" class="edge"><title>Node9&#45;&gt;Node10</title>
<path fill="none" stroke="midnightblue" d="M542.874,-285.975C548.963,-277.138 558.645,-263.089 566.303,-251.975"/>
<polygon fill="midnightblue" stroke="midnightblue" points="569.344,-253.729 572.137,-243.509 563.58,-249.758 569.344,-253.729"/>
</g>
<!-- Node11 -->
<g id="node11" class="node"><title>Node11</title>
<polygon fill="white" stroke="#bfbfbf" points="558.5,-56.5 558.5,-75.5 599.5,-75.5 599.5,-56.5 558.5,-56.5"/>
<text text-anchor="middle" x="579" y="-63.5" font-family="Helvetica,sans-Serif" font-size="10.00">string</text>
</g>
<!-- Node9&#45;&gt;Node11 -->
<g id="edge13" class="edge"><title>Node9&#45;&gt;Node11</title>
<path fill="none" stroke="midnightblue" d="M562.982,-285.853C581.696,-278.102 605.581,-264.712 617,-244 646.279,-190.892 609.834,-117.288 590.107,-84.2553"/>
<polygon fill="midnightblue" stroke="midnightblue" points="593.066,-82.386 584.833,-75.7177 587.111,-86.0648 593.066,-82.386"/>
</g>
<!-- Node12 -->
<g id="node12" class="node"><title>Node12</title>
<g id="a_node12"><a xlink:href="../../d8/dc4/interfaces__impl_8hpp.html" target="_top" xlink:title="pfasst/interfaces_impl.hpp">
<polygon fill="white" stroke="black" points="398.5,-224.5 398.5,-243.5 529.5,-243.5 529.5,-224.5 398.5,-224.5"/>
<text text-anchor="middle" x="464" y="-231.5" font-family="Helvetica,sans-Serif" font-size="10.00">pfasst/interfaces_impl.hpp</text>
</a>
</g>
</g>
<!-- Node9&#45;&gt;Node12 -->
<g id="edge14" class="edge"><title>Node9&#45;&gt;Node12</title>
<path fill="none" stroke="midnightblue" d="M521.64,-285.975C508.361,-276.785 489.792,-261.956 477.182,-250.656"/>
<polygon fill="midnightblue" stroke="midnightblue" points="479.236,-247.785 469.543,-243.509 474.454,-252.897 479.236,-247.785"/>
</g>
<!-- Node12&#45;&gt;Node3 -->
<g id="edge16" class="edge"><title>Node12&#45;&gt;Node3</title>
<path fill="none" stroke="midnightblue" d="M429.616,-224.444C389.183,-214.382 322.446,-197.775 281.824,-187.666"/>
<polygon fill="midnightblue" stroke="midnightblue" points="282.64,-184.262 272.091,-185.244 280.949,-191.055 282.64,-184.262"/>
</g>
<!-- Node12&#45;&gt;Node5 -->
<g id="edge17" class="edge"><title>Node12&#45;&gt;Node5</title>
<path fill="none" stroke="midnightblue" d="M501.553,-224.444C546.236,-214.263 620.33,-197.38 664.531,-187.309"/>
<polygon fill="midnightblue" stroke="midnightblue" points="665.315,-190.721 674.287,-185.086 663.76,-183.896 665.315,-190.721"/>
</g>
<!-- Node12&#45;&gt;Node9 -->
<g id="edge15" class="edge"><title>Node12&#45;&gt;Node9</title>
<path fill="none" stroke="midnightblue" d="M479.337,-243.509C492.611,-252.693 511.179,-267.52 523.796,-278.825"/>
<polygon fill="midnightblue" stroke="midnightblue" points="521.747,-281.701 531.441,-285.975 526.529,-276.588 521.747,-281.701"/>
</g>
<!-- Node12&#45;&gt;Node11 -->
<g id="edge18" class="edge"><title>Node12&#45;&gt;Node11</title>
<path fill="none" stroke="midnightblue" d="M477.329,-224.327C489.699,-215.909 508.223,-202.334 522,-188 543.195,-165.948 549.027,-159.698 562,-132 568.957,-117.146 573.401,-98.9972 575.993,-85.6558"/>
<polygon fill="midnightblue" stroke="midnightblue" points="579.448,-86.2153 577.749,-75.7576 572.556,-84.9922 579.448,-86.2153"/>
</g>
<!-- Node13 -->
<g id="node13" class="node"><title>Node13</title>
<g id="a_node13"><a xlink:href="../../d5/d82/globals_8hpp.html" target="_top" xlink:title="pfasst/globals.hpp">
<polygon fill="white" stroke="black" points="300.5,-168.5 300.5,-187.5 397.5,-187.5 397.5,-168.5 300.5,-168.5"/>
<text text-anchor="middle" x="349" y="-175.5" font-family="Helvetica,sans-Serif" font-size="10.00">pfasst/globals.hpp</text>
</a>
</g>
</g>
<!-- Node12&#45;&gt;Node13 -->
<g id="edge19" class="edge"><title>Node12&#45;&gt;Node13</title>
<path fill="none" stroke="midnightblue" d="M445.778,-224.444C427.104,-215.675 397.844,-201.935 376.383,-191.858"/>
<polygon fill="midnightblue" stroke="midnightblue" points="377.676,-188.599 367.137,-187.516 374.701,-194.935 377.676,-188.599"/>
</g>
<!-- Node14 -->
<g id="node14" class="node"><title>Node14</title>
<g id="a_node14"><a xlink:href="../../d0/da9/logging_8hpp.html" target="_top" xlink:title="pfasst/logging.hpp">
<polygon fill="white" stroke="black" points="415,-168.5 415,-187.5 513,-187.5 513,-168.5 415,-168.5"/>
<text text-anchor="middle" x="464" y="-175.5" font-family="Helvetica,sans-Serif" font-size="10.00">pfasst/logging.hpp</text>
</a>
</g>
</g>
<!-- Node12&#45;&gt;Node14 -->
<g id="edge20" class="edge"><title>Node12&#45;&gt;Node14</title>
<path fill="none" stroke="midnightblue" d="M464,-224.083C464,-217.006 464,-206.861 464,-197.986"/>
<polygon fill="midnightblue" stroke="midnightblue" points="467.5,-197.751 464,-187.751 460.5,-197.751 467.5,-197.751"/>
</g>
<!-- Node14&#45;&gt;Node11 -->
<g id="edge23" class="edge"><title>Node14&#45;&gt;Node11</title>
<path fill="none" stroke="midnightblue" d="M484.898,-168.382C501.591,-160.711 524.795,-148.203 541,-132 554.406,-118.596 564.819,-99.5172 571.327,-85.4958"/>
<polygon fill="midnightblue" stroke="midnightblue" points="574.708,-86.5003 575.527,-75.9371 568.3,-83.684 574.708,-86.5003"/>
</g>
<!-- Node15 -->
<g id="node15" class="node"><title>Node15</title>
<polygon fill="white" stroke="#bfbfbf" points="81,-112.5 81,-131.5 133,-131.5 133,-112.5 81,-112.5"/>
<text text-anchor="middle" x="107" y="-119.5" font-family="Helvetica,sans-Serif" font-size="10.00">iomanip</text>
</g>
<!-- Node14&#45;&gt;Node15 -->
<g id="edge21" class="edge"><title>Node14&#45;&gt;Node15</title>
<path fill="none" stroke="midnightblue" d="M414.962,-169.326C411.93,-168.871 408.924,-168.426 406,-168 292.023,-151.387 259.946,-154.588 143.337,-132.073"/>
<polygon fill="midnightblue" stroke="midnightblue" points="143.784,-128.594 133.299,-130.112 142.442,-135.464 143.784,-128.594"/>
</g>
<!-- Node16 -->
<g id="node16" class="node"><title>Node16</title>
<polygon fill="white" stroke="#bfbfbf" points="0,-56.5 0,-75.5 56,-75.5 56,-56.5 0,-56.5"/>
<text text-anchor="middle" x="28" y="-63.5" font-family="Helvetica,sans-Serif" font-size="10.00">iostream</text>
</g>
<!-- Node14&#45;&gt;Node16 -->
<g id="edge22" class="edge"><title>Node14&#45;&gt;Node16</title>
<path fill="none" stroke="midnightblue" d="M414.975,-169.228C411.94,-168.798 408.93,-168.385 406,-168 331.984,-158.274 135.97,-170.48 72,-132 54.1631,-121.27 41.9468,-100.203 34.9942,-84.9552"/>
<polygon fill="midnightblue" stroke="midnightblue" points="38.1287,-83.3805 31.0174,-75.5269 31.679,-86.1011 38.1287,-83.3805"/>
</g>
<!-- Node17 -->
<g id="node17" class="node"><title>Node17</title>
<polygon fill="white" stroke="#bfbfbf" points="260.5,-112.5 260.5,-131.5 391.5,-131.5 391.5,-112.5 260.5,-112.5"/>
<text text-anchor="middle" x="326" y="-119.5" font-family="Helvetica,sans-Serif" font-size="10.00">boost/algorithm/string.hpp</text>
</g>
<!-- Node14&#45;&gt;Node17 -->
<g id="edge24" class="edge"><title>Node14&#45;&gt;Node17</title>
<path fill="none" stroke="midnightblue" d="M442.133,-168.444C419.221,-159.478 383.025,-145.314 357.134,-135.183"/>
<polygon fill="midnightblue" stroke="midnightblue" points="358.352,-131.901 347.764,-131.516 355.801,-138.42 358.352,-131.901"/>
</g>
<!-- Node18 -->
<g id="node18" class="node"><title>Node18</title>
<g id="a_node18"><a xlink:href="../../d8/dfd/config_8hpp.html" target="_top" xlink:title="pfasst/config.hpp">
<polygon fill="white" stroke="black" points="151.5,-112.5 151.5,-131.5 242.5,-131.5 242.5,-112.5 151.5,-112.5"/>
<text text-anchor="middle" x="197" y="-119.5" font-family="Helvetica,sans-Serif" font-size="10.00">pfasst/config.hpp</text>
</a>
</g>
</g>
<!-- Node14&#45;&gt;Node18 -->
<g id="edge25" class="edge"><title>Node14&#45;&gt;Node18</title>
<path fill="none" stroke="midnightblue" d="M421.693,-168.444C374.92,-158.984 299.54,-143.738 249.15,-133.547"/>
<polygon fill="midnightblue" stroke="midnightblue" points="249.604,-130.068 239.109,-131.516 248.217,-136.929 249.604,-130.068"/>
</g>
<!-- Node25 -->
<g id="node25" class="node"><title>Node25</title>
<polygon fill="white" stroke="#bfbfbf" points="410,-112.5 410,-131.5 532,-131.5 532,-112.5 410,-112.5"/>
<text text-anchor="middle" x="471" y="-119.5" font-family="Helvetica,sans-Serif" font-size="10.00">pfasst/easylogging++.h</text>
</g>
<!-- Node14&#45;&gt;Node25 -->
<g id="edge36" class="edge"><title>Node14&#45;&gt;Node25</title>
<path fill="none" stroke="midnightblue" d="M465.156,-168.083C466.084,-160.927 467.418,-150.635 468.577,-141.691"/>
<polygon fill="midnightblue" stroke="midnightblue" points="472.051,-142.118 469.866,-131.751 465.109,-141.218 472.051,-142.118"/>
</g>
<!-- Node18&#45;&gt;Node11 -->
<g id="edge28" class="edge"><title>Node18&#45;&gt;Node11</title>
<path fill="none" stroke="midnightblue" d="M242.65,-113.297C245.474,-112.85 248.275,-112.414 251,-112 360.133,-95.4229 490.116,-78.3927 548.25,-70.9183"/>
<polygon fill="midnightblue" stroke="midnightblue" points="548.774,-74.3799 558.247,-69.6362 547.883,-67.4368 548.774,-74.3799"/>
</g>
<!-- Node18&#45;&gt;Node16 -->
<g id="edge27" class="edge"><title>Node18&#45;&gt;Node16</title>
<path fill="none" stroke="midnightblue" d="M170.221,-112.444C141.667,-103.32 96.2674,-88.8133 64.4631,-78.6509"/>
<polygon fill="midnightblue" stroke="midnightblue" points="65.2441,-75.2262 54.6533,-75.5164 63.1135,-81.8941 65.2441,-75.2262"/>
</g>
<!-- Node19 -->
<g id="node19" class="node"><title>Node19</title>
<polygon fill="white" stroke="#bfbfbf" points="395,-0.5 395,-19.5 445,-19.5 445,-0.5 395,-0.5"/>
<text text-anchor="middle" x="420" y="-7.5" font-family="Helvetica,sans-Serif" font-size="10.00">fstream</text>
</g>
<!-- Node18&#45;&gt;Node19 -->
<g id="edge26" class="edge"><title>Node18&#45;&gt;Node19</title>
<path fill="none" stroke="midnightblue" d="M242.743,-112.515C302.758,-101.191 401.199,-81.8814 407,-76 418.861,-63.9754 421.395,-44.3743 421.398,-29.8362"/>
<polygon fill="midnightblue" stroke="midnightblue" points="424.882,-29.3569 420.987,-19.5038 417.887,-29.6349 424.882,-29.3569"/>
</g>
<!-- Node20 -->
<g id="node20" class="node"><title>Node20</title>
<polygon fill="white" stroke="#bfbfbf" points="74,-56.5 74,-75.5 110,-75.5 110,-56.5 74,-56.5"/>
<text text-anchor="middle" x="92" y="-63.5" font-family="Helvetica,sans-Serif" font-size="10.00">map</text>
</g>
<!-- Node18&#45;&gt;Node20 -->
<g id="edge29" class="edge"><title>Node18&#45;&gt;Node20</title>
<path fill="none" stroke="midnightblue" d="M180.13,-112.324C163.291,-103.664 137.193,-90.2424 117.762,-80.249"/>
<polygon fill="midnightblue" stroke="midnightblue" points="119.322,-77.1155 108.828,-75.6545 116.12,-83.3405 119.322,-77.1155"/>
</g>
<!-- Node21 -->
<g id="node21" class="node"><title>Node21</title>
<polygon fill="white" stroke="#bfbfbf" points="128.5,-56.5 128.5,-75.5 265.5,-75.5 265.5,-56.5 128.5,-56.5"/>
<text text-anchor="middle" x="197" y="-63.5" font-family="Helvetica,sans-Serif" font-size="10.00">boost/program_options.hpp</text>
</g>
<!-- Node18&#45;&gt;Node21 -->
<g id="edge30" class="edge"><title>Node18&#45;&gt;Node21</title>
<path fill="none" stroke="midnightblue" d="M197,-112.083C197,-105.006 197,-94.8611 197,-85.9865"/>
<polygon fill="midnightblue" stroke="midnightblue" points="200.5,-85.751 197,-75.7511 193.5,-85.7511 200.5,-85.751"/>
</g>
<!-- Node22 -->
<g id="node22" class="node"><title>Node22</title>
<g id="a_node22"><a xlink:href="../../d5/d84/config__impl_8hpp.html" target="_top" xlink:title="pfasst/config_impl.hpp">
<polygon fill="white" stroke="black" points="284,-56.5 284,-75.5 398,-75.5 398,-56.5 284,-56.5"/>
<text text-anchor="middle" x="341" y="-63.5" font-family="Helvetica,sans-Serif" font-size="10.00">pfasst/config_impl.hpp</text>
</a>
</g>
</g>
<!-- Node18&#45;&gt;Node22 -->
<g id="edge31" class="edge"><title>Node18&#45;&gt;Node22</title>
<path fill="none" stroke="midnightblue" d="M214.728,-112.444C236.864,-103.399 274.883,-89.064 303.515,-78.9158"/>
<polygon fill="midnightblue" stroke="midnightblue" points="304.931,-82.1283 313.21,-75.5164 302.615,-75.5226 304.931,-82.1283"/>
</g>
<!-- Node22&#45;&gt;Node18 -->
<g id="edge32" class="edge"><title>Node22&#45;&gt;Node18</title>
<path fill="none" stroke="midnightblue" d="M323.369,-75.5164C301.281,-84.5457 263.272,-98.8786 234.612,-109.039"/>
<polygon fill="midnightblue" stroke="midnightblue" points="233.184,-105.831 224.906,-112.444 235.501,-112.436 233.184,-105.831"/>
</g>
<!-- Node22&#45;&gt;Node19 -->
<g id="edge33" class="edge"><title>Node22&#45;&gt;Node19</title>
<path fill="none" stroke="midnightblue" d="M353.693,-56.324C365.901,-47.979 384.578,-35.2122 399.003,-25.3524"/>
<polygon fill="midnightblue" stroke="midnightblue" points="401.058,-28.1871 407.339,-19.6545 397.108,-22.4082 401.058,-28.1871"/>
</g>
<!-- Node23 -->
<g id="node23" class="node"><title>Node23</title>
<polygon fill="white" stroke="#bfbfbf" points="256.5,-0.5 256.5,-19.5 309.5,-19.5 309.5,-0.5 256.5,-0.5"/>
<text text-anchor="middle" x="283" y="-7.5" font-family="Helvetica,sans-Serif" font-size="10.00">sstream</text>
</g>
<!-- Node22&#45;&gt;Node23 -->
<g id="edge34" class="edge"><title>Node22&#45;&gt;Node23</title>
<path fill="none" stroke="midnightblue" d="M331.681,-56.324C323.107,-48.3414 310.188,-36.3128 299.812,-26.6529"/>
<polygon fill="midnightblue" stroke="midnightblue" points="302.192,-24.0865 292.488,-19.8339 297.422,-29.2098 302.192,-24.0865"/>
</g>
<!-- Node24 -->
<g id="node24" class="node"><title>Node24</title>
<polygon fill="white" stroke="#bfbfbf" points="328,-0.5 328,-19.5 366,-19.5 366,-0.5 328,-0.5"/>
<text text-anchor="middle" x="347" y="-7.5" font-family="Helvetica,sans-Serif" font-size="10.00">utility</text>
</g>
<!-- Node22&#45;&gt;Node24 -->
<g id="edge35" class="edge"><title>Node22&#45;&gt;Node24</title>
<path fill="none" stroke="midnightblue" d="M341.991,-56.083C342.786,-48.9272 343.929,-38.6353 344.923,-29.6911"/>
<polygon fill="midnightblue" stroke="midnightblue" points="348.402,-30.0765 346.028,-19.7511 341.445,-29.3034 348.402,-30.0765"/>
</g>
<!-- Node26&#45;&gt;Node7 -->
<g id="edge38" class="edge"><title>Node26&#45;&gt;Node7</title>
<path fill="none" stroke="midnightblue" d="M401.83,-310.523C402.873,-318.586 403.029,-328.813 402.299,-337.526"/>
<polygon fill="midnightblue" stroke="midnightblue" points="398.827,-337.085 400.901,-347.475 405.759,-338.06 398.827,-337.085"/>
</g>
<!-- Node26&#45;&gt;Node13 -->
<g id="edge39" class="edge"><title>Node26&#45;&gt;Node13</title>
<path fill="none" stroke="midnightblue" d="M390.237,-280.337C381.692,-259.338 365.666,-219.955 356.308,-196.958"/>
<polygon fill="midnightblue" stroke="midnightblue" points="359.539,-195.613 352.528,-187.669 353.055,-198.251 359.539,-195.613"/>
</g>
</g>
</svg>
