<?xml version="1.0" encoding="UTF-8" standalone="no"?>
<!DOCTYPE svg PUBLIC "-//W3C//DTD SVG 1.1//EN"
 "http://www.w3.org/Graphics/SVG/1.1/DTD/svg11.dtd">
<!-- Generated by graphviz version 2.38.0 (20140413.2041)
 -->
<!-- Title: src/pfasst/config_impl.hpp Pages: 1 -->
<svg width="402pt" height="140pt"
 viewBox="0.00 0.00 401.50 140.00" xmlns="http://www.w3.org/2000/svg" xmlns:xlink="http://www.w3.org/1999/xlink">
<g id="graph0" class="graph" transform="scale(1 1) rotate(0) translate(4 136)">
<title>src/pfasst/config_impl.hpp</title>
<polygon fill="white" stroke="none" points="-4,4 -4,-136 397.5,-136 397.5,4 -4,4"/>
<!-- Node1 -->
<g id="node1" class="node"><title>Node1</title>
<polygon fill="#bfbfbf" stroke="black" points="81.5,-112.5 81.5,-131.5 212.5,-131.5 212.5,-112.5 81.5,-112.5"/>
<text text-anchor="middle" x="147" y="-119.5" font-family="Helvetica,sans-Serif" font-size="10.00">src/pfasst/config_impl.hpp</text>
</g>
<!-- Node2 -->
<g id="node2" class="node"><title>Node2</title>
<g id="a_node2"><a xlink:href="../../d8/dfd/config_8hpp.html" target="_top" xlink:title="pfasst/config.hpp">
<polygon fill="white" stroke="black" points="101.5,-56.5 101.5,-75.5 192.5,-75.5 192.5,-56.5 101.5,-56.5"/>
<text text-anchor="middle" x="147" y="-63.5" font-family="Helvetica,sans-Serif" font-size="10.00">pfasst/config.hpp</text>
</a>
</g>
</g>
<!-- Node1&#45;&gt;Node2 -->
<g id="edge1" class="edge"><title>Node1&#45;&gt;Node2</title>
<path fill="none" stroke="midnightblue" d="M141.834,-112.083C140.324,-104.927 139.894,-94.6353 140.542,-85.6911"/>
<polygon fill="midnightblue" stroke="midnightblue" points="144.015,-86.1262 141.869,-75.7511 137.077,-85.2002 144.015,-86.1262"/>
</g>
<!-- Node3 -->
<g id="node3" class="node"><title>Node3</title>
<polygon fill="white" stroke="#bfbfbf" points="0,-0.5 0,-19.5 50,-19.5 50,-0.5 0,-0.5"/>
<text text-anchor="middle" x="25" y="-7.5" font-family="Helvetica,sans-Serif" font-size="10.00">fstream</text>
</g>
<!-- Node1&#45;&gt;Node3 -->
<g id="edge8" class="edge"><title>Node1&#45;&gt;Node3</title>
<path fill="none" stroke="midnightblue" d="M135.814,-112.303C124.536,-103.429 106.736,-89.1343 92,-76 73.7958,-59.7746 53.8447,-40.1671 40.4893,-26.7587"/>
<polygon fill="midnightblue" stroke="midnightblue" points="42.9749,-24.2946 33.4511,-19.6528 38.0016,-29.2206 42.9749,-24.2946"/>
</g>
<!-- Node8 -->
<g id="node8" class="node"><title>Node8</title>
<polygon fill="white" stroke="#bfbfbf" points="210.5,-56.5 210.5,-75.5 263.5,-75.5 263.5,-56.5 210.5,-56.5"/>
<text text-anchor="middle" x="237" y="-63.5" font-family="Helvetica,sans-Serif" font-size="10.00">sstream</text>
</g>
<!-- Node1&#45;&gt;Node8 -->
<g id="edge9" class="edge"><title>Node1&#45;&gt;Node8</title>
<path fill="none" stroke="midnightblue" d="M161.46,-112.324C175.5,-103.9 197.048,-90.9709 213.543,-81.0741"/>
<polygon fill="midnightblue" stroke="midnightblue" points="215.802,-83.8007 222.576,-75.6545 212.2,-77.7983 215.802,-83.8007"/>
</g>
<!-- Node9 -->
<g id="node9" class="node"><title>Node9</title>
<polygon fill="white" stroke="#bfbfbf" points="282,-56.5 282,-75.5 320,-75.5 320,-56.5 282,-56.5"/>
<text text-anchor="middle" x="301" y="-63.5" font-family="Helvetica,sans-Serif" font-size="10.00">utility</text>
</g>
<!-- Node1&#45;&gt;Node9 -->
<g id="edge10" class="edge"><title>Node1&#45;&gt;Node9</title>
<path fill="none" stroke="midnightblue" d="M171.402,-112.444C198.714,-102.867 242.938,-87.3593 271.996,-77.1704"/>
<polygon fill="midnightblue" stroke="midnightblue" points="273.31,-80.4185 281.588,-73.8067 270.994,-73.8128 273.31,-80.4185"/>
</g>
<!-- Node2&#45;&gt;Node1 -->
<g id="edge7" class="edge"><title>Node2&#45;&gt;Node1</title>
<path fill="none" stroke="midnightblue" d="M152.131,-75.7511C153.657,-82.8579 154.104,-93.1357 153.472,-102.101"/>
<polygon fill="midnightblue" stroke="midnightblue" points="149.993,-101.713 152.166,-112.083 156.934,-102.622 149.993,-101.713"/>
</g>
<!-- Node2&#45;&gt;Node3 -->
<g id="edge2" class="edge"><title>Node2&#45;&gt;Node3</title>
<path fill="none" stroke="midnightblue" d="M127.669,-56.4435C107.68,-47.5961 76.2569,-33.6875 53.4361,-23.5865"/>
<polygon fill="midnightblue" stroke="midnightblue" points="54.8018,-20.3635 44.2408,-19.5164 51.9685,-26.7645 54.8018,-20.3635"/>
</g>
<!-- Node4 -->
<g id="node4" class="node"><title>Node4</title>
<polygon fill="white" stroke="#bfbfbf" points="68,-0.5 68,-19.5 124,-19.5 124,-0.5 68,-0.5"/>
<text text-anchor="middle" x="96" y="-7.5" font-family="Helvetica,sans-Serif" font-size="10.00">iostream</text>
</g>
<!-- Node2&#45;&gt;Node4 -->
<g id="edge3" class="edge"><title>Node2&#45;&gt;Node4</title>
<path fill="none" stroke="midnightblue" d="M138.578,-56.083C131.152,-48.2195 120.148,-36.5688 111.188,-27.0813"/>
<polygon fill="midnightblue" stroke="midnightblue" points="113.676,-24.618 104.265,-19.7511 108.587,-29.4244 113.676,-24.618"/>
</g>
<!-- Node5 -->
<g id="node5" class="node"><title>Node5</title>
<polygon fill="white" stroke="#bfbfbf" points="142.5,-0.5 142.5,-19.5 183.5,-19.5 183.5,-0.5 142.5,-0.5"/>
<text text-anchor="middle" x="163" y="-7.5" font-family="Helvetica,sans-Serif" font-size="10.00">string</text>
</g>
<!-- Node2&#45;&gt;Node5 -->
<g id="edge4" class="edge"><title>Node2&#45;&gt;Node5</title>
<path fill="none" stroke="midnightblue" d="M149.642,-56.083C151.786,-48.8486 154.879,-38.4087 157.549,-29.3968"/>
<polygon fill="midnightblue" stroke="midnightblue" points="160.922,-30.3334 160.407,-19.7511 154.21,-28.3447 160.922,-30.3334"/>
</g>
<!-- Node6 -->
<g id="node6" class="node"><title>Node6</title>
<polygon fill="white" stroke="#bfbfbf" points="202,-0.5 202,-19.5 238,-19.5 238,-0.5 202,-0.5"/>
<text text-anchor="middle" x="220" y="-7.5" font-family="Helvetica,sans-Serif" font-size="10.00">map</text>
</g>
<!-- Node2&#45;&gt;Node6 -->
<g id="edge5" class="edge"><title>Node2&#45;&gt;Node6</title>
<path fill="none" stroke="midnightblue" d="M158.729,-56.324C169.837,-48.1066 186.742,-35.6017 199.983,-25.8069"/>
<polygon fill="midnightblue" stroke="midnightblue" points="202.1,-28.5948 208.058,-19.8339 197.937,-22.9671 202.1,-28.5948"/>
</g>
<!-- Node7 -->
<g id="node7" class="node"><title>Node7</title>
<polygon fill="white" stroke="#bfbfbf" points="256.5,-0.5 256.5,-19.5 393.5,-19.5 393.5,-0.5 256.5,-0.5"/>
<text text-anchor="middle" x="325" y="-7.5" font-family="Helvetica,sans-Serif" font-size="10.00">boost/program_options.hpp</text>
</g>
<!-- Node2&#45;&gt;Node7 -->
<g id="edge6" class="edge"><title>Node2&#45;&gt;Node7</title>
<path fill="none" stroke="midnightblue" d="M175.205,-56.4435C205.41,-47.2801 253.511,-32.6876 287.029,-22.5192"/>
<polygon fill="midnightblue" stroke="midnightblue" points="288.374,-25.7688 296.927,-19.5164 286.342,-19.0703 288.374,-25.7688"/>
</g>
</g>
</svg>
