<?xml version="1.0" encoding="UTF-8" standalone="no"?>
<!DOCTYPE svg PUBLIC "-//W3C//DTD SVG 1.1//EN"
 "http://www.w3.org/Graphics/SVG/1.1/DTD/svg11.dtd">
<!-- Generated by graphviz version 2.38.0 (20140413.2041)
 -->
<!-- Title: pfasst::config::options Pages: 1 -->
<!--zoomable 601 -->
<svg id="main" version="1.1" xmlns="http://www.w3.org/2000/svg" xmlns:xlink="http://www.w3.org/1999/xlink" xml:space="preserve" onload="init(evt)">
<style type="text/css"><![CDATA[
.edge:hover path { stroke: red; }
.edge:hover polygon { stroke: red; fill: red; }
]]></style>
<script type="text/javascript"><![CDATA[
var edges = document.getElementsByTagName('g');
if (edges && edges.length) {
  for (var i=0;i<edges.length;i++) {
    if (edges[i].id.substr(0,4)=='edge') {
      edges[i].setAttribute('class','edge');
    }
  }
}
]]></script>
        <defs>
                <circle id="rim" cx="0" cy="0" r="7"/>
                <circle id="rim2" cx="0" cy="0" r="3.5"/>
                <g id="zoomPlus">
                        <use xlink:href="#rim" fill="#404040">
                                <set attributeName="fill" to="#808080" begin="zoomplus.mouseover" end="zoomplus.mouseout"/>
                        </use>
                        <path d="M-4,0h8M0,-4v8" fill="none" stroke="white" stroke-width="1.5" pointer-events="none"/>
                </g>
                <g id="zoomMin">
                        <use xlink:href="#rim" fill="#404040">
                                <set attributeName="fill" to="#808080" begin="zoomminus.mouseover" end="zoomminus.mouseout"/>
                        </use>
                        <path d="M-4,0h8" fill="none" stroke="white" stroke-width="1.5" pointer-events="none"/>
                </g>
                <g id="dirArrow">
                        <path fill="none" stroke="white" stroke-width="1.5" d="M0,-3.0v7 M-2.5,-0.5L0,-3.0L2.5,-0.5"/>
                </g>
               <g id="resetDef">
                       <use xlink:href="#rim2" fill="#404040">
                               <set attributeName="fill" to="#808080" begin="reset.mouseover" end="reset.mouseout"/>
                       </use>
               </g>
        </defs>

<script type="text/javascript">
var viewWidth = 343;
var viewHeight = 601;
var sectionId = 'dynsection-0';
</script>
<script xlink:href="../../svgpan.js"/>
<svg id="graph" class="graph">
<g id="viewport">
<title>pfasst::config::options</title>
<polygon fill="white" stroke="none" points="-4,4 -4,-597 338.5,-597 338.5,4 -4,4"/>
<!-- Node1 -->
<g id="node1" class="node"><title>Node1</title>
<polygon fill="#bfbfbf" stroke="black" points="124,-0.5 124,-244.5 260,-244.5 260,-0.5 124,-0.5"/>
<text text-anchor="middle" x="192" y="-232.5" font-family="Helvetica,sans-Serif" font-size="10.00">pfasst::config::options</text>
<polyline fill="none" stroke="black" points="124,-225.5 260,-225.5 "/>
<text text-anchor="start" x="132" y="-213.5" font-family="Helvetica,sans-Serif" font-size="10.00">+ LINE_WIDTH</text>
<text text-anchor="start" x="132" y="-202.5" font-family="Helvetica,sans-Serif" font-size="10.00">&#45; all_options</text>
<text text-anchor="start" x="132" y="-191.5" font-family="Helvetica,sans-Serif" font-size="10.00">&#45; variables_map</text>
<text text-anchor="start" x="132" y="-180.5" font-family="Helvetica,sans-Serif" font-size="10.00">&#45; initialized</text>
<polyline fill="none" stroke="black" points="124,-173.5 260,-173.5 "/>
<text text-anchor="start" x="132" y="-161.5" font-family="Helvetica,sans-Serif" font-size="10.00">+ init()</text>
<text text-anchor="start" x="132" y="-150.5" font-family="Helvetica,sans-Serif" font-size="10.00">+ add_option()</text>
<text text-anchor="start" x="132" y="-139.5" font-family="Helvetica,sans-Serif" font-size="10.00">+ add_option()</text>
<text text-anchor="start" x="132" y="-128.5" font-family="Helvetica,sans-Serif" font-size="10.00">&#45; options()</text>
<text text-anchor="start" x="132" y="-117.5" font-family="Helvetica,sans-Serif" font-size="10.00">&#45; options()</text>
<text text-anchor="start" x="132" y="-106.5" font-family="Helvetica,sans-Serif" font-size="10.00">&#45; operator=()</text>
<text text-anchor="start" x="132" y="-95.5" font-family="Helvetica,sans-Serif" font-size="10.00">* options()</text>
<text text-anchor="start" x="132" y="-84.5" font-family="Helvetica,sans-Serif" font-size="10.00">* options()</text>
<text text-anchor="start" x="132" y="-73.5" font-family="Helvetica,sans-Serif" font-size="10.00">* operator=()</text>
<text text-anchor="start" x="132" y="-62.5" font-family="Helvetica,sans-Serif" font-size="10.00">* get_instance()</text>
<text text-anchor="start" x="132" y="-51.5" font-family="Helvetica,sans-Serif" font-size="10.00">* get_variables_map()</text>
<text text-anchor="start" x="132" y="-40.5" font-family="Helvetica,sans-Serif" font-size="10.00">* get_all_options()</text>
<text text-anchor="start" x="132" y="-29.5" font-family="Helvetica,sans-Serif" font-size="10.00">* get_unrecognized_args()</text>
<text text-anchor="start" x="132" y="-18.5" font-family="Helvetica,sans-Serif" font-size="10.00">* add_option()</text>
<text text-anchor="start" x="132" y="-7.5" font-family="Helvetica,sans-Serif" font-size="10.00">* add_option()</text>
</g>
<!-- Node2 -->
<g id="node2" class="node"><title>Node2</title>
<polygon fill="white" stroke="#bfbfbf" points="64,-292.5 64,-360.5 182,-360.5 182,-292.5 64,-292.5"/>
<text text-anchor="start" x="72" y="-348.5" font-family="Helvetica,sans-Serif" font-size="10.00">std::map&lt; string, po</text>
<text text-anchor="middle" x="123" y="-337.5" font-family="Helvetica,sans-Serif" font-size="10.00">::options_description &gt;</text>
<polyline fill="none" stroke="#bfbfbf" points="64,-330.5 182,-330.5 "/>
<text text-anchor="start" x="72" y="-318.5" font-family="Helvetica,sans-Serif" font-size="10.00">+ elements</text>
<polyline fill="none" stroke="#bfbfbf" points="64,-311.5 182,-311.5 "/>
<text text-anchor="middle" x="123" y="-299.5" font-family="Helvetica,sans-Serif" font-size="10.00"> </text>
</g>
<!-- Node2&#45;&gt;Node1 -->
<g id="edge1" class="edge"><title>Node2&#45;&gt;Node1</title>
<path fill="none" stroke="#404040" d="M134.394,-292.144C137.976,-281.657 142.173,-269.369 146.641,-256.289"/>
<polygon fill="none" stroke="#404040" points="146.75,-255.972 144.904,-249.001 150.629,-244.616 152.474,-251.587 146.75,-255.972"/>
<text text-anchor="middle" x="178" y="-266" font-family="Helvetica,sans-Serif" font-size="10.00"> &#45;option_groups</text>
</g>
<!-- Node3 -->
<g id="node3" class="node"><title>Node3</title>
<g id="a_node3"><a xlink:title="STL class. ">
<polygon fill="white" stroke="#bfbfbf" points="168,-419.5 168,-476.5 228,-476.5 228,-419.5 168,-419.5"/>
<text text-anchor="middle" x="198" y="-464.5" font-family="Helvetica,sans-Serif" font-size="10.00">std::string</text>
<polyline fill="none" stroke="#bfbfbf" points="168,-457.5 228,-457.5 "/>
<text text-anchor="middle" x="198" y="-445.5" font-family="Helvetica,sans-Serif" font-size="10.00"> </text>
<polyline fill="none" stroke="#bfbfbf" points="168,-438.5 228,-438.5 "/>
<text text-anchor="middle" x="198" y="-426.5" font-family="Helvetica,sans-Serif" font-size="10.00"> </text>
</a>
</g>
</g>
<!-- Node3&#45;&gt;Node2 -->
<g id="edge2" class="edge"><title>Node3&#45;&gt;Node2</title>
<path fill="none" stroke="#404040" d="M180.605,-419.284C171.589,-404.918 160.371,-387.044 150.236,-370.897"/>
<polygon fill="none" stroke="#404040" points="150.146,-370.753 143.569,-367.797 143.767,-360.589 150.345,-363.545 150.146,-370.753"/>
<text text-anchor="middle" x="182.5" y="-387.5" font-family="Helvetica,sans-Serif" font-size="10.00"> +keys</text>
</g>
<!-- Node8 -->
<g id="node8" class="node"><title>Node8</title>
<polygon fill="white" stroke="#bfbfbf" points="200,-298 200,-355 306,-355 306,-298 200,-298"/>
<text text-anchor="middle" x="253" y="-343" font-family="Helvetica,sans-Serif" font-size="10.00">std::vector&lt; string &gt;</text>
<polyline fill="none" stroke="#bfbfbf" points="200,-336 306,-336 "/>
<text text-anchor="middle" x="253" y="-324" font-family="Helvetica,sans-Serif" font-size="10.00"> </text>
<polyline fill="none" stroke="#bfbfbf" points="200,-317 306,-317 "/>
<text text-anchor="middle" x="253" y="-305" font-family="Helvetica,sans-Serif" font-size="10.00"> </text>
</g>
<!-- Node3&#45;&gt;Node8 -->
<g id="edge8" class="edge"><title>Node3&#45;&gt;Node8</title>
<path fill="none" stroke="#404040" d="M201.812,-419.324C204.233,-406.625 208.064,-391.621 214,-379 216.175,-374.376 218.811,-369.766 221.675,-365.313"/>
<polygon fill="none" stroke="#404040" points="221.809,-365.121 221.952,-357.911 228.663,-355.271 228.519,-362.48 221.809,-365.121"/>
<text text-anchor="middle" x="239.5" y="-387.5" font-family="Helvetica,sans-Serif" font-size="10.00"> +elements</text>
</g>
<!-- Node4 -->
<g id="node4" class="node"><title>Node4</title>
<g id="a_node4"><a xlink:title="STL class. ">
<polygon fill="white" stroke="#bfbfbf" points="172.5,-524.5 172.5,-592.5 267.5,-592.5 267.5,-524.5 172.5,-524.5"/>
<text text-anchor="start" x="180.5" y="-580.5" font-family="Helvetica,sans-Serif" font-size="10.00">std::basic_string&lt;</text>
<text text-anchor="middle" x="220" y="-569.5" font-family="Helvetica,sans-Serif" font-size="10.00"> char &gt;</text>
<polyline fill="none" stroke="#bfbfbf" points="172.5,-562.5 267.5,-562.5 "/>
<text text-anchor="middle" x="220" y="-550.5" font-family="Helvetica,sans-Serif" font-size="10.00"> </text>
<polyline fill="none" stroke="#bfbfbf" points="172.5,-543.5 267.5,-543.5 "/>
<text text-anchor="middle" x="220" y="-531.5" font-family="Helvetica,sans-Serif" font-size="10.00"> </text>
</a>
</g>
</g>
<!-- Node4&#45;&gt;Node3 -->
<g id="edge3" class="edge"><title>Node4&#45;&gt;Node3</title>
<path fill="none" stroke="midnightblue" d="M211.269,-514.44C208.702,-501.778 205.962,-488.266 203.642,-476.827"/>
<polygon fill="none" stroke="midnightblue" points="207.862,-515.252 213.28,-524.357 214.723,-513.861 207.862,-515.252"/>
</g>
<!-- Node5 -->
<g id="node5" class="node"><title>Node5</title>
<g id="a_node5"><a xlink:title="STL class. ">
<polygon fill="white" stroke="#bfbfbf" points="0,-419.5 0,-476.5 94,-476.5 94,-419.5 0,-419.5"/>
<text text-anchor="middle" x="47" y="-464.5" font-family="Helvetica,sans-Serif" font-size="10.00">std::map&lt; K, T &gt;</text>
<polyline fill="none" stroke="#bfbfbf" points="0,-457.5 94,-457.5 "/>
<text text-anchor="middle" x="47" y="-445.5" font-family="Helvetica,sans-Serif" font-size="10.00"> </text>
<polyline fill="none" stroke="#bfbfbf" points="0,-438.5 94,-438.5 "/>
<text text-anchor="middle" x="47" y="-426.5" font-family="Helvetica,sans-Serif" font-size="10.00"> </text>
</a>
</g>
</g>
<!-- Node5&#45;&gt;Node2 -->
<g id="edge4" class="edge"><title>Node5&#45;&gt;Node2</title>
<path fill="none" stroke="orange" d="M49.4709,-409.234C51.3782,-398.9 54.6028,-388.061 60,-379 63.976,-372.325 69.1516,-366.14 74.8277,-360.544"/>
<polygon fill="orange" stroke="orange" points="45.981,-408.907 47.9711,-419.314 52.9048,-409.938 45.981,-408.907"/>
<text text-anchor="start" x="60" y="-393" font-family="Helvetica,sans-Serif" font-size="10.00"> &lt; string, po::options</text>
<text text-anchor="middle" x="106" y="-382" font-family="Helvetica,sans-Serif" font-size="10.00">_description &gt;</text>
</g>
<!-- Node6 -->
<g id="node6" class="node"><title>Node6</title>
<polygon fill="white" stroke="#bfbfbf" points="11.5,-530 11.5,-587 40.5,-587 40.5,-530 11.5,-530"/>
<text text-anchor="middle" x="26" y="-575" font-family="Helvetica,sans-Serif" font-size="10.00">K</text>
<polyline fill="none" stroke="#bfbfbf" points="11.5,-568 40.5,-568 "/>
<text text-anchor="middle" x="26" y="-556" font-family="Helvetica,sans-Serif" font-size="10.00"> </text>
<polyline fill="none" stroke="#bfbfbf" points="11.5,-549 40.5,-549 "/>
<text text-anchor="middle" x="26" y="-537" font-family="Helvetica,sans-Serif" font-size="10.00"> </text>
</g>
<!-- Node6&#45;&gt;Node5 -->
<g id="edge5" class="edge"><title>Node6&#45;&gt;Node5</title>
<path fill="none" stroke="#404040" d="M24.1223,-529.853C23.9781,-518.891 24.5676,-506.243 27,-495 27.4972,-492.702 28.112,-490.377 28.814,-488.056"/>
<polygon fill="none" stroke="#404040" points="28.8597,-487.929 27.1202,-480.931 32.911,-476.633 34.6505,-483.631 28.8597,-487.929"/>
<text text-anchor="middle" x="42.5" y="-498" font-family="Helvetica,sans-Serif" font-size="10.00"> +keys</text>
</g>
<!-- Node7 -->
<g id="node7" class="node"><title>Node7</title>
<polygon fill="white" stroke="#bfbfbf" points="95.5,-530 95.5,-587 124.5,-587 124.5,-530 95.5,-530"/>
<text text-anchor="middle" x="110" y="-575" font-family="Helvetica,sans-Serif" font-size="10.00">T</text>
<polyline fill="none" stroke="#bfbfbf" points="95.5,-568 124.5,-568 "/>
<text text-anchor="middle" x="110" y="-556" font-family="Helvetica,sans-Serif" font-size="10.00"> </text>
<polyline fill="none" stroke="#bfbfbf" points="95.5,-549 124.5,-549 "/>
<text text-anchor="middle" x="110" y="-537" font-family="Helvetica,sans-Serif" font-size="10.00"> </text>
</g>
<!-- Node7&#45;&gt;Node5 -->
<g id="edge6" class="edge"><title>Node7&#45;&gt;Node5</title>
<path fill="none" stroke="#404040" d="M95.3882,-532.335C87.6077,-518.936 77.8757,-502.175 69.1836,-487.205"/>
<polygon fill="none" stroke="#404040" points="69.1067,-487.072 62.6347,-483.892 63.081,-476.695 69.553,-479.875 69.1067,-487.072"/>
<text text-anchor="middle" x="104.5" y="-498" font-family="Helvetica,sans-Serif" font-size="10.00"> +elements</text>
</g>
<!-- Node9 -->
<g id="node9" class="node"><title>Node9</title>
<g id="a_node9"><a xlink:title="STL class. ">
<polygon fill="white" stroke="#bfbfbf" points="245.5,-419.5 245.5,-476.5 334.5,-476.5 334.5,-419.5 245.5,-419.5"/>
<text text-anchor="middle" x="290" y="-464.5" font-family="Helvetica,sans-Serif" font-size="10.00">std::vector&lt; T &gt;</text>
<polyline fill="none" stroke="#bfbfbf" points="245.5,-457.5 334.5,-457.5 "/>
<text text-anchor="middle" x="290" y="-445.5" font-family="Helvetica,sans-Serif" font-size="10.00"> </text>
<polyline fill="none" stroke="#bfbfbf" points="245.5,-438.5 334.5,-438.5 "/>
<text text-anchor="middle" x="290" y="-426.5" font-family="Helvetica,sans-Serif" font-size="10.00"> </text>
</a>
</g>
</g>
<!-- Node7&#45;&gt;Node9 -->
<g id="edge10" class="edge"><title>Node7&#45;&gt;Node9</title>
<path fill="none" stroke="#404040" d="M124.623,-548.327C135.462,-541.554 150.612,-532.136 164,-524 187.089,-509.968 212.69,-494.68 234.752,-481.589"/>
<polygon fill="none" stroke="#404040" points="234.948,-481.473 238.07,-474.973 245.271,-475.355 242.149,-481.855 234.948,-481.473"/>
<text text-anchor="middle" x="233.5" y="-498" font-family="Helvetica,sans-Serif" font-size="10.00"> +elements</text>
</g>
<!-- Node8&#45;&gt;Node1 -->
<g id="edge7" class="edge"><title>Node8&#45;&gt;Node1</title>
<path fill="none" stroke="#404040" d="M244.646,-297.836C241.128,-286.185 236.756,-271.709 232.047,-256.115"/>
<polygon fill="none" stroke="#404040" points="232.035,-256.074 226.471,-251.487 228.566,-244.587 234.13,-249.174 232.035,-256.074"/>
<text text-anchor="middle" x="283" y="-266" font-family="Helvetica,sans-Serif" font-size="10.00"> &#45;unrecognized_args</text>
</g>
<!-- Node9&#45;&gt;Node8 -->
<g id="edge9" class="edge"><title>Node9&#45;&gt;Node8</title>
<path fill="none" stroke="orange" d="M278.335,-409.327C272.889,-391.737 266.523,-371.176 261.535,-355.066"/>
<polygon fill="orange" stroke="orange" points="275.117,-410.767 281.418,-419.284 281.804,-408.696 275.117,-410.767"/>
<text text-anchor="middle" x="297" y="-387.5" font-family="Helvetica,sans-Serif" font-size="10.00"> &lt; string &gt;</text>
</g>
</g>
</svg>
        <g id="navigator" transform="translate(0 0)" fill="#404254">
                <rect fill="#f2f5e9" fill-opacity="0.5" stroke="#606060" stroke-width=".5" x="0" y="0" width="60" height="60"/>
                <use id="zoomplus" xlink:href="#zoomPlus" x="17" y="9" onmousedown="handleZoom(evt,'in')"/>
                <use id="zoomminus" xlink:href="#zoomMin" x="42" y="9" onmousedown="handleZoom(evt,'out')"/>
                <use id="reset" xlink:href="#resetDef" x="30" y="36" onmousedown="handleReset()"/>
                <g id="arrowUp" xlink:href="#dirArrow" transform="translate(30 24)" onmousedown="handlePan(0,-1)">
                  <use xlink:href="#rim" fill="#404040">
                        <set attributeName="fill" to="#808080" begin="arrowUp.mouseover" end="arrowUp.mouseout"/>
                  </use>
                  <path fill="none" stroke="white" stroke-width="1.5" d="M0,-3.0v7 M-2.5,-0.5L0,-3.0L2.5,-0.5"/>
                </g>
                <g id="arrowRight" xlink:href="#dirArrow" transform="rotate(90) translate(36 -43)" onmousedown="handlePan(1,0)">
                  <use xlink:href="#rim" fill="#404040">
                        <set attributeName="fill" to="#808080" begin="arrowRight.mouseover" end="arrowRight.mouseout"/>
                  </use>
                  <path fill="none" stroke="white" stroke-width="1.5" d="M0,-3.0v7 M-2.5,-0.5L0,-3.0L2.5,-0.5"/>
                </g>
                <g id="arrowDown" xlink:href="#dirArrow" transform="rotate(180) translate(-30 -48)" onmousedown="handlePan(0,1)">
                  <use xlink:href="#rim" fill="#404040">
                        <set attributeName="fill" to="#808080" begin="arrowDown.mouseover" end="arrowDown.mouseout"/>
                  </use>
                  <path fill="none" stroke="white" stroke-width="1.5" d="M0,-3.0v7 M-2.5,-0.5L0,-3.0L2.5,-0.5"/>
                </g>
                <g id="arrowLeft" xlink:href="#dirArrow" transform="rotate(270) translate(-36 17)" onmousedown="handlePan(-1,0)">
                  <use xlink:href="#rim" fill="#404040">
                        <set attributeName="fill" to="#808080" begin="arrowLeft.mouseover" end="arrowLeft.mouseout"/>
                  </use>
                  <path fill="none" stroke="white" stroke-width="1.5" d="M0,-3.0v7 M-2.5,-0.5L0,-3.0L2.5,-0.5"/>
                </g>
        </g>
        <svg viewBox="0 0 15 15" width="100%" height="30px" preserveAspectRatio="xMaxYMin meet">
         <g id="arrow_out" transform="scale(0.3 0.3)">
          <a xlink:href="classpfasst_1_1config_1_1options__coll__graph_org.svg" target="_base">
           <rect id="button" ry="5" rx="5" y="6" x="6" height="38" width="38"
                fill="#f2f5e9" fill-opacity="0.5" stroke="#606060" stroke-width="1.0"/>
           <path id="arrow"
             d="M 11.500037,31.436501 C 11.940474,20.09759 22.043105,11.32322 32.158766,21.979434 L 37.068811,17.246167 C 37.068811,17.246167 37.088388,32 37.088388,32 L 22.160133,31.978069 C 22.160133,31.978069 26.997745,27.140456 26.997745,27.140456 C 18.528582,18.264221 13.291696,25.230495 11.500037,31.436501 z"
             style="fill:#404040;"/>
          </a>
         </g>
        </svg>
</svg>
