<?xml version="1.0" encoding="UTF-8" standalone="no"?>
<!DOCTYPE svg PUBLIC "-//W3C//DTD SVG 1.1//EN"
 "http://www.w3.org/Graphics/SVG/1.1/DTD/svg11.dtd">
<!-- Generated by graphviz version 2.38.0 (20140413.2041)
 -->
<!-- Title: pfasst::Controller::LevelIter::coarse Pages: 1 -->
<svg width="291pt" height="142pt"
 viewBox="0.00 0.00 291.00 142.00" xmlns="http://www.w3.org/2000/svg" xmlns:xlink="http://www.w3.org/1999/xlink">
<g id="graph0" class="graph" transform="scale(1 1) rotate(0) translate(4 138)">
<title>pfasst::Controller::LevelIter::coarse</title>
<polygon fill="white" stroke="none" points="-4,4 -4,-138 287,-138 287,4 -4,4"/>
<!-- Node1 -->
<g id="node1" class="node"><title>Node1</title>
<polygon fill="#bfbfbf" stroke="black" points="0,-52 0,-82 98,-82 98,-52 0,-52"/>
<text text-anchor="start" x="8" y="-70" font-family="Helvetica,sans-Serif" font-size="10.00">pfasst::Controller</text>
<text text-anchor="middle" x="49" y="-59" font-family="Helvetica,sans-Serif" font-size="10.00">::LevelIter::coarse</text>
</g>
<!-- Node2 -->
<g id="node2" class="node"><title>Node2</title>
<g id="a_node2"><a xlink:href="../../d4/deb/classpfasst_1_1PFASST.html#a41a9c18c3aef38b90847732b29ba7272" target="_top" xlink:title="Sweep on current (fine), restrict to coarse. ">
<polygon fill="white" stroke="black" points="134,-114.5 134,-133.5 283,-133.5 283,-114.5 134,-114.5"/>
<text text-anchor="middle" x="208.5" y="-121.5" font-family="Helvetica,sans-Serif" font-size="10.00">pfasst::PFASST::cycle_down</text>
</a>
</g>
</g>
<!-- Node1&#45;&gt;Node2 -->
<g id="edge1" class="edge"><title>Node1&#45;&gt;Node2</title>
<path fill="none" stroke="midnightblue" d="M89.4571,-86.5369C103.328,-92.9509 119.159,-99.7686 134,-105 144.068,-108.549 155.124,-111.754 165.533,-114.478"/>
<polygon fill="midnightblue" stroke="midnightblue" points="90.742,-83.2735 80.2031,-82.1854 87.7632,-89.6081 90.742,-83.2735"/>
</g>
<!-- Node3 -->
<g id="node3" class="node"><title>Node3</title>
<g id="a_node3"><a xlink:href="../../db/d56/classpfasst_1_1MLSDC.html#a7fc232b6b1ef7a2ee086da0291279a20" target="_top" xlink:title="Sweep on current (fine), restrict to coarse. ">
<polygon fill="white" stroke="black" points="136.5,-76.5 136.5,-95.5 280.5,-95.5 280.5,-76.5 136.5,-76.5"/>
<text text-anchor="middle" x="208.5" y="-83.5" font-family="Helvetica,sans-Serif" font-size="10.00">pfasst::MLSDC::cycle_down</text>
</a>
</g>
</g>
<!-- Node1&#45;&gt;Node3 -->
<g id="edge2" class="edge"><title>Node1&#45;&gt;Node3</title>
<path fill="none" stroke="midnightblue" d="M108.283,-74.031C117.469,-75.1391 127.054,-76.2954 136.489,-77.4336"/>
<polygon fill="midnightblue" stroke="midnightblue" points="108.458,-70.5268 98.111,-72.8039 107.62,-77.4764 108.458,-70.5268"/>
</g>
<!-- Node4 -->
<g id="node4" class="node"><title>Node4</title>
<g id="a_node4"><a xlink:href="../../d4/deb/classpfasst_1_1PFASST.html#aafd37418956347b374eee1fe65bc4a86" target="_top" xlink:title="Interpolate coarse correction to fine, sweep on current (fine). ">
<polygon fill="white" stroke="black" points="141,-38.5 141,-57.5 276,-57.5 276,-38.5 141,-38.5"/>
<text text-anchor="middle" x="208.5" y="-45.5" font-family="Helvetica,sans-Serif" font-size="10.00">pfasst::PFASST::cycle_up</text>
</a>
</g>
</g>
<!-- Node1&#45;&gt;Node4 -->
<g id="edge3" class="edge"><title>Node1&#45;&gt;Node4</title>
<path fill="none" stroke="midnightblue" d="M108.126,-59.9879C118.774,-58.7034 129.964,-57.3536 140.838,-56.0418"/>
<polygon fill="midnightblue" stroke="midnightblue" points="107.62,-56.5236 98.111,-61.1961 108.458,-63.4732 107.62,-56.5236"/>
</g>
<!-- Node5 -->
<g id="node5" class="node"><title>Node5</title>
<g id="a_node5"><a xlink:href="../../db/d56/classpfasst_1_1MLSDC.html#a51fdf321f0ae3c4004b74a9db6cba9fd" target="_top" xlink:title="Interpolate coarse correction to fine, sweep on current (fine). ">
<polygon fill="white" stroke="black" points="143.5,-0.5 143.5,-19.5 273.5,-19.5 273.5,-0.5 143.5,-0.5"/>
<text text-anchor="middle" x="208.5" y="-7.5" font-family="Helvetica,sans-Serif" font-size="10.00">pfasst::MLSDC::cycle_up</text>
</a>
</g>
</g>
<!-- Node1&#45;&gt;Node5 -->
<g id="edge4" class="edge"><title>Node1&#45;&gt;Node5</title>
<path fill="none" stroke="midnightblue" d="M89.4571,-47.4631C103.328,-41.0491 119.159,-34.2314 134,-29 144.068,-25.4509 155.124,-22.2455 165.533,-19.5217"/>
<polygon fill="midnightblue" stroke="midnightblue" points="87.7632,-44.3919 80.2031,-51.8146 90.742,-50.7265 87.7632,-44.3919"/>
</g>
</g>
</svg>
