<?xml version="1.0" encoding="UTF-8" standalone="no"?>
<!DOCTYPE svg PUBLIC "-//W3C//DTD SVG 1.1//EN"
 "http://www.w3.org/Graphics/SVG/1.1/DTD/svg11.dtd">
<!-- Generated by graphviz version 2.38.0 (20140413.2041)
 -->
<!-- Title: pfasst::Controller::LevelIter::current Pages: 1 -->
<svg width="290pt" height="192pt"
 viewBox="0.00 0.00 290.00 191.50" xmlns="http://www.w3.org/2000/svg" xmlns:xlink="http://www.w3.org/1999/xlink">
<g id="graph0" class="graph" transform="scale(1 1) rotate(0) translate(4 187.5)">
<title>pfasst::Controller::LevelIter::current</title>
<polygon fill="white" stroke="none" points="-4,4 -4,-187.5 286,-187.5 286,4 -4,4"/>
<!-- Node1 -->
<g id="node1" class="node"><title>Node1</title>
<polygon fill="#bfbfbf" stroke="black" points="0,-71 0,-101 97,-101 97,-71 0,-71"/>
<text text-anchor="start" x="8" y="-89" font-family="Helvetica,sans-Serif" font-size="10.00">pfasst::Controller</text>
<text text-anchor="middle" x="48.5" y="-78" font-family="Helvetica,sans-Serif" font-size="10.00">::LevelIter::current</text>
</g>
<!-- Node2 -->
<g id="node2" class="node"><title>Node2</title>
<g id="a_node2"><a xlink:href="../../d4/deb/classpfasst_1_1PFASST.html#a16d5ecf603920542c6b1856a9649f5f6" target="_top" xlink:title="Sweep on the current (coarsest) level. ">
<polygon fill="white" stroke="black" points="148,-153 148,-183 267,-183 267,-153 148,-153"/>
<text text-anchor="start" x="156" y="-171" font-family="Helvetica,sans-Serif" font-size="10.00">pfasst::PFASST::cycle</text>
<text text-anchor="middle" x="207.5" y="-160" font-family="Helvetica,sans-Serif" font-size="10.00">_bottom</text>
</a>
</g>
</g>
<!-- Node1&#45;&gt;Node2 -->
<g id="edge1" class="edge"><title>Node1&#45;&gt;Node2</title>
<path fill="none" stroke="midnightblue" d="M76.7131,-107.364C92.4966,-119.027 113.129,-133.07 133,-143 140.355,-146.675 148.378,-150.018 156.333,-152.979"/>
<polygon fill="midnightblue" stroke="midnightblue" points="78.5746,-104.385 68.4788,-101.171 74.3671,-109.979 78.5746,-104.385"/>
</g>
<!-- Node3 -->
<g id="node3" class="node"><title>Node3</title>
<g id="a_node3"><a xlink:href="../../d4/deb/classpfasst_1_1PFASST.html#a41a9c18c3aef38b90847732b29ba7272" target="_top" xlink:title="Sweep on current (fine), restrict to coarse. ">
<polygon fill="white" stroke="black" points="133,-114.5 133,-133.5 282,-133.5 282,-114.5 133,-114.5"/>
<text text-anchor="middle" x="207.5" y="-121.5" font-family="Helvetica,sans-Serif" font-size="10.00">pfasst::PFASST::cycle_down</text>
</a>
</g>
</g>
<!-- Node1&#45;&gt;Node3 -->
<g id="edge2" class="edge"><title>Node1&#45;&gt;Node3</title>
<path fill="none" stroke="midnightblue" d="M106.959,-99.9074C126.933,-104.742 148.869,-110.051 167.053,-114.452"/>
<polygon fill="midnightblue" stroke="midnightblue" points="107.574,-96.4551 97.0312,-97.5044 105.927,-103.259 107.574,-96.4551"/>
</g>
<!-- Node4 -->
<g id="node4" class="node"><title>Node4</title>
<g id="a_node4"><a xlink:href="../../db/d56/classpfasst_1_1MLSDC.html#a7fc232b6b1ef7a2ee086da0291279a20" target="_top" xlink:title="Sweep on current (fine), restrict to coarse. ">
<polygon fill="white" stroke="black" points="135.5,-76.5 135.5,-95.5 279.5,-95.5 279.5,-76.5 135.5,-76.5"/>
<text text-anchor="middle" x="207.5" y="-83.5" font-family="Helvetica,sans-Serif" font-size="10.00">pfasst::MLSDC::cycle_down</text>
</a>
</g>
</g>
<!-- Node1&#45;&gt;Node4 -->
<g id="edge3" class="edge"><title>Node1&#45;&gt;Node4</title>
<path fill="none" stroke="midnightblue" d="M107.184,-86C116.357,-86 125.939,-86 135.377,-86"/>
<polygon fill="midnightblue" stroke="midnightblue" points="107.031,-82.5001 97.0312,-86 107.031,-89.5001 107.031,-82.5001"/>
</g>
<!-- Node5 -->
<g id="node5" class="node"><title>Node5</title>
<g id="a_node5"><a xlink:href="../../d4/deb/classpfasst_1_1PFASST.html#aafd37418956347b374eee1fe65bc4a86" target="_top" xlink:title="Interpolate coarse correction to fine, sweep on current (fine). ">
<polygon fill="white" stroke="black" points="140,-38.5 140,-57.5 275,-57.5 275,-38.5 140,-38.5"/>
<text text-anchor="middle" x="207.5" y="-45.5" font-family="Helvetica,sans-Serif" font-size="10.00">pfasst::PFASST::cycle_up</text>
</a>
</g>
</g>
<!-- Node1&#45;&gt;Node5 -->
<g id="edge4" class="edge"><title>Node1&#45;&gt;Node5</title>
<path fill="none" stroke="midnightblue" d="M106.959,-72.0926C126.933,-67.2582 148.869,-61.9489 167.053,-57.5476"/>
<polygon fill="midnightblue" stroke="midnightblue" points="105.927,-68.7413 97.0312,-74.4956 107.574,-75.5449 105.927,-68.7413"/>
</g>
<!-- Node6 -->
<g id="node6" class="node"><title>Node6</title>
<g id="a_node6"><a xlink:href="../../db/d56/classpfasst_1_1MLSDC.html#a51fdf321f0ae3c4004b74a9db6cba9fd" target="_top" xlink:title="Interpolate coarse correction to fine, sweep on current (fine). ">
<polygon fill="white" stroke="black" points="142.5,-0.5 142.5,-19.5 272.5,-19.5 272.5,-0.5 142.5,-0.5"/>
<text text-anchor="middle" x="207.5" y="-7.5" font-family="Helvetica,sans-Serif" font-size="10.00">pfasst::MLSDC::cycle_up</text>
</a>
</g>
</g>
<!-- Node1&#45;&gt;Node6 -->
<g id="edge5" class="edge"><title>Node1&#45;&gt;Node6</title>
<path fill="none" stroke="midnightblue" d="M75.8134,-64.5324C91.5844,-52.589 112.501,-38.3015 133,-29 141.281,-25.2423 150.438,-22.1299 159.397,-19.588"/>
<polygon fill="midnightblue" stroke="midnightblue" points="73.3801,-61.9899 67.6165,-70.8799 77.666,-67.5245 73.3801,-61.9899"/>
</g>
</g>
</svg>
