<?xml version="1.0" encoding="UTF-8" standalone="no"?>
<!DOCTYPE svg PUBLIC "-//W3C//DTD SVG 1.1//EN"
 "http://www.w3.org/Graphics/SVG/1.1/DTD/svg11.dtd">
<!-- Generated by graphviz version 2.38.0 (20140413.2041)
 -->
<!-- Title: pfasst::Controller::LevelIter::transfer Pages: 1 -->
<svg width="293pt" height="142pt"
 viewBox="0.00 0.00 293.00 142.00" xmlns="http://www.w3.org/2000/svg" xmlns:xlink="http://www.w3.org/1999/xlink">
<g id="graph0" class="graph" transform="scale(1 1) rotate(0) translate(4 138)">
<title>pfasst::Controller::LevelIter::transfer</title>
<polygon fill="white" stroke="none" points="-4,4 -4,-138 289,-138 289,4 -4,4"/>
<!-- Node1 -->
<g id="node1" class="node"><title>Node1</title>
<polygon fill="#bfbfbf" stroke="black" points="0,-52 0,-82 100,-82 100,-52 0,-52"/>
<text text-anchor="start" x="8" y="-70" font-family="Helvetica,sans-Serif" font-size="10.00">pfasst::Controller</text>
<text text-anchor="middle" x="50" y="-59" font-family="Helvetica,sans-Serif" font-size="10.00">::LevelIter::transfer</text>
</g>
<!-- Node2 -->
<g id="node2" class="node"><title>Node2</title>
<g id="a_node2"><a xlink:href="../../d4/deb/classpfasst_1_1PFASST.html#a41a9c18c3aef38b90847732b29ba7272" target="_top" xlink:title="Sweep on current (fine), restrict to coarse. ">
<polygon fill="white" stroke="black" points="136,-114.5 136,-133.5 285,-133.5 285,-114.5 136,-114.5"/>
<text text-anchor="middle" x="210.5" y="-121.5" font-family="Helvetica,sans-Serif" font-size="10.00">pfasst::PFASST::cycle_down</text>
</a>
</g>
</g>
<!-- Node1&#45;&gt;Node2 -->
<g id="edge1" class="edge"><title>Node1&#45;&gt;Node2</title>
<path fill="none" stroke="midnightblue" d="M90.9476,-86.5158C104.986,-92.9281 121.001,-99.75 136,-105 146.076,-108.527 157.135,-111.724 167.544,-114.447"/>
<polygon fill="midnightblue" stroke="midnightblue" points="92.1253,-83.2038 81.5814,-82.1663 89.177,-89.5526 92.1253,-83.2038"/>
</g>
<!-- Node3 -->
<g id="node3" class="node"><title>Node3</title>
<g id="a_node3"><a xlink:href="../../db/d56/classpfasst_1_1MLSDC.html#a7fc232b6b1ef7a2ee086da0291279a20" target="_top" xlink:title="Sweep on current (fine), restrict to coarse. ">
<polygon fill="white" stroke="black" points="138.5,-76.5 138.5,-95.5 282.5,-95.5 282.5,-76.5 138.5,-76.5"/>
<text text-anchor="middle" x="210.5" y="-83.5" font-family="Helvetica,sans-Serif" font-size="10.00">pfasst::MLSDC::cycle_down</text>
</a>
</g>
</g>
<!-- Node1&#45;&gt;Node3 -->
<g id="edge2" class="edge"><title>Node1&#45;&gt;Node3</title>
<path fill="none" stroke="midnightblue" d="M110.413,-74.122C119.552,-75.2176 129.068,-76.3583 138.43,-77.4806"/>
<polygon fill="midnightblue" stroke="midnightblue" points="110.627,-70.6228 100.282,-72.9076 109.794,-77.573 110.627,-70.6228"/>
</g>
<!-- Node4 -->
<g id="node4" class="node"><title>Node4</title>
<g id="a_node4"><a xlink:href="../../d4/deb/classpfasst_1_1PFASST.html#aafd37418956347b374eee1fe65bc4a86" target="_top" xlink:title="Interpolate coarse correction to fine, sweep on current (fine). ">
<polygon fill="white" stroke="black" points="143,-38.5 143,-57.5 278,-57.5 278,-38.5 143,-38.5"/>
<text text-anchor="middle" x="210.5" y="-45.5" font-family="Helvetica,sans-Serif" font-size="10.00">pfasst::PFASST::cycle_up</text>
</a>
</g>
</g>
<!-- Node1&#45;&gt;Node4 -->
<g id="edge3" class="edge"><title>Node1&#45;&gt;Node4</title>
<path fill="none" stroke="midnightblue" d="M110.264,-59.8958C120.867,-58.6247 131.981,-57.2925 142.777,-55.9983"/>
<polygon fill="midnightblue" stroke="midnightblue" points="109.794,-56.427 100.282,-61.0924 110.627,-63.3772 109.794,-56.427"/>
</g>
<!-- Node5 -->
<g id="node5" class="node"><title>Node5</title>
<g id="a_node5"><a xlink:href="../../db/d56/classpfasst_1_1MLSDC.html#a51fdf321f0ae3c4004b74a9db6cba9fd" target="_top" xlink:title="Interpolate coarse correction to fine, sweep on current (fine). ">
<polygon fill="white" stroke="black" points="145.5,-0.5 145.5,-19.5 275.5,-19.5 275.5,-0.5 145.5,-0.5"/>
<text text-anchor="middle" x="210.5" y="-7.5" font-family="Helvetica,sans-Serif" font-size="10.00">pfasst::MLSDC::cycle_up</text>
</a>
</g>
</g>
<!-- Node1&#45;&gt;Node5 -->
<g id="edge4" class="edge"><title>Node1&#45;&gt;Node5</title>
<path fill="none" stroke="midnightblue" d="M90.9476,-47.4842C104.986,-41.0719 121.001,-34.25 136,-29 146.076,-25.4732 157.135,-22.276 167.544,-19.553"/>
<polygon fill="midnightblue" stroke="midnightblue" points="89.177,-44.4474 81.5814,-51.8337 92.1253,-50.7962 89.177,-44.4474"/>
</g>
</g>
</svg>
