<?xml version="1.0" encoding="UTF-8" standalone="no"?>
<!DOCTYPE svg PUBLIC "-//W3C//DTD SVG 1.1//EN"
 "http://www.w3.org/Graphics/SVG/1.1/DTD/svg11.dtd">
<!-- Generated by graphviz version 2.38.0 (20140413.2041)
 -->
<!-- Title: pfasst::SDC::run Pages: 1 -->
<svg width="445pt" height="280pt"
 viewBox="0.00 0.00 445.00 279.50" xmlns="http://www.w3.org/2000/svg" xmlns:xlink="http://www.w3.org/1999/xlink">
<g id="graph0" class="graph" transform="scale(1 1) rotate(0) translate(4 275.5)">
<title>pfasst::SDC::run</title>
<polygon fill="white" stroke="none" points="-4,4 -4,-275.5 441,-275.5 441,4 -4,4"/>
<!-- Node1 -->
<g id="node1" class="node"><title>Node1</title>
<polygon fill="#bfbfbf" stroke="black" points="0,-110 0,-129 90,-129 90,-110 0,-110"/>
<text text-anchor="middle" x="45" y="-117" font-family="Helvetica,sans-Serif" font-size="10.00">pfasst::SDC::run</text>
</g>
<!-- Node2 -->
<g id="node2" class="node"><title>Node2</title>
<g id="a_node2"><a xlink:href="../../d1/d6e/group__Scalar.html#ga2e2a4c57c66ad0f2716d59ee2f4f457a" target="_top" xlink:title="Scalar test equation example using an encapsulated IMEX sweeper. ">
<polygon fill="white" stroke="black" points="134,-186.5 134,-216.5 261,-216.5 261,-186.5 134,-186.5"/>
<text text-anchor="start" x="142" y="-204.5" font-family="Helvetica,sans-Serif" font-size="10.00">pfasst::examples::scalar</text>
<text text-anchor="middle" x="197.5" y="-193.5" font-family="Helvetica,sans-Serif" font-size="10.00">::run_scalar_sdc</text>
</a>
</g>
</g>
<!-- Node1&#45;&gt;Node2 -->
<g id="edge1" class="edge"><title>Node1&#45;&gt;Node2</title>
<path fill="none" stroke="midnightblue" d="M72.4657,-133.92C99.5262,-148.664 141.38,-171.468 168.859,-186.44"/>
<polygon fill="midnightblue" stroke="midnightblue" points="74.0146,-130.778 63.5588,-129.067 70.6654,-136.925 74.0146,-130.778"/>
</g>
<!-- Node6 -->
<g id="node6" class="node"><title>Node6</title>
<g id="a_node6"><a xlink:href="../../d9/d85/group__AdvectionDiffusion.html#ga5a89fd6a8787527e482f6c853d0eec57" target="_top" xlink:title="Advection/diffusion example using an encapsulated IMEX sweeper. ">
<polygon fill="white" stroke="black" points="126,-104.5 126,-134.5 269,-134.5 269,-104.5 126,-104.5"/>
<text text-anchor="start" x="134" y="-122.5" font-family="Helvetica,sans-Serif" font-size="10.00">pfasst::examples::advection</text>
<text text-anchor="middle" x="197.5" y="-111.5" font-family="Helvetica,sans-Serif" font-size="10.00">_diffusion::run_vanilla_sdc</text>
</a>
</g>
</g>
<!-- Node1&#45;&gt;Node6 -->
<g id="edge5" class="edge"><title>Node1&#45;&gt;Node6</title>
<path fill="none" stroke="midnightblue" d="M100.561,-119.5C108.808,-119.5 117.414,-119.5 125.939,-119.5"/>
<polygon fill="midnightblue" stroke="midnightblue" points="100.341,-116 90.341,-119.5 100.341,-123 100.341,-116"/>
</g>
<!-- Node9 -->
<g id="node9" class="node"><title>Node9</title>
<g id="a_node9"><a xlink:href="../../dd/d53/group__VanDerPol.html#gaa51c826dc921007c0e95faf30a4510d5" target="_top" xlink:title="pfasst::examples::vdp\l::run_vdp_sdc">
<polygon fill="white" stroke="black" points="139.5,-44.5 139.5,-74.5 255.5,-74.5 255.5,-44.5 139.5,-44.5"/>
<text text-anchor="start" x="147.5" y="-62.5" font-family="Helvetica,sans-Serif" font-size="10.00">pfasst::examples::vdp</text>
<text text-anchor="middle" x="197.5" y="-51.5" font-family="Helvetica,sans-Serif" font-size="10.00">::run_vdp_sdc</text>
</a>
</g>
</g>
<!-- Node1&#45;&gt;Node9 -->
<g id="edge8" class="edge"><title>Node1&#45;&gt;Node9</title>
<path fill="none" stroke="midnightblue" d="M79.3746,-106.195C102.847,-96.8369 134.293,-84.3 158.692,-74.5728"/>
<polygon fill="midnightblue" stroke="midnightblue" points="77.84,-103.038 69.8472,-109.993 80.4324,-109.541 77.84,-103.038"/>
</g>
<!-- Node3 -->
<g id="node3" class="node"><title>Node3</title>
<g id="a_node3"><a xlink:href="../../d2/daf/scalar__sdc_8cpp.html#a3c04138a5bfe5d72780bb7e82a18e627" target="_top" xlink:title="main">
<polygon fill="white" stroke="black" points="352,-252 352,-271 390,-271 390,-252 352,-252"/>
<text text-anchor="middle" x="371" y="-259" font-family="Helvetica,sans-Serif" font-size="10.00">main</text>
</a>
</g>
</g>
<!-- Node2&#45;&gt;Node3 -->
<g id="edge2" class="edge"><title>Node2&#45;&gt;Node3</title>
<path fill="none" stroke="midnightblue" d="M245.065,-220.391C263.592,-227.653 285.181,-235.801 305,-242.5 320.705,-247.808 338.828,-253.033 351.942,-256.656"/>
<polygon fill="midnightblue" stroke="midnightblue" points="246.268,-217.103 235.682,-216.686 243.698,-223.614 246.268,-217.103"/>
</g>
<!-- Node4 -->
<g id="node4" class="node"><title>Node4</title>
<g id="a_node4"><a xlink:href="../../d3/d6a/classConvergenceTest.html#a18a32024b87b7ee689df7e0375ea8ede" target="_top" xlink:title="ConvergenceTest::SetUp">
<polygon fill="white" stroke="black" points="305,-214 305,-233 437,-233 437,-214 305,-214"/>
<text text-anchor="middle" x="371" y="-221" font-family="Helvetica,sans-Serif" font-size="10.00">ConvergenceTest::SetUp</text>
</a>
</g>
</g>
<!-- Node2&#45;&gt;Node4 -->
<g id="edge3" class="edge"><title>Node2&#45;&gt;Node4</title>
<path fill="none" stroke="midnightblue" d="M271.46,-210.859C282.543,-212.281 293.917,-213.74 304.819,-215.139"/>
<polygon fill="midnightblue" stroke="midnightblue" points="271.751,-207.368 261.386,-209.567 270.86,-214.311 271.751,-207.368"/>
</g>
<!-- Node5 -->
<g id="node5" class="node"><title>Node5</title>
<g id="a_node5"><a xlink:href="../../d1/dee/classHighPrecisionTest.html#a1d448fa5c3fe1a3f2f60cd1fb77dba08" target="_top" xlink:title="HighPrecisionTest::\lSetUp">
<polygon fill="white" stroke="black" points="318,-164.5 318,-194.5 424,-194.5 424,-164.5 318,-164.5"/>
<text text-anchor="start" x="326" y="-182.5" font-family="Helvetica,sans-Serif" font-size="10.00">HighPrecisionTest::</text>
<text text-anchor="middle" x="371" y="-171.5" font-family="Helvetica,sans-Serif" font-size="10.00">SetUp</text>
</a>
</g>
</g>
<!-- Node2&#45;&gt;Node5 -->
<g id="edge4" class="edge"><title>Node2&#45;&gt;Node5</title>
<path fill="none" stroke="midnightblue" d="M271.511,-192.134C287.077,-190.137 303.215,-188.067 317.813,-186.195"/>
<polygon fill="midnightblue" stroke="midnightblue" points="270.86,-188.689 261.386,-193.433 271.751,-195.632 270.86,-188.689"/>
</g>
<!-- Node7 -->
<g id="node7" class="node"><title>Node7</title>
<g id="a_node7"><a xlink:href="../../d4/df0/vanilla__sdc_8cpp.html#a3c04138a5bfe5d72780bb7e82a18e627" target="_top" xlink:title="main">
<polygon fill="white" stroke="black" points="352,-126 352,-145 390,-145 390,-126 352,-126"/>
<text text-anchor="middle" x="371" y="-133" font-family="Helvetica,sans-Serif" font-size="10.00">main</text>
</a>
</g>
</g>
<!-- Node6&#45;&gt;Node7 -->
<g id="edge6" class="edge"><title>Node6&#45;&gt;Node7</title>
<path fill="none" stroke="midnightblue" d="M279.544,-127.061C306.551,-129.581 334.183,-132.158 351.68,-133.791"/>
<polygon fill="midnightblue" stroke="midnightblue" points="279.528,-123.544 269.246,-126.1 278.877,-130.514 279.528,-123.544"/>
</g>
<!-- Node8 -->
<g id="node8" class="node"><title>Node8</title>
<g id="a_node8"><a xlink:href="../../df/df8/test__advection__diffusion_8cpp.html#aa11b7a5c6a1ab75dcaf86ed3e74c7a3f" target="_top" xlink:title="TEST">
<polygon fill="white" stroke="black" points="349,-88 349,-107 393,-107 393,-88 349,-88"/>
<text text-anchor="middle" x="371" y="-95" font-family="Helvetica,sans-Serif" font-size="10.00">TEST</text>
</a>
</g>
</g>
<!-- Node6&#45;&gt;Node8 -->
<g id="edge7" class="edge"><title>Node6&#45;&gt;Node8</title>
<path fill="none" stroke="midnightblue" d="M279.375,-109.125C304.941,-105.846 331.087,-102.492 348.683,-100.235"/>
<polygon fill="midnightblue" stroke="midnightblue" points="278.719,-105.681 269.246,-110.425 279.61,-112.624 278.719,-105.681"/>
</g>
<!-- Node10 -->
<g id="node10" class="node"><title>Node10</title>
<g id="a_node10"><a xlink:href="../../df/de7/vdp__sdc_8cpp.html#a3c04138a5bfe5d72780bb7e82a18e627" target="_top" xlink:title="main">
<polygon fill="white" stroke="black" points="352,-50 352,-69 390,-69 390,-50 352,-50"/>
<text text-anchor="middle" x="371" y="-57" font-family="Helvetica,sans-Serif" font-size="10.00">main</text>
</a>
</g>
</g>
<!-- Node9&#45;&gt;Node10 -->
<g id="edge9" class="edge"><title>Node9&#45;&gt;Node10</title>
<path fill="none" stroke="midnightblue" d="M265.999,-59.5C297.096,-59.5 331.55,-59.5 351.961,-59.5"/>
<polygon fill="midnightblue" stroke="midnightblue" points="265.607,-56.0001 255.607,-59.5 265.607,-63.0001 265.607,-56.0001"/>
</g>
<!-- Node11 -->
<g id="node11" class="node"><title>Node11</title>
<g id="a_node11"><a xlink:href="../../d8/d13/classVdPConvergenceTest.html#a08c22d8d5be8f9796e0866f3fe3277bb" target="_top" xlink:title="VdPConvergenceTest\l::SetUp">
<polygon fill="white" stroke="black" points="311.5,-0.5 311.5,-30.5 430.5,-30.5 430.5,-0.5 311.5,-0.5"/>
<text text-anchor="start" x="319.5" y="-18.5" font-family="Helvetica,sans-Serif" font-size="10.00">VdPConvergenceTest</text>
<text text-anchor="middle" x="371" y="-7.5" font-family="Helvetica,sans-Serif" font-size="10.00">::SetUp</text>
</a>
</g>
</g>
<!-- Node9&#45;&gt;Node11 -->
<g id="edge10" class="edge"><title>Node9&#45;&gt;Node11</title>
<path fill="none" stroke="midnightblue" d="M265.433,-42.3276C280.6,-38.4365 296.593,-34.3334 311.384,-30.5385"/>
<polygon fill="midnightblue" stroke="midnightblue" points="264.423,-38.9732 255.607,-44.8486 266.163,-45.7537 264.423,-38.9732"/>
</g>
</g>
</svg>
