<?xml version="1.0" encoding="UTF-8" standalone="no"?>
<!DOCTYPE svg PUBLIC "-//W3C//DTD SVG 1.1//EN"
 "http://www.w3.org/Graphics/SVG/1.1/DTD/svg11.dtd">
<!-- Generated by graphviz version 2.38.0 (20140413.2041)
 -->
<!-- Title: include/pfasst/mpi_communicator.hpp Pages: 1 -->
<svg width="428pt" height="106pt"
 viewBox="0.00 0.00 428.00 106.00" xmlns="http://www.w3.org/2000/svg" xmlns:xlink="http://www.w3.org/1999/xlink">
<g id="graph0" class="graph" transform="scale(1 1) rotate(0) translate(4 102)">
<title>include/pfasst/mpi_communicator.hpp</title>
<polygon fill="white" stroke="none" points="-4,4 -4,-102 424,-102 424,4 -4,4"/>
<!-- Node1 -->
<g id="node1" class="node"><title>Node1</title>
<polygon fill="#bfbfbf" stroke="black" points="98.5,-67.5 98.5,-97.5 201.5,-97.5 201.5,-67.5 98.5,-67.5"/>
<text text-anchor="start" x="106.5" y="-85.5" font-family="Helvetica,sans-Serif" font-size="10.00">include/pfasst/mpi</text>
<text text-anchor="middle" x="150" y="-74.5" font-family="Helvetica,sans-Serif" font-size="10.00">_communicator.hpp</text>
</g>
<!-- Node2 -->
<g id="node2" class="node"><title>Node2</title>
<g id="a_node2"><a xlink:href="../../d2/d35/mpi__communicator__impl_8hpp.html" target="_top" xlink:title="src/pfasst/mpi_communicator\l_impl.hpp">
<polygon fill="white" stroke="black" points="0,-0.5 0,-30.5 146,-30.5 146,-0.5 0,-0.5"/>
<text text-anchor="start" x="8" y="-18.5" font-family="Helvetica,sans-Serif" font-size="10.00">src/pfasst/mpi_communicator</text>
<text text-anchor="middle" x="73" y="-7.5" font-family="Helvetica,sans-Serif" font-size="10.00">_impl.hpp</text>
</a>
</g>
</g>
<!-- Node1&#45;&gt;Node2 -->
<g id="edge1" class="edge"><title>Node1&#45;&gt;Node2</title>
<path fill="none" stroke="midnightblue" d="M119.603,-61.1677C107.078,-51.2283 93.4134,-39.5144 84.0004,-30.5765"/>
<polygon fill="midnightblue" stroke="midnightblue" points="117.571,-64.0208 127.614,-67.396 121.868,-58.4947 117.571,-64.0208"/>
</g>
<!-- Node3 -->
<g id="node3" class="node"><title>Node3</title>
<g id="a_node3"><a xlink:href="../../d1/d49/mpi__pfasst_8cpp.html" target="_top" xlink:title="Advection&#45;Diffusion with MPI&#45;enabled PFASST. ">
<polygon fill="white" stroke="black" points="164.5,-0.5 164.5,-30.5 291.5,-30.5 291.5,-0.5 164.5,-0.5"/>
<text text-anchor="start" x="172.5" y="-18.5" font-family="Helvetica,sans-Serif" font-size="10.00">examples/advection</text>
<text text-anchor="middle" x="228" y="-7.5" font-family="Helvetica,sans-Serif" font-size="10.00">_diffusion/mpi_pfasst.cpp</text>
</a>
</g>
</g>
<!-- Node1&#45;&gt;Node3 -->
<g id="edge3" class="edge"><title>Node1&#45;&gt;Node3</title>
<path fill="none" stroke="midnightblue" d="M174.74,-60.8832C186.593,-51.0054 200.485,-39.4293 211.108,-30.5765"/>
<polygon fill="midnightblue" stroke="midnightblue" points="172.366,-58.3053 166.925,-67.396 176.848,-63.6829 172.366,-58.3053"/>
</g>
<!-- Node4 -->
<g id="node4" class="node"><title>Node4</title>
<g id="a_node4"><a xlink:href="../../d2/d1e/boris__pfasst_8cpp.html" target="_top" xlink:title="examples/boris/boris\l_pfasst.cpp">
<polygon fill="white" stroke="black" points="310,-0.5 310,-30.5 420,-30.5 420,-0.5 310,-0.5"/>
<text text-anchor="start" x="318" y="-18.5" font-family="Helvetica,sans-Serif" font-size="10.00">examples/boris/boris</text>
<text text-anchor="middle" x="365" y="-7.5" font-family="Helvetica,sans-Serif" font-size="10.00">_pfasst.cpp</text>
</a>
</g>
</g>
<!-- Node1&#45;&gt;Node4 -->
<g id="edge4" class="edge"><title>Node1&#45;&gt;Node4</title>
<path fill="none" stroke="midnightblue" d="M205.967,-64.5797C240.887,-54.0225 285.311,-40.5921 318.325,-30.6109"/>
<polygon fill="midnightblue" stroke="midnightblue" points="204.946,-61.2318 196.387,-67.476 206.972,-67.9323 204.946,-61.2318"/>
</g>
<!-- Node2&#45;&gt;Node1 -->
<g id="edge2" class="edge"><title>Node2&#45;&gt;Node1</title>
<path fill="none" stroke="midnightblue" d="M103.358,-36.8018C115.881,-46.7375 129.549,-58.4524 138.971,-67.396"/>
<polygon fill="midnightblue" stroke="midnightblue" points="105.393,-33.9507 95.3501,-30.5765 101.097,-39.4772 105.393,-33.9507"/>
</g>
</g>
</svg>
