<?xml version="1.0" encoding="UTF-8" standalone="no"?>
<!DOCTYPE svg PUBLIC "-//W3C//DTD SVG 1.1//EN"
 "http://www.w3.org/Graphics/SVG/1.1/DTD/svg11.dtd">
<!-- Generated by graphviz version 2.38.0 (20140413.2041)
 -->
<!-- Title: pfasst::examples::advection_diffusion::FFT::workspace Pages: 1 -->
<svg width="151pt" height="309pt"
 viewBox="0.00 0.00 151.00 309.00" xmlns="http://www.w3.org/2000/svg" xmlns:xlink="http://www.w3.org/1999/xlink">
<g id="graph0" class="graph" transform="scale(1 1) rotate(0) translate(4 305)">
<title>pfasst::examples::advection_diffusion::FFT::workspace</title>
<polygon fill="white" stroke="none" points="-4,4 -4,-305 147,-305 147,4 -4,4"/>
<!-- Node1 -->
<g id="node1" class="node"><title>Node1</title>
<polygon fill="#bfbfbf" stroke="black" points="0,-0.5 0,-90.5 143,-90.5 143,-0.5 0,-0.5"/>
<text text-anchor="start" x="8" y="-78.5" font-family="Helvetica,sans-Serif" font-size="10.00">pfasst::examples::advection</text>
<text text-anchor="middle" x="71.5" y="-67.5" font-family="Helvetica,sans-Serif" font-size="10.00">_diffusion::FFT::workspace</text>
<polyline fill="none" stroke="black" points="0,-60.5 143,-60.5 "/>
<text text-anchor="start" x="8" y="-48.5" font-family="Helvetica,sans-Serif" font-size="10.00">+ ffft</text>
<text text-anchor="start" x="8" y="-37.5" font-family="Helvetica,sans-Serif" font-size="10.00">+ ifft</text>
<text text-anchor="start" x="8" y="-26.5" font-family="Helvetica,sans-Serif" font-size="10.00">+ wk</text>
<polyline fill="none" stroke="black" points="0,-19.5 143,-19.5 "/>
<text text-anchor="middle" x="71.5" y="-7.5" font-family="Helvetica,sans-Serif" font-size="10.00"> </text>
</g>
<!-- Node2 -->
<g id="node2" class="node"><title>Node2</title>
<polygon fill="white" stroke="#bfbfbf" points="10,-138.5 10,-195.5 133,-195.5 133,-138.5 10,-138.5"/>
<text text-anchor="middle" x="71.5" y="-183.5" font-family="Helvetica,sans-Serif" font-size="10.00">std::complex&lt; double &gt;</text>
<polyline fill="none" stroke="#bfbfbf" points="10,-176.5 133,-176.5 "/>
<text text-anchor="middle" x="71.5" y="-164.5" font-family="Helvetica,sans-Serif" font-size="10.00"> </text>
<polyline fill="none" stroke="#bfbfbf" points="10,-157.5 133,-157.5 "/>
<text text-anchor="middle" x="71.5" y="-145.5" font-family="Helvetica,sans-Serif" font-size="10.00"> </text>
</g>
<!-- Node2&#45;&gt;Node1 -->
<g id="edge1" class="edge"><title>Node2&#45;&gt;Node1</title>
<path fill="none" stroke="#404040" d="M71.5,-138.284C71.5,-127.735 71.5,-115.294 71.5,-103.035"/>
<polygon fill="none" stroke="#404040" points="71.5001,-102.912 67.5,-96.9125 71.5,-90.9125 75.5,-96.9124 71.5001,-102.912"/>
<text text-anchor="middle" x="79" y="-112" font-family="Helvetica,sans-Serif" font-size="10.00"> +z</text>
</g>
<!-- Node3 -->
<g id="node3" class="node"><title>Node3</title>
<g id="a_node3"><a xlink:title="STL class. ">
<polygon fill="white" stroke="#bfbfbf" points="34.5,-243.5 34.5,-300.5 108.5,-300.5 108.5,-243.5 34.5,-243.5"/>
<text text-anchor="middle" x="71.5" y="-288.5" font-family="Helvetica,sans-Serif" font-size="10.00">std::complex</text>
<polyline fill="none" stroke="#bfbfbf" points="34.5,-281.5 108.5,-281.5 "/>
<text text-anchor="middle" x="71.5" y="-269.5" font-family="Helvetica,sans-Serif" font-size="10.00"> </text>
<polyline fill="none" stroke="#bfbfbf" points="34.5,-262.5 108.5,-262.5 "/>
<text text-anchor="middle" x="71.5" y="-250.5" font-family="Helvetica,sans-Serif" font-size="10.00"> </text>
</a>
</g>
</g>
<!-- Node3&#45;&gt;Node2 -->
<g id="edge2" class="edge"><title>Node3&#45;&gt;Node2</title>
<path fill="none" stroke="orange" d="M71.5,-233.286C71.5,-220.839 71.5,-207.233 71.5,-195.678"/>
<polygon fill="orange" stroke="orange" points="68.0001,-233.398 71.5,-243.398 75.0001,-233.398 68.0001,-233.398"/>
<text text-anchor="middle" x="97.5" y="-217" font-family="Helvetica,sans-Serif" font-size="10.00"> &lt; double &gt;</text>
</g>
</g>
</svg>
