<?xml version="1.0" encoding="UTF-8" standalone="no"?>
<!DOCTYPE svg PUBLIC "-//W3C//DTD SVG 1.1//EN"
 "http://www.w3.org/Graphics/SVG/1.1/DTD/svg11.dtd">
<!-- Generated by graphviz version 2.38.0 (20140413.2041)
 -->
<!-- Title: examples/boris/particle.hpp Pages: 1 -->
<!--zoomable 385 -->
<svg id="main" version="1.1" xmlns="http://www.w3.org/2000/svg" xmlns:xlink="http://www.w3.org/1999/xlink" xml:space="preserve" onload="init(evt)">
<style type="text/css"><![CDATA[
.edge:hover path { stroke: red; }
.edge:hover polygon { stroke: red; fill: red; }
]]></style>
<script type="text/javascript"><![CDATA[
var edges = document.getElementsByTagName('g');
if (edges && edges.length) {
  for (var i=0;i<edges.length;i++) {
    if (edges[i].id.substr(0,4)=='edge') {
      edges[i].setAttribute('class','edge');
    }
  }
}
]]></script>
        <defs>
                <circle id="rim" cx="0" cy="0" r="7"/>
                <circle id="rim2" cx="0" cy="0" r="3.5"/>
                <g id="zoomPlus">
                        <use xlink:href="#rim" fill="#404040">
                                <set attributeName="fill" to="#808080" begin="zoomplus.mouseover" end="zoomplus.mouseout"/>
                        </use>
                        <path d="M-4,0h8M0,-4v8" fill="none" stroke="white" stroke-width="1.5" pointer-events="none"/>
                </g>
                <g id="zoomMin">
                        <use xlink:href="#rim" fill="#404040">
                                <set attributeName="fill" to="#808080" begin="zoomminus.mouseover" end="zoomminus.mouseout"/>
                        </use>
                        <path d="M-4,0h8" fill="none" stroke="white" stroke-width="1.5" pointer-events="none"/>
                </g>
                <g id="dirArrow">
                        <path fill="none" stroke="white" stroke-width="1.5" d="M0,-3.0v7 M-2.5,-0.5L0,-3.0L2.5,-0.5"/>
                </g>
               <g id="resetDef">
                       <use xlink:href="#rim2" fill="#404040">
                               <set attributeName="fill" to="#808080" begin="reset.mouseover" end="reset.mouseout"/>
                       </use>
               </g>
        </defs>

<script type="text/javascript">
var viewWidth = 1048;
var viewHeight = 385;
var sectionId = 'dynsection-1';
</script>
<script xlink:href="../../svgpan.js"/>
<svg id="graph" class="graph">
<g id="viewport">
<title>examples/boris/particle.hpp</title>
<polygon fill="white" stroke="none" points="-4,4 -4,-381 1043.5,-381 1043.5,4 -4,4"/>
<!-- Node1 -->
<g id="node1" class="node"><title>Node1</title>
<polygon fill="#bfbfbf" stroke="black" points="740.5,-357.5 740.5,-376.5 879.5,-376.5 879.5,-357.5 740.5,-357.5"/>
<text text-anchor="middle" x="810" y="-364.5" font-family="Helvetica,sans-Serif" font-size="10.00">examples/boris/particle.hpp</text>
</g>
<!-- Node2 -->
<g id="node2" class="node"><title>Node2</title>
<g id="a_node2"><a xlink:href="../../d8/d52/particle__cloud_8hpp.html" target="_top" xlink:title="examples/boris/particle\l_cloud.hpp">
<polygon fill="white" stroke="black" points="521.5,-290.5 521.5,-320.5 642.5,-320.5 642.5,-290.5 521.5,-290.5"/>
<text text-anchor="start" x="529.5" y="-308.5" font-family="Helvetica,sans-Serif" font-size="10.00">examples/boris/particle</text>
<text text-anchor="middle" x="582" y="-297.5" font-family="Helvetica,sans-Serif" font-size="10.00">_cloud.hpp</text>
</a>
</g>
</g>
<!-- Node1&#45;&gt;Node2 -->
<g id="edge1" class="edge"><title>Node1&#45;&gt;Node2</title>
<path fill="none" stroke="midnightblue" d="M767.309,-354.859C730.082,-345.144 675.903,-331.006 635.735,-320.523"/>
<polygon fill="midnightblue" stroke="midnightblue" points="766.773,-358.337 777.333,-357.475 768.541,-351.563 766.773,-358.337"/>
</g>
<!-- Node6 -->
<g id="node6" class="node"><title>Node6</title>
<g id="a_node6"><a xlink:href="../../d7/d31/boris__mlsdc_8cpp.html" target="_top" xlink:title="examples/boris/boris\l_mlsdc.cpp">
<polygon fill="white" stroke="black" points="197,-0.5 197,-30.5 307,-30.5 307,-0.5 197,-0.5"/>
<text text-anchor="start" x="205" y="-18.5" font-family="Helvetica,sans-Serif" font-size="10.00">examples/boris/boris</text>
<text text-anchor="middle" x="252" y="-7.5" font-family="Helvetica,sans-Serif" font-size="10.00">_mlsdc.cpp</text>
</a>
</g>
</g>
<!-- Node1&#45;&gt;Node6 -->
<g id="edge32" class="edge"><title>Node1&#45;&gt;Node6</title>
<path fill="none" stroke="midnightblue" d="M730.17,-361.842C525.857,-350.141 0,-312.895 0,-239.5 0,-239.5 0,-239.5 0,-165 0,-112.979 21.8845,-97.5362 64,-67 102.989,-38.7306 156.824,-26.2856 196.896,-20.8073"/>
<polygon fill="midnightblue" stroke="midnightblue" points="730.057,-365.342 740.239,-362.413 730.453,-358.353 730.057,-365.342"/>
</g>
<!-- Node7 -->
<g id="node7" class="node"><title>Node7</title>
<g id="a_node7"><a xlink:href="../../d2/d1e/boris__pfasst_8cpp.html" target="_top" xlink:title="examples/boris/boris\l_pfasst.cpp">
<polygon fill="white" stroke="black" points="585,-0.5 585,-30.5 695,-30.5 695,-0.5 585,-0.5"/>
<text text-anchor="start" x="593" y="-18.5" font-family="Helvetica,sans-Serif" font-size="10.00">examples/boris/boris</text>
<text text-anchor="middle" x="640" y="-7.5" font-family="Helvetica,sans-Serif" font-size="10.00">_pfasst.cpp</text>
</a>
</g>
</g>
<!-- Node1&#45;&gt;Node7 -->
<g id="edge35" class="edge"><title>Node1&#45;&gt;Node7</title>
<path fill="none" stroke="midnightblue" d="M828.106,-350.479C851.706,-328.416 890,-285.524 890,-239.5 890,-239.5 890,-239.5 890,-165 890,-117.956 885.688,-97.6518 850,-67 807.047,-30.1079 741.703,-19.1672 695.326,-16.3987"/>
<polygon fill="midnightblue" stroke="midnightblue" points="825.535,-348.085 820.459,-357.385 830.226,-353.281 825.535,-348.085"/>
</g>
<!-- Node8 -->
<g id="node8" class="node"><title>Node8</title>
<g id="a_node8"><a xlink:href="../../d3/d93/boris__sdc_8cpp.html" target="_top" xlink:title="examples/boris/boris\l_sdc.cpp">
<polygon fill="white" stroke="black" points="290,-73 290,-103 400,-103 400,-73 290,-73"/>
<text text-anchor="start" x="298" y="-91" font-family="Helvetica,sans-Serif" font-size="10.00">examples/boris/boris</text>
<text text-anchor="middle" x="345" y="-80" font-family="Helvetica,sans-Serif" font-size="10.00">_sdc.cpp</text>
</a>
</g>
</g>
<!-- Node1&#45;&gt;Node8 -->
<g id="edge36" class="edge"><title>Node1&#45;&gt;Node8</title>
<path fill="none" stroke="midnightblue" d="M730.148,-357.75C612.146,-343.777 399.944,-311.241 352,-254 315.364,-210.26 331.456,-134.818 340.438,-103.392"/>
<polygon fill="midnightblue" stroke="midnightblue" points="729.881,-361.242 740.219,-358.924 730.692,-354.289 729.881,-361.242"/>
</g>
<!-- Node9 -->
<g id="node9" class="node"><title>Node9</title>
<g id="a_node9"><a xlink:href="../../db/dfd/boris__sweeper_8hpp.html" target="_top" xlink:title="examples/boris/boris\l_sweeper.hpp">
<polygon fill="white" stroke="black" points="539,-151 539,-181 649,-181 649,-151 539,-151"/>
<text text-anchor="start" x="547" y="-169" font-family="Helvetica,sans-Serif" font-size="10.00">examples/boris/boris</text>
<text text-anchor="middle" x="594" y="-158" font-family="Helvetica,sans-Serif" font-size="10.00">_sweeper.hpp</text>
</a>
</g>
</g>
<!-- Node1&#45;&gt;Node9 -->
<g id="edge33" class="edge"><title>Node1&#45;&gt;Node9</title>
<path fill="none" stroke="midnightblue" d="M799.335,-348.74C780.874,-319.91 740.54,-261.348 695,-223 674.296,-205.565 647.341,-190.946 626.485,-181.021"/>
<polygon fill="midnightblue" stroke="midnightblue" points="796.44,-350.711 804.733,-357.305 802.362,-346.979 796.44,-350.711"/>
</g>
<!-- Node10 -->
<g id="node10" class="node"><title>Node10</title>
<g id="a_node10"><a xlink:href="../../db/d9a/boris__sweeper__impl_8hpp.html" target="_top" xlink:title="examples/boris/boris\l_sweeper_impl.hpp">
<polygon fill="white" stroke="black" points="714,-73 714,-103 824,-103 824,-73 714,-73"/>
<text text-anchor="start" x="722" y="-91" font-family="Helvetica,sans-Serif" font-size="10.00">examples/boris/boris</text>
<text text-anchor="middle" x="769" y="-80" font-family="Helvetica,sans-Serif" font-size="10.00">_sweeper_impl.hpp</text>
</a>
</g>
</g>
<!-- Node1&#45;&gt;Node10 -->
<g id="edge34" class="edge"><title>Node1&#45;&gt;Node10</title>
<path fill="none" stroke="midnightblue" d="M807.227,-347.266C799.506,-295.102 777.881,-148.999 771.077,-103.031"/>
<polygon fill="midnightblue" stroke="midnightblue" points="803.801,-348.026 808.728,-357.406 810.726,-347.001 803.801,-348.026"/>
</g>
<!-- Node13 -->
<g id="node13" class="node"><title>Node13</title>
<g id="a_node13"><a xlink:href="../../d3/d35/particle__impl_8hpp.html" target="_top" xlink:title="examples/boris/particle\l_impl.hpp">
<polygon fill="white" stroke="black" points="918.5,-290.5 918.5,-320.5 1039.5,-320.5 1039.5,-290.5 918.5,-290.5"/>
<text text-anchor="start" x="926.5" y="-308.5" font-family="Helvetica,sans-Serif" font-size="10.00">examples/boris/particle</text>
<text text-anchor="middle" x="979" y="-297.5" font-family="Helvetica,sans-Serif" font-size="10.00">_impl.hpp</text>
</a>
</g>
</g>
<!-- Node1&#45;&gt;Node13 -->
<g id="edge30" class="edge"><title>Node1&#45;&gt;Node13</title>
<path fill="none" stroke="midnightblue" d="M838.951,-353.847C864.92,-344.182 903.275,-330.647 933.34,-320.523"/>
<polygon fill="midnightblue" stroke="midnightblue" points="837.439,-350.677 829.313,-357.475 839.905,-357.228 837.439,-350.677"/>
</g>
<!-- Node3 -->
<g id="node3" class="node"><title>Node3</title>
<g id="a_node3"><a xlink:href="../../d9/dd9/wrapper__interface_8hpp.html" target="_top" xlink:title="examples/boris/bindings\l/wrapper_interface.hpp">
<polygon fill="white" stroke="black" points="383,-223.5 383,-253.5 509,-253.5 509,-223.5 383,-223.5"/>
<text text-anchor="start" x="391" y="-241.5" font-family="Helvetica,sans-Serif" font-size="10.00">examples/boris/bindings</text>
<text text-anchor="middle" x="446" y="-230.5" font-family="Helvetica,sans-Serif" font-size="10.00">/wrapper_interface.hpp</text>
</a>
</g>
</g>
<!-- Node2&#45;&gt;Node3 -->
<g id="edge2" class="edge"><title>Node2&#45;&gt;Node3</title>
<path fill="none" stroke="midnightblue" d="M543.276,-285.992C521.719,-275.689 495.311,-263.068 475.452,-253.577"/>
<polygon fill="midnightblue" stroke="midnightblue" points="541.958,-289.242 552.49,-290.396 544.977,-282.926 541.958,-289.242"/>
</g>
<!-- Node4 -->
<g id="node4" class="node"><title>Node4</title>
<g id="a_node4"><a xlink:href="../../dd/da4/wrapper__simple__physics__solver_8hpp.html" target="_top" xlink:title="examples/boris/bindings\l/wrapper_simple_physics\l_solver.hpp">
<polygon fill="white" stroke="black" points="119.5,-145.5 119.5,-186.5 248.5,-186.5 248.5,-145.5 119.5,-145.5"/>
<text text-anchor="start" x="127.5" y="-174.5" font-family="Helvetica,sans-Serif" font-size="10.00">examples/boris/bindings</text>
<text text-anchor="start" x="127.5" y="-163.5" font-family="Helvetica,sans-Serif" font-size="10.00">/wrapper_simple_physics</text>
<text text-anchor="middle" x="184" y="-152.5" font-family="Helvetica,sans-Serif" font-size="10.00">_solver.hpp</text>
</a>
</g>
</g>
<!-- Node2&#45;&gt;Node4 -->
<g id="edge24" class="edge"><title>Node2&#45;&gt;Node4</title>
<path fill="none" stroke="midnightblue" d="M511.446,-295.681C462.068,-288.112 395.158,-275.022 339,-254 292.326,-236.528 242.854,-206.476 212.69,-186.67"/>
<polygon fill="midnightblue" stroke="midnightblue" points="510.985,-299.151 521.393,-297.168 512.02,-292.228 510.985,-299.151"/>
</g>
<!-- Node2&#45;&gt;Node6 -->
<g id="edge25" class="edge"><title>Node2&#45;&gt;Node6</title>
<path fill="none" stroke="midnightblue" d="M511.303,-296.305C393.419,-281.164 164.25,-244.959 110,-187 72.7086,-147.159 51.437,-110.791 84,-67 109.715,-32.4181 158.33,-20.6369 196.673,-17.0162"/>
<polygon fill="midnightblue" stroke="midnightblue" points="510.959,-299.789 521.32,-297.575 511.84,-292.845 510.959,-299.789"/>
</g>
<!-- Node2&#45;&gt;Node7 -->
<g id="edge28" class="edge"><title>Node2&#45;&gt;Node7</title>
<path fill="none" stroke="midnightblue" d="M652.578,-287.39C675.772,-279.621 700.771,-268.774 721,-254 786.76,-205.974 806.702,-186.067 833,-109 839.028,-91.3336 844.407,-81.7758 833,-67 816.227,-45.2731 746.24,-31.0918 695.362,-23.4412"/>
<polygon fill="midnightblue" stroke="midnightblue" points="651.222,-284.149 642.767,-290.533 653.358,-290.815 651.222,-284.149"/>
</g>
<!-- Node2&#45;&gt;Node8 -->
<g id="edge29" class="edge"><title>Node2&#45;&gt;Node8</title>
<path fill="none" stroke="midnightblue" d="M511.426,-295.709C458.725,-287.665 392.716,-273.958 374,-254 334.209,-211.569 338.891,-134.728 342.844,-103.141"/>
<polygon fill="midnightblue" stroke="midnightblue" points="511.028,-299.188 521.433,-297.194 512.055,-292.264 511.028,-299.188"/>
</g>
<!-- Node2&#45;&gt;Node9 -->
<g id="edge26" class="edge"><title>Node2&#45;&gt;Node9</title>
<path fill="none" stroke="midnightblue" d="M567.226,-281.474C562.692,-273.153 558.295,-263.47 556,-254 552.755,-240.61 551.953,-236.17 556,-223 560.831,-207.277 571.743,-192.003 580.64,-181.389"/>
<polygon fill="midnightblue" stroke="midnightblue" points="564.249,-283.318 572.299,-290.206 570.302,-279.801 564.249,-283.318"/>
</g>
<!-- Node2&#45;&gt;Node10 -->
<g id="edge27" class="edge"><title>Node2&#45;&gt;Node10</title>
<path fill="none" stroke="midnightblue" d="M642.752,-286.808C661.288,-279.089 680.562,-268.419 695,-254 739.206,-209.852 759.401,-134.637 766.203,-103.331"/>
<polygon fill="midnightblue" stroke="midnightblue" points="641.469,-283.551 633.447,-290.471 644.034,-290.064 641.469,-283.551"/>
</g>
<!-- Node12 -->
<g id="node12" class="node"><title>Node12</title>
<g id="a_node12"><a xlink:href="../../d6/d1f/particle__cloud__impl_8hpp.html" target="_top" xlink:title="examples/boris/particle\l_cloud_impl.hpp">
<polygon fill="white" stroke="black" points="565.5,-223.5 565.5,-253.5 686.5,-253.5 686.5,-223.5 565.5,-223.5"/>
<text text-anchor="start" x="573.5" y="-241.5" font-family="Helvetica,sans-Serif" font-size="10.00">examples/boris/particle</text>
<text text-anchor="middle" x="626" y="-230.5" font-family="Helvetica,sans-Serif" font-size="10.00">_cloud_impl.hpp</text>
</a>
</g>
</g>
<!-- Node2&#45;&gt;Node12 -->
<g id="edge22" class="edge"><title>Node2&#45;&gt;Node12</title>
<path fill="none" stroke="midnightblue" d="M591.036,-281.576C596.819,-272.241 604.191,-261.748 610.796,-253.577"/>
<polygon fill="midnightblue" stroke="midnightblue" points="587.903,-279.998 585.869,-290.396 593.943,-283.536 587.903,-279.998"/>
</g>
<!-- Node3&#45;&gt;Node4 -->
<g id="edge3" class="edge"><title>Node3&#45;&gt;Node4</title>
<path fill="none" stroke="midnightblue" d="M384.092,-220.842C343.253,-209.852 289.864,-195.486 248.507,-184.358"/>
<polygon fill="midnightblue" stroke="midnightblue" points="383.358,-224.268 393.924,-223.487 385.177,-217.509 383.358,-224.268"/>
</g>
<!-- Node3&#45;&gt;Node6 -->
<g id="edge9" class="edge"><title>Node3&#45;&gt;Node6</title>
<path fill="none" stroke="midnightblue" d="M447.812,-212.78C449.086,-176.216 445.882,-107.666 409,-67 383.128,-38.4743 341.105,-25.9831 307.043,-20.5517"/>
<polygon fill="midnightblue" stroke="midnightblue" points="444.303,-212.874 447.305,-223.035 451.295,-213.22 444.303,-212.874"/>
</g>
<!-- Node3&#45;&gt;Node7 -->
<g id="edge20" class="edge"><title>Node3&#45;&gt;Node7</title>
<path fill="none" stroke="midnightblue" d="M451.125,-212.937C459.89,-176.572 481.027,-108.277 523,-67 540.194,-50.0913 563.957,-38.4263 585.578,-30.605"/>
<polygon fill="midnightblue" stroke="midnightblue" points="447.611,-212.603 448.793,-223.132 454.435,-214.164 447.611,-212.603"/>
</g>
<!-- Node3&#45;&gt;Node8 -->
<g id="edge21" class="edge"><title>Node3&#45;&gt;Node8</title>
<path fill="none" stroke="midnightblue" d="M430.587,-214.839C409.541,-183.894 372.418,-129.312 354.803,-103.414"/>
<polygon fill="midnightblue" stroke="midnightblue" points="427.798,-216.961 436.316,-223.261 433.586,-213.024 427.798,-216.961"/>
</g>
<!-- Node3&#45;&gt;Node9 -->
<g id="edge10" class="edge"><title>Node3&#45;&gt;Node9</title>
<path fill="none" stroke="midnightblue" d="M484.774,-219.03C509.7,-207.156 541.582,-191.97 564.457,-181.073"/>
<polygon fill="midnightblue" stroke="midnightblue" points="483.117,-215.942 475.594,-223.403 486.128,-222.262 483.117,-215.942"/>
</g>
<!-- Node3&#45;&gt;Node10 -->
<g id="edge19" class="edge"><title>Node3&#45;&gt;Node10</title>
<path fill="none" stroke="midnightblue" d="M519.133,-224.393C570.547,-214.372 634.236,-200.098 658,-187 681.396,-174.105 681.116,-162.841 701,-145 717.506,-130.191 737.129,-114.192 751.043,-103.102"/>
<polygon fill="midnightblue" stroke="midnightblue" points="518.187,-221.011 509.03,-226.339 519.511,-227.884 518.187,-221.011"/>
</g>
<!-- Node5 -->
<g id="node5" class="node"><title>Node5</title>
<g id="a_node5"><a xlink:href="../../d5/d9e/wrapper__simple__physics__solver__impl_8hpp.html" target="_top" xlink:title="examples/boris/bindings\l/wrapper_simple_physics\l_solver_impl.hpp">
<polygon fill="white" stroke="black" points="104.5,-67.5 104.5,-108.5 233.5,-108.5 233.5,-67.5 104.5,-67.5"/>
<text text-anchor="start" x="112.5" y="-96.5" font-family="Helvetica,sans-Serif" font-size="10.00">examples/boris/bindings</text>
<text text-anchor="start" x="112.5" y="-85.5" font-family="Helvetica,sans-Serif" font-size="10.00">/wrapper_simple_physics</text>
<text text-anchor="middle" x="169" y="-74.5" font-family="Helvetica,sans-Serif" font-size="10.00">_solver_impl.hpp</text>
</a>
</g>
</g>
<!-- Node4&#45;&gt;Node5 -->
<g id="edge4" class="edge"><title>Node4&#45;&gt;Node5</title>
<path fill="none" stroke="midnightblue" d="M171.601,-135.59C169.475,-126.511 167.751,-116.742 166.868,-108.506"/>
<polygon fill="midnightblue" stroke="midnightblue" points="168.254,-136.625 174.149,-145.428 175.03,-134.87 168.254,-136.625"/>
</g>
<!-- Node4&#45;&gt;Node6 -->
<g id="edge6" class="edge"><title>Node4&#45;&gt;Node6</title>
<path fill="none" stroke="midnightblue" d="M125.855,-140.248C113.524,-132.159 102.099,-121.854 95,-109 85.9757,-92.6597 84.0057,-82.0854 95,-67 118.103,-35.2994 161.443,-23.0656 196.742,-18.5417"/>
<polygon fill="midnightblue" stroke="midnightblue" points="124.131,-143.296 134.494,-145.498 127.766,-137.314 124.131,-143.296"/>
</g>
<!-- Node4&#45;&gt;Node7 -->
<g id="edge7" class="edge"><title>Node4&#45;&gt;Node7</title>
<path fill="none" stroke="midnightblue" d="M212.311,-138.26C221.852,-129.093 232.488,-118.699 242,-109 259.836,-90.8131 258.418,-78.7875 281,-67 332.681,-40.023 497.554,-25.6449 584.738,-19.758"/>
<polygon fill="midnightblue" stroke="midnightblue" points="209.745,-135.872 204.937,-145.313 214.583,-140.931 209.745,-135.872"/>
</g>
<!-- Node4&#45;&gt;Node8 -->
<g id="edge8" class="edge"><title>Node4&#45;&gt;Node8</title>
<path fill="none" stroke="midnightblue" d="M234.59,-141.119C261.057,-128.625 292.551,-113.759 315.117,-103.106"/>
<polygon fill="midnightblue" stroke="midnightblue" points="233.011,-137.994 225.462,-145.428 235.999,-144.324 233.011,-137.994"/>
</g>
<!-- Node5&#45;&gt;Node4 -->
<g id="edge5" class="edge"><title>Node5&#45;&gt;Node4</title>
<path fill="none" stroke="midnightblue" d="M181.382,-118.337C183.51,-127.412 185.238,-137.184 186.125,-145.428"/>
<polygon fill="midnightblue" stroke="midnightblue" points="184.73,-117.307 178.832,-108.506 177.955,-119.064 184.73,-117.307"/>
</g>
<!-- Node9&#45;&gt;Node6 -->
<g id="edge11" class="edge"><title>Node9&#45;&gt;Node6</title>
<path fill="none" stroke="midnightblue" d="M568.34,-144.853C539.22,-122.875 489.57,-88.0284 442,-67 398.452,-47.7495 345.946,-34.4835 307.176,-26.3962"/>
<polygon fill="midnightblue" stroke="midnightblue" points="566.269,-147.675 576.342,-150.96 570.516,-142.111 566.269,-147.675"/>
</g>
<!-- Node9&#45;&gt;Node7 -->
<g id="edge17" class="edge"><title>Node9&#45;&gt;Node7</title>
<path fill="none" stroke="midnightblue" d="M631.662,-145.337C645.059,-136.23 658.638,-124.053 666,-109 678.826,-82.776 661.966,-49.1799 650.014,-30.5451"/>
<polygon fill="midnightblue" stroke="midnightblue" points="629.511,-142.557 622.952,-150.877 633.268,-148.464 629.511,-142.557"/>
</g>
<!-- Node9&#45;&gt;Node8 -->
<g id="edge18" class="edge"><title>Node9&#45;&gt;Node8</title>
<path fill="none" stroke="midnightblue" d="M538.291,-147.996C493.974,-134.47 432.706,-115.77 391.114,-103.075"/>
<polygon fill="midnightblue" stroke="midnightblue" points="537.453,-151.4 548.039,-150.972 539.497,-144.705 537.453,-151.4"/>
</g>
<!-- Node9&#45;&gt;Node10 -->
<g id="edge12" class="edge"><title>Node9&#45;&gt;Node10</title>
<path fill="none" stroke="midnightblue" d="M630.272,-146.699C659.846,-133.282 701.332,-115.336 731.29,-103.041"/>
<polygon fill="midnightblue" stroke="midnightblue" points="628.758,-143.543 621.118,-150.883 631.668,-149.909 628.758,-143.543"/>
</g>
<!-- Node11 -->
<g id="node11" class="node"><title>Node11</title>
<g id="a_node11"><a xlink:href="../../d2/dc5/injective__transfer_8hpp.html" target="_top" xlink:title="examples/boris/injective\l_transfer.hpp">
<polygon fill="white" stroke="black" points="532.5,-73 532.5,-103 657.5,-103 657.5,-73 532.5,-73"/>
<text text-anchor="start" x="540.5" y="-91" font-family="Helvetica,sans-Serif" font-size="10.00">examples/boris/injective</text>
<text text-anchor="middle" x="595" y="-80" font-family="Helvetica,sans-Serif" font-size="10.00">_transfer.hpp</text>
</a>
</g>
</g>
<!-- Node9&#45;&gt;Node11 -->
<g id="edge14" class="edge"><title>Node9&#45;&gt;Node11</title>
<path fill="none" stroke="midnightblue" d="M594.321,-140.59C594.483,-128.257 594.675,-113.724 594.813,-103.231"/>
<polygon fill="midnightblue" stroke="midnightblue" points="590.82,-140.66 594.188,-150.705 597.819,-140.752 590.82,-140.66"/>
</g>
<!-- Node10&#45;&gt;Node9 -->
<g id="edge13" class="edge"><title>Node10&#45;&gt;Node9</title>
<path fill="none" stroke="midnightblue" d="M732.91,-107.219C703.384,-120.617 661.899,-138.565 631.894,-150.883"/>
<polygon fill="midnightblue" stroke="midnightblue" points="734.407,-110.383 742.046,-103.041 731.496,-104.017 734.407,-110.383"/>
</g>
<!-- Node11&#45;&gt;Node6 -->
<g id="edge15" class="edge"><title>Node11&#45;&gt;Node6</title>
<path fill="none" stroke="midnightblue" d="M533.124,-70.546C528.018,-69.3046 522.927,-68.1063 518,-67 445.536,-50.7293 361.195,-35.3063 307.24,-25.8824"/>
<polygon fill="midnightblue" stroke="midnightblue" points="532.377,-73.9667 542.926,-72.9736 534.06,-67.172 532.377,-73.9667"/>
</g>
<!-- Node11&#45;&gt;Node7 -->
<g id="edge16" class="edge"><title>Node11&#45;&gt;Node7</title>
<path fill="none" stroke="midnightblue" d="M609.645,-64.0566C616.647,-53.0859 624.811,-40.2965 630.907,-30.7455"/>
<polygon fill="midnightblue" stroke="midnightblue" points="606.537,-62.4209 604.106,-72.7333 612.437,-66.1872 606.537,-62.4209"/>
</g>
<!-- Node12&#45;&gt;Node2 -->
<g id="edge23" class="edge"><title>Node12&#45;&gt;Node2</title>
<path fill="none" stroke="midnightblue" d="M616.984,-262.393C611.204,-271.725 603.833,-282.219 597.226,-290.396"/>
<polygon fill="midnightblue" stroke="midnightblue" points="620.114,-263.975 622.146,-253.577 614.073,-260.438 620.114,-263.975"/>
</g>
<!-- Node13&#45;&gt;Node1 -->
<g id="edge31" class="edge"><title>Node13&#45;&gt;Node1</title>
<path fill="none" stroke="midnightblue" d="M935.513,-323.998C905.211,-335.026 865.718,-348.776 839.114,-357.475"/>
<polygon fill="midnightblue" stroke="midnightblue" points="936.814,-327.249 945,-320.523 934.406,-320.676 936.814,-327.249"/>
</g>
</g>
</svg>
        <g id="navigator" transform="translate(0 0)" fill="#404254">
                <rect fill="#f2f5e9" fill-opacity="0.5" stroke="#606060" stroke-width=".5" x="0" y="0" width="60" height="60"/>
                <use id="zoomplus" xlink:href="#zoomPlus" x="17" y="9" onmousedown="handleZoom(evt,'in')"/>
                <use id="zoomminus" xlink:href="#zoomMin" x="42" y="9" onmousedown="handleZoom(evt,'out')"/>
                <use id="reset" xlink:href="#resetDef" x="30" y="36" onmousedown="handleReset()"/>
                <g id="arrowUp" xlink:href="#dirArrow" transform="translate(30 24)" onmousedown="handlePan(0,-1)">
                  <use xlink:href="#rim" fill="#404040">
                        <set attributeName="fill" to="#808080" begin="arrowUp.mouseover" end="arrowUp.mouseout"/>
                  </use>
                  <path fill="none" stroke="white" stroke-width="1.5" d="M0,-3.0v7 M-2.5,-0.5L0,-3.0L2.5,-0.5"/>
                </g>
                <g id="arrowRight" xlink:href="#dirArrow" transform="rotate(90) translate(36 -43)" onmousedown="handlePan(1,0)">
                  <use xlink:href="#rim" fill="#404040">
                        <set attributeName="fill" to="#808080" begin="arrowRight.mouseover" end="arrowRight.mouseout"/>
                  </use>
                  <path fill="none" stroke="white" stroke-width="1.5" d="M0,-3.0v7 M-2.5,-0.5L0,-3.0L2.5,-0.5"/>
                </g>
                <g id="arrowDown" xlink:href="#dirArrow" transform="rotate(180) translate(-30 -48)" onmousedown="handlePan(0,1)">
                  <use xlink:href="#rim" fill="#404040">
                        <set attributeName="fill" to="#808080" begin="arrowDown.mouseover" end="arrowDown.mouseout"/>
                  </use>
                  <path fill="none" stroke="white" stroke-width="1.5" d="M0,-3.0v7 M-2.5,-0.5L0,-3.0L2.5,-0.5"/>
                </g>
                <g id="arrowLeft" xlink:href="#dirArrow" transform="rotate(270) translate(-36 17)" onmousedown="handlePan(-1,0)">
                  <use xlink:href="#rim" fill="#404040">
                        <set attributeName="fill" to="#808080" begin="arrowLeft.mouseover" end="arrowLeft.mouseout"/>
                  </use>
                  <path fill="none" stroke="white" stroke-width="1.5" d="M0,-3.0v7 M-2.5,-0.5L0,-3.0L2.5,-0.5"/>
                </g>
        </g>
        <svg viewBox="0 0 15 15" width="100%" height="30px" preserveAspectRatio="xMaxYMin meet">
         <g id="arrow_out" transform="scale(0.3 0.3)">
          <a xlink:href="particle_8hpp__dep__incl_org.svg" target="_base">
           <rect id="button" ry="5" rx="5" y="6" x="6" height="38" width="38"
                fill="#f2f5e9" fill-opacity="0.5" stroke="#606060" stroke-width="1.0"/>
           <path id="arrow"
             d="M 11.500037,31.436501 C 11.940474,20.09759 22.043105,11.32322 32.158766,21.979434 L 37.068811,17.246167 C 37.068811,17.246167 37.088388,32 37.088388,32 L 22.160133,31.978069 C 22.160133,31.978069 26.997745,27.140456 26.997745,27.140456 C 18.528582,18.264221 13.291696,25.230495 11.500037,31.436501 z"
             style="fill:#404040;"/>
          </a>
         </g>
        </svg>
</svg>
