<?xml version="1.0" encoding="UTF-8" standalone="no"?>
<!DOCTYPE svg PUBLIC "-//W3C//DTD SVG 1.1//EN"
 "http://www.w3.org/Graphics/SVG/1.1/DTD/svg11.dtd">
<!-- Generated by graphviz version 2.38.0 (20140413.2041)
 -->
<!-- Title: pfasst::IStatus Pages: 1 -->
<svg width="131pt" height="402pt"
 viewBox="0.00 0.00 131.00 402.00" xmlns="http://www.w3.org/2000/svg" xmlns:xlink="http://www.w3.org/1999/xlink">
<g id="graph0" class="graph" transform="scale(1 1) rotate(0) translate(4 398)">
<title>pfasst::IStatus</title>
<polygon fill="white" stroke="none" points="-4,4 -4,-398 127,-398 127,4 -4,4"/>
<!-- Node1 -->
<g id="node1" class="node"><title>Node1</title>
<polygon fill="#bfbfbf" stroke="black" points="0,-0.5 0,-266.5 123,-266.5 123,-0.5 0,-0.5"/>
<text text-anchor="middle" x="61.5" y="-254.5" font-family="Helvetica,sans-Serif" font-size="10.00">pfasst::IStatus</text>
<polyline fill="none" stroke="black" points="0,-247.5 123,-247.5 "/>
<text text-anchor="start" x="8" y="-235.5" font-family="Helvetica,sans-Serif" font-size="10.00">+ NOT_CONVERGED</text>
<text text-anchor="start" x="8" y="-224.5" font-family="Helvetica,sans-Serif" font-size="10.00">+ CONVERGED</text>
<polyline fill="none" stroke="black" points="0,-217.5 123,-217.5 "/>
<text text-anchor="start" x="8" y="-205.5" font-family="Helvetica,sans-Serif" font-size="10.00">+ ~IStatus()</text>
<text text-anchor="start" x="8" y="-194.5" font-family="Helvetica,sans-Serif" font-size="10.00">+ clear()</text>
<text text-anchor="start" x="8" y="-183.5" font-family="Helvetica,sans-Serif" font-size="10.00">+ set_converged()</text>
<text text-anchor="start" x="8" y="-172.5" font-family="Helvetica,sans-Serif" font-size="10.00">+ get_converged()</text>
<text text-anchor="start" x="8" y="-161.5" font-family="Helvetica,sans-Serif" font-size="10.00">+ set_comm()</text>
<text text-anchor="start" x="8" y="-150.5" font-family="Helvetica,sans-Serif" font-size="10.00">+ previous_is_iterating()</text>
<text text-anchor="start" x="8" y="-139.5" font-family="Helvetica,sans-Serif" font-size="10.00">+ keep_iterating()</text>
<text text-anchor="start" x="8" y="-128.5" font-family="Helvetica,sans-Serif" font-size="10.00">+ post()</text>
<text text-anchor="start" x="8" y="-117.5" font-family="Helvetica,sans-Serif" font-size="10.00">+ send()</text>
<text text-anchor="start" x="8" y="-106.5" font-family="Helvetica,sans-Serif" font-size="10.00">+ recv()</text>
<text text-anchor="start" x="8" y="-95.5" font-family="Helvetica,sans-Serif" font-size="10.00">* clear()</text>
<text text-anchor="start" x="8" y="-84.5" font-family="Helvetica,sans-Serif" font-size="10.00">* set_converged()</text>
<text text-anchor="start" x="8" y="-73.5" font-family="Helvetica,sans-Serif" font-size="10.00">* get_converged()</text>
<text text-anchor="start" x="8" y="-62.5" font-family="Helvetica,sans-Serif" font-size="10.00">* set_comm()</text>
<text text-anchor="start" x="8" y="-51.5" font-family="Helvetica,sans-Serif" font-size="10.00">* previous_is_iterating()</text>
<text text-anchor="start" x="8" y="-40.5" font-family="Helvetica,sans-Serif" font-size="10.00">* keep_iterating()</text>
<text text-anchor="start" x="8" y="-29.5" font-family="Helvetica,sans-Serif" font-size="10.00">* post()</text>
<text text-anchor="start" x="8" y="-18.5" font-family="Helvetica,sans-Serif" font-size="10.00">* send()</text>
<text text-anchor="start" x="8" y="-7.5" font-family="Helvetica,sans-Serif" font-size="10.00">* recv()</text>
</g>
<!-- Node2 -->
<g id="node2" class="node"><title>Node2</title>
<g id="a_node2"><a xlink:href="../../d5/d14/classpfasst_1_1ICommunicator.html" target="_top" xlink:title="Abstract interface for communicators. ">
<polygon fill="white" stroke="black" points="3.5,-314.5 3.5,-393.5 119.5,-393.5 119.5,-314.5 3.5,-314.5"/>
<text text-anchor="middle" x="61.5" y="-381.5" font-family="Helvetica,sans-Serif" font-size="10.00">pfasst::ICommunicator</text>
<polyline fill="none" stroke="black" points="3.5,-374.5 119.5,-374.5 "/>
<text text-anchor="start" x="11.5" y="-362.5" font-family="Helvetica,sans-Serif" font-size="10.00">+ status</text>
<polyline fill="none" stroke="black" points="3.5,-355.5 119.5,-355.5 "/>
<text text-anchor="start" x="11.5" y="-343.5" font-family="Helvetica,sans-Serif" font-size="10.00">+ ~ICommunicator()</text>
<text text-anchor="start" x="11.5" y="-332.5" font-family="Helvetica,sans-Serif" font-size="10.00">+ size()</text>
<text text-anchor="start" x="11.5" y="-321.5" font-family="Helvetica,sans-Serif" font-size="10.00">+ rank()</text>
</a>
</g>
</g>
<!-- Node2&#45;&gt;Node1 -->
<g id="edge1" class="edge"><title>Node2&#45;&gt;Node1</title>
<path fill="none" stroke="#404040" d="M61.5,-314.44C61.5,-303.84 61.5,-291.685 61.5,-278.803"/>
<polygon fill="none" stroke="#404040" points="61.5001,-278.791 57.5,-272.791 61.5,-266.791 65.5,-272.791 61.5001,-278.791"/>
<text text-anchor="middle" x="80" y="-288" font-family="Helvetica,sans-Serif" font-size="10.00"> #comm</text>
</g>
</g>
</svg>
