<?xml version="1.0" encoding="UTF-8" standalone="no"?>
<!DOCTYPE svg PUBLIC "-//W3C//DTD SVG 1.1//EN"
 "http://www.w3.org/Graphics/SVG/1.1/DTD/svg11.dtd">
<!-- Generated by graphviz version 2.38.0 (20140413.2041)
 -->
<!-- Title: src/pfasst/mpi_communicator_impl.hpp Pages: 1 -->
<!--zoomable 431 -->
<svg id="main" version="1.1" xmlns="http://www.w3.org/2000/svg" xmlns:xlink="http://www.w3.org/1999/xlink" xml:space="preserve" onload="init(evt)">
<style type="text/css"><![CDATA[
.edge:hover path { stroke: red; }
.edge:hover polygon { stroke: red; fill: red; }
]]></style>
<script type="text/javascript"><![CDATA[
var edges = document.getElementsByTagName('g');
if (edges && edges.length) {
  for (var i=0;i<edges.length;i++) {
    if (edges[i].id.substr(0,4)=='edge') {
      edges[i].setAttribute('class','edge');
    }
  }
}
]]></script>
        <defs>
                <circle id="rim" cx="0" cy="0" r="7"/>
                <circle id="rim2" cx="0" cy="0" r="3.5"/>
                <g id="zoomPlus">
                        <use xlink:href="#rim" fill="#404040">
                                <set attributeName="fill" to="#808080" begin="zoomplus.mouseover" end="zoomplus.mouseout"/>
                        </use>
                        <path d="M-4,0h8M0,-4v8" fill="none" stroke="white" stroke-width="1.5" pointer-events="none"/>
                </g>
                <g id="zoomMin">
                        <use xlink:href="#rim" fill="#404040">
                                <set attributeName="fill" to="#808080" begin="zoomminus.mouseover" end="zoomminus.mouseout"/>
                        </use>
                        <path d="M-4,0h8" fill="none" stroke="white" stroke-width="1.5" pointer-events="none"/>
                </g>
                <g id="dirArrow">
                        <path fill="none" stroke="white" stroke-width="1.5" d="M0,-3.0v7 M-2.5,-0.5L0,-3.0L2.5,-0.5"/>
                </g>
               <g id="resetDef">
                       <use xlink:href="#rim2" fill="#404040">
                               <set attributeName="fill" to="#808080" begin="reset.mouseover" end="reset.mouseout"/>
                       </use>
               </g>
        </defs>

<script type="text/javascript">
var viewWidth = 824;
var viewHeight = 431;
var sectionId = 'dynsection-0';
</script>
<script xlink:href="../../svgpan.js"/>
<svg id="graph" class="graph">
<g id="viewport">
<title>src/pfasst/mpi_communicator_impl.hpp</title>
<polygon fill="white" stroke="none" points="-4,4 -4,-427 819.976,-427 819.976,4 -4,4"/>
<!-- Node1 -->
<g id="node1" class="node"><title>Node1</title>
<polygon fill="#bfbfbf" stroke="black" points="205.047,-392.5 205.047,-422.5 351.047,-422.5 351.047,-392.5 205.047,-392.5"/>
<text text-anchor="start" x="213.047" y="-410.5" font-family="Helvetica,sans-Serif" font-size="10.00">src/pfasst/mpi_communicator</text>
<text text-anchor="middle" x="278.047" y="-399.5" font-family="Helvetica,sans-Serif" font-size="10.00">_impl.hpp</text>
</g>
<!-- Node2 -->
<g id="node2" class="node"><title>Node2</title>
<g id="a_node2"><a xlink:href="../../dc/d8a/mpi__communicator_8hpp.html" target="_top" xlink:title="pfasst/mpi_communicator.hpp">
<polygon fill="white" stroke="black" points="204.047,-336.5 204.047,-355.5 352.047,-355.5 352.047,-336.5 204.047,-336.5"/>
<text text-anchor="middle" x="278.047" y="-343.5" font-family="Helvetica,sans-Serif" font-size="10.00">pfasst/mpi_communicator.hpp</text>
</a>
</g>
</g>
<!-- Node1&#45;&gt;Node2 -->
<g id="edge1" class="edge"><title>Node1&#45;&gt;Node2</title>
<path fill="none" stroke="midnightblue" d="M272.207,-392.399C271.177,-384.377 271.021,-374.233 271.74,-365.569"/>
<polygon fill="midnightblue" stroke="midnightblue" points="275.207,-366.044 273.117,-355.658 268.274,-365.081 275.207,-366.044"/>
</g>
<!-- Node12 -->
<g id="node12" class="node"><title>Node12</title>
<g id="a_node12"><a xlink:href="../../d0/da9/logging_8hpp.html" target="_top" xlink:title="pfasst/logging.hpp">
<polygon fill="white" stroke="black" points="323.047,-168.5 323.047,-187.5 421.047,-187.5 421.047,-168.5 323.047,-168.5"/>
<text text-anchor="middle" x="372.047" y="-175.5" font-family="Helvetica,sans-Serif" font-size="10.00">pfasst/logging.hpp</text>
</a>
</g>
</g>
<!-- Node1&#45;&gt;Node12 -->
<g id="edge34" class="edge"><title>Node1&#45;&gt;Node12</title>
<path fill="none" stroke="midnightblue" d="M317.155,-392.319C333.563,-384.276 351.109,-372.462 361.047,-356 391.497,-305.56 382.569,-231.623 376.12,-197.505"/>
<polygon fill="midnightblue" stroke="midnightblue" points="379.518,-196.65 374.089,-187.552 372.659,-198.05 379.518,-196.65"/>
</g>
<!-- Node2&#45;&gt;Node1 -->
<g id="edge33" class="edge"><title>Node2&#45;&gt;Node1</title>
<path fill="none" stroke="midnightblue" d="M282.976,-355.658C284.482,-362.655 285.053,-372.857 284.692,-382.289"/>
<polygon fill="midnightblue" stroke="midnightblue" points="281.192,-382.153 283.887,-392.399 288.169,-382.709 281.192,-382.153"/>
</g>
<!-- Node3 -->
<g id="node3" class="node"><title>Node3</title>
<polygon fill="white" stroke="#bfbfbf" points="251.047,-224.5 251.047,-243.5 311.047,-243.5 311.047,-224.5 251.047,-224.5"/>
<text text-anchor="middle" x="281.047" y="-231.5" font-family="Helvetica,sans-Serif" font-size="10.00">stdexcept</text>
</g>
<!-- Node2&#45;&gt;Node3 -->
<g id="edge2" class="edge"><title>Node2&#45;&gt;Node3</title>
<path fill="none" stroke="midnightblue" d="M282.668,-336.339C287.106,-327.493 293.501,-313.22 296.047,-300 299.123,-284.027 294.308,-266.015 289.336,-253.01"/>
<polygon fill="midnightblue" stroke="midnightblue" points="292.561,-251.652 285.461,-243.788 286.108,-254.363 292.561,-251.652"/>
</g>
<!-- Node4 -->
<g id="node4" class="node"><title>Node4</title>
<polygon fill="white" stroke="#bfbfbf" points="185.047,-280.5 185.047,-299.5 229.047,-299.5 229.047,-280.5 185.047,-280.5"/>
<text text-anchor="middle" x="207.047" y="-287.5" font-family="Helvetica,sans-Serif" font-size="10.00">vector</text>
</g>
<!-- Node2&#45;&gt;Node4 -->
<g id="edge3" class="edge"><title>Node2&#45;&gt;Node4</title>
<path fill="none" stroke="midnightblue" d="M266.639,-336.324C255.938,-328.185 239.706,-315.839 226.884,-306.087"/>
<polygon fill="midnightblue" stroke="midnightblue" points="228.74,-303.102 218.662,-299.834 224.502,-308.673 228.74,-303.102"/>
</g>
<!-- Node5 -->
<g id="node5" class="node"><title>Node5</title>
<polygon fill="white" stroke="#bfbfbf" points="247.047,-280.5 247.047,-299.5 287.047,-299.5 287.047,-280.5 247.047,-280.5"/>
<text text-anchor="middle" x="267.047" y="-287.5" font-family="Helvetica,sans-Serif" font-size="10.00">mpi.h</text>
</g>
<!-- Node2&#45;&gt;Node5 -->
<g id="edge4" class="edge"><title>Node2&#45;&gt;Node5</title>
<path fill="none" stroke="midnightblue" d="M276.23,-336.083C274.773,-328.927 272.676,-318.635 270.854,-309.691"/>
<polygon fill="midnightblue" stroke="midnightblue" points="274.255,-308.851 268.829,-299.751 267.396,-310.248 274.255,-308.851"/>
</g>
<!-- Node6 -->
<g id="node6" class="node"><title>Node6</title>
<g id="a_node6"><a xlink:href="../../d1/d1b/interfaces_8hpp.html" target="_top" xlink:title="interfaces for SDC/MLSDC/PFASST algorithms. ">
<polygon fill="white" stroke="black" points="60.5468,-280.5 60.5468,-299.5 167.547,-299.5 167.547,-280.5 60.5468,-280.5"/>
<text text-anchor="middle" x="114.047" y="-287.5" font-family="Helvetica,sans-Serif" font-size="10.00">pfasst/interfaces.hpp</text>
</a>
</g>
</g>
<!-- Node2&#45;&gt;Node6 -->
<g id="edge5" class="edge"><title>Node2&#45;&gt;Node6</title>
<path fill="none" stroke="midnightblue" d="M252.06,-336.444C224.351,-327.32 180.294,-312.813 149.431,-302.651"/>
<polygon fill="midnightblue" stroke="midnightblue" points="150.504,-299.32 139.911,-299.516 148.315,-305.968 150.504,-299.32"/>
</g>
<!-- Node2&#45;&gt;Node12 -->
<g id="edge32" class="edge"><title>Node2&#45;&gt;Node12</title>
<path fill="none" stroke="midnightblue" d="M285.071,-336.337C292.081,-327.49 302.947,-313.216 311.047,-300 332.571,-264.881 353.187,-221.199 364.069,-197.096"/>
<polygon fill="midnightblue" stroke="midnightblue" points="367.35,-198.331 368.231,-187.773 360.958,-195.477 367.35,-198.331"/>
</g>
<!-- Node6&#45;&gt;Node3 -->
<g id="edge7" class="edge"><title>Node6&#45;&gt;Node3</title>
<path fill="none" stroke="midnightblue" d="M140.508,-280.444C168.725,-271.32 213.587,-256.813 245.015,-246.651"/>
<polygon fill="midnightblue" stroke="midnightblue" points="246.271,-249.923 254.709,-243.516 244.117,-243.263 246.271,-249.923"/>
</g>
<!-- Node7 -->
<g id="node7" class="node"><title>Node7</title>
<polygon fill="white" stroke="#bfbfbf" points="13.5468,-168.5 13.5468,-187.5 66.5468,-187.5 66.5468,-168.5 13.5468,-168.5"/>
<text text-anchor="middle" x="40.0468" y="-175.5" font-family="Helvetica,sans-Serif" font-size="10.00">memory</text>
</g>
<!-- Node6&#45;&gt;Node7 -->
<g id="edge6" class="edge"><title>Node6&#45;&gt;Node7</title>
<path fill="none" stroke="midnightblue" d="M99.3155,-280.496C86.8466,-272.57 69.3978,-259.637 59.0468,-244 49.8195,-230.06 44.9809,-211.554 42.5024,-197.853"/>
<polygon fill="midnightblue" stroke="midnightblue" points="45.9168,-197.029 40.9311,-187.681 38.9989,-198.098 45.9168,-197.029"/>
</g>
<!-- Node8 -->
<g id="node8" class="node"><title>Node8</title>
<polygon fill="white" stroke="#bfbfbf" points="93.5468,-56.5 93.5468,-75.5 134.547,-75.5 134.547,-56.5 93.5468,-56.5"/>
<text text-anchor="middle" x="114.047" y="-63.5" font-family="Helvetica,sans-Serif" font-size="10.00">string</text>
</g>
<!-- Node6&#45;&gt;Node8 -->
<g id="edge8" class="edge"><title>Node6&#45;&gt;Node8</title>
<path fill="none" stroke="midnightblue" d="M94.7786,-280.434C57.6447,-262.584 -18.2812,-218.813 4.04677,-168 21.4001,-128.508 62.6619,-97.6864 89.424,-80.947"/>
<polygon fill="midnightblue" stroke="midnightblue" points="91.4793,-83.7942 98.2224,-75.6222 87.855,-77.8055 91.4793,-83.7942"/>
</g>
<!-- Node9 -->
<g id="node9" class="node"><title>Node9</title>
<g id="a_node9"><a xlink:href="../../d8/dc4/interfaces__impl_8hpp.html" target="_top" xlink:title="pfasst/interfaces_impl.hpp">
<polygon fill="white" stroke="black" points="68.5468,-224.5 68.5468,-243.5 199.547,-243.5 199.547,-224.5 68.5468,-224.5"/>
<text text-anchor="middle" x="134.047" y="-231.5" font-family="Helvetica,sans-Serif" font-size="10.00">pfasst/interfaces_impl.hpp</text>
</a>
</g>
</g>
<!-- Node6&#45;&gt;Node9 -->
<g id="edge9" class="edge"><title>Node6&#45;&gt;Node9</title>
<path fill="none" stroke="midnightblue" d="M112.183,-280.083C113.361,-272.691 116.931,-261.953 121.06,-252.811"/>
<polygon fill="midnightblue" stroke="midnightblue" points="124.255,-254.25 125.675,-243.751 118.017,-251.073 124.255,-254.25"/>
</g>
<!-- Node9&#45;&gt;Node6 -->
<g id="edge10" class="edge"><title>Node9&#45;&gt;Node6</title>
<path fill="none" stroke="midnightblue" d="M135.937,-243.751C134.794,-251.092 131.247,-261.817 127.126,-270.983"/>
<polygon fill="midnightblue" stroke="midnightblue" points="123.913,-269.581 122.516,-280.083 130.157,-272.744 123.913,-269.581"/>
</g>
<!-- Node9&#45;&gt;Node7 -->
<g id="edge12" class="edge"><title>Node9&#45;&gt;Node7</title>
<path fill="none" stroke="midnightblue" d="M118.944,-224.324C104.143,-215.822 81.3525,-202.729 64.0646,-192.797"/>
<polygon fill="midnightblue" stroke="midnightblue" points="65.5265,-189.601 55.112,-187.655 62.0396,-195.671 65.5265,-189.601"/>
</g>
<!-- Node9&#45;&gt;Node8 -->
<g id="edge13" class="edge"><title>Node9&#45;&gt;Node8</title>
<path fill="none" stroke="midnightblue" d="M128.917,-224.407C123.989,-215.614 116.886,-201.381 114.047,-188 106.514,-152.504 109.147,-109.821 111.656,-85.8098"/>
<polygon fill="midnightblue" stroke="midnightblue" points="115.161,-85.9719 112.833,-75.6359 108.207,-85.1674 115.161,-85.9719"/>
</g>
<!-- Node10 -->
<g id="node10" class="node"><title>Node10</title>
<polygon fill="white" stroke="#bfbfbf" points="123.047,-168.5 123.047,-187.5 173.047,-187.5 173.047,-168.5 123.047,-168.5"/>
<text text-anchor="middle" x="148.047" y="-175.5" font-family="Helvetica,sans-Serif" font-size="10.00">cassert</text>
</g>
<!-- Node9&#45;&gt;Node10 -->
<g id="edge11" class="edge"><title>Node9&#45;&gt;Node10</title>
<path fill="none" stroke="midnightblue" d="M136.359,-224.083C138.214,-216.927 140.882,-206.635 143.201,-197.691"/>
<polygon fill="midnightblue" stroke="midnightblue" points="146.656,-198.309 145.778,-187.751 139.88,-196.553 146.656,-198.309"/>
</g>
<!-- Node11 -->
<g id="node11" class="node"><title>Node11</title>
<g id="a_node11"><a xlink:href="../../d5/d82/globals_8hpp.html" target="_top" xlink:title="pfasst/globals.hpp">
<polygon fill="white" stroke="black" points="191.547,-168.5 191.547,-187.5 288.547,-187.5 288.547,-168.5 191.547,-168.5"/>
<text text-anchor="middle" x="240.047" y="-175.5" font-family="Helvetica,sans-Serif" font-size="10.00">pfasst/globals.hpp</text>
</a>
</g>
</g>
<!-- Node9&#45;&gt;Node11 -->
<g id="edge14" class="edge"><title>Node9&#45;&gt;Node11</title>
<path fill="none" stroke="midnightblue" d="M151.078,-224.324C168.077,-215.664 194.423,-202.242 214.039,-192.249"/>
<polygon fill="midnightblue" stroke="midnightblue" points="215.737,-195.312 223.058,-187.655 212.559,-189.075 215.737,-195.312"/>
</g>
<!-- Node9&#45;&gt;Node12 -->
<g id="edge15" class="edge"><title>Node9&#45;&gt;Node12</title>
<path fill="none" stroke="midnightblue" d="M171.759,-224.444C213.19,-215.043 279.804,-199.929 324.714,-189.739"/>
<polygon fill="midnightblue" stroke="midnightblue" points="325.534,-193.142 334.511,-187.516 323.985,-186.316 325.534,-193.142"/>
</g>
<!-- Node12&#45;&gt;Node8 -->
<g id="edge18" class="edge"><title>Node12&#45;&gt;Node8</title>
<path fill="none" stroke="midnightblue" d="M323.034,-169.147C262.512,-159.117 165.832,-141.878 152.047,-132 136.144,-120.604 125.847,-100.315 120.037,-85.4272"/>
<polygon fill="midnightblue" stroke="midnightblue" points="123.24,-83.9883 116.584,-75.7455 116.647,-86.3401 123.24,-83.9883"/>
</g>
<!-- Node13 -->
<g id="node13" class="node"><title>Node13</title>
<polygon fill="white" stroke="#bfbfbf" points="599.047,-112.5 599.047,-131.5 651.047,-131.5 651.047,-112.5 599.047,-112.5"/>
<text text-anchor="middle" x="625.047" y="-119.5" font-family="Helvetica,sans-Serif" font-size="10.00">iomanip</text>
</g>
<!-- Node12&#45;&gt;Node13 -->
<g id="edge16" class="edge"><title>Node12&#45;&gt;Node13</title>
<path fill="none" stroke="midnightblue" d="M416.441,-168.486C458.433,-160.288 523.45,-147.221 588.665,-132.24"/>
<polygon fill="midnightblue" stroke="midnightblue" points="589.752,-135.581 598.707,-129.918 588.175,-128.761 589.752,-135.581"/>
</g>
<!-- Node14 -->
<g id="node14" class="node"><title>Node14</title>
<polygon fill="white" stroke="#bfbfbf" points="404.047,-56.5 404.047,-75.5 460.047,-75.5 460.047,-56.5 404.047,-56.5"/>
<text text-anchor="middle" x="432.047" y="-63.5" font-family="Helvetica,sans-Serif" font-size="10.00">iostream</text>
</g>
<!-- Node12&#45;&gt;Node14 -->
<g id="edge17" class="edge"><title>Node12&#45;&gt;Node14</title>
<path fill="none" stroke="midnightblue" d="M396.516,-168.438C412.614,-161.378 432.424,-149.626 442.047,-132 449.982,-117.466 445.716,-98.5378 440.528,-84.8591"/>
<polygon fill="midnightblue" stroke="midnightblue" points="443.712,-83.4042 436.566,-75.5818 437.274,-86.153 443.712,-83.4042"/>
</g>
<!-- Node15 -->
<g id="node15" class="node"><title>Node15</title>
<polygon fill="white" stroke="#bfbfbf" points="161.547,-112.5 161.547,-131.5 292.547,-131.5 292.547,-112.5 161.547,-112.5"/>
<text text-anchor="middle" x="227.047" y="-119.5" font-family="Helvetica,sans-Serif" font-size="10.00">boost/algorithm/string.hpp</text>
</g>
<!-- Node12&#45;&gt;Node15 -->
<g id="edge19" class="edge"><title>Node12&#45;&gt;Node15</title>
<path fill="none" stroke="midnightblue" d="M349.071,-168.444C324.89,-159.438 286.629,-145.189 259.401,-135.049"/>
<polygon fill="midnightblue" stroke="midnightblue" points="260.508,-131.727 249.915,-131.516 258.065,-138.286 260.508,-131.727"/>
</g>
<!-- Node16 -->
<g id="node16" class="node"><title>Node16</title>
<g id="a_node16"><a xlink:href="../../d8/dfd/config_8hpp.html" target="_top" xlink:title="pfasst/config.hpp">
<polygon fill="white" stroke="black" points="489.547,-112.5 489.547,-131.5 580.547,-131.5 580.547,-112.5 489.547,-112.5"/>
<text text-anchor="middle" x="535.047" y="-119.5" font-family="Helvetica,sans-Serif" font-size="10.00">pfasst/config.hpp</text>
</a>
</g>
</g>
<!-- Node12&#45;&gt;Node16 -->
<g id="edge20" class="edge"><title>Node12&#45;&gt;Node16</title>
<path fill="none" stroke="midnightblue" d="M397.875,-168.444C425.296,-159.359 468.824,-144.939 499.479,-134.783"/>
<polygon fill="midnightblue" stroke="midnightblue" points="500.948,-137.984 509.34,-131.516 498.746,-131.339 500.948,-137.984"/>
</g>
<!-- Node23 -->
<g id="node23" class="node"><title>Node23</title>
<polygon fill="white" stroke="#bfbfbf" points="311.047,-112.5 311.047,-131.5 433.047,-131.5 433.047,-112.5 311.047,-112.5"/>
<text text-anchor="middle" x="372.047" y="-119.5" font-family="Helvetica,sans-Serif" font-size="10.00">pfasst/easylogging++.h</text>
</g>
<!-- Node12&#45;&gt;Node23 -->
<g id="edge31" class="edge"><title>Node12&#45;&gt;Node23</title>
<path fill="none" stroke="midnightblue" d="M372.047,-168.083C372.047,-161.006 372.047,-150.861 372.047,-141.986"/>
<polygon fill="midnightblue" stroke="midnightblue" points="375.547,-141.751 372.047,-131.751 368.547,-141.751 375.547,-141.751"/>
</g>
<!-- Node16&#45;&gt;Node8 -->
<g id="edge23" class="edge"><title>Node16&#45;&gt;Node8</title>
<path fill="none" stroke="midnightblue" d="M489.191,-115.118C402.66,-104.019 217.446,-80.2626 144.485,-70.9041"/>
<polygon fill="midnightblue" stroke="midnightblue" points="144.923,-67.4318 134.559,-69.6311 144.033,-74.375 144.923,-67.4318"/>
</g>
<!-- Node16&#45;&gt;Node14 -->
<g id="edge22" class="edge"><title>Node16&#45;&gt;Node14</title>
<path fill="none" stroke="midnightblue" d="M518.498,-112.324C502.055,-103.703 476.612,-90.3643 457.578,-80.3855"/>
<polygon fill="midnightblue" stroke="midnightblue" points="459.036,-77.198 448.554,-75.6545 455.786,-83.3977 459.036,-77.198"/>
</g>
<!-- Node17 -->
<g id="node17" class="node"><title>Node17</title>
<polygon fill="white" stroke="#bfbfbf" points="724.047,-0.5 724.047,-19.5 774.047,-19.5 774.047,-0.5 724.047,-0.5"/>
<text text-anchor="middle" x="749.047" y="-7.5" font-family="Helvetica,sans-Serif" font-size="10.00">fstream</text>
</g>
<!-- Node16&#45;&gt;Node17 -->
<g id="edge21" class="edge"><title>Node16&#45;&gt;Node17</title>
<path fill="none" stroke="midnightblue" d="M580.665,-113.533C583.84,-113.014 586.991,-112.499 590.047,-112 639.155,-103.982 778.815,-113.908 811.047,-76 826.921,-57.3304 799.946,-37.0895 776.745,-24.2408"/>
<polygon fill="midnightblue" stroke="midnightblue" points="778.293,-21.1003 767.815,-19.5359 775.031,-27.2935 778.293,-21.1003"/>
</g>
<!-- Node18 -->
<g id="node18" class="node"><title>Node18</title>
<polygon fill="white" stroke="#bfbfbf" points="610.047,-56.5 610.047,-75.5 646.047,-75.5 646.047,-56.5 610.047,-56.5"/>
<text text-anchor="middle" x="628.047" y="-63.5" font-family="Helvetica,sans-Serif" font-size="10.00">map</text>
</g>
<!-- Node16&#45;&gt;Node18 -->
<g id="edge24" class="edge"><title>Node16&#45;&gt;Node18</title>
<path fill="none" stroke="midnightblue" d="M549.989,-112.324C564.632,-103.822 587.18,-90.7288 604.284,-80.7975"/>
<polygon fill="midnightblue" stroke="midnightblue" points="606.251,-83.7027 613.142,-75.6545 602.736,-77.6491 606.251,-83.7027"/>
</g>
<!-- Node19 -->
<g id="node19" class="node"><title>Node19</title>
<polygon fill="white" stroke="#bfbfbf" points="664.547,-56.5 664.547,-75.5 801.547,-75.5 801.547,-56.5 664.547,-56.5"/>
<text text-anchor="middle" x="733.047" y="-63.5" font-family="Helvetica,sans-Serif" font-size="10.00">boost/program_options.hpp</text>
</g>
<!-- Node16&#45;&gt;Node19 -->
<g id="edge25" class="edge"><title>Node16&#45;&gt;Node19</title>
<path fill="none" stroke="midnightblue" d="M566.42,-112.444C600.309,-103.201 654.45,-88.4356 691.77,-78.2572"/>
<polygon fill="midnightblue" stroke="midnightblue" points="693.093,-81.5243 701.82,-75.5164 691.251,-74.771 693.093,-81.5243"/>
</g>
<!-- Node20 -->
<g id="node20" class="node"><title>Node20</title>
<g id="a_node20"><a xlink:href="../../d5/d84/config__impl_8hpp.html" target="_top" xlink:title="pfasst/config_impl.hpp">
<polygon fill="white" stroke="black" points="478.047,-56.5 478.047,-75.5 592.047,-75.5 592.047,-56.5 478.047,-56.5"/>
<text text-anchor="middle" x="535.047" y="-63.5" font-family="Helvetica,sans-Serif" font-size="10.00">pfasst/config_impl.hpp</text>
</a>
</g>
</g>
<!-- Node16&#45;&gt;Node20 -->
<g id="edge26" class="edge"><title>Node16&#45;&gt;Node20</title>
<path fill="none" stroke="midnightblue" d="M529.88,-112.083C528.371,-104.927 527.941,-94.6353 528.589,-85.6911"/>
<polygon fill="midnightblue" stroke="midnightblue" points="532.062,-86.1262 529.916,-75.7511 525.124,-85.2002 532.062,-86.1262"/>
</g>
<!-- Node20&#45;&gt;Node16 -->
<g id="edge27" class="edge"><title>Node20&#45;&gt;Node16</title>
<path fill="none" stroke="midnightblue" d="M540.178,-75.7511C541.704,-82.8579 542.151,-93.1357 541.519,-102.101"/>
<polygon fill="midnightblue" stroke="midnightblue" points="538.04,-101.713 540.213,-112.083 544.981,-102.622 538.04,-101.713"/>
</g>
<!-- Node20&#45;&gt;Node17 -->
<g id="edge28" class="edge"><title>Node20&#45;&gt;Node17</title>
<path fill="none" stroke="midnightblue" d="M568.956,-56.4435C608.637,-46.4306 674.008,-29.9351 714.121,-19.813"/>
<polygon fill="midnightblue" stroke="midnightblue" points="715.149,-23.1633 723.989,-17.323 713.437,-16.3761 715.149,-23.1633"/>
</g>
<!-- Node21 -->
<g id="node21" class="node"><title>Node21</title>
<polygon fill="white" stroke="#bfbfbf" points="540.547,-0.5 540.547,-19.5 593.547,-19.5 593.547,-0.5 540.547,-0.5"/>
<text text-anchor="middle" x="567.047" y="-7.5" font-family="Helvetica,sans-Serif" font-size="10.00">sstream</text>
</g>
<!-- Node20&#45;&gt;Node21 -->
<g id="edge29" class="edge"><title>Node20&#45;&gt;Node21</title>
<path fill="none" stroke="midnightblue" d="M540.331,-56.083C544.758,-48.6127 551.21,-37.7244 556.665,-28.5199"/>
<polygon fill="midnightblue" stroke="midnightblue" points="559.774,-30.1383 561.861,-19.7511 553.752,-26.5697 559.774,-30.1383"/>
</g>
<!-- Node22 -->
<g id="node22" class="node"><title>Node22</title>
<polygon fill="white" stroke="#bfbfbf" points="484.047,-0.5 484.047,-19.5 522.047,-19.5 522.047,-0.5 484.047,-0.5"/>
<text text-anchor="middle" x="503.047" y="-7.5" font-family="Helvetica,sans-Serif" font-size="10.00">utility</text>
</g>
<!-- Node20&#45;&gt;Node22 -->
<g id="edge30" class="edge"><title>Node20&#45;&gt;Node22</title>
<path fill="none" stroke="midnightblue" d="M529.763,-56.083C525.336,-48.6127 518.883,-37.7244 513.429,-28.5199"/>
<polygon fill="midnightblue" stroke="midnightblue" points="516.342,-26.5697 508.233,-19.7511 510.32,-30.1383 516.342,-26.5697"/>
</g>
</g>
</svg>
        <g id="navigator" transform="translate(0 0)" fill="#404254">
                <rect fill="#f2f5e9" fill-opacity="0.5" stroke="#606060" stroke-width=".5" x="0" y="0" width="60" height="60"/>
                <use id="zoomplus" xlink:href="#zoomPlus" x="17" y="9" onmousedown="handleZoom(evt,'in')"/>
                <use id="zoomminus" xlink:href="#zoomMin" x="42" y="9" onmousedown="handleZoom(evt,'out')"/>
                <use id="reset" xlink:href="#resetDef" x="30" y="36" onmousedown="handleReset()"/>
                <g id="arrowUp" xlink:href="#dirArrow" transform="translate(30 24)" onmousedown="handlePan(0,-1)">
                  <use xlink:href="#rim" fill="#404040">
                        <set attributeName="fill" to="#808080" begin="arrowUp.mouseover" end="arrowUp.mouseout"/>
                  </use>
                  <path fill="none" stroke="white" stroke-width="1.5" d="M0,-3.0v7 M-2.5,-0.5L0,-3.0L2.5,-0.5"/>
                </g>
                <g id="arrowRight" xlink:href="#dirArrow" transform="rotate(90) translate(36 -43)" onmousedown="handlePan(1,0)">
                  <use xlink:href="#rim" fill="#404040">
                        <set attributeName="fill" to="#808080" begin="arrowRight.mouseover" end="arrowRight.mouseout"/>
                  </use>
                  <path fill="none" stroke="white" stroke-width="1.5" d="M0,-3.0v7 M-2.5,-0.5L0,-3.0L2.5,-0.5"/>
                </g>
                <g id="arrowDown" xlink:href="#dirArrow" transform="rotate(180) translate(-30 -48)" onmousedown="handlePan(0,1)">
                  <use xlink:href="#rim" fill="#404040">
                        <set attributeName="fill" to="#808080" begin="arrowDown.mouseover" end="arrowDown.mouseout"/>
                  </use>
                  <path fill="none" stroke="white" stroke-width="1.5" d="M0,-3.0v7 M-2.5,-0.5L0,-3.0L2.5,-0.5"/>
                </g>
                <g id="arrowLeft" xlink:href="#dirArrow" transform="rotate(270) translate(-36 17)" onmousedown="handlePan(-1,0)">
                  <use xlink:href="#rim" fill="#404040">
                        <set attributeName="fill" to="#808080" begin="arrowLeft.mouseover" end="arrowLeft.mouseout"/>
                  </use>
                  <path fill="none" stroke="white" stroke-width="1.5" d="M0,-3.0v7 M-2.5,-0.5L0,-3.0L2.5,-0.5"/>
                </g>
        </g>
        <svg viewBox="0 0 15 15" width="100%" height="30px" preserveAspectRatio="xMaxYMin meet">
         <g id="arrow_out" transform="scale(0.3 0.3)">
          <a xlink:href="mpi__communicator__impl_8hpp__incl_org.svg" target="_base">
           <rect id="button" ry="5" rx="5" y="6" x="6" height="38" width="38"
                fill="#f2f5e9" fill-opacity="0.5" stroke="#606060" stroke-width="1.0"/>
           <path id="arrow"
             d="M 11.500037,31.436501 C 11.940474,20.09759 22.043105,11.32322 32.158766,21.979434 L 37.068811,17.246167 C 37.068811,17.246167 37.088388,32 37.088388,32 L 22.160133,31.978069 C 22.160133,31.978069 26.997745,27.140456 26.997745,27.140456 C 18.528582,18.264221 13.291696,25.230495 11.500037,31.436501 z"
             style="fill:#404040;"/>
          </a>
         </g>
        </svg>
</svg>
