<?xml version="1.0" encoding="UTF-8" standalone="no"?>
<!DOCTYPE svg PUBLIC "-//W3C//DTD SVG 1.1//EN"
 "http://www.w3.org/Graphics/SVG/1.1/DTD/svg11.dtd">
<!-- Generated by graphviz version 2.38.0 (20140413.2041)
 -->
<!-- Title: pfasst::quadrature::GaussLobatto&lt; precision &gt; Pages: 1 -->
<svg width="152pt" height="1015pt"
 viewBox="0.00 0.00 152.00 1015.00" xmlns="http://www.w3.org/2000/svg" xmlns:xlink="http://www.w3.org/1999/xlink">
<g id="graph0" class="graph" transform="scale(1 1) rotate(0) translate(4 1011)">
<title>pfasst::quadrature::GaussLobatto&lt; precision &gt;</title>
<polygon fill="white" stroke="none" points="-4,4 -4,-1011 148,-1011 148,4 -4,4"/>
<!-- Node1 -->
<g id="node1" class="node"><title>Node1</title>
<polygon fill="#bfbfbf" stroke="black" points="0,-0.5 0,-222.5 144,-222.5 144,-0.5 0,-0.5"/>
<text text-anchor="start" x="8" y="-210.5" font-family="Helvetica,sans-Serif" font-size="10.00">pfasst::quadrature</text>
<text text-anchor="middle" x="72" y="-199.5" font-family="Helvetica,sans-Serif" font-size="10.00">::GaussLobatto&lt; precision &gt;</text>
<polyline fill="none" stroke="black" points="0,-192.5 144,-192.5 "/>
<text text-anchor="start" x="8" y="-180.5" font-family="Helvetica,sans-Serif" font-size="10.00"># LEFT_IS_NODE</text>
<text text-anchor="start" x="8" y="-169.5" font-family="Helvetica,sans-Serif" font-size="10.00"># RIGHT_IS_NODE</text>
<polyline fill="none" stroke="black" points="0,-162.5 144,-162.5 "/>
<text text-anchor="start" x="8" y="-150.5" font-family="Helvetica,sans-Serif" font-size="10.00">+ GaussLobatto()</text>
<text text-anchor="start" x="8" y="-139.5" font-family="Helvetica,sans-Serif" font-size="10.00">+ GaussLobatto()</text>
<text text-anchor="start" x="8" y="-128.5" font-family="Helvetica,sans-Serif" font-size="10.00">+ ~GaussLobatto()</text>
<text text-anchor="start" x="8" y="-117.5" font-family="Helvetica,sans-Serif" font-size="10.00">+ left_is_node()</text>
<text text-anchor="start" x="8" y="-106.5" font-family="Helvetica,sans-Serif" font-size="10.00">+ right_is_node()</text>
<text text-anchor="start" x="8" y="-95.5" font-family="Helvetica,sans-Serif" font-size="10.00"># compute_nodes()</text>
<text text-anchor="start" x="8" y="-84.5" font-family="Helvetica,sans-Serif" font-size="10.00">* LEFT_IS_NODE</text>
<text text-anchor="start" x="8" y="-73.5" font-family="Helvetica,sans-Serif" font-size="10.00">* RIGHT_IS_NODE</text>
<text text-anchor="start" x="8" y="-62.5" font-family="Helvetica,sans-Serif" font-size="10.00">* GaussLobatto()</text>
<text text-anchor="start" x="8" y="-51.5" font-family="Helvetica,sans-Serif" font-size="10.00">* GaussLobatto()</text>
<text text-anchor="start" x="8" y="-40.5" font-family="Helvetica,sans-Serif" font-size="10.00">* ~GaussLobatto()</text>
<text text-anchor="start" x="8" y="-29.5" font-family="Helvetica,sans-Serif" font-size="10.00">* left_is_node()</text>
<text text-anchor="start" x="8" y="-18.5" font-family="Helvetica,sans-Serif" font-size="10.00">* right_is_node()</text>
<text text-anchor="start" x="8" y="-7.5" font-family="Helvetica,sans-Serif" font-size="10.00">* compute_nodes()</text>
</g>
<!-- Node2 -->
<g id="node2" class="node"><title>Node2</title>
<g id="a_node2"><a xlink:href="../../de/d20/classpfasst_1_1quadrature_1_1IQuadrature.html" target="_top" xlink:title="Interface for quadrature handlers. ">
<polygon fill="white" stroke="black" points="5,-260.5 5,-680.5 139,-680.5 139,-260.5 5,-260.5"/>
<text text-anchor="start" x="13" y="-668.5" font-family="Helvetica,sans-Serif" font-size="10.00">pfasst::quadrature</text>
<text text-anchor="middle" x="72" y="-657.5" font-family="Helvetica,sans-Serif" font-size="10.00">::IQuadrature&lt; precision &gt;</text>
<polyline fill="none" stroke="black" points="5,-650.5 139,-650.5 "/>
<text text-anchor="middle" x="72" y="-638.5" font-family="Helvetica,sans-Serif" font-size="10.00"> </text>
<polyline fill="none" stroke="black" points="5,-631.5 139,-631.5 "/>
<text text-anchor="start" x="13" y="-619.5" font-family="Helvetica,sans-Serif" font-size="10.00">+ expected_error()</text>
<text text-anchor="start" x="13" y="-608.5" font-family="Helvetica,sans-Serif" font-size="10.00">+ IQuadrature()</text>
<text text-anchor="start" x="13" y="-597.5" font-family="Helvetica,sans-Serif" font-size="10.00">+ IQuadrature()</text>
<text text-anchor="start" x="13" y="-586.5" font-family="Helvetica,sans-Serif" font-size="10.00">+ ~IQuadrature()</text>
<text text-anchor="start" x="13" y="-575.5" font-family="Helvetica,sans-Serif" font-size="10.00">+ get_q_mat()</text>
<text text-anchor="start" x="13" y="-564.5" font-family="Helvetica,sans-Serif" font-size="10.00">+ get_s_mat()</text>
<text text-anchor="start" x="13" y="-553.5" font-family="Helvetica,sans-Serif" font-size="10.00">+ get_b_mat()</text>
<text text-anchor="start" x="13" y="-542.5" font-family="Helvetica,sans-Serif" font-size="10.00">+ get_q_vec()</text>
<text text-anchor="start" x="13" y="-531.5" font-family="Helvetica,sans-Serif" font-size="10.00">+ get_nodes()</text>
<text text-anchor="start" x="13" y="-520.5" font-family="Helvetica,sans-Serif" font-size="10.00">+ get_num_nodes()</text>
<text text-anchor="start" x="13" y="-509.5" font-family="Helvetica,sans-Serif" font-size="10.00">+ left_is_node()</text>
<text text-anchor="start" x="13" y="-498.5" font-family="Helvetica,sans-Serif" font-size="10.00">+ right_is_node()</text>
<text text-anchor="start" x="13" y="-487.5" font-family="Helvetica,sans-Serif" font-size="10.00"># compute_nodes()</text>
<text text-anchor="start" x="13" y="-476.5" font-family="Helvetica,sans-Serif" font-size="10.00"># compute_weights()</text>
<text text-anchor="start" x="13" y="-465.5" font-family="Helvetica,sans-Serif" font-size="10.00">* LEFT_IS_NODE</text>
<text text-anchor="start" x="13" y="-454.5" font-family="Helvetica,sans-Serif" font-size="10.00">* RIGHT_IS_NODE</text>
<text text-anchor="start" x="13" y="-443.5" font-family="Helvetica,sans-Serif" font-size="10.00">* num_nodes</text>
<text text-anchor="start" x="13" y="-432.5" font-family="Helvetica,sans-Serif" font-size="10.00">* q_mat</text>
<text text-anchor="start" x="13" y="-421.5" font-family="Helvetica,sans-Serif" font-size="10.00">* s_mat</text>
<text text-anchor="start" x="13" y="-410.5" font-family="Helvetica,sans-Serif" font-size="10.00">* b_mat</text>
<text text-anchor="start" x="13" y="-399.5" font-family="Helvetica,sans-Serif" font-size="10.00">* IQuadrature()</text>
<text text-anchor="start" x="13" y="-388.5" font-family="Helvetica,sans-Serif" font-size="10.00">* IQuadrature()</text>
<text text-anchor="start" x="13" y="-377.5" font-family="Helvetica,sans-Serif" font-size="10.00">* ~IQuadrature()</text>
<text text-anchor="start" x="13" y="-366.5" font-family="Helvetica,sans-Serif" font-size="10.00">* get_q_mat()</text>
<text text-anchor="start" x="13" y="-355.5" font-family="Helvetica,sans-Serif" font-size="10.00">* get_s_mat()</text>
<text text-anchor="start" x="13" y="-344.5" font-family="Helvetica,sans-Serif" font-size="10.00">* get_b_mat()</text>
<text text-anchor="start" x="13" y="-333.5" font-family="Helvetica,sans-Serif" font-size="10.00">* get_q_vec()</text>
<text text-anchor="start" x="13" y="-322.5" font-family="Helvetica,sans-Serif" font-size="10.00">* get_nodes()</text>
<text text-anchor="start" x="13" y="-311.5" font-family="Helvetica,sans-Serif" font-size="10.00">* get_num_nodes()</text>
<text text-anchor="start" x="13" y="-300.5" font-family="Helvetica,sans-Serif" font-size="10.00">* left_is_node()</text>
<text text-anchor="start" x="13" y="-289.5" font-family="Helvetica,sans-Serif" font-size="10.00">* right_is_node()</text>
<text text-anchor="start" x="13" y="-278.5" font-family="Helvetica,sans-Serif" font-size="10.00">* compute_nodes()</text>
<text text-anchor="start" x="13" y="-267.5" font-family="Helvetica,sans-Serif" font-size="10.00">* compute_weights()</text>
</a>
</g>
</g>
<!-- Node2&#45;&gt;Node1 -->
<g id="edge1" class="edge"><title>Node2&#45;&gt;Node1</title>
<path fill="none" stroke="midnightblue" d="M72,-250.147C72,-240.858 72,-231.725 72,-222.856"/>
<polygon fill="none" stroke="midnightblue" points="68.5001,-250.283 72,-260.283 75.5001,-250.283 68.5001,-250.283"/>
</g>
<!-- Node3 -->
<g id="node3" class="node"><title>Node3</title>
<polygon fill="white" stroke="#bfbfbf" points="11,-739.5 11,-796.5 133,-796.5 133,-739.5 11,-739.5"/>
<text text-anchor="middle" x="72" y="-784.5" font-family="Helvetica,sans-Serif" font-size="10.00">std::vector&lt; precision &gt;</text>
<polyline fill="none" stroke="#bfbfbf" points="11,-777.5 133,-777.5 "/>
<text text-anchor="start" x="19" y="-765.5" font-family="Helvetica,sans-Serif" font-size="10.00">+ elements</text>
<polyline fill="none" stroke="#bfbfbf" points="11,-758.5 133,-758.5 "/>
<text text-anchor="middle" x="72" y="-746.5" font-family="Helvetica,sans-Serif" font-size="10.00"> </text>
</g>
<!-- Node3&#45;&gt;Node2 -->
<g id="edge2" class="edge"><title>Node3&#45;&gt;Node2</title>
<path fill="none" stroke="#404040" d="M72,-739.465C72,-726.948 72,-710.901 72,-692.893"/>
<polygon fill="none" stroke="#404040" points="72.0001,-692.793 68,-686.793 72,-680.793 76,-686.793 72.0001,-692.793"/>
<text text-anchor="middle" x="90.5" y="-713" font-family="Helvetica,sans-Serif" font-size="10.00"> #nodes</text>
<text text-anchor="middle" x="90.5" y="-702" font-family="Helvetica,sans-Serif" font-size="10.00">#q_vec</text>
</g>
<!-- Node4 -->
<g id="node4" class="node"><title>Node4</title>
<g id="a_node4"><a xlink:title="STL class. ">
<polygon fill="white" stroke="#bfbfbf" points="27.5,-844.5 27.5,-901.5 116.5,-901.5 116.5,-844.5 27.5,-844.5"/>
<text text-anchor="middle" x="72" y="-889.5" font-family="Helvetica,sans-Serif" font-size="10.00">std::vector&lt; T &gt;</text>
<polyline fill="none" stroke="#bfbfbf" points="27.5,-882.5 116.5,-882.5 "/>
<text text-anchor="middle" x="72" y="-870.5" font-family="Helvetica,sans-Serif" font-size="10.00"> </text>
<polyline fill="none" stroke="#bfbfbf" points="27.5,-863.5 116.5,-863.5 "/>
<text text-anchor="middle" x="72" y="-851.5" font-family="Helvetica,sans-Serif" font-size="10.00"> </text>
</a>
</g>
</g>
<!-- Node4&#45;&gt;Node3 -->
<g id="edge3" class="edge"><title>Node4&#45;&gt;Node3</title>
<path fill="none" stroke="orange" d="M72,-834.286C72,-821.839 72,-808.233 72,-796.678"/>
<polygon fill="orange" stroke="orange" points="68.5001,-834.398 72,-844.398 75.5001,-834.398 68.5001,-834.398"/>
<text text-anchor="middle" x="103" y="-818" font-family="Helvetica,sans-Serif" font-size="10.00"> &lt; precision &gt;</text>
</g>
<!-- Node5 -->
<g id="node5" class="node"><title>Node5</title>
<polygon fill="white" stroke="#bfbfbf" points="57.5,-949.5 57.5,-1006.5 86.5,-1006.5 86.5,-949.5 57.5,-949.5"/>
<text text-anchor="middle" x="72" y="-994.5" font-family="Helvetica,sans-Serif" font-size="10.00">T</text>
<polyline fill="none" stroke="#bfbfbf" points="57.5,-987.5 86.5,-987.5 "/>
<text text-anchor="middle" x="72" y="-975.5" font-family="Helvetica,sans-Serif" font-size="10.00"> </text>
<polyline fill="none" stroke="#bfbfbf" points="57.5,-968.5 86.5,-968.5 "/>
<text text-anchor="middle" x="72" y="-956.5" font-family="Helvetica,sans-Serif" font-size="10.00"> </text>
</g>
<!-- Node5&#45;&gt;Node4 -->
<g id="edge4" class="edge"><title>Node5&#45;&gt;Node4</title>
<path fill="none" stroke="#404040" d="M72,-949.398C72,-938.545 72,-925.873 72,-914.049"/>
<polygon fill="none" stroke="#404040" points="72.0001,-913.678 68,-907.678 72,-901.678 76,-907.678 72.0001,-913.678"/>
<text text-anchor="middle" x="97.5" y="-923" font-family="Helvetica,sans-Serif" font-size="10.00"> +elements</text>
</g>
</g>
</svg>
