<?xml version="1.0" encoding="UTF-8" standalone="no"?>
<!DOCTYPE svg PUBLIC "-//W3C//DTD SVG 1.1//EN"
 "http://www.w3.org/Graphics/SVG/1.1/DTD/svg11.dtd">
<!-- Generated by graphviz version 2.38.0 (20140413.2041)
 -->
<!-- Title: pfasst::quadrature::Uniform::Uniform Pages: 1 -->
<!--zoomable 161 -->
<svg id="main" version="1.1" xmlns="http://www.w3.org/2000/svg" xmlns:xlink="http://www.w3.org/1999/xlink" xml:space="preserve" onload="init(evt)">
<style type="text/css"><![CDATA[
.edge:hover path { stroke: red; }
.edge:hover polygon { stroke: red; fill: red; }
]]></style>
<script type="text/javascript"><![CDATA[
var edges = document.getElementsByTagName('g');
if (edges && edges.length) {
  for (var i=0;i<edges.length;i++) {
    if (edges[i].id.substr(0,4)=='edge') {
      edges[i].setAttribute('class','edge');
    }
  }
}
]]></script>
        <defs>
                <circle id="rim" cx="0" cy="0" r="7"/>
                <circle id="rim2" cx="0" cy="0" r="3.5"/>
                <g id="zoomPlus">
                        <use xlink:href="#rim" fill="#404040">
                                <set attributeName="fill" to="#808080" begin="zoomplus.mouseover" end="zoomplus.mouseout"/>
                        </use>
                        <path d="M-4,0h8M0,-4v8" fill="none" stroke="white" stroke-width="1.5" pointer-events="none"/>
                </g>
                <g id="zoomMin">
                        <use xlink:href="#rim" fill="#404040">
                                <set attributeName="fill" to="#808080" begin="zoomminus.mouseover" end="zoomminus.mouseout"/>
                        </use>
                        <path d="M-4,0h8" fill="none" stroke="white" stroke-width="1.5" pointer-events="none"/>
                </g>
                <g id="dirArrow">
                        <path fill="none" stroke="white" stroke-width="1.5" d="M0,-3.0v7 M-2.5,-0.5L0,-3.0L2.5,-0.5"/>
                </g>
               <g id="resetDef">
                       <use xlink:href="#rim2" fill="#404040">
                               <set attributeName="fill" to="#808080" begin="reset.mouseover" end="reset.mouseout"/>
                       </use>
               </g>
        </defs>

<script type="text/javascript">
var viewWidth = 570;
var viewHeight = 161;
var sectionId = 'dynsection-2';
</script>
<script xlink:href="../../svgpan.js"/>
<svg id="graph" class="graph">
<g id="viewport">
<title>pfasst::quadrature::Uniform::Uniform</title>
<polygon fill="white" stroke="none" points="-4,4 -4,-157 566,-157 566,4 -4,4"/>
<!-- Node1 -->
<g id="node1" class="node"><title>Node1</title>
<polygon fill="#bfbfbf" stroke="black" points="0,-76.5 0,-106.5 98,-106.5 98,-76.5 0,-76.5"/>
<text text-anchor="start" x="8" y="-94.5" font-family="Helvetica,sans-Serif" font-size="10.00">pfasst::quadrature</text>
<text text-anchor="middle" x="49" y="-83.5" font-family="Helvetica,sans-Serif" font-size="10.00">::Uniform::Uniform</text>
</g>
<!-- Node2 -->
<g id="node2" class="node"><title>Node2</title>
<g id="a_node2"><a xlink:href="../../d9/d7b/classpfasst_1_1quadrature_1_1Uniform.html#ab2b18c6e2acd1b6039a2b7ec19ebbc9b" target="_top" xlink:title="pfasst::quadrature\l::Uniform::compute_nodes">
<polygon fill="white" stroke="black" points="134,-103.5 134,-133.5 268,-133.5 268,-103.5 134,-103.5"/>
<text text-anchor="start" x="142" y="-121.5" font-family="Helvetica,sans-Serif" font-size="10.00">pfasst::quadrature</text>
<text text-anchor="middle" x="201" y="-110.5" font-family="Helvetica,sans-Serif" font-size="10.00">::Uniform::compute_nodes</text>
</a>
</g>
</g>
<!-- Node1&#45;&gt;Node2 -->
<g id="edge1" class="edge"><title>Node1&#45;&gt;Node2</title>
<path fill="none" stroke="midnightblue" d="M98.2866,-100.192C106.412,-101.654 115.019,-103.203 123.649,-104.757"/>
<polygon fill="midnightblue" stroke="midnightblue" points="123.302,-108.251 133.764,-106.578 124.543,-101.361 123.302,-108.251"/>
</g>
<!-- Node3 -->
<g id="node3" class="node"><title>Node3</title>
<g id="a_node3"><a xlink:href="../../de/d20/classpfasst_1_1quadrature_1_1IQuadrature.html#aa282053968e191e35b57d6a8820ca1f7" target="_top" xlink:title="pfasst::quadrature\l::IQuadrature::compute\l_weights">
<polygon fill="white" stroke="black" points="141.5,-44 141.5,-85 260.5,-85 260.5,-44 141.5,-44"/>
<text text-anchor="start" x="149.5" y="-73" font-family="Helvetica,sans-Serif" font-size="10.00">pfasst::quadrature</text>
<text text-anchor="start" x="149.5" y="-62" font-family="Helvetica,sans-Serif" font-size="10.00">::IQuadrature::compute</text>
<text text-anchor="middle" x="201" y="-51" font-family="Helvetica,sans-Serif" font-size="10.00">_weights</text>
</a>
</g>
</g>
<!-- Node1&#45;&gt;Node3 -->
<g id="edge2" class="edge"><title>Node1&#45;&gt;Node3</title>
<path fill="none" stroke="midnightblue" d="M98.2866,-82.8084C108.778,-80.92 120.072,-78.8871 131.183,-76.8871"/>
<polygon fill="midnightblue" stroke="midnightblue" points="132.086,-80.2808 141.308,-75.0646 130.846,-73.3916 132.086,-80.2808"/>
</g>
<!-- Node4 -->
<g id="node4" class="node"><title>Node4</title>
<g id="a_node4"><a xlink:href="../../de/d84/namespacepfasst_1_1quadrature.html#a1a124b78f225d13b253ff8e2fb799aa5" target="_top" xlink:title="Compute quadrature matrix \( Q \) between two sets of nodes. ">
<polygon fill="white" stroke="black" points="304,-49.5 304,-79.5 408,-79.5 408,-49.5 304,-49.5"/>
<text text-anchor="start" x="312" y="-67.5" font-family="Helvetica,sans-Serif" font-size="10.00">pfasst::quadrature</text>
<text text-anchor="middle" x="356" y="-56.5" font-family="Helvetica,sans-Serif" font-size="10.00">::compute_q_matrix</text>
</a>
</g>
</g>
<!-- Node3&#45;&gt;Node4 -->
<g id="edge3" class="edge"><title>Node3&#45;&gt;Node4</title>
<path fill="none" stroke="midnightblue" d="M260.716,-64.5C271.445,-64.5 282.668,-64.5 293.476,-64.5"/>
<polygon fill="midnightblue" stroke="midnightblue" points="293.681,-68.0001 303.681,-64.5 293.681,-61.0001 293.681,-68.0001"/>
</g>
<!-- Node8 -->
<g id="node8" class="node"><title>Node8</title>
<g id="a_node8"><a xlink:href="../../de/d84/namespacepfasst_1_1quadrature.html#a77ad709add97d78ea02404286fe15f02" target="_top" xlink:title="Compute vector \( q \) for integration from \( 0 \) to \( 1 \) for given set of nodes. ">
<polygon fill="white" stroke="black" points="307,-98.5 307,-128.5 405,-128.5 405,-98.5 307,-98.5"/>
<text text-anchor="start" x="315" y="-116.5" font-family="Helvetica,sans-Serif" font-size="10.00">pfasst::quadrature</text>
<text text-anchor="middle" x="356" y="-105.5" font-family="Helvetica,sans-Serif" font-size="10.00">::compute_q_vec</text>
</a>
</g>
</g>
<!-- Node3&#45;&gt;Node8 -->
<g id="edge7" class="edge"><title>Node3&#45;&gt;Node8</title>
<path fill="none" stroke="midnightblue" d="M260.716,-83.3045C273.084,-87.2656 286.109,-91.4369 298.397,-95.3724"/>
<polygon fill="midnightblue" stroke="midnightblue" points="297.477,-98.7527 308.068,-98.4696 299.612,-92.0862 297.477,-98.7527"/>
</g>
<!-- Node9 -->
<g id="node9" class="node"><title>Node9</title>
<g id="a_node9"><a xlink:href="../../de/d84/namespacepfasst_1_1quadrature.html#a106e6af4f4fa7f33ae6c68ea391dc6e0" target="_top" xlink:title="Compute node&#45;to&#45;node quadrature matrix \( S \) from a given quadrature matrix \( Q \)...">
<polygon fill="white" stroke="black" points="304,-0.5 304,-30.5 408,-30.5 408,-0.5 304,-0.5"/>
<text text-anchor="start" x="312" y="-18.5" font-family="Helvetica,sans-Serif" font-size="10.00">pfasst::quadrature</text>
<text text-anchor="middle" x="356" y="-7.5" font-family="Helvetica,sans-Serif" font-size="10.00">::compute_s_matrix</text>
</a>
</g>
</g>
<!-- Node3&#45;&gt;Node9 -->
<g id="edge11" class="edge"><title>Node3&#45;&gt;Node9</title>
<path fill="none" stroke="midnightblue" d="M260.716,-45.6955C273.084,-41.7344 286.109,-37.5631 298.397,-33.6276"/>
<polygon fill="midnightblue" stroke="midnightblue" points="299.612,-36.9138 308.068,-30.5304 297.477,-30.2473 299.612,-36.9138"/>
</g>
<!-- Node5 -->
<g id="node5" class="node"><title>Node5</title>
<g id="a_node5"><a xlink:href="../../de/d84/namespacepfasst_1_1quadrature.html#a37425ec75a53d150c06f1b47dc8bc047" target="_top" xlink:title="pfasst::quadrature\l::build_polynomial">
<polygon fill="white" stroke="black" points="454,-122.5 454,-152.5 552,-152.5 552,-122.5 454,-122.5"/>
<text text-anchor="start" x="462" y="-140.5" font-family="Helvetica,sans-Serif" font-size="10.00">pfasst::quadrature</text>
<text text-anchor="middle" x="503" y="-129.5" font-family="Helvetica,sans-Serif" font-size="10.00">::build_polynomial</text>
</a>
</g>
</g>
<!-- Node4&#45;&gt;Node5 -->
<g id="edge4" class="edge"><title>Node4&#45;&gt;Node5</title>
<path fill="none" stroke="midnightblue" d="M389.441,-79.6009C395.678,-82.7285 402.102,-86.1081 408,-89.5 424.67,-99.0863 427.035,-104.447 444,-113.5 447.024,-115.114 450.18,-116.693 453.391,-118.222"/>
<polygon fill="midnightblue" stroke="midnightblue" points="451.968,-121.42 462.518,-122.386 454.873,-115.051 451.968,-121.42"/>
</g>
<!-- Node6 -->
<g id="node6" class="node"><title>Node6</title>
<g id="a_node6"><a xlink:href="../../d6/dd0/classpfasst_1_1quadrature_1_1Polynomial.html#ab6ca606fac17e7b963a60ee34271090e" target="_top" xlink:title="Evaluate polynomial for given value. ">
<polygon fill="white" stroke="black" points="444,-73.5 444,-103.5 562,-103.5 562,-73.5 444,-73.5"/>
<text text-anchor="start" x="452" y="-91.5" font-family="Helvetica,sans-Serif" font-size="10.00">pfasst::quadrature</text>
<text text-anchor="middle" x="503" y="-80.5" font-family="Helvetica,sans-Serif" font-size="10.00">::Polynomial::evaluate</text>
</a>
</g>
</g>
<!-- Node4&#45;&gt;Node6 -->
<g id="edge5" class="edge"><title>Node4&#45;&gt;Node6</title>
<path fill="none" stroke="midnightblue" d="M408.122,-72.9615C416.443,-74.3389 425.178,-75.7846 433.83,-77.2166"/>
<polygon fill="midnightblue" stroke="midnightblue" points="433.481,-80.7065 443.919,-78.8866 434.625,-73.8005 433.481,-80.7065"/>
</g>
<!-- Node7 -->
<g id="node7" class="node"><title>Node7</title>
<g id="a_node7"><a xlink:href="../../d6/dd0/classpfasst_1_1quadrature_1_1Polynomial.html#a52bf17679c1a86638be7e7564bb6c78d" target="_top" xlink:title="Integrates this polynomial. ">
<polygon fill="white" stroke="black" points="444,-24.5 444,-54.5 562,-54.5 562,-24.5 444,-24.5"/>
<text text-anchor="start" x="452" y="-42.5" font-family="Helvetica,sans-Serif" font-size="10.00">pfasst::quadrature</text>
<text text-anchor="middle" x="503" y="-31.5" font-family="Helvetica,sans-Serif" font-size="10.00">::Polynomial::integrate</text>
</a>
</g>
</g>
<!-- Node4&#45;&gt;Node7 -->
<g id="edge6" class="edge"><title>Node4&#45;&gt;Node7</title>
<path fill="none" stroke="midnightblue" d="M408.122,-55.6859C416.443,-54.2511 425.178,-52.7452 433.83,-51.2535"/>
<polygon fill="midnightblue" stroke="midnightblue" points="434.659,-54.6623 443.919,-49.514 433.469,-47.764 434.659,-54.6623"/>
</g>
<!-- Node8&#45;&gt;Node5 -->
<g id="edge8" class="edge"><title>Node8&#45;&gt;Node5</title>
<path fill="none" stroke="midnightblue" d="M405.283,-121.492C417.634,-123.536 431.045,-125.756 443.835,-127.873"/>
<polygon fill="midnightblue" stroke="midnightblue" points="443.491,-131.363 453.928,-129.543 444.634,-124.457 443.491,-131.363"/>
</g>
<!-- Node8&#45;&gt;Node6 -->
<g id="edge9" class="edge"><title>Node8&#45;&gt;Node6</title>
<path fill="none" stroke="midnightblue" d="M405.283,-105.175C414.455,-103.594 424.21,-101.912 433.863,-100.248"/>
<polygon fill="midnightblue" stroke="midnightblue" points="434.595,-103.673 443.855,-98.525 433.406,-96.775 434.595,-103.673"/>
</g>
<!-- Node8&#45;&gt;Node7 -->
<g id="edge10" class="edge"><title>Node8&#45;&gt;Node7</title>
<path fill="none" stroke="midnightblue" d="M391.15,-98.3994C396.86,-95.5998 402.66,-92.5815 408,-89.5 424.872,-79.7633 426.971,-73.9581 444,-64.5 447.46,-62.5784 451.097,-60.7017 454.793,-58.8954"/>
<polygon fill="midnightblue" stroke="midnightblue" points="456.463,-61.9781 464.032,-54.5651 453.492,-55.6397 456.463,-61.9781"/>
</g>
</g>
</svg>
        <g id="navigator" transform="translate(0 0)" fill="#404254">
                <rect fill="#f2f5e9" fill-opacity="0.5" stroke="#606060" stroke-width=".5" x="0" y="0" width="60" height="60"/>
                <use id="zoomplus" xlink:href="#zoomPlus" x="17" y="9" onmousedown="handleZoom(evt,'in')"/>
                <use id="zoomminus" xlink:href="#zoomMin" x="42" y="9" onmousedown="handleZoom(evt,'out')"/>
                <use id="reset" xlink:href="#resetDef" x="30" y="36" onmousedown="handleReset()"/>
                <g id="arrowUp" xlink:href="#dirArrow" transform="translate(30 24)" onmousedown="handlePan(0,-1)">
                  <use xlink:href="#rim" fill="#404040">
                        <set attributeName="fill" to="#808080" begin="arrowUp.mouseover" end="arrowUp.mouseout"/>
                  </use>
                  <path fill="none" stroke="white" stroke-width="1.5" d="M0,-3.0v7 M-2.5,-0.5L0,-3.0L2.5,-0.5"/>
                </g>
                <g id="arrowRight" xlink:href="#dirArrow" transform="rotate(90) translate(36 -43)" onmousedown="handlePan(1,0)">
                  <use xlink:href="#rim" fill="#404040">
                        <set attributeName="fill" to="#808080" begin="arrowRight.mouseover" end="arrowRight.mouseout"/>
                  </use>
                  <path fill="none" stroke="white" stroke-width="1.5" d="M0,-3.0v7 M-2.5,-0.5L0,-3.0L2.5,-0.5"/>
                </g>
                <g id="arrowDown" xlink:href="#dirArrow" transform="rotate(180) translate(-30 -48)" onmousedown="handlePan(0,1)">
                  <use xlink:href="#rim" fill="#404040">
                        <set attributeName="fill" to="#808080" begin="arrowDown.mouseover" end="arrowDown.mouseout"/>
                  </use>
                  <path fill="none" stroke="white" stroke-width="1.5" d="M0,-3.0v7 M-2.5,-0.5L0,-3.0L2.5,-0.5"/>
                </g>
                <g id="arrowLeft" xlink:href="#dirArrow" transform="rotate(270) translate(-36 17)" onmousedown="handlePan(-1,0)">
                  <use xlink:href="#rim" fill="#404040">
                        <set attributeName="fill" to="#808080" begin="arrowLeft.mouseover" end="arrowLeft.mouseout"/>
                  </use>
                  <path fill="none" stroke="white" stroke-width="1.5" d="M0,-3.0v7 M-2.5,-0.5L0,-3.0L2.5,-0.5"/>
                </g>
        </g>
        <svg viewBox="0 0 15 15" width="100%" height="30px" preserveAspectRatio="xMaxYMin meet">
         <g id="arrow_out" transform="scale(0.3 0.3)">
          <a xlink:href="classpfasst_1_1quadrature_1_1Uniform_a05919b8af8b1f9cf05fbc4fcf7822717_cgraph_org.svg" target="_base">
           <rect id="button" ry="5" rx="5" y="6" x="6" height="38" width="38"
                fill="#f2f5e9" fill-opacity="0.5" stroke="#606060" stroke-width="1.0"/>
           <path id="arrow"
             d="M 11.500037,31.436501 C 11.940474,20.09759 22.043105,11.32322 32.158766,21.979434 L 37.068811,17.246167 C 37.068811,17.246167 37.088388,32 37.088388,32 L 22.160133,31.978069 C 22.160133,31.978069 26.997745,27.140456 26.997745,27.140456 C 18.528582,18.264221 13.291696,25.230495 11.500037,31.436501 z"
             style="fill:#404040;"/>
          </a>
         </g>
        </svg>
</svg>
