<?xml version="1.0" encoding="UTF-8" standalone="no"?>
<!DOCTYPE svg PUBLIC "-//W3C//DTD SVG 1.1//EN"
 "http://www.w3.org/Graphics/SVG/1.1/DTD/svg11.dtd">
<!-- Generated by graphviz version 2.38.0 (20140413.2041)
 -->
<!-- Title: pfasst::SDC&lt; time &gt; Pages: 1 -->
<!--zoomable 1180 -->
<svg id="main" version="1.1" xmlns="http://www.w3.org/2000/svg" xmlns:xlink="http://www.w3.org/1999/xlink" xml:space="preserve" onload="init(evt)">
<style type="text/css"><![CDATA[
.edge:hover path { stroke: red; }
.edge:hover polygon { stroke: red; fill: red; }
]]></style>
<script type="text/javascript"><![CDATA[
var edges = document.getElementsByTagName('g');
if (edges && edges.length) {
  for (var i=0;i<edges.length;i++) {
    if (edges[i].id.substr(0,4)=='edge') {
      edges[i].setAttribute('class','edge');
    }
  }
}
]]></script>
        <defs>
                <circle id="rim" cx="0" cy="0" r="7"/>
                <circle id="rim2" cx="0" cy="0" r="3.5"/>
                <g id="zoomPlus">
                        <use xlink:href="#rim" fill="#404040">
                                <set attributeName="fill" to="#808080" begin="zoomplus.mouseover" end="zoomplus.mouseout"/>
                        </use>
                        <path d="M-4,0h8M0,-4v8" fill="none" stroke="white" stroke-width="1.5" pointer-events="none"/>
                </g>
                <g id="zoomMin">
                        <use xlink:href="#rim" fill="#404040">
                                <set attributeName="fill" to="#808080" begin="zoomminus.mouseover" end="zoomminus.mouseout"/>
                        </use>
                        <path d="M-4,0h8" fill="none" stroke="white" stroke-width="1.5" pointer-events="none"/>
                </g>
                <g id="dirArrow">
                        <path fill="none" stroke="white" stroke-width="1.5" d="M0,-3.0v7 M-2.5,-0.5L0,-3.0L2.5,-0.5"/>
                </g>
               <g id="resetDef">
                       <use xlink:href="#rim2" fill="#404040">
                               <set attributeName="fill" to="#808080" begin="reset.mouseover" end="reset.mouseout"/>
                       </use>
               </g>
        </defs>

<script type="text/javascript">
var viewWidth = 286;
var viewHeight = 1180;
var sectionId = 'dynsection-1';
</script>
<script xlink:href="../../svgpan.js"/>
<svg id="graph" class="graph">
<g id="viewport">
<title>pfasst::SDC&lt; time &gt;</title>
<polygon fill="white" stroke="none" points="-4,4 -4,-1176 282,-1176 282,4 -4,4"/>
<!-- Node1 -->
<g id="node1" class="node"><title>Node1</title>
<polygon fill="#bfbfbf" stroke="black" points="79.5,-0.5 79.5,-57.5 186.5,-57.5 186.5,-0.5 79.5,-0.5"/>
<text text-anchor="middle" x="133" y="-45.5" font-family="Helvetica,sans-Serif" font-size="10.00">pfasst::SDC&lt; time &gt;</text>
<polyline fill="none" stroke="black" points="79.5,-38.5 186.5,-38.5 "/>
<text text-anchor="middle" x="133" y="-26.5" font-family="Helvetica,sans-Serif" font-size="10.00"> </text>
<polyline fill="none" stroke="black" points="79.5,-19.5 186.5,-19.5 "/>
<text text-anchor="start" x="87.5" y="-7.5" font-family="Helvetica,sans-Serif" font-size="10.00">+ run()</text>
</g>
<!-- Node2 -->
<g id="node2" class="node"><title>Node2</title>
<g id="a_node2"><a xlink:href="../../d4/da9/classpfasst_1_1Controller.html" target="_top" xlink:title="Base SDC/MLSDC/PFASST controller. ">
<polygon fill="white" stroke="black" points="75,-95.5 75,-823.5 191,-823.5 191,-95.5 75,-95.5"/>
<text text-anchor="start" x="83" y="-811.5" font-family="Helvetica,sans-Serif" font-size="10.00">pfasst::Controller</text>
<text text-anchor="middle" x="133" y="-800.5" font-family="Helvetica,sans-Serif" font-size="10.00">&lt; time &gt;</text>
<polyline fill="none" stroke="black" points="75,-793.5 191,-793.5 "/>
<text text-anchor="start" x="83" y="-781.5" font-family="Helvetica,sans-Serif" font-size="10.00"># step</text>
<text text-anchor="start" x="83" y="-770.5" font-family="Helvetica,sans-Serif" font-size="10.00"># iteration</text>
<text text-anchor="start" x="83" y="-759.5" font-family="Helvetica,sans-Serif" font-size="10.00"># max_iterations</text>
<text text-anchor="start" x="83" y="-748.5" font-family="Helvetica,sans-Serif" font-size="10.00"># t</text>
<text text-anchor="start" x="83" y="-737.5" font-family="Helvetica,sans-Serif" font-size="10.00"># dt</text>
<text text-anchor="start" x="83" y="-726.5" font-family="Helvetica,sans-Serif" font-size="10.00"># tend</text>
<polyline fill="none" stroke="black" points="75,-719.5 191,-719.5 "/>
<text text-anchor="start" x="83" y="-707.5" font-family="Helvetica,sans-Serif" font-size="10.00">+ Controller()</text>
<text text-anchor="start" x="83" y="-696.5" font-family="Helvetica,sans-Serif" font-size="10.00">+ ~Controller()</text>
<text text-anchor="start" x="83" y="-685.5" font-family="Helvetica,sans-Serif" font-size="10.00">+ set_options()</text>
<text text-anchor="start" x="83" y="-674.5" font-family="Helvetica,sans-Serif" font-size="10.00">+ setup()</text>
<text text-anchor="start" x="83" y="-663.5" font-family="Helvetica,sans-Serif" font-size="10.00">+ set_duration()</text>
<text text-anchor="start" x="83" y="-652.5" font-family="Helvetica,sans-Serif" font-size="10.00">+ add_level()</text>
<text text-anchor="start" x="83" y="-641.5" font-family="Helvetica,sans-Serif" font-size="10.00">+ nlevels()</text>
<text text-anchor="start" x="83" y="-630.5" font-family="Helvetica,sans-Serif" font-size="10.00">+ get_level()</text>
<text text-anchor="start" x="83" y="-619.5" font-family="Helvetica,sans-Serif" font-size="10.00">+ get_finest()</text>
<text text-anchor="start" x="83" y="-608.5" font-family="Helvetica,sans-Serif" font-size="10.00">+ get_coarsest()</text>
<text text-anchor="start" x="83" y="-597.5" font-family="Helvetica,sans-Serif" font-size="10.00">+ get_transfer()</text>
<text text-anchor="start" x="83" y="-586.5" font-family="Helvetica,sans-Serif" font-size="10.00">+ get_step()</text>
<text text-anchor="start" x="83" y="-575.5" font-family="Helvetica,sans-Serif" font-size="10.00">+ set_step()</text>
<text text-anchor="start" x="83" y="-564.5" font-family="Helvetica,sans-Serif" font-size="10.00">+ get_step_size()</text>
<text text-anchor="start" x="83" y="-553.5" font-family="Helvetica,sans-Serif" font-size="10.00">+ get_dt()</text>
<text text-anchor="start" x="83" y="-542.5" font-family="Helvetica,sans-Serif" font-size="10.00">+ get_time()</text>
<text text-anchor="start" x="83" y="-531.5" font-family="Helvetica,sans-Serif" font-size="10.00">+ get_t()</text>
<text text-anchor="start" x="83" y="-520.5" font-family="Helvetica,sans-Serif" font-size="10.00">+ advance_time()</text>
<text text-anchor="start" x="83" y="-509.5" font-family="Helvetica,sans-Serif" font-size="10.00">+ get_end_time()</text>
<text text-anchor="start" x="83" y="-498.5" font-family="Helvetica,sans-Serif" font-size="10.00">+ get_iteration()</text>
<text text-anchor="start" x="83" y="-487.5" font-family="Helvetica,sans-Serif" font-size="10.00">+ set_iteration()</text>
<text text-anchor="start" x="83" y="-476.5" font-family="Helvetica,sans-Serif" font-size="10.00">+ advance_iteration()</text>
<text text-anchor="start" x="83" y="-465.5" font-family="Helvetica,sans-Serif" font-size="10.00">+ get_max_iterations()</text>
<text text-anchor="start" x="83" y="-454.5" font-family="Helvetica,sans-Serif" font-size="10.00">+ finest()</text>
<text text-anchor="start" x="83" y="-443.5" font-family="Helvetica,sans-Serif" font-size="10.00">+ coarsest()</text>
<text text-anchor="start" x="83" y="-432.5" font-family="Helvetica,sans-Serif" font-size="10.00">* step</text>
<text text-anchor="start" x="83" y="-421.5" font-family="Helvetica,sans-Serif" font-size="10.00">* iteration</text>
<text text-anchor="start" x="83" y="-410.5" font-family="Helvetica,sans-Serif" font-size="10.00">* max_iterations</text>
<text text-anchor="start" x="83" y="-399.5" font-family="Helvetica,sans-Serif" font-size="10.00">* t</text>
<text text-anchor="start" x="83" y="-388.5" font-family="Helvetica,sans-Serif" font-size="10.00">* dt</text>
<text text-anchor="start" x="83" y="-377.5" font-family="Helvetica,sans-Serif" font-size="10.00">* tend</text>
<text text-anchor="start" x="83" y="-366.5" font-family="Helvetica,sans-Serif" font-size="10.00">* Controller()</text>
<text text-anchor="start" x="83" y="-355.5" font-family="Helvetica,sans-Serif" font-size="10.00">* ~Controller()</text>
<text text-anchor="start" x="83" y="-344.5" font-family="Helvetica,sans-Serif" font-size="10.00">* set_options()</text>
<text text-anchor="start" x="83" y="-333.5" font-family="Helvetica,sans-Serif" font-size="10.00">* setup()</text>
<text text-anchor="start" x="83" y="-322.5" font-family="Helvetica,sans-Serif" font-size="10.00">* set_duration()</text>
<text text-anchor="start" x="83" y="-311.5" font-family="Helvetica,sans-Serif" font-size="10.00">* add_level()</text>
<text text-anchor="start" x="83" y="-300.5" font-family="Helvetica,sans-Serif" font-size="10.00">* nlevels()</text>
<text text-anchor="start" x="83" y="-289.5" font-family="Helvetica,sans-Serif" font-size="10.00">* get_level()</text>
<text text-anchor="start" x="83" y="-278.5" font-family="Helvetica,sans-Serif" font-size="10.00">* get_finest()</text>
<text text-anchor="start" x="83" y="-267.5" font-family="Helvetica,sans-Serif" font-size="10.00">* get_coarsest()</text>
<text text-anchor="start" x="83" y="-256.5" font-family="Helvetica,sans-Serif" font-size="10.00">* get_transfer()</text>
<text text-anchor="start" x="83" y="-245.5" font-family="Helvetica,sans-Serif" font-size="10.00">* get_step()</text>
<text text-anchor="start" x="83" y="-234.5" font-family="Helvetica,sans-Serif" font-size="10.00">* set_step()</text>
<text text-anchor="start" x="83" y="-223.5" font-family="Helvetica,sans-Serif" font-size="10.00">* get_step_size()</text>
<text text-anchor="start" x="83" y="-212.5" font-family="Helvetica,sans-Serif" font-size="10.00">* get_dt()</text>
<text text-anchor="start" x="83" y="-201.5" font-family="Helvetica,sans-Serif" font-size="10.00">* get_time()</text>
<text text-anchor="start" x="83" y="-190.5" font-family="Helvetica,sans-Serif" font-size="10.00">* get_t()</text>
<text text-anchor="start" x="83" y="-179.5" font-family="Helvetica,sans-Serif" font-size="10.00">* advance_time()</text>
<text text-anchor="start" x="83" y="-168.5" font-family="Helvetica,sans-Serif" font-size="10.00">* get_end_time()</text>
<text text-anchor="start" x="83" y="-157.5" font-family="Helvetica,sans-Serif" font-size="10.00">* get_iteration()</text>
<text text-anchor="start" x="83" y="-146.5" font-family="Helvetica,sans-Serif" font-size="10.00">* set_iteration()</text>
<text text-anchor="start" x="83" y="-135.5" font-family="Helvetica,sans-Serif" font-size="10.00">* advance_iteration()</text>
<text text-anchor="start" x="83" y="-124.5" font-family="Helvetica,sans-Serif" font-size="10.00">* get_max_iterations()</text>
<text text-anchor="start" x="83" y="-113.5" font-family="Helvetica,sans-Serif" font-size="10.00">* finest()</text>
<text text-anchor="start" x="83" y="-102.5" font-family="Helvetica,sans-Serif" font-size="10.00">* coarsest()</text>
</a>
</g>
</g>
<!-- Node2&#45;&gt;Node1 -->
<g id="edge1" class="edge"><title>Node2&#45;&gt;Node1</title>
<path fill="none" stroke="midnightblue" d="M133,-84.8585C133,-74.5498 133,-65.374 133,-57.6153"/>
<polygon fill="none" stroke="midnightblue" points="129.5,-85.0799 133,-95.0799 136.5,-85.08 129.5,-85.0799"/>
</g>
<!-- Node3 -->
<g id="node3" class="node"><title>Node3</title>
<polygon fill="white" stroke="#bfbfbf" points="0,-871.5 0,-950.5 116,-950.5 116,-871.5 0,-871.5"/>
<text text-anchor="start" x="8" y="-938.5" font-family="Helvetica,sans-Serif" font-size="10.00">std::deque&lt; shared</text>
<text text-anchor="start" x="8" y="-927.5" font-family="Helvetica,sans-Serif" font-size="10.00">_ptr&lt; pfasst::ISweeper</text>
<text text-anchor="middle" x="58" y="-916.5" font-family="Helvetica,sans-Serif" font-size="10.00">&lt; time &gt; &gt; &gt;</text>
<polyline fill="none" stroke="#bfbfbf" points="0,-909.5 116,-909.5 "/>
<text text-anchor="start" x="8" y="-897.5" font-family="Helvetica,sans-Serif" font-size="10.00">+ elements</text>
<polyline fill="none" stroke="#bfbfbf" points="0,-890.5 116,-890.5 "/>
<text text-anchor="middle" x="58" y="-878.5" font-family="Helvetica,sans-Serif" font-size="10.00"> </text>
</g>
<!-- Node3&#45;&gt;Node2 -->
<g id="edge2" class="edge"><title>Node3&#45;&gt;Node2</title>
<path fill="none" stroke="#404040" d="M64.4594,-871.287C66.8097,-857.201 69.6967,-839.898 72.9425,-820.445"/>
<polygon fill="none" stroke="#404040" points="72.9757,-820.245 70.0177,-813.669 74.9507,-808.409 77.9086,-814.986 72.9757,-820.245"/>
<text text-anchor="middle" x="87" y="-845" font-family="Helvetica,sans-Serif" font-size="10.00"> #levels</text>
</g>
<!-- Node4 -->
<g id="node4" class="node"><title>Node4</title>
<g id="a_node4"><a xlink:title="STL class. ">
<polygon fill="white" stroke="#bfbfbf" points="76.5,-1009.5 76.5,-1066.5 167.5,-1066.5 167.5,-1009.5 76.5,-1009.5"/>
<text text-anchor="middle" x="122" y="-1054.5" font-family="Helvetica,sans-Serif" font-size="10.00">std::deque&lt; T &gt;</text>
<polyline fill="none" stroke="#bfbfbf" points="76.5,-1047.5 167.5,-1047.5 "/>
<text text-anchor="middle" x="122" y="-1035.5" font-family="Helvetica,sans-Serif" font-size="10.00"> </text>
<polyline fill="none" stroke="#bfbfbf" points="76.5,-1028.5 167.5,-1028.5 "/>
<text text-anchor="middle" x="122" y="-1016.5" font-family="Helvetica,sans-Serif" font-size="10.00"> </text>
</a>
</g>
</g>
<!-- Node4&#45;&gt;Node3 -->
<g id="edge3" class="edge"><title>Node4&#45;&gt;Node3</title>
<path fill="none" stroke="orange" d="M70.2923,-1001.78C67.4957,-998.408 65.013,-994.812 63,-991 56.5822,-978.848 54.4153,-964.135 54.1577,-950.717"/>
<polygon fill="orange" stroke="orange" points="67.9122,-1004.36 77.3147,-1009.24 73.0095,-999.561 67.9122,-1004.36"/>
<text text-anchor="start" x="63" y="-983" font-family="Helvetica,sans-Serif" font-size="10.00"> &lt; shared_ptr&lt; pfasst</text>
<text text-anchor="middle" x="115" y="-972" font-family="Helvetica,sans-Serif" font-size="10.00">::ISweeper&lt; time &gt; &gt; &gt;</text>
</g>
<!-- Node6 -->
<g id="node6" class="node"><title>Node6</title>
<polygon fill="white" stroke="#bfbfbf" points="134,-871.5 134,-950.5 248,-950.5 248,-871.5 134,-871.5"/>
<text text-anchor="start" x="142" y="-938.5" font-family="Helvetica,sans-Serif" font-size="10.00">std::deque&lt; shared</text>
<text text-anchor="start" x="142" y="-927.5" font-family="Helvetica,sans-Serif" font-size="10.00">_ptr&lt; pfasst::ITransfer</text>
<text text-anchor="middle" x="191" y="-916.5" font-family="Helvetica,sans-Serif" font-size="10.00">&lt; time &gt; &gt; &gt;</text>
<polyline fill="none" stroke="#bfbfbf" points="134,-909.5 248,-909.5 "/>
<text text-anchor="start" x="142" y="-897.5" font-family="Helvetica,sans-Serif" font-size="10.00">+ elements</text>
<polyline fill="none" stroke="#bfbfbf" points="134,-890.5 248,-890.5 "/>
<text text-anchor="middle" x="191" y="-878.5" font-family="Helvetica,sans-Serif" font-size="10.00"> </text>
</g>
<!-- Node4&#45;&gt;Node6 -->
<g id="edge6" class="edge"><title>Node4&#45;&gt;Node6</title>
<path fill="none" stroke="orange" d="M159.681,-1001.6C162.365,-998.176 164.855,-994.623 167,-991 174.304,-978.666 179.564,-963.914 183.262,-950.514"/>
<polygon fill="orange" stroke="orange" points="156.923,-999.442 153.13,-1009.33 162.264,-1003.97 156.923,-999.442"/>
<text text-anchor="start" x="176" y="-983" font-family="Helvetica,sans-Serif" font-size="10.00"> &lt; shared_ptr&lt; pfasst</text>
<text text-anchor="middle" x="227" y="-972" font-family="Helvetica,sans-Serif" font-size="10.00">::ITransfer&lt; time &gt; &gt; &gt;</text>
</g>
<!-- Node5 -->
<g id="node5" class="node"><title>Node5</title>
<polygon fill="white" stroke="#bfbfbf" points="107.5,-1114.5 107.5,-1171.5 136.5,-1171.5 136.5,-1114.5 107.5,-1114.5"/>
<text text-anchor="middle" x="122" y="-1159.5" font-family="Helvetica,sans-Serif" font-size="10.00">T</text>
<polyline fill="none" stroke="#bfbfbf" points="107.5,-1152.5 136.5,-1152.5 "/>
<text text-anchor="middle" x="122" y="-1140.5" font-family="Helvetica,sans-Serif" font-size="10.00"> </text>
<polyline fill="none" stroke="#bfbfbf" points="107.5,-1133.5 136.5,-1133.5 "/>
<text text-anchor="middle" x="122" y="-1121.5" font-family="Helvetica,sans-Serif" font-size="10.00"> </text>
</g>
<!-- Node5&#45;&gt;Node4 -->
<g id="edge4" class="edge"><title>Node5&#45;&gt;Node4</title>
<path fill="none" stroke="#404040" d="M122,-1114.4C122,-1103.55 122,-1090.87 122,-1079.05"/>
<polygon fill="none" stroke="#404040" points="122,-1078.68 118,-1072.68 122,-1066.68 126,-1072.68 122,-1078.68"/>
<text text-anchor="middle" x="147.5" y="-1088" font-family="Helvetica,sans-Serif" font-size="10.00"> +elements</text>
</g>
<!-- Node6&#45;&gt;Node2 -->
<g id="edge5" class="edge"><title>Node6&#45;&gt;Node2</title>
<path fill="none" stroke="#404040" d="M186.005,-871.287C184.676,-860.993 183.127,-848.981 181.409,-835.667"/>
<polygon fill="none" stroke="#404040" points="181.393,-835.543 176.658,-830.105 179.857,-823.642 184.592,-829.081 181.393,-835.543"/>
<text text-anchor="middle" x="203" y="-845" font-family="Helvetica,sans-Serif" font-size="10.00"> #transfer</text>
</g>
</g>
</svg>
        <g id="navigator" transform="translate(0 0)" fill="#404254">
                <rect fill="#f2f5e9" fill-opacity="0.5" stroke="#606060" stroke-width=".5" x="0" y="0" width="60" height="60"/>
                <use id="zoomplus" xlink:href="#zoomPlus" x="17" y="9" onmousedown="handleZoom(evt,'in')"/>
                <use id="zoomminus" xlink:href="#zoomMin" x="42" y="9" onmousedown="handleZoom(evt,'out')"/>
                <use id="reset" xlink:href="#resetDef" x="30" y="36" onmousedown="handleReset()"/>
                <g id="arrowUp" xlink:href="#dirArrow" transform="translate(30 24)" onmousedown="handlePan(0,-1)">
                  <use xlink:href="#rim" fill="#404040">
                        <set attributeName="fill" to="#808080" begin="arrowUp.mouseover" end="arrowUp.mouseout"/>
                  </use>
                  <path fill="none" stroke="white" stroke-width="1.5" d="M0,-3.0v7 M-2.5,-0.5L0,-3.0L2.5,-0.5"/>
                </g>
                <g id="arrowRight" xlink:href="#dirArrow" transform="rotate(90) translate(36 -43)" onmousedown="handlePan(1,0)">
                  <use xlink:href="#rim" fill="#404040">
                        <set attributeName="fill" to="#808080" begin="arrowRight.mouseover" end="arrowRight.mouseout"/>
                  </use>
                  <path fill="none" stroke="white" stroke-width="1.5" d="M0,-3.0v7 M-2.5,-0.5L0,-3.0L2.5,-0.5"/>
                </g>
                <g id="arrowDown" xlink:href="#dirArrow" transform="rotate(180) translate(-30 -48)" onmousedown="handlePan(0,1)">
                  <use xlink:href="#rim" fill="#404040">
                        <set attributeName="fill" to="#808080" begin="arrowDown.mouseover" end="arrowDown.mouseout"/>
                  </use>
                  <path fill="none" stroke="white" stroke-width="1.5" d="M0,-3.0v7 M-2.5,-0.5L0,-3.0L2.5,-0.5"/>
                </g>
                <g id="arrowLeft" xlink:href="#dirArrow" transform="rotate(270) translate(-36 17)" onmousedown="handlePan(-1,0)">
                  <use xlink:href="#rim" fill="#404040">
                        <set attributeName="fill" to="#808080" begin="arrowLeft.mouseover" end="arrowLeft.mouseout"/>
                  </use>
                  <path fill="none" stroke="white" stroke-width="1.5" d="M0,-3.0v7 M-2.5,-0.5L0,-3.0L2.5,-0.5"/>
                </g>
        </g>
        <svg viewBox="0 0 15 15" width="100%" height="30px" preserveAspectRatio="xMaxYMin meet">
         <g id="arrow_out" transform="scale(0.3 0.3)">
          <a xlink:href="classpfasst_1_1SDC__coll__graph_org.svg" target="_base">
           <rect id="button" ry="5" rx="5" y="6" x="6" height="38" width="38"
                fill="#f2f5e9" fill-opacity="0.5" stroke="#606060" stroke-width="1.0"/>
           <path id="arrow"
             d="M 11.500037,31.436501 C 11.940474,20.09759 22.043105,11.32322 32.158766,21.979434 L 37.068811,17.246167 C 37.068811,17.246167 37.088388,32 37.088388,32 L 22.160133,31.978069 C 22.160133,31.978069 26.997745,27.140456 26.997745,27.140456 C 18.528582,18.264221 13.291696,25.230495 11.500037,31.436501 z"
             style="fill:#404040;"/>
          </a>
         </g>
        </svg>
</svg>
