<?xml version="1.0" encoding="UTF-8" standalone="no"?>
<!DOCTYPE svg PUBLIC "-//W3C//DTD SVG 1.1//EN"
 "http://www.w3.org/Graphics/SVG/1.1/DTD/svg11.dtd">
<!-- Generated by graphviz version 2.38.0 (20140413.2041)
 -->
<!-- Title: src/pfasst/controller/interface_impl.hpp Pages: 1 -->
<svg width="901pt" height="431pt"
 viewBox="0.00 0.00 900.50 431.00" xmlns="http://www.w3.org/2000/svg" xmlns:xlink="http://www.w3.org/1999/xlink">
<g id="graph0" class="graph" transform="scale(1 1) rotate(0) translate(4 427)">
<title>src/pfasst/controller/interface_impl.hpp</title>
<polygon fill="white" stroke="none" points="-4,4 -4,-427 896.5,-427 896.5,4 -4,4"/>
<!-- Node1 -->
<g id="node1" class="node"><title>Node1</title>
<polygon fill="#bfbfbf" stroke="black" points="169,-392.5 169,-422.5 273,-422.5 273,-392.5 169,-392.5"/>
<text text-anchor="start" x="177" y="-410.5" font-family="Helvetica,sans-Serif" font-size="10.00">src/pfasst/controller</text>
<text text-anchor="middle" x="221" y="-399.5" font-family="Helvetica,sans-Serif" font-size="10.00">/interface_impl.hpp</text>
</g>
<!-- Node2 -->
<g id="node2" class="node"><title>Node2</title>
<g id="a_node2"><a xlink:href="../../d7/d5c/controller_2interface_8hpp.html" target="_top" xlink:title="pfasst/controller/interface.hpp">
<polygon fill="white" stroke="black" points="148,-336.5 148,-355.5 294,-355.5 294,-336.5 148,-336.5"/>
<text text-anchor="middle" x="221" y="-343.5" font-family="Helvetica,sans-Serif" font-size="10.00">pfasst/controller/interface.hpp</text>
</a>
</g>
</g>
<!-- Node1&#45;&gt;Node2 -->
<g id="edge1" class="edge"><title>Node1&#45;&gt;Node2</title>
<path fill="none" stroke="midnightblue" d="M215.16,-392.399C214.13,-384.377 213.974,-374.233 214.693,-365.569"/>
<polygon fill="midnightblue" stroke="midnightblue" points="218.16,-366.044 216.071,-355.658 211.227,-365.081 218.16,-366.044"/>
</g>
<!-- Node16 -->
<g id="node16" class="node"><title>Node16</title>
<g id="a_node16"><a xlink:href="../../d8/dfd/config_8hpp.html" target="_top" xlink:title="pfasst/config.hpp">
<polygon fill="white" stroke="black" points="580.5,-112.5 580.5,-131.5 671.5,-131.5 671.5,-112.5 580.5,-112.5"/>
<text text-anchor="middle" x="626" y="-119.5" font-family="Helvetica,sans-Serif" font-size="10.00">pfasst/config.hpp</text>
</a>
</g>
</g>
<!-- Node1&#45;&gt;Node16 -->
<g id="edge34" class="edge"><title>Node1&#45;&gt;Node16</title>
<path fill="none" stroke="midnightblue" d="M273.126,-398.735C363.802,-383.746 541,-347.258 541,-291 541,-291 541,-291 541,-233 541,-191.765 578.861,-156.574 604.047,-137.726"/>
<polygon fill="midnightblue" stroke="midnightblue" points="606.269,-140.439 612.343,-131.758 602.182,-134.756 606.269,-140.439"/>
</g>
<!-- Node2&#45;&gt;Node1 -->
<g id="edge33" class="edge"><title>Node2&#45;&gt;Node1</title>
<path fill="none" stroke="midnightblue" d="M225.929,-355.658C227.435,-362.655 228.007,-372.857 227.645,-382.289"/>
<polygon fill="midnightblue" stroke="midnightblue" points="224.145,-382.153 226.84,-392.399 231.123,-382.709 224.145,-382.153"/>
</g>
<!-- Node3 -->
<g id="node3" class="node"><title>Node3</title>
<polygon fill="white" stroke="#bfbfbf" points="0,-168.5 0,-187.5 50,-187.5 50,-168.5 0,-168.5"/>
<text text-anchor="middle" x="25" y="-175.5" font-family="Helvetica,sans-Serif" font-size="10.00">cassert</text>
</g>
<!-- Node2&#45;&gt;Node3 -->
<g id="edge2" class="edge"><title>Node2&#45;&gt;Node3</title>
<path fill="none" stroke="midnightblue" d="M154.057,-336.442C127.453,-330.118 98.2001,-319.122 77,-300 46.5446,-272.53 33.2386,-224.15 28.0017,-197.649"/>
<polygon fill="midnightblue" stroke="midnightblue" points="31.4376,-196.979 26.2249,-187.756 24.5478,-198.217 31.4376,-196.979"/>
</g>
<!-- Node4 -->
<g id="node4" class="node"><title>Node4</title>
<polygon fill="white" stroke="#bfbfbf" points="86,-280.5 86,-299.5 132,-299.5 132,-280.5 86,-280.5"/>
<text text-anchor="middle" x="109" y="-287.5" font-family="Helvetica,sans-Serif" font-size="10.00">deque</text>
</g>
<!-- Node2&#45;&gt;Node4 -->
<g id="edge3" class="edge"><title>Node2&#45;&gt;Node4</title>
<path fill="none" stroke="midnightblue" d="M203.005,-336.324C184.962,-327.625 156.953,-314.12 136.197,-304.113"/>
<polygon fill="midnightblue" stroke="midnightblue" points="137.478,-300.845 126.95,-299.655 134.438,-307.15 137.478,-300.845"/>
</g>
<!-- Node5 -->
<g id="node5" class="node"><title>Node5</title>
<polygon fill="white" stroke="#bfbfbf" points="150.5,-280.5 150.5,-299.5 197.5,-299.5 197.5,-280.5 150.5,-280.5"/>
<text text-anchor="middle" x="174" y="-287.5" font-family="Helvetica,sans-Serif" font-size="10.00">iterator</text>
</g>
<!-- Node2&#45;&gt;Node5 -->
<g id="edge4" class="edge"><title>Node2&#45;&gt;Node5</title>
<path fill="none" stroke="midnightblue" d="M213.239,-336.083C206.463,-328.298 196.457,-316.801 188.245,-307.367"/>
<polygon fill="midnightblue" stroke="midnightblue" points="190.822,-304.996 181.617,-299.751 185.542,-309.592 190.822,-304.996"/>
</g>
<!-- Node6 -->
<g id="node6" class="node"><title>Node6</title>
<polygon fill="white" stroke="#bfbfbf" points="375.5,-168.5 375.5,-187.5 428.5,-187.5 428.5,-168.5 375.5,-168.5"/>
<text text-anchor="middle" x="402" y="-175.5" font-family="Helvetica,sans-Serif" font-size="10.00">memory</text>
</g>
<!-- Node2&#45;&gt;Node6 -->
<g id="edge5" class="edge"><title>Node2&#45;&gt;Node6</title>
<path fill="none" stroke="midnightblue" d="M251.186,-336.493C274.306,-329.1 306.318,-316.908 331,-300 359.271,-280.633 367.151,-273.84 384,-244 392.186,-229.502 396.832,-211.057 399.344,-197.522"/>
<polygon fill="midnightblue" stroke="midnightblue" points="402.823,-197.936 400.984,-187.502 395.915,-196.805 402.823,-197.936"/>
</g>
<!-- Node7 -->
<g id="node7" class="node"><title>Node7</title>
<g id="a_node7"><a xlink:href="../../d1/d1b/interfaces_8hpp.html" target="_top" xlink:title="interfaces for SDC/MLSDC/PFASST algorithms. ">
<polygon fill="white" stroke="black" points="215.5,-280.5 215.5,-299.5 322.5,-299.5 322.5,-280.5 215.5,-280.5"/>
<text text-anchor="middle" x="269" y="-287.5" font-family="Helvetica,sans-Serif" font-size="10.00">pfasst/interfaces.hpp</text>
</a>
</g>
</g>
<!-- Node2&#45;&gt;Node7 -->
<g id="edge6" class="edge"><title>Node2&#45;&gt;Node7</title>
<path fill="none" stroke="midnightblue" d="M228.926,-336.083C235.846,-328.298 246.065,-316.801 254.452,-307.367"/>
<polygon fill="midnightblue" stroke="midnightblue" points="257.194,-309.55 261.221,-299.751 251.962,-304.9 257.194,-309.55"/>
</g>
<!-- Node7&#45;&gt;Node6 -->
<g id="edge7" class="edge"><title>Node7&#45;&gt;Node6</title>
<path fill="none" stroke="midnightblue" d="M271.969,-280.315C277.014,-266.699 288.45,-240.213 306,-224 323.002,-208.293 346.466,-197.158 365.94,-189.895"/>
<polygon fill="midnightblue" stroke="midnightblue" points="367.159,-193.176 375.418,-186.541 364.824,-186.577 367.159,-193.176"/>
</g>
<!-- Node8 -->
<g id="node8" class="node"><title>Node8</title>
<polygon fill="white" stroke="#bfbfbf" points="315,-224.5 315,-243.5 375,-243.5 375,-224.5 315,-224.5"/>
<text text-anchor="middle" x="345" y="-231.5" font-family="Helvetica,sans-Serif" font-size="10.00">stdexcept</text>
</g>
<!-- Node7&#45;&gt;Node8 -->
<g id="edge8" class="edge"><title>Node7&#45;&gt;Node8</title>
<path fill="none" stroke="midnightblue" d="M281.211,-280.324C292.776,-272.107 310.375,-259.602 324.161,-249.807"/>
<polygon fill="midnightblue" stroke="midnightblue" points="326.443,-252.479 332.567,-243.834 322.388,-246.773 326.443,-252.479"/>
</g>
<!-- Node9 -->
<g id="node9" class="node"><title>Node9</title>
<polygon fill="white" stroke="#bfbfbf" points="114.5,-56.5 114.5,-75.5 155.5,-75.5 155.5,-56.5 114.5,-56.5"/>
<text text-anchor="middle" x="135" y="-63.5" font-family="Helvetica,sans-Serif" font-size="10.00">string</text>
</g>
<!-- Node7&#45;&gt;Node9 -->
<g id="edge9" class="edge"><title>Node7&#45;&gt;Node9</title>
<path fill="none" stroke="midnightblue" d="M217.904,-280.473C179.005,-272.818 130.139,-260.284 118,-244 82.3854,-196.224 110.145,-119.862 125.956,-85.1868"/>
<polygon fill="midnightblue" stroke="midnightblue" points="129.266,-86.3761 130.396,-75.8417 122.943,-83.3721 129.266,-86.3761"/>
</g>
<!-- Node10 -->
<g id="node10" class="node"><title>Node10</title>
<g id="a_node10"><a xlink:href="../../d8/dc4/interfaces__impl_8hpp.html" target="_top" xlink:title="pfasst/interfaces_impl.hpp">
<polygon fill="white" stroke="black" points="127.5,-224.5 127.5,-243.5 258.5,-243.5 258.5,-224.5 127.5,-224.5"/>
<text text-anchor="middle" x="193" y="-231.5" font-family="Helvetica,sans-Serif" font-size="10.00">pfasst/interfaces_impl.hpp</text>
</a>
</g>
</g>
<!-- Node7&#45;&gt;Node10 -->
<g id="edge10" class="edge"><title>Node7&#45;&gt;Node10</title>
<path fill="none" stroke="midnightblue" d="M251.674,-280.324C238.457,-272.185 220.744,-259.839 208.106,-250.087"/>
<polygon fill="midnightblue" stroke="midnightblue" points="210.28,-247.345 200.284,-243.834 205.909,-252.812 210.28,-247.345"/>
</g>
<!-- Node10&#45;&gt;Node3 -->
<g id="edge12" class="edge"><title>Node10&#45;&gt;Node3</title>
<path fill="none" stroke="midnightblue" d="M166.38,-224.444C137.577,-215.185 91.5325,-200.385 59.8613,-190.205"/>
<polygon fill="midnightblue" stroke="midnightblue" points="60.715,-186.804 50.1236,-187.075 58.5729,-193.468 60.715,-186.804"/>
</g>
<!-- Node10&#45;&gt;Node6 -->
<g id="edge13" class="edge"><title>Node10&#45;&gt;Node6</title>
<path fill="none" stroke="midnightblue" d="M226.117,-224.444C264.129,-214.622 326.281,-198.564 365.616,-188.401"/>
<polygon fill="midnightblue" stroke="midnightblue" points="366.532,-191.779 375.338,-185.889 364.781,-185.002 366.532,-191.779"/>
</g>
<!-- Node10&#45;&gt;Node7 -->
<g id="edge11" class="edge"><title>Node10&#45;&gt;Node7</title>
<path fill="none" stroke="midnightblue" d="M210.291,-243.655C223.579,-251.835 241.424,-264.277 254.086,-274.061"/>
<polygon fill="midnightblue" stroke="midnightblue" points="251.911,-276.803 261.904,-280.324 256.288,-271.34 251.911,-276.803"/>
</g>
<!-- Node10&#45;&gt;Node9 -->
<g id="edge14" class="edge"><title>Node10&#45;&gt;Node9</title>
<path fill="none" stroke="midnightblue" d="M174.611,-224.471C160.899,-216.997 143.185,-204.71 135,-188 118.813,-154.953 124.778,-110.477 130.159,-85.6868"/>
<polygon fill="midnightblue" stroke="midnightblue" points="133.603,-86.3316 132.508,-75.7934 126.793,-84.7142 133.603,-86.3316"/>
</g>
<!-- Node11 -->
<g id="node11" class="node"><title>Node11</title>
<g id="a_node11"><a xlink:href="../../d5/d82/globals_8hpp.html" target="_top" xlink:title="pfasst/globals.hpp">
<polygon fill="white" stroke="black" points="144.5,-168.5 144.5,-187.5 241.5,-187.5 241.5,-168.5 144.5,-168.5"/>
<text text-anchor="middle" x="193" y="-175.5" font-family="Helvetica,sans-Serif" font-size="10.00">pfasst/globals.hpp</text>
</a>
</g>
</g>
<!-- Node10&#45;&gt;Node11 -->
<g id="edge15" class="edge"><title>Node10&#45;&gt;Node11</title>
<path fill="none" stroke="midnightblue" d="M193,-224.083C193,-217.006 193,-206.861 193,-197.986"/>
<polygon fill="midnightblue" stroke="midnightblue" points="196.5,-197.751 193,-187.751 189.5,-197.751 196.5,-197.751"/>
</g>
<!-- Node12 -->
<g id="node12" class="node"><title>Node12</title>
<g id="a_node12"><a xlink:href="../../d0/da9/logging_8hpp.html" target="_top" xlink:title="pfasst/logging.hpp">
<polygon fill="white" stroke="black" points="260,-168.5 260,-187.5 358,-187.5 358,-168.5 260,-168.5"/>
<text text-anchor="middle" x="309" y="-175.5" font-family="Helvetica,sans-Serif" font-size="10.00">pfasst/logging.hpp</text>
</a>
</g>
</g>
<!-- Node10&#45;&gt;Node12 -->
<g id="edge16" class="edge"><title>Node10&#45;&gt;Node12</title>
<path fill="none" stroke="midnightblue" d="M211.381,-224.444C230.216,-215.675 259.731,-201.935 281.379,-191.858"/>
<polygon fill="midnightblue" stroke="midnightblue" points="283.117,-194.91 290.705,-187.516 280.162,-188.564 283.117,-194.91"/>
</g>
<!-- Node12&#45;&gt;Node9 -->
<g id="edge19" class="edge"><title>Node12&#45;&gt;Node9</title>
<path fill="none" stroke="midnightblue" d="M259.881,-169.598C232.006,-163.371 197.837,-152.111 173,-132 157.959,-119.82 147.605,-99.9862 141.548,-85.426"/>
<polygon fill="midnightblue" stroke="midnightblue" points="144.754,-84.0125 137.891,-75.9408 138.223,-86.5305 144.754,-84.0125"/>
</g>
<!-- Node13 -->
<g id="node13" class="node"><title>Node13</title>
<polygon fill="white" stroke="#bfbfbf" points="322,-112.5 322,-131.5 374,-131.5 374,-112.5 322,-112.5"/>
<text text-anchor="middle" x="348" y="-119.5" font-family="Helvetica,sans-Serif" font-size="10.00">iomanip</text>
</g>
<!-- Node12&#45;&gt;Node13 -->
<g id="edge17" class="edge"><title>Node12&#45;&gt;Node13</title>
<path fill="none" stroke="midnightblue" d="M315.44,-168.083C320.949,-160.455 329.031,-149.264 335.765,-139.941"/>
<polygon fill="midnightblue" stroke="midnightblue" points="338.662,-141.907 341.68,-131.751 332.987,-137.809 338.662,-141.907"/>
</g>
<!-- Node14 -->
<g id="node14" class="node"><title>Node14</title>
<polygon fill="white" stroke="#bfbfbf" points="457,-56.5 457,-75.5 513,-75.5 513,-56.5 457,-56.5"/>
<text text-anchor="middle" x="485" y="-63.5" font-family="Helvetica,sans-Serif" font-size="10.00">iostream</text>
</g>
<!-- Node12&#45;&gt;Node14 -->
<g id="edge18" class="edge"><title>Node12&#45;&gt;Node14</title>
<path fill="none" stroke="midnightblue" d="M358.021,-168.721C421.981,-157.686 526.466,-138.763 532,-132 545.643,-115.329 525.638,-95.0726 507.667,-81.6503"/>
<polygon fill="midnightblue" stroke="midnightblue" points="509.355,-78.5576 499.165,-75.6558 505.321,-84.2786 509.355,-78.5576"/>
</g>
<!-- Node15 -->
<g id="node15" class="node"><title>Node15</title>
<polygon fill="white" stroke="#bfbfbf" points="392.5,-112.5 392.5,-131.5 523.5,-131.5 523.5,-112.5 392.5,-112.5"/>
<text text-anchor="middle" x="458" y="-119.5" font-family="Helvetica,sans-Serif" font-size="10.00">boost/algorithm/string.hpp</text>
</g>
<!-- Node12&#45;&gt;Node15 -->
<g id="edge20" class="edge"><title>Node12&#45;&gt;Node15</title>
<path fill="none" stroke="midnightblue" d="M332.609,-168.444C357.458,-159.438 396.774,-145.189 424.754,-135.049"/>
<polygon fill="midnightblue" stroke="midnightblue" points="426.292,-138.214 434.501,-131.516 423.907,-131.633 426.292,-138.214"/>
</g>
<!-- Node12&#45;&gt;Node16 -->
<g id="edge21" class="edge"><title>Node12&#45;&gt;Node16</title>
<path fill="none" stroke="midnightblue" d="M358.183,-168.622C415.557,-158.848 510.19,-142.728 570.244,-132.498"/>
<polygon fill="midnightblue" stroke="midnightblue" points="571.035,-135.914 580.305,-130.784 569.86,-129.013 571.035,-135.914"/>
</g>
<!-- Node23 -->
<g id="node23" class="node"><title>Node23</title>
<polygon fill="white" stroke="#bfbfbf" points="182,-112.5 182,-131.5 304,-131.5 304,-112.5 182,-112.5"/>
<text text-anchor="middle" x="243" y="-119.5" font-family="Helvetica,sans-Serif" font-size="10.00">pfasst/easylogging++.h</text>
</g>
<!-- Node12&#45;&gt;Node23 -->
<g id="edge32" class="edge"><title>Node12&#45;&gt;Node23</title>
<path fill="none" stroke="midnightblue" d="M298.396,-168.324C288.544,-160.263 273.649,-148.077 261.785,-138.369"/>
<polygon fill="midnightblue" stroke="midnightblue" points="263.753,-135.457 253.797,-131.834 259.32,-140.875 263.753,-135.457"/>
</g>
<!-- Node16&#45;&gt;Node9 -->
<g id="edge24" class="edge"><title>Node16&#45;&gt;Node9</title>
<path fill="none" stroke="midnightblue" d="M580.249,-115.968C481.266,-105.082 249.427,-79.5846 165.78,-70.3852"/>
<polygon fill="midnightblue" stroke="midnightblue" points="165.981,-66.8863 155.658,-69.272 165.216,-73.8443 165.981,-66.8863"/>
</g>
<!-- Node16&#45;&gt;Node14 -->
<g id="edge23" class="edge"><title>Node16&#45;&gt;Node14</title>
<path fill="none" stroke="midnightblue" d="M603.658,-112.444C580.247,-103.478 543.264,-89.314 516.81,-79.1827"/>
<polygon fill="midnightblue" stroke="midnightblue" points="517.828,-75.8245 507.237,-75.5164 515.324,-82.3615 517.828,-75.8245"/>
</g>
<!-- Node17 -->
<g id="node17" class="node"><title>Node17</title>
<polygon fill="white" stroke="#bfbfbf" points="520,-0.5 520,-19.5 570,-19.5 570,-0.5 520,-0.5"/>
<text text-anchor="middle" x="545" y="-7.5" font-family="Helvetica,sans-Serif" font-size="10.00">fstream</text>
</g>
<!-- Node16&#45;&gt;Node17 -->
<g id="edge22" class="edge"><title>Node16&#45;&gt;Node17</title>
<path fill="none" stroke="midnightblue" d="M606.244,-112.474C591.286,-105.002 571.426,-92.7158 560,-76 550.708,-62.4052 547.11,-43.8601 545.748,-30.0576"/>
<polygon fill="midnightblue" stroke="midnightblue" points="549.221,-29.5327 545.054,-19.7917 542.237,-30.0051 549.221,-29.5327"/>
</g>
<!-- Node18 -->
<g id="node18" class="node"><title>Node18</title>
<polygon fill="white" stroke="#bfbfbf" points="701,-56.5 701,-75.5 737,-75.5 737,-56.5 701,-56.5"/>
<text text-anchor="middle" x="719" y="-63.5" font-family="Helvetica,sans-Serif" font-size="10.00">map</text>
</g>
<!-- Node16&#45;&gt;Node18 -->
<g id="edge25" class="edge"><title>Node16&#45;&gt;Node18</title>
<path fill="none" stroke="midnightblue" d="M640.942,-112.324C655.585,-103.822 678.134,-90.7288 695.238,-80.7975"/>
<polygon fill="midnightblue" stroke="midnightblue" points="697.205,-83.7027 704.095,-75.6545 693.69,-77.6491 697.205,-83.7027"/>
</g>
<!-- Node19 -->
<g id="node19" class="node"><title>Node19</title>
<polygon fill="white" stroke="#bfbfbf" points="755.5,-56.5 755.5,-75.5 892.5,-75.5 892.5,-56.5 755.5,-56.5"/>
<text text-anchor="middle" x="824" y="-63.5" font-family="Helvetica,sans-Serif" font-size="10.00">boost/program_options.hpp</text>
</g>
<!-- Node16&#45;&gt;Node19 -->
<g id="edge26" class="edge"><title>Node16&#45;&gt;Node19</title>
<path fill="none" stroke="midnightblue" d="M657.374,-112.444C691.263,-103.201 745.403,-88.4356 782.724,-78.2572"/>
<polygon fill="midnightblue" stroke="midnightblue" points="784.046,-81.5243 792.773,-75.5164 782.205,-74.771 784.046,-81.5243"/>
</g>
<!-- Node20 -->
<g id="node20" class="node"><title>Node20</title>
<g id="a_node20"><a xlink:href="../../d5/d84/config__impl_8hpp.html" target="_top" xlink:title="pfasst/config_impl.hpp">
<polygon fill="white" stroke="black" points="569,-56.5 569,-75.5 683,-75.5 683,-56.5 569,-56.5"/>
<text text-anchor="middle" x="626" y="-63.5" font-family="Helvetica,sans-Serif" font-size="10.00">pfasst/config_impl.hpp</text>
</a>
</g>
</g>
<!-- Node16&#45;&gt;Node20 -->
<g id="edge27" class="edge"><title>Node16&#45;&gt;Node20</title>
<path fill="none" stroke="midnightblue" d="M620.834,-112.083C619.324,-104.927 618.894,-94.6353 619.542,-85.6911"/>
<polygon fill="midnightblue" stroke="midnightblue" points="623.015,-86.1262 620.869,-75.7511 616.077,-85.2002 623.015,-86.1262"/>
</g>
<!-- Node20&#45;&gt;Node16 -->
<g id="edge28" class="edge"><title>Node20&#45;&gt;Node16</title>
<path fill="none" stroke="midnightblue" d="M631.131,-75.7511C632.657,-82.8579 633.104,-93.1357 632.472,-102.101"/>
<polygon fill="midnightblue" stroke="midnightblue" points="628.993,-101.713 631.166,-112.083 635.934,-102.622 628.993,-101.713"/>
</g>
<!-- Node20&#45;&gt;Node17 -->
<g id="edge29" class="edge"><title>Node20&#45;&gt;Node17</title>
<path fill="none" stroke="midnightblue" d="M612.986,-56.324C600.468,-47.979 581.318,-35.2122 566.529,-25.3524"/>
<polygon fill="midnightblue" stroke="midnightblue" points="568.244,-22.2894 557.982,-19.6545 564.361,-28.1137 568.244,-22.2894"/>
</g>
<!-- Node21 -->
<g id="node21" class="node"><title>Node21</title>
<polygon fill="white" stroke="#bfbfbf" points="595.5,-0.5 595.5,-19.5 648.5,-19.5 648.5,-0.5 595.5,-0.5"/>
<text text-anchor="middle" x="622" y="-7.5" font-family="Helvetica,sans-Serif" font-size="10.00">sstream</text>
</g>
<!-- Node20&#45;&gt;Node21 -->
<g id="edge30" class="edge"><title>Node20&#45;&gt;Node21</title>
<path fill="none" stroke="midnightblue" d="M625.339,-56.083C624.815,-49.0059 624.064,-38.8611 623.406,-29.9865"/>
<polygon fill="midnightblue" stroke="midnightblue" points="626.877,-29.4652 622.648,-19.7511 619.897,-29.9823 626.877,-29.4652"/>
</g>
<!-- Node22 -->
<g id="node22" class="node"><title>Node22</title>
<polygon fill="white" stroke="#bfbfbf" points="667,-0.5 667,-19.5 705,-19.5 705,-0.5 667,-0.5"/>
<text text-anchor="middle" x="686" y="-7.5" font-family="Helvetica,sans-Serif" font-size="10.00">utility</text>
</g>
<!-- Node20&#45;&gt;Node22 -->
<g id="edge31" class="edge"><title>Node20&#45;&gt;Node22</title>
<path fill="none" stroke="midnightblue" d="M635.64,-56.324C644.51,-48.3414 657.875,-36.3128 668.608,-26.6529"/>
<polygon fill="midnightblue" stroke="midnightblue" points="671.093,-29.1251 676.185,-19.8339 666.41,-23.922 671.093,-29.1251"/>
</g>
</g>
</svg>
