<?xml version="1.0" encoding="UTF-8" standalone="no"?>
<!DOCTYPE svg PUBLIC "-//W3C//DTD SVG 1.1//EN"
 "http://www.w3.org/Graphics/SVG/1.1/DTD/svg11.dtd">
<!-- Generated by graphviz version 2.38.0 (20140413.2041)
 -->
<!-- Title: pfasst::examples::advection_diffusion::FFT Pages: 1 -->
<svg width="222pt" height="491pt"
 viewBox="0.00 0.00 221.50 491.00" xmlns="http://www.w3.org/2000/svg" xmlns:xlink="http://www.w3.org/1999/xlink">
<g id="graph0" class="graph" transform="scale(1 1) rotate(0) translate(4 487)">
<title>pfasst::examples::advection_diffusion::FFT</title>
<polygon fill="white" stroke="none" points="-4,4 -4,-487 217.5,-487 217.5,4 -4,4"/>
<!-- Node1 -->
<g id="node1" class="node"><title>Node1</title>
<polygon fill="#bfbfbf" stroke="black" points="0,-0.5 0,-101.5 143,-101.5 143,-0.5 0,-0.5"/>
<text text-anchor="start" x="8" y="-89.5" font-family="Helvetica,sans-Serif" font-size="10.00">pfasst::examples::advection</text>
<text text-anchor="middle" x="71.5" y="-78.5" font-family="Helvetica,sans-Serif" font-size="10.00">_diffusion::FFT</text>
<polyline fill="none" stroke="black" points="0,-71.5 143,-71.5 "/>
<text text-anchor="middle" x="71.5" y="-59.5" font-family="Helvetica,sans-Serif" font-size="10.00"> </text>
<polyline fill="none" stroke="black" points="0,-52.5 143,-52.5 "/>
<text text-anchor="start" x="8" y="-40.5" font-family="Helvetica,sans-Serif" font-size="10.00">+ ~FFT()</text>
<text text-anchor="start" x="8" y="-29.5" font-family="Helvetica,sans-Serif" font-size="10.00">+ get_workspace()</text>
<text text-anchor="start" x="8" y="-18.5" font-family="Helvetica,sans-Serif" font-size="10.00">+ forward()</text>
<text text-anchor="start" x="8" y="-7.5" font-family="Helvetica,sans-Serif" font-size="10.00">+ backward()</text>
</g>
<!-- Node2 -->
<g id="node2" class="node"><title>Node2</title>
<polygon fill="white" stroke="#bfbfbf" points="4.5,-149.5 4.5,-250.5 138.5,-250.5 138.5,-149.5 4.5,-149.5"/>
<text text-anchor="start" x="12.5" y="-238.5" font-family="Helvetica,sans-Serif" font-size="10.00">std::map&lt; size_t, shared</text>
<text text-anchor="start" x="12.5" y="-227.5" font-family="Helvetica,sans-Serif" font-size="10.00">_ptr&lt; pfasst::examples</text>
<text text-anchor="start" x="12.5" y="-216.5" font-family="Helvetica,sans-Serif" font-size="10.00">::advection_diffusion::FFT</text>
<text text-anchor="middle" x="71.5" y="-205.5" font-family="Helvetica,sans-Serif" font-size="10.00">::workspace &gt; &gt;</text>
<polyline fill="none" stroke="#bfbfbf" points="4.5,-198.5 138.5,-198.5 "/>
<text text-anchor="start" x="12.5" y="-186.5" font-family="Helvetica,sans-Serif" font-size="10.00">+ keys</text>
<text text-anchor="start" x="12.5" y="-175.5" font-family="Helvetica,sans-Serif" font-size="10.00">+ elements</text>
<polyline fill="none" stroke="#bfbfbf" points="4.5,-168.5 138.5,-168.5 "/>
<text text-anchor="middle" x="71.5" y="-156.5" font-family="Helvetica,sans-Serif" font-size="10.00"> </text>
</g>
<!-- Node2&#45;&gt;Node1 -->
<g id="edge1" class="edge"><title>Node2&#45;&gt;Node1</title>
<path fill="none" stroke="#404040" d="M71.5,-149.233C71.5,-137.858 71.5,-125.634 71.5,-113.822"/>
<polygon fill="none" stroke="#404040" points="71.5001,-113.716 67.5,-107.716 71.5,-101.716 75.5,-107.716 71.5001,-113.716"/>
<text text-anchor="middle" x="102" y="-123" font-family="Helvetica,sans-Serif" font-size="10.00"> &#45;workspaces</text>
</g>
<!-- Node3 -->
<g id="node3" class="node"><title>Node3</title>
<g id="a_node3"><a xlink:title="STL class. ">
<polygon fill="white" stroke="#bfbfbf" points="24.5,-320.5 24.5,-377.5 118.5,-377.5 118.5,-320.5 24.5,-320.5"/>
<text text-anchor="middle" x="71.5" y="-365.5" font-family="Helvetica,sans-Serif" font-size="10.00">std::map&lt; K, T &gt;</text>
<polyline fill="none" stroke="#bfbfbf" points="24.5,-358.5 118.5,-358.5 "/>
<text text-anchor="middle" x="71.5" y="-346.5" font-family="Helvetica,sans-Serif" font-size="10.00"> </text>
<polyline fill="none" stroke="#bfbfbf" points="24.5,-339.5 118.5,-339.5 "/>
<text text-anchor="middle" x="71.5" y="-327.5" font-family="Helvetica,sans-Serif" font-size="10.00"> </text>
</a>
</g>
</g>
<!-- Node3&#45;&gt;Node2 -->
<g id="edge2" class="edge"><title>Node3&#45;&gt;Node2</title>
<path fill="none" stroke="orange" d="M71.5,-310.151C71.5,-291.996 71.5,-270.011 71.5,-250.543"/>
<polygon fill="orange" stroke="orange" points="68.0001,-310.35 71.5,-320.35 75.0001,-310.35 68.0001,-310.35"/>
<text text-anchor="start" x="71.5" y="-294" font-family="Helvetica,sans-Serif" font-size="10.00"> &lt; size_t, shared_ptr</text>
<text text-anchor="start" x="71.5" y="-283" font-family="Helvetica,sans-Serif" font-size="10.00">&lt; pfasst::examples::advection</text>
<text text-anchor="middle" x="142.5" y="-272" font-family="Helvetica,sans-Serif" font-size="10.00">_diffusion::FFT::workspace &gt; &gt;</text>
</g>
<!-- Node4 -->
<g id="node4" class="node"><title>Node4</title>
<polygon fill="white" stroke="#bfbfbf" points="30,-425.5 30,-482.5 59,-482.5 59,-425.5 30,-425.5"/>
<text text-anchor="middle" x="44.5" y="-470.5" font-family="Helvetica,sans-Serif" font-size="10.00">K</text>
<polyline fill="none" stroke="#bfbfbf" points="30,-463.5 59,-463.5 "/>
<text text-anchor="middle" x="44.5" y="-451.5" font-family="Helvetica,sans-Serif" font-size="10.00"> </text>
<polyline fill="none" stroke="#bfbfbf" points="30,-444.5 59,-444.5 "/>
<text text-anchor="middle" x="44.5" y="-432.5" font-family="Helvetica,sans-Serif" font-size="10.00"> </text>
</g>
<!-- Node4&#45;&gt;Node3 -->
<g id="edge3" class="edge"><title>Node4&#45;&gt;Node3</title>
<path fill="none" stroke="#404040" d="M42.2589,-425.358C42.2062,-415.905 42.9503,-405.358 45.5,-396 46.1594,-393.58 46.9745,-391.152 47.9046,-388.745"/>
<polygon fill="none" stroke="#404040" points="47.9435,-388.66 46.8063,-381.54 52.9421,-377.751 54.0793,-384.872 47.9435,-388.66"/>
<text text-anchor="middle" x="61" y="-399" font-family="Helvetica,sans-Serif" font-size="10.00"> +keys</text>
</g>
<!-- Node5 -->
<g id="node5" class="node"><title>Node5</title>
<polygon fill="white" stroke="#bfbfbf" points="84,-425.5 84,-482.5 113,-482.5 113,-425.5 84,-425.5"/>
<text text-anchor="middle" x="98.5" y="-470.5" font-family="Helvetica,sans-Serif" font-size="10.00">T</text>
<polyline fill="none" stroke="#bfbfbf" points="84,-463.5 113,-463.5 "/>
<text text-anchor="middle" x="98.5" y="-451.5" font-family="Helvetica,sans-Serif" font-size="10.00"> </text>
<polyline fill="none" stroke="#bfbfbf" points="84,-444.5 113,-444.5 "/>
<text text-anchor="middle" x="98.5" y="-432.5" font-family="Helvetica,sans-Serif" font-size="10.00"> </text>
</g>
<!-- Node5&#45;&gt;Node3 -->
<g id="edge4" class="edge"><title>Node5&#45;&gt;Node3</title>
<path fill="none" stroke="#404040" d="M91.2645,-425.398C88.3591,-414.314 84.9562,-401.333 81.8008,-389.296"/>
<polygon fill="none" stroke="#404040" points="81.7984,-389.286 76.4077,-384.497 78.7555,-377.678 84.1462,-382.468 81.7984,-389.286"/>
<text text-anchor="middle" x="111" y="-399" font-family="Helvetica,sans-Serif" font-size="10.00"> +elements</text>
</g>
</g>
</svg>
