<?xml version="1.0" encoding="UTF-8" standalone="no"?>
<!DOCTYPE svg PUBLIC "-//W3C//DTD SVG 1.1//EN"
 "http://www.w3.org/Graphics/SVG/1.1/DTD/svg11.dtd">
<!-- Generated by graphviz version 2.38.0 (20140413.2041)
 -->
<!-- Title: pfasst::MLSDC::cycle_up Pages: 1 -->
<svg width="274pt" height="137pt"
 viewBox="0.00 0.00 274.00 137.00" xmlns="http://www.w3.org/2000/svg" xmlns:xlink="http://www.w3.org/1999/xlink">
<g id="graph0" class="graph" transform="scale(1 1) rotate(0) translate(4 133)">
<title>pfasst::MLSDC::cycle_up</title>
<polygon fill="white" stroke="none" points="-4,4 -4,-133 270,-133 270,4 -4,4"/>
<!-- Node1 -->
<g id="node1" class="node"><title>Node1</title>
<polygon fill="#bfbfbf" stroke="black" points="0,-55 0,-74 130,-74 130,-55 0,-55"/>
<text text-anchor="middle" x="65" y="-62" font-family="Helvetica,sans-Serif" font-size="10.00">pfasst::MLSDC::cycle_up</text>
</g>
<!-- Node2 -->
<g id="node2" class="node"><title>Node2</title>
<g id="a_node2"><a xlink:href="../../d8/def/classpfasst_1_1Controller_1_1LevelIter.html#a30ca3967dfc319949236bd5f22ec42f5" target="_top" xlink:title="Get the next coarser level based on LevelIter::current() ">
<polygon fill="white" stroke="black" points="167,-98.5 167,-128.5 265,-128.5 265,-98.5 167,-98.5"/>
<text text-anchor="start" x="175" y="-116.5" font-family="Helvetica,sans-Serif" font-size="10.00">pfasst::Controller</text>
<text text-anchor="middle" x="216" y="-105.5" font-family="Helvetica,sans-Serif" font-size="10.00">::LevelIter::coarse</text>
</a>
</g>
</g>
<!-- Node1&#45;&gt;Node2 -->
<g id="edge1" class="edge"><title>Node1&#45;&gt;Node2</title>
<path fill="none" stroke="midnightblue" d="M95.0824,-74.064C113.452,-80.105 137.779,-88.1052 159.719,-95.3204"/>
<polygon fill="midnightblue" stroke="midnightblue" points="158.682,-98.6638 169.275,-98.463 160.869,-92.0141 158.682,-98.6638"/>
</g>
<!-- Node3 -->
<g id="node3" class="node"><title>Node3</title>
<g id="a_node3"><a xlink:href="../../d8/def/classpfasst_1_1Controller_1_1LevelIter.html#a391826a3a28d4708624b2e8280d7dacb" target="_top" xlink:title="Get level this iterator is currently pointing at. ">
<polygon fill="white" stroke="black" points="167.5,-49.5 167.5,-79.5 264.5,-79.5 264.5,-49.5 167.5,-49.5"/>
<text text-anchor="start" x="175.5" y="-67.5" font-family="Helvetica,sans-Serif" font-size="10.00">pfasst::Controller</text>
<text text-anchor="middle" x="216" y="-56.5" font-family="Helvetica,sans-Serif" font-size="10.00">::LevelIter::current</text>
</a>
</g>
</g>
<!-- Node1&#45;&gt;Node3 -->
<g id="edge2" class="edge"><title>Node1&#45;&gt;Node3</title>
<path fill="none" stroke="midnightblue" d="M130.054,-64.5C139.011,-64.5 148.174,-64.5 157.011,-64.5"/>
<polygon fill="midnightblue" stroke="midnightblue" points="157.202,-68.0001 167.202,-64.5 157.202,-61.0001 157.202,-68.0001"/>
</g>
<!-- Node4 -->
<g id="node4" class="node"><title>Node4</title>
<g id="a_node4"><a xlink:href="../../d8/def/classpfasst_1_1Controller_1_1LevelIter.html#a60ab53d414ef85f97a752f3339ec1b73" target="_top" xlink:title="Get transfer operator for current level. ">
<polygon fill="white" stroke="black" points="166,-0.5 166,-30.5 266,-30.5 266,-0.5 166,-0.5"/>
<text text-anchor="start" x="174" y="-18.5" font-family="Helvetica,sans-Serif" font-size="10.00">pfasst::Controller</text>
<text text-anchor="middle" x="216" y="-7.5" font-family="Helvetica,sans-Serif" font-size="10.00">::LevelIter::transfer</text>
</a>
</g>
</g>
<!-- Node1&#45;&gt;Node4 -->
<g id="edge3" class="edge"><title>Node1&#45;&gt;Node4</title>
<path fill="none" stroke="midnightblue" d="M95.0824,-54.936C113.452,-48.895 137.779,-40.8948 159.719,-33.6796"/>
<polygon fill="midnightblue" stroke="midnightblue" points="160.869,-36.9859 169.275,-30.537 158.682,-30.3362 160.869,-36.9859"/>
</g>
</g>
</svg>
