<?xml version="1.0" encoding="UTF-8" standalone="no"?>
<!DOCTYPE svg PUBLIC "-//W3C//DTD SVG 1.1//EN"
 "http://www.w3.org/Graphics/SVG/1.1/DTD/svg11.dtd">
<!-- Generated by graphviz version 2.38.0 (20140413.2041)
 -->
<!-- Title: pfasst::MLSDC::cycle_down Pages: 1 -->
<svg width="288pt" height="137pt"
 viewBox="0.00 0.00 288.00 137.00" xmlns="http://www.w3.org/2000/svg" xmlns:xlink="http://www.w3.org/1999/xlink">
<g id="graph0" class="graph" transform="scale(1 1) rotate(0) translate(4 133)">
<title>pfasst::MLSDC::cycle_down</title>
<polygon fill="white" stroke="none" points="-4,4 -4,-133 284,-133 284,4 -4,4"/>
<!-- Node1 -->
<g id="node1" class="node"><title>Node1</title>
<polygon fill="#bfbfbf" stroke="black" points="0,-55 0,-74 144,-74 144,-55 0,-55"/>
<text text-anchor="middle" x="72" y="-62" font-family="Helvetica,sans-Serif" font-size="10.00">pfasst::MLSDC::cycle_down</text>
</g>
<!-- Node2 -->
<g id="node2" class="node"><title>Node2</title>
<g id="a_node2"><a xlink:href="../../d8/def/classpfasst_1_1Controller_1_1LevelIter.html#a30ca3967dfc319949236bd5f22ec42f5" target="_top" xlink:title="Get the next coarser level based on LevelIter::current() ">
<polygon fill="white" stroke="black" points="181,-98.5 181,-128.5 279,-128.5 279,-98.5 181,-98.5"/>
<text text-anchor="start" x="189" y="-116.5" font-family="Helvetica,sans-Serif" font-size="10.00">pfasst::Controller</text>
<text text-anchor="middle" x="230" y="-105.5" font-family="Helvetica,sans-Serif" font-size="10.00">::LevelIter::coarse</text>
</a>
</g>
</g>
<!-- Node1&#45;&gt;Node2 -->
<g id="edge1" class="edge"><title>Node1&#45;&gt;Node2</title>
<path fill="none" stroke="midnightblue" d="M103.449,-74.064C122.768,-80.1321 148.38,-88.177 171.431,-95.4174"/>
<polygon fill="midnightblue" stroke="midnightblue" points="170.538,-98.8054 181.127,-98.463 172.636,-92.1271 170.538,-98.8054"/>
</g>
<!-- Node3 -->
<g id="node3" class="node"><title>Node3</title>
<g id="a_node3"><a xlink:href="../../d8/def/classpfasst_1_1Controller_1_1LevelIter.html#a391826a3a28d4708624b2e8280d7dacb" target="_top" xlink:title="Get level this iterator is currently pointing at. ">
<polygon fill="white" stroke="black" points="181.5,-49.5 181.5,-79.5 278.5,-79.5 278.5,-49.5 181.5,-49.5"/>
<text text-anchor="start" x="189.5" y="-67.5" font-family="Helvetica,sans-Serif" font-size="10.00">pfasst::Controller</text>
<text text-anchor="middle" x="230" y="-56.5" font-family="Helvetica,sans-Serif" font-size="10.00">::LevelIter::current</text>
</a>
</g>
</g>
<!-- Node1&#45;&gt;Node3 -->
<g id="edge2" class="edge"><title>Node1&#45;&gt;Node3</title>
<path fill="none" stroke="midnightblue" d="M144.152,-64.5C153.163,-64.5 162.296,-64.5 171.065,-64.5"/>
<polygon fill="midnightblue" stroke="midnightblue" points="171.165,-68.0001 181.165,-64.5 171.165,-61.0001 171.165,-68.0001"/>
</g>
<!-- Node4 -->
<g id="node4" class="node"><title>Node4</title>
<g id="a_node4"><a xlink:href="../../d8/def/classpfasst_1_1Controller_1_1LevelIter.html#a60ab53d414ef85f97a752f3339ec1b73" target="_top" xlink:title="Get transfer operator for current level. ">
<polygon fill="white" stroke="black" points="180,-0.5 180,-30.5 280,-30.5 280,-0.5 180,-0.5"/>
<text text-anchor="start" x="188" y="-18.5" font-family="Helvetica,sans-Serif" font-size="10.00">pfasst::Controller</text>
<text text-anchor="middle" x="230" y="-7.5" font-family="Helvetica,sans-Serif" font-size="10.00">::LevelIter::transfer</text>
</a>
</g>
</g>
<!-- Node1&#45;&gt;Node4 -->
<g id="edge3" class="edge"><title>Node1&#45;&gt;Node4</title>
<path fill="none" stroke="midnightblue" d="M103.449,-54.936C122.768,-48.8679 148.38,-40.823 171.431,-33.5826"/>
<polygon fill="midnightblue" stroke="midnightblue" points="172.636,-36.8729 181.127,-30.537 170.538,-30.1946 172.636,-36.8729"/>
</g>
</g>
</svg>
