<?xml version="1.0" encoding="UTF-8" standalone="no"?>
<!DOCTYPE svg PUBLIC "-//W3C//DTD SVG 1.1//EN"
 "http://www.w3.org/Graphics/SVG/1.1/DTD/svg11.dtd">
<!-- Generated by graphviz version 2.38.0 (20140413.2041)
 -->
<!-- Title: pfasst::MLSDC::run Pages: 1 -->
<svg width="638pt" height="216pt"
 viewBox="0.00 0.00 638.00 216.00" xmlns="http://www.w3.org/2000/svg" xmlns:xlink="http://www.w3.org/1999/xlink">
<g id="graph0" class="graph" transform="scale(1 1) rotate(0) translate(4 212)">
<title>pfasst::MLSDC::run</title>
<polygon fill="white" stroke="none" points="-4,4 -4,-212 634,-212 634,4 -4,4"/>
<!-- Node1 -->
<g id="node1" class="node"><title>Node1</title>
<polygon fill="#bfbfbf" stroke="black" points="0,-87.5 0,-106.5 104,-106.5 104,-87.5 0,-87.5"/>
<text text-anchor="middle" x="52" y="-94.5" font-family="Helvetica,sans-Serif" font-size="10.00">pfasst::MLSDC::run</text>
</g>
<!-- Node2 -->
<g id="node2" class="node"><title>Node2</title>
<g id="a_node2"><a xlink:href="../../d4/deb/classpfasst_1_1PFASST.html#aa3303053b9e0a111a2161eb9642538d7" target="_top" xlink:title="Solve ODE using PFASST. ">
<polygon fill="white" stroke="black" points="157,-131.5 157,-150.5 266,-150.5 266,-131.5 157,-131.5"/>
<text text-anchor="middle" x="211.5" y="-138.5" font-family="Helvetica,sans-Serif" font-size="10.00">pfasst::PFASST::run</text>
</a>
</g>
</g>
<!-- Node1&#45;&gt;Node2 -->
<g id="edge1" class="edge"><title>Node1&#45;&gt;Node2</title>
<path fill="none" stroke="midnightblue" d="M96.8417,-109.248C121.986,-116.272 153.084,-124.96 176.392,-131.471"/>
<polygon fill="midnightblue" stroke="midnightblue" points="97.7481,-105.867 87.1752,-106.547 95.8646,-112.609 97.7481,-105.867"/>
</g>
<!-- Node8 -->
<g id="node8" class="node"><title>Node8</title>
<g id="a_node8"><a xlink:href="../../da/d74/namespacepfasst_1_1examples_1_1boris.html#a8d5b021ed3d567b8abe80a2830aa88f1" target="_top" xlink:title="pfasst::examples::boris\l::run_boris_sdc">
<polygon fill="white" stroke="black" points="151,-82 151,-112 272,-112 272,-82 151,-82"/>
<text text-anchor="start" x="159" y="-100" font-family="Helvetica,sans-Serif" font-size="10.00">pfasst::examples::boris</text>
<text text-anchor="middle" x="211.5" y="-89" font-family="Helvetica,sans-Serif" font-size="10.00">::run_boris_sdc</text>
</a>
</g>
</g>
<!-- Node1&#45;&gt;Node8 -->
<g id="edge7" class="edge"><title>Node1&#45;&gt;Node8</title>
<path fill="none" stroke="midnightblue" d="M114.473,-97C126.435,-97 138.955,-97 150.856,-97"/>
<polygon fill="midnightblue" stroke="midnightblue" points="114.136,-93.5001 104.136,-97 114.136,-100.5 114.136,-93.5001"/>
</g>
<!-- Node9 -->
<g id="node9" class="node"><title>Node9</title>
<g id="a_node9"><a xlink:href="../../d9/d85/group__AdvectionDiffusion.html#ga54ea0f33dff1236bd3d9349a8ea75575" target="_top" xlink:title="Advection/diffusion example using an encapsulated IMEX sweeper. ">
<polygon fill="white" stroke="black" points="140,-33 140,-63 283,-63 283,-33 140,-33"/>
<text text-anchor="start" x="148" y="-51" font-family="Helvetica,sans-Serif" font-size="10.00">pfasst::examples::advection</text>
<text text-anchor="middle" x="211.5" y="-40" font-family="Helvetica,sans-Serif" font-size="10.00">_diffusion::run_serial_mlsdc</text>
</a>
</g>
</g>
<!-- Node1&#45;&gt;Node9 -->
<g id="edge8" class="edge"><title>Node1&#45;&gt;Node9</title>
<path fill="none" stroke="midnightblue" d="M93.3155,-84.4574C114.303,-77.9281 140.115,-69.8976 162.167,-63.037"/>
<polygon fill="midnightblue" stroke="midnightblue" points="92.2503,-81.1232 83.7415,-87.436 94.3298,-87.8072 92.2503,-81.1232"/>
</g>
<!-- Node3 -->
<g id="node3" class="node"><title>Node3</title>
<g id="a_node3"><a xlink:href="../../d9/d85/group__AdvectionDiffusion.html#gacf2af7cceb96a5587032bc0e83b93e00" target="_top" xlink:title="Advection/diffusion example using an encapsulated IMEX sweeper. ">
<polygon fill="white" stroke="black" points="319,-164 319,-194 462,-194 462,-164 319,-164"/>
<text text-anchor="start" x="327" y="-182" font-family="Helvetica,sans-Serif" font-size="10.00">pfasst::examples::advection</text>
<text text-anchor="middle" x="390.5" y="-171" font-family="Helvetica,sans-Serif" font-size="10.00">_diffusion::run_mpi_pfasst</text>
</a>
</g>
</g>
<!-- Node2&#45;&gt;Node3 -->
<g id="edge2" class="edge"><title>Node2&#45;&gt;Node3</title>
<path fill="none" stroke="midnightblue" d="M267.17,-152.737C283.663,-156.278 302.001,-160.215 319.354,-163.94"/>
<polygon fill="midnightblue" stroke="midnightblue" points="267.676,-149.266 257.165,-150.589 266.207,-156.11 267.676,-149.266"/>
</g>
<!-- Node7 -->
<g id="node7" class="node"><title>Node7</title>
<g id="a_node7"><a xlink:href="../../da/d74/namespacepfasst_1_1examples_1_1boris.html#a0f75e9bba0cc129f1b7089130f678e92" target="_top" xlink:title="pfasst::examples::boris\l::run_boris_pfasst">
<polygon fill="white" stroke="black" points="330,-115 330,-145 451,-145 451,-115 330,-115"/>
<text text-anchor="start" x="338" y="-133" font-family="Helvetica,sans-Serif" font-size="10.00">pfasst::examples::boris</text>
<text text-anchor="middle" x="390.5" y="-122" font-family="Helvetica,sans-Serif" font-size="10.00">::run_boris_pfasst</text>
</a>
</g>
</g>
<!-- Node2&#45;&gt;Node7 -->
<g id="edge6" class="edge"><title>Node2&#45;&gt;Node7</title>
<path fill="none" stroke="midnightblue" d="M276.211,-137.041C293.723,-135.952 312.643,-134.776 329.913,-133.703"/>
<polygon fill="midnightblue" stroke="midnightblue" points="275.85,-133.556 266.086,-137.67 276.284,-140.543 275.85,-133.556"/>
</g>
<!-- Node4 -->
<g id="node4" class="node"><title>Node4</title>
<g id="a_node4"><a xlink:href="../../d1/d49/mpi__pfasst_8cpp.html#a3c04138a5bfe5d72780bb7e82a18e627" target="_top" xlink:title="main">
<polygon fill="white" stroke="black" points="545,-188.5 545,-207.5 583,-207.5 583,-188.5 545,-188.5"/>
<text text-anchor="middle" x="564" y="-195.5" font-family="Helvetica,sans-Serif" font-size="10.00">main</text>
</a>
</g>
</g>
<!-- Node3&#45;&gt;Node4 -->
<g id="edge3" class="edge"><title>Node3&#45;&gt;Node4</title>
<path fill="none" stroke="midnightblue" d="M472.187,-187.939C499.307,-190.944 527.106,-194.023 544.68,-195.97"/>
<polygon fill="midnightblue" stroke="midnightblue" points="472.57,-184.46 462.246,-186.838 471.8,-191.418 472.57,-184.46"/>
</g>
<!-- Node5 -->
<g id="node5" class="node"><title>Node5</title>
<g id="a_node5"><a xlink:href="../../d3/d6a/classConvergenceTest.html#a18a32024b87b7ee689df7e0375ea8ede" target="_top" xlink:title="ConvergenceTest::SetUp">
<polygon fill="white" stroke="black" points="498,-104.5 498,-123.5 630,-123.5 630,-104.5 498,-104.5"/>
<text text-anchor="middle" x="564" y="-111.5" font-family="Helvetica,sans-Serif" font-size="10.00">ConvergenceTest::SetUp</text>
</a>
</g>
</g>
<!-- Node3&#45;&gt;Node5 -->
<g id="edge4" class="edge"><title>Node3&#45;&gt;Node5</title>
<path fill="none" stroke="midnightblue" d="M444.651,-160.385C450.516,-158.262 456.392,-156.104 462,-154 488.663,-143.996 519.012,-131.877 539.421,-123.619"/>
<polygon fill="midnightblue" stroke="midnightblue" points="443.067,-157.235 434.839,-163.911 445.434,-163.823 443.067,-157.235"/>
</g>
<!-- Node6 -->
<g id="node6" class="node"><title>Node6</title>
<g id="a_node6"><a xlink:href="../../dd/db6/test__mpi__advection__diffusion_8cpp.html#a88d3a04b41904a6a44c0a94330e3389a" target="_top" xlink:title="TEST">
<polygon fill="white" stroke="black" points="542,-150.5 542,-169.5 586,-169.5 586,-150.5 542,-150.5"/>
<text text-anchor="middle" x="564" y="-157.5" font-family="Helvetica,sans-Serif" font-size="10.00">TEST</text>
</a>
</g>
</g>
<!-- Node3&#45;&gt;Node6 -->
<g id="edge5" class="edge"><title>Node3&#45;&gt;Node6</title>
<path fill="none" stroke="midnightblue" d="M472.375,-170.04C497.941,-167.208 524.087,-164.311 541.683,-162.362"/>
<polygon fill="midnightblue" stroke="midnightblue" points="471.8,-166.582 462.246,-171.162 472.57,-173.54 471.8,-166.582"/>
</g>
<!-- Node9&#45;&gt;Node5 -->
<g id="edge10" class="edge"><title>Node9&#45;&gt;Node5</title>
<path fill="none" stroke="midnightblue" d="M293.192,-63.1946C360.758,-75.9173 455.089,-93.68 512.447,-104.481"/>
<polygon fill="midnightblue" stroke="midnightblue" points="293.482,-59.6877 283.007,-61.2767 292.187,-66.5668 293.482,-59.6877"/>
</g>
<!-- Node10 -->
<g id="node10" class="node"><title>Node10</title>
<g id="a_node10"><a xlink:href="../../d9/d86/serial__mlsdc_8cpp.html#a3c04138a5bfe5d72780bb7e82a18e627" target="_top" xlink:title="main">
<polygon fill="white" stroke="black" points="371.5,-38.5 371.5,-57.5 409.5,-57.5 409.5,-38.5 371.5,-38.5"/>
<text text-anchor="middle" x="390.5" y="-45.5" font-family="Helvetica,sans-Serif" font-size="10.00">main</text>
</a>
</g>
</g>
<!-- Node9&#45;&gt;Node10 -->
<g id="edge9" class="edge"><title>Node9&#45;&gt;Node10</title>
<path fill="none" stroke="midnightblue" d="M293.42,-48C322.451,-48 352.578,-48 371.182,-48"/>
<polygon fill="midnightblue" stroke="midnightblue" points="293.218,-44.5001 283.218,-48 293.218,-51.5001 293.218,-44.5001"/>
</g>
<!-- Node11 -->
<g id="node11" class="node"><title>Node11</title>
<g id="a_node11"><a xlink:href="../../df/df8/test__advection__diffusion_8cpp.html#a14b7af1ba2e39c56da0f65c963f0e6d2" target="_top" xlink:title="TEST">
<polygon fill="white" stroke="black" points="368.5,-0.5 368.5,-19.5 412.5,-19.5 412.5,-0.5 368.5,-0.5"/>
<text text-anchor="middle" x="390.5" y="-7.5" font-family="Helvetica,sans-Serif" font-size="10.00">TEST</text>
</a>
</g>
</g>
<!-- Node9&#45;&gt;Node11 -->
<g id="edge11" class="edge"><title>Node9&#45;&gt;Node11</title>
<path fill="none" stroke="midnightblue" d="M292.263,-30.8756C320.184,-24.8815 349.275,-18.6359 368.276,-14.5565"/>
<polygon fill="midnightblue" stroke="midnightblue" points="291.498,-27.4602 282.455,-32.9814 292.967,-34.3043 291.498,-27.4602"/>
</g>
</g>
</svg>
