<?xml version="1.0" encoding="UTF-8" standalone="no"?>
<!DOCTYPE svg PUBLIC "-//W3C//DTD SVG 1.1//EN"
 "http://www.w3.org/Graphics/SVG/1.1/DTD/svg11.dtd">
<!-- Generated by graphviz version 2.38.0 (20140413.2041)
 -->
<!-- Title: pfasst::MLSDC::set_nsweeps Pages: 1 -->
<svg width="459pt" height="104pt"
 viewBox="0.00 0.00 459.00 104.00" xmlns="http://www.w3.org/2000/svg" xmlns:xlink="http://www.w3.org/1999/xlink">
<g id="graph0" class="graph" transform="scale(1 1) rotate(0) translate(4 100)">
<title>pfasst::MLSDC::set_nsweeps</title>
<polygon fill="white" stroke="none" points="-4,4 -4,-100 455,-100 455,4 -4,4"/>
<!-- Node1 -->
<g id="node1" class="node"><title>Node1</title>
<polygon fill="#bfbfbf" stroke="black" points="0,-33 0,-63 104,-63 104,-33 0,-33"/>
<text text-anchor="start" x="8" y="-51" font-family="Helvetica,sans-Serif" font-size="10.00">pfasst::MLSDC::set</text>
<text text-anchor="middle" x="52" y="-40" font-family="Helvetica,sans-Serif" font-size="10.00">_nsweeps</text>
</g>
<!-- Node2 -->
<g id="node2" class="node"><title>Node2</title>
<g id="a_node2"><a xlink:href="../../d9/d85/group__AdvectionDiffusion.html#gacf2af7cceb96a5587032bc0e83b93e00" target="_top" xlink:title="Advection/diffusion example using an encapsulated IMEX sweeper. ">
<polygon fill="white" stroke="black" points="140,-33 140,-63 283,-63 283,-33 140,-33"/>
<text text-anchor="start" x="148" y="-51" font-family="Helvetica,sans-Serif" font-size="10.00">pfasst::examples::advection</text>
<text text-anchor="middle" x="211.5" y="-40" font-family="Helvetica,sans-Serif" font-size="10.00">_diffusion::run_mpi_pfasst</text>
</a>
</g>
</g>
<!-- Node1&#45;&gt;Node2 -->
<g id="edge1" class="edge"><title>Node1&#45;&gt;Node2</title>
<path fill="none" stroke="midnightblue" d="M114.222,-48C122.628,-48 131.315,-48 139.872,-48"/>
<polygon fill="midnightblue" stroke="midnightblue" points="114.136,-44.5001 104.136,-48 114.136,-51.5001 114.136,-44.5001"/>
</g>
<!-- Node3 -->
<g id="node3" class="node"><title>Node3</title>
<g id="a_node3"><a xlink:href="../../d1/d49/mpi__pfasst_8cpp.html#a3c04138a5bfe5d72780bb7e82a18e627" target="_top" xlink:title="main">
<polygon fill="white" stroke="black" points="366,-76.5 366,-95.5 404,-95.5 404,-76.5 366,-76.5"/>
<text text-anchor="middle" x="385" y="-83.5" font-family="Helvetica,sans-Serif" font-size="10.00">main</text>
</a>
</g>
</g>
<!-- Node2&#45;&gt;Node3 -->
<g id="edge2" class="edge"><title>Node2&#45;&gt;Node3</title>
<path fill="none" stroke="midnightblue" d="M290.146,-65.2044C318.23,-71.427 347.483,-77.9088 365.713,-81.948"/>
<polygon fill="midnightblue" stroke="midnightblue" points="290.802,-61.7648 280.281,-63.0186 289.287,-68.5991 290.802,-61.7648"/>
</g>
<!-- Node4 -->
<g id="node4" class="node"><title>Node4</title>
<g id="a_node4"><a xlink:href="../../d3/d6a/classConvergenceTest.html#a18a32024b87b7ee689df7e0375ea8ede" target="_top" xlink:title="ConvergenceTest::SetUp">
<polygon fill="white" stroke="black" points="319,-38.5 319,-57.5 451,-57.5 451,-38.5 319,-38.5"/>
<text text-anchor="middle" x="385" y="-45.5" font-family="Helvetica,sans-Serif" font-size="10.00">ConvergenceTest::SetUp</text>
</a>
</g>
</g>
<!-- Node2&#45;&gt;Node4 -->
<g id="edge3" class="edge"><title>Node2&#45;&gt;Node4</title>
<path fill="none" stroke="midnightblue" d="M293.283,-48C301.877,-48 310.538,-48 318.919,-48"/>
<polygon fill="midnightblue" stroke="midnightblue" points="293.246,-44.5001 283.246,-48 293.246,-51.5001 293.246,-44.5001"/>
</g>
<!-- Node5 -->
<g id="node5" class="node"><title>Node5</title>
<g id="a_node5"><a xlink:href="../../dd/db6/test__mpi__advection__diffusion_8cpp.html#a88d3a04b41904a6a44c0a94330e3389a" target="_top" xlink:title="TEST">
<polygon fill="white" stroke="black" points="363,-0.5 363,-19.5 407,-19.5 407,-0.5 363,-0.5"/>
<text text-anchor="middle" x="385" y="-7.5" font-family="Helvetica,sans-Serif" font-size="10.00">TEST</text>
</a>
</g>
</g>
<!-- Node2&#45;&gt;Node5 -->
<g id="edge4" class="edge"><title>Node2&#45;&gt;Node5</title>
<path fill="none" stroke="midnightblue" d="M290.365,-30.7472C316.859,-24.8767 344.366,-18.7819 362.653,-14.7299"/>
<polygon fill="midnightblue" stroke="midnightblue" points="289.287,-27.4009 280.281,-32.9814 290.802,-34.2352 289.287,-27.4009"/>
</g>
</g>
</svg>
