<?xml version="1.0" encoding="UTF-8" standalone="no"?>
<!DOCTYPE svg PUBLIC "-//W3C//DTD SVG 1.1//EN"
 "http://www.w3.org/Graphics/SVG/1.1/DTD/svg11.dtd">
<!-- Generated by graphviz version 2.38.0 (20140413.2041)
 -->
<!-- Title: pfasst::MLSDC::setup Pages: 1 -->
<svg width="469pt" height="239pt"
 viewBox="0.00 0.00 469.00 238.50" xmlns="http://www.w3.org/2000/svg" xmlns:xlink="http://www.w3.org/1999/xlink">
<g id="graph0" class="graph" transform="scale(1 1) rotate(0) translate(4 234.5)">
<title>pfasst::MLSDC::setup</title>
<polygon fill="white" stroke="none" points="-4,4 -4,-234.5 465,-234.5 465,4 -4,4"/>
<!-- Node1 -->
<g id="node1" class="node"><title>Node1</title>
<polygon fill="#bfbfbf" stroke="black" points="0,-131.5 0,-150.5 114,-150.5 114,-131.5 0,-131.5"/>
<text text-anchor="middle" x="57" y="-138.5" font-family="Helvetica,sans-Serif" font-size="10.00">pfasst::MLSDC::setup</text>
</g>
<!-- Node2 -->
<g id="node2" class="node"><title>Node2</title>
<g id="a_node2"><a xlink:href="../../da/d74/namespacepfasst_1_1examples_1_1boris.html#a0f75e9bba0cc129f1b7089130f678e92" target="_top" xlink:title="pfasst::examples::boris\l::run_boris_pfasst">
<polygon fill="white" stroke="black" points="161,-200 161,-230 282,-230 282,-200 161,-200"/>
<text text-anchor="start" x="169" y="-218" font-family="Helvetica,sans-Serif" font-size="10.00">pfasst::examples::boris</text>
<text text-anchor="middle" x="221.5" y="-207" font-family="Helvetica,sans-Serif" font-size="10.00">::run_boris_pfasst</text>
</a>
</g>
</g>
<!-- Node1&#45;&gt;Node2 -->
<g id="edge1" class="edge"><title>Node1&#45;&gt;Node2</title>
<path fill="none" stroke="midnightblue" d="M82.3363,-155.704C100.56,-166.347 126.321,-180.625 150,-191 157.224,-194.165 165.008,-197.185 172.675,-199.948"/>
<polygon fill="midnightblue" stroke="midnightblue" points="83.9347,-152.583 73.5447,-150.51 80.374,-158.61 83.9347,-152.583"/>
</g>
<!-- Node3 -->
<g id="node3" class="node"><title>Node3</title>
<g id="a_node3"><a xlink:href="../../da/d74/namespacepfasst_1_1examples_1_1boris.html#a8d5b021ed3d567b8abe80a2830aa88f1" target="_top" xlink:title="pfasst::examples::boris\l::run_boris_sdc">
<polygon fill="white" stroke="black" points="161,-151 161,-181 282,-181 282,-151 161,-151"/>
<text text-anchor="start" x="169" y="-169" font-family="Helvetica,sans-Serif" font-size="10.00">pfasst::examples::boris</text>
<text text-anchor="middle" x="221.5" y="-158" font-family="Helvetica,sans-Serif" font-size="10.00">::run_boris_sdc</text>
</a>
</g>
</g>
<!-- Node1&#45;&gt;Node3 -->
<g id="edge2" class="edge"><title>Node1&#45;&gt;Node3</title>
<path fill="none" stroke="midnightblue" d="M124.4,-151.215C136.487,-153.075 149.028,-155.004 160.903,-156.831"/>
<polygon fill="midnightblue" stroke="midnightblue" points="124.795,-147.735 114.379,-149.674 123.73,-154.654 124.795,-147.735"/>
</g>
<!-- Node4 -->
<g id="node4" class="node"><title>Node4</title>
<g id="a_node4"><a xlink:href="../../d9/d85/group__AdvectionDiffusion.html#gacf2af7cceb96a5587032bc0e83b93e00" target="_top" xlink:title="Advection/diffusion example using an encapsulated IMEX sweeper. ">
<polygon fill="white" stroke="black" points="150,-102 150,-132 293,-132 293,-102 150,-102"/>
<text text-anchor="start" x="158" y="-120" font-family="Helvetica,sans-Serif" font-size="10.00">pfasst::examples::advection</text>
<text text-anchor="middle" x="221.5" y="-109" font-family="Helvetica,sans-Serif" font-size="10.00">_diffusion::run_mpi_pfasst</text>
</a>
</g>
</g>
<!-- Node1&#45;&gt;Node4 -->
<g id="edge3" class="edge"><title>Node1&#45;&gt;Node4</title>
<path fill="none" stroke="midnightblue" d="M124.473,-131.182C132.858,-129.944 141.46,-128.674 149.905,-127.426"/>
<polygon fill="midnightblue" stroke="midnightblue" points="123.76,-127.75 114.379,-132.673 124.783,-134.675 123.76,-127.75"/>
</g>
<!-- Node8 -->
<g id="node8" class="node"><title>Node8</title>
<g id="a_node8"><a xlink:href="../../d9/d85/group__AdvectionDiffusion.html#ga54ea0f33dff1236bd3d9349a8ea75575" target="_top" xlink:title="Advection/diffusion example using an encapsulated IMEX sweeper. ">
<polygon fill="white" stroke="black" points="150,-40 150,-70 293,-70 293,-40 150,-40"/>
<text text-anchor="start" x="158" y="-58" font-family="Helvetica,sans-Serif" font-size="10.00">pfasst::examples::advection</text>
<text text-anchor="middle" x="221.5" y="-47" font-family="Helvetica,sans-Serif" font-size="10.00">_diffusion::run_serial_mlsdc</text>
</a>
</g>
</g>
<!-- Node1&#45;&gt;Node8 -->
<g id="edge7" class="edge"><title>Node1&#45;&gt;Node8</title>
<path fill="none" stroke="midnightblue" d="M84.9536,-126.735C114.55,-111.072 161.871,-86.0285 192.049,-70.0569"/>
<polygon fill="midnightblue" stroke="midnightblue" points="83.2126,-123.697 76.0112,-131.468 86.487,-129.884 83.2126,-123.697"/>
</g>
<!-- Node5 -->
<g id="node5" class="node"><title>Node5</title>
<g id="a_node5"><a xlink:href="../../d1/d49/mpi__pfasst_8cpp.html#a3c04138a5bfe5d72780bb7e82a18e627" target="_top" xlink:title="main">
<polygon fill="white" stroke="black" points="376,-152.5 376,-171.5 414,-171.5 414,-152.5 376,-152.5"/>
<text text-anchor="middle" x="395" y="-159.5" font-family="Helvetica,sans-Serif" font-size="10.00">main</text>
</a>
</g>
</g>
<!-- Node4&#45;&gt;Node5 -->
<g id="edge4" class="edge"><title>Node4&#45;&gt;Node5</title>
<path fill="none" stroke="midnightblue" d="M289.995,-134.71C320.946,-142.831 355.224,-151.826 375.671,-157.191"/>
<polygon fill="midnightblue" stroke="midnightblue" points="290.645,-131.262 280.084,-132.11 288.868,-138.033 290.645,-131.262"/>
</g>
<!-- Node6 -->
<g id="node6" class="node"><title>Node6</title>
<g id="a_node6"><a xlink:href="../../d3/d6a/classConvergenceTest.html#a18a32024b87b7ee689df7e0375ea8ede" target="_top" xlink:title="ConvergenceTest::SetUp">
<polygon fill="white" stroke="black" points="329,-76.5 329,-95.5 461,-95.5 461,-76.5 329,-76.5"/>
<text text-anchor="middle" x="395" y="-83.5" font-family="Helvetica,sans-Serif" font-size="10.00">ConvergenceTest::SetUp</text>
</a>
</g>
</g>
<!-- Node4&#45;&gt;Node6 -->
<g id="edge5" class="edge"><title>Node4&#45;&gt;Node6</title>
<path fill="none" stroke="midnightblue" d="M303.099,-102.431C316.05,-100.09 329.158,-97.7207 341.236,-95.5375"/>
<polygon fill="midnightblue" stroke="midnightblue" points="302.464,-98.9891 293.246,-104.212 303.709,-105.877 302.464,-98.9891"/>
</g>
<!-- Node7 -->
<g id="node7" class="node"><title>Node7</title>
<g id="a_node7"><a xlink:href="../../dd/db6/test__mpi__advection__diffusion_8cpp.html#a88d3a04b41904a6a44c0a94330e3389a" target="_top" xlink:title="TEST">
<polygon fill="white" stroke="black" points="373,-114.5 373,-133.5 417,-133.5 417,-114.5 373,-114.5"/>
<text text-anchor="middle" x="395" y="-121.5" font-family="Helvetica,sans-Serif" font-size="10.00">TEST</text>
</a>
</g>
</g>
<!-- Node4&#45;&gt;Node7 -->
<g id="edge6" class="edge"><title>Node4&#45;&gt;Node7</title>
<path fill="none" stroke="midnightblue" d="M303.375,-120.301C328.941,-121.345 355.087,-122.412 372.683,-123.13"/>
<polygon fill="midnightblue" stroke="midnightblue" points="303.38,-116.798 293.246,-119.888 303.095,-123.793 303.38,-116.798"/>
</g>
<!-- Node8&#45;&gt;Node6 -->
<g id="edge9" class="edge"><title>Node8&#45;&gt;Node6</title>
<path fill="none" stroke="midnightblue" d="M303.099,-69.5689C316.05,-71.9099 329.158,-74.2793 341.236,-76.4625"/>
<polygon fill="midnightblue" stroke="midnightblue" points="303.709,-66.1225 293.246,-67.7879 302.464,-73.0109 303.709,-66.1225"/>
</g>
<!-- Node9 -->
<g id="node9" class="node"><title>Node9</title>
<g id="a_node9"><a xlink:href="../../d9/d86/serial__mlsdc_8cpp.html#a3c04138a5bfe5d72780bb7e82a18e627" target="_top" xlink:title="main">
<polygon fill="white" stroke="black" points="376,-38.5 376,-57.5 414,-57.5 414,-38.5 376,-38.5"/>
<text text-anchor="middle" x="395" y="-45.5" font-family="Helvetica,sans-Serif" font-size="10.00">main</text>
</a>
</g>
</g>
<!-- Node8&#45;&gt;Node9 -->
<g id="edge8" class="edge"><title>Node8&#45;&gt;Node9</title>
<path fill="none" stroke="midnightblue" d="M303.544,-51.6921C330.551,-50.5898 358.183,-49.4619 375.68,-48.7478"/>
<polygon fill="midnightblue" stroke="midnightblue" points="303.095,-48.2074 293.246,-52.1124 303.38,-55.2016 303.095,-48.2074"/>
</g>
<!-- Node10 -->
<g id="node10" class="node"><title>Node10</title>
<g id="a_node10"><a xlink:href="../../df/df8/test__advection__diffusion_8cpp.html#a14b7af1ba2e39c56da0f65c963f0e6d2" target="_top" xlink:title="TEST">
<polygon fill="white" stroke="black" points="373,-0.5 373,-19.5 417,-19.5 417,-0.5 373,-0.5"/>
<text text-anchor="middle" x="395" y="-7.5" font-family="Helvetica,sans-Serif" font-size="10.00">TEST</text>
</a>
</g>
</g>
<!-- Node8&#45;&gt;Node10 -->
<g id="edge10" class="edge"><title>Node8&#45;&gt;Node10</title>
<path fill="none" stroke="midnightblue" d="M289.969,-37.2969C319.522,-29.5422 352.115,-20.9903 372.804,-15.5616"/>
<polygon fill="midnightblue" stroke="midnightblue" points="288.868,-33.967 280.084,-39.8905 290.645,-40.7378 288.868,-33.967"/>
</g>
</g>
</svg>
