<?xml version="1.0" encoding="UTF-8" standalone="no"?>
<!DOCTYPE svg PUBLIC "-//W3C//DTD SVG 1.1//EN"
 "http://www.w3.org/Graphics/SVG/1.1/DTD/svg11.dtd">
<!-- Generated by graphviz version 2.38.0 (20140413.2041)
 -->
<!-- Title: simple_physics_solver::compute_energy Pages: 1 -->
<svg width="296pt" height="148pt"
 viewBox="0.00 0.00 296.00 147.50" xmlns="http://www.w3.org/2000/svg" xmlns:xlink="http://www.w3.org/1999/xlink">
<g id="graph0" class="graph" transform="scale(1 1) rotate(0) translate(4 143.5)">
<title>simple_physics_solver::compute_energy</title>
<polygon fill="white" stroke="none" points="-4,4 -4,-143.5 292,-143.5 292,4 -4,4"/>
<!-- Node1 -->
<g id="node1" class="node"><title>Node1</title>
<polygon fill="#bfbfbf" stroke="black" points="0,-60 0,-90 118,-90 118,-60 0,-60"/>
<text text-anchor="start" x="8" y="-78" font-family="Helvetica,sans-Serif" font-size="10.00">simple_physics_solver</text>
<text text-anchor="middle" x="59" y="-67" font-family="Helvetica,sans-Serif" font-size="10.00">::compute_energy</text>
</g>
<!-- Node2 -->
<g id="node2" class="node"><title>Node2</title>
<g id="a_node2"><a xlink:href="../../d3/d58/group__ExternalSolver.html#gaa7b26227dd0c6353a2a7a668a04cdee9" target="_top" xlink:title="simple_physics_solver\l::evaluate_internal_e_field">
<polygon fill="white" stroke="black" points="154,-109 154,-139 288,-139 288,-109 154,-109"/>
<text text-anchor="start" x="162" y="-127" font-family="Helvetica,sans-Serif" font-size="10.00">simple_physics_solver</text>
<text text-anchor="middle" x="221" y="-116" font-family="Helvetica,sans-Serif" font-size="10.00">::evaluate_internal_e_field</text>
</a>
</g>
</g>
<!-- Node1&#45;&gt;Node2 -->
<g id="edge1" class="edge"><title>Node1&#45;&gt;Node2</title>
<path fill="none" stroke="midnightblue" d="M109.311,-90.1014C125.66,-95.1083 144.024,-100.732 161.025,-105.939"/>
<polygon fill="midnightblue" stroke="midnightblue" points="160.265,-109.367 170.852,-108.948 162.315,-102.674 160.265,-109.367"/>
</g>
<!-- Node3 -->
<g id="node3" class="node"><title>Node3</title>
<g id="a_node3"><a xlink:href="../../d0/d8f/namespacesimple__physics__solver_1_1internal.html#ae4d484ba5bbd03569aef4c3dd364eb4a" target="_top" xlink:title="simple_physics_solver\l::internal::scalar_prod">
<polygon fill="white" stroke="black" points="162,-60 162,-90 280,-90 280,-60 162,-60"/>
<text text-anchor="start" x="170" y="-78" font-family="Helvetica,sans-Serif" font-size="10.00">simple_physics_solver</text>
<text text-anchor="middle" x="221" y="-67" font-family="Helvetica,sans-Serif" font-size="10.00">::internal::scalar_prod</text>
</a>
</g>
</g>
<!-- Node1&#45;&gt;Node3 -->
<g id="edge2" class="edge"><title>Node1&#45;&gt;Node3</title>
<path fill="none" stroke="midnightblue" d="M118.216,-75C129.093,-75 140.552,-75 151.701,-75"/>
<polygon fill="midnightblue" stroke="midnightblue" points="151.827,-78.5001 161.827,-75 151.827,-71.5001 151.827,-78.5001"/>
</g>
<!-- Node4 -->
<g id="node4" class="node"><title>Node4</title>
<g id="a_node4"><a xlink:href="../../d0/d8f/namespacesimple__physics__solver_1_1internal.html#a62af8164189043e45b614c913eda3b94" target="_top" xlink:title="simple_physics_solver\l::internal::scale_mat\l_mul_vec">
<polygon fill="white" stroke="black" points="162,-0.5 162,-41.5 280,-41.5 280,-0.5 162,-0.5"/>
<text text-anchor="start" x="170" y="-29.5" font-family="Helvetica,sans-Serif" font-size="10.00">simple_physics_solver</text>
<text text-anchor="start" x="170" y="-18.5" font-family="Helvetica,sans-Serif" font-size="10.00">::internal::scale_mat</text>
<text text-anchor="middle" x="221" y="-7.5" font-family="Helvetica,sans-Serif" font-size="10.00">_mul_vec</text>
</a>
</g>
</g>
<!-- Node1&#45;&gt;Node4 -->
<g id="edge3" class="edge"><title>Node1&#45;&gt;Node4</title>
<path fill="none" stroke="midnightblue" d="M104.569,-59.958C119.271,-54.996 135.974,-49.3588 152.017,-43.9443"/>
<polygon fill="midnightblue" stroke="midnightblue" points="153.541,-47.1239 161.897,-40.6098 151.303,-40.4914 153.541,-47.1239"/>
</g>
</g>
</svg>
