<?xml version="1.0" encoding="UTF-8" standalone="no"?>
<!DOCTYPE svg PUBLIC "-//W3C//DTD SVG 1.1//EN"
 "http://www.w3.org/Graphics/SVG/1.1/DTD/svg11.dtd">
<!-- Generated by graphviz version 2.38.0 (20140413.2041)
 -->
<!-- Title: simple_physics_solver::compute_energy Pages: 1 -->
<svg width="332pt" height="50pt"
 viewBox="0.00 0.00 332.00 50.00" xmlns="http://www.w3.org/2000/svg" xmlns:xlink="http://www.w3.org/1999/xlink">
<g id="graph0" class="graph" transform="scale(1 1) rotate(0) translate(4 46)">
<title>simple_physics_solver::compute_energy</title>
<polygon fill="white" stroke="none" points="-4,4 -4,-46 328,-46 328,4 -4,4"/>
<!-- Node1 -->
<g id="node1" class="node"><title>Node1</title>
<polygon fill="#bfbfbf" stroke="black" points="0,-6 0,-36 118,-36 118,-6 0,-6"/>
<text text-anchor="start" x="8" y="-24" font-family="Helvetica,sans-Serif" font-size="10.00">simple_physics_solver</text>
<text text-anchor="middle" x="59" y="-13" font-family="Helvetica,sans-Serif" font-size="10.00">::compute_energy</text>
</g>
<!-- Node2 -->
<g id="node2" class="node"><title>Node2</title>
<g id="a_node2"><a xlink:href="../../d0/d84/classpfasst_1_1examples_1_1boris_1_1bindings_1_1WrapperSimplePhysicsSolver.html#a15f1fd094873a0f6ab40a444ea3ccfbf" target="_top" xlink:title="pfasst::examples::boris\l::bindings::WrapperSimplePhysics\lSolver::energy">
<polygon fill="white" stroke="black" points="154,-0.5 154,-41.5 324,-41.5 324,-0.5 154,-0.5"/>
<text text-anchor="start" x="162" y="-29.5" font-family="Helvetica,sans-Serif" font-size="10.00">pfasst::examples::boris</text>
<text text-anchor="start" x="162" y="-18.5" font-family="Helvetica,sans-Serif" font-size="10.00">::bindings::WrapperSimplePhysics</text>
<text text-anchor="middle" x="239" y="-7.5" font-family="Helvetica,sans-Serif" font-size="10.00">Solver::energy</text>
</a>
</g>
</g>
<!-- Node1&#45;&gt;Node2 -->
<g id="edge1" class="edge"><title>Node1&#45;&gt;Node2</title>
<path fill="none" stroke="midnightblue" d="M128.301,-21C136.635,-21 145.225,-21 153.757,-21"/>
<polygon fill="midnightblue" stroke="midnightblue" points="128.284,-17.5001 118.284,-21 128.284,-24.5001 128.284,-17.5001"/>
</g>
</g>
</svg>
