<?xml version="1.0" encoding="UTF-8" standalone="no"?>
<!DOCTYPE svg PUBLIC "-//W3C//DTD SVG 1.1//EN"
 "http://www.w3.org/Graphics/SVG/1.1/DTD/svg11.dtd">
<!-- Generated by graphviz version 2.38.0 (20140413.2041)
 -->
<!-- Title: simple_physics_solver::evaluate_internal_e_field Pages: 1 -->
<svg width="502pt" height="110pt"
 viewBox="0.00 0.00 502.00 110.00" xmlns="http://www.w3.org/2000/svg" xmlns:xlink="http://www.w3.org/1999/xlink">
<g id="graph0" class="graph" transform="scale(1 1) rotate(0) translate(4 106)">
<title>simple_physics_solver::evaluate_internal_e_field</title>
<polygon fill="white" stroke="none" points="-4,4 -4,-106 498,-106 498,4 -4,4"/>
<!-- Node1 -->
<g id="node1" class="node"><title>Node1</title>
<polygon fill="#bfbfbf" stroke="black" points="0,-37 0,-67 134,-67 134,-37 0,-37"/>
<text text-anchor="start" x="8" y="-55" font-family="Helvetica,sans-Serif" font-size="10.00">simple_physics_solver</text>
<text text-anchor="middle" x="67" y="-44" font-family="Helvetica,sans-Serif" font-size="10.00">::evaluate_internal_e_field</text>
</g>
<!-- Node2 -->
<g id="node2" class="node"><title>Node2</title>
<g id="a_node2"><a xlink:href="../../d3/d58/group__ExternalSolver.html#ga35a08082721768fea4430beb933878fe" target="_top" xlink:title="simple_physics_solver\l::compute_energy">
<polygon fill="white" stroke="black" points="170,-63 170,-93 288,-93 288,-63 170,-63"/>
<text text-anchor="start" x="178" y="-81" font-family="Helvetica,sans-Serif" font-size="10.00">simple_physics_solver</text>
<text text-anchor="middle" x="229" y="-70" font-family="Helvetica,sans-Serif" font-size="10.00">::compute_energy</text>
</a>
</g>
</g>
<!-- Node1&#45;&gt;Node2 -->
<g id="edge1" class="edge"><title>Node1&#45;&gt;Node2</title>
<path fill="none" stroke="midnightblue" d="M144.102,-64.3665C152.75,-65.7718 161.458,-67.187 169.823,-68.5462"/>
<polygon fill="midnightblue" stroke="midnightblue" points="144.434,-60.8747 134.002,-62.7253 143.311,-67.784 144.434,-60.8747"/>
</g>
<!-- Node4 -->
<g id="node4" class="node"><title>Node4</title>
<g id="a_node4"><a xlink:href="../../d3/d58/group__ExternalSolver.html#ga62eb48c2baa39269409b587b30e61cf5" target="_top" xlink:title="simple_physics_solver\l::evaluate_e_field">
<polygon fill="white" stroke="black" points="170,-11 170,-41 288,-41 288,-11 170,-11"/>
<text text-anchor="start" x="178" y="-29" font-family="Helvetica,sans-Serif" font-size="10.00">simple_physics_solver</text>
<text text-anchor="middle" x="229" y="-18" font-family="Helvetica,sans-Serif" font-size="10.00">::evaluate_e_field</text>
</a>
</g>
</g>
<!-- Node1&#45;&gt;Node4 -->
<g id="edge3" class="edge"><title>Node1&#45;&gt;Node4</title>
<path fill="none" stroke="midnightblue" d="M144.102,-39.6335C152.75,-38.2282 161.458,-36.813 169.823,-35.4538"/>
<polygon fill="midnightblue" stroke="midnightblue" points="143.311,-36.216 134.002,-41.2747 144.434,-43.1253 143.311,-36.216"/>
</g>
<!-- Node3 -->
<g id="node3" class="node"><title>Node3</title>
<g id="a_node3"><a xlink:href="../../d0/d84/classpfasst_1_1examples_1_1boris_1_1bindings_1_1WrapperSimplePhysicsSolver.html#a15f1fd094873a0f6ab40a444ea3ccfbf" target="_top" xlink:title="pfasst::examples::boris\l::bindings::WrapperSimplePhysics\lSolver::energy">
<polygon fill="white" stroke="black" points="324,-60.5 324,-101.5 494,-101.5 494,-60.5 324,-60.5"/>
<text text-anchor="start" x="332" y="-89.5" font-family="Helvetica,sans-Serif" font-size="10.00">pfasst::examples::boris</text>
<text text-anchor="start" x="332" y="-78.5" font-family="Helvetica,sans-Serif" font-size="10.00">::bindings::WrapperSimplePhysics</text>
<text text-anchor="middle" x="409" y="-67.5" font-family="Helvetica,sans-Serif" font-size="10.00">Solver::energy</text>
</a>
</g>
</g>
<!-- Node2&#45;&gt;Node3 -->
<g id="edge2" class="edge"><title>Node2&#45;&gt;Node3</title>
<path fill="none" stroke="midnightblue" d="M298.301,-79.1511C306.635,-79.2916 315.225,-79.4364 323.757,-79.5802"/>
<polygon fill="midnightblue" stroke="midnightblue" points="298.341,-75.6514 288.284,-78.9823 298.223,-82.6504 298.341,-75.6514"/>
</g>
<!-- Node5 -->
<g id="node5" class="node"><title>Node5</title>
<g id="a_node5"><a xlink:href="../../d0/d84/classpfasst_1_1examples_1_1boris_1_1bindings_1_1WrapperSimplePhysicsSolver.html#afcf4adbdf93953882bb4f1f3a0c955be" target="_top" xlink:title="pfasst::examples::boris\l::bindings::WrapperSimplePhysics\lSolver::e_field_evaluate">
<polygon fill="white" stroke="black" points="324,-0.5 324,-41.5 494,-41.5 494,-0.5 324,-0.5"/>
<text text-anchor="start" x="332" y="-29.5" font-family="Helvetica,sans-Serif" font-size="10.00">pfasst::examples::boris</text>
<text text-anchor="start" x="332" y="-18.5" font-family="Helvetica,sans-Serif" font-size="10.00">::bindings::WrapperSimplePhysics</text>
<text text-anchor="middle" x="409" y="-7.5" font-family="Helvetica,sans-Serif" font-size="10.00">Solver::e_field_evaluate</text>
</a>
</g>
</g>
<!-- Node4&#45;&gt;Node5 -->
<g id="edge4" class="edge"><title>Node4&#45;&gt;Node5</title>
<path fill="none" stroke="midnightblue" d="M298.301,-24.0814C306.635,-23.8473 315.225,-23.606 323.757,-23.3664"/>
<polygon fill="midnightblue" stroke="midnightblue" points="298.182,-20.5833 288.284,-24.3628 298.378,-27.5805 298.182,-20.5833"/>
</g>
</g>
</svg>
