<?xml version="1.0" encoding="UTF-8" standalone="no"?>
<!DOCTYPE svg PUBLIC "-//W3C//DTD SVG 1.1//EN"
 "http://www.w3.org/Graphics/SVG/1.1/DTD/svg11.dtd">
<!-- Generated by graphviz version 2.38.0 (20140413.2041)
 -->
<!-- Title: simple_physics_solver::evaluate_e_field Pages: 1 -->
<svg width="454pt" height="94pt"
 viewBox="0.00 0.00 454.00 93.50" xmlns="http://www.w3.org/2000/svg" xmlns:xlink="http://www.w3.org/1999/xlink">
<g id="graph0" class="graph" transform="scale(1 1) rotate(0) translate(4 89.5)">
<title>simple_physics_solver::evaluate_e_field</title>
<polygon fill="white" stroke="none" points="-4,4 -4,-89.5 450,-89.5 450,4 -4,4"/>
<!-- Node1 -->
<g id="node1" class="node"><title>Node1</title>
<polygon fill="#bfbfbf" stroke="black" points="0,-24.5 0,-54.5 118,-54.5 118,-24.5 0,-24.5"/>
<text text-anchor="start" x="8" y="-42.5" font-family="Helvetica,sans-Serif" font-size="10.00">simple_physics_solver</text>
<text text-anchor="middle" x="59" y="-31.5" font-family="Helvetica,sans-Serif" font-size="10.00">::evaluate_e_field</text>
</g>
<!-- Node2 -->
<g id="node2" class="node"><title>Node2</title>
<g id="a_node2"><a xlink:href="../../d3/d58/group__ExternalSolver.html#gaf772294be99b782e400e0f19c4bccf45" target="_top" xlink:title="simple_physics_solver\l::evaluate_external_e_field">
<polygon fill="white" stroke="black" points="154,-49.5 154,-79.5 292,-79.5 292,-49.5 154,-49.5"/>
<text text-anchor="start" x="162" y="-67.5" font-family="Helvetica,sans-Serif" font-size="10.00">simple_physics_solver</text>
<text text-anchor="middle" x="223" y="-56.5" font-family="Helvetica,sans-Serif" font-size="10.00">::evaluate_external_e_field</text>
</a>
</g>
</g>
<!-- Node1&#45;&gt;Node2 -->
<g id="edge1" class="edge"><title>Node1&#45;&gt;Node2</title>
<path fill="none" stroke="midnightblue" d="M118.028,-48.455C126.381,-49.7439 135.089,-51.0878 143.754,-52.4251"/>
<polygon fill="midnightblue" stroke="midnightblue" points="143.467,-55.9221 153.884,-53.9883 144.535,-49.004 143.467,-55.9221"/>
</g>
<!-- Node4 -->
<g id="node4" class="node"><title>Node4</title>
<g id="a_node4"><a xlink:href="../../d3/d58/group__ExternalSolver.html#gaa7b26227dd0c6353a2a7a668a04cdee9" target="_top" xlink:title="simple_physics_solver\l::evaluate_internal_e_field">
<polygon fill="white" stroke="black" points="156,-0.5 156,-30.5 290,-30.5 290,-0.5 156,-0.5"/>
<text text-anchor="start" x="164" y="-18.5" font-family="Helvetica,sans-Serif" font-size="10.00">simple_physics_solver</text>
<text text-anchor="middle" x="223" y="-7.5" font-family="Helvetica,sans-Serif" font-size="10.00">::evaluate_internal_e_field</text>
</a>
</g>
</g>
<!-- Node1&#45;&gt;Node4 -->
<g id="edge3" class="edge"><title>Node1&#45;&gt;Node4</title>
<path fill="none" stroke="midnightblue" d="M118.028,-30.9032C127.029,-29.5698 136.443,-28.1752 145.771,-26.7931"/>
<polygon fill="midnightblue" stroke="midnightblue" points="146.458,-30.2297 155.837,-25.3019 145.432,-23.3052 146.458,-30.2297"/>
</g>
<!-- Node3 -->
<g id="node3" class="node"><title>Node3</title>
<g id="a_node3"><a xlink:href="../../d0/d8f/namespacesimple__physics__solver_1_1internal.html#a62af8164189043e45b614c913eda3b94" target="_top" xlink:title="simple_physics_solver\l::internal::scale_mat\l_mul_vec">
<polygon fill="white" stroke="black" points="328,-44 328,-85 446,-85 446,-44 328,-44"/>
<text text-anchor="start" x="336" y="-73" font-family="Helvetica,sans-Serif" font-size="10.00">simple_physics_solver</text>
<text text-anchor="start" x="336" y="-62" font-family="Helvetica,sans-Serif" font-size="10.00">::internal::scale_mat</text>
<text text-anchor="middle" x="387" y="-51" font-family="Helvetica,sans-Serif" font-size="10.00">_mul_vec</text>
</a>
</g>
</g>
<!-- Node2&#45;&gt;Node3 -->
<g id="edge2" class="edge"><title>Node2&#45;&gt;Node3</title>
<path fill="none" stroke="midnightblue" d="M292.233,-64.5C300.655,-64.5 309.266,-64.5 317.69,-64.5"/>
<polygon fill="midnightblue" stroke="midnightblue" points="317.846,-68.0001 327.846,-64.5 317.846,-61.0001 317.846,-68.0001"/>
</g>
</g>
</svg>
