<?xml version="1.0" encoding="UTF-8" standalone="no"?>
<!DOCTYPE svg PUBLIC "-//W3C//DTD SVG 1.1//EN"
 "http://www.w3.org/Graphics/SVG/1.1/DTD/svg11.dtd">
<!-- Generated by graphviz version 2.38.0 (20140413.2041)
 -->
<!-- Title: main Pages: 1 -->
<!--zoomable 629 -->
<svg id="main" version="1.1" xmlns="http://www.w3.org/2000/svg" xmlns:xlink="http://www.w3.org/1999/xlink" xml:space="preserve" onload="init(evt)">
<style type="text/css"><![CDATA[
.edge:hover path { stroke: red; }
.edge:hover polygon { stroke: red; fill: red; }
]]></style>
<script type="text/javascript"><![CDATA[
var edges = document.getElementsByTagName('g');
if (edges && edges.length) {
  for (var i=0;i<edges.length;i++) {
    if (edges[i].id.substr(0,4)=='edge') {
      edges[i].setAttribute('class','edge');
    }
  }
}
]]></script>
        <defs>
                <circle id="rim" cx="0" cy="0" r="7"/>
                <circle id="rim2" cx="0" cy="0" r="3.5"/>
                <g id="zoomPlus">
                        <use xlink:href="#rim" fill="#404040">
                                <set attributeName="fill" to="#808080" begin="zoomplus.mouseover" end="zoomplus.mouseout"/>
                        </use>
                        <path d="M-4,0h8M0,-4v8" fill="none" stroke="white" stroke-width="1.5" pointer-events="none"/>
                </g>
                <g id="zoomMin">
                        <use xlink:href="#rim" fill="#404040">
                                <set attributeName="fill" to="#808080" begin="zoomminus.mouseover" end="zoomminus.mouseout"/>
                        </use>
                        <path d="M-4,0h8" fill="none" stroke="white" stroke-width="1.5" pointer-events="none"/>
                </g>
                <g id="dirArrow">
                        <path fill="none" stroke="white" stroke-width="1.5" d="M0,-3.0v7 M-2.5,-0.5L0,-3.0L2.5,-0.5"/>
                </g>
               <g id="resetDef">
                       <use xlink:href="#rim2" fill="#404040">
                               <set attributeName="fill" to="#808080" begin="reset.mouseover" end="reset.mouseout"/>
                       </use>
               </g>
        </defs>

<script type="text/javascript">
var viewWidth = 1363;
var viewHeight = 629;
var sectionId = 'dynsection-1';
</script>
<script xlink:href="../../svgpan.js"/>
<svg id="graph" class="graph">
<g id="viewport">
<title>main</title>
<polygon fill="white" stroke="none" points="-4,4 -4,-624.5 1359,-624.5 1359,4 -4,4"/>
<!-- Node1 -->
<g id="node1" class="node"><title>Node1</title>
<polygon fill="#bfbfbf" stroke="black" points="0,-351.5 0,-370.5 38,-370.5 38,-351.5 0,-351.5"/>
<text text-anchor="middle" x="19" y="-358.5" font-family="Helvetica,sans-Serif" font-size="10.00">main</text>
</g>
<!-- Node2 -->
<g id="node2" class="node"><title>Node2</title>
<g id="a_node2"><a xlink:href="../../dc/d57/namespacepfasst.html#a2ad4b6987b5c66b90166f77fc4230e92" target="_top" xlink:title="pfasst::init">
<polygon fill="white" stroke="black" points="115,-469.5 115,-488.5 176,-488.5 176,-469.5 115,-469.5"/>
<text text-anchor="middle" x="145.5" y="-476.5" font-family="Helvetica,sans-Serif" font-size="10.00">pfasst::init</text>
</a>
</g>
</g>
<!-- Node1&#45;&gt;Node2 -->
<g id="edge1" class="edge"><title>Node1&#45;&gt;Node2</title>
<path fill="none" stroke="midnightblue" d="M30.1884,-370.656C51.3457,-390.709 100.27,-437.079 126.734,-462.162"/>
<polygon fill="midnightblue" stroke="midnightblue" points="124.505,-464.871 134.171,-469.21 129.321,-459.791 124.505,-464.871"/>
</g>
<!-- Node16 -->
<g id="node16" class="node"><title>Node16</title>
<g id="a_node16"><a xlink:href="../../d9/d85/group__AdvectionDiffusion.html#gacf2af7cceb96a5587032bc0e83b93e00" target="_top" xlink:title="Advection/diffusion example using an encapsulated IMEX sweeper. ">
<polygon fill="white" stroke="black" points="74,-229 74,-259 217,-259 217,-229 74,-229"/>
<text text-anchor="start" x="82" y="-247" font-family="Helvetica,sans-Serif" font-size="10.00">pfasst::examples::advection</text>
<text text-anchor="middle" x="145.5" y="-236" font-family="Helvetica,sans-Serif" font-size="10.00">_diffusion::run_mpi_pfasst</text>
</a>
</g>
</g>
<!-- Node1&#45;&gt;Node16 -->
<g id="edge20" class="edge"><title>Node1&#45;&gt;Node16</title>
<path fill="none" stroke="midnightblue" d="M30.1884,-351.425C49.8512,-332.947 93.4968,-291.931 120.808,-266.265"/>
<polygon fill="midnightblue" stroke="midnightblue" points="123.489,-268.548 128.379,-259.15 118.695,-263.447 123.489,-268.548"/>
</g>
<!-- Node3 -->
<g id="node3" class="node"><title>Node3</title>
<g id="a_node3"><a xlink:href="../../d3/d91/namespacepfasst_1_1config.html#a5eaff8155eff1d5f8fe5cf2034b12422" target="_top" xlink:title="Read and parse command line parameters. ">
<polygon fill="white" stroke="black" points="295.5,-527 295.5,-557 398.5,-557 398.5,-527 295.5,-527"/>
<text text-anchor="start" x="303.5" y="-545" font-family="Helvetica,sans-Serif" font-size="10.00">pfasst::config::read</text>
<text text-anchor="middle" x="347" y="-534" font-family="Helvetica,sans-Serif" font-size="10.00">_commandline</text>
</a>
</g>
</g>
<!-- Node2&#45;&gt;Node3 -->
<g id="edge2" class="edge"><title>Node2&#45;&gt;Node3</title>
<path fill="none" stroke="midnightblue" d="M176.367,-488.432C206.002,-497.79 252.176,-512.371 288.871,-523.959"/>
<polygon fill="midnightblue" stroke="midnightblue" points="287.873,-527.315 298.463,-526.988 289.981,-520.639 287.873,-527.315"/>
</g>
<!-- Node7 -->
<g id="node7" class="node"><title>Node7</title>
<g id="a_node7"><a xlink:href="../../de/d8c/group__Internals.html#ga73cf933834ba5e5141119310aee971b9" target="_top" xlink:title="Starts easylogging++ with given arguments and loads configuration. ">
<polygon fill="white" stroke="black" points="293.5,-469.5 293.5,-488.5 400.5,-488.5 400.5,-469.5 293.5,-469.5"/>
<text text-anchor="middle" x="347" y="-476.5" font-family="Helvetica,sans-Serif" font-size="10.00">pfasst::log::start_log</text>
</a>
</g>
</g>
<!-- Node2&#45;&gt;Node7 -->
<g id="edge6" class="edge"><title>Node2&#45;&gt;Node7</title>
<path fill="none" stroke="midnightblue" d="M176.367,-479C204.464,-479 247.427,-479 283.084,-479"/>
<polygon fill="midnightblue" stroke="midnightblue" points="283.408,-482.5 293.408,-479 283.408,-475.5 283.408,-482.5"/>
</g>
<!-- Node4 -->
<g id="node4" class="node"><title>Node4</title>
<g id="a_node4"><a xlink:href="../../d3/d91/namespacepfasst_1_1config.html#a717f3272ec67e59af97e711397beeb29" target="_top" xlink:title="Read config parameters from file. ">
<polygon fill="white" stroke="black" points="488,-590 488,-620 591,-620 591,-590 488,-590"/>
<text text-anchor="start" x="496" y="-608" font-family="Helvetica,sans-Serif" font-size="10.00">pfasst::config::read</text>
<text text-anchor="middle" x="539.5" y="-597" font-family="Helvetica,sans-Serif" font-size="10.00">_config_file</text>
</a>
</g>
</g>
<!-- Node3&#45;&gt;Node4 -->
<g id="edge3" class="edge"><title>Node3&#45;&gt;Node4</title>
<path fill="none" stroke="midnightblue" d="M393.629,-557.09C420.51,-565.98 454.706,-577.289 483.124,-586.687"/>
<polygon fill="midnightblue" stroke="midnightblue" points="482.32,-590.107 492.913,-589.924 484.518,-583.461 482.32,-590.107"/>
</g>
<!-- Node5 -->
<g id="node5" class="node"><title>Node5</title>
<g id="a_node5"><a xlink:href="../../d3/d91/namespacepfasst_1_1config.html#a69bf5d072b24805ad0004d40bcd2744e" target="_top" xlink:title="Get MPI rank during initialization. ">
<polygon fill="white" stroke="black" points="1234,-529.5 1234,-548.5 1355,-548.5 1355,-529.5 1234,-529.5"/>
<text text-anchor="middle" x="1294.5" y="-536.5" font-family="Helvetica,sans-Serif" font-size="10.00">pfasst::config::get_rank</text>
</a>
</g>
</g>
<!-- Node3&#45;&gt;Node5 -->
<g id="edge4" class="edge"><title>Node3&#45;&gt;Node5</title>
<path fill="none" stroke="midnightblue" d="M398.595,-546.455C466.851,-552.07 592.246,-561 699.5,-561 699.5,-561 699.5,-561 1009,-561 1082.49,-561 1166.34,-553.613 1223.87,-547.4"/>
<polygon fill="midnightblue" stroke="midnightblue" points="1224.38,-550.865 1233.94,-546.295 1223.61,-543.907 1224.38,-550.865"/>
</g>
<!-- Node6 -->
<g id="node6" class="node"><title>Node6</title>
<g id="a_node6"><a xlink:href="../../d3/d91/namespacepfasst_1_1config.html#ad40fd72bbe8905d32032195b313b7d06" target="_top" xlink:title="Compile basic help and usage information. ">
<polygon fill="white" stroke="black" points="477.5,-513.5 477.5,-532.5 601.5,-532.5 601.5,-513.5 477.5,-513.5"/>
<text text-anchor="middle" x="539.5" y="-520.5" font-family="Helvetica,sans-Serif" font-size="10.00">pfasst::config::print_help</text>
</a>
</g>
</g>
<!-- Node3&#45;&gt;Node6 -->
<g id="edge5" class="edge"><title>Node3&#45;&gt;Node6</title>
<path fill="none" stroke="midnightblue" d="M398.55,-536.958C419.578,-534.861 444.366,-532.389 467.191,-530.112"/>
<polygon fill="midnightblue" stroke="midnightblue" points="467.574,-533.591 477.177,-529.116 466.879,-526.626 467.574,-533.591"/>
</g>
<!-- Node8 -->
<g id="node8" class="node"><title>Node8</title>
<g id="a_node8"><a xlink:href="../../de/d8c/group__Internals.html#gaabd9df9fe7db34deb4ec893d6b0b7fa2" target="_top" xlink:title="Sets some default flags for easylogging++. ">
<polygon fill="white" stroke="black" points="478.5,-415 478.5,-445 600.5,-445 600.5,-415 478.5,-415"/>
<text text-anchor="start" x="486.5" y="-433" font-family="Helvetica,sans-Serif" font-size="10.00">pfasst::log::set_logging</text>
<text text-anchor="middle" x="539.5" y="-422" font-family="Helvetica,sans-Serif" font-size="10.00">_flags</text>
</a>
</g>
</g>
<!-- Node7&#45;&gt;Node8 -->
<g id="edge7" class="edge"><title>Node7&#45;&gt;Node8</title>
<path fill="none" stroke="midnightblue" d="M399.369,-469.433C412.964,-466.648 427.588,-463.425 441,-460 454.67,-456.509 469.274,-452.286 482.907,-448.124"/>
<polygon fill="midnightblue" stroke="midnightblue" points="484.115,-451.414 492.634,-445.116 482.047,-444.726 484.115,-451.414"/>
</g>
<!-- Node9 -->
<g id="node9" class="node"><title>Node9</title>
<g id="a_node9"><a xlink:href="../../de/d8c/group__Internals.html#ga94bc88666f61bcc6d85072e6dfdd21f4" target="_top" xlink:title="Sets default configuration for default loggers. ">
<polygon fill="white" stroke="black" points="477,-464 477,-494 602,-494 602,-464 477,-464"/>
<text text-anchor="start" x="485" y="-482" font-family="Helvetica,sans-Serif" font-size="10.00">pfasst::log::load_default</text>
<text text-anchor="middle" x="539.5" y="-471" font-family="Helvetica,sans-Serif" font-size="10.00">_config</text>
</a>
</g>
</g>
<!-- Node7&#45;&gt;Node9 -->
<g id="edge8" class="edge"><title>Node7&#45;&gt;Node9</title>
<path fill="none" stroke="midnightblue" d="M400.559,-479C420.905,-479 444.527,-479 466.413,-479"/>
<polygon fill="midnightblue" stroke="midnightblue" points="466.66,-482.5 476.66,-479 466.66,-475.5 466.66,-482.5"/>
</g>
<!-- Node10 -->
<g id="node10" class="node"><title>Node10</title>
<g id="a_node10"><a xlink:href="../../de/d8c/group__Internals.html#ga2f4ba84c8482c3fb5c86e599804f832a" target="_top" xlink:title="Sets global logging options. ">
<polygon fill="white" stroke="black" points="799,-483 799,-513 915,-513 915,-483 799,-483"/>
<text text-anchor="start" x="807" y="-501" font-family="Helvetica,sans-Serif" font-size="10.00">pfasst::log::set_global</text>
<text text-anchor="middle" x="857" y="-490" font-family="Helvetica,sans-Serif" font-size="10.00">_logging_options</text>
</a>
</g>
</g>
<!-- Node9&#45;&gt;Node10 -->
<g id="edge9" class="edge"><title>Node9&#45;&gt;Node10</title>
<path fill="none" stroke="midnightblue" d="M602.081,-482.708C655.766,-485.942 733.48,-490.622 788.77,-493.951"/>
<polygon fill="midnightblue" stroke="midnightblue" points="788.63,-497.449 798.822,-494.557 789.051,-490.462 788.63,-497.449"/>
</g>
<!-- Node15 -->
<g id="node15" class="node"><title>Node15</title>
<g id="a_node15"><a xlink:href="../../da/d50/namespacepfasst_1_1log.html#a8502afef42b4e98a12249d5fa1fed092" target="_top" xlink:title="Provides convenient way of adding additional named loggers. ">
<polygon fill="white" stroke="black" points="638,-439 638,-469 763,-469 763,-439 638,-439"/>
<text text-anchor="start" x="646" y="-457" font-family="Helvetica,sans-Serif" font-size="10.00">pfasst::log::add_custom</text>
<text text-anchor="middle" x="700.5" y="-446" font-family="Helvetica,sans-Serif" font-size="10.00">_logger</text>
</a>
</g>
</g>
<!-- Node9&#45;&gt;Node15 -->
<g id="edge15" class="edge"><title>Node9&#45;&gt;Node15</title>
<path fill="none" stroke="midnightblue" d="M602.429,-469.263C610.764,-467.952 619.371,-466.599 627.857,-465.265"/>
<polygon fill="midnightblue" stroke="midnightblue" points="628.405,-468.722 637.74,-463.711 627.318,-461.806 628.405,-468.722"/>
</g>
<!-- Node11 -->
<g id="node11" class="node"><title>Node11</title>
<g id="a_node11"><a xlink:href="../../da/d27/classpfasst_1_1config_1_1options.html#a4f130f9b500d6f3dee7df20894233608" target="_top" xlink:title="Accessor to the singleton instance. ">
<polygon fill="white" stroke="black" points="951,-453 951,-483 1065,-483 1065,-453 951,-453"/>
<text text-anchor="start" x="959" y="-471" font-family="Helvetica,sans-Serif" font-size="10.00">pfasst::config::options</text>
<text text-anchor="middle" x="1008" y="-460" font-family="Helvetica,sans-Serif" font-size="10.00">::get_instance</text>
</a>
</g>
</g>
<!-- Node10&#45;&gt;Node11 -->
<g id="edge10" class="edge"><title>Node10&#45;&gt;Node11</title>
<path fill="none" stroke="midnightblue" d="M915.181,-486.487C923.557,-484.801 932.242,-483.052 940.781,-481.333"/>
<polygon fill="midnightblue" stroke="midnightblue" points="941.597,-484.739 950.709,-479.334 940.215,-477.876 941.597,-484.739"/>
</g>
<!-- Node12 -->
<g id="node12" class="node"><title>Node12</title>
<g id="a_node12"><a xlink:href="../../da/d27/classpfasst_1_1config_1_1options.html#a9ad40d67da1066f5053e47e278b3b154" target="_top" xlink:title="pfasst::config::options\l::get_variables_map">
<polygon fill="white" stroke="black" points="951,-404 951,-434 1065,-434 1065,-404 951,-404"/>
<text text-anchor="start" x="959" y="-422" font-family="Helvetica,sans-Serif" font-size="10.00">pfasst::config::options</text>
<text text-anchor="middle" x="1008" y="-411" font-family="Helvetica,sans-Serif" font-size="10.00">::get_variables_map</text>
</a>
</g>
</g>
<!-- Node10&#45;&gt;Node12 -->
<g id="edge11" class="edge"><title>Node10&#45;&gt;Node12</title>
<path fill="none" stroke="midnightblue" d="M882.471,-482.833C900.999,-471.586 927.233,-456.162 951,-444 954.732,-442.09 958.641,-440.177 962.584,-438.305"/>
<polygon fill="midnightblue" stroke="midnightblue" points="964.181,-441.423 971.779,-434.038 961.234,-435.073 964.181,-441.423"/>
</g>
<!-- Node13 -->
<g id="node13" class="node"><title>Node13</title>
<g id="a_node13"><a xlink:href="../../de/d8c/group__Internals.html#ga74a6cd18764de8c81da478a7eb33ee4a" target="_top" xlink:title="Composes the log file name for the local rank. ">
<polygon fill="white" stroke="black" points="956.5,-502 956.5,-532 1059.5,-532 1059.5,-502 956.5,-502"/>
<text text-anchor="start" x="964.5" y="-520" font-family="Helvetica,sans-Serif" font-size="10.00">pfasst::log::get_log</text>
<text text-anchor="middle" x="1008" y="-509" font-family="Helvetica,sans-Serif" font-size="10.00">_file_name</text>
</a>
</g>
</g>
<!-- Node10&#45;&gt;Node13 -->
<g id="edge12" class="edge"><title>Node10&#45;&gt;Node13</title>
<path fill="none" stroke="midnightblue" d="M915.181,-505.292C925.276,-506.579 935.819,-507.923 946.013,-509.223"/>
<polygon fill="midnightblue" stroke="midnightblue" points="945.699,-512.711 956.061,-510.504 946.584,-505.768 945.699,-512.711"/>
</g>
<!-- Node14 -->
<g id="node14" class="node"><title>Node14</title>
<g id="a_node14"><a xlink:href="../../de/d8c/group__Internals.html#ga2fbecb551eda65e49c93122c05142aec" target="_top" xlink:title="Formats the local MPI world rank as a string. ">
<polygon fill="white" stroke="black" points="1101,-502 1101,-532 1198,-532 1198,-502 1101,-502"/>
<text text-anchor="start" x="1109" y="-520" font-family="Helvetica,sans-Serif" font-size="10.00">pfasst::log::format</text>
<text text-anchor="middle" x="1149.5" y="-509" font-family="Helvetica,sans-Serif" font-size="10.00">_mpi_rank</text>
</a>
</g>
</g>
<!-- Node13&#45;&gt;Node14 -->
<g id="edge13" class="edge"><title>Node13&#45;&gt;Node14</title>
<path fill="none" stroke="midnightblue" d="M1059.76,-517C1069.81,-517 1080.43,-517 1090.69,-517"/>
<polygon fill="midnightblue" stroke="midnightblue" points="1090.8,-520.5 1100.8,-517 1090.8,-513.5 1090.8,-520.5"/>
</g>
<!-- Node14&#45;&gt;Node5 -->
<g id="edge14" class="edge"><title>Node14&#45;&gt;Node5</title>
<path fill="none" stroke="midnightblue" d="M1198.12,-524.326C1206.35,-525.592 1215.06,-526.933 1223.74,-528.268"/>
<polygon fill="midnightblue" stroke="midnightblue" points="1223.46,-531.766 1233.88,-529.828 1224.53,-524.848 1223.46,-531.766"/>
</g>
<!-- Node15&#45;&gt;Node10 -->
<g id="edge19" class="edge"><title>Node15&#45;&gt;Node10</title>
<path fill="none" stroke="midnightblue" d="M754.238,-469.019C766.847,-472.61 780.427,-476.478 793.431,-480.181"/>
<polygon fill="midnightblue" stroke="midnightblue" points="792.661,-483.601 803.238,-482.974 794.579,-476.869 792.661,-483.601"/>
</g>
<!-- Node15&#45;&gt;Node11 -->
<g id="edge16" class="edge"><title>Node15&#45;&gt;Node11</title>
<path fill="none" stroke="midnightblue" d="M763.322,-456.833C814.811,-459.193 887.97,-462.545 940.672,-464.96"/>
<polygon fill="midnightblue" stroke="midnightblue" points="940.778,-468.469 950.928,-465.43 941.098,-461.476 940.778,-468.469"/>
</g>
<!-- Node15&#45;&gt;Node12 -->
<g id="edge17" class="edge"><title>Node15&#45;&gt;Node12</title>
<path fill="none" stroke="midnightblue" d="M763.322,-446.917C814.811,-441.018 887.97,-432.637 940.672,-426.599"/>
<polygon fill="midnightblue" stroke="midnightblue" points="941.391,-430.04 950.928,-425.424 940.594,-423.085 941.391,-430.04"/>
</g>
<!-- Node15&#45;&gt;Node14 -->
<g id="edge18" class="edge"><title>Node15&#45;&gt;Node14</title>
<path fill="none" stroke="midnightblue" d="M728.416,-438.946C791.279,-405.966 951.049,-334.906 1065,-395 1103.79,-415.456 1128,-462.949 1139.81,-492.279"/>
<polygon fill="midnightblue" stroke="midnightblue" points="1136.62,-493.741 1143.47,-501.821 1143.15,-491.231 1136.62,-493.741"/>
</g>
<!-- Node17 -->
<g id="node17" class="node"><title>Node17</title>
<g id="a_node17"><a xlink:href="../../de/d84/namespacepfasst_1_1quadrature.html#ac4700c0b6dc90b32b3f8af4070d0e62d" target="_top" xlink:title="Instantiates quadrature handler for given number of nodes and type descriptor. ">
<polygon fill="white" stroke="black" points="293.5,-126 293.5,-156 400.5,-156 400.5,-126 293.5,-126"/>
<text text-anchor="start" x="301.5" y="-144" font-family="Helvetica,sans-Serif" font-size="10.00">pfasst::quadrature</text>
<text text-anchor="middle" x="347" y="-133" font-family="Helvetica,sans-Serif" font-size="10.00">::quadrature_factory</text>
</a>
</g>
</g>
<!-- Node16&#45;&gt;Node17 -->
<g id="edge21" class="edge"><title>Node16&#45;&gt;Node17</title>
<path fill="none" stroke="midnightblue" d="M162.524,-228.952C182.306,-211.165 217.682,-181.86 253,-165 262.465,-160.482 272.893,-156.735 283.24,-153.653"/>
<polygon fill="midnightblue" stroke="midnightblue" points="284.411,-156.96 293.1,-150.899 282.527,-150.218 284.411,-156.96"/>
</g>
<!-- Node18 -->
<g id="node18" class="node"><title>Node18</title>
<g id="a_node18"><a xlink:href="../../d4/da9/classpfasst_1_1Controller.html#a8f4f8f025572e57fc5975902a4118fa9" target="_top" xlink:title="Adding a level to the controller. ">
<polygon fill="white" stroke="black" points="301,-77 301,-107 393,-107 393,-77 301,-77"/>
<text text-anchor="start" x="309" y="-95" font-family="Helvetica,sans-Serif" font-size="10.00">pfasst::Controller</text>
<text text-anchor="middle" x="347" y="-84" font-family="Helvetica,sans-Serif" font-size="10.00">::add_level</text>
</a>
</g>
</g>
<!-- Node16&#45;&gt;Node18 -->
<g id="edge22" class="edge"><title>Node16&#45;&gt;Node18</title>
<path fill="none" stroke="midnightblue" d="M154.895,-228.891C170.568,-202.117 206.906,-146.401 253,-117 264.345,-109.764 277.749,-104.606 290.795,-100.936"/>
<polygon fill="midnightblue" stroke="midnightblue" points="291.843,-104.281 300.662,-98.4095 290.107,-97.4995 291.843,-104.281"/>
</g>
<!-- Node19 -->
<g id="node19" class="node"><title>Node19</title>
<g id="a_node19"><a xlink:href="../../db/d56/classpfasst_1_1MLSDC.html#ac6e9d00fcb9b7363239e98c3798a3025" target="_top" xlink:title="Basic setup routine for this controller. ">
<polygon fill="white" stroke="black" points="290,-38.5 290,-57.5 404,-57.5 404,-38.5 290,-38.5"/>
<text text-anchor="middle" x="347" y="-45.5" font-family="Helvetica,sans-Serif" font-size="10.00">pfasst::MLSDC::setup</text>
</a>
</g>
</g>
<!-- Node16&#45;&gt;Node19 -->
<g id="edge23" class="edge"><title>Node16&#45;&gt;Node19</title>
<path fill="none" stroke="midnightblue" d="M151.04,-228.889C162.228,-194.402 194.543,-109.665 253,-68 261.069,-62.2488 270.465,-58.0948 280.121,-55.1053"/>
<polygon fill="midnightblue" stroke="midnightblue" points="281.082,-58.4713 289.826,-52.4879 279.259,-51.7128 281.082,-58.4713"/>
</g>
<!-- Node20 -->
<g id="node20" class="node"><title>Node20</title>
<g id="a_node20"><a xlink:href="../../d4/deb/classpfasst_1_1PFASST.html#afed61a9d76fd45681fdd3aea0e14f078" target="_top" xlink:title="Set communicator. ">
<polygon fill="white" stroke="black" points="276,-0.5 276,-19.5 418,-19.5 418,-0.5 276,-0.5"/>
<text text-anchor="middle" x="347" y="-7.5" font-family="Helvetica,sans-Serif" font-size="10.00">pfasst::PFASST::set_comm</text>
</a>
</g>
</g>
<!-- Node16&#45;&gt;Node20 -->
<g id="edge24" class="edge"><title>Node16&#45;&gt;Node20</title>
<path fill="none" stroke="midnightblue" d="M149.261,-228.88C157.348,-189.189 184.847,-81.4801 253,-29 257.137,-25.8141 261.675,-23.1257 266.451,-20.8606"/>
<polygon fill="midnightblue" stroke="midnightblue" points="267.953,-24.0282 275.887,-17.0068 265.306,-17.5479 267.953,-24.0282"/>
</g>
<!-- Node21 -->
<g id="node21" class="node"><title>Node21</title>
<g id="a_node21"><a xlink:href="../../d4/da9/classpfasst_1_1Controller.html#af31a86d9ccd9db325532c5ae3a5764f0" target="_top" xlink:title="Set basic time scope of the Controller. ">
<polygon fill="white" stroke="black" points="301,-420 301,-450 393,-450 393,-420 301,-420"/>
<text text-anchor="start" x="309" y="-438" font-family="Helvetica,sans-Serif" font-size="10.00">pfasst::Controller</text>
<text text-anchor="middle" x="347" y="-427" font-family="Helvetica,sans-Serif" font-size="10.00">::set_duration</text>
</a>
</g>
</g>
<!-- Node16&#45;&gt;Node21 -->
<g id="edge25" class="edge"><title>Node16&#45;&gt;Node21</title>
<path fill="none" stroke="midnightblue" d="M151.752,-259.173C163.984,-292.189 197.619,-370.805 253,-411 264.076,-419.039 277.61,-424.39 290.887,-427.951"/>
<polygon fill="midnightblue" stroke="midnightblue" points="290.407,-431.434 300.945,-430.34 292.024,-424.624 290.407,-431.434"/>
</g>
<!-- Node22 -->
<g id="node22" class="node"><title>Node22</title>
<g id="a_node22"><a xlink:href="../../db/d56/classpfasst_1_1MLSDC.html#a2d2860bb1b993f01606de186e6455458" target="_top" xlink:title="Set desired number of sweeps for each level independently. ">
<polygon fill="white" stroke="black" points="295,-371 295,-401 399,-401 399,-371 295,-371"/>
<text text-anchor="start" x="303" y="-389" font-family="Helvetica,sans-Serif" font-size="10.00">pfasst::MLSDC::set</text>
<text text-anchor="middle" x="347" y="-378" font-family="Helvetica,sans-Serif" font-size="10.00">_nsweeps</text>
</a>
</g>
</g>
<!-- Node16&#45;&gt;Node22 -->
<g id="edge26" class="edge"><title>Node16&#45;&gt;Node22</title>
<path fill="none" stroke="midnightblue" d="M155.92,-259.27C172.379,-284.626 208.86,-335.266 253,-362 262.708,-367.879 273.827,-372.329 284.922,-375.694"/>
<polygon fill="midnightblue" stroke="midnightblue" points="284.058,-379.086 294.629,-378.379 285.924,-372.339 284.058,-379.086"/>
</g>
<!-- Node23 -->
<g id="node23" class="node"><title>Node23</title>
<g id="a_node23"><a xlink:href="../../d4/da9/classpfasst_1_1Controller.html#a842fcbd63bdcf3a38b562ef0200bf42c" target="_top" xlink:title="Get coarsest level. ">
<polygon fill="white" stroke="black" points="301,-322 301,-352 393,-352 393,-322 301,-322"/>
<text text-anchor="start" x="309" y="-340" font-family="Helvetica,sans-Serif" font-size="10.00">pfasst::Controller</text>
<text text-anchor="middle" x="347" y="-329" font-family="Helvetica,sans-Serif" font-size="10.00">::get_finest</text>
</a>
</g>
</g>
<!-- Node16&#45;&gt;Node23 -->
<g id="edge27" class="edge"><title>Node16&#45;&gt;Node23</title>
<path fill="none" stroke="midnightblue" d="M165.814,-259.274C186.353,-274.832 220.321,-298.652 253,-313 264.806,-318.184 277.966,-322.426 290.584,-325.822"/>
<polygon fill="midnightblue" stroke="midnightblue" points="289.995,-329.284 300.55,-328.366 291.727,-322.501 289.995,-329.284"/>
</g>
<!-- Node24 -->
<g id="node24" class="node"><title>Node24</title>
<g id="a_node24"><a xlink:href="../../d4/da9/classpfasst_1_1Controller.html#a6dba360b0794fb0cdde418d3ab1a160d" target="_top" xlink:title="Set options from command line etc. ">
<polygon fill="white" stroke="black" points="301,-273 301,-303 393,-303 393,-273 301,-273"/>
<text text-anchor="start" x="309" y="-291" font-family="Helvetica,sans-Serif" font-size="10.00">pfasst::Controller</text>
<text text-anchor="middle" x="347" y="-280" font-family="Helvetica,sans-Serif" font-size="10.00">::set_options</text>
</a>
</g>
</g>
<!-- Node16&#45;&gt;Node24 -->
<g id="edge28" class="edge"><title>Node16&#45;&gt;Node24</title>
<path fill="none" stroke="midnightblue" d="M214.599,-259.019C239.488,-264.509 267.311,-270.645 290.924,-275.853"/>
<polygon fill="midnightblue" stroke="midnightblue" points="290.246,-279.287 300.765,-278.023 291.754,-272.452 290.246,-279.287"/>
</g>
<!-- Node25 -->
<g id="node25" class="node"><title>Node25</title>
<g id="a_node25"><a xlink:href="../../d4/deb/classpfasst_1_1PFASST.html#aa3303053b9e0a111a2161eb9642538d7" target="_top" xlink:title="Solve ODE using PFASST. ">
<polygon fill="white" stroke="black" points="292.5,-234.5 292.5,-253.5 401.5,-253.5 401.5,-234.5 292.5,-234.5"/>
<text text-anchor="middle" x="347" y="-241.5" font-family="Helvetica,sans-Serif" font-size="10.00">pfasst::PFASST::run</text>
</a>
</g>
</g>
<!-- Node16&#45;&gt;Node25 -->
<g id="edge29" class="edge"><title>Node16&#45;&gt;Node25</title>
<path fill="none" stroke="midnightblue" d="M217.117,-244C238.309,-244 261.423,-244 282.151,-244"/>
<polygon fill="midnightblue" stroke="midnightblue" points="282.432,-247.5 292.432,-244 282.432,-240.5 282.432,-247.5"/>
</g>
<!-- Node27 -->
<g id="node27" class="node"><title>Node27</title>
<g id="a_node27"><a xlink:href="../../d2/dfe/classpfasst_1_1examples_1_1advection__diffusion_1_1AdvectionDiffusionSweeper.html#a7a3337385f19d68dda91c3d9c5d068a3" target="_top" xlink:title="pfasst::examples::advection\l_diffusion::AdvectionDiffusionSweeper\l::get_errors">
<polygon fill="white" stroke="black" points="253,-174.5 253,-215.5 441,-215.5 441,-174.5 253,-174.5"/>
<text text-anchor="start" x="261" y="-203.5" font-family="Helvetica,sans-Serif" font-size="10.00">pfasst::examples::advection</text>
<text text-anchor="start" x="261" y="-192.5" font-family="Helvetica,sans-Serif" font-size="10.00">_diffusion::AdvectionDiffusionSweeper</text>
<text text-anchor="middle" x="347" y="-181.5" font-family="Helvetica,sans-Serif" font-size="10.00">::get_errors</text>
</a>
</g>
</g>
<!-- Node16&#45;&gt;Node27 -->
<g id="edge31" class="edge"><title>Node16&#45;&gt;Node27</title>
<path fill="none" stroke="midnightblue" d="M207.712,-228.965C221.9,-225.481 237.317,-221.694 252.537,-217.956"/>
<polygon fill="midnightblue" stroke="midnightblue" points="253.62,-221.294 262.496,-215.51 251.95,-214.496 253.62,-221.294"/>
</g>
<!-- Node26 -->
<g id="node26" class="node"><title>Node26</title>
<g id="a_node26"><a xlink:href="../../db/d56/classpfasst_1_1MLSDC.html#a698768ef6d03e6432beea8c0c574c05b" target="_top" xlink:title="Solve ODE using MLSDC. ">
<polygon fill="white" stroke="black" points="487.5,-234.5 487.5,-253.5 591.5,-253.5 591.5,-234.5 487.5,-234.5"/>
<text text-anchor="middle" x="539.5" y="-241.5" font-family="Helvetica,sans-Serif" font-size="10.00">pfasst::MLSDC::run</text>
</a>
</g>
</g>
<!-- Node25&#45;&gt;Node26 -->
<g id="edge30" class="edge"><title>Node25&#45;&gt;Node26</title>
<path fill="none" stroke="midnightblue" d="M401.572,-244C425.067,-244 452.777,-244 477.102,-244"/>
<polygon fill="midnightblue" stroke="midnightblue" points="477.297,-247.5 487.297,-244 477.297,-240.5 477.297,-247.5"/>
</g>
</g>
</svg>
        <g id="navigator" transform="translate(0 0)" fill="#404254">
                <rect fill="#f2f5e9" fill-opacity="0.5" stroke="#606060" stroke-width=".5" x="0" y="0" width="60" height="60"/>
                <use id="zoomplus" xlink:href="#zoomPlus" x="17" y="9" onmousedown="handleZoom(evt,'in')"/>
                <use id="zoomminus" xlink:href="#zoomMin" x="42" y="9" onmousedown="handleZoom(evt,'out')"/>
                <use id="reset" xlink:href="#resetDef" x="30" y="36" onmousedown="handleReset()"/>
                <g id="arrowUp" xlink:href="#dirArrow" transform="translate(30 24)" onmousedown="handlePan(0,-1)">
                  <use xlink:href="#rim" fill="#404040">
                        <set attributeName="fill" to="#808080" begin="arrowUp.mouseover" end="arrowUp.mouseout"/>
                  </use>
                  <path fill="none" stroke="white" stroke-width="1.5" d="M0,-3.0v7 M-2.5,-0.5L0,-3.0L2.5,-0.5"/>
                </g>
                <g id="arrowRight" xlink:href="#dirArrow" transform="rotate(90) translate(36 -43)" onmousedown="handlePan(1,0)">
                  <use xlink:href="#rim" fill="#404040">
                        <set attributeName="fill" to="#808080" begin="arrowRight.mouseover" end="arrowRight.mouseout"/>
                  </use>
                  <path fill="none" stroke="white" stroke-width="1.5" d="M0,-3.0v7 M-2.5,-0.5L0,-3.0L2.5,-0.5"/>
                </g>
                <g id="arrowDown" xlink:href="#dirArrow" transform="rotate(180) translate(-30 -48)" onmousedown="handlePan(0,1)">
                  <use xlink:href="#rim" fill="#404040">
                        <set attributeName="fill" to="#808080" begin="arrowDown.mouseover" end="arrowDown.mouseout"/>
                  </use>
                  <path fill="none" stroke="white" stroke-width="1.5" d="M0,-3.0v7 M-2.5,-0.5L0,-3.0L2.5,-0.5"/>
                </g>
                <g id="arrowLeft" xlink:href="#dirArrow" transform="rotate(270) translate(-36 17)" onmousedown="handlePan(-1,0)">
                  <use xlink:href="#rim" fill="#404040">
                        <set attributeName="fill" to="#808080" begin="arrowLeft.mouseover" end="arrowLeft.mouseout"/>
                  </use>
                  <path fill="none" stroke="white" stroke-width="1.5" d="M0,-3.0v7 M-2.5,-0.5L0,-3.0L2.5,-0.5"/>
                </g>
        </g>
        <svg viewBox="0 0 15 15" width="100%" height="30px" preserveAspectRatio="xMaxYMin meet">
         <g id="arrow_out" transform="scale(0.3 0.3)">
          <a xlink:href="mpi__pfasst_8cpp_a3c04138a5bfe5d72780bb7e82a18e627_cgraph_org.svg" target="_base">
           <rect id="button" ry="5" rx="5" y="6" x="6" height="38" width="38"
                fill="#f2f5e9" fill-opacity="0.5" stroke="#606060" stroke-width="1.0"/>
           <path id="arrow"
             d="M 11.500037,31.436501 C 11.940474,20.09759 22.043105,11.32322 32.158766,21.979434 L 37.068811,17.246167 C 37.068811,17.246167 37.088388,32 37.088388,32 L 22.160133,31.978069 C 22.160133,31.978069 26.997745,27.140456 26.997745,27.140456 C 18.528582,18.264221 13.291696,25.230495 11.500037,31.436501 z"
             style="fill:#404040;"/>
          </a>
         </g>
        </svg>
</svg>
