<?xml version="1.0" encoding="UTF-8" standalone="no"?>
<!DOCTYPE svg PUBLIC "-//W3C//DTD SVG 1.1//EN"
 "http://www.w3.org/Graphics/SVG/1.1/DTD/svg11.dtd">
<!-- Generated by graphviz version 2.38.0 (20140413.2041)
 -->
<!-- Title: examples/boris/bindings/wrapper_simple_physics_solver.hpp Pages: 1 -->
<svg width="522pt" height="128pt"
 viewBox="0.00 0.00 521.50 128.00" xmlns="http://www.w3.org/2000/svg" xmlns:xlink="http://www.w3.org/1999/xlink">
<g id="graph0" class="graph" transform="scale(1 1) rotate(0) translate(4 124)">
<title>examples/boris/bindings/wrapper_simple_physics_solver.hpp</title>
<polygon fill="white" stroke="none" points="-4,4 -4,-124 517.5,-124 517.5,4 -4,4"/>
<!-- Node1 -->
<g id="node1" class="node"><title>Node1</title>
<polygon fill="#bfbfbf" stroke="black" points="138,-78.5 138,-119.5 267,-119.5 267,-78.5 138,-78.5"/>
<text text-anchor="start" x="146" y="-107.5" font-family="Helvetica,sans-Serif" font-size="10.00">examples/boris/bindings</text>
<text text-anchor="start" x="146" y="-96.5" font-family="Helvetica,sans-Serif" font-size="10.00">/wrapper_simple_physics</text>
<text text-anchor="middle" x="202.5" y="-85.5" font-family="Helvetica,sans-Serif" font-size="10.00">_solver.hpp</text>
</g>
<!-- Node2 -->
<g id="node2" class="node"><title>Node2</title>
<g id="a_node2"><a xlink:href="../../d5/d9e/wrapper__simple__physics__solver__impl_8hpp.html" target="_top" xlink:title="examples/boris/bindings\l/wrapper_simple_physics\l_solver_impl.hpp">
<polygon fill="white" stroke="black" points="0,-0.5 0,-41.5 129,-41.5 129,-0.5 0,-0.5"/>
<text text-anchor="start" x="8" y="-29.5" font-family="Helvetica,sans-Serif" font-size="10.00">examples/boris/bindings</text>
<text text-anchor="start" x="8" y="-18.5" font-family="Helvetica,sans-Serif" font-size="10.00">/wrapper_simple_physics</text>
<text text-anchor="middle" x="64.5" y="-7.5" font-family="Helvetica,sans-Serif" font-size="10.00">_solver_impl.hpp</text>
</a>
</g>
</g>
<!-- Node1&#45;&gt;Node2 -->
<g id="edge1" class="edge"><title>Node1&#45;&gt;Node2</title>
<path fill="none" stroke="midnightblue" d="M151.895,-73.6266C132.4,-63.2416 110.823,-51.2915 93.9357,-41.5056"/>
<polygon fill="midnightblue" stroke="midnightblue" points="150.497,-76.8469 160.973,-78.4281 153.77,-70.659 150.497,-76.8469"/>
</g>
<!-- Node3 -->
<g id="node3" class="node"><title>Node3</title>
<g id="a_node3"><a xlink:href="../../d7/d31/boris__mlsdc_8cpp.html" target="_top" xlink:title="examples/boris/boris\l_mlsdc.cpp">
<polygon fill="white" stroke="black" points="147.5,-6 147.5,-36 257.5,-36 257.5,-6 147.5,-6"/>
<text text-anchor="start" x="155.5" y="-24" font-family="Helvetica,sans-Serif" font-size="10.00">examples/boris/boris</text>
<text text-anchor="middle" x="202.5" y="-13" font-family="Helvetica,sans-Serif" font-size="10.00">_mlsdc.cpp</text>
</a>
</g>
</g>
<!-- Node1&#45;&gt;Node3 -->
<g id="edge3" class="edge"><title>Node1&#45;&gt;Node3</title>
<path fill="none" stroke="midnightblue" d="M202.5,-68.2829C202.5,-57.2536 202.5,-45.2457 202.5,-36.2254"/>
<polygon fill="midnightblue" stroke="midnightblue" points="199,-68.4281 202.5,-78.4281 206,-68.4281 199,-68.4281"/>
</g>
<!-- Node4 -->
<g id="node4" class="node"><title>Node4</title>
<g id="a_node4"><a xlink:href="../../d2/d1e/boris__pfasst_8cpp.html" target="_top" xlink:title="examples/boris/boris\l_pfasst.cpp">
<polygon fill="white" stroke="black" points="275.5,-6 275.5,-36 385.5,-36 385.5,-6 275.5,-6"/>
<text text-anchor="start" x="283.5" y="-24" font-family="Helvetica,sans-Serif" font-size="10.00">examples/boris/boris</text>
<text text-anchor="middle" x="330.5" y="-13" font-family="Helvetica,sans-Serif" font-size="10.00">_pfasst.cpp</text>
</a>
</g>
</g>
<!-- Node1&#45;&gt;Node4 -->
<g id="edge4" class="edge"><title>Node1&#45;&gt;Node4</title>
<path fill="none" stroke="midnightblue" d="M244.075,-73.3147C264.75,-61.0388 289,-46.6406 306.542,-36.2254"/>
<polygon fill="midnightblue" stroke="midnightblue" points="242.275,-70.3132 235.463,-78.4281 245.849,-76.3322 242.275,-70.3132"/>
</g>
<!-- Node5 -->
<g id="node5" class="node"><title>Node5</title>
<g id="a_node5"><a xlink:href="../../d3/d93/boris__sdc_8cpp.html" target="_top" xlink:title="examples/boris/boris\l_sdc.cpp">
<polygon fill="white" stroke="black" points="403.5,-6 403.5,-36 513.5,-36 513.5,-6 403.5,-6"/>
<text text-anchor="start" x="411.5" y="-24" font-family="Helvetica,sans-Serif" font-size="10.00">examples/boris/boris</text>
<text text-anchor="middle" x="458.5" y="-13" font-family="Helvetica,sans-Serif" font-size="10.00">_sdc.cpp</text>
</a>
</g>
</g>
<!-- Node1&#45;&gt;Node5 -->
<g id="edge5" class="edge"><title>Node1&#45;&gt;Node5</title>
<path fill="none" stroke="midnightblue" d="M276.868,-76.6676C312.503,-66.3541 355.762,-53.7009 394.5,-42 400.74,-40.115 407.313,-38.0977 413.774,-36.0961"/>
<polygon fill="midnightblue" stroke="midnightblue" points="275.664,-73.3723 267.029,-79.5118 277.608,-80.097 275.664,-73.3723"/>
</g>
<!-- Node2&#45;&gt;Node1 -->
<g id="edge2" class="edge"><title>Node2&#45;&gt;Node1</title>
<path fill="none" stroke="midnightblue" d="M114.973,-46.303C134.459,-56.6809 156.041,-68.6324 172.95,-78.4281"/>
<polygon fill="midnightblue" stroke="midnightblue" points="116.377,-43.0859 105.9,-41.5056 113.104,-49.2741 116.377,-43.0859"/>
</g>
</g>
</svg>
