<?xml version="1.0" encoding="UTF-8" standalone="no"?>
<!DOCTYPE svg PUBLIC "-//W3C//DTD SVG 1.1//EN"
 "http://www.w3.org/Graphics/SVG/1.1/DTD/svg11.dtd">
<!-- Generated by graphviz version 2.38.0 (20140413.2041)
 -->
<!-- Title: pfasst::examples::boris::ParticleCloud::ParticleCloud Pages: 1 -->
<svg width="315pt" height="39pt"
 viewBox="0.00 0.00 315.00 39.00" xmlns="http://www.w3.org/2000/svg" xmlns:xlink="http://www.w3.org/1999/xlink">
<g id="graph0" class="graph" transform="scale(1 1) rotate(0) translate(4 35)">
<title>pfasst::examples::boris::ParticleCloud::ParticleCloud</title>
<polygon fill="white" stroke="none" points="-4,4 -4,-35 311,-35 311,4 -4,4"/>
<!-- Node1 -->
<g id="node1" class="node"><title>Node1</title>
<polygon fill="#bfbfbf" stroke="black" points="-2.84217e-14,-0.5 -2.84217e-14,-30.5 150,-30.5 150,-0.5 -2.84217e-14,-0.5"/>
<text text-anchor="start" x="8" y="-18.5" font-family="Helvetica,sans-Serif" font-size="10.00">pfasst::examples::boris</text>
<text text-anchor="middle" x="75" y="-7.5" font-family="Helvetica,sans-Serif" font-size="10.00">::ParticleCloud::ParticleCloud</text>
</g>
<!-- Node2 -->
<g id="node2" class="node"><title>Node2</title>
<g id="a_node2"><a xlink:href="../../d2/dd0/classpfasst_1_1examples_1_1boris_1_1ParticleCloud.html#a398034bfb911663fb7268602a00e29e2" target="_top" xlink:title="Zeroes out all values of this data structure. ">
<polygon fill="white" stroke="black" points="186,-0.5 186,-30.5 307,-30.5 307,-0.5 186,-0.5"/>
<text text-anchor="start" x="194" y="-18.5" font-family="Helvetica,sans-Serif" font-size="10.00">pfasst::examples::boris</text>
<text text-anchor="middle" x="246.5" y="-7.5" font-family="Helvetica,sans-Serif" font-size="10.00">::ParticleCloud::zero</text>
</a>
</g>
</g>
<!-- Node1&#45;&gt;Node2 -->
<g id="edge1" class="edge"><title>Node1&#45;&gt;Node2</title>
<path fill="none" stroke="midnightblue" d="M150.345,-15.5C158.819,-15.5 167.434,-15.5 175.844,-15.5"/>
<polygon fill="midnightblue" stroke="midnightblue" points="175.977,-19.0001 185.977,-15.5 175.977,-12.0001 175.977,-19.0001"/>
</g>
</g>
</svg>
