<?xml version="1.0" encoding="UTF-8" standalone="no"?>
<!DOCTYPE svg PUBLIC "-//W3C//DTD SVG 1.1//EN"
 "http://www.w3.org/Graphics/SVG/1.1/DTD/svg11.dtd">
<!-- Generated by graphviz version 2.38.0 (20140413.2041)
 -->
<!-- Title: pfasst::examples::boris::ParticleCloud::distribute_around_center Pages: 1 -->
<svg width="319pt" height="50pt"
 viewBox="0.00 0.00 319.00 50.00" xmlns="http://www.w3.org/2000/svg" xmlns:xlink="http://www.w3.org/1999/xlink">
<g id="graph0" class="graph" transform="scale(1 1) rotate(0) translate(4 46)">
<title>pfasst::examples::boris::ParticleCloud::distribute_around_center</title>
<polygon fill="white" stroke="none" points="-4,4 -4,-46 315,-46 315,4 -4,4"/>
<!-- Node1 -->
<g id="node1" class="node"><title>Node1</title>
<polygon fill="#bfbfbf" stroke="black" points="0,-0.5 0,-41.5 129,-41.5 129,-0.5 0,-0.5"/>
<text text-anchor="start" x="8" y="-29.5" font-family="Helvetica,sans-Serif" font-size="10.00">pfasst::examples::boris</text>
<text text-anchor="start" x="8" y="-18.5" font-family="Helvetica,sans-Serif" font-size="10.00">::ParticleCloud::distribute</text>
<text text-anchor="middle" x="64.5" y="-7.5" font-family="Helvetica,sans-Serif" font-size="10.00">_around_center</text>
</g>
<!-- Node2 -->
<g id="node2" class="node"><title>Node2</title>
<g id="a_node2"><a xlink:href="../../d3/d59/group__BorisUtilities.html#gab3fffee6da14f85d545e5c758393fb00" target="_top" xlink:title="pfasst::examples::boris::max">
<polygon fill="white" stroke="black" points="165,-11.5 165,-30.5 311,-30.5 311,-11.5 165,-11.5"/>
<text text-anchor="middle" x="238" y="-18.5" font-family="Helvetica,sans-Serif" font-size="10.00">pfasst::examples::boris::max</text>
</a>
</g>
</g>
<!-- Node1&#45;&gt;Node2 -->
<g id="edge1" class="edge"><title>Node1&#45;&gt;Node2</title>
<path fill="none" stroke="midnightblue" d="M129.36,-21C137.553,-21 146.031,-21 154.467,-21"/>
<polygon fill="midnightblue" stroke="midnightblue" points="154.715,-24.5001 164.715,-21 154.715,-17.5001 154.715,-24.5001"/>
</g>
</g>
</svg>
