<?xml version="1.0" encoding="UTF-8" standalone="no"?>
<!DOCTYPE svg PUBLIC "-//W3C//DTD SVG 1.1//EN"
 "http://www.w3.org/Graphics/SVG/1.1/DTD/svg11.dtd">
<!-- Generated by graphviz version 2.38.0 (20140413.2041)
 -->
<!-- Title: pfasst::examples::boris::ParticleCloud::positions Pages: 1 -->
<svg width="294pt" height="78pt"
 viewBox="0.00 0.00 294.00 77.50" xmlns="http://www.w3.org/2000/svg" xmlns:xlink="http://www.w3.org/1999/xlink">
<g id="graph0" class="graph" transform="scale(1 1) rotate(0) translate(4 73.5)">
<title>pfasst::examples::boris::ParticleCloud::positions</title>
<polygon fill="white" stroke="none" points="-4,4 -4,-73.5 290,-73.5 290,4 -4,4"/>
<!-- Node1 -->
<g id="node1" class="node"><title>Node1</title>
<polygon fill="#bfbfbf" stroke="black" points="0,-17 0,-47 129,-47 129,-17 0,-17"/>
<text text-anchor="start" x="8" y="-35" font-family="Helvetica,sans-Serif" font-size="10.00">pfasst::examples::boris</text>
<text text-anchor="middle" x="64.5" y="-24" font-family="Helvetica,sans-Serif" font-size="10.00">::ParticleCloud::positions</text>
</g>
<!-- Node2 -->
<g id="node2" class="node"><title>Node2</title>
<g id="a_node2"><a xlink:href="../../dc/d0f/classpfasst_1_1examples_1_1boris_1_1BorisSweeper.html#a84571894c6bc6256691580119d586824" target="_top" xlink:title="pfasst::examples::boris\l::BorisSweeper::exact">
<polygon fill="white" stroke="black" points="165,-39 165,-69 286,-69 286,-39 165,-39"/>
<text text-anchor="start" x="173" y="-57" font-family="Helvetica,sans-Serif" font-size="10.00">pfasst::examples::boris</text>
<text text-anchor="middle" x="225.5" y="-46" font-family="Helvetica,sans-Serif" font-size="10.00">::BorisSweeper::exact</text>
</a>
</g>
</g>
<!-- Node1&#45;&gt;Node2 -->
<g id="edge1" class="edge"><title>Node1&#45;&gt;Node2</title>
<path fill="none" stroke="midnightblue" d="M139.259,-42.2056C147.836,-43.3923 156.502,-44.5915 164.856,-45.7474"/>
<polygon fill="midnightblue" stroke="midnightblue" points="139.641,-38.7252 129.255,-40.8215 138.681,-45.6591 139.641,-38.7252"/>
</g>
<!-- Node3 -->
<g id="node3" class="node"><title>Node3</title>
<g id="a_node3"><a xlink:href="../../d8/d1a/test__boris__particle__util_8cpp.html#ab5bc465d0fd71148e0eb47b2109a3ae5" target="_top" xlink:title="TEST">
<polygon fill="white" stroke="black" points="203.5,-0.5 203.5,-19.5 247.5,-19.5 247.5,-0.5 203.5,-0.5"/>
<text text-anchor="middle" x="225.5" y="-7.5" font-family="Helvetica,sans-Serif" font-size="10.00">TEST</text>
</a>
</g>
</g>
<!-- Node1&#45;&gt;Node3 -->
<g id="edge2" class="edge"><title>Node1&#45;&gt;Node3</title>
<path fill="none" stroke="midnightblue" d="M139.259,-21.7944C162.752,-18.5438 186.917,-15.2001 203.491,-12.9069"/>
<polygon fill="midnightblue" stroke="midnightblue" points="138.681,-18.3409 129.255,-23.1785 139.641,-25.2748 138.681,-18.3409"/>
</g>
</g>
</svg>
