<?xml version="1.0" encoding="UTF-8" standalone="no"?>
<!DOCTYPE svg PUBLIC "-//W3C//DTD SVG 1.1//EN"
 "http://www.w3.org/Graphics/SVG/1.1/DTD/svg11.dtd">
<!-- Generated by graphviz version 2.38.0 (20140413.2041)
 -->
<!-- Title: pfasst::examples::boris::ParticleCloud::norm0 Pages: 1 -->
<svg width="311pt" height="78pt"
 viewBox="0.00 0.00 311.00 77.50" xmlns="http://www.w3.org/2000/svg" xmlns:xlink="http://www.w3.org/1999/xlink">
<g id="graph0" class="graph" transform="scale(1 1) rotate(0) translate(4 73.5)">
<title>pfasst::examples::boris::ParticleCloud::norm0</title>
<polygon fill="white" stroke="none" points="-4,4 -4,-73.5 307,-73.5 307,4 -4,4"/>
<!-- Node1 -->
<g id="node1" class="node"><title>Node1</title>
<polygon fill="#bfbfbf" stroke="black" points="0,-22.5 0,-52.5 121,-52.5 121,-22.5 0,-22.5"/>
<text text-anchor="start" x="8" y="-40.5" font-family="Helvetica,sans-Serif" font-size="10.00">pfasst::examples::boris</text>
<text text-anchor="middle" x="60.5" y="-29.5" font-family="Helvetica,sans-Serif" font-size="10.00">::ParticleCloud::norm0</text>
</g>
<!-- Node2 -->
<g id="node2" class="node"><title>Node2</title>
<g id="a_node2"><a xlink:href="../../d3/d59/group__BorisUtilities.html#gab3fffee6da14f85d545e5c758393fb00" target="_top" xlink:title="pfasst::examples::boris::max">
<polygon fill="white" stroke="black" points="157,-50 157,-69 303,-69 303,-50 157,-50"/>
<text text-anchor="middle" x="230" y="-57" font-family="Helvetica,sans-Serif" font-size="10.00">pfasst::examples::boris::max</text>
</a>
</g>
</g>
<!-- Node1&#45;&gt;Node2 -->
<g id="edge1" class="edge"><title>Node1&#45;&gt;Node2</title>
<path fill="none" stroke="midnightblue" d="M121.026,-45.3183C129.339,-46.4102 138,-47.5478 146.642,-48.6828"/>
<polygon fill="midnightblue" stroke="midnightblue" points="146.385,-52.179 156.755,-50.0111 147.296,-45.2386 146.385,-52.179"/>
</g>
<!-- Node3 -->
<g id="node3" class="node"><title>Node3</title>
<g id="a_node3"><a xlink:href="../../d3/d59/group__BorisUtilities.html#ga7cc4b9ad98f79baa03716ba05e90dc5c" target="_top" xlink:title="pfasst::examples::boris\l::max_abs">
<polygon fill="white" stroke="black" points="169.5,-0.5 169.5,-30.5 290.5,-30.5 290.5,-0.5 169.5,-0.5"/>
<text text-anchor="start" x="177.5" y="-18.5" font-family="Helvetica,sans-Serif" font-size="10.00">pfasst::examples::boris</text>
<text text-anchor="middle" x="230" y="-7.5" font-family="Helvetica,sans-Serif" font-size="10.00">::max_abs</text>
</a>
</g>
</g>
<!-- Node1&#45;&gt;Node3 -->
<g id="edge2" class="edge"><title>Node1&#45;&gt;Node3</title>
<path fill="none" stroke="midnightblue" d="M121.026,-29.6817C133.417,-28.0542 146.582,-26.3251 159.301,-24.6544"/>
<polygon fill="midnightblue" stroke="midnightblue" points="159.925,-28.1027 169.384,-23.3302 159.013,-21.1623 159.925,-28.1027"/>
</g>
</g>
</svg>
