<?xml version="1.0" encoding="UTF-8" standalone="no"?>
<!DOCTYPE svg PUBLIC "-//W3C//DTD SVG 1.1//EN"
 "http://www.w3.org/Graphics/SVG/1.1/DTD/svg11.dtd">
<!-- Generated by graphviz version 2.38.0 (20140413.2041)
 -->
<!-- Title: include/pfasst/encap/vector.hpp Pages: 1 -->
<!--zoomable 251 -->
<svg id="main" version="1.1" xmlns="http://www.w3.org/2000/svg" xmlns:xlink="http://www.w3.org/1999/xlink" xml:space="preserve" onload="init(evt)">
<style type="text/css"><![CDATA[
.edge:hover path { stroke: red; }
.edge:hover polygon { stroke: red; fill: red; }
]]></style>
<script type="text/javascript"><![CDATA[
var edges = document.getElementsByTagName('g');
if (edges && edges.length) {
  for (var i=0;i<edges.length;i++) {
    if (edges[i].id.substr(0,4)=='edge') {
      edges[i].setAttribute('class','edge');
    }
  }
}
]]></script>
        <defs>
                <circle id="rim" cx="0" cy="0" r="7"/>
                <circle id="rim2" cx="0" cy="0" r="3.5"/>
                <g id="zoomPlus">
                        <use xlink:href="#rim" fill="#404040">
                                <set attributeName="fill" to="#808080" begin="zoomplus.mouseover" end="zoomplus.mouseout"/>
                        </use>
                        <path d="M-4,0h8M0,-4v8" fill="none" stroke="white" stroke-width="1.5" pointer-events="none"/>
                </g>
                <g id="zoomMin">
                        <use xlink:href="#rim" fill="#404040">
                                <set attributeName="fill" to="#808080" begin="zoomminus.mouseover" end="zoomminus.mouseout"/>
                        </use>
                        <path d="M-4,0h8" fill="none" stroke="white" stroke-width="1.5" pointer-events="none"/>
                </g>
                <g id="dirArrow">
                        <path fill="none" stroke="white" stroke-width="1.5" d="M0,-3.0v7 M-2.5,-0.5L0,-3.0L2.5,-0.5"/>
                </g>
               <g id="resetDef">
                       <use xlink:href="#rim2" fill="#404040">
                               <set attributeName="fill" to="#808080" begin="reset.mouseover" end="reset.mouseout"/>
                       </use>
               </g>
        </defs>

<script type="text/javascript">
var viewWidth = 853;
var viewHeight = 251;
var sectionId = 'dynsection-1';
</script>
<script xlink:href="../../svgpan.js"/>
<svg id="graph" class="graph">
<g id="viewport">
<title>include/pfasst/encap/vector.hpp</title>
<polygon fill="white" stroke="none" points="-4,4 -4,-247 849,-247 849,4 -4,4"/>
<!-- Node1 -->
<g id="node1" class="node"><title>Node1</title>
<polygon fill="#bfbfbf" stroke="black" points="399,-212.5 399,-242.5 508,-242.5 508,-212.5 399,-212.5"/>
<text text-anchor="start" x="407" y="-230.5" font-family="Helvetica,sans-Serif" font-size="10.00">include/pfasst/encap</text>
<text text-anchor="middle" x="453.5" y="-219.5" font-family="Helvetica,sans-Serif" font-size="10.00">/vector.hpp</text>
</g>
<!-- Node2 -->
<g id="node2" class="node"><title>Node2</title>
<g id="a_node2"><a xlink:href="../../de/d7a/vector__impl_8hpp.html" target="_top" xlink:title="src/pfasst/encap/vector\l_impl.hpp">
<polygon fill="white" stroke="black" points="0,-145.5 0,-175.5 121,-175.5 121,-145.5 0,-145.5"/>
<text text-anchor="start" x="8" y="-163.5" font-family="Helvetica,sans-Serif" font-size="10.00">src/pfasst/encap/vector</text>
<text text-anchor="middle" x="60.5" y="-152.5" font-family="Helvetica,sans-Serif" font-size="10.00">_impl.hpp</text>
</a>
</g>
</g>
<!-- Node1&#45;&gt;Node2 -->
<g id="edge1" class="edge"><title>Node1&#45;&gt;Node2</title>
<path fill="none" stroke="midnightblue" d="M388.705,-217.859C322.482,-208.238 217.037,-191.936 126.5,-176 124.802,-175.701 123.083,-175.395 121.351,-175.084"/>
<polygon fill="midnightblue" stroke="midnightblue" points="388.591,-221.378 398.988,-219.344 389.592,-214.45 388.591,-221.378"/>
</g>
<!-- Node3 -->
<g id="node3" class="node"><title>Node3</title>
<g id="a_node3"><a xlink:href="../../db/d53/fft_8hpp.html" target="_top" xlink:title="examples/advection\l_diffusion/fft.hpp">
<polygon fill="white" stroke="black" points="310.5,-145.5 310.5,-175.5 418.5,-175.5 418.5,-145.5 310.5,-145.5"/>
<text text-anchor="start" x="318.5" y="-163.5" font-family="Helvetica,sans-Serif" font-size="10.00">examples/advection</text>
<text text-anchor="middle" x="364.5" y="-152.5" font-family="Helvetica,sans-Serif" font-size="10.00">_diffusion/fft.hpp</text>
</a>
</g>
</g>
<!-- Node1&#45;&gt;Node3 -->
<g id="edge3" class="edge"><title>Node1&#45;&gt;Node3</title>
<path fill="none" stroke="midnightblue" d="M426.048,-206.451C412.357,-196.452 396.129,-184.6 383.774,-175.577"/>
<polygon fill="midnightblue" stroke="midnightblue" points="424.048,-209.324 434.188,-212.396 428.177,-203.672 424.048,-209.324"/>
</g>
<!-- Node5 -->
<g id="node5" class="node"><title>Node5</title>
<g id="a_node5"><a xlink:href="../../d1/d49/mpi__pfasst_8cpp.html" target="_top" xlink:title="Advection&#45;Diffusion with MPI&#45;enabled PFASST. ">
<polygon fill="white" stroke="black" points="138,-0.5 138,-30.5 265,-30.5 265,-0.5 138,-0.5"/>
<text text-anchor="start" x="146" y="-18.5" font-family="Helvetica,sans-Serif" font-size="10.00">examples/advection</text>
<text text-anchor="middle" x="201.5" y="-7.5" font-family="Helvetica,sans-Serif" font-size="10.00">_diffusion/mpi_pfasst.cpp</text>
</a>
</g>
</g>
<!-- Node1&#45;&gt;Node5 -->
<g id="edge11" class="edge"><title>Node1&#45;&gt;Node5</title>
<path fill="none" stroke="midnightblue" d="M388.608,-222.4C318.08,-213.897 209.913,-187.937 168.5,-109 154.717,-82.7284 174.915,-49.437 189.269,-30.8053"/>
<polygon fill="midnightblue" stroke="midnightblue" points="388.401,-225.899 398.728,-223.533 389.179,-218.942 388.401,-225.899"/>
</g>
<!-- Node6 -->
<g id="node6" class="node"><title>Node6</title>
<g id="a_node6"><a xlink:href="../../d9/d86/serial__mlsdc_8cpp.html" target="_top" xlink:title="Advection&#45;Diffusion with serial MLSDC. ">
<polygon fill="white" stroke="black" points="283,-0.5 283,-30.5 420,-30.5 420,-0.5 283,-0.5"/>
<text text-anchor="start" x="291" y="-18.5" font-family="Helvetica,sans-Serif" font-size="10.00">examples/advection</text>
<text text-anchor="middle" x="351.5" y="-7.5" font-family="Helvetica,sans-Serif" font-size="10.00">_diffusion/serial_mlsdc.cpp</text>
</a>
</g>
</g>
<!-- Node1&#45;&gt;Node6 -->
<g id="edge13" class="edge"><title>Node1&#45;&gt;Node6</title>
<path fill="none" stroke="midnightblue" d="M456.815,-202.164C460.058,-168.867 461.192,-108.517 434.5,-67 423.919,-50.5419 405.885,-38.6302 389.325,-30.5239"/>
<polygon fill="midnightblue" stroke="midnightblue" points="453.309,-202.025 455.672,-212.353 460.265,-202.805 453.309,-202.025"/>
</g>
<!-- Node7 -->
<g id="node7" class="node"><title>Node7</title>
<g id="a_node7"><a xlink:href="../../d4/df0/vanilla__sdc_8cpp.html" target="_top" xlink:title="Advection&#45;Diffusion with vanilla SDC. ">
<polygon fill="white" stroke="black" points="438,-0.5 438,-30.5 569,-30.5 569,-0.5 438,-0.5"/>
<text text-anchor="start" x="446" y="-18.5" font-family="Helvetica,sans-Serif" font-size="10.00">examples/advection</text>
<text text-anchor="middle" x="503.5" y="-7.5" font-family="Helvetica,sans-Serif" font-size="10.00">_diffusion/vanilla_sdc.cpp</text>
</a>
</g>
</g>
<!-- Node1&#45;&gt;Node7 -->
<g id="edge14" class="edge"><title>Node1&#45;&gt;Node7</title>
<path fill="none" stroke="midnightblue" d="M460.401,-202.529C462.743,-194.159 465.317,-184.686 467.5,-176 480.923,-122.589 494.676,-58.5314 500.55,-30.6363"/>
<polygon fill="midnightblue" stroke="midnightblue" points="456.963,-201.824 457.606,-212.399 463.698,-203.731 456.963,-201.824"/>
</g>
<!-- Node8 -->
<g id="node8" class="node"><title>Node8</title>
<g id="a_node8"><a xlink:href="../../d0/dbe/spectral__transfer__1d_8hpp.html" target="_top" xlink:title="examples/advection\l_diffusion/spectral\l_transfer_1d.hpp">
<polygon fill="white" stroke="black" points="177.5,-67.5 177.5,-108.5 285.5,-108.5 285.5,-67.5 177.5,-67.5"/>
<text text-anchor="start" x="185.5" y="-96.5" font-family="Helvetica,sans-Serif" font-size="10.00">examples/advection</text>
<text text-anchor="start" x="185.5" y="-85.5" font-family="Helvetica,sans-Serif" font-size="10.00">_diffusion/spectral</text>
<text text-anchor="middle" x="231.5" y="-74.5" font-family="Helvetica,sans-Serif" font-size="10.00">_transfer_1d.hpp</text>
</a>
</g>
</g>
<!-- Node1&#45;&gt;Node8 -->
<g id="edge12" class="edge"><title>Node1&#45;&gt;Node8</title>
<path fill="none" stroke="midnightblue" d="M388.817,-213.734C360.299,-205.991 327.447,-194.02 301.5,-176 275.864,-158.196 254.787,-128.376 242.674,-108.695"/>
<polygon fill="midnightblue" stroke="midnightblue" points="388.147,-217.176 398.705,-216.299 389.905,-210.4 388.147,-217.176"/>
</g>
<!-- Node9 -->
<g id="node9" class="node"><title>Node9</title>
<g id="a_node9"><a xlink:href="../../d2/daf/scalar__sdc_8cpp.html" target="_top" xlink:title="Scalar test equation example using an encapsulated IMEX sweeper. ">
<polygon fill="white" stroke="black" points="538.5,-73 538.5,-103 660.5,-103 660.5,-73 538.5,-73"/>
<text text-anchor="start" x="546.5" y="-91" font-family="Helvetica,sans-Serif" font-size="10.00">examples/scalar/scalar</text>
<text text-anchor="middle" x="599.5" y="-80" font-family="Helvetica,sans-Serif" font-size="10.00">_sdc.cpp</text>
</a>
</g>
</g>
<!-- Node1&#45;&gt;Node9 -->
<g id="edge15" class="edge"><title>Node1&#45;&gt;Node9</title>
<path fill="none" stroke="midnightblue" d="M476.064,-205.249C506.127,-176.937 558.512,-127.602 584.289,-103.326"/>
<polygon fill="midnightblue" stroke="midnightblue" points="473.455,-202.899 468.575,-212.303 478.254,-207.995 473.455,-202.899"/>
</g>
<!-- Node10 -->
<g id="node10" class="node"><title>Node10</title>
<g id="a_node10"><a xlink:href="../../d8/d93/scalar__sweeper_8hpp.html" target="_top" xlink:title="examples/scalar/scalar\l_sweeper.hpp">
<polygon fill="white" stroke="black" points="557.5,-145.5 557.5,-175.5 679.5,-175.5 679.5,-145.5 557.5,-145.5"/>
<text text-anchor="start" x="565.5" y="-163.5" font-family="Helvetica,sans-Serif" font-size="10.00">examples/scalar/scalar</text>
<text text-anchor="middle" x="618.5" y="-152.5" font-family="Helvetica,sans-Serif" font-size="10.00">_sweeper.hpp</text>
</a>
</g>
</g>
<!-- Node1&#45;&gt;Node10 -->
<g id="edge16" class="edge"><title>Node1&#45;&gt;Node10</title>
<path fill="none" stroke="midnightblue" d="M498.732,-208.682C525.194,-198.257 558.134,-185.281 582.767,-175.577"/>
<polygon fill="midnightblue" stroke="midnightblue" points="497.324,-205.474 489.303,-212.396 499.889,-211.987 497.324,-205.474"/>
</g>
<!-- Node11 -->
<g id="node11" class="node"><title>Node11</title>
<g id="a_node11"><a xlink:href="../../df/de7/vdp__sdc_8cpp.html" target="_top" xlink:title="examples/vanderpol\l/vdp_sdc.cpp">
<polygon fill="white" stroke="black" points="717,-73 717,-103 826,-103 826,-73 717,-73"/>
<text text-anchor="start" x="725" y="-91" font-family="Helvetica,sans-Serif" font-size="10.00">examples/vanderpol</text>
<text text-anchor="middle" x="771.5" y="-80" font-family="Helvetica,sans-Serif" font-size="10.00">/vdp_sdc.cpp</text>
</a>
</g>
</g>
<!-- Node1&#45;&gt;Node11 -->
<g id="edge18" class="edge"><title>Node1&#45;&gt;Node11</title>
<path fill="none" stroke="midnightblue" d="M518.249,-222.889C567.597,-217.781 635.807,-205.495 688.5,-176 705.35,-166.568 741.191,-125.334 759.777,-103.188"/>
<polygon fill="midnightblue" stroke="midnightblue" points="517.636,-219.432 508.018,-223.874 518.307,-226.399 517.636,-219.432"/>
</g>
<!-- Node12 -->
<g id="node12" class="node"><title>Node12</title>
<g id="a_node12"><a xlink:href="../../d6/d93/vdp__sweeper_8hpp.html" target="_top" xlink:title="examples/vanderpol\l/vdp_sweeper.hpp">
<polygon fill="white" stroke="black" points="736,-145.5 736,-175.5 845,-175.5 845,-145.5 736,-145.5"/>
<text text-anchor="start" x="744" y="-163.5" font-family="Helvetica,sans-Serif" font-size="10.00">examples/vanderpol</text>
<text text-anchor="middle" x="790.5" y="-152.5" font-family="Helvetica,sans-Serif" font-size="10.00">/vdp_sweeper.hpp</text>
</a>
</g>
</g>
<!-- Node1&#45;&gt;Node12 -->
<g id="edge19" class="edge"><title>Node1&#45;&gt;Node12</title>
<path fill="none" stroke="midnightblue" d="M518.07,-214.724C572.399,-204.721 652.106,-189.828 721.5,-176 726.182,-175.067 731.039,-174.082 735.908,-173.082"/>
<polygon fill="midnightblue" stroke="midnightblue" points="517.431,-211.282 508.229,-216.533 518.697,-218.167 517.431,-211.282"/>
</g>
<!-- Node2&#45;&gt;Node1 -->
<g id="edge2" class="edge"><title>Node2&#45;&gt;Node1</title>
<path fill="none" stroke="midnightblue" d="M131.271,-173.616C135.757,-174.44 140.196,-175.242 144.5,-176 233.55,-191.674 337.021,-207.702 398.869,-217.379"/>
<polygon fill="midnightblue" stroke="midnightblue" points="131.876,-170.168 121.406,-171.788 130.601,-177.051 131.876,-170.168"/>
</g>
<!-- Node4 -->
<g id="node4" class="node"><title>Node4</title>
<g id="a_node4"><a xlink:href="../../dc/d7d/advection__diffusion__sweeper_8hpp.html" target="_top" xlink:title="examples/advection\l_diffusion/advection\l_diffusion_sweeper.hpp">
<polygon fill="white" stroke="black" points="304,-67.5 304,-108.5 425,-108.5 425,-67.5 304,-67.5"/>
<text text-anchor="start" x="312" y="-96.5" font-family="Helvetica,sans-Serif" font-size="10.00">examples/advection</text>
<text text-anchor="start" x="312" y="-85.5" font-family="Helvetica,sans-Serif" font-size="10.00">_diffusion/advection</text>
<text text-anchor="middle" x="364.5" y="-74.5" font-family="Helvetica,sans-Serif" font-size="10.00">_diffusion_sweeper.hpp</text>
</a>
</g>
</g>
<!-- Node3&#45;&gt;Node4 -->
<g id="edge4" class="edge"><title>Node3&#45;&gt;Node4</title>
<path fill="none" stroke="midnightblue" d="M364.5,-134.982C364.5,-126.347 364.5,-116.762 364.5,-108.588"/>
<polygon fill="midnightblue" stroke="midnightblue" points="361,-135.233 364.5,-145.233 368,-135.233 361,-135.233"/>
</g>
<!-- Node3&#45;&gt;Node8 -->
<g id="edge8" class="edge"><title>Node3&#45;&gt;Node8</title>
<path fill="none" stroke="midnightblue" d="M328.824,-140.589C310.124,-130.677 287.249,-118.551 268.375,-108.546"/>
<polygon fill="midnightblue" stroke="midnightblue" points="327.43,-143.812 337.905,-145.403 330.709,-137.627 327.43,-143.812"/>
</g>
<!-- Node4&#45;&gt;Node5 -->
<g id="edge5" class="edge"><title>Node4&#45;&gt;Node5</title>
<path fill="none" stroke="midnightblue" d="M309.675,-63.2874C284.55,-52.4202 255.622,-39.9088 234.007,-30.5597"/>
<polygon fill="midnightblue" stroke="midnightblue" points="308.528,-66.6044 319.095,-67.3618 311.307,-60.1796 308.528,-66.6044"/>
</g>
<!-- Node4&#45;&gt;Node6 -->
<g id="edge6" class="edge"><title>Node4&#45;&gt;Node6</title>
<path fill="none" stroke="midnightblue" d="M359.037,-57.3757C357.348,-48.214 355.563,-38.5319 354.154,-30.8916"/>
<polygon fill="midnightblue" stroke="midnightblue" points="355.623,-58.1623 360.879,-67.3618 362.507,-56.8929 355.623,-58.1623"/>
</g>
<!-- Node4&#45;&gt;Node7 -->
<g id="edge7" class="edge"><title>Node4&#45;&gt;Node7</title>
<path fill="none" stroke="midnightblue" d="M412.355,-62.728C433.436,-52.0358 457.469,-39.8466 475.562,-30.67"/>
<polygon fill="midnightblue" stroke="midnightblue" points="410.555,-59.7169 403.219,-67.3618 413.721,-65.9598 410.555,-59.7169"/>
</g>
<!-- Node8&#45;&gt;Node5 -->
<g id="edge9" class="edge"><title>Node8&#45;&gt;Node5</title>
<path fill="none" stroke="midnightblue" d="M219.145,-57.966C215.173,-48.6314 210.945,-38.6962 207.624,-30.8916"/>
<polygon fill="midnightblue" stroke="midnightblue" points="216.007,-59.5307 223.143,-67.3618 222.448,-56.7898 216.007,-59.5307"/>
</g>
<!-- Node8&#45;&gt;Node6 -->
<g id="edge10" class="edge"><title>Node8&#45;&gt;Node6</title>
<path fill="none" stroke="midnightblue" d="M273.55,-62.2957C291.571,-51.7084 311.971,-39.7232 327.381,-30.67"/>
<polygon fill="midnightblue" stroke="midnightblue" points="271.776,-59.2785 264.927,-67.3618 275.322,-65.314 271.776,-59.2785"/>
</g>
<!-- Node10&#45;&gt;Node9 -->
<g id="edge17" class="edge"><title>Node10&#45;&gt;Node9</title>
<path fill="none" stroke="midnightblue" d="M612.049,-135.564C609.154,-124.821 605.836,-112.51 603.339,-103.246"/>
<polygon fill="midnightblue" stroke="midnightblue" points="608.673,-136.489 614.655,-145.233 615.432,-134.667 608.673,-136.489"/>
</g>
<!-- Node12&#45;&gt;Node11 -->
<g id="edge20" class="edge"><title>Node12&#45;&gt;Node11</title>
<path fill="none" stroke="midnightblue" d="M784.049,-135.564C781.154,-124.821 777.836,-112.51 775.339,-103.246"/>
<polygon fill="midnightblue" stroke="midnightblue" points="780.673,-136.489 786.655,-145.233 787.432,-134.667 780.673,-136.489"/>
</g>
</g>
</svg>
        <g id="navigator" transform="translate(0 0)" fill="#404254">
                <rect fill="#f2f5e9" fill-opacity="0.5" stroke="#606060" stroke-width=".5" x="0" y="0" width="60" height="60"/>
                <use id="zoomplus" xlink:href="#zoomPlus" x="17" y="9" onmousedown="handleZoom(evt,'in')"/>
                <use id="zoomminus" xlink:href="#zoomMin" x="42" y="9" onmousedown="handleZoom(evt,'out')"/>
                <use id="reset" xlink:href="#resetDef" x="30" y="36" onmousedown="handleReset()"/>
                <g id="arrowUp" xlink:href="#dirArrow" transform="translate(30 24)" onmousedown="handlePan(0,-1)">
                  <use xlink:href="#rim" fill="#404040">
                        <set attributeName="fill" to="#808080" begin="arrowUp.mouseover" end="arrowUp.mouseout"/>
                  </use>
                  <path fill="none" stroke="white" stroke-width="1.5" d="M0,-3.0v7 M-2.5,-0.5L0,-3.0L2.5,-0.5"/>
                </g>
                <g id="arrowRight" xlink:href="#dirArrow" transform="rotate(90) translate(36 -43)" onmousedown="handlePan(1,0)">
                  <use xlink:href="#rim" fill="#404040">
                        <set attributeName="fill" to="#808080" begin="arrowRight.mouseover" end="arrowRight.mouseout"/>
                  </use>
                  <path fill="none" stroke="white" stroke-width="1.5" d="M0,-3.0v7 M-2.5,-0.5L0,-3.0L2.5,-0.5"/>
                </g>
                <g id="arrowDown" xlink:href="#dirArrow" transform="rotate(180) translate(-30 -48)" onmousedown="handlePan(0,1)">
                  <use xlink:href="#rim" fill="#404040">
                        <set attributeName="fill" to="#808080" begin="arrowDown.mouseover" end="arrowDown.mouseout"/>
                  </use>
                  <path fill="none" stroke="white" stroke-width="1.5" d="M0,-3.0v7 M-2.5,-0.5L0,-3.0L2.5,-0.5"/>
                </g>
                <g id="arrowLeft" xlink:href="#dirArrow" transform="rotate(270) translate(-36 17)" onmousedown="handlePan(-1,0)">
                  <use xlink:href="#rim" fill="#404040">
                        <set attributeName="fill" to="#808080" begin="arrowLeft.mouseover" end="arrowLeft.mouseout"/>
                  </use>
                  <path fill="none" stroke="white" stroke-width="1.5" d="M0,-3.0v7 M-2.5,-0.5L0,-3.0L2.5,-0.5"/>
                </g>
        </g>
        <svg viewBox="0 0 15 15" width="100%" height="30px" preserveAspectRatio="xMaxYMin meet">
         <g id="arrow_out" transform="scale(0.3 0.3)">
          <a xlink:href="vector_8hpp__dep__incl_org.svg" target="_base">
           <rect id="button" ry="5" rx="5" y="6" x="6" height="38" width="38"
                fill="#f2f5e9" fill-opacity="0.5" stroke="#606060" stroke-width="1.0"/>
           <path id="arrow"
             d="M 11.500037,31.436501 C 11.940474,20.09759 22.043105,11.32322 32.158766,21.979434 L 37.068811,17.246167 C 37.068811,17.246167 37.088388,32 37.088388,32 L 22.160133,31.978069 C 22.160133,31.978069 26.997745,27.140456 26.997745,27.140456 C 18.528582,18.264221 13.291696,25.230495 11.500037,31.436501 z"
             style="fill:#404040;"/>
          </a>
         </g>
        </svg>
</svg>
