<?xml version="1.0" encoding="UTF-8" standalone="no"?>
<!DOCTYPE svg PUBLIC "-//W3C//DTD SVG 1.1//EN"
 "http://www.w3.org/Graphics/SVG/1.1/DTD/svg11.dtd">
<!-- Generated by graphviz version 2.38.0 (20140413.2041)
 -->
<!-- Title: src/pfasst/interfaces_impl.hpp Pages: 1 -->
<!--zoomable 263 -->
<svg id="main" version="1.1" xmlns="http://www.w3.org/2000/svg" xmlns:xlink="http://www.w3.org/1999/xlink" xml:space="preserve" onload="init(evt)">
<style type="text/css"><![CDATA[
.edge:hover path { stroke: red; }
.edge:hover polygon { stroke: red; fill: red; }
]]></style>
<script type="text/javascript"><![CDATA[
var edges = document.getElementsByTagName('g');
if (edges && edges.length) {
  for (var i=0;i<edges.length;i++) {
    if (edges[i].id.substr(0,4)=='edge') {
      edges[i].setAttribute('class','edge');
    }
  }
}
]]></script>
        <defs>
                <circle id="rim" cx="0" cy="0" r="7"/>
                <circle id="rim2" cx="0" cy="0" r="3.5"/>
                <g id="zoomPlus">
                        <use xlink:href="#rim" fill="#404040">
                                <set attributeName="fill" to="#808080" begin="zoomplus.mouseover" end="zoomplus.mouseout"/>
                        </use>
                        <path d="M-4,0h8M0,-4v8" fill="none" stroke="white" stroke-width="1.5" pointer-events="none"/>
                </g>
                <g id="zoomMin">
                        <use xlink:href="#rim" fill="#404040">
                                <set attributeName="fill" to="#808080" begin="zoomminus.mouseover" end="zoomminus.mouseout"/>
                        </use>
                        <path d="M-4,0h8" fill="none" stroke="white" stroke-width="1.5" pointer-events="none"/>
                </g>
                <g id="dirArrow">
                        <path fill="none" stroke="white" stroke-width="1.5" d="M0,-3.0v7 M-2.5,-0.5L0,-3.0L2.5,-0.5"/>
                </g>
               <g id="resetDef">
                       <use xlink:href="#rim2" fill="#404040">
                               <set attributeName="fill" to="#808080" begin="reset.mouseover" end="reset.mouseout"/>
                       </use>
               </g>
        </defs>

<script type="text/javascript">
var viewWidth = 771;
var viewHeight = 263;
var sectionId = 'dynsection-0';
</script>
<script xlink:href="../../svgpan.js"/>
<svg id="graph" class="graph">
<g id="viewport">
<title>src/pfasst/interfaces_impl.hpp</title>
<polygon fill="white" stroke="none" points="-4,4 -4,-259 767,-259 767,4 -4,4"/>
<!-- Node1 -->
<g id="node1" class="node"><title>Node1</title>
<polygon fill="#bfbfbf" stroke="black" points="144.5,-224.5 144.5,-254.5 250.5,-254.5 250.5,-224.5 144.5,-224.5"/>
<text text-anchor="start" x="152.5" y="-242.5" font-family="Helvetica,sans-Serif" font-size="10.00">src/pfasst/interfaces</text>
<text text-anchor="middle" x="197.5" y="-231.5" font-family="Helvetica,sans-Serif" font-size="10.00">_impl.hpp</text>
</g>
<!-- Node2 -->
<g id="node2" class="node"><title>Node2</title>
<g id="a_node2"><a xlink:href="../../d1/d1b/interfaces_8hpp.html" target="_top" xlink:title="interfaces for SDC/MLSDC/PFASST algorithms. ">
<polygon fill="white" stroke="black" points="62,-168.5 62,-187.5 169,-187.5 169,-168.5 62,-168.5"/>
<text text-anchor="middle" x="115.5" y="-175.5" font-family="Helvetica,sans-Serif" font-size="10.00">pfasst/interfaces.hpp</text>
</a>
</g>
</g>
<!-- Node1&#45;&gt;Node2 -->
<g id="edge1" class="edge"><title>Node1&#45;&gt;Node2</title>
<path fill="none" stroke="midnightblue" d="M172.227,-224.399C158.53,-215.308 142.199,-203.49 130.462,-194.191"/>
<polygon fill="midnightblue" stroke="midnightblue" points="132.453,-191.297 122.502,-187.658 128.012,-196.708 132.453,-191.297"/>
</g>
<!-- Node3 -->
<g id="node3" class="node"><title>Node3</title>
<polygon fill="white" stroke="#bfbfbf" points="0,-112.5 0,-131.5 53,-131.5 53,-112.5 0,-112.5"/>
<text text-anchor="middle" x="26.5" y="-119.5" font-family="Helvetica,sans-Serif" font-size="10.00">memory</text>
</g>
<!-- Node1&#45;&gt;Node3 -->
<g id="edge7" class="edge"><title>Node1&#45;&gt;Node3</title>
<path fill="none" stroke="midnightblue" d="M144.205,-231.087C113.985,-224.395 77.3606,-211.758 52.5,-188 39.6162,-175.688 32.9617,-156.156 29.6272,-141.714"/>
<polygon fill="midnightblue" stroke="midnightblue" points="33.0529,-140.995 27.6763,-131.866 26.1864,-142.356 33.0529,-140.995"/>
</g>
<!-- Node5 -->
<g id="node5" class="node"><title>Node5</title>
<polygon fill="white" stroke="#bfbfbf" points="139,-56.5 139,-75.5 180,-75.5 180,-56.5 139,-56.5"/>
<text text-anchor="middle" x="159.5" y="-63.5" font-family="Helvetica,sans-Serif" font-size="10.00">string</text>
</g>
<!-- Node1&#45;&gt;Node5 -->
<g id="edge8" class="edge"><title>Node1&#45;&gt;Node5</title>
<path fill="none" stroke="midnightblue" d="M194.39,-224.465C187.574,-193.704 171.316,-120.329 163.644,-85.7003"/>
<polygon fill="midnightblue" stroke="midnightblue" points="166.977,-84.5658 161.397,-75.5597 160.143,-86.0801 166.977,-84.5658"/>
</g>
<!-- Node6 -->
<g id="node6" class="node"><title>Node6</title>
<polygon fill="white" stroke="#bfbfbf" points="225.5,-168.5 225.5,-187.5 275.5,-187.5 275.5,-168.5 225.5,-168.5"/>
<text text-anchor="middle" x="250.5" y="-175.5" font-family="Helvetica,sans-Serif" font-size="10.00">cassert</text>
</g>
<!-- Node1&#45;&gt;Node6 -->
<g id="edge6" class="edge"><title>Node1&#45;&gt;Node6</title>
<path fill="none" stroke="midnightblue" d="M210.06,-224.399C217.841,-215.664 227.864,-204.413 235.984,-195.296"/>
<polygon fill="midnightblue" stroke="midnightblue" points="238.75,-197.453 242.788,-187.658 233.523,-192.797 238.75,-197.453"/>
</g>
<!-- Node7 -->
<g id="node7" class="node"><title>Node7</title>
<g id="a_node7"><a xlink:href="../../d5/d82/globals_8hpp.html" target="_top" xlink:title="pfasst/globals.hpp">
<polygon fill="white" stroke="black" points="294,-168.5 294,-187.5 391,-187.5 391,-168.5 294,-168.5"/>
<text text-anchor="middle" x="342.5" y="-175.5" font-family="Helvetica,sans-Serif" font-size="10.00">pfasst/globals.hpp</text>
</a>
</g>
</g>
<!-- Node1&#45;&gt;Node7 -->
<g id="edge9" class="edge"><title>Node1&#45;&gt;Node7</title>
<path fill="none" stroke="midnightblue" d="M231.863,-224.399C256.191,-214.416 288.529,-201.147 311.956,-191.534"/>
<polygon fill="midnightblue" stroke="midnightblue" points="313.479,-194.692 321.401,-187.658 310.821,-188.216 313.479,-194.692"/>
</g>
<!-- Node8 -->
<g id="node8" class="node"><title>Node8</title>
<g id="a_node8"><a xlink:href="../../d0/da9/logging_8hpp.html" target="_top" xlink:title="pfasst/logging.hpp">
<polygon fill="white" stroke="black" points="410.5,-168.5 410.5,-187.5 508.5,-187.5 508.5,-168.5 410.5,-168.5"/>
<text text-anchor="middle" x="459.5" y="-175.5" font-family="Helvetica,sans-Serif" font-size="10.00">pfasst/logging.hpp</text>
</a>
</g>
</g>
<!-- Node1&#45;&gt;Node8 -->
<g id="edge10" class="edge"><title>Node1&#45;&gt;Node8</title>
<path fill="none" stroke="midnightblue" d="M250.52,-226.459C297.784,-215.726 366.341,-200.156 411.885,-189.813"/>
<polygon fill="midnightblue" stroke="midnightblue" points="412.828,-193.188 421.805,-187.561 411.278,-186.362 412.828,-193.188"/>
</g>
<!-- Node2&#45;&gt;Node1 -->
<g id="edge5" class="edge"><title>Node2&#45;&gt;Node1</title>
<path fill="none" stroke="midnightblue" d="M132.361,-187.658C145.068,-195.633 162.3,-207.772 175.946,-218.189"/>
<polygon fill="midnightblue" stroke="midnightblue" points="173.87,-221.008 183.907,-224.399 178.176,-215.489 173.87,-221.008"/>
</g>
<!-- Node2&#45;&gt;Node3 -->
<g id="edge2" class="edge"><title>Node2&#45;&gt;Node3</title>
<path fill="none" stroke="midnightblue" d="M101.201,-168.324C87.3171,-159.9 66.0076,-146.971 49.6963,-137.074"/>
<polygon fill="midnightblue" stroke="midnightblue" points="51.1289,-133.85 40.7639,-131.655 47.4978,-139.834 51.1289,-133.85"/>
</g>
<!-- Node4 -->
<g id="node4" class="node"><title>Node4</title>
<polygon fill="white" stroke="#bfbfbf" points="71.5,-112.5 71.5,-131.5 131.5,-131.5 131.5,-112.5 71.5,-112.5"/>
<text text-anchor="middle" x="101.5" y="-119.5" font-family="Helvetica,sans-Serif" font-size="10.00">stdexcept</text>
</g>
<!-- Node2&#45;&gt;Node4 -->
<g id="edge3" class="edge"><title>Node2&#45;&gt;Node4</title>
<path fill="none" stroke="midnightblue" d="M113.188,-168.083C111.333,-160.927 108.665,-150.635 106.346,-141.691"/>
<polygon fill="midnightblue" stroke="midnightblue" points="109.666,-140.553 103.769,-131.751 102.891,-142.309 109.666,-140.553"/>
</g>
<!-- Node2&#45;&gt;Node5 -->
<g id="edge4" class="edge"><title>Node2&#45;&gt;Node5</title>
<path fill="none" stroke="midnightblue" d="M121.085,-168.328C126.6,-159.474 134.988,-145.194 140.5,-132 146.873,-116.745 151.978,-98.6357 155.285,-85.4114"/>
<polygon fill="midnightblue" stroke="midnightblue" points="158.704,-86.1619 157.628,-75.6218 151.896,-84.5325 158.704,-86.1619"/>
</g>
<!-- Node8&#45;&gt;Node5 -->
<g id="edge13" class="edge"><title>Node8&#45;&gt;Node5</title>
<path fill="none" stroke="midnightblue" d="M414.909,-168.47C366.136,-158.829 291.327,-143.045 264.5,-132 232.379,-118.776 198.857,-96.2539 178.575,-81.5007"/>
<polygon fill="midnightblue" stroke="midnightblue" points="180.608,-78.6513 170.488,-75.5168 176.444,-84.2784 180.608,-78.6513"/>
</g>
<!-- Node9 -->
<g id="node9" class="node"><title>Node9</title>
<polygon fill="white" stroke="#bfbfbf" points="523.5,-112.5 523.5,-131.5 575.5,-131.5 575.5,-112.5 523.5,-112.5"/>
<text text-anchor="middle" x="549.5" y="-119.5" font-family="Helvetica,sans-Serif" font-size="10.00">iomanip</text>
</g>
<!-- Node8&#45;&gt;Node9 -->
<g id="edge11" class="edge"><title>Node8&#45;&gt;Node9</title>
<path fill="none" stroke="midnightblue" d="M473.96,-168.324C488,-159.9 509.548,-146.971 526.043,-137.074"/>
<polygon fill="midnightblue" stroke="midnightblue" points="528.302,-139.801 535.076,-131.655 524.7,-133.798 528.302,-139.801"/>
</g>
<!-- Node10 -->
<g id="node10" class="node"><title>Node10</title>
<polygon fill="white" stroke="#bfbfbf" points="578.5,-56.5 578.5,-75.5 634.5,-75.5 634.5,-56.5 578.5,-56.5"/>
<text text-anchor="middle" x="606.5" y="-63.5" font-family="Helvetica,sans-Serif" font-size="10.00">iostream</text>
</g>
<!-- Node8&#45;&gt;Node10 -->
<g id="edge12" class="edge"><title>Node8&#45;&gt;Node10</title>
<path fill="none" stroke="midnightblue" d="M508.645,-169.804C534.277,-163.703 564.391,-152.499 584.5,-132 596.613,-119.652 602.063,-100.403 604.511,-86.0526"/>
<polygon fill="midnightblue" stroke="midnightblue" points="608.023,-86.1993 605.901,-75.8192 601.087,-85.2571 608.023,-86.1993"/>
</g>
<!-- Node11 -->
<g id="node11" class="node"><title>Node11</title>
<polygon fill="white" stroke="#bfbfbf" points="632,-112.5 632,-131.5 763,-131.5 763,-112.5 632,-112.5"/>
<text text-anchor="middle" x="697.5" y="-119.5" font-family="Helvetica,sans-Serif" font-size="10.00">boost/algorithm/string.hpp</text>
</g>
<!-- Node8&#45;&gt;Node11 -->
<g id="edge14" class="edge"><title>Node8&#45;&gt;Node11</title>
<path fill="none" stroke="midnightblue" d="M497.212,-168.444C538.643,-159.043 605.257,-143.929 650.167,-133.739"/>
<polygon fill="midnightblue" stroke="midnightblue" points="650.987,-137.142 659.965,-131.516 649.438,-130.316 650.987,-137.142"/>
</g>
<!-- Node12 -->
<g id="node12" class="node"><title>Node12</title>
<g id="a_node12"><a xlink:href="../../d8/dfd/config_8hpp.html" target="_top" xlink:title="pfasst/config.hpp">
<polygon fill="white" stroke="black" points="414,-112.5 414,-131.5 505,-131.5 505,-112.5 414,-112.5"/>
<text text-anchor="middle" x="459.5" y="-119.5" font-family="Helvetica,sans-Serif" font-size="10.00">pfasst/config.hpp</text>
</a>
</g>
</g>
<!-- Node8&#45;&gt;Node12 -->
<g id="edge15" class="edge"><title>Node8&#45;&gt;Node12</title>
<path fill="none" stroke="midnightblue" d="M459.5,-168.083C459.5,-161.006 459.5,-150.861 459.5,-141.986"/>
<polygon fill="midnightblue" stroke="midnightblue" points="463,-141.751 459.5,-131.751 456,-141.751 463,-141.751"/>
</g>
<!-- Node19 -->
<g id="node19" class="node"><title>Node19</title>
<polygon fill="white" stroke="#bfbfbf" points="273.5,-112.5 273.5,-131.5 395.5,-131.5 395.5,-112.5 273.5,-112.5"/>
<text text-anchor="middle" x="334.5" y="-119.5" font-family="Helvetica,sans-Serif" font-size="10.00">pfasst/easylogging++.h</text>
</g>
<!-- Node8&#45;&gt;Node19 -->
<g id="edge26" class="edge"><title>Node8&#45;&gt;Node19</title>
<path fill="none" stroke="midnightblue" d="M439.693,-168.444C419.213,-159.596 387.017,-145.687 363.635,-135.586"/>
<polygon fill="midnightblue" stroke="midnightblue" points="364.782,-132.269 354.214,-131.516 362.006,-138.695 364.782,-132.269"/>
</g>
<!-- Node12&#45;&gt;Node5 -->
<g id="edge18" class="edge"><title>Node12&#45;&gt;Node5</title>
<path fill="none" stroke="midnightblue" d="M413.922,-113.479C347.235,-102.465 227.632,-82.6743 190.277,-75.6255"/>
<polygon fill="midnightblue" stroke="midnightblue" points="190.563,-72.1119 180.065,-73.5424 189.164,-78.9706 190.563,-72.1119"/>
</g>
<!-- Node12&#45;&gt;Node10 -->
<g id="edge17" class="edge"><title>Node12&#45;&gt;Node10</title>
<path fill="none" stroke="midnightblue" d="M482.793,-112.444C507.307,-103.438 546.096,-89.1891 573.7,-79.049"/>
<polygon fill="midnightblue" stroke="midnightblue" points="575.137,-82.25 583.316,-75.5164 572.723,-75.6793 575.137,-82.25"/>
</g>
<!-- Node13 -->
<g id="node13" class="node"><title>Node13</title>
<polygon fill="white" stroke="#bfbfbf" points="519.5,-0.5 519.5,-19.5 569.5,-19.5 569.5,-0.5 519.5,-0.5"/>
<text text-anchor="middle" x="544.5" y="-7.5" font-family="Helvetica,sans-Serif" font-size="10.00">fstream</text>
</g>
<!-- Node12&#45;&gt;Node13 -->
<g id="edge16" class="edge"><title>Node12&#45;&gt;Node13</title>
<path fill="none" stroke="midnightblue" d="M482.537,-112.42C498.747,-105.181 519.598,-93.2187 531.5,-76 540.804,-62.5393 543.783,-43.9794 544.593,-30.1371"/>
<polygon fill="midnightblue" stroke="midnightblue" points="548.1,-29.9203 544.855,-19.8347 541.102,-29.7427 548.1,-29.9203"/>
</g>
<!-- Node14 -->
<g id="node14" class="node"><title>Node14</title>
<polygon fill="white" stroke="#bfbfbf" points="198.5,-56.5 198.5,-75.5 234.5,-75.5 234.5,-56.5 198.5,-56.5"/>
<text text-anchor="middle" x="216.5" y="-63.5" font-family="Helvetica,sans-Serif" font-size="10.00">map</text>
</g>
<!-- Node12&#45;&gt;Node14 -->
<g id="edge19" class="edge"><title>Node12&#45;&gt;Node14</title>
<path fill="none" stroke="midnightblue" d="M413.625,-113.045C371.795,-105.434 308.154,-92.9615 244.511,-76.0326"/>
<polygon fill="midnightblue" stroke="midnightblue" points="245.279,-72.6148 234.712,-73.3903 243.456,-79.3733 245.279,-72.6148"/>
</g>
<!-- Node15 -->
<g id="node15" class="node"><title>Node15</title>
<polygon fill="white" stroke="#bfbfbf" points="253,-56.5 253,-75.5 390,-75.5 390,-56.5 253,-56.5"/>
<text text-anchor="middle" x="321.5" y="-63.5" font-family="Helvetica,sans-Serif" font-size="10.00">boost/program_options.hpp</text>
</g>
<!-- Node12&#45;&gt;Node15 -->
<g id="edge20" class="edge"><title>Node12&#45;&gt;Node15</title>
<path fill="none" stroke="midnightblue" d="M437.633,-112.444C414.721,-103.478 378.525,-89.314 352.634,-79.1827"/>
<polygon fill="midnightblue" stroke="midnightblue" points="353.852,-75.9011 343.264,-75.5164 351.301,-82.4198 353.852,-75.9011"/>
</g>
<!-- Node16 -->
<g id="node16" class="node"><title>Node16</title>
<g id="a_node16"><a xlink:href="../../d5/d84/config__impl_8hpp.html" target="_top" xlink:title="pfasst/config_impl.hpp">
<polygon fill="white" stroke="black" points="408.5,-56.5 408.5,-75.5 522.5,-75.5 522.5,-56.5 408.5,-56.5"/>
<text text-anchor="middle" x="465.5" y="-63.5" font-family="Helvetica,sans-Serif" font-size="10.00">pfasst/config_impl.hpp</text>
</a>
</g>
</g>
<!-- Node12&#45;&gt;Node16 -->
<g id="edge21" class="edge"><title>Node12&#45;&gt;Node16</title>
<path fill="none" stroke="midnightblue" d="M455.324,-112.083C454.61,-104.927 455.323,-94.6353 456.966,-85.6911"/>
<polygon fill="midnightblue" stroke="midnightblue" points="460.421,-86.2963 459.397,-75.7511 453.621,-84.6333 460.421,-86.2963"/>
</g>
<!-- Node16&#45;&gt;Node12 -->
<g id="edge22" class="edge"><title>Node16&#45;&gt;Node12</title>
<path fill="none" stroke="midnightblue" d="M469.659,-75.7511C470.395,-82.8579 469.7,-93.1357 468.072,-102.101"/>
<polygon fill="midnightblue" stroke="midnightblue" points="464.607,-101.54 465.657,-112.083 471.411,-103.187 464.607,-101.54"/>
</g>
<!-- Node16&#45;&gt;Node13 -->
<g id="edge23" class="edge"><title>Node16&#45;&gt;Node13</title>
<path fill="none" stroke="midnightblue" d="M478.193,-56.324C490.401,-47.979 509.078,-35.2122 523.503,-25.3524"/>
<polygon fill="midnightblue" stroke="midnightblue" points="525.558,-28.1871 531.839,-19.6545 521.608,-22.4082 525.558,-28.1871"/>
</g>
<!-- Node17 -->
<g id="node17" class="node"><title>Node17</title>
<polygon fill="white" stroke="#bfbfbf" points="386,-0.5 386,-19.5 439,-19.5 439,-0.5 386,-0.5"/>
<text text-anchor="middle" x="412.5" y="-7.5" font-family="Helvetica,sans-Serif" font-size="10.00">sstream</text>
</g>
<!-- Node16&#45;&gt;Node17 -->
<g id="edge24" class="edge"><title>Node16&#45;&gt;Node17</title>
<path fill="none" stroke="midnightblue" d="M456.748,-56.083C449.03,-48.2195 437.595,-36.5688 428.283,-27.0813"/>
<polygon fill="midnightblue" stroke="midnightblue" points="430.592,-24.4363 421.089,-19.7511 425.596,-29.3396 430.592,-24.4363"/>
</g>
<!-- Node18 -->
<g id="node18" class="node"><title>Node18</title>
<polygon fill="white" stroke="#bfbfbf" points="457.5,-0.5 457.5,-19.5 495.5,-19.5 495.5,-0.5 457.5,-0.5"/>
<text text-anchor="middle" x="476.5" y="-7.5" font-family="Helvetica,sans-Serif" font-size="10.00">utility</text>
</g>
<!-- Node16&#45;&gt;Node18 -->
<g id="edge25" class="edge"><title>Node16&#45;&gt;Node18</title>
<path fill="none" stroke="midnightblue" d="M467.316,-56.083C468.774,-48.9272 470.871,-38.6353 472.693,-29.6911"/>
<polygon fill="midnightblue" stroke="midnightblue" points="476.151,-30.2485 474.717,-19.7511 469.292,-28.8512 476.151,-30.2485"/>
</g>
</g>
</svg>
        <g id="navigator" transform="translate(0 0)" fill="#404254">
                <rect fill="#f2f5e9" fill-opacity="0.5" stroke="#606060" stroke-width=".5" x="0" y="0" width="60" height="60"/>
                <use id="zoomplus" xlink:href="#zoomPlus" x="17" y="9" onmousedown="handleZoom(evt,'in')"/>
                <use id="zoomminus" xlink:href="#zoomMin" x="42" y="9" onmousedown="handleZoom(evt,'out')"/>
                <use id="reset" xlink:href="#resetDef" x="30" y="36" onmousedown="handleReset()"/>
                <g id="arrowUp" xlink:href="#dirArrow" transform="translate(30 24)" onmousedown="handlePan(0,-1)">
                  <use xlink:href="#rim" fill="#404040">
                        <set attributeName="fill" to="#808080" begin="arrowUp.mouseover" end="arrowUp.mouseout"/>
                  </use>
                  <path fill="none" stroke="white" stroke-width="1.5" d="M0,-3.0v7 M-2.5,-0.5L0,-3.0L2.5,-0.5"/>
                </g>
                <g id="arrowRight" xlink:href="#dirArrow" transform="rotate(90) translate(36 -43)" onmousedown="handlePan(1,0)">
                  <use xlink:href="#rim" fill="#404040">
                        <set attributeName="fill" to="#808080" begin="arrowRight.mouseover" end="arrowRight.mouseout"/>
                  </use>
                  <path fill="none" stroke="white" stroke-width="1.5" d="M0,-3.0v7 M-2.5,-0.5L0,-3.0L2.5,-0.5"/>
                </g>
                <g id="arrowDown" xlink:href="#dirArrow" transform="rotate(180) translate(-30 -48)" onmousedown="handlePan(0,1)">
                  <use xlink:href="#rim" fill="#404040">
                        <set attributeName="fill" to="#808080" begin="arrowDown.mouseover" end="arrowDown.mouseout"/>
                  </use>
                  <path fill="none" stroke="white" stroke-width="1.5" d="M0,-3.0v7 M-2.5,-0.5L0,-3.0L2.5,-0.5"/>
                </g>
                <g id="arrowLeft" xlink:href="#dirArrow" transform="rotate(270) translate(-36 17)" onmousedown="handlePan(-1,0)">
                  <use xlink:href="#rim" fill="#404040">
                        <set attributeName="fill" to="#808080" begin="arrowLeft.mouseover" end="arrowLeft.mouseout"/>
                  </use>
                  <path fill="none" stroke="white" stroke-width="1.5" d="M0,-3.0v7 M-2.5,-0.5L0,-3.0L2.5,-0.5"/>
                </g>
        </g>
        <svg viewBox="0 0 15 15" width="100%" height="30px" preserveAspectRatio="xMaxYMin meet">
         <g id="arrow_out" transform="scale(0.3 0.3)">
          <a xlink:href="interfaces__impl_8hpp__incl_org.svg" target="_base">
           <rect id="button" ry="5" rx="5" y="6" x="6" height="38" width="38"
                fill="#f2f5e9" fill-opacity="0.5" stroke="#606060" stroke-width="1.0"/>
           <path id="arrow"
             d="M 11.500037,31.436501 C 11.940474,20.09759 22.043105,11.32322 32.158766,21.979434 L 37.068811,17.246167 C 37.068811,17.246167 37.088388,32 37.088388,32 L 22.160133,31.978069 C 22.160133,31.978069 26.997745,27.140456 26.997745,27.140456 C 18.528582,18.264221 13.291696,25.230495 11.500037,31.436501 z"
             style="fill:#404040;"/>
          </a>
         </g>
        </svg>
</svg>
