<?xml version="1.0" encoding="UTF-8" standalone="no"?>
<!DOCTYPE svg PUBLIC "-//W3C//DTD SVG 1.1//EN"
 "http://www.w3.org/Graphics/SVG/1.1/DTD/svg11.dtd">
<!-- Generated by graphviz version 2.38.0 (20140413.2041)
 -->
<!-- Title: pfasst::examples::boris::ErrorTuple&lt; scalar &gt; Pages: 1 -->
<svg width="129pt" height="193pt"
 viewBox="0.00 0.00 129.00 193.00" xmlns="http://www.w3.org/2000/svg" xmlns:xlink="http://www.w3.org/1999/xlink">
<g id="graph0" class="graph" transform="scale(1 1) rotate(0) translate(4 189)">
<title>pfasst::examples::boris::ErrorTuple&lt; scalar &gt;</title>
<polygon fill="white" stroke="none" points="-4,4 -4,-189 125,-189 125,4 -4,4"/>
<!-- Node1 -->
<g id="node1" class="node"><title>Node1</title>
<polygon fill="#bfbfbf" stroke="black" points="-7.10543e-15,-0.5 -7.10543e-15,-68.5 121,-68.5 121,-0.5 -7.10543e-15,-0.5"/>
<text text-anchor="start" x="8" y="-56.5" font-family="Helvetica,sans-Serif" font-size="10.00">pfasst::examples::boris</text>
<text text-anchor="middle" x="60.5" y="-45.5" font-family="Helvetica,sans-Serif" font-size="10.00">::ErrorTuple&lt; scalar &gt;</text>
<polyline fill="none" stroke="black" points="-7.10543e-15,-38.5 121,-38.5 "/>
<text text-anchor="start" x="8" y="-26.5" font-family="Helvetica,sans-Serif" font-size="10.00">+ p_err</text>
<polyline fill="none" stroke="black" points="-7.10543e-15,-19.5 121,-19.5 "/>
<text text-anchor="middle" x="60.5" y="-7.5" font-family="Helvetica,sans-Serif" font-size="10.00"> </text>
</g>
<!-- Node2 -->
<g id="node2" class="node"><title>Node2</title>
<polygon fill="white" stroke="#bfbfbf" points="38.5,-127.5 38.5,-184.5 82.5,-184.5 82.5,-127.5 38.5,-127.5"/>
<text text-anchor="middle" x="60.5" y="-172.5" font-family="Helvetica,sans-Serif" font-size="10.00">scalar</text>
<polyline fill="none" stroke="#bfbfbf" points="38.5,-165.5 82.5,-165.5 "/>
<text text-anchor="middle" x="60.5" y="-153.5" font-family="Helvetica,sans-Serif" font-size="10.00"> </text>
<polyline fill="none" stroke="#bfbfbf" points="38.5,-146.5 82.5,-146.5 "/>
<text text-anchor="middle" x="60.5" y="-134.5" font-family="Helvetica,sans-Serif" font-size="10.00"> </text>
</g>
<!-- Node2&#45;&gt;Node1 -->
<g id="edge1" class="edge"><title>Node2&#45;&gt;Node1</title>
<path fill="none" stroke="#404040" d="M60.5,-127.284C60.5,-113.465 60.5,-96.4009 60.5,-80.7494"/>
<polygon fill="none" stroke="#404040" points="60.5001,-80.5891 56.5,-74.5891 60.5,-68.5891 64.5,-74.589 60.5001,-80.5891"/>
<text text-anchor="middle" x="77.5" y="-101" font-family="Helvetica,sans-Serif" font-size="10.00"> +res</text>
<text text-anchor="middle" x="77.5" y="-90" font-family="Helvetica,sans-Serif" font-size="10.00">+e_drift</text>
</g>
</g>
</svg>
