<?xml version="1.0" encoding="UTF-8" standalone="no"?>
<!DOCTYPE svg PUBLIC "-//W3C//DTD SVG 1.1//EN"
 "http://www.w3.org/Graphics/SVG/1.1/DTD/svg11.dtd">
<!-- Generated by graphviz version 2.38.0 (20140413.2041)
 -->
<!-- Title: examples/boris/particle_util.hpp Pages: 1 -->
<!--zoomable 319 -->
<svg id="main" version="1.1" xmlns="http://www.w3.org/2000/svg" xmlns:xlink="http://www.w3.org/1999/xlink" xml:space="preserve" onload="init(evt)">
<style type="text/css"><![CDATA[
.edge:hover path { stroke: red; }
.edge:hover polygon { stroke: red; fill: red; }
]]></style>
<script type="text/javascript"><![CDATA[
var edges = document.getElementsByTagName('g');
if (edges && edges.length) {
  for (var i=0;i<edges.length;i++) {
    if (edges[i].id.substr(0,4)=='edge') {
      edges[i].setAttribute('class','edge');
    }
  }
}
]]></script>
        <defs>
                <circle id="rim" cx="0" cy="0" r="7"/>
                <circle id="rim2" cx="0" cy="0" r="3.5"/>
                <g id="zoomPlus">
                        <use xlink:href="#rim" fill="#404040">
                                <set attributeName="fill" to="#808080" begin="zoomplus.mouseover" end="zoomplus.mouseout"/>
                        </use>
                        <path d="M-4,0h8M0,-4v8" fill="none" stroke="white" stroke-width="1.5" pointer-events="none"/>
                </g>
                <g id="zoomMin">
                        <use xlink:href="#rim" fill="#404040">
                                <set attributeName="fill" to="#808080" begin="zoomminus.mouseover" end="zoomminus.mouseout"/>
                        </use>
                        <path d="M-4,0h8" fill="none" stroke="white" stroke-width="1.5" pointer-events="none"/>
                </g>
                <g id="dirArrow">
                        <path fill="none" stroke="white" stroke-width="1.5" d="M0,-3.0v7 M-2.5,-0.5L0,-3.0L2.5,-0.5"/>
                </g>
               <g id="resetDef">
                       <use xlink:href="#rim2" fill="#404040">
                               <set attributeName="fill" to="#808080" begin="reset.mouseover" end="reset.mouseout"/>
                       </use>
               </g>
        </defs>

<script type="text/javascript">
var viewWidth = 927;
var viewHeight = 319;
var sectionId = 'dynsection-0';
</script>
<script xlink:href="../../svgpan.js"/>
<svg id="graph" class="graph">
<g id="viewport">
<title>examples/boris/particle_util.hpp</title>
<polygon fill="white" stroke="none" points="-4,4 -4,-315 922.5,-315 922.5,4 -4,4"/>
<!-- Node1 -->
<g id="node1" class="node"><title>Node1</title>
<polygon fill="#bfbfbf" stroke="black" points="128.5,-280.5 128.5,-310.5 249.5,-310.5 249.5,-280.5 128.5,-280.5"/>
<text text-anchor="start" x="136.5" y="-298.5" font-family="Helvetica,sans-Serif" font-size="10.00">examples/boris/particle</text>
<text text-anchor="middle" x="189" y="-287.5" font-family="Helvetica,sans-Serif" font-size="10.00">_util.hpp</text>
</g>
<!-- Node2 -->
<g id="node2" class="node"><title>Node2</title>
<polygon fill="white" stroke="#bfbfbf" points="49.5,-224.5 49.5,-243.5 102.5,-243.5 102.5,-224.5 49.5,-224.5"/>
<text text-anchor="middle" x="76" y="-231.5" font-family="Helvetica,sans-Serif" font-size="10.00">memory</text>
</g>
<!-- Node1&#45;&gt;Node2 -->
<g id="edge1" class="edge"><title>Node1&#45;&gt;Node2</title>
<path fill="none" stroke="midnightblue" d="M162.221,-280.399C143.938,-270.773 119.852,-258.09 101.785,-248.577"/>
<polygon fill="midnightblue" stroke="midnightblue" points="102.922,-245.22 92.4425,-243.658 99.6602,-251.414 102.922,-245.22"/>
</g>
<!-- Node3 -->
<g id="node3" class="node"><title>Node3</title>
<polygon fill="white" stroke="#bfbfbf" points="121,-224.5 121,-243.5 165,-243.5 165,-224.5 121,-224.5"/>
<text text-anchor="middle" x="143" y="-231.5" font-family="Helvetica,sans-Serif" font-size="10.00">vector</text>
</g>
<!-- Node1&#45;&gt;Node3 -->
<g id="edge2" class="edge"><title>Node1&#45;&gt;Node3</title>
<path fill="none" stroke="midnightblue" d="M178.099,-280.399C171.414,-271.753 162.824,-260.642 155.815,-251.576"/>
<polygon fill="midnightblue" stroke="midnightblue" points="158.579,-249.428 149.693,-243.658 153.041,-253.71 158.579,-249.428"/>
</g>
<!-- Node4 -->
<g id="node4" class="node"><title>Node4</title>
<g id="a_node4"><a xlink:href="../../d0/d00/particle__util__impl_8hpp.html" target="_top" xlink:title="particle_util_impl.hpp">
<polygon fill="white" stroke="black" points="182.5,-224.5 182.5,-243.5 289.5,-243.5 289.5,-224.5 182.5,-224.5"/>
<text text-anchor="middle" x="236" y="-231.5" font-family="Helvetica,sans-Serif" font-size="10.00">particle_util_impl.hpp</text>
</a>
</g>
</g>
<!-- Node1&#45;&gt;Node4 -->
<g id="edge3" class="edge"><title>Node1&#45;&gt;Node4</title>
<path fill="none" stroke="midnightblue" d="M194.298,-280.399C200.136,-271.575 209.06,-260.183 217.282,-251.018"/>
<polygon fill="midnightblue" stroke="midnightblue" points="219.911,-253.332 224.232,-243.658 214.821,-248.526 219.911,-253.332"/>
</g>
<!-- Node4&#45;&gt;Node1 -->
<g id="edge4" class="edge"><title>Node4&#45;&gt;Node1</title>
<path fill="none" stroke="midnightblue" d="M234.09,-243.658C229.723,-251.257 221.268,-262.636 212.748,-272.704"/>
<polygon fill="midnightblue" stroke="midnightblue" points="209.955,-270.579 205.978,-280.399 215.211,-275.203 209.955,-270.579"/>
</g>
<!-- Node5 -->
<g id="node5" class="node"><title>Node5</title>
<polygon fill="white" stroke="#bfbfbf" points="0,-168.5 0,-187.5 58,-187.5 58,-168.5 0,-168.5"/>
<text text-anchor="middle" x="29" y="-175.5" font-family="Helvetica,sans-Serif" font-size="10.00">algorithm</text>
</g>
<!-- Node4&#45;&gt;Node5 -->
<g id="edge5" class="edge"><title>Node4&#45;&gt;Node5</title>
<path fill="none" stroke="midnightblue" d="M203.2,-224.444C166.573,-214.889 107.318,-199.431 68.2568,-189.241"/>
<polygon fill="midnightblue" stroke="midnightblue" points="68.8591,-185.781 58.2994,-186.643 67.0921,-192.554 68.8591,-185.781"/>
</g>
<!-- Node6 -->
<g id="node6" class="node"><title>Node6</title>
<polygon fill="white" stroke="#bfbfbf" points="76,-168.5 76,-187.5 126,-187.5 126,-168.5 76,-168.5"/>
<text text-anchor="middle" x="101" y="-175.5" font-family="Helvetica,sans-Serif" font-size="10.00">cassert</text>
</g>
<!-- Node4&#45;&gt;Node6 -->
<g id="edge6" class="edge"><title>Node4&#45;&gt;Node6</title>
<path fill="none" stroke="midnightblue" d="M214.609,-224.444C192.293,-215.517 157.097,-201.439 131.792,-191.317"/>
<polygon fill="midnightblue" stroke="midnightblue" points="132.876,-187.981 122.291,-187.516 130.276,-194.48 132.876,-187.981"/>
</g>
<!-- Node7 -->
<g id="node7" class="node"><title>Node7</title>
<polygon fill="white" stroke="#bfbfbf" points="144,-168.5 144,-187.5 188,-187.5 188,-168.5 144,-168.5"/>
<text text-anchor="middle" x="166" y="-175.5" font-family="Helvetica,sans-Serif" font-size="10.00">cmath</text>
</g>
<!-- Node4&#45;&gt;Node7 -->
<g id="edge7" class="edge"><title>Node4&#45;&gt;Node7</title>
<path fill="none" stroke="midnightblue" d="M224.753,-224.324C214.203,-216.185 198.199,-203.839 185.558,-194.087"/>
<polygon fill="midnightblue" stroke="midnightblue" points="187.507,-191.171 177.451,-187.834 183.231,-196.713 187.507,-191.171"/>
</g>
<!-- Node8 -->
<g id="node8" class="node"><title>Node8</title>
<polygon fill="white" stroke="#bfbfbf" points="206.5,-168.5 206.5,-187.5 265.5,-187.5 265.5,-168.5 206.5,-168.5"/>
<text text-anchor="middle" x="236" y="-175.5" font-family="Helvetica,sans-Serif" font-size="10.00">functional</text>
</g>
<!-- Node4&#45;&gt;Node8 -->
<g id="edge8" class="edge"><title>Node4&#45;&gt;Node8</title>
<path fill="none" stroke="midnightblue" d="M236,-224.083C236,-217.006 236,-206.861 236,-197.986"/>
<polygon fill="midnightblue" stroke="midnightblue" points="239.5,-197.751 236,-187.751 232.5,-197.751 239.5,-197.751"/>
</g>
<!-- Node9 -->
<g id="node9" class="node"><title>Node9</title>
<polygon fill="white" stroke="#bfbfbf" points="284,-168.5 284,-187.5 346,-187.5 346,-168.5 284,-168.5"/>
<text text-anchor="middle" x="315" y="-175.5" font-family="Helvetica,sans-Serif" font-size="10.00">type_traits</text>
</g>
<!-- Node4&#45;&gt;Node9 -->
<g id="edge9" class="edge"><title>Node4&#45;&gt;Node9</title>
<path fill="none" stroke="midnightblue" d="M248.693,-224.324C260.901,-215.979 279.578,-203.212 294.003,-193.352"/>
<polygon fill="midnightblue" stroke="midnightblue" points="296.058,-196.187 302.339,-187.655 292.108,-190.408 296.058,-196.187"/>
</g>
<!-- Node10 -->
<g id="node10" class="node"><title>Node10</title>
<g id="a_node10"><a xlink:href="../../d5/d82/globals_8hpp.html" target="_top" xlink:title="pfasst/globals.hpp">
<polygon fill="white" stroke="black" points="363.5,-168.5 363.5,-187.5 460.5,-187.5 460.5,-168.5 363.5,-168.5"/>
<text text-anchor="middle" x="412" y="-175.5" font-family="Helvetica,sans-Serif" font-size="10.00">pfasst/globals.hpp</text>
</a>
</g>
</g>
<!-- Node4&#45;&gt;Node10 -->
<g id="edge10" class="edge"><title>Node4&#45;&gt;Node10</title>
<path fill="none" stroke="midnightblue" d="M263.888,-224.444C293.754,-215.28 341.315,-200.688 374.456,-190.519"/>
<polygon fill="midnightblue" stroke="midnightblue" points="375.709,-193.796 384.243,-187.516 373.656,-187.104 375.709,-193.796"/>
</g>
<!-- Node11 -->
<g id="node11" class="node"><title>Node11</title>
<g id="a_node11"><a xlink:href="../../d0/da9/logging_8hpp.html" target="_top" xlink:title="pfasst/logging.hpp">
<polygon fill="white" stroke="black" points="478,-168.5 478,-187.5 576,-187.5 576,-168.5 478,-168.5"/>
<text text-anchor="middle" x="527" y="-175.5" font-family="Helvetica,sans-Serif" font-size="10.00">pfasst/logging.hpp</text>
</a>
</g>
</g>
<!-- Node4&#45;&gt;Node11 -->
<g id="edge11" class="edge"><title>Node4&#45;&gt;Node11</title>
<path fill="none" stroke="midnightblue" d="M282.11,-224.444C333.406,-214.925 416.273,-199.547 471.191,-189.356"/>
<polygon fill="midnightblue" stroke="midnightblue" points="471.912,-192.782 481.106,-187.516 470.635,-185.9 471.912,-192.782"/>
</g>
<!-- Node12 -->
<g id="node12" class="node"><title>Node12</title>
<polygon fill="white" stroke="#bfbfbf" points="372,-112.5 372,-131.5 424,-131.5 424,-112.5 372,-112.5"/>
<text text-anchor="middle" x="398" y="-119.5" font-family="Helvetica,sans-Serif" font-size="10.00">iomanip</text>
</g>
<!-- Node11&#45;&gt;Node12 -->
<g id="edge12" class="edge"><title>Node11&#45;&gt;Node12</title>
<path fill="none" stroke="midnightblue" d="M506.56,-168.444C485.33,-159.557 451.901,-145.563 427.745,-135.451"/>
<polygon fill="midnightblue" stroke="midnightblue" points="428.921,-132.149 418.345,-131.516 426.218,-138.606 428.921,-132.149"/>
</g>
<!-- Node13 -->
<g id="node13" class="node"><title>Node13</title>
<polygon fill="white" stroke="#bfbfbf" points="395,-56.5 395,-75.5 451,-75.5 451,-56.5 395,-56.5"/>
<text text-anchor="middle" x="423" y="-63.5" font-family="Helvetica,sans-Serif" font-size="10.00">iostream</text>
</g>
<!-- Node11&#45;&gt;Node13 -->
<g id="edge13" class="edge"><title>Node11&#45;&gt;Node13</title>
<path fill="none" stroke="midnightblue" d="M518.839,-168.368C501.448,-149.974 460.507,-106.671 438.176,-83.0519"/>
<polygon fill="midnightblue" stroke="midnightblue" points="440.536,-80.4534 431.123,-75.5914 435.45,-85.2625 440.536,-80.4534"/>
</g>
<!-- Node14 -->
<g id="node14" class="node"><title>Node14</title>
<polygon fill="white" stroke="#bfbfbf" points="469.5,-56.5 469.5,-75.5 510.5,-75.5 510.5,-56.5 469.5,-56.5"/>
<text text-anchor="middle" x="490" y="-63.5" font-family="Helvetica,sans-Serif" font-size="10.00">string</text>
</g>
<!-- Node11&#45;&gt;Node14 -->
<g id="edge14" class="edge"><title>Node11&#45;&gt;Node14</title>
<path fill="none" stroke="midnightblue" d="M523.301,-168.466C519.475,-159.483 513.449,-144.885 509,-132 503.664,-116.546 498.519,-98.7011 494.932,-85.6234"/>
<polygon fill="midnightblue" stroke="midnightblue" points="498.297,-84.6606 492.315,-75.9164 491.538,-86.4827 498.297,-84.6606"/>
</g>
<!-- Node15 -->
<g id="node15" class="node"><title>Node15</title>
<polygon fill="white" stroke="#bfbfbf" points="627.5,-112.5 627.5,-131.5 758.5,-131.5 758.5,-112.5 627.5,-112.5"/>
<text text-anchor="middle" x="693" y="-119.5" font-family="Helvetica,sans-Serif" font-size="10.00">boost/algorithm/string.hpp</text>
</g>
<!-- Node11&#45;&gt;Node15 -->
<g id="edge15" class="edge"><title>Node11&#45;&gt;Node15</title>
<path fill="none" stroke="midnightblue" d="M553.303,-168.444C581.351,-159.32 625.944,-144.813 657.184,-134.651"/>
<polygon fill="midnightblue" stroke="midnightblue" points="658.393,-137.938 666.82,-131.516 656.228,-131.282 658.393,-137.938"/>
</g>
<!-- Node16 -->
<g id="node16" class="node"><title>Node16</title>
<g id="a_node16"><a xlink:href="../../d8/dfd/config_8hpp.html" target="_top" xlink:title="pfasst/config.hpp">
<polygon fill="white" stroke="black" points="518.5,-112.5 518.5,-131.5 609.5,-131.5 609.5,-112.5 518.5,-112.5"/>
<text text-anchor="middle" x="564" y="-119.5" font-family="Helvetica,sans-Serif" font-size="10.00">pfasst/config.hpp</text>
</a>
</g>
</g>
<!-- Node11&#45;&gt;Node16 -->
<g id="edge16" class="edge"><title>Node11&#45;&gt;Node16</title>
<path fill="none" stroke="midnightblue" d="M533.11,-168.083C538.282,-160.534 545.846,-149.495 552.194,-140.23"/>
<polygon fill="midnightblue" stroke="midnightblue" points="555.239,-141.979 558.004,-131.751 549.464,-138.022 555.239,-141.979"/>
</g>
<!-- Node23 -->
<g id="node23" class="node"><title>Node23</title>
<polygon fill="white" stroke="#bfbfbf" points="777,-112.5 777,-131.5 899,-131.5 899,-112.5 777,-112.5"/>
<text text-anchor="middle" x="838" y="-119.5" font-family="Helvetica,sans-Serif" font-size="10.00">pfasst/easylogging++.h</text>
</g>
<!-- Node11&#45;&gt;Node23 -->
<g id="edge27" class="edge"><title>Node11&#45;&gt;Node23</title>
<path fill="none" stroke="midnightblue" d="M576.279,-168.444C631.328,-158.885 720.399,-143.419 779.084,-133.23"/>
<polygon fill="midnightblue" stroke="midnightblue" points="779.698,-136.676 788.952,-131.516 778.5,-129.779 779.698,-136.676"/>
</g>
<!-- Node16&#45;&gt;Node13 -->
<g id="edge18" class="edge"><title>Node16&#45;&gt;Node13</title>
<path fill="none" stroke="midnightblue" d="M541.658,-112.444C518.247,-103.478 481.264,-89.314 454.81,-79.1827"/>
<polygon fill="midnightblue" stroke="midnightblue" points="455.828,-75.8245 445.237,-75.5164 453.324,-82.3615 455.828,-75.8245"/>
</g>
<!-- Node16&#45;&gt;Node14 -->
<g id="edge19" class="edge"><title>Node16&#45;&gt;Node14</title>
<path fill="none" stroke="midnightblue" d="M552.111,-112.324C540.85,-104.107 523.713,-91.6017 510.291,-81.8069"/>
<polygon fill="midnightblue" stroke="midnightblue" points="512.247,-78.9014 502.106,-75.8339 508.12,-84.5559 512.247,-78.9014"/>
</g>
<!-- Node17 -->
<g id="node17" class="node"><title>Node17</title>
<polygon fill="white" stroke="#bfbfbf" points="730,-0.5 730,-19.5 780,-19.5 780,-0.5 730,-0.5"/>
<text text-anchor="middle" x="755" y="-7.5" font-family="Helvetica,sans-Serif" font-size="10.00">fstream</text>
</g>
<!-- Node16&#45;&gt;Node17 -->
<g id="edge17" class="edge"><title>Node16&#45;&gt;Node17</title>
<path fill="none" stroke="midnightblue" d="M609.847,-113.364C652.609,-105.411 712.377,-91.9041 730,-76 743.304,-63.9937 749.583,-44.1011 752.512,-29.4789"/>
<polygon fill="midnightblue" stroke="midnightblue" points="755.976,-29.9803 754.159,-19.5425 749.071,-28.8352 755.976,-29.9803"/>
</g>
<!-- Node18 -->
<g id="node18" class="node"><title>Node18</title>
<polygon fill="white" stroke="#bfbfbf" points="529,-56.5 529,-75.5 565,-75.5 565,-56.5 529,-56.5"/>
<text text-anchor="middle" x="547" y="-63.5" font-family="Helvetica,sans-Serif" font-size="10.00">map</text>
</g>
<!-- Node16&#45;&gt;Node18 -->
<g id="edge20" class="edge"><title>Node16&#45;&gt;Node18</title>
<path fill="none" stroke="midnightblue" d="M561.193,-112.083C558.915,-104.849 555.629,-94.4087 552.792,-85.3968"/>
<polygon fill="midnightblue" stroke="midnightblue" points="556.096,-84.2385 549.755,-75.7511 549.419,-86.3406 556.096,-84.2385"/>
</g>
<!-- Node19 -->
<g id="node19" class="node"><title>Node19</title>
<polygon fill="white" stroke="#bfbfbf" points="583.5,-56.5 583.5,-75.5 720.5,-75.5 720.5,-56.5 583.5,-56.5"/>
<text text-anchor="middle" x="652" y="-63.5" font-family="Helvetica,sans-Serif" font-size="10.00">boost/program_options.hpp</text>
</g>
<!-- Node16&#45;&gt;Node19 -->
<g id="edge21" class="edge"><title>Node16&#45;&gt;Node19</title>
<path fill="none" stroke="midnightblue" d="M578.139,-112.324C591.866,-103.9 612.936,-90.9709 629.064,-81.0741"/>
<polygon fill="midnightblue" stroke="midnightblue" points="631.204,-83.8678 637.896,-75.6545 627.543,-77.9016 631.204,-83.8678"/>
</g>
<!-- Node20 -->
<g id="node20" class="node"><title>Node20</title>
<g id="a_node20"><a xlink:href="../../d5/d84/config__impl_8hpp.html" target="_top" xlink:title="pfasst/config_impl.hpp">
<polygon fill="white" stroke="black" points="777,-56.5 777,-75.5 891,-75.5 891,-56.5 777,-56.5"/>
<text text-anchor="middle" x="834" y="-63.5" font-family="Helvetica,sans-Serif" font-size="10.00">pfasst/config_impl.hpp</text>
</a>
</g>
</g>
<!-- Node16&#45;&gt;Node20 -->
<g id="edge22" class="edge"><title>Node16&#45;&gt;Node20</title>
<path fill="none" stroke="midnightblue" d="M601.694,-112.444C647.106,-102.944 723.649,-87.611 776.441,-77.4198"/>
<polygon fill="midnightblue" stroke="midnightblue" points="777.179,-80.8422 786.338,-75.5164 775.857,-73.9682 777.179,-80.8422"/>
</g>
<!-- Node20&#45;&gt;Node16 -->
<g id="edge23" class="edge"><title>Node20&#45;&gt;Node16</title>
<path fill="none" stroke="midnightblue" d="M796.258,-75.5666C750.274,-85.185 672.42,-100.776 619.596,-110.959"/>
<polygon fill="midnightblue" stroke="midnightblue" points="618.871,-107.534 609.71,-112.857 620.191,-114.408 618.871,-107.534"/>
</g>
<!-- Node20&#45;&gt;Node17 -->
<g id="edge24" class="edge"><title>Node20&#45;&gt;Node17</title>
<path fill="none" stroke="midnightblue" d="M821.307,-56.324C809.099,-47.979 790.422,-35.2122 775.997,-25.3524"/>
<polygon fill="midnightblue" stroke="midnightblue" points="777.892,-22.4082 767.661,-19.6545 773.942,-28.1871 777.892,-22.4082"/>
</g>
<!-- Node21 -->
<g id="node21" class="node"><title>Node21</title>
<polygon fill="white" stroke="#bfbfbf" points="865.5,-0.5 865.5,-19.5 918.5,-19.5 918.5,-0.5 865.5,-0.5"/>
<text text-anchor="middle" x="892" y="-7.5" font-family="Helvetica,sans-Serif" font-size="10.00">sstream</text>
</g>
<!-- Node20&#45;&gt;Node21 -->
<g id="edge25" class="edge"><title>Node20&#45;&gt;Node21</title>
<path fill="none" stroke="midnightblue" d="M843.319,-56.324C851.893,-48.3414 864.812,-36.3128 875.188,-26.6529"/>
<polygon fill="midnightblue" stroke="midnightblue" points="877.578,-29.2098 882.512,-19.8339 872.808,-24.0865 877.578,-29.2098"/>
</g>
<!-- Node22 -->
<g id="node22" class="node"><title>Node22</title>
<polygon fill="white" stroke="#bfbfbf" points="809,-0.5 809,-19.5 847,-19.5 847,-0.5 809,-0.5"/>
<text text-anchor="middle" x="828" y="-7.5" font-family="Helvetica,sans-Serif" font-size="10.00">utility</text>
</g>
<!-- Node20&#45;&gt;Node22 -->
<g id="edge26" class="edge"><title>Node20&#45;&gt;Node22</title>
<path fill="none" stroke="midnightblue" d="M833.009,-56.083C832.214,-48.9272 831.071,-38.6353 830.077,-29.6911"/>
<polygon fill="midnightblue" stroke="midnightblue" points="833.555,-29.3034 828.972,-19.7511 826.598,-30.0765 833.555,-29.3034"/>
</g>
</g>
</svg>
        <g id="navigator" transform="translate(0 0)" fill="#404254">
                <rect fill="#f2f5e9" fill-opacity="0.5" stroke="#606060" stroke-width=".5" x="0" y="0" width="60" height="60"/>
                <use id="zoomplus" xlink:href="#zoomPlus" x="17" y="9" onmousedown="handleZoom(evt,'in')"/>
                <use id="zoomminus" xlink:href="#zoomMin" x="42" y="9" onmousedown="handleZoom(evt,'out')"/>
                <use id="reset" xlink:href="#resetDef" x="30" y="36" onmousedown="handleReset()"/>
                <g id="arrowUp" xlink:href="#dirArrow" transform="translate(30 24)" onmousedown="handlePan(0,-1)">
                  <use xlink:href="#rim" fill="#404040">
                        <set attributeName="fill" to="#808080" begin="arrowUp.mouseover" end="arrowUp.mouseout"/>
                  </use>
                  <path fill="none" stroke="white" stroke-width="1.5" d="M0,-3.0v7 M-2.5,-0.5L0,-3.0L2.5,-0.5"/>
                </g>
                <g id="arrowRight" xlink:href="#dirArrow" transform="rotate(90) translate(36 -43)" onmousedown="handlePan(1,0)">
                  <use xlink:href="#rim" fill="#404040">
                        <set attributeName="fill" to="#808080" begin="arrowRight.mouseover" end="arrowRight.mouseout"/>
                  </use>
                  <path fill="none" stroke="white" stroke-width="1.5" d="M0,-3.0v7 M-2.5,-0.5L0,-3.0L2.5,-0.5"/>
                </g>
                <g id="arrowDown" xlink:href="#dirArrow" transform="rotate(180) translate(-30 -48)" onmousedown="handlePan(0,1)">
                  <use xlink:href="#rim" fill="#404040">
                        <set attributeName="fill" to="#808080" begin="arrowDown.mouseover" end="arrowDown.mouseout"/>
                  </use>
                  <path fill="none" stroke="white" stroke-width="1.5" d="M0,-3.0v7 M-2.5,-0.5L0,-3.0L2.5,-0.5"/>
                </g>
                <g id="arrowLeft" xlink:href="#dirArrow" transform="rotate(270) translate(-36 17)" onmousedown="handlePan(-1,0)">
                  <use xlink:href="#rim" fill="#404040">
                        <set attributeName="fill" to="#808080" begin="arrowLeft.mouseover" end="arrowLeft.mouseout"/>
                  </use>
                  <path fill="none" stroke="white" stroke-width="1.5" d="M0,-3.0v7 M-2.5,-0.5L0,-3.0L2.5,-0.5"/>
                </g>
        </g>
        <svg viewBox="0 0 15 15" width="100%" height="30px" preserveAspectRatio="xMaxYMin meet">
         <g id="arrow_out" transform="scale(0.3 0.3)">
          <a xlink:href="particle__util_8hpp__incl_org.svg" target="_base">
           <rect id="button" ry="5" rx="5" y="6" x="6" height="38" width="38"
                fill="#f2f5e9" fill-opacity="0.5" stroke="#606060" stroke-width="1.0"/>
           <path id="arrow"
             d="M 11.500037,31.436501 C 11.940474,20.09759 22.043105,11.32322 32.158766,21.979434 L 37.068811,17.246167 C 37.068811,17.246167 37.088388,32 37.088388,32 L 22.160133,31.978069 C 22.160133,31.978069 26.997745,27.140456 26.997745,27.140456 C 18.528582,18.264221 13.291696,25.230495 11.500037,31.436501 z"
             style="fill:#404040;"/>
          </a>
         </g>
        </svg>
</svg>
