<?xml version="1.0" encoding="UTF-8" standalone="no"?>
<!DOCTYPE svg PUBLIC "-//W3C//DTD SVG 1.1//EN"
 "http://www.w3.org/Graphics/SVG/1.1/DTD/svg11.dtd">
<!-- Generated by graphviz version 2.38.0 (20140413.2041)
 -->
<!-- Title: examples/boris/bindings/wrapper_simple_physics_solver_impl.hpp Pages: 1 -->
<svg width="1720pt" height="688pt"
 viewBox="0.00 0.00 1720.00 688.00" xmlns="http://www.w3.org/2000/svg" xmlns:xlink="http://www.w3.org/1999/xlink">
<g id="graph0" class="graph" transform="scale(1 1) rotate(0) translate(4 684)">
<title>examples/boris/bindings/wrapper_simple_physics_solver_impl.hpp</title>
<polygon fill="white" stroke="none" points="-4,4 -4,-684 1716,-684 1716,4 -4,4"/>
<!-- Node1 -->
<g id="node1" class="node"><title>Node1</title>
<polygon fill="#bfbfbf" stroke="black" points="631.5,-638.5 631.5,-679.5 760.5,-679.5 760.5,-638.5 631.5,-638.5"/>
<text text-anchor="start" x="639.5" y="-667.5" font-family="Helvetica,sans-Serif" font-size="10.00">examples/boris/bindings</text>
<text text-anchor="start" x="639.5" y="-656.5" font-family="Helvetica,sans-Serif" font-size="10.00">/wrapper_simple_physics</text>
<text text-anchor="middle" x="696" y="-645.5" font-family="Helvetica,sans-Serif" font-size="10.00">_solver_impl.hpp</text>
</g>
<!-- Node2 -->
<g id="node2" class="node"><title>Node2</title>
<g id="a_node2"><a xlink:href="../../dd/da4/wrapper__simple__physics__solver_8hpp.html" target="_top" xlink:title="wrapper_simple_physics\l_solver.hpp">
<polygon fill="white" stroke="black" points="690,-571.5 690,-601.5 816,-601.5 816,-571.5 690,-571.5"/>
<text text-anchor="start" x="698" y="-589.5" font-family="Helvetica,sans-Serif" font-size="10.00">wrapper_simple_physics</text>
<text text-anchor="middle" x="753" y="-578.5" font-family="Helvetica,sans-Serif" font-size="10.00">_solver.hpp</text>
</a>
</g>
</g>
<!-- Node1&#45;&gt;Node2 -->
<g id="edge1" class="edge"><title>Node1&#45;&gt;Node2</title>
<path fill="none" stroke="midnightblue" d="M705.754,-638.362C712.223,-629.412 720.756,-618.78 728.856,-609.557"/>
<polygon fill="midnightblue" stroke="midnightblue" points="731.68,-611.653 735.799,-601.892 726.492,-606.953 731.68,-611.653"/>
</g>
<!-- Node8 -->
<g id="node8" class="node"><title>Node8</title>
<g id="a_node8"><a xlink:href="../../d0/da9/logging_8hpp.html" target="_top" xlink:title="pfasst/logging.hpp">
<polygon fill="white" stroke="black" points="568,-168.5 568,-187.5 666,-187.5 666,-168.5 568,-168.5"/>
<text text-anchor="middle" x="617" y="-175.5" font-family="Helvetica,sans-Serif" font-size="10.00">pfasst/logging.hpp</text>
</a>
</g>
</g>
<!-- Node1&#45;&gt;Node8 -->
<g id="edge85" class="edge"><title>Node1&#45;&gt;Node8</title>
<path fill="none" stroke="midnightblue" d="M631.309,-653.618C501.162,-643.021 220,-610.364 220,-526 220,-526 220,-526 220,-294.5 220,-259.435 451.291,-210.609 560.793,-189.458"/>
<polygon fill="midnightblue" stroke="midnightblue" points="561.521,-192.882 570.682,-187.559 560.201,-186.007 561.521,-192.882"/>
</g>
<!-- Node40 -->
<g id="node40" class="node"><title>Node40</title>
<g id="a_node40"><a xlink:href="../../de/dca/simple__physics__solver_8hpp.html" target="_top" xlink:title="simple_physics_solver.hpp">
<polygon fill="white" stroke="black" points="570,-515.5 570,-534.5 706,-534.5 706,-515.5 570,-515.5"/>
<text text-anchor="middle" x="638" y="-522.5" font-family="Helvetica,sans-Serif" font-size="10.00">simple_physics_solver.hpp</text>
</a>
</g>
</g>
<!-- Node1&#45;&gt;Node40 -->
<g id="edge84" class="edge"><title>Node1&#45;&gt;Node40</title>
<path fill="none" stroke="midnightblue" d="M687.317,-638.238C676.09,-612.688 656.7,-568.56 645.88,-543.934"/>
<polygon fill="midnightblue" stroke="midnightblue" points="649.044,-542.433 641.816,-534.686 642.635,-545.249 649.044,-542.433"/>
</g>
<!-- Node2&#45;&gt;Node1 -->
<g id="edge83" class="edge"><title>Node2&#45;&gt;Node1</title>
<path fill="none" stroke="midnightblue" d="M746.929,-601.892C741.297,-610.189 732.985,-620.895 724.645,-630.727"/>
<polygon fill="midnightblue" stroke="midnightblue" points="721.925,-628.52 718.001,-638.362 727.206,-633.115 721.925,-628.52"/>
</g>
<!-- Node3 -->
<g id="node3" class="node"><title>Node3</title>
<polygon fill="white" stroke="#bfbfbf" points="656.5,-459.5 656.5,-478.5 701.5,-478.5 701.5,-459.5 656.5,-459.5"/>
<text text-anchor="middle" x="679" y="-466.5" font-family="Helvetica,sans-Serif" font-size="10.00">cstdlib</text>
</g>
<!-- Node2&#45;&gt;Node3 -->
<g id="edge2" class="edge"><title>Node2&#45;&gt;Node3</title>
<path fill="none" stroke="midnightblue" d="M746.288,-571.293C739.198,-556.74 727.353,-533.669 715,-515 708.444,-505.092 700.224,-494.693 693.294,-486.391"/>
<polygon fill="midnightblue" stroke="midnightblue" points="695.813,-483.95 686.664,-478.606 690.484,-488.489 695.813,-483.95"/>
</g>
<!-- Node4 -->
<g id="node4" class="node"><title>Node4</title>
<polygon fill="white" stroke="#bfbfbf" points="1476.5,-168.5 1476.5,-187.5 1529.5,-187.5 1529.5,-168.5 1476.5,-168.5"/>
<text text-anchor="middle" x="1503" y="-175.5" font-family="Helvetica,sans-Serif" font-size="10.00">memory</text>
</g>
<!-- Node2&#45;&gt;Node4 -->
<g id="edge3" class="edge"><title>Node2&#45;&gt;Node4</title>
<path fill="none" stroke="midnightblue" d="M816.149,-583.883C1018.25,-577.88 1636,-552.762 1636,-470 1636,-470 1636,-470 1636,-294.5 1636,-242.203 1576.65,-208.236 1537.25,-191.446"/>
<polygon fill="midnightblue" stroke="midnightblue" points="1538.29,-188.09 1527.7,-187.547 1535.64,-194.57 1538.29,-188.09"/>
</g>
<!-- Node5 -->
<g id="node5" class="node"><title>Node5</title>
<polygon fill="white" stroke="#bfbfbf" points="1655,-0.5 1655,-19.5 1693,-19.5 1693,-0.5 1655,-0.5"/>
<text text-anchor="middle" x="1674" y="-7.5" font-family="Helvetica,sans-Serif" font-size="10.00">utility</text>
</g>
<!-- Node2&#45;&gt;Node5 -->
<g id="edge4" class="edge"><title>Node2&#45;&gt;Node5</title>
<path fill="none" stroke="midnightblue" d="M816.294,-584.547C1030.06,-580.502 1712,-560.504 1712,-470 1712,-470 1712,-470 1712,-121 1712,-86.8131 1695.4,-49.7639 1684.14,-28.5707"/>
<polygon fill="midnightblue" stroke="midnightblue" points="1687.18,-26.832 1679.28,-19.769 1681.05,-30.2151 1687.18,-26.832"/>
</g>
<!-- Node6 -->
<g id="node6" class="node"><title>Node6</title>
<g id="a_node6"><a xlink:href="../../d8/d52/particle__cloud_8hpp.html" target="_top" xlink:title="../particle_cloud.hpp">
<polygon fill="white" stroke="black" points="720,-459.5 720,-478.5 824,-478.5 824,-459.5 720,-459.5"/>
<text text-anchor="middle" x="772" y="-466.5" font-family="Helvetica,sans-Serif" font-size="10.00">../particle_cloud.hpp</text>
</a>
</g>
</g>
<!-- Node2&#45;&gt;Node6 -->
<g id="edge5" class="edge"><title>Node2&#45;&gt;Node6</title>
<path fill="none" stroke="midnightblue" d="M755.33,-571.337C758.753,-550.527 765.146,-511.663 768.943,-488.583"/>
<polygon fill="midnightblue" stroke="midnightblue" points="772.404,-489.105 770.574,-478.669 765.497,-487.969 772.404,-489.105"/>
</g>
<!-- Node39 -->
<g id="node39" class="node"><title>Node39</title>
<g id="a_node39"><a xlink:href="../../d9/dd9/wrapper__interface_8hpp.html" target="_top" xlink:title="wrapper_interface.hpp">
<polygon fill="white" stroke="black" points="800,-515.5 800,-534.5 914,-534.5 914,-515.5 800,-515.5"/>
<text text-anchor="middle" x="857" y="-522.5" font-family="Helvetica,sans-Serif" font-size="10.00">wrapper_interface.hpp</text>
</a>
</g>
</g>
<!-- Node2&#45;&gt;Node39 -->
<g id="edge75" class="edge"><title>Node2&#45;&gt;Node39</title>
<path fill="none" stroke="midnightblue" d="M777.647,-571.399C794.317,-561.862 816.231,-549.325 832.805,-539.842"/>
<polygon fill="midnightblue" stroke="midnightblue" points="834.925,-542.662 841.867,-534.658 831.449,-536.586 834.925,-542.662"/>
</g>
<!-- Node2&#45;&gt;Node40 -->
<g id="edge81" class="edge"><title>Node2&#45;&gt;Node40</title>
<path fill="none" stroke="midnightblue" d="M725.747,-571.399C706.968,-561.684 682.174,-548.855 663.732,-539.314"/>
<polygon fill="midnightblue" stroke="midnightblue" points="665.224,-536.145 654.734,-534.658 662.007,-542.362 665.224,-536.145"/>
</g>
<!-- Node6&#45;&gt;Node4 -->
<g id="edge6" class="edge"><title>Node6&#45;&gt;Node4</title>
<path fill="none" stroke="midnightblue" d="M824.008,-466.234C999.661,-459.589 1560,-432.548 1560,-358 1560,-358 1560,-358 1560,-294.5 1560,-255.783 1533.93,-216.604 1517.05,-195.298"/>
<polygon fill="midnightblue" stroke="midnightblue" points="1519.74,-193.062 1510.69,-187.557 1514.33,-197.506 1519.74,-193.062"/>
</g>
<!-- Node7 -->
<g id="node7" class="node"><title>Node7</title>
<polygon fill="white" stroke="#bfbfbf" points="1009,-224.5 1009,-243.5 1053,-243.5 1053,-224.5 1009,-224.5"/>
<text text-anchor="middle" x="1031" y="-231.5" font-family="Helvetica,sans-Serif" font-size="10.00">vector</text>
</g>
<!-- Node6&#45;&gt;Node7 -->
<g id="edge7" class="edge"><title>Node6&#45;&gt;Node7</title>
<path fill="none" stroke="midnightblue" d="M824.063,-466.387C864.611,-462.741 920.465,-452.229 960,-423 1015.17,-382.212 1027.48,-293.148 1030.22,-254.048"/>
<polygon fill="midnightblue" stroke="midnightblue" points="1033.74,-253.806 1030.8,-243.627 1026.75,-253.417 1033.74,-253.806"/>
</g>
<!-- Node6&#45;&gt;Node8 -->
<g id="edge8" class="edge"><title>Node6&#45;&gt;Node8</title>
<path fill="none" stroke="midnightblue" d="M739.96,-459.435C696.982,-445.779 626,-414.649 626,-358 626,-358 626,-358 626,-294.5 626,-260.26 622.02,-220.483 619.353,-197.674"/>
<polygon fill="midnightblue" stroke="midnightblue" points="622.819,-197.181 618.14,-187.675 615.87,-198.024 622.819,-197.181"/>
</g>
<!-- Node20 -->
<g id="node20" class="node"><title>Node20</title>
<g id="a_node20"><a xlink:href="../../d8/d85/encapsulation_8hpp.html" target="_top" xlink:title="pfasst/encap/encapsulation.hpp">
<polygon fill="white" stroke="black" points="1089.5,-347.5 1089.5,-366.5 1246.5,-366.5 1246.5,-347.5 1089.5,-347.5"/>
<text text-anchor="middle" x="1168" y="-354.5" font-family="Helvetica,sans-Serif" font-size="10.00">pfasst/encap/encapsulation.hpp</text>
</a>
</g>
</g>
<!-- Node6&#45;&gt;Node20 -->
<g id="edge25" class="edge"><title>Node6&#45;&gt;Node20</title>
<path fill="none" stroke="midnightblue" d="M824.224,-464.512C880.279,-459.605 971.337,-448.254 1046,-423 1083.33,-410.374 1122.96,-387.203 1146.59,-372.209"/>
<polygon fill="midnightblue" stroke="midnightblue" points="1148.6,-375.076 1155.11,-366.714 1144.81,-369.193 1148.6,-375.076"/>
</g>
<!-- Node28 -->
<g id="node28" class="node"><title>Node28</title>
<g id="a_node28"><a xlink:href="../../d4/dec/particle_8hpp.html" target="_top" xlink:title="particle.hpp">
<polygon fill="white" stroke="black" points="884.5,-403.5 884.5,-422.5 951.5,-422.5 951.5,-403.5 884.5,-403.5"/>
<text text-anchor="middle" x="918" y="-410.5" font-family="Helvetica,sans-Serif" font-size="10.00">particle.hpp</text>
</a>
</g>
</g>
<!-- Node6&#45;&gt;Node28 -->
<g id="edge43" class="edge"><title>Node6&#45;&gt;Node28</title>
<path fill="none" stroke="midnightblue" d="M795.134,-459.444C819.482,-450.438 858.007,-436.189 885.423,-426.049"/>
<polygon fill="midnightblue" stroke="midnightblue" points="886.809,-429.268 894.974,-422.516 884.381,-422.703 886.809,-429.268"/>
</g>
<!-- Node36 -->
<g id="node36" class="node"><title>Node36</title>
<g id="a_node36"><a xlink:href="../../d6/d1f/particle__cloud__impl_8hpp.html" target="_top" xlink:title="particle_cloud_impl.hpp">
<polygon fill="white" stroke="black" points="467,-347.5 467,-366.5 587,-366.5 587,-347.5 467,-347.5"/>
<text text-anchor="middle" x="527" y="-354.5" font-family="Helvetica,sans-Serif" font-size="10.00">particle_cloud_impl.hpp</text>
</a>
</g>
</g>
<!-- Node6&#45;&gt;Node36 -->
<g id="edge63" class="edge"><title>Node6&#45;&gt;Node36</title>
<path fill="none" stroke="midnightblue" d="M719.777,-460.148C685.19,-453.244 639.781,-441.384 603,-423 577.441,-410.225 551.91,-389.336 537.553,-374.696"/>
<polygon fill="midnightblue" stroke="midnightblue" points="539.79,-371.953 530.475,-366.906 534.61,-376.661 539.79,-371.953"/>
</g>
<!-- Node9 -->
<g id="node9" class="node"><title>Node9</title>
<polygon fill="white" stroke="#bfbfbf" points="864,-112.5 864,-131.5 916,-131.5 916,-112.5 864,-112.5"/>
<text text-anchor="middle" x="890" y="-119.5" font-family="Helvetica,sans-Serif" font-size="10.00">iomanip</text>
</g>
<!-- Node8&#45;&gt;Node9 -->
<g id="edge9" class="edge"><title>Node8&#45;&gt;Node9</title>
<path fill="none" stroke="midnightblue" d="M660.258,-168.444C713.737,-157.865 803.793,-140.052 853.793,-130.162"/>
<polygon fill="midnightblue" stroke="midnightblue" points="854.696,-133.551 863.827,-128.177 853.337,-126.684 854.696,-133.551"/>
</g>
<!-- Node10 -->
<g id="node10" class="node"><title>Node10</title>
<polygon fill="white" stroke="#bfbfbf" points="380,-56.5 380,-75.5 436,-75.5 436,-56.5 380,-56.5"/>
<text text-anchor="middle" x="408" y="-63.5" font-family="Helvetica,sans-Serif" font-size="10.00">iostream</text>
</g>
<!-- Node8&#45;&gt;Node10 -->
<g id="edge10" class="edge"><title>Node8&#45;&gt;Node10</title>
<path fill="none" stroke="midnightblue" d="M567.832,-168.557C504.664,-157.476 402.431,-138.654 397,-132 386.285,-118.872 391.644,-99.186 398.068,-84.9199"/>
<polygon fill="midnightblue" stroke="midnightblue" points="401.358,-86.168 402.719,-75.661 395.103,-83.0258 401.358,-86.168"/>
</g>
<!-- Node11 -->
<g id="node11" class="node"><title>Node11</title>
<polygon fill="white" stroke="#bfbfbf" points="685.5,-56.5 685.5,-75.5 726.5,-75.5 726.5,-56.5 685.5,-56.5"/>
<text text-anchor="middle" x="706" y="-63.5" font-family="Helvetica,sans-Serif" font-size="10.00">string</text>
</g>
<!-- Node8&#45;&gt;Node11 -->
<g id="edge11" class="edge"><title>Node8&#45;&gt;Node11</title>
<path fill="none" stroke="midnightblue" d="M637.994,-168.419C653.666,-160.987 674.457,-148.779 687,-132 697.009,-118.611 701.761,-100.043 704.008,-86.1794"/>
<polygon fill="midnightblue" stroke="midnightblue" points="707.531,-86.2289 705.367,-75.8576 700.591,-85.3153 707.531,-86.2289"/>
</g>
<!-- Node12 -->
<g id="node12" class="node"><title>Node12</title>
<polygon fill="white" stroke="#bfbfbf" points="406.5,-112.5 406.5,-131.5 537.5,-131.5 537.5,-112.5 406.5,-112.5"/>
<text text-anchor="middle" x="472" y="-119.5" font-family="Helvetica,sans-Serif" font-size="10.00">boost/algorithm/string.hpp</text>
</g>
<!-- Node8&#45;&gt;Node12 -->
<g id="edge12" class="edge"><title>Node8&#45;&gt;Node12</title>
<path fill="none" stroke="midnightblue" d="M594.024,-168.444C569.843,-159.438 531.582,-145.189 504.354,-135.049"/>
<polygon fill="midnightblue" stroke="midnightblue" points="505.461,-131.727 494.868,-131.516 503.018,-138.286 505.461,-131.727"/>
</g>
<!-- Node13 -->
<g id="node13" class="node"><title>Node13</title>
<g id="a_node13"><a xlink:href="../../d8/dfd/config_8hpp.html" target="_top" xlink:title="pfasst/config.hpp">
<polygon fill="white" stroke="black" points="216.5,-112.5 216.5,-131.5 307.5,-131.5 307.5,-112.5 216.5,-112.5"/>
<text text-anchor="middle" x="262" y="-119.5" font-family="Helvetica,sans-Serif" font-size="10.00">pfasst/config.hpp</text>
</a>
</g>
</g>
<!-- Node8&#45;&gt;Node13 -->
<g id="edge13" class="edge"><title>Node8&#45;&gt;Node13</title>
<path fill="none" stroke="midnightblue" d="M567.639,-169.492C502.039,-159.513 386.442,-141.929 317.763,-131.482"/>
<polygon fill="midnightblue" stroke="midnightblue" points="317.983,-127.976 307.57,-129.932 316.93,-134.896 317.983,-127.976"/>
</g>
<!-- Node19 -->
<g id="node19" class="node"><title>Node19</title>
<polygon fill="white" stroke="#bfbfbf" points="556,-112.5 556,-131.5 678,-131.5 678,-112.5 556,-112.5"/>
<text text-anchor="middle" x="617" y="-119.5" font-family="Helvetica,sans-Serif" font-size="10.00">pfasst/easylogging++.h</text>
</g>
<!-- Node8&#45;&gt;Node19 -->
<g id="edge24" class="edge"><title>Node8&#45;&gt;Node19</title>
<path fill="none" stroke="midnightblue" d="M617,-168.083C617,-161.006 617,-150.861 617,-141.986"/>
<polygon fill="midnightblue" stroke="midnightblue" points="620.5,-141.751 617,-131.751 613.5,-141.751 620.5,-141.751"/>
</g>
<!-- Node13&#45;&gt;Node10 -->
<g id="edge15" class="edge"><title>Node13&#45;&gt;Node10</title>
<path fill="none" stroke="midnightblue" d="M285.134,-112.444C309.482,-103.438 348.007,-89.1891 375.423,-79.049"/>
<polygon fill="midnightblue" stroke="midnightblue" points="376.809,-82.2681 384.974,-75.5164 374.381,-75.7028 376.809,-82.2681"/>
</g>
<!-- Node13&#45;&gt;Node11 -->
<g id="edge16" class="edge"><title>Node13&#45;&gt;Node11</title>
<path fill="none" stroke="midnightblue" d="M307.843,-115.424C398.625,-104.383 599.091,-80.0025 675.554,-70.7029"/>
<polygon fill="midnightblue" stroke="midnightblue" points="675.992,-74.1755 685.496,-69.4937 675.147,-67.2267 675.992,-74.1755"/>
</g>
<!-- Node14 -->
<g id="node14" class="node"><title>Node14</title>
<polygon fill="white" stroke="#bfbfbf" points="203,-0.5 203,-19.5 253,-19.5 253,-0.5 203,-0.5"/>
<text text-anchor="middle" x="228" y="-7.5" font-family="Helvetica,sans-Serif" font-size="10.00">fstream</text>
</g>
<!-- Node13&#45;&gt;Node14 -->
<g id="edge14" class="edge"><title>Node13&#45;&gt;Node14</title>
<path fill="none" stroke="midnightblue" d="M256.586,-112.383C251.297,-103.572 243.417,-89.3251 239,-76 233.987,-60.8754 231.173,-42.9777 229.649,-29.796"/>
<polygon fill="midnightblue" stroke="midnightblue" points="233.108,-29.2113 228.619,-19.6144 226.143,-29.9159 233.108,-29.2113"/>
</g>
<!-- Node15 -->
<g id="node15" class="node"><title>Node15</title>
<polygon fill="white" stroke="#bfbfbf" points="0,-56.5 0,-75.5 36,-75.5 36,-56.5 0,-56.5"/>
<text text-anchor="middle" x="18" y="-63.5" font-family="Helvetica,sans-Serif" font-size="10.00">map</text>
</g>
<!-- Node13&#45;&gt;Node15 -->
<g id="edge17" class="edge"><title>Node13&#45;&gt;Node15</title>
<path fill="none" stroke="midnightblue" d="M216.332,-113.141C174.321,-105.551 110.159,-93.0566 46.077,-76.0477"/>
<polygon fill="midnightblue" stroke="midnightblue" points="46.7778,-72.6118 36.2117,-73.3926 44.9585,-79.3713 46.7778,-72.6118"/>
</g>
<!-- Node16 -->
<g id="node16" class="node"><title>Node16</title>
<polygon fill="white" stroke="#bfbfbf" points="54.5,-56.5 54.5,-75.5 191.5,-75.5 191.5,-56.5 54.5,-56.5"/>
<text text-anchor="middle" x="123" y="-63.5" font-family="Helvetica,sans-Serif" font-size="10.00">boost/program_options.hpp</text>
</g>
<!-- Node13&#45;&gt;Node16 -->
<g id="edge18" class="edge"><title>Node13&#45;&gt;Node16</title>
<path fill="none" stroke="midnightblue" d="M239.975,-112.444C216.896,-103.478 180.438,-89.314 154.359,-79.1827"/>
<polygon fill="midnightblue" stroke="midnightblue" points="155.511,-75.8753 144.922,-75.5164 152.976,-82.4002 155.511,-75.8753"/>
</g>
<!-- Node17 -->
<g id="node17" class="node"><title>Node17</title>
<g id="a_node17"><a xlink:href="../../d5/d84/config__impl_8hpp.html" target="_top" xlink:title="pfasst/config_impl.hpp">
<polygon fill="white" stroke="black" points="248,-56.5 248,-75.5 362,-75.5 362,-56.5 248,-56.5"/>
<text text-anchor="middle" x="305" y="-63.5" font-family="Helvetica,sans-Serif" font-size="10.00">pfasst/config_impl.hpp</text>
</a>
</g>
</g>
<!-- Node13&#45;&gt;Node17 -->
<g id="edge19" class="edge"><title>Node13&#45;&gt;Node17</title>
<path fill="none" stroke="midnightblue" d="M263.934,-112.083C268.537,-104.22 277.459,-92.5688 285.961,-83.0813"/>
<polygon fill="midnightblue" stroke="midnightblue" points="288.567,-85.4193 292.901,-75.7511 283.484,-80.6069 288.567,-85.4193"/>
</g>
<!-- Node17&#45;&gt;Node5 -->
<g id="edge23" class="edge"><title>Node17&#45;&gt;Node5</title>
<path fill="none" stroke="midnightblue" d="M362.198,-56.8405C365.172,-56.5289 368.119,-56.2455 371,-56 879.851,-12.6305 1503.87,-10.7533 1644.81,-10.9185"/>
<polygon fill="midnightblue" stroke="midnightblue" points="1644.82,-14.4184 1654.83,-10.9349 1644.83,-7.41843 1644.82,-14.4184"/>
</g>
<!-- Node17&#45;&gt;Node13 -->
<g id="edge20" class="edge"><title>Node17&#45;&gt;Node13</title>
<path fill="none" stroke="midnightblue" d="M303.163,-75.7511C298.621,-83.5608 289.727,-95.1997 281.219,-104.718"/>
<polygon fill="midnightblue" stroke="midnightblue" points="278.586,-102.408 274.267,-112.083 283.676,-107.213 278.586,-102.408"/>
</g>
<!-- Node17&#45;&gt;Node14 -->
<g id="edge21" class="edge"><title>Node17&#45;&gt;Node14</title>
<path fill="none" stroke="midnightblue" d="M292.629,-56.324C280.842,-48.0577 262.868,-35.4527 248.864,-25.6322"/>
<polygon fill="midnightblue" stroke="midnightblue" points="250.538,-22.5307 240.341,-19.6545 246.518,-28.2619 250.538,-22.5307"/>
</g>
<!-- Node18 -->
<g id="node18" class="node"><title>Node18</title>
<polygon fill="white" stroke="#bfbfbf" points="278.5,-0.5 278.5,-19.5 331.5,-19.5 331.5,-0.5 278.5,-0.5"/>
<text text-anchor="middle" x="305" y="-7.5" font-family="Helvetica,sans-Serif" font-size="10.00">sstream</text>
</g>
<!-- Node17&#45;&gt;Node18 -->
<g id="edge22" class="edge"><title>Node17&#45;&gt;Node18</title>
<path fill="none" stroke="midnightblue" d="M305,-56.083C305,-49.0059 305,-38.8611 305,-29.9865"/>
<polygon fill="midnightblue" stroke="midnightblue" points="308.5,-29.751 305,-19.7511 301.5,-29.7511 308.5,-29.751"/>
</g>
<!-- Node20&#45;&gt;Node4 -->
<g id="edge26" class="edge"><title>Node20&#45;&gt;Node4</title>
<path fill="none" stroke="midnightblue" d="M1246.65,-353.39C1323.18,-349.244 1432.42,-338.545 1464,-311 1497.07,-282.16 1502.76,-226.779 1503.34,-197.77"/>
<polygon fill="midnightblue" stroke="midnightblue" points="1506.84,-197.74 1503.35,-187.736 1499.84,-197.732 1506.84,-197.74"/>
</g>
<!-- Node20&#45;&gt;Node7 -->
<g id="edge27" class="edge"><title>Node20&#45;&gt;Node7</title>
<path fill="none" stroke="midnightblue" d="M1148.09,-347.416C1131.21,-339.524 1106.94,-326.686 1089,-311 1069.36,-293.833 1051.98,-269.101 1041.48,-252.563"/>
<polygon fill="midnightblue" stroke="midnightblue" points="1044.36,-250.564 1036.13,-243.891 1038.4,-254.24 1044.36,-250.564"/>
</g>
<!-- Node21 -->
<g id="node21" class="node"><title>Node21</title>
<polygon fill="white" stroke="#bfbfbf" points="1255.5,-286 1255.5,-305 1330.5,-305 1330.5,-286 1255.5,-286"/>
<text text-anchor="middle" x="1293" y="-293" font-family="Helvetica,sans-Serif" font-size="10.00">Eigen/Dense</text>
</g>
<!-- Node20&#45;&gt;Node21 -->
<g id="edge28" class="edge"><title>Node20&#45;&gt;Node21</title>
<path fill="none" stroke="midnightblue" d="M1185.91,-347.475C1206.89,-337.49 1241.85,-320.848 1266.09,-309.307"/>
<polygon fill="midnightblue" stroke="midnightblue" points="1267.6,-312.467 1275.12,-305.009 1264.59,-306.147 1267.6,-312.467"/>
</g>
<!-- Node22 -->
<g id="node22" class="node"><title>Node22</title>
<g id="a_node22"><a xlink:href="../../d1/d1b/interfaces_8hpp.html" target="_top" xlink:title="interfaces for SDC/MLSDC/PFASST algorithms. ">
<polygon fill="white" stroke="black" points="1348.5,-286 1348.5,-305 1455.5,-305 1455.5,-286 1348.5,-286"/>
<text text-anchor="middle" x="1402" y="-293" font-family="Helvetica,sans-Serif" font-size="10.00">pfasst/interfaces.hpp</text>
</a>
</g>
</g>
<!-- Node20&#45;&gt;Node22 -->
<g id="edge29" class="edge"><title>Node20&#45;&gt;Node22</title>
<path fill="none" stroke="midnightblue" d="M1201.53,-347.475C1242.88,-336.959 1313.27,-319.062 1358.68,-307.514"/>
<polygon fill="midnightblue" stroke="midnightblue" points="1359.71,-310.866 1368.54,-305.009 1357.98,-304.081 1359.71,-310.866"/>
</g>
<!-- Node27 -->
<g id="node27" class="node"><title>Node27</title>
<g id="a_node27"><a xlink:href="../../d1/d99/encapsulation__impl_8hpp.html" target="_top" xlink:title="pfasst/encap/encapsulation\l_impl.hpp">
<polygon fill="white" stroke="black" points="1098.5,-280.5 1098.5,-310.5 1237.5,-310.5 1237.5,-280.5 1098.5,-280.5"/>
<text text-anchor="start" x="1106.5" y="-298.5" font-family="Helvetica,sans-Serif" font-size="10.00">pfasst/encap/encapsulation</text>
<text text-anchor="middle" x="1168" y="-287.5" font-family="Helvetica,sans-Serif" font-size="10.00">_impl.hpp</text>
</a>
</g>
</g>
<!-- Node20&#45;&gt;Node27 -->
<g id="edge40" class="edge"><title>Node20&#45;&gt;Node27</title>
<path fill="none" stroke="midnightblue" d="M1163.1,-347.475C1161.57,-340.471 1160.99,-330.192 1161.36,-320.696"/>
<polygon fill="midnightblue" stroke="midnightblue" points="1164.86,-320.77 1162.17,-310.523 1157.88,-320.212 1164.86,-320.77"/>
</g>
<!-- Node22&#45;&gt;Node4 -->
<g id="edge30" class="edge"><title>Node22&#45;&gt;Node4</title>
<path fill="none" stroke="midnightblue" d="M1409.59,-285.819C1426.33,-266.672 1466.67,-220.544 1488.46,-195.631"/>
<polygon fill="midnightblue" stroke="midnightblue" points="1491.37,-197.614 1495.32,-187.782 1486.1,-193.006 1491.37,-197.614"/>
</g>
<!-- Node22&#45;&gt;Node11 -->
<g id="edge32" class="edge"><title>Node22&#45;&gt;Node11</title>
<path fill="none" stroke="midnightblue" d="M1384.24,-285.924C1355.88,-272.312 1298.49,-245.14 1249,-224 1124.22,-170.699 1095.63,-148.692 965,-112 884.154,-89.291 785.725,-75.9792 736.753,-70.2876"/>
<polygon fill="midnightblue" stroke="midnightblue" points="737.13,-66.8079 726.799,-69.1571 736.34,-73.7632 737.13,-66.8079"/>
</g>
<!-- Node23 -->
<g id="node23" class="node"><title>Node23</title>
<polygon fill="white" stroke="#bfbfbf" points="1358,-224.5 1358,-243.5 1418,-243.5 1418,-224.5 1358,-224.5"/>
<text text-anchor="middle" x="1388" y="-231.5" font-family="Helvetica,sans-Serif" font-size="10.00">stdexcept</text>
</g>
<!-- Node22&#45;&gt;Node23 -->
<g id="edge31" class="edge"><title>Node22&#45;&gt;Node23</title>
<path fill="none" stroke="midnightblue" d="M1399.99,-285.975C1398,-277.492 1394.87,-264.204 1392.31,-253.322"/>
<polygon fill="midnightblue" stroke="midnightblue" points="1395.7,-252.442 1390,-243.509 1388.89,-254.045 1395.7,-252.442"/>
</g>
<!-- Node24 -->
<g id="node24" class="node"><title>Node24</title>
<g id="a_node24"><a xlink:href="../../d8/dc4/interfaces__impl_8hpp.html" target="_top" xlink:title="pfasst/interfaces_impl.hpp">
<polygon fill="white" stroke="black" points="1109.5,-224.5 1109.5,-243.5 1240.5,-243.5 1240.5,-224.5 1109.5,-224.5"/>
<text text-anchor="middle" x="1175" y="-231.5" font-family="Helvetica,sans-Serif" font-size="10.00">pfasst/interfaces_impl.hpp</text>
</a>
</g>
</g>
<!-- Node22&#45;&gt;Node24 -->
<g id="edge33" class="edge"><title>Node22&#45;&gt;Node24</title>
<path fill="none" stroke="midnightblue" d="M1364.58,-285.975C1322.43,-275.526 1254.58,-257.787 1212.44,-246.233"/>
<polygon fill="midnightblue" stroke="midnightblue" points="1213.14,-242.795 1202.57,-243.509 1211.27,-249.543 1213.14,-242.795"/>
</g>
<!-- Node24&#45;&gt;Node4 -->
<g id="edge36" class="edge"><title>Node24&#45;&gt;Node4</title>
<path fill="none" stroke="midnightblue" d="M1226.97,-224.444C1293.77,-213.446 1408.07,-194.629 1466.41,-185.024"/>
<polygon fill="midnightblue" stroke="midnightblue" points="1466.99,-188.476 1476.29,-183.398 1465.85,-181.569 1466.99,-188.476"/>
</g>
<!-- Node24&#45;&gt;Node8 -->
<g id="edge39" class="edge"><title>Node24&#45;&gt;Node8</title>
<path fill="none" stroke="midnightblue" d="M1109.28,-227.614C997.491,-218.367 773.747,-199.467 676.169,-188.05"/>
<polygon fill="midnightblue" stroke="midnightblue" points="676.363,-184.548 666.017,-186.832 675.529,-191.498 676.363,-184.548"/>
</g>
<!-- Node24&#45;&gt;Node11 -->
<g id="edge37" class="edge"><title>Node24&#45;&gt;Node11</title>
<path fill="none" stroke="midnightblue" d="M1160.61,-224.445C1123.12,-202.517 1018.85,-143.801 925,-112 859.762,-89.8937 779.733,-76.8118 736.769,-70.8656"/>
<polygon fill="midnightblue" stroke="midnightblue" points="737.054,-67.3724 726.677,-69.5064 736.12,-74.3098 737.054,-67.3724"/>
</g>
<!-- Node24&#45;&gt;Node22 -->
<g id="edge34" class="edge"><title>Node24&#45;&gt;Node22</title>
<path fill="none" stroke="midnightblue" d="M1212.36,-243.509C1254.48,-253.951 1322.33,-271.689 1364.5,-283.249"/>
<polygon fill="midnightblue" stroke="midnightblue" points="1363.81,-286.689 1374.38,-285.975 1365.67,-279.941 1363.81,-286.689"/>
</g>
<!-- Node25 -->
<g id="node25" class="node"><title>Node25</title>
<polygon fill="white" stroke="#bfbfbf" points="826,-168.5 826,-187.5 876,-187.5 876,-168.5 826,-168.5"/>
<text text-anchor="middle" x="851" y="-175.5" font-family="Helvetica,sans-Serif" font-size="10.00">cassert</text>
</g>
<!-- Node24&#45;&gt;Node25 -->
<g id="edge35" class="edge"><title>Node24&#45;&gt;Node25</title>
<path fill="none" stroke="midnightblue" d="M1109.28,-224.803C1052.58,-217.275 968.32,-205.004 886.185,-188.069"/>
<polygon fill="midnightblue" stroke="midnightblue" points="886.685,-184.598 876.181,-185.98 885.255,-191.45 886.685,-184.598"/>
</g>
<!-- Node26 -->
<g id="node26" class="node"><title>Node26</title>
<g id="a_node26"><a xlink:href="../../d5/d82/globals_8hpp.html" target="_top" xlink:title="pfasst/globals.hpp">
<polygon fill="white" stroke="black" points="894.5,-168.5 894.5,-187.5 991.5,-187.5 991.5,-168.5 894.5,-168.5"/>
<text text-anchor="middle" x="943" y="-175.5" font-family="Helvetica,sans-Serif" font-size="10.00">pfasst/globals.hpp</text>
</a>
</g>
</g>
<!-- Node24&#45;&gt;Node26 -->
<g id="edge38" class="edge"><title>Node24&#45;&gt;Node26</title>
<path fill="none" stroke="midnightblue" d="M1138.24,-224.444C1097.94,-215.063 1033.19,-199.993 989.415,-189.804"/>
<polygon fill="midnightblue" stroke="midnightblue" points="990.122,-186.375 979.589,-187.516 988.535,-193.192 990.122,-186.375"/>
</g>
<!-- Node27&#45;&gt;Node20 -->
<g id="edge41" class="edge"><title>Node27&#45;&gt;Node20</title>
<path fill="none" stroke="midnightblue" d="M1173.83,-310.523C1174.87,-318.586 1175.03,-328.813 1174.3,-337.526"/>
<polygon fill="midnightblue" stroke="midnightblue" points="1170.83,-337.085 1172.9,-347.475 1177.76,-338.06 1170.83,-337.085"/>
</g>
<!-- Node27&#45;&gt;Node26 -->
<g id="edge42" class="edge"><title>Node27&#45;&gt;Node26</title>
<path fill="none" stroke="midnightblue" d="M1149.64,-280.421C1129.1,-265.126 1094.44,-240.653 1062,-224 1035.87,-210.585 1004.77,-198.963 980.916,-190.892"/>
<polygon fill="midnightblue" stroke="midnightblue" points="981.767,-187.487 971.173,-187.655 979.56,-194.13 981.767,-187.487"/>
</g>
<!-- Node28&#45;&gt;Node4 -->
<g id="edge44" class="edge"><title>Node28&#45;&gt;Node4</title>
<path fill="none" stroke="midnightblue" d="M951.623,-410.807C1062.05,-406.19 1411,-385.835 1489,-311 1519.54,-281.704 1513.47,-226.521 1507.6,-197.661"/>
<polygon fill="midnightblue" stroke="midnightblue" points="1510.96,-196.671 1505.36,-187.682 1504.13,-198.206 1510.96,-196.671"/>
</g>
<!-- Node28&#45;&gt;Node7 -->
<g id="edge45" class="edge"><title>Node28&#45;&gt;Node7</title>
<path fill="none" stroke="midnightblue" d="M931.483,-403.396C943.417,-395.223 960.654,-381.982 972,-367 999.306,-330.946 1017.4,-280.256 1025.72,-253.392"/>
<polygon fill="midnightblue" stroke="midnightblue" points="1029.1,-254.328 1028.61,-243.745 1022.39,-252.324 1029.1,-254.328"/>
</g>
<!-- Node28&#45;&gt;Node8 -->
<g id="edge46" class="edge"><title>Node28&#45;&gt;Node8</title>
<path fill="none" stroke="midnightblue" d="M907.159,-403.228C873.597,-376.125 768.287,-291.48 679,-224 665.339,-213.675 649.737,-202.354 637.601,-193.649"/>
<polygon fill="midnightblue" stroke="midnightblue" points="639.625,-190.794 629.455,-187.825 635.554,-196.488 639.625,-190.794"/>
</g>
<!-- Node29 -->
<g id="node29" class="node"><title>Node29</title>
<g id="a_node29"><a xlink:href="../../d3/d35/particle__impl_8hpp.html" target="_top" xlink:title="particle_impl.hpp">
<polygon fill="white" stroke="black" points="873,-347.5 873,-366.5 963,-366.5 963,-347.5 873,-347.5"/>
<text text-anchor="middle" x="918" y="-354.5" font-family="Helvetica,sans-Serif" font-size="10.00">particle_impl.hpp</text>
</a>
</g>
</g>
<!-- Node28&#45;&gt;Node29 -->
<g id="edge47" class="edge"><title>Node28&#45;&gt;Node29</title>
<path fill="none" stroke="midnightblue" d="M912.834,-403.083C911.324,-395.927 910.894,-385.635 911.542,-376.691"/>
<polygon fill="midnightblue" stroke="midnightblue" points="915.015,-377.126 912.869,-366.751 908.077,-376.2 915.015,-377.126"/>
</g>
<!-- Node29&#45;&gt;Node9 -->
<g id="edge62" class="edge"><title>Node29&#45;&gt;Node9</title>
<path fill="none" stroke="midnightblue" d="M924.006,-347.382C946.273,-314.941 1021.73,-200.373 1000,-168 995.473,-161.256 954.9,-145.784 924.336,-134.872"/>
<polygon fill="midnightblue" stroke="midnightblue" points="925.417,-131.542 914.822,-131.506 923.082,-138.141 925.417,-131.542"/>
</g>
<!-- Node29&#45;&gt;Node25 -->
<g id="edge61" class="edge"><title>Node29&#45;&gt;Node25</title>
<path fill="none" stroke="midnightblue" d="M916.652,-347.286C913.066,-325.586 902.097,-267.729 881,-224 876.257,-214.169 869.636,-203.987 863.819,-195.8"/>
<polygon fill="midnightblue" stroke="midnightblue" points="866.482,-193.513 857.738,-187.53 860.842,-197.66 866.482,-193.513"/>
</g>
<!-- Node29&#45;&gt;Node28 -->
<g id="edge48" class="edge"><title>Node29&#45;&gt;Node28</title>
<path fill="none" stroke="midnightblue" d="M923.131,-366.751C924.657,-373.858 925.104,-384.136 924.472,-393.101"/>
<polygon fill="midnightblue" stroke="midnightblue" points="920.993,-392.713 923.166,-403.083 927.934,-393.622 920.993,-392.713"/>
</g>
<!-- Node30 -->
<g id="node30" class="node"><title>Node30</title>
<g id="a_node30"><a xlink:href="../../db/de5/particle__util_8hpp.html" target="_top" xlink:title="particle_util.hpp">
<polygon fill="white" stroke="black" points="806,-286 806,-305 890,-305 890,-286 806,-286"/>
<text text-anchor="middle" x="848" y="-293" font-family="Helvetica,sans-Serif" font-size="10.00">particle_util.hpp</text>
</a>
</g>
</g>
<!-- Node29&#45;&gt;Node30 -->
<g id="edge49" class="edge"><title>Node29&#45;&gt;Node30</title>
<path fill="none" stroke="midnightblue" d="M907.971,-347.475C896.951,-338.108 879.04,-322.884 865.657,-311.508"/>
<polygon fill="midnightblue" stroke="midnightblue" points="867.897,-308.819 858.011,-305.009 863.363,-314.152 867.897,-308.819"/>
</g>
<!-- Node30&#45;&gt;Node4 -->
<g id="edge50" class="edge"><title>Node30&#45;&gt;Node4</title>
<path fill="none" stroke="midnightblue" d="M890.125,-290.946C963.478,-284.368 1119.23,-268.674 1249,-244 1327.28,-229.116 1417.27,-204.195 1466.35,-189.923"/>
<polygon fill="midnightblue" stroke="midnightblue" points="1467.57,-193.213 1476.18,-187.047 1465.6,-186.495 1467.57,-193.213"/>
</g>
<!-- Node30&#45;&gt;Node7 -->
<g id="edge51" class="edge"><title>Node30&#45;&gt;Node7</title>
<path fill="none" stroke="midnightblue" d="M874.219,-285.975C907.142,-275.271 963.59,-256.917 999.016,-245.399"/>
<polygon fill="midnightblue" stroke="midnightblue" points="1000.42,-248.623 1008.85,-242.202 998.257,-241.966 1000.42,-248.623"/>
</g>
<!-- Node31 -->
<g id="node31" class="node"><title>Node31</title>
<g id="a_node31"><a xlink:href="../../d0/d00/particle__util__impl_8hpp.html" target="_top" xlink:title="particle_util_impl.hpp">
<polygon fill="white" stroke="black" points="731.5,-224.5 731.5,-243.5 838.5,-243.5 838.5,-224.5 731.5,-224.5"/>
<text text-anchor="middle" x="785" y="-231.5" font-family="Helvetica,sans-Serif" font-size="10.00">particle_util_impl.hpp</text>
</a>
</g>
</g>
<!-- Node30&#45;&gt;Node31 -->
<g id="edge52" class="edge"><title>Node30&#45;&gt;Node31</title>
<path fill="none" stroke="midnightblue" d="M834.073,-285.975C822.451,-276.873 806.571,-262.241 795.862,-250.983"/>
<polygon fill="midnightblue" stroke="midnightblue" points="798.412,-248.585 789.112,-243.509 793.217,-253.277 798.412,-248.585"/>
</g>
<!-- Node31&#45;&gt;Node8 -->
<g id="edge60" class="edge"><title>Node31&#45;&gt;Node8</title>
<path fill="none" stroke="midnightblue" d="M758.38,-224.444C729.994,-215.32 684.863,-200.813 653.247,-190.651"/>
<polygon fill="midnightblue" stroke="midnightblue" points="654.087,-187.244 643.496,-187.516 651.945,-193.909 654.087,-187.244"/>
</g>
<!-- Node31&#45;&gt;Node25 -->
<g id="edge55" class="edge"><title>Node31&#45;&gt;Node25</title>
<path fill="none" stroke="midnightblue" d="M795.604,-224.324C805.456,-216.263 820.351,-204.077 832.215,-194.369"/>
<polygon fill="midnightblue" stroke="midnightblue" points="834.68,-196.875 840.203,-187.834 830.247,-191.457 834.68,-196.875"/>
</g>
<!-- Node31&#45;&gt;Node26 -->
<g id="edge59" class="edge"><title>Node31&#45;&gt;Node26</title>
<path fill="none" stroke="midnightblue" d="M810.036,-224.444C836.616,-215.359 878.809,-200.939 908.523,-190.783"/>
<polygon fill="midnightblue" stroke="midnightblue" points="909.751,-194.062 918.082,-187.516 907.487,-187.439 909.751,-194.062"/>
</g>
<!-- Node31&#45;&gt;Node30 -->
<g id="edge53" class="edge"><title>Node31&#45;&gt;Node30</title>
<path fill="none" stroke="midnightblue" d="M798.907,-243.509C810.524,-252.604 826.405,-267.236 837.12,-278.497"/>
<polygon fill="midnightblue" stroke="midnightblue" points="834.574,-280.9 843.874,-285.975 839.768,-276.208 834.574,-280.9"/>
</g>
<!-- Node32 -->
<g id="node32" class="node"><title>Node32</title>
<polygon fill="white" stroke="#bfbfbf" points="408,-168.5 408,-187.5 466,-187.5 466,-168.5 408,-168.5"/>
<text text-anchor="middle" x="437" y="-175.5" font-family="Helvetica,sans-Serif" font-size="10.00">algorithm</text>
</g>
<!-- Node31&#45;&gt;Node32 -->
<g id="edge54" class="edge"><title>Node31&#45;&gt;Node32</title>
<path fill="none" stroke="midnightblue" d="M731.485,-226.204C670.269,-218.181 567.115,-203.903 479,-188 478.101,-187.838 477.192,-187.67 476.276,-187.499"/>
<polygon fill="midnightblue" stroke="midnightblue" points="476.813,-184.038 466.325,-185.538 475.46,-190.906 476.813,-184.038"/>
</g>
<!-- Node33 -->
<g id="node33" class="node"><title>Node33</title>
<polygon fill="white" stroke="#bfbfbf" points="764,-168.5 764,-187.5 808,-187.5 808,-168.5 764,-168.5"/>
<text text-anchor="middle" x="786" y="-175.5" font-family="Helvetica,sans-Serif" font-size="10.00">cmath</text>
</g>
<!-- Node31&#45;&gt;Node33 -->
<g id="edge56" class="edge"><title>Node31&#45;&gt;Node33</title>
<path fill="none" stroke="midnightblue" d="M785.165,-224.083C785.296,-217.006 785.484,-206.861 785.648,-197.986"/>
<polygon fill="midnightblue" stroke="midnightblue" points="789.152,-197.814 785.838,-187.751 782.153,-197.685 789.152,-197.814"/>
</g>
<!-- Node34 -->
<g id="node34" class="node"><title>Node34</title>
<polygon fill="white" stroke="#bfbfbf" points="488.5,-168.5 488.5,-187.5 547.5,-187.5 547.5,-168.5 488.5,-168.5"/>
<text text-anchor="middle" x="518" y="-175.5" font-family="Helvetica,sans-Serif" font-size="10.00">functional</text>
</g>
<!-- Node31&#45;&gt;Node34 -->
<g id="edge57" class="edge"><title>Node31&#45;&gt;Node34</title>
<path fill="none" stroke="midnightblue" d="M740.777,-224.46C695.179,-215.591 622.044,-201.195 559,-188 558.536,-187.903 558.07,-187.805 557.601,-187.706"/>
<polygon fill="midnightblue" stroke="midnightblue" points="558.057,-184.225 547.546,-185.558 556.594,-191.07 558.057,-184.225"/>
</g>
<!-- Node35 -->
<g id="node35" class="node"><title>Node35</title>
<polygon fill="white" stroke="#bfbfbf" points="684,-168.5 684,-187.5 746,-187.5 746,-168.5 684,-168.5"/>
<text text-anchor="middle" x="715" y="-175.5" font-family="Helvetica,sans-Serif" font-size="10.00">type_traits</text>
</g>
<!-- Node31&#45;&gt;Node35 -->
<g id="edge58" class="edge"><title>Node31&#45;&gt;Node35</title>
<path fill="none" stroke="midnightblue" d="M773.753,-224.324C763.203,-216.185 747.199,-203.839 734.558,-194.087"/>
<polygon fill="midnightblue" stroke="midnightblue" points="736.507,-191.171 726.451,-187.834 732.231,-196.713 736.507,-191.171"/>
</g>
<!-- Node36&#45;&gt;Node6 -->
<g id="edge64" class="edge"><title>Node36&#45;&gt;Node6</title>
<path fill="none" stroke="midnightblue" d="M541.497,-366.68C559.558,-380.532 590.258,-407.635 621,-423 653.002,-438.995 691.535,-450.052 721.745,-457.202"/>
<polygon fill="midnightblue" stroke="midnightblue" points="721.119,-460.65 731.649,-459.479 722.688,-453.828 721.119,-460.65"/>
</g>
<!-- Node36&#45;&gt;Node8 -->
<g id="edge73" class="edge"><title>Node36&#45;&gt;Node8</title>
<path fill="none" stroke="midnightblue" d="M537.231,-347.272C546.598,-338.815 560.288,-325.214 569,-311 591.857,-273.707 606.249,-223.869 612.817,-197.375"/>
<polygon fill="midnightblue" stroke="midnightblue" points="616.243,-198.093 615.154,-187.555 609.434,-196.472 616.243,-198.093"/>
</g>
<!-- Node36&#45;&gt;Node11 -->
<g id="edge69" class="edge"><title>Node36&#45;&gt;Node11</title>
<path fill="none" stroke="midnightblue" d="M470.389,-347.438C429.628,-339.982 379.676,-327.733 367,-311 331.391,-263.994 243.39,-260.757 397,-112 436.184,-74.0538 604.699,-67.9586 675.006,-67.0873"/>
<polygon fill="midnightblue" stroke="midnightblue" points="675.445,-70.5834 685.412,-66.9883 675.379,-63.5837 675.445,-70.5834"/>
</g>
<!-- Node36&#45;&gt;Node13 -->
<g id="edge72" class="edge"><title>Node36&#45;&gt;Node13</title>
<path fill="none" stroke="midnightblue" d="M466.787,-353.006C402.462,-348.463 306.44,-337.363 282,-311 238.318,-263.882 249.745,-178.9 257.543,-141.509"/>
<polygon fill="midnightblue" stroke="midnightblue" points="261.009,-142.051 259.782,-131.527 254.178,-140.519 261.009,-142.051"/>
</g>
<!-- Node36&#45;&gt;Node25 -->
<g id="edge66" class="edge"><title>Node36&#45;&gt;Node25</title>
<path fill="none" stroke="midnightblue" d="M547.726,-347.489C583.699,-332.851 660.157,-302.332 726,-280 779.134,-261.978 812.09,-287.925 847,-244 857.213,-231.149 857.128,-211.968 855.141,-197.77"/>
<polygon fill="midnightblue" stroke="midnightblue" points="858.537,-196.878 853.3,-187.668 851.65,-198.133 858.537,-196.878"/>
</g>
<!-- Node36&#45;&gt;Node26 -->
<g id="edge71" class="edge"><title>Node36&#45;&gt;Node26</title>
<path fill="none" stroke="midnightblue" d="M573.611,-347.448C641.63,-333.504 770.381,-301.488 866,-244 889.277,-230.006 912.64,-209.079 927.424,-194.776"/>
<polygon fill="midnightblue" stroke="midnightblue" points="930.04,-197.112 934.7,-187.597 925.124,-192.129 930.04,-197.112"/>
</g>
<!-- Node36&#45;&gt;Node30 -->
<g id="edge74" class="edge"><title>Node36&#45;&gt;Node30</title>
<path fill="none" stroke="midnightblue" d="M572.991,-347.475C632.027,-336.532 734.191,-317.595 795.996,-306.139"/>
<polygon fill="midnightblue" stroke="midnightblue" points="796.733,-309.562 805.928,-304.298 795.458,-302.68 796.733,-309.562"/>
</g>
<!-- Node36&#45;&gt;Node32 -->
<g id="edge65" class="edge"><title>Node36&#45;&gt;Node32</title>
<path fill="none" stroke="midnightblue" d="M466.853,-354.004C435.316,-349.512 399.149,-338.186 379,-311 351.31,-273.639 394.356,-220.986 420.053,-194.913"/>
<polygon fill="midnightblue" stroke="midnightblue" points="422.693,-197.226 427.373,-187.721 417.787,-192.232 422.693,-197.226"/>
</g>
<!-- Node36&#45;&gt;Node34 -->
<g id="edge67" class="edge"><title>Node36&#45;&gt;Node34</title>
<path fill="none" stroke="midnightblue" d="M466.731,-351.742C438.937,-346.4 408.331,-334.99 391,-311 356.068,-262.647 440.511,-214.284 488.146,-191.886"/>
<polygon fill="midnightblue" stroke="midnightblue" points="489.785,-194.985 497.416,-187.635 486.867,-188.622 489.785,-194.985"/>
</g>
<!-- Node37 -->
<g id="node37" class="node"><title>Node37</title>
<polygon fill="white" stroke="#bfbfbf" points="400.5,-286 400.5,-305 451.5,-305 451.5,-286 400.5,-286"/>
<text text-anchor="middle" x="426" y="-293" font-family="Helvetica,sans-Serif" font-size="10.00">random</text>
</g>
<!-- Node36&#45;&gt;Node37 -->
<g id="edge68" class="edge"><title>Node36&#45;&gt;Node37</title>
<path fill="none" stroke="midnightblue" d="M512.529,-347.475C496.029,-337.755 468.822,-321.727 449.319,-310.237"/>
<polygon fill="midnightblue" stroke="midnightblue" points="450.837,-307.069 440.444,-305.009 447.284,-313.101 450.837,-307.069"/>
</g>
<!-- Node38 -->
<g id="node38" class="node"><title>Node38</title>
<polygon fill="white" stroke="#bfbfbf" points="470,-286 470,-305 560,-305 560,-286 470,-286"/>
<text text-anchor="middle" x="515" y="-293" font-family="Helvetica,sans-Serif" font-size="10.00">boost/format.hpp</text>
</g>
<!-- Node36&#45;&gt;Node38 -->
<g id="edge70" class="edge"><title>Node36&#45;&gt;Node38</title>
<path fill="none" stroke="midnightblue" d="M525.281,-347.475C523.57,-338.992 520.89,-325.704 518.695,-314.822"/>
<polygon fill="midnightblue" stroke="midnightblue" points="522.124,-314.12 516.716,-305.009 515.262,-315.504 522.124,-314.12"/>
</g>
<!-- Node39&#45;&gt;Node3 -->
<g id="edge76" class="edge"><title>Node39&#45;&gt;Node3</title>
<path fill="none" stroke="midnightblue" d="M828.795,-515.444C796.902,-505.768 745.057,-490.04 711.494,-479.858"/>
<polygon fill="midnightblue" stroke="midnightblue" points="712.292,-476.442 701.707,-476.889 710.26,-483.141 712.292,-476.442"/>
</g>
<!-- Node39&#45;&gt;Node4 -->
<g id="edge77" class="edge"><title>Node39&#45;&gt;Node4</title>
<path fill="none" stroke="midnightblue" d="M914.221,-521.521C1088.03,-513.238 1598,-483.051 1598,-414 1598,-414 1598,-414 1598,-294.5 1598,-249.518 1554.49,-212.521 1526.36,-193.303"/>
<polygon fill="midnightblue" stroke="midnightblue" points="1528.12,-190.271 1517.84,-187.7 1524.28,-196.12 1528.12,-190.271"/>
</g>
<!-- Node39&#45;&gt;Node5 -->
<g id="edge78" class="edge"><title>Node39&#45;&gt;Node5</title>
<path fill="none" stroke="midnightblue" d="M914.125,-522.327C1099.75,-516.139 1674,-490.793 1674,-414 1674,-414 1674,-414 1674,-121 1674,-88.948 1674,-51.6426 1674,-29.7489"/>
<polygon fill="midnightblue" stroke="midnightblue" points="1677.5,-29.5577 1674,-19.5578 1670.5,-29.5578 1677.5,-29.5577"/>
</g>
<!-- Node39&#45;&gt;Node6 -->
<g id="edge80" class="edge"><title>Node39&#45;&gt;Node6</title>
<path fill="none" stroke="midnightblue" d="M843.343,-515.324C830.084,-506.9 809.732,-493.971 794.154,-484.074"/>
<polygon fill="midnightblue" stroke="midnightblue" points="795.94,-481.063 785.623,-478.655 792.187,-486.971 795.94,-481.063"/>
</g>
<!-- Node39&#45;&gt;Node8 -->
<g id="edge79" class="edge"><title>Node39&#45;&gt;Node8</title>
<path fill="none" stroke="midnightblue" d="M854.682,-515.225C851.09,-502.384 843.483,-477.946 833,-459 772.378,-349.44 671.254,-236.733 632.639,-195.431"/>
<polygon fill="midnightblue" stroke="midnightblue" points="634.985,-192.817 625.582,-187.936 629.889,-197.616 634.985,-192.817"/>
</g>
<!-- Node40&#45;&gt;Node3 -->
<g id="edge82" class="edge"><title>Node40&#45;&gt;Node3</title>
<path fill="none" stroke="midnightblue" d="M644.77,-515.083C650.562,-507.455 659.058,-496.264 666.138,-486.941"/>
<polygon fill="midnightblue" stroke="midnightblue" points="669.096,-488.832 672.356,-478.751 663.521,-484.599 669.096,-488.832"/>
</g>
</g>
</svg>
