<?xml version="1.0" encoding="UTF-8" standalone="no"?>
<!DOCTYPE svg PUBLIC "-//W3C//DTD SVG 1.1//EN"
 "http://www.w3.org/Graphics/SVG/1.1/DTD/svg11.dtd">
<!-- Generated by graphviz version 2.38.0 (20140413.2041)
 -->
<!-- Title: pfasst::examples::boris::distance_to_reference Pages: 1 -->
<svg width="287pt" height="88pt"
 viewBox="0.00 0.00 287.00 88.00" xmlns="http://www.w3.org/2000/svg" xmlns:xlink="http://www.w3.org/1999/xlink">
<g id="graph0" class="graph" transform="scale(1 1) rotate(0) translate(4 84)">
<title>pfasst::examples::boris::distance_to_reference</title>
<polygon fill="white" stroke="none" points="-4,4 -4,-84 283,-84 283,4 -4,4"/>
<!-- Node1 -->
<g id="node1" class="node"><title>Node1</title>
<polygon fill="#bfbfbf" stroke="black" points="0,-24.5 0,-54.5 122,-54.5 122,-24.5 0,-24.5"/>
<text text-anchor="start" x="8" y="-42.5" font-family="Helvetica,sans-Serif" font-size="10.00">pfasst::examples::boris</text>
<text text-anchor="middle" x="61" y="-31.5" font-family="Helvetica,sans-Serif" font-size="10.00">::distance_to_reference</text>
</g>
<!-- Node2 -->
<g id="node2" class="node"><title>Node2</title>
<g id="a_node2"><a xlink:href="../../d3/d59/group__BorisUtilities.html#ga4c19b41b345edd4b7408c7458d40c971" target="_top" xlink:title="pfasst::examples::boris\l::distance">
<polygon fill="white" stroke="black" points="158,-49.5 158,-79.5 279,-79.5 279,-49.5 158,-49.5"/>
<text text-anchor="start" x="166" y="-67.5" font-family="Helvetica,sans-Serif" font-size="10.00">pfasst::examples::boris</text>
<text text-anchor="middle" x="218.5" y="-56.5" font-family="Helvetica,sans-Serif" font-size="10.00">::distance</text>
</a>
</g>
</g>
<!-- Node1&#45;&gt;Node2 -->
<g id="edge1" class="edge"><title>Node1&#45;&gt;Node2</title>
<path fill="none" stroke="midnightblue" d="M122.12,-49.1657C130.536,-50.5186 139.242,-51.9184 147.817,-53.2969"/>
<polygon fill="midnightblue" stroke="midnightblue" points="147.367,-56.7694 157.796,-54.9012 148.478,-49.8582 147.367,-56.7694"/>
</g>
<!-- Node3 -->
<g id="node3" class="node"><title>Node3</title>
<g id="a_node3"><a xlink:href="../../d2/dd0/classpfasst_1_1examples_1_1boris_1_1ParticleCloud.html#a31fd1c0aa74f714cf09eb3537961020b" target="_top" xlink:title="pfasst::examples::boris\l::ParticleCloud::size">
<polygon fill="white" stroke="black" points="158,-0.5 158,-30.5 279,-30.5 279,-0.5 158,-0.5"/>
<text text-anchor="start" x="166" y="-18.5" font-family="Helvetica,sans-Serif" font-size="10.00">pfasst::examples::boris</text>
<text text-anchor="middle" x="218.5" y="-7.5" font-family="Helvetica,sans-Serif" font-size="10.00">::ParticleCloud::size</text>
</a>
</g>
</g>
<!-- Node1&#45;&gt;Node3 -->
<g id="edge2" class="edge"><title>Node1&#45;&gt;Node3</title>
<path fill="none" stroke="midnightblue" d="M122.12,-30.221C130.536,-28.9221 139.242,-27.5784 147.817,-26.255"/>
<polygon fill="midnightblue" stroke="midnightblue" points="148.447,-29.6993 157.796,-24.7148 147.379,-22.7812 148.447,-29.6993"/>
</g>
</g>
</svg>
