<?xml version="1.0" encoding="UTF-8" standalone="no"?>
<!DOCTYPE svg PUBLIC "-//W3C//DTD SVG 1.1//EN"
 "http://www.w3.org/Graphics/SVG/1.1/DTD/svg11.dtd">
<!-- Generated by graphviz version 2.38.0 (20140413.2041)
 -->
<!-- Title: pfasst::examples::boris::run_boris_pfasst Pages: 1 -->
<svg width="447pt" height="351pt"
 viewBox="0.00 0.00 447.00 351.00" xmlns="http://www.w3.org/2000/svg" xmlns:xlink="http://www.w3.org/1999/xlink">
<g id="graph0" class="graph" transform="scale(1 1) rotate(0) translate(4 347)">
<title>pfasst::examples::boris::run_boris_pfasst</title>
<polygon fill="white" stroke="none" points="-4,4 -4,-347 443,-347 443,4 -4,4"/>
<!-- Node1 -->
<g id="node1" class="node"><title>Node1</title>
<polygon fill="#bfbfbf" stroke="black" points="0,-159.5 0,-189.5 121,-189.5 121,-159.5 0,-159.5"/>
<text text-anchor="start" x="8" y="-177.5" font-family="Helvetica,sans-Serif" font-size="10.00">pfasst::examples::boris</text>
<text text-anchor="middle" x="60.5" y="-166.5" font-family="Helvetica,sans-Serif" font-size="10.00">::run_boris_pfasst</text>
</g>
<!-- Node2 -->
<g id="node2" class="node"><title>Node2</title>
<g id="a_node2"><a xlink:href="../../d4/da9/classpfasst_1_1Controller.html#a8f4f8f025572e57fc5975902a4118fa9" target="_top" xlink:title="Adding a level to the controller. ">
<polygon fill="white" stroke="black" points="182,-312.5 182,-342.5 274,-342.5 274,-312.5 182,-312.5"/>
<text text-anchor="start" x="190" y="-330.5" font-family="Helvetica,sans-Serif" font-size="10.00">pfasst::Controller</text>
<text text-anchor="middle" x="228" y="-319.5" font-family="Helvetica,sans-Serif" font-size="10.00">::add_level</text>
</a>
</g>
</g>
<!-- Node1&#45;&gt;Node2 -->
<g id="edge1" class="edge"><title>Node1&#45;&gt;Node2</title>
<path fill="none" stroke="midnightblue" d="M68.7514,-189.566C82.3669,-216.316 114.28,-272.227 157,-303.5 161.715,-306.952 166.964,-309.934 172.409,-312.506"/>
<polygon fill="midnightblue" stroke="midnightblue" points="171.125,-315.763 181.698,-316.456 173.865,-309.321 171.125,-315.763"/>
</g>
<!-- Node3 -->
<g id="node3" class="node"><title>Node3</title>
<g id="a_node3"><a xlink:href="../../d4/da9/classpfasst_1_1Controller.html#a842fcbd63bdcf3a38b562ef0200bf42c" target="_top" xlink:title="Get coarsest level. ">
<polygon fill="white" stroke="black" points="182,-263.5 182,-293.5 274,-293.5 274,-263.5 182,-263.5"/>
<text text-anchor="start" x="190" y="-281.5" font-family="Helvetica,sans-Serif" font-size="10.00">pfasst::Controller</text>
<text text-anchor="middle" x="228" y="-270.5" font-family="Helvetica,sans-Serif" font-size="10.00">::get_finest</text>
</a>
</g>
</g>
<!-- Node1&#45;&gt;Node3 -->
<g id="edge2" class="edge"><title>Node1&#45;&gt;Node3</title>
<path fill="none" stroke="midnightblue" d="M76.4564,-189.752C94.2679,-207.192 125.576,-235.63 157,-253.5 161.838,-256.251 167.032,-258.785 172.325,-261.096"/>
<polygon fill="midnightblue" stroke="midnightblue" points="171.324,-264.468 181.905,-265.015 173.975,-257.989 171.324,-264.468"/>
</g>
<!-- Node4 -->
<g id="node4" class="node"><title>Node4</title>
<g id="a_node4"><a xlink:href="../../d4/deb/classpfasst_1_1PFASST.html#aa3303053b9e0a111a2161eb9642538d7" target="_top" xlink:title="Solve ODE using PFASST. ">
<polygon fill="white" stroke="black" points="173.5,-225 173.5,-244 282.5,-244 282.5,-225 173.5,-225"/>
<text text-anchor="middle" x="228" y="-232" font-family="Helvetica,sans-Serif" font-size="10.00">pfasst::PFASST::run</text>
</a>
</g>
</g>
<!-- Node1&#45;&gt;Node4 -->
<g id="edge3" class="edge"><title>Node1&#45;&gt;Node4</title>
<path fill="none" stroke="midnightblue" d="M93.7605,-189.693C112.061,-197.97 135.531,-208.02 157,-215.5 163.785,-217.864 171.024,-220.119 178.176,-222.195"/>
<polygon fill="midnightblue" stroke="midnightblue" points="177.251,-225.57 187.825,-224.908 179.146,-218.832 177.251,-225.57"/>
</g>
<!-- Node6 -->
<g id="node6" class="node"><title>Node6</title>
<g id="a_node6"><a xlink:href="../../d4/deb/classpfasst_1_1PFASST.html#afed61a9d76fd45681fdd3aea0e14f078" target="_top" xlink:title="Set communicator. ">
<polygon fill="white" stroke="black" points="157,-187 157,-206 299,-206 299,-187 157,-187"/>
<text text-anchor="middle" x="228" y="-194" font-family="Helvetica,sans-Serif" font-size="10.00">pfasst::PFASST::set_comm</text>
</a>
</g>
</g>
<!-- Node1&#45;&gt;Node6 -->
<g id="edge5" class="edge"><title>Node1&#45;&gt;Node6</title>
<path fill="none" stroke="midnightblue" d="M121.249,-182.443C129.568,-183.548 138.223,-184.699 146.841,-185.844"/>
<polygon fill="midnightblue" stroke="midnightblue" points="146.544,-189.336 156.918,-187.184 147.466,-182.397 146.544,-189.336"/>
</g>
<!-- Node7 -->
<g id="node7" class="node"><title>Node7</title>
<g id="a_node7"><a xlink:href="../../d4/da9/classpfasst_1_1Controller.html#af31a86d9ccd9db325532c5ae3a5764f0" target="_top" xlink:title="Set basic time scope of the Controller. ">
<polygon fill="white" stroke="black" points="182,-137.5 182,-167.5 274,-167.5 274,-137.5 182,-137.5"/>
<text text-anchor="start" x="190" y="-155.5" font-family="Helvetica,sans-Serif" font-size="10.00">pfasst::Controller</text>
<text text-anchor="middle" x="228" y="-144.5" font-family="Helvetica,sans-Serif" font-size="10.00">::set_duration</text>
</a>
</g>
</g>
<!-- Node1&#45;&gt;Node7 -->
<g id="edge6" class="edge"><title>Node1&#45;&gt;Node7</title>
<path fill="none" stroke="midnightblue" d="M121.249,-166.557C137.655,-164.377 155.371,-162.022 171.525,-159.874"/>
<polygon fill="midnightblue" stroke="midnightblue" points="172.434,-163.284 181.886,-158.497 171.512,-156.345 172.434,-163.284"/>
</g>
<!-- Node8 -->
<g id="node8" class="node"><title>Node8</title>
<g id="a_node8"><a xlink:href="../../d4/da9/classpfasst_1_1Controller.html#a6dba360b0794fb0cdde418d3ab1a160d" target="_top" xlink:title="Set options from command line etc. ">
<polygon fill="white" stroke="black" points="182,-88.5 182,-118.5 274,-118.5 274,-88.5 182,-88.5"/>
<text text-anchor="start" x="190" y="-106.5" font-family="Helvetica,sans-Serif" font-size="10.00">pfasst::Controller</text>
<text text-anchor="middle" x="228" y="-95.5" font-family="Helvetica,sans-Serif" font-size="10.00">::set_options</text>
</a>
</g>
</g>
<!-- Node1&#45;&gt;Node8 -->
<g id="edge7" class="edge"><title>Node1&#45;&gt;Node8</title>
<path fill="none" stroke="midnightblue" d="M90.8142,-159.385C109.523,-149.987 134.418,-137.94 157,-128.5 162.135,-126.354 167.526,-124.221 172.941,-122.158"/>
<polygon fill="midnightblue" stroke="midnightblue" points="174.518,-125.306 182.665,-118.533 172.072,-118.747 174.518,-125.306"/>
</g>
<!-- Node9 -->
<g id="node9" class="node"><title>Node9</title>
<g id="a_node9"><a xlink:href="../../db/d56/classpfasst_1_1MLSDC.html#ac6e9d00fcb9b7363239e98c3798a3025" target="_top" xlink:title="Basic setup routine for this controller. ">
<polygon fill="white" stroke="black" points="171,-50 171,-69 285,-69 285,-50 171,-50"/>
<text text-anchor="middle" x="228" y="-57" font-family="Helvetica,sans-Serif" font-size="10.00">pfasst::MLSDC::setup</text>
</a>
</g>
</g>
<!-- Node1&#45;&gt;Node9 -->
<g id="edge8" class="edge"><title>Node1&#45;&gt;Node9</title>
<path fill="none" stroke="midnightblue" d="M72.6949,-159.283C88.95,-138.264 121.095,-100.563 157,-79.5 161.451,-76.8889 166.263,-74.602 171.207,-72.6022"/>
<polygon fill="midnightblue" stroke="midnightblue" points="172.62,-75.8124 180.818,-69.1008 170.224,-69.2352 172.62,-75.8124"/>
</g>
<!-- Node10 -->
<g id="node10" class="node"><title>Node10</title>
<g id="a_node10"><a xlink:href="../../d0/d55/group__BorisBindings.html#gae493784efa9e8cc4b8a3cb23fdfd0e84" target="_top" xlink:title="pfasst::examples::boris\l::bindings::setup">
<polygon fill="white" stroke="black" points="167.5,-0.5 167.5,-30.5 288.5,-30.5 288.5,-0.5 167.5,-0.5"/>
<text text-anchor="start" x="175.5" y="-18.5" font-family="Helvetica,sans-Serif" font-size="10.00">pfasst::examples::boris</text>
<text text-anchor="middle" x="228" y="-7.5" font-family="Helvetica,sans-Serif" font-size="10.00">::bindings::setup</text>
</a>
</g>
</g>
<!-- Node1&#45;&gt;Node10 -->
<g id="edge9" class="edge"><title>Node1&#45;&gt;Node10</title>
<path fill="none" stroke="midnightblue" d="M68.4256,-159.334C81.7364,-131.801 113.474,-73.4046 157,-40.5 159.443,-38.653 162.035,-36.9335 164.727,-35.3339"/>
<polygon fill="midnightblue" stroke="midnightblue" points="166.412,-38.402 173.606,-30.6234 163.132,-32.2183 166.412,-38.402"/>
</g>
<!-- Node5 -->
<g id="node5" class="node"><title>Node5</title>
<g id="a_node5"><a xlink:href="../../db/d56/classpfasst_1_1MLSDC.html#a698768ef6d03e6432beea8c0c574c05b" target="_top" xlink:title="Solve ODE using MLSDC. ">
<polygon fill="white" stroke="black" points="335,-225 335,-244 439,-244 439,-225 335,-225"/>
<text text-anchor="middle" x="387" y="-232" font-family="Helvetica,sans-Serif" font-size="10.00">pfasst::MLSDC::run</text>
</a>
</g>
</g>
<!-- Node4&#45;&gt;Node5 -->
<g id="edge4" class="edge"><title>Node4&#45;&gt;Node5</title>
<path fill="none" stroke="midnightblue" d="M282.591,-234.5C296.041,-234.5 310.579,-234.5 324.385,-234.5"/>
<polygon fill="midnightblue" stroke="midnightblue" points="324.771,-238 334.771,-234.5 324.771,-231 324.771,-238"/>
</g>
</g>
</svg>
