<?xml version="1.0" encoding="UTF-8" standalone="no"?>
<!DOCTYPE svg PUBLIC "-//W3C//DTD SVG 1.1//EN"
 "http://www.w3.org/Graphics/SVG/1.1/DTD/svg11.dtd">
<!-- Generated by graphviz version 2.38.0 (20140413.2041)
 -->
<!-- Title: pfasst::examples::boris::run_boris_sdc Pages: 1 -->
<svg width="286pt" height="264pt"
 viewBox="0.00 0.00 286.00 264.00" xmlns="http://www.w3.org/2000/svg" xmlns:xlink="http://www.w3.org/1999/xlink">
<g id="graph0" class="graph" transform="scale(1 1) rotate(0) translate(4 260)">
<title>pfasst::examples::boris::run_boris_sdc</title>
<polygon fill="white" stroke="none" points="-4,4 -4,-260 282,-260 282,4 -4,4"/>
<!-- Node1 -->
<g id="node1" class="node"><title>Node1</title>
<polygon fill="#bfbfbf" stroke="black" points="0,-110.5 0,-140.5 121,-140.5 121,-110.5 0,-110.5"/>
<text text-anchor="start" x="8" y="-128.5" font-family="Helvetica,sans-Serif" font-size="10.00">pfasst::examples::boris</text>
<text text-anchor="middle" x="60.5" y="-117.5" font-family="Helvetica,sans-Serif" font-size="10.00">::run_boris_sdc</text>
</g>
<!-- Node2 -->
<g id="node2" class="node"><title>Node2</title>
<g id="a_node2"><a xlink:href="../../d4/da9/classpfasst_1_1Controller.html#a8f4f8f025572e57fc5975902a4118fa9" target="_top" xlink:title="Adding a level to the controller. ">
<polygon fill="white" stroke="black" points="171.5,-225.5 171.5,-255.5 263.5,-255.5 263.5,-225.5 171.5,-225.5"/>
<text text-anchor="start" x="179.5" y="-243.5" font-family="Helvetica,sans-Serif" font-size="10.00">pfasst::Controller</text>
<text text-anchor="middle" x="217.5" y="-232.5" font-family="Helvetica,sans-Serif" font-size="10.00">::add_level</text>
</a>
</g>
</g>
<!-- Node1&#45;&gt;Node2 -->
<g id="edge1" class="edge"><title>Node1&#45;&gt;Node2</title>
<path fill="none" stroke="midnightblue" d="M74.0134,-140.547C91.0527,-160.24 123.309,-194.794 157,-216.5 159.414,-218.055 161.945,-219.541 164.546,-220.955"/>
<polygon fill="midnightblue" stroke="midnightblue" points="163.075,-224.132 173.583,-225.484 166.211,-217.874 163.075,-224.132"/>
</g>
<!-- Node3 -->
<g id="node3" class="node"><title>Node3</title>
<g id="a_node3"><a xlink:href="../../d4/da9/classpfasst_1_1Controller.html#a842fcbd63bdcf3a38b562ef0200bf42c" target="_top" xlink:title="Get coarsest level. ">
<polygon fill="white" stroke="black" points="171.5,-176.5 171.5,-206.5 263.5,-206.5 263.5,-176.5 171.5,-176.5"/>
<text text-anchor="start" x="179.5" y="-194.5" font-family="Helvetica,sans-Serif" font-size="10.00">pfasst::Controller</text>
<text text-anchor="middle" x="217.5" y="-183.5" font-family="Helvetica,sans-Serif" font-size="10.00">::get_finest</text>
</a>
</g>
</g>
<!-- Node1&#45;&gt;Node3 -->
<g id="edge2" class="edge"><title>Node1&#45;&gt;Node3</title>
<path fill="none" stroke="midnightblue" d="M96.3985,-140.559C114.471,-148.339 136.905,-157.965 157,-166.5 161.651,-168.475 166.509,-170.53 171.357,-172.576"/>
<polygon fill="midnightblue" stroke="midnightblue" points="170.038,-175.818 180.612,-176.474 172.755,-169.367 170.038,-175.818"/>
</g>
<!-- Node4 -->
<g id="node4" class="node"><title>Node4</title>
<g id="a_node4"><a xlink:href="../../db/d56/classpfasst_1_1MLSDC.html#a698768ef6d03e6432beea8c0c574c05b" target="_top" xlink:title="Solve ODE using MLSDC. ">
<polygon fill="white" stroke="black" points="165.5,-138 165.5,-157 269.5,-157 269.5,-138 165.5,-138"/>
<text text-anchor="middle" x="217.5" y="-145" font-family="Helvetica,sans-Serif" font-size="10.00">pfasst::MLSDC::run</text>
</a>
</g>
</g>
<!-- Node1&#45;&gt;Node4 -->
<g id="edge3" class="edge"><title>Node1&#45;&gt;Node4</title>
<path fill="none" stroke="midnightblue" d="M121.427,-134.006C132.515,-135.58 144.109,-137.225 155.236,-138.805"/>
<polygon fill="midnightblue" stroke="midnightblue" points="154.903,-142.292 165.296,-140.232 155.887,-135.362 154.903,-142.292"/>
</g>
<!-- Node5 -->
<g id="node5" class="node"><title>Node5</title>
<g id="a_node5"><a xlink:href="../../d4/da9/classpfasst_1_1Controller.html#af31a86d9ccd9db325532c5ae3a5764f0" target="_top" xlink:title="Set basic time scope of the Controller. ">
<polygon fill="white" stroke="black" points="171.5,-88.5 171.5,-118.5 263.5,-118.5 263.5,-88.5 171.5,-88.5"/>
<text text-anchor="start" x="179.5" y="-106.5" font-family="Helvetica,sans-Serif" font-size="10.00">pfasst::Controller</text>
<text text-anchor="middle" x="217.5" y="-95.5" font-family="Helvetica,sans-Serif" font-size="10.00">::set_duration</text>
</a>
</g>
</g>
<!-- Node1&#45;&gt;Node5 -->
<g id="edge4" class="edge"><title>Node1&#45;&gt;Node5</title>
<path fill="none" stroke="midnightblue" d="M121.427,-116.994C134.468,-115.143 148.209,-113.193 161.066,-111.368"/>
<polygon fill="midnightblue" stroke="midnightblue" points="161.749,-114.806 171.158,-109.936 160.765,-107.876 161.749,-114.806"/>
</g>
<!-- Node6 -->
<g id="node6" class="node"><title>Node6</title>
<g id="a_node6"><a xlink:href="../../db/d56/classpfasst_1_1MLSDC.html#ac6e9d00fcb9b7363239e98c3798a3025" target="_top" xlink:title="Basic setup routine for this controller. ">
<polygon fill="white" stroke="black" points="160.5,-50 160.5,-69 274.5,-69 274.5,-50 160.5,-50"/>
<text text-anchor="middle" x="217.5" y="-57" font-family="Helvetica,sans-Serif" font-size="10.00">pfasst::MLSDC::setup</text>
</a>
</g>
</g>
<!-- Node1&#45;&gt;Node6 -->
<g id="edge5" class="edge"><title>Node1&#45;&gt;Node6</title>
<path fill="none" stroke="midnightblue" d="M90.3332,-110.451C109.065,-100.965 134.16,-88.7973 157,-79.5 163.028,-77.0463 169.481,-74.6491 175.834,-72.4155"/>
<polygon fill="midnightblue" stroke="midnightblue" points="177.328,-75.6035 185.657,-69.0555 175.062,-68.9802 177.328,-75.6035"/>
</g>
<!-- Node7 -->
<g id="node7" class="node"><title>Node7</title>
<g id="a_node7"><a xlink:href="../../d0/d55/group__BorisBindings.html#gae493784efa9e8cc4b8a3cb23fdfd0e84" target="_top" xlink:title="pfasst::examples::boris\l::bindings::setup">
<polygon fill="white" stroke="black" points="157,-0.5 157,-30.5 278,-30.5 278,-0.5 157,-0.5"/>
<text text-anchor="start" x="165" y="-18.5" font-family="Helvetica,sans-Serif" font-size="10.00">pfasst::examples::boris</text>
<text text-anchor="middle" x="217.5" y="-7.5" font-family="Helvetica,sans-Serif" font-size="10.00">::bindings::setup</text>
</a>
</g>
</g>
<!-- Node1&#45;&gt;Node7 -->
<g id="edge6" class="edge"><title>Node1&#45;&gt;Node7</title>
<path fill="none" stroke="midnightblue" d="M75.4749,-110.305C93.0689,-91.8678 124.894,-60.7425 157,-40.5 159.981,-38.6204 163.128,-36.8253 166.355,-35.1223"/>
<polygon fill="midnightblue" stroke="midnightblue" points="168.165,-38.1322 175.589,-30.5731 165.071,-31.8529 168.165,-38.1322"/>
</g>
</g>
</svg>
