<?xml version="1.0" encoding="UTF-8" standalone="no"?>
<!DOCTYPE svg PUBLIC "-//W3C//DTD SVG 1.1//EN"
 "http://www.w3.org/Graphics/SVG/1.1/DTD/svg11.dtd">
<!-- Generated by graphviz version 2.38.0 (20140413.2041)
 -->
<!-- Title: src/pfasst/quadrature/uniform_impl.hpp Pages: 1 -->
<svg width="1431pt" height="509pt"
 viewBox="0.00 0.00 1430.50 509.00" xmlns="http://www.w3.org/2000/svg" xmlns:xlink="http://www.w3.org/1999/xlink">
<g id="graph0" class="graph" transform="scale(1 1) rotate(0) translate(4 505)">
<title>src/pfasst/quadrature/uniform_impl.hpp</title>
<polygon fill="white" stroke="none" points="-4,4 -4,-505 1426.5,-505 1426.5,4 -4,4"/>
<!-- Node1 -->
<g id="node1" class="node"><title>Node1</title>
<polygon fill="#bfbfbf" stroke="black" points="356.5,-470.5 356.5,-500.5 467.5,-500.5 467.5,-470.5 356.5,-470.5"/>
<text text-anchor="start" x="364.5" y="-488.5" font-family="Helvetica,sans-Serif" font-size="10.00">src/pfasst/quadrature</text>
<text text-anchor="middle" x="412" y="-477.5" font-family="Helvetica,sans-Serif" font-size="10.00">/uniform_impl.hpp</text>
</g>
<!-- Node2 -->
<g id="node2" class="node"><title>Node2</title>
<g id="a_node2"><a xlink:href="../../d6/dbd/uniform_8hpp.html" target="_top" xlink:title="pfasst/quadrature/uniform.hpp">
<polygon fill="white" stroke="black" points="338,-414.5 338,-433.5 486,-433.5 486,-414.5 338,-414.5"/>
<text text-anchor="middle" x="412" y="-421.5" font-family="Helvetica,sans-Serif" font-size="10.00">pfasst/quadrature/uniform.hpp</text>
</a>
</g>
</g>
<!-- Node1&#45;&gt;Node2 -->
<g id="edge1" class="edge"><title>Node1&#45;&gt;Node2</title>
<path fill="none" stroke="midnightblue" d="M406.16,-470.399C405.13,-462.377 404.974,-452.233 405.693,-443.569"/>
<polygon fill="midnightblue" stroke="midnightblue" points="409.16,-444.044 407.071,-433.658 402.227,-443.081 409.16,-444.044"/>
</g>
<!-- Node5 -->
<g id="node5" class="node"><title>Node5</title>
<polygon fill="white" stroke="#bfbfbf" points="189,-230 189,-249 233,-249 233,-230 189,-230"/>
<text text-anchor="middle" x="211" y="-237" font-family="Helvetica,sans-Serif" font-size="10.00">vector</text>
</g>
<!-- Node1&#45;&gt;Node5 -->
<g id="edge46" class="edge"><title>Node1&#45;&gt;Node5</title>
<path fill="none" stroke="midnightblue" d="M383.479,-470.32C366.666,-461.215 345.521,-448.418 329,-434 280.677,-391.828 268.812,-378.251 238,-322 226.839,-301.625 219.261,-275.85 215.039,-258.803"/>
<polygon fill="midnightblue" stroke="midnightblue" points="218.433,-257.944 212.746,-249.005 211.617,-259.54 218.433,-257.944"/>
</g>
<!-- Node10 -->
<g id="node10" class="node"><title>Node10</title>
<polygon fill="white" stroke="#bfbfbf" points="824,-230 824,-249 884,-249 884,-230 824,-230"/>
<text text-anchor="middle" x="854" y="-237" font-family="Helvetica,sans-Serif" font-size="10.00">stdexcept</text>
</g>
<!-- Node1&#45;&gt;Node10 -->
<g id="edge45" class="edge"><title>Node1&#45;&gt;Node10</title>
<path fill="none" stroke="midnightblue" d="M452.319,-470.479C519.953,-445.982 659.147,-391.326 764,-322 793.013,-302.817 822.014,-274.506 838.966,-256.802"/>
<polygon fill="midnightblue" stroke="midnightblue" points="841.959,-258.728 846.268,-249.049 836.864,-253.929 841.959,-258.728"/>
</g>
<!-- Node2&#45;&gt;Node1 -->
<g id="edge44" class="edge"><title>Node2&#45;&gt;Node1</title>
<path fill="none" stroke="midnightblue" d="M416.929,-433.658C418.435,-440.655 419.007,-450.857 418.645,-460.289"/>
<polygon fill="midnightblue" stroke="midnightblue" points="415.145,-460.153 417.84,-470.399 422.123,-460.709 415.145,-460.153"/>
</g>
<!-- Node3 -->
<g id="node3" class="node"><title>Node3</title>
<g id="a_node3"><a xlink:href="../../df/dea/quadrature_2interface_8hpp.html" target="_top" xlink:title="pfasst/quadrature/interface.hpp">
<polygon fill="white" stroke="black" points="335,-358.5 335,-377.5 489,-377.5 489,-358.5 335,-358.5"/>
<text text-anchor="middle" x="412" y="-365.5" font-family="Helvetica,sans-Serif" font-size="10.00">pfasst/quadrature/interface.hpp</text>
</a>
</g>
</g>
<!-- Node2&#45;&gt;Node3 -->
<g id="edge2" class="edge"><title>Node2&#45;&gt;Node3</title>
<path fill="none" stroke="midnightblue" d="M412,-414.083C412,-407.006 412,-396.861 412,-387.986"/>
<polygon fill="midnightblue" stroke="midnightblue" points="415.5,-387.751 412,-377.751 408.5,-387.751 415.5,-387.751"/>
</g>
<!-- Node4 -->
<g id="node4" class="node"><title>Node4</title>
<polygon fill="white" stroke="#bfbfbf" points="259,-168.5 259,-187.5 309,-187.5 309,-168.5 259,-168.5"/>
<text text-anchor="middle" x="284" y="-175.5" font-family="Helvetica,sans-Serif" font-size="10.00">cassert</text>
</g>
<!-- Node3&#45;&gt;Node4 -->
<g id="edge3" class="edge"><title>Node3&#45;&gt;Node4</title>
<path fill="none" stroke="midnightblue" d="M363.688,-358.481C341.832,-352.111 317.667,-341.067 303,-322 274.961,-285.548 277.371,-227.816 280.974,-198.086"/>
<polygon fill="midnightblue" stroke="midnightblue" points="284.488,-198.23 282.404,-187.842 277.555,-197.262 284.488,-198.23"/>
</g>
<!-- Node3&#45;&gt;Node5 -->
<g id="edge4" class="edge"><title>Node3&#45;&gt;Node5</title>
<path fill="none" stroke="midnightblue" d="M358.407,-358.422C330.124,-351.921 295.996,-340.777 270,-322 246.822,-305.258 229.162,-276.606 219.441,-258.119"/>
<polygon fill="midnightblue" stroke="midnightblue" points="222.492,-256.395 214.872,-249.034 216.238,-259.54 222.492,-256.395"/>
</g>
<!-- Node6 -->
<g id="node6" class="node"><title>Node6</title>
<polygon fill="white" stroke="#bfbfbf" points="312.5,-297 312.5,-316 387.5,-316 387.5,-297 312.5,-297"/>
<text text-anchor="middle" x="350" y="-304" font-family="Helvetica,sans-Serif" font-size="10.00">Eigen/Dense</text>
</g>
<!-- Node3&#45;&gt;Node6 -->
<g id="edge5" class="edge"><title>Node3&#45;&gt;Node6</title>
<path fill="none" stroke="midnightblue" d="M403.117,-358.475C393.541,-349.285 378.089,-334.456 366.314,-323.156"/>
<polygon fill="midnightblue" stroke="midnightblue" points="368.505,-320.408 358.867,-316.009 363.658,-325.458 368.505,-320.408"/>
</g>
<!-- Node7 -->
<g id="node7" class="node"><title>Node7</title>
<g id="a_node7"><a xlink:href="../../d5/d82/globals_8hpp.html" target="_top" xlink:title="pfasst/globals.hpp">
<polygon fill="white" stroke="black" points="482.5,-168.5 482.5,-187.5 579.5,-187.5 579.5,-168.5 482.5,-168.5"/>
<text text-anchor="middle" x="531" y="-175.5" font-family="Helvetica,sans-Serif" font-size="10.00">pfasst/globals.hpp</text>
</a>
</g>
</g>
<!-- Node3&#45;&gt;Node7 -->
<g id="edge6" class="edge"><title>Node3&#45;&gt;Node7</title>
<path fill="none" stroke="midnightblue" d="M489.141,-359.61C512.824,-353.293 536.453,-342 551,-322 578.436,-284.28 555.426,-225.851 540.805,-196.741"/>
<polygon fill="midnightblue" stroke="midnightblue" points="543.83,-194.974 536.08,-187.749 537.634,-198.23 543.83,-194.974"/>
</g>
<!-- Node8 -->
<g id="node8" class="node"><title>Node8</title>
<g id="a_node8"><a xlink:href="../../d1/d1b/interfaces_8hpp.html" target="_top" xlink:title="interfaces for SDC/MLSDC/PFASST algorithms. ">
<polygon fill="white" stroke="black" points="648.5,-297 648.5,-316 755.5,-316 755.5,-297 648.5,-297"/>
<text text-anchor="middle" x="702" y="-304" font-family="Helvetica,sans-Serif" font-size="10.00">pfasst/interfaces.hpp</text>
</a>
</g>
</g>
<!-- Node3&#45;&gt;Node8 -->
<g id="edge7" class="edge"><title>Node3&#45;&gt;Node8</title>
<path fill="none" stroke="midnightblue" d="M453.55,-358.475C505.449,-347.827 594.241,-329.609 650.431,-318.081"/>
<polygon fill="midnightblue" stroke="midnightblue" points="651.435,-321.448 660.527,-316.009 650.028,-314.59 651.435,-321.448"/>
</g>
<!-- Node25 -->
<g id="node25" class="node"><title>Node25</title>
<g id="a_node25"><a xlink:href="../../d0/d3e/polynomial_8hpp.html" target="_top" xlink:title="pfasst/quadrature/polynomial.hpp">
<polygon fill="white" stroke="black" points="16,-297 16,-316 180,-316 180,-297 16,-297"/>
<text text-anchor="middle" x="98" y="-304" font-family="Helvetica,sans-Serif" font-size="10.00">pfasst/quadrature/polynomial.hpp</text>
</a>
</g>
</g>
<!-- Node3&#45;&gt;Node25 -->
<g id="edge34" class="edge"><title>Node3&#45;&gt;Node25</title>
<path fill="none" stroke="midnightblue" d="M367.011,-358.475C310.584,-347.783 213.878,-329.458 153.081,-317.937"/>
<polygon fill="midnightblue" stroke="midnightblue" points="153.382,-314.432 142.905,-316.009 152.079,-321.31 153.382,-314.432"/>
</g>
<!-- Node30 -->
<g id="node30" class="node"><title>Node30</title>
<g id="a_node30"><a xlink:href="../../de/da5/quadrature_2interface__impl_8hpp.html" target="_top" xlink:title="pfasst/quadrature/interface\l_impl.hpp">
<polygon fill="white" stroke="black" points="406,-291.5 406,-321.5 542,-321.5 542,-291.5 406,-291.5"/>
<text text-anchor="start" x="414" y="-309.5" font-family="Helvetica,sans-Serif" font-size="10.00">pfasst/quadrature/interface</text>
<text text-anchor="middle" x="474" y="-298.5" font-family="Helvetica,sans-Serif" font-size="10.00">_impl.hpp</text>
</a>
</g>
</g>
<!-- Node3&#45;&gt;Node30 -->
<g id="edge42" class="edge"><title>Node3&#45;&gt;Node30</title>
<path fill="none" stroke="midnightblue" d="M415.982,-358.475C422.436,-350.643 434.34,-338.714 445.783,-328.366"/>
<polygon fill="midnightblue" stroke="midnightblue" points="448.363,-330.757 453.558,-321.523 443.739,-325.502 448.363,-330.757"/>
</g>
<!-- Node9 -->
<g id="node9" class="node"><title>Node9</title>
<polygon fill="white" stroke="#bfbfbf" points="804.5,-168.5 804.5,-187.5 857.5,-187.5 857.5,-168.5 804.5,-168.5"/>
<text text-anchor="middle" x="831" y="-175.5" font-family="Helvetica,sans-Serif" font-size="10.00">memory</text>
</g>
<!-- Node8&#45;&gt;Node9 -->
<g id="edge8" class="edge"><title>Node8&#45;&gt;Node9</title>
<path fill="none" stroke="midnightblue" d="M717.889,-296.842C733.715,-287.741 758.162,-272.352 776,-255 794.176,-237.319 810.586,-213.035 820.656,-196.718"/>
<polygon fill="midnightblue" stroke="midnightblue" points="823.913,-198.093 826.066,-187.719 817.914,-194.487 823.913,-198.093"/>
</g>
<!-- Node8&#45;&gt;Node10 -->
<g id="edge9" class="edge"><title>Node8&#45;&gt;Node10</title>
<path fill="none" stroke="midnightblue" d="M722.184,-296.869C748.304,-285.699 794.026,-266.147 824.161,-253.26"/>
<polygon fill="midnightblue" stroke="midnightblue" points="825.914,-256.317 833.732,-249.167 823.161,-249.881 825.914,-256.317"/>
</g>
<!-- Node11 -->
<g id="node11" class="node"><title>Node11</title>
<polygon fill="white" stroke="#bfbfbf" points="644.5,-56.5 644.5,-75.5 685.5,-75.5 685.5,-56.5 644.5,-56.5"/>
<text text-anchor="middle" x="665" y="-63.5" font-family="Helvetica,sans-Serif" font-size="10.00">string</text>
</g>
<!-- Node8&#45;&gt;Node11 -->
<g id="edge10" class="edge"><title>Node8&#45;&gt;Node11</title>
<path fill="none" stroke="midnightblue" d="M678.685,-296.909C660.962,-288.997 637.841,-275.37 627,-255 596.67,-198.014 634.069,-119.524 654.01,-84.7789"/>
<polygon fill="midnightblue" stroke="midnightblue" points="657.227,-86.2165 659.323,-75.8311 651.208,-82.6425 657.227,-86.2165"/>
</g>
<!-- Node12 -->
<g id="node12" class="node"><title>Node12</title>
<g id="a_node12"><a xlink:href="../../d8/dc4/interfaces__impl_8hpp.html" target="_top" xlink:title="pfasst/interfaces_impl.hpp">
<polygon fill="white" stroke="black" points="636.5,-230 636.5,-249 767.5,-249 767.5,-230 636.5,-230"/>
<text text-anchor="middle" x="702" y="-237" font-family="Helvetica,sans-Serif" font-size="10.00">pfasst/interfaces_impl.hpp</text>
</a>
</g>
</g>
<!-- Node8&#45;&gt;Node12 -->
<g id="edge11" class="edge"><title>Node8&#45;&gt;Node12</title>
<path fill="none" stroke="midnightblue" d="M697.211,-296.734C695.202,-287.183 694.736,-271.618 695.816,-259.283"/>
<polygon fill="midnightblue" stroke="midnightblue" points="699.317,-259.517 697.241,-249.127 692.385,-258.544 699.317,-259.517"/>
</g>
<!-- Node12&#45;&gt;Node4 -->
<g id="edge13" class="edge"><title>Node12&#45;&gt;Node4</title>
<path fill="none" stroke="midnightblue" d="M642.111,-229.975C553.646,-217.383 390.81,-194.204 319.275,-184.021"/>
<polygon fill="midnightblue" stroke="midnightblue" points="319.396,-180.503 309.003,-182.559 318.409,-187.433 319.396,-180.503"/>
</g>
<!-- Node12&#45;&gt;Node7 -->
<g id="edge16" class="edge"><title>Node12&#45;&gt;Node7</title>
<path fill="none" stroke="midnightblue" d="M677.5,-229.975C648.04,-219.725 598.421,-202.459 565.198,-190.899"/>
<polygon fill="midnightblue" stroke="midnightblue" points="566.05,-187.49 555.455,-187.509 563.749,-194.101 566.05,-187.49"/>
</g>
<!-- Node12&#45;&gt;Node8 -->
<g id="edge12" class="edge"><title>Node12&#45;&gt;Node8</title>
<path fill="none" stroke="midnightblue" d="M706.759,-249.127C708.784,-258.62 709.264,-274.17 708.2,-286.537"/>
<polygon fill="midnightblue" stroke="midnightblue" points="704.693,-286.348 706.789,-296.734 711.627,-287.308 704.693,-286.348"/>
</g>
<!-- Node12&#45;&gt;Node9 -->
<g id="edge14" class="edge"><title>Node12&#45;&gt;Node9</title>
<path fill="none" stroke="midnightblue" d="M720.483,-229.975C742.132,-219.99 778.213,-203.348 803.232,-191.807"/>
<polygon fill="midnightblue" stroke="midnightblue" points="804.937,-194.876 812.552,-187.509 802.005,-188.519 804.937,-194.876"/>
</g>
<!-- Node12&#45;&gt;Node11 -->
<g id="edge15" class="edge"><title>Node12&#45;&gt;Node11</title>
<path fill="none" stroke="midnightblue" d="M697.308,-229.841C692.196,-220 684.19,-203.312 680,-188 670.35,-152.733 666.893,-109.969 665.666,-85.8823"/>
<polygon fill="midnightblue" stroke="midnightblue" points="669.153,-85.5123 665.225,-75.6727 662.159,-85.8144 669.153,-85.5123"/>
</g>
<!-- Node13 -->
<g id="node13" class="node"><title>Node13</title>
<g id="a_node13"><a xlink:href="../../d0/da9/logging_8hpp.html" target="_top" xlink:title="pfasst/logging.hpp">
<polygon fill="white" stroke="black" points="689,-168.5 689,-187.5 787,-187.5 787,-168.5 689,-168.5"/>
<text text-anchor="middle" x="738" y="-175.5" font-family="Helvetica,sans-Serif" font-size="10.00">pfasst/logging.hpp</text>
</a>
</g>
</g>
<!-- Node12&#45;&gt;Node13 -->
<g id="edge17" class="edge"><title>Node12&#45;&gt;Node13</title>
<path fill="none" stroke="midnightblue" d="M707.158,-229.975C712.451,-221.227 720.835,-207.369 727.527,-196.309"/>
<polygon fill="midnightblue" stroke="midnightblue" points="730.67,-197.877 732.852,-187.509 724.68,-194.253 730.67,-197.877"/>
</g>
<!-- Node13&#45;&gt;Node11 -->
<g id="edge20" class="edge"><title>Node13&#45;&gt;Node11</title>
<path fill="none" stroke="midnightblue" d="M730.671,-168.294C723.329,-159.414 711.877,-145.114 703,-132 692.49,-116.473 681.828,-97.9395 674.484,-84.6432"/>
<polygon fill="midnightblue" stroke="midnightblue" points="677.431,-82.7377 669.572,-75.6329 671.285,-86.0883 677.431,-82.7377"/>
</g>
<!-- Node14 -->
<g id="node14" class="node"><title>Node14</title>
<polygon fill="white" stroke="#bfbfbf" points="712,-112.5 712,-131.5 764,-131.5 764,-112.5 712,-112.5"/>
<text text-anchor="middle" x="738" y="-119.5" font-family="Helvetica,sans-Serif" font-size="10.00">iomanip</text>
</g>
<!-- Node13&#45;&gt;Node14 -->
<g id="edge18" class="edge"><title>Node13&#45;&gt;Node14</title>
<path fill="none" stroke="midnightblue" d="M738,-168.083C738,-161.006 738,-150.861 738,-141.986"/>
<polygon fill="midnightblue" stroke="midnightblue" points="741.5,-141.751 738,-131.751 734.5,-141.751 741.5,-141.751"/>
</g>
<!-- Node15 -->
<g id="node15" class="node"><title>Node15</title>
<polygon fill="white" stroke="#bfbfbf" points="959,-56.5 959,-75.5 1015,-75.5 1015,-56.5 959,-56.5"/>
<text text-anchor="middle" x="987" y="-63.5" font-family="Helvetica,sans-Serif" font-size="10.00">iostream</text>
</g>
<!-- Node13&#45;&gt;Node15 -->
<g id="edge19" class="edge"><title>Node13&#45;&gt;Node15</title>
<path fill="none" stroke="midnightblue" d="M787.114,-169.171C789.781,-168.769 792.423,-168.377 795,-168 854.459,-159.313 1023.44,-177.23 1063,-132 1080.89,-111.542 1048.48,-91.7989 1020.6,-79.5459"/>
<polygon fill="midnightblue" stroke="midnightblue" points="1021.59,-76.1671 1011.02,-75.5354 1018.89,-82.6245 1021.59,-76.1671"/>
</g>
<!-- Node16 -->
<g id="node16" class="node"><title>Node16</title>
<polygon fill="white" stroke="#bfbfbf" points="782.5,-112.5 782.5,-131.5 913.5,-131.5 913.5,-112.5 782.5,-112.5"/>
<text text-anchor="middle" x="848" y="-119.5" font-family="Helvetica,sans-Serif" font-size="10.00">boost/algorithm/string.hpp</text>
</g>
<!-- Node13&#45;&gt;Node16 -->
<g id="edge21" class="edge"><title>Node13&#45;&gt;Node16</title>
<path fill="none" stroke="midnightblue" d="M755.673,-168.324C773.394,-159.625 800.903,-146.12 821.288,-136.113"/>
<polygon fill="midnightblue" stroke="midnightblue" points="822.936,-139.203 830.37,-131.655 819.851,-132.919 822.936,-139.203"/>
</g>
<!-- Node17 -->
<g id="node17" class="node"><title>Node17</title>
<g id="a_node17"><a xlink:href="../../d8/dfd/config_8hpp.html" target="_top" xlink:title="pfasst/config.hpp">
<polygon fill="white" stroke="black" points="1110.5,-112.5 1110.5,-131.5 1201.5,-131.5 1201.5,-112.5 1110.5,-112.5"/>
<text text-anchor="middle" x="1156" y="-119.5" font-family="Helvetica,sans-Serif" font-size="10.00">pfasst/config.hpp</text>
</a>
</g>
</g>
<!-- Node13&#45;&gt;Node17 -->
<g id="edge22" class="edge"><title>Node13&#45;&gt;Node17</title>
<path fill="none" stroke="midnightblue" d="M787.108,-169.126C789.776,-168.736 792.42,-168.358 795,-168 928.454,-149.49 962.476,-149.995 1096,-132 1097.47,-131.802 1098.96,-131.599 1100.46,-131.391"/>
<polygon fill="midnightblue" stroke="midnightblue" points="1101.07,-134.839 1110.48,-129.973 1100.09,-127.908 1101.07,-134.839"/>
</g>
<!-- Node24 -->
<g id="node24" class="node"><title>Node24</title>
<polygon fill="white" stroke="#bfbfbf" points="932,-112.5 932,-131.5 1054,-131.5 1054,-112.5 932,-112.5"/>
<text text-anchor="middle" x="993" y="-119.5" font-family="Helvetica,sans-Serif" font-size="10.00">pfasst/easylogging++.h</text>
</g>
<!-- Node13&#45;&gt;Node24 -->
<g id="edge33" class="edge"><title>Node13&#45;&gt;Node24</title>
<path fill="none" stroke="midnightblue" d="M778.406,-168.444C822.983,-159.004 894.768,-143.802 942.892,-133.611"/>
<polygon fill="midnightblue" stroke="midnightblue" points="943.726,-137.012 952.784,-131.516 942.275,-130.164 943.726,-137.012"/>
</g>
<!-- Node17&#45;&gt;Node11 -->
<g id="edge25" class="edge"><title>Node17&#45;&gt;Node11</title>
<path fill="none" stroke="midnightblue" d="M1110.25,-115.968C1011.27,-105.082 779.427,-79.5846 695.78,-70.3852"/>
<polygon fill="midnightblue" stroke="midnightblue" points="695.981,-66.8863 685.658,-69.272 695.216,-73.8443 695.981,-66.8863"/>
</g>
<!-- Node17&#45;&gt;Node15 -->
<g id="edge24" class="edge"><title>Node17&#45;&gt;Node15</title>
<path fill="none" stroke="midnightblue" d="M1129.22,-112.444C1100.67,-103.32 1055.27,-88.8133 1023.46,-78.6509"/>
<polygon fill="midnightblue" stroke="midnightblue" points="1024.24,-75.2262 1013.65,-75.5164 1022.11,-81.8941 1024.24,-75.2262"/>
</g>
<!-- Node18 -->
<g id="node18" class="node"><title>Node18</title>
<polygon fill="white" stroke="#bfbfbf" points="1239,-0.5 1239,-19.5 1289,-19.5 1289,-0.5 1239,-0.5"/>
<text text-anchor="middle" x="1264" y="-7.5" font-family="Helvetica,sans-Serif" font-size="10.00">fstream</text>
</g>
<!-- Node17&#45;&gt;Node18 -->
<g id="edge23" class="edge"><title>Node17&#45;&gt;Node18</title>
<path fill="none" stroke="midnightblue" d="M1178.66,-112.398C1195.72,-104.954 1218.72,-92.7408 1234,-76 1246.17,-62.674 1254.18,-43.5564 1258.84,-29.5027"/>
<polygon fill="midnightblue" stroke="midnightblue" points="1262.32,-30.1106 1261.87,-19.525 1255.62,-28.075 1262.32,-30.1106"/>
</g>
<!-- Node19 -->
<g id="node19" class="node"><title>Node19</title>
<polygon fill="white" stroke="#bfbfbf" points="1033,-56.5 1033,-75.5 1069,-75.5 1069,-56.5 1033,-56.5"/>
<text text-anchor="middle" x="1051" y="-63.5" font-family="Helvetica,sans-Serif" font-size="10.00">map</text>
</g>
<!-- Node17&#45;&gt;Node19 -->
<g id="edge26" class="edge"><title>Node17&#45;&gt;Node19</title>
<path fill="none" stroke="midnightblue" d="M1139.13,-112.324C1122.29,-103.664 1096.19,-90.2424 1076.76,-80.249"/>
<polygon fill="midnightblue" stroke="midnightblue" points="1078.32,-77.1155 1067.83,-75.6545 1075.12,-83.3405 1078.32,-77.1155"/>
</g>
<!-- Node20 -->
<g id="node20" class="node"><title>Node20</title>
<polygon fill="white" stroke="#bfbfbf" points="1087.5,-56.5 1087.5,-75.5 1224.5,-75.5 1224.5,-56.5 1087.5,-56.5"/>
<text text-anchor="middle" x="1156" y="-63.5" font-family="Helvetica,sans-Serif" font-size="10.00">boost/program_options.hpp</text>
</g>
<!-- Node17&#45;&gt;Node20 -->
<g id="edge27" class="edge"><title>Node17&#45;&gt;Node20</title>
<path fill="none" stroke="midnightblue" d="M1156,-112.083C1156,-105.006 1156,-94.8611 1156,-85.9865"/>
<polygon fill="midnightblue" stroke="midnightblue" points="1159.5,-85.751 1156,-75.7511 1152.5,-85.7511 1159.5,-85.751"/>
</g>
<!-- Node21 -->
<g id="node21" class="node"><title>Node21</title>
<g id="a_node21"><a xlink:href="../../d5/d84/config__impl_8hpp.html" target="_top" xlink:title="pfasst/config_impl.hpp">
<polygon fill="white" stroke="black" points="1281,-56.5 1281,-75.5 1395,-75.5 1395,-56.5 1281,-56.5"/>
<text text-anchor="middle" x="1338" y="-63.5" font-family="Helvetica,sans-Serif" font-size="10.00">pfasst/config_impl.hpp</text>
</a>
</g>
</g>
<!-- Node17&#45;&gt;Node21 -->
<g id="edge28" class="edge"><title>Node17&#45;&gt;Node21</title>
<path fill="none" stroke="midnightblue" d="M1179.75,-112.444C1208.87,-103.201 1258.47,-88.4356 1294.45,-78.2572"/>
<polygon fill="midnightblue" stroke="midnightblue" points="1295.53,-81.5894 1304.22,-75.5164 1293.64,-74.85 1295.53,-81.5894"/>
</g>
<!-- Node21&#45;&gt;Node17 -->
<g id="edge29" class="edge"><title>Node21&#45;&gt;Node17</title>
<path fill="none" stroke="midnightblue" d="M1314.38,-75.5164C1285.31,-84.7429 1235.73,-99.507 1199.7,-109.699"/>
<polygon fill="midnightblue" stroke="midnightblue" points="1198.61,-106.37 1189.93,-112.444 1200.5,-113.109 1198.61,-106.37"/>
</g>
<!-- Node21&#45;&gt;Node18 -->
<g id="edge30" class="edge"><title>Node21&#45;&gt;Node18</title>
<path fill="none" stroke="midnightblue" d="M1326.11,-56.324C1314.85,-48.1066 1297.71,-35.6017 1284.29,-25.8069"/>
<polygon fill="midnightblue" stroke="midnightblue" points="1286.25,-22.9014 1276.11,-19.8339 1282.12,-28.5559 1286.25,-22.9014"/>
</g>
<!-- Node22 -->
<g id="node22" class="node"><title>Node22</title>
<polygon fill="white" stroke="#bfbfbf" points="1369.5,-0.5 1369.5,-19.5 1422.5,-19.5 1422.5,-0.5 1369.5,-0.5"/>
<text text-anchor="middle" x="1396" y="-7.5" font-family="Helvetica,sans-Serif" font-size="10.00">sstream</text>
</g>
<!-- Node21&#45;&gt;Node22 -->
<g id="edge31" class="edge"><title>Node21&#45;&gt;Node22</title>
<path fill="none" stroke="midnightblue" d="M1347.32,-56.324C1355.89,-48.3414 1368.81,-36.3128 1379.19,-26.6529"/>
<polygon fill="midnightblue" stroke="midnightblue" points="1381.58,-29.2098 1386.51,-19.8339 1376.81,-24.0865 1381.58,-29.2098"/>
</g>
<!-- Node23 -->
<g id="node23" class="node"><title>Node23</title>
<polygon fill="white" stroke="#bfbfbf" points="1313,-0.5 1313,-19.5 1351,-19.5 1351,-0.5 1313,-0.5"/>
<text text-anchor="middle" x="1332" y="-7.5" font-family="Helvetica,sans-Serif" font-size="10.00">utility</text>
</g>
<!-- Node21&#45;&gt;Node23 -->
<g id="edge32" class="edge"><title>Node21&#45;&gt;Node23</title>
<path fill="none" stroke="midnightblue" d="M1337.01,-56.083C1336.21,-48.9272 1335.07,-38.6353 1334.08,-29.6911"/>
<polygon fill="midnightblue" stroke="midnightblue" points="1337.56,-29.3034 1332.97,-19.7511 1330.6,-30.0765 1337.56,-29.3034"/>
</g>
<!-- Node25&#45;&gt;Node5 -->
<g id="edge35" class="edge"><title>Node25&#45;&gt;Node5</title>
<path fill="none" stroke="midnightblue" d="M113.24,-296.734C132.216,-285.818 164.846,-267.049 187.147,-254.221"/>
<polygon fill="midnightblue" stroke="midnightblue" points="189.079,-257.147 196.002,-249.127 185.588,-251.08 189.079,-257.147"/>
</g>
<!-- Node26 -->
<g id="node26" class="node"><title>Node26</title>
<g id="a_node26"><a xlink:href="../../dc/de8/polynomial__impl_8hpp.html" target="_top" xlink:title="pfasst/quadrature/polynomial\l_impl.hpp">
<polygon fill="white" stroke="black" points="25,-224.5 25,-254.5 171,-254.5 171,-224.5 25,-224.5"/>
<text text-anchor="start" x="33" y="-242.5" font-family="Helvetica,sans-Serif" font-size="10.00">pfasst/quadrature/polynomial</text>
<text text-anchor="middle" x="98" y="-231.5" font-family="Helvetica,sans-Serif" font-size="10.00">_impl.hpp</text>
</a>
</g>
</g>
<!-- Node25&#45;&gt;Node26 -->
<g id="edge36" class="edge"><title>Node25&#45;&gt;Node26</title>
<path fill="none" stroke="midnightblue" d="M93.2115,-296.734C91.4874,-288.541 90.8999,-275.923 91.4489,-264.714"/>
<polygon fill="midnightblue" stroke="midnightblue" points="94.9498,-264.853 92.3235,-254.589 87.9758,-264.251 94.9498,-264.853"/>
</g>
<!-- Node26&#45;&gt;Node4 -->
<g id="edge39" class="edge"><title>Node26&#45;&gt;Node4</title>
<path fill="none" stroke="midnightblue" d="M142.079,-224.399C174.799,-213.933 218.811,-199.853 249.103,-190.163"/>
<polygon fill="midnightblue" stroke="midnightblue" points="250.356,-193.437 258.814,-187.057 248.223,-186.77 250.356,-193.437"/>
</g>
<!-- Node26&#45;&gt;Node25 -->
<g id="edge37" class="edge"><title>Node26&#45;&gt;Node25</title>
<path fill="none" stroke="midnightblue" d="M103.676,-254.589C104.912,-264.001 105.081,-276.487 104.183,-286.739"/>
<polygon fill="midnightblue" stroke="midnightblue" points="100.703,-286.346 102.789,-296.734 107.636,-287.313 100.703,-286.346"/>
</g>
<!-- Node27 -->
<g id="node27" class="node"><title>Node27</title>
<polygon fill="white" stroke="#bfbfbf" points="0,-168.5 0,-187.5 58,-187.5 58,-168.5 0,-168.5"/>
<text text-anchor="middle" x="29" y="-175.5" font-family="Helvetica,sans-Serif" font-size="10.00">algorithm</text>
</g>
<!-- Node26&#45;&gt;Node27 -->
<g id="edge38" class="edge"><title>Node26&#45;&gt;Node27</title>
<path fill="none" stroke="midnightblue" d="M81.648,-224.399C71.1046,-215.308 57.4001,-203.49 46.6164,-194.191"/>
<polygon fill="midnightblue" stroke="midnightblue" points="48.899,-191.538 39.0401,-187.658 44.3276,-196.839 48.899,-191.538"/>
</g>
<!-- Node28 -->
<g id="node28" class="node"><title>Node28</title>
<polygon fill="white" stroke="#bfbfbf" points="76,-168.5 76,-187.5 120,-187.5 120,-168.5 76,-168.5"/>
<text text-anchor="middle" x="98" y="-175.5" font-family="Helvetica,sans-Serif" font-size="10.00">cmath</text>
</g>
<!-- Node26&#45;&gt;Node28 -->
<g id="edge40" class="edge"><title>Node26&#45;&gt;Node28</title>
<path fill="none" stroke="midnightblue" d="M98,-224.399C98,-216.466 98,-206.458 98,-197.858"/>
<polygon fill="midnightblue" stroke="midnightblue" points="101.5,-197.658 98,-187.658 94.5001,-197.658 101.5,-197.658"/>
</g>
<!-- Node29 -->
<g id="node29" class="node"><title>Node29</title>
<polygon fill="white" stroke="#bfbfbf" points="138.5,-168.5 138.5,-187.5 193.5,-187.5 193.5,-168.5 138.5,-168.5"/>
<text text-anchor="middle" x="166" y="-175.5" font-family="Helvetica,sans-Serif" font-size="10.00">complex</text>
</g>
<!-- Node26&#45;&gt;Node29 -->
<g id="edge41" class="edge"><title>Node26&#45;&gt;Node29</title>
<path fill="none" stroke="midnightblue" d="M114.115,-224.399C124.404,-215.397 137.747,-203.721 148.326,-194.465"/>
<polygon fill="midnightblue" stroke="midnightblue" points="150.884,-196.877 156.105,-187.658 146.275,-191.609 150.884,-196.877"/>
</g>
<!-- Node30&#45;&gt;Node3 -->
<g id="edge43" class="edge"><title>Node30&#45;&gt;Node3</title>
<path fill="none" stroke="midnightblue" d="M465.218,-321.523C456.877,-330.662 444.502,-342.579 433.672,-351.921"/>
<polygon fill="midnightblue" stroke="midnightblue" points="431.239,-349.393 425.784,-358.475 435.712,-354.777 431.239,-349.393"/>
</g>
</g>
</svg>
