<?xml version="1.0" encoding="UTF-8" standalone="no"?>
<!DOCTYPE svg PUBLIC "-//W3C//DTD SVG 1.1//EN"
 "http://www.w3.org/Graphics/SVG/1.1/DTD/svg11.dtd">
<!-- Generated by graphviz version 2.38.0 (20140413.2041)
 -->
<!-- Title: include/pfasst/encap/encap_sweeper.hpp Pages: 1 -->
<svg width="1292pt" height="318pt"
 viewBox="0.00 0.00 1292.00 318.00" xmlns="http://www.w3.org/2000/svg" xmlns:xlink="http://www.w3.org/1999/xlink">
<g id="graph0" class="graph" transform="scale(1 1) rotate(0) translate(4 314)">
<title>include/pfasst/encap/encap_sweeper.hpp</title>
<polygon fill="white" stroke="none" points="-4,4 -4,-314 1288,-314 1288,4 -4,4"/>
<!-- Node1 -->
<g id="node1" class="node"><title>Node1</title>
<polygon fill="#bfbfbf" stroke="black" points="699,-279.5 699,-309.5 809,-309.5 809,-279.5 699,-279.5"/>
<text text-anchor="start" x="707" y="-297.5" font-family="Helvetica,sans-Serif" font-size="10.00">include/pfasst/encap</text>
<text text-anchor="middle" x="754" y="-286.5" font-family="Helvetica,sans-Serif" font-size="10.00">/encap_sweeper.hpp</text>
</g>
<!-- Node2 -->
<g id="node2" class="node"><title>Node2</title>
<g id="a_node2"><a xlink:href="../../d1/d6f/imex__sweeper_8hpp.html" target="_top" xlink:title="include/pfasst/encap\l/imex_sweeper.hpp">
<polygon fill="white" stroke="black" points="302.5,-145.5 302.5,-175.5 411.5,-175.5 411.5,-145.5 302.5,-145.5"/>
<text text-anchor="start" x="310.5" y="-163.5" font-family="Helvetica,sans-Serif" font-size="10.00">include/pfasst/encap</text>
<text text-anchor="middle" x="357" y="-152.5" font-family="Helvetica,sans-Serif" font-size="10.00">/imex_sweeper.hpp</text>
</a>
</g>
</g>
<!-- Node1&#45;&gt;Node2 -->
<g id="edge1" class="edge"><title>Node1&#45;&gt;Node2</title>
<path fill="none" stroke="midnightblue" d="M688.756,-289.388C604.765,-283.123 464.348,-269.067 420,-243 392.865,-227.05 373.263,-194.51 363.662,-175.73"/>
<polygon fill="midnightblue" stroke="midnightblue" points="688.732,-292.896 698.96,-290.132 689.241,-285.914 688.732,-292.896"/>
</g>
<!-- Node10 -->
<g id="node10" class="node"><title>Node10</title>
<g id="a_node10"><a xlink:href="../../d7/daf/implicit__sweeper_8hpp.html" target="_top" xlink:title="include/pfasst/encap\l/implicit_sweeper.hpp">
<polygon fill="white" stroke="black" points="563,-212.5 563,-242.5 675,-242.5 675,-212.5 563,-212.5"/>
<text text-anchor="start" x="571" y="-230.5" font-family="Helvetica,sans-Serif" font-size="10.00">include/pfasst/encap</text>
<text text-anchor="middle" x="619" y="-219.5" font-family="Helvetica,sans-Serif" font-size="10.00">/implicit_sweeper.hpp</text>
</a>
</g>
</g>
<!-- Node1&#45;&gt;Node10 -->
<g id="edge10" class="edge"><title>Node1&#45;&gt;Node10</title>
<path fill="none" stroke="midnightblue" d="M715.56,-274.992C694.162,-264.689 667.948,-252.068 648.236,-242.577"/>
<polygon fill="midnightblue" stroke="midnightblue" points="714.179,-278.211 724.707,-279.396 717.215,-271.904 714.179,-278.211"/>
</g>
<!-- Node14 -->
<g id="node14" class="node"><title>Node14</title>
<g id="a_node14"><a xlink:href="../../d9/d05/encap__sweeper__impl_8hpp.html" target="_top" xlink:title="src/pfasst/encap/encap\l_sweeper_impl.hpp">
<polygon fill="white" stroke="black" points="693.5,-212.5 693.5,-242.5 814.5,-242.5 814.5,-212.5 693.5,-212.5"/>
<text text-anchor="start" x="701.5" y="-230.5" font-family="Helvetica,sans-Serif" font-size="10.00">src/pfasst/encap/encap</text>
<text text-anchor="middle" x="754" y="-219.5" font-family="Helvetica,sans-Serif" font-size="10.00">_sweeper_impl.hpp</text>
</a>
</g>
</g>
<!-- Node1&#45;&gt;Node14 -->
<g id="edge15" class="edge"><title>Node1&#45;&gt;Node14</title>
<path fill="none" stroke="midnightblue" d="M747.455,-269.403C747.005,-260.37 747.296,-250.408 748.325,-242.577"/>
<polygon fill="midnightblue" stroke="midnightblue" points="743.97,-269.736 748.322,-279.396 750.944,-269.131 743.97,-269.736"/>
</g>
<!-- Node15 -->
<g id="node15" class="node"><title>Node15</title>
<g id="a_node15"><a xlink:href="../../d9/d3c/poly__interp__impl_8hpp.html" target="_top" xlink:title="src/pfasst/encap/poly\l_interp_impl.hpp">
<polygon fill="white" stroke="black" points="429,-212.5 429,-242.5 541,-242.5 541,-212.5 429,-212.5"/>
<text text-anchor="start" x="437" y="-230.5" font-family="Helvetica,sans-Serif" font-size="10.00">src/pfasst/encap/poly</text>
<text text-anchor="middle" x="485" y="-219.5" font-family="Helvetica,sans-Serif" font-size="10.00">_interp_impl.hpp</text>
</a>
</g>
</g>
<!-- Node1&#45;&gt;Node15 -->
<g id="edge17" class="edge"><title>Node1&#45;&gt;Node15</title>
<path fill="none" stroke="midnightblue" d="M688.948,-277.781C643.876,-266.89 584.465,-252.534 541.4,-242.128"/>
<polygon fill="midnightblue" stroke="midnightblue" points="688.372,-281.243 698.915,-280.189 690.017,-274.439 688.372,-281.243"/>
</g>
<!-- Node18 -->
<g id="node18" class="node"><title>Node18</title>
<g id="a_node18"><a xlink:href="../../db/dfd/boris__sweeper_8hpp.html" target="_top" xlink:title="examples/boris/boris\l_sweeper.hpp">
<polygon fill="white" stroke="black" points="1000,-212.5 1000,-242.5 1110,-242.5 1110,-212.5 1000,-212.5"/>
<text text-anchor="start" x="1008" y="-230.5" font-family="Helvetica,sans-Serif" font-size="10.00">examples/boris/boris</text>
<text text-anchor="middle" x="1055" y="-219.5" font-family="Helvetica,sans-Serif" font-size="10.00">_sweeper.hpp</text>
</a>
</g>
</g>
<!-- Node1&#45;&gt;Node18 -->
<g id="edge23" class="edge"><title>Node1&#45;&gt;Node18</title>
<path fill="none" stroke="midnightblue" d="M819.017,-279.46C872.977,-267.807 948.871,-251.418 999.888,-240.401"/>
<polygon fill="midnightblue" stroke="midnightblue" points="818.244,-276.046 809.208,-281.578 819.722,-282.888 818.244,-276.046"/>
</g>
<!-- Node20 -->
<g id="node20" class="node"><title>Node20</title>
<g id="a_node20"><a xlink:href="../../db/d9a/boris__sweeper__impl_8hpp.html" target="_top" xlink:title="examples/boris/boris\l_sweeper_impl.hpp">
<polygon fill="white" stroke="black" points="1174,-145.5 1174,-175.5 1284,-175.5 1284,-145.5 1174,-145.5"/>
<text text-anchor="start" x="1182" y="-163.5" font-family="Helvetica,sans-Serif" font-size="10.00">examples/boris/boris</text>
<text text-anchor="middle" x="1229" y="-152.5" font-family="Helvetica,sans-Serif" font-size="10.00">_sweeper_impl.hpp</text>
</a>
</g>
</g>
<!-- Node1&#45;&gt;Node20 -->
<g id="edge32" class="edge"><title>Node1&#45;&gt;Node20</title>
<path fill="none" stroke="midnightblue" d="M819.301,-294.083C894.335,-292.606 1019.87,-283.468 1119,-243 1157.73,-227.19 1195.2,-194.597 1214.83,-175.771"/>
<polygon fill="midnightblue" stroke="midnightblue" points="819,-290.587 809.056,-294.243 819.11,-297.587 819,-290.587"/>
</g>
<!-- Node3 -->
<g id="node3" class="node"><title>Node3</title>
<g id="a_node3"><a xlink:href="../../d7/d0a/imex__sweeper__impl_8hpp.html" target="_top" xlink:title="src/pfasst/encap/imex\l_sweeper_impl.hpp">
<polygon fill="white" stroke="black" points="299.5,-73 299.5,-103 414.5,-103 414.5,-73 299.5,-73"/>
<text text-anchor="start" x="307.5" y="-91" font-family="Helvetica,sans-Serif" font-size="10.00">src/pfasst/encap/imex</text>
<text text-anchor="middle" x="357" y="-80" font-family="Helvetica,sans-Serif" font-size="10.00">_sweeper_impl.hpp</text>
</a>
</g>
</g>
<!-- Node2&#45;&gt;Node3 -->
<g id="edge2" class="edge"><title>Node2&#45;&gt;Node3</title>
<path fill="none" stroke="midnightblue" d="M350.55,-135.232C349.949,-124.568 350.251,-112.414 351.454,-103.246"/>
<polygon fill="midnightblue" stroke="midnightblue" points="347.068,-135.588 351.451,-145.233 354.04,-134.959 347.068,-135.588"/>
</g>
<!-- Node4 -->
<g id="node4" class="node"><title>Node4</title>
<g id="a_node4"><a xlink:href="../../dc/d7d/advection__diffusion__sweeper_8hpp.html" target="_top" xlink:title="examples/advection\l_diffusion/advection\l_diffusion_sweeper.hpp">
<polygon fill="white" stroke="black" points="160.5,-67.5 160.5,-108.5 281.5,-108.5 281.5,-67.5 160.5,-67.5"/>
<text text-anchor="start" x="168.5" y="-96.5" font-family="Helvetica,sans-Serif" font-size="10.00">examples/advection</text>
<text text-anchor="start" x="168.5" y="-85.5" font-family="Helvetica,sans-Serif" font-size="10.00">_diffusion/advection</text>
<text text-anchor="middle" x="221" y="-74.5" font-family="Helvetica,sans-Serif" font-size="10.00">_diffusion_sweeper.hpp</text>
</a>
</g>
</g>
<!-- Node2&#45;&gt;Node4 -->
<g id="edge4" class="edge"><title>Node2&#45;&gt;Node4</title>
<path fill="none" stroke="midnightblue" d="M320.781,-140.725C301.611,-130.788 278.094,-118.597 258.707,-108.546"/>
<polygon fill="midnightblue" stroke="midnightblue" points="319.316,-143.908 329.805,-145.403 322.538,-137.693 319.316,-143.908"/>
</g>
<!-- Node8 -->
<g id="node8" class="node"><title>Node8</title>
<g id="a_node8"><a xlink:href="../../d8/d93/scalar__sweeper_8hpp.html" target="_top" xlink:title="examples/scalar/scalar\l_sweeper.hpp">
<polygon fill="white" stroke="black" points="10,-73 10,-103 132,-103 132,-73 10,-73"/>
<text text-anchor="start" x="18" y="-91" font-family="Helvetica,sans-Serif" font-size="10.00">examples/scalar/scalar</text>
<text text-anchor="middle" x="71" y="-80" font-family="Helvetica,sans-Serif" font-size="10.00">_sweeper.hpp</text>
</a>
</g>
</g>
<!-- Node2&#45;&gt;Node8 -->
<g id="edge8" class="edge"><title>Node2&#45;&gt;Node8</title>
<path fill="none" stroke="midnightblue" d="M292.56,-143.783C251.936,-133.855 198.385,-120.731 151,-109 143.218,-107.073 135.012,-105.033 126.941,-103.02"/>
<polygon fill="midnightblue" stroke="midnightblue" points="291.789,-147.198 302.334,-146.171 293.451,-140.398 291.789,-147.198"/>
</g>
<!-- Node3&#45;&gt;Node2 -->
<g id="edge3" class="edge"><title>Node3&#45;&gt;Node2</title>
<path fill="none" stroke="midnightblue" d="M363.449,-113.244C364.051,-123.905 363.751,-136.06 362.549,-145.233"/>
<polygon fill="midnightblue" stroke="midnightblue" points="366.931,-112.89 362.546,-103.246 359.959,-113.52 366.931,-112.89"/>
</g>
<!-- Node5 -->
<g id="node5" class="node"><title>Node5</title>
<g id="a_node5"><a xlink:href="../../d1/d49/mpi__pfasst_8cpp.html" target="_top" xlink:title="Advection&#45;Diffusion with MPI&#45;enabled PFASST. ">
<polygon fill="white" stroke="black" points="289.5,-0.5 289.5,-30.5 416.5,-30.5 416.5,-0.5 289.5,-0.5"/>
<text text-anchor="start" x="297.5" y="-18.5" font-family="Helvetica,sans-Serif" font-size="10.00">examples/advection</text>
<text text-anchor="middle" x="353" y="-7.5" font-family="Helvetica,sans-Serif" font-size="10.00">_diffusion/mpi_pfasst.cpp</text>
</a>
</g>
</g>
<!-- Node4&#45;&gt;Node5 -->
<g id="edge5" class="edge"><title>Node4&#45;&gt;Node5</title>
<path fill="none" stroke="midnightblue" d="M266.715,-62.5841C286.669,-51.9266 309.364,-39.8055 326.469,-30.67"/>
<polygon fill="midnightblue" stroke="midnightblue" points="264.941,-59.5634 257.769,-67.3618 268.239,-65.738 264.941,-59.5634"/>
</g>
<!-- Node6 -->
<g id="node6" class="node"><title>Node6</title>
<g id="a_node6"><a xlink:href="../../d9/d86/serial__mlsdc_8cpp.html" target="_top" xlink:title="Advection&#45;Diffusion with serial MLSDC. ">
<polygon fill="white" stroke="black" points="434.5,-0.5 434.5,-30.5 571.5,-30.5 571.5,-0.5 434.5,-0.5"/>
<text text-anchor="start" x="442.5" y="-18.5" font-family="Helvetica,sans-Serif" font-size="10.00">examples/advection</text>
<text text-anchor="middle" x="503" y="-7.5" font-family="Helvetica,sans-Serif" font-size="10.00">_diffusion/serial_mlsdc.cpp</text>
</a>
</g>
</g>
<!-- Node4&#45;&gt;Node6 -->
<g id="edge6" class="edge"><title>Node4&#45;&gt;Node6</title>
<path fill="none" stroke="midnightblue" d="M291.482,-66.6598C346.601,-52.2763 399.799,-39.7611 439.886,-30.604"/>
<polygon fill="midnightblue" stroke="midnightblue" points="290.319,-63.3464 281.535,-69.2705 292.096,-70.1171 290.319,-63.3464"/>
</g>
<!-- Node7 -->
<g id="node7" class="node"><title>Node7</title>
<g id="a_node7"><a xlink:href="../../d4/df0/vanilla__sdc_8cpp.html" target="_top" xlink:title="Advection&#45;Diffusion with vanilla SDC. ">
<polygon fill="white" stroke="black" points="140.5,-0.5 140.5,-30.5 271.5,-30.5 271.5,-0.5 140.5,-0.5"/>
<text text-anchor="start" x="148.5" y="-18.5" font-family="Helvetica,sans-Serif" font-size="10.00">examples/advection</text>
<text text-anchor="middle" x="206" y="-7.5" font-family="Helvetica,sans-Serif" font-size="10.00">_diffusion/vanilla_sdc.cpp</text>
</a>
</g>
</g>
<!-- Node4&#45;&gt;Node7 -->
<g id="edge7" class="edge"><title>Node4&#45;&gt;Node7</title>
<path fill="none" stroke="midnightblue" d="M214.697,-57.3757C212.748,-48.214 210.688,-38.5319 209.062,-30.8916"/>
<polygon fill="midnightblue" stroke="midnightblue" points="211.317,-58.3092 216.822,-67.3618 218.164,-56.8524 211.317,-58.3092"/>
</g>
<!-- Node9 -->
<g id="node9" class="node"><title>Node9</title>
<g id="a_node9"><a xlink:href="../../d2/daf/scalar__sdc_8cpp.html" target="_top" xlink:title="Scalar test equation example using an encapsulated IMEX sweeper. ">
<polygon fill="white" stroke="black" points="0,-0.5 0,-30.5 122,-30.5 122,-0.5 0,-0.5"/>
<text text-anchor="start" x="8" y="-18.5" font-family="Helvetica,sans-Serif" font-size="10.00">examples/scalar/scalar</text>
<text text-anchor="middle" x="61" y="-7.5" font-family="Helvetica,sans-Serif" font-size="10.00">_sdc.cpp</text>
</a>
</g>
</g>
<!-- Node8&#45;&gt;Node9 -->
<g id="edge9" class="edge"><title>Node8&#45;&gt;Node9</title>
<path fill="none" stroke="midnightblue" d="M67.5577,-62.7317C66.0451,-52.0679 64.3212,-39.9145 63.0206,-30.7455"/>
<polygon fill="midnightblue" stroke="midnightblue" points="64.1066,-63.3239 68.9764,-72.7333 71.0372,-62.3408 64.1066,-63.3239"/>
</g>
<!-- Node11 -->
<g id="node11" class="node"><title>Node11</title>
<g id="a_node11"><a xlink:href="../../dd/d8c/implicit__sweeper__impl_8hpp.html" target="_top" xlink:title="src/pfasst/encap/implicit\l_sweeper_impl.hpp">
<polygon fill="white" stroke="black" points="557.5,-145.5 557.5,-175.5 680.5,-175.5 680.5,-145.5 557.5,-145.5"/>
<text text-anchor="start" x="565.5" y="-163.5" font-family="Helvetica,sans-Serif" font-size="10.00">src/pfasst/encap/implicit</text>
<text text-anchor="middle" x="619" y="-152.5" font-family="Helvetica,sans-Serif" font-size="10.00">_sweeper_impl.hpp</text>
</a>
</g>
</g>
<!-- Node10&#45;&gt;Node11 -->
<g id="edge11" class="edge"><title>Node10&#45;&gt;Node11</title>
<path fill="none" stroke="midnightblue" d="M612.455,-202.403C612.005,-193.37 612.296,-183.408 613.325,-175.577"/>
<polygon fill="midnightblue" stroke="midnightblue" points="608.97,-202.736 613.322,-212.396 615.944,-202.131 608.97,-202.736"/>
</g>
<!-- Node12 -->
<g id="node12" class="node"><title>Node12</title>
<g id="a_node12"><a xlink:href="../../d6/d93/vdp__sweeper_8hpp.html" target="_top" xlink:title="examples/vanderpol\l/vdp_sweeper.hpp">
<polygon fill="white" stroke="black" points="698.5,-145.5 698.5,-175.5 807.5,-175.5 807.5,-145.5 698.5,-145.5"/>
<text text-anchor="start" x="706.5" y="-163.5" font-family="Helvetica,sans-Serif" font-size="10.00">examples/vanderpol</text>
<text text-anchor="middle" x="753" y="-152.5" font-family="Helvetica,sans-Serif" font-size="10.00">/vdp_sweeper.hpp</text>
</a>
</g>
</g>
<!-- Node10&#45;&gt;Node12 -->
<g id="edge13" class="edge"><title>Node10&#45;&gt;Node12</title>
<path fill="none" stroke="midnightblue" d="M657.155,-207.992C678.395,-197.689 704.414,-185.068 723.981,-175.577"/>
<polygon fill="midnightblue" stroke="midnightblue" points="655.546,-204.882 648.076,-212.396 658.601,-211.181 655.546,-204.882"/>
</g>
<!-- Node11&#45;&gt;Node10 -->
<g id="edge12" class="edge"><title>Node11&#45;&gt;Node10</title>
<path fill="none" stroke="midnightblue" d="M625.544,-185.565C625.995,-194.596 625.706,-204.56 624.678,-212.396"/>
<polygon fill="midnightblue" stroke="midnightblue" points="629.028,-185.236 624.675,-175.577 622.055,-185.842 629.028,-185.236"/>
</g>
<!-- Node13 -->
<g id="node13" class="node"><title>Node13</title>
<g id="a_node13"><a xlink:href="../../df/de7/vdp__sdc_8cpp.html" target="_top" xlink:title="examples/vanderpol\l/vdp_sdc.cpp">
<polygon fill="white" stroke="black" points="698.5,-73 698.5,-103 807.5,-103 807.5,-73 698.5,-73"/>
<text text-anchor="start" x="706.5" y="-91" font-family="Helvetica,sans-Serif" font-size="10.00">examples/vanderpol</text>
<text text-anchor="middle" x="753" y="-80" font-family="Helvetica,sans-Serif" font-size="10.00">/vdp_sdc.cpp</text>
</a>
</g>
</g>
<!-- Node12&#45;&gt;Node13 -->
<g id="edge14" class="edge"><title>Node12&#45;&gt;Node13</title>
<path fill="none" stroke="midnightblue" d="M753,-135.232C753,-124.568 753,-112.414 753,-103.246"/>
<polygon fill="midnightblue" stroke="midnightblue" points="749.5,-135.233 753,-145.233 756.5,-135.233 749.5,-135.233"/>
</g>
<!-- Node14&#45;&gt;Node1 -->
<g id="edge16" class="edge"><title>Node14&#45;&gt;Node1</title>
<path fill="none" stroke="midnightblue" d="M760.544,-252.565C760.995,-261.596 760.706,-271.56 759.678,-279.396"/>
<polygon fill="midnightblue" stroke="midnightblue" points="764.028,-252.236 759.675,-242.577 757.055,-252.842 764.028,-252.236"/>
</g>
<!-- Node16 -->
<g id="node16" class="node"><title>Node16</title>
<g id="a_node16"><a xlink:href="../../d0/d45/poly__interp_8hpp.html" target="_top" xlink:title="include/pfasst/encap\l/poly_interp.hpp">
<polygon fill="white" stroke="black" points="430.5,-145.5 430.5,-175.5 539.5,-175.5 539.5,-145.5 430.5,-145.5"/>
<text text-anchor="start" x="438.5" y="-163.5" font-family="Helvetica,sans-Serif" font-size="10.00">include/pfasst/encap</text>
<text text-anchor="middle" x="485" y="-152.5" font-family="Helvetica,sans-Serif" font-size="10.00">/poly_interp.hpp</text>
</a>
</g>
</g>
<!-- Node15&#45;&gt;Node16 -->
<g id="edge18" class="edge"><title>Node15&#45;&gt;Node16</title>
<path fill="none" stroke="midnightblue" d="M478.455,-202.403C478.005,-193.37 478.296,-183.408 479.325,-175.577"/>
<polygon fill="midnightblue" stroke="midnightblue" points="474.97,-202.736 479.322,-212.396 481.944,-202.131 474.97,-202.736"/>
</g>
<!-- Node16&#45;&gt;Node15 -->
<g id="edge19" class="edge"><title>Node16&#45;&gt;Node15</title>
<path fill="none" stroke="midnightblue" d="M491.544,-185.565C491.995,-194.596 491.706,-204.56 490.678,-212.396"/>
<polygon fill="midnightblue" stroke="midnightblue" points="495.028,-185.236 490.675,-175.577 488.055,-185.842 495.028,-185.236"/>
</g>
<!-- Node17 -->
<g id="node17" class="node"><title>Node17</title>
<g id="a_node17"><a xlink:href="../../d0/dbe/spectral__transfer__1d_8hpp.html" target="_top" xlink:title="examples/advection\l_diffusion/spectral\l_transfer_1d.hpp">
<polygon fill="white" stroke="black" points="433,-67.5 433,-108.5 541,-108.5 541,-67.5 433,-67.5"/>
<text text-anchor="start" x="441" y="-96.5" font-family="Helvetica,sans-Serif" font-size="10.00">examples/advection</text>
<text text-anchor="start" x="441" y="-85.5" font-family="Helvetica,sans-Serif" font-size="10.00">_diffusion/spectral</text>
<text text-anchor="middle" x="487" y="-74.5" font-family="Helvetica,sans-Serif" font-size="10.00">_transfer_1d.hpp</text>
</a>
</g>
</g>
<!-- Node16&#45;&gt;Node17 -->
<g id="edge20" class="edge"><title>Node16&#45;&gt;Node17</title>
<path fill="none" stroke="midnightblue" d="M485.696,-134.982C485.941,-126.347 486.212,-116.762 486.444,-108.588"/>
<polygon fill="midnightblue" stroke="midnightblue" points="482.19,-135.138 485.405,-145.233 489.187,-135.337 482.19,-135.138"/>
</g>
<!-- Node17&#45;&gt;Node5 -->
<g id="edge21" class="edge"><title>Node17&#45;&gt;Node5</title>
<path fill="none" stroke="midnightblue" d="M440.592,-62.5841C420.336,-51.9266 397.297,-39.8055 379.933,-30.67"/>
<polygon fill="midnightblue" stroke="midnightblue" points="439.194,-65.8031 449.674,-67.3618 442.453,-59.6082 439.194,-65.8031"/>
</g>
<!-- Node17&#45;&gt;Node6 -->
<g id="edge22" class="edge"><title>Node17&#45;&gt;Node6</title>
<path fill="none" stroke="midnightblue" d="M493.723,-57.3757C495.802,-48.214 498,-38.5319 499.734,-30.8916"/>
<polygon fill="midnightblue" stroke="midnightblue" points="490.257,-56.8352 491.457,-67.3618 497.083,-58.3845 490.257,-56.8352"/>
</g>
<!-- Node19 -->
<g id="node19" class="node"><title>Node19</title>
<g id="a_node19"><a xlink:href="../../d7/d31/boris__mlsdc_8cpp.html" target="_top" xlink:title="examples/boris/boris\l_mlsdc.cpp">
<polygon fill="white" stroke="black" points="872,-73 872,-103 982,-103 982,-73 872,-73"/>
<text text-anchor="start" x="880" y="-91" font-family="Helvetica,sans-Serif" font-size="10.00">examples/boris/boris</text>
<text text-anchor="middle" x="927" y="-80" font-family="Helvetica,sans-Serif" font-size="10.00">_mlsdc.cpp</text>
</a>
</g>
</g>
<!-- Node18&#45;&gt;Node19 -->
<g id="edge24" class="edge"><title>Node18&#45;&gt;Node19</title>
<path fill="none" stroke="midnightblue" d="M989.5,-218.667C937.744,-210.971 871.556,-197.256 855,-176 834.64,-149.86 872.539,-120.318 900.651,-103.257"/>
<polygon fill="midnightblue" stroke="midnightblue" points="989.244,-222.166 999.64,-220.126 990.241,-215.237 989.244,-222.166"/>
</g>
<!-- Node18&#45;&gt;Node20 -->
<g id="edge25" class="edge"><title>Node18&#45;&gt;Node20</title>
<path fill="none" stroke="midnightblue" d="M1096.6,-208.682C1123.51,-198.257 1158.39,-185.281 1185.64,-175.577"/>
<polygon fill="midnightblue" stroke="midnightblue" points="1095.12,-205.502 1087.08,-212.396 1097.67,-212.024 1095.12,-205.502"/>
</g>
<!-- Node21 -->
<g id="node21" class="node"><title>Node21</title>
<g id="a_node21"><a xlink:href="../../d2/dc5/injective__transfer_8hpp.html" target="_top" xlink:title="examples/boris/injective\l_transfer.hpp">
<polygon fill="white" stroke="black" points="992.5,-145.5 992.5,-175.5 1117.5,-175.5 1117.5,-145.5 992.5,-145.5"/>
<text text-anchor="start" x="1000.5" y="-163.5" font-family="Helvetica,sans-Serif" font-size="10.00">examples/boris/injective</text>
<text text-anchor="middle" x="1055" y="-152.5" font-family="Helvetica,sans-Serif" font-size="10.00">_transfer.hpp</text>
</a>
</g>
</g>
<!-- Node18&#45;&gt;Node21 -->
<g id="edge27" class="edge"><title>Node18&#45;&gt;Node21</title>
<path fill="none" stroke="midnightblue" d="M1055,-202.108C1055,-193.154 1055,-183.323 1055,-175.577"/>
<polygon fill="midnightblue" stroke="midnightblue" points="1051.5,-202.396 1055,-212.396 1058.5,-202.396 1051.5,-202.396"/>
</g>
<!-- Node22 -->
<g id="node22" class="node"><title>Node22</title>
<g id="a_node22"><a xlink:href="../../d2/d1e/boris__pfasst_8cpp.html" target="_top" xlink:title="examples/boris/boris\l_pfasst.cpp">
<polygon fill="white" stroke="black" points="1045,-73 1045,-103 1155,-103 1155,-73 1045,-73"/>
<text text-anchor="start" x="1053" y="-91" font-family="Helvetica,sans-Serif" font-size="10.00">examples/boris/boris</text>
<text text-anchor="middle" x="1100" y="-80" font-family="Helvetica,sans-Serif" font-size="10.00">_pfasst.cpp</text>
</a>
</g>
</g>
<!-- Node18&#45;&gt;Node22 -->
<g id="edge30" class="edge"><title>Node18&#45;&gt;Node22</title>
<path fill="none" stroke="midnightblue" d="M1095.82,-207.042C1107.75,-199.181 1119.36,-188.873 1126,-176 1138.43,-151.903 1122.42,-120.913 1110.58,-103.171"/>
<polygon fill="midnightblue" stroke="midnightblue" points="1093.86,-204.14 1087.15,-212.336 1097.51,-210.115 1093.86,-204.14"/>
</g>
<!-- Node23 -->
<g id="node23" class="node"><title>Node23</title>
<g id="a_node23"><a xlink:href="../../d3/d93/boris__sdc_8cpp.html" target="_top" xlink:title="examples/boris/boris\l_sdc.cpp">
<polygon fill="white" stroke="black" points="864,-145.5 864,-175.5 974,-175.5 974,-145.5 864,-145.5"/>
<text text-anchor="start" x="872" y="-163.5" font-family="Helvetica,sans-Serif" font-size="10.00">examples/boris/boris</text>
<text text-anchor="middle" x="919" y="-152.5" font-family="Helvetica,sans-Serif" font-size="10.00">_sdc.cpp</text>
</a>
</g>
</g>
<!-- Node18&#45;&gt;Node23 -->
<g id="edge31" class="edge"><title>Node18&#45;&gt;Node23</title>
<path fill="none" stroke="midnightblue" d="M1016.28,-207.992C994.719,-197.689 968.311,-185.068 948.452,-175.577"/>
<polygon fill="midnightblue" stroke="midnightblue" points="1014.96,-211.242 1025.49,-212.396 1017.98,-204.926 1014.96,-211.242"/>
</g>
<!-- Node20&#45;&gt;Node18 -->
<g id="edge26" class="edge"><title>Node20&#45;&gt;Node18</title>
<path fill="none" stroke="midnightblue" d="M1187.47,-179.289C1160.58,-189.709 1125.7,-202.686 1098.43,-212.396"/>
<polygon fill="midnightblue" stroke="midnightblue" points="1188.95,-182.471 1196.99,-175.577 1186.4,-175.949 1188.95,-182.471"/>
</g>
<!-- Node21&#45;&gt;Node19 -->
<g id="edge28" class="edge"><title>Node21&#45;&gt;Node19</title>
<path fill="none" stroke="midnightblue" d="M1020.61,-140.558C999.181,-128.756 972.073,-113.826 952.551,-103.073"/>
<polygon fill="midnightblue" stroke="midnightblue" points="1018.96,-143.644 1029.4,-145.403 1022.33,-137.512 1018.96,-143.644"/>
</g>
<!-- Node21&#45;&gt;Node22 -->
<g id="edge29" class="edge"><title>Node21&#45;&gt;Node22</title>
<path fill="none" stroke="midnightblue" d="M1069.64,-136.557C1076.65,-125.586 1084.81,-112.797 1090.91,-103.246"/>
<polygon fill="midnightblue" stroke="midnightblue" points="1066.54,-134.921 1064.11,-145.233 1072.44,-138.687 1066.54,-134.921"/>
</g>
</g>
</svg>
