<?xml version="1.0" encoding="UTF-8" standalone="no"?>
<!DOCTYPE svg PUBLIC "-//W3C//DTD SVG 1.1//EN"
 "http://www.w3.org/Graphics/SVG/1.1/DTD/svg11.dtd">
<!-- Generated by graphviz version 2.38.0 (20140413.2041)
 -->
<!-- Title: pfasst::examples::advection_diffusion::run_vanilla_sdc Pages: 1 -->
<svg width="294pt" height="274pt"
 viewBox="0.00 0.00 294.00 274.00" xmlns="http://www.w3.org/2000/svg" xmlns:xlink="http://www.w3.org/1999/xlink">
<g id="graph0" class="graph" transform="scale(1 1) rotate(0) translate(4 270)">
<title>pfasst::examples::advection_diffusion::run_vanilla_sdc</title>
<polygon fill="white" stroke="none" points="-4,4 -4,-270 290,-270 290,4 -4,4"/>
<!-- Node1 -->
<g id="node1" class="node"><title>Node1</title>
<polygon fill="#bfbfbf" stroke="black" points="0,-120.5 0,-150.5 143,-150.5 143,-120.5 0,-120.5"/>
<text text-anchor="start" x="8" y="-138.5" font-family="Helvetica,sans-Serif" font-size="10.00">pfasst::examples::advection</text>
<text text-anchor="middle" x="71.5" y="-127.5" font-family="Helvetica,sans-Serif" font-size="10.00">_diffusion::run_vanilla_sdc</text>
</g>
<!-- Node2 -->
<g id="node2" class="node"><title>Node2</title>
<g id="a_node2"><a xlink:href="../../d4/da9/classpfasst_1_1Controller.html#a8f4f8f025572e57fc5975902a4118fa9" target="_top" xlink:title="Adding a level to the controller. ">
<polygon fill="white" stroke="black" points="186.5,-235.5 186.5,-265.5 278.5,-265.5 278.5,-235.5 186.5,-235.5"/>
<text text-anchor="start" x="194.5" y="-253.5" font-family="Helvetica,sans-Serif" font-size="10.00">pfasst::Controller</text>
<text text-anchor="middle" x="232.5" y="-242.5" font-family="Helvetica,sans-Serif" font-size="10.00">::add_level</text>
</a>
</g>
</g>
<!-- Node1&#45;&gt;Node2 -->
<g id="edge1" class="edge"><title>Node1&#45;&gt;Node2</title>
<path fill="none" stroke="midnightblue" d="M87.3003,-150.523C106.946,-169.879 143.326,-203.738 179,-226.5 181.181,-227.891 183.456,-229.246 185.783,-230.558"/>
<polygon fill="midnightblue" stroke="midnightblue" points="184.458,-233.816 194.936,-235.387 187.725,-227.625 184.458,-233.816"/>
</g>
<!-- Node3 -->
<g id="node3" class="node"><title>Node3</title>
<g id="a_node3"><a xlink:href="../../de/d84/namespacepfasst_1_1quadrature.html#ac4700c0b6dc90b32b3f8af4070d0e62d" target="_top" xlink:title="Instantiates quadrature handler for given number of nodes and type descriptor. ">
<polygon fill="white" stroke="black" points="179,-186.5 179,-216.5 286,-216.5 286,-186.5 179,-186.5"/>
<text text-anchor="start" x="187" y="-204.5" font-family="Helvetica,sans-Serif" font-size="10.00">pfasst::quadrature</text>
<text text-anchor="middle" x="232.5" y="-193.5" font-family="Helvetica,sans-Serif" font-size="10.00">::quadrature_factory</text>
</a>
</g>
</g>
<!-- Node1&#45;&gt;Node3 -->
<g id="edge2" class="edge"><title>Node1&#45;&gt;Node3</title>
<path fill="none" stroke="midnightblue" d="M108.978,-150.642C131.803,-160.116 161.399,-172.401 185.784,-182.524"/>
<polygon fill="midnightblue" stroke="midnightblue" points="184.614,-185.827 195.192,-186.429 187.298,-179.362 184.614,-185.827"/>
</g>
<!-- Node4 -->
<g id="node4" class="node"><title>Node4</title>
<g id="a_node4"><a xlink:href="../../db/d4c/classpfasst_1_1SDC.html#abaf353cbe65d6c3545cbd5f4540cb74b" target="_top" xlink:title="Run vanilla SDC. ">
<polygon fill="white" stroke="black" points="187.5,-148 187.5,-167 277.5,-167 277.5,-148 187.5,-148"/>
<text text-anchor="middle" x="232.5" y="-155" font-family="Helvetica,sans-Serif" font-size="10.00">pfasst::SDC::run</text>
</a>
</g>
</g>
<!-- Node1&#45;&gt;Node4 -->
<g id="edge3" class="edge"><title>Node1&#45;&gt;Node4</title>
<path fill="none" stroke="midnightblue" d="M143.166,-145.278C154.479,-146.843 166.034,-148.442 176.899,-149.945"/>
<polygon fill="midnightblue" stroke="midnightblue" points="176.689,-153.449 187.074,-151.353 177.648,-146.515 176.689,-153.449"/>
</g>
<!-- Node5 -->
<g id="node5" class="node"><title>Node5</title>
<g id="a_node5"><a xlink:href="../../d4/da9/classpfasst_1_1Controller.html#af31a86d9ccd9db325532c5ae3a5764f0" target="_top" xlink:title="Set basic time scope of the Controller. ">
<polygon fill="white" stroke="black" points="186.5,-98.5 186.5,-128.5 278.5,-128.5 278.5,-98.5 186.5,-98.5"/>
<text text-anchor="start" x="194.5" y="-116.5" font-family="Helvetica,sans-Serif" font-size="10.00">pfasst::Controller</text>
<text text-anchor="middle" x="232.5" y="-105.5" font-family="Helvetica,sans-Serif" font-size="10.00">::set_duration</text>
</a>
</g>
</g>
<!-- Node1&#45;&gt;Node5 -->
<g id="edge4" class="edge"><title>Node1&#45;&gt;Node5</title>
<path fill="none" stroke="midnightblue" d="M143.166,-125.722C154.228,-124.192 165.521,-122.629 176.174,-121.155"/>
<polygon fill="midnightblue" stroke="midnightblue" points="176.737,-124.611 186.163,-119.773 175.778,-117.677 176.737,-124.611"/>
</g>
<!-- Node6 -->
<g id="node6" class="node"><title>Node6</title>
<g id="a_node6"><a xlink:href="../../d4/da9/classpfasst_1_1Controller.html#a6dba360b0794fb0cdde418d3ab1a160d" target="_top" xlink:title="Set options from command line etc. ">
<polygon fill="white" stroke="black" points="186.5,-49.5 186.5,-79.5 278.5,-79.5 278.5,-49.5 186.5,-49.5"/>
<text text-anchor="start" x="194.5" y="-67.5" font-family="Helvetica,sans-Serif" font-size="10.00">pfasst::Controller</text>
<text text-anchor="middle" x="232.5" y="-56.5" font-family="Helvetica,sans-Serif" font-size="10.00">::set_options</text>
</a>
</g>
</g>
<!-- Node1&#45;&gt;Node6 -->
<g id="edge5" class="edge"><title>Node1&#45;&gt;Node6</title>
<path fill="none" stroke="midnightblue" d="M106.22,-120.443C130.251,-109.712 162.749,-95.2 188.624,-83.646"/>
<polygon fill="midnightblue" stroke="midnightblue" points="190.125,-86.8088 197.829,-79.5356 187.271,-80.4171 190.125,-86.8088"/>
</g>
<!-- Node7 -->
<g id="node7" class="node"><title>Node7</title>
<g id="a_node7"><a xlink:href="../../d4/da9/classpfasst_1_1Controller.html#a83d8b318cd15436d5910039313daab9f" target="_top" xlink:title="Basic setup routine for this controller. ">
<polygon fill="white" stroke="black" points="186.5,-0.5 186.5,-30.5 278.5,-30.5 278.5,-0.5 186.5,-0.5"/>
<text text-anchor="start" x="194.5" y="-18.5" font-family="Helvetica,sans-Serif" font-size="10.00">pfasst::Controller</text>
<text text-anchor="middle" x="232.5" y="-7.5" font-family="Helvetica,sans-Serif" font-size="10.00">::setup</text>
</a>
</g>
</g>
<!-- Node1&#45;&gt;Node7 -->
<g id="edge6" class="edge"><title>Node1&#45;&gt;Node7</title>
<path fill="none" stroke="midnightblue" d="M86.8921,-120.193C106.378,-100.077 142.885,-64.4937 179,-40.5 181.691,-38.7124 184.529,-36.981 187.436,-35.3198"/>
<polygon fill="midnightblue" stroke="midnightblue" points="189.136,-38.38 196.285,-30.5605 185.82,-32.2152 189.136,-38.38"/>
</g>
</g>
</svg>
