<?xml version="1.0" encoding="UTF-8" standalone="no"?>
<!DOCTYPE svg PUBLIC "-//W3C//DTD SVG 1.1//EN"
 "http://www.w3.org/Graphics/SVG/1.1/DTD/svg11.dtd">
<!-- Generated by graphviz version 2.38.0 (20140413.2041)
 -->
<!-- Title: pfasst::examples::advection_diffusion::run_mpi_pfasst Pages: 1 -->
<!--zoomable 459 -->
<svg id="main" version="1.1" xmlns="http://www.w3.org/2000/svg" xmlns:xlink="http://www.w3.org/1999/xlink" xml:space="preserve" onload="init(evt)">
<style type="text/css"><![CDATA[
.edge:hover path { stroke: red; }
.edge:hover polygon { stroke: red; fill: red; }
]]></style>
<script type="text/javascript"><![CDATA[
var edges = document.getElementsByTagName('g');
if (edges && edges.length) {
  for (var i=0;i<edges.length;i++) {
    if (edges[i].id.substr(0,4)=='edge') {
      edges[i].setAttribute('class','edge');
    }
  }
}
]]></script>
        <defs>
                <circle id="rim" cx="0" cy="0" r="7"/>
                <circle id="rim2" cx="0" cy="0" r="3.5"/>
                <g id="zoomPlus">
                        <use xlink:href="#rim" fill="#404040">
                                <set attributeName="fill" to="#808080" begin="zoomplus.mouseover" end="zoomplus.mouseout"/>
                        </use>
                        <path d="M-4,0h8M0,-4v8" fill="none" stroke="white" stroke-width="1.5" pointer-events="none"/>
                </g>
                <g id="zoomMin">
                        <use xlink:href="#rim" fill="#404040">
                                <set attributeName="fill" to="#808080" begin="zoomminus.mouseover" end="zoomminus.mouseout"/>
                        </use>
                        <path d="M-4,0h8" fill="none" stroke="white" stroke-width="1.5" pointer-events="none"/>
                </g>
                <g id="dirArrow">
                        <path fill="none" stroke="white" stroke-width="1.5" d="M0,-3.0v7 M-2.5,-0.5L0,-3.0L2.5,-0.5"/>
                </g>
               <g id="resetDef">
                       <use xlink:href="#rim2" fill="#404040">
                               <set attributeName="fill" to="#808080" begin="reset.mouseover" end="reset.mouseout"/>
                       </use>
               </g>
        </defs>

<script type="text/javascript">
var viewWidth = 515;
var viewHeight = 459;
var sectionId = 'dynsection-1';
</script>
<script xlink:href="../../svgpan.js"/>
<svg id="graph" class="graph">
<g id="viewport">
<title>pfasst::examples::advection_diffusion::run_mpi_pfasst</title>
<polygon fill="white" stroke="none" points="-4,4 -4,-454.5 511,-454.5 511,4 -4,4"/>
<!-- Node1 -->
<g id="node1" class="node"><title>Node1</title>
<polygon fill="#bfbfbf" stroke="black" points="0,-200 0,-230 143,-230 143,-200 0,-200"/>
<text text-anchor="start" x="8" y="-218" font-family="Helvetica,sans-Serif" font-size="10.00">pfasst::examples::advection</text>
<text text-anchor="middle" x="71.5" y="-207" font-family="Helvetica,sans-Serif" font-size="10.00">_diffusion::run_mpi_pfasst</text>
</g>
<!-- Node2 -->
<g id="node2" class="node"><title>Node2</title>
<g id="a_node2"><a xlink:href="../../d4/da9/classpfasst_1_1Controller.html#a8f4f8f025572e57fc5975902a4118fa9" target="_top" xlink:title="Adding a level to the controller. ">
<polygon fill="white" stroke="black" points="227,-420 227,-450 319,-450 319,-420 227,-420"/>
<text text-anchor="start" x="235" y="-438" font-family="Helvetica,sans-Serif" font-size="10.00">pfasst::Controller</text>
<text text-anchor="middle" x="273" y="-427" font-family="Helvetica,sans-Serif" font-size="10.00">::add_level</text>
</a>
</g>
</g>
<!-- Node1&#45;&gt;Node2 -->
<g id="edge1" class="edge"><title>Node1&#45;&gt;Node2</title>
<path fill="none" stroke="midnightblue" d="M76.262,-230.23C86.2227,-267.258 116.878,-362.506 179,-411 189.789,-419.422 203.219,-424.91 216.488,-428.481"/>
<polygon fill="midnightblue" stroke="midnightblue" points="216.022,-431.966 226.558,-430.854 217.627,-425.153 216.022,-431.966"/>
</g>
<!-- Node3 -->
<g id="node3" class="node"><title>Node3</title>
<g id="a_node3"><a xlink:href="../../d2/dfe/classpfasst_1_1examples_1_1advection__diffusion_1_1AdvectionDiffusionSweeper.html#a7a3337385f19d68dda91c3d9c5d068a3" target="_top" xlink:title="pfasst::examples::advection\l_diffusion::AdvectionDiffusionSweeper\l::get_errors">
<polygon fill="white" stroke="black" points="179,-360.5 179,-401.5 367,-401.5 367,-360.5 179,-360.5"/>
<text text-anchor="start" x="187" y="-389.5" font-family="Helvetica,sans-Serif" font-size="10.00">pfasst::examples::advection</text>
<text text-anchor="start" x="187" y="-378.5" font-family="Helvetica,sans-Serif" font-size="10.00">_diffusion::AdvectionDiffusionSweeper</text>
<text text-anchor="middle" x="273" y="-367.5" font-family="Helvetica,sans-Serif" font-size="10.00">::get_errors</text>
</a>
</g>
</g>
<!-- Node1&#45;&gt;Node3 -->
<g id="edge2" class="edge"><title>Node1&#45;&gt;Node3</title>
<path fill="none" stroke="midnightblue" d="M80.2273,-230.228C95.3249,-258.461 131.462,-319.048 179,-352 180.668,-353.156 182.384,-354.268 184.14,-355.336"/>
<polygon fill="midnightblue" stroke="midnightblue" points="182.764,-358.574 193.212,-360.328 186.138,-352.441 182.764,-358.574"/>
</g>
<!-- Node4 -->
<g id="node4" class="node"><title>Node4</title>
<g id="a_node4"><a xlink:href="../../d4/da9/classpfasst_1_1Controller.html#a842fcbd63bdcf3a38b562ef0200bf42c" target="_top" xlink:title="Get coarsest level. ">
<polygon fill="white" stroke="black" points="227,-312 227,-342 319,-342 319,-312 227,-312"/>
<text text-anchor="start" x="235" y="-330" font-family="Helvetica,sans-Serif" font-size="10.00">pfasst::Controller</text>
<text text-anchor="middle" x="273" y="-319" font-family="Helvetica,sans-Serif" font-size="10.00">::get_finest</text>
</a>
</g>
</g>
<!-- Node1&#45;&gt;Node4 -->
<g id="edge3" class="edge"><title>Node1&#45;&gt;Node4</title>
<path fill="none" stroke="midnightblue" d="M86.5086,-230.128C105.57,-249.811 141.607,-283.932 179,-303 190.604,-308.917 203.786,-313.458 216.502,-316.911"/>
<polygon fill="midnightblue" stroke="midnightblue" points="216.009,-320.397 226.561,-319.453 217.724,-313.61 216.009,-320.397"/>
</g>
<!-- Node5 -->
<g id="node5" class="node"><title>Node5</title>
<g id="a_node5"><a xlink:href="../../de/d84/namespacepfasst_1_1quadrature.html#ac4700c0b6dc90b32b3f8af4070d0e62d" target="_top" xlink:title="Instantiates quadrature handler for given number of nodes and type descriptor. ">
<polygon fill="white" stroke="black" points="219.5,-263 219.5,-293 326.5,-293 326.5,-263 219.5,-263"/>
<text text-anchor="start" x="227.5" y="-281" font-family="Helvetica,sans-Serif" font-size="10.00">pfasst::quadrature</text>
<text text-anchor="middle" x="273" y="-270" font-family="Helvetica,sans-Serif" font-size="10.00">::quadrature_factory</text>
</a>
</g>
</g>
<!-- Node1&#45;&gt;Node5 -->
<g id="edge4" class="edge"><title>Node1&#45;&gt;Node5</title>
<path fill="none" stroke="midnightblue" d="M112.198,-230.018C132.12,-237.336 156.701,-246.037 179,-253 188.796,-256.059 199.241,-259.088 209.461,-261.926"/>
<polygon fill="midnightblue" stroke="midnightblue" points="208.592,-265.317 219.162,-264.584 210.442,-258.566 208.592,-265.317"/>
</g>
<!-- Node6 -->
<g id="node6" class="node"><title>Node6</title>
<g id="a_node6"><a xlink:href="../../d4/deb/classpfasst_1_1PFASST.html#aa3303053b9e0a111a2161eb9642538d7" target="_top" xlink:title="Solve ODE using PFASST. ">
<polygon fill="white" stroke="black" points="218.5,-224.5 218.5,-243.5 327.5,-243.5 327.5,-224.5 218.5,-224.5"/>
<text text-anchor="middle" x="273" y="-231.5" font-family="Helvetica,sans-Serif" font-size="10.00">pfasst::PFASST::run</text>
</a>
</g>
</g>
<!-- Node1&#45;&gt;Node6 -->
<g id="edge5" class="edge"><title>Node1&#45;&gt;Node6</title>
<path fill="none" stroke="midnightblue" d="M143.117,-221.725C164.405,-223.753 187.634,-225.965 208.435,-227.946"/>
<polygon fill="midnightblue" stroke="midnightblue" points="208.145,-231.434 218.432,-228.898 208.809,-224.466 208.145,-231.434"/>
</g>
<!-- Node8 -->
<g id="node8" class="node"><title>Node8</title>
<g id="a_node8"><a xlink:href="../../d4/deb/classpfasst_1_1PFASST.html#afed61a9d76fd45681fdd3aea0e14f078" target="_top" xlink:title="Set communicator. ">
<polygon fill="white" stroke="black" points="202,-186.5 202,-205.5 344,-205.5 344,-186.5 202,-186.5"/>
<text text-anchor="middle" x="273" y="-193.5" font-family="Helvetica,sans-Serif" font-size="10.00">pfasst::PFASST::set_comm</text>
</a>
</g>
</g>
<!-- Node1&#45;&gt;Node8 -->
<g id="edge7" class="edge"><title>Node1&#45;&gt;Node8</title>
<path fill="none" stroke="midnightblue" d="M143.117,-208.275C158.748,-206.786 175.426,-205.198 191.42,-203.674"/>
<polygon fill="midnightblue" stroke="midnightblue" points="192.191,-207.117 201.814,-202.684 191.527,-200.148 192.191,-207.117"/>
</g>
<!-- Node9 -->
<g id="node9" class="node"><title>Node9</title>
<g id="a_node9"><a xlink:href="../../d4/da9/classpfasst_1_1Controller.html#af31a86d9ccd9db325532c5ae3a5764f0" target="_top" xlink:title="Set basic time scope of the Controller. ">
<polygon fill="white" stroke="black" points="227,-137 227,-167 319,-167 319,-137 227,-137"/>
<text text-anchor="start" x="235" y="-155" font-family="Helvetica,sans-Serif" font-size="10.00">pfasst::Controller</text>
<text text-anchor="middle" x="273" y="-144" font-family="Helvetica,sans-Serif" font-size="10.00">::set_duration</text>
</a>
</g>
</g>
<!-- Node1&#45;&gt;Node9 -->
<g id="edge8" class="edge"><title>Node1&#45;&gt;Node9</title>
<path fill="none" stroke="midnightblue" d="M112.198,-199.982C132.12,-192.664 156.701,-183.963 179,-177 191.215,-173.186 204.439,-169.418 216.977,-166.009"/>
<polygon fill="midnightblue" stroke="midnightblue" points="218.102,-169.331 226.853,-163.358 216.287,-162.57 218.102,-169.331"/>
</g>
<!-- Node10 -->
<g id="node10" class="node"><title>Node10</title>
<g id="a_node10"><a xlink:href="../../db/d56/classpfasst_1_1MLSDC.html#a2d2860bb1b993f01606de186e6455458" target="_top" xlink:title="Set desired number of sweeps for each level independently. ">
<polygon fill="white" stroke="black" points="221,-88 221,-118 325,-118 325,-88 221,-88"/>
<text text-anchor="start" x="229" y="-106" font-family="Helvetica,sans-Serif" font-size="10.00">pfasst::MLSDC::set</text>
<text text-anchor="middle" x="273" y="-95" font-family="Helvetica,sans-Serif" font-size="10.00">_nsweeps</text>
</a>
</g>
</g>
<!-- Node1&#45;&gt;Node10 -->
<g id="edge9" class="edge"><title>Node1&#45;&gt;Node10</title>
<path fill="none" stroke="midnightblue" d="M86.9025,-199.774C106.118,-180.334 142.034,-146.954 179,-128 189.011,-122.867 200.184,-118.705 211.218,-115.359"/>
<polygon fill="midnightblue" stroke="midnightblue" points="212.182,-118.723 220.845,-112.624 210.269,-111.99 212.182,-118.723"/>
</g>
<!-- Node11 -->
<g id="node11" class="node"><title>Node11</title>
<g id="a_node11"><a xlink:href="../../d4/da9/classpfasst_1_1Controller.html#a6dba360b0794fb0cdde418d3ab1a160d" target="_top" xlink:title="Set options from command line etc. ">
<polygon fill="white" stroke="black" points="227,-39 227,-69 319,-69 319,-39 227,-39"/>
<text text-anchor="start" x="235" y="-57" font-family="Helvetica,sans-Serif" font-size="10.00">pfasst::Controller</text>
<text text-anchor="middle" x="273" y="-46" font-family="Helvetica,sans-Serif" font-size="10.00">::set_options</text>
</a>
</g>
</g>
<!-- Node1&#45;&gt;Node11 -->
<g id="edge10" class="edge"><title>Node1&#45;&gt;Node11</title>
<path fill="none" stroke="midnightblue" d="M80.137,-199.707C95.0841,-171.386 130.981,-110.773 179,-79 190.333,-71.5012 203.845,-66.244 217.009,-62.5609"/>
<polygon fill="midnightblue" stroke="midnightblue" points="218.132,-65.8873 226.967,-60.0402 216.414,-59.1014 218.132,-65.8873"/>
</g>
<!-- Node12 -->
<g id="node12" class="node"><title>Node12</title>
<g id="a_node12"><a xlink:href="../../db/d56/classpfasst_1_1MLSDC.html#ac6e9d00fcb9b7363239e98c3798a3025" target="_top" xlink:title="Basic setup routine for this controller. ">
<polygon fill="white" stroke="black" points="216,-0.5 216,-19.5 330,-19.5 330,-0.5 216,-0.5"/>
<text text-anchor="middle" x="273" y="-7.5" font-family="Helvetica,sans-Serif" font-size="10.00">pfasst::MLSDC::setup</text>
</a>
</g>
</g>
<!-- Node1&#45;&gt;Node12 -->
<g id="edge11" class="edge"><title>Node1&#45;&gt;Node12</title>
<path fill="none" stroke="midnightblue" d="M76.5655,-199.932C87.0196,-164.239 118.367,-74.2216 179,-30 187.006,-24.161 196.368,-19.9605 206.01,-16.951"/>
<polygon fill="midnightblue" stroke="midnightblue" points="206.97,-20.3171 215.706,-14.3221 205.139,-13.561 206.97,-20.3171"/>
</g>
<!-- Node7 -->
<g id="node7" class="node"><title>Node7</title>
<g id="a_node7"><a xlink:href="../../db/d56/classpfasst_1_1MLSDC.html#a698768ef6d03e6432beea8c0c574c05b" target="_top" xlink:title="Solve ODE using MLSDC. ">
<polygon fill="white" stroke="black" points="403,-224.5 403,-243.5 507,-243.5 507,-224.5 403,-224.5"/>
<text text-anchor="middle" x="455" y="-231.5" font-family="Helvetica,sans-Serif" font-size="10.00">pfasst::MLSDC::run</text>
</a>
</g>
</g>
<!-- Node6&#45;&gt;Node7 -->
<g id="edge6" class="edge"><title>Node6&#45;&gt;Node7</title>
<path fill="none" stroke="midnightblue" d="M327.519,-234C348.002,-234 371.52,-234 392.677,-234"/>
<polygon fill="midnightblue" stroke="midnightblue" points="392.85,-237.5 402.85,-234 392.85,-230.5 392.85,-237.5"/>
</g>
</g>
</svg>
        <g id="navigator" transform="translate(0 0)" fill="#404254">
                <rect fill="#f2f5e9" fill-opacity="0.5" stroke="#606060" stroke-width=".5" x="0" y="0" width="60" height="60"/>
                <use id="zoomplus" xlink:href="#zoomPlus" x="17" y="9" onmousedown="handleZoom(evt,'in')"/>
                <use id="zoomminus" xlink:href="#zoomMin" x="42" y="9" onmousedown="handleZoom(evt,'out')"/>
                <use id="reset" xlink:href="#resetDef" x="30" y="36" onmousedown="handleReset()"/>
                <g id="arrowUp" xlink:href="#dirArrow" transform="translate(30 24)" onmousedown="handlePan(0,-1)">
                  <use xlink:href="#rim" fill="#404040">
                        <set attributeName="fill" to="#808080" begin="arrowUp.mouseover" end="arrowUp.mouseout"/>
                  </use>
                  <path fill="none" stroke="white" stroke-width="1.5" d="M0,-3.0v7 M-2.5,-0.5L0,-3.0L2.5,-0.5"/>
                </g>
                <g id="arrowRight" xlink:href="#dirArrow" transform="rotate(90) translate(36 -43)" onmousedown="handlePan(1,0)">
                  <use xlink:href="#rim" fill="#404040">
                        <set attributeName="fill" to="#808080" begin="arrowRight.mouseover" end="arrowRight.mouseout"/>
                  </use>
                  <path fill="none" stroke="white" stroke-width="1.5" d="M0,-3.0v7 M-2.5,-0.5L0,-3.0L2.5,-0.5"/>
                </g>
                <g id="arrowDown" xlink:href="#dirArrow" transform="rotate(180) translate(-30 -48)" onmousedown="handlePan(0,1)">
                  <use xlink:href="#rim" fill="#404040">
                        <set attributeName="fill" to="#808080" begin="arrowDown.mouseover" end="arrowDown.mouseout"/>
                  </use>
                  <path fill="none" stroke="white" stroke-width="1.5" d="M0,-3.0v7 M-2.5,-0.5L0,-3.0L2.5,-0.5"/>
                </g>
                <g id="arrowLeft" xlink:href="#dirArrow" transform="rotate(270) translate(-36 17)" onmousedown="handlePan(-1,0)">
                  <use xlink:href="#rim" fill="#404040">
                        <set attributeName="fill" to="#808080" begin="arrowLeft.mouseover" end="arrowLeft.mouseout"/>
                  </use>
                  <path fill="none" stroke="white" stroke-width="1.5" d="M0,-3.0v7 M-2.5,-0.5L0,-3.0L2.5,-0.5"/>
                </g>
        </g>
        <svg viewBox="0 0 15 15" width="100%" height="30px" preserveAspectRatio="xMaxYMin meet">
         <g id="arrow_out" transform="scale(0.3 0.3)">
          <a xlink:href="group__AdvectionDiffusion_gacf2af7cceb96a5587032bc0e83b93e00_cgraph_org.svg" target="_base">
           <rect id="button" ry="5" rx="5" y="6" x="6" height="38" width="38"
                fill="#f2f5e9" fill-opacity="0.5" stroke="#606060" stroke-width="1.0"/>
           <path id="arrow"
             d="M 11.500037,31.436501 C 11.940474,20.09759 22.043105,11.32322 32.158766,21.979434 L 37.068811,17.246167 C 37.068811,17.246167 37.088388,32 37.088388,32 L 22.160133,31.978069 C 22.160133,31.978069 26.997745,27.140456 26.997745,27.140456 C 18.528582,18.264221 13.291696,25.230495 11.500037,31.436501 z"
             style="fill:#404040;"/>
          </a>
         </g>
        </svg>
</svg>
