<?xml version="1.0" encoding="UTF-8" standalone="no"?>
<!DOCTYPE svg PUBLIC "-//W3C//DTD SVG 1.1//EN"
 "http://www.w3.org/Graphics/SVG/1.1/DTD/svg11.dtd">
<!-- Generated by graphviz version 2.38.0 (20140413.2041)
 -->
<!-- Title: pfasst::examples::advection_diffusion::run_serial_mlsdc Pages: 1 -->
<!--zoomable 578 -->
<svg id="main" version="1.1" xmlns="http://www.w3.org/2000/svg" xmlns:xlink="http://www.w3.org/1999/xlink" xml:space="preserve" onload="init(evt)">
<style type="text/css"><![CDATA[
.edge:hover path { stroke: red; }
.edge:hover polygon { stroke: red; fill: red; }
]]></style>
<script type="text/javascript"><![CDATA[
var edges = document.getElementsByTagName('g');
if (edges && edges.length) {
  for (var i=0;i<edges.length;i++) {
    if (edges[i].id.substr(0,4)=='edge') {
      edges[i].setAttribute('class','edge');
    }
  }
}
]]></script>
        <defs>
                <circle id="rim" cx="0" cy="0" r="7"/>
                <circle id="rim2" cx="0" cy="0" r="3.5"/>
                <g id="zoomPlus">
                        <use xlink:href="#rim" fill="#404040">
                                <set attributeName="fill" to="#808080" begin="zoomplus.mouseover" end="zoomplus.mouseout"/>
                        </use>
                        <path d="M-4,0h8M0,-4v8" fill="none" stroke="white" stroke-width="1.5" pointer-events="none"/>
                </g>
                <g id="zoomMin">
                        <use xlink:href="#rim" fill="#404040">
                                <set attributeName="fill" to="#808080" begin="zoomminus.mouseover" end="zoomminus.mouseout"/>
                        </use>
                        <path d="M-4,0h8" fill="none" stroke="white" stroke-width="1.5" pointer-events="none"/>
                </g>
                <g id="dirArrow">
                        <path fill="none" stroke="white" stroke-width="1.5" d="M0,-3.0v7 M-2.5,-0.5L0,-3.0L2.5,-0.5"/>
                </g>
               <g id="resetDef">
                       <use xlink:href="#rim2" fill="#404040">
                               <set attributeName="fill" to="#808080" begin="reset.mouseover" end="reset.mouseout"/>
                       </use>
               </g>
        </defs>

<script type="text/javascript">
var viewWidth = 375;
var viewHeight = 578;
var sectionId = 'dynsection-3';
</script>
<script xlink:href="../../svgpan.js"/>
<svg id="graph" class="graph">
<g id="viewport">
<title>pfasst::examples::advection_diffusion::run_serial_mlsdc</title>
<polygon fill="white" stroke="none" points="-4,4 -4,-573.5 371,-573.5 371,4 -4,4"/>
<!-- Node1 -->
<g id="node1" class="node"><title>Node1</title>
<polygon fill="#bfbfbf" stroke="black" points="0,-252 0,-282 143,-282 143,-252 0,-252"/>
<text text-anchor="start" x="8" y="-270" font-family="Helvetica,sans-Serif" font-size="10.00">pfasst::examples::advection</text>
<text text-anchor="middle" x="71.5" y="-259" font-family="Helvetica,sans-Serif" font-size="10.00">_diffusion::run_serial_mlsdc</text>
</g>
<!-- Node2 -->
<g id="node2" class="node"><title>Node2</title>
<g id="a_node2"><a xlink:href="../../d4/da9/classpfasst_1_1Controller.html#a8f4f8f025572e57fc5975902a4118fa9" target="_top" xlink:title="Adding a level to the controller. ">
<polygon fill="white" stroke="black" points="227,-539 227,-569 319,-569 319,-539 227,-539"/>
<text text-anchor="start" x="235" y="-557" font-family="Helvetica,sans-Serif" font-size="10.00">pfasst::Controller</text>
<text text-anchor="middle" x="273" y="-546" font-family="Helvetica,sans-Serif" font-size="10.00">::add_level</text>
</a>
</g>
</g>
<!-- Node1&#45;&gt;Node2 -->
<g id="edge1" class="edge"><title>Node1&#45;&gt;Node2</title>
<path fill="none" stroke="midnightblue" d="M73.9672,-282.174C79.1613,-327.259 100.808,-461.518 179,-530 189.599,-539.283 203.332,-545.052 216.976,-548.616"/>
<polygon fill="midnightblue" stroke="midnightblue" points="216.324,-552.057 226.849,-550.841 217.863,-545.228 216.324,-552.057"/>
</g>
<!-- Node3 -->
<g id="node3" class="node"><title>Node3</title>
<g id="a_node3"><a xlink:href="../../d4/da9/classpfasst_1_1Controller.html#aa5d33e38181e67d0e57a64f4fb275643" target="_top" xlink:title="Convenience accessor to the coarsest level. ">
<polygon fill="white" stroke="black" points="227,-490 227,-520 319,-520 319,-490 227,-490"/>
<text text-anchor="start" x="235" y="-508" font-family="Helvetica,sans-Serif" font-size="10.00">pfasst::Controller</text>
<text text-anchor="middle" x="273" y="-497" font-family="Helvetica,sans-Serif" font-size="10.00">::coarsest</text>
</a>
</g>
</g>
<!-- Node1&#45;&gt;Node3 -->
<g id="edge2" class="edge"><title>Node1&#45;&gt;Node3</title>
<path fill="none" stroke="midnightblue" d="M75.4985,-282.144C84.0892,-321.412 112.569,-427.193 179,-481 189.844,-489.783 203.537,-495.389 217.057,-498.955"/>
<polygon fill="midnightblue" stroke="midnightblue" points="216.297,-502.372 226.828,-501.208 217.87,-495.551 216.297,-502.372"/>
</g>
<!-- Node4 -->
<g id="node4" class="node"><title>Node4</title>
<g id="a_node4"><a xlink:href="../../d4/da9/classpfasst_1_1Controller.html#a2834ad338a9e1482b74d5d0f01ad4703" target="_top" xlink:title="Convenience accessor to the finest level. ">
<polygon fill="white" stroke="black" points="227,-441 227,-471 319,-471 319,-441 227,-441"/>
<text text-anchor="start" x="235" y="-459" font-family="Helvetica,sans-Serif" font-size="10.00">pfasst::Controller</text>
<text text-anchor="middle" x="273" y="-448" font-family="Helvetica,sans-Serif" font-size="10.00">::finest</text>
</a>
</g>
</g>
<!-- Node1&#45;&gt;Node4 -->
<g id="edge3" class="edge"><title>Node1&#45;&gt;Node4</title>
<path fill="none" stroke="midnightblue" d="M77.9931,-282.488C90.4859,-315.396 124.257,-392.497 179,-432 190.098,-440.009 203.64,-445.349 216.918,-448.909"/>
<polygon fill="midnightblue" stroke="midnightblue" points="216.436,-452.392 226.975,-451.299 218.055,-445.582 216.436,-452.392"/>
</g>
<!-- Node5 -->
<g id="node5" class="node"><title>Node5</title>
<g id="a_node5"><a xlink:href="../../d2/dfe/classpfasst_1_1examples_1_1advection__diffusion_1_1AdvectionDiffusionSweeper.html#a7a3337385f19d68dda91c3d9c5d068a3" target="_top" xlink:title="pfasst::examples::advection\l_diffusion::AdvectionDiffusionSweeper\l::get_errors">
<polygon fill="white" stroke="black" points="179,-381.5 179,-422.5 367,-422.5 367,-381.5 179,-381.5"/>
<text text-anchor="start" x="187" y="-410.5" font-family="Helvetica,sans-Serif" font-size="10.00">pfasst::examples::advection</text>
<text text-anchor="start" x="187" y="-399.5" font-family="Helvetica,sans-Serif" font-size="10.00">_diffusion::AdvectionDiffusionSweeper</text>
<text text-anchor="middle" x="273" y="-388.5" font-family="Helvetica,sans-Serif" font-size="10.00">::get_errors</text>
</a>
</g>
</g>
<!-- Node1&#45;&gt;Node5 -->
<g id="edge4" class="edge"><title>Node1&#45;&gt;Node5</title>
<path fill="none" stroke="midnightblue" d="M83.8602,-282.305C101.666,-305.249 138.343,-348.482 179,-373 181.218,-374.337 183.503,-375.619 185.839,-376.845"/>
<polygon fill="midnightblue" stroke="midnightblue" points="184.547,-380.108 195.073,-381.312 187.595,-373.807 184.547,-380.108"/>
</g>
<!-- Node6 -->
<g id="node6" class="node"><title>Node6</title>
<g id="a_node6"><a xlink:href="../../d4/da9/classpfasst_1_1Controller.html#a842fcbd63bdcf3a38b562ef0200bf42c" target="_top" xlink:title="Get coarsest level. ">
<polygon fill="white" stroke="black" points="227,-333 227,-363 319,-363 319,-333 227,-333"/>
<text text-anchor="start" x="235" y="-351" font-family="Helvetica,sans-Serif" font-size="10.00">pfasst::Controller</text>
<text text-anchor="middle" x="273" y="-340" font-family="Helvetica,sans-Serif" font-size="10.00">::get_finest</text>
</a>
</g>
</g>
<!-- Node1&#45;&gt;Node6 -->
<g id="edge5" class="edge"><title>Node1&#45;&gt;Node6</title>
<path fill="none" stroke="midnightblue" d="M96.6633,-282.092C117.747,-294.727 149.499,-312.49 179,-324 191.012,-328.687 204.253,-332.732 216.885,-336.095"/>
<polygon fill="midnightblue" stroke="midnightblue" points="216.293,-339.557 226.849,-338.646 218.029,-332.775 216.293,-339.557"/>
</g>
<!-- Node7 -->
<g id="node7" class="node"><title>Node7</title>
<g id="a_node7"><a xlink:href="../../d2/dfe/classpfasst_1_1examples_1_1advection__diffusion_1_1AdvectionDiffusionSweeper.html#a7701e8680d88a3e6d153a77db28b53d7" target="_top" xlink:title="pfasst::examples::advection\l_diffusion::AdvectionDiffusionSweeper\l::get_residuals">
<polygon fill="white" stroke="black" points="179,-273.5 179,-314.5 367,-314.5 367,-273.5 179,-273.5"/>
<text text-anchor="start" x="187" y="-302.5" font-family="Helvetica,sans-Serif" font-size="10.00">pfasst::examples::advection</text>
<text text-anchor="start" x="187" y="-291.5" font-family="Helvetica,sans-Serif" font-size="10.00">_diffusion::AdvectionDiffusionSweeper</text>
<text text-anchor="middle" x="273" y="-280.5" font-family="Helvetica,sans-Serif" font-size="10.00">::get_residuals</text>
</a>
</g>
</g>
<!-- Node1&#45;&gt;Node7 -->
<g id="edge6" class="edge"><title>Node1&#45;&gt;Node7</title>
<path fill="none" stroke="midnightblue" d="M143.117,-276.557C151.415,-277.68 160.008,-278.843 168.637,-280.011"/>
<polygon fill="midnightblue" stroke="midnightblue" points="168.389,-283.509 178.768,-281.382 169.328,-276.573 168.389,-283.509"/>
</g>
<!-- Node8 -->
<g id="node8" class="node"><title>Node8</title>
<g id="a_node8"><a xlink:href="../../d7/d9e/classpfasst_1_1encap_1_1EncapSweeper.html#a49173904c7c4b21bdb2b498be46aeeec" target="_top" xlink:title="pfasst::encap::EncapSweeper\l::get_start_state">
<polygon fill="white" stroke="black" points="197.5,-225 197.5,-255 348.5,-255 348.5,-225 197.5,-225"/>
<text text-anchor="start" x="205.5" y="-243" font-family="Helvetica,sans-Serif" font-size="10.00">pfasst::encap::EncapSweeper</text>
<text text-anchor="middle" x="273" y="-232" font-family="Helvetica,sans-Serif" font-size="10.00">::get_start_state</text>
</a>
</g>
</g>
<!-- Node1&#45;&gt;Node8 -->
<g id="edge7" class="edge"><title>Node1&#45;&gt;Node8</title>
<path fill="none" stroke="midnightblue" d="M143.117,-257.443C157.415,-255.508 172.589,-253.454 187.315,-251.461"/>
<polygon fill="midnightblue" stroke="midnightblue" points="187.981,-254.903 197.422,-250.093 187.042,-247.966 187.981,-254.903"/>
</g>
<!-- Node9 -->
<g id="node9" class="node"><title>Node9</title>
<g id="a_node9"><a xlink:href="../../de/d84/namespacepfasst_1_1quadrature.html#ac4700c0b6dc90b32b3f8af4070d0e62d" target="_top" xlink:title="Instantiates quadrature handler for given number of nodes and type descriptor. ">
<polygon fill="white" stroke="black" points="219.5,-176 219.5,-206 326.5,-206 326.5,-176 219.5,-176"/>
<text text-anchor="start" x="227.5" y="-194" font-family="Helvetica,sans-Serif" font-size="10.00">pfasst::quadrature</text>
<text text-anchor="middle" x="273" y="-183" font-family="Helvetica,sans-Serif" font-size="10.00">::quadrature_factory</text>
</a>
</g>
</g>
<!-- Node1&#45;&gt;Node9 -->
<g id="edge8" class="edge"><title>Node1&#45;&gt;Node9</title>
<path fill="none" stroke="midnightblue" d="M100.363,-251.912C121.499,-240.899 151.509,-226.179 179,-216 188.743,-212.393 199.236,-209.063 209.54,-206.09"/>
<polygon fill="midnightblue" stroke="midnightblue" points="210.644,-209.416 219.331,-203.351 208.758,-202.675 210.644,-209.416"/>
</g>
<!-- Node10 -->
<g id="node10" class="node"><title>Node10</title>
<g id="a_node10"><a xlink:href="../../db/d56/classpfasst_1_1MLSDC.html#a698768ef6d03e6432beea8c0c574c05b" target="_top" xlink:title="Solve ODE using MLSDC. ">
<polygon fill="white" stroke="black" points="221,-137.5 221,-156.5 325,-156.5 325,-137.5 221,-137.5"/>
<text text-anchor="middle" x="273" y="-144.5" font-family="Helvetica,sans-Serif" font-size="10.00">pfasst::MLSDC::run</text>
</a>
</g>
</g>
<!-- Node1&#45;&gt;Node10 -->
<g id="edge9" class="edge"><title>Node1&#45;&gt;Node10</title>
<path fill="none" stroke="midnightblue" d="M84.0978,-251.769C101.938,-229.479 138.342,-188.316 179,-167 188.743,-161.892 199.712,-158.088 210.609,-155.256"/>
<polygon fill="midnightblue" stroke="midnightblue" points="211.625,-158.612 220.559,-152.918 210.024,-151.798 211.625,-158.612"/>
</g>
<!-- Node11 -->
<g id="node11" class="node"><title>Node11</title>
<g id="a_node11"><a xlink:href="../../d4/da9/classpfasst_1_1Controller.html#af31a86d9ccd9db325532c5ae3a5764f0" target="_top" xlink:title="Set basic time scope of the Controller. ">
<polygon fill="white" stroke="black" points="227,-88 227,-118 319,-118 319,-88 227,-88"/>
<text text-anchor="start" x="235" y="-106" font-family="Helvetica,sans-Serif" font-size="10.00">pfasst::Controller</text>
<text text-anchor="middle" x="273" y="-95" font-family="Helvetica,sans-Serif" font-size="10.00">::set_duration</text>
</a>
</g>
</g>
<!-- Node1&#45;&gt;Node11 -->
<g id="edge10" class="edge"><title>Node1&#45;&gt;Node11</title>
<path fill="none" stroke="midnightblue" d="M79.8159,-251.818C94.4688,-223.066 130.239,-160.635 179,-128 190.293,-120.441 203.791,-115.162 216.954,-111.477"/>
<polygon fill="midnightblue" stroke="midnightblue" points="218.076,-114.804 226.913,-108.959 216.36,-108.018 218.076,-114.804"/>
</g>
<!-- Node12 -->
<g id="node12" class="node"><title>Node12</title>
<g id="a_node12"><a xlink:href="../../d4/da9/classpfasst_1_1Controller.html#a6dba360b0794fb0cdde418d3ab1a160d" target="_top" xlink:title="Set options from command line etc. ">
<polygon fill="white" stroke="black" points="227,-39 227,-69 319,-69 319,-39 227,-39"/>
<text text-anchor="start" x="235" y="-57" font-family="Helvetica,sans-Serif" font-size="10.00">pfasst::Controller</text>
<text text-anchor="middle" x="273" y="-46" font-family="Helvetica,sans-Serif" font-size="10.00">::set_options</text>
</a>
</g>
</g>
<!-- Node1&#45;&gt;Node12 -->
<g id="edge11" class="edge"><title>Node1&#45;&gt;Node12</title>
<path fill="none" stroke="midnightblue" d="M76.6411,-251.894C87.2607,-216.074 118.944,-125.513 179,-79 189.849,-70.5973 203.302,-65.0128 216.573,-61.3032"/>
<polygon fill="midnightblue" stroke="midnightblue" points="217.771,-64.6125 226.639,-58.8162 216.092,-57.8168 217.771,-64.6125"/>
</g>
<!-- Node13 -->
<g id="node13" class="node"><title>Node13</title>
<g id="a_node13"><a xlink:href="../../db/d56/classpfasst_1_1MLSDC.html#ac6e9d00fcb9b7363239e98c3798a3025" target="_top" xlink:title="Basic setup routine for this controller. ">
<polygon fill="white" stroke="black" points="216,-0.5 216,-19.5 330,-19.5 330,-0.5 216,-0.5"/>
<text text-anchor="middle" x="273" y="-7.5" font-family="Helvetica,sans-Serif" font-size="10.00">pfasst::MLSDC::setup</text>
</a>
</g>
</g>
<!-- Node1&#45;&gt;Node13 -->
<g id="edge12" class="edge"><title>Node1&#45;&gt;Node13</title>
<path fill="none" stroke="midnightblue" d="M74.5391,-251.963C81.1011,-209.736 105.701,-89.2924 179,-30 186.8,-23.6903 196.136,-19.2489 205.838,-16.1445"/>
<polygon fill="midnightblue" stroke="midnightblue" points="206.899,-19.4829 215.62,-13.4661 205.051,-12.7314 206.899,-19.4829"/>
</g>
</g>
</svg>
        <g id="navigator" transform="translate(0 0)" fill="#404254">
                <rect fill="#f2f5e9" fill-opacity="0.5" stroke="#606060" stroke-width=".5" x="0" y="0" width="60" height="60"/>
                <use id="zoomplus" xlink:href="#zoomPlus" x="17" y="9" onmousedown="handleZoom(evt,'in')"/>
                <use id="zoomminus" xlink:href="#zoomMin" x="42" y="9" onmousedown="handleZoom(evt,'out')"/>
                <use id="reset" xlink:href="#resetDef" x="30" y="36" onmousedown="handleReset()"/>
                <g id="arrowUp" xlink:href="#dirArrow" transform="translate(30 24)" onmousedown="handlePan(0,-1)">
                  <use xlink:href="#rim" fill="#404040">
                        <set attributeName="fill" to="#808080" begin="arrowUp.mouseover" end="arrowUp.mouseout"/>
                  </use>
                  <path fill="none" stroke="white" stroke-width="1.5" d="M0,-3.0v7 M-2.5,-0.5L0,-3.0L2.5,-0.5"/>
                </g>
                <g id="arrowRight" xlink:href="#dirArrow" transform="rotate(90) translate(36 -43)" onmousedown="handlePan(1,0)">
                  <use xlink:href="#rim" fill="#404040">
                        <set attributeName="fill" to="#808080" begin="arrowRight.mouseover" end="arrowRight.mouseout"/>
                  </use>
                  <path fill="none" stroke="white" stroke-width="1.5" d="M0,-3.0v7 M-2.5,-0.5L0,-3.0L2.5,-0.5"/>
                </g>
                <g id="arrowDown" xlink:href="#dirArrow" transform="rotate(180) translate(-30 -48)" onmousedown="handlePan(0,1)">
                  <use xlink:href="#rim" fill="#404040">
                        <set attributeName="fill" to="#808080" begin="arrowDown.mouseover" end="arrowDown.mouseout"/>
                  </use>
                  <path fill="none" stroke="white" stroke-width="1.5" d="M0,-3.0v7 M-2.5,-0.5L0,-3.0L2.5,-0.5"/>
                </g>
                <g id="arrowLeft" xlink:href="#dirArrow" transform="rotate(270) translate(-36 17)" onmousedown="handlePan(-1,0)">
                  <use xlink:href="#rim" fill="#404040">
                        <set attributeName="fill" to="#808080" begin="arrowLeft.mouseover" end="arrowLeft.mouseout"/>
                  </use>
                  <path fill="none" stroke="white" stroke-width="1.5" d="M0,-3.0v7 M-2.5,-0.5L0,-3.0L2.5,-0.5"/>
                </g>
        </g>
        <svg viewBox="0 0 15 15" width="100%" height="30px" preserveAspectRatio="xMaxYMin meet">
         <g id="arrow_out" transform="scale(0.3 0.3)">
          <a xlink:href="group__AdvectionDiffusion_ga54ea0f33dff1236bd3d9349a8ea75575_cgraph_org.svg" target="_base">
           <rect id="button" ry="5" rx="5" y="6" x="6" height="38" width="38"
                fill="#f2f5e9" fill-opacity="0.5" stroke="#606060" stroke-width="1.0"/>
           <path id="arrow"
             d="M 11.500037,31.436501 C 11.940474,20.09759 22.043105,11.32322 32.158766,21.979434 L 37.068811,17.246167 C 37.068811,17.246167 37.088388,32 37.088388,32 L 22.160133,31.978069 C 22.160133,31.978069 26.997745,27.140456 26.997745,27.140456 C 18.528582,18.264221 13.291696,25.230495 11.500037,31.436501 z"
             style="fill:#404040;"/>
          </a>
         </g>
        </svg>
</svg>
