<?xml version="1.0" encoding="UTF-8" standalone="no"?>
<!DOCTYPE svg PUBLIC "-//W3C//DTD SVG 1.1//EN"
 "http://www.w3.org/Graphics/SVG/1.1/DTD/svg11.dtd">
<!-- Generated by graphviz version 2.38.0 (20140413.2041)
 -->
<!-- Title: pfasst::examples::advection_diffusion::run_vanilla_sdc Pages: 1 -->
<svg width="231pt" height="66pt"
 viewBox="0.00 0.00 231.00 66.00" xmlns="http://www.w3.org/2000/svg" xmlns:xlink="http://www.w3.org/1999/xlink">
<g id="graph0" class="graph" transform="scale(1 1) rotate(0) translate(4 62)">
<title>pfasst::examples::advection_diffusion::run_vanilla_sdc</title>
<polygon fill="white" stroke="none" points="-4,4 -4,-62 227,-62 227,4 -4,4"/>
<!-- Node1 -->
<g id="node1" class="node"><title>Node1</title>
<polygon fill="#bfbfbf" stroke="black" points="0,-14 0,-44 143,-44 143,-14 0,-14"/>
<text text-anchor="start" x="8" y="-32" font-family="Helvetica,sans-Serif" font-size="10.00">pfasst::examples::advection</text>
<text text-anchor="middle" x="71.5" y="-21" font-family="Helvetica,sans-Serif" font-size="10.00">_diffusion::run_vanilla_sdc</text>
</g>
<!-- Node2 -->
<g id="node2" class="node"><title>Node2</title>
<g id="a_node2"><a xlink:href="../../d4/df0/vanilla__sdc_8cpp.html#a3c04138a5bfe5d72780bb7e82a18e627" target="_top" xlink:title="main">
<polygon fill="white" stroke="black" points="182,-38.5 182,-57.5 220,-57.5 220,-38.5 182,-38.5"/>
<text text-anchor="middle" x="201" y="-45.5" font-family="Helvetica,sans-Serif" font-size="10.00">main</text>
</a>
</g>
</g>
<!-- Node1&#45;&gt;Node2 -->
<g id="edge1" class="edge"><title>Node1&#45;&gt;Node2</title>
<path fill="none" stroke="midnightblue" d="M153.292,-41.0396C163.966,-42.6302 173.951,-44.1183 181.928,-45.3069"/>
<polygon fill="midnightblue" stroke="midnightblue" points="153.741,-37.5679 143.334,-39.5557 152.709,-44.4915 153.741,-37.5679"/>
</g>
<!-- Node3 -->
<g id="node3" class="node"><title>Node3</title>
<g id="a_node3"><a xlink:href="../../df/df8/test__advection__diffusion_8cpp.html#aa11b7a5c6a1ab75dcaf86ed3e74c7a3f" target="_top" xlink:title="TEST">
<polygon fill="white" stroke="black" points="179,-0.5 179,-19.5 223,-19.5 223,-0.5 179,-0.5"/>
<text text-anchor="middle" x="201" y="-7.5" font-family="Helvetica,sans-Serif" font-size="10.00">TEST</text>
</a>
</g>
</g>
<!-- Node1&#45;&gt;Node3 -->
<g id="edge2" class="edge"><title>Node1&#45;&gt;Node3</title>
<path fill="none" stroke="midnightblue" d="M153.237,-16.9686C162.593,-15.5744 171.422,-14.2587 178.835,-13.154"/>
<polygon fill="midnightblue" stroke="midnightblue" points="152.709,-13.5085 143.334,-18.4443 153.741,-20.4321 152.709,-13.5085"/>
</g>
</g>
</svg>
