<?xml version="1.0" encoding="UTF-8" standalone="no"?>
<!DOCTYPE svg PUBLIC "-//W3C//DTD SVG 1.1//EN"
 "http://www.w3.org/Graphics/SVG/1.1/DTD/svg11.dtd">
<!-- Generated by graphviz version 2.38.0 (20140413.2041)
 -->
<!-- Title: examples/boris/boris_sweeper_impl.hpp Pages: 1 -->
<svg width="370pt" height="240pt"
 viewBox="0.00 0.00 370.00 240.00" xmlns="http://www.w3.org/2000/svg" xmlns:xlink="http://www.w3.org/1999/xlink">
<g id="graph0" class="graph" transform="scale(1 1) rotate(0) translate(4 236)">
<title>examples/boris/boris_sweeper_impl.hpp</title>
<polygon fill="white" stroke="none" points="-4,4 -4,-236 366,-236 366,4 -4,4"/>
<!-- Node1 -->
<g id="node1" class="node"><title>Node1</title>
<polygon fill="#bfbfbf" stroke="black" points="123,-201.5 123,-231.5 233,-231.5 233,-201.5 123,-201.5"/>
<text text-anchor="start" x="131" y="-219.5" font-family="Helvetica,sans-Serif" font-size="10.00">examples/boris/boris</text>
<text text-anchor="middle" x="178" y="-208.5" font-family="Helvetica,sans-Serif" font-size="10.00">_sweeper_impl.hpp</text>
</g>
<!-- Node2 -->
<g id="node2" class="node"><title>Node2</title>
<g id="a_node2"><a xlink:href="../../db/dfd/boris__sweeper_8hpp.html" target="_top" xlink:title="examples/boris/boris\l_sweeper.hpp">
<polygon fill="white" stroke="black" points="123,-134.5 123,-164.5 233,-164.5 233,-134.5 123,-134.5"/>
<text text-anchor="start" x="131" y="-152.5" font-family="Helvetica,sans-Serif" font-size="10.00">examples/boris/boris</text>
<text text-anchor="middle" x="178" y="-141.5" font-family="Helvetica,sans-Serif" font-size="10.00">_sweeper.hpp</text>
</a>
</g>
</g>
<!-- Node1&#45;&gt;Node2 -->
<g id="edge1" class="edge"><title>Node1&#45;&gt;Node2</title>
<path fill="none" stroke="midnightblue" d="M171.455,-191.403C171.005,-182.37 171.296,-172.408 172.325,-164.577"/>
<polygon fill="midnightblue" stroke="midnightblue" points="167.97,-191.736 172.322,-201.396 174.944,-191.131 167.97,-191.736"/>
</g>
<!-- Node2&#45;&gt;Node1 -->
<g id="edge3" class="edge"><title>Node2&#45;&gt;Node1</title>
<path fill="none" stroke="midnightblue" d="M184.544,-174.565C184.995,-183.596 184.706,-193.56 183.678,-201.396"/>
<polygon fill="midnightblue" stroke="midnightblue" points="188.028,-174.236 183.675,-164.577 181.055,-174.842 188.028,-174.236"/>
</g>
<!-- Node3 -->
<g id="node3" class="node"><title>Node3</title>
<g id="a_node3"><a xlink:href="../../d7/d31/boris__mlsdc_8cpp.html" target="_top" xlink:title="examples/boris/boris\l_mlsdc.cpp">
<polygon fill="white" stroke="black" points="0,-0.5 0,-30.5 110,-30.5 110,-0.5 0,-0.5"/>
<text text-anchor="start" x="8" y="-18.5" font-family="Helvetica,sans-Serif" font-size="10.00">examples/boris/boris</text>
<text text-anchor="middle" x="55" y="-7.5" font-family="Helvetica,sans-Serif" font-size="10.00">_mlsdc.cpp</text>
</a>
</g>
</g>
<!-- Node2&#45;&gt;Node3 -->
<g id="edge2" class="edge"><title>Node2&#45;&gt;Node3</title>
<path fill="none" stroke="midnightblue" d="M113.128,-134.518C93.2967,-126.997 73.4553,-115.505 61,-98 46.8528,-78.1166 49.0074,-48.1611 51.9445,-30.6436"/>
<polygon fill="midnightblue" stroke="midnightblue" points="112.236,-137.913 122.831,-137.9 114.54,-131.303 112.236,-137.913"/>
</g>
<!-- Node4 -->
<g id="node4" class="node"><title>Node4</title>
<g id="a_node4"><a xlink:href="../../d2/dc5/injective__transfer_8hpp.html" target="_top" xlink:title="examples/boris/injective\l_transfer.hpp">
<polygon fill="white" stroke="black" points="70.5,-67.5 70.5,-97.5 195.5,-97.5 195.5,-67.5 70.5,-67.5"/>
<text text-anchor="start" x="78.5" y="-85.5" font-family="Helvetica,sans-Serif" font-size="10.00">examples/boris/injective</text>
<text text-anchor="middle" x="133" y="-74.5" font-family="Helvetica,sans-Serif" font-size="10.00">_transfer.hpp</text>
</a>
</g>
</g>
<!-- Node2&#45;&gt;Node4 -->
<g id="edge4" class="edge"><title>Node2&#45;&gt;Node4</title>
<path fill="none" stroke="midnightblue" d="M162.532,-126.157C155.97,-116.679 148.521,-105.919 142.745,-97.5765"/>
<polygon fill="midnightblue" stroke="midnightblue" points="159.666,-128.166 168.236,-134.396 165.421,-124.182 159.666,-128.166"/>
</g>
<!-- Node5 -->
<g id="node5" class="node"><title>Node5</title>
<g id="a_node5"><a xlink:href="../../d2/d1e/boris__pfasst_8cpp.html" target="_top" xlink:title="examples/boris/boris\l_pfasst.cpp">
<polygon fill="white" stroke="black" points="155,-0.5 155,-30.5 265,-30.5 265,-0.5 155,-0.5"/>
<text text-anchor="start" x="163" y="-18.5" font-family="Helvetica,sans-Serif" font-size="10.00">examples/boris/boris</text>
<text text-anchor="middle" x="210" y="-7.5" font-family="Helvetica,sans-Serif" font-size="10.00">_pfasst.cpp</text>
</a>
</g>
</g>
<!-- Node2&#45;&gt;Node5 -->
<g id="edge7" class="edge"><title>Node2&#45;&gt;Node5</title>
<path fill="none" stroke="midnightblue" d="M192.382,-125.371C196.883,-117.042 201.359,-107.379 204,-98 210.46,-75.057 211.025,-47.1276 210.651,-30.6371"/>
<polygon fill="midnightblue" stroke="midnightblue" points="189.304,-123.704 187.387,-134.124 195.384,-127.174 189.304,-123.704"/>
</g>
<!-- Node6 -->
<g id="node6" class="node"><title>Node6</title>
<g id="a_node6"><a xlink:href="../../d3/d93/boris__sdc_8cpp.html" target="_top" xlink:title="examples/boris/boris\l_sdc.cpp">
<polygon fill="white" stroke="black" points="252,-67.5 252,-97.5 362,-97.5 362,-67.5 252,-67.5"/>
<text text-anchor="start" x="260" y="-85.5" font-family="Helvetica,sans-Serif" font-size="10.00">examples/boris/boris</text>
<text text-anchor="middle" x="307" y="-74.5" font-family="Helvetica,sans-Serif" font-size="10.00">_sdc.cpp</text>
</a>
</g>
</g>
<!-- Node2&#45;&gt;Node6 -->
<g id="edge8" class="edge"><title>Node2&#45;&gt;Node6</title>
<path fill="none" stroke="midnightblue" d="M215.007,-129.853C235.403,-119.576 260.312,-107.025 279.064,-97.5765"/>
<polygon fill="midnightblue" stroke="midnightblue" points="213.347,-126.77 205.991,-134.396 216.496,-133.022 213.347,-126.77"/>
</g>
<!-- Node4&#45;&gt;Node3 -->
<g id="edge5" class="edge"><title>Node4&#45;&gt;Node3</title>
<path fill="none" stroke="midnightblue" d="M108.26,-60.8832C96.4065,-51.0054 82.5152,-39.4293 71.8918,-30.5765"/>
<polygon fill="midnightblue" stroke="midnightblue" points="106.152,-63.6829 116.075,-67.396 110.634,-58.3053 106.152,-63.6829"/>
</g>
<!-- Node4&#45;&gt;Node5 -->
<g id="edge6" class="edge"><title>Node4&#45;&gt;Node5</title>
<path fill="none" stroke="midnightblue" d="M157.423,-60.8832C169.124,-51.0054 182.838,-39.4293 193.325,-30.5765"/>
<polygon fill="midnightblue" stroke="midnightblue" points="155.092,-58.2709 149.708,-67.396 159.607,-63.6199 155.092,-58.2709"/>
</g>
</g>
</svg>
