<?xml version="1.0" encoding="UTF-8" standalone="no"?>
<!DOCTYPE svg PUBLIC "-//W3C//DTD SVG 1.1//EN"
 "http://www.w3.org/Graphics/SVG/1.1/DTD/svg11.dtd">
<!-- Generated by graphviz version 2.38.0 (20140413.2041)
 -->
<!-- Title: include/pfasst/quadrature/gauss_radau.hpp Pages: 1 -->
<svg width="851pt" height="464pt"
 viewBox="0.00 0.00 850.50 464.00" xmlns="http://www.w3.org/2000/svg" xmlns:xlink="http://www.w3.org/1999/xlink">
<g id="graph0" class="graph" transform="scale(1 1) rotate(0) translate(4 460)">
<title>include/pfasst/quadrature/gauss_radau.hpp</title>
<polygon fill="white" stroke="none" points="-4,4 -4,-460 846.5,-460 846.5,4 -4,4"/>
<!-- Node1 -->
<g id="node1" class="node"><title>Node1</title>
<polygon fill="#bfbfbf" stroke="black" points="460,-425.5 460,-455.5 590,-455.5 590,-425.5 460,-425.5"/>
<text text-anchor="start" x="468" y="-443.5" font-family="Helvetica,sans-Serif" font-size="10.00">include/pfasst/quadrature</text>
<text text-anchor="middle" x="525" y="-432.5" font-family="Helvetica,sans-Serif" font-size="10.00">/gauss_radau.hpp</text>
</g>
<!-- Node2 -->
<g id="node2" class="node"><title>Node2</title>
<g id="a_node2"><a xlink:href="../../df/dea/quadrature_2interface_8hpp.html" target="_top" xlink:title="pfasst/quadrature/interface.hpp">
<polygon fill="white" stroke="black" points="262,-364 262,-383 416,-383 416,-364 262,-364"/>
<text text-anchor="middle" x="339" y="-371" font-family="Helvetica,sans-Serif" font-size="10.00">pfasst/quadrature/interface.hpp</text>
</a>
</g>
</g>
<!-- Node1&#45;&gt;Node2 -->
<g id="edge1" class="edge"><title>Node1&#45;&gt;Node2</title>
<path fill="none" stroke="midnightblue" d="M484.641,-425.396C451.283,-413.739 404.452,-397.373 372.984,-386.376"/>
<polygon fill="midnightblue" stroke="midnightblue" points="373.938,-383.002 363.343,-383.007 371.629,-389.61 373.938,-383.002"/>
</g>
<!-- Node30 -->
<g id="node30" class="node"><title>Node30</title>
<g id="a_node30"><a xlink:href="../../da/d39/gauss__radau__impl_8hpp.html" target="_top" xlink:title="pfasst/quadrature/gauss\l_radau_impl.hpp">
<polygon fill="white" stroke="black" points="462.5,-358.5 462.5,-388.5 587.5,-388.5 587.5,-358.5 462.5,-358.5"/>
<text text-anchor="start" x="470.5" y="-376.5" font-family="Helvetica,sans-Serif" font-size="10.00">pfasst/quadrature/gauss</text>
<text text-anchor="middle" x="525" y="-365.5" font-family="Helvetica,sans-Serif" font-size="10.00">_radau_impl.hpp</text>
</a>
</g>
</g>
<!-- Node1&#45;&gt;Node30 -->
<g id="edge43" class="edge"><title>Node1&#45;&gt;Node30</title>
<path fill="none" stroke="midnightblue" d="M519.322,-425.396C518.294,-417.56 518.005,-407.596 518.456,-398.565"/>
<polygon fill="midnightblue" stroke="midnightblue" points="521.945,-398.842 519.325,-388.577 514.972,-398.236 521.945,-398.842"/>
</g>
<!-- Node3 -->
<g id="node3" class="node"><title>Node3</title>
<polygon fill="white" stroke="#bfbfbf" points="532,-168.5 532,-187.5 582,-187.5 582,-168.5 532,-168.5"/>
<text text-anchor="middle" x="557" y="-175.5" font-family="Helvetica,sans-Serif" font-size="10.00">cassert</text>
</g>
<!-- Node2&#45;&gt;Node3 -->
<g id="edge2" class="edge"><title>Node2&#45;&gt;Node3</title>
<path fill="none" stroke="midnightblue" d="M352.788,-363.859C366.418,-354.77 387.183,-339.392 401,-322 431.169,-284.026 413.681,-257.239 449,-224 460.066,-213.585 495.09,-199.973 522.287,-190.458"/>
<polygon fill="midnightblue" stroke="midnightblue" points="523.577,-193.715 531.893,-187.151 521.299,-187.096 523.577,-193.715"/>
</g>
<!-- Node4 -->
<g id="node4" class="node"><title>Node4</title>
<polygon fill="white" stroke="#bfbfbf" points="536,-230 536,-249 580,-249 580,-230 536,-230"/>
<text text-anchor="middle" x="558" y="-237" font-family="Helvetica,sans-Serif" font-size="10.00">vector</text>
</g>
<!-- Node2&#45;&gt;Node4 -->
<g id="edge3" class="edge"><title>Node2&#45;&gt;Node4</title>
<path fill="none" stroke="midnightblue" d="M359.27,-363.998C380.817,-354.676 415.627,-338.795 444,-322 479.146,-301.195 517.218,-272.631 539.267,-255.429"/>
<polygon fill="midnightblue" stroke="midnightblue" points="541.723,-257.95 547.418,-249.016 537.394,-252.449 541.723,-257.95"/>
</g>
<!-- Node5 -->
<g id="node5" class="node"><title>Node5</title>
<polygon fill="white" stroke="#bfbfbf" points="192.5,-297 192.5,-316 267.5,-316 267.5,-297 192.5,-297"/>
<text text-anchor="middle" x="230" y="-304" font-family="Helvetica,sans-Serif" font-size="10.00">Eigen/Dense</text>
</g>
<!-- Node2&#45;&gt;Node5 -->
<g id="edge4" class="edge"><title>Node2&#45;&gt;Node5</title>
<path fill="none" stroke="midnightblue" d="M324.3,-363.734C306.077,-352.867 274.801,-334.216 253.298,-321.393"/>
<polygon fill="midnightblue" stroke="midnightblue" points="254.849,-318.243 244.467,-316.127 251.264,-324.255 254.849,-318.243"/>
</g>
<!-- Node6 -->
<g id="node6" class="node"><title>Node6</title>
<g id="a_node6"><a xlink:href="../../d5/d82/globals_8hpp.html" target="_top" xlink:title="pfasst/globals.hpp">
<polygon fill="white" stroke="black" points="78.5,-168.5 78.5,-187.5 175.5,-187.5 175.5,-168.5 78.5,-168.5"/>
<text text-anchor="middle" x="127" y="-175.5" font-family="Helvetica,sans-Serif" font-size="10.00">pfasst/globals.hpp</text>
</a>
</g>
</g>
<!-- Node2&#45;&gt;Node6 -->
<g id="edge5" class="edge"><title>Node2&#45;&gt;Node6</title>
<path fill="none" stroke="midnightblue" d="M271.242,-363.93C241.031,-357.02 206.938,-344.539 183,-322 147.025,-288.128 133.789,-228.356 129.222,-197.935"/>
<polygon fill="midnightblue" stroke="midnightblue" points="132.665,-197.274 127.867,-187.828 125.727,-198.204 132.665,-197.274"/>
</g>
<!-- Node7 -->
<g id="node7" class="node"><title>Node7</title>
<g id="a_node7"><a xlink:href="../../d1/d1b/interfaces_8hpp.html" target="_top" xlink:title="interfaces for SDC/MLSDC/PFASST algorithms. ">
<polygon fill="white" stroke="black" points="285.5,-297 285.5,-316 392.5,-316 392.5,-297 285.5,-297"/>
<text text-anchor="middle" x="339" y="-304" font-family="Helvetica,sans-Serif" font-size="10.00">pfasst/interfaces.hpp</text>
</a>
</g>
</g>
<!-- Node2&#45;&gt;Node7 -->
<g id="edge6" class="edge"><title>Node2&#45;&gt;Node7</title>
<path fill="none" stroke="midnightblue" d="M339,-363.734C339,-354.183 339,-338.618 339,-326.283"/>
<polygon fill="midnightblue" stroke="midnightblue" points="342.5,-326.127 339,-316.127 335.5,-326.127 342.5,-326.127"/>
</g>
<!-- Node24 -->
<g id="node24" class="node"><title>Node24</title>
<g id="a_node24"><a xlink:href="../../d0/d3e/polynomial_8hpp.html" target="_top" xlink:title="pfasst/quadrature/polynomial.hpp">
<polygon fill="white" stroke="black" points="572,-297 572,-316 736,-316 736,-297 572,-297"/>
<text text-anchor="middle" x="654" y="-304" font-family="Helvetica,sans-Serif" font-size="10.00">pfasst/quadrature/polynomial.hpp</text>
</a>
</g>
</g>
<!-- Node2&#45;&gt;Node24 -->
<g id="edge33" class="edge"><title>Node2&#45;&gt;Node24</title>
<path fill="none" stroke="midnightblue" d="M380.505,-363.936C437.713,-352.131 540.738,-330.872 602.702,-318.085"/>
<polygon fill="midnightblue" stroke="midnightblue" points="603.568,-321.481 612.654,-316.032 602.153,-314.625 603.568,-321.481"/>
</g>
<!-- Node29 -->
<g id="node29" class="node"><title>Node29</title>
<g id="a_node29"><a xlink:href="../../de/da5/quadrature_2interface__impl_8hpp.html" target="_top" xlink:title="pfasst/quadrature/interface\l_impl.hpp">
<polygon fill="white" stroke="black" points="0,-291.5 0,-321.5 136,-321.5 136,-291.5 0,-291.5"/>
<text text-anchor="start" x="8" y="-309.5" font-family="Helvetica,sans-Serif" font-size="10.00">pfasst/quadrature/interface</text>
<text text-anchor="middle" x="68" y="-298.5" font-family="Helvetica,sans-Serif" font-size="10.00">_impl.hpp</text>
</a>
</g>
</g>
<!-- Node2&#45;&gt;Node29 -->
<g id="edge41" class="edge"><title>Node2&#45;&gt;Node29</title>
<path fill="none" stroke="midnightblue" d="M298.547,-363.936C254.109,-353.799 182.378,-336.691 130.677,-323.963"/>
<polygon fill="midnightblue" stroke="midnightblue" points="131.491,-320.558 120.943,-321.559 129.813,-327.354 131.491,-320.558"/>
</g>
<!-- Node8 -->
<g id="node8" class="node"><title>Node8</title>
<polygon fill="white" stroke="#bfbfbf" points="232.5,-168.5 232.5,-187.5 285.5,-187.5 285.5,-168.5 232.5,-168.5"/>
<text text-anchor="middle" x="259" y="-175.5" font-family="Helvetica,sans-Serif" font-size="10.00">memory</text>
</g>
<!-- Node7&#45;&gt;Node8 -->
<g id="edge7" class="edge"><title>Node7&#45;&gt;Node8</title>
<path fill="none" stroke="midnightblue" d="M314.555,-296.919C296.273,-289.078 272.524,-275.541 261,-255 251.135,-237.417 252.331,-213.759 254.9,-197.535"/>
<polygon fill="midnightblue" stroke="midnightblue" points="258.348,-198.135 256.778,-187.657 251.471,-196.827 258.348,-198.135"/>
</g>
<!-- Node9 -->
<g id="node9" class="node"><title>Node9</title>
<polygon fill="white" stroke="#bfbfbf" points="458,-230 458,-249 518,-249 518,-230 458,-230"/>
<text text-anchor="middle" x="488" y="-237" font-family="Helvetica,sans-Serif" font-size="10.00">stdexcept</text>
</g>
<!-- Node7&#45;&gt;Node9 -->
<g id="edge8" class="edge"><title>Node7&#45;&gt;Node9</title>
<path fill="none" stroke="midnightblue" d="M358.786,-296.869C384.39,-285.699 429.21,-266.147 458.75,-253.26"/>
<polygon fill="midnightblue" stroke="midnightblue" points="460.366,-256.374 468.132,-249.167 457.567,-249.958 460.366,-256.374"/>
</g>
<!-- Node10 -->
<g id="node10" class="node"><title>Node10</title>
<polygon fill="white" stroke="#bfbfbf" points="266.5,-56.5 266.5,-75.5 307.5,-75.5 307.5,-56.5 266.5,-56.5"/>
<text text-anchor="middle" x="287" y="-63.5" font-family="Helvetica,sans-Serif" font-size="10.00">string</text>
</g>
<!-- Node7&#45;&gt;Node10 -->
<g id="edge9" class="edge"><title>Node7&#45;&gt;Node10</title>
<path fill="none" stroke="midnightblue" d="M314.489,-296.848C294.722,-288.76 267.432,-274.92 250,-255 228.858,-230.84 229.112,-219.518 223,-188 215.022,-146.859 248.404,-104.983 269.95,-82.9052"/>
<polygon fill="midnightblue" stroke="midnightblue" points="272.589,-85.218 277.254,-75.7053 267.675,-80.2328 272.589,-85.218"/>
</g>
<!-- Node11 -->
<g id="node11" class="node"><title>Node11</title>
<g id="a_node11"><a xlink:href="../../d8/dc4/interfaces__impl_8hpp.html" target="_top" xlink:title="pfasst/interfaces_impl.hpp">
<polygon fill="white" stroke="black" points="270.5,-230 270.5,-249 401.5,-249 401.5,-230 270.5,-230"/>
<text text-anchor="middle" x="336" y="-237" font-family="Helvetica,sans-Serif" font-size="10.00">pfasst/interfaces_impl.hpp</text>
</a>
</g>
</g>
<!-- Node7&#45;&gt;Node11 -->
<g id="edge10" class="edge"><title>Node7&#45;&gt;Node11</title>
<path fill="none" stroke="midnightblue" d="M333.807,-296.734C331.356,-287.183 330.173,-271.618 330.682,-259.283"/>
<polygon fill="midnightblue" stroke="midnightblue" points="334.186,-259.411 331.639,-249.127 327.217,-258.755 334.186,-259.411"/>
</g>
<!-- Node11&#45;&gt;Node3 -->
<g id="edge12" class="edge"><title>Node11&#45;&gt;Node3</title>
<path fill="none" stroke="midnightblue" d="M367.664,-229.975C408.571,-218.962 479.555,-199.851 522.017,-188.419"/>
<polygon fill="midnightblue" stroke="midnightblue" points="523.159,-191.736 531.906,-185.756 521.339,-184.976 523.159,-191.736"/>
</g>
<!-- Node11&#45;&gt;Node6 -->
<g id="edge15" class="edge"><title>Node11&#45;&gt;Node6</title>
<path fill="none" stroke="midnightblue" d="M306.055,-229.975C269.428,-219.548 207.305,-201.862 166.716,-190.307"/>
<polygon fill="midnightblue" stroke="midnightblue" points="167.465,-186.881 156.889,-187.509 165.549,-193.613 167.465,-186.881"/>
</g>
<!-- Node11&#45;&gt;Node7 -->
<g id="edge11" class="edge"><title>Node11&#45;&gt;Node7</title>
<path fill="none" stroke="midnightblue" d="M341.157,-249.127C343.62,-258.62 344.818,-274.17 344.325,-286.537"/>
<polygon fill="midnightblue" stroke="midnightblue" points="340.818,-286.454 343.384,-296.734 347.788,-287.098 340.818,-286.454"/>
</g>
<!-- Node11&#45;&gt;Node8 -->
<g id="edge13" class="edge"><title>Node11&#45;&gt;Node8</title>
<path fill="none" stroke="midnightblue" d="M324.968,-229.975C312.732,-220.52 292.771,-205.096 278.007,-193.687"/>
<polygon fill="midnightblue" stroke="midnightblue" points="280.065,-190.854 270.012,-187.509 275.785,-196.393 280.065,-190.854"/>
</g>
<!-- Node11&#45;&gt;Node10 -->
<g id="edge14" class="edge"><title>Node11&#45;&gt;Node10</title>
<path fill="none" stroke="midnightblue" d="M333.503,-229.76C325.868,-203.036 302.719,-122.017 292.246,-85.3618"/>
<polygon fill="midnightblue" stroke="midnightblue" points="295.547,-84.1731 289.434,-75.5194 288.816,-86.0962 295.547,-84.1731"/>
</g>
<!-- Node12 -->
<g id="node12" class="node"><title>Node12</title>
<g id="a_node12"><a xlink:href="../../d0/da9/logging_8hpp.html" target="_top" xlink:title="pfasst/logging.hpp">
<polygon fill="white" stroke="black" points="416,-168.5 416,-187.5 514,-187.5 514,-168.5 416,-168.5"/>
<text text-anchor="middle" x="465" y="-175.5" font-family="Helvetica,sans-Serif" font-size="10.00">pfasst/logging.hpp</text>
</a>
</g>
</g>
<!-- Node11&#45;&gt;Node12 -->
<g id="edge16" class="edge"><title>Node11&#45;&gt;Node12</title>
<path fill="none" stroke="midnightblue" d="M354.483,-229.975C376.132,-219.99 412.213,-203.348 437.232,-191.807"/>
<polygon fill="midnightblue" stroke="midnightblue" points="438.937,-194.876 446.552,-187.509 436.005,-188.519 438.937,-194.876"/>
</g>
<!-- Node12&#45;&gt;Node10 -->
<g id="edge19" class="edge"><title>Node12&#45;&gt;Node10</title>
<path fill="none" stroke="midnightblue" d="M464.982,-168.082C464.457,-154.147 461.362,-127.231 446,-112 427.915,-94.0692 358.437,-79.3651 317.551,-72.0366"/>
<polygon fill="midnightblue" stroke="midnightblue" points="318.03,-68.5673 307.577,-70.2932 316.825,-75.4627 318.03,-68.5673"/>
</g>
<!-- Node13 -->
<g id="node13" class="node"><title>Node13</title>
<polygon fill="white" stroke="#bfbfbf" points="603,-112.5 603,-131.5 655,-131.5 655,-112.5 603,-112.5"/>
<text text-anchor="middle" x="629" y="-119.5" font-family="Helvetica,sans-Serif" font-size="10.00">iomanip</text>
</g>
<!-- Node12&#45;&gt;Node13 -->
<g id="edge17" class="edge"><title>Node12&#45;&gt;Node13</title>
<path fill="none" stroke="midnightblue" d="M490.986,-168.444C518.696,-159.32 562.752,-144.813 593.616,-134.651"/>
<polygon fill="midnightblue" stroke="midnightblue" points="594.732,-137.968 603.135,-131.516 592.542,-131.32 594.732,-137.968"/>
</g>
<!-- Node14 -->
<g id="node14" class="node"><title>Node14</title>
<polygon fill="white" stroke="#bfbfbf" points="706,-56.5 706,-75.5 762,-75.5 762,-56.5 706,-56.5"/>
<text text-anchor="middle" x="734" y="-63.5" font-family="Helvetica,sans-Serif" font-size="10.00">iostream</text>
</g>
<!-- Node12&#45;&gt;Node14 -->
<g id="edge18" class="edge"><title>Node12&#45;&gt;Node14</title>
<path fill="none" stroke="midnightblue" d="M514.136,-168.912C564.319,-160.118 638.388,-145.51 664,-132 686.807,-119.97 707.732,-98.5752 720.648,-83.6292"/>
<polygon fill="midnightblue" stroke="midnightblue" points="723.553,-85.6113 727.281,-75.6939 718.182,-81.122 723.553,-85.6113"/>
</g>
<!-- Node15 -->
<g id="node15" class="node"><title>Node15</title>
<polygon fill="white" stroke="#bfbfbf" points="711.5,-112.5 711.5,-131.5 842.5,-131.5 842.5,-112.5 711.5,-112.5"/>
<text text-anchor="middle" x="777" y="-119.5" font-family="Helvetica,sans-Serif" font-size="10.00">boost/algorithm/string.hpp</text>
</g>
<!-- Node12&#45;&gt;Node15 -->
<g id="edge20" class="edge"><title>Node12&#45;&gt;Node15</title>
<path fill="none" stroke="midnightblue" d="M514.093,-168.503C569.249,-158.957 658.76,-143.465 717.758,-133.253"/>
<polygon fill="midnightblue" stroke="midnightblue" points="718.422,-136.691 727.678,-131.536 717.228,-129.793 718.422,-136.691"/>
</g>
<!-- Node16 -->
<g id="node16" class="node"><title>Node16</title>
<g id="a_node16"><a xlink:href="../../d8/dfd/config_8hpp.html" target="_top" xlink:title="pfasst/config.hpp">
<polygon fill="white" stroke="black" points="493.5,-112.5 493.5,-131.5 584.5,-131.5 584.5,-112.5 493.5,-112.5"/>
<text text-anchor="middle" x="539" y="-119.5" font-family="Helvetica,sans-Serif" font-size="10.00">pfasst/config.hpp</text>
</a>
</g>
</g>
<!-- Node12&#45;&gt;Node16 -->
<g id="edge21" class="edge"><title>Node12&#45;&gt;Node16</title>
<path fill="none" stroke="midnightblue" d="M476.889,-168.324C488.15,-160.107 505.287,-147.602 518.709,-137.807"/>
<polygon fill="midnightblue" stroke="midnightblue" points="520.88,-140.556 526.894,-131.834 516.753,-134.901 520.88,-140.556"/>
</g>
<!-- Node23 -->
<g id="node23" class="node"><title>Node23</title>
<polygon fill="white" stroke="#bfbfbf" points="315,-112.5 315,-131.5 437,-131.5 437,-112.5 315,-112.5"/>
<text text-anchor="middle" x="376" y="-119.5" font-family="Helvetica,sans-Serif" font-size="10.00">pfasst/easylogging++.h</text>
</g>
<!-- Node12&#45;&gt;Node23 -->
<g id="edge32" class="edge"><title>Node12&#45;&gt;Node23</title>
<path fill="none" stroke="midnightblue" d="M450.701,-168.324C436.817,-159.9 415.508,-146.971 399.196,-137.074"/>
<polygon fill="midnightblue" stroke="midnightblue" points="400.629,-133.85 390.264,-131.655 396.998,-139.834 400.629,-133.85"/>
</g>
<!-- Node16&#45;&gt;Node10 -->
<g id="edge24" class="edge"><title>Node16&#45;&gt;Node10</title>
<path fill="none" stroke="midnightblue" d="M494.812,-112.472C450.868,-103.841 381.591,-89.8324 322,-76 320.548,-75.6631 319.065,-75.3112 317.568,-74.9501"/>
<polygon fill="midnightblue" stroke="midnightblue" points="318.238,-71.51 307.688,-72.4923 316.548,-78.303 318.238,-71.51"/>
</g>
<!-- Node16&#45;&gt;Node14 -->
<g id="edge23" class="edge"><title>Node16&#45;&gt;Node14</title>
<path fill="none" stroke="midnightblue" d="M569.898,-112.444C604.059,-102.984 659.114,-87.7377 695.915,-77.5465"/>
<polygon fill="midnightblue" stroke="midnightblue" points="697.076,-80.857 705.779,-74.8151 695.207,-74.1109 697.076,-80.857"/>
</g>
<!-- Node17 -->
<g id="node17" class="node"><title>Node17</title>
<polygon fill="white" stroke="#bfbfbf" points="407,-0.5 407,-19.5 457,-19.5 457,-0.5 407,-0.5"/>
<text text-anchor="middle" x="432" y="-7.5" font-family="Helvetica,sans-Serif" font-size="10.00">fstream</text>
</g>
<!-- Node16&#45;&gt;Node17 -->
<g id="edge22" class="edge"><title>Node16&#45;&gt;Node17</title>
<path fill="none" stroke="midnightblue" d="M493.121,-112.814C441.478,-103.135 363.604,-86.962 355,-76 338.284,-54.7036 369.916,-35.402 397.551,-23.4657"/>
<polygon fill="midnightblue" stroke="midnightblue" points="399.15,-26.593 407.073,-19.5597 396.493,-20.1167 399.15,-26.593"/>
</g>
<!-- Node18 -->
<g id="node18" class="node"><title>Node18</title>
<polygon fill="white" stroke="#bfbfbf" points="364,-56.5 364,-75.5 400,-75.5 400,-56.5 364,-56.5"/>
<text text-anchor="middle" x="382" y="-63.5" font-family="Helvetica,sans-Serif" font-size="10.00">map</text>
</g>
<!-- Node16&#45;&gt;Node18 -->
<g id="edge25" class="edge"><title>Node16&#45;&gt;Node18</title>
<path fill="none" stroke="midnightblue" d="M514.123,-112.444C485.815,-102.707 439.685,-86.8408 410.101,-76.6654"/>
<polygon fill="midnightblue" stroke="midnightblue" points="410.978,-73.2658 400.383,-73.323 408.701,-79.8852 410.978,-73.2658"/>
</g>
<!-- Node19 -->
<g id="node19" class="node"><title>Node19</title>
<polygon fill="white" stroke="#bfbfbf" points="418.5,-56.5 418.5,-75.5 555.5,-75.5 555.5,-56.5 418.5,-56.5"/>
<text text-anchor="middle" x="487" y="-63.5" font-family="Helvetica,sans-Serif" font-size="10.00">boost/program_options.hpp</text>
</g>
<!-- Node16&#45;&gt;Node19 -->
<g id="edge26" class="edge"><title>Node16&#45;&gt;Node19</title>
<path fill="none" stroke="midnightblue" d="M530.413,-112.083C522.841,-104.22 511.622,-92.5688 502.486,-83.0813"/>
<polygon fill="midnightblue" stroke="midnightblue" points="504.885,-80.5266 495.427,-75.7511 499.842,-85.3821 504.885,-80.5266"/>
</g>
<!-- Node20 -->
<g id="node20" class="node"><title>Node20</title>
<g id="a_node20"><a xlink:href="../../d5/d84/config__impl_8hpp.html" target="_top" xlink:title="pfasst/config_impl.hpp">
<polygon fill="white" stroke="black" points="574,-56.5 574,-75.5 688,-75.5 688,-56.5 574,-56.5"/>
<text text-anchor="middle" x="631" y="-63.5" font-family="Helvetica,sans-Serif" font-size="10.00">pfasst/config_impl.hpp</text>
</a>
</g>
</g>
<!-- Node16&#45;&gt;Node20 -->
<g id="edge27" class="edge"><title>Node16&#45;&gt;Node20</title>
<path fill="none" stroke="midnightblue" d="M548.667,-112.324C561.487,-103.703 583.944,-90.3643 602.274,-80.3855"/>
<polygon fill="midnightblue" stroke="midnightblue" points="603.969,-83.4486 611.145,-75.6545 600.675,-77.2721 603.969,-83.4486"/>
</g>
<!-- Node20&#45;&gt;Node16 -->
<g id="edge28" class="edge"><title>Node20&#45;&gt;Node16</title>
<path fill="none" stroke="midnightblue" d="M621.365,-75.6545C608.561,-84.2672 586.108,-97.6052 567.771,-107.59"/>
<polygon fill="midnightblue" stroke="midnightblue" points="566.072,-104.529 558.896,-112.324 569.367,-110.705 566.072,-104.529"/>
</g>
<!-- Node20&#45;&gt;Node17 -->
<g id="edge29" class="edge"><title>Node20&#45;&gt;Node17</title>
<path fill="none" stroke="midnightblue" d="M599.468,-56.4435C563.404,-46.6574 504.522,-30.6793 467.049,-20.5107"/>
<polygon fill="midnightblue" stroke="midnightblue" points="467.651,-17.0477 457.084,-17.8067 465.818,-23.8034 467.651,-17.0477"/>
</g>
<!-- Node21 -->
<g id="node21" class="node"><title>Node21</title>
<polygon fill="white" stroke="#bfbfbf" points="572.5,-0.5 572.5,-19.5 625.5,-19.5 625.5,-0.5 572.5,-0.5"/>
<text text-anchor="middle" x="599" y="-7.5" font-family="Helvetica,sans-Serif" font-size="10.00">sstream</text>
</g>
<!-- Node20&#45;&gt;Node21 -->
<g id="edge30" class="edge"><title>Node20&#45;&gt;Node21</title>
<path fill="none" stroke="midnightblue" d="M625.716,-56.083C621.289,-48.6127 614.837,-37.7244 609.382,-28.5199"/>
<polygon fill="midnightblue" stroke="midnightblue" points="612.295,-26.5697 604.186,-19.7511 606.273,-30.1383 612.295,-26.5697"/>
</g>
<!-- Node22 -->
<g id="node22" class="node"><title>Node22</title>
<polygon fill="white" stroke="#bfbfbf" points="644,-0.5 644,-19.5 682,-19.5 682,-0.5 644,-0.5"/>
<text text-anchor="middle" x="663" y="-7.5" font-family="Helvetica,sans-Serif" font-size="10.00">utility</text>
</g>
<!-- Node20&#45;&gt;Node22 -->
<g id="edge31" class="edge"><title>Node20&#45;&gt;Node22</title>
<path fill="none" stroke="midnightblue" d="M636.284,-56.083C640.711,-48.6127 647.163,-37.7244 652.618,-28.5199"/>
<polygon fill="midnightblue" stroke="midnightblue" points="655.727,-30.1383 657.814,-19.7511 649.705,-26.5697 655.727,-30.1383"/>
</g>
<!-- Node24&#45;&gt;Node4 -->
<g id="edge34" class="edge"><title>Node24&#45;&gt;Node4</title>
<path fill="none" stroke="midnightblue" d="M641.053,-296.734C625.147,-285.964 597.951,-267.55 579.031,-254.739"/>
<polygon fill="midnightblue" stroke="midnightblue" points="580.985,-251.836 570.742,-249.127 577.06,-257.632 580.985,-251.836"/>
</g>
<!-- Node25 -->
<g id="node25" class="node"><title>Node25</title>
<g id="a_node25"><a xlink:href="../../dc/de8/polynomial__impl_8hpp.html" target="_top" xlink:title="pfasst/quadrature/polynomial\l_impl.hpp">
<polygon fill="white" stroke="black" points="598,-224.5 598,-254.5 744,-254.5 744,-224.5 598,-224.5"/>
<text text-anchor="start" x="606" y="-242.5" font-family="Helvetica,sans-Serif" font-size="10.00">pfasst/quadrature/polynomial</text>
<text text-anchor="middle" x="671" y="-231.5" font-family="Helvetica,sans-Serif" font-size="10.00">_impl.hpp</text>
</a>
</g>
</g>
<!-- Node24&#45;&gt;Node25 -->
<g id="edge35" class="edge"><title>Node24&#45;&gt;Node25</title>
<path fill="none" stroke="midnightblue" d="M651.504,-296.734C651.927,-288.456 654.692,-275.662 658.224,-264.367"/>
<polygon fill="midnightblue" stroke="midnightblue" points="661.646,-265.184 661.639,-254.589 655.037,-262.876 661.646,-265.184"/>
</g>
<!-- Node25&#45;&gt;Node3 -->
<g id="edge38" class="edge"><title>Node25&#45;&gt;Node3</title>
<path fill="none" stroke="midnightblue" d="M643.984,-224.399C625.369,-214.684 600.79,-201.855 582.509,-192.314"/>
<polygon fill="midnightblue" stroke="midnightblue" points="584.073,-189.182 573.588,-187.658 580.834,-195.388 584.073,-189.182"/>
</g>
<!-- Node25&#45;&gt;Node24 -->
<g id="edge36" class="edge"><title>Node25&#45;&gt;Node24</title>
<path fill="none" stroke="midnightblue" d="M672.992,-254.589C671.74,-264.201 668.536,-277.02 664.86,-287.39"/>
<polygon fill="midnightblue" stroke="midnightblue" points="661.586,-286.151 661.081,-296.734 668.075,-288.776 661.586,-286.151"/>
</g>
<!-- Node26 -->
<g id="node26" class="node"><title>Node26</title>
<polygon fill="white" stroke="#bfbfbf" points="600,-168.5 600,-187.5 658,-187.5 658,-168.5 600,-168.5"/>
<text text-anchor="middle" x="629" y="-175.5" font-family="Helvetica,sans-Serif" font-size="10.00">algorithm</text>
</g>
<!-- Node25&#45;&gt;Node26 -->
<g id="edge37" class="edge"><title>Node25&#45;&gt;Node26</title>
<path fill="none" stroke="midnightblue" d="M661.047,-224.399C655.006,-215.842 647.262,-204.871 640.899,-195.857"/>
<polygon fill="midnightblue" stroke="midnightblue" points="643.738,-193.809 635.111,-187.658 638.019,-197.846 643.738,-193.809"/>
</g>
<!-- Node27 -->
<g id="node27" class="node"><title>Node27</title>
<polygon fill="white" stroke="#bfbfbf" points="676,-168.5 676,-187.5 720,-187.5 720,-168.5 676,-168.5"/>
<text text-anchor="middle" x="698" y="-175.5" font-family="Helvetica,sans-Serif" font-size="10.00">cmath</text>
</g>
<!-- Node25&#45;&gt;Node27 -->
<g id="edge39" class="edge"><title>Node25&#45;&gt;Node27</title>
<path fill="none" stroke="midnightblue" d="M677.399,-224.399C681.12,-216.199 685.847,-205.781 689.835,-196.994"/>
<polygon fill="midnightblue" stroke="midnightblue" points="693.126,-198.21 694.071,-187.658 686.752,-195.318 693.126,-198.21"/>
</g>
<!-- Node28 -->
<g id="node28" class="node"><title>Node28</title>
<polygon fill="white" stroke="#bfbfbf" points="738.5,-168.5 738.5,-187.5 793.5,-187.5 793.5,-168.5 738.5,-168.5"/>
<text text-anchor="middle" x="766" y="-175.5" font-family="Helvetica,sans-Serif" font-size="10.00">complex</text>
</g>
<!-- Node25&#45;&gt;Node28 -->
<g id="edge40" class="edge"><title>Node25&#45;&gt;Node28</title>
<path fill="none" stroke="midnightblue" d="M693.514,-224.399C708.599,-214.951 728.385,-202.559 743.473,-193.109"/>
<polygon fill="midnightblue" stroke="midnightblue" points="745.559,-195.932 752.177,-187.658 741.844,-190 745.559,-195.932"/>
</g>
<!-- Node29&#45;&gt;Node2 -->
<g id="edge42" class="edge"><title>Node29&#45;&gt;Node2</title>
<path fill="none" stroke="midnightblue" d="M132.288,-321.559C183.751,-333.525 254.267,-350.475 298.262,-361.478"/>
<polygon fill="midnightblue" stroke="midnightblue" points="297.487,-364.892 308.038,-363.936 299.194,-358.103 297.487,-364.892"/>
</g>
<!-- Node30&#45;&gt;Node1 -->
<g id="edge44" class="edge"><title>Node30&#45;&gt;Node1</title>
<path fill="none" stroke="midnightblue" d="M530.675,-388.577C531.704,-396.408 531.995,-406.37 531.545,-415.403"/>
<polygon fill="midnightblue" stroke="midnightblue" points="528.056,-415.131 530.678,-425.396 535.03,-415.736 528.056,-415.131"/>
</g>
<!-- Node30&#45;&gt;Node4 -->
<g id="edge46" class="edge"><title>Node30&#45;&gt;Node4</title>
<path fill="none" stroke="midnightblue" d="M528.532,-358.374C534.526,-334.397 546.688,-285.748 553.361,-259.056"/>
<polygon fill="midnightblue" stroke="midnightblue" points="556.821,-259.648 555.851,-249.097 550.03,-257.95 556.821,-259.648"/>
</g>
<!-- Node30&#45;&gt;Node9 -->
<g id="edge45" class="edge"><title>Node30&#45;&gt;Node9</title>
<path fill="none" stroke="midnightblue" d="M521.04,-358.374C514.32,-334.397 500.683,-285.748 493.201,-259.056"/>
<polygon fill="midnightblue" stroke="midnightblue" points="496.479,-257.781 490.41,-249.097 489.739,-259.671 496.479,-257.781"/>
</g>
<!-- Node30&#45;&gt;Node24 -->
<g id="edge47" class="edge"><title>Node30&#45;&gt;Node24</title>
<path fill="none" stroke="midnightblue" d="M552.991,-358.396C575.325,-347.142 606.367,-331.501 628.126,-320.538"/>
<polygon fill="midnightblue" stroke="midnightblue" points="629.761,-323.633 637.117,-316.007 626.612,-317.381 629.761,-323.633"/>
</g>
</g>
</svg>
