<?xml version="1.0" encoding="UTF-8" standalone="no"?>
<!DOCTYPE svg PUBLIC "-//W3C//DTD SVG 1.1//EN"
 "http://www.w3.org/Graphics/SVG/1.1/DTD/svg11.dtd">
<!-- Generated by graphviz version 2.38.0 (20140413.2041)
 -->
<!-- Title: examples/boris/particle_cloud.hpp Pages: 1 -->
<svg width="934pt" height="329pt"
 viewBox="0.00 0.00 934.42 329.00" xmlns="http://www.w3.org/2000/svg" xmlns:xlink="http://www.w3.org/1999/xlink">
<g id="graph0" class="graph" transform="scale(1 1) rotate(0) translate(4 325)">
<title>examples/boris/particle_cloud.hpp</title>
<polygon fill="white" stroke="none" points="-4,4 -4,-325 930.425,-325 930.425,4 -4,4"/>
<!-- Node1 -->
<g id="node1" class="node"><title>Node1</title>
<polygon fill="#bfbfbf" stroke="black" points="459.425,-290.5 459.425,-320.5 580.425,-320.5 580.425,-290.5 459.425,-290.5"/>
<text text-anchor="start" x="467.425" y="-308.5" font-family="Helvetica,sans-Serif" font-size="10.00">examples/boris/particle</text>
<text text-anchor="middle" x="519.925" y="-297.5" font-family="Helvetica,sans-Serif" font-size="10.00">_cloud.hpp</text>
</g>
<!-- Node2 -->
<g id="node2" class="node"><title>Node2</title>
<g id="a_node2"><a xlink:href="../../d9/dd9/wrapper__interface_8hpp.html" target="_top" xlink:title="examples/boris/bindings\l/wrapper_interface.hpp">
<polygon fill="white" stroke="black" points="365.925,-223.5 365.925,-253.5 491.925,-253.5 491.925,-223.5 365.925,-223.5"/>
<text text-anchor="start" x="373.925" y="-241.5" font-family="Helvetica,sans-Serif" font-size="10.00">examples/boris/bindings</text>
<text text-anchor="middle" x="428.925" y="-230.5" font-family="Helvetica,sans-Serif" font-size="10.00">/wrapper_interface.hpp</text>
</a>
</g>
</g>
<!-- Node1&#45;&gt;Node2 -->
<g id="edge1" class="edge"><title>Node1&#45;&gt;Node2</title>
<path fill="none" stroke="midnightblue" d="M491.856,-284.451C477.857,-274.452 461.264,-262.6 448.632,-253.577"/>
<polygon fill="midnightblue" stroke="midnightblue" points="490.007,-287.432 500.179,-290.396 494.076,-281.735 490.007,-287.432"/>
</g>
<!-- Node3 -->
<g id="node3" class="node"><title>Node3</title>
<g id="a_node3"><a xlink:href="../../dd/da4/wrapper__simple__physics__solver_8hpp.html" target="_top" xlink:title="examples/boris/bindings\l/wrapper_simple_physics\l_solver.hpp">
<polygon fill="white" stroke="black" points="119.425,-145.5 119.425,-186.5 248.425,-186.5 248.425,-145.5 119.425,-145.5"/>
<text text-anchor="start" x="127.425" y="-174.5" font-family="Helvetica,sans-Serif" font-size="10.00">examples/boris/bindings</text>
<text text-anchor="start" x="127.425" y="-163.5" font-family="Helvetica,sans-Serif" font-size="10.00">/wrapper_simple_physics</text>
<text text-anchor="middle" x="183.925" y="-152.5" font-family="Helvetica,sans-Serif" font-size="10.00">_solver.hpp</text>
</a>
</g>
</g>
<!-- Node1&#45;&gt;Node3 -->
<g id="edge23" class="edge"><title>Node1&#45;&gt;Node3</title>
<path fill="none" stroke="midnightblue" d="M449.159,-302.52C395.076,-298.288 320.31,-286.385 262.925,-254 233.963,-237.656 209.855,-206.854 196.161,-186.632"/>
<polygon fill="midnightblue" stroke="midnightblue" points="449.125,-306.026 459.348,-303.246 449.622,-299.044 449.125,-306.026"/>
</g>
<!-- Node5 -->
<g id="node5" class="node"><title>Node5</title>
<g id="a_node5"><a xlink:href="../../d7/d31/boris__mlsdc_8cpp.html" target="_top" xlink:title="examples/boris/boris\l_mlsdc.cpp">
<polygon fill="white" stroke="black" points="297.925,-0.5 297.925,-30.5 407.925,-30.5 407.925,-0.5 297.925,-0.5"/>
<text text-anchor="start" x="305.925" y="-18.5" font-family="Helvetica,sans-Serif" font-size="10.00">examples/boris/boris</text>
<text text-anchor="middle" x="352.925" y="-7.5" font-family="Helvetica,sans-Serif" font-size="10.00">_mlsdc.cpp</text>
</a>
</g>
</g>
<!-- Node1&#45;&gt;Node5 -->
<g id="edge24" class="edge"><title>Node1&#45;&gt;Node5</title>
<path fill="none" stroke="midnightblue" d="M448.96,-304.447C328.057,-299.868 87.4888,-270.005 7.92451,-109 -0.345371,-92.2652 -4.2816,-81.1229 7.92451,-67 44.7368,-24.4069 210.179,-17.0483 297.903,-16.2087"/>
<polygon fill="midnightblue" stroke="midnightblue" points="449.11,-307.954 459.22,-304.785 449.34,-300.957 449.11,-307.954"/>
</g>
<!-- Node6 -->
<g id="node6" class="node"><title>Node6</title>
<g id="a_node6"><a xlink:href="../../d2/d1e/boris__pfasst_8cpp.html" target="_top" xlink:title="examples/boris/boris\l_pfasst.cpp">
<polygon fill="white" stroke="black" points="464.925,-0.5 464.925,-30.5 574.925,-30.5 574.925,-0.5 464.925,-0.5"/>
<text text-anchor="start" x="472.925" y="-18.5" font-family="Helvetica,sans-Serif" font-size="10.00">examples/boris/boris</text>
<text text-anchor="middle" x="519.925" y="-7.5" font-family="Helvetica,sans-Serif" font-size="10.00">_pfasst.cpp</text>
</a>
</g>
</g>
<!-- Node1&#45;&gt;Node6 -->
<g id="edge27" class="edge"><title>Node1&#45;&gt;Node6</title>
<path fill="none" stroke="midnightblue" d="M564.368,-286.354C651.467,-248.255 830.084,-156.078 757.925,-67 735.358,-39.1428 638.074,-26.0251 575.083,-20.348"/>
<polygon fill="midnightblue" stroke="midnightblue" points="562.771,-283.231 554.977,-290.407 565.545,-289.658 562.771,-283.231"/>
</g>
<!-- Node7 -->
<g id="node7" class="node"><title>Node7</title>
<g id="a_node7"><a xlink:href="../../d3/d93/boris__sdc_8cpp.html" target="_top" xlink:title="examples/boris/boris\l_sdc.cpp">
<polygon fill="white" stroke="black" points="214.925,-73 214.925,-103 324.925,-103 324.925,-73 214.925,-73"/>
<text text-anchor="start" x="222.925" y="-91" font-family="Helvetica,sans-Serif" font-size="10.00">examples/boris/boris</text>
<text text-anchor="middle" x="269.925" y="-80" font-family="Helvetica,sans-Serif" font-size="10.00">_sdc.cpp</text>
</a>
</g>
</g>
<!-- Node1&#45;&gt;Node7 -->
<g id="edge28" class="edge"><title>Node1&#45;&gt;Node7</title>
<path fill="none" stroke="midnightblue" d="M449.32,-291.969C419.103,-284.326 384.506,-272.368 356.925,-254 324.623,-232.488 319.575,-221.035 300.925,-187 285.746,-159.301 276.737,-123.056 272.623,-103.324"/>
<polygon fill="midnightblue" stroke="midnightblue" points="448.841,-295.453 459.383,-294.398 450.484,-288.649 448.841,-295.453"/>
</g>
<!-- Node8 -->
<g id="node8" class="node"><title>Node8</title>
<g id="a_node8"><a xlink:href="../../db/dfd/boris__sweeper_8hpp.html" target="_top" xlink:title="examples/boris/boris\l_sweeper.hpp">
<polygon fill="white" stroke="black" points="464.925,-151 464.925,-181 574.925,-181 574.925,-151 464.925,-151"/>
<text text-anchor="start" x="472.925" y="-169" font-family="Helvetica,sans-Serif" font-size="10.00">examples/boris/boris</text>
<text text-anchor="middle" x="519.925" y="-158" font-family="Helvetica,sans-Serif" font-size="10.00">_sweeper.hpp</text>
</a>
</g>
</g>
<!-- Node1&#45;&gt;Node8 -->
<g id="edge25" class="edge"><title>Node1&#45;&gt;Node8</title>
<path fill="none" stroke="midnightblue" d="M519.925,-280.287C519.925,-251.607 519.925,-204.775 519.925,-181.326"/>
<polygon fill="midnightblue" stroke="midnightblue" points="516.425,-280.303 519.925,-290.303 523.425,-280.303 516.425,-280.303"/>
</g>
<!-- Node9 -->
<g id="node9" class="node"><title>Node9</title>
<g id="a_node9"><a xlink:href="../../db/d9a/boris__sweeper__impl_8hpp.html" target="_top" xlink:title="examples/boris/boris\l_sweeper_impl.hpp">
<polygon fill="white" stroke="black" points="638.925,-73 638.925,-103 748.925,-103 748.925,-73 638.925,-73"/>
<text text-anchor="start" x="646.925" y="-91" font-family="Helvetica,sans-Serif" font-size="10.00">examples/boris/boris</text>
<text text-anchor="middle" x="693.925" y="-80" font-family="Helvetica,sans-Serif" font-size="10.00">_sweeper_impl.hpp</text>
</a>
</g>
</g>
<!-- Node1&#45;&gt;Node9 -->
<g id="edge26" class="edge"><title>Node1&#45;&gt;Node9</title>
<path fill="none" stroke="midnightblue" d="M540.869,-282.978C562.905,-259.954 598.171,-222.01 625.925,-187 648.695,-158.276 672.485,-122.424 684.999,-103.032"/>
<polygon fill="midnightblue" stroke="midnightblue" points="538.344,-280.555 533.933,-290.188 543.389,-285.407 538.344,-280.555"/>
</g>
<!-- Node11 -->
<g id="node11" class="node"><title>Node11</title>
<g id="a_node11"><a xlink:href="../../d6/d1f/particle__cloud__impl_8hpp.html" target="_top" xlink:title="examples/boris/particle\l_cloud_impl.hpp">
<polygon fill="white" stroke="black" points="805.425,-223.5 805.425,-253.5 926.425,-253.5 926.425,-223.5 805.425,-223.5"/>
<text text-anchor="start" x="813.425" y="-241.5" font-family="Helvetica,sans-Serif" font-size="10.00">examples/boris/particle</text>
<text text-anchor="middle" x="865.925" y="-230.5" font-family="Helvetica,sans-Serif" font-size="10.00">_cloud_impl.hpp</text>
</a>
</g>
</g>
<!-- Node1&#45;&gt;Node11 -->
<g id="edge21" class="edge"><title>Node1&#45;&gt;Node11</title>
<path fill="none" stroke="midnightblue" d="M590.516,-290.076C643.252,-280.05 716.992,-266.327 781.925,-254 789.481,-252.565 797.464,-251.037 805.396,-249.53"/>
<polygon fill="midnightblue" stroke="midnightblue" points="589.758,-286.657 580.589,-291.967 591.068,-293.534 589.758,-286.657"/>
</g>
<!-- Node2&#45;&gt;Node3 -->
<g id="edge2" class="edge"><title>Node2&#45;&gt;Node3</title>
<path fill="none" stroke="midnightblue" d="M370.201,-220.602C333.604,-210.071 286.475,-196.51 248.78,-185.663"/>
<polygon fill="midnightblue" stroke="midnightblue" points="369.65,-224.085 380.227,-223.487 371.585,-217.358 369.65,-224.085"/>
</g>
<!-- Node2&#45;&gt;Node5 -->
<g id="edge8" class="edge"><title>Node2&#45;&gt;Node5</title>
<path fill="none" stroke="midnightblue" d="M420.703,-213.594C404.838,-167.458 370.443,-67.4412 357.754,-30.5428"/>
<polygon fill="midnightblue" stroke="midnightblue" points="417.493,-215.021 424.055,-223.339 424.112,-212.745 417.493,-215.021"/>
</g>
<!-- Node2&#45;&gt;Node6 -->
<g id="edge19" class="edge"><title>Node2&#45;&gt;Node6</title>
<path fill="none" stroke="midnightblue" d="M425.701,-213.283C422.292,-178.36 420.655,-113.007 447.925,-67 457.344,-51.1075 473.945,-38.9565 488.833,-30.5606"/>
<polygon fill="midnightblue" stroke="midnightblue" points="422.253,-213.937 426.836,-223.489 429.21,-213.164 422.253,-213.937"/>
</g>
<!-- Node2&#45;&gt;Node7 -->
<g id="edge20" class="edge"><title>Node2&#45;&gt;Node7</title>
<path fill="none" stroke="midnightblue" d="M386.651,-218.753C370.649,-210.434 352.932,-199.646 338.925,-187 311.123,-161.902 288.305,-123.648 277.207,-103.147"/>
<polygon fill="midnightblue" stroke="midnightblue" points="385.326,-222.004 395.833,-223.361 388.465,-215.748 385.326,-222.004"/>
</g>
<!-- Node2&#45;&gt;Node8 -->
<g id="edge9" class="edge"><title>Node2&#45;&gt;Node8</title>
<path fill="none" stroke="midnightblue" d="M455.66,-216.788C470.531,-205.266 488.646,-191.233 501.847,-181.005"/>
<polygon fill="midnightblue" stroke="midnightblue" points="453.101,-214.342 447.34,-223.233 457.388,-219.876 453.101,-214.342"/>
</g>
<!-- Node2&#45;&gt;Node9 -->
<g id="edge18" class="edge"><title>Node2&#45;&gt;Node9</title>
<path fill="none" stroke="midnightblue" d="M501.161,-220.68C528.176,-212.692 558.461,-201.626 583.925,-187 624.29,-163.815 662.858,-124.064 681.783,-103.02"/>
<polygon fill="midnightblue" stroke="midnightblue" points="500.02,-217.366 491.371,-223.485 501.948,-224.096 500.02,-217.366"/>
</g>
<!-- Node4 -->
<g id="node4" class="node"><title>Node4</title>
<g id="a_node4"><a xlink:href="../../d5/d9e/wrapper__simple__physics__solver__impl_8hpp.html" target="_top" xlink:title="examples/boris/bindings\l/wrapper_simple_physics\l_solver_impl.hpp">
<polygon fill="white" stroke="black" points="29.4245,-67.5 29.4245,-108.5 158.425,-108.5 158.425,-67.5 29.4245,-67.5"/>
<text text-anchor="start" x="37.4245" y="-96.5" font-family="Helvetica,sans-Serif" font-size="10.00">examples/boris/bindings</text>
<text text-anchor="start" x="37.4245" y="-85.5" font-family="Helvetica,sans-Serif" font-size="10.00">/wrapper_simple_physics</text>
<text text-anchor="middle" x="93.9245" y="-74.5" font-family="Helvetica,sans-Serif" font-size="10.00">_solver_impl.hpp</text>
</a>
</g>
</g>
<!-- Node3&#45;&gt;Node4 -->
<g id="edge3" class="edge"><title>Node3&#45;&gt;Node4</title>
<path fill="none" stroke="midnightblue" d="M146.774,-139.065C134.389,-129.057 121.215,-117.804 111.041,-108.506"/>
<polygon fill="midnightblue" stroke="midnightblue" points="144.757,-141.933 154.759,-145.428 149.12,-136.459 144.757,-141.933"/>
</g>
<!-- Node3&#45;&gt;Node5 -->
<g id="edge5" class="edge"><title>Node3&#45;&gt;Node5</title>
<path fill="none" stroke="midnightblue" d="M109.028,-158.625C76.082,-151.656 40.3068,-137.498 19.9245,-109 9.06526,-93.8171 7.75488,-81.1543 19.9245,-67 55.0916,-26.0977 212.533,-17.9219 297.736,-16.5456"/>
<polygon fill="midnightblue" stroke="midnightblue" points="108.661,-162.118 119.142,-160.564 109.98,-155.243 108.661,-162.118"/>
</g>
<!-- Node3&#45;&gt;Node6 -->
<g id="edge6" class="edge"><title>Node3&#45;&gt;Node6</title>
<path fill="none" stroke="midnightblue" d="M182.365,-135.189C182.934,-113.21 187.585,-84.247 205.925,-67 210.625,-62.579 376.004,-37.6708 464.812,-24.5649"/>
<polygon fill="midnightblue" stroke="midnightblue" points="178.865,-135.338 182.371,-145.335 185.865,-135.333 178.865,-135.338"/>
</g>
<!-- Node3&#45;&gt;Node7 -->
<g id="edge7" class="edge"><title>Node3&#45;&gt;Node7</title>
<path fill="none" stroke="midnightblue" d="M213.732,-138.658C227.195,-126.761 242.568,-113.176 253.827,-103.225"/>
<polygon fill="midnightblue" stroke="midnightblue" points="211.247,-136.183 206.072,-145.428 215.883,-141.429 211.247,-136.183"/>
</g>
<!-- Node4&#45;&gt;Node3 -->
<g id="edge4" class="edge"><title>Node4&#45;&gt;Node3</title>
<path fill="none" stroke="midnightblue" d="M130.987,-114.864C143.368,-124.865 156.547,-136.12 166.736,-145.428"/>
<polygon fill="midnightblue" stroke="midnightblue" points="133.008,-111.999 123.005,-108.506 128.646,-117.474 133.008,-111.999"/>
</g>
<!-- Node8&#45;&gt;Node5 -->
<g id="edge10" class="edge"><title>Node8&#45;&gt;Node5</title>
<path fill="none" stroke="midnightblue" d="M492.429,-144.751C478.761,-134.402 462.165,-121.403 447.925,-109 417.72,-82.6926 384.687,-49.4141 366.625,-30.7942"/>
<polygon fill="midnightblue" stroke="midnightblue" points="490.416,-147.616 500.513,-150.823 494.619,-142.019 490.416,-147.616"/>
</g>
<!-- Node8&#45;&gt;Node6 -->
<g id="edge16" class="edge"><title>Node8&#45;&gt;Node6</title>
<path fill="none" stroke="midnightblue" d="M557.076,-145.228C570.289,-136.107 583.676,-123.948 590.925,-109 599.069,-92.2037 599.483,-83.5892 590.925,-67 582.672,-51.0029 566.75,-38.9661 552.072,-30.6644"/>
<polygon fill="midnightblue" stroke="midnightblue" points="554.982,-142.414 548.485,-150.782 558.783,-148.292 554.982,-142.414"/>
</g>
<!-- Node8&#45;&gt;Node7 -->
<g id="edge17" class="edge"><title>Node8&#45;&gt;Node7</title>
<path fill="none" stroke="midnightblue" d="M463.992,-147.996C419.496,-134.47 357.983,-115.77 316.224,-103.075"/>
<polygon fill="midnightblue" stroke="midnightblue" points="463.194,-151.412 473.779,-150.972 465.23,-144.715 463.194,-151.412"/>
</g>
<!-- Node8&#45;&gt;Node9 -->
<g id="edge11" class="edge"><title>Node8&#45;&gt;Node9</title>
<path fill="none" stroke="midnightblue" d="M555.956,-146.699C585.353,-133.282 626.603,-115.336 656.4,-103.041"/>
<polygon fill="midnightblue" stroke="midnightblue" points="554.48,-143.525 546.857,-150.883 557.405,-149.885 554.48,-143.525"/>
</g>
<!-- Node10 -->
<g id="node10" class="node"><title>Node10</title>
<g id="a_node10"><a xlink:href="../../d2/dc5/injective__transfer_8hpp.html" target="_top" xlink:title="examples/boris/injective\l_transfer.hpp">
<polygon fill="white" stroke="black" points="457.425,-73 457.425,-103 582.425,-103 582.425,-73 457.425,-73"/>
<text text-anchor="start" x="465.425" y="-91" font-family="Helvetica,sans-Serif" font-size="10.00">examples/boris/injective</text>
<text text-anchor="middle" x="519.925" y="-80" font-family="Helvetica,sans-Serif" font-size="10.00">_transfer.hpp</text>
</a>
</g>
</g>
<!-- Node8&#45;&gt;Node10 -->
<g id="edge13" class="edge"><title>Node8&#45;&gt;Node10</title>
<path fill="none" stroke="midnightblue" d="M519.925,-140.59C519.925,-128.257 519.925,-113.724 519.925,-103.231"/>
<polygon fill="midnightblue" stroke="midnightblue" points="516.425,-140.705 519.925,-150.705 523.425,-140.705 516.425,-140.705"/>
</g>
<!-- Node9&#45;&gt;Node8 -->
<g id="edge12" class="edge"><title>Node9&#45;&gt;Node8</title>
<path fill="none" stroke="midnightblue" d="M657.692,-107.393C628.368,-120.773 587.346,-138.619 557.633,-150.883"/>
<polygon fill="midnightblue" stroke="midnightblue" points="659.532,-110.399 667.155,-103.041 656.607,-104.039 659.532,-110.399"/>
</g>
<!-- Node10&#45;&gt;Node5 -->
<g id="edge14" class="edge"><title>Node10&#45;&gt;Node5</title>
<path fill="none" stroke="midnightblue" d="M477.284,-68.9991C448.999,-57.0585 412.413,-41.6135 386.26,-30.5729"/>
<polygon fill="midnightblue" stroke="midnightblue" points="475.957,-72.2379 486.531,-72.9027 478.679,-65.789 475.957,-72.2379"/>
</g>
<!-- Node10&#45;&gt;Node6 -->
<g id="edge15" class="edge"><title>Node10&#45;&gt;Node6</title>
<path fill="none" stroke="midnightblue" d="M519.925,-62.7317C519.925,-52.0679 519.925,-39.9145 519.925,-30.7455"/>
<polygon fill="midnightblue" stroke="midnightblue" points="516.425,-62.7332 519.925,-72.7333 523.425,-62.7333 516.425,-62.7332"/>
</g>
<!-- Node11&#45;&gt;Node1 -->
<g id="edge22" class="edge"><title>Node11&#45;&gt;Node1</title>
<path fill="none" stroke="midnightblue" d="M795.127,-254.907C717.474,-269.621 635.037,-284.903 580.469,-294.594"/>
<polygon fill="midnightblue" stroke="midnightblue" points="795.89,-258.325 805.062,-253.022 794.585,-251.447 795.89,-258.325"/>
</g>
</g>
</svg>
