<?xml version="1.0" encoding="UTF-8" standalone="no"?>
<!DOCTYPE svg PUBLIC "-//W3C//DTD SVG 1.1//EN"
 "http://www.w3.org/Graphics/SVG/1.1/DTD/svg11.dtd">
<!-- Generated by graphviz version 2.38.0 (20140413.2041)
 -->
<!-- Title: pfasst::mpi::MPIStatus Pages: 1 -->
<svg width="422pt" height="689pt"
 viewBox="0.00 0.00 421.50 689.00" xmlns="http://www.w3.org/2000/svg" xmlns:xlink="http://www.w3.org/1999/xlink">
<g id="graph0" class="graph" transform="scale(1 1) rotate(0) translate(4 685)">
<title>pfasst::mpi::MPIStatus</title>
<polygon fill="white" stroke="none" points="-4,4 -4,-685 417.5,-685 417.5,4 -4,4"/>
<!-- Node1 -->
<g id="node1" class="node"><title>Node1</title>
<polygon fill="#bfbfbf" stroke="black" points="159.5,-0.5 159.5,-123.5 275.5,-123.5 275.5,-0.5 159.5,-0.5"/>
<text text-anchor="middle" x="217.5" y="-111.5" font-family="Helvetica,sans-Serif" font-size="10.00">pfasst::mpi::MPIStatus</text>
<polyline fill="none" stroke="black" points="159.5,-104.5 275.5,-104.5 "/>
<text text-anchor="middle" x="217.5" y="-92.5" font-family="Helvetica,sans-Serif" font-size="10.00"> </text>
<polyline fill="none" stroke="black" points="159.5,-85.5 275.5,-85.5 "/>
<text text-anchor="start" x="167.5" y="-73.5" font-family="Helvetica,sans-Serif" font-size="10.00">+ set_comm()</text>
<text text-anchor="start" x="167.5" y="-62.5" font-family="Helvetica,sans-Serif" font-size="10.00">+ clear()</text>
<text text-anchor="start" x="167.5" y="-51.5" font-family="Helvetica,sans-Serif" font-size="10.00">+ set_converged()</text>
<text text-anchor="start" x="167.5" y="-40.5" font-family="Helvetica,sans-Serif" font-size="10.00">+ get_converged()</text>
<text text-anchor="start" x="167.5" y="-29.5" font-family="Helvetica,sans-Serif" font-size="10.00">+ post()</text>
<text text-anchor="start" x="167.5" y="-18.5" font-family="Helvetica,sans-Serif" font-size="10.00">+ send()</text>
<text text-anchor="start" x="167.5" y="-7.5" font-family="Helvetica,sans-Serif" font-size="10.00">+ recv()</text>
</g>
<!-- Node2 -->
<g id="node2" class="node"><title>Node2</title>
<g id="a_node2"><a xlink:href="../../da/da9/classpfasst_1_1IStatus.html" target="_top" xlink:title="Abstract interface for the current status of the algorithm. ">
<polygon fill="white" stroke="black" points="0,-171.5 0,-437.5 123,-437.5 123,-171.5 0,-171.5"/>
<text text-anchor="middle" x="61.5" y="-425.5" font-family="Helvetica,sans-Serif" font-size="10.00">pfasst::IStatus</text>
<polyline fill="none" stroke="black" points="0,-418.5 123,-418.5 "/>
<text text-anchor="start" x="8" y="-406.5" font-family="Helvetica,sans-Serif" font-size="10.00">+ NOT_CONVERGED</text>
<text text-anchor="start" x="8" y="-395.5" font-family="Helvetica,sans-Serif" font-size="10.00">+ CONVERGED</text>
<polyline fill="none" stroke="black" points="0,-388.5 123,-388.5 "/>
<text text-anchor="start" x="8" y="-376.5" font-family="Helvetica,sans-Serif" font-size="10.00">+ ~IStatus()</text>
<text text-anchor="start" x="8" y="-365.5" font-family="Helvetica,sans-Serif" font-size="10.00">+ clear()</text>
<text text-anchor="start" x="8" y="-354.5" font-family="Helvetica,sans-Serif" font-size="10.00">+ set_converged()</text>
<text text-anchor="start" x="8" y="-343.5" font-family="Helvetica,sans-Serif" font-size="10.00">+ get_converged()</text>
<text text-anchor="start" x="8" y="-332.5" font-family="Helvetica,sans-Serif" font-size="10.00">+ set_comm()</text>
<text text-anchor="start" x="8" y="-321.5" font-family="Helvetica,sans-Serif" font-size="10.00">+ previous_is_iterating()</text>
<text text-anchor="start" x="8" y="-310.5" font-family="Helvetica,sans-Serif" font-size="10.00">+ keep_iterating()</text>
<text text-anchor="start" x="8" y="-299.5" font-family="Helvetica,sans-Serif" font-size="10.00">+ post()</text>
<text text-anchor="start" x="8" y="-288.5" font-family="Helvetica,sans-Serif" font-size="10.00">+ send()</text>
<text text-anchor="start" x="8" y="-277.5" font-family="Helvetica,sans-Serif" font-size="10.00">+ recv()</text>
<text text-anchor="start" x="8" y="-266.5" font-family="Helvetica,sans-Serif" font-size="10.00">* clear()</text>
<text text-anchor="start" x="8" y="-255.5" font-family="Helvetica,sans-Serif" font-size="10.00">* set_converged()</text>
<text text-anchor="start" x="8" y="-244.5" font-family="Helvetica,sans-Serif" font-size="10.00">* get_converged()</text>
<text text-anchor="start" x="8" y="-233.5" font-family="Helvetica,sans-Serif" font-size="10.00">* set_comm()</text>
<text text-anchor="start" x="8" y="-222.5" font-family="Helvetica,sans-Serif" font-size="10.00">* previous_is_iterating()</text>
<text text-anchor="start" x="8" y="-211.5" font-family="Helvetica,sans-Serif" font-size="10.00">* keep_iterating()</text>
<text text-anchor="start" x="8" y="-200.5" font-family="Helvetica,sans-Serif" font-size="10.00">* post()</text>
<text text-anchor="start" x="8" y="-189.5" font-family="Helvetica,sans-Serif" font-size="10.00">* send()</text>
<text text-anchor="start" x="8" y="-178.5" font-family="Helvetica,sans-Serif" font-size="10.00">* recv()</text>
</a>
</g>
</g>
<!-- Node2&#45;&gt;Node1 -->
<g id="edge1" class="edge"><title>Node2&#45;&gt;Node1</title>
<path fill="none" stroke="midnightblue" d="M128.57,-175.534C129.544,-174.009 130.521,-172.497 131.5,-171 141.865,-155.154 154.023,-138.803 165.88,-123.768"/>
<polygon fill="none" stroke="midnightblue" points="125.359,-174.068 123.023,-184.402 131.293,-177.78 125.359,-174.068"/>
</g>
<!-- Node3 -->
<g id="node3" class="node"><title>Node3</title>
<g id="a_node3"><a xlink:href="../../d5/d14/classpfasst_1_1ICommunicator.html" target="_top" xlink:title="Abstract interface for communicators. ">
<polygon fill="white" stroke="black" points="40.5,-485.5 40.5,-564.5 156.5,-564.5 156.5,-485.5 40.5,-485.5"/>
<text text-anchor="middle" x="98.5" y="-552.5" font-family="Helvetica,sans-Serif" font-size="10.00">pfasst::ICommunicator</text>
<polyline fill="none" stroke="black" points="40.5,-545.5 156.5,-545.5 "/>
<text text-anchor="start" x="48.5" y="-533.5" font-family="Helvetica,sans-Serif" font-size="10.00">+ status</text>
<polyline fill="none" stroke="black" points="40.5,-526.5 156.5,-526.5 "/>
<text text-anchor="start" x="48.5" y="-514.5" font-family="Helvetica,sans-Serif" font-size="10.00">+ ~ICommunicator()</text>
<text text-anchor="start" x="48.5" y="-503.5" font-family="Helvetica,sans-Serif" font-size="10.00">+ size()</text>
<text text-anchor="start" x="48.5" y="-492.5" font-family="Helvetica,sans-Serif" font-size="10.00">+ rank()</text>
</a>
</g>
</g>
<!-- Node3&#45;&gt;Node2 -->
<g id="edge2" class="edge"><title>Node3&#45;&gt;Node2</title>
<path fill="none" stroke="#404040" d="M91.9703,-485.44C90.1755,-474.84 88.1172,-462.685 85.9357,-449.803"/>
<polygon fill="none" stroke="#404040" points="85.9053,-449.623 80.9597,-444.375 83.9017,-437.791 88.8474,-443.039 85.9053,-449.623"/>
<text text-anchor="middle" x="108" y="-459" font-family="Helvetica,sans-Serif" font-size="10.00"> #comm</text>
</g>
<!-- Node4 -->
<g id="node4" class="node"><title>Node4</title>
<g id="a_node4"><a xlink:href="../../de/dd3/classpfasst_1_1mpi_1_1MPICommunicator.html" target="_top" xlink:title="{pfasst::mpi::MPICommunicator\n|+ comm\l&#45; _rank\l&#45; _size\l|+ MPICommunicator()\l+ MPICommunicator()\l+ set_comm()\l+ size()\l+ rank()\l+ name()\l* _rank\l* _size\l* comm\l* MPICommunicator()\l* MPICommunicator()\l* set_comm()\l* size()\l* rank()\l* name()\l}">
<polygon fill="white" stroke="black" points="141,-188 141,-421 294,-421 294,-188 141,-188"/>
<text text-anchor="middle" x="217.5" y="-409" font-family="Helvetica,sans-Serif" font-size="10.00">pfasst::mpi::MPICommunicator</text>
<polyline fill="none" stroke="black" points="141,-402 294,-402 "/>
<text text-anchor="start" x="149" y="-390" font-family="Helvetica,sans-Serif" font-size="10.00">+ comm</text>
<text text-anchor="start" x="149" y="-379" font-family="Helvetica,sans-Serif" font-size="10.00">&#45; _rank</text>
<text text-anchor="start" x="149" y="-368" font-family="Helvetica,sans-Serif" font-size="10.00">&#45; _size</text>
<polyline fill="none" stroke="black" points="141,-361 294,-361 "/>
<text text-anchor="start" x="149" y="-349" font-family="Helvetica,sans-Serif" font-size="10.00">+ MPICommunicator()</text>
<text text-anchor="start" x="149" y="-338" font-family="Helvetica,sans-Serif" font-size="10.00">+ MPICommunicator()</text>
<text text-anchor="start" x="149" y="-327" font-family="Helvetica,sans-Serif" font-size="10.00">+ set_comm()</text>
<text text-anchor="start" x="149" y="-316" font-family="Helvetica,sans-Serif" font-size="10.00">+ size()</text>
<text text-anchor="start" x="149" y="-305" font-family="Helvetica,sans-Serif" font-size="10.00">+ rank()</text>
<text text-anchor="start" x="149" y="-294" font-family="Helvetica,sans-Serif" font-size="10.00">+ name()</text>
<text text-anchor="start" x="149" y="-283" font-family="Helvetica,sans-Serif" font-size="10.00">* _rank</text>
<text text-anchor="start" x="149" y="-272" font-family="Helvetica,sans-Serif" font-size="10.00">* _size</text>
<text text-anchor="start" x="149" y="-261" font-family="Helvetica,sans-Serif" font-size="10.00">* comm</text>
<text text-anchor="start" x="149" y="-250" font-family="Helvetica,sans-Serif" font-size="10.00">* MPICommunicator()</text>
<text text-anchor="start" x="149" y="-239" font-family="Helvetica,sans-Serif" font-size="10.00">* MPICommunicator()</text>
<text text-anchor="start" x="149" y="-228" font-family="Helvetica,sans-Serif" font-size="10.00">* set_comm()</text>
<text text-anchor="start" x="149" y="-217" font-family="Helvetica,sans-Serif" font-size="10.00">* size()</text>
<text text-anchor="start" x="149" y="-206" font-family="Helvetica,sans-Serif" font-size="10.00">* rank()</text>
<text text-anchor="start" x="149" y="-195" font-family="Helvetica,sans-Serif" font-size="10.00">* name()</text>
</a>
</g>
</g>
<!-- Node3&#45;&gt;Node4 -->
<g id="edge4" class="edge"><title>Node3&#45;&gt;Node4</title>
<path fill="none" stroke="midnightblue" d="M125.288,-476.429C127.058,-473.242 128.808,-470.076 130.5,-467 138.634,-452.21 147.13,-436.622 155.488,-421.2"/>
<polygon fill="none" stroke="midnightblue" points="122.09,-474.978 120.28,-485.418 128.204,-478.385 122.09,-474.978"/>
</g>
<!-- Node4&#45;&gt;Node1 -->
<g id="edge3" class="edge"><title>Node4&#45;&gt;Node1</title>
<path fill="none" stroke="#404040" d="M217.5,-187.829C217.5,-170.185 217.5,-152.409 217.5,-136.024"/>
<polygon fill="none" stroke="#404040" points="217.5,-135.79 213.5,-129.79 217.5,-123.79 221.5,-129.79 217.5,-135.79"/>
<text text-anchor="middle" x="230" y="-145" font-family="Helvetica,sans-Serif" font-size="10.00"> #mpi</text>
</g>
<!-- Node5 -->
<g id="node5" class="node"><title>Node5</title>
<g id="a_node5"><a xlink:title="STL class. ">
<polygon fill="white" stroke="#bfbfbf" points="187.5,-496.5 187.5,-553.5 247.5,-553.5 247.5,-496.5 187.5,-496.5"/>
<text text-anchor="middle" x="217.5" y="-541.5" font-family="Helvetica,sans-Serif" font-size="10.00">std::string</text>
<polyline fill="none" stroke="#bfbfbf" points="187.5,-534.5 247.5,-534.5 "/>
<text text-anchor="middle" x="217.5" y="-522.5" font-family="Helvetica,sans-Serif" font-size="10.00"> </text>
<polyline fill="none" stroke="#bfbfbf" points="187.5,-515.5 247.5,-515.5 "/>
<text text-anchor="middle" x="217.5" y="-503.5" font-family="Helvetica,sans-Serif" font-size="10.00"> </text>
</a>
</g>
</g>
<!-- Node5&#45;&gt;Node4 -->
<g id="edge5" class="edge"><title>Node5&#45;&gt;Node4</title>
<path fill="none" stroke="#404040" d="M217.5,-496.327C217.5,-479.626 217.5,-457.017 217.5,-433.204"/>
<polygon fill="none" stroke="#404040" points="217.5,-433.053 213.5,-427.053 217.5,-421.053 221.5,-427.053 217.5,-433.053"/>
<text text-anchor="middle" x="236" y="-459" font-family="Helvetica,sans-Serif" font-size="10.00"> &#45;_name</text>
</g>
<!-- Node6 -->
<g id="node6" class="node"><title>Node6</title>
<g id="a_node6"><a xlink:title="STL class. ">
<polygon fill="white" stroke="#bfbfbf" points="170,-612.5 170,-680.5 265,-680.5 265,-612.5 170,-612.5"/>
<text text-anchor="start" x="178" y="-668.5" font-family="Helvetica,sans-Serif" font-size="10.00">std::basic_string&lt;</text>
<text text-anchor="middle" x="217.5" y="-657.5" font-family="Helvetica,sans-Serif" font-size="10.00"> char &gt;</text>
<polyline fill="none" stroke="#bfbfbf" points="170,-650.5 265,-650.5 "/>
<text text-anchor="middle" x="217.5" y="-638.5" font-family="Helvetica,sans-Serif" font-size="10.00"> </text>
<polyline fill="none" stroke="#bfbfbf" points="170,-631.5 265,-631.5 "/>
<text text-anchor="middle" x="217.5" y="-619.5" font-family="Helvetica,sans-Serif" font-size="10.00"> </text>
</a>
</g>
</g>
<!-- Node6&#45;&gt;Node5 -->
<g id="edge6" class="edge"><title>Node6&#45;&gt;Node5</title>
<path fill="none" stroke="midnightblue" d="M217.5,-601.959C217.5,-585.903 217.5,-568.158 217.5,-553.86"/>
<polygon fill="none" stroke="midnightblue" points="214,-602.213 217.5,-612.213 221,-602.213 214,-602.213"/>
</g>
<!-- Node7 -->
<g id="node7" class="node"><title>Node7</title>
<polygon fill="white" stroke="#bfbfbf" points="312,-276 312,-333 413,-333 413,-276 312,-276"/>
<text text-anchor="middle" x="362.5" y="-321" font-family="Helvetica,sans-Serif" font-size="10.00">std::vector&lt; bool &gt;</text>
<polyline fill="none" stroke="#bfbfbf" points="312,-314 413,-314 "/>
<text text-anchor="start" x="320" y="-302" font-family="Helvetica,sans-Serif" font-size="10.00">+ elements</text>
<polyline fill="none" stroke="#bfbfbf" points="312,-295 413,-295 "/>
<text text-anchor="middle" x="362.5" y="-283" font-family="Helvetica,sans-Serif" font-size="10.00"> </text>
</g>
<!-- Node7&#45;&gt;Node1 -->
<g id="edge7" class="edge"><title>Node7&#45;&gt;Node1</title>
<path fill="none" stroke="#404040" d="M352.266,-275.885C341.559,-248.385 323.415,-205.421 302.5,-171 294.825,-158.369 285.888,-145.528 276.749,-133.317"/>
<polygon fill="none" stroke="#404040" points="276.674,-133.218 269.855,-130.873 269.397,-123.676 276.216,-126.022 276.674,-133.218"/>
<text text-anchor="middle" x="319.5" y="-145" font-family="Helvetica,sans-Serif" font-size="10.00"> #converged</text>
</g>
<!-- Node8 -->
<g id="node8" class="node"><title>Node8</title>
<g id="a_node8"><a xlink:title="STL class. ">
<polygon fill="white" stroke="#bfbfbf" points="318,-496.5 318,-553.5 407,-553.5 407,-496.5 318,-496.5"/>
<text text-anchor="middle" x="362.5" y="-541.5" font-family="Helvetica,sans-Serif" font-size="10.00">std::vector&lt; T &gt;</text>
<polyline fill="none" stroke="#bfbfbf" points="318,-534.5 407,-534.5 "/>
<text text-anchor="middle" x="362.5" y="-522.5" font-family="Helvetica,sans-Serif" font-size="10.00"> </text>
<polyline fill="none" stroke="#bfbfbf" points="318,-515.5 407,-515.5 "/>
<text text-anchor="middle" x="362.5" y="-503.5" font-family="Helvetica,sans-Serif" font-size="10.00"> </text>
</a>
</g>
</g>
<!-- Node8&#45;&gt;Node7 -->
<g id="edge8" class="edge"><title>Node8&#45;&gt;Node7</title>
<path fill="none" stroke="orange" d="M362.5,-486.134C362.5,-442.572 362.5,-372.08 362.5,-333.293"/>
<polygon fill="orange" stroke="orange" points="359,-486.327 362.5,-496.327 366,-486.327 359,-486.327"/>
<text text-anchor="middle" x="383" y="-459" font-family="Helvetica,sans-Serif" font-size="10.00"> &lt; bool &gt;</text>
</g>
<!-- Node9 -->
<g id="node9" class="node"><title>Node9</title>
<polygon fill="white" stroke="#bfbfbf" points="348,-618 348,-675 377,-675 377,-618 348,-618"/>
<text text-anchor="middle" x="362.5" y="-663" font-family="Helvetica,sans-Serif" font-size="10.00">T</text>
<polyline fill="none" stroke="#bfbfbf" points="348,-656 377,-656 "/>
<text text-anchor="middle" x="362.5" y="-644" font-family="Helvetica,sans-Serif" font-size="10.00"> </text>
<polyline fill="none" stroke="#bfbfbf" points="348,-637 377,-637 "/>
<text text-anchor="middle" x="362.5" y="-625" font-family="Helvetica,sans-Serif" font-size="10.00"> </text>
</g>
<!-- Node9&#45;&gt;Node8 -->
<g id="edge9" class="edge"><title>Node9&#45;&gt;Node8</title>
<path fill="none" stroke="#404040" d="M362.5,-617.784C362.5,-602.4 362.5,-582.993 362.5,-565.992"/>
<polygon fill="none" stroke="#404040" points="362.5,-565.566 358.5,-559.566 362.5,-553.566 366.5,-559.566 362.5,-565.566"/>
<text text-anchor="middle" x="388" y="-586" font-family="Helvetica,sans-Serif" font-size="10.00"> +elements</text>
</g>
</g>
</svg>
