<?xml version="1.0" encoding="UTF-8" standalone="no"?>
<!DOCTYPE svg PUBLIC "-//W3C//DTD SVG 1.1//EN"
 "http://www.w3.org/Graphics/SVG/1.1/DTD/svg11.dtd">
<!-- Generated by graphviz version 2.38.0 (20140413.2041)
 -->
<!-- Title: include/pfasst/quadrature/clenshaw_curtis.hpp Pages: 1 -->
<svg width="971pt" height="464pt"
 viewBox="0.00 0.00 971.39 464.00" xmlns="http://www.w3.org/2000/svg" xmlns:xlink="http://www.w3.org/1999/xlink">
<g id="graph0" class="graph" transform="scale(1 1) rotate(0) translate(4 460)">
<title>include/pfasst/quadrature/clenshaw_curtis.hpp</title>
<polygon fill="white" stroke="none" points="-4,4 -4,-460 967.386,-460 967.386,4 -4,4"/>
<!-- Node1 -->
<g id="node1" class="node"><title>Node1</title>
<polygon fill="#bfbfbf" stroke="black" points="469.11,-425.5 469.11,-455.5 599.11,-455.5 599.11,-425.5 469.11,-425.5"/>
<text text-anchor="start" x="477.11" y="-443.5" font-family="Helvetica,sans-Serif" font-size="10.00">include/pfasst/quadrature</text>
<text text-anchor="middle" x="534.11" y="-432.5" font-family="Helvetica,sans-Serif" font-size="10.00">/clenshaw_curtis.hpp</text>
</g>
<!-- Node2 -->
<g id="node2" class="node"><title>Node2</title>
<polygon fill="white" stroke="#bfbfbf" points="466.11,-168.5 466.11,-187.5 516.11,-187.5 516.11,-168.5 466.11,-168.5"/>
<text text-anchor="middle" x="491.11" y="-175.5" font-family="Helvetica,sans-Serif" font-size="10.00">cassert</text>
</g>
<!-- Node1&#45;&gt;Node2 -->
<g id="edge1" class="edge"><title>Node1&#45;&gt;Node2</title>
<path fill="none" stroke="midnightblue" d="M468.847,-426.044C436.771,-417.916 398.212,-405.821 366.11,-389 294.769,-351.619 264.657,-332.876 244.11,-255 240.595,-241.678 235.284,-234.579 244.11,-224 257.566,-207.87 390.809,-190.516 455.81,-182.928"/>
<polygon fill="midnightblue" stroke="midnightblue" points="456.465,-186.375 465.999,-181.753 455.664,-179.422 456.465,-186.375"/>
</g>
<!-- Node3 -->
<g id="node3" class="node"><title>Node3</title>
<polygon fill="white" stroke="#bfbfbf" points="786.11,-230 786.11,-249 830.11,-249 830.11,-230 786.11,-230"/>
<text text-anchor="middle" x="808.11" y="-237" font-family="Helvetica,sans-Serif" font-size="10.00">vector</text>
</g>
<!-- Node1&#45;&gt;Node3 -->
<g id="edge2" class="edge"><title>Node1&#45;&gt;Node3</title>
<path fill="none" stroke="midnightblue" d="M599.32,-430.959C706.652,-415.416 912.983,-378.775 956.11,-322 989.627,-277.875 893.09,-254.493 840.186,-245.267"/>
<polygon fill="midnightblue" stroke="midnightblue" points="840.677,-241.801 830.238,-243.609 839.526,-248.706 840.677,-241.801"/>
</g>
<!-- Node4 -->
<g id="node4" class="node"><title>Node4</title>
<g id="a_node4"><a xlink:href="../../d1/d1b/interfaces_8hpp.html" target="_top" xlink:title="interfaces for SDC/MLSDC/PFASST algorithms. ">
<polygon fill="white" stroke="black" points="77.6098,-297 77.6098,-316 184.61,-316 184.61,-297 77.6098,-297"/>
<text text-anchor="middle" x="131.11" y="-304" font-family="Helvetica,sans-Serif" font-size="10.00">pfasst/interfaces.hpp</text>
</a>
</g>
</g>
<!-- Node1&#45;&gt;Node4 -->
<g id="edge3" class="edge"><title>Node1&#45;&gt;Node4</title>
<path fill="none" stroke="midnightblue" d="M469.088,-434.193C388.078,-426.75 254.962,-411.546 211.11,-389 181.561,-373.808 156.417,-343.582 142.573,-324.515"/>
<polygon fill="midnightblue" stroke="midnightblue" points="145.324,-322.342 136.715,-316.166 139.594,-326.362 145.324,-322.342"/>
</g>
<!-- Node22 -->
<g id="node22" class="node"><title>Node22</title>
<g id="a_node22"><a xlink:href="../../df/dea/quadrature_2interface_8hpp.html" target="_top" xlink:title="pfasst/quadrature/interface.hpp">
<polygon fill="white" stroke="black" points="375.11,-364 375.11,-383 529.11,-383 529.11,-364 375.11,-364"/>
<text text-anchor="middle" x="452.11" y="-371" font-family="Helvetica,sans-Serif" font-size="10.00">pfasst/quadrature/interface.hpp</text>
</a>
</g>
</g>
<!-- Node1&#45;&gt;Node22 -->
<g id="edge30" class="edge"><title>Node1&#45;&gt;Node22</title>
<path fill="none" stroke="midnightblue" d="M516.317,-425.396C503.025,-414.86 484.881,-400.477 471.271,-389.689"/>
<polygon fill="midnightblue" stroke="midnightblue" points="473.089,-386.664 463.078,-383.195 468.741,-392.149 473.089,-386.664"/>
</g>
<!-- Node30 -->
<g id="node30" class="node"><title>Node30</title>
<g id="a_node30"><a xlink:href="../../d7/d56/clenshaw__curtis__impl_8hpp.html" target="_top" xlink:title="pfasst/quadrature/clenshaw\l_curtis_impl.hpp">
<polygon fill="white" stroke="black" points="547.11,-358.5 547.11,-388.5 687.11,-388.5 687.11,-358.5 547.11,-358.5"/>
<text text-anchor="start" x="555.11" y="-376.5" font-family="Helvetica,sans-Serif" font-size="10.00">pfasst/quadrature/clenshaw</text>
<text text-anchor="middle" x="617.11" y="-365.5" font-family="Helvetica,sans-Serif" font-size="10.00">_curtis_impl.hpp</text>
</a>
</g>
</g>
<!-- Node1&#45;&gt;Node30 -->
<g id="edge46" class="edge"><title>Node1&#45;&gt;Node30</title>
<path fill="none" stroke="midnightblue" d="M546.441,-425.396C556.786,-416.367 571.719,-404.514 585.261,-394.518"/>
<polygon fill="midnightblue" stroke="midnightblue" points="587.417,-397.279 593.46,-388.577 583.309,-391.611 587.417,-397.279"/>
</g>
<!-- Node5 -->
<g id="node5" class="node"><title>Node5</title>
<polygon fill="white" stroke="#bfbfbf" points="11.6098,-168.5 11.6098,-187.5 64.6098,-187.5 64.6098,-168.5 11.6098,-168.5"/>
<text text-anchor="middle" x="38.1098" y="-175.5" font-family="Helvetica,sans-Serif" font-size="10.00">memory</text>
</g>
<!-- Node4&#45;&gt;Node5 -->
<g id="edge4" class="edge"><title>Node4&#45;&gt;Node5</title>
<path fill="none" stroke="midnightblue" d="M110.756,-296.982C93.5824,-288.744 69.6879,-274.62 56.1098,-255 44.3232,-237.969 40.1937,-214.204 38.7801,-197.805"/>
<polygon fill="midnightblue" stroke="midnightblue" points="42.2725,-197.571 38.1745,-187.801 35.2853,-197.994 42.2725,-197.571"/>
</g>
<!-- Node6 -->
<g id="node6" class="node"><title>Node6</title>
<polygon fill="white" stroke="#bfbfbf" points="253.11,-230 253.11,-249 313.11,-249 313.11,-230 253.11,-230"/>
<text text-anchor="middle" x="283.11" y="-237" font-family="Helvetica,sans-Serif" font-size="10.00">stdexcept</text>
</g>
<!-- Node4&#45;&gt;Node6 -->
<g id="edge5" class="edge"><title>Node4&#45;&gt;Node6</title>
<path fill="none" stroke="midnightblue" d="M151.294,-296.869C177.414,-285.699 223.136,-266.147 253.271,-253.26"/>
<polygon fill="midnightblue" stroke="midnightblue" points="255.023,-256.317 262.842,-249.167 252.271,-249.881 255.023,-256.317"/>
</g>
<!-- Node7 -->
<g id="node7" class="node"><title>Node7</title>
<polygon fill="white" stroke="#bfbfbf" points="91.6098,-56.5 91.6098,-75.5 132.61,-75.5 132.61,-56.5 91.6098,-56.5"/>
<text text-anchor="middle" x="112.11" y="-63.5" font-family="Helvetica,sans-Serif" font-size="10.00">string</text>
</g>
<!-- Node4&#45;&gt;Node7 -->
<g id="edge6" class="edge"><title>Node4&#45;&gt;Node7</title>
<path fill="none" stroke="midnightblue" d="M107.916,-296.839C88.0426,-288.508 59.6197,-274.329 40.1098,-255 15.7906,-230.906 10.8432,-221.101 2.1098,-188 -10.7551,-139.24 47.1907,-99.8912 83.8759,-80.3683"/>
<polygon fill="midnightblue" stroke="midnightblue" points="85.8365,-83.2962 93.1357,-75.6168 82.6407,-77.0682 85.8365,-83.2962"/>
</g>
<!-- Node8 -->
<g id="node8" class="node"><title>Node8</title>
<g id="a_node8"><a xlink:href="../../d8/dc4/interfaces__impl_8hpp.html" target="_top" xlink:title="pfasst/interfaces_impl.hpp">
<polygon fill="white" stroke="black" points="65.6098,-230 65.6098,-249 196.61,-249 196.61,-230 65.6098,-230"/>
<text text-anchor="middle" x="131.11" y="-237" font-family="Helvetica,sans-Serif" font-size="10.00">pfasst/interfaces_impl.hpp</text>
</a>
</g>
</g>
<!-- Node4&#45;&gt;Node8 -->
<g id="edge7" class="edge"><title>Node4&#45;&gt;Node8</title>
<path fill="none" stroke="midnightblue" d="M126.321,-296.734C124.311,-287.183 123.846,-271.618 124.925,-259.283"/>
<polygon fill="midnightblue" stroke="midnightblue" points="128.427,-259.517 126.351,-249.127 121.495,-258.544 128.427,-259.517"/>
</g>
<!-- Node8&#45;&gt;Node2 -->
<g id="edge9" class="edge"><title>Node8&#45;&gt;Node2</title>
<path fill="none" stroke="midnightblue" d="M177.193,-229.985C188.292,-227.979 200.118,-225.879 211.11,-224 299.148,-208.949 403.014,-192.632 456.069,-184.402"/>
<polygon fill="midnightblue" stroke="midnightblue" points="456.636,-187.856 465.983,-182.866 455.565,-180.938 456.636,-187.856"/>
</g>
<!-- Node8&#45;&gt;Node4 -->
<g id="edge8" class="edge"><title>Node8&#45;&gt;Node4</title>
<path fill="none" stroke="midnightblue" d="M135.869,-249.127C137.894,-258.62 138.374,-274.17 137.31,-286.537"/>
<polygon fill="midnightblue" stroke="midnightblue" points="133.803,-286.348 135.898,-296.734 140.737,-287.308 133.803,-286.348"/>
</g>
<!-- Node8&#45;&gt;Node5 -->
<g id="edge10" class="edge"><title>Node8&#45;&gt;Node5</title>
<path fill="none" stroke="midnightblue" d="M117.785,-229.975C102.73,-220.343 77.9942,-204.517 60.0729,-193.052"/>
<polygon fill="midnightblue" stroke="midnightblue" points="61.7195,-189.95 51.4097,-187.509 57.947,-195.847 61.7195,-189.95"/>
</g>
<!-- Node8&#45;&gt;Node7 -->
<g id="edge11" class="edge"><title>Node8&#45;&gt;Node7</title>
<path fill="none" stroke="midnightblue" d="M130.141,-229.76C127.194,-203.151 118.282,-122.715 114.197,-85.8382"/>
<polygon fill="midnightblue" stroke="midnightblue" points="117.634,-85.0731 113.054,-75.5194 110.676,-85.844 117.634,-85.0731"/>
</g>
<!-- Node9 -->
<g id="node9" class="node"><title>Node9</title>
<g id="a_node9"><a xlink:href="../../d5/d82/globals_8hpp.html" target="_top" xlink:title="pfasst/globals.hpp">
<polygon fill="white" stroke="black" points="292.61,-168.5 292.61,-187.5 389.61,-187.5 389.61,-168.5 292.61,-168.5"/>
<text text-anchor="middle" x="341.11" y="-175.5" font-family="Helvetica,sans-Serif" font-size="10.00">pfasst/globals.hpp</text>
</a>
</g>
</g>
<!-- Node8&#45;&gt;Node9 -->
<g id="edge12" class="edge"><title>Node8&#45;&gt;Node9</title>
<path fill="none" stroke="midnightblue" d="M161.198,-229.975C198,-219.548 260.421,-201.862 301.204,-190.307"/>
<polygon fill="midnightblue" stroke="midnightblue" points="302.411,-193.603 311.078,-187.509 300.502,-186.868 302.411,-193.603"/>
</g>
<!-- Node10 -->
<g id="node10" class="node"><title>Node10</title>
<g id="a_node10"><a xlink:href="../../d0/da9/logging_8hpp.html" target="_top" xlink:title="pfasst/logging.hpp">
<polygon fill="white" stroke="black" points="177.11,-168.5 177.11,-187.5 275.11,-187.5 275.11,-168.5 177.11,-168.5"/>
<text text-anchor="middle" x="226.11" y="-175.5" font-family="Helvetica,sans-Serif" font-size="10.00">pfasst/logging.hpp</text>
</a>
</g>
</g>
<!-- Node8&#45;&gt;Node10 -->
<g id="edge13" class="edge"><title>Node8&#45;&gt;Node10</title>
<path fill="none" stroke="midnightblue" d="M144.721,-229.975C160.17,-220.299 185.6,-204.372 203.926,-192.894"/>
<polygon fill="midnightblue" stroke="midnightblue" points="205.907,-195.783 212.524,-187.509 202.191,-189.851 205.907,-195.783"/>
</g>
<!-- Node10&#45;&gt;Node7 -->
<g id="edge16" class="edge"><title>Node10&#45;&gt;Node7</title>
<path fill="none" stroke="midnightblue" d="M205.821,-168.478C189.323,-160.787 166.22,-148.201 150.11,-132 136.742,-118.557 126.324,-99.484 119.805,-85.4743"/>
<polygon fill="midnightblue" stroke="midnightblue" points="122.831,-83.6633 115.595,-75.9251 116.426,-86.4873 122.831,-83.6633"/>
</g>
<!-- Node11 -->
<g id="node11" class="node"><title>Node11</title>
<polygon fill="white" stroke="#bfbfbf" points="597.11,-112.5 597.11,-131.5 649.11,-131.5 649.11,-112.5 597.11,-112.5"/>
<text text-anchor="middle" x="623.11" y="-119.5" font-family="Helvetica,sans-Serif" font-size="10.00">iomanip</text>
</g>
<!-- Node10&#45;&gt;Node11 -->
<g id="edge14" class="edge"><title>Node10&#45;&gt;Node11</title>
<path fill="none" stroke="midnightblue" d="M275.217,-169.123C277.885,-168.733 280.529,-168.356 283.11,-168 414.727,-149.823 451.574,-156.227 586.929,-131.789"/>
<polygon fill="midnightblue" stroke="midnightblue" points="587.641,-135.217 596.848,-129.975 586.381,-128.331 587.641,-135.217"/>
</g>
<!-- Node12 -->
<g id="node12" class="node"><title>Node12</title>
<polygon fill="white" stroke="#bfbfbf" points="336.11,-56.5 336.11,-75.5 392.11,-75.5 392.11,-56.5 336.11,-56.5"/>
<text text-anchor="middle" x="364.11" y="-63.5" font-family="Helvetica,sans-Serif" font-size="10.00">iostream</text>
</g>
<!-- Node10&#45;&gt;Node12 -->
<g id="edge15" class="edge"><title>Node10&#45;&gt;Node12</title>
<path fill="none" stroke="midnightblue" d="M274.202,-168.463C335.672,-157.323 434.846,-138.485 440.11,-132 457.139,-111.017 425.366,-91.5213 397.839,-79.4608"/>
<polygon fill="midnightblue" stroke="midnightblue" points="398.944,-76.1294 388.367,-75.5147 396.252,-82.5911 398.944,-76.1294"/>
</g>
<!-- Node13 -->
<g id="node13" class="node"><title>Node13</title>
<polygon fill="white" stroke="#bfbfbf" points="159.61,-112.5 159.61,-131.5 290.61,-131.5 290.61,-112.5 159.61,-112.5"/>
<text text-anchor="middle" x="225.11" y="-119.5" font-family="Helvetica,sans-Serif" font-size="10.00">boost/algorithm/string.hpp</text>
</g>
<!-- Node10&#45;&gt;Node13 -->
<g id="edge17" class="edge"><title>Node10&#45;&gt;Node13</title>
<path fill="none" stroke="midnightblue" d="M225.945,-168.083C225.814,-161.006 225.626,-150.861 225.461,-141.986"/>
<polygon fill="midnightblue" stroke="midnightblue" points="228.957,-141.685 225.272,-131.751 221.958,-141.814 228.957,-141.685"/>
</g>
<!-- Node14 -->
<g id="node14" class="node"><title>Node14</title>
<g id="a_node14"><a xlink:href="../../d8/dfd/config_8hpp.html" target="_top" xlink:title="pfasst/config.hpp">
<polygon fill="white" stroke="black" points="487.61,-112.5 487.61,-131.5 578.61,-131.5 578.61,-112.5 487.61,-112.5"/>
<text text-anchor="middle" x="533.11" y="-119.5" font-family="Helvetica,sans-Serif" font-size="10.00">pfasst/config.hpp</text>
</a>
</g>
</g>
<!-- Node10&#45;&gt;Node14 -->
<g id="edge18" class="edge"><title>Node10&#45;&gt;Node14</title>
<path fill="none" stroke="midnightblue" d="M274.755,-168.444C329.781,-158.765 419.244,-143.029 477.129,-132.847"/>
<polygon fill="midnightblue" stroke="midnightblue" points="477.957,-136.255 487.199,-131.075 476.744,-129.361 477.957,-136.255"/>
</g>
<!-- Node21 -->
<g id="node21" class="node"><title>Node21</title>
<polygon fill="white" stroke="#bfbfbf" points="309.11,-112.5 309.11,-131.5 431.11,-131.5 431.11,-112.5 309.11,-112.5"/>
<text text-anchor="middle" x="370.11" y="-119.5" font-family="Helvetica,sans-Serif" font-size="10.00">pfasst/easylogging++.h</text>
</g>
<!-- Node10&#45;&gt;Node21 -->
<g id="edge29" class="edge"><title>Node10&#45;&gt;Node21</title>
<path fill="none" stroke="midnightblue" d="M248.927,-168.444C272.942,-159.438 310.939,-145.189 337.979,-135.049"/>
<polygon fill="midnightblue" stroke="midnightblue" points="339.265,-138.305 347.399,-131.516 336.807,-131.751 339.265,-138.305"/>
</g>
<!-- Node14&#45;&gt;Node7 -->
<g id="edge21" class="edge"><title>Node14&#45;&gt;Node7</title>
<path fill="none" stroke="midnightblue" d="M487.254,-115.118C400.723,-104.019 215.509,-80.2626 142.548,-70.9041"/>
<polygon fill="midnightblue" stroke="midnightblue" points="142.986,-67.4318 132.622,-69.6311 142.096,-74.375 142.986,-67.4318"/>
</g>
<!-- Node14&#45;&gt;Node12 -->
<g id="edge20" class="edge"><title>Node14&#45;&gt;Node12</title>
<path fill="none" stroke="midnightblue" d="M506.331,-112.444C477.777,-103.32 432.377,-88.8133 400.573,-78.6509"/>
<polygon fill="midnightblue" stroke="midnightblue" points="401.354,-75.2262 390.763,-75.5164 399.223,-81.8941 401.354,-75.2262"/>
</g>
<!-- Node15 -->
<g id="node15" class="node"><title>Node15</title>
<polygon fill="white" stroke="#bfbfbf" points="726.11,-0.5 726.11,-19.5 776.11,-19.5 776.11,-0.5 726.11,-0.5"/>
<text text-anchor="middle" x="751.11" y="-7.5" font-family="Helvetica,sans-Serif" font-size="10.00">fstream</text>
</g>
<!-- Node14&#45;&gt;Node15 -->
<g id="edge19" class="edge"><title>Node14&#45;&gt;Node15</title>
<path fill="none" stroke="midnightblue" d="M578.662,-112.623C638.728,-101.377 737.525,-82.1032 743.11,-76 754.254,-63.8217 755.331,-44.5499 754.175,-30.1478"/>
<polygon fill="midnightblue" stroke="midnightblue" points="757.606,-29.3717 752.919,-19.8701 750.658,-30.2209 757.606,-29.3717"/>
</g>
<!-- Node16 -->
<g id="node16" class="node"><title>Node16</title>
<polygon fill="white" stroke="#bfbfbf" points="410.11,-56.5 410.11,-75.5 446.11,-75.5 446.11,-56.5 410.11,-56.5"/>
<text text-anchor="middle" x="428.11" y="-63.5" font-family="Helvetica,sans-Serif" font-size="10.00">map</text>
</g>
<!-- Node14&#45;&gt;Node16 -->
<g id="edge22" class="edge"><title>Node14&#45;&gt;Node16</title>
<path fill="none" stroke="midnightblue" d="M516.24,-112.324C499.401,-103.664 473.303,-90.2424 453.872,-80.249"/>
<polygon fill="midnightblue" stroke="midnightblue" points="455.432,-77.1155 444.938,-75.6545 452.23,-83.3405 455.432,-77.1155"/>
</g>
<!-- Node17 -->
<g id="node17" class="node"><title>Node17</title>
<polygon fill="white" stroke="#bfbfbf" points="464.61,-56.5 464.61,-75.5 601.61,-75.5 601.61,-56.5 464.61,-56.5"/>
<text text-anchor="middle" x="533.11" y="-63.5" font-family="Helvetica,sans-Serif" font-size="10.00">boost/program_options.hpp</text>
</g>
<!-- Node14&#45;&gt;Node17 -->
<g id="edge23" class="edge"><title>Node14&#45;&gt;Node17</title>
<path fill="none" stroke="midnightblue" d="M533.11,-112.083C533.11,-105.006 533.11,-94.8611 533.11,-85.9865"/>
<polygon fill="midnightblue" stroke="midnightblue" points="536.61,-85.751 533.11,-75.7511 529.61,-85.7511 536.61,-85.751"/>
</g>
<!-- Node18 -->
<g id="node18" class="node"><title>Node18</title>
<g id="a_node18"><a xlink:href="../../d5/d84/config__impl_8hpp.html" target="_top" xlink:title="pfasst/config_impl.hpp">
<polygon fill="white" stroke="black" points="620.11,-56.5 620.11,-75.5 734.11,-75.5 734.11,-56.5 620.11,-56.5"/>
<text text-anchor="middle" x="677.11" y="-63.5" font-family="Helvetica,sans-Serif" font-size="10.00">pfasst/config_impl.hpp</text>
</a>
</g>
</g>
<!-- Node14&#45;&gt;Node18 -->
<g id="edge24" class="edge"><title>Node14&#45;&gt;Node18</title>
<path fill="none" stroke="midnightblue" d="M550.838,-112.444C572.974,-103.399 610.993,-89.064 639.625,-78.9158"/>
<polygon fill="midnightblue" stroke="midnightblue" points="641.041,-82.1283 649.319,-75.5164 638.725,-75.5226 641.041,-82.1283"/>
</g>
<!-- Node18&#45;&gt;Node14 -->
<g id="edge25" class="edge"><title>Node18&#45;&gt;Node14</title>
<path fill="none" stroke="midnightblue" d="M659.479,-75.5164C637.39,-84.5457 599.381,-98.8786 570.722,-109.039"/>
<polygon fill="midnightblue" stroke="midnightblue" points="569.294,-105.831 561.016,-112.444 571.611,-112.436 569.294,-105.831"/>
</g>
<!-- Node18&#45;&gt;Node15 -->
<g id="edge26" class="edge"><title>Node18&#45;&gt;Node15</title>
<path fill="none" stroke="midnightblue" d="M688.999,-56.324C700.26,-48.1066 717.396,-35.6017 730.819,-25.8069"/>
<polygon fill="midnightblue" stroke="midnightblue" points="732.989,-28.5559 739.004,-19.8339 728.863,-22.9014 732.989,-28.5559"/>
</g>
<!-- Node19 -->
<g id="node19" class="node"><title>Node19</title>
<polygon fill="white" stroke="#bfbfbf" points="592.61,-0.5 592.61,-19.5 645.61,-19.5 645.61,-0.5 592.61,-0.5"/>
<text text-anchor="middle" x="619.11" y="-7.5" font-family="Helvetica,sans-Serif" font-size="10.00">sstream</text>
</g>
<!-- Node18&#45;&gt;Node19 -->
<g id="edge27" class="edge"><title>Node18&#45;&gt;Node19</title>
<path fill="none" stroke="midnightblue" d="M667.791,-56.324C659.217,-48.3414 646.298,-36.3128 635.922,-26.6529"/>
<polygon fill="midnightblue" stroke="midnightblue" points="638.302,-24.0865 628.598,-19.8339 633.532,-29.2098 638.302,-24.0865"/>
</g>
<!-- Node20 -->
<g id="node20" class="node"><title>Node20</title>
<polygon fill="white" stroke="#bfbfbf" points="664.11,-0.5 664.11,-19.5 702.11,-19.5 702.11,-0.5 664.11,-0.5"/>
<text text-anchor="middle" x="683.11" y="-7.5" font-family="Helvetica,sans-Serif" font-size="10.00">utility</text>
</g>
<!-- Node18&#45;&gt;Node20 -->
<g id="edge28" class="edge"><title>Node18&#45;&gt;Node20</title>
<path fill="none" stroke="midnightblue" d="M678.101,-56.083C678.896,-48.9272 680.039,-38.6353 681.033,-29.6911"/>
<polygon fill="midnightblue" stroke="midnightblue" points="684.512,-30.0765 682.137,-19.7511 677.554,-29.3034 684.512,-30.0765"/>
</g>
<!-- Node22&#45;&gt;Node2 -->
<g id="edge31" class="edge"><title>Node22&#45;&gt;Node2</title>
<path fill="none" stroke="midnightblue" d="M476.399,-363.916C494.534,-356.074 518.019,-342.537 529.11,-322 551.712,-280.147 521.736,-224.025 503.418,-196.172"/>
<polygon fill="midnightblue" stroke="midnightblue" points="506.067,-193.845 497.53,-187.569 500.29,-197.798 506.067,-193.845"/>
</g>
<!-- Node22&#45;&gt;Node3 -->
<g id="edge32" class="edge"><title>Node22&#45;&gt;Node3</title>
<path fill="none" stroke="midnightblue" d="M501.646,-363.939C513.578,-361.935 526.292,-359.847 538.11,-358 593.565,-349.333 746.532,-359.705 788.11,-322 805.53,-306.202 808.934,-277.925 809.071,-259.186"/>
<polygon fill="midnightblue" stroke="midnightblue" points="812.57,-259.102 808.843,-249.185 805.572,-259.262 812.57,-259.102"/>
</g>
<!-- Node22&#45;&gt;Node4 -->
<g id="edge35" class="edge"><title>Node22&#45;&gt;Node4</title>
<path fill="none" stroke="midnightblue" d="M409.815,-363.936C351.516,-352.131 246.53,-330.872 183.385,-318.085"/>
<polygon fill="midnightblue" stroke="midnightblue" points="183.739,-314.586 173.243,-316.032 182.35,-321.447 183.739,-314.586"/>
</g>
<!-- Node22&#45;&gt;Node9 -->
<g id="edge34" class="edge"><title>Node22&#45;&gt;Node9</title>
<path fill="none" stroke="midnightblue" d="M399.837,-363.969C355.308,-355.51 296.333,-341.063 282.11,-322 273.871,-310.957 276.504,-303.586 282.11,-291 291.84,-269.151 309.783,-275.496 322.11,-255 332.714,-237.368 337.421,-214.035 339.496,-197.896"/>
<polygon fill="midnightblue" stroke="midnightblue" points="343.014,-197.914 340.59,-187.6 336.053,-197.175 343.014,-197.914"/>
</g>
<!-- Node23 -->
<g id="node23" class="node"><title>Node23</title>
<polygon fill="white" stroke="#bfbfbf" points="445.61,-297 445.61,-316 520.61,-316 520.61,-297 445.61,-297"/>
<text text-anchor="middle" x="483.11" y="-304" font-family="Helvetica,sans-Serif" font-size="10.00">Eigen/Dense</text>
</g>
<!-- Node22&#45;&gt;Node23 -->
<g id="edge33" class="edge"><title>Node22&#45;&gt;Node23</title>
<path fill="none" stroke="midnightblue" d="M456.291,-363.734C460.985,-353.89 468.726,-337.66 474.688,-325.159"/>
<polygon fill="midnightblue" stroke="midnightblue" points="477.85,-326.66 478.995,-316.127 471.531,-323.647 477.85,-326.66"/>
</g>
<!-- Node24 -->
<g id="node24" class="node"><title>Node24</title>
<g id="a_node24"><a xlink:href="../../d0/d3e/polynomial_8hpp.html" target="_top" xlink:title="pfasst/quadrature/polynomial.hpp">
<polygon fill="white" stroke="black" points="615.11,-297 615.11,-316 779.11,-316 779.11,-297 615.11,-297"/>
<text text-anchor="middle" x="697.11" y="-304" font-family="Helvetica,sans-Serif" font-size="10.00">pfasst/quadrature/polynomial.hpp</text>
</a>
</g>
</g>
<!-- Node22&#45;&gt;Node24 -->
<g id="edge36" class="edge"><title>Node22&#45;&gt;Node24</title>
<path fill="none" stroke="midnightblue" d="M484.391,-363.936C528.184,-352.317 606.494,-331.541 654.904,-318.698"/>
<polygon fill="midnightblue" stroke="midnightblue" points="655.989,-322.031 664.757,-316.083 654.194,-315.265 655.989,-322.031"/>
</g>
<!-- Node29 -->
<g id="node29" class="node"><title>Node29</title>
<g id="a_node29"><a xlink:href="../../de/da5/quadrature_2interface__impl_8hpp.html" target="_top" xlink:title="pfasst/quadrature/interface\l_impl.hpp">
<polygon fill="white" stroke="black" points="291.11,-291.5 291.11,-321.5 427.11,-321.5 427.11,-291.5 291.11,-291.5"/>
<text text-anchor="start" x="299.11" y="-309.5" font-family="Helvetica,sans-Serif" font-size="10.00">pfasst/quadrature/interface</text>
<text text-anchor="middle" x="359.11" y="-298.5" font-family="Helvetica,sans-Serif" font-size="10.00">_impl.hpp</text>
</a>
</g>
</g>
<!-- Node22&#45;&gt;Node29 -->
<g id="edge44" class="edge"><title>Node22&#45;&gt;Node29</title>
<path fill="none" stroke="midnightblue" d="M434.779,-363.734C419.669,-354.527 397.999,-339.733 381.615,-327.629"/>
<polygon fill="midnightblue" stroke="midnightblue" points="383.686,-324.807 373.591,-321.589 379.476,-330.4 383.686,-324.807"/>
</g>
<!-- Node24&#45;&gt;Node3 -->
<g id="edge37" class="edge"><title>Node24&#45;&gt;Node3</title>
<path fill="none" stroke="midnightblue" d="M712.08,-296.734C730.72,-285.818 762.773,-267.049 784.679,-254.221"/>
<polygon fill="midnightblue" stroke="midnightblue" points="786.516,-257.201 793.377,-249.127 782.979,-251.16 786.516,-257.201"/>
</g>
<!-- Node25 -->
<g id="node25" class="node"><title>Node25</title>
<g id="a_node25"><a xlink:href="../../dc/de8/polynomial__impl_8hpp.html" target="_top" xlink:title="pfasst/quadrature/polynomial\l_impl.hpp">
<polygon fill="white" stroke="black" points="622.11,-224.5 622.11,-254.5 768.11,-254.5 768.11,-224.5 622.11,-224.5"/>
<text text-anchor="start" x="630.11" y="-242.5" font-family="Helvetica,sans-Serif" font-size="10.00">pfasst/quadrature/polynomial</text>
<text text-anchor="middle" x="695.11" y="-231.5" font-family="Helvetica,sans-Serif" font-size="10.00">_impl.hpp</text>
</a>
</g>
</g>
<!-- Node24&#45;&gt;Node25 -->
<g id="edge38" class="edge"><title>Node24&#45;&gt;Node25</title>
<path fill="none" stroke="midnightblue" d="M692.052,-296.734C690.075,-288.541 689.1,-275.923 689.304,-264.714"/>
<polygon fill="midnightblue" stroke="midnightblue" points="692.806,-264.768 689.867,-254.589 685.817,-264.379 692.806,-264.768"/>
</g>
<!-- Node25&#45;&gt;Node2 -->
<g id="edge41" class="edge"><title>Node25&#45;&gt;Node2</title>
<path fill="none" stroke="midnightblue" d="M647.023,-224.475C609.873,-213.639 559.334,-198.899 525.995,-189.175"/>
<polygon fill="midnightblue" stroke="midnightblue" points="526.814,-185.768 516.234,-186.328 524.854,-192.488 526.814,-185.768"/>
</g>
<!-- Node25&#45;&gt;Node24 -->
<g id="edge39" class="edge"><title>Node25&#45;&gt;Node24</title>
<path fill="none" stroke="midnightblue" d="M701.22,-254.589C702.745,-264.001 703.298,-276.487 702.715,-286.739"/>
<polygon fill="midnightblue" stroke="midnightblue" points="699.23,-286.414 701.629,-296.734 706.189,-287.171 699.23,-286.414"/>
</g>
<!-- Node26 -->
<g id="node26" class="node"><title>Node26</title>
<polygon fill="white" stroke="#bfbfbf" points="597.11,-168.5 597.11,-187.5 655.11,-187.5 655.11,-168.5 597.11,-168.5"/>
<text text-anchor="middle" x="626.11" y="-175.5" font-family="Helvetica,sans-Serif" font-size="10.00">algorithm</text>
</g>
<!-- Node25&#45;&gt;Node26 -->
<g id="edge40" class="edge"><title>Node25&#45;&gt;Node26</title>
<path fill="none" stroke="midnightblue" d="M678.758,-224.399C668.214,-215.308 654.51,-203.49 643.726,-194.191"/>
<polygon fill="midnightblue" stroke="midnightblue" points="646.009,-191.538 636.15,-187.658 641.437,-196.839 646.009,-191.538"/>
</g>
<!-- Node27 -->
<g id="node27" class="node"><title>Node27</title>
<polygon fill="white" stroke="#bfbfbf" points="673.11,-168.5 673.11,-187.5 717.11,-187.5 717.11,-168.5 673.11,-168.5"/>
<text text-anchor="middle" x="695.11" y="-175.5" font-family="Helvetica,sans-Serif" font-size="10.00">cmath</text>
</g>
<!-- Node25&#45;&gt;Node27 -->
<g id="edge42" class="edge"><title>Node25&#45;&gt;Node27</title>
<path fill="none" stroke="midnightblue" d="M695.11,-224.399C695.11,-216.466 695.11,-206.458 695.11,-197.858"/>
<polygon fill="midnightblue" stroke="midnightblue" points="698.61,-197.658 695.11,-187.658 691.61,-197.658 698.61,-197.658"/>
</g>
<!-- Node28 -->
<g id="node28" class="node"><title>Node28</title>
<polygon fill="white" stroke="#bfbfbf" points="735.61,-168.5 735.61,-187.5 790.61,-187.5 790.61,-168.5 735.61,-168.5"/>
<text text-anchor="middle" x="763.11" y="-175.5" font-family="Helvetica,sans-Serif" font-size="10.00">complex</text>
</g>
<!-- Node25&#45;&gt;Node28 -->
<g id="edge43" class="edge"><title>Node25&#45;&gt;Node28</title>
<path fill="none" stroke="midnightblue" d="M711.225,-224.399C721.514,-215.397 734.857,-203.721 745.435,-194.465"/>
<polygon fill="midnightblue" stroke="midnightblue" points="747.994,-196.877 753.215,-187.658 743.385,-191.609 747.994,-196.877"/>
</g>
<!-- Node29&#45;&gt;Node22 -->
<g id="edge45" class="edge"><title>Node29&#45;&gt;Node22</title>
<path fill="none" stroke="midnightblue" d="M384.944,-321.589C401.524,-332.203 422.339,-346.725 436.498,-357.544"/>
<polygon fill="midnightblue" stroke="midnightblue" points="434.334,-360.296 444.356,-363.734 438.666,-354.797 434.334,-360.296"/>
</g>
<!-- Node30&#45;&gt;Node1 -->
<g id="edge47" class="edge"><title>Node30&#45;&gt;Node1</title>
<path fill="none" stroke="midnightblue" d="M604.81,-388.577C594.474,-397.6 579.545,-409.452 566,-419.451"/>
<polygon fill="midnightblue" stroke="midnightblue" points="563.841,-416.693 557.798,-425.396 567.949,-422.361 563.841,-416.693"/>
</g>
<!-- Node30&#45;&gt;Node6 -->
<g id="edge48" class="edge"><title>Node30&#45;&gt;Node6</title>
<path fill="none" stroke="midnightblue" d="M605.989,-358.189C590.742,-339.627 561.52,-307.658 529.11,-291 462.318,-256.67 374.038,-245.675 323.424,-242.155"/>
<polygon fill="midnightblue" stroke="midnightblue" points="323.417,-238.648 313.217,-241.512 322.977,-245.634 323.417,-238.648"/>
</g>
<!-- Node30&#45;&gt;Node24 -->
<g id="edge50" class="edge"><title>Node30&#45;&gt;Node24</title>
<path fill="none" stroke="midnightblue" d="M634.469,-358.396C647.436,-347.86 665.138,-333.477 678.416,-322.689"/>
<polygon fill="midnightblue" stroke="midnightblue" points="680.855,-325.217 686.409,-316.195 676.441,-319.784 680.855,-325.217"/>
</g>
<!-- Node31 -->
<g id="node31" class="node"><title>Node31</title>
<polygon fill="white" stroke="#bfbfbf" points="835.11,-291.5 835.11,-321.5 947.11,-321.5 947.11,-291.5 835.11,-291.5"/>
<text text-anchor="start" x="843.11" y="-309.5" font-family="Helvetica,sans-Serif" font-size="10.00">boost/math/constants</text>
<text text-anchor="middle" x="891.11" y="-298.5" font-family="Helvetica,sans-Serif" font-size="10.00">/constants.hpp</text>
</g>
<!-- Node30&#45;&gt;Node31 -->
<g id="edge49" class="edge"><title>Node30&#45;&gt;Node31</title>
<path fill="none" stroke="midnightblue" d="M676.226,-358.476C720.05,-348.08 779.794,-333.907 825.164,-323.144"/>
<polygon fill="midnightblue" stroke="midnightblue" points="825.985,-326.547 834.907,-320.833 824.369,-319.736 825.985,-326.547"/>
</g>
</g>
</svg>
