<?xml version="1.0" encoding="UTF-8" standalone="no"?>
<!DOCTYPE svg PUBLIC "-//W3C//DTD SVG 1.1//EN"
 "http://www.w3.org/Graphics/SVG/1.1/DTD/svg11.dtd">
<!-- Generated by graphviz version 2.38.0 (20140413.2041)
 -->
<!-- Title: pfasst::init Pages: 1 -->
<svg width="1126pt" height="266pt"
 viewBox="0.00 0.00 1126.00 265.50" xmlns="http://www.w3.org/2000/svg" xmlns:xlink="http://www.w3.org/1999/xlink">
<g id="graph0" class="graph" transform="scale(1 1) rotate(0) translate(4 261.501)">
<title>pfasst::init</title>
<polygon fill="white" stroke="none" points="-4,4 -4,-261.501 1122,-261.501 1122,4 -4,4"/>
<!-- Node1 -->
<g id="node1" class="node"><title>Node1</title>
<polygon fill="#bfbfbf" stroke="black" points="0,-137.501 0,-156.501 61,-156.501 61,-137.501 0,-137.501"/>
<text text-anchor="middle" x="30.5" y="-144.501" font-family="Helvetica,sans-Serif" font-size="10.00">pfasst::init</text>
</g>
<!-- Node2 -->
<g id="node2" class="node"><title>Node2</title>
<g id="a_node2"><a xlink:href="../../d3/d91/namespacepfasst_1_1config.html#a5eaff8155eff1d5f8fe5cf2034b12422" target="_top" xlink:title="Read and parse command line parameters. ">
<polygon fill="white" stroke="black" points="99,-164.001 99,-194.001 202,-194.001 202,-164.001 99,-164.001"/>
<text text-anchor="start" x="107" y="-182.001" font-family="Helvetica,sans-Serif" font-size="10.00">pfasst::config::read</text>
<text text-anchor="middle" x="150.5" y="-171.001" font-family="Helvetica,sans-Serif" font-size="10.00">_commandline</text>
</a>
</g>
</g>
<!-- Node1&#45;&gt;Node2 -->
<g id="edge1" class="edge"><title>Node1&#45;&gt;Node2</title>
<path fill="none" stroke="midnightblue" d="M61.2764,-155.076C69.688,-157.357 79.1599,-159.926 88.6947,-162.512"/>
<polygon fill="midnightblue" stroke="midnightblue" points="88.0444,-165.962 98.6119,-165.201 89.8766,-159.206 88.0444,-165.962"/>
</g>
<!-- Node6 -->
<g id="node6" class="node"><title>Node6</title>
<g id="a_node6"><a xlink:href="../../de/d8c/group__Internals.html#ga73cf933834ba5e5141119310aee971b9" target="_top" xlink:title="Starts easylogging++ with given arguments and loads configuration. ">
<polygon fill="white" stroke="black" points="97,-106.501 97,-125.501 204,-125.501 204,-106.501 97,-106.501"/>
<text text-anchor="middle" x="150.5" y="-113.501" font-family="Helvetica,sans-Serif" font-size="10.00">pfasst::log::start_log</text>
</a>
</g>
</g>
<!-- Node1&#45;&gt;Node6 -->
<g id="edge5" class="edge"><title>Node1&#45;&gt;Node6</title>
<path fill="none" stroke="midnightblue" d="M61.2764,-139.179C73.9125,-135.859 88.9412,-131.911 102.982,-128.222"/>
<polygon fill="midnightblue" stroke="midnightblue" points="104.2,-131.521 112.982,-125.595 102.421,-124.751 104.2,-131.521"/>
</g>
<!-- Node3 -->
<g id="node3" class="node"><title>Node3</title>
<g id="a_node3"><a xlink:href="../../d3/d91/namespacepfasst_1_1config.html#a717f3272ec67e59af97e711397beeb29" target="_top" xlink:title="Read config parameters from file. ">
<polygon fill="white" stroke="black" points="251,-227.001 251,-257.001 354,-257.001 354,-227.001 251,-227.001"/>
<text text-anchor="start" x="259" y="-245.001" font-family="Helvetica,sans-Serif" font-size="10.00">pfasst::config::read</text>
<text text-anchor="middle" x="302.5" y="-234.001" font-family="Helvetica,sans-Serif" font-size="10.00">_config_file</text>
</a>
</g>
</g>
<!-- Node2&#45;&gt;Node3 -->
<g id="edge2" class="edge"><title>Node2&#45;&gt;Node3</title>
<path fill="none" stroke="midnightblue" d="M187.429,-194.091C208.04,-202.748 234.114,-213.699 256.129,-222.945"/>
<polygon fill="midnightblue" stroke="midnightblue" points="255.03,-226.28 265.605,-226.925 257.74,-219.826 255.03,-226.28"/>
</g>
<!-- Node4 -->
<g id="node4" class="node"><title>Node4</title>
<g id="a_node4"><a xlink:href="../../d3/d91/namespacepfasst_1_1config.html#a69bf5d072b24805ad0004d40bcd2744e" target="_top" xlink:title="Get MPI rank during initialization. ">
<polygon fill="white" stroke="black" points="997,-163.501 997,-182.501 1118,-182.501 1118,-163.501 997,-163.501"/>
<text text-anchor="middle" x="1057.5" y="-170.501" font-family="Helvetica,sans-Serif" font-size="10.00">pfasst::config::get_rank</text>
</a>
</g>
</g>
<!-- Node2&#45;&gt;Node4 -->
<g id="edge3" class="edge"><title>Node2&#45;&gt;Node4</title>
<path fill="none" stroke="midnightblue" d="M202.078,-183.993C263.57,-189.623 370.541,-198.001 462.5,-198.001 462.5,-198.001 462.5,-198.001 772,-198.001 845.553,-198.001 929.392,-189.607 986.9,-182.546"/>
<polygon fill="midnightblue" stroke="midnightblue" points="987.475,-186.002 996.965,-181.291 986.609,-179.056 987.475,-186.002"/>
</g>
<!-- Node5 -->
<g id="node5" class="node"><title>Node5</title>
<g id="a_node5"><a xlink:href="../../d3/d91/namespacepfasst_1_1config.html#ad40fd72bbe8905d32032195b313b7d06" target="_top" xlink:title="Compile basic help and usage information. ">
<polygon fill="white" stroke="black" points="240.5,-150.501 240.5,-169.501 364.5,-169.501 364.5,-150.501 240.5,-150.501"/>
<text text-anchor="middle" x="302.5" y="-157.501" font-family="Helvetica,sans-Serif" font-size="10.00">pfasst::config::print_help</text>
</a>
</g>
</g>
<!-- Node2&#45;&gt;Node5 -->
<g id="edge4" class="edge"><title>Node2&#45;&gt;Node5</title>
<path fill="none" stroke="midnightblue" d="M202.283,-172.569C211.271,-171.43 220.779,-170.226 230.208,-169.032"/>
<polygon fill="midnightblue" stroke="midnightblue" points="230.9,-172.472 240.381,-167.743 230.021,-165.528 230.9,-172.472"/>
</g>
<!-- Node7 -->
<g id="node7" class="node"><title>Node7</title>
<g id="a_node7"><a xlink:href="../../de/d8c/group__Internals.html#ga94bc88666f61bcc6d85072e6dfdd21f4" target="_top" xlink:title="Sets default configuration for default loggers. ">
<polygon fill="white" stroke="black" points="240,-52.0013 240,-82.0013 365,-82.0013 365,-52.0013 240,-52.0013"/>
<text text-anchor="start" x="248" y="-70.0013" font-family="Helvetica,sans-Serif" font-size="10.00">pfasst::log::load_default</text>
<text text-anchor="middle" x="302.5" y="-59.0013" font-family="Helvetica,sans-Serif" font-size="10.00">_config</text>
</a>
</g>
</g>
<!-- Node6&#45;&gt;Node7 -->
<g id="edge6" class="edge"><title>Node6&#45;&gt;Node7</title>
<path fill="none" stroke="midnightblue" d="M180.778,-106.437C199.271,-100.396 223.761,-92.3962 245.848,-85.181"/>
<polygon fill="midnightblue" stroke="midnightblue" points="247.05,-88.4705 255.468,-82.0383 244.876,-81.8166 247.05,-88.4705"/>
</g>
<!-- Node14 -->
<g id="node14" class="node"><title>Node14</title>
<g id="a_node14"><a xlink:href="../../de/d8c/group__Internals.html#gaabd9df9fe7db34deb4ec893d6b0b7fa2" target="_top" xlink:title="Sets some default flags for easylogging++. ">
<polygon fill="white" stroke="black" points="241.5,-101.001 241.5,-131.001 363.5,-131.001 363.5,-101.001 241.5,-101.001"/>
<text text-anchor="start" x="249.5" y="-119.001" font-family="Helvetica,sans-Serif" font-size="10.00">pfasst::log::set_logging</text>
<text text-anchor="middle" x="302.5" y="-108.001" font-family="Helvetica,sans-Serif" font-size="10.00">_flags</text>
</a>
</g>
</g>
<!-- Node6&#45;&gt;Node14 -->
<g id="edge18" class="edge"><title>Node6&#45;&gt;Node14</title>
<path fill="none" stroke="midnightblue" d="M204.384,-116.001C213.087,-116.001 222.225,-116.001 231.271,-116.001"/>
<polygon fill="midnightblue" stroke="midnightblue" points="231.416,-119.501 241.416,-116.001 231.416,-112.501 231.416,-119.501"/>
</g>
<!-- Node8 -->
<g id="node8" class="node"><title>Node8</title>
<g id="a_node8"><a xlink:href="../../da/d50/namespacepfasst_1_1log.html#a8502afef42b4e98a12249d5fa1fed092" target="_top" xlink:title="Provides convenient way of adding additional named loggers. ">
<polygon fill="white" stroke="black" points="401,-52.0013 401,-82.0013 526,-82.0013 526,-52.0013 401,-52.0013"/>
<text text-anchor="start" x="409" y="-70.0013" font-family="Helvetica,sans-Serif" font-size="10.00">pfasst::log::add_custom</text>
<text text-anchor="middle" x="463.5" y="-59.0013" font-family="Helvetica,sans-Serif" font-size="10.00">_logger</text>
</a>
</g>
</g>
<!-- Node7&#45;&gt;Node8 -->
<g id="edge7" class="edge"><title>Node7&#45;&gt;Node8</title>
<path fill="none" stroke="midnightblue" d="M365.429,-67.0013C373.674,-67.0013 382.184,-67.0013 390.58,-67.0013"/>
<polygon fill="midnightblue" stroke="midnightblue" points="390.74,-70.5014 400.74,-67.0013 390.74,-63.5014 390.74,-70.5014"/>
</g>
<!-- Node12 -->
<g id="node12" class="node"><title>Node12</title>
<g id="a_node12"><a xlink:href="../../de/d8c/group__Internals.html#ga2f4ba84c8482c3fb5c86e599804f832a" target="_top" xlink:title="Sets global logging options. ">
<polygon fill="white" stroke="black" points="562,-112.001 562,-142.001 678,-142.001 678,-112.001 562,-112.001"/>
<text text-anchor="start" x="570" y="-130.001" font-family="Helvetica,sans-Serif" font-size="10.00">pfasst::log::set_global</text>
<text text-anchor="middle" x="620" y="-119.001" font-family="Helvetica,sans-Serif" font-size="10.00">_logging_options</text>
</a>
</g>
</g>
<!-- Node7&#45;&gt;Node12 -->
<g id="edge17" class="edge"><title>Node7&#45;&gt;Node12</title>
<path fill="none" stroke="midnightblue" d="M361.333,-82.0222C374.339,-85.181 388.108,-88.3542 401,-91.0013 451.267,-101.322 508.528,-110.687 551.747,-117.277"/>
<polygon fill="midnightblue" stroke="midnightblue" points="551.449,-120.771 561.86,-118.807 552.496,-113.85 551.449,-120.771"/>
</g>
<!-- Node9 -->
<g id="node9" class="node"><title>Node9</title>
<g id="a_node9"><a xlink:href="../../da/d27/classpfasst_1_1config_1_1options.html#a4f130f9b500d6f3dee7df20894233608" target="_top" xlink:title="Accessor to the singleton instance. ">
<polygon fill="white" stroke="black" points="714,-85.0013 714,-115.001 828,-115.001 828,-85.0013 714,-85.0013"/>
<text text-anchor="start" x="722" y="-103.001" font-family="Helvetica,sans-Serif" font-size="10.00">pfasst::config::options</text>
<text text-anchor="middle" x="771" y="-92.0013" font-family="Helvetica,sans-Serif" font-size="10.00">::get_instance</text>
</a>
</g>
</g>
<!-- Node8&#45;&gt;Node9 -->
<g id="edge8" class="edge"><title>Node8&#45;&gt;Node9</title>
<path fill="none" stroke="midnightblue" d="M526.322,-73.6794C577.811,-79.2411 650.97,-87.1438 703.672,-92.8367"/>
<polygon fill="midnightblue" stroke="midnightblue" points="703.61,-96.3501 713.928,-93.9444 704.361,-89.3906 703.61,-96.3501"/>
</g>
<!-- Node10 -->
<g id="node10" class="node"><title>Node10</title>
<g id="a_node10"><a xlink:href="../../da/d27/classpfasst_1_1config_1_1options.html#a9ad40d67da1066f5053e47e278b3b154" target="_top" xlink:title="pfasst::config::options\l::get_variables_map">
<polygon fill="white" stroke="black" points="714,-36.0013 714,-66.0013 828,-66.0013 828,-36.0013 714,-36.0013"/>
<text text-anchor="start" x="722" y="-54.0013" font-family="Helvetica,sans-Serif" font-size="10.00">pfasst::config::options</text>
<text text-anchor="middle" x="771" y="-43.0013" font-family="Helvetica,sans-Serif" font-size="10.00">::get_variables_map</text>
</a>
</g>
</g>
<!-- Node8&#45;&gt;Node10 -->
<g id="edge9" class="edge"><title>Node8&#45;&gt;Node10</title>
<path fill="none" stroke="midnightblue" d="M526.322,-63.7635C577.811,-61.0669 650.97,-57.2353 703.672,-54.4751"/>
<polygon fill="midnightblue" stroke="midnightblue" points="704.124,-57.9563 713.928,-53.938 703.758,-50.9659 704.124,-57.9563"/>
</g>
<!-- Node11 -->
<g id="node11" class="node"><title>Node11</title>
<g id="a_node11"><a xlink:href="../../de/d8c/group__Internals.html#ga2fbecb551eda65e49c93122c05142aec" target="_top" xlink:title="Formats the local MPI world rank as a string. ">
<polygon fill="white" stroke="black" points="864,-134.001 864,-164.001 961,-164.001 961,-134.001 864,-134.001"/>
<text text-anchor="start" x="872" y="-152.001" font-family="Helvetica,sans-Serif" font-size="10.00">pfasst::log::format</text>
<text text-anchor="middle" x="912.5" y="-141.001" font-family="Helvetica,sans-Serif" font-size="10.00">_mpi_rank</text>
</a>
</g>
</g>
<!-- Node8&#45;&gt;Node11 -->
<g id="edge10" class="edge"><title>Node8&#45;&gt;Node11</title>
<path fill="none" stroke="midnightblue" d="M496.41,-51.9186C562.575,-23.0004 717.727,32.4208 828,-26.0013 866.967,-46.6457 891.114,-94.5215 902.865,-124.084"/>
<polygon fill="midnightblue" stroke="midnightblue" points="899.693,-125.591 906.509,-133.703 906.239,-123.111 899.693,-125.591"/>
</g>
<!-- Node8&#45;&gt;Node12 -->
<g id="edge12" class="edge"><title>Node8&#45;&gt;Node12</title>
<path fill="none" stroke="midnightblue" d="M503.487,-82.1419C523.967,-90.0952 549.247,-99.9126 570.93,-108.334"/>
<polygon fill="midnightblue" stroke="midnightblue" points="569.705,-111.612 580.293,-111.97 572.239,-105.087 569.705,-111.612"/>
</g>
<!-- Node11&#45;&gt;Node4 -->
<g id="edge11" class="edge"><title>Node11&#45;&gt;Node4</title>
<path fill="none" stroke="midnightblue" d="M961.117,-156.993C970.283,-158.531 980.04,-160.169 989.683,-161.787"/>
<polygon fill="midnightblue" stroke="midnightblue" points="989.22,-165.258 999.662,-163.462 990.379,-158.355 989.22,-165.258"/>
</g>
<!-- Node12&#45;&gt;Node9 -->
<g id="edge13" class="edge"><title>Node12&#45;&gt;Node9</title>
<path fill="none" stroke="midnightblue" d="M678.181,-116.64C686.557,-115.122 695.242,-113.548 703.781,-112.001"/>
<polygon fill="midnightblue" stroke="midnightblue" points="704.494,-115.429 713.709,-110.202 703.245,-108.541 704.494,-115.429"/>
</g>
<!-- Node12&#45;&gt;Node10 -->
<g id="edge16" class="edge"><title>Node12&#45;&gt;Node10</title>
<path fill="none" stroke="midnightblue" d="M646.273,-111.921C664.762,-101.124 690.598,-86.519 714,-75.0013 717.277,-73.3884 720.689,-71.774 724.14,-70.1878"/>
<polygon fill="midnightblue" stroke="midnightblue" points="725.61,-73.3643 733.299,-66.0752 722.743,-66.9785 725.61,-73.3643"/>
</g>
<!-- Node13 -->
<g id="node13" class="node"><title>Node13</title>
<g id="a_node13"><a xlink:href="../../de/d8c/group__Internals.html#ga74a6cd18764de8c81da478a7eb33ee4a" target="_top" xlink:title="Composes the log file name for the local rank. ">
<polygon fill="white" stroke="black" points="719.5,-134.001 719.5,-164.001 822.5,-164.001 822.5,-134.001 719.5,-134.001"/>
<text text-anchor="start" x="727.5" y="-152.001" font-family="Helvetica,sans-Serif" font-size="10.00">pfasst::log::get_log</text>
<text text-anchor="middle" x="771" y="-141.001" font-family="Helvetica,sans-Serif" font-size="10.00">_file_name</text>
</a>
</g>
</g>
<!-- Node12&#45;&gt;Node13 -->
<g id="edge14" class="edge"><title>Node12&#45;&gt;Node13</title>
<path fill="none" stroke="midnightblue" d="M678.181,-135.444C688.276,-136.935 698.819,-138.491 709.013,-139.997"/>
<polygon fill="midnightblue" stroke="midnightblue" points="708.657,-143.482 719.061,-141.48 709.68,-136.557 708.657,-143.482"/>
</g>
<!-- Node13&#45;&gt;Node11 -->
<g id="edge15" class="edge"><title>Node13&#45;&gt;Node11</title>
<path fill="none" stroke="midnightblue" d="M822.757,-149.001C832.807,-149.001 843.426,-149.001 853.689,-149.001"/>
<polygon fill="midnightblue" stroke="midnightblue" points="853.8,-152.501 863.8,-149.001 853.8,-145.501 853.8,-152.501"/>
</g>
</g>
</svg>
