<?xml version="1.0" encoding="UTF-8" standalone="no"?>
<!DOCTYPE svg PUBLIC "-//W3C//DTD SVG 1.1//EN"
 "http://www.w3.org/Graphics/SVG/1.1/DTD/svg11.dtd">
<!-- Generated by graphviz version 2.38.0 (20140413.2041)
 -->
<!-- Title: main Pages: 1 -->
<!--zoomable 266 -->
<svg id="main" version="1.1" xmlns="http://www.w3.org/2000/svg" xmlns:xlink="http://www.w3.org/1999/xlink" xml:space="preserve" onload="init(evt)">
<style type="text/css"><![CDATA[
.edge:hover path { stroke: red; }
.edge:hover polygon { stroke: red; fill: red; }
]]></style>
<script type="text/javascript"><![CDATA[
var edges = document.getElementsByTagName('g');
if (edges && edges.length) {
  for (var i=0;i<edges.length;i++) {
    if (edges[i].id.substr(0,4)=='edge') {
      edges[i].setAttribute('class','edge');
    }
  }
}
]]></script>
        <defs>
                <circle id="rim" cx="0" cy="0" r="7"/>
                <circle id="rim2" cx="0" cy="0" r="3.5"/>
                <g id="zoomPlus">
                        <use xlink:href="#rim" fill="#404040">
                                <set attributeName="fill" to="#808080" begin="zoomplus.mouseover" end="zoomplus.mouseout"/>
                        </use>
                        <path d="M-4,0h8M0,-4v8" fill="none" stroke="white" stroke-width="1.5" pointer-events="none"/>
                </g>
                <g id="zoomMin">
                        <use xlink:href="#rim" fill="#404040">
                                <set attributeName="fill" to="#808080" begin="zoomminus.mouseover" end="zoomminus.mouseout"/>
                        </use>
                        <path d="M-4,0h8" fill="none" stroke="white" stroke-width="1.5" pointer-events="none"/>
                </g>
                <g id="dirArrow">
                        <path fill="none" stroke="white" stroke-width="1.5" d="M0,-3.0v7 M-2.5,-0.5L0,-3.0L2.5,-0.5"/>
                </g>
               <g id="resetDef">
                       <use xlink:href="#rim2" fill="#404040">
                               <set attributeName="fill" to="#808080" begin="reset.mouseover" end="reset.mouseout"/>
                       </use>
               </g>
        </defs>

<script type="text/javascript">
var viewWidth = 1200;
var viewHeight = 266;
var sectionId = 'dynsection-1';
</script>
<script xlink:href="../../svgpan.js"/>
<svg id="graph" class="graph">
<g id="viewport">
<title>main</title>
<polygon fill="white" stroke="none" points="-4,4 -4,-261.501 1196,-261.501 1196,4 -4,4"/>
<!-- Node1 -->
<g id="node1" class="node"><title>Node1</title>
<polygon fill="#bfbfbf" stroke="black" points="0,-137.501 0,-156.501 38,-156.501 38,-137.501 0,-137.501"/>
<text text-anchor="middle" x="19" y="-144.501" font-family="Helvetica,sans-Serif" font-size="10.00">main</text>
</g>
<!-- Node2 -->
<g id="node2" class="node"><title>Node2</title>
<g id="a_node2"><a xlink:href="../../dc/d57/namespacepfasst.html#a2ad4b6987b5c66b90166f77fc4230e92" target="_top" xlink:title="pfasst::init">
<polygon fill="white" stroke="black" points="74,-137.501 74,-156.501 135,-156.501 135,-137.501 74,-137.501"/>
<text text-anchor="middle" x="104.5" y="-144.501" font-family="Helvetica,sans-Serif" font-size="10.00">pfasst::init</text>
</a>
</g>
</g>
<!-- Node1&#45;&gt;Node2 -->
<g id="edge1" class="edge"><title>Node1&#45;&gt;Node2</title>
<path fill="none" stroke="midnightblue" d="M38.1183,-147.001C45.7154,-147.001 54.8693,-147.001 63.8896,-147.001"/>
<polygon fill="midnightblue" stroke="midnightblue" points="63.927,-150.501 73.927,-147.001 63.9269,-143.501 63.927,-150.501"/>
</g>
<!-- Node3 -->
<g id="node3" class="node"><title>Node3</title>
<g id="a_node3"><a xlink:href="../../d3/d91/namespacepfasst_1_1config.html#a5eaff8155eff1d5f8fe5cf2034b12422" target="_top" xlink:title="Read and parse command line parameters. ">
<polygon fill="white" stroke="black" points="173,-164.001 173,-194.001 276,-194.001 276,-164.001 173,-164.001"/>
<text text-anchor="start" x="181" y="-182.001" font-family="Helvetica,sans-Serif" font-size="10.00">pfasst::config::read</text>
<text text-anchor="middle" x="224.5" y="-171.001" font-family="Helvetica,sans-Serif" font-size="10.00">_commandline</text>
</a>
</g>
</g>
<!-- Node2&#45;&gt;Node3 -->
<g id="edge2" class="edge"><title>Node2&#45;&gt;Node3</title>
<path fill="none" stroke="midnightblue" d="M135.276,-155.076C143.688,-157.357 153.16,-159.926 162.695,-162.512"/>
<polygon fill="midnightblue" stroke="midnightblue" points="162.044,-165.962 172.612,-165.201 163.877,-159.206 162.044,-165.962"/>
</g>
<!-- Node7 -->
<g id="node7" class="node"><title>Node7</title>
<g id="a_node7"><a xlink:href="../../de/d8c/group__Internals.html#ga73cf933834ba5e5141119310aee971b9" target="_top" xlink:title="Starts easylogging++ with given arguments and loads configuration. ">
<polygon fill="white" stroke="black" points="171,-106.501 171,-125.501 278,-125.501 278,-106.501 171,-106.501"/>
<text text-anchor="middle" x="224.5" y="-113.501" font-family="Helvetica,sans-Serif" font-size="10.00">pfasst::log::start_log</text>
</a>
</g>
</g>
<!-- Node2&#45;&gt;Node7 -->
<g id="edge6" class="edge"><title>Node2&#45;&gt;Node7</title>
<path fill="none" stroke="midnightblue" d="M135.276,-139.179C147.912,-135.859 162.941,-131.911 176.982,-128.222"/>
<polygon fill="midnightblue" stroke="midnightblue" points="178.2,-131.521 186.982,-125.595 176.421,-124.751 178.2,-131.521"/>
</g>
<!-- Node4 -->
<g id="node4" class="node"><title>Node4</title>
<g id="a_node4"><a xlink:href="../../d3/d91/namespacepfasst_1_1config.html#a717f3272ec67e59af97e711397beeb29" target="_top" xlink:title="Read config parameters from file. ">
<polygon fill="white" stroke="black" points="325,-227.001 325,-257.001 428,-257.001 428,-227.001 325,-227.001"/>
<text text-anchor="start" x="333" y="-245.001" font-family="Helvetica,sans-Serif" font-size="10.00">pfasst::config::read</text>
<text text-anchor="middle" x="376.5" y="-234.001" font-family="Helvetica,sans-Serif" font-size="10.00">_config_file</text>
</a>
</g>
</g>
<!-- Node3&#45;&gt;Node4 -->
<g id="edge3" class="edge"><title>Node3&#45;&gt;Node4</title>
<path fill="none" stroke="midnightblue" d="M261.429,-194.091C282.04,-202.748 308.114,-213.699 330.129,-222.945"/>
<polygon fill="midnightblue" stroke="midnightblue" points="329.03,-226.28 339.605,-226.925 331.74,-219.826 329.03,-226.28"/>
</g>
<!-- Node5 -->
<g id="node5" class="node"><title>Node5</title>
<g id="a_node5"><a xlink:href="../../d3/d91/namespacepfasst_1_1config.html#a69bf5d072b24805ad0004d40bcd2744e" target="_top" xlink:title="Get MPI rank during initialization. ">
<polygon fill="white" stroke="black" points="1071,-163.501 1071,-182.501 1192,-182.501 1192,-163.501 1071,-163.501"/>
<text text-anchor="middle" x="1131.5" y="-170.501" font-family="Helvetica,sans-Serif" font-size="10.00">pfasst::config::get_rank</text>
</a>
</g>
</g>
<!-- Node3&#45;&gt;Node5 -->
<g id="edge4" class="edge"><title>Node3&#45;&gt;Node5</title>
<path fill="none" stroke="midnightblue" d="M276.078,-183.993C337.57,-189.623 444.541,-198.001 536.5,-198.001 536.5,-198.001 536.5,-198.001 846,-198.001 919.553,-198.001 1003.39,-189.607 1060.9,-182.546"/>
<polygon fill="midnightblue" stroke="midnightblue" points="1061.48,-186.002 1070.97,-181.291 1060.61,-179.056 1061.48,-186.002"/>
</g>
<!-- Node6 -->
<g id="node6" class="node"><title>Node6</title>
<g id="a_node6"><a xlink:href="../../d3/d91/namespacepfasst_1_1config.html#ad40fd72bbe8905d32032195b313b7d06" target="_top" xlink:title="Compile basic help and usage information. ">
<polygon fill="white" stroke="black" points="314.5,-150.501 314.5,-169.501 438.5,-169.501 438.5,-150.501 314.5,-150.501"/>
<text text-anchor="middle" x="376.5" y="-157.501" font-family="Helvetica,sans-Serif" font-size="10.00">pfasst::config::print_help</text>
</a>
</g>
</g>
<!-- Node3&#45;&gt;Node6 -->
<g id="edge5" class="edge"><title>Node3&#45;&gt;Node6</title>
<path fill="none" stroke="midnightblue" d="M276.283,-172.569C285.271,-171.43 294.779,-170.226 304.208,-169.032"/>
<polygon fill="midnightblue" stroke="midnightblue" points="304.9,-172.472 314.381,-167.743 304.021,-165.528 304.9,-172.472"/>
</g>
<!-- Node8 -->
<g id="node8" class="node"><title>Node8</title>
<g id="a_node8"><a xlink:href="../../de/d8c/group__Internals.html#gaabd9df9fe7db34deb4ec893d6b0b7fa2" target="_top" xlink:title="Sets some default flags for easylogging++. ">
<polygon fill="white" stroke="black" points="315.5,-101.001 315.5,-131.001 437.5,-131.001 437.5,-101.001 315.5,-101.001"/>
<text text-anchor="start" x="323.5" y="-119.001" font-family="Helvetica,sans-Serif" font-size="10.00">pfasst::log::set_logging</text>
<text text-anchor="middle" x="376.5" y="-108.001" font-family="Helvetica,sans-Serif" font-size="10.00">_flags</text>
</a>
</g>
</g>
<!-- Node7&#45;&gt;Node8 -->
<g id="edge7" class="edge"><title>Node7&#45;&gt;Node8</title>
<path fill="none" stroke="midnightblue" d="M278.384,-116.001C287.087,-116.001 296.225,-116.001 305.271,-116.001"/>
<polygon fill="midnightblue" stroke="midnightblue" points="305.416,-119.501 315.416,-116.001 305.416,-112.501 305.416,-119.501"/>
</g>
<!-- Node9 -->
<g id="node9" class="node"><title>Node9</title>
<g id="a_node9"><a xlink:href="../../de/d8c/group__Internals.html#ga94bc88666f61bcc6d85072e6dfdd21f4" target="_top" xlink:title="Sets default configuration for default loggers. ">
<polygon fill="white" stroke="black" points="314,-52.0013 314,-82.0013 439,-82.0013 439,-52.0013 314,-52.0013"/>
<text text-anchor="start" x="322" y="-70.0013" font-family="Helvetica,sans-Serif" font-size="10.00">pfasst::log::load_default</text>
<text text-anchor="middle" x="376.5" y="-59.0013" font-family="Helvetica,sans-Serif" font-size="10.00">_config</text>
</a>
</g>
</g>
<!-- Node7&#45;&gt;Node9 -->
<g id="edge8" class="edge"><title>Node7&#45;&gt;Node9</title>
<path fill="none" stroke="midnightblue" d="M254.778,-106.437C273.271,-100.396 297.761,-92.3962 319.848,-85.181"/>
<polygon fill="midnightblue" stroke="midnightblue" points="321.05,-88.4705 329.468,-82.0383 318.876,-81.8166 321.05,-88.4705"/>
</g>
<!-- Node10 -->
<g id="node10" class="node"><title>Node10</title>
<g id="a_node10"><a xlink:href="../../de/d8c/group__Internals.html#ga2f4ba84c8482c3fb5c86e599804f832a" target="_top" xlink:title="Sets global logging options. ">
<polygon fill="white" stroke="black" points="636,-112.001 636,-142.001 752,-142.001 752,-112.001 636,-112.001"/>
<text text-anchor="start" x="644" y="-130.001" font-family="Helvetica,sans-Serif" font-size="10.00">pfasst::log::set_global</text>
<text text-anchor="middle" x="694" y="-119.001" font-family="Helvetica,sans-Serif" font-size="10.00">_logging_options</text>
</a>
</g>
</g>
<!-- Node9&#45;&gt;Node10 -->
<g id="edge9" class="edge"><title>Node9&#45;&gt;Node10</title>
<path fill="none" stroke="midnightblue" d="M435.333,-82.0222C448.339,-85.181 462.108,-88.3542 475,-91.0013 525.267,-101.322 582.528,-110.687 625.747,-117.277"/>
<polygon fill="midnightblue" stroke="midnightblue" points="625.449,-120.771 635.86,-118.807 626.496,-113.85 625.449,-120.771"/>
</g>
<!-- Node15 -->
<g id="node15" class="node"><title>Node15</title>
<g id="a_node15"><a xlink:href="../../da/d50/namespacepfasst_1_1log.html#a8502afef42b4e98a12249d5fa1fed092" target="_top" xlink:title="Provides convenient way of adding additional named loggers. ">
<polygon fill="white" stroke="black" points="475,-52.0013 475,-82.0013 600,-82.0013 600,-52.0013 475,-52.0013"/>
<text text-anchor="start" x="483" y="-70.0013" font-family="Helvetica,sans-Serif" font-size="10.00">pfasst::log::add_custom</text>
<text text-anchor="middle" x="537.5" y="-59.0013" font-family="Helvetica,sans-Serif" font-size="10.00">_logger</text>
</a>
</g>
</g>
<!-- Node9&#45;&gt;Node15 -->
<g id="edge15" class="edge"><title>Node9&#45;&gt;Node15</title>
<path fill="none" stroke="midnightblue" d="M439.429,-67.0013C447.674,-67.0013 456.184,-67.0013 464.58,-67.0013"/>
<polygon fill="midnightblue" stroke="midnightblue" points="464.74,-70.5014 474.74,-67.0013 464.74,-63.5014 464.74,-70.5014"/>
</g>
<!-- Node11 -->
<g id="node11" class="node"><title>Node11</title>
<g id="a_node11"><a xlink:href="../../da/d27/classpfasst_1_1config_1_1options.html#a4f130f9b500d6f3dee7df20894233608" target="_top" xlink:title="Accessor to the singleton instance. ">
<polygon fill="white" stroke="black" points="788,-85.0013 788,-115.001 902,-115.001 902,-85.0013 788,-85.0013"/>
<text text-anchor="start" x="796" y="-103.001" font-family="Helvetica,sans-Serif" font-size="10.00">pfasst::config::options</text>
<text text-anchor="middle" x="845" y="-92.0013" font-family="Helvetica,sans-Serif" font-size="10.00">::get_instance</text>
</a>
</g>
</g>
<!-- Node10&#45;&gt;Node11 -->
<g id="edge10" class="edge"><title>Node10&#45;&gt;Node11</title>
<path fill="none" stroke="midnightblue" d="M752.181,-116.64C760.557,-115.122 769.242,-113.548 777.781,-112.001"/>
<polygon fill="midnightblue" stroke="midnightblue" points="778.494,-115.429 787.709,-110.202 777.245,-108.541 778.494,-115.429"/>
</g>
<!-- Node12 -->
<g id="node12" class="node"><title>Node12</title>
<g id="a_node12"><a xlink:href="../../da/d27/classpfasst_1_1config_1_1options.html#a9ad40d67da1066f5053e47e278b3b154" target="_top" xlink:title="pfasst::config::options\l::get_variables_map">
<polygon fill="white" stroke="black" points="788,-36.0013 788,-66.0013 902,-66.0013 902,-36.0013 788,-36.0013"/>
<text text-anchor="start" x="796" y="-54.0013" font-family="Helvetica,sans-Serif" font-size="10.00">pfasst::config::options</text>
<text text-anchor="middle" x="845" y="-43.0013" font-family="Helvetica,sans-Serif" font-size="10.00">::get_variables_map</text>
</a>
</g>
</g>
<!-- Node10&#45;&gt;Node12 -->
<g id="edge11" class="edge"><title>Node10&#45;&gt;Node12</title>
<path fill="none" stroke="midnightblue" d="M720.273,-111.921C738.762,-101.124 764.598,-86.519 788,-75.0013 791.277,-73.3884 794.689,-71.774 798.14,-70.1878"/>
<polygon fill="midnightblue" stroke="midnightblue" points="799.61,-73.3643 807.299,-66.0752 796.743,-66.9785 799.61,-73.3643"/>
</g>
<!-- Node13 -->
<g id="node13" class="node"><title>Node13</title>
<g id="a_node13"><a xlink:href="../../de/d8c/group__Internals.html#ga74a6cd18764de8c81da478a7eb33ee4a" target="_top" xlink:title="Composes the log file name for the local rank. ">
<polygon fill="white" stroke="black" points="793.5,-134.001 793.5,-164.001 896.5,-164.001 896.5,-134.001 793.5,-134.001"/>
<text text-anchor="start" x="801.5" y="-152.001" font-family="Helvetica,sans-Serif" font-size="10.00">pfasst::log::get_log</text>
<text text-anchor="middle" x="845" y="-141.001" font-family="Helvetica,sans-Serif" font-size="10.00">_file_name</text>
</a>
</g>
</g>
<!-- Node10&#45;&gt;Node13 -->
<g id="edge12" class="edge"><title>Node10&#45;&gt;Node13</title>
<path fill="none" stroke="midnightblue" d="M752.181,-135.444C762.276,-136.935 772.819,-138.491 783.013,-139.997"/>
<polygon fill="midnightblue" stroke="midnightblue" points="782.657,-143.482 793.061,-141.48 783.68,-136.557 782.657,-143.482"/>
</g>
<!-- Node14 -->
<g id="node14" class="node"><title>Node14</title>
<g id="a_node14"><a xlink:href="../../de/d8c/group__Internals.html#ga2fbecb551eda65e49c93122c05142aec" target="_top" xlink:title="Formats the local MPI world rank as a string. ">
<polygon fill="white" stroke="black" points="938,-134.001 938,-164.001 1035,-164.001 1035,-134.001 938,-134.001"/>
<text text-anchor="start" x="946" y="-152.001" font-family="Helvetica,sans-Serif" font-size="10.00">pfasst::log::format</text>
<text text-anchor="middle" x="986.5" y="-141.001" font-family="Helvetica,sans-Serif" font-size="10.00">_mpi_rank</text>
</a>
</g>
</g>
<!-- Node13&#45;&gt;Node14 -->
<g id="edge13" class="edge"><title>Node13&#45;&gt;Node14</title>
<path fill="none" stroke="midnightblue" d="M896.757,-149.001C906.807,-149.001 917.426,-149.001 927.689,-149.001"/>
<polygon fill="midnightblue" stroke="midnightblue" points="927.8,-152.501 937.8,-149.001 927.8,-145.501 927.8,-152.501"/>
</g>
<!-- Node14&#45;&gt;Node5 -->
<g id="edge14" class="edge"><title>Node14&#45;&gt;Node5</title>
<path fill="none" stroke="midnightblue" d="M1035.12,-156.993C1044.28,-158.531 1054.04,-160.169 1063.68,-161.787"/>
<polygon fill="midnightblue" stroke="midnightblue" points="1063.22,-165.258 1073.66,-163.462 1064.38,-158.355 1063.22,-165.258"/>
</g>
<!-- Node15&#45;&gt;Node10 -->
<g id="edge19" class="edge"><title>Node15&#45;&gt;Node10</title>
<path fill="none" stroke="midnightblue" d="M577.487,-82.1419C597.967,-90.0952 623.247,-99.9126 644.93,-108.334"/>
<polygon fill="midnightblue" stroke="midnightblue" points="643.705,-111.612 654.293,-111.97 646.239,-105.087 643.705,-111.612"/>
</g>
<!-- Node15&#45;&gt;Node11 -->
<g id="edge16" class="edge"><title>Node15&#45;&gt;Node11</title>
<path fill="none" stroke="midnightblue" d="M600.322,-73.6794C651.811,-79.2411 724.97,-87.1438 777.672,-92.8367"/>
<polygon fill="midnightblue" stroke="midnightblue" points="777.61,-96.3501 787.928,-93.9444 778.361,-89.3906 777.61,-96.3501"/>
</g>
<!-- Node15&#45;&gt;Node12 -->
<g id="edge17" class="edge"><title>Node15&#45;&gt;Node12</title>
<path fill="none" stroke="midnightblue" d="M600.322,-63.7635C651.811,-61.0669 724.97,-57.2353 777.672,-54.4751"/>
<polygon fill="midnightblue" stroke="midnightblue" points="778.124,-57.9563 787.928,-53.938 777.758,-50.9659 778.124,-57.9563"/>
</g>
<!-- Node15&#45;&gt;Node14 -->
<g id="edge18" class="edge"><title>Node15&#45;&gt;Node14</title>
<path fill="none" stroke="midnightblue" d="M570.41,-51.9186C636.575,-23.0004 791.727,32.4208 902,-26.0013 940.967,-46.6457 965.114,-94.5215 976.865,-124.084"/>
<polygon fill="midnightblue" stroke="midnightblue" points="973.693,-125.591 980.509,-133.703 980.239,-123.111 973.693,-125.591"/>
</g>
</g>
</svg>
        <g id="navigator" transform="translate(0 0)" fill="#404254">
                <rect fill="#f2f5e9" fill-opacity="0.5" stroke="#606060" stroke-width=".5" x="0" y="0" width="60" height="60"/>
                <use id="zoomplus" xlink:href="#zoomPlus" x="17" y="9" onmousedown="handleZoom(evt,'in')"/>
                <use id="zoomminus" xlink:href="#zoomMin" x="42" y="9" onmousedown="handleZoom(evt,'out')"/>
                <use id="reset" xlink:href="#resetDef" x="30" y="36" onmousedown="handleReset()"/>
                <g id="arrowUp" xlink:href="#dirArrow" transform="translate(30 24)" onmousedown="handlePan(0,-1)">
                  <use xlink:href="#rim" fill="#404040">
                        <set attributeName="fill" to="#808080" begin="arrowUp.mouseover" end="arrowUp.mouseout"/>
                  </use>
                  <path fill="none" stroke="white" stroke-width="1.5" d="M0,-3.0v7 M-2.5,-0.5L0,-3.0L2.5,-0.5"/>
                </g>
                <g id="arrowRight" xlink:href="#dirArrow" transform="rotate(90) translate(36 -43)" onmousedown="handlePan(1,0)">
                  <use xlink:href="#rim" fill="#404040">
                        <set attributeName="fill" to="#808080" begin="arrowRight.mouseover" end="arrowRight.mouseout"/>
                  </use>
                  <path fill="none" stroke="white" stroke-width="1.5" d="M0,-3.0v7 M-2.5,-0.5L0,-3.0L2.5,-0.5"/>
                </g>
                <g id="arrowDown" xlink:href="#dirArrow" transform="rotate(180) translate(-30 -48)" onmousedown="handlePan(0,1)">
                  <use xlink:href="#rim" fill="#404040">
                        <set attributeName="fill" to="#808080" begin="arrowDown.mouseover" end="arrowDown.mouseout"/>
                  </use>
                  <path fill="none" stroke="white" stroke-width="1.5" d="M0,-3.0v7 M-2.5,-0.5L0,-3.0L2.5,-0.5"/>
                </g>
                <g id="arrowLeft" xlink:href="#dirArrow" transform="rotate(270) translate(-36 17)" onmousedown="handlePan(-1,0)">
                  <use xlink:href="#rim" fill="#404040">
                        <set attributeName="fill" to="#808080" begin="arrowLeft.mouseover" end="arrowLeft.mouseout"/>
                  </use>
                  <path fill="none" stroke="white" stroke-width="1.5" d="M0,-3.0v7 M-2.5,-0.5L0,-3.0L2.5,-0.5"/>
                </g>
        </g>
        <svg viewBox="0 0 15 15" width="100%" height="30px" preserveAspectRatio="xMaxYMin meet">
         <g id="arrow_out" transform="scale(0.3 0.3)">
          <a xlink:href="boris__pfasst_8cpp_a3c04138a5bfe5d72780bb7e82a18e627_cgraph_org.svg" target="_base">
           <rect id="button" ry="5" rx="5" y="6" x="6" height="38" width="38"
                fill="#f2f5e9" fill-opacity="0.5" stroke="#606060" stroke-width="1.0"/>
           <path id="arrow"
             d="M 11.500037,31.436501 C 11.940474,20.09759 22.043105,11.32322 32.158766,21.979434 L 37.068811,17.246167 C 37.068811,17.246167 37.088388,32 37.088388,32 L 22.160133,31.978069 C 22.160133,31.978069 26.997745,27.140456 26.997745,27.140456 C 18.528582,18.264221 13.291696,25.230495 11.500037,31.436501 z"
             style="fill:#404040;"/>
          </a>
         </g>
        </svg>
</svg>
