<?xml version="1.0" encoding="UTF-8" standalone="no"?>
<!DOCTYPE svg PUBLIC "-//W3C//DTD SVG 1.1//EN"
 "http://www.w3.org/Graphics/SVG/1.1/DTD/svg11.dtd">
<!-- Generated by graphviz version 2.38.0 (20140413.2041)
 -->
<!-- Title: pfasst::ValueError Pages: 1 -->
<svg width="121pt" height="359pt"
 viewBox="0.00 0.00 121.00 359.00" xmlns="http://www.w3.org/2000/svg" xmlns:xlink="http://www.w3.org/1999/xlink">
<g id="graph0" class="graph" transform="scale(1 1) rotate(0) translate(4 355)">
<title>pfasst::ValueError</title>
<polygon fill="white" stroke="none" points="-4,4 -4,-355 117,-355 117,4 -4,4"/>
<!-- Node1 -->
<g id="node1" class="node"><title>Node1</title>
<polygon fill="#bfbfbf" stroke="black" points="8.5,-0.5 8.5,-68.5 104.5,-68.5 104.5,-0.5 8.5,-0.5"/>
<text text-anchor="middle" x="56.5" y="-56.5" font-family="Helvetica,sans-Serif" font-size="10.00">pfasst::ValueError</text>
<polyline fill="none" stroke="black" points="8.5,-49.5 104.5,-49.5 "/>
<text text-anchor="middle" x="56.5" y="-37.5" font-family="Helvetica,sans-Serif" font-size="10.00"> </text>
<polyline fill="none" stroke="black" points="8.5,-30.5 104.5,-30.5 "/>
<text text-anchor="start" x="16.5" y="-18.5" font-family="Helvetica,sans-Serif" font-size="10.00">+ ValueError()</text>
<text text-anchor="start" x="16.5" y="-7.5" font-family="Helvetica,sans-Serif" font-size="10.00">+ what()</text>
</g>
<!-- Node2 -->
<g id="node2" class="node"><title>Node2</title>
<g id="a_node2"><a xlink:title="STL class. ">
<polygon fill="white" stroke="#bfbfbf" points="0,-105.5 0,-162.5 113,-162.5 113,-105.5 0,-105.5"/>
<text text-anchor="middle" x="56.5" y="-150.5" font-family="Helvetica,sans-Serif" font-size="10.00">std::invalid_argument</text>
<polyline fill="none" stroke="#bfbfbf" points="0,-143.5 113,-143.5 "/>
<text text-anchor="middle" x="56.5" y="-131.5" font-family="Helvetica,sans-Serif" font-size="10.00"> </text>
<polyline fill="none" stroke="#bfbfbf" points="0,-124.5 113,-124.5 "/>
<text text-anchor="middle" x="56.5" y="-112.5" font-family="Helvetica,sans-Serif" font-size="10.00"> </text>
</a>
</g>
</g>
<!-- Node2&#45;&gt;Node1 -->
<g id="edge1" class="edge"><title>Node2&#45;&gt;Node1</title>
<path fill="none" stroke="midnightblue" d="M56.5,-95.0631C56.5,-86.3933 56.5,-77.2431 56.5,-68.7855"/>
<polygon fill="none" stroke="midnightblue" points="53.0001,-95.3212 56.5,-105.321 60.0001,-95.3212 53.0001,-95.3212"/>
</g>
<!-- Node3 -->
<g id="node3" class="node"><title>Node3</title>
<g id="a_node3"><a xlink:title="STL class. ">
<polygon fill="white" stroke="#bfbfbf" points="14.5,-199.5 14.5,-256.5 98.5,-256.5 98.5,-199.5 14.5,-199.5"/>
<text text-anchor="middle" x="56.5" y="-244.5" font-family="Helvetica,sans-Serif" font-size="10.00">std::logic_error</text>
<polyline fill="none" stroke="#bfbfbf" points="14.5,-237.5 98.5,-237.5 "/>
<text text-anchor="middle" x="56.5" y="-225.5" font-family="Helvetica,sans-Serif" font-size="10.00"> </text>
<polyline fill="none" stroke="#bfbfbf" points="14.5,-218.5 98.5,-218.5 "/>
<text text-anchor="middle" x="56.5" y="-206.5" font-family="Helvetica,sans-Serif" font-size="10.00"> </text>
</a>
</g>
</g>
<!-- Node3&#45;&gt;Node2 -->
<g id="edge2" class="edge"><title>Node3&#45;&gt;Node2</title>
<path fill="none" stroke="midnightblue" d="M56.5,-189.209C56.5,-180.293 56.5,-170.951 56.5,-162.584"/>
<polygon fill="none" stroke="midnightblue" points="53.0001,-189.397 56.5,-199.397 60.0001,-189.397 53.0001,-189.397"/>
</g>
<!-- Node4 -->
<g id="node4" class="node"><title>Node4</title>
<g id="a_node4"><a xlink:title="STL class. ">
<polygon fill="white" stroke="#bfbfbf" points="16.5,-293.5 16.5,-350.5 96.5,-350.5 96.5,-293.5 16.5,-293.5"/>
<text text-anchor="middle" x="56.5" y="-338.5" font-family="Helvetica,sans-Serif" font-size="10.00">std::exception</text>
<polyline fill="none" stroke="#bfbfbf" points="16.5,-331.5 96.5,-331.5 "/>
<text text-anchor="middle" x="56.5" y="-319.5" font-family="Helvetica,sans-Serif" font-size="10.00"> </text>
<polyline fill="none" stroke="#bfbfbf" points="16.5,-312.5 96.5,-312.5 "/>
<text text-anchor="middle" x="56.5" y="-300.5" font-family="Helvetica,sans-Serif" font-size="10.00"> </text>
</a>
</g>
</g>
<!-- Node4&#45;&gt;Node3 -->
<g id="edge3" class="edge"><title>Node4&#45;&gt;Node3</title>
<path fill="none" stroke="midnightblue" d="M56.5,-283.209C56.5,-274.293 56.5,-264.951 56.5,-256.584"/>
<polygon fill="none" stroke="midnightblue" points="53.0001,-283.397 56.5,-293.397 60.0001,-283.397 53.0001,-283.397"/>
</g>
</g>
</svg>
