<?xml version="1.0" encoding="UTF-8" standalone="no"?>
<!DOCTYPE svg PUBLIC "-//W3C//DTD SVG 1.1//EN"
 "http://www.w3.org/Graphics/SVG/1.1/DTD/svg11.dtd">
<!-- Generated by graphviz version 2.38.0 (20140413.2041)
 -->
<!-- Title: include/pfasst/mpi_communicator.hpp Pages: 1 -->
<!--zoomable 386 -->
<svg id="main" version="1.1" xmlns="http://www.w3.org/2000/svg" xmlns:xlink="http://www.w3.org/1999/xlink" xml:space="preserve" onload="init(evt)">
<style type="text/css"><![CDATA[
.edge:hover path { stroke: red; }
.edge:hover polygon { stroke: red; fill: red; }
]]></style>
<script type="text/javascript"><![CDATA[
var edges = document.getElementsByTagName('g');
if (edges && edges.length) {
  for (var i=0;i<edges.length;i++) {
    if (edges[i].id.substr(0,4)=='edge') {
      edges[i].setAttribute('class','edge');
    }
  }
}
]]></script>
        <defs>
                <circle id="rim" cx="0" cy="0" r="7"/>
                <circle id="rim2" cx="0" cy="0" r="3.5"/>
                <g id="zoomPlus">
                        <use xlink:href="#rim" fill="#404040">
                                <set attributeName="fill" to="#808080" begin="zoomplus.mouseover" end="zoomplus.mouseout"/>
                        </use>
                        <path d="M-4,0h8M0,-4v8" fill="none" stroke="white" stroke-width="1.5" pointer-events="none"/>
                </g>
                <g id="zoomMin">
                        <use xlink:href="#rim" fill="#404040">
                                <set attributeName="fill" to="#808080" begin="zoomminus.mouseover" end="zoomminus.mouseout"/>
                        </use>
                        <path d="M-4,0h8" fill="none" stroke="white" stroke-width="1.5" pointer-events="none"/>
                </g>
                <g id="dirArrow">
                        <path fill="none" stroke="white" stroke-width="1.5" d="M0,-3.0v7 M-2.5,-0.5L0,-3.0L2.5,-0.5"/>
                </g>
               <g id="resetDef">
                       <use xlink:href="#rim2" fill="#404040">
                               <set attributeName="fill" to="#808080" begin="reset.mouseover" end="reset.mouseout"/>
                       </use>
               </g>
        </defs>

<script type="text/javascript">
var viewWidth = 833;
var viewHeight = 386;
var sectionId = 'dynsection-0';
</script>
<script xlink:href="../../svgpan.js"/>
<svg id="graph" class="graph">
<g id="viewport">
<title>include/pfasst/mpi_communicator.hpp</title>
<polygon fill="white" stroke="none" points="-4,4 -4,-382 828.5,-382 828.5,4 -4,4"/>
<!-- Node1 -->
<g id="node1" class="node"><title>Node1</title>
<polygon fill="#bfbfbf" stroke="black" points="389.5,-347.5 389.5,-377.5 492.5,-377.5 492.5,-347.5 389.5,-347.5"/>
<text text-anchor="start" x="397.5" y="-365.5" font-family="Helvetica,sans-Serif" font-size="10.00">include/pfasst/mpi</text>
<text text-anchor="middle" x="441" y="-354.5" font-family="Helvetica,sans-Serif" font-size="10.00">_communicator.hpp</text>
</g>
<!-- Node2 -->
<g id="node2" class="node"><title>Node2</title>
<polygon fill="white" stroke="#bfbfbf" points="0,-224.5 0,-243.5 60,-243.5 60,-224.5 0,-224.5"/>
<text text-anchor="middle" x="30" y="-231.5" font-family="Helvetica,sans-Serif" font-size="10.00">stdexcept</text>
</g>
<!-- Node1&#45;&gt;Node2 -->
<g id="edge1" class="edge"><title>Node1&#45;&gt;Node2</title>
<path fill="none" stroke="midnightblue" d="M389.313,-361.021C325.202,-358.698 213.768,-348.922 127,-311 94.3607,-296.735 63.1462,-268.877 45.3099,-251.142"/>
<polygon fill="midnightblue" stroke="midnightblue" points="47.6003,-248.479 38.0991,-243.791 42.6031,-253.381 47.6003,-248.479"/>
</g>
<!-- Node3 -->
<g id="node3" class="node"><title>Node3</title>
<polygon fill="white" stroke="#bfbfbf" points="524,-286 524,-305 568,-305 568,-286 524,-286"/>
<text text-anchor="middle" x="546" y="-293" font-family="Helvetica,sans-Serif" font-size="10.00">vector</text>
</g>
<!-- Node1&#45;&gt;Node3 -->
<g id="edge2" class="edge"><title>Node1&#45;&gt;Node3</title>
<path fill="none" stroke="midnightblue" d="M463.783,-347.396C481.555,-336.395 506.1,-321.2 523.737,-310.282"/>
<polygon fill="midnightblue" stroke="midnightblue" points="525.598,-313.247 532.258,-305.007 521.913,-307.295 525.598,-313.247"/>
</g>
<!-- Node4 -->
<g id="node4" class="node"><title>Node4</title>
<polygon fill="white" stroke="#bfbfbf" points="586,-286 586,-305 626,-305 626,-286 586,-286"/>
<text text-anchor="middle" x="606" y="-293" font-family="Helvetica,sans-Serif" font-size="10.00">mpi.h</text>
</g>
<!-- Node1&#45;&gt;Node4 -->
<g id="edge3" class="edge"><title>Node1&#45;&gt;Node4</title>
<path fill="none" stroke="midnightblue" d="M482.524,-347.394C509.696,-337.844 545.811,-324.541 577,-311 578.162,-310.496 579.343,-309.968 580.532,-309.425"/>
<polygon fill="midnightblue" stroke="midnightblue" points="582.073,-312.567 589.583,-305.094 579.052,-306.253 582.073,-312.567"/>
</g>
<!-- Node5 -->
<g id="node5" class="node"><title>Node5</title>
<g id="a_node5"><a xlink:href="../../d1/d1b/interfaces_8hpp.html" target="_top" xlink:title="interfaces for SDC/MLSDC/PFASST algorithms. ">
<polygon fill="white" stroke="black" points="136.5,-286 136.5,-305 243.5,-305 243.5,-286 136.5,-286"/>
<text text-anchor="middle" x="190" y="-293" font-family="Helvetica,sans-Serif" font-size="10.00">pfasst/interfaces.hpp</text>
</a>
</g>
</g>
<!-- Node1&#45;&gt;Node5 -->
<g id="edge4" class="edge"><title>Node1&#45;&gt;Node5</title>
<path fill="none" stroke="midnightblue" d="M389.297,-348.111C343.062,-336.138 276.102,-318.797 232.806,-307.585"/>
<polygon fill="midnightblue" stroke="midnightblue" points="233.43,-304.132 222.872,-305.013 231.675,-310.908 233.43,-304.132"/>
</g>
<!-- Node11 -->
<g id="node11" class="node"><title>Node11</title>
<g id="a_node11"><a xlink:href="../../d0/da9/logging_8hpp.html" target="_top" xlink:title="pfasst/logging.hpp">
<polygon fill="white" stroke="black" points="409,-168.5 409,-187.5 507,-187.5 507,-168.5 409,-168.5"/>
<text text-anchor="middle" x="458" y="-175.5" font-family="Helvetica,sans-Serif" font-size="10.00">pfasst/logging.hpp</text>
</a>
</g>
</g>
<!-- Node1&#45;&gt;Node11 -->
<g id="edge31" class="edge"><title>Node1&#45;&gt;Node11</title>
<path fill="none" stroke="midnightblue" d="M407.146,-347.444C391.964,-339.226 375.572,-327.228 367,-311 360.565,-298.817 362.06,-292.862 367,-280 381.119,-243.237 415.49,-211.491 437.716,-193.839"/>
<polygon fill="midnightblue" stroke="midnightblue" points="440.062,-196.451 445.849,-187.576 435.791,-190.904 440.062,-196.451"/>
</g>
<!-- Node23 -->
<g id="node23" class="node"><title>Node23</title>
<g id="a_node23"><a xlink:href="../../d2/d35/mpi__communicator__impl_8hpp.html" target="_top" xlink:title="pfasst/mpi_communicator\l_impl.hpp">
<polygon fill="white" stroke="black" points="376,-280.5 376,-310.5 506,-310.5 506,-280.5 376,-280.5"/>
<text text-anchor="start" x="384" y="-298.5" font-family="Helvetica,sans-Serif" font-size="10.00">pfasst/mpi_communicator</text>
<text text-anchor="middle" x="441" y="-287.5" font-family="Helvetica,sans-Serif" font-size="10.00">_impl.hpp</text>
</a>
</g>
</g>
<!-- Node1&#45;&gt;Node23 -->
<g id="edge32" class="edge"><title>Node1&#45;&gt;Node23</title>
<path fill="none" stroke="midnightblue" d="M435.322,-347.396C434.294,-339.56 434.005,-329.596 434.456,-320.565"/>
<polygon fill="midnightblue" stroke="midnightblue" points="437.945,-320.842 435.325,-310.577 430.972,-320.236 437.945,-320.842"/>
</g>
<!-- Node5&#45;&gt;Node2 -->
<g id="edge6" class="edge"><title>Node5&#45;&gt;Node2</title>
<path fill="none" stroke="midnightblue" d="M167.076,-285.975C139.63,-275.769 93.4836,-258.608 62.4012,-247.049"/>
<polygon fill="midnightblue" stroke="midnightblue" points="63.4744,-243.714 52.8816,-243.509 61.0345,-250.275 63.4744,-243.714"/>
</g>
<!-- Node6 -->
<g id="node6" class="node"><title>Node6</title>
<polygon fill="white" stroke="#bfbfbf" points="116.5,-168.5 116.5,-187.5 169.5,-187.5 169.5,-168.5 116.5,-168.5"/>
<text text-anchor="middle" x="143" y="-175.5" font-family="Helvetica,sans-Serif" font-size="10.00">memory</text>
</g>
<!-- Node5&#45;&gt;Node6 -->
<g id="edge5" class="edge"><title>Node5&#45;&gt;Node6</title>
<path fill="none" stroke="midnightblue" d="M184.427,-285.858C178.279,-276.032 168.409,-259.358 162,-244 155.633,-228.742 150.528,-210.633 147.219,-197.41"/>
<polygon fill="midnightblue" stroke="midnightblue" points="150.608,-196.531 144.875,-187.621 143.8,-198.161 150.608,-196.531"/>
</g>
<!-- Node7 -->
<g id="node7" class="node"><title>Node7</title>
<polygon fill="white" stroke="#bfbfbf" points="239.5,-56.5 239.5,-75.5 280.5,-75.5 280.5,-56.5 239.5,-56.5"/>
<text text-anchor="middle" x="260" y="-63.5" font-family="Helvetica,sans-Serif" font-size="10.00">string</text>
</g>
<!-- Node5&#45;&gt;Node7 -->
<g id="edge7" class="edge"><title>Node5&#45;&gt;Node7</title>
<path fill="none" stroke="midnightblue" d="M176.689,-285.93C147.417,-265.961 81.9818,-214.493 107,-168 132.918,-119.836 192.981,-90.8232 229.671,-76.9533"/>
<polygon fill="midnightblue" stroke="midnightblue" points="231.145,-80.1414 239.351,-73.4394 228.757,-73.5615 231.145,-80.1414"/>
</g>
<!-- Node8 -->
<g id="node8" class="node"><title>Node8</title>
<g id="a_node8"><a xlink:href="../../d8/dc4/interfaces__impl_8hpp.html" target="_top" xlink:title="pfasst/interfaces_impl.hpp">
<polygon fill="white" stroke="black" points="171.5,-224.5 171.5,-243.5 302.5,-243.5 302.5,-224.5 171.5,-224.5"/>
<text text-anchor="middle" x="237" y="-231.5" font-family="Helvetica,sans-Serif" font-size="10.00">pfasst/interfaces_impl.hpp</text>
</a>
</g>
</g>
<!-- Node5&#45;&gt;Node8 -->
<g id="edge8" class="edge"><title>Node5&#45;&gt;Node8</title>
<path fill="none" stroke="midnightblue" d="M191.833,-285.975C197.038,-276.873 208.209,-262.241 218.313,-250.983"/>
<polygon fill="midnightblue" stroke="midnightblue" points="221.053,-253.18 225.381,-243.509 215.967,-248.37 221.053,-253.18"/>
</g>
<!-- Node8&#45;&gt;Node5 -->
<g id="edge9" class="edge"><title>Node8&#45;&gt;Node5</title>
<path fill="none" stroke="midnightblue" d="M235.176,-243.509C229.978,-252.604 218.81,-267.236 208.704,-278.497"/>
<polygon fill="midnightblue" stroke="midnightblue" points="205.961,-276.304 201.635,-285.975 211.048,-281.113 205.961,-276.304"/>
</g>
<!-- Node8&#45;&gt;Node6 -->
<g id="edge11" class="edge"><title>Node8&#45;&gt;Node6</title>
<path fill="none" stroke="midnightblue" d="M221.897,-224.324C207.097,-215.822 184.306,-202.729 167.018,-192.797"/>
<polygon fill="midnightblue" stroke="midnightblue" points="168.48,-189.601 158.065,-187.655 164.993,-195.671 168.48,-189.601"/>
</g>
<!-- Node8&#45;&gt;Node7 -->
<g id="edge12" class="edge"><title>Node8&#45;&gt;Node7</title>
<path fill="none" stroke="midnightblue" d="M231.87,-224.407C226.942,-215.614 219.84,-201.381 217,-188 209.988,-154.958 204.429,-143.351 217,-112 221.68,-100.328 230.991,-89.9687 239.756,-82.1405"/>
<polygon fill="midnightblue" stroke="midnightblue" points="242.052,-84.7832 247.503,-75.698 237.576,-79.4011 242.052,-84.7832"/>
</g>
<!-- Node9 -->
<g id="node9" class="node"><title>Node9</title>
<polygon fill="white" stroke="#bfbfbf" points="226,-168.5 226,-187.5 276,-187.5 276,-168.5 226,-168.5"/>
<text text-anchor="middle" x="251" y="-175.5" font-family="Helvetica,sans-Serif" font-size="10.00">cassert</text>
</g>
<!-- Node8&#45;&gt;Node9 -->
<g id="edge10" class="edge"><title>Node8&#45;&gt;Node9</title>
<path fill="none" stroke="midnightblue" d="M239.312,-224.083C241.167,-216.927 243.835,-206.635 246.154,-197.691"/>
<polygon fill="midnightblue" stroke="midnightblue" points="249.609,-198.309 248.731,-187.751 242.834,-196.553 249.609,-198.309"/>
</g>
<!-- Node10 -->
<g id="node10" class="node"><title>Node10</title>
<g id="a_node10"><a xlink:href="../../d5/d82/globals_8hpp.html" target="_top" xlink:title="pfasst/globals.hpp">
<polygon fill="white" stroke="black" points="294.5,-168.5 294.5,-187.5 391.5,-187.5 391.5,-168.5 294.5,-168.5"/>
<text text-anchor="middle" x="343" y="-175.5" font-family="Helvetica,sans-Serif" font-size="10.00">pfasst/globals.hpp</text>
</a>
</g>
</g>
<!-- Node8&#45;&gt;Node10 -->
<g id="edge13" class="edge"><title>Node8&#45;&gt;Node10</title>
<path fill="none" stroke="midnightblue" d="M254.031,-224.324C271.03,-215.664 297.376,-202.242 316.993,-192.249"/>
<polygon fill="midnightblue" stroke="midnightblue" points="318.69,-195.312 326.012,-187.655 315.512,-189.075 318.69,-195.312"/>
</g>
<!-- Node8&#45;&gt;Node11 -->
<g id="edge14" class="edge"><title>Node8&#45;&gt;Node11</title>
<path fill="none" stroke="midnightblue" d="M272.018,-224.444C310.248,-215.102 371.567,-200.119 413.257,-189.933"/>
<polygon fill="midnightblue" stroke="midnightblue" points="414.262,-193.29 423.146,-187.516 412.601,-186.49 414.262,-193.29"/>
</g>
<!-- Node11&#45;&gt;Node7 -->
<g id="edge17" class="edge"><title>Node11&#45;&gt;Node7</title>
<path fill="none" stroke="midnightblue" d="M445.896,-168.433C427.27,-155.432 390.248,-130.298 357,-112 335.017,-99.9019 309.207,-88.0345 289.739,-79.5267"/>
<polygon fill="midnightblue" stroke="midnightblue" points="291.032,-76.2726 280.464,-75.5173 288.254,-82.698 291.032,-76.2726"/>
</g>
<!-- Node12 -->
<g id="node12" class="node"><title>Node12</title>
<polygon fill="white" stroke="#bfbfbf" points="442,-112.5 442,-131.5 494,-131.5 494,-112.5 442,-112.5"/>
<text text-anchor="middle" x="468" y="-119.5" font-family="Helvetica,sans-Serif" font-size="10.00">iomanip</text>
</g>
<!-- Node11&#45;&gt;Node12 -->
<g id="edge15" class="edge"><title>Node11&#45;&gt;Node12</title>
<path fill="none" stroke="midnightblue" d="M459.651,-168.083C460.976,-160.927 462.882,-150.635 464.539,-141.691"/>
<polygon fill="midnightblue" stroke="midnightblue" points="468,-142.221 466.379,-131.751 461.117,-140.947 468,-142.221"/>
</g>
<!-- Node13 -->
<g id="node13" class="node"><title>Node13</title>
<polygon fill="white" stroke="#bfbfbf" points="361,-56.5 361,-75.5 417,-75.5 417,-56.5 361,-56.5"/>
<text text-anchor="middle" x="389" y="-63.5" font-family="Helvetica,sans-Serif" font-size="10.00">iostream</text>
</g>
<!-- Node11&#45;&gt;Node13 -->
<g id="edge16" class="edge"><title>Node11&#45;&gt;Node13</title>
<path fill="none" stroke="midnightblue" d="M452.586,-168.368C441.249,-150.296 414.829,-108.176 399.856,-84.3074"/>
<polygon fill="midnightblue" stroke="midnightblue" points="402.668,-82.2029 394.389,-75.5914 396.738,-85.9226 402.668,-82.2029"/>
</g>
<!-- Node14 -->
<g id="node14" class="node"><title>Node14</title>
<polygon fill="white" stroke="#bfbfbf" points="621.5,-112.5 621.5,-131.5 752.5,-131.5 752.5,-112.5 621.5,-112.5"/>
<text text-anchor="middle" x="687" y="-119.5" font-family="Helvetica,sans-Serif" font-size="10.00">boost/algorithm/string.hpp</text>
</g>
<!-- Node11&#45;&gt;Node14 -->
<g id="edge18" class="edge"><title>Node11&#45;&gt;Node14</title>
<path fill="none" stroke="midnightblue" d="M494.286,-168.444C533.983,-159.083 597.707,-144.056 640.912,-133.868"/>
<polygon fill="midnightblue" stroke="midnightblue" points="641.954,-137.218 650.884,-131.516 640.348,-130.405 641.954,-137.218"/>
</g>
<!-- Node15 -->
<g id="node15" class="node"><title>Node15</title>
<g id="a_node15"><a xlink:href="../../d8/dfd/config_8hpp.html" target="_top" xlink:title="pfasst/config.hpp">
<polygon fill="white" stroke="black" points="512.5,-112.5 512.5,-131.5 603.5,-131.5 603.5,-112.5 512.5,-112.5"/>
<text text-anchor="middle" x="558" y="-119.5" font-family="Helvetica,sans-Serif" font-size="10.00">pfasst/config.hpp</text>
</a>
</g>
</g>
<!-- Node11&#45;&gt;Node15 -->
<g id="edge19" class="edge"><title>Node11&#45;&gt;Node15</title>
<path fill="none" stroke="midnightblue" d="M474.067,-168.324C489.958,-159.743 514.507,-146.486 532.958,-136.522"/>
<polygon fill="midnightblue" stroke="midnightblue" points="534.837,-139.486 541.973,-131.655 531.511,-133.326 534.837,-139.486"/>
</g>
<!-- Node22 -->
<g id="node22" class="node"><title>Node22</title>
<polygon fill="white" stroke="#bfbfbf" points="226,-112.5 226,-131.5 348,-131.5 348,-112.5 226,-112.5"/>
<text text-anchor="middle" x="287" y="-119.5" font-family="Helvetica,sans-Serif" font-size="10.00">pfasst/easylogging++.h</text>
</g>
<!-- Node11&#45;&gt;Node22 -->
<g id="edge30" class="edge"><title>Node11&#45;&gt;Node22</title>
<path fill="none" stroke="midnightblue" d="M430.905,-168.444C402.012,-159.32 356.075,-144.813 323.895,-134.651"/>
<polygon fill="midnightblue" stroke="midnightblue" points="324.559,-131.19 313.969,-131.516 322.451,-137.865 324.559,-131.19"/>
</g>
<!-- Node15&#45;&gt;Node7 -->
<g id="edge22" class="edge"><title>Node15&#45;&gt;Node7</title>
<path fill="none" stroke="midnightblue" d="M512.416,-112.74C450.944,-101.601 343.132,-82.0642 290.561,-72.5379"/>
<polygon fill="midnightblue" stroke="midnightblue" points="290.979,-69.0568 280.515,-70.7175 289.731,-75.9446 290.979,-69.0568"/>
</g>
<!-- Node15&#45;&gt;Node13 -->
<g id="edge21" class="edge"><title>Node15&#45;&gt;Node13</title>
<path fill="none" stroke="midnightblue" d="M531.221,-112.444C502.667,-103.32 457.267,-88.8133 425.463,-78.6509"/>
<polygon fill="midnightblue" stroke="midnightblue" points="426.244,-75.2262 415.653,-75.5164 424.114,-81.8941 426.244,-75.2262"/>
</g>
<!-- Node16 -->
<g id="node16" class="node"><title>Node16</title>
<polygon fill="white" stroke="#bfbfbf" points="636,-0.5 636,-19.5 686,-19.5 686,-0.5 636,-0.5"/>
<text text-anchor="middle" x="661" y="-7.5" font-family="Helvetica,sans-Serif" font-size="10.00">fstream</text>
</g>
<!-- Node15&#45;&gt;Node16 -->
<g id="edge20" class="edge"><title>Node15&#45;&gt;Node16</title>
<path fill="none" stroke="midnightblue" d="M581.684,-112.37C598.837,-105.043 621.473,-92.9927 636,-76 647.407,-62.6573 653.916,-43.542 657.414,-29.4933"/>
<polygon fill="midnightblue" stroke="midnightblue" points="660.878,-30.0386 659.61,-19.52 654.042,-28.5335 660.878,-30.0386"/>
</g>
<!-- Node17 -->
<g id="node17" class="node"><title>Node17</title>
<polygon fill="white" stroke="#bfbfbf" points="435,-56.5 435,-75.5 471,-75.5 471,-56.5 435,-56.5"/>
<text text-anchor="middle" x="453" y="-63.5" font-family="Helvetica,sans-Serif" font-size="10.00">map</text>
</g>
<!-- Node15&#45;&gt;Node17 -->
<g id="edge23" class="edge"><title>Node15&#45;&gt;Node17</title>
<path fill="none" stroke="midnightblue" d="M541.13,-112.324C524.291,-103.664 498.193,-90.2424 478.762,-80.249"/>
<polygon fill="midnightblue" stroke="midnightblue" points="480.322,-77.1155 469.828,-75.6545 477.12,-83.3405 480.322,-77.1155"/>
</g>
<!-- Node18 -->
<g id="node18" class="node"><title>Node18</title>
<polygon fill="white" stroke="#bfbfbf" points="489.5,-56.5 489.5,-75.5 626.5,-75.5 626.5,-56.5 489.5,-56.5"/>
<text text-anchor="middle" x="558" y="-63.5" font-family="Helvetica,sans-Serif" font-size="10.00">boost/program_options.hpp</text>
</g>
<!-- Node15&#45;&gt;Node18 -->
<g id="edge24" class="edge"><title>Node15&#45;&gt;Node18</title>
<path fill="none" stroke="midnightblue" d="M558,-112.083C558,-105.006 558,-94.8611 558,-85.9865"/>
<polygon fill="midnightblue" stroke="midnightblue" points="561.5,-85.751 558,-75.7511 554.5,-85.7511 561.5,-85.751"/>
</g>
<!-- Node19 -->
<g id="node19" class="node"><title>Node19</title>
<g id="a_node19"><a xlink:href="../../d5/d84/config__impl_8hpp.html" target="_top" xlink:title="pfasst/config_impl.hpp">
<polygon fill="white" stroke="black" points="683,-56.5 683,-75.5 797,-75.5 797,-56.5 683,-56.5"/>
<text text-anchor="middle" x="740" y="-63.5" font-family="Helvetica,sans-Serif" font-size="10.00">pfasst/config_impl.hpp</text>
</a>
</g>
</g>
<!-- Node15&#45;&gt;Node19 -->
<g id="edge25" class="edge"><title>Node15&#45;&gt;Node19</title>
<path fill="none" stroke="midnightblue" d="M581.75,-112.444C610.873,-103.201 660.466,-88.4356 696.455,-78.2572"/>
<polygon fill="midnightblue" stroke="midnightblue" points="697.535,-81.5894 706.217,-75.5164 695.643,-74.85 697.535,-81.5894"/>
</g>
<!-- Node19&#45;&gt;Node15 -->
<g id="edge26" class="edge"><title>Node19&#45;&gt;Node15</title>
<path fill="none" stroke="midnightblue" d="M716.376,-75.5164C687.313,-84.7429 637.729,-99.507 601.701,-109.699"/>
<polygon fill="midnightblue" stroke="midnightblue" points="600.608,-106.37 591.927,-112.444 602.501,-113.109 600.608,-106.37"/>
</g>
<!-- Node19&#45;&gt;Node16 -->
<g id="edge27" class="edge"><title>Node19&#45;&gt;Node16</title>
<path fill="none" stroke="midnightblue" d="M727.307,-56.324C715.099,-47.979 696.422,-35.2122 681.997,-25.3524"/>
<polygon fill="midnightblue" stroke="midnightblue" points="683.892,-22.4082 673.661,-19.6545 679.942,-28.1871 683.892,-22.4082"/>
</g>
<!-- Node20 -->
<g id="node20" class="node"><title>Node20</title>
<polygon fill="white" stroke="#bfbfbf" points="771.5,-0.5 771.5,-19.5 824.5,-19.5 824.5,-0.5 771.5,-0.5"/>
<text text-anchor="middle" x="798" y="-7.5" font-family="Helvetica,sans-Serif" font-size="10.00">sstream</text>
</g>
<!-- Node19&#45;&gt;Node20 -->
<g id="edge28" class="edge"><title>Node19&#45;&gt;Node20</title>
<path fill="none" stroke="midnightblue" d="M749.319,-56.324C757.893,-48.3414 770.812,-36.3128 781.188,-26.6529"/>
<polygon fill="midnightblue" stroke="midnightblue" points="783.578,-29.2098 788.512,-19.8339 778.808,-24.0865 783.578,-29.2098"/>
</g>
<!-- Node21 -->
<g id="node21" class="node"><title>Node21</title>
<polygon fill="white" stroke="#bfbfbf" points="715,-0.5 715,-19.5 753,-19.5 753,-0.5 715,-0.5"/>
<text text-anchor="middle" x="734" y="-7.5" font-family="Helvetica,sans-Serif" font-size="10.00">utility</text>
</g>
<!-- Node19&#45;&gt;Node21 -->
<g id="edge29" class="edge"><title>Node19&#45;&gt;Node21</title>
<path fill="none" stroke="midnightblue" d="M739.009,-56.083C738.214,-48.9272 737.071,-38.6353 736.077,-29.6911"/>
<polygon fill="midnightblue" stroke="midnightblue" points="739.555,-29.3034 734.972,-19.7511 732.598,-30.0765 739.555,-29.3034"/>
</g>
<!-- Node23&#45;&gt;Node1 -->
<g id="edge33" class="edge"><title>Node23&#45;&gt;Node1</title>
<path fill="none" stroke="midnightblue" d="M446.675,-310.577C447.704,-318.408 447.995,-328.37 447.545,-337.403"/>
<polygon fill="midnightblue" stroke="midnightblue" points="444.056,-337.131 446.678,-347.396 451.03,-337.736 444.056,-337.131"/>
</g>
<!-- Node23&#45;&gt;Node11 -->
<g id="edge34" class="edge"><title>Node23&#45;&gt;Node11</title>
<path fill="none" stroke="midnightblue" d="M443.085,-280.337C446.148,-259.527 451.868,-220.663 455.265,-197.583"/>
<polygon fill="midnightblue" stroke="midnightblue" points="458.73,-198.073 456.724,-187.669 451.805,-197.053 458.73,-198.073"/>
</g>
</g>
</svg>
        <g id="navigator" transform="translate(0 0)" fill="#404254">
                <rect fill="#f2f5e9" fill-opacity="0.5" stroke="#606060" stroke-width=".5" x="0" y="0" width="60" height="60"/>
                <use id="zoomplus" xlink:href="#zoomPlus" x="17" y="9" onmousedown="handleZoom(evt,'in')"/>
                <use id="zoomminus" xlink:href="#zoomMin" x="42" y="9" onmousedown="handleZoom(evt,'out')"/>
                <use id="reset" xlink:href="#resetDef" x="30" y="36" onmousedown="handleReset()"/>
                <g id="arrowUp" xlink:href="#dirArrow" transform="translate(30 24)" onmousedown="handlePan(0,-1)">
                  <use xlink:href="#rim" fill="#404040">
                        <set attributeName="fill" to="#808080" begin="arrowUp.mouseover" end="arrowUp.mouseout"/>
                  </use>
                  <path fill="none" stroke="white" stroke-width="1.5" d="M0,-3.0v7 M-2.5,-0.5L0,-3.0L2.5,-0.5"/>
                </g>
                <g id="arrowRight" xlink:href="#dirArrow" transform="rotate(90) translate(36 -43)" onmousedown="handlePan(1,0)">
                  <use xlink:href="#rim" fill="#404040">
                        <set attributeName="fill" to="#808080" begin="arrowRight.mouseover" end="arrowRight.mouseout"/>
                  </use>
                  <path fill="none" stroke="white" stroke-width="1.5" d="M0,-3.0v7 M-2.5,-0.5L0,-3.0L2.5,-0.5"/>
                </g>
                <g id="arrowDown" xlink:href="#dirArrow" transform="rotate(180) translate(-30 -48)" onmousedown="handlePan(0,1)">
                  <use xlink:href="#rim" fill="#404040">
                        <set attributeName="fill" to="#808080" begin="arrowDown.mouseover" end="arrowDown.mouseout"/>
                  </use>
                  <path fill="none" stroke="white" stroke-width="1.5" d="M0,-3.0v7 M-2.5,-0.5L0,-3.0L2.5,-0.5"/>
                </g>
                <g id="arrowLeft" xlink:href="#dirArrow" transform="rotate(270) translate(-36 17)" onmousedown="handlePan(-1,0)">
                  <use xlink:href="#rim" fill="#404040">
                        <set attributeName="fill" to="#808080" begin="arrowLeft.mouseover" end="arrowLeft.mouseout"/>
                  </use>
                  <path fill="none" stroke="white" stroke-width="1.5" d="M0,-3.0v7 M-2.5,-0.5L0,-3.0L2.5,-0.5"/>
                </g>
        </g>
        <svg viewBox="0 0 15 15" width="100%" height="30px" preserveAspectRatio="xMaxYMin meet">
         <g id="arrow_out" transform="scale(0.3 0.3)">
          <a xlink:href="mpi__communicator_8hpp__incl_org.svg" target="_base">
           <rect id="button" ry="5" rx="5" y="6" x="6" height="38" width="38"
                fill="#f2f5e9" fill-opacity="0.5" stroke="#606060" stroke-width="1.0"/>
           <path id="arrow"
             d="M 11.500037,31.436501 C 11.940474,20.09759 22.043105,11.32322 32.158766,21.979434 L 37.068811,17.246167 C 37.068811,17.246167 37.088388,32 37.088388,32 L 22.160133,31.978069 C 22.160133,31.978069 26.997745,27.140456 26.997745,27.140456 C 18.528582,18.264221 13.291696,25.230495 11.500037,31.436501 z"
             style="fill:#404040;"/>
          </a>
         </g>
        </svg>
</svg>
