<?xml version="1.0" encoding="UTF-8" standalone="no"?>
<!DOCTYPE svg PUBLIC "-//W3C//DTD SVG 1.1//EN"
 "http://www.w3.org/Graphics/SVG/1.1/DTD/svg11.dtd">
<!-- Generated by graphviz version 2.38.0 (20140413.2041)
 -->
<!-- Title: pfasst::Controller::set_duration Pages: 1 -->
<!--zoomable 460 -->
<svg id="main" version="1.1" xmlns="http://www.w3.org/2000/svg" xmlns:xlink="http://www.w3.org/1999/xlink" xml:space="preserve" onload="init(evt)">
<style type="text/css"><![CDATA[
.edge:hover path { stroke: red; }
.edge:hover polygon { stroke: red; fill: red; }
]]></style>
<script type="text/javascript"><![CDATA[
var edges = document.getElementsByTagName('g');
if (edges && edges.length) {
  for (var i=0;i<edges.length;i++) {
    if (edges[i].id.substr(0,4)=='edge') {
      edges[i].setAttribute('class','edge');
    }
  }
}
]]></script>
        <defs>
                <circle id="rim" cx="0" cy="0" r="7"/>
                <circle id="rim2" cx="0" cy="0" r="3.5"/>
                <g id="zoomPlus">
                        <use xlink:href="#rim" fill="#404040">
                                <set attributeName="fill" to="#808080" begin="zoomplus.mouseover" end="zoomplus.mouseout"/>
                        </use>
                        <path d="M-4,0h8M0,-4v8" fill="none" stroke="white" stroke-width="1.5" pointer-events="none"/>
                </g>
                <g id="zoomMin">
                        <use xlink:href="#rim" fill="#404040">
                                <set attributeName="fill" to="#808080" begin="zoomminus.mouseover" end="zoomminus.mouseout"/>
                        </use>
                        <path d="M-4,0h8" fill="none" stroke="white" stroke-width="1.5" pointer-events="none"/>
                </g>
                <g id="dirArrow">
                        <path fill="none" stroke="white" stroke-width="1.5" d="M0,-3.0v7 M-2.5,-0.5L0,-3.0L2.5,-0.5"/>
                </g>
               <g id="resetDef">
                       <use xlink:href="#rim2" fill="#404040">
                               <set attributeName="fill" to="#808080" begin="reset.mouseover" end="reset.mouseout"/>
                       </use>
               </g>
        </defs>

<script type="text/javascript">
var viewWidth = 447;
var viewHeight = 460;
var sectionId = 'dynsection-6';
</script>
<script xlink:href="../../svgpan.js"/>
<svg id="graph" class="graph">
<g id="viewport">
<title>pfasst::Controller::set_duration</title>
<polygon fill="white" stroke="none" points="-4,4 -4,-455.5 443,-455.5 443,4 -4,4"/>
<!-- Node1 -->
<g id="node1" class="node"><title>Node1</title>
<polygon fill="#bfbfbf" stroke="black" points="0,-274 0,-304 92,-304 92,-274 0,-274"/>
<text text-anchor="start" x="8" y="-292" font-family="Helvetica,sans-Serif" font-size="10.00">pfasst::Controller</text>
<text text-anchor="middle" x="46" y="-281" font-family="Helvetica,sans-Serif" font-size="10.00">::set_duration</text>
</g>
<!-- Node2 -->
<g id="node2" class="node"><title>Node2</title>
<g id="a_node2"><a xlink:href="../../da/d74/namespacepfasst_1_1examples_1_1boris.html#a0f75e9bba0cc129f1b7089130f678e92" target="_top" xlink:title="pfasst::examples::boris\l::run_boris_pfasst">
<polygon fill="white" stroke="black" points="139,-421 139,-451 260,-451 260,-421 139,-421"/>
<text text-anchor="start" x="147" y="-439" font-family="Helvetica,sans-Serif" font-size="10.00">pfasst::examples::boris</text>
<text text-anchor="middle" x="199.5" y="-428" font-family="Helvetica,sans-Serif" font-size="10.00">::run_boris_pfasst</text>
</a>
</g>
</g>
<!-- Node1&#45;&gt;Node2 -->
<g id="edge1" class="edge"><title>Node1&#45;&gt;Node2</title>
<path fill="none" stroke="midnightblue" d="M57.2157,-313.573C69.9179,-341.262 94.1342,-385.81 128,-412 132.398,-415.401 137.307,-418.337 142.433,-420.868"/>
<polygon fill="midnightblue" stroke="midnightblue" points="60.3131,-311.924 53.0604,-304.2 53.9137,-314.761 60.3131,-311.924"/>
</g>
<!-- Node3 -->
<g id="node3" class="node"><title>Node3</title>
<g id="a_node3"><a xlink:href="../../da/d74/namespacepfasst_1_1examples_1_1boris.html#a8d5b021ed3d567b8abe80a2830aa88f1" target="_top" xlink:title="pfasst::examples::boris\l::run_boris_sdc">
<polygon fill="white" stroke="black" points="139,-372 139,-402 260,-402 260,-372 139,-372"/>
<text text-anchor="start" x="147" y="-390" font-family="Helvetica,sans-Serif" font-size="10.00">pfasst::examples::boris</text>
<text text-anchor="middle" x="199.5" y="-379" font-family="Helvetica,sans-Serif" font-size="10.00">::run_boris_sdc</text>
</a>
</g>
</g>
<!-- Node1&#45;&gt;Node3 -->
<g id="edge2" class="edge"><title>Node1&#45;&gt;Node3</title>
<path fill="none" stroke="midnightblue" d="M66.8212,-311.537C82.1383,-327.77 104.613,-349.165 128,-363 133.675,-366.357 139.887,-369.329 146.197,-371.937"/>
<polygon fill="midnightblue" stroke="midnightblue" points="69.2571,-309.016 59.9042,-304.038 64.1118,-313.762 69.2571,-309.016"/>
</g>
<!-- Node4 -->
<g id="node4" class="node"><title>Node4</title>
<g id="a_node4"><a xlink:href="../../d9/d85/group__AdvectionDiffusion.html#gacf2af7cceb96a5587032bc0e83b93e00" target="_top" xlink:title="Advection/diffusion example using an encapsulated IMEX sweeper. ">
<polygon fill="white" stroke="black" points="128,-323 128,-353 271,-353 271,-323 128,-323"/>
<text text-anchor="start" x="136" y="-341" font-family="Helvetica,sans-Serif" font-size="10.00">pfasst::examples::advection</text>
<text text-anchor="middle" x="199.5" y="-330" font-family="Helvetica,sans-Serif" font-size="10.00">_diffusion::run_mpi_pfasst</text>
</a>
</g>
</g>
<!-- Node1&#45;&gt;Node4 -->
<g id="edge3" class="edge"><title>Node1&#45;&gt;Node4</title>
<path fill="none" stroke="midnightblue" d="M101.583,-306.654C118.114,-312.001 136.108,-317.82 152.053,-322.978"/>
<polygon fill="midnightblue" stroke="midnightblue" points="102.637,-303.316 92.0448,-303.569 100.482,-309.977 102.637,-303.316"/>
</g>
<!-- Node8 -->
<g id="node8" class="node"><title>Node8</title>
<g id="a_node8"><a xlink:href="../../d1/d6e/group__Scalar.html#ga2e2a4c57c66ad0f2716d59ee2f4f457a" target="_top" xlink:title="Scalar test equation example using an encapsulated IMEX sweeper. ">
<polygon fill="white" stroke="black" points="136,-274 136,-304 263,-304 263,-274 136,-274"/>
<text text-anchor="start" x="144" y="-292" font-family="Helvetica,sans-Serif" font-size="10.00">pfasst::examples::scalar</text>
<text text-anchor="middle" x="199.5" y="-281" font-family="Helvetica,sans-Serif" font-size="10.00">::run_scalar_sdc</text>
</a>
</g>
</g>
<!-- Node1&#45;&gt;Node8 -->
<g id="edge7" class="edge"><title>Node1&#45;&gt;Node8</title>
<path fill="none" stroke="midnightblue" d="M102.312,-289C113.252,-289 124.806,-289 135.965,-289"/>
<polygon fill="midnightblue" stroke="midnightblue" points="102.045,-285.5 92.0448,-289 102.045,-292.5 102.045,-285.5"/>
</g>
<!-- Node11 -->
<g id="node11" class="node"><title>Node11</title>
<g id="a_node11"><a xlink:href="../../d9/d85/group__AdvectionDiffusion.html#ga54ea0f33dff1236bd3d9349a8ea75575" target="_top" xlink:title="Advection/diffusion example using an encapsulated IMEX sweeper. ">
<polygon fill="white" stroke="black" points="128,-211 128,-241 271,-241 271,-211 128,-211"/>
<text text-anchor="start" x="136" y="-229" font-family="Helvetica,sans-Serif" font-size="10.00">pfasst::examples::advection</text>
<text text-anchor="middle" x="199.5" y="-218" font-family="Helvetica,sans-Serif" font-size="10.00">_diffusion::run_serial_mlsdc</text>
</a>
</g>
</g>
<!-- Node1&#45;&gt;Node11 -->
<g id="edge11" class="edge"><title>Node1&#45;&gt;Node11</title>
<path fill="none" stroke="midnightblue" d="M92.5622,-270.053C114.865,-260.779 141.341,-249.769 162.246,-241.076"/>
<polygon fill="midnightblue" stroke="midnightblue" points="91.1776,-266.838 83.288,-273.91 93.8654,-273.302 91.1776,-266.838"/>
</g>
<!-- Node14 -->
<g id="node14" class="node"><title>Node14</title>
<g id="a_node14"><a xlink:href="../../d9/d85/group__AdvectionDiffusion.html#ga5a89fd6a8787527e482f6c853d0eec57" target="_top" xlink:title="Advection/diffusion example using an encapsulated IMEX sweeper. ">
<polygon fill="white" stroke="black" points="128,-121 128,-151 271,-151 271,-121 128,-121"/>
<text text-anchor="start" x="136" y="-139" font-family="Helvetica,sans-Serif" font-size="10.00">pfasst::examples::advection</text>
<text text-anchor="middle" x="199.5" y="-128" font-family="Helvetica,sans-Serif" font-size="10.00">_diffusion::run_vanilla_sdc</text>
</a>
</g>
</g>
<!-- Node1&#45;&gt;Node14 -->
<g id="edge15" class="edge"><title>Node1&#45;&gt;Node14</title>
<path fill="none" stroke="midnightblue" d="M67.248,-265.983C83.3395,-247.943 106.618,-222.4 128,-201 145.65,-183.335 166.821,-164.055 181.327,-151.118"/>
<polygon fill="midnightblue" stroke="midnightblue" points="64.4164,-263.9 60.393,-273.701 69.6503,-268.549 64.4164,-263.9"/>
</g>
<!-- Node17 -->
<g id="node17" class="node"><title>Node17</title>
<g id="a_node17"><a xlink:href="../../dd/d53/group__VanDerPol.html#gaa51c826dc921007c0e95faf30a4510d5" target="_top" xlink:title="pfasst::examples::vdp\l::run_vdp_sdc">
<polygon fill="white" stroke="black" points="141.5,-39 141.5,-69 257.5,-69 257.5,-39 141.5,-39"/>
<text text-anchor="start" x="149.5" y="-57" font-family="Helvetica,sans-Serif" font-size="10.00">pfasst::examples::vdp</text>
<text text-anchor="middle" x="199.5" y="-46" font-family="Helvetica,sans-Serif" font-size="10.00">::run_vdp_sdc</text>
</a>
</g>
</g>
<!-- Node1&#45;&gt;Node17 -->
<g id="edge18" class="edge"><title>Node1&#45;&gt;Node17</title>
<path fill="none" stroke="midnightblue" d="M54.2438,-264.154C65.6785,-227.849 90.5362,-159.374 128,-111 140.914,-94.3249 159.625,-79.4893 174.526,-69.1362"/>
<polygon fill="midnightblue" stroke="midnightblue" points="50.8364,-263.327 51.2507,-273.914 57.5288,-265.38 50.8364,-263.327"/>
</g>
<!-- Node5 -->
<g id="node5" class="node"><title>Node5</title>
<g id="a_node5"><a xlink:href="../../d1/d49/mpi__pfasst_8cpp.html#a3c04138a5bfe5d72780bb7e82a18e627" target="_top" xlink:title="main">
<polygon fill="white" stroke="black" points="354,-366.5 354,-385.5 392,-385.5 392,-366.5 354,-366.5"/>
<text text-anchor="middle" x="373" y="-373.5" font-family="Helvetica,sans-Serif" font-size="10.00">main</text>
</a>
</g>
</g>
<!-- Node4&#45;&gt;Node5 -->
<g id="edge4" class="edge"><title>Node4&#45;&gt;Node5</title>
<path fill="none" stroke="midnightblue" d="M278.146,-355.204C306.23,-361.427 335.483,-367.909 353.713,-371.948"/>
<polygon fill="midnightblue" stroke="midnightblue" points="278.802,-351.765 268.281,-353.019 277.287,-358.599 278.802,-351.765"/>
</g>
<!-- Node6 -->
<g id="node6" class="node"><title>Node6</title>
<g id="a_node6"><a xlink:href="../../d3/d6a/classConvergenceTest.html#a18a32024b87b7ee689df7e0375ea8ede" target="_top" xlink:title="ConvergenceTest::SetUp">
<polygon fill="white" stroke="black" points="307,-328.5 307,-347.5 439,-347.5 439,-328.5 307,-328.5"/>
<text text-anchor="middle" x="373" y="-335.5" font-family="Helvetica,sans-Serif" font-size="10.00">ConvergenceTest::SetUp</text>
</a>
</g>
</g>
<!-- Node4&#45;&gt;Node6 -->
<g id="edge5" class="edge"><title>Node4&#45;&gt;Node6</title>
<path fill="none" stroke="midnightblue" d="M281.283,-338C289.877,-338 298.538,-338 306.919,-338"/>
<polygon fill="midnightblue" stroke="midnightblue" points="281.246,-334.5 271.246,-338 281.246,-341.5 281.246,-334.5"/>
</g>
<!-- Node7 -->
<g id="node7" class="node"><title>Node7</title>
<g id="a_node7"><a xlink:href="../../dd/db6/test__mpi__advection__diffusion_8cpp.html#a88d3a04b41904a6a44c0a94330e3389a" target="_top" xlink:title="TEST">
<polygon fill="white" stroke="black" points="351,-404.5 351,-423.5 395,-423.5 395,-404.5 351,-404.5"/>
<text text-anchor="middle" x="373" y="-411.5" font-family="Helvetica,sans-Serif" font-size="10.00">TEST</text>
</a>
</g>
</g>
<!-- Node4&#45;&gt;Node7 -->
<g id="edge6" class="edge"><title>Node4&#45;&gt;Node7</title>
<path fill="none" stroke="midnightblue" d="M259.73,-357.059C263.623,-358.902 267.415,-360.882 271,-363 289.43,-373.891 288.27,-384.633 307,-395 320.681,-402.572 337.691,-407.405 350.878,-410.3"/>
<polygon fill="midnightblue" stroke="midnightblue" points="261.081,-353.83 250.519,-353.007 258.263,-360.237 261.081,-353.83"/>
</g>
<!-- Node8&#45;&gt;Node6 -->
<g id="edge9" class="edge"><title>Node8&#45;&gt;Node6</title>
<path fill="none" stroke="midnightblue" d="M263.01,-306.86C288.638,-314.182 317.262,-322.361 338.743,-328.498"/>
<polygon fill="midnightblue" stroke="midnightblue" points="263.932,-303.483 253.355,-304.101 262.009,-310.214 263.932,-303.483"/>
</g>
<!-- Node9 -->
<g id="node9" class="node"><title>Node9</title>
<g id="a_node9"><a xlink:href="../../d2/daf/scalar__sdc_8cpp.html#a3c04138a5bfe5d72780bb7e82a18e627" target="_top" xlink:title="main">
<polygon fill="white" stroke="black" points="354,-290.5 354,-309.5 392,-309.5 392,-290.5 354,-290.5"/>
<text text-anchor="middle" x="373" y="-297.5" font-family="Helvetica,sans-Serif" font-size="10.00">main</text>
</a>
</g>
</g>
<!-- Node8&#45;&gt;Node9 -->
<g id="edge8" class="edge"><title>Node8&#45;&gt;Node9</title>
<path fill="none" stroke="midnightblue" d="M273.68,-293.694C303.087,-295.58 334.509,-297.595 353.707,-298.827"/>
<polygon fill="midnightblue" stroke="midnightblue" points="273.59,-290.181 263.386,-293.034 273.142,-297.167 273.59,-290.181"/>
</g>
<!-- Node10 -->
<g id="node10" class="node"><title>Node10</title>
<g id="a_node10"><a xlink:href="../../d1/dee/classHighPrecisionTest.html#a1d448fa5c3fe1a3f2f60cd1fb77dba08" target="_top" xlink:title="HighPrecisionTest::\lSetUp">
<polygon fill="white" stroke="black" points="320,-241 320,-271 426,-271 426,-241 320,-241"/>
<text text-anchor="start" x="328" y="-259" font-family="Helvetica,sans-Serif" font-size="10.00">HighPrecisionTest::</text>
<text text-anchor="middle" x="373" y="-248" font-family="Helvetica,sans-Serif" font-size="10.00">SetUp</text>
</a>
</g>
</g>
<!-- Node8&#45;&gt;Node10 -->
<g id="edge10" class="edge"><title>Node8&#45;&gt;Node10</title>
<path fill="none" stroke="midnightblue" d="M273.511,-274.951C289.077,-271.956 305.215,-268.851 319.813,-266.042"/>
<polygon fill="midnightblue" stroke="midnightblue" points="272.545,-271.573 263.386,-276.899 273.868,-278.447 272.545,-271.573"/>
</g>
<!-- Node11&#45;&gt;Node6 -->
<g id="edge13" class="edge"><title>Node11&#45;&gt;Node6</title>
<path fill="none" stroke="midnightblue" d="M244.25,-245.936C253.655,-251.348 263.123,-257.749 271,-265 292.222,-284.535 283.754,-301.923 307,-319 312.306,-322.898 318.401,-326 324.686,-328.467"/>
<polygon fill="midnightblue" stroke="midnightblue" points="245.761,-242.774 235.307,-241.056 242.408,-248.918 245.761,-242.774"/>
</g>
<!-- Node12 -->
<g id="node12" class="node"><title>Node12</title>
<g id="a_node12"><a xlink:href="../../d9/d86/serial__mlsdc_8cpp.html#a3c04138a5bfe5d72780bb7e82a18e627" target="_top" xlink:title="main">
<polygon fill="white" stroke="black" points="354,-164.5 354,-183.5 392,-183.5 392,-164.5 354,-164.5"/>
<text text-anchor="middle" x="373" y="-171.5" font-family="Helvetica,sans-Serif" font-size="10.00">main</text>
</a>
</g>
</g>
<!-- Node11&#45;&gt;Node12 -->
<g id="edge12" class="edge"><title>Node11&#45;&gt;Node12</title>
<path fill="none" stroke="midnightblue" d="M258.091,-207.969C273.926,-203.062 291.113,-197.783 307,-193 322.761,-188.255 340.723,-183.017 353.765,-179.245"/>
<polygon fill="midnightblue" stroke="midnightblue" points="256.942,-204.661 248.429,-210.969 259.017,-211.347 256.942,-204.661"/>
</g>
<!-- Node13 -->
<g id="node13" class="node"><title>Node13</title>
<g id="a_node13"><a xlink:href="../../df/df8/test__advection__diffusion_8cpp.html#a14b7af1ba2e39c56da0f65c963f0e6d2" target="_top" xlink:title="TEST">
<polygon fill="white" stroke="black" points="351,-202.5 351,-221.5 395,-221.5 395,-202.5 351,-202.5"/>
<text text-anchor="middle" x="373" y="-209.5" font-family="Helvetica,sans-Serif" font-size="10.00">TEST</text>
</a>
</g>
</g>
<!-- Node11&#45;&gt;Node13 -->
<g id="edge14" class="edge"><title>Node11&#45;&gt;Node13</title>
<path fill="none" stroke="midnightblue" d="M281.375,-219.398C306.941,-217.311 333.087,-215.177 350.683,-213.74"/>
<polygon fill="midnightblue" stroke="midnightblue" points="280.928,-215.923 271.246,-220.225 281.497,-222.9 280.928,-215.923"/>
</g>
<!-- Node15 -->
<g id="node15" class="node"><title>Node15</title>
<g id="a_node15"><a xlink:href="../../d4/df0/vanilla__sdc_8cpp.html#a3c04138a5bfe5d72780bb7e82a18e627" target="_top" xlink:title="main">
<polygon fill="white" stroke="black" points="354,-88.5 354,-107.5 392,-107.5 392,-88.5 354,-88.5"/>
<text text-anchor="middle" x="373" y="-95.5" font-family="Helvetica,sans-Serif" font-size="10.00">main</text>
</a>
</g>
</g>
<!-- Node14&#45;&gt;Node15 -->
<g id="edge16" class="edge"><title>Node14&#45;&gt;Node15</title>
<path fill="none" stroke="midnightblue" d="M278.146,-118.796C306.23,-112.573 335.483,-106.091 353.713,-102.052"/>
<polygon fill="midnightblue" stroke="midnightblue" points="277.287,-115.401 268.281,-120.981 278.802,-122.235 277.287,-115.401"/>
</g>
<!-- Node16 -->
<g id="node16" class="node"><title>Node16</title>
<g id="a_node16"><a xlink:href="../../df/df8/test__advection__diffusion_8cpp.html#aa11b7a5c6a1ab75dcaf86ed3e74c7a3f" target="_top" xlink:title="TEST">
<polygon fill="white" stroke="black" points="351,-126.5 351,-145.5 395,-145.5 395,-126.5 351,-126.5"/>
<text text-anchor="middle" x="373" y="-133.5" font-family="Helvetica,sans-Serif" font-size="10.00">TEST</text>
</a>
</g>
</g>
<!-- Node14&#45;&gt;Node16 -->
<g id="edge17" class="edge"><title>Node14&#45;&gt;Node16</title>
<path fill="none" stroke="midnightblue" d="M281.375,-136C306.941,-136 333.087,-136 350.683,-136"/>
<polygon fill="midnightblue" stroke="midnightblue" points="281.246,-132.5 271.246,-136 281.246,-139.5 281.246,-132.5"/>
</g>
<!-- Node18 -->
<g id="node18" class="node"><title>Node18</title>
<g id="a_node18"><a xlink:href="../../df/de7/vdp__sdc_8cpp.html#a3c04138a5bfe5d72780bb7e82a18e627" target="_top" xlink:title="main">
<polygon fill="white" stroke="black" points="354,-0.5 354,-19.5 392,-19.5 392,-0.5 354,-0.5"/>
<text text-anchor="middle" x="373" y="-7.5" font-family="Helvetica,sans-Serif" font-size="10.00">main</text>
</a>
</g>
</g>
<!-- Node17&#45;&gt;Node18 -->
<g id="edge19" class="edge"><title>Node17&#45;&gt;Node18</title>
<path fill="none" stroke="midnightblue" d="M267.594,-36.7865C298.796,-28.7812 333.462,-19.8874 353.961,-14.6282"/>
<polygon fill="midnightblue" stroke="midnightblue" points="266.423,-33.4732 257.607,-39.3486 268.163,-40.2537 266.423,-33.4732"/>
</g>
<!-- Node19 -->
<g id="node19" class="node"><title>Node19</title>
<g id="a_node19"><a xlink:href="../../d8/d13/classVdPConvergenceTest.html#a08c22d8d5be8f9796e0866f3fe3277bb" target="_top" xlink:title="VdPConvergenceTest\l::SetUp">
<polygon fill="white" stroke="black" points="313.5,-39 313.5,-69 432.5,-69 432.5,-39 313.5,-39"/>
<text text-anchor="start" x="321.5" y="-57" font-family="Helvetica,sans-Serif" font-size="10.00">VdPConvergenceTest</text>
<text text-anchor="middle" x="373" y="-46" font-family="Helvetica,sans-Serif" font-size="10.00">::SetUp</text>
</a>
</g>
</g>
<!-- Node17&#45;&gt;Node19 -->
<g id="edge20" class="edge"><title>Node17&#45;&gt;Node19</title>
<path fill="none" stroke="midnightblue" d="M267.867,-54C282.904,-54 298.733,-54 313.384,-54"/>
<polygon fill="midnightblue" stroke="midnightblue" points="267.607,-50.5001 257.607,-54 267.607,-57.5001 267.607,-50.5001"/>
</g>
</g>
</svg>
        <g id="navigator" transform="translate(0 0)" fill="#404254">
                <rect fill="#f2f5e9" fill-opacity="0.5" stroke="#606060" stroke-width=".5" x="0" y="0" width="60" height="60"/>
                <use id="zoomplus" xlink:href="#zoomPlus" x="17" y="9" onmousedown="handleZoom(evt,'in')"/>
                <use id="zoomminus" xlink:href="#zoomMin" x="42" y="9" onmousedown="handleZoom(evt,'out')"/>
                <use id="reset" xlink:href="#resetDef" x="30" y="36" onmousedown="handleReset()"/>
                <g id="arrowUp" xlink:href="#dirArrow" transform="translate(30 24)" onmousedown="handlePan(0,-1)">
                  <use xlink:href="#rim" fill="#404040">
                        <set attributeName="fill" to="#808080" begin="arrowUp.mouseover" end="arrowUp.mouseout"/>
                  </use>
                  <path fill="none" stroke="white" stroke-width="1.5" d="M0,-3.0v7 M-2.5,-0.5L0,-3.0L2.5,-0.5"/>
                </g>
                <g id="arrowRight" xlink:href="#dirArrow" transform="rotate(90) translate(36 -43)" onmousedown="handlePan(1,0)">
                  <use xlink:href="#rim" fill="#404040">
                        <set attributeName="fill" to="#808080" begin="arrowRight.mouseover" end="arrowRight.mouseout"/>
                  </use>
                  <path fill="none" stroke="white" stroke-width="1.5" d="M0,-3.0v7 M-2.5,-0.5L0,-3.0L2.5,-0.5"/>
                </g>
                <g id="arrowDown" xlink:href="#dirArrow" transform="rotate(180) translate(-30 -48)" onmousedown="handlePan(0,1)">
                  <use xlink:href="#rim" fill="#404040">
                        <set attributeName="fill" to="#808080" begin="arrowDown.mouseover" end="arrowDown.mouseout"/>
                  </use>
                  <path fill="none" stroke="white" stroke-width="1.5" d="M0,-3.0v7 M-2.5,-0.5L0,-3.0L2.5,-0.5"/>
                </g>
                <g id="arrowLeft" xlink:href="#dirArrow" transform="rotate(270) translate(-36 17)" onmousedown="handlePan(-1,0)">
                  <use xlink:href="#rim" fill="#404040">
                        <set attributeName="fill" to="#808080" begin="arrowLeft.mouseover" end="arrowLeft.mouseout"/>
                  </use>
                  <path fill="none" stroke="white" stroke-width="1.5" d="M0,-3.0v7 M-2.5,-0.5L0,-3.0L2.5,-0.5"/>
                </g>
        </g>
        <svg viewBox="0 0 15 15" width="100%" height="30px" preserveAspectRatio="xMaxYMin meet">
         <g id="arrow_out" transform="scale(0.3 0.3)">
          <a xlink:href="classpfasst_1_1Controller_af31a86d9ccd9db325532c5ae3a5764f0_icgraph_org.svg" target="_base">
           <rect id="button" ry="5" rx="5" y="6" x="6" height="38" width="38"
                fill="#f2f5e9" fill-opacity="0.5" stroke="#606060" stroke-width="1.0"/>
           <path id="arrow"
             d="M 11.500037,31.436501 C 11.940474,20.09759 22.043105,11.32322 32.158766,21.979434 L 37.068811,17.246167 C 37.068811,17.246167 37.088388,32 37.088388,32 L 22.160133,31.978069 C 22.160133,31.978069 26.997745,27.140456 26.997745,27.140456 C 18.528582,18.264221 13.291696,25.230495 11.500037,31.436501 z"
             style="fill:#404040;"/>
          </a>
         </g>
        </svg>
</svg>
