<?xml version="1.0" encoding="UTF-8" standalone="no"?>
<!DOCTYPE svg PUBLIC "-//W3C//DTD SVG 1.1//EN"
 "http://www.w3.org/Graphics/SVG/1.1/DTD/svg11.dtd">
<!-- Generated by graphviz version 2.38.0 (20140413.2041)
 -->
<!-- Title: pfasst::Controller::get_finest Pages: 1 -->
<svg width="447pt" height="239pt"
 viewBox="0.00 0.00 447.00 238.50" xmlns="http://www.w3.org/2000/svg" xmlns:xlink="http://www.w3.org/1999/xlink">
<g id="graph0" class="graph" transform="scale(1 1) rotate(0) translate(4 234.5)">
<title>pfasst::Controller::get_finest</title>
<polygon fill="white" stroke="none" points="-4,4 -4,-234.5 443,-234.5 443,4 -4,4"/>
<!-- Node1 -->
<g id="node1" class="node"><title>Node1</title>
<polygon fill="#bfbfbf" stroke="black" points="0,-126 0,-156 92,-156 92,-126 0,-126"/>
<text text-anchor="start" x="8" y="-144" font-family="Helvetica,sans-Serif" font-size="10.00">pfasst::Controller</text>
<text text-anchor="middle" x="46" y="-133" font-family="Helvetica,sans-Serif" font-size="10.00">::get_finest</text>
</g>
<!-- Node2 -->
<g id="node2" class="node"><title>Node2</title>
<g id="a_node2"><a xlink:href="../../da/d74/namespacepfasst_1_1examples_1_1boris.html#a0f75e9bba0cc129f1b7089130f678e92" target="_top" xlink:title="pfasst::examples::boris\l::run_boris_pfasst">
<polygon fill="white" stroke="black" points="139,-200 139,-230 260,-230 260,-200 139,-200"/>
<text text-anchor="start" x="147" y="-218" font-family="Helvetica,sans-Serif" font-size="10.00">pfasst::examples::boris</text>
<text text-anchor="middle" x="199.5" y="-207" font-family="Helvetica,sans-Serif" font-size="10.00">::run_boris_pfasst</text>
</a>
</g>
</g>
<!-- Node1&#45;&gt;Node2 -->
<g id="edge1" class="edge"><title>Node1&#45;&gt;Node2</title>
<path fill="none" stroke="midnightblue" d="M77.3291,-161.98C92.1628,-171.646 110.546,-182.771 128,-191 134.783,-194.198 142.111,-197.179 149.389,-199.877"/>
<polygon fill="midnightblue" stroke="midnightblue" points="78.8608,-158.796 68.5918,-156.189 74.9933,-164.631 78.8608,-158.796"/>
</g>
<!-- Node3 -->
<g id="node3" class="node"><title>Node3</title>
<g id="a_node3"><a xlink:href="../../da/d74/namespacepfasst_1_1examples_1_1boris.html#a8d5b021ed3d567b8abe80a2830aa88f1" target="_top" xlink:title="pfasst::examples::boris\l::run_boris_sdc">
<polygon fill="white" stroke="black" points="139,-151 139,-181 260,-181 260,-151 139,-151"/>
<text text-anchor="start" x="147" y="-169" font-family="Helvetica,sans-Serif" font-size="10.00">pfasst::examples::boris</text>
<text text-anchor="middle" x="199.5" y="-158" font-family="Helvetica,sans-Serif" font-size="10.00">::run_boris_sdc</text>
</a>
</g>
</g>
<!-- Node1&#45;&gt;Node3 -->
<g id="edge2" class="edge"><title>Node1&#45;&gt;Node3</title>
<path fill="none" stroke="midnightblue" d="M102.256,-150.118C114.126,-152.077 126.721,-154.155 138.752,-156.141"/>
<polygon fill="midnightblue" stroke="midnightblue" points="102.481,-146.608 92.0448,-148.433 101.341,-153.515 102.481,-146.608"/>
</g>
<!-- Node4 -->
<g id="node4" class="node"><title>Node4</title>
<g id="a_node4"><a xlink:href="../../d9/d85/group__AdvectionDiffusion.html#gacf2af7cceb96a5587032bc0e83b93e00" target="_top" xlink:title="Advection/diffusion example using an encapsulated IMEX sweeper. ">
<polygon fill="white" stroke="black" points="128,-102 128,-132 271,-132 271,-102 128,-102"/>
<text text-anchor="start" x="136" y="-120" font-family="Helvetica,sans-Serif" font-size="10.00">pfasst::examples::advection</text>
<text text-anchor="middle" x="199.5" y="-109" font-family="Helvetica,sans-Serif" font-size="10.00">_diffusion::run_mpi_pfasst</text>
</a>
</g>
</g>
<!-- Node1&#45;&gt;Node4 -->
<g id="edge3" class="edge"><title>Node1&#45;&gt;Node4</title>
<path fill="none" stroke="midnightblue" d="M102.044,-132.28C110.416,-130.954 119.153,-129.57 127.802,-128.2"/>
<polygon fill="midnightblue" stroke="midnightblue" points="101.374,-128.843 92.0448,-133.864 102.469,-135.756 101.374,-128.843"/>
</g>
<!-- Node8 -->
<g id="node8" class="node"><title>Node8</title>
<g id="a_node8"><a xlink:href="../../d9/d85/group__AdvectionDiffusion.html#ga54ea0f33dff1236bd3d9349a8ea75575" target="_top" xlink:title="Advection/diffusion example using an encapsulated IMEX sweeper. ">
<polygon fill="white" stroke="black" points="128,-40 128,-70 271,-70 271,-40 128,-40"/>
<text text-anchor="start" x="136" y="-58" font-family="Helvetica,sans-Serif" font-size="10.00">pfasst::examples::advection</text>
<text text-anchor="middle" x="199.5" y="-47" font-family="Helvetica,sans-Serif" font-size="10.00">_diffusion::run_serial_mlsdc</text>
</a>
</g>
</g>
<!-- Node1&#45;&gt;Node8 -->
<g id="edge7" class="edge"><title>Node1&#45;&gt;Node8</title>
<path fill="none" stroke="midnightblue" d="M80.6588,-120.64C95.1484,-111.984 112.328,-101.862 128,-93 141.677,-85.266 157.016,-76.9558 169.884,-70.0849"/>
<polygon fill="midnightblue" stroke="midnightblue" points="78.8002,-117.674 72.0222,-125.817 82.3989,-123.678 78.8002,-117.674"/>
</g>
<!-- Node5 -->
<g id="node5" class="node"><title>Node5</title>
<g id="a_node5"><a xlink:href="../../d1/d49/mpi__pfasst_8cpp.html#a3c04138a5bfe5d72780bb7e82a18e627" target="_top" xlink:title="main">
<polygon fill="white" stroke="black" points="354,-152.5 354,-171.5 392,-171.5 392,-152.5 354,-152.5"/>
<text text-anchor="middle" x="373" y="-159.5" font-family="Helvetica,sans-Serif" font-size="10.00">main</text>
</a>
</g>
</g>
<!-- Node4&#45;&gt;Node5 -->
<g id="edge4" class="edge"><title>Node4&#45;&gt;Node5</title>
<path fill="none" stroke="midnightblue" d="M267.995,-134.71C298.946,-142.831 333.224,-151.826 353.671,-157.191"/>
<polygon fill="midnightblue" stroke="midnightblue" points="268.645,-131.262 258.084,-132.11 266.868,-138.033 268.645,-131.262"/>
</g>
<!-- Node6 -->
<g id="node6" class="node"><title>Node6</title>
<g id="a_node6"><a xlink:href="../../d3/d6a/classConvergenceTest.html#a18a32024b87b7ee689df7e0375ea8ede" target="_top" xlink:title="ConvergenceTest::SetUp">
<polygon fill="white" stroke="black" points="307,-76.5 307,-95.5 439,-95.5 439,-76.5 307,-76.5"/>
<text text-anchor="middle" x="373" y="-83.5" font-family="Helvetica,sans-Serif" font-size="10.00">ConvergenceTest::SetUp</text>
</a>
</g>
</g>
<!-- Node4&#45;&gt;Node6 -->
<g id="edge5" class="edge"><title>Node4&#45;&gt;Node6</title>
<path fill="none" stroke="midnightblue" d="M281.099,-102.431C294.05,-100.09 307.158,-97.7207 319.236,-95.5375"/>
<polygon fill="midnightblue" stroke="midnightblue" points="280.464,-98.9891 271.246,-104.212 281.709,-105.877 280.464,-98.9891"/>
</g>
<!-- Node7 -->
<g id="node7" class="node"><title>Node7</title>
<g id="a_node7"><a xlink:href="../../dd/db6/test__mpi__advection__diffusion_8cpp.html#a88d3a04b41904a6a44c0a94330e3389a" target="_top" xlink:title="TEST">
<polygon fill="white" stroke="black" points="351,-114.5 351,-133.5 395,-133.5 395,-114.5 351,-114.5"/>
<text text-anchor="middle" x="373" y="-121.5" font-family="Helvetica,sans-Serif" font-size="10.00">TEST</text>
</a>
</g>
</g>
<!-- Node4&#45;&gt;Node7 -->
<g id="edge6" class="edge"><title>Node4&#45;&gt;Node7</title>
<path fill="none" stroke="midnightblue" d="M281.375,-120.301C306.941,-121.345 333.087,-122.412 350.683,-123.13"/>
<polygon fill="midnightblue" stroke="midnightblue" points="281.38,-116.798 271.246,-119.888 281.095,-123.793 281.38,-116.798"/>
</g>
<!-- Node8&#45;&gt;Node6 -->
<g id="edge9" class="edge"><title>Node8&#45;&gt;Node6</title>
<path fill="none" stroke="midnightblue" d="M281.099,-69.5689C294.05,-71.9099 307.158,-74.2793 319.236,-76.4625"/>
<polygon fill="midnightblue" stroke="midnightblue" points="281.709,-66.1225 271.246,-67.7879 280.464,-73.0109 281.709,-66.1225"/>
</g>
<!-- Node9 -->
<g id="node9" class="node"><title>Node9</title>
<g id="a_node9"><a xlink:href="../../d9/d86/serial__mlsdc_8cpp.html#a3c04138a5bfe5d72780bb7e82a18e627" target="_top" xlink:title="main">
<polygon fill="white" stroke="black" points="354,-38.5 354,-57.5 392,-57.5 392,-38.5 354,-38.5"/>
<text text-anchor="middle" x="373" y="-45.5" font-family="Helvetica,sans-Serif" font-size="10.00">main</text>
</a>
</g>
</g>
<!-- Node8&#45;&gt;Node9 -->
<g id="edge8" class="edge"><title>Node8&#45;&gt;Node9</title>
<path fill="none" stroke="midnightblue" d="M281.544,-51.6921C308.551,-50.5898 336.183,-49.4619 353.68,-48.7478"/>
<polygon fill="midnightblue" stroke="midnightblue" points="281.095,-48.2074 271.246,-52.1124 281.38,-55.2016 281.095,-48.2074"/>
</g>
<!-- Node10 -->
<g id="node10" class="node"><title>Node10</title>
<g id="a_node10"><a xlink:href="../../df/df8/test__advection__diffusion_8cpp.html#a14b7af1ba2e39c56da0f65c963f0e6d2" target="_top" xlink:title="TEST">
<polygon fill="white" stroke="black" points="351,-0.5 351,-19.5 395,-19.5 395,-0.5 351,-0.5"/>
<text text-anchor="middle" x="373" y="-7.5" font-family="Helvetica,sans-Serif" font-size="10.00">TEST</text>
</a>
</g>
</g>
<!-- Node8&#45;&gt;Node10 -->
<g id="edge10" class="edge"><title>Node8&#45;&gt;Node10</title>
<path fill="none" stroke="midnightblue" d="M267.969,-37.2969C297.522,-29.5422 330.115,-20.9903 350.804,-15.5616"/>
<polygon fill="midnightblue" stroke="midnightblue" points="266.868,-33.967 258.084,-39.8905 268.645,-40.7378 266.868,-33.967"/>
</g>
</g>
</svg>
