<?xml version="1.0" encoding="UTF-8" standalone="no"?>
<!DOCTYPE svg PUBLIC "-//W3C//DTD SVG 1.1//EN"
 "http://www.w3.org/Graphics/SVG/1.1/DTD/svg11.dtd">
<!-- Generated by graphviz version 2.38.0 (20140413.2041)
 -->
<!-- Title: pfasst::Controller::set_options Pages: 1 -->
<svg width="447pt" height="256pt"
 viewBox="0.00 0.00 447.00 256.00" xmlns="http://www.w3.org/2000/svg" xmlns:xlink="http://www.w3.org/1999/xlink">
<g id="graph0" class="graph" transform="scale(1 1) rotate(0) translate(4 252)">
<title>pfasst::Controller::set_options</title>
<polygon fill="white" stroke="none" points="-4,4 -4,-252 443,-252 443,4 -4,4"/>
<!-- Node1 -->
<g id="node1" class="node"><title>Node1</title>
<polygon fill="#bfbfbf" stroke="black" points="0,-133 0,-163 92,-163 92,-133 0,-133"/>
<text text-anchor="start" x="8" y="-151" font-family="Helvetica,sans-Serif" font-size="10.00">pfasst::Controller</text>
<text text-anchor="middle" x="46" y="-140" font-family="Helvetica,sans-Serif" font-size="10.00">::set_options</text>
</g>
<!-- Node2 -->
<g id="node2" class="node"><title>Node2</title>
<g id="a_node2"><a xlink:href="../../da/d74/namespacepfasst_1_1examples_1_1boris.html#a0f75e9bba0cc129f1b7089130f678e92" target="_top" xlink:title="pfasst::examples::boris\l::run_boris_pfasst">
<polygon fill="white" stroke="black" points="139,-207 139,-237 260,-237 260,-207 139,-207"/>
<text text-anchor="start" x="147" y="-225" font-family="Helvetica,sans-Serif" font-size="10.00">pfasst::examples::boris</text>
<text text-anchor="middle" x="199.5" y="-214" font-family="Helvetica,sans-Serif" font-size="10.00">::run_boris_pfasst</text>
</a>
</g>
</g>
<!-- Node1&#45;&gt;Node2 -->
<g id="edge1" class="edge"><title>Node1&#45;&gt;Node2</title>
<path fill="none" stroke="midnightblue" d="M77.3291,-168.98C92.1628,-178.646 110.546,-189.771 128,-198 134.783,-201.198 142.111,-204.179 149.389,-206.877"/>
<polygon fill="midnightblue" stroke="midnightblue" points="78.8608,-165.796 68.5918,-163.189 74.9933,-171.631 78.8608,-165.796"/>
</g>
<!-- Node3 -->
<g id="node3" class="node"><title>Node3</title>
<g id="a_node3"><a xlink:href="../../d9/d85/group__AdvectionDiffusion.html#gacf2af7cceb96a5587032bc0e83b93e00" target="_top" xlink:title="Advection/diffusion example using an encapsulated IMEX sweeper. ">
<polygon fill="white" stroke="black" points="128,-158 128,-188 271,-188 271,-158 128,-158"/>
<text text-anchor="start" x="136" y="-176" font-family="Helvetica,sans-Serif" font-size="10.00">pfasst::examples::advection</text>
<text text-anchor="middle" x="199.5" y="-165" font-family="Helvetica,sans-Serif" font-size="10.00">_diffusion::run_mpi_pfasst</text>
</a>
</g>
</g>
<!-- Node1&#45;&gt;Node3 -->
<g id="edge2" class="edge"><title>Node1&#45;&gt;Node3</title>
<path fill="none" stroke="midnightblue" d="M102.044,-157.083C110.416,-158.465 119.153,-159.906 127.802,-161.334"/>
<polygon fill="midnightblue" stroke="midnightblue" points="102.481,-153.608 92.0448,-155.433 101.341,-160.515 102.481,-153.608"/>
</g>
<!-- Node7 -->
<g id="node7" class="node"><title>Node7</title>
<g id="a_node7"><a xlink:href="../../d9/d85/group__AdvectionDiffusion.html#ga54ea0f33dff1236bd3d9349a8ea75575" target="_top" xlink:title="Advection/diffusion example using an encapsulated IMEX sweeper. ">
<polygon fill="white" stroke="black" points="128,-109 128,-139 271,-139 271,-109 128,-109"/>
<text text-anchor="start" x="136" y="-127" font-family="Helvetica,sans-Serif" font-size="10.00">pfasst::examples::advection</text>
<text text-anchor="middle" x="199.5" y="-116" font-family="Helvetica,sans-Serif" font-size="10.00">_diffusion::run_serial_mlsdc</text>
</a>
</g>
</g>
<!-- Node1&#45;&gt;Node7 -->
<g id="edge6" class="edge"><title>Node1&#45;&gt;Node7</title>
<path fill="none" stroke="midnightblue" d="M102.044,-139.28C110.416,-137.954 119.153,-136.57 127.802,-135.2"/>
<polygon fill="midnightblue" stroke="midnightblue" points="101.374,-135.843 92.0448,-140.864 102.469,-142.756 101.374,-135.843"/>
</g>
<!-- Node10 -->
<g id="node10" class="node"><title>Node10</title>
<g id="a_node10"><a xlink:href="../../d9/d85/group__AdvectionDiffusion.html#ga5a89fd6a8787527e482f6c853d0eec57" target="_top" xlink:title="Advection/diffusion example using an encapsulated IMEX sweeper. ">
<polygon fill="white" stroke="black" points="128,-33 128,-63 271,-63 271,-33 128,-33"/>
<text text-anchor="start" x="136" y="-51" font-family="Helvetica,sans-Serif" font-size="10.00">pfasst::examples::advection</text>
<text text-anchor="middle" x="199.5" y="-40" font-family="Helvetica,sans-Serif" font-size="10.00">_diffusion::run_vanilla_sdc</text>
</a>
</g>
</g>
<!-- Node1&#45;&gt;Node10 -->
<g id="edge10" class="edge"><title>Node1&#45;&gt;Node10</title>
<path fill="none" stroke="midnightblue" d="M78.5583,-127.169C107.588,-108.008 149.933,-80.0573 175.77,-63.0031"/>
<polygon fill="midnightblue" stroke="midnightblue" points="76.4273,-124.382 70.0096,-132.812 80.2835,-130.224 76.4273,-124.382"/>
</g>
<!-- Node4 -->
<g id="node4" class="node"><title>Node4</title>
<g id="a_node4"><a xlink:href="../../d1/d49/mpi__pfasst_8cpp.html#a3c04138a5bfe5d72780bb7e82a18e627" target="_top" xlink:title="main">
<polygon fill="white" stroke="black" points="354,-228.5 354,-247.5 392,-247.5 392,-228.5 354,-228.5"/>
<text text-anchor="middle" x="373" y="-235.5" font-family="Helvetica,sans-Serif" font-size="10.00">main</text>
</a>
</g>
</g>
<!-- Node3&#45;&gt;Node4 -->
<g id="edge3" class="edge"><title>Node3&#45;&gt;Node4</title>
<path fill="none" stroke="midnightblue" d="M256.458,-191.749C261.424,-193.742 266.334,-195.835 271,-198 287.803,-205.796 289.984,-211.681 307,-219 322.336,-225.597 340.658,-230.721 353.934,-233.977"/>
<polygon fill="midnightblue" stroke="midnightblue" points="257.475,-188.39 246.886,-188.05 254.952,-194.92 257.475,-188.39"/>
</g>
<!-- Node5 -->
<g id="node5" class="node"><title>Node5</title>
<g id="a_node5"><a xlink:href="../../d3/d6a/classConvergenceTest.html#a18a32024b87b7ee689df7e0375ea8ede" target="_top" xlink:title="ConvergenceTest::SetUp">
<polygon fill="white" stroke="black" points="307,-152.5 307,-171.5 439,-171.5 439,-152.5 307,-152.5"/>
<text text-anchor="middle" x="373" y="-159.5" font-family="Helvetica,sans-Serif" font-size="10.00">ConvergenceTest::SetUp</text>
</a>
</g>
</g>
<!-- Node3&#45;&gt;Node5 -->
<g id="edge4" class="edge"><title>Node3&#45;&gt;Node5</title>
<path fill="none" stroke="midnightblue" d="M281.283,-167.819C289.877,-167.267 298.538,-166.712 306.919,-166.174"/>
<polygon fill="midnightblue" stroke="midnightblue" points="281.001,-164.329 271.246,-168.462 281.449,-171.315 281.001,-164.329"/>
</g>
<!-- Node6 -->
<g id="node6" class="node"><title>Node6</title>
<g id="a_node6"><a xlink:href="../../dd/db6/test__mpi__advection__diffusion_8cpp.html#a88d3a04b41904a6a44c0a94330e3389a" target="_top" xlink:title="TEST">
<polygon fill="white" stroke="black" points="351,-190.5 351,-209.5 395,-209.5 395,-190.5 351,-190.5"/>
<text text-anchor="middle" x="373" y="-197.5" font-family="Helvetica,sans-Serif" font-size="10.00">TEST</text>
</a>
</g>
</g>
<!-- Node3&#45;&gt;Node6 -->
<g id="edge5" class="edge"><title>Node3&#45;&gt;Node6</title>
<path fill="none" stroke="midnightblue" d="M281.375,-185.733C306.941,-189.757 333.087,-193.874 350.683,-196.644"/>
<polygon fill="midnightblue" stroke="midnightblue" points="281.668,-182.236 271.246,-184.138 280.58,-189.151 281.668,-182.236"/>
</g>
<!-- Node7&#45;&gt;Node5 -->
<g id="edge8" class="edge"><title>Node7&#45;&gt;Node5</title>
<path fill="none" stroke="midnightblue" d="M278.467,-141.276C295.889,-145.136 313.743,-149.092 329.121,-152.499"/>
<polygon fill="midnightblue" stroke="midnightblue" points="278.802,-137.765 268.281,-139.019 277.287,-144.599 278.802,-137.765"/>
</g>
<!-- Node8 -->
<g id="node8" class="node"><title>Node8</title>
<g id="a_node8"><a xlink:href="../../d9/d86/serial__mlsdc_8cpp.html#a3c04138a5bfe5d72780bb7e82a18e627" target="_top" xlink:title="main">
<polygon fill="white" stroke="black" points="354,-114.5 354,-133.5 392,-133.5 392,-114.5 354,-114.5"/>
<text text-anchor="middle" x="373" y="-121.5" font-family="Helvetica,sans-Serif" font-size="10.00">main</text>
</a>
</g>
</g>
<!-- Node7&#45;&gt;Node8 -->
<g id="edge7" class="edge"><title>Node7&#45;&gt;Node8</title>
<path fill="none" stroke="midnightblue" d="M281.544,-124C308.551,-124 336.183,-124 353.68,-124"/>
<polygon fill="midnightblue" stroke="midnightblue" points="281.246,-120.5 271.246,-124 281.246,-127.5 281.246,-120.5"/>
</g>
<!-- Node9 -->
<g id="node9" class="node"><title>Node9</title>
<g id="a_node9"><a xlink:href="../../df/df8/test__advection__diffusion_8cpp.html#a14b7af1ba2e39c56da0f65c963f0e6d2" target="_top" xlink:title="TEST">
<polygon fill="white" stroke="black" points="351,-76.5 351,-95.5 395,-95.5 395,-76.5 351,-76.5"/>
<text text-anchor="middle" x="373" y="-83.5" font-family="Helvetica,sans-Serif" font-size="10.00">TEST</text>
</a>
</g>
</g>
<!-- Node7&#45;&gt;Node9 -->
<g id="edge9" class="edge"><title>Node7&#45;&gt;Node9</title>
<path fill="none" stroke="midnightblue" d="M278.365,-106.747C304.859,-100.877 332.366,-94.7819 350.653,-90.7299"/>
<polygon fill="midnightblue" stroke="midnightblue" points="277.287,-103.401 268.281,-108.981 278.802,-110.235 277.287,-103.401"/>
</g>
<!-- Node11 -->
<g id="node11" class="node"><title>Node11</title>
<g id="a_node11"><a xlink:href="../../d4/df0/vanilla__sdc_8cpp.html#a3c04138a5bfe5d72780bb7e82a18e627" target="_top" xlink:title="main">
<polygon fill="white" stroke="black" points="354,-38.5 354,-57.5 392,-57.5 392,-38.5 354,-38.5"/>
<text text-anchor="middle" x="373" y="-45.5" font-family="Helvetica,sans-Serif" font-size="10.00">main</text>
</a>
</g>
</g>
<!-- Node10&#45;&gt;Node11 -->
<g id="edge11" class="edge"><title>Node10&#45;&gt;Node11</title>
<path fill="none" stroke="midnightblue" d="M281.544,-48C308.551,-48 336.183,-48 353.68,-48"/>
<polygon fill="midnightblue" stroke="midnightblue" points="281.246,-44.5001 271.246,-48 281.246,-51.5001 281.246,-44.5001"/>
</g>
<!-- Node12 -->
<g id="node12" class="node"><title>Node12</title>
<g id="a_node12"><a xlink:href="../../df/df8/test__advection__diffusion_8cpp.html#aa11b7a5c6a1ab75dcaf86ed3e74c7a3f" target="_top" xlink:title="TEST">
<polygon fill="white" stroke="black" points="351,-0.5 351,-19.5 395,-19.5 395,-0.5 351,-0.5"/>
<text text-anchor="middle" x="373" y="-7.5" font-family="Helvetica,sans-Serif" font-size="10.00">TEST</text>
</a>
</g>
</g>
<!-- Node10&#45;&gt;Node12 -->
<g id="edge12" class="edge"><title>Node10&#45;&gt;Node12</title>
<path fill="none" stroke="midnightblue" d="M278.365,-30.7472C304.859,-24.8767 332.366,-18.7819 350.653,-14.7299"/>
<polygon fill="midnightblue" stroke="midnightblue" points="277.287,-27.4009 268.281,-32.9814 278.802,-34.2352 277.287,-27.4009"/>
</g>
</g>
</svg>
