<?xml version="1.0" encoding="UTF-8" standalone="no"?>
<!DOCTYPE svg PUBLIC "-//W3C//DTD SVG 1.1//EN"
 "http://www.w3.org/Graphics/SVG/1.1/DTD/svg11.dtd">
<!-- Generated by graphviz version 2.38.0 (20140413.2041)
 -->
<!-- Title: pfasst::Controller::setup Pages: 1 -->
<svg width="447pt" height="280pt"
 viewBox="0.00 0.00 447.00 279.50" xmlns="http://www.w3.org/2000/svg" xmlns:xlink="http://www.w3.org/1999/xlink">
<g id="graph0" class="graph" transform="scale(1 1) rotate(0) translate(4 275.5)">
<title>pfasst::Controller::setup</title>
<polygon fill="white" stroke="none" points="-4,4 -4,-275.5 443,-275.5 443,4 -4,4"/>
<!-- Node1 -->
<g id="node1" class="node"><title>Node1</title>
<polygon fill="#bfbfbf" stroke="black" points="0,-104.5 0,-134.5 92,-134.5 92,-104.5 0,-104.5"/>
<text text-anchor="start" x="8" y="-122.5" font-family="Helvetica,sans-Serif" font-size="10.00">pfasst::Controller</text>
<text text-anchor="middle" x="46" y="-111.5" font-family="Helvetica,sans-Serif" font-size="10.00">::setup</text>
</g>
<!-- Node2 -->
<g id="node2" class="node"><title>Node2</title>
<g id="a_node2"><a xlink:href="../../d1/d6e/group__Scalar.html#ga2e2a4c57c66ad0f2716d59ee2f4f457a" target="_top" xlink:title="Scalar test equation example using an encapsulated IMEX sweeper. ">
<polygon fill="white" stroke="black" points="136,-186.5 136,-216.5 263,-216.5 263,-186.5 136,-186.5"/>
<text text-anchor="start" x="144" y="-204.5" font-family="Helvetica,sans-Serif" font-size="10.00">pfasst::examples::scalar</text>
<text text-anchor="middle" x="199.5" y="-193.5" font-family="Helvetica,sans-Serif" font-size="10.00">::run_scalar_sdc</text>
</a>
</g>
</g>
<!-- Node1&#45;&gt;Node2 -->
<g id="edge1" class="edge"><title>Node1&#45;&gt;Node2</title>
<path fill="none" stroke="midnightblue" d="M83.846,-139.443C110.597,-153.922 146.232,-173.21 170.633,-186.417"/>
<polygon fill="midnightblue" stroke="midnightblue" points="85.2479,-136.222 74.7874,-134.54 81.9159,-142.378 85.2479,-136.222"/>
</g>
<!-- Node6 -->
<g id="node6" class="node"><title>Node6</title>
<g id="a_node6"><a xlink:href="../../d9/d85/group__AdvectionDiffusion.html#ga5a89fd6a8787527e482f6c853d0eec57" target="_top" xlink:title="Advection/diffusion example using an encapsulated IMEX sweeper. ">
<polygon fill="white" stroke="black" points="128,-104.5 128,-134.5 271,-134.5 271,-104.5 128,-104.5"/>
<text text-anchor="start" x="136" y="-122.5" font-family="Helvetica,sans-Serif" font-size="10.00">pfasst::examples::advection</text>
<text text-anchor="middle" x="199.5" y="-111.5" font-family="Helvetica,sans-Serif" font-size="10.00">_diffusion::run_vanilla_sdc</text>
</a>
</g>
</g>
<!-- Node1&#45;&gt;Node6 -->
<g id="edge5" class="edge"><title>Node1&#45;&gt;Node6</title>
<path fill="none" stroke="midnightblue" d="M102.321,-119.5C110.608,-119.5 119.248,-119.5 127.802,-119.5"/>
<polygon fill="midnightblue" stroke="midnightblue" points="102.045,-116 92.0448,-119.5 102.045,-123 102.045,-116"/>
</g>
<!-- Node9 -->
<g id="node9" class="node"><title>Node9</title>
<g id="a_node9"><a xlink:href="../../dd/d53/group__VanDerPol.html#gaa51c826dc921007c0e95faf30a4510d5" target="_top" xlink:title="pfasst::examples::vdp\l::run_vdp_sdc">
<polygon fill="white" stroke="black" points="141.5,-44.5 141.5,-74.5 257.5,-74.5 257.5,-44.5 141.5,-44.5"/>
<text text-anchor="start" x="149.5" y="-62.5" font-family="Helvetica,sans-Serif" font-size="10.00">pfasst::examples::vdp</text>
<text text-anchor="middle" x="199.5" y="-51.5" font-family="Helvetica,sans-Serif" font-size="10.00">::run_vdp_sdc</text>
</a>
</g>
</g>
<!-- Node1&#45;&gt;Node9 -->
<g id="edge8" class="edge"><title>Node1&#45;&gt;Node9</title>
<path fill="none" stroke="midnightblue" d="M94.7145,-100.603C115.945,-92.1951 140.596,-82.4323 160.545,-74.5317"/>
<polygon fill="midnightblue" stroke="midnightblue" points="93.2385,-97.4232 85.2298,-104.359 95.816,-103.931 93.2385,-97.4232"/>
</g>
<!-- Node3 -->
<g id="node3" class="node"><title>Node3</title>
<g id="a_node3"><a xlink:href="../../d2/daf/scalar__sdc_8cpp.html#a3c04138a5bfe5d72780bb7e82a18e627" target="_top" xlink:title="main">
<polygon fill="white" stroke="black" points="354,-252 354,-271 392,-271 392,-252 354,-252"/>
<text text-anchor="middle" x="373" y="-259" font-family="Helvetica,sans-Serif" font-size="10.00">main</text>
</a>
</g>
</g>
<!-- Node2&#45;&gt;Node3 -->
<g id="edge2" class="edge"><title>Node2&#45;&gt;Node3</title>
<path fill="none" stroke="midnightblue" d="M247.065,-220.391C265.592,-227.653 287.181,-235.801 307,-242.5 322.705,-247.808 340.828,-253.033 353.942,-256.656"/>
<polygon fill="midnightblue" stroke="midnightblue" points="248.268,-217.103 237.682,-216.686 245.698,-223.614 248.268,-217.103"/>
</g>
<!-- Node4 -->
<g id="node4" class="node"><title>Node4</title>
<g id="a_node4"><a xlink:href="../../d3/d6a/classConvergenceTest.html#a18a32024b87b7ee689df7e0375ea8ede" target="_top" xlink:title="ConvergenceTest::SetUp">
<polygon fill="white" stroke="black" points="307,-214 307,-233 439,-233 439,-214 307,-214"/>
<text text-anchor="middle" x="373" y="-221" font-family="Helvetica,sans-Serif" font-size="10.00">ConvergenceTest::SetUp</text>
</a>
</g>
</g>
<!-- Node2&#45;&gt;Node4 -->
<g id="edge3" class="edge"><title>Node2&#45;&gt;Node4</title>
<path fill="none" stroke="midnightblue" d="M273.46,-210.859C284.543,-212.281 295.917,-213.74 306.819,-215.139"/>
<polygon fill="midnightblue" stroke="midnightblue" points="273.751,-207.368 263.386,-209.567 272.86,-214.311 273.751,-207.368"/>
</g>
<!-- Node5 -->
<g id="node5" class="node"><title>Node5</title>
<g id="a_node5"><a xlink:href="../../d1/dee/classHighPrecisionTest.html#a1d448fa5c3fe1a3f2f60cd1fb77dba08" target="_top" xlink:title="HighPrecisionTest::\lSetUp">
<polygon fill="white" stroke="black" points="320,-164.5 320,-194.5 426,-194.5 426,-164.5 320,-164.5"/>
<text text-anchor="start" x="328" y="-182.5" font-family="Helvetica,sans-Serif" font-size="10.00">HighPrecisionTest::</text>
<text text-anchor="middle" x="373" y="-171.5" font-family="Helvetica,sans-Serif" font-size="10.00">SetUp</text>
</a>
</g>
</g>
<!-- Node2&#45;&gt;Node5 -->
<g id="edge4" class="edge"><title>Node2&#45;&gt;Node5</title>
<path fill="none" stroke="midnightblue" d="M273.511,-192.134C289.077,-190.137 305.215,-188.067 319.813,-186.195"/>
<polygon fill="midnightblue" stroke="midnightblue" points="272.86,-188.689 263.386,-193.433 273.751,-195.632 272.86,-188.689"/>
</g>
<!-- Node7 -->
<g id="node7" class="node"><title>Node7</title>
<g id="a_node7"><a xlink:href="../../d4/df0/vanilla__sdc_8cpp.html#a3c04138a5bfe5d72780bb7e82a18e627" target="_top" xlink:title="main">
<polygon fill="white" stroke="black" points="354,-126 354,-145 392,-145 392,-126 354,-126"/>
<text text-anchor="middle" x="373" y="-133" font-family="Helvetica,sans-Serif" font-size="10.00">main</text>
</a>
</g>
</g>
<!-- Node6&#45;&gt;Node7 -->
<g id="edge6" class="edge"><title>Node6&#45;&gt;Node7</title>
<path fill="none" stroke="midnightblue" d="M281.544,-127.061C308.551,-129.581 336.183,-132.158 353.68,-133.791"/>
<polygon fill="midnightblue" stroke="midnightblue" points="281.528,-123.544 271.246,-126.1 280.877,-130.514 281.528,-123.544"/>
</g>
<!-- Node8 -->
<g id="node8" class="node"><title>Node8</title>
<g id="a_node8"><a xlink:href="../../df/df8/test__advection__diffusion_8cpp.html#aa11b7a5c6a1ab75dcaf86ed3e74c7a3f" target="_top" xlink:title="TEST">
<polygon fill="white" stroke="black" points="351,-88 351,-107 395,-107 395,-88 351,-88"/>
<text text-anchor="middle" x="373" y="-95" font-family="Helvetica,sans-Serif" font-size="10.00">TEST</text>
</a>
</g>
</g>
<!-- Node6&#45;&gt;Node8 -->
<g id="edge7" class="edge"><title>Node6&#45;&gt;Node8</title>
<path fill="none" stroke="midnightblue" d="M281.375,-109.125C306.941,-105.846 333.087,-102.492 350.683,-100.235"/>
<polygon fill="midnightblue" stroke="midnightblue" points="280.719,-105.681 271.246,-110.425 281.61,-112.624 280.719,-105.681"/>
</g>
<!-- Node10 -->
<g id="node10" class="node"><title>Node10</title>
<g id="a_node10"><a xlink:href="../../df/de7/vdp__sdc_8cpp.html#a3c04138a5bfe5d72780bb7e82a18e627" target="_top" xlink:title="main">
<polygon fill="white" stroke="black" points="354,-50 354,-69 392,-69 392,-50 354,-50"/>
<text text-anchor="middle" x="373" y="-57" font-family="Helvetica,sans-Serif" font-size="10.00">main</text>
</a>
</g>
</g>
<!-- Node9&#45;&gt;Node10 -->
<g id="edge9" class="edge"><title>Node9&#45;&gt;Node10</title>
<path fill="none" stroke="midnightblue" d="M267.999,-59.5C299.096,-59.5 333.55,-59.5 353.961,-59.5"/>
<polygon fill="midnightblue" stroke="midnightblue" points="267.607,-56.0001 257.607,-59.5 267.607,-63.0001 267.607,-56.0001"/>
</g>
<!-- Node11 -->
<g id="node11" class="node"><title>Node11</title>
<g id="a_node11"><a xlink:href="../../d8/d13/classVdPConvergenceTest.html#a08c22d8d5be8f9796e0866f3fe3277bb" target="_top" xlink:title="VdPConvergenceTest\l::SetUp">
<polygon fill="white" stroke="black" points="313.5,-0.5 313.5,-30.5 432.5,-30.5 432.5,-0.5 313.5,-0.5"/>
<text text-anchor="start" x="321.5" y="-18.5" font-family="Helvetica,sans-Serif" font-size="10.00">VdPConvergenceTest</text>
<text text-anchor="middle" x="373" y="-7.5" font-family="Helvetica,sans-Serif" font-size="10.00">::SetUp</text>
</a>
</g>
</g>
<!-- Node9&#45;&gt;Node11 -->
<g id="edge10" class="edge"><title>Node9&#45;&gt;Node11</title>
<path fill="none" stroke="midnightblue" d="M267.433,-42.3276C282.6,-38.4365 298.593,-34.3334 313.384,-30.5385"/>
<polygon fill="midnightblue" stroke="midnightblue" points="266.423,-38.9732 257.607,-44.8486 268.163,-45.7537 266.423,-38.9732"/>
</g>
</g>
</svg>
