<?xml version="1.0" encoding="UTF-8" standalone="no"?>
<!DOCTYPE svg PUBLIC "-//W3C//DTD SVG 1.1//EN"
 "http://www.w3.org/Graphics/SVG/1.1/DTD/svg11.dtd">
<!-- Generated by graphviz version 2.38.0 (20140413.2041)
 -->
<!-- Title: src/pfasst/quadrature/gauss_legendre_impl.hpp Pages: 1 -->
<!--zoomable 519 -->
<svg id="main" version="1.1" xmlns="http://www.w3.org/2000/svg" xmlns:xlink="http://www.w3.org/1999/xlink" xml:space="preserve" onload="init(evt)">
<style type="text/css"><![CDATA[
.edge:hover path { stroke: red; }
.edge:hover polygon { stroke: red; fill: red; }
]]></style>
<script type="text/javascript"><![CDATA[
var edges = document.getElementsByTagName('g');
if (edges && edges.length) {
  for (var i=0;i<edges.length;i++) {
    if (edges[i].id.substr(0,4)=='edge') {
      edges[i].setAttribute('class','edge');
    }
  }
}
]]></script>
        <defs>
                <circle id="rim" cx="0" cy="0" r="7"/>
                <circle id="rim2" cx="0" cy="0" r="3.5"/>
                <g id="zoomPlus">
                        <use xlink:href="#rim" fill="#404040">
                                <set attributeName="fill" to="#808080" begin="zoomplus.mouseover" end="zoomplus.mouseout"/>
                        </use>
                        <path d="M-4,0h8M0,-4v8" fill="none" stroke="white" stroke-width="1.5" pointer-events="none"/>
                </g>
                <g id="zoomMin">
                        <use xlink:href="#rim" fill="#404040">
                                <set attributeName="fill" to="#808080" begin="zoomminus.mouseover" end="zoomminus.mouseout"/>
                        </use>
                        <path d="M-4,0h8" fill="none" stroke="white" stroke-width="1.5" pointer-events="none"/>
                </g>
                <g id="dirArrow">
                        <path fill="none" stroke="white" stroke-width="1.5" d="M0,-3.0v7 M-2.5,-0.5L0,-3.0L2.5,-0.5"/>
                </g>
               <g id="resetDef">
                       <use xlink:href="#rim2" fill="#404040">
                               <set attributeName="fill" to="#808080" begin="reset.mouseover" end="reset.mouseout"/>
                       </use>
               </g>
        </defs>

<script type="text/javascript">
var viewWidth = 1569;
var viewHeight = 519;
var sectionId = 'dynsection-1';
</script>
<script xlink:href="../../svgpan.js"/>
<svg id="graph" class="graph">
<g id="viewport">
<title>src/pfasst/quadrature/gauss_legendre_impl.hpp</title>
<polygon fill="white" stroke="none" points="-4,4 -4,-515 1564.5,-515 1564.5,4 -4,4"/>
<!-- Node1 -->
<g id="node1" class="node"><title>Node1</title>
<polygon fill="#bfbfbf" stroke="black" points="910.5,-480.5 910.5,-510.5 1044.5,-510.5 1044.5,-480.5 910.5,-480.5"/>
<text text-anchor="start" x="918.5" y="-498.5" font-family="Helvetica,sans-Serif" font-size="10.00">src/pfasst/quadrature</text>
<text text-anchor="middle" x="977.5" y="-487.5" font-family="Helvetica,sans-Serif" font-size="10.00">/gauss_legendre_impl.hpp</text>
</g>
<!-- Node2 -->
<g id="node2" class="node"><title>Node2</title>
<g id="a_node2"><a xlink:href="../../de/d36/gauss__legendre_8hpp.html" target="_top" xlink:title="include/pfasst/quadrature\l/gauss_legendre.hpp">
<polygon fill="white" stroke="black" points="912.5,-413.5 912.5,-443.5 1042.5,-443.5 1042.5,-413.5 912.5,-413.5"/>
<text text-anchor="start" x="920.5" y="-431.5" font-family="Helvetica,sans-Serif" font-size="10.00">include/pfasst/quadrature</text>
<text text-anchor="middle" x="977.5" y="-420.5" font-family="Helvetica,sans-Serif" font-size="10.00">/gauss_legendre.hpp</text>
</a>
</g>
</g>
<!-- Node1&#45;&gt;Node2 -->
<g id="edge1" class="edge"><title>Node1&#45;&gt;Node2</title>
<path fill="none" stroke="midnightblue" d="M970.955,-470.403C970.505,-461.37 970.796,-451.408 971.825,-443.577"/>
<polygon fill="midnightblue" stroke="midnightblue" points="967.47,-470.736 971.822,-480.396 974.444,-470.131 967.47,-470.736"/>
</g>
<!-- Node2&#45;&gt;Node1 -->
<g id="edge43" class="edge"><title>Node2&#45;&gt;Node1</title>
<path fill="none" stroke="midnightblue" d="M984.044,-453.565C984.495,-462.596 984.206,-472.56 983.178,-480.396"/>
<polygon fill="midnightblue" stroke="midnightblue" points="987.528,-453.236 983.175,-443.577 980.555,-453.842 987.528,-453.236"/>
</g>
<!-- Node3 -->
<g id="node3" class="node"><title>Node3</title>
<g id="a_node3"><a xlink:href="../../d6/dbe/quadrature_8hpp.html" target="_top" xlink:title="include/pfasst/quadrature.hpp">
<polygon fill="white" stroke="black" points="903.5,-357.5 903.5,-376.5 1051.5,-376.5 1051.5,-357.5 903.5,-357.5"/>
<text text-anchor="middle" x="977.5" y="-364.5" font-family="Helvetica,sans-Serif" font-size="10.00">include/pfasst/quadrature.hpp</text>
</a>
</g>
</g>
<!-- Node2&#45;&gt;Node3 -->
<g id="edge2" class="edge"><title>Node2&#45;&gt;Node3</title>
<path fill="none" stroke="midnightblue" d="M977.5,-403.289C977.5,-393.857 977.5,-383.655 977.5,-376.658"/>
<polygon fill="midnightblue" stroke="midnightblue" points="974,-403.399 977.5,-413.399 981,-403.399 974,-403.399"/>
</g>
<!-- Node4 -->
<g id="node4" class="node"><title>Node4</title>
<g id="a_node4"><a xlink:href="../../de/deb/encap__sweeper_8hpp.html" target="_top" xlink:title="include/pfasst/encap\l/encap_sweeper.hpp">
<polygon fill="white" stroke="black" points="550.5,-285 550.5,-315 660.5,-315 660.5,-285 550.5,-285"/>
<text text-anchor="start" x="558.5" y="-303" font-family="Helvetica,sans-Serif" font-size="10.00">include/pfasst/encap</text>
<text text-anchor="middle" x="605.5" y="-292" font-family="Helvetica,sans-Serif" font-size="10.00">/encap_sweeper.hpp</text>
</a>
</g>
</g>
<!-- Node3&#45;&gt;Node4 -->
<g id="edge3" class="edge"><title>Node3&#45;&gt;Node4</title>
<path fill="none" stroke="midnightblue" d="M893.294,-357.33C831.011,-350.041 744.367,-338.055 669.5,-321 662.236,-319.345 654.604,-317.268 647.242,-315.083"/>
<polygon fill="midnightblue" stroke="midnightblue" points="893.128,-360.834 903.463,-358.504 893.931,-353.88 893.128,-360.834"/>
</g>
<!-- Node18 -->
<g id="node18" class="node"><title>Node18</title>
<g id="a_node18"><a xlink:href="../../d9/d3c/poly__interp__impl_8hpp.html" target="_top" xlink:title="src/pfasst/encap/poly\l_interp_impl.hpp">
<polygon fill="white" stroke="black" points="108.5,-212.5 108.5,-242.5 220.5,-242.5 220.5,-212.5 108.5,-212.5"/>
<text text-anchor="start" x="116.5" y="-230.5" font-family="Helvetica,sans-Serif" font-size="10.00">src/pfasst/encap/poly</text>
<text text-anchor="middle" x="164.5" y="-219.5" font-family="Helvetica,sans-Serif" font-size="10.00">_interp_impl.hpp</text>
</a>
</g>
</g>
<!-- Node3&#45;&gt;Node18 -->
<g id="edge36" class="edge"><title>Node3&#45;&gt;Node18</title>
<path fill="none" stroke="midnightblue" d="M893.188,-360.756C805.019,-354.466 662.845,-342.045 541.5,-321 421.811,-300.242 283.768,-262.858 212.553,-242.551"/>
<polygon fill="midnightblue" stroke="midnightblue" points="893.181,-364.264 903.402,-361.475 893.672,-357.282 893.181,-364.264"/>
</g>
<!-- Node27 -->
<g id="node27" class="node"><title>Node27</title>
<g id="a_node27"><a xlink:href="../../dc/d0d/test__advection__diffusion__conv_8cpp.html" target="_top" xlink:title="tests/examples/advection\l_diffusion/test_advection\l_diffusion_conv.cpp">
<polygon fill="white" stroke="black" points="678.5,-279.5 678.5,-320.5 810.5,-320.5 810.5,-279.5 678.5,-279.5"/>
<text text-anchor="start" x="686.5" y="-308.5" font-family="Helvetica,sans-Serif" font-size="10.00">tests/examples/advection</text>
<text text-anchor="start" x="686.5" y="-297.5" font-family="Helvetica,sans-Serif" font-size="10.00">_diffusion/test_advection</text>
<text text-anchor="middle" x="744.5" y="-286.5" font-family="Helvetica,sans-Serif" font-size="10.00">_diffusion_conv.cpp</text>
</a>
</g>
</g>
<!-- Node3&#45;&gt;Node27 -->
<g id="edge37" class="edge"><title>Node3&#45;&gt;Node27</title>
<path fill="none" stroke="midnightblue" d="M936.771,-354.638C902.07,-344.957 851.53,-330.858 810.974,-319.544"/>
<polygon fill="midnightblue" stroke="midnightblue" points="935.987,-358.053 946.559,-357.369 937.868,-351.31 935.987,-358.053"/>
</g>
<!-- Node28 -->
<g id="node28" class="node"><title>Node28</title>
<g id="a_node28"><a xlink:href="../../d4/d85/test__mpi__advection__diffusion__conv_8cpp.html" target="_top" xlink:title="tests/examples/advection\l_diffusion/test_mpi_advection\l_diffusion_conv.cpp">
<polygon fill="white" stroke="black" points="828.5,-279.5 828.5,-320.5 976.5,-320.5 976.5,-279.5 828.5,-279.5"/>
<text text-anchor="start" x="836.5" y="-308.5" font-family="Helvetica,sans-Serif" font-size="10.00">tests/examples/advection</text>
<text text-anchor="start" x="836.5" y="-297.5" font-family="Helvetica,sans-Serif" font-size="10.00">_diffusion/test_mpi_advection</text>
<text text-anchor="middle" x="902.5" y="-286.5" font-family="Helvetica,sans-Serif" font-size="10.00">_diffusion_conv.cpp</text>
</a>
</g>
</g>
<!-- Node3&#45;&gt;Node28 -->
<g id="edge38" class="edge"><title>Node3&#45;&gt;Node28</title>
<path fill="none" stroke="midnightblue" d="M959.759,-350.624C949.376,-341.626 936.164,-330.176 925.049,-320.542"/>
<polygon fill="midnightblue" stroke="midnightblue" points="957.536,-353.329 967.385,-357.234 962.121,-348.04 957.536,-353.329"/>
</g>
<!-- Node29 -->
<g id="node29" class="node"><title>Node29</title>
<g id="a_node29"><a xlink:href="../../d3/d06/test__scalar__conv_8cpp.html" target="_top" xlink:title="tests/examples/scalar\l/test_scalar_conv.cpp">
<polygon fill="white" stroke="black" points="994.5,-285 994.5,-315 1110.5,-315 1110.5,-285 994.5,-285"/>
<text text-anchor="start" x="1002.5" y="-303" font-family="Helvetica,sans-Serif" font-size="10.00">tests/examples/scalar</text>
<text text-anchor="middle" x="1052.5" y="-292" font-family="Helvetica,sans-Serif" font-size="10.00">/test_scalar_conv.cpp</text>
</a>
</g>
</g>
<!-- Node3&#45;&gt;Node29 -->
<g id="edge39" class="edge"><title>Node3&#45;&gt;Node29</title>
<path fill="none" stroke="midnightblue" d="M995.468,-350.428C1007.87,-339.679 1024.23,-325.502 1036.24,-315.089"/>
<polygon fill="midnightblue" stroke="midnightblue" points="992.879,-348.04 987.615,-357.234 997.464,-353.329 992.879,-348.04"/>
</g>
<!-- Node30 -->
<g id="node30" class="node"><title>Node30</title>
<g id="a_node30"><a xlink:href="../../d7/d57/test__scalar__highprec_8cpp.html" target="_top" xlink:title="tests/examples/scalar\l/test_scalar_highprec.cpp">
<polygon fill="white" stroke="black" points="1128.5,-285 1128.5,-315 1258.5,-315 1258.5,-285 1128.5,-285"/>
<text text-anchor="start" x="1136.5" y="-303" font-family="Helvetica,sans-Serif" font-size="10.00">tests/examples/scalar</text>
<text text-anchor="middle" x="1193.5" y="-292" font-family="Helvetica,sans-Serif" font-size="10.00">/test_scalar_highprec.cpp</text>
</a>
</g>
</g>
<!-- Node3&#45;&gt;Node30 -->
<g id="edge40" class="edge"><title>Node3&#45;&gt;Node30</title>
<path fill="none" stroke="midnightblue" d="M1015.99,-354.417C1052.62,-343.395 1107.79,-326.794 1146.88,-315.028"/>
<polygon fill="midnightblue" stroke="midnightblue" points="1014.75,-351.135 1006.18,-357.369 1016.77,-357.838 1014.75,-351.135"/>
</g>
<!-- Node31 -->
<g id="node31" class="node"><title>Node31</title>
<g id="a_node31"><a xlink:href="../../d8/d19/test__vdp__zeronu__conv_8cpp.html" target="_top" xlink:title="tests/examples/vanderpol\l/test_vdp_zeronu_conv.cpp">
<polygon fill="white" stroke="black" points="1276.5,-285 1276.5,-315 1414.5,-315 1414.5,-285 1276.5,-285"/>
<text text-anchor="start" x="1284.5" y="-303" font-family="Helvetica,sans-Serif" font-size="10.00">tests/examples/vanderpol</text>
<text text-anchor="middle" x="1345.5" y="-292" font-family="Helvetica,sans-Serif" font-size="10.00">/test_vdp_zeronu_conv.cpp</text>
</a>
</g>
</g>
<!-- Node3&#45;&gt;Node31 -->
<g id="edge41" class="edge"><title>Node3&#45;&gt;Node31</title>
<path fill="none" stroke="midnightblue" d="M1054.57,-356.116C1113.22,-348.094 1195.79,-335.722 1267.5,-321 1275.99,-319.257 1284.94,-317.185 1293.64,-315.046"/>
<polygon fill="midnightblue" stroke="midnightblue" points="1054.07,-352.651 1044.64,-357.465 1055.02,-359.588 1054.07,-352.651"/>
</g>
<!-- Node32 -->
<g id="node32" class="node"><title>Node32</title>
<g id="a_node32"><a xlink:href="../../da/d82/test__quadrature_8cpp.html" target="_top" xlink:title="tests/test_quadrature.cpp">
<polygon fill="white" stroke="black" points="1432.5,-290.5 1432.5,-309.5 1560.5,-309.5 1560.5,-290.5 1432.5,-290.5"/>
<text text-anchor="middle" x="1496.5" y="-297.5" font-family="Helvetica,sans-Serif" font-size="10.00">tests/test_quadrature.cpp</text>
</a>
</g>
</g>
<!-- Node3&#45;&gt;Node32 -->
<g id="edge42" class="edge"><title>Node3&#45;&gt;Node32</title>
<path fill="none" stroke="midnightblue" d="M1061.99,-361.684C1152.13,-356.101 1298.81,-344.203 1423.5,-321 1438.87,-318.139 1455.73,-313.616 1469.37,-309.595"/>
<polygon fill="midnightblue" stroke="midnightblue" points="1061.59,-358.201 1051.82,-362.301 1062.02,-365.188 1061.59,-358.201"/>
</g>
<!-- Node5 -->
<g id="node5" class="node"><title>Node5</title>
<g id="a_node5"><a xlink:href="../../d1/d6f/imex__sweeper_8hpp.html" target="_top" xlink:title="include/pfasst/encap\l/imex_sweeper.hpp">
<polygon fill="white" stroke="black" points="604,-145.5 604,-175.5 713,-175.5 713,-145.5 604,-145.5"/>
<text text-anchor="start" x="612" y="-163.5" font-family="Helvetica,sans-Serif" font-size="10.00">include/pfasst/encap</text>
<text text-anchor="middle" x="658.5" y="-152.5" font-family="Helvetica,sans-Serif" font-size="10.00">/imex_sweeper.hpp</text>
</a>
</g>
</g>
<!-- Node4&#45;&gt;Node5 -->
<g id="edge4" class="edge"><title>Node4&#45;&gt;Node5</title>
<path fill="none" stroke="midnightblue" d="M614.687,-275.165C625.729,-246.52 643.9,-199.378 652.978,-175.826"/>
<polygon fill="midnightblue" stroke="midnightblue" points="611.303,-274.213 610.972,-284.803 617.835,-276.731 611.303,-274.213"/>
</g>
<!-- Node13 -->
<g id="node13" class="node"><title>Node13</title>
<g id="a_node13"><a xlink:href="../../d7/daf/implicit__sweeper_8hpp.html" target="_top" xlink:title="include/pfasst/encap\l/implicit_sweeper.hpp">
<polygon fill="white" stroke="black" points="699.5,-212.5 699.5,-242.5 811.5,-242.5 811.5,-212.5 699.5,-212.5"/>
<text text-anchor="start" x="707.5" y="-230.5" font-family="Helvetica,sans-Serif" font-size="10.00">include/pfasst/encap</text>
<text text-anchor="middle" x="755.5" y="-219.5" font-family="Helvetica,sans-Serif" font-size="10.00">/implicit_sweeper.hpp</text>
</a>
</g>
</g>
<!-- Node4&#45;&gt;Node13 -->
<g id="edge13" class="edge"><title>Node4&#45;&gt;Node13</title>
<path fill="none" stroke="midnightblue" d="M644.798,-280.53C670.061,-268.656 702.373,-253.47 725.558,-242.573"/>
<polygon fill="midnightblue" stroke="midnightblue" points="643.056,-277.481 635.494,-284.903 646.033,-283.817 643.056,-277.481"/>
</g>
<!-- Node17 -->
<g id="node17" class="node"><title>Node17</title>
<g id="a_node17"><a xlink:href="../../d9/d05/encap__sweeper__impl_8hpp.html" target="_top" xlink:title="src/pfasst/encap/encap\l_sweeper_impl.hpp">
<polygon fill="white" stroke="black" points="830,-212.5 830,-242.5 951,-242.5 951,-212.5 830,-212.5"/>
<text text-anchor="start" x="838" y="-230.5" font-family="Helvetica,sans-Serif" font-size="10.00">src/pfasst/encap/encap</text>
<text text-anchor="middle" x="890.5" y="-219.5" font-family="Helvetica,sans-Serif" font-size="10.00">_sweeper_impl.hpp</text>
</a>
</g>
</g>
<!-- Node4&#45;&gt;Node17 -->
<g id="edge18" class="edge"><title>Node4&#45;&gt;Node17</title>
<path fill="none" stroke="midnightblue" d="M649.551,-282.077C653.235,-281.004 656.918,-279.967 660.5,-279 717.304,-263.66 783.132,-249.014 829.864,-239.483"/>
<polygon fill="midnightblue" stroke="midnightblue" points="648.433,-278.759 639.859,-284.983 650.443,-285.464 648.433,-278.759"/>
</g>
<!-- Node4&#45;&gt;Node18 -->
<g id="edge20" class="edge"><title>Node4&#45;&gt;Node18</title>
<path fill="none" stroke="midnightblue" d="M540.125,-288.549C453.577,-274.713 302.41,-250.547 220.723,-237.488"/>
<polygon fill="midnightblue" stroke="midnightblue" points="539.666,-292.02 550.094,-290.143 540.772,-285.108 539.666,-292.02"/>
</g>
<!-- Node21 -->
<g id="node21" class="node"><title>Node21</title>
<g id="a_node21"><a xlink:href="../../db/dfd/boris__sweeper_8hpp.html" target="_top" xlink:title="examples/boris/boris\l_sweeper.hpp">
<polygon fill="white" stroke="black" points="347.5,-212.5 347.5,-242.5 457.5,-242.5 457.5,-212.5 347.5,-212.5"/>
<text text-anchor="start" x="355.5" y="-230.5" font-family="Helvetica,sans-Serif" font-size="10.00">examples/boris/boris</text>
<text text-anchor="middle" x="402.5" y="-219.5" font-family="Helvetica,sans-Serif" font-size="10.00">_sweeper.hpp</text>
</a>
</g>
</g>
<!-- Node4&#45;&gt;Node21 -->
<g id="edge26" class="edge"><title>Node4&#45;&gt;Node21</title>
<path fill="none" stroke="midnightblue" d="M555.452,-281.619C520.836,-269.597 475.366,-253.806 443.022,-242.573"/>
<polygon fill="midnightblue" stroke="midnightblue" points="554.313,-284.928 564.908,-284.903 556.61,-278.316 554.313,-284.928"/>
</g>
<!-- Node23 -->
<g id="node23" class="node"><title>Node23</title>
<g id="a_node23"><a xlink:href="../../db/d9a/boris__sweeper__impl_8hpp.html" target="_top" xlink:title="examples/boris/boris\l_sweeper_impl.hpp">
<polygon fill="white" stroke="black" points="475.5,-145.5 475.5,-175.5 585.5,-175.5 585.5,-145.5 475.5,-145.5"/>
<text text-anchor="start" x="483.5" y="-163.5" font-family="Helvetica,sans-Serif" font-size="10.00">examples/boris/boris</text>
<text text-anchor="middle" x="530.5" y="-152.5" font-family="Helvetica,sans-Serif" font-size="10.00">_sweeper_impl.hpp</text>
</a>
</g>
</g>
<!-- Node4&#45;&gt;Node23 -->
<g id="edge35" class="edge"><title>Node4&#45;&gt;Node23</title>
<path fill="none" stroke="midnightblue" d="M592.908,-275.914C577.327,-247.349 551.274,-199.585 538.314,-175.826"/>
<polygon fill="midnightblue" stroke="midnightblue" points="589.895,-277.7 597.756,-284.803 596.04,-274.348 589.895,-277.7"/>
</g>
<!-- Node6 -->
<g id="node6" class="node"><title>Node6</title>
<g id="a_node6"><a xlink:href="../../d7/d0a/imex__sweeper__impl_8hpp.html" target="_top" xlink:title="src/pfasst/encap/imex\l_sweeper_impl.hpp">
<polygon fill="white" stroke="black" points="600,-73 600,-103 715,-103 715,-73 600,-73"/>
<text text-anchor="start" x="608" y="-91" font-family="Helvetica,sans-Serif" font-size="10.00">src/pfasst/encap/imex</text>
<text text-anchor="middle" x="657.5" y="-80" font-family="Helvetica,sans-Serif" font-size="10.00">_sweeper_impl.hpp</text>
</a>
</g>
</g>
<!-- Node5&#45;&gt;Node6 -->
<g id="edge5" class="edge"><title>Node5&#45;&gt;Node6</title>
<path fill="none" stroke="midnightblue" d="M651.706,-135.232C650.954,-124.568 651.083,-112.414 652.156,-103.246"/>
<polygon fill="midnightblue" stroke="midnightblue" points="648.23,-135.65 652.749,-145.233 655.193,-134.924 648.23,-135.65"/>
</g>
<!-- Node7 -->
<g id="node7" class="node"><title>Node7</title>
<g id="a_node7"><a xlink:href="../../dc/d7d/advection__diffusion__sweeper_8hpp.html" target="_top" xlink:title="examples/advection\l_diffusion/advection\l_diffusion_sweeper.hpp">
<polygon fill="white" stroke="black" points="388,-67.5 388,-108.5 509,-108.5 509,-67.5 388,-67.5"/>
<text text-anchor="start" x="396" y="-96.5" font-family="Helvetica,sans-Serif" font-size="10.00">examples/advection</text>
<text text-anchor="start" x="396" y="-85.5" font-family="Helvetica,sans-Serif" font-size="10.00">_diffusion/advection</text>
<text text-anchor="middle" x="448.5" y="-74.5" font-family="Helvetica,sans-Serif" font-size="10.00">_diffusion_sweeper.hpp</text>
</a>
</g>
</g>
<!-- Node5&#45;&gt;Node7 -->
<g id="edge7" class="edge"><title>Node5&#45;&gt;Node7</title>
<path fill="none" stroke="midnightblue" d="M607.217,-142.284C576.88,-132.099 538.356,-119.166 506.859,-108.592"/>
<polygon fill="midnightblue" stroke="midnightblue" points="606.166,-145.623 616.76,-145.487 608.394,-138.987 606.166,-145.623"/>
</g>
<!-- Node11 -->
<g id="node11" class="node"><title>Node11</title>
<g id="a_node11"><a xlink:href="../../d8/d93/scalar__sweeper_8hpp.html" target="_top" xlink:title="examples/scalar/scalar\l_sweeper.hpp">
<polygon fill="white" stroke="black" points="733.5,-73 733.5,-103 855.5,-103 855.5,-73 733.5,-73"/>
<text text-anchor="start" x="741.5" y="-91" font-family="Helvetica,sans-Serif" font-size="10.00">examples/scalar/scalar</text>
<text text-anchor="middle" x="794.5" y="-80" font-family="Helvetica,sans-Serif" font-size="10.00">_sweeper.hpp</text>
</a>
</g>
</g>
<!-- Node5&#45;&gt;Node11 -->
<g id="edge11" class="edge"><title>Node5&#45;&gt;Node11</title>
<path fill="none" stroke="midnightblue" d="M694.737,-140.715C717.551,-128.889 746.517,-113.874 767.352,-103.073"/>
<polygon fill="midnightblue" stroke="midnightblue" points="692.962,-137.693 685.695,-145.403 696.184,-143.908 692.962,-137.693"/>
</g>
<!-- Node6&#45;&gt;Node5 -->
<g id="edge6" class="edge"><title>Node6&#45;&gt;Node5</title>
<path fill="none" stroke="midnightblue" d="M664.292,-113.244C665.046,-123.905 664.918,-136.06 663.846,-145.233"/>
<polygon fill="midnightblue" stroke="midnightblue" points="667.768,-112.828 663.248,-103.246 660.806,-113.555 667.768,-112.828"/>
</g>
<!-- Node8 -->
<g id="node8" class="node"><title>Node8</title>
<g id="a_node8"><a xlink:href="../../d1/d49/mpi__pfasst_8cpp.html" target="_top" xlink:title="Advection&#45;Diffusion with MPI&#45;enabled PFASST. ">
<polygon fill="white" stroke="black" points="18,-0.5 18,-30.5 145,-30.5 145,-0.5 18,-0.5"/>
<text text-anchor="start" x="26" y="-18.5" font-family="Helvetica,sans-Serif" font-size="10.00">examples/advection</text>
<text text-anchor="middle" x="81.5" y="-7.5" font-family="Helvetica,sans-Serif" font-size="10.00">_diffusion/mpi_pfasst.cpp</text>
</a>
</g>
</g>
<!-- Node7&#45;&gt;Node8 -->
<g id="edge8" class="edge"><title>Node7&#45;&gt;Node8</title>
<path fill="none" stroke="midnightblue" d="M377.952,-66.9991C291.806,-47.776 203.215,-33.7065 145.049,-25.2392"/>
<polygon fill="midnightblue" stroke="midnightblue" points="377.374,-70.4566 387.899,-69.2446 378.915,-63.6285 377.374,-70.4566"/>
</g>
<!-- Node9 -->
<g id="node9" class="node"><title>Node9</title>
<g id="a_node9"><a xlink:href="../../d9/d86/serial__mlsdc_8cpp.html" target="_top" xlink:title="Advection&#45;Diffusion with serial MLSDC. ">
<polygon fill="white" stroke="black" points="206,-0.5 206,-30.5 343,-30.5 343,-0.5 206,-0.5"/>
<text text-anchor="start" x="214" y="-18.5" font-family="Helvetica,sans-Serif" font-size="10.00">examples/advection</text>
<text text-anchor="middle" x="274.5" y="-7.5" font-family="Helvetica,sans-Serif" font-size="10.00">_diffusion/serial_mlsdc.cpp</text>
</a>
</g>
</g>
<!-- Node7&#45;&gt;Node9 -->
<g id="edge9" class="edge"><title>Node7&#45;&gt;Node9</title>
<path fill="none" stroke="midnightblue" d="M390.683,-63.5743C363.699,-52.6409 332.478,-39.9911 309.2,-30.5597"/>
<polygon fill="midnightblue" stroke="midnightblue" points="389.449,-66.8504 400.031,-67.3618 392.077,-60.3627 389.449,-66.8504"/>
</g>
<!-- Node10 -->
<g id="node10" class="node"><title>Node10</title>
<g id="a_node10"><a xlink:href="../../d4/df0/vanilla__sdc_8cpp.html" target="_top" xlink:title="Advection&#45;Diffusion with vanilla SDC. ">
<polygon fill="white" stroke="black" points="383,-0.5 383,-30.5 514,-30.5 514,-0.5 383,-0.5"/>
<text text-anchor="start" x="391" y="-18.5" font-family="Helvetica,sans-Serif" font-size="10.00">examples/advection</text>
<text text-anchor="middle" x="448.5" y="-7.5" font-family="Helvetica,sans-Serif" font-size="10.00">_diffusion/vanilla_sdc.cpp</text>
</a>
</g>
</g>
<!-- Node7&#45;&gt;Node10 -->
<g id="edge10" class="edge"><title>Node7&#45;&gt;Node10</title>
<path fill="none" stroke="midnightblue" d="M448.5,-57.08C448.5,-48.0061 448.5,-38.4498 448.5,-30.8916"/>
<polygon fill="midnightblue" stroke="midnightblue" points="445,-57.3618 448.5,-67.3618 452,-57.3619 445,-57.3618"/>
</g>
<!-- Node12 -->
<g id="node12" class="node"><title>Node12</title>
<g id="a_node12"><a xlink:href="../../d2/daf/scalar__sdc_8cpp.html" target="_top" xlink:title="Scalar test equation example using an encapsulated IMEX sweeper. ">
<polygon fill="white" stroke="black" points="733.5,-0.5 733.5,-30.5 855.5,-30.5 855.5,-0.5 733.5,-0.5"/>
<text text-anchor="start" x="741.5" y="-18.5" font-family="Helvetica,sans-Serif" font-size="10.00">examples/scalar/scalar</text>
<text text-anchor="middle" x="794.5" y="-7.5" font-family="Helvetica,sans-Serif" font-size="10.00">_sdc.cpp</text>
</a>
</g>
</g>
<!-- Node11&#45;&gt;Node12 -->
<g id="edge12" class="edge"><title>Node11&#45;&gt;Node12</title>
<path fill="none" stroke="midnightblue" d="M794.5,-62.7317C794.5,-52.0679 794.5,-39.9145 794.5,-30.7455"/>
<polygon fill="midnightblue" stroke="midnightblue" points="791,-62.7332 794.5,-72.7333 798,-62.7333 791,-62.7332"/>
</g>
<!-- Node14 -->
<g id="node14" class="node"><title>Node14</title>
<g id="a_node14"><a xlink:href="../../dd/d8c/implicit__sweeper__impl_8hpp.html" target="_top" xlink:title="src/pfasst/encap/implicit\l_sweeper_impl.hpp">
<polygon fill="white" stroke="black" points="731,-145.5 731,-175.5 854,-175.5 854,-145.5 731,-145.5"/>
<text text-anchor="start" x="739" y="-163.5" font-family="Helvetica,sans-Serif" font-size="10.00">src/pfasst/encap/implicit</text>
<text text-anchor="middle" x="792.5" y="-152.5" font-family="Helvetica,sans-Serif" font-size="10.00">_sweeper_impl.hpp</text>
</a>
</g>
</g>
<!-- Node13&#45;&gt;Node14 -->
<g id="edge14" class="edge"><title>Node13&#45;&gt;Node14</title>
<path fill="none" stroke="midnightblue" d="M762.217,-203.283C766.975,-194.022 773.146,-183.663 778.812,-175.577"/>
<polygon fill="midnightblue" stroke="midnightblue" points="759.015,-201.865 757.85,-212.396 765.328,-204.89 759.015,-201.865"/>
</g>
<!-- Node15 -->
<g id="node15" class="node"><title>Node15</title>
<g id="a_node15"><a xlink:href="../../d6/d93/vdp__sweeper_8hpp.html" target="_top" xlink:title="examples/vanderpol\l/vdp_sweeper.hpp">
<polygon fill="white" stroke="black" points="873,-145.5 873,-175.5 982,-175.5 982,-145.5 873,-145.5"/>
<text text-anchor="start" x="881" y="-163.5" font-family="Helvetica,sans-Serif" font-size="10.00">examples/vanderpol</text>
<text text-anchor="middle" x="927.5" y="-152.5" font-family="Helvetica,sans-Serif" font-size="10.00">/vdp_sweeper.hpp</text>
</a>
</g>
</g>
<!-- Node13&#45;&gt;Node15 -->
<g id="edge16" class="edge"><title>Node13&#45;&gt;Node15</title>
<path fill="none" stroke="midnightblue" d="M802.288,-208.819C829.935,-198.371 864.46,-185.323 890.251,-175.577"/>
<polygon fill="midnightblue" stroke="midnightblue" points="800.938,-205.587 792.821,-212.396 803.413,-212.135 800.938,-205.587"/>
</g>
<!-- Node14&#45;&gt;Node13 -->
<g id="edge15" class="edge"><title>Node14&#45;&gt;Node13</title>
<path fill="none" stroke="midnightblue" d="M785.8,-184.685C781.045,-193.944 774.874,-204.304 769.207,-212.396"/>
<polygon fill="midnightblue" stroke="midnightblue" points="788.999,-186.107 790.162,-175.577 782.686,-183.084 788.999,-186.107"/>
</g>
<!-- Node16 -->
<g id="node16" class="node"><title>Node16</title>
<g id="a_node16"><a xlink:href="../../df/de7/vdp__sdc_8cpp.html" target="_top" xlink:title="examples/vanderpol\l/vdp_sdc.cpp">
<polygon fill="white" stroke="black" points="874,-73 874,-103 983,-103 983,-73 874,-73"/>
<text text-anchor="start" x="882" y="-91" font-family="Helvetica,sans-Serif" font-size="10.00">examples/vanderpol</text>
<text text-anchor="middle" x="928.5" y="-80" font-family="Helvetica,sans-Serif" font-size="10.00">/vdp_sdc.cpp</text>
</a>
</g>
</g>
<!-- Node15&#45;&gt;Node16 -->
<g id="edge17" class="edge"><title>Node15&#45;&gt;Node16</title>
<path fill="none" stroke="midnightblue" d="M927.844,-135.232C927.995,-124.568 928.168,-112.414 928.298,-103.246"/>
<polygon fill="midnightblue" stroke="midnightblue" points="924.345,-135.185 927.702,-145.233 931.344,-135.284 924.345,-135.185"/>
</g>
<!-- Node17&#45;&gt;Node4 -->
<g id="edge19" class="edge"><title>Node17&#45;&gt;Node4</title>
<path fill="none" stroke="midnightblue" d="M820.634,-244.728C779.157,-253.98 725.712,-266.25 678.5,-279 671.757,-280.821 664.659,-282.887 657.627,-284.983"/>
<polygon fill="midnightblue" stroke="midnightblue" points="821.638,-248.09 830.639,-242.502 820.118,-241.257 821.638,-248.09"/>
</g>
<!-- Node19 -->
<g id="node19" class="node"><title>Node19</title>
<g id="a_node19"><a xlink:href="../../d0/d45/poly__interp_8hpp.html" target="_top" xlink:title="include/pfasst/encap\l/poly_interp.hpp">
<polygon fill="white" stroke="black" points="0,-145.5 0,-175.5 109,-175.5 109,-145.5 0,-145.5"/>
<text text-anchor="start" x="8" y="-163.5" font-family="Helvetica,sans-Serif" font-size="10.00">include/pfasst/encap</text>
<text text-anchor="middle" x="54.5" y="-152.5" font-family="Helvetica,sans-Serif" font-size="10.00">/poly_interp.hpp</text>
</a>
</g>
</g>
<!-- Node18&#45;&gt;Node19 -->
<g id="edge21" class="edge"><title>Node18&#45;&gt;Node19</title>
<path fill="none" stroke="midnightblue" d="M125.78,-207.296C107.712,-197.125 87.1291,-184.855 72.647,-175.577"/>
<polygon fill="midnightblue" stroke="midnightblue" points="124.512,-210.596 134.953,-212.396 127.914,-204.478 124.512,-210.596"/>
</g>
<!-- Node19&#45;&gt;Node18 -->
<g id="edge22" class="edge"><title>Node19&#45;&gt;Node18</title>
<path fill="none" stroke="midnightblue" d="M93.1668,-180.674C111.23,-190.841 131.816,-203.112 146.31,-212.396"/>
<polygon fill="midnightblue" stroke="midnightblue" points="94.4375,-177.376 83.9966,-175.577 91.0363,-183.494 94.4375,-177.376"/>
</g>
<!-- Node20 -->
<g id="node20" class="node"><title>Node20</title>
<g id="a_node20"><a xlink:href="../../d0/dbe/spectral__transfer__1d_8hpp.html" target="_top" xlink:title="examples/advection\l_diffusion/spectral\l_transfer_1d.hpp">
<polygon fill="white" stroke="black" points="5.5,-67.5 5.5,-108.5 113.5,-108.5 113.5,-67.5 5.5,-67.5"/>
<text text-anchor="start" x="13.5" y="-96.5" font-family="Helvetica,sans-Serif" font-size="10.00">examples/advection</text>
<text text-anchor="start" x="13.5" y="-85.5" font-family="Helvetica,sans-Serif" font-size="10.00">_diffusion/spectral</text>
<text text-anchor="middle" x="59.5" y="-74.5" font-family="Helvetica,sans-Serif" font-size="10.00">_transfer_1d.hpp</text>
</a>
</g>
</g>
<!-- Node19&#45;&gt;Node20 -->
<g id="edge23" class="edge"><title>Node19&#45;&gt;Node20</title>
<path fill="none" stroke="midnightblue" d="M56.2389,-134.982C56.8513,-126.347 57.531,-116.762 58.1107,-108.588"/>
<polygon fill="midnightblue" stroke="midnightblue" points="52.7281,-135.011 55.5118,-145.233 59.7106,-135.506 52.7281,-135.011"/>
</g>
<!-- Node20&#45;&gt;Node8 -->
<g id="edge24" class="edge"><title>Node20&#45;&gt;Node8</title>
<path fill="none" stroke="midnightblue" d="M68.6523,-57.6711C71.5384,-48.4225 74.5991,-38.6141 77.009,-30.8916"/>
<polygon fill="midnightblue" stroke="midnightblue" points="65.2661,-56.7732 65.6282,-67.3618 71.9483,-58.8584 65.2661,-56.7732"/>
</g>
<!-- Node20&#45;&gt;Node9 -->
<g id="edge25" class="edge"><title>Node20&#45;&gt;Node9</title>
<path fill="none" stroke="midnightblue" d="M123.411,-66.0433C158.402,-54.5692 200.812,-40.6628 231.782,-30.5075"/>
<polygon fill="midnightblue" stroke="midnightblue" points="122.165,-62.7682 113.754,-69.2099 124.346,-69.4197 122.165,-62.7682"/>
</g>
<!-- Node22 -->
<g id="node22" class="node"><title>Node22</title>
<g id="a_node22"><a xlink:href="../../d7/d31/boris__mlsdc_8cpp.html" target="_top" xlink:title="examples/boris/boris\l_mlsdc.cpp">
<polygon fill="white" stroke="black" points="131.5,-73 131.5,-103 241.5,-103 241.5,-73 131.5,-73"/>
<text text-anchor="start" x="139.5" y="-91" font-family="Helvetica,sans-Serif" font-size="10.00">examples/boris/boris</text>
<text text-anchor="middle" x="186.5" y="-80" font-family="Helvetica,sans-Serif" font-size="10.00">_mlsdc.cpp</text>
</a>
</g>
</g>
<!-- Node21&#45;&gt;Node22 -->
<g id="edge27" class="edge"><title>Node21&#45;&gt;Node22</title>
<path fill="none" stroke="midnightblue" d="M337.049,-222.203C272.036,-216.409 178.896,-203.461 156.5,-176 138.829,-154.333 159.336,-121.634 174.083,-103.11"/>
<polygon fill="midnightblue" stroke="midnightblue" points="336.964,-225.708 347.226,-223.073 337.56,-218.734 336.964,-225.708"/>
</g>
<!-- Node21&#45;&gt;Node23 -->
<g id="edge28" class="edge"><title>Node21&#45;&gt;Node23</title>
<path fill="none" stroke="midnightblue" d="M433.571,-207.575C452.823,-197.35 477.435,-184.94 497.105,-175.577"/>
<polygon fill="midnightblue" stroke="midnightblue" points="431.749,-204.581 424.596,-212.396 435.061,-210.747 431.749,-204.581"/>
</g>
<!-- Node24 -->
<g id="node24" class="node"><title>Node24</title>
<g id="a_node24"><a xlink:href="../../d2/dc5/injective__transfer_8hpp.html" target="_top" xlink:title="examples/boris/injective\l_transfer.hpp">
<polygon fill="white" stroke="black" points="166,-145.5 166,-175.5 291,-175.5 291,-145.5 166,-145.5"/>
<text text-anchor="start" x="174" y="-163.5" font-family="Helvetica,sans-Serif" font-size="10.00">examples/boris/injective</text>
<text text-anchor="middle" x="228.5" y="-152.5" font-family="Helvetica,sans-Serif" font-size="10.00">_transfer.hpp</text>
</a>
</g>
</g>
<!-- Node21&#45;&gt;Node24 -->
<g id="edge30" class="edge"><title>Node21&#45;&gt;Node24</title>
<path fill="none" stroke="midnightblue" d="M355.168,-208.819C327.2,-198.371 292.273,-185.323 266.182,-175.577"/>
<polygon fill="midnightblue" stroke="midnightblue" points="354.152,-212.175 364.745,-212.396 356.602,-205.618 354.152,-212.175"/>
</g>
<!-- Node25 -->
<g id="node25" class="node"><title>Node25</title>
<g id="a_node25"><a xlink:href="../../d2/d1e/boris__pfasst_8cpp.html" target="_top" xlink:title="examples/boris/boris\l_pfasst.cpp">
<polygon fill="white" stroke="black" points="259.5,-73 259.5,-103 369.5,-103 369.5,-73 259.5,-73"/>
<text text-anchor="start" x="267.5" y="-91" font-family="Helvetica,sans-Serif" font-size="10.00">examples/boris/boris</text>
<text text-anchor="middle" x="314.5" y="-80" font-family="Helvetica,sans-Serif" font-size="10.00">_pfasst.cpp</text>
</a>
</g>
</g>
<!-- Node21&#45;&gt;Node25 -->
<g id="edge33" class="edge"><title>Node21&#45;&gt;Node25</title>
<path fill="none" stroke="midnightblue" d="M369.287,-206.527C358.081,-198.325 346.421,-187.934 338.5,-176 323.424,-153.285 317.754,-121.256 315.669,-103.069"/>
<polygon fill="midnightblue" stroke="midnightblue" points="367.486,-209.538 377.697,-212.363 371.476,-203.787 367.486,-209.538"/>
</g>
<!-- Node26 -->
<g id="node26" class="node"><title>Node26</title>
<g id="a_node26"><a xlink:href="../../d3/d93/boris__sdc_8cpp.html" target="_top" xlink:title="examples/boris/boris\l_sdc.cpp">
<polygon fill="white" stroke="black" points="347.5,-145.5 347.5,-175.5 457.5,-175.5 457.5,-145.5 347.5,-145.5"/>
<text text-anchor="start" x="355.5" y="-163.5" font-family="Helvetica,sans-Serif" font-size="10.00">examples/boris/boris</text>
<text text-anchor="middle" x="402.5" y="-152.5" font-family="Helvetica,sans-Serif" font-size="10.00">_sdc.cpp</text>
</a>
</g>
</g>
<!-- Node21&#45;&gt;Node26 -->
<g id="edge34" class="edge"><title>Node21&#45;&gt;Node26</title>
<path fill="none" stroke="midnightblue" d="M402.5,-202.108C402.5,-193.154 402.5,-183.323 402.5,-175.577"/>
<polygon fill="midnightblue" stroke="midnightblue" points="399,-202.396 402.5,-212.396 406,-202.396 399,-202.396"/>
</g>
<!-- Node23&#45;&gt;Node21 -->
<g id="edge29" class="edge"><title>Node23&#45;&gt;Node21</title>
<path fill="none" stroke="midnightblue" d="M499.486,-180.395C480.244,-190.615 455.632,-203.026 435.953,-212.396"/>
<polygon fill="midnightblue" stroke="midnightblue" points="501.302,-183.392 508.455,-175.577 497.989,-177.226 501.302,-183.392"/>
</g>
<!-- Node24&#45;&gt;Node22 -->
<g id="edge31" class="edge"><title>Node24&#45;&gt;Node22</title>
<path fill="none" stroke="midnightblue" d="M214.832,-136.557C208.296,-125.586 200.677,-112.797 194.987,-103.246"/>
<polygon fill="midnightblue" stroke="midnightblue" points="211.876,-138.434 220.001,-145.233 217.889,-134.851 211.876,-138.434"/>
</g>
<!-- Node24&#45;&gt;Node25 -->
<g id="edge32" class="edge"><title>Node24&#45;&gt;Node25</title>
<path fill="none" stroke="midnightblue" d="M253.766,-138.788C267.821,-127.266 284.94,-113.233 297.416,-103.005"/>
<polygon fill="midnightblue" stroke="midnightblue" points="251.418,-136.187 245.903,-145.233 255.856,-141.6 251.418,-136.187"/>
</g>
</g>
</svg>
        <g id="navigator" transform="translate(0 0)" fill="#404254">
                <rect fill="#f2f5e9" fill-opacity="0.5" stroke="#606060" stroke-width=".5" x="0" y="0" width="60" height="60"/>
                <use id="zoomplus" xlink:href="#zoomPlus" x="17" y="9" onmousedown="handleZoom(evt,'in')"/>
                <use id="zoomminus" xlink:href="#zoomMin" x="42" y="9" onmousedown="handleZoom(evt,'out')"/>
                <use id="reset" xlink:href="#resetDef" x="30" y="36" onmousedown="handleReset()"/>
                <g id="arrowUp" xlink:href="#dirArrow" transform="translate(30 24)" onmousedown="handlePan(0,-1)">
                  <use xlink:href="#rim" fill="#404040">
                        <set attributeName="fill" to="#808080" begin="arrowUp.mouseover" end="arrowUp.mouseout"/>
                  </use>
                  <path fill="none" stroke="white" stroke-width="1.5" d="M0,-3.0v7 M-2.5,-0.5L0,-3.0L2.5,-0.5"/>
                </g>
                <g id="arrowRight" xlink:href="#dirArrow" transform="rotate(90) translate(36 -43)" onmousedown="handlePan(1,0)">
                  <use xlink:href="#rim" fill="#404040">
                        <set attributeName="fill" to="#808080" begin="arrowRight.mouseover" end="arrowRight.mouseout"/>
                  </use>
                  <path fill="none" stroke="white" stroke-width="1.5" d="M0,-3.0v7 M-2.5,-0.5L0,-3.0L2.5,-0.5"/>
                </g>
                <g id="arrowDown" xlink:href="#dirArrow" transform="rotate(180) translate(-30 -48)" onmousedown="handlePan(0,1)">
                  <use xlink:href="#rim" fill="#404040">
                        <set attributeName="fill" to="#808080" begin="arrowDown.mouseover" end="arrowDown.mouseout"/>
                  </use>
                  <path fill="none" stroke="white" stroke-width="1.5" d="M0,-3.0v7 M-2.5,-0.5L0,-3.0L2.5,-0.5"/>
                </g>
                <g id="arrowLeft" xlink:href="#dirArrow" transform="rotate(270) translate(-36 17)" onmousedown="handlePan(-1,0)">
                  <use xlink:href="#rim" fill="#404040">
                        <set attributeName="fill" to="#808080" begin="arrowLeft.mouseover" end="arrowLeft.mouseout"/>
                  </use>
                  <path fill="none" stroke="white" stroke-width="1.5" d="M0,-3.0v7 M-2.5,-0.5L0,-3.0L2.5,-0.5"/>
                </g>
        </g>
        <svg viewBox="0 0 15 15" width="100%" height="30px" preserveAspectRatio="xMaxYMin meet">
         <g id="arrow_out" transform="scale(0.3 0.3)">
          <a xlink:href="gauss__legendre__impl_8hpp__dep__incl_org.svg" target="_base">
           <rect id="button" ry="5" rx="5" y="6" x="6" height="38" width="38"
                fill="#f2f5e9" fill-opacity="0.5" stroke="#606060" stroke-width="1.0"/>
           <path id="arrow"
             d="M 11.500037,31.436501 C 11.940474,20.09759 22.043105,11.32322 32.158766,21.979434 L 37.068811,17.246167 C 37.068811,17.246167 37.088388,32 37.088388,32 L 22.160133,31.978069 C 22.160133,31.978069 26.997745,27.140456 26.997745,27.140456 C 18.528582,18.264221 13.291696,25.230495 11.500037,31.436501 z"
             style="fill:#404040;"/>
          </a>
         </g>
        </svg>
</svg>
