<?xml version="1.0" encoding="UTF-8" standalone="no"?>
<!DOCTYPE svg PUBLIC "-//W3C//DTD SVG 1.1//EN"
 "http://www.w3.org/Graphics/SVG/1.1/DTD/svg11.dtd">
<!-- Generated by graphviz version 2.38.0 (20140413.2041)
 -->
<!-- Title: include/pfasst/encap/encapsulation.hpp Pages: 1 -->
<svg width="2256pt" height="396pt"
 viewBox="0.00 0.00 2256.00 396.00" xmlns="http://www.w3.org/2000/svg" xmlns:xlink="http://www.w3.org/1999/xlink">
<g id="graph0" class="graph" transform="scale(1 1) rotate(0) translate(4 392)">
<title>include/pfasst/encap/encapsulation.hpp</title>
<polygon fill="white" stroke="none" points="-4,4 -4,-392 2252,-392 2252,4 -4,4"/>
<!-- Node1 -->
<g id="node1" class="node"><title>Node1</title>
<polygon fill="#bfbfbf" stroke="black" points="1032,-357.5 1032,-387.5 1141,-387.5 1141,-357.5 1032,-357.5"/>
<text text-anchor="start" x="1040" y="-375.5" font-family="Helvetica,sans-Serif" font-size="10.00">include/pfasst/encap</text>
<text text-anchor="middle" x="1086.5" y="-364.5" font-family="Helvetica,sans-Serif" font-size="10.00">/encapsulation.hpp</text>
</g>
<!-- Node2 -->
<g id="node2" class="node"><title>Node2</title>
<g id="a_node2"><a xlink:href="../../de/deb/encap__sweeper_8hpp.html" target="_top" xlink:title="include/pfasst/encap\l/encap_sweeper.hpp">
<polygon fill="white" stroke="black" points="1031.5,-290.5 1031.5,-320.5 1141.5,-320.5 1141.5,-290.5 1031.5,-290.5"/>
<text text-anchor="start" x="1039.5" y="-308.5" font-family="Helvetica,sans-Serif" font-size="10.00">include/pfasst/encap</text>
<text text-anchor="middle" x="1086.5" y="-297.5" font-family="Helvetica,sans-Serif" font-size="10.00">/encap_sweeper.hpp</text>
</a>
</g>
</g>
<!-- Node1&#45;&gt;Node2 -->
<g id="edge1" class="edge"><title>Node1&#45;&gt;Node2</title>
<path fill="none" stroke="midnightblue" d="M1086.5,-347.108C1086.5,-338.154 1086.5,-328.323 1086.5,-320.577"/>
<polygon fill="midnightblue" stroke="midnightblue" points="1083,-347.396 1086.5,-357.396 1090,-347.396 1083,-347.396"/>
</g>
<!-- Node3 -->
<g id="node3" class="node"><title>Node3</title>
<g id="a_node3"><a xlink:href="../../d1/d6f/imex__sweeper_8hpp.html" target="_top" xlink:title="include/pfasst/encap\l/imex_sweeper.hpp">
<polygon fill="white" stroke="black" points="899,-223.5 899,-253.5 1008,-253.5 1008,-223.5 899,-223.5"/>
<text text-anchor="start" x="907" y="-241.5" font-family="Helvetica,sans-Serif" font-size="10.00">include/pfasst/encap</text>
<text text-anchor="middle" x="953.5" y="-230.5" font-family="Helvetica,sans-Serif" font-size="10.00">/imex_sweeper.hpp</text>
</a>
</g>
</g>
<!-- Node1&#45;&gt;Node3 -->
<g id="edge34" class="edge"><title>Node1&#45;&gt;Node3</title>
<path fill="none" stroke="midnightblue" d="M1058.54,-351.378C1046.95,-342.552 1033.64,-331.762 1022.5,-321 999.967,-299.231 977.114,-270.686 964.183,-253.798"/>
<polygon fill="midnightblue" stroke="midnightblue" points="1056.52,-354.237 1066.62,-357.43 1060.72,-348.634 1056.52,-354.237"/>
</g>
<!-- Node11 -->
<g id="node11" class="node"><title>Node11</title>
<g id="a_node11"><a xlink:href="../../d7/daf/implicit__sweeper_8hpp.html" target="_top" xlink:title="include/pfasst/encap\l/implicit_sweeper.hpp">
<polygon fill="white" stroke="black" points="755.5,-223.5 755.5,-253.5 867.5,-253.5 867.5,-223.5 755.5,-223.5"/>
<text text-anchor="start" x="763.5" y="-241.5" font-family="Helvetica,sans-Serif" font-size="10.00">include/pfasst/encap</text>
<text text-anchor="middle" x="811.5" y="-230.5" font-family="Helvetica,sans-Serif" font-size="10.00">/implicit_sweeper.hpp</text>
</a>
</g>
</g>
<!-- Node1&#45;&gt;Node11 -->
<g id="edge35" class="edge"><title>Node1&#45;&gt;Node11</title>
<path fill="none" stroke="midnightblue" d="M1048.17,-353.099C992.575,-326.416 890.78,-277.555 840.784,-253.556"/>
<polygon fill="midnightblue" stroke="midnightblue" points="1046.8,-356.327 1057.33,-357.499 1049.83,-350.016 1046.8,-356.327"/>
</g>
<!-- Node17 -->
<g id="node17" class="node"><title>Node17</title>
<g id="a_node17"><a xlink:href="../../d0/d45/poly__interp_8hpp.html" target="_top" xlink:title="include/pfasst/encap\l/poly_interp.hpp">
<polygon fill="white" stroke="black" points="0,-151 0,-181 109,-181 109,-151 0,-151"/>
<text text-anchor="start" x="8" y="-169" font-family="Helvetica,sans-Serif" font-size="10.00">include/pfasst/encap</text>
<text text-anchor="middle" x="54.5" y="-158" font-family="Helvetica,sans-Serif" font-size="10.00">/poly_interp.hpp</text>
</a>
</g>
</g>
<!-- Node1&#45;&gt;Node17 -->
<g id="edge36" class="edge"><title>Node1&#45;&gt;Node17</title>
<path fill="none" stroke="midnightblue" d="M1021.88,-368.316C809.715,-357.279 144.007,-317.817 73.5,-254 53.0971,-235.533 51.8813,-200.686 53.0344,-181.165"/>
<polygon fill="midnightblue" stroke="midnightblue" points="1021.76,-371.814 1031.93,-368.835 1022.12,-364.824 1021.76,-371.814"/>
</g>
<!-- Node22 -->
<g id="node22" class="node"><title>Node22</title>
<g id="a_node22"><a xlink:href="../../d2/dc5/injective__transfer_8hpp.html" target="_top" xlink:title="examples/boris/injective\l_transfer.hpp">
<polygon fill="white" stroke="black" points="1797,-73 1797,-103 1922,-103 1922,-73 1797,-73"/>
<text text-anchor="start" x="1805" y="-91" font-family="Helvetica,sans-Serif" font-size="10.00">examples/boris/injective</text>
<text text-anchor="middle" x="1859.5" y="-80" font-family="Helvetica,sans-Serif" font-size="10.00">_transfer.hpp</text>
</a>
</g>
</g>
<!-- Node1&#45;&gt;Node22 -->
<g id="edge74" class="edge"><title>Node1&#45;&gt;Node22</title>
<path fill="none" stroke="midnightblue" d="M1151.2,-371.853C1243.48,-370.738 1417.35,-362.601 1558.5,-321 1671.61,-287.662 1703.11,-269.364 1787.5,-187 1814.54,-160.605 1838.97,-123.209 1851.22,-103.101"/>
<polygon fill="midnightblue" stroke="midnightblue" points="1151.14,-368.353 1141.17,-371.95 1151.2,-375.353 1151.14,-368.353"/>
</g>
<!-- Node25 -->
<g id="node25" class="node"><title>Node25</title>
<g id="a_node25"><a xlink:href="../../da/d16/vector_8hpp.html" target="_top" xlink:title="include/pfasst/encap\l/vector.hpp">
<polygon fill="white" stroke="black" points="444,-223.5 444,-253.5 553,-253.5 553,-223.5 444,-223.5"/>
<text text-anchor="start" x="452" y="-241.5" font-family="Helvetica,sans-Serif" font-size="10.00">include/pfasst/encap</text>
<text text-anchor="middle" x="498.5" y="-230.5" font-family="Helvetica,sans-Serif" font-size="10.00">/vector.hpp</text>
</a>
</g>
</g>
<!-- Node1&#45;&gt;Node25 -->
<g id="edge37" class="edge"><title>Node1&#45;&gt;Node25</title>
<path fill="none" stroke="midnightblue" d="M1022.13,-357.05C905.788,-330.932 662.475,-276.311 553.426,-251.83"/>
<polygon fill="midnightblue" stroke="midnightblue" points="1021.45,-360.484 1031.97,-359.259 1022.98,-353.654 1021.45,-360.484"/>
</g>
<!-- Node28 -->
<g id="node28" class="node"><title>Node28</title>
<g id="a_node28"><a xlink:href="../../d1/d99/encapsulation__impl_8hpp.html" target="_top" xlink:title="src/pfasst/encap/encapsulation\l_impl.hpp">
<polygon fill="white" stroke="black" points="2093,-290.5 2093,-320.5 2248,-320.5 2248,-290.5 2093,-290.5"/>
<text text-anchor="start" x="2101" y="-308.5" font-family="Helvetica,sans-Serif" font-size="10.00">src/pfasst/encap/encapsulation</text>
<text text-anchor="middle" x="2170.5" y="-297.5" font-family="Helvetica,sans-Serif" font-size="10.00">_impl.hpp</text>
</a>
</g>
</g>
<!-- Node1&#45;&gt;Node28 -->
<g id="edge51" class="edge"><title>Node1&#45;&gt;Node28</title>
<path fill="none" stroke="midnightblue" d="M1151.5,-370.478C1309.29,-367.547 1724.52,-356.866 2069.5,-321 2077.06,-320.214 2084.94,-319.228 2092.83,-318.142"/>
<polygon fill="midnightblue" stroke="midnightblue" points="1150.97,-366.987 1141.04,-370.668 1151.1,-373.985 1150.97,-366.987"/>
</g>
<!-- Node29 -->
<g id="node29" class="node"><title>Node29</title>
<g id="a_node29"><a xlink:href="../../d8/d52/particle__cloud_8hpp.html" target="_top" xlink:title="examples/boris/particle\l_cloud.hpp">
<polygon fill="white" stroke="black" points="1429,-290.5 1429,-320.5 1550,-320.5 1550,-290.5 1429,-290.5"/>
<text text-anchor="start" x="1437" y="-308.5" font-family="Helvetica,sans-Serif" font-size="10.00">examples/boris/particle</text>
<text text-anchor="middle" x="1489.5" y="-297.5" font-family="Helvetica,sans-Serif" font-size="10.00">_cloud.hpp</text>
</a>
</g>
</g>
<!-- Node1&#45;&gt;Node29 -->
<g id="edge53" class="edge"><title>Node1&#45;&gt;Node29</title>
<path fill="none" stroke="midnightblue" d="M1151.27,-361.053C1227.83,-348.704 1354.25,-328.315 1428.93,-316.27"/>
<polygon fill="midnightblue" stroke="midnightblue" points="1150.58,-357.618 1141.27,-362.666 1151.7,-364.529 1150.58,-357.618"/>
</g>
<!-- Node2&#45;&gt;Node3 -->
<g id="edge2" class="edge"><title>Node2&#45;&gt;Node3</title>
<path fill="none" stroke="midnightblue" d="M1048.63,-285.992C1027.55,-275.689 1001.72,-263.068 982.303,-253.577"/>
<polygon fill="midnightblue" stroke="midnightblue" points="1047.12,-289.15 1057.64,-290.396 1050.19,-282.86 1047.12,-289.15"/>
</g>
<!-- Node2&#45;&gt;Node11 -->
<g id="edge11" class="edge"><title>Node2&#45;&gt;Node11</title>
<path fill="none" stroke="midnightblue" d="M1021.16,-289.055C974.426,-278.01 912.179,-263.297 867.674,-252.778"/>
<polygon fill="midnightblue" stroke="midnightblue" points="1020.64,-292.53 1031.18,-291.424 1022.25,-285.718 1020.64,-292.53"/>
</g>
<!-- Node15 -->
<g id="node15" class="node"><title>Node15</title>
<g id="a_node15"><a xlink:href="../../d9/d05/encap__sweeper__impl_8hpp.html" target="_top" xlink:title="src/pfasst/encap/encap\l_sweeper_impl.hpp">
<polygon fill="white" stroke="black" points="1026,-223.5 1026,-253.5 1147,-253.5 1147,-223.5 1026,-223.5"/>
<text text-anchor="start" x="1034" y="-241.5" font-family="Helvetica,sans-Serif" font-size="10.00">src/pfasst/encap/encap</text>
<text text-anchor="middle" x="1086.5" y="-230.5" font-family="Helvetica,sans-Serif" font-size="10.00">_sweeper_impl.hpp</text>
</a>
</g>
</g>
<!-- Node2&#45;&gt;Node15 -->
<g id="edge16" class="edge"><title>Node2&#45;&gt;Node15</title>
<path fill="none" stroke="midnightblue" d="M1079.95,-280.403C1079.51,-271.37 1079.8,-261.408 1080.83,-253.577"/>
<polygon fill="midnightblue" stroke="midnightblue" points="1076.47,-280.736 1080.82,-290.396 1083.44,-280.131 1076.47,-280.736"/>
</g>
<!-- Node16 -->
<g id="node16" class="node"><title>Node16</title>
<g id="a_node16"><a xlink:href="../../d9/d3c/poly__interp__impl_8hpp.html" target="_top" xlink:title="src/pfasst/encap/poly\l_interp_impl.hpp">
<polygon fill="white" stroke="black" points="82.5,-223.5 82.5,-253.5 194.5,-253.5 194.5,-223.5 82.5,-223.5"/>
<text text-anchor="start" x="90.5" y="-241.5" font-family="Helvetica,sans-Serif" font-size="10.00">src/pfasst/encap/poly</text>
<text text-anchor="middle" x="138.5" y="-230.5" font-family="Helvetica,sans-Serif" font-size="10.00">_interp_impl.hpp</text>
</a>
</g>
</g>
<!-- Node2&#45;&gt;Node16 -->
<g id="edge18" class="edge"><title>Node2&#45;&gt;Node16</title>
<path fill="none" stroke="midnightblue" d="M1021.26,-300.027C844.738,-287.923 359.955,-254.684 194.611,-243.347"/>
<polygon fill="midnightblue" stroke="midnightblue" points="1021.22,-303.532 1031.43,-300.724 1021.7,-296.548 1021.22,-303.532"/>
</g>
<!-- Node19 -->
<g id="node19" class="node"><title>Node19</title>
<g id="a_node19"><a xlink:href="../../db/dfd/boris__sweeper_8hpp.html" target="_top" xlink:title="examples/boris/boris\l_sweeper.hpp">
<polygon fill="white" stroke="black" points="1355.5,-151 1355.5,-181 1465.5,-181 1465.5,-151 1355.5,-151"/>
<text text-anchor="start" x="1363.5" y="-169" font-family="Helvetica,sans-Serif" font-size="10.00">examples/boris/boris</text>
<text text-anchor="middle" x="1410.5" y="-158" font-family="Helvetica,sans-Serif" font-size="10.00">_sweeper.hpp</text>
</a>
</g>
</g>
<!-- Node2&#45;&gt;Node19 -->
<g id="edge24" class="edge"><title>Node2&#45;&gt;Node19</title>
<path fill="none" stroke="midnightblue" d="M1129.24,-286.362C1194.58,-258.633 1317.95,-206.276 1377.15,-181.152"/>
<polygon fill="midnightblue" stroke="midnightblue" points="1127.49,-283.303 1119.65,-290.431 1130.22,-289.746 1127.49,-283.303"/>
</g>
<!-- Node21 -->
<g id="node21" class="node"><title>Node21</title>
<g id="a_node21"><a xlink:href="../../db/d9a/boris__sweeper__impl_8hpp.html" target="_top" xlink:title="examples/boris/boris\l_sweeper_impl.hpp">
<polygon fill="white" stroke="black" points="1241.5,-73 1241.5,-103 1351.5,-103 1351.5,-73 1241.5,-73"/>
<text text-anchor="start" x="1249.5" y="-91" font-family="Helvetica,sans-Serif" font-size="10.00">examples/boris/boris</text>
<text text-anchor="middle" x="1296.5" y="-80" font-family="Helvetica,sans-Serif" font-size="10.00">_sweeper_impl.hpp</text>
</a>
</g>
</g>
<!-- Node2&#45;&gt;Node21 -->
<g id="edge33" class="edge"><title>Node2&#45;&gt;Node21</title>
<path fill="none" stroke="midnightblue" d="M1116.65,-284.718C1129.19,-275.927 1143.56,-265.072 1155.5,-254 1209.93,-203.525 1264.09,-133.025 1286.16,-103.21"/>
<polygon fill="midnightblue" stroke="midnightblue" points="1114.58,-281.899 1108.32,-290.452 1118.55,-287.665 1114.58,-281.899"/>
</g>
<!-- Node4 -->
<g id="node4" class="node"><title>Node4</title>
<g id="a_node4"><a xlink:href="../../d7/d0a/imex__sweeper__impl_8hpp.html" target="_top" xlink:title="src/pfasst/encap/imex\l_sweeper_impl.hpp">
<polygon fill="white" stroke="black" points="1070,-151 1070,-181 1185,-181 1185,-151 1070,-151"/>
<text text-anchor="start" x="1078" y="-169" font-family="Helvetica,sans-Serif" font-size="10.00">src/pfasst/encap/imex</text>
<text text-anchor="middle" x="1127.5" y="-158" font-family="Helvetica,sans-Serif" font-size="10.00">_sweeper_impl.hpp</text>
</a>
</g>
</g>
<!-- Node3&#45;&gt;Node4 -->
<g id="edge3" class="edge"><title>Node3&#45;&gt;Node4</title>
<path fill="none" stroke="midnightblue" d="M992.324,-219.343C1020.59,-207.424 1058.65,-192.066 1087.24,-181.073"/>
<polygon fill="midnightblue" stroke="midnightblue" points="990.603,-216.272 982.767,-223.403 993.339,-222.715 990.603,-216.272"/>
</g>
<!-- Node5 -->
<g id="node5" class="node"><title>Node5</title>
<g id="a_node5"><a xlink:href="../../dc/d7d/advection__diffusion__sweeper_8hpp.html" target="_top" xlink:title="examples/advection\l_diffusion/advection\l_diffusion_sweeper.hpp">
<polygon fill="white" stroke="black" points="330,-67.5 330,-108.5 451,-108.5 451,-67.5 330,-67.5"/>
<text text-anchor="start" x="338" y="-96.5" font-family="Helvetica,sans-Serif" font-size="10.00">examples/advection</text>
<text text-anchor="start" x="338" y="-85.5" font-family="Helvetica,sans-Serif" font-size="10.00">_diffusion/advection</text>
<text text-anchor="middle" x="390.5" y="-74.5" font-family="Helvetica,sans-Serif" font-size="10.00">_diffusion_sweeper.hpp</text>
</a>
</g>
</g>
<!-- Node3&#45;&gt;Node5 -->
<g id="edge5" class="edge"><title>Node3&#45;&gt;Node5</title>
<path fill="none" stroke="midnightblue" d="M992.908,-218.01C1004.6,-210.108 1016.01,-199.783 1022.5,-187 1030.95,-170.353 1035.18,-158.697 1022.5,-145 987.143,-106.812 607.289,-114.132 555.5,-109 520.899,-105.571 482.314,-100.939 451.161,-96.9959"/>
<polygon fill="midnightblue" stroke="midnightblue" points="991.022,-215.061 984.406,-223.336 994.739,-220.993 991.022,-215.061"/>
</g>
<!-- Node9 -->
<g id="node9" class="node"><title>Node9</title>
<g id="a_node9"><a xlink:href="../../d8/d93/scalar__sweeper_8hpp.html" target="_top" xlink:title="examples/scalar/scalar\l_sweeper.hpp">
<polygon fill="white" stroke="black" points="891.5,-151 891.5,-181 1013.5,-181 1013.5,-151 891.5,-151"/>
<text text-anchor="start" x="899.5" y="-169" font-family="Helvetica,sans-Serif" font-size="10.00">examples/scalar/scalar</text>
<text text-anchor="middle" x="952.5" y="-158" font-family="Helvetica,sans-Serif" font-size="10.00">_sweeper.hpp</text>
</a>
</g>
</g>
<!-- Node3&#45;&gt;Node9 -->
<g id="edge9" class="edge"><title>Node3&#45;&gt;Node9</title>
<path fill="none" stroke="midnightblue" d="M953.156,-213.232C953.005,-202.568 952.832,-190.414 952.702,-181.246"/>
<polygon fill="midnightblue" stroke="midnightblue" points="949.656,-213.284 953.298,-223.233 956.655,-213.185 949.656,-213.284"/>
</g>
<!-- Node4&#45;&gt;Node3 -->
<g id="edge4" class="edge"><title>Node4&#45;&gt;Node3</title>
<path fill="none" stroke="midnightblue" d="M1088.74,-185.13C1060.49,-197.044 1022.43,-212.404 993.82,-223.403"/>
<polygon fill="midnightblue" stroke="midnightblue" points="1090.45,-188.204 1098.29,-181.073 1087.72,-181.761 1090.45,-188.204"/>
</g>
<!-- Node6 -->
<g id="node6" class="node"><title>Node6</title>
<g id="a_node6"><a xlink:href="../../d1/d49/mpi__pfasst_8cpp.html" target="_top" xlink:title="Advection&#45;Diffusion with MPI&#45;enabled PFASST. ">
<polygon fill="white" stroke="black" points="164,-0.5 164,-30.5 291,-30.5 291,-0.5 164,-0.5"/>
<text text-anchor="start" x="172" y="-18.5" font-family="Helvetica,sans-Serif" font-size="10.00">examples/advection</text>
<text text-anchor="middle" x="227.5" y="-7.5" font-family="Helvetica,sans-Serif" font-size="10.00">_diffusion/mpi_pfasst.cpp</text>
</a>
</g>
</g>
<!-- Node5&#45;&gt;Node6 -->
<g id="edge6" class="edge"><title>Node5&#45;&gt;Node6</title>
<path fill="none" stroke="midnightblue" d="M335.675,-63.2874C310.55,-52.4202 281.622,-39.9088 260.007,-30.5597"/>
<polygon fill="midnightblue" stroke="midnightblue" points="334.528,-66.6044 345.095,-67.3618 337.307,-60.1796 334.528,-66.6044"/>
</g>
<!-- Node7 -->
<g id="node7" class="node"><title>Node7</title>
<g id="a_node7"><a xlink:href="../../d9/d86/serial__mlsdc_8cpp.html" target="_top" xlink:title="Advection&#45;Diffusion with serial MLSDC. ">
<polygon fill="white" stroke="black" points="309,-0.5 309,-30.5 446,-30.5 446,-0.5 309,-0.5"/>
<text text-anchor="start" x="317" y="-18.5" font-family="Helvetica,sans-Serif" font-size="10.00">examples/advection</text>
<text text-anchor="middle" x="377.5" y="-7.5" font-family="Helvetica,sans-Serif" font-size="10.00">_diffusion/serial_mlsdc.cpp</text>
</a>
</g>
</g>
<!-- Node5&#45;&gt;Node7 -->
<g id="edge7" class="edge"><title>Node5&#45;&gt;Node7</title>
<path fill="none" stroke="midnightblue" d="M385.037,-57.3757C383.348,-48.214 381.563,-38.5319 380.154,-30.8916"/>
<polygon fill="midnightblue" stroke="midnightblue" points="381.623,-58.1623 386.879,-67.3618 388.507,-56.8929 381.623,-58.1623"/>
</g>
<!-- Node8 -->
<g id="node8" class="node"><title>Node8</title>
<g id="a_node8"><a xlink:href="../../d4/df0/vanilla__sdc_8cpp.html" target="_top" xlink:title="Advection&#45;Diffusion with vanilla SDC. ">
<polygon fill="white" stroke="black" points="464,-0.5 464,-30.5 595,-30.5 595,-0.5 464,-0.5"/>
<text text-anchor="start" x="472" y="-18.5" font-family="Helvetica,sans-Serif" font-size="10.00">examples/advection</text>
<text text-anchor="middle" x="529.5" y="-7.5" font-family="Helvetica,sans-Serif" font-size="10.00">_diffusion/vanilla_sdc.cpp</text>
</a>
</g>
</g>
<!-- Node5&#45;&gt;Node8 -->
<g id="edge8" class="edge"><title>Node5&#45;&gt;Node8</title>
<path fill="none" stroke="midnightblue" d="M438.355,-62.728C459.436,-52.0358 483.469,-39.8466 501.562,-30.67"/>
<polygon fill="midnightblue" stroke="midnightblue" points="436.555,-59.7169 429.219,-67.3618 439.721,-65.9598 436.555,-59.7169"/>
</g>
<!-- Node10 -->
<g id="node10" class="node"><title>Node10</title>
<g id="a_node10"><a xlink:href="../../d2/daf/scalar__sdc_8cpp.html" target="_top" xlink:title="Scalar test equation example using an encapsulated IMEX sweeper. ">
<polygon fill="white" stroke="black" points="791.5,-73 791.5,-103 913.5,-103 913.5,-73 791.5,-73"/>
<text text-anchor="start" x="799.5" y="-91" font-family="Helvetica,sans-Serif" font-size="10.00">examples/scalar/scalar</text>
<text text-anchor="middle" x="852.5" y="-80" font-family="Helvetica,sans-Serif" font-size="10.00">_sdc.cpp</text>
</a>
</g>
</g>
<!-- Node9&#45;&gt;Node10 -->
<g id="edge10" class="edge"><title>Node9&#45;&gt;Node10</title>
<path fill="none" stroke="midnightblue" d="M925.672,-144.611C908.468,-131.536 886.565,-114.89 871.225,-103.231"/>
<polygon fill="midnightblue" stroke="midnightblue" points="923.611,-147.441 933.691,-150.705 927.847,-141.868 923.611,-147.441"/>
</g>
<!-- Node12 -->
<g id="node12" class="node"><title>Node12</title>
<g id="a_node12"><a xlink:href="../../dd/d8c/implicit__sweeper__impl_8hpp.html" target="_top" xlink:title="src/pfasst/encap/implicit\l_sweeper_impl.hpp">
<polygon fill="white" stroke="black" points="750,-151 750,-181 873,-181 873,-151 750,-151"/>
<text text-anchor="start" x="758" y="-169" font-family="Helvetica,sans-Serif" font-size="10.00">src/pfasst/encap/implicit</text>
<text text-anchor="middle" x="811.5" y="-158" font-family="Helvetica,sans-Serif" font-size="10.00">_sweeper_impl.hpp</text>
</a>
</g>
</g>
<!-- Node11&#45;&gt;Node12 -->
<g id="edge12" class="edge"><title>Node11&#45;&gt;Node12</title>
<path fill="none" stroke="midnightblue" d="M805.05,-213.232C804.449,-202.568 804.751,-190.414 805.954,-181.246"/>
<polygon fill="midnightblue" stroke="midnightblue" points="801.568,-213.588 805.951,-223.233 808.54,-212.959 801.568,-213.588"/>
</g>
<!-- Node13 -->
<g id="node13" class="node"><title>Node13</title>
<g id="a_node13"><a xlink:href="../../d6/d93/vdp__sweeper_8hpp.html" target="_top" xlink:title="examples/vanderpol\l/vdp_sweeper.hpp">
<polygon fill="white" stroke="black" points="584,-151 584,-181 693,-181 693,-151 584,-151"/>
<text text-anchor="start" x="592" y="-169" font-family="Helvetica,sans-Serif" font-size="10.00">examples/vanderpol</text>
<text text-anchor="middle" x="638.5" y="-158" font-family="Helvetica,sans-Serif" font-size="10.00">/vdp_sweeper.hpp</text>
</a>
</g>
</g>
<!-- Node11&#45;&gt;Node13 -->
<g id="edge14" class="edge"><title>Node11&#45;&gt;Node13</title>
<path fill="none" stroke="midnightblue" d="M767.328,-219.499C738.027,-207.559 700.126,-192.114 673.033,-181.073"/>
<polygon fill="midnightblue" stroke="midnightblue" points="766.325,-222.87 776.907,-223.403 768.967,-216.388 766.325,-222.87"/>
</g>
<!-- Node12&#45;&gt;Node11 -->
<g id="edge13" class="edge"><title>Node12&#45;&gt;Node11</title>
<path fill="none" stroke="midnightblue" d="M817.949,-191.244C818.551,-201.905 818.251,-214.06 817.049,-223.233"/>
<polygon fill="midnightblue" stroke="midnightblue" points="821.431,-190.89 817.046,-181.246 814.459,-191.52 821.431,-190.89"/>
</g>
<!-- Node14 -->
<g id="node14" class="node"><title>Node14</title>
<g id="a_node14"><a xlink:href="../../df/de7/vdp__sdc_8cpp.html" target="_top" xlink:title="examples/vanderpol\l/vdp_sdc.cpp">
<polygon fill="white" stroke="black" points="565,-73 565,-103 674,-103 674,-73 565,-73"/>
<text text-anchor="start" x="573" y="-91" font-family="Helvetica,sans-Serif" font-size="10.00">examples/vanderpol</text>
<text text-anchor="middle" x="619.5" y="-80" font-family="Helvetica,sans-Serif" font-size="10.00">/vdp_sdc.cpp</text>
</a>
</g>
</g>
<!-- Node13&#45;&gt;Node14 -->
<g id="edge15" class="edge"><title>Node13&#45;&gt;Node14</title>
<path fill="none" stroke="midnightblue" d="M632.491,-140.963C629.388,-128.551 625.707,-113.83 623.058,-103.231"/>
<polygon fill="midnightblue" stroke="midnightblue" points="629.105,-141.852 634.926,-150.705 635.896,-140.155 629.105,-141.852"/>
</g>
<!-- Node15&#45;&gt;Node2 -->
<g id="edge17" class="edge"><title>Node15&#45;&gt;Node2</title>
<path fill="none" stroke="midnightblue" d="M1093.04,-263.565C1093.49,-272.596 1093.21,-282.56 1092.18,-290.396"/>
<polygon fill="midnightblue" stroke="midnightblue" points="1096.53,-263.236 1092.17,-253.577 1089.55,-263.842 1096.53,-263.236"/>
</g>
<!-- Node16&#45;&gt;Node17 -->
<g id="edge19" class="edge"><title>Node16&#45;&gt;Node17</title>
<path fill="none" stroke="midnightblue" d="M107.666,-216.832C93.1361,-205.392 76.7627,-191.465 65.9275,-181.246"/>
<polygon fill="midnightblue" stroke="midnightblue" points="105.899,-219.89 115.953,-223.233 110.179,-214.35 105.899,-219.89"/>
</g>
<!-- Node17&#45;&gt;Node16 -->
<g id="edge20" class="edge"><title>Node17&#45;&gt;Node16</title>
<path fill="none" stroke="midnightblue" d="M85.017,-187.419C99.6155,-198.897 116.136,-212.941 127.05,-223.233"/>
<polygon fill="midnightblue" stroke="midnightblue" points="86.7567,-184.341 76.7007,-181.005 82.4817,-189.884 86.7567,-184.341"/>
</g>
<!-- Node18 -->
<g id="node18" class="node"><title>Node18</title>
<g id="a_node18"><a xlink:href="../../d0/dbe/spectral__transfer__1d_8hpp.html" target="_top" xlink:title="examples/advection\l_diffusion/spectral\l_transfer_1d.hpp">
<polygon fill="white" stroke="black" points="203.5,-67.5 203.5,-108.5 311.5,-108.5 311.5,-67.5 203.5,-67.5"/>
<text text-anchor="start" x="211.5" y="-96.5" font-family="Helvetica,sans-Serif" font-size="10.00">examples/advection</text>
<text text-anchor="start" x="211.5" y="-85.5" font-family="Helvetica,sans-Serif" font-size="10.00">_diffusion/spectral</text>
<text text-anchor="middle" x="257.5" y="-74.5" font-family="Helvetica,sans-Serif" font-size="10.00">_transfer_1d.hpp</text>
</a>
</g>
</g>
<!-- Node17&#45;&gt;Node18 -->
<g id="edge21" class="edge"><title>Node17&#45;&gt;Node18</title>
<path fill="none" stroke="midnightblue" d="M101.89,-147.258C132.809,-135.682 173.194,-120.563 205.073,-108.628"/>
<polygon fill="midnightblue" stroke="midnightblue" points="100.345,-144.099 92.207,-150.883 102.799,-150.655 100.345,-144.099"/>
</g>
<!-- Node18&#45;&gt;Node6 -->
<g id="edge22" class="edge"><title>Node18&#45;&gt;Node6</title>
<path fill="none" stroke="midnightblue" d="M245.145,-57.966C241.173,-48.6314 236.945,-38.6962 233.624,-30.8916"/>
<polygon fill="midnightblue" stroke="midnightblue" points="242.007,-59.5307 249.143,-67.3618 248.448,-56.7898 242.007,-59.5307"/>
</g>
<!-- Node18&#45;&gt;Node7 -->
<g id="edge23" class="edge"><title>Node18&#45;&gt;Node7</title>
<path fill="none" stroke="midnightblue" d="M299.55,-62.2957C317.571,-51.7084 337.971,-39.7232 353.381,-30.67"/>
<polygon fill="midnightblue" stroke="midnightblue" points="297.776,-59.2785 290.927,-67.3618 301.322,-65.314 297.776,-59.2785"/>
</g>
<!-- Node20 -->
<g id="node20" class="node"><title>Node20</title>
<g id="a_node20"><a xlink:href="../../d7/d31/boris__mlsdc_8cpp.html" target="_top" xlink:title="examples/boris/boris\l_mlsdc.cpp">
<polygon fill="white" stroke="black" points="1895.5,-0.5 1895.5,-30.5 2005.5,-30.5 2005.5,-0.5 1895.5,-0.5"/>
<text text-anchor="start" x="1903.5" y="-18.5" font-family="Helvetica,sans-Serif" font-size="10.00">examples/boris/boris</text>
<text text-anchor="middle" x="1950.5" y="-7.5" font-family="Helvetica,sans-Serif" font-size="10.00">_mlsdc.cpp</text>
</a>
</g>
</g>
<!-- Node19&#45;&gt;Node20 -->
<g id="edge25" class="edge"><title>Node19&#45;&gt;Node20</title>
<path fill="none" stroke="midnightblue" d="M1419,-141.272C1428.63,-118.125 1446.72,-83.9958 1474.5,-67 1543.88,-24.5568 1785.47,-17.4951 1895.34,-16.5221"/>
<polygon fill="midnightblue" stroke="midnightblue" points="1415.68,-140.148 1415.27,-150.735 1422.19,-142.713 1415.68,-140.148"/>
</g>
<!-- Node19&#45;&gt;Node21 -->
<g id="edge26" class="edge"><title>Node19&#45;&gt;Node21</title>
<path fill="none" stroke="midnightblue" d="M1375.22,-145.467C1354.12,-132.199 1328.47,-114.963 1312.18,-103.041"/>
<polygon fill="midnightblue" stroke="midnightblue" points="1373.6,-148.581 1383.94,-150.883 1377.29,-142.634 1373.6,-148.581"/>
</g>
<!-- Node19&#45;&gt;Node22 -->
<g id="edge28" class="edge"><title>Node19&#45;&gt;Node22</title>
<path fill="none" stroke="midnightblue" d="M1475.81,-157.783C1551.33,-148.864 1679.16,-132.001 1787.5,-109 1795.49,-107.303 1803.92,-105.229 1812.07,-103.068"/>
<polygon fill="midnightblue" stroke="midnightblue" points="1475.03,-154.35 1465.51,-158.988 1475.85,-161.302 1475.03,-154.35"/>
</g>
<!-- Node23 -->
<g id="node23" class="node"><title>Node23</title>
<g id="a_node23"><a xlink:href="../../d2/d1e/boris__pfasst_8cpp.html" target="_top" xlink:title="examples/boris/boris\l_pfasst.cpp">
<polygon fill="white" stroke="black" points="1400.5,-0.5 1400.5,-30.5 1510.5,-30.5 1510.5,-0.5 1400.5,-0.5"/>
<text text-anchor="start" x="1408.5" y="-18.5" font-family="Helvetica,sans-Serif" font-size="10.00">examples/boris/boris</text>
<text text-anchor="middle" x="1455.5" y="-7.5" font-family="Helvetica,sans-Serif" font-size="10.00">_pfasst.cpp</text>
</a>
</g>
</g>
<!-- Node19&#45;&gt;Node23 -->
<g id="edge31" class="edge"><title>Node19&#45;&gt;Node23</title>
<path fill="none" stroke="midnightblue" d="M1402.84,-140.926C1397.69,-120.448 1393.49,-90.6801 1403.5,-67 1409.77,-52.1636 1422.77,-39.5386 1434.2,-30.6227"/>
<polygon fill="midnightblue" stroke="midnightblue" points="1399.51,-142.004 1405.55,-150.707 1406.26,-140.135 1399.51,-142.004"/>
</g>
<!-- Node24 -->
<g id="node24" class="node"><title>Node24</title>
<g id="a_node24"><a xlink:href="../../d3/d93/boris__sdc_8cpp.html" target="_top" xlink:title="examples/boris/boris\l_sdc.cpp">
<polygon fill="white" stroke="black" points="1483.5,-73 1483.5,-103 1593.5,-103 1593.5,-73 1483.5,-73"/>
<text text-anchor="start" x="1491.5" y="-91" font-family="Helvetica,sans-Serif" font-size="10.00">examples/boris/boris</text>
<text text-anchor="middle" x="1538.5" y="-80" font-family="Helvetica,sans-Serif" font-size="10.00">_sdc.cpp</text>
</a>
</g>
</g>
<!-- Node19&#45;&gt;Node24 -->
<g id="edge32" class="edge"><title>Node19&#45;&gt;Node24</title>
<path fill="none" stroke="midnightblue" d="M1443.1,-145.644C1465.48,-132.353 1494.68,-115.017 1514.85,-103.041"/>
<polygon fill="midnightblue" stroke="midnightblue" points="1441.09,-142.768 1434.28,-150.883 1444.66,-148.787 1441.09,-142.768"/>
</g>
<!-- Node21&#45;&gt;Node19 -->
<g id="edge27" class="edge"><title>Node21&#45;&gt;Node19</title>
<path fill="none" stroke="midnightblue" d="M1331.9,-108.609C1352.83,-121.772 1378.2,-138.816 1394.47,-150.705"/>
<polygon fill="midnightblue" stroke="midnightblue" points="1333.59,-105.536 1323.25,-103.231 1329.9,-111.481 1333.59,-105.536"/>
</g>
<!-- Node22&#45;&gt;Node20 -->
<g id="edge29" class="edge"><title>Node22&#45;&gt;Node20</title>
<path fill="none" stroke="midnightblue" d="M1886.24,-66.2877C1901.11,-54.7662 1919.22,-40.7326 1932.42,-30.5049"/>
<polygon fill="midnightblue" stroke="midnightblue" points="1883.68,-63.842 1877.92,-72.7333 1887.96,-69.3757 1883.68,-63.842"/>
</g>
<!-- Node22&#45;&gt;Node23 -->
<g id="edge30" class="edge"><title>Node22&#45;&gt;Node23</title>
<path fill="none" stroke="midnightblue" d="M1802.04,-70.3789C1797.14,-69.1623 1792.25,-68.0161 1787.5,-67 1690.87,-46.3079 1576.65,-30.878 1510.5,-22.8132"/>
<polygon fill="midnightblue" stroke="midnightblue" points="1801.51,-73.8548 1812.06,-72.9557 1803.25,-67.0754 1801.51,-73.8548"/>
</g>
<!-- Node25&#45;&gt;Node6 -->
<g id="edge43" class="edge"><title>Node25&#45;&gt;Node6</title>
<path fill="none" stroke="midnightblue" d="M433.692,-237.577C344.677,-236.143 191.583,-227.644 156.5,-187 114.806,-138.697 180.836,-62.4633 212.307,-30.91"/>
<polygon fill="midnightblue" stroke="midnightblue" points="433.906,-241.08 443.953,-237.715 434.001,-234.08 433.906,-241.08"/>
</g>
<!-- Node25&#45;&gt;Node7 -->
<g id="edge45" class="edge"><title>Node25&#45;&gt;Node7</title>
<path fill="none" stroke="midnightblue" d="M498.641,-212.831C497.655,-177.352 491.263,-111.319 459.5,-67 447.91,-50.8284 429.377,-38.7793 412.859,-30.5144"/>
<polygon fill="midnightblue" stroke="midnightblue" points="495.147,-213.264 498.796,-223.211 502.146,-213.16 495.147,-213.264"/>
</g>
<!-- Node25&#45;&gt;Node8 -->
<g id="edge46" class="edge"><title>Node25&#45;&gt;Node8</title>
<path fill="none" stroke="midnightblue" d="M501.894,-213.302C508.384,-167.037 522.365,-67.3635 527.53,-30.5428"/>
<polygon fill="midnightblue" stroke="midnightblue" points="498.409,-212.95 500.486,-223.339 505.342,-213.922 498.409,-212.95"/>
</g>
<!-- Node25&#45;&gt;Node9 -->
<g id="edge48" class="edge"><title>Node25&#45;&gt;Node9</title>
<path fill="none" stroke="midnightblue" d="M563.109,-231.836C639.628,-224.472 770.69,-209.79 881.5,-187 889.528,-185.349 897.979,-183.273 906.141,-181.089"/>
<polygon fill="midnightblue" stroke="midnightblue" points="562.763,-228.353 553.139,-232.784 563.426,-235.322 562.763,-228.353"/>
</g>
<!-- Node25&#45;&gt;Node10 -->
<g id="edge47" class="edge"><title>Node25&#45;&gt;Node10</title>
<path fill="none" stroke="midnightblue" d="M563.495,-231.002C605.229,-224.575 659.313,-211.895 701.5,-187 723.438,-174.054 720.114,-160.274 740.5,-145 763.9,-127.467 793.628,-112.899 816.575,-103.021"/>
<polygon fill="midnightblue" stroke="midnightblue" points="562.828,-227.562 553.437,-232.467 563.838,-234.489 562.828,-227.562"/>
</g>
<!-- Node25&#45;&gt;Node13 -->
<g id="edge50" class="edge"><title>Node25&#45;&gt;Node13</title>
<path fill="none" stroke="midnightblue" d="M535.49,-218.873C559.022,-207.023 589.01,-191.922 610.554,-181.073"/>
<polygon fill="midnightblue" stroke="midnightblue" points="533.852,-215.779 526.495,-223.403 537,-222.031 533.852,-215.779"/>
</g>
<!-- Node25&#45;&gt;Node14 -->
<g id="edge49" class="edge"><title>Node25&#45;&gt;Node14</title>
<path fill="none" stroke="midnightblue" d="M516.641,-215.236C541.797,-184.363 586.563,-129.423 607.755,-103.414"/>
<polygon fill="midnightblue" stroke="midnightblue" points="513.705,-213.298 510.102,-223.261 519.132,-217.72 513.705,-213.298"/>
</g>
<!-- Node25&#45;&gt;Node18 -->
<g id="edge44" class="edge"><title>Node25&#45;&gt;Node18</title>
<path fill="none" stroke="midnightblue" d="M433.783,-227.023C401.854,-219.602 363.973,-207.24 334.5,-187 318.804,-176.221 288.295,-133.943 270.76,-108.572"/>
<polygon fill="midnightblue" stroke="midnightblue" points="433.403,-230.524 443.923,-229.263 434.913,-223.688 433.403,-230.524"/>
</g>
<!-- Node26 -->
<g id="node26" class="node"><title>Node26</title>
<g id="a_node26"><a xlink:href="../../de/d7a/vector__impl_8hpp.html" target="_top" xlink:title="src/pfasst/encap/vector\l_impl.hpp">
<polygon fill="white" stroke="black" points="166,-151 166,-181 287,-181 287,-151 166,-151"/>
<text text-anchor="start" x="174" y="-169" font-family="Helvetica,sans-Serif" font-size="10.00">src/pfasst/encap/vector</text>
<text text-anchor="middle" x="226.5" y="-158" font-family="Helvetica,sans-Serif" font-size="10.00">_impl.hpp</text>
</a>
</g>
</g>
<!-- Node25&#45;&gt;Node26 -->
<g id="edge38" class="edge"><title>Node25&#45;&gt;Node26</title>
<path fill="none" stroke="midnightblue" d="M434.075,-223.084C393.289,-213.061 339.677,-199.337 292.5,-187 285.199,-185.091 277.503,-183.06 270.029,-181.052"/>
<polygon fill="midnightblue" stroke="midnightblue" points="433.346,-226.509 443.891,-225.485 435.009,-219.71 433.346,-226.509"/>
</g>
<!-- Node27 -->
<g id="node27" class="node"><title>Node27</title>
<g id="a_node27"><a xlink:href="../../db/d53/fft_8hpp.html" target="_top" xlink:title="examples/advection\l_diffusion/fft.hpp">
<polygon fill="white" stroke="black" points="343.5,-151 343.5,-181 451.5,-181 451.5,-151 343.5,-151"/>
<text text-anchor="start" x="351.5" y="-169" font-family="Helvetica,sans-Serif" font-size="10.00">examples/advection</text>
<text text-anchor="middle" x="397.5" y="-158" font-family="Helvetica,sans-Serif" font-size="10.00">_diffusion/fft.hpp</text>
</a>
</g>
</g>
<!-- Node25&#45;&gt;Node27 -->
<g id="edge40" class="edge"><title>Node25&#45;&gt;Node27</title>
<path fill="none" stroke="midnightblue" d="M469.749,-217.431C453.075,-205.792 432.49,-191.424 417.564,-181.005"/>
<polygon fill="midnightblue" stroke="midnightblue" points="467.858,-220.379 478.061,-223.233 471.865,-214.64 467.858,-220.379"/>
</g>
<!-- Node26&#45;&gt;Node25 -->
<g id="edge39" class="edge"><title>Node26&#45;&gt;Node25</title>
<path fill="none" stroke="midnightblue" d="M297.052,-183.471C301.615,-184.67 306.128,-185.857 310.5,-187 358.322,-199.505 412.756,-213.436 450.796,-223.493"/>
<polygon fill="midnightblue" stroke="midnightblue" points="297.581,-179.991 287.02,-180.837 295.803,-186.761 297.581,-179.991"/>
</g>
<!-- Node27&#45;&gt;Node5 -->
<g id="edge41" class="edge"><title>Node27&#45;&gt;Node5</title>
<path fill="none" stroke="midnightblue" d="M395.258,-140.656C394.306,-130.326 393.212,-118.443 392.313,-108.68"/>
<polygon fill="midnightblue" stroke="midnightblue" points="391.781,-141.068 396.183,-150.705 398.751,-140.426 391.781,-141.068"/>
</g>
<!-- Node27&#45;&gt;Node18 -->
<g id="edge42" class="edge"><title>Node27&#45;&gt;Node18</title>
<path fill="none" stroke="midnightblue" d="M362.579,-146.043C341.572,-134.639 314.881,-120.15 293.657,-108.628"/>
<polygon fill="midnightblue" stroke="midnightblue" points="361.037,-149.188 371.495,-150.883 364.376,-143.036 361.037,-149.188"/>
</g>
<!-- Node28&#45;&gt;Node1 -->
<g id="edge52" class="edge"><title>Node28&#45;&gt;Node1</title>
<path fill="none" stroke="midnightblue" d="M2082.68,-321.466C1719.89,-358.566 1290.68,-368.426 1141.03,-370.809"/>
<polygon fill="midnightblue" stroke="midnightblue" points="2083.27,-324.924 2092.86,-320.417 2082.55,-317.961 2083.27,-324.924"/>
</g>
<!-- Node29&#45;&gt;Node19 -->
<g id="edge70" class="edge"><title>Node29&#45;&gt;Node19</title>
<path fill="none" stroke="midnightblue" d="M1419,-296.947C1391.74,-290.189 1363.16,-277.547 1346.5,-254 1328.09,-227.976 1362.35,-198.15 1387.45,-181.048"/>
<polygon fill="midnightblue" stroke="midnightblue" points="1418.43,-300.407 1428.96,-299.18 1419.96,-293.576 1418.43,-300.407"/>
</g>
<!-- Node29&#45;&gt;Node20 -->
<g id="edge69" class="edge"><title>Node29&#45;&gt;Node20</title>
<path fill="none" stroke="midnightblue" d="M1559.91,-291.629C1638.83,-275.228 1768.91,-242.18 1869.5,-187 1920.16,-159.211 1947.66,-160.678 1973.5,-109 1986.45,-83.0983 1970.95,-49.3838 1959.84,-30.6419"/>
<polygon fill="midnightblue" stroke="midnightblue" points="1559.16,-288.208 1550.07,-293.642 1560.57,-295.066 1559.16,-288.208"/>
</g>
<!-- Node29&#45;&gt;Node21 -->
<g id="edge71" class="edge"><title>Node29&#45;&gt;Node21</title>
<path fill="none" stroke="midnightblue" d="M1418.87,-295.334C1390.29,-288.31 1359.04,-275.906 1337.5,-254 1296.11,-211.903 1294.37,-134.874 1295.59,-103.189"/>
<polygon fill="midnightblue" stroke="midnightblue" points="1418.32,-298.797 1428.84,-297.6 1419.87,-291.971 1418.32,-298.797"/>
</g>
<!-- Node29&#45;&gt;Node23 -->
<g id="edge72" class="edge"><title>Node29&#45;&gt;Node23</title>
<path fill="none" stroke="midnightblue" d="M1418.69,-296.976C1384.03,-290.307 1343.43,-277.728 1313.5,-254 1255.66,-208.137 1251.1,-180.436 1232.5,-109 1227.8,-90.9356 1220.85,-81.5843 1232.5,-67 1253.13,-41.1807 1341.25,-27.5847 1400.35,-21.234"/>
<polygon fill="midnightblue" stroke="midnightblue" points="1418.31,-300.462 1428.77,-298.783 1419.54,-293.572 1418.31,-300.462"/>
</g>
<!-- Node29&#45;&gt;Node24 -->
<g id="edge73" class="edge"><title>Node29&#45;&gt;Node24</title>
<path fill="none" stroke="midnightblue" d="M1560.21,-296.141C1586.4,-289.227 1613.57,-276.686 1629.5,-254 1666.45,-201.396 1593.06,-132.333 1556.95,-103.072"/>
<polygon fill="midnightblue" stroke="midnightblue" points="1559.16,-292.794 1550.25,-298.525 1560.78,-299.602 1559.16,-292.794"/>
</g>
<!-- Node30 -->
<g id="node30" class="node"><title>Node30</title>
<g id="a_node30"><a xlink:href="../../d9/dd9/wrapper__interface_8hpp.html" target="_top" xlink:title="examples/boris/bindings\l/wrapper_interface.hpp">
<polygon fill="white" stroke="black" points="1355.5,-223.5 1355.5,-253.5 1481.5,-253.5 1481.5,-223.5 1355.5,-223.5"/>
<text text-anchor="start" x="1363.5" y="-241.5" font-family="Helvetica,sans-Serif" font-size="10.00">examples/boris/bindings</text>
<text text-anchor="middle" x="1418.5" y="-230.5" font-family="Helvetica,sans-Serif" font-size="10.00">/wrapper_interface.hpp</text>
</a>
</g>
</g>
<!-- Node29&#45;&gt;Node30 -->
<g id="edge54" class="edge"><title>Node29&#45;&gt;Node30</title>
<path fill="none" stroke="midnightblue" d="M1466.67,-283.598C1455.95,-273.783 1443.45,-262.344 1433.88,-253.577"/>
<polygon fill="midnightblue" stroke="midnightblue" points="1464.35,-286.225 1474.09,-290.396 1469.08,-281.062 1464.35,-286.225"/>
</g>
<!-- Node31 -->
<g id="node31" class="node"><title>Node31</title>
<g id="a_node31"><a xlink:href="../../dd/da4/wrapper__simple__physics__solver_8hpp.html" target="_top" xlink:title="examples/boris/bindings\l/wrapper_simple_physics\l_solver.hpp">
<polygon fill="white" stroke="black" points="1650,-145.5 1650,-186.5 1779,-186.5 1779,-145.5 1650,-145.5"/>
<text text-anchor="start" x="1658" y="-174.5" font-family="Helvetica,sans-Serif" font-size="10.00">examples/boris/bindings</text>
<text text-anchor="start" x="1658" y="-163.5" font-family="Helvetica,sans-Serif" font-size="10.00">/wrapper_simple_physics</text>
<text text-anchor="middle" x="1714.5" y="-152.5" font-family="Helvetica,sans-Serif" font-size="10.00">_solver.hpp</text>
</a>
</g>
</g>
<!-- Node29&#45;&gt;Node31 -->
<g id="edge68" class="edge"><title>Node29&#45;&gt;Node31</title>
<path fill="none" stroke="midnightblue" d="M1560.09,-296.388C1594.14,-289.572 1633.91,-277.039 1663.5,-254 1685.88,-236.576 1700.36,-206.365 1707.97,-186.528"/>
<polygon fill="midnightblue" stroke="midnightblue" points="1559.37,-292.961 1550.19,-298.243 1560.66,-299.841 1559.37,-292.961"/>
</g>
<!-- Node33 -->
<g id="node33" class="node"><title>Node33</title>
<g id="a_node33"><a xlink:href="../../d6/d1f/particle__cloud__impl_8hpp.html" target="_top" xlink:title="examples/boris/particle\l_cloud_impl.hpp">
<polygon fill="white" stroke="black" points="1500,-223.5 1500,-253.5 1621,-253.5 1621,-223.5 1500,-223.5"/>
<text text-anchor="start" x="1508" y="-241.5" font-family="Helvetica,sans-Serif" font-size="10.00">examples/boris/particle</text>
<text text-anchor="middle" x="1560.5" y="-230.5" font-family="Helvetica,sans-Serif" font-size="10.00">_cloud_impl.hpp</text>
</a>
</g>
</g>
<!-- Node29&#45;&gt;Node33 -->
<g id="edge66" class="edge"><title>Node29&#45;&gt;Node33</title>
<path fill="none" stroke="midnightblue" d="M1506.57,-283.024C1516.49,-273.34 1528.93,-262.174 1539.45,-253.577"/>
<polygon fill="midnightblue" stroke="midnightblue" points="1503.8,-280.84 1499.23,-290.396 1508.76,-285.778 1503.8,-280.84"/>
</g>
<!-- Node30&#45;&gt;Node19 -->
<g id="edge62" class="edge"><title>Node30&#45;&gt;Node19</title>
<path fill="none" stroke="midnightblue" d="M1415.75,-213.232C1414.54,-202.568 1413.16,-190.414 1412.12,-181.246"/>
<polygon fill="midnightblue" stroke="midnightblue" points="1412.28,-213.692 1416.88,-223.233 1419.23,-212.902 1412.28,-213.692"/>
</g>
<!-- Node30&#45;&gt;Node20 -->
<g id="edge61" class="edge"><title>Node30&#45;&gt;Node20</title>
<path fill="none" stroke="midnightblue" d="M1491.75,-222.909C1623.68,-202.885 1662.79,-222.698 1787.5,-187 1866.26,-164.457 1910.51,-178.103 1954.5,-109 1969.78,-84.9999 1962.02,-49.9685 1955.77,-30.6331"/>
<polygon fill="midnightblue" stroke="midnightblue" points="1491,-219.483 1481.67,-224.489 1492.09,-226.399 1491,-219.483"/>
</g>
<!-- Node30&#45;&gt;Node21 -->
<g id="edge63" class="edge"><title>Node30&#45;&gt;Node21</title>
<path fill="none" stroke="midnightblue" d="M1383.51,-217.907C1370.75,-209.567 1356.92,-198.985 1346.5,-187 1324.07,-161.194 1308.56,-123.563 1301.26,-103.261"/>
<polygon fill="midnightblue" stroke="midnightblue" points="1381.79,-220.957 1392.11,-223.313 1385.51,-215.03 1381.79,-220.957"/>
</g>
<!-- Node30&#45;&gt;Node23 -->
<g id="edge64" class="edge"><title>Node30&#45;&gt;Node23</title>
<path fill="none" stroke="midnightblue" d="M1450.08,-217.039C1459.77,-208.961 1469.26,-198.775 1474.5,-187 1486.94,-159.038 1467.16,-66.1009 1458.88,-30.5224"/>
<polygon fill="midnightblue" stroke="midnightblue" points="1447.73,-214.427 1441.97,-223.318 1452.02,-219.961 1447.73,-214.427"/>
</g>
<!-- Node30&#45;&gt;Node24 -->
<g id="edge65" class="edge"><title>Node30&#45;&gt;Node24</title>
<path fill="none" stroke="midnightblue" d="M1466.35,-218.73C1481.29,-210.864 1496.67,-200.379 1507.5,-187 1527.71,-162.034 1534.83,-123.727 1537.27,-103.182"/>
<polygon fill="midnightblue" stroke="midnightblue" points="1464.56,-215.713 1457.16,-223.292 1467.67,-221.984 1464.56,-215.713"/>
</g>
<!-- Node30&#45;&gt;Node31 -->
<g id="edge55" class="edge"><title>Node30&#45;&gt;Node31</title>
<path fill="none" stroke="midnightblue" d="M1487.22,-221.132C1536.26,-209.451 1601.78,-193.847 1649.87,-182.394"/>
<polygon fill="midnightblue" stroke="midnightblue" points="1486.25,-217.765 1477.33,-223.487 1487.87,-224.575 1486.25,-217.765"/>
</g>
<!-- Node31&#45;&gt;Node20 -->
<g id="edge58" class="edge"><title>Node31&#45;&gt;Node20</title>
<path fill="none" stroke="midnightblue" d="M1789.11,-154.151C1843.49,-144.728 1910.93,-129.389 1930.5,-109 1950.87,-87.7848 1952.53,-51.0139 1951.69,-30.8132"/>
<polygon fill="midnightblue" stroke="midnightblue" points="1788.4,-150.721 1779.13,-155.841 1789.57,-157.623 1788.4,-150.721"/>
</g>
<!-- Node31&#45;&gt;Node23 -->
<g id="edge59" class="edge"><title>Node31&#45;&gt;Node23</title>
<path fill="none" stroke="midnightblue" d="M1677.85,-139.384C1665.58,-130.262 1652.08,-119.61 1640.5,-109 1621.94,-91.9967 1623.51,-80.8613 1602.5,-67 1574.68,-48.6492 1539.49,-36.2512 1510.52,-28.3332"/>
<polygon fill="midnightblue" stroke="midnightblue" points="1675.97,-142.348 1686.11,-145.435 1680.11,-136.702 1675.97,-142.348"/>
</g>
<!-- Node31&#45;&gt;Node24 -->
<g id="edge60" class="edge"><title>Node31&#45;&gt;Node24</title>
<path fill="none" stroke="midnightblue" d="M1659.95,-141.446C1630.87,-128.886 1596.05,-113.852 1571.17,-103.106"/>
<polygon fill="midnightblue" stroke="midnightblue" points="1658.61,-144.677 1669.18,-145.428 1661.38,-138.25 1658.61,-144.677"/>
</g>
<!-- Node32 -->
<g id="node32" class="node"><title>Node32</title>
<g id="a_node32"><a xlink:href="../../d5/d9e/wrapper__simple__physics__solver__impl_8hpp.html" target="_top" xlink:title="examples/boris/bindings\l/wrapper_simple_physics\l_solver_impl.hpp">
<polygon fill="white" stroke="black" points="1650,-67.5 1650,-108.5 1779,-108.5 1779,-67.5 1650,-67.5"/>
<text text-anchor="start" x="1658" y="-96.5" font-family="Helvetica,sans-Serif" font-size="10.00">examples/boris/bindings</text>
<text text-anchor="start" x="1658" y="-85.5" font-family="Helvetica,sans-Serif" font-size="10.00">/wrapper_simple_physics</text>
<text text-anchor="middle" x="1714.5" y="-74.5" font-family="Helvetica,sans-Serif" font-size="10.00">_solver_impl.hpp</text>
</a>
</g>
</g>
<!-- Node31&#45;&gt;Node32 -->
<g id="edge56" class="edge"><title>Node31&#45;&gt;Node32</title>
<path fill="none" stroke="midnightblue" d="M1707.9,-135.297C1707.58,-126.301 1707.78,-116.653 1708.52,-108.506"/>
<polygon fill="midnightblue" stroke="midnightblue" points="1704.41,-135.659 1708.51,-145.428 1711.4,-135.234 1704.41,-135.659"/>
</g>
<!-- Node32&#45;&gt;Node31 -->
<g id="edge57" class="edge"><title>Node32&#45;&gt;Node31</title>
<path fill="none" stroke="midnightblue" d="M1721.1,-118.63C1721.42,-127.622 1721.22,-137.272 1720.49,-145.428"/>
<polygon fill="midnightblue" stroke="midnightblue" points="1724.59,-118.273 1720.48,-108.506 1717.6,-118.701 1724.59,-118.273"/>
</g>
<!-- Node33&#45;&gt;Node29 -->
<g id="edge67" class="edge"><title>Node33&#45;&gt;Node29</title>
<path fill="none" stroke="midnightblue" d="M1543.47,-260.945C1533.54,-270.626 1521.11,-281.793 1510.58,-290.396"/>
<polygon fill="midnightblue" stroke="midnightblue" points="1546.23,-263.133 1550.8,-253.577 1541.26,-258.196 1546.23,-263.133"/>
</g>
</g>
</svg>
