<?xml version="1.0" encoding="UTF-8" standalone="no"?>
<!DOCTYPE svg PUBLIC "-//W3C//DTD SVG 1.1//EN"
 "http://www.w3.org/Graphics/SVG/1.1/DTD/svg11.dtd">
<!-- Generated by graphviz version 2.38.0 (20140413.2041)
 -->
<!-- Title: ConvergenceTest::SetUp Pages: 1 -->
<svg width="446pt" height="225pt"
 viewBox="0.00 0.00 446.00 225.00" xmlns="http://www.w3.org/2000/svg" xmlns:xlink="http://www.w3.org/1999/xlink">
<g id="graph0" class="graph" transform="scale(1 1) rotate(0) translate(4 221)">
<title>ConvergenceTest::SetUp</title>
<polygon fill="white" stroke="none" points="-4,4 -4,-221 442,-221 442,4 -4,4"/>
<!-- Node1 -->
<g id="node1" class="node"><title>Node1</title>
<polygon fill="#bfbfbf" stroke="black" points="0,-99 0,-118 132,-118 132,-99 0,-99"/>
<text text-anchor="middle" x="66" y="-106" font-family="Helvetica,sans-Serif" font-size="10.00">ConvergenceTest::SetUp</text>
</g>
<!-- Node2 -->
<g id="node2" class="node"><title>Node2</title>
<g id="a_node2"><a xlink:href="../../d1/d6e/group__Scalar.html#ga2e2a4c57c66ad0f2716d59ee2f4f457a" target="_top" xlink:title="Scalar test equation example using an encapsulated IMEX sweeper. ">
<polygon fill="white" stroke="black" points="168,-93.5 168,-123.5 295,-123.5 295,-93.5 168,-93.5"/>
<text text-anchor="start" x="176" y="-111.5" font-family="Helvetica,sans-Serif" font-size="10.00">pfasst::examples::scalar</text>
<text text-anchor="middle" x="231.5" y="-100.5" font-family="Helvetica,sans-Serif" font-size="10.00">::run_scalar_sdc</text>
</a>
</g>
</g>
<!-- Node1&#45;&gt;Node2 -->
<g id="edge1" class="edge"><title>Node1&#45;&gt;Node2</title>
<path fill="none" stroke="midnightblue" d="M132.089,-108.5C140.446,-108.5 149.046,-108.5 157.518,-108.5"/>
<polygon fill="midnightblue" stroke="midnightblue" points="157.765,-112 167.765,-108.5 157.765,-105 157.765,-112"/>
</g>
<!-- Node3 -->
<g id="node3" class="node"><title>Node3</title>
<g id="a_node3"><a xlink:href="../../d4/da9/classpfasst_1_1Controller.html#a8f4f8f025572e57fc5975902a4118fa9" target="_top" xlink:title="Adding a level to the controller. ">
<polygon fill="white" stroke="black" points="338.5,-186.5 338.5,-216.5 430.5,-216.5 430.5,-186.5 338.5,-186.5"/>
<text text-anchor="start" x="346.5" y="-204.5" font-family="Helvetica,sans-Serif" font-size="10.00">pfasst::Controller</text>
<text text-anchor="middle" x="384.5" y="-193.5" font-family="Helvetica,sans-Serif" font-size="10.00">::add_level</text>
</a>
</g>
</g>
<!-- Node2&#45;&gt;Node3 -->
<g id="edge2" class="edge"><title>Node2&#45;&gt;Node3</title>
<path fill="none" stroke="midnightblue" d="M251.799,-123.608C271.17,-138.384 302.189,-161.007 331,-177.5 333.654,-179.019 336.421,-180.518 339.237,-181.978"/>
<polygon fill="midnightblue" stroke="midnightblue" points="337.804,-185.174 348.317,-186.494 340.922,-178.907 337.804,-185.174"/>
</g>
<!-- Node4 -->
<g id="node4" class="node"><title>Node4</title>
<g id="a_node4"><a xlink:href="../../de/d84/namespacepfasst_1_1quadrature.html#ac4700c0b6dc90b32b3f8af4070d0e62d" target="_top" xlink:title="Instantiates quadrature handler for given number of nodes and type descriptor. ">
<polygon fill="white" stroke="black" points="331,-137.5 331,-167.5 438,-167.5 438,-137.5 331,-137.5"/>
<text text-anchor="start" x="339" y="-155.5" font-family="Helvetica,sans-Serif" font-size="10.00">pfasst::quadrature</text>
<text text-anchor="middle" x="384.5" y="-144.5" font-family="Helvetica,sans-Serif" font-size="10.00">::quadrature_factory</text>
</a>
</g>
</g>
<!-- Node2&#45;&gt;Node4 -->
<g id="edge3" class="edge"><title>Node2&#45;&gt;Node4</title>
<path fill="none" stroke="midnightblue" d="M284.043,-123.519C296.245,-127.075 309.379,-130.902 321.975,-134.572"/>
<polygon fill="midnightblue" stroke="midnightblue" points="321.353,-138.036 331.933,-137.474 323.311,-131.316 321.353,-138.036"/>
</g>
<!-- Node5 -->
<g id="node5" class="node"><title>Node5</title>
<g id="a_node5"><a xlink:href="../../db/d4c/classpfasst_1_1SDC.html#abaf353cbe65d6c3545cbd5f4540cb74b" target="_top" xlink:title="Run vanilla SDC. ">
<polygon fill="white" stroke="black" points="339.5,-99 339.5,-118 429.5,-118 429.5,-99 339.5,-99"/>
<text text-anchor="middle" x="384.5" y="-106" font-family="Helvetica,sans-Serif" font-size="10.00">pfasst::SDC::run</text>
</a>
</g>
</g>
<!-- Node2&#45;&gt;Node5 -->
<g id="edge4" class="edge"><title>Node2&#45;&gt;Node5</title>
<path fill="none" stroke="midnightblue" d="M295.226,-108.5C306.402,-108.5 317.962,-108.5 328.889,-108.5"/>
<polygon fill="midnightblue" stroke="midnightblue" points="329.137,-112 339.137,-108.5 329.137,-105 329.137,-112"/>
</g>
<!-- Node6 -->
<g id="node6" class="node"><title>Node6</title>
<g id="a_node6"><a xlink:href="../../d4/da9/classpfasst_1_1Controller.html#af31a86d9ccd9db325532c5ae3a5764f0" target="_top" xlink:title="Set basic time scope of the Controller. ">
<polygon fill="white" stroke="black" points="338.5,-49.5 338.5,-79.5 430.5,-79.5 430.5,-49.5 338.5,-49.5"/>
<text text-anchor="start" x="346.5" y="-67.5" font-family="Helvetica,sans-Serif" font-size="10.00">pfasst::Controller</text>
<text text-anchor="middle" x="384.5" y="-56.5" font-family="Helvetica,sans-Serif" font-size="10.00">::set_duration</text>
</a>
</g>
</g>
<!-- Node2&#45;&gt;Node6 -->
<g id="edge5" class="edge"><title>Node2&#45;&gt;Node6</title>
<path fill="none" stroke="midnightblue" d="M284.043,-93.4808C298.343,-89.3139 313.922,-84.7743 328.416,-80.5509"/>
<polygon fill="midnightblue" stroke="midnightblue" points="329.626,-83.844 338.248,-77.6861 327.668,-77.1235 329.626,-83.844"/>
</g>
<!-- Node7 -->
<g id="node7" class="node"><title>Node7</title>
<g id="a_node7"><a xlink:href="../../d4/da9/classpfasst_1_1Controller.html#a83d8b318cd15436d5910039313daab9f" target="_top" xlink:title="Basic setup routine for this controller. ">
<polygon fill="white" stroke="black" points="338.5,-0.5 338.5,-30.5 430.5,-30.5 430.5,-0.5 338.5,-0.5"/>
<text text-anchor="start" x="346.5" y="-18.5" font-family="Helvetica,sans-Serif" font-size="10.00">pfasst::Controller</text>
<text text-anchor="middle" x="384.5" y="-7.5" font-family="Helvetica,sans-Serif" font-size="10.00">::setup</text>
</a>
</g>
</g>
<!-- Node2&#45;&gt;Node7 -->
<g id="edge6" class="edge"><title>Node2&#45;&gt;Node7</title>
<path fill="none" stroke="midnightblue" d="M252.257,-93.4604C271.719,-78.9869 302.578,-56.9367 331,-40.5 334.157,-38.6743 337.468,-36.866 340.828,-35.1066"/>
<polygon fill="midnightblue" stroke="midnightblue" points="342.418,-38.2244 349.759,-30.5851 339.257,-31.9791 342.418,-38.2244"/>
</g>
</g>
</svg>
