<?xml version="1.0" encoding="UTF-8" standalone="no"?>
<!DOCTYPE svg PUBLIC "-//W3C//DTD SVG 1.1//EN"
 "http://www.w3.org/Graphics/SVG/1.1/DTD/svg11.dtd">
<!-- Generated by graphviz version 2.38.0 (20140413.2041)
 -->
<!-- Title: examples/advection_diffusion/fft.hpp Pages: 1 -->
<!--zoomable 509 -->
<svg id="main" version="1.1" xmlns="http://www.w3.org/2000/svg" xmlns:xlink="http://www.w3.org/1999/xlink" xml:space="preserve" onload="init(evt)">
<style type="text/css"><![CDATA[
.edge:hover path { stroke: red; }
.edge:hover polygon { stroke: red; fill: red; }
]]></style>
<script type="text/javascript"><![CDATA[
var edges = document.getElementsByTagName('g');
if (edges && edges.length) {
  for (var i=0;i<edges.length;i++) {
    if (edges[i].id.substr(0,4)=='edge') {
      edges[i].setAttribute('class','edge');
    }
  }
}
]]></script>
        <defs>
                <circle id="rim" cx="0" cy="0" r="7"/>
                <circle id="rim2" cx="0" cy="0" r="3.5"/>
                <g id="zoomPlus">
                        <use xlink:href="#rim" fill="#404040">
                                <set attributeName="fill" to="#808080" begin="zoomplus.mouseover" end="zoomplus.mouseout"/>
                        </use>
                        <path d="M-4,0h8M0,-4v8" fill="none" stroke="white" stroke-width="1.5" pointer-events="none"/>
                </g>
                <g id="zoomMin">
                        <use xlink:href="#rim" fill="#404040">
                                <set attributeName="fill" to="#808080" begin="zoomminus.mouseover" end="zoomminus.mouseout"/>
                        </use>
                        <path d="M-4,0h8" fill="none" stroke="white" stroke-width="1.5" pointer-events="none"/>
                </g>
                <g id="dirArrow">
                        <path fill="none" stroke="white" stroke-width="1.5" d="M0,-3.0v7 M-2.5,-0.5L0,-3.0L2.5,-0.5"/>
                </g>
               <g id="resetDef">
                       <use xlink:href="#rim2" fill="#404040">
                               <set attributeName="fill" to="#808080" begin="reset.mouseover" end="reset.mouseout"/>
                       </use>
               </g>
        </defs>

<script type="text/javascript">
var viewWidth = 784;
var viewHeight = 509;
var sectionId = 'dynsection-0';
</script>
<script xlink:href="../../svgpan.js"/>
<svg id="graph" class="graph">
<g id="viewport">
<title>examples/advection_diffusion/fft.hpp</title>
<polygon fill="white" stroke="none" points="-4,4 -4,-505 780,-505 780,4 -4,4"/>
<!-- Node1 -->
<g id="node1" class="node"><title>Node1</title>
<polygon fill="#bfbfbf" stroke="black" points="528,-470.5 528,-500.5 636,-500.5 636,-470.5 528,-470.5"/>
<text text-anchor="start" x="536" y="-488.5" font-family="Helvetica,sans-Serif" font-size="10.00">examples/advection</text>
<text text-anchor="middle" x="582" y="-477.5" font-family="Helvetica,sans-Serif" font-size="10.00">_diffusion/fft.hpp</text>
</g>
<!-- Node2 -->
<g id="node2" class="node"><title>Node2</title>
<polygon fill="white" stroke="#bfbfbf" points="129,-56.5 129,-75.5 165,-75.5 165,-56.5 129,-56.5"/>
<text text-anchor="middle" x="147" y="-63.5" font-family="Helvetica,sans-Serif" font-size="10.00">map</text>
</g>
<!-- Node1&#45;&gt;Node2 -->
<g id="edge1" class="edge"><title>Node1&#45;&gt;Node2</title>
<path fill="none" stroke="midnightblue" d="M527.769,-484.65C383.288,-483.597 0,-470.701 0,-363.5 0,-363.5 0,-363.5 0,-233 0,-160.528 79.499,-104.873 121.57,-80.4944"/>
<polygon fill="midnightblue" stroke="midnightblue" points="123.429,-83.4644 130.423,-75.506 119.993,-77.366 123.429,-83.4644"/>
</g>
<!-- Node3 -->
<g id="node3" class="node"><title>Node3</title>
<polygon fill="white" stroke="#bfbfbf" points="507.5,-168.5 507.5,-187.5 560.5,-187.5 560.5,-168.5 507.5,-168.5"/>
<text text-anchor="middle" x="534" y="-175.5" font-family="Helvetica,sans-Serif" font-size="10.00">memory</text>
</g>
<!-- Node1&#45;&gt;Node3 -->
<g id="edge2" class="edge"><title>Node1&#45;&gt;Node3</title>
<path fill="none" stroke="midnightblue" d="M613.101,-470.376C649.247,-451.578 704,-414.661 704,-363.5 704,-363.5 704,-363.5 704,-294.5 704,-230.407 620.304,-199.394 570.365,-186.593"/>
<polygon fill="midnightblue" stroke="midnightblue" points="571.107,-183.171 560.562,-184.202 569.448,-189.972 571.107,-183.171"/>
</g>
<!-- Node4 -->
<g id="node4" class="node"><title>Node4</title>
<polygon fill="white" stroke="#bfbfbf" points="557,-414.5 557,-433.5 607,-433.5 607,-414.5 557,-414.5"/>
<text text-anchor="middle" x="582" y="-421.5" font-family="Helvetica,sans-Serif" font-size="10.00">cstddef</text>
</g>
<!-- Node1&#45;&gt;Node4 -->
<g id="edge3" class="edge"><title>Node1&#45;&gt;Node4</title>
<path fill="none" stroke="midnightblue" d="M582,-470.399C582,-462.466 582,-452.458 582,-443.858"/>
<polygon fill="midnightblue" stroke="midnightblue" points="585.5,-443.658 582,-433.658 578.5,-443.658 585.5,-443.658"/>
</g>
<!-- Node5 -->
<g id="node5" class="node"><title>Node5</title>
<g id="a_node5"><a xlink:href="../../da/d16/vector_8hpp.html" target="_top" xlink:title="pfasst/encap/vector.hpp">
<polygon fill="white" stroke="black" points="279,-414.5 279,-433.5 401,-433.5 401,-414.5 279,-414.5"/>
<text text-anchor="middle" x="340" y="-421.5" font-family="Helvetica,sans-Serif" font-size="10.00">pfasst/encap/vector.hpp</text>
</a>
</g>
</g>
<!-- Node1&#45;&gt;Node5 -->
<g id="edge4" class="edge"><title>Node1&#45;&gt;Node5</title>
<path fill="none" stroke="midnightblue" d="M527.992,-471.221C484.843,-460.612 425.097,-445.923 384.629,-435.973"/>
<polygon fill="midnightblue" stroke="midnightblue" points="385.324,-432.539 374.777,-433.551 383.652,-439.337 385.324,-432.539"/>
</g>
<!-- Node29 -->
<g id="node29" class="node"><title>Node29</title>
<polygon fill="white" stroke="#bfbfbf" points="732,-414.5 732,-433.5 776,-433.5 776,-414.5 732,-414.5"/>
<text text-anchor="middle" x="754" y="-421.5" font-family="Helvetica,sans-Serif" font-size="10.00">fftw3.h</text>
</g>
<!-- Node1&#45;&gt;Node29 -->
<g id="edge45" class="edge"><title>Node1&#45;&gt;Node29</title>
<path fill="none" stroke="midnightblue" d="M622.762,-470.399C653.197,-459.871 694.201,-445.686 722.226,-435.991"/>
<polygon fill="midnightblue" stroke="midnightblue" points="723.615,-439.215 731.921,-432.638 721.326,-432.599 723.615,-439.215"/>
</g>
<!-- Node5&#45;&gt;Node3 -->
<g id="edge5" class="edge"><title>Node5&#45;&gt;Node3</title>
<path fill="none" stroke="midnightblue" d="M401.166,-421.759C475.255,-416.458 596.306,-394.657 646,-311 674.551,-262.936 602.48,-215.029 560.939,-192.427"/>
<polygon fill="midnightblue" stroke="midnightblue" points="562.325,-189.2 551.849,-187.617 559.051,-195.388 562.325,-189.2"/>
</g>
<!-- Node6 -->
<g id="node6" class="node"><title>Node6</title>
<polygon fill="white" stroke="#bfbfbf" points="180,-286 180,-305 224,-305 224,-286 180,-286"/>
<text text-anchor="middle" x="202" y="-293" font-family="Helvetica,sans-Serif" font-size="10.00">vector</text>
</g>
<!-- Node5&#45;&gt;Node6 -->
<g id="edge6" class="edge"><title>Node5&#45;&gt;Node6</title>
<path fill="none" stroke="midnightblue" d="M330.515,-414.305C307.471,-393.182 248.286,-338.929 218.973,-312.058"/>
<polygon fill="midnightblue" stroke="midnightblue" points="221.288,-309.433 211.552,-305.256 216.558,-314.593 221.288,-309.433"/>
</g>
<!-- Node7 -->
<g id="node7" class="node"><title>Node7</title>
<g id="a_node7"><a xlink:href="../../d8/d85/encapsulation_8hpp.html" target="_top" xlink:title="pfasst/encap/encapsulation.hpp">
<polygon fill="white" stroke="black" points="357.5,-353 357.5,-372 514.5,-372 514.5,-353 357.5,-353"/>
<text text-anchor="middle" x="436" y="-360" font-family="Helvetica,sans-Serif" font-size="10.00">pfasst/encap/encapsulation.hpp</text>
</a>
</g>
</g>
<!-- Node5&#45;&gt;Node7 -->
<g id="edge7" class="edge"><title>Node5&#45;&gt;Node7</title>
<path fill="none" stroke="midnightblue" d="M353.754,-414.475C369.366,-404.799 395.063,-388.872 413.583,-377.394"/>
<polygon fill="midnightblue" stroke="midnightblue" points="415.615,-380.252 422.271,-372.009 411.927,-374.302 415.615,-380.252"/>
</g>
<!-- Node27 -->
<g id="node27" class="node"><title>Node27</title>
<g id="a_node27"><a xlink:href="../../de/d7a/vector__impl_8hpp.html" target="_top" xlink:title="pfasst/encap/vector\l_impl.hpp">
<polygon fill="white" stroke="black" points="110,-347.5 110,-377.5 214,-377.5 214,-347.5 110,-347.5"/>
<text text-anchor="start" x="118" y="-365.5" font-family="Helvetica,sans-Serif" font-size="10.00">pfasst/encap/vector</text>
<text text-anchor="middle" x="162" y="-354.5" font-family="Helvetica,sans-Serif" font-size="10.00">_impl.hpp</text>
</a>
</g>
</g>
<!-- Node5&#45;&gt;Node27 -->
<g id="edge41" class="edge"><title>Node5&#45;&gt;Node27</title>
<path fill="none" stroke="midnightblue" d="M309.596,-414.475C281.556,-405.739 239.744,-391.907 207.72,-380.855"/>
<polygon fill="midnightblue" stroke="midnightblue" points="208.716,-377.496 198.121,-377.523 206.42,-384.109 208.716,-377.496"/>
</g>
<!-- Node7&#45;&gt;Node3 -->
<g id="edge8" class="edge"><title>Node7&#45;&gt;Node3</title>
<path fill="none" stroke="midnightblue" d="M458.655,-352.991C476.678,-344.988 500.962,-331.194 514,-311 536.661,-275.901 537.326,-224.788 535.735,-197.613"/>
<polygon fill="midnightblue" stroke="midnightblue" points="539.218,-197.256 534.973,-187.549 532.238,-197.784 539.218,-197.256"/>
</g>
<!-- Node7&#45;&gt;Node6 -->
<g id="edge9" class="edge"><title>Node7&#45;&gt;Node6</title>
<path fill="none" stroke="midnightblue" d="M389.821,-352.924C347.937,-344.479 284.85,-330.079 232,-311 230.572,-310.484 229.121,-309.922 227.667,-309.328"/>
<polygon fill="midnightblue" stroke="midnightblue" points="228.797,-305.999 218.24,-305.107 225.936,-312.388 228.797,-305.999"/>
</g>
<!-- Node8 -->
<g id="node8" class="node"><title>Node8</title>
<polygon fill="white" stroke="#bfbfbf" points="562.5,-286 562.5,-305 637.5,-305 637.5,-286 562.5,-286"/>
<text text-anchor="middle" x="600" y="-293" font-family="Helvetica,sans-Serif" font-size="10.00">Eigen/Dense</text>
</g>
<!-- Node7&#45;&gt;Node8 -->
<g id="edge10" class="edge"><title>Node7&#45;&gt;Node8</title>
<path fill="none" stroke="midnightblue" d="M457.778,-352.869C486.283,-341.571 536.428,-321.696 568.92,-308.818"/>
<polygon fill="midnightblue" stroke="midnightblue" points="570.386,-312.002 578.393,-305.064 567.807,-305.495 570.386,-312.002"/>
</g>
<!-- Node9 -->
<g id="node9" class="node"><title>Node9</title>
<g id="a_node9"><a xlink:href="../../d1/d1b/interfaces_8hpp.html" target="_top" xlink:title="interfaces for SDC/MLSDC/PFASST algorithms. ">
<polygon fill="white" stroke="black" points="241.5,-286 241.5,-305 348.5,-305 348.5,-286 241.5,-286"/>
<text text-anchor="middle" x="295" y="-293" font-family="Helvetica,sans-Serif" font-size="10.00">pfasst/interfaces.hpp</text>
</a>
</g>
</g>
<!-- Node7&#45;&gt;Node9 -->
<g id="edge11" class="edge"><title>Node7&#45;&gt;Node9</title>
<path fill="none" stroke="midnightblue" d="M417.276,-352.869C393.152,-341.748 351.002,-322.317 323.045,-309.429"/>
<polygon fill="midnightblue" stroke="midnightblue" points="324.348,-306.175 313.801,-305.167 321.417,-312.532 324.348,-306.175"/>
</g>
<!-- Node26 -->
<g id="node26" class="node"><title>Node26</title>
<g id="a_node26"><a xlink:href="../../d1/d99/encapsulation__impl_8hpp.html" target="_top" xlink:title="pfasst/encap/encapsulation\l_impl.hpp">
<polygon fill="white" stroke="black" points="366.5,-280.5 366.5,-310.5 505.5,-310.5 505.5,-280.5 366.5,-280.5"/>
<text text-anchor="start" x="374.5" y="-298.5" font-family="Helvetica,sans-Serif" font-size="10.00">pfasst/encap/encapsulation</text>
<text text-anchor="middle" x="436" y="-287.5" font-family="Helvetica,sans-Serif" font-size="10.00">_impl.hpp</text>
</a>
</g>
</g>
<!-- Node7&#45;&gt;Node26 -->
<g id="edge38" class="edge"><title>Node7&#45;&gt;Node26</title>
<path fill="none" stroke="midnightblue" d="M431.211,-352.734C429.487,-344.541 428.9,-331.923 429.449,-320.714"/>
<polygon fill="midnightblue" stroke="midnightblue" points="432.95,-320.853 430.324,-310.589 425.976,-320.251 432.95,-320.853"/>
</g>
<!-- Node9&#45;&gt;Node3 -->
<g id="edge12" class="edge"><title>Node9&#45;&gt;Node3</title>
<path fill="none" stroke="midnightblue" d="M312.964,-285.819C354.589,-265.703 457.837,-215.807 507.063,-192.018"/>
<polygon fill="midnightblue" stroke="midnightblue" points="508.673,-195.127 516.154,-187.624 505.627,-188.824 508.673,-195.127"/>
</g>
<!-- Node10 -->
<g id="node10" class="node"><title>Node10</title>
<polygon fill="white" stroke="#bfbfbf" points="151,-224.5 151,-243.5 211,-243.5 211,-224.5 151,-224.5"/>
<text text-anchor="middle" x="181" y="-231.5" font-family="Helvetica,sans-Serif" font-size="10.00">stdexcept</text>
</g>
<!-- Node9&#45;&gt;Node10 -->
<g id="edge13" class="edge"><title>Node9&#45;&gt;Node10</title>
<path fill="none" stroke="midnightblue" d="M278.667,-285.975C259.789,-276.122 228.493,-259.788 206.424,-248.27"/>
<polygon fill="midnightblue" stroke="midnightblue" points="207.788,-245.033 197.303,-243.509 204.549,-251.239 207.788,-245.033"/>
</g>
<!-- Node11 -->
<g id="node11" class="node"><title>Node11</title>
<polygon fill="white" stroke="#bfbfbf" points="60.5,-56.5 60.5,-75.5 101.5,-75.5 101.5,-56.5 60.5,-56.5"/>
<text text-anchor="middle" x="81" y="-63.5" font-family="Helvetica,sans-Serif" font-size="10.00">string</text>
</g>
<!-- Node9&#45;&gt;Node11 -->
<g id="edge14" class="edge"><title>Node9&#45;&gt;Node11</title>
<path fill="none" stroke="midnightblue" d="M260.571,-285.939C228.884,-277.414 181.028,-262.885 142,-244 101.278,-224.295 78.4552,-227.828 57,-188 38.9677,-154.526 57.4896,-109.285 70.537,-84.6981"/>
<polygon fill="midnightblue" stroke="midnightblue" points="73.6882,-86.2337 75.5082,-75.7964 67.5766,-82.8206 73.6882,-86.2337"/>
</g>
<!-- Node12 -->
<g id="node12" class="node"><title>Node12</title>
<g id="a_node12"><a xlink:href="../../d8/dc4/interfaces__impl_8hpp.html" target="_top" xlink:title="pfasst/interfaces_impl.hpp">
<polygon fill="white" stroke="black" points="229.5,-224.5 229.5,-243.5 360.5,-243.5 360.5,-224.5 229.5,-224.5"/>
<text text-anchor="middle" x="295" y="-231.5" font-family="Helvetica,sans-Serif" font-size="10.00">pfasst/interfaces_impl.hpp</text>
</a>
</g>
</g>
<!-- Node9&#45;&gt;Node12 -->
<g id="edge15" class="edge"><title>Node9&#45;&gt;Node12</title>
<path fill="none" stroke="midnightblue" d="M290.099,-285.975C288.268,-277.58 287.797,-264.481 288.685,-253.663"/>
<polygon fill="midnightblue" stroke="midnightblue" points="292.186,-253.897 290.103,-243.509 285.254,-252.929 292.186,-253.897"/>
</g>
<!-- Node12&#45;&gt;Node3 -->
<g id="edge18" class="edge"><title>Node12&#45;&gt;Node3</title>
<path fill="none" stroke="midnightblue" d="M332.87,-224.444C378.052,-214.235 453.055,-197.289 497.585,-187.228"/>
<polygon fill="midnightblue" stroke="midnightblue" points="498.424,-190.626 507.407,-185.008 496.882,-183.798 498.424,-190.626"/>
</g>
<!-- Node12&#45;&gt;Node9 -->
<g id="edge16" class="edge"><title>Node12&#45;&gt;Node9</title>
<path fill="none" stroke="midnightblue" d="M299.897,-243.509C301.73,-251.898 302.203,-264.996 301.317,-275.817"/>
<polygon fill="midnightblue" stroke="midnightblue" points="297.815,-275.588 299.901,-285.975 304.748,-276.554 297.815,-275.588"/>
</g>
<!-- Node12&#45;&gt;Node11 -->
<g id="edge19" class="edge"><title>Node12&#45;&gt;Node11</title>
<path fill="none" stroke="midnightblue" d="M278.082,-224.466C247.729,-208.694 182.827,-172.841 136,-132 119.368,-117.494 103.429,-97.8 93.0314,-83.9032"/>
<polygon fill="midnightblue" stroke="midnightblue" points="95.7758,-81.7266 87.0475,-75.7209 90.1255,-85.8587 95.7758,-81.7266"/>
</g>
<!-- Node13 -->
<g id="node13" class="node"><title>Node13</title>
<polygon fill="white" stroke="#bfbfbf" points="66,-168.5 66,-187.5 116,-187.5 116,-168.5 66,-168.5"/>
<text text-anchor="middle" x="91" y="-175.5" font-family="Helvetica,sans-Serif" font-size="10.00">cassert</text>
</g>
<!-- Node12&#45;&gt;Node13 -->
<g id="edge17" class="edge"><title>Node12&#45;&gt;Node13</title>
<path fill="none" stroke="midnightblue" d="M262.676,-224.444C225.342,-214.561 164.152,-198.364 125.8,-188.212"/>
<polygon fill="midnightblue" stroke="midnightblue" points="126.662,-184.819 116.099,-185.644 124.87,-191.586 126.662,-184.819"/>
</g>
<!-- Node14 -->
<g id="node14" class="node"><title>Node14</title>
<g id="a_node14"><a xlink:href="../../d5/d82/globals_8hpp.html" target="_top" xlink:title="pfasst/globals.hpp">
<polygon fill="white" stroke="black" points="374.5,-168.5 374.5,-187.5 471.5,-187.5 471.5,-168.5 374.5,-168.5"/>
<text text-anchor="middle" x="423" y="-175.5" font-family="Helvetica,sans-Serif" font-size="10.00">pfasst/globals.hpp</text>
</a>
</g>
</g>
<!-- Node12&#45;&gt;Node14 -->
<g id="edge20" class="edge"><title>Node12&#45;&gt;Node14</title>
<path fill="none" stroke="midnightblue" d="M315.282,-224.444C336.347,-215.557 369.517,-201.563 393.486,-191.451"/>
<polygon fill="midnightblue" stroke="midnightblue" points="394.96,-194.628 402.813,-187.516 392.239,-188.179 394.96,-194.628"/>
</g>
<!-- Node15 -->
<g id="node15" class="node"><title>Node15</title>
<g id="a_node15"><a xlink:href="../../d0/da9/logging_8hpp.html" target="_top" xlink:title="pfasst/logging.hpp">
<polygon fill="white" stroke="black" points="247,-168.5 247,-187.5 345,-187.5 345,-168.5 247,-168.5"/>
<text text-anchor="middle" x="296" y="-175.5" font-family="Helvetica,sans-Serif" font-size="10.00">pfasst/logging.hpp</text>
</a>
</g>
</g>
<!-- Node12&#45;&gt;Node15 -->
<g id="edge21" class="edge"><title>Node12&#45;&gt;Node15</title>
<path fill="none" stroke="midnightblue" d="M295.165,-224.083C295.296,-217.006 295.484,-206.861 295.648,-197.986"/>
<polygon fill="midnightblue" stroke="midnightblue" points="299.152,-197.814 295.838,-187.751 292.153,-197.685 299.152,-197.814"/>
</g>
<!-- Node15&#45;&gt;Node11 -->
<g id="edge24" class="edge"><title>Node15&#45;&gt;Node11</title>
<path fill="none" stroke="midnightblue" d="M264.933,-168.471C239.004,-160.735 201.497,-148.092 171,-132 144.29,-117.907 116.561,-96.7151 99.0659,-82.394"/>
<polygon fill="midnightblue" stroke="midnightblue" points="100.835,-79.3126 90.9097,-75.6053 96.3566,-84.6927 100.835,-79.3126"/>
</g>
<!-- Node16 -->
<g id="node16" class="node"><title>Node16</title>
<polygon fill="white" stroke="#bfbfbf" points="180,-112.5 180,-131.5 232,-131.5 232,-112.5 180,-112.5"/>
<text text-anchor="middle" x="206" y="-119.5" font-family="Helvetica,sans-Serif" font-size="10.00">iomanip</text>
</g>
<!-- Node15&#45;&gt;Node16 -->
<g id="edge22" class="edge"><title>Node15&#45;&gt;Node16</title>
<path fill="none" stroke="midnightblue" d="M281.54,-168.324C267.5,-159.9 245.952,-146.971 229.457,-137.074"/>
<polygon fill="midnightblue" stroke="midnightblue" points="230.8,-133.798 220.424,-131.655 227.198,-139.801 230.8,-133.798"/>
</g>
<!-- Node17 -->
<g id="node17" class="node"><title>Node17</title>
<polygon fill="white" stroke="#bfbfbf" points="509,-56.5 509,-75.5 565,-75.5 565,-56.5 509,-56.5"/>
<text text-anchor="middle" x="537" y="-63.5" font-family="Helvetica,sans-Serif" font-size="10.00">iostream</text>
</g>
<!-- Node15&#45;&gt;Node17 -->
<g id="edge23" class="edge"><title>Node15&#45;&gt;Node17</title>
<path fill="none" stroke="midnightblue" d="M305.93,-168.451C322.254,-154.785 356.227,-127.936 389,-112 408.427,-102.553 461.884,-87.2088 498.929,-77.1094"/>
<polygon fill="midnightblue" stroke="midnightblue" points="500.163,-80.4015 508.901,-74.4093 498.333,-73.6448 500.163,-80.4015"/>
</g>
<!-- Node18 -->
<g id="node18" class="node"><title>Node18</title>
<polygon fill="white" stroke="#bfbfbf" points="398.5,-112.5 398.5,-131.5 529.5,-131.5 529.5,-112.5 398.5,-112.5"/>
<text text-anchor="middle" x="464" y="-119.5" font-family="Helvetica,sans-Serif" font-size="10.00">boost/algorithm/string.hpp</text>
</g>
<!-- Node15&#45;&gt;Node18 -->
<g id="edge25" class="edge"><title>Node15&#45;&gt;Node18</title>
<path fill="none" stroke="midnightblue" d="M322.62,-168.444C351.006,-159.32 396.137,-144.813 427.753,-134.651"/>
<polygon fill="midnightblue" stroke="midnightblue" points="429.055,-137.909 437.504,-131.516 426.913,-131.244 429.055,-137.909"/>
</g>
<!-- Node19 -->
<g id="node19" class="node"><title>Node19</title>
<g id="a_node19"><a xlink:href="../../d8/dfd/config_8hpp.html" target="_top" xlink:title="pfasst/config.hpp">
<polygon fill="white" stroke="black" points="250.5,-112.5 250.5,-131.5 341.5,-131.5 341.5,-112.5 250.5,-112.5"/>
<text text-anchor="middle" x="296" y="-119.5" font-family="Helvetica,sans-Serif" font-size="10.00">pfasst/config.hpp</text>
</a>
</g>
</g>
<!-- Node15&#45;&gt;Node19 -->
<g id="edge26" class="edge"><title>Node15&#45;&gt;Node19</title>
<path fill="none" stroke="midnightblue" d="M296,-168.083C296,-161.006 296,-150.861 296,-141.986"/>
<polygon fill="midnightblue" stroke="midnightblue" points="299.5,-141.751 296,-131.751 292.5,-141.751 299.5,-141.751"/>
</g>
<!-- Node25 -->
<g id="node25" class="node"><title>Node25</title>
<polygon fill="white" stroke="#bfbfbf" points="548,-112.5 548,-131.5 670,-131.5 670,-112.5 548,-112.5"/>
<text text-anchor="middle" x="609" y="-119.5" font-family="Helvetica,sans-Serif" font-size="10.00">pfasst/easylogging++.h</text>
</g>
<!-- Node15&#45;&gt;Node25 -->
<g id="edge37" class="edge"><title>Node15&#45;&gt;Node25</title>
<path fill="none" stroke="midnightblue" d="M345.251,-168.503C400.583,-158.957 490.381,-143.465 549.568,-133.253"/>
<polygon fill="midnightblue" stroke="midnightblue" points="550.261,-136.686 559.52,-131.536 549.071,-129.788 550.261,-136.686"/>
</g>
<!-- Node19&#45;&gt;Node2 -->
<g id="edge30" class="edge"><title>Node19&#45;&gt;Node2</title>
<path fill="none" stroke="midnightblue" d="M272.391,-112.444C245.934,-102.855 203.077,-87.3232 174.965,-77.1348"/>
<polygon fill="midnightblue" stroke="midnightblue" points="175.926,-73.7607 165.332,-73.6439 173.541,-80.3418 175.926,-73.7607"/>
</g>
<!-- Node19&#45;&gt;Node11 -->
<g id="edge29" class="edge"><title>Node19&#45;&gt;Node11</title>
<path fill="none" stroke="midnightblue" d="M261.933,-112.444C220.52,-102.042 151.258,-84.6462 111.518,-74.6651"/>
<polygon fill="midnightblue" stroke="midnightblue" points="112.164,-71.2186 101.613,-72.1772 110.459,-78.0078 112.164,-71.2186"/>
</g>
<!-- Node19&#45;&gt;Node17 -->
<g id="edge28" class="edge"><title>Node19&#45;&gt;Node17</title>
<path fill="none" stroke="midnightblue" d="M335.333,-112.457C376.256,-103.527 442.175,-89.0269 499,-76 499.099,-75.9773 499.198,-75.9545 499.298,-75.9317"/>
<polygon fill="midnightblue" stroke="midnightblue" points="499.839,-79.3992 508.789,-73.7293 498.257,-72.5804 499.839,-79.3992"/>
</g>
<!-- Node20 -->
<g id="node20" class="node"><title>Node20</title>
<polygon fill="white" stroke="#bfbfbf" points="296,-0.5 296,-19.5 346,-19.5 346,-0.5 296,-0.5"/>
<text text-anchor="middle" x="321" y="-7.5" font-family="Helvetica,sans-Serif" font-size="10.00">fstream</text>
</g>
<!-- Node19&#45;&gt;Node20 -->
<g id="edge27" class="edge"><title>Node19&#45;&gt;Node20</title>
<path fill="none" stroke="midnightblue" d="M297.962,-112.368C301.996,-94.617 311.303,-53.6664 316.773,-29.5974"/>
<polygon fill="midnightblue" stroke="midnightblue" points="320.244,-30.1185 319.047,-19.5914 313.418,-28.567 320.244,-30.1185"/>
</g>
<!-- Node21 -->
<g id="node21" class="node"><title>Node21</title>
<polygon fill="white" stroke="#bfbfbf" points="353.5,-56.5 353.5,-75.5 490.5,-75.5 490.5,-56.5 353.5,-56.5"/>
<text text-anchor="middle" x="422" y="-63.5" font-family="Helvetica,sans-Serif" font-size="10.00">boost/program_options.hpp</text>
</g>
<!-- Node19&#45;&gt;Node21 -->
<g id="edge31" class="edge"><title>Node19&#45;&gt;Node21</title>
<path fill="none" stroke="midnightblue" d="M315.965,-112.444C336.609,-103.596 369.063,-89.6875 392.632,-79.5865"/>
<polygon fill="midnightblue" stroke="midnightblue" points="394.316,-82.6727 402.128,-75.5164 391.558,-76.2387 394.316,-82.6727"/>
</g>
<!-- Node22 -->
<g id="node22" class="node"><title>Node22</title>
<g id="a_node22"><a xlink:href="../../d5/d84/config__impl_8hpp.html" target="_top" xlink:title="pfasst/config_impl.hpp">
<polygon fill="white" stroke="black" points="183,-56.5 183,-75.5 297,-75.5 297,-56.5 183,-56.5"/>
<text text-anchor="middle" x="240" y="-63.5" font-family="Helvetica,sans-Serif" font-size="10.00">pfasst/config_impl.hpp</text>
</a>
</g>
</g>
<!-- Node19&#45;&gt;Node22 -->
<g id="edge32" class="edge"><title>Node19&#45;&gt;Node22</title>
<path fill="none" stroke="midnightblue" d="M281.888,-112.324C272.176,-104.576 259.801,-93.0168 250.847,-83.5112"/>
<polygon fill="midnightblue" stroke="midnightblue" points="253.276,-80.9754 244.012,-75.8339 248.048,-85.6301 253.276,-80.9754"/>
</g>
<!-- Node22&#45;&gt;Node19 -->
<g id="edge33" class="edge"><title>Node22&#45;&gt;Node19</title>
<path fill="none" stroke="midnightblue" d="M254.206,-75.7511C263.885,-83.4827 276.178,-94.9673 285.098,-104.431"/>
<polygon fill="midnightblue" stroke="midnightblue" points="282.652,-106.947 291.919,-112.083 287.878,-102.289 282.652,-106.947"/>
</g>
<!-- Node22&#45;&gt;Node20 -->
<g id="edge34" class="edge"><title>Node22&#45;&gt;Node20</title>
<path fill="none" stroke="midnightblue" d="M253.014,-56.324C265.532,-47.979 284.682,-35.2122 299.471,-25.3524"/>
<polygon fill="midnightblue" stroke="midnightblue" points="301.639,-28.1137 308.018,-19.6545 297.756,-22.2894 301.639,-28.1137"/>
</g>
<!-- Node23 -->
<g id="node23" class="node"><title>Node23</title>
<polygon fill="white" stroke="#bfbfbf" points="217.5,-0.5 217.5,-19.5 270.5,-19.5 270.5,-0.5 217.5,-0.5"/>
<text text-anchor="middle" x="244" y="-7.5" font-family="Helvetica,sans-Serif" font-size="10.00">sstream</text>
</g>
<!-- Node22&#45;&gt;Node23 -->
<g id="edge35" class="edge"><title>Node22&#45;&gt;Node23</title>
<path fill="none" stroke="midnightblue" d="M240.661,-56.083C241.185,-49.0059 241.936,-38.8611 242.594,-29.9865"/>
<polygon fill="midnightblue" stroke="midnightblue" points="246.103,-29.9823 243.352,-19.7511 239.123,-29.4652 246.103,-29.9823"/>
</g>
<!-- Node24 -->
<g id="node24" class="node"><title>Node24</title>
<polygon fill="white" stroke="#bfbfbf" points="161,-0.5 161,-19.5 199,-19.5 199,-0.5 161,-0.5"/>
<text text-anchor="middle" x="180" y="-7.5" font-family="Helvetica,sans-Serif" font-size="10.00">utility</text>
</g>
<!-- Node22&#45;&gt;Node24 -->
<g id="edge36" class="edge"><title>Node22&#45;&gt;Node24</title>
<path fill="none" stroke="midnightblue" d="M230.36,-56.324C221.49,-48.3414 208.125,-36.3128 197.392,-26.6529"/>
<polygon fill="midnightblue" stroke="midnightblue" points="199.59,-23.922 189.815,-19.8339 194.907,-29.1251 199.59,-23.922"/>
</g>
<!-- Node26&#45;&gt;Node7 -->
<g id="edge39" class="edge"><title>Node26&#45;&gt;Node7</title>
<path fill="none" stroke="midnightblue" d="M441.676,-310.589C442.912,-320.001 443.081,-332.487 442.183,-342.739"/>
<polygon fill="midnightblue" stroke="midnightblue" points="438.703,-342.346 440.789,-352.734 445.636,-343.313 438.703,-342.346"/>
</g>
<!-- Node26&#45;&gt;Node14 -->
<g id="edge40" class="edge"><title>Node26&#45;&gt;Node14</title>
<path fill="none" stroke="midnightblue" d="M434.406,-280.337C432.074,-259.622 427.729,-221.016 425.127,-197.899"/>
<polygon fill="midnightblue" stroke="midnightblue" points="428.572,-197.215 423.976,-187.669 421.616,-197.998 428.572,-197.215"/>
</g>
<!-- Node27&#45;&gt;Node5 -->
<g id="edge44" class="edge"><title>Node27&#45;&gt;Node5</title>
<path fill="none" stroke="midnightblue" d="M209.781,-377.523C241.657,-387.737 282.495,-401.422 309.936,-411.103"/>
<polygon fill="midnightblue" stroke="midnightblue" points="308.803,-414.415 319.398,-414.475 311.153,-407.821 308.803,-414.415"/>
</g>
<!-- Node27&#45;&gt;Node13 -->
<g id="edge43" class="edge"><title>Node27&#45;&gt;Node13</title>
<path fill="none" stroke="midnightblue" d="M132.86,-347.448C118.768,-338.991 103.168,-326.782 95,-311 76.0965,-274.476 81.7199,-224.329 86.7799,-197.582"/>
<polygon fill="midnightblue" stroke="midnightblue" points="90.234,-198.162 88.8407,-187.659 83.3802,-196.739 90.234,-198.162"/>
</g>
<!-- Node28 -->
<g id="node28" class="node"><title>Node28</title>
<polygon fill="white" stroke="#bfbfbf" points="104,-286 104,-305 162,-305 162,-286 104,-286"/>
<text text-anchor="middle" x="133" y="-293" font-family="Helvetica,sans-Serif" font-size="10.00">algorithm</text>
</g>
<!-- Node27&#45;&gt;Node28 -->
<g id="edge42" class="edge"><title>Node27&#45;&gt;Node28</title>
<path fill="none" stroke="midnightblue" d="M155.707,-347.396C151.41,-337.763 145.677,-324.914 141.047,-314.537"/>
<polygon fill="midnightblue" stroke="midnightblue" points="144.15,-312.901 136.879,-305.195 137.757,-315.753 144.15,-312.901"/>
</g>
</g>
</svg>
        <g id="navigator" transform="translate(0 0)" fill="#404254">
                <rect fill="#f2f5e9" fill-opacity="0.5" stroke="#606060" stroke-width=".5" x="0" y="0" width="60" height="60"/>
                <use id="zoomplus" xlink:href="#zoomPlus" x="17" y="9" onmousedown="handleZoom(evt,'in')"/>
                <use id="zoomminus" xlink:href="#zoomMin" x="42" y="9" onmousedown="handleZoom(evt,'out')"/>
                <use id="reset" xlink:href="#resetDef" x="30" y="36" onmousedown="handleReset()"/>
                <g id="arrowUp" xlink:href="#dirArrow" transform="translate(30 24)" onmousedown="handlePan(0,-1)">
                  <use xlink:href="#rim" fill="#404040">
                        <set attributeName="fill" to="#808080" begin="arrowUp.mouseover" end="arrowUp.mouseout"/>
                  </use>
                  <path fill="none" stroke="white" stroke-width="1.5" d="M0,-3.0v7 M-2.5,-0.5L0,-3.0L2.5,-0.5"/>
                </g>
                <g id="arrowRight" xlink:href="#dirArrow" transform="rotate(90) translate(36 -43)" onmousedown="handlePan(1,0)">
                  <use xlink:href="#rim" fill="#404040">
                        <set attributeName="fill" to="#808080" begin="arrowRight.mouseover" end="arrowRight.mouseout"/>
                  </use>
                  <path fill="none" stroke="white" stroke-width="1.5" d="M0,-3.0v7 M-2.5,-0.5L0,-3.0L2.5,-0.5"/>
                </g>
                <g id="arrowDown" xlink:href="#dirArrow" transform="rotate(180) translate(-30 -48)" onmousedown="handlePan(0,1)">
                  <use xlink:href="#rim" fill="#404040">
                        <set attributeName="fill" to="#808080" begin="arrowDown.mouseover" end="arrowDown.mouseout"/>
                  </use>
                  <path fill="none" stroke="white" stroke-width="1.5" d="M0,-3.0v7 M-2.5,-0.5L0,-3.0L2.5,-0.5"/>
                </g>
                <g id="arrowLeft" xlink:href="#dirArrow" transform="rotate(270) translate(-36 17)" onmousedown="handlePan(-1,0)">
                  <use xlink:href="#rim" fill="#404040">
                        <set attributeName="fill" to="#808080" begin="arrowLeft.mouseover" end="arrowLeft.mouseout"/>
                  </use>
                  <path fill="none" stroke="white" stroke-width="1.5" d="M0,-3.0v7 M-2.5,-0.5L0,-3.0L2.5,-0.5"/>
                </g>
        </g>
        <svg viewBox="0 0 15 15" width="100%" height="30px" preserveAspectRatio="xMaxYMin meet">
         <g id="arrow_out" transform="scale(0.3 0.3)">
          <a xlink:href="fft_8hpp__incl_org.svg" target="_base">
           <rect id="button" ry="5" rx="5" y="6" x="6" height="38" width="38"
                fill="#f2f5e9" fill-opacity="0.5" stroke="#606060" stroke-width="1.0"/>
           <path id="arrow"
             d="M 11.500037,31.436501 C 11.940474,20.09759 22.043105,11.32322 32.158766,21.979434 L 37.068811,17.246167 C 37.068811,17.246167 37.088388,32 37.088388,32 L 22.160133,31.978069 C 22.160133,31.978069 26.997745,27.140456 26.997745,27.140456 C 18.528582,18.264221 13.291696,25.230495 11.500037,31.436501 z"
             style="fill:#404040;"/>
          </a>
         </g>
        </svg>
</svg>
