<?xml version="1.0" encoding="UTF-8" standalone="no"?>
<!DOCTYPE svg PUBLIC "-//W3C//DTD SVG 1.1//EN"
 "http://www.w3.org/Graphics/SVG/1.1/DTD/svg11.dtd">
<!-- Generated by graphviz version 2.38.0 (20140413.2041)
 -->
<!-- Title: MPI_Status_factory Pages: 1 -->
<svg width="320pt" height="88pt"
 viewBox="0.00 0.00 320.00 88.00" xmlns="http://www.w3.org/2000/svg" xmlns:xlink="http://www.w3.org/1999/xlink">
<g id="graph0" class="graph" transform="scale(1 1) rotate(0) translate(4 84)">
<title>MPI_Status_factory</title>
<polygon fill="white" stroke="none" points="-4,4 -4,-84 316,-84 316,4 -4,4"/>
<!-- Node1 -->
<g id="node1" class="node"><title>Node1</title>
<polygon fill="#bfbfbf" stroke="black" points="0,-30 0,-49 102,-49 102,-30 0,-30"/>
<text text-anchor="middle" x="51" y="-37" font-family="Helvetica,sans-Serif" font-size="10.00">MPI_Status_factory</text>
</g>
<!-- Node2 -->
<g id="node2" class="node"><title>Node2</title>
<g id="a_node2"><a xlink:href="../../da/d7a/classpfasst_1_1mpi_1_1MPIStatus.html#a08fd7af69e979573df74ac9b3d334c3a" target="_top" xlink:title="pfasst::mpi::MPIStatus\l::recv">
<polygon fill="white" stroke="black" points="167,-49.5 167,-79.5 283,-79.5 283,-49.5 167,-49.5"/>
<text text-anchor="start" x="175" y="-67.5" font-family="Helvetica,sans-Serif" font-size="10.00">pfasst::mpi::MPIStatus</text>
<text text-anchor="middle" x="225" y="-56.5" font-family="Helvetica,sans-Serif" font-size="10.00">::recv</text>
</a>
</g>
</g>
<!-- Node1&#45;&gt;Node2 -->
<g id="edge1" class="edge"><title>Node1&#45;&gt;Node2</title>
<path fill="none" stroke="midnightblue" d="M112.402,-48.2794C130.063,-50.8464 149.309,-53.6438 166.768,-56.1813"/>
<polygon fill="midnightblue" stroke="midnightblue" points="112.611,-44.7731 102.212,-46.7982 111.604,-51.7003 112.611,-44.7731"/>
</g>
<!-- Node3 -->
<g id="node3" class="node"><title>Node3</title>
<g id="a_node3"><a xlink:href="../../d6/d2b/classpfasst_1_1encap_1_1VectorEncapsulation.html#a35fd5856a900a6a2380ef6e019afcf3b" target="_top" xlink:title="pfasst::encap::VectorEncapsulation\l::~VectorEncapsulation">
<polygon fill="white" stroke="black" points="138,-0.5 138,-30.5 312,-30.5 312,-0.5 138,-0.5"/>
<text text-anchor="start" x="146" y="-18.5" font-family="Helvetica,sans-Serif" font-size="10.00">pfasst::encap::VectorEncapsulation</text>
<text text-anchor="middle" x="225" y="-7.5" font-family="Helvetica,sans-Serif" font-size="10.00">::~VectorEncapsulation</text>
</a>
</g>
</g>
<!-- Node1&#45;&gt;Node3 -->
<g id="edge2" class="edge"><title>Node1&#45;&gt;Node3</title>
<path fill="none" stroke="midnightblue" d="M112.152,-31.1067C120.465,-29.9467 129.133,-28.7372 137.804,-27.5273"/>
<polygon fill="midnightblue" stroke="midnightblue" points="111.632,-27.6452 102.212,-32.4937 112.6,-34.5781 111.632,-27.6452"/>
</g>
</g>
</svg>
