<?xml version="1.0" encoding="UTF-8" standalone="no"?>
<!DOCTYPE svg PUBLIC "-//W3C//DTD SVG 1.1//EN"
 "http://www.w3.org/Graphics/SVG/1.1/DTD/svg11.dtd">
<!-- Generated by graphviz version 2.38.0 (20140413.2041)
 -->
<!-- Title: pfasst::log::add_custom_logger Pages: 1 -->
<svg width="671pt" height="185pt"
 viewBox="0.00 0.00 671.00 184.50" xmlns="http://www.w3.org/2000/svg" xmlns:xlink="http://www.w3.org/1999/xlink">
<g id="graph0" class="graph" transform="scale(1 1) rotate(0) translate(4 180.5)">
<title>pfasst::log::add_custom_logger</title>
<polygon fill="white" stroke="none" points="-4,4 -4,-180.5 667,-180.5 667,4 -4,4"/>
<!-- Node1 -->
<g id="node1" class="node"><title>Node1</title>
<polygon fill="#bfbfbf" stroke="black" points="0,-65 0,-95 125,-95 125,-65 0,-65"/>
<text text-anchor="start" x="8" y="-83" font-family="Helvetica,sans-Serif" font-size="10.00">pfasst::log::add_custom</text>
<text text-anchor="middle" x="62.5" y="-72" font-family="Helvetica,sans-Serif" font-size="10.00">_logger</text>
</g>
<!-- Node2 -->
<g id="node2" class="node"><title>Node2</title>
<g id="a_node2"><a xlink:href="../../da/d74/namespacepfasst_1_1examples_1_1boris.html#a87ab9b1f4a83b4f932e9a3cd588cbbad" target="_top" xlink:title="pfasst::examples::boris\l::init_logs">
<polygon fill="white" stroke="black" points="194.5,-146 194.5,-176 315.5,-176 315.5,-146 194.5,-146"/>
<text text-anchor="start" x="202.5" y="-164" font-family="Helvetica,sans-Serif" font-size="10.00">pfasst::examples::boris</text>
<text text-anchor="middle" x="255" y="-153" font-family="Helvetica,sans-Serif" font-size="10.00">::init_logs</text>
</a>
</g>
</g>
<!-- Node1&#45;&gt;Node2 -->
<g id="edge1" class="edge"><title>Node1&#45;&gt;Node2</title>
<path fill="none" stroke="midnightblue" d="M93.8265,-100.678C112.522,-112.664 137.368,-127.264 161,-137 171.484,-141.319 182.96,-145.037 194.162,-148.169"/>
<polygon fill="midnightblue" stroke="midnightblue" points="95.7248,-97.7371 85.436,-95.2092 91.9027,-103.602 95.7248,-97.7371"/>
</g>
<!-- Node3 -->
<g id="node3" class="node"><title>Node3</title>
<g id="a_node3"><a xlink:href="../../d2/dfe/classpfasst_1_1examples_1_1advection__diffusion_1_1AdvectionDiffusionSweeper.html#aeadc517097ebebd2eb14398271d6d576" target="_top" xlink:title="pfasst::examples::advection\l_diffusion::AdvectionDiffusionSweeper\l::init_logs">
<polygon fill="white" stroke="black" points="161,-86.5 161,-127.5 349,-127.5 349,-86.5 161,-86.5"/>
<text text-anchor="start" x="169" y="-115.5" font-family="Helvetica,sans-Serif" font-size="10.00">pfasst::examples::advection</text>
<text text-anchor="start" x="169" y="-104.5" font-family="Helvetica,sans-Serif" font-size="10.00">_diffusion::AdvectionDiffusionSweeper</text>
<text text-anchor="middle" x="255" y="-93.5" font-family="Helvetica,sans-Serif" font-size="10.00">::init_logs</text>
</a>
</g>
</g>
<!-- Node1&#45;&gt;Node3 -->
<g id="edge2" class="edge"><title>Node1&#45;&gt;Node3</title>
<path fill="none" stroke="midnightblue" d="M135.152,-90.1553C143.524,-91.342 152.156,-92.5654 160.766,-93.7857"/>
<polygon fill="midnightblue" stroke="midnightblue" points="135.479,-86.6669 125.087,-88.7288 134.497,-93.5976 135.479,-86.6669"/>
</g>
<!-- Node4 -->
<g id="node4" class="node"><title>Node4</title>
<g id="a_node4"><a xlink:href="../../de/d8c/group__Internals.html#ga94bc88666f61bcc6d85072e6dfdd21f4" target="_top" xlink:title="Sets default configuration for default loggers. ">
<polygon fill="white" stroke="black" points="192.5,-38 192.5,-68 317.5,-68 317.5,-38 192.5,-38"/>
<text text-anchor="start" x="200.5" y="-56" font-family="Helvetica,sans-Serif" font-size="10.00">pfasst::log::load_default</text>
<text text-anchor="middle" x="255" y="-45" font-family="Helvetica,sans-Serif" font-size="10.00">_config</text>
</a>
</g>
</g>
<!-- Node1&#45;&gt;Node4 -->
<g id="edge3" class="edge"><title>Node1&#45;&gt;Node4</title>
<path fill="none" stroke="midnightblue" d="M135.088,-69.8536C153.91,-67.186 174.047,-64.332 192.299,-61.745"/>
<polygon fill="midnightblue" stroke="midnightblue" points="134.497,-66.4024 125.087,-71.2712 135.479,-73.3331 134.497,-66.4024"/>
</g>
<!-- Node8 -->
<g id="node8" class="node"><title>Node8</title>
<g id="a_node8"><a xlink:href="../../df/df8/test__advection__diffusion_8cpp.html#a3c04138a5bfe5d72780bb7e82a18e627" target="_top" xlink:title="main">
<polygon fill="white" stroke="black" points="539.5,-0.5 539.5,-19.5 577.5,-19.5 577.5,-0.5 539.5,-0.5"/>
<text text-anchor="middle" x="558.5" y="-7.5" font-family="Helvetica,sans-Serif" font-size="10.00">main</text>
</a>
</g>
</g>
<!-- Node1&#45;&gt;Node8 -->
<g id="edge8" class="edge"><title>Node1&#45;&gt;Node8</title>
<path fill="none" stroke="midnightblue" d="M93.7288,-59.3406C112.271,-47.8543 136.992,-34.584 161,-28 302.215,10.7271 482.191,-2.43631 539.278,-8.02799"/>
<polygon fill="midnightblue" stroke="midnightblue" points="91.7097,-56.4769 85.1527,-64.799 95.4683,-62.3823 91.7097,-56.4769"/>
</g>
<!-- Node5 -->
<g id="node5" class="node"><title>Node5</title>
<g id="a_node5"><a xlink:href="../../de/d8c/group__Internals.html#ga73cf933834ba5e5141119310aee971b9" target="_top" xlink:title="Starts easylogging++ with given arguments and loads configuration. ">
<polygon fill="white" stroke="black" points="385,-41.5 385,-60.5 492,-60.5 492,-41.5 385,-41.5"/>
<text text-anchor="middle" x="438.5" y="-48.5" font-family="Helvetica,sans-Serif" font-size="10.00">pfasst::log::start_log</text>
</a>
</g>
</g>
<!-- Node4&#45;&gt;Node5 -->
<g id="edge4" class="edge"><title>Node4&#45;&gt;Node5</title>
<path fill="none" stroke="midnightblue" d="M327.811,-52.2087C346.81,-51.9993 366.967,-51.7772 384.749,-51.5813"/>
<polygon fill="midnightblue" stroke="midnightblue" points="327.662,-48.71 317.701,-52.3201 327.739,-55.7096 327.662,-48.71"/>
</g>
<!-- Node6 -->
<g id="node6" class="node"><title>Node6</title>
<g id="a_node6"><a xlink:href="../../dc/d57/namespacepfasst.html#a2ad4b6987b5c66b90166f77fc4230e92" target="_top" xlink:title="pfasst::init">
<polygon fill="white" stroke="black" points="528,-41.5 528,-60.5 589,-60.5 589,-41.5 528,-41.5"/>
<text text-anchor="middle" x="558.5" y="-48.5" font-family="Helvetica,sans-Serif" font-size="10.00">pfasst::init</text>
</a>
</g>
</g>
<!-- Node5&#45;&gt;Node6 -->
<g id="edge5" class="edge"><title>Node5&#45;&gt;Node6</title>
<path fill="none" stroke="midnightblue" d="M502.291,-51C511.147,-51 519.888,-51 527.712,-51"/>
<polygon fill="midnightblue" stroke="midnightblue" points="502.288,-47.5001 492.288,-51 502.288,-54.5001 502.288,-47.5001"/>
</g>
<!-- Node5&#45;&gt;Node8 -->
<g id="edge7" class="edge"><title>Node5&#45;&gt;Node8</title>
<path fill="none" stroke="midnightblue" d="M476.457,-38.1589C497.436,-30.8696 522.758,-22.0715 539.45,-16.2716"/>
<polygon fill="midnightblue" stroke="midnightblue" points="475.165,-34.9024 466.868,-41.4907 477.463,-41.5147 475.165,-34.9024"/>
</g>
<!-- Node7 -->
<g id="node7" class="node"><title>Node7</title>
<g id="a_node7"><a xlink:href="../../d1/d49/mpi__pfasst_8cpp.html#a3c04138a5bfe5d72780bb7e82a18e627" target="_top" xlink:title="main">
<polygon fill="white" stroke="black" points="625,-41.5 625,-60.5 663,-60.5 663,-41.5 625,-41.5"/>
<text text-anchor="middle" x="644" y="-48.5" font-family="Helvetica,sans-Serif" font-size="10.00">main</text>
</a>
</g>
</g>
<!-- Node6&#45;&gt;Node7 -->
<g id="edge6" class="edge"><title>Node6&#45;&gt;Node7</title>
<path fill="none" stroke="midnightblue" d="M599.381,-51C608.201,-51 617.131,-51 624.595,-51"/>
<polygon fill="midnightblue" stroke="midnightblue" points="599.174,-47.5001 589.174,-51 599.174,-54.5001 599.174,-47.5001"/>
</g>
</g>
</svg>
