<?xml version="1.0" encoding="UTF-8" standalone="no"?>
<!DOCTYPE svg PUBLIC "-//W3C//DTD SVG 1.1//EN"
 "http://www.w3.org/Graphics/SVG/1.1/DTD/svg11.dtd">
<!-- Generated by graphviz version 2.38.0 (20140413.2041)
 -->
<!-- Title: pfasst::log::add_custom_logger Pages: 1 -->
<svg width="725pt" height="151pt"
 viewBox="0.00 0.00 725.00 150.96" xmlns="http://www.w3.org/2000/svg" xmlns:xlink="http://www.w3.org/1999/xlink">
<g id="graph0" class="graph" transform="scale(1 1) rotate(0) translate(4 146.964)">
<title>pfasst::log::add_custom_logger</title>
<polygon fill="white" stroke="none" points="-4,4 -4,-146.964 721,-146.964 721,4 -4,4"/>
<!-- Node1 -->
<g id="node1" class="node"><title>Node1</title>
<polygon fill="#bfbfbf" stroke="black" points="0,-73.5 0,-103.5 125,-103.5 125,-73.5 0,-73.5"/>
<text text-anchor="start" x="8" y="-91.5" font-family="Helvetica,sans-Serif" font-size="10.00">pfasst::log::add_custom</text>
<text text-anchor="middle" x="62.5" y="-80.5" font-family="Helvetica,sans-Serif" font-size="10.00">_logger</text>
</g>
<!-- Node2 -->
<g id="node2" class="node"><title>Node2</title>
<g id="a_node2"><a xlink:href="../../de/d8c/group__Internals.html#ga2fbecb551eda65e49c93122c05142aec" target="_top" xlink:title="Formats the local MPI world rank as a string. ">
<polygon fill="white" stroke="black" points="463,-95.5 463,-125.5 560,-125.5 560,-95.5 463,-95.5"/>
<text text-anchor="start" x="471" y="-113.5" font-family="Helvetica,sans-Serif" font-size="10.00">pfasst::log::format</text>
<text text-anchor="middle" x="511.5" y="-102.5" font-family="Helvetica,sans-Serif" font-size="10.00">_mpi_rank</text>
</a>
</g>
</g>
<!-- Node1&#45;&gt;Node2 -->
<g id="edge1" class="edge"><title>Node1&#45;&gt;Node2</title>
<path fill="none" stroke="midnightblue" d="M110.364,-103.527C179.694,-123.786 313.62,-155.375 427,-137.5 438.756,-135.647 451.113,-132.41 462.609,-128.807"/>
<polygon fill="midnightblue" stroke="midnightblue" points="464.045,-132.02 472.453,-125.573 461.86,-125.369 464.045,-132.02"/>
</g>
<!-- Node4 -->
<g id="node4" class="node"><title>Node4</title>
<g id="a_node4"><a xlink:href="../../da/d27/classpfasst_1_1config_1_1options.html#a4f130f9b500d6f3dee7df20894233608" target="_top" xlink:title="Accessor to the singleton instance. ">
<polygon fill="white" stroke="black" points="313,-98.5 313,-128.5 427,-128.5 427,-98.5 313,-98.5"/>
<text text-anchor="start" x="321" y="-116.5" font-family="Helvetica,sans-Serif" font-size="10.00">pfasst::config::options</text>
<text text-anchor="middle" x="370" y="-105.5" font-family="Helvetica,sans-Serif" font-size="10.00">::get_instance</text>
</a>
</g>
</g>
<!-- Node1&#45;&gt;Node4 -->
<g id="edge3" class="edge"><title>Node1&#45;&gt;Node4</title>
<path fill="none" stroke="midnightblue" d="M125.322,-93.5591C176.811,-97.7726 249.97,-103.759 302.672,-108.072"/>
<polygon fill="midnightblue" stroke="midnightblue" points="302.676,-111.584 312.928,-108.911 303.246,-104.607 302.676,-111.584"/>
</g>
<!-- Node5 -->
<g id="node5" class="node"><title>Node5</title>
<g id="a_node5"><a xlink:href="../../da/d27/classpfasst_1_1config_1_1options.html#a9ad40d67da1066f5053e47e278b3b154" target="_top" xlink:title="pfasst::config::options\l::get_variables_map">
<polygon fill="white" stroke="black" points="313,-0.5 313,-30.5 427,-30.5 427,-0.5 313,-0.5"/>
<text text-anchor="start" x="321" y="-18.5" font-family="Helvetica,sans-Serif" font-size="10.00">pfasst::config::options</text>
<text text-anchor="middle" x="370" y="-7.5" font-family="Helvetica,sans-Serif" font-size="10.00">::get_variables_map</text>
</a>
</g>
</g>
<!-- Node1&#45;&gt;Node5 -->
<g id="edge4" class="edge"><title>Node1&#45;&gt;Node5</title>
<path fill="none" stroke="midnightblue" d="M88.2011,-73.4159C107.361,-62.4522 134.954,-48.2311 161,-40.5 207.223,-26.7795 261.352,-20.5651 302.803,-17.7621"/>
<polygon fill="midnightblue" stroke="midnightblue" points="303.025,-21.2552 312.786,-17.1361 302.587,-14.2689 303.025,-21.2552"/>
</g>
<!-- Node6 -->
<g id="node6" class="node"><title>Node6</title>
<g id="a_node6"><a xlink:href="../../de/d8c/group__Internals.html#ga2f4ba84c8482c3fb5c86e599804f832a" target="_top" xlink:title="Sets global logging options. ">
<polygon fill="white" stroke="black" points="161,-50.5 161,-80.5 277,-80.5 277,-50.5 161,-50.5"/>
<text text-anchor="start" x="169" y="-68.5" font-family="Helvetica,sans-Serif" font-size="10.00">pfasst::log::set_global</text>
<text text-anchor="middle" x="219" y="-57.5" font-family="Helvetica,sans-Serif" font-size="10.00">_logging_options</text>
</a>
</g>
</g>
<!-- Node1&#45;&gt;Node6 -->
<g id="edge5" class="edge"><title>Node1&#45;&gt;Node6</title>
<path fill="none" stroke="midnightblue" d="M125.006,-79.3437C133.474,-78.0831 142.205,-76.7834 150.769,-75.5084"/>
<polygon fill="midnightblue" stroke="midnightblue" points="151.345,-78.9615 160.72,-74.0271 150.314,-72.0378 151.345,-78.9615"/>
</g>
<!-- Node3 -->
<g id="node3" class="node"><title>Node3</title>
<g id="a_node3"><a xlink:href="../../d3/d91/namespacepfasst_1_1config.html#a69bf5d072b24805ad0004d40bcd2744e" target="_top" xlink:title="Get MPI rank during initialization. ">
<polygon fill="white" stroke="black" points="596,-101 596,-120 717,-120 717,-101 596,-101"/>
<text text-anchor="middle" x="656.5" y="-108" font-family="Helvetica,sans-Serif" font-size="10.00">pfasst::config::get_rank</text>
</a>
</g>
</g>
<!-- Node2&#45;&gt;Node3 -->
<g id="edge2" class="edge"><title>Node2&#45;&gt;Node3</title>
<path fill="none" stroke="midnightblue" d="M560.117,-110.5C568.351,-110.5 577.062,-110.5 585.739,-110.5"/>
<polygon fill="midnightblue" stroke="midnightblue" points="585.879,-114 595.879,-110.5 585.879,-107 585.879,-114"/>
</g>
<!-- Node6&#45;&gt;Node4 -->
<g id="edge6" class="edge"><title>Node6&#45;&gt;Node4</title>
<path fill="none" stroke="midnightblue" d="M266.736,-80.5558C281.298,-85.2469 297.511,-90.4701 312.658,-95.3497"/>
<polygon fill="midnightblue" stroke="midnightblue" points="311.839,-98.7627 322.43,-98.4976 313.985,-92.0999 311.839,-98.7627"/>
</g>
<!-- Node6&#45;&gt;Node5 -->
<g id="edge9" class="edge"><title>Node6&#45;&gt;Node5</title>
<path fill="none" stroke="midnightblue" d="M264.705,-50.4984C280.251,-45.2815 297.87,-39.3692 314.142,-33.9087"/>
<polygon fill="midnightblue" stroke="midnightblue" points="315.702,-37.077 324.069,-30.5774 313.475,-30.4407 315.702,-37.077"/>
</g>
<!-- Node7 -->
<g id="node7" class="node"><title>Node7</title>
<g id="a_node7"><a xlink:href="../../de/d8c/group__Internals.html#ga74a6cd18764de8c81da478a7eb33ee4a" target="_top" xlink:title="Composes the log file name for the local rank. ">
<polygon fill="white" stroke="black" points="318.5,-49.5 318.5,-79.5 421.5,-79.5 421.5,-49.5 318.5,-49.5"/>
<text text-anchor="start" x="326.5" y="-67.5" font-family="Helvetica,sans-Serif" font-size="10.00">pfasst::log::get_log</text>
<text text-anchor="middle" x="370" y="-56.5" font-family="Helvetica,sans-Serif" font-size="10.00">_file_name</text>
</a>
</g>
</g>
<!-- Node6&#45;&gt;Node7 -->
<g id="edge7" class="edge"><title>Node6&#45;&gt;Node7</title>
<path fill="none" stroke="midnightblue" d="M277.181,-65.1162C287.276,-65.0485 297.819,-64.9777 308.013,-64.9093"/>
<polygon fill="midnightblue" stroke="midnightblue" points="308.085,-68.409 318.061,-64.8419 308.038,-61.4092 308.085,-68.409"/>
</g>
<!-- Node7&#45;&gt;Node2 -->
<g id="edge8" class="edge"><title>Node7&#45;&gt;Node2</title>
<path fill="none" stroke="midnightblue" d="M416.678,-79.5621C428.962,-83.6128 442.381,-88.0379 455.131,-92.2421"/>
<polygon fill="midnightblue" stroke="midnightblue" points="454.127,-95.5963 464.72,-95.404 456.319,-88.9484 454.127,-95.5963"/>
</g>
</g>
</svg>
