<?xml version="1.0" encoding="UTF-8" standalone="no"?>
<!DOCTYPE svg PUBLIC "-//W3C//DTD SVG 1.1//EN"
 "http://www.w3.org/Graphics/SVG/1.1/DTD/svg11.dtd">
<!-- Generated by graphviz version 2.38.0 (20140413.2041)
 -->
<!-- Title: ConvergenceTest Pages: 1 -->
<!--zoomable 480 -->
<svg id="main" version="1.1" xmlns="http://www.w3.org/2000/svg" xmlns:xlink="http://www.w3.org/1999/xlink" xml:space="preserve" onload="init(evt)">
<style type="text/css"><![CDATA[
.edge:hover path { stroke: red; }
.edge:hover polygon { stroke: red; fill: red; }
]]></style>
<script type="text/javascript"><![CDATA[
var edges = document.getElementsByTagName('g');
if (edges && edges.length) {
  for (var i=0;i<edges.length;i++) {
    if (edges[i].id.substr(0,4)=='edge') {
      edges[i].setAttribute('class','edge');
    }
  }
}
]]></script>
        <defs>
                <circle id="rim" cx="0" cy="0" r="7"/>
                <circle id="rim2" cx="0" cy="0" r="3.5"/>
                <g id="zoomPlus">
                        <use xlink:href="#rim" fill="#404040">
                                <set attributeName="fill" to="#808080" begin="zoomplus.mouseover" end="zoomplus.mouseout"/>
                        </use>
                        <path d="M-4,0h8M0,-4v8" fill="none" stroke="white" stroke-width="1.5" pointer-events="none"/>
                </g>
                <g id="zoomMin">
                        <use xlink:href="#rim" fill="#404040">
                                <set attributeName="fill" to="#808080" begin="zoomminus.mouseover" end="zoomminus.mouseout"/>
                        </use>
                        <path d="M-4,0h8" fill="none" stroke="white" stroke-width="1.5" pointer-events="none"/>
                </g>
                <g id="dirArrow">
                        <path fill="none" stroke="white" stroke-width="1.5" d="M0,-3.0v7 M-2.5,-0.5L0,-3.0L2.5,-0.5"/>
                </g>
               <g id="resetDef">
                       <use xlink:href="#rim2" fill="#404040">
                               <set attributeName="fill" to="#808080" begin="reset.mouseover" end="reset.mouseout"/>
                       </use>
               </g>
        </defs>

<script type="text/javascript">
var viewWidth = 546;
var viewHeight = 480;
var sectionId = 'dynsection-1';
</script>
<script xlink:href="../../svgpan.js"/>
<svg id="graph" class="graph">
<g id="viewport">
<title>ConvergenceTest</title>
<polygon fill="white" stroke="none" points="-4,4 -4,-476 542,-476 542,4 -4,4"/>
<!-- Node1 -->
<g id="node1" class="node"><title>Node1</title>
<polygon fill="#bfbfbf" stroke="black" points="106,-0.5 106,-123.5 205,-123.5 205,-0.5 106,-0.5"/>
<text text-anchor="middle" x="155.5" y="-111.5" font-family="Helvetica,sans-Serif" font-size="10.00">ConvergenceTest</text>
<polyline fill="none" stroke="black" points="106,-104.5 205,-104.5 "/>
<text text-anchor="start" x="114" y="-92.5" font-family="Helvetica,sans-Serif" font-size="10.00"># nnodes</text>
<text text-anchor="start" x="114" y="-81.5" font-family="Helvetica,sans-Serif" font-size="10.00"># niters</text>
<text text-anchor="start" x="114" y="-70.5" font-family="Helvetica,sans-Serif" font-size="10.00"># nlevs</text>
<text text-anchor="start" x="114" y="-59.5" font-family="Helvetica,sans-Serif" font-size="10.00"># nodetype</text>
<text text-anchor="start" x="114" y="-48.5" font-family="Helvetica,sans-Serif" font-size="10.00"># end_time</text>
<polyline fill="none" stroke="black" points="106,-41.5 205,-41.5 "/>
<text text-anchor="start" x="114" y="-29.5" font-family="Helvetica,sans-Serif" font-size="10.00">+ SetUp()</text>
<text text-anchor="start" x="114" y="-18.5" font-family="Helvetica,sans-Serif" font-size="10.00">+ SetUp()</text>
<text text-anchor="start" x="114" y="-7.5" font-family="Helvetica,sans-Serif" font-size="10.00">+ SetUp()</text>
</g>
<!-- Node2 -->
<g id="node2" class="node"><title>Node2</title>
<polygon fill="white" stroke="#bfbfbf" points="0,-182.5 0,-261.5 139,-261.5 139,-182.5 0,-182.5"/>
<text text-anchor="start" x="8" y="-249.5" font-family="Helvetica,sans-Serif" font-size="10.00">TestWithParam&lt; tuple</text>
<text text-anchor="start" x="8" y="-238.5" font-family="Helvetica,sans-Serif" font-size="10.00">&lt; size_t, pfasst::quadrature</text>
<text text-anchor="middle" x="69.5" y="-227.5" font-family="Helvetica,sans-Serif" font-size="10.00">::QuadratureType &gt; &gt;</text>
<polyline fill="none" stroke="#bfbfbf" points="0,-220.5 139,-220.5 "/>
<text text-anchor="middle" x="69.5" y="-208.5" font-family="Helvetica,sans-Serif" font-size="10.00"> </text>
<polyline fill="none" stroke="#bfbfbf" points="0,-201.5 139,-201.5 "/>
<text text-anchor="middle" x="69.5" y="-189.5" font-family="Helvetica,sans-Serif" font-size="10.00"> </text>
</g>
<!-- Node2&#45;&gt;Node1 -->
<g id="edge1" class="edge"><title>Node2&#45;&gt;Node1</title>
<path fill="none" stroke="midnightblue" d="M83.1159,-172.959C90.5422,-157.443 99.8045,-140.034 109.274,-123.724"/>
<polygon fill="none" stroke="midnightblue" points="79.7921,-171.806 78.7438,-182.349 86.1379,-174.761 79.7921,-171.806"/>
</g>
<!-- Node2&#45;&gt;Node1 -->
<g id="edge2" class="edge"><title>Node2&#45;&gt;Node1</title>
<path fill="none" stroke="midnightblue" d="M95.4101,-173.398C103.916,-157.771 113.487,-140.188 122.448,-123.724"/>
<polygon fill="none" stroke="midnightblue" points="92.2446,-171.892 90.538,-182.349 98.3929,-175.239 92.2446,-171.892"/>
</g>
<!-- Node2&#45;&gt;Node1 -->
<g id="edge3" class="edge"><title>Node2&#45;&gt;Node1</title>
<path fill="none" stroke="midnightblue" d="M107.646,-173.835C117.28,-158.1 127.18,-140.341 135.621,-123.724"/>
<polygon fill="none" stroke="midnightblue" points="104.658,-172.012 102.332,-182.349 110.596,-175.719 104.658,-172.012"/>
</g>
<!-- Node3 -->
<g id="node3" class="node"><title>Node3</title>
<polygon fill="white" stroke="#bfbfbf" points="157,-193.5 157,-250.5 280,-250.5 280,-193.5 157,-193.5"/>
<text text-anchor="middle" x="218.5" y="-238.5" font-family="Helvetica,sans-Serif" font-size="10.00">std::complex&lt; double &gt;</text>
<polyline fill="none" stroke="#bfbfbf" points="157,-231.5 280,-231.5 "/>
<text text-anchor="middle" x="218.5" y="-219.5" font-family="Helvetica,sans-Serif" font-size="10.00"> </text>
<polyline fill="none" stroke="#bfbfbf" points="157,-212.5 280,-212.5 "/>
<text text-anchor="middle" x="218.5" y="-200.5" font-family="Helvetica,sans-Serif" font-size="10.00"> </text>
</g>
<!-- Node3&#45;&gt;Node1 -->
<g id="edge4" class="edge"><title>Node3&#45;&gt;Node1</title>
<path fill="none" stroke="#404040" d="M207.526,-193.479C201.012,-177.141 192.423,-155.6 184.105,-134.74"/>
<polygon fill="none" stroke="#404040" points="184.105,-134.739 178.167,-130.648 179.66,-123.593 185.598,-127.684 184.105,-134.739"/>
<text text-anchor="middle" x="216" y="-150.5" font-family="Helvetica,sans-Serif" font-size="10.00"> #lambda</text>
</g>
<!-- Node4 -->
<g id="node4" class="node"><title>Node4</title>
<g id="a_node4"><a xlink:title="STL class. ">
<polygon fill="white" stroke="#bfbfbf" points="181.5,-309.5 181.5,-366.5 255.5,-366.5 255.5,-309.5 181.5,-309.5"/>
<text text-anchor="middle" x="218.5" y="-354.5" font-family="Helvetica,sans-Serif" font-size="10.00">std::complex</text>
<polyline fill="none" stroke="#bfbfbf" points="181.5,-347.5 255.5,-347.5 "/>
<text text-anchor="middle" x="218.5" y="-335.5" font-family="Helvetica,sans-Serif" font-size="10.00"> </text>
<polyline fill="none" stroke="#bfbfbf" points="181.5,-328.5 255.5,-328.5 "/>
<text text-anchor="middle" x="218.5" y="-316.5" font-family="Helvetica,sans-Serif" font-size="10.00"> </text>
</a>
</g>
</g>
<!-- Node4&#45;&gt;Node3 -->
<g id="edge5" class="edge"><title>Node4&#45;&gt;Node3</title>
<path fill="none" stroke="orange" d="M218.5,-299.364C218.5,-283.496 218.5,-265.355 218.5,-250.737"/>
<polygon fill="orange" stroke="orange" points="215,-299.404 218.5,-309.404 222,-299.404 215,-299.404"/>
<text text-anchor="middle" x="244.5" y="-283" font-family="Helvetica,sans-Serif" font-size="10.00"> &lt; double &gt;</text>
</g>
<!-- Node5 -->
<g id="node5" class="node"><title>Node5</title>
<polygon fill="white" stroke="#bfbfbf" points="298.5,-193.5 298.5,-250.5 406.5,-250.5 406.5,-193.5 298.5,-193.5"/>
<text text-anchor="middle" x="352.5" y="-238.5" font-family="Helvetica,sans-Serif" font-size="10.00">std::vector&lt; size_t &gt;</text>
<polyline fill="none" stroke="#bfbfbf" points="298.5,-231.5 406.5,-231.5 "/>
<text text-anchor="start" x="306.5" y="-219.5" font-family="Helvetica,sans-Serif" font-size="10.00">+ elements</text>
<polyline fill="none" stroke="#bfbfbf" points="298.5,-212.5 406.5,-212.5 "/>
<text text-anchor="middle" x="352.5" y="-200.5" font-family="Helvetica,sans-Serif" font-size="10.00"> </text>
</g>
<!-- Node5&#45;&gt;Node1 -->
<g id="edge6" class="edge"><title>Node5&#45;&gt;Node1</title>
<path fill="none" stroke="#404040" d="M318.185,-193.479C289.791,-170.705 248.792,-137.823 215.058,-110.767"/>
<polygon fill="none" stroke="#404040" points="214.66,-110.448 207.477,-109.815 205.299,-102.94 212.482,-103.574 214.66,-110.448"/>
<text text-anchor="middle" x="296.5" y="-150.5" font-family="Helvetica,sans-Serif" font-size="10.00"> #nsteps</text>
</g>
<!-- Node6 -->
<g id="node6" class="node"><title>Node6</title>
<g id="a_node6"><a xlink:title="STL class. ">
<polygon fill="white" stroke="#bfbfbf" points="357,-309.5 357,-366.5 446,-366.5 446,-309.5 357,-309.5"/>
<text text-anchor="middle" x="401.5" y="-354.5" font-family="Helvetica,sans-Serif" font-size="10.00">std::vector&lt; T &gt;</text>
<polyline fill="none" stroke="#bfbfbf" points="357,-347.5 446,-347.5 "/>
<text text-anchor="middle" x="401.5" y="-335.5" font-family="Helvetica,sans-Serif" font-size="10.00"> </text>
<polyline fill="none" stroke="#bfbfbf" points="357,-328.5 446,-328.5 "/>
<text text-anchor="middle" x="401.5" y="-316.5" font-family="Helvetica,sans-Serif" font-size="10.00"> </text>
</a>
</g>
</g>
<!-- Node6&#45;&gt;Node5 -->
<g id="edge7" class="edge"><title>Node6&#45;&gt;Node5</title>
<path fill="none" stroke="orange" d="M385.518,-299.817C378.651,-283.841 370.765,-265.494 364.422,-250.737"/>
<polygon fill="orange" stroke="orange" points="382.474,-301.599 389.638,-309.404 388.905,-298.834 382.474,-301.599"/>
<text text-anchor="middle" x="404.5" y="-283" font-family="Helvetica,sans-Serif" font-size="10.00"> &lt; size_t &gt;</text>
</g>
<!-- Node8 -->
<g id="node8" class="node"><title>Node8</title>
<polygon fill="white" stroke="#bfbfbf" points="425,-193.5 425,-250.5 538,-250.5 538,-193.5 425,-193.5"/>
<text text-anchor="middle" x="481.5" y="-238.5" font-family="Helvetica,sans-Serif" font-size="10.00">std::vector&lt; double &gt;</text>
<polyline fill="none" stroke="#bfbfbf" points="425,-231.5 538,-231.5 "/>
<text text-anchor="start" x="433" y="-219.5" font-family="Helvetica,sans-Serif" font-size="10.00">+ elements</text>
<polyline fill="none" stroke="#bfbfbf" points="425,-212.5 538,-212.5 "/>
<text text-anchor="middle" x="481.5" y="-200.5" font-family="Helvetica,sans-Serif" font-size="10.00"> </text>
</g>
<!-- Node6&#45;&gt;Node8 -->
<g id="edge10" class="edge"><title>Node6&#45;&gt;Node8</title>
<path fill="none" stroke="orange" d="M426.646,-301.167C438.073,-284.883 451.387,-265.912 462.035,-250.737"/>
<polygon fill="orange" stroke="orange" points="423.745,-299.208 420.866,-309.404 429.475,-303.229 423.745,-299.208"/>
<text text-anchor="middle" x="467.5" y="-283" font-family="Helvetica,sans-Serif" font-size="10.00"> &lt; double &gt;</text>
</g>
<!-- Node7 -->
<g id="node7" class="node"><title>Node7</title>
<polygon fill="white" stroke="#bfbfbf" points="387,-414.5 387,-471.5 416,-471.5 416,-414.5 387,-414.5"/>
<text text-anchor="middle" x="401.5" y="-459.5" font-family="Helvetica,sans-Serif" font-size="10.00">T</text>
<polyline fill="none" stroke="#bfbfbf" points="387,-452.5 416,-452.5 "/>
<text text-anchor="middle" x="401.5" y="-440.5" font-family="Helvetica,sans-Serif" font-size="10.00"> </text>
<polyline fill="none" stroke="#bfbfbf" points="387,-433.5 416,-433.5 "/>
<text text-anchor="middle" x="401.5" y="-421.5" font-family="Helvetica,sans-Serif" font-size="10.00"> </text>
</g>
<!-- Node7&#45;&gt;Node6 -->
<g id="edge8" class="edge"><title>Node7&#45;&gt;Node6</title>
<path fill="none" stroke="#404040" d="M401.5,-414.398C401.5,-403.545 401.5,-390.873 401.5,-379.049"/>
<polygon fill="none" stroke="#404040" points="401.5,-378.678 397.5,-372.678 401.5,-366.678 405.5,-372.678 401.5,-378.678"/>
<text text-anchor="middle" x="427" y="-388" font-family="Helvetica,sans-Serif" font-size="10.00"> +elements</text>
</g>
<!-- Node8&#45;&gt;Node1 -->
<g id="edge9" class="edge"><title>Node8&#45;&gt;Node1</title>
<path fill="none" stroke="#404040" d="M436.048,-193.308C429.225,-189.395 422.224,-185.513 415.5,-182 348.685,-147.09 269.65,-111.724 216.404,-88.7259"/>
<polygon fill="none" stroke="#404040" points="216.137,-88.6113 209.045,-89.9141 205.114,-83.8684 212.207,-82.5655 216.137,-88.6113"/>
<text text-anchor="middle" x="397.5" y="-156" font-family="Helvetica,sans-Serif" font-size="10.00"> #convrate</text>
<text text-anchor="middle" x="397.5" y="-145" font-family="Helvetica,sans-Serif" font-size="10.00">#err</text>
</g>
</g>
</svg>
        <g id="navigator" transform="translate(0 0)" fill="#404254">
                <rect fill="#f2f5e9" fill-opacity="0.5" stroke="#606060" stroke-width=".5" x="0" y="0" width="60" height="60"/>
                <use id="zoomplus" xlink:href="#zoomPlus" x="17" y="9" onmousedown="handleZoom(evt,'in')"/>
                <use id="zoomminus" xlink:href="#zoomMin" x="42" y="9" onmousedown="handleZoom(evt,'out')"/>
                <use id="reset" xlink:href="#resetDef" x="30" y="36" onmousedown="handleReset()"/>
                <g id="arrowUp" xlink:href="#dirArrow" transform="translate(30 24)" onmousedown="handlePan(0,-1)">
                  <use xlink:href="#rim" fill="#404040">
                        <set attributeName="fill" to="#808080" begin="arrowUp.mouseover" end="arrowUp.mouseout"/>
                  </use>
                  <path fill="none" stroke="white" stroke-width="1.5" d="M0,-3.0v7 M-2.5,-0.5L0,-3.0L2.5,-0.5"/>
                </g>
                <g id="arrowRight" xlink:href="#dirArrow" transform="rotate(90) translate(36 -43)" onmousedown="handlePan(1,0)">
                  <use xlink:href="#rim" fill="#404040">
                        <set attributeName="fill" to="#808080" begin="arrowRight.mouseover" end="arrowRight.mouseout"/>
                  </use>
                  <path fill="none" stroke="white" stroke-width="1.5" d="M0,-3.0v7 M-2.5,-0.5L0,-3.0L2.5,-0.5"/>
                </g>
                <g id="arrowDown" xlink:href="#dirArrow" transform="rotate(180) translate(-30 -48)" onmousedown="handlePan(0,1)">
                  <use xlink:href="#rim" fill="#404040">
                        <set attributeName="fill" to="#808080" begin="arrowDown.mouseover" end="arrowDown.mouseout"/>
                  </use>
                  <path fill="none" stroke="white" stroke-width="1.5" d="M0,-3.0v7 M-2.5,-0.5L0,-3.0L2.5,-0.5"/>
                </g>
                <g id="arrowLeft" xlink:href="#dirArrow" transform="rotate(270) translate(-36 17)" onmousedown="handlePan(-1,0)">
                  <use xlink:href="#rim" fill="#404040">
                        <set attributeName="fill" to="#808080" begin="arrowLeft.mouseover" end="arrowLeft.mouseout"/>
                  </use>
                  <path fill="none" stroke="white" stroke-width="1.5" d="M0,-3.0v7 M-2.5,-0.5L0,-3.0L2.5,-0.5"/>
                </g>
        </g>
        <svg viewBox="0 0 15 15" width="100%" height="30px" preserveAspectRatio="xMaxYMin meet">
         <g id="arrow_out" transform="scale(0.3 0.3)">
          <a xlink:href="classConvergenceTest__coll__graph_org.svg" target="_base">
           <rect id="button" ry="5" rx="5" y="6" x="6" height="38" width="38"
                fill="#f2f5e9" fill-opacity="0.5" stroke="#606060" stroke-width="1.0"/>
           <path id="arrow"
             d="M 11.500037,31.436501 C 11.940474,20.09759 22.043105,11.32322 32.158766,21.979434 L 37.068811,17.246167 C 37.068811,17.246167 37.088388,32 37.088388,32 L 22.160133,31.978069 C 22.160133,31.978069 26.997745,27.140456 26.997745,27.140456 C 18.528582,18.264221 13.291696,25.230495 11.500037,31.436501 z"
             style="fill:#404040;"/>
          </a>
         </g>
        </svg>
</svg>
