<?xml version="1.0" encoding="UTF-8" standalone="no"?>
<!DOCTYPE svg PUBLIC "-//W3C//DTD SVG 1.1//EN"
 "http://www.w3.org/Graphics/SVG/1.1/DTD/svg11.dtd">
<!-- Generated by graphviz version 2.38.0 (20140413.2041)
 -->
<!-- Title: simple_physics_solver::internal::scale_mat_mul_vec Pages: 1 -->
<svg width="712pt" height="218pt"
 viewBox="0.00 0.00 712.00 218.00" xmlns="http://www.w3.org/2000/svg" xmlns:xlink="http://www.w3.org/1999/xlink">
<g id="graph0" class="graph" transform="scale(1 1) rotate(0) translate(4 214)">
<title>simple_physics_solver::internal::scale_mat_mul_vec</title>
<polygon fill="white" stroke="none" points="-4,4 -4,-214 708,-214 708,4 -4,4"/>
<!-- Node1 -->
<g id="node1" class="node"><title>Node1</title>
<polygon fill="#bfbfbf" stroke="black" points="0,-108.5 0,-149.5 118,-149.5 118,-108.5 0,-108.5"/>
<text text-anchor="start" x="8" y="-137.5" font-family="Helvetica,sans-Serif" font-size="10.00">simple_physics_solver</text>
<text text-anchor="start" x="8" y="-126.5" font-family="Helvetica,sans-Serif" font-size="10.00">::internal::scale_mat</text>
<text text-anchor="middle" x="59" y="-115.5" font-family="Helvetica,sans-Serif" font-size="10.00">_mul_vec</text>
</g>
<!-- Node2 -->
<g id="node2" class="node"><title>Node2</title>
<g id="a_node2"><a xlink:href="../../d3/d58/group__ExternalSolver.html#ga35a08082721768fea4430beb933878fe" target="_top" xlink:title="simple_physics_solver\l::compute_energy">
<polygon fill="white" stroke="black" points="164,-168 164,-198 282,-198 282,-168 164,-168"/>
<text text-anchor="start" x="172" y="-186" font-family="Helvetica,sans-Serif" font-size="10.00">simple_physics_solver</text>
<text text-anchor="middle" x="223" y="-175" font-family="Helvetica,sans-Serif" font-size="10.00">::compute_energy</text>
</a>
</g>
</g>
<!-- Node1&#45;&gt;Node2 -->
<g id="edge1" class="edge"><title>Node1&#45;&gt;Node2</title>
<path fill="none" stroke="midnightblue" d="M127.678,-151.559C144.255,-157.085 161.597,-162.866 176.824,-167.941"/>
<polygon fill="midnightblue" stroke="midnightblue" points="128.622,-148.185 118.028,-148.343 126.408,-154.825 128.622,-148.185"/>
</g>
<!-- Node4 -->
<g id="node4" class="node"><title>Node4</title>
<g id="a_node4"><a xlink:href="../../d3/d58/group__ExternalSolver.html#ga4d3f823dd780fdb9db70409092cfa56f" target="_top" xlink:title="simple_physics_solver\l::evaluate_b_field">
<polygon fill="white" stroke="black" points="164,-114 164,-144 282,-144 282,-114 164,-114"/>
<text text-anchor="start" x="172" y="-132" font-family="Helvetica,sans-Serif" font-size="10.00">simple_physics_solver</text>
<text text-anchor="middle" x="223" y="-121" font-family="Helvetica,sans-Serif" font-size="10.00">::evaluate_b_field</text>
</a>
</g>
</g>
<!-- Node1&#45;&gt;Node4 -->
<g id="edge3" class="edge"><title>Node1&#45;&gt;Node4</title>
<path fill="none" stroke="midnightblue" d="M128.296,-129C140.118,-129 152.311,-129 163.833,-129"/>
<polygon fill="midnightblue" stroke="midnightblue" points="128.028,-125.5 118.028,-129 128.028,-132.5 128.028,-125.5"/>
</g>
<!-- Node6 -->
<g id="node6" class="node"><title>Node6</title>
<g id="a_node6"><a xlink:href="../../d3/d58/group__ExternalSolver.html#gaf772294be99b782e400e0f19c4bccf45" target="_top" xlink:title="simple_physics_solver\l::evaluate_external_e_field">
<polygon fill="white" stroke="black" points="154,-60 154,-90 292,-90 292,-60 154,-60"/>
<text text-anchor="start" x="162" y="-78" font-family="Helvetica,sans-Serif" font-size="10.00">simple_physics_solver</text>
<text text-anchor="middle" x="223" y="-67" font-family="Helvetica,sans-Serif" font-size="10.00">::evaluate_external_e_field</text>
</a>
</g>
</g>
<!-- Node1&#45;&gt;Node6 -->
<g id="edge5" class="edge"><title>Node1&#45;&gt;Node6</title>
<path fill="none" stroke="midnightblue" d="M127.678,-106.441C144.255,-100.915 161.597,-95.1342 176.824,-90.0586"/>
<polygon fill="midnightblue" stroke="midnightblue" points="126.408,-103.175 118.028,-109.657 128.622,-109.815 126.408,-103.175"/>
</g>
<!-- Node3 -->
<g id="node3" class="node"><title>Node3</title>
<g id="a_node3"><a xlink:href="../../d0/d84/classpfasst_1_1examples_1_1boris_1_1bindings_1_1WrapperSimplePhysicsSolver.html#a15f1fd094873a0f6ab40a444ea3ccfbf" target="_top" xlink:title="pfasst::examples::boris\l::bindings::WrapperSimplePhysics\lSolver::energy">
<polygon fill="white" stroke="black" points="328,-168.5 328,-209.5 498,-209.5 498,-168.5 328,-168.5"/>
<text text-anchor="start" x="336" y="-197.5" font-family="Helvetica,sans-Serif" font-size="10.00">pfasst::examples::boris</text>
<text text-anchor="start" x="336" y="-186.5" font-family="Helvetica,sans-Serif" font-size="10.00">::bindings::WrapperSimplePhysics</text>
<text text-anchor="middle" x="413" y="-175.5" font-family="Helvetica,sans-Serif" font-size="10.00">Solver::energy</text>
</a>
</g>
</g>
<!-- Node2&#45;&gt;Node3 -->
<g id="edge2" class="edge"><title>Node2&#45;&gt;Node3</title>
<path fill="none" stroke="midnightblue" d="M292.203,-185.177C303.778,-185.546 315.919,-185.934 327.845,-186.314"/>
<polygon fill="midnightblue" stroke="midnightblue" points="292.303,-181.678 282.197,-184.857 292.08,-188.675 292.303,-181.678"/>
</g>
<!-- Node5 -->
<g id="node5" class="node"><title>Node5</title>
<g id="a_node5"><a xlink:href="../../d0/d84/classpfasst_1_1examples_1_1boris_1_1bindings_1_1WrapperSimplePhysicsSolver.html#a793b294bafe346cb496149f404895dbc" target="_top" xlink:title="pfasst::examples::boris\l::bindings::WrapperSimplePhysics\lSolver::b_field_evaluate">
<polygon fill="white" stroke="black" points="328,-108.5 328,-149.5 498,-149.5 498,-108.5 328,-108.5"/>
<text text-anchor="start" x="336" y="-137.5" font-family="Helvetica,sans-Serif" font-size="10.00">pfasst::examples::boris</text>
<text text-anchor="start" x="336" y="-126.5" font-family="Helvetica,sans-Serif" font-size="10.00">::bindings::WrapperSimplePhysics</text>
<text text-anchor="middle" x="413" y="-115.5" font-family="Helvetica,sans-Serif" font-size="10.00">Solver::b_field_evaluate</text>
</a>
</g>
</g>
<!-- Node4&#45;&gt;Node5 -->
<g id="edge4" class="edge"><title>Node4&#45;&gt;Node5</title>
<path fill="none" stroke="midnightblue" d="M292.203,-129C303.778,-129 315.919,-129 327.845,-129"/>
<polygon fill="midnightblue" stroke="midnightblue" points="292.197,-125.5 282.197,-129 292.197,-132.5 292.197,-125.5"/>
</g>
<!-- Node7 -->
<g id="node7" class="node"><title>Node7</title>
<g id="a_node7"><a xlink:href="../../d3/d58/group__ExternalSolver.html#ga62eb48c2baa39269409b587b30e61cf5" target="_top" xlink:title="simple_physics_solver\l::evaluate_e_field">
<polygon fill="white" stroke="black" points="354,-60 354,-90 472,-90 472,-60 354,-60"/>
<text text-anchor="start" x="362" y="-78" font-family="Helvetica,sans-Serif" font-size="10.00">simple_physics_solver</text>
<text text-anchor="middle" x="413" y="-67" font-family="Helvetica,sans-Serif" font-size="10.00">::evaluate_e_field</text>
</a>
</g>
</g>
<!-- Node6&#45;&gt;Node7 -->
<g id="edge6" class="edge"><title>Node6&#45;&gt;Node7</title>
<path fill="none" stroke="midnightblue" d="M302.189,-75C319.435,-75 337.412,-75 353.707,-75"/>
<polygon fill="midnightblue" stroke="midnightblue" points="302.138,-71.5001 292.138,-75 302.138,-78.5001 302.138,-71.5001"/>
</g>
<!-- Node9 -->
<g id="node9" class="node"><title>Node9</title>
<g id="a_node9"><a xlink:href="../../d0/d84/classpfasst_1_1examples_1_1boris_1_1bindings_1_1WrapperSimplePhysicsSolver.html#afe0ebd15177a08725d8ce64af6ff29d0" target="_top" xlink:title="pfasst::examples::boris\l::bindings::WrapperSimplePhysics\lSolver::external_e_field_evaluate">
<polygon fill="white" stroke="black" points="328,-0.5 328,-41.5 498,-41.5 498,-0.5 328,-0.5"/>
<text text-anchor="start" x="336" y="-29.5" font-family="Helvetica,sans-Serif" font-size="10.00">pfasst::examples::boris</text>
<text text-anchor="start" x="336" y="-18.5" font-family="Helvetica,sans-Serif" font-size="10.00">::bindings::WrapperSimplePhysics</text>
<text text-anchor="middle" x="413" y="-7.5" font-family="Helvetica,sans-Serif" font-size="10.00">Solver::external_e_field_evaluate</text>
</a>
</g>
</g>
<!-- Node6&#45;&gt;Node9 -->
<g id="edge8" class="edge"><title>Node6&#45;&gt;Node9</title>
<path fill="none" stroke="midnightblue" d="M286.385,-57.081C303.752,-52.0924 322.749,-46.6358 340.592,-41.5107"/>
<polygon fill="midnightblue" stroke="midnightblue" points="285.014,-53.8332 276.368,-59.958 286.946,-60.5612 285.014,-53.8332"/>
</g>
<!-- Node8 -->
<g id="node8" class="node"><title>Node8</title>
<g id="a_node8"><a xlink:href="../../d0/d84/classpfasst_1_1examples_1_1boris_1_1bindings_1_1WrapperSimplePhysicsSolver.html#afcf4adbdf93953882bb4f1f3a0c955be" target="_top" xlink:title="pfasst::examples::boris\l::bindings::WrapperSimplePhysics\lSolver::e_field_evaluate">
<polygon fill="white" stroke="black" points="534,-54.5 534,-95.5 704,-95.5 704,-54.5 534,-54.5"/>
<text text-anchor="start" x="542" y="-83.5" font-family="Helvetica,sans-Serif" font-size="10.00">pfasst::examples::boris</text>
<text text-anchor="start" x="542" y="-72.5" font-family="Helvetica,sans-Serif" font-size="10.00">::bindings::WrapperSimplePhysics</text>
<text text-anchor="middle" x="619" y="-61.5" font-family="Helvetica,sans-Serif" font-size="10.00">Solver::e_field_evaluate</text>
</a>
</g>
</g>
<!-- Node7&#45;&gt;Node8 -->
<g id="edge7" class="edge"><title>Node7&#45;&gt;Node8</title>
<path fill="none" stroke="midnightblue" d="M482.292,-75C498.829,-75 516.697,-75 533.869,-75"/>
<polygon fill="midnightblue" stroke="midnightblue" points="482.185,-71.5001 472.185,-75 482.185,-78.5001 482.185,-71.5001"/>
</g>
</g>
</svg>
