<?xml version="1.0" encoding="UTF-8" standalone="no"?>
<!DOCTYPE svg PUBLIC "-//W3C//DTD SVG 1.1//EN"
 "http://www.w3.org/Graphics/SVG/1.1/DTD/svg11.dtd">
<!-- Generated by graphviz version 2.38.0 (20140413.2041)
 -->
<!-- Title: simple_physics_solver::internal::scalar_prod Pages: 1 -->
<svg width="486pt" height="50pt"
 viewBox="0.00 0.00 486.00 50.00" xmlns="http://www.w3.org/2000/svg" xmlns:xlink="http://www.w3.org/1999/xlink">
<g id="graph0" class="graph" transform="scale(1 1) rotate(0) translate(4 46)">
<title>simple_physics_solver::internal::scalar_prod</title>
<polygon fill="white" stroke="none" points="-4,4 -4,-46 482,-46 482,4 -4,4"/>
<!-- Node1 -->
<g id="node1" class="node"><title>Node1</title>
<polygon fill="#bfbfbf" stroke="black" points="0,-6 0,-36 118,-36 118,-6 0,-6"/>
<text text-anchor="start" x="8" y="-24" font-family="Helvetica,sans-Serif" font-size="10.00">simple_physics_solver</text>
<text text-anchor="middle" x="59" y="-13" font-family="Helvetica,sans-Serif" font-size="10.00">::internal::scalar_prod</text>
</g>
<!-- Node2 -->
<g id="node2" class="node"><title>Node2</title>
<g id="a_node2"><a xlink:href="../../d3/d58/group__ExternalSolver.html#ga35a08082721768fea4430beb933878fe" target="_top" xlink:title="simple_physics_solver\l::compute_energy">
<polygon fill="white" stroke="black" points="154,-6 154,-36 272,-36 272,-6 154,-6"/>
<text text-anchor="start" x="162" y="-24" font-family="Helvetica,sans-Serif" font-size="10.00">simple_physics_solver</text>
<text text-anchor="middle" x="213" y="-13" font-family="Helvetica,sans-Serif" font-size="10.00">::compute_energy</text>
</a>
</g>
</g>
<!-- Node1&#45;&gt;Node2 -->
<g id="edge1" class="edge"><title>Node1&#45;&gt;Node2</title>
<path fill="none" stroke="midnightblue" d="M128.542,-21C136.986,-21 145.554,-21 153.824,-21"/>
<polygon fill="midnightblue" stroke="midnightblue" points="128.332,-17.5001 118.332,-21 128.332,-24.5001 128.332,-17.5001"/>
</g>
<!-- Node3 -->
<g id="node3" class="node"><title>Node3</title>
<g id="a_node3"><a xlink:href="../../d0/d84/classpfasst_1_1examples_1_1boris_1_1bindings_1_1WrapperSimplePhysicsSolver.html#a15f1fd094873a0f6ab40a444ea3ccfbf" target="_top" xlink:title="pfasst::examples::boris\l::bindings::WrapperSimplePhysics\lSolver::energy">
<polygon fill="white" stroke="black" points="308,-0.5 308,-41.5 478,-41.5 478,-0.5 308,-0.5"/>
<text text-anchor="start" x="316" y="-29.5" font-family="Helvetica,sans-Serif" font-size="10.00">pfasst::examples::boris</text>
<text text-anchor="start" x="316" y="-18.5" font-family="Helvetica,sans-Serif" font-size="10.00">::bindings::WrapperSimplePhysics</text>
<text text-anchor="middle" x="393" y="-7.5" font-family="Helvetica,sans-Serif" font-size="10.00">Solver::energy</text>
</a>
</g>
</g>
<!-- Node2&#45;&gt;Node3 -->
<g id="edge2" class="edge"><title>Node2&#45;&gt;Node3</title>
<path fill="none" stroke="midnightblue" d="M282.301,-21C290.635,-21 299.225,-21 307.757,-21"/>
<polygon fill="midnightblue" stroke="midnightblue" points="282.284,-17.5001 272.284,-21 282.284,-24.5001 282.284,-17.5001"/>
</g>
</g>
</svg>
