<?xml version="1.0" encoding="UTF-8" standalone="no"?>
<!DOCTYPE svg PUBLIC "-//W3C//DTD SVG 1.1//EN"
 "http://www.w3.org/Graphics/SVG/1.1/DTD/svg11.dtd">
<!-- Generated by graphviz version 2.38.0 (20140413.2041)
 -->
<!-- Title: Boris Pages: 1 -->
<svg width="237pt" height="104pt"
 viewBox="0.00 0.00 237.00 104.00" xmlns="http://www.w3.org/2000/svg" xmlns:xlink="http://www.w3.org/1999/xlink">
<g id="graph0" class="graph" transform="scale(1 1) rotate(0) translate(4 100)">
<title>Boris</title>
<polygon fill="white" stroke="none" points="-4,4 -4,-100 233,-100 233,4 -4,4"/>
<!-- Node2 -->
<g id="node1" class="node"><title>Node2</title>
<g id="a_node1"><a xlink:href="../../d0/d55/group__BorisBindings.html" target="_top" xlink:title="Bindings">
<polygon fill="white" stroke="black" points="173,-76.5 173,-95.5 229,-95.5 229,-76.5 173,-76.5"/>
<text text-anchor="middle" x="201" y="-83.5" font-family="Helvetica,sans-Serif" font-size="10.00">Bindings</text>
</a>
</g>
</g>
<!-- Node0 -->
<g id="node2" class="node"><title>Node0</title>
<polygon fill="#bfbfbf" stroke="black" points="97,-38.5 97,-57.5 137,-57.5 137,-38.5 97,-38.5"/>
<text text-anchor="middle" x="117" y="-45.5" font-family="Helvetica,sans-Serif" font-size="10.00">Boris</text>
</g>
<!-- Node0&#45;&gt;Node2 -->
<g id="edge2" class="edge"><title>Node0&#45;&gt;Node2</title>
<path fill="none" stroke="black" d="M146.161,-61.0502C157.06,-66.101 169.305,-71.7757 179.361,-76.4355"/>
<polygon fill="black" stroke="black" points="147.563,-57.8426 137.019,-56.8135 144.62,-64.1937 147.563,-57.8426"/>
</g>
<!-- Node4 -->
<g id="node4" class="node"><title>Node4</title>
<g id="a_node4"><a xlink:href="../../d3/d59/group__BorisUtilities.html" target="_top" xlink:title="Utilities">
<polygon fill="white" stroke="black" points="177,-38.5 177,-57.5 225,-57.5 225,-38.5 177,-38.5"/>
<text text-anchor="middle" x="201" y="-45.5" font-family="Helvetica,sans-Serif" font-size="10.00">Utilities</text>
</a>
</g>
</g>
<!-- Node0&#45;&gt;Node4 -->
<g id="edge4" class="edge"><title>Node0&#45;&gt;Node4</title>
<path fill="none" stroke="black" d="M147.146,-48C156.946,-48 167.734,-48 176.995,-48"/>
<polygon fill="black" stroke="black" points="147.019,-44.5001 137.019,-48 147.019,-51.5001 147.019,-44.5001"/>
</g>
<!-- Node3 -->
<g id="node5" class="node"><title>Node3</title>
<g id="a_node5"><a xlink:href="../../da/d6d/group__BorisFiles.html" target="_top" xlink:title="Files">
<polygon fill="white" stroke="black" points="182,-0.5 182,-19.5 220,-19.5 220,-0.5 182,-0.5"/>
<text text-anchor="middle" x="201" y="-7.5" font-family="Helvetica,sans-Serif" font-size="10.00">Files</text>
</a>
</g>
</g>
<!-- Node0&#45;&gt;Node3 -->
<g id="edge3" class="edge"><title>Node0&#45;&gt;Node3</title>
<path fill="none" stroke="black" d="M146.099,-34.9783C157.96,-29.482 171.424,-23.2425 181.929,-18.3745"/>
<polygon fill="black" stroke="black" points="144.62,-31.8063 137.019,-39.1865 147.563,-38.1574 144.62,-31.8063"/>
</g>
<!-- Node1 -->
<g id="node3" class="node"><title>Node1</title>
<g id="a_node3"><a xlink:href="../../d4/dfb/group__Examples.html" target="_top" xlink:title="A few different examples demonstrating the use and functionality of PFASST++. ">
<polygon fill="white" stroke="black" points="0,-38.5 0,-57.5 61,-57.5 61,-38.5 0,-38.5"/>
<text text-anchor="middle" x="30.5" y="-45.5" font-family="Helvetica,sans-Serif" font-size="10.00">Examples</text>
</a>
</g>
</g>
<!-- Node1&#45;&gt;Node0 -->
<g id="edge1" class="edge"><title>Node1&#45;&gt;Node0</title>
<path fill="none" stroke="black" d="M71.0588,-48C80.0593,-48 89.2233,-48 96.9081,-48"/>
<polygon fill="black" stroke="black" points="71.054,-44.5001 61.054,-48 71.054,-51.5001 71.054,-44.5001"/>
</g>
</g>
</svg>
