<?xml version="1.0" encoding="UTF-8" standalone="no"?>
<!DOCTYPE svg PUBLIC "-//W3C//DTD SVG 1.1//EN"
 "http://www.w3.org/Graphics/SVG/1.1/DTD/svg11.dtd">
<!-- Generated by graphviz version 2.38.0 (20140413.2041)
 -->
<!-- Title: include/pfasst/quadrature/polynomial.hpp Pages: 1 -->
<svg width="271pt" height="162pt"
 viewBox="0.00 0.00 270.50 162.00" xmlns="http://www.w3.org/2000/svg" xmlns:xlink="http://www.w3.org/1999/xlink">
<g id="graph0" class="graph" transform="scale(1 1) rotate(0) translate(4 158)">
<title>include/pfasst/quadrature/polynomial.hpp</title>
<polygon fill="white" stroke="none" points="-4,4 -4,-158 266.5,-158 266.5,4 -4,4"/>
<!-- Node1 -->
<g id="node1" class="node"><title>Node1</title>
<polygon fill="#bfbfbf" stroke="black" points="70,-123.5 70,-153.5 200,-153.5 200,-123.5 70,-123.5"/>
<text text-anchor="start" x="78" y="-141.5" font-family="Helvetica,sans-Serif" font-size="10.00">include/pfasst/quadrature</text>
<text text-anchor="middle" x="135" y="-130.5" font-family="Helvetica,sans-Serif" font-size="10.00">/polynomial.hpp</text>
</g>
<!-- Node2 -->
<g id="node2" class="node"><title>Node2</title>
<polygon fill="white" stroke="#bfbfbf" points="-3.55271e-15,-62 -3.55271e-15,-81 44,-81 44,-62 -3.55271e-15,-62"/>
<text text-anchor="middle" x="22" y="-69" font-family="Helvetica,sans-Serif" font-size="10.00">vector</text>
</g>
<!-- Node1&#45;&gt;Node2 -->
<g id="edge1" class="edge"><title>Node1&#45;&gt;Node2</title>
<path fill="none" stroke="midnightblue" d="M110.481,-123.396C91.2677,-112.344 64.6979,-97.0607 45.6986,-86.1319"/>
<polygon fill="midnightblue" stroke="midnightblue" points="47.2025,-82.9593 36.7891,-81.007 43.7122,-89.0271 47.2025,-82.9593"/>
</g>
<!-- Node3 -->
<g id="node3" class="node"><title>Node3</title>
<g id="a_node3"><a xlink:href="../../dc/de8/polynomial__impl_8hpp.html" target="_top" xlink:title="pfasst/quadrature/polynomial\l_impl.hpp">
<polygon fill="white" stroke="black" points="62,-56.5 62,-86.5 208,-86.5 208,-56.5 62,-56.5"/>
<text text-anchor="start" x="70" y="-74.5" font-family="Helvetica,sans-Serif" font-size="10.00">pfasst/quadrature/polynomial</text>
<text text-anchor="middle" x="135" y="-63.5" font-family="Helvetica,sans-Serif" font-size="10.00">_impl.hpp</text>
</a>
</g>
</g>
<!-- Node1&#45;&gt;Node3 -->
<g id="edge2" class="edge"><title>Node1&#45;&gt;Node3</title>
<path fill="none" stroke="midnightblue" d="M129.322,-123.396C128.294,-115.56 128.005,-105.596 128.456,-96.5653"/>
<polygon fill="midnightblue" stroke="midnightblue" points="131.945,-96.8422 129.325,-86.5765 124.972,-96.2355 131.945,-96.8422"/>
</g>
<!-- Node3&#45;&gt;Node1 -->
<g id="edge3" class="edge"><title>Node3&#45;&gt;Node1</title>
<path fill="none" stroke="midnightblue" d="M140.675,-86.5765C141.704,-94.4078 141.995,-104.37 141.545,-113.403"/>
<polygon fill="midnightblue" stroke="midnightblue" points="138.056,-113.131 140.678,-123.396 145.03,-113.736 138.056,-113.131"/>
</g>
<!-- Node4 -->
<g id="node4" class="node"><title>Node4</title>
<polygon fill="white" stroke="#bfbfbf" points="1,-0.5 1,-19.5 59,-19.5 59,-0.5 1,-0.5"/>
<text text-anchor="middle" x="30" y="-7.5" font-family="Helvetica,sans-Serif" font-size="10.00">algorithm</text>
</g>
<!-- Node3&#45;&gt;Node4 -->
<g id="edge4" class="edge"><title>Node3&#45;&gt;Node4</title>
<path fill="none" stroke="midnightblue" d="M110.116,-56.3993C93.2858,-46.8619 71.1614,-34.3248 54.4274,-24.8422"/>
<polygon fill="midnightblue" stroke="midnightblue" points="55.7042,-21.5429 45.2784,-19.6578 52.2531,-27.633 55.7042,-21.5429"/>
</g>
<!-- Node5 -->
<g id="node5" class="node"><title>Node5</title>
<polygon fill="white" stroke="#bfbfbf" points="77,-0.5 77,-19.5 127,-19.5 127,-0.5 77,-0.5"/>
<text text-anchor="middle" x="102" y="-7.5" font-family="Helvetica,sans-Serif" font-size="10.00">cassert</text>
</g>
<!-- Node3&#45;&gt;Node5 -->
<g id="edge5" class="edge"><title>Node3&#45;&gt;Node5</title>
<path fill="none" stroke="midnightblue" d="M127.179,-56.3993C122.532,-48.0207 116.601,-37.3269 111.663,-28.4229"/>
<polygon fill="midnightblue" stroke="midnightblue" points="114.713,-26.7052 106.802,-19.6578 108.591,-30.1004 114.713,-26.7052"/>
</g>
<!-- Node6 -->
<g id="node6" class="node"><title>Node6</title>
<polygon fill="white" stroke="#bfbfbf" points="145,-0.5 145,-19.5 189,-19.5 189,-0.5 145,-0.5"/>
<text text-anchor="middle" x="167" y="-7.5" font-family="Helvetica,sans-Serif" font-size="10.00">cmath</text>
</g>
<!-- Node3&#45;&gt;Node6 -->
<g id="edge6" class="edge"><title>Node3&#45;&gt;Node6</title>
<path fill="none" stroke="midnightblue" d="M142.584,-56.3993C147.042,-48.1098 152.719,-37.5542 157.477,-28.7077"/>
<polygon fill="midnightblue" stroke="midnightblue" points="160.69,-30.1227 162.344,-19.6578 154.525,-26.8071 160.69,-30.1227"/>
</g>
<!-- Node7 -->
<g id="node7" class="node"><title>Node7</title>
<polygon fill="white" stroke="#bfbfbf" points="207.5,-0.5 207.5,-19.5 262.5,-19.5 262.5,-0.5 207.5,-0.5"/>
<text text-anchor="middle" x="235" y="-7.5" font-family="Helvetica,sans-Serif" font-size="10.00">complex</text>
</g>
<!-- Node3&#45;&gt;Node7 -->
<g id="edge7" class="edge"><title>Node3&#45;&gt;Node7</title>
<path fill="none" stroke="midnightblue" d="M158.699,-56.3993C174.728,-46.8619 195.799,-34.3248 211.736,-24.8422"/>
<polygon fill="midnightblue" stroke="midnightblue" points="213.645,-27.779 220.449,-19.6578 210.066,-21.7633 213.645,-27.779"/>
</g>
</g>
</svg>
