<?xml version="1.0" encoding="UTF-8" standalone="no"?>
<!DOCTYPE svg PUBLIC "-//W3C//DTD SVG 1.1//EN"
 "http://www.w3.org/Graphics/SVG/1.1/DTD/svg11.dtd">
<!-- Generated by graphviz version 2.38.0 (20140413.2041)
 -->
<!-- Title: src/pfasst/quadrature/interface_impl.hpp Pages: 1 -->
<svg width="1535pt" height="597pt"
 viewBox="0.00 0.00 1534.50 597.00" xmlns="http://www.w3.org/2000/svg" xmlns:xlink="http://www.w3.org/1999/xlink">
<g id="graph0" class="graph" transform="scale(1 1) rotate(0) translate(4 593)">
<title>src/pfasst/quadrature/interface_impl.hpp</title>
<polygon fill="white" stroke="none" points="-4,4 -4,-593 1530.5,-593 1530.5,4 -4,4"/>
<!-- Node1 -->
<g id="node1" class="node"><title>Node1</title>
<polygon fill="#bfbfbf" stroke="black" points="939,-558.5 939,-588.5 1050,-588.5 1050,-558.5 939,-558.5"/>
<text text-anchor="start" x="947" y="-576.5" font-family="Helvetica,sans-Serif" font-size="10.00">src/pfasst/quadrature</text>
<text text-anchor="middle" x="994.5" y="-565.5" font-family="Helvetica,sans-Serif" font-size="10.00">/interface_impl.hpp</text>
</g>
<!-- Node2 -->
<g id="node2" class="node"><title>Node2</title>
<g id="a_node2"><a xlink:href="../../df/dea/quadrature_2interface_8hpp.html" target="_top" xlink:title="include/pfasst/quadrature\l/interface.hpp">
<polygon fill="white" stroke="black" points="929.5,-491.5 929.5,-521.5 1059.5,-521.5 1059.5,-491.5 929.5,-491.5"/>
<text text-anchor="start" x="937.5" y="-509.5" font-family="Helvetica,sans-Serif" font-size="10.00">include/pfasst/quadrature</text>
<text text-anchor="middle" x="994.5" y="-498.5" font-family="Helvetica,sans-Serif" font-size="10.00">/interface.hpp</text>
</a>
</g>
</g>
<!-- Node1&#45;&gt;Node2 -->
<g id="edge1" class="edge"><title>Node1&#45;&gt;Node2</title>
<path fill="none" stroke="midnightblue" d="M987.955,-548.403C987.505,-539.37 987.796,-529.408 988.825,-521.577"/>
<polygon fill="midnightblue" stroke="midnightblue" points="984.47,-548.736 988.822,-558.396 991.444,-548.131 984.47,-548.736"/>
</g>
<!-- Node2&#45;&gt;Node1 -->
<g id="edge63" class="edge"><title>Node2&#45;&gt;Node1</title>
<path fill="none" stroke="midnightblue" d="M1001.04,-531.565C1001.49,-540.596 1001.21,-550.56 1000.18,-558.396"/>
<polygon fill="midnightblue" stroke="midnightblue" points="1004.53,-531.236 1000.17,-521.577 997.555,-531.842 1004.53,-531.236"/>
</g>
<!-- Node3 -->
<g id="node3" class="node"><title>Node3</title>
<g id="a_node3"><a xlink:href="../../de/d84/clenshaw__curtis_8hpp.html" target="_top" xlink:title="include/pfasst/quadrature\l/clenshaw_curtis.hpp">
<polygon fill="white" stroke="black" points="1301.5,-424.5 1301.5,-454.5 1431.5,-454.5 1431.5,-424.5 1301.5,-424.5"/>
<text text-anchor="start" x="1309.5" y="-442.5" font-family="Helvetica,sans-Serif" font-size="10.00">include/pfasst/quadrature</text>
<text text-anchor="middle" x="1366.5" y="-431.5" font-family="Helvetica,sans-Serif" font-size="10.00">/clenshaw_curtis.hpp</text>
</a>
</g>
</g>
<!-- Node2&#45;&gt;Node3 -->
<g id="edge2" class="edge"><title>Node2&#45;&gt;Node3</title>
<path fill="none" stroke="midnightblue" d="M1069.94,-492.319C1137.89,-480.444 1236.76,-463.169 1301.35,-451.883"/>
<polygon fill="midnightblue" stroke="midnightblue" points="1068.97,-488.934 1059.72,-494.103 1070.18,-495.83 1068.97,-488.934"/>
</g>
<!-- Node4 -->
<g id="node4" class="node"><title>Node4</title>
<g id="a_node4"><a xlink:href="../../d6/dbe/quadrature_8hpp.html" target="_top" xlink:title="include/pfasst/quadrature.hpp">
<polygon fill="white" stroke="black" points="869.5,-363 869.5,-382 1017.5,-382 1017.5,-363 869.5,-363"/>
<text text-anchor="middle" x="943.5" y="-370" font-family="Helvetica,sans-Serif" font-size="10.00">include/pfasst/quadrature.hpp</text>
</a>
</g>
</g>
<!-- Node2&#45;&gt;Node4 -->
<g id="edge62" class="edge"><title>Node2&#45;&gt;Node4</title>
<path fill="none" stroke="midnightblue" d="M982.083,-482.268C977.809,-473.811 973.177,-464.094 969.5,-455 959.033,-429.114 949.918,-397.295 945.813,-382.217"/>
<polygon fill="midnightblue" stroke="midnightblue" points="978.988,-483.902 986.688,-491.181 985.207,-480.69 978.988,-483.902"/>
</g>
<!-- Node35 -->
<g id="node35" class="node"><title>Node35</title>
<g id="a_node35"><a xlink:href="../../de/d36/gauss__legendre_8hpp.html" target="_top" xlink:title="include/pfasst/quadrature\l/gauss_legendre.hpp">
<polygon fill="white" stroke="black" points="592.5,-424.5 592.5,-454.5 722.5,-454.5 722.5,-424.5 592.5,-424.5"/>
<text text-anchor="start" x="600.5" y="-442.5" font-family="Helvetica,sans-Serif" font-size="10.00">include/pfasst/quadrature</text>
<text text-anchor="middle" x="657.5" y="-431.5" font-family="Helvetica,sans-Serif" font-size="10.00">/gauss_legendre.hpp</text>
</a>
</g>
</g>
<!-- Node2&#45;&gt;Node35 -->
<g id="edge46" class="edge"><title>Node2&#45;&gt;Node35</title>
<path fill="none" stroke="midnightblue" d="M919.116,-490.96C860.116,-479.58 778.914,-463.918 722.695,-453.075"/>
<polygon fill="midnightblue" stroke="midnightblue" points="918.642,-494.433 929.123,-492.89 919.967,-487.56 918.642,-494.433"/>
</g>
<!-- Node37 -->
<g id="node37" class="node"><title>Node37</title>
<g id="a_node37"><a xlink:href="../../d7/d77/gauss__lobatto_8hpp.html" target="_top" xlink:title="include/pfasst/quadrature\l/gauss_lobatto.hpp">
<polygon fill="white" stroke="black" points="757.5,-424.5 757.5,-454.5 887.5,-454.5 887.5,-424.5 757.5,-424.5"/>
<text text-anchor="start" x="765.5" y="-442.5" font-family="Helvetica,sans-Serif" font-size="10.00">include/pfasst/quadrature</text>
<text text-anchor="middle" x="822.5" y="-431.5" font-family="Helvetica,sans-Serif" font-size="10.00">/gauss_lobatto.hpp</text>
</a>
</g>
</g>
<!-- Node2&#45;&gt;Node37 -->
<g id="edge50" class="edge"><title>Node2&#45;&gt;Node37</title>
<path fill="none" stroke="midnightblue" d="M947.712,-487.819C920.065,-477.371 885.54,-464.323 859.749,-454.577"/>
<polygon fill="midnightblue" stroke="midnightblue" points="946.587,-491.135 957.179,-491.396 949.062,-484.587 946.587,-491.135"/>
</g>
<!-- Node39 -->
<g id="node39" class="node"><title>Node39</title>
<g id="a_node39"><a xlink:href="../../d5/d98/gauss__radau_8hpp.html" target="_top" xlink:title="include/pfasst/quadrature\l/gauss_radau.hpp">
<polygon fill="white" stroke="black" points="978.5,-424.5 978.5,-454.5 1108.5,-454.5 1108.5,-424.5 978.5,-424.5"/>
<text text-anchor="start" x="986.5" y="-442.5" font-family="Helvetica,sans-Serif" font-size="10.00">include/pfasst/quadrature</text>
<text text-anchor="middle" x="1043.5" y="-431.5" font-family="Helvetica,sans-Serif" font-size="10.00">/gauss_radau.hpp</text>
</a>
</g>
</g>
<!-- Node2&#45;&gt;Node39 -->
<g id="edge54" class="edge"><title>Node2&#45;&gt;Node39</title>
<path fill="none" stroke="midnightblue" d="M1011.34,-483.157C1018.49,-473.679 1026.6,-462.919 1032.89,-454.577"/>
<polygon fill="midnightblue" stroke="midnightblue" points="1008.36,-481.304 1005.13,-491.396 1013.95,-485.518 1008.36,-481.304"/>
</g>
<!-- Node41 -->
<g id="node41" class="node"><title>Node41</title>
<g id="a_node41"><a xlink:href="../../d6/dbd/uniform_8hpp.html" target="_top" xlink:title="include/pfasst/quadrature\l/uniform.hpp">
<polygon fill="white" stroke="black" points="1135.5,-424.5 1135.5,-454.5 1265.5,-454.5 1265.5,-424.5 1135.5,-424.5"/>
<text text-anchor="start" x="1143.5" y="-442.5" font-family="Helvetica,sans-Serif" font-size="10.00">include/pfasst/quadrature</text>
<text text-anchor="middle" x="1200.5" y="-431.5" font-family="Helvetica,sans-Serif" font-size="10.00">/uniform.hpp</text>
</a>
</g>
</g>
<!-- Node2&#45;&gt;Node41 -->
<g id="edge58" class="edge"><title>Node2&#45;&gt;Node41</title>
<path fill="none" stroke="midnightblue" d="M1048.55,-488.444C1081.95,-477.908 1124.28,-464.549 1155.78,-454.611"/>
<polygon fill="midnightblue" stroke="midnightblue" points="1047.43,-485.129 1038.95,-491.476 1049.54,-491.805 1047.43,-485.129"/>
</g>
<!-- Node3&#45;&gt;Node4 -->
<g id="edge3" class="edge"><title>Node3&#45;&gt;Node4</title>
<path fill="none" stroke="midnightblue" d="M1291.08,-426.536C1285.47,-425.67 1279.9,-424.817 1274.5,-424 1164.38,-407.33 1136.48,-405.585 1026.5,-388 1014.94,-386.152 1002.51,-384.043 990.864,-382.017"/>
<polygon fill="midnightblue" stroke="midnightblue" points="1290.76,-430.029 1301.18,-428.104 1291.83,-423.112 1290.76,-430.029"/>
</g>
<!-- Node34 -->
<g id="node34" class="node"><title>Node34</title>
<g id="a_node34"><a xlink:href="../../d7/d56/clenshaw__curtis__impl_8hpp.html" target="_top" xlink:title="src/pfasst/quadrature\l/clenshaw_curtis_impl.hpp">
<polygon fill="white" stroke="black" points="1303.5,-357.5 1303.5,-387.5 1435.5,-387.5 1435.5,-357.5 1303.5,-357.5"/>
<text text-anchor="start" x="1311.5" y="-375.5" font-family="Helvetica,sans-Serif" font-size="10.00">src/pfasst/quadrature</text>
<text text-anchor="middle" x="1369.5" y="-364.5" font-family="Helvetica,sans-Serif" font-size="10.00">/clenshaw_curtis_impl.hpp</text>
</a>
</g>
</g>
<!-- Node3&#45;&gt;Node34 -->
<g id="edge44" class="edge"><title>Node3&#45;&gt;Node34</title>
<path fill="none" stroke="midnightblue" d="M1361.07,-414.403C1361.03,-405.37 1361.78,-395.408 1363.18,-387.577"/>
<polygon fill="midnightblue" stroke="midnightblue" points="1357.57,-414.546 1361.47,-424.396 1364.56,-414.262 1357.57,-414.546"/>
</g>
<!-- Node5 -->
<g id="node5" class="node"><title>Node5</title>
<g id="a_node5"><a xlink:href="../../de/deb/encap__sweeper_8hpp.html" target="_top" xlink:title="include/pfasst/encap\l/encap_sweeper.hpp">
<polygon fill="white" stroke="black" points="516.5,-285 516.5,-315 626.5,-315 626.5,-285 516.5,-285"/>
<text text-anchor="start" x="524.5" y="-303" font-family="Helvetica,sans-Serif" font-size="10.00">include/pfasst/encap</text>
<text text-anchor="middle" x="571.5" y="-292" font-family="Helvetica,sans-Serif" font-size="10.00">/encap_sweeper.hpp</text>
</a>
</g>
</g>
<!-- Node4&#45;&gt;Node5 -->
<g id="edge4" class="edge"><title>Node4&#45;&gt;Node5</title>
<path fill="none" stroke="midnightblue" d="M885.226,-361.211C876.929,-359.778 868.5,-358.339 860.5,-357 760.617,-340.286 734.087,-344.164 635.5,-321 628.361,-319.323 620.859,-317.259 613.606,-315.102"/>
<polygon fill="midnightblue" stroke="midnightblue" points="884.791,-364.688 895.242,-362.949 885.988,-357.791 884.791,-364.688"/>
</g>
<!-- Node19 -->
<g id="node19" class="node"><title>Node19</title>
<g id="a_node19"><a xlink:href="../../d9/d3c/poly__interp__impl_8hpp.html" target="_top" xlink:title="src/pfasst/encap/poly\l_interp_impl.hpp">
<polygon fill="white" stroke="black" points="108.5,-212.5 108.5,-242.5 220.5,-242.5 220.5,-212.5 108.5,-212.5"/>
<text text-anchor="start" x="116.5" y="-230.5" font-family="Helvetica,sans-Serif" font-size="10.00">src/pfasst/encap/poly</text>
<text text-anchor="middle" x="164.5" y="-219.5" font-family="Helvetica,sans-Serif" font-size="10.00">_interp_impl.hpp</text>
</a>
</g>
</g>
<!-- Node4&#45;&gt;Node19 -->
<g id="edge37" class="edge"><title>Node4&#45;&gt;Node19</title>
<path fill="none" stroke="midnightblue" d="M887.792,-361.206C878.688,-359.685 869.344,-358.222 860.5,-357 704.281,-335.417 662.583,-349.625 507.5,-321 397.872,-300.765 272.061,-262.992 207.57,-242.533"/>
<polygon fill="midnightblue" stroke="midnightblue" points="887.482,-364.703 897.928,-362.936 888.66,-357.803 887.482,-364.703"/>
</g>
<!-- Node28 -->
<g id="node28" class="node"><title>Node28</title>
<g id="a_node28"><a xlink:href="../../dc/d0d/test__advection__diffusion__conv_8cpp.html" target="_top" xlink:title="tests/examples/advection\l_diffusion/test_advection\l_diffusion_conv.cpp">
<polygon fill="white" stroke="black" points="644.5,-279.5 644.5,-320.5 776.5,-320.5 776.5,-279.5 644.5,-279.5"/>
<text text-anchor="start" x="652.5" y="-308.5" font-family="Helvetica,sans-Serif" font-size="10.00">tests/examples/advection</text>
<text text-anchor="start" x="652.5" y="-297.5" font-family="Helvetica,sans-Serif" font-size="10.00">_diffusion/test_advection</text>
<text text-anchor="middle" x="710.5" y="-286.5" font-family="Helvetica,sans-Serif" font-size="10.00">_diffusion_conv.cpp</text>
</a>
</g>
</g>
<!-- Node4&#45;&gt;Node28 -->
<g id="edge38" class="edge"><title>Node4&#45;&gt;Node28</title>
<path fill="none" stroke="midnightblue" d="M905.518,-360.008C870.303,-349.352 817.183,-333.28 775.272,-320.598"/>
<polygon fill="midnightblue" stroke="midnightblue" points="904.81,-363.45 915.395,-362.996 906.837,-356.75 904.81,-363.45"/>
</g>
<!-- Node29 -->
<g id="node29" class="node"><title>Node29</title>
<g id="a_node29"><a xlink:href="../../d4/d85/test__mpi__advection__diffusion__conv_8cpp.html" target="_top" xlink:title="tests/examples/advection\l_diffusion/test_mpi_advection\l_diffusion_conv.cpp">
<polygon fill="white" stroke="black" points="794.5,-279.5 794.5,-320.5 942.5,-320.5 942.5,-279.5 794.5,-279.5"/>
<text text-anchor="start" x="802.5" y="-308.5" font-family="Helvetica,sans-Serif" font-size="10.00">tests/examples/advection</text>
<text text-anchor="start" x="802.5" y="-297.5" font-family="Helvetica,sans-Serif" font-size="10.00">_diffusion/test_mpi_advection</text>
<text text-anchor="middle" x="868.5" y="-286.5" font-family="Helvetica,sans-Serif" font-size="10.00">_diffusion_conv.cpp</text>
</a>
</g>
</g>
<!-- Node4&#45;&gt;Node29 -->
<g id="edge39" class="edge"><title>Node4&#45;&gt;Node29</title>
<path fill="none" stroke="midnightblue" d="M926.979,-355.97C915.924,-345.579 901.283,-331.816 889.417,-320.662"/>
<polygon fill="midnightblue" stroke="midnightblue" points="924.62,-358.556 934.304,-362.855 929.414,-353.456 924.62,-358.556"/>
</g>
<!-- Node30 -->
<g id="node30" class="node"><title>Node30</title>
<g id="a_node30"><a xlink:href="../../d3/d06/test__scalar__conv_8cpp.html" target="_top" xlink:title="tests/examples/scalar\l/test_scalar_conv.cpp">
<polygon fill="white" stroke="black" points="960.5,-285 960.5,-315 1076.5,-315 1076.5,-285 960.5,-285"/>
<text text-anchor="start" x="968.5" y="-303" font-family="Helvetica,sans-Serif" font-size="10.00">tests/examples/scalar</text>
<text text-anchor="middle" x="1018.5" y="-292" font-family="Helvetica,sans-Serif" font-size="10.00">/test_scalar_conv.cpp</text>
</a>
</g>
</g>
<!-- Node4&#45;&gt;Node30 -->
<g id="edge40" class="edge"><title>Node4&#45;&gt;Node30</title>
<path fill="none" stroke="midnightblue" d="M960.053,-355.94C973.04,-343.732 990.962,-326.886 1003.53,-315.076"/>
<polygon fill="midnightblue" stroke="midnightblue" points="957.586,-353.456 952.696,-362.855 962.38,-358.556 957.586,-353.456"/>
</g>
<!-- Node31 -->
<g id="node31" class="node"><title>Node31</title>
<g id="a_node31"><a xlink:href="../../d7/d57/test__scalar__highprec_8cpp.html" target="_top" xlink:title="tests/examples/scalar\l/test_scalar_highprec.cpp">
<polygon fill="white" stroke="black" points="1094.5,-285 1094.5,-315 1224.5,-315 1224.5,-285 1094.5,-285"/>
<text text-anchor="start" x="1102.5" y="-303" font-family="Helvetica,sans-Serif" font-size="10.00">tests/examples/scalar</text>
<text text-anchor="middle" x="1159.5" y="-292" font-family="Helvetica,sans-Serif" font-size="10.00">/test_scalar_highprec.cpp</text>
</a>
</g>
</g>
<!-- Node4&#45;&gt;Node31 -->
<g id="edge41" class="edge"><title>Node4&#45;&gt;Node31</title>
<path fill="none" stroke="midnightblue" d="M979.11,-359.877C1016.81,-347.572 1076.32,-328.147 1116.59,-315.006"/>
<polygon fill="midnightblue" stroke="midnightblue" points="977.975,-356.566 969.555,-362.996 980.147,-363.22 977.975,-356.566"/>
</g>
<!-- Node32 -->
<g id="node32" class="node"><title>Node32</title>
<g id="a_node32"><a xlink:href="../../d8/d19/test__vdp__zeronu__conv_8cpp.html" target="_top" xlink:title="tests/examples/vanderpol\l/test_vdp_zeronu_conv.cpp">
<polygon fill="white" stroke="black" points="1242.5,-285 1242.5,-315 1380.5,-315 1380.5,-285 1242.5,-285"/>
<text text-anchor="start" x="1250.5" y="-303" font-family="Helvetica,sans-Serif" font-size="10.00">tests/examples/vanderpol</text>
<text text-anchor="middle" x="1311.5" y="-292" font-family="Helvetica,sans-Serif" font-size="10.00">/test_vdp_zeronu_conv.cpp</text>
</a>
</g>
</g>
<!-- Node4&#45;&gt;Node32 -->
<g id="edge42" class="edge"><title>Node4&#45;&gt;Node32</title>
<path fill="none" stroke="midnightblue" d="M1002.11,-361.255C1010.3,-359.825 1018.61,-358.375 1026.5,-357 1118.49,-340.965 1142.2,-340.612 1233.5,-321 1241.84,-319.209 1250.63,-317.136 1259.19,-315.017"/>
<polygon fill="midnightblue" stroke="midnightblue" points="1001.46,-357.815 992.215,-362.983 1002.67,-364.711 1001.46,-357.815"/>
</g>
<!-- Node33 -->
<g id="node33" class="node"><title>Node33</title>
<g id="a_node33"><a xlink:href="../../da/d82/test__quadrature_8cpp.html" target="_top" xlink:title="tests/test_quadrature.cpp">
<polygon fill="white" stroke="black" points="1398.5,-290.5 1398.5,-309.5 1526.5,-309.5 1526.5,-290.5 1398.5,-290.5"/>
<text text-anchor="middle" x="1462.5" y="-297.5" font-family="Helvetica,sans-Serif" font-size="10.00">tests/test_quadrature.cpp</text>
</a>
</g>
</g>
<!-- Node4&#45;&gt;Node33 -->
<g id="edge43" class="edge"><title>Node4&#45;&gt;Node33</title>
<path fill="none" stroke="midnightblue" d="M998.584,-361.288C1007.88,-359.733 1017.45,-358.237 1026.5,-357 1187.13,-335.035 1230.09,-350.524 1389.5,-321 1405.01,-318.128 1422.01,-313.554 1435.71,-309.505"/>
<polygon fill="midnightblue" stroke="midnightblue" points="997.903,-357.854 988.636,-362.989 999.083,-364.753 997.903,-357.854"/>
</g>
<!-- Node6 -->
<g id="node6" class="node"><title>Node6</title>
<g id="a_node6"><a xlink:href="../../d1/d6f/imex__sweeper_8hpp.html" target="_top" xlink:title="include/pfasst/encap\l/imex_sweeper.hpp">
<polygon fill="white" stroke="black" points="604,-145.5 604,-175.5 713,-175.5 713,-145.5 604,-145.5"/>
<text text-anchor="start" x="612" y="-163.5" font-family="Helvetica,sans-Serif" font-size="10.00">include/pfasst/encap</text>
<text text-anchor="middle" x="658.5" y="-152.5" font-family="Helvetica,sans-Serif" font-size="10.00">/imex_sweeper.hpp</text>
</a>
</g>
</g>
<!-- Node5&#45;&gt;Node6 -->
<g id="edge5" class="edge"><title>Node5&#45;&gt;Node6</title>
<path fill="none" stroke="midnightblue" d="M585.872,-276.286C603.918,-247.765 634.337,-199.688 649.436,-175.826"/>
<polygon fill="midnightblue" stroke="midnightblue" points="582.872,-274.481 580.483,-284.803 588.787,-278.224 582.872,-274.481"/>
</g>
<!-- Node14 -->
<g id="node14" class="node"><title>Node14</title>
<g id="a_node14"><a xlink:href="../../d7/daf/implicit__sweeper_8hpp.html" target="_top" xlink:title="include/pfasst/encap\l/implicit_sweeper.hpp">
<polygon fill="white" stroke="black" points="710.5,-212.5 710.5,-242.5 822.5,-242.5 822.5,-212.5 710.5,-212.5"/>
<text text-anchor="start" x="718.5" y="-230.5" font-family="Helvetica,sans-Serif" font-size="10.00">include/pfasst/encap</text>
<text text-anchor="middle" x="766.5" y="-219.5" font-family="Helvetica,sans-Serif" font-size="10.00">/implicit_sweeper.hpp</text>
</a>
</g>
</g>
<!-- Node5&#45;&gt;Node14 -->
<g id="edge14" class="edge"><title>Node5&#45;&gt;Node14</title>
<path fill="none" stroke="midnightblue" d="M620.002,-281.465C653.2,-269.462 696.639,-253.758 727.575,-242.573"/>
<polygon fill="midnightblue" stroke="midnightblue" points="618.707,-278.211 610.492,-284.903 621.087,-284.794 618.707,-278.211"/>
</g>
<!-- Node18 -->
<g id="node18" class="node"><title>Node18</title>
<g id="a_node18"><a xlink:href="../../d9/d05/encap__sweeper__impl_8hpp.html" target="_top" xlink:title="src/pfasst/encap/encap\l_sweeper_impl.hpp">
<polygon fill="white" stroke="black" points="841,-212.5 841,-242.5 962,-242.5 962,-212.5 841,-212.5"/>
<text text-anchor="start" x="849" y="-230.5" font-family="Helvetica,sans-Serif" font-size="10.00">src/pfasst/encap/encap</text>
<text text-anchor="middle" x="901.5" y="-219.5" font-family="Helvetica,sans-Serif" font-size="10.00">_sweeper_impl.hpp</text>
</a>
</g>
</g>
<!-- Node5&#45;&gt;Node18 -->
<g id="edge19" class="edge"><title>Node5&#45;&gt;Node18</title>
<path fill="none" stroke="midnightblue" d="M614.798,-282.098C618.729,-280.994 622.668,-279.947 626.5,-279 712.482,-257.752 735.575,-259.984 822.5,-243 828.468,-241.834 834.717,-240.583 840.982,-239.322"/>
<polygon fill="midnightblue" stroke="midnightblue" points="613.726,-278.765 605.113,-284.934 615.694,-285.482 613.726,-278.765"/>
</g>
<!-- Node5&#45;&gt;Node19 -->
<g id="edge21" class="edge"><title>Node5&#45;&gt;Node19</title>
<path fill="none" stroke="midnightblue" d="M505.862,-287.63C426.779,-273.932 295.268,-251.151 220.673,-238.23"/>
<polygon fill="midnightblue" stroke="midnightblue" points="505.736,-291.16 516.187,-289.419 506.931,-284.263 505.736,-291.16"/>
</g>
<!-- Node22 -->
<g id="node22" class="node"><title>Node22</title>
<g id="a_node22"><a xlink:href="../../db/dfd/boris__sweeper_8hpp.html" target="_top" xlink:title="examples/boris/boris\l_sweeper.hpp">
<polygon fill="white" stroke="black" points="347.5,-212.5 347.5,-242.5 457.5,-242.5 457.5,-212.5 347.5,-212.5"/>
<text text-anchor="start" x="355.5" y="-230.5" font-family="Helvetica,sans-Serif" font-size="10.00">examples/boris/boris</text>
<text text-anchor="middle" x="402.5" y="-219.5" font-family="Helvetica,sans-Serif" font-size="10.00">_sweeper.hpp</text>
</a>
</g>
</g>
<!-- Node5&#45;&gt;Node22 -->
<g id="edge27" class="edge"><title>Node5&#45;&gt;Node22</title>
<path fill="none" stroke="midnightblue" d="M528.349,-280.999C499.725,-269.059 462.701,-253.614 436.235,-242.573"/>
<polygon fill="midnightblue" stroke="midnightblue" points="527.13,-284.283 537.707,-284.903 529.825,-277.822 527.13,-284.283"/>
</g>
<!-- Node24 -->
<g id="node24" class="node"><title>Node24</title>
<g id="a_node24"><a xlink:href="../../db/d9a/boris__sweeper__impl_8hpp.html" target="_top" xlink:title="examples/boris/boris\l_sweeper_impl.hpp">
<polygon fill="white" stroke="black" points="475.5,-145.5 475.5,-175.5 585.5,-175.5 585.5,-145.5 475.5,-145.5"/>
<text text-anchor="start" x="483.5" y="-163.5" font-family="Helvetica,sans-Serif" font-size="10.00">examples/boris/boris</text>
<text text-anchor="middle" x="530.5" y="-152.5" font-family="Helvetica,sans-Serif" font-size="10.00">_sweeper_impl.hpp</text>
</a>
</g>
</g>
<!-- Node5&#45;&gt;Node24 -->
<g id="edge36" class="edge"><title>Node5&#45;&gt;Node24</title>
<path fill="none" stroke="midnightblue" d="M564.393,-275.165C555.851,-246.52 541.795,-199.378 534.772,-175.826"/>
<polygon fill="midnightblue" stroke="midnightblue" points="561.055,-276.22 567.267,-284.803 567.763,-274.22 561.055,-276.22"/>
</g>
<!-- Node7 -->
<g id="node7" class="node"><title>Node7</title>
<g id="a_node7"><a xlink:href="../../d7/d0a/imex__sweeper__impl_8hpp.html" target="_top" xlink:title="src/pfasst/encap/imex\l_sweeper_impl.hpp">
<polygon fill="white" stroke="black" points="600,-73 600,-103 715,-103 715,-73 600,-73"/>
<text text-anchor="start" x="608" y="-91" font-family="Helvetica,sans-Serif" font-size="10.00">src/pfasst/encap/imex</text>
<text text-anchor="middle" x="657.5" y="-80" font-family="Helvetica,sans-Serif" font-size="10.00">_sweeper_impl.hpp</text>
</a>
</g>
</g>
<!-- Node6&#45;&gt;Node7 -->
<g id="edge6" class="edge"><title>Node6&#45;&gt;Node7</title>
<path fill="none" stroke="midnightblue" d="M651.706,-135.232C650.954,-124.568 651.083,-112.414 652.156,-103.246"/>
<polygon fill="midnightblue" stroke="midnightblue" points="648.23,-135.65 652.749,-145.233 655.193,-134.924 648.23,-135.65"/>
</g>
<!-- Node8 -->
<g id="node8" class="node"><title>Node8</title>
<g id="a_node8"><a xlink:href="../../dc/d7d/advection__diffusion__sweeper_8hpp.html" target="_top" xlink:title="examples/advection\l_diffusion/advection\l_diffusion_sweeper.hpp">
<polygon fill="white" stroke="black" points="388,-67.5 388,-108.5 509,-108.5 509,-67.5 388,-67.5"/>
<text text-anchor="start" x="396" y="-96.5" font-family="Helvetica,sans-Serif" font-size="10.00">examples/advection</text>
<text text-anchor="start" x="396" y="-85.5" font-family="Helvetica,sans-Serif" font-size="10.00">_diffusion/advection</text>
<text text-anchor="middle" x="448.5" y="-74.5" font-family="Helvetica,sans-Serif" font-size="10.00">_diffusion_sweeper.hpp</text>
</a>
</g>
</g>
<!-- Node6&#45;&gt;Node8 -->
<g id="edge8" class="edge"><title>Node6&#45;&gt;Node8</title>
<path fill="none" stroke="midnightblue" d="M607.217,-142.284C576.88,-132.099 538.356,-119.166 506.859,-108.592"/>
<polygon fill="midnightblue" stroke="midnightblue" points="606.166,-145.623 616.76,-145.487 608.394,-138.987 606.166,-145.623"/>
</g>
<!-- Node12 -->
<g id="node12" class="node"><title>Node12</title>
<g id="a_node12"><a xlink:href="../../d8/d93/scalar__sweeper_8hpp.html" target="_top" xlink:title="examples/scalar/scalar\l_sweeper.hpp">
<polygon fill="white" stroke="black" points="733.5,-73 733.5,-103 855.5,-103 855.5,-73 733.5,-73"/>
<text text-anchor="start" x="741.5" y="-91" font-family="Helvetica,sans-Serif" font-size="10.00">examples/scalar/scalar</text>
<text text-anchor="middle" x="794.5" y="-80" font-family="Helvetica,sans-Serif" font-size="10.00">_sweeper.hpp</text>
</a>
</g>
</g>
<!-- Node6&#45;&gt;Node12 -->
<g id="edge12" class="edge"><title>Node6&#45;&gt;Node12</title>
<path fill="none" stroke="midnightblue" d="M694.737,-140.715C717.551,-128.889 746.517,-113.874 767.352,-103.073"/>
<polygon fill="midnightblue" stroke="midnightblue" points="692.962,-137.693 685.695,-145.403 696.184,-143.908 692.962,-137.693"/>
</g>
<!-- Node7&#45;&gt;Node6 -->
<g id="edge7" class="edge"><title>Node7&#45;&gt;Node6</title>
<path fill="none" stroke="midnightblue" d="M664.292,-113.244C665.046,-123.905 664.918,-136.06 663.846,-145.233"/>
<polygon fill="midnightblue" stroke="midnightblue" points="667.768,-112.828 663.248,-103.246 660.806,-113.555 667.768,-112.828"/>
</g>
<!-- Node9 -->
<g id="node9" class="node"><title>Node9</title>
<g id="a_node9"><a xlink:href="../../d1/d49/mpi__pfasst_8cpp.html" target="_top" xlink:title="Advection&#45;Diffusion with MPI&#45;enabled PFASST. ">
<polygon fill="white" stroke="black" points="18,-0.5 18,-30.5 145,-30.5 145,-0.5 18,-0.5"/>
<text text-anchor="start" x="26" y="-18.5" font-family="Helvetica,sans-Serif" font-size="10.00">examples/advection</text>
<text text-anchor="middle" x="81.5" y="-7.5" font-family="Helvetica,sans-Serif" font-size="10.00">_diffusion/mpi_pfasst.cpp</text>
</a>
</g>
</g>
<!-- Node8&#45;&gt;Node9 -->
<g id="edge9" class="edge"><title>Node8&#45;&gt;Node9</title>
<path fill="none" stroke="midnightblue" d="M377.952,-66.9991C291.806,-47.776 203.215,-33.7065 145.049,-25.2392"/>
<polygon fill="midnightblue" stroke="midnightblue" points="377.374,-70.4566 387.899,-69.2446 378.915,-63.6285 377.374,-70.4566"/>
</g>
<!-- Node10 -->
<g id="node10" class="node"><title>Node10</title>
<g id="a_node10"><a xlink:href="../../d9/d86/serial__mlsdc_8cpp.html" target="_top" xlink:title="Advection&#45;Diffusion with serial MLSDC. ">
<polygon fill="white" stroke="black" points="206,-0.5 206,-30.5 343,-30.5 343,-0.5 206,-0.5"/>
<text text-anchor="start" x="214" y="-18.5" font-family="Helvetica,sans-Serif" font-size="10.00">examples/advection</text>
<text text-anchor="middle" x="274.5" y="-7.5" font-family="Helvetica,sans-Serif" font-size="10.00">_diffusion/serial_mlsdc.cpp</text>
</a>
</g>
</g>
<!-- Node8&#45;&gt;Node10 -->
<g id="edge10" class="edge"><title>Node8&#45;&gt;Node10</title>
<path fill="none" stroke="midnightblue" d="M390.683,-63.5743C363.699,-52.6409 332.478,-39.9911 309.2,-30.5597"/>
<polygon fill="midnightblue" stroke="midnightblue" points="389.449,-66.8504 400.031,-67.3618 392.077,-60.3627 389.449,-66.8504"/>
</g>
<!-- Node11 -->
<g id="node11" class="node"><title>Node11</title>
<g id="a_node11"><a xlink:href="../../d4/df0/vanilla__sdc_8cpp.html" target="_top" xlink:title="Advection&#45;Diffusion with vanilla SDC. ">
<polygon fill="white" stroke="black" points="383,-0.5 383,-30.5 514,-30.5 514,-0.5 383,-0.5"/>
<text text-anchor="start" x="391" y="-18.5" font-family="Helvetica,sans-Serif" font-size="10.00">examples/advection</text>
<text text-anchor="middle" x="448.5" y="-7.5" font-family="Helvetica,sans-Serif" font-size="10.00">_diffusion/vanilla_sdc.cpp</text>
</a>
</g>
</g>
<!-- Node8&#45;&gt;Node11 -->
<g id="edge11" class="edge"><title>Node8&#45;&gt;Node11</title>
<path fill="none" stroke="midnightblue" d="M448.5,-57.08C448.5,-48.0061 448.5,-38.4498 448.5,-30.8916"/>
<polygon fill="midnightblue" stroke="midnightblue" points="445,-57.3618 448.5,-67.3618 452,-57.3619 445,-57.3618"/>
</g>
<!-- Node13 -->
<g id="node13" class="node"><title>Node13</title>
<g id="a_node13"><a xlink:href="../../d2/daf/scalar__sdc_8cpp.html" target="_top" xlink:title="Scalar test equation example using an encapsulated IMEX sweeper. ">
<polygon fill="white" stroke="black" points="733.5,-0.5 733.5,-30.5 855.5,-30.5 855.5,-0.5 733.5,-0.5"/>
<text text-anchor="start" x="741.5" y="-18.5" font-family="Helvetica,sans-Serif" font-size="10.00">examples/scalar/scalar</text>
<text text-anchor="middle" x="794.5" y="-7.5" font-family="Helvetica,sans-Serif" font-size="10.00">_sdc.cpp</text>
</a>
</g>
</g>
<!-- Node12&#45;&gt;Node13 -->
<g id="edge13" class="edge"><title>Node12&#45;&gt;Node13</title>
<path fill="none" stroke="midnightblue" d="M794.5,-62.7317C794.5,-52.0679 794.5,-39.9145 794.5,-30.7455"/>
<polygon fill="midnightblue" stroke="midnightblue" points="791,-62.7332 794.5,-72.7333 798,-62.7333 791,-62.7332"/>
</g>
<!-- Node15 -->
<g id="node15" class="node"><title>Node15</title>
<g id="a_node15"><a xlink:href="../../dd/d8c/implicit__sweeper__impl_8hpp.html" target="_top" xlink:title="src/pfasst/encap/implicit\l_sweeper_impl.hpp">
<polygon fill="white" stroke="black" points="731,-145.5 731,-175.5 854,-175.5 854,-145.5 731,-145.5"/>
<text text-anchor="start" x="739" y="-163.5" font-family="Helvetica,sans-Serif" font-size="10.00">src/pfasst/encap/implicit</text>
<text text-anchor="middle" x="792.5" y="-152.5" font-family="Helvetica,sans-Serif" font-size="10.00">_sweeper_impl.hpp</text>
</a>
</g>
</g>
<!-- Node14&#45;&gt;Node15 -->
<g id="edge15" class="edge"><title>Node14&#45;&gt;Node15</title>
<path fill="none" stroke="midnightblue" d="M769.491,-202.697C772.664,-193.587 776.987,-183.493 781.195,-175.577"/>
<polygon fill="midnightblue" stroke="midnightblue" points="766.102,-201.807 766.463,-212.396 772.784,-203.893 766.102,-201.807"/>
</g>
<!-- Node16 -->
<g id="node16" class="node"><title>Node16</title>
<g id="a_node16"><a xlink:href="../../d6/d93/vdp__sweeper_8hpp.html" target="_top" xlink:title="examples/vanderpol\l/vdp_sweeper.hpp">
<polygon fill="white" stroke="black" points="873,-145.5 873,-175.5 982,-175.5 982,-145.5 873,-145.5"/>
<text text-anchor="start" x="881" y="-163.5" font-family="Helvetica,sans-Serif" font-size="10.00">examples/vanderpol</text>
<text text-anchor="middle" x="927.5" y="-152.5" font-family="Helvetica,sans-Serif" font-size="10.00">/vdp_sweeper.hpp</text>
</a>
</g>
</g>
<!-- Node14&#45;&gt;Node16 -->
<g id="edge17" class="edge"><title>Node14&#45;&gt;Node16</title>
<path fill="none" stroke="midnightblue" d="M810.975,-208.544C836.738,-198.143 868.703,-185.238 892.634,-175.577"/>
<polygon fill="midnightblue" stroke="midnightblue" points="809.397,-205.407 801.435,-212.396 812.018,-211.898 809.397,-205.407"/>
</g>
<!-- Node15&#45;&gt;Node14 -->
<g id="edge16" class="edge"><title>Node15&#45;&gt;Node14</title>
<path fill="none" stroke="midnightblue" d="M789.52,-185.271C786.349,-194.379 782.028,-204.474 777.82,-212.396"/>
<polygon fill="midnightblue" stroke="midnightblue" points="792.908,-186.165 792.544,-175.577 786.225,-184.081 792.908,-186.165"/>
</g>
<!-- Node17 -->
<g id="node17" class="node"><title>Node17</title>
<g id="a_node17"><a xlink:href="../../df/de7/vdp__sdc_8cpp.html" target="_top" xlink:title="examples/vanderpol\l/vdp_sdc.cpp">
<polygon fill="white" stroke="black" points="874,-73 874,-103 983,-103 983,-73 874,-73"/>
<text text-anchor="start" x="882" y="-91" font-family="Helvetica,sans-Serif" font-size="10.00">examples/vanderpol</text>
<text text-anchor="middle" x="928.5" y="-80" font-family="Helvetica,sans-Serif" font-size="10.00">/vdp_sdc.cpp</text>
</a>
</g>
</g>
<!-- Node16&#45;&gt;Node17 -->
<g id="edge18" class="edge"><title>Node16&#45;&gt;Node17</title>
<path fill="none" stroke="midnightblue" d="M927.844,-135.232C927.995,-124.568 928.168,-112.414 928.298,-103.246"/>
<polygon fill="midnightblue" stroke="midnightblue" points="924.345,-135.185 927.702,-145.233 931.344,-135.284 924.345,-135.185"/>
</g>
<!-- Node18&#45;&gt;Node5 -->
<g id="edge20" class="edge"><title>Node18&#45;&gt;Node5</title>
<path fill="none" stroke="midnightblue" d="M832.554,-244.521C751.675,-259.845 727.123,-258.582 644.5,-279 637.493,-280.731 630.127,-282.797 622.857,-284.934"/>
<polygon fill="midnightblue" stroke="midnightblue" points="833.546,-247.895 842.704,-242.568 832.223,-241.021 833.546,-247.895"/>
</g>
<!-- Node20 -->
<g id="node20" class="node"><title>Node20</title>
<g id="a_node20"><a xlink:href="../../d0/d45/poly__interp_8hpp.html" target="_top" xlink:title="include/pfasst/encap\l/poly_interp.hpp">
<polygon fill="white" stroke="black" points="0,-145.5 0,-175.5 109,-175.5 109,-145.5 0,-145.5"/>
<text text-anchor="start" x="8" y="-163.5" font-family="Helvetica,sans-Serif" font-size="10.00">include/pfasst/encap</text>
<text text-anchor="middle" x="54.5" y="-152.5" font-family="Helvetica,sans-Serif" font-size="10.00">/poly_interp.hpp</text>
</a>
</g>
</g>
<!-- Node19&#45;&gt;Node20 -->
<g id="edge22" class="edge"><title>Node19&#45;&gt;Node20</title>
<path fill="none" stroke="midnightblue" d="M125.78,-207.296C107.712,-197.125 87.1291,-184.855 72.647,-175.577"/>
<polygon fill="midnightblue" stroke="midnightblue" points="124.512,-210.596 134.953,-212.396 127.914,-204.478 124.512,-210.596"/>
</g>
<!-- Node20&#45;&gt;Node19 -->
<g id="edge23" class="edge"><title>Node20&#45;&gt;Node19</title>
<path fill="none" stroke="midnightblue" d="M93.1668,-180.674C111.23,-190.841 131.816,-203.112 146.31,-212.396"/>
<polygon fill="midnightblue" stroke="midnightblue" points="94.4375,-177.376 83.9966,-175.577 91.0363,-183.494 94.4375,-177.376"/>
</g>
<!-- Node21 -->
<g id="node21" class="node"><title>Node21</title>
<g id="a_node21"><a xlink:href="../../d0/dbe/spectral__transfer__1d_8hpp.html" target="_top" xlink:title="examples/advection\l_diffusion/spectral\l_transfer_1d.hpp">
<polygon fill="white" stroke="black" points="5.5,-67.5 5.5,-108.5 113.5,-108.5 113.5,-67.5 5.5,-67.5"/>
<text text-anchor="start" x="13.5" y="-96.5" font-family="Helvetica,sans-Serif" font-size="10.00">examples/advection</text>
<text text-anchor="start" x="13.5" y="-85.5" font-family="Helvetica,sans-Serif" font-size="10.00">_diffusion/spectral</text>
<text text-anchor="middle" x="59.5" y="-74.5" font-family="Helvetica,sans-Serif" font-size="10.00">_transfer_1d.hpp</text>
</a>
</g>
</g>
<!-- Node20&#45;&gt;Node21 -->
<g id="edge24" class="edge"><title>Node20&#45;&gt;Node21</title>
<path fill="none" stroke="midnightblue" d="M56.2389,-134.982C56.8513,-126.347 57.531,-116.762 58.1107,-108.588"/>
<polygon fill="midnightblue" stroke="midnightblue" points="52.7281,-135.011 55.5118,-145.233 59.7106,-135.506 52.7281,-135.011"/>
</g>
<!-- Node21&#45;&gt;Node9 -->
<g id="edge25" class="edge"><title>Node21&#45;&gt;Node9</title>
<path fill="none" stroke="midnightblue" d="M68.6523,-57.6711C71.5384,-48.4225 74.5991,-38.6141 77.009,-30.8916"/>
<polygon fill="midnightblue" stroke="midnightblue" points="65.2661,-56.7732 65.6282,-67.3618 71.9483,-58.8584 65.2661,-56.7732"/>
</g>
<!-- Node21&#45;&gt;Node10 -->
<g id="edge26" class="edge"><title>Node21&#45;&gt;Node10</title>
<path fill="none" stroke="midnightblue" d="M123.411,-66.0433C158.402,-54.5692 200.812,-40.6628 231.782,-30.5075"/>
<polygon fill="midnightblue" stroke="midnightblue" points="122.165,-62.7682 113.754,-69.2099 124.346,-69.4197 122.165,-62.7682"/>
</g>
<!-- Node23 -->
<g id="node23" class="node"><title>Node23</title>
<g id="a_node23"><a xlink:href="../../d7/d31/boris__mlsdc_8cpp.html" target="_top" xlink:title="examples/boris/boris\l_mlsdc.cpp">
<polygon fill="white" stroke="black" points="131.5,-73 131.5,-103 241.5,-103 241.5,-73 131.5,-73"/>
<text text-anchor="start" x="139.5" y="-91" font-family="Helvetica,sans-Serif" font-size="10.00">examples/boris/boris</text>
<text text-anchor="middle" x="186.5" y="-80" font-family="Helvetica,sans-Serif" font-size="10.00">_mlsdc.cpp</text>
</a>
</g>
</g>
<!-- Node22&#45;&gt;Node23 -->
<g id="edge28" class="edge"><title>Node22&#45;&gt;Node23</title>
<path fill="none" stroke="midnightblue" d="M337.049,-222.203C272.036,-216.409 178.896,-203.461 156.5,-176 138.829,-154.333 159.336,-121.634 174.083,-103.11"/>
<polygon fill="midnightblue" stroke="midnightblue" points="336.964,-225.708 347.226,-223.073 337.56,-218.734 336.964,-225.708"/>
</g>
<!-- Node22&#45;&gt;Node24 -->
<g id="edge29" class="edge"><title>Node22&#45;&gt;Node24</title>
<path fill="none" stroke="midnightblue" d="M433.571,-207.575C452.823,-197.35 477.435,-184.94 497.105,-175.577"/>
<polygon fill="midnightblue" stroke="midnightblue" points="431.749,-204.581 424.596,-212.396 435.061,-210.747 431.749,-204.581"/>
</g>
<!-- Node25 -->
<g id="node25" class="node"><title>Node25</title>
<g id="a_node25"><a xlink:href="../../d2/dc5/injective__transfer_8hpp.html" target="_top" xlink:title="examples/boris/injective\l_transfer.hpp">
<polygon fill="white" stroke="black" points="166,-145.5 166,-175.5 291,-175.5 291,-145.5 166,-145.5"/>
<text text-anchor="start" x="174" y="-163.5" font-family="Helvetica,sans-Serif" font-size="10.00">examples/boris/injective</text>
<text text-anchor="middle" x="228.5" y="-152.5" font-family="Helvetica,sans-Serif" font-size="10.00">_transfer.hpp</text>
</a>
</g>
</g>
<!-- Node22&#45;&gt;Node25 -->
<g id="edge31" class="edge"><title>Node22&#45;&gt;Node25</title>
<path fill="none" stroke="midnightblue" d="M355.168,-208.819C327.2,-198.371 292.273,-185.323 266.182,-175.577"/>
<polygon fill="midnightblue" stroke="midnightblue" points="354.152,-212.175 364.745,-212.396 356.602,-205.618 354.152,-212.175"/>
</g>
<!-- Node26 -->
<g id="node26" class="node"><title>Node26</title>
<g id="a_node26"><a xlink:href="../../d2/d1e/boris__pfasst_8cpp.html" target="_top" xlink:title="examples/boris/boris\l_pfasst.cpp">
<polygon fill="white" stroke="black" points="259.5,-73 259.5,-103 369.5,-103 369.5,-73 259.5,-73"/>
<text text-anchor="start" x="267.5" y="-91" font-family="Helvetica,sans-Serif" font-size="10.00">examples/boris/boris</text>
<text text-anchor="middle" x="314.5" y="-80" font-family="Helvetica,sans-Serif" font-size="10.00">_pfasst.cpp</text>
</a>
</g>
</g>
<!-- Node22&#45;&gt;Node26 -->
<g id="edge34" class="edge"><title>Node22&#45;&gt;Node26</title>
<path fill="none" stroke="midnightblue" d="M369.287,-206.527C358.081,-198.325 346.421,-187.934 338.5,-176 323.424,-153.285 317.754,-121.256 315.669,-103.069"/>
<polygon fill="midnightblue" stroke="midnightblue" points="367.486,-209.538 377.697,-212.363 371.476,-203.787 367.486,-209.538"/>
</g>
<!-- Node27 -->
<g id="node27" class="node"><title>Node27</title>
<g id="a_node27"><a xlink:href="../../d3/d93/boris__sdc_8cpp.html" target="_top" xlink:title="examples/boris/boris\l_sdc.cpp">
<polygon fill="white" stroke="black" points="347.5,-145.5 347.5,-175.5 457.5,-175.5 457.5,-145.5 347.5,-145.5"/>
<text text-anchor="start" x="355.5" y="-163.5" font-family="Helvetica,sans-Serif" font-size="10.00">examples/boris/boris</text>
<text text-anchor="middle" x="402.5" y="-152.5" font-family="Helvetica,sans-Serif" font-size="10.00">_sdc.cpp</text>
</a>
</g>
</g>
<!-- Node22&#45;&gt;Node27 -->
<g id="edge35" class="edge"><title>Node22&#45;&gt;Node27</title>
<path fill="none" stroke="midnightblue" d="M402.5,-202.108C402.5,-193.154 402.5,-183.323 402.5,-175.577"/>
<polygon fill="midnightblue" stroke="midnightblue" points="399,-202.396 402.5,-212.396 406,-202.396 399,-202.396"/>
</g>
<!-- Node24&#45;&gt;Node22 -->
<g id="edge30" class="edge"><title>Node24&#45;&gt;Node22</title>
<path fill="none" stroke="midnightblue" d="M499.486,-180.395C480.244,-190.615 455.632,-203.026 435.953,-212.396"/>
<polygon fill="midnightblue" stroke="midnightblue" points="501.302,-183.392 508.455,-175.577 497.989,-177.226 501.302,-183.392"/>
</g>
<!-- Node25&#45;&gt;Node23 -->
<g id="edge32" class="edge"><title>Node25&#45;&gt;Node23</title>
<path fill="none" stroke="midnightblue" d="M214.832,-136.557C208.296,-125.586 200.677,-112.797 194.987,-103.246"/>
<polygon fill="midnightblue" stroke="midnightblue" points="211.876,-138.434 220.001,-145.233 217.889,-134.851 211.876,-138.434"/>
</g>
<!-- Node25&#45;&gt;Node26 -->
<g id="edge33" class="edge"><title>Node25&#45;&gt;Node26</title>
<path fill="none" stroke="midnightblue" d="M253.766,-138.788C267.821,-127.266 284.94,-113.233 297.416,-103.005"/>
<polygon fill="midnightblue" stroke="midnightblue" points="251.418,-136.187 245.903,-145.233 255.856,-141.6 251.418,-136.187"/>
</g>
<!-- Node34&#45;&gt;Node3 -->
<g id="edge45" class="edge"><title>Node34&#45;&gt;Node3</title>
<path fill="none" stroke="midnightblue" d="M1374.93,-397.86C1374.95,-406.812 1374.2,-416.645 1372.83,-424.396"/>
<polygon fill="midnightblue" stroke="midnightblue" points="1378.42,-397.43 1374.53,-387.577 1371.43,-397.708 1378.42,-397.43"/>
</g>
<!-- Node35&#45;&gt;Node4 -->
<g id="edge47" class="edge"><title>Node35&#45;&gt;Node4</title>
<path fill="none" stroke="midnightblue" d="M729.096,-422.228C785.251,-409.466 861.169,-392.212 905.974,-382.029"/>
<polygon fill="midnightblue" stroke="midnightblue" points="728.181,-418.847 719.206,-424.476 729.733,-425.673 728.181,-418.847"/>
</g>
<!-- Node36 -->
<g id="node36" class="node"><title>Node36</title>
<g id="a_node36"><a xlink:href="../../d5/d09/gauss__legendre__impl_8hpp.html" target="_top" xlink:title="src/pfasst/quadrature\l/gauss_legendre_impl.hpp">
<polygon fill="white" stroke="black" points="575.5,-357.5 575.5,-387.5 709.5,-387.5 709.5,-357.5 575.5,-357.5"/>
<text text-anchor="start" x="583.5" y="-375.5" font-family="Helvetica,sans-Serif" font-size="10.00">src/pfasst/quadrature</text>
<text text-anchor="middle" x="642.5" y="-364.5" font-family="Helvetica,sans-Serif" font-size="10.00">/gauss_legendre_impl.hpp</text>
</a>
</g>
</g>
<!-- Node35&#45;&gt;Node36 -->
<g id="edge48" class="edge"><title>Node35&#45;&gt;Node36</title>
<path fill="none" stroke="midnightblue" d="M645.477,-414.697C642.904,-405.587 640.86,-395.493 640.074,-387.577"/>
<polygon fill="midnightblue" stroke="midnightblue" points="642.196,-415.93 648.567,-424.396 648.866,-413.805 642.196,-415.93"/>
</g>
<!-- Node36&#45;&gt;Node35 -->
<g id="edge49" class="edge"><title>Node36&#45;&gt;Node35</title>
<path fill="none" stroke="midnightblue" d="M654.514,-397.271C657.088,-406.379 659.135,-416.474 659.924,-424.396"/>
<polygon fill="midnightblue" stroke="midnightblue" points="657.796,-396.041 651.423,-387.577 651.127,-398.167 657.796,-396.041"/>
</g>
<!-- Node37&#45;&gt;Node4 -->
<g id="edge51" class="edge"><title>Node37&#45;&gt;Node4</title>
<path fill="none" stroke="midnightblue" d="M857.612,-419.638C880.761,-407.203 909.967,-391.514 927.664,-382.007"/>
<polygon fill="midnightblue" stroke="midnightblue" points="855.908,-416.58 848.755,-424.396 859.221,-422.747 855.908,-416.58"/>
</g>
<!-- Node38 -->
<g id="node38" class="node"><title>Node38</title>
<g id="a_node38"><a xlink:href="../../d7/d04/gauss__lobatto__impl_8hpp.html" target="_top" xlink:title="src/pfasst/quadrature\l/gauss_lobatto_impl.hpp">
<polygon fill="white" stroke="black" points="727.5,-357.5 727.5,-387.5 851.5,-387.5 851.5,-357.5 727.5,-357.5"/>
<text text-anchor="start" x="735.5" y="-375.5" font-family="Helvetica,sans-Serif" font-size="10.00">src/pfasst/quadrature</text>
<text text-anchor="middle" x="789.5" y="-364.5" font-family="Helvetica,sans-Serif" font-size="10.00">/gauss_lobatto_impl.hpp</text>
</a>
</g>
</g>
<!-- Node37&#45;&gt;Node38 -->
<g id="edge52" class="edge"><title>Node37&#45;&gt;Node38</title>
<path fill="none" stroke="midnightblue" d="M804.379,-415.576C799.104,-406.241 794.046,-395.748 790.972,-387.577"/>
<polygon fill="midnightblue" stroke="midnightblue" points="801.521,-417.615 809.661,-424.396 807.526,-414.018 801.521,-417.615"/>
</g>
<!-- Node38&#45;&gt;Node37 -->
<g id="edge53" class="edge"><title>Node38&#45;&gt;Node37</title>
<path fill="none" stroke="midnightblue" d="M807.603,-396.393C812.879,-405.725 817.939,-416.219 821.018,-424.396"/>
<polygon fill="midnightblue" stroke="midnightblue" points="810.463,-394.356 802.321,-387.577 804.458,-397.954 810.463,-394.356"/>
</g>
<!-- Node39&#45;&gt;Node4 -->
<g id="edge55" class="edge"><title>Node39&#45;&gt;Node4</title>
<path fill="none" stroke="midnightblue" d="M1013.2,-418.808C994.287,-406.512 970.89,-391.303 956.588,-382.007"/>
<polygon fill="midnightblue" stroke="midnightblue" points="1011.51,-421.881 1021.8,-424.396 1015.32,-416.011 1011.51,-421.881"/>
</g>
<!-- Node40 -->
<g id="node40" class="node"><title>Node40</title>
<g id="a_node40"><a xlink:href="../../da/d39/gauss__radau__impl_8hpp.html" target="_top" xlink:title="src/pfasst/quadrature\l/gauss_radau_impl.hpp">
<polygon fill="white" stroke="black" points="1035.5,-357.5 1035.5,-387.5 1155.5,-387.5 1155.5,-357.5 1035.5,-357.5"/>
<text text-anchor="start" x="1043.5" y="-375.5" font-family="Helvetica,sans-Serif" font-size="10.00">src/pfasst/quadrature</text>
<text text-anchor="middle" x="1095.5" y="-364.5" font-family="Helvetica,sans-Serif" font-size="10.00">/gauss_radau_impl.hpp</text>
</a>
</g>
</g>
<!-- Node39&#45;&gt;Node40 -->
<g id="edge56" class="edge"><title>Node39&#45;&gt;Node40</title>
<path fill="none" stroke="midnightblue" d="M1054.93,-416.157C1061.93,-406.679 1070.79,-395.919 1078.56,-387.577"/>
<polygon fill="midnightblue" stroke="midnightblue" points="1052.02,-414.209 1049.1,-424.396 1057.73,-418.249 1052.02,-414.209"/>
</g>
<!-- Node40&#45;&gt;Node39 -->
<g id="edge57" class="edge"><title>Node40&#45;&gt;Node39</title>
<path fill="none" stroke="midnightblue" d="M1084.1,-395.811C1077.1,-405.287 1068.23,-416.049 1060.46,-424.396"/>
<polygon fill="midnightblue" stroke="midnightblue" points="1087,-397.764 1089.91,-387.577 1081.29,-393.725 1087,-397.764"/>
</g>
<!-- Node41&#45;&gt;Node4 -->
<g id="edge59" class="edge"><title>Node41&#45;&gt;Node4</title>
<path fill="none" stroke="midnightblue" d="M1135.22,-421.99C1084.86,-409.252 1017.23,-392.148 977.221,-382.029"/>
<polygon fill="midnightblue" stroke="midnightblue" points="1134.5,-425.417 1145.05,-424.476 1136.21,-418.631 1134.5,-425.417"/>
</g>
<!-- Node42 -->
<g id="node42" class="node"><title>Node42</title>
<g id="a_node42"><a xlink:href="../../dc/da0/uniform__impl_8hpp.html" target="_top" xlink:title="src/pfasst/quadrature\l/uniform_impl.hpp">
<polygon fill="white" stroke="black" points="1174,-357.5 1174,-387.5 1285,-387.5 1285,-357.5 1174,-357.5"/>
<text text-anchor="start" x="1182" y="-375.5" font-family="Helvetica,sans-Serif" font-size="10.00">src/pfasst/quadrature</text>
<text text-anchor="middle" x="1229.5" y="-364.5" font-family="Helvetica,sans-Serif" font-size="10.00">/uniform_impl.hpp</text>
</a>
</g>
</g>
<!-- Node41&#45;&gt;Node42 -->
<g id="edge60" class="edge"><title>Node41&#45;&gt;Node42</title>
<path fill="none" stroke="midnightblue" d="M1204.59,-414.697C1208.18,-405.587 1212.97,-395.493 1217.54,-387.577"/>
<polygon fill="midnightblue" stroke="midnightblue" points="1201.19,-413.801 1201.11,-424.396 1207.78,-416.163 1201.19,-413.801"/>
</g>
<!-- Node42&#45;&gt;Node41 -->
<g id="edge61" class="edge"><title>Node42&#45;&gt;Node41</title>
<path fill="none" stroke="midnightblue" d="M1225.42,-397.271C1221.83,-406.379 1217.04,-416.474 1212.47,-424.396"/>
<polygon fill="midnightblue" stroke="midnightblue" points="1228.82,-398.171 1228.89,-387.577 1222.23,-395.811 1228.82,-398.171"/>
</g>
</g>
</svg>
