<?xml version="1.0" encoding="UTF-8" standalone="no"?>
<!DOCTYPE svg PUBLIC "-//W3C//DTD SVG 1.1//EN"
 "http://www.w3.org/Graphics/SVG/1.1/DTD/svg11.dtd">
<!-- Generated by graphviz version 2.38.0 (20140413.2041)
 -->
<!-- Title: src/pfasst/controller/pfasst_impl.hpp Pages: 1 -->
<!--zoomable 565 -->
<svg id="main" version="1.1" xmlns="http://www.w3.org/2000/svg" xmlns:xlink="http://www.w3.org/1999/xlink" xml:space="preserve" onload="init(evt)">
<style type="text/css"><![CDATA[
.edge:hover path { stroke: red; }
.edge:hover polygon { stroke: red; fill: red; }
]]></style>
<script type="text/javascript"><![CDATA[
var edges = document.getElementsByTagName('g');
if (edges && edges.length) {
  for (var i=0;i<edges.length;i++) {
    if (edges[i].id.substr(0,4)=='edge') {
      edges[i].setAttribute('class','edge');
    }
  }
}
]]></script>
        <defs>
                <circle id="rim" cx="0" cy="0" r="7"/>
                <circle id="rim2" cx="0" cy="0" r="3.5"/>
                <g id="zoomPlus">
                        <use xlink:href="#rim" fill="#404040">
                                <set attributeName="fill" to="#808080" begin="zoomplus.mouseover" end="zoomplus.mouseout"/>
                        </use>
                        <path d="M-4,0h8M0,-4v8" fill="none" stroke="white" stroke-width="1.5" pointer-events="none"/>
                </g>
                <g id="zoomMin">
                        <use xlink:href="#rim" fill="#404040">
                                <set attributeName="fill" to="#808080" begin="zoomminus.mouseover" end="zoomminus.mouseout"/>
                        </use>
                        <path d="M-4,0h8" fill="none" stroke="white" stroke-width="1.5" pointer-events="none"/>
                </g>
                <g id="dirArrow">
                        <path fill="none" stroke="white" stroke-width="1.5" d="M0,-3.0v7 M-2.5,-0.5L0,-3.0L2.5,-0.5"/>
                </g>
               <g id="resetDef">
                       <use xlink:href="#rim2" fill="#404040">
                               <set attributeName="fill" to="#808080" begin="reset.mouseover" end="reset.mouseout"/>
                       </use>
               </g>
        </defs>

<script type="text/javascript">
var viewWidth = 783;
var viewHeight = 565;
var sectionId = 'dynsection-0';
</script>
<script xlink:href="../../svgpan.js"/>
<svg id="graph" class="graph">
<g id="viewport">
<title>src/pfasst/controller/pfasst_impl.hpp</title>
<polygon fill="white" stroke="none" points="-4,4 -4,-561 779.051,-561 779.051,4 -4,4"/>
<!-- Node1 -->
<g id="node1" class="node"><title>Node1</title>
<polygon fill="#bfbfbf" stroke="black" points="561.5,-526.5 561.5,-556.5 665.5,-556.5 665.5,-526.5 561.5,-526.5"/>
<text text-anchor="start" x="569.5" y="-544.5" font-family="Helvetica,sans-Serif" font-size="10.00">src/pfasst/controller</text>
<text text-anchor="middle" x="613.5" y="-533.5" font-family="Helvetica,sans-Serif" font-size="10.00">/pfasst_impl.hpp</text>
</g>
<!-- Node2 -->
<g id="node2" class="node"><title>Node2</title>
<g id="a_node2"><a xlink:href="../../d1/d0d/pfasst_2controller_2pfasst_8hpp.html" target="_top" xlink:title="pfasst/controller/pfasst.hpp">
<polygon fill="white" stroke="black" points="546.5,-470.5 546.5,-489.5 680.5,-489.5 680.5,-470.5 546.5,-470.5"/>
<text text-anchor="middle" x="613.5" y="-477.5" font-family="Helvetica,sans-Serif" font-size="10.00">pfasst/controller/pfasst.hpp</text>
</a>
</g>
</g>
<!-- Node1&#45;&gt;Node2 -->
<g id="edge1" class="edge"><title>Node1&#45;&gt;Node2</title>
<path fill="none" stroke="midnightblue" d="M607.66,-526.399C606.63,-518.377 606.474,-508.233 607.193,-499.569"/>
<polygon fill="midnightblue" stroke="midnightblue" points="610.66,-500.044 608.571,-489.658 603.727,-499.081 610.66,-500.044"/>
</g>
<!-- Node15 -->
<g id="node15" class="node"><title>Node15</title>
<g id="a_node15"><a xlink:href="../../d0/da9/logging_8hpp.html" target="_top" xlink:title="pfasst/logging.hpp">
<polygon fill="white" stroke="black" points="555.5,-168.5 555.5,-187.5 653.5,-187.5 653.5,-168.5 555.5,-168.5"/>
<text text-anchor="middle" x="604.5" y="-175.5" font-family="Helvetica,sans-Serif" font-size="10.00">pfasst/logging.hpp</text>
</a>
</g>
</g>
<!-- Node1&#45;&gt;Node15 -->
<g id="edge44" class="edge"><title>Node1&#45;&gt;Node15</title>
<path fill="none" stroke="midnightblue" d="M646.515,-526.469C682.646,-508.634 735.5,-474.146 735.5,-425 735.5,-425 735.5,-425 735.5,-294.5 735.5,-242.51 676.729,-208.349 637.917,-191.457"/>
<polygon fill="midnightblue" stroke="midnightblue" points="639.104,-188.16 628.527,-187.535 636.405,-194.619 639.104,-188.16"/>
</g>
<!-- Node2&#45;&gt;Node1 -->
<g id="edge43" class="edge"><title>Node2&#45;&gt;Node1</title>
<path fill="none" stroke="midnightblue" d="M618.429,-489.658C619.935,-496.655 620.507,-506.857 620.145,-516.289"/>
<polygon fill="midnightblue" stroke="midnightblue" points="616.645,-516.153 619.34,-526.399 623.623,-516.709 616.645,-516.153"/>
</g>
<!-- Node3 -->
<g id="node3" class="node"><title>Node3</title>
<g id="a_node3"><a xlink:href="../../da/d27/mlsdc_8hpp.html" target="_top" xlink:title="pfasst/controller/mlsdc.hpp">
<polygon fill="white" stroke="black" points="519,-414.5 519,-433.5 654,-433.5 654,-414.5 519,-414.5"/>
<text text-anchor="middle" x="586.5" y="-421.5" font-family="Helvetica,sans-Serif" font-size="10.00">pfasst/controller/mlsdc.hpp</text>
</a>
</g>
</g>
<!-- Node2&#45;&gt;Node3 -->
<g id="edge2" class="edge"><title>Node2&#45;&gt;Node3</title>
<path fill="none" stroke="midnightblue" d="M609.041,-470.083C605.346,-462.691 599.977,-451.953 595.406,-442.811"/>
<polygon fill="midnightblue" stroke="midnightblue" points="598.478,-441.13 590.876,-433.751 592.217,-444.261 598.478,-441.13"/>
</g>
<!-- Node4 -->
<g id="node4" class="node"><title>Node4</title>
<polygon fill="white" stroke="#bfbfbf" points="663.5,-353 663.5,-372 707.5,-372 707.5,-353 663.5,-353"/>
<text text-anchor="middle" x="685.5" y="-360" font-family="Helvetica,sans-Serif" font-size="10.00">vector</text>
</g>
<!-- Node3&#45;&gt;Node4 -->
<g id="edge3" class="edge"><title>Node3&#45;&gt;Node4</title>
<path fill="none" stroke="midnightblue" d="M600.684,-414.475C616.858,-404.755 643.526,-388.727 662.643,-377.237"/>
<polygon fill="midnightblue" stroke="midnightblue" points="664.574,-380.16 671.342,-372.009 660.968,-374.161 664.574,-380.16"/>
</g>
<!-- Node5 -->
<g id="node5" class="node"><title>Node5</title>
<g id="a_node5"><a xlink:href="../../d7/d5c/controller_2interface_8hpp.html" target="_top" xlink:title="pfasst/controller/interface.hpp">
<polygon fill="white" stroke="black" points="300.5,-353 300.5,-372 446.5,-372 446.5,-353 300.5,-353"/>
<text text-anchor="middle" x="373.5" y="-360" font-family="Helvetica,sans-Serif" font-size="10.00">pfasst/controller/interface.hpp</text>
</a>
</g>
</g>
<!-- Node3&#45;&gt;Node5 -->
<g id="edge4" class="edge"><title>Node3&#45;&gt;Node5</title>
<path fill="none" stroke="midnightblue" d="M555.982,-414.475C518.575,-404.026 455.073,-386.287 413.713,-374.733"/>
<polygon fill="midnightblue" stroke="midnightblue" points="414.534,-371.329 403.961,-372.009 412.651,-378.071 414.534,-371.329"/>
</g>
<!-- Node28 -->
<g id="node28" class="node"><title>Node28</title>
<g id="a_node28"><a xlink:href="../../d5/d0a/mlsdc__impl_8hpp.html" target="_top" xlink:title="pfasst/controller/mlsdc\l_impl.hpp">
<polygon fill="white" stroke="black" points="528,-347.5 528,-377.5 645,-377.5 645,-347.5 528,-347.5"/>
<text text-anchor="start" x="536" y="-365.5" font-family="Helvetica,sans-Serif" font-size="10.00">pfasst/controller/mlsdc</text>
<text text-anchor="middle" x="586.5" y="-354.5" font-family="Helvetica,sans-Serif" font-size="10.00">_impl.hpp</text>
</a>
</g>
</g>
<!-- Node3&#45;&gt;Node28 -->
<g id="edge39" class="edge"><title>Node3&#45;&gt;Node28</title>
<path fill="none" stroke="midnightblue" d="M581.599,-414.475C580.072,-407.471 579.491,-397.192 579.856,-387.696"/>
<polygon fill="midnightblue" stroke="midnightblue" points="583.361,-387.77 580.67,-377.523 576.383,-387.212 583.361,-387.77"/>
</g>
<!-- Node6 -->
<g id="node6" class="node"><title>Node6</title>
<polygon fill="white" stroke="#bfbfbf" points="324.5,-168.5 324.5,-187.5 374.5,-187.5 374.5,-168.5 324.5,-168.5"/>
<text text-anchor="middle" x="349.5" y="-175.5" font-family="Helvetica,sans-Serif" font-size="10.00">cassert</text>
</g>
<!-- Node5&#45;&gt;Node6 -->
<g id="edge5" class="edge"><title>Node5&#45;&gt;Node6</title>
<path fill="none" stroke="midnightblue" d="M355.041,-352.853C339.687,-344.532 318.884,-330.359 309.5,-311 290.522,-271.851 318.63,-221.783 336.548,-196.014"/>
<polygon fill="midnightblue" stroke="midnightblue" points="339.549,-197.837 342.582,-187.685 333.881,-193.73 339.549,-197.837"/>
</g>
<!-- Node7 -->
<g id="node7" class="node"><title>Node7</title>
<polygon fill="white" stroke="#bfbfbf" points="318.5,-286 318.5,-305 364.5,-305 364.5,-286 318.5,-286"/>
<text text-anchor="middle" x="341.5" y="-293" font-family="Helvetica,sans-Serif" font-size="10.00">deque</text>
</g>
<!-- Node5&#45;&gt;Node7 -->
<g id="edge6" class="edge"><title>Node5&#45;&gt;Node7</title>
<path fill="none" stroke="midnightblue" d="M369.184,-352.734C364.338,-342.89 356.348,-326.66 350.194,-314.159"/>
<polygon fill="midnightblue" stroke="midnightblue" points="353.304,-312.553 345.747,-305.127 347.024,-315.645 353.304,-312.553"/>
</g>
<!-- Node8 -->
<g id="node8" class="node"><title>Node8</title>
<polygon fill="white" stroke="#bfbfbf" points="383,-286 383,-305 430,-305 430,-286 383,-286"/>
<text text-anchor="middle" x="406.5" y="-293" font-family="Helvetica,sans-Serif" font-size="10.00">iterator</text>
</g>
<!-- Node5&#45;&gt;Node8 -->
<g id="edge7" class="edge"><title>Node5&#45;&gt;Node8</title>
<path fill="none" stroke="midnightblue" d="M377.951,-352.734C382.948,-342.89 391.188,-326.66 397.534,-314.159"/>
<polygon fill="midnightblue" stroke="midnightblue" points="400.714,-315.628 402.12,-305.127 394.472,-312.46 400.714,-315.628"/>
</g>
<!-- Node9 -->
<g id="node9" class="node"><title>Node9</title>
<polygon fill="white" stroke="#bfbfbf" points="0,-168.5 0,-187.5 53,-187.5 53,-168.5 0,-168.5"/>
<text text-anchor="middle" x="26.5" y="-175.5" font-family="Helvetica,sans-Serif" font-size="10.00">memory</text>
</g>
<!-- Node5&#45;&gt;Node9 -->
<g id="edge8" class="edge"><title>Node5&#45;&gt;Node9</title>
<path fill="none" stroke="midnightblue" d="M300.483,-355.902C247.986,-349.795 176.522,-337.129 118.5,-311 73.6782,-290.816 53.6675,-287.355 30.5,-244 22.9235,-229.822 22.5293,-211.341 23.6763,-197.712"/>
<polygon fill="midnightblue" stroke="midnightblue" points="27.1728,-197.948 24.8785,-187.604 20.2218,-197.121 27.1728,-197.948"/>
</g>
<!-- Node10 -->
<g id="node10" class="node"><title>Node10</title>
<g id="a_node10"><a xlink:href="../../d1/d1b/interfaces_8hpp.html" target="_top" xlink:title="interfaces for SDC/MLSDC/PFASST algorithms. ">
<polygon fill="white" stroke="black" points="128,-286 128,-305 235,-305 235,-286 128,-286"/>
<text text-anchor="middle" x="181.5" y="-293" font-family="Helvetica,sans-Serif" font-size="10.00">pfasst/interfaces.hpp</text>
</a>
</g>
</g>
<!-- Node5&#45;&gt;Node10 -->
<g id="edge9" class="edge"><title>Node5&#45;&gt;Node10</title>
<path fill="none" stroke="midnightblue" d="M348.004,-352.869C314.2,-341.424 254.403,-321.181 216.421,-308.322"/>
<polygon fill="midnightblue" stroke="midnightblue" points="217.39,-304.955 206.796,-305.064 215.145,-311.586 217.39,-304.955"/>
</g>
<!-- Node27 -->
<g id="node27" class="node"><title>Node27</title>
<g id="a_node27"><a xlink:href="../../d2/dbc/controller_2interface__impl_8hpp.html" target="_top" xlink:title="pfasst/controller/interface\l_impl.hpp">
<polygon fill="white" stroke="black" points="448.5,-280.5 448.5,-310.5 576.5,-310.5 576.5,-280.5 448.5,-280.5"/>
<text text-anchor="start" x="456.5" y="-298.5" font-family="Helvetica,sans-Serif" font-size="10.00">pfasst/controller/interface</text>
<text text-anchor="middle" x="512.5" y="-287.5" font-family="Helvetica,sans-Serif" font-size="10.00">_impl.hpp</text>
</a>
</g>
</g>
<!-- Node5&#45;&gt;Node27 -->
<g id="edge36" class="edge"><title>Node5&#45;&gt;Node27</title>
<path fill="none" stroke="midnightblue" d="M387.198,-352.869C405.895,-343.157 439.758,-327.109 467.638,-314.615"/>
<polygon fill="midnightblue" stroke="midnightblue" points="469.116,-317.788 476.833,-310.528 466.273,-311.391 469.116,-317.788"/>
</g>
<!-- Node10&#45;&gt;Node9 -->
<g id="edge10" class="edge"><title>Node10&#45;&gt;Node9</title>
<path fill="none" stroke="midnightblue" d="M127.965,-286.462C99.8836,-279.62 66.9558,-267.04 45.5,-244 33.867,-231.508 29.3177,-212.279 27.559,-197.972"/>
<polygon fill="midnightblue" stroke="midnightblue" points="31.0252,-197.432 26.6648,-187.776 24.052,-198.043 31.0252,-197.432"/>
</g>
<!-- Node11 -->
<g id="node11" class="node"><title>Node11</title>
<polygon fill="white" stroke="#bfbfbf" points="54.5,-224.5 54.5,-243.5 114.5,-243.5 114.5,-224.5 54.5,-224.5"/>
<text text-anchor="middle" x="84.5" y="-231.5" font-family="Helvetica,sans-Serif" font-size="10.00">stdexcept</text>
</g>
<!-- Node10&#45;&gt;Node11 -->
<g id="edge11" class="edge"><title>Node10&#45;&gt;Node11</title>
<path fill="none" stroke="midnightblue" d="M167.602,-285.975C151.828,-276.299 125.863,-260.372 107.151,-248.894"/>
<polygon fill="midnightblue" stroke="midnightblue" points="108.726,-245.754 98.372,-243.509 105.066,-251.721 108.726,-245.754"/>
</g>
<!-- Node12 -->
<g id="node12" class="node"><title>Node12</title>
<polygon fill="white" stroke="#bfbfbf" points="160,-56.5 160,-75.5 201,-75.5 201,-56.5 160,-56.5"/>
<text text-anchor="middle" x="180.5" y="-63.5" font-family="Helvetica,sans-Serif" font-size="10.00">string</text>
</g>
<!-- Node10&#45;&gt;Node12 -->
<g id="edge12" class="edge"><title>Node10&#45;&gt;Node12</title>
<path fill="none" stroke="midnightblue" d="M176.91,-285.865C171.972,-276.045 164.434,-259.376 161.5,-244 150.567,-186.7 166.084,-117.677 174.991,-85.3655"/>
<polygon fill="midnightblue" stroke="midnightblue" points="178.415,-86.1246 177.812,-75.5469 171.687,-84.1916 178.415,-86.1246"/>
</g>
<!-- Node13 -->
<g id="node13" class="node"><title>Node13</title>
<g id="a_node13"><a xlink:href="../../d8/dc4/interfaces__impl_8hpp.html" target="_top" xlink:title="pfasst/interfaces_impl.hpp">
<polygon fill="white" stroke="black" points="171,-224.5 171,-243.5 302,-243.5 302,-224.5 171,-224.5"/>
<text text-anchor="middle" x="236.5" y="-231.5" font-family="Helvetica,sans-Serif" font-size="10.00">pfasst/interfaces_impl.hpp</text>
</a>
</g>
</g>
<!-- Node10&#45;&gt;Node13 -->
<g id="edge13" class="edge"><title>Node10&#45;&gt;Node13</title>
<path fill="none" stroke="midnightblue" d="M184.48,-285.975C191.033,-276.697 204.559,-261.671 216.339,-250.331"/>
<polygon fill="midnightblue" stroke="midnightblue" points="218.758,-252.861 223.737,-243.509 214.013,-247.715 218.758,-252.861"/>
</g>
<!-- Node13&#45;&gt;Node6 -->
<g id="edge15" class="edge"><title>Node13&#45;&gt;Node6</title>
<path fill="none" stroke="midnightblue" d="M254.405,-224.444C272.754,-215.675 301.505,-201.935 322.594,-191.858"/>
<polygon fill="midnightblue" stroke="midnightblue" points="324.165,-194.986 331.679,-187.516 321.147,-188.67 324.165,-194.986"/>
</g>
<!-- Node13&#45;&gt;Node9 -->
<g id="edge16" class="edge"><title>Node13&#45;&gt;Node9</title>
<path fill="none" stroke="midnightblue" d="M203.225,-224.444C165.03,-214.622 102.581,-198.564 63.0581,-188.401"/>
<polygon fill="midnightblue" stroke="midnightblue" points="63.8457,-184.989 53.2891,-185.889 62.1024,-191.769 63.8457,-184.989"/>
</g>
<!-- Node13&#45;&gt;Node10 -->
<g id="edge14" class="edge"><title>Node13&#45;&gt;Node10</title>
<path fill="none" stroke="midnightblue" d="M233.532,-243.509C226.986,-252.781 213.463,-267.806 201.681,-279.15"/>
<polygon fill="midnightblue" stroke="midnightblue" points="199.258,-276.622 194.281,-285.975 204.004,-281.768 199.258,-276.622"/>
</g>
<!-- Node13&#45;&gt;Node12 -->
<g id="edge17" class="edge"><title>Node13&#45;&gt;Node12</title>
<path fill="none" stroke="midnightblue" d="M226.931,-224.354C218.288,-215.956 205.962,-202.394 199.5,-188 184.314,-154.171 181.001,-110.284 180.432,-85.7391"/>
<polygon fill="midnightblue" stroke="midnightblue" points="183.931,-85.6142 180.331,-75.6495 176.931,-85.6837 183.931,-85.6142"/>
</g>
<!-- Node14 -->
<g id="node14" class="node"><title>Node14</title>
<g id="a_node14"><a xlink:href="../../d5/d82/globals_8hpp.html" target="_top" xlink:title="pfasst/globals.hpp">
<polygon fill="white" stroke="black" points="209,-168.5 209,-187.5 306,-187.5 306,-168.5 209,-168.5"/>
<text text-anchor="middle" x="257.5" y="-175.5" font-family="Helvetica,sans-Serif" font-size="10.00">pfasst/globals.hpp</text>
</a>
</g>
</g>
<!-- Node13&#45;&gt;Node14 -->
<g id="edge18" class="edge"><title>Node13&#45;&gt;Node14</title>
<path fill="none" stroke="midnightblue" d="M239.968,-224.083C242.812,-216.77 246.929,-206.181 250.46,-197.103"/>
<polygon fill="midnightblue" stroke="midnightblue" points="253.734,-198.34 254.097,-187.751 247.21,-195.803 253.734,-198.34"/>
</g>
<!-- Node13&#45;&gt;Node15 -->
<g id="edge19" class="edge"><title>Node13&#45;&gt;Node15</title>
<path fill="none" stroke="midnightblue" d="M294.811,-224.444C363.245,-214.402 476.112,-197.84 545.039,-187.725"/>
<polygon fill="midnightblue" stroke="midnightblue" points="545.909,-191.135 555.295,-186.22 544.893,-184.209 545.909,-191.135"/>
</g>
<!-- Node15&#45;&gt;Node12 -->
<g id="edge22" class="edge"><title>Node15&#45;&gt;Node12</title>
<path fill="none" stroke="midnightblue" d="M555.285,-174.895C494.324,-171.117 387.944,-160.665 301.5,-132 264.134,-119.609 224.642,-96.1688 201.305,-81.0826"/>
<polygon fill="midnightblue" stroke="midnightblue" points="203.186,-78.131 192.908,-75.5618 199.341,-83.9801 203.186,-78.131"/>
</g>
<!-- Node16 -->
<g id="node16" class="node"><title>Node16</title>
<polygon fill="white" stroke="#bfbfbf" points="709.5,-112.5 709.5,-131.5 761.5,-131.5 761.5,-112.5 709.5,-112.5"/>
<text text-anchor="middle" x="735.5" y="-119.5" font-family="Helvetica,sans-Serif" font-size="10.00">iomanip</text>
</g>
<!-- Node15&#45;&gt;Node16 -->
<g id="edge20" class="edge"><title>Node15&#45;&gt;Node16</title>
<path fill="none" stroke="midnightblue" d="M625.257,-168.444C646.816,-159.557 680.763,-145.563 705.294,-135.451"/>
<polygon fill="midnightblue" stroke="midnightblue" points="706.928,-138.563 714.84,-131.516 704.261,-132.092 706.928,-138.563"/>
</g>
<!-- Node17 -->
<g id="node17" class="node"><title>Node17</title>
<polygon fill="white" stroke="#bfbfbf" points="673.5,-56.5 673.5,-75.5 729.5,-75.5 729.5,-56.5 673.5,-56.5"/>
<text text-anchor="middle" x="701.5" y="-63.5" font-family="Helvetica,sans-Serif" font-size="10.00">iostream</text>
</g>
<!-- Node15&#45;&gt;Node17 -->
<g id="edge21" class="edge"><title>Node15&#45;&gt;Node17</title>
<path fill="none" stroke="midnightblue" d="M653.803,-170.301C697.426,-163.243 756.303,-150.558 770.5,-132 786.017,-111.717 757.37,-92.1405 732.399,-79.8667"/>
<polygon fill="midnightblue" stroke="midnightblue" points="733.65,-76.5885 723.108,-75.534 730.691,-82.9325 733.65,-76.5885"/>
</g>
<!-- Node18 -->
<g id="node18" class="node"><title>Node18</title>
<polygon fill="white" stroke="#bfbfbf" points="420,-112.5 420,-131.5 551,-131.5 551,-112.5 420,-112.5"/>
<text text-anchor="middle" x="485.5" y="-119.5" font-family="Helvetica,sans-Serif" font-size="10.00">boost/algorithm/string.hpp</text>
</g>
<!-- Node15&#45;&gt;Node18 -->
<g id="edge23" class="edge"><title>Node15&#45;&gt;Node18</title>
<path fill="none" stroke="midnightblue" d="M585.644,-168.444C566.234,-159.636 535.77,-145.812 513.535,-135.722"/>
<polygon fill="midnightblue" stroke="midnightblue" points="514.82,-132.462 504.268,-131.516 511.928,-138.836 514.82,-132.462"/>
</g>
<!-- Node19 -->
<g id="node19" class="node"><title>Node19</title>
<g id="a_node19"><a xlink:href="../../d8/dfd/config_8hpp.html" target="_top" xlink:title="pfasst/config.hpp">
<polygon fill="white" stroke="black" points="311,-112.5 311,-131.5 402,-131.5 402,-112.5 311,-112.5"/>
<text text-anchor="middle" x="356.5" y="-119.5" font-family="Helvetica,sans-Serif" font-size="10.00">pfasst/config.hpp</text>
</a>
</g>
</g>
<!-- Node15&#45;&gt;Node19 -->
<g id="edge24" class="edge"><title>Node15&#45;&gt;Node19</title>
<path fill="none" stroke="midnightblue" d="M565.204,-168.444C521.941,-159.023 452.327,-143.866 405.527,-133.675"/>
<polygon fill="midnightblue" stroke="midnightblue" points="406.128,-130.224 395.612,-131.516 404.639,-137.064 406.128,-130.224"/>
</g>
<!-- Node26 -->
<g id="node26" class="node"><title>Node26</title>
<polygon fill="white" stroke="#bfbfbf" points="569.5,-112.5 569.5,-131.5 691.5,-131.5 691.5,-112.5 569.5,-112.5"/>
<text text-anchor="middle" x="630.5" y="-119.5" font-family="Helvetica,sans-Serif" font-size="10.00">pfasst/easylogging++.h</text>
</g>
<!-- Node15&#45;&gt;Node26 -->
<g id="edge35" class="edge"><title>Node15&#45;&gt;Node26</title>
<path fill="none" stroke="midnightblue" d="M608.793,-168.083C612.352,-160.691 617.522,-149.953 621.924,-140.811"/>
<polygon fill="midnightblue" stroke="midnightblue" points="625.102,-142.279 626.287,-131.751 618.795,-139.243 625.102,-142.279"/>
</g>
<!-- Node19&#45;&gt;Node12 -->
<g id="edge27" class="edge"><title>Node19&#45;&gt;Node12</title>
<path fill="none" stroke="midnightblue" d="M328.612,-112.444C296.462,-102.579 243.808,-86.424 210.708,-76.2685"/>
<polygon fill="midnightblue" stroke="midnightblue" points="211.695,-72.9102 201.108,-73.323 209.642,-79.6023 211.695,-72.9102"/>
</g>
<!-- Node19&#45;&gt;Node17 -->
<g id="edge26" class="edge"><title>Node19&#45;&gt;Node17</title>
<path fill="none" stroke="midnightblue" d="M402.159,-113.352C404.981,-112.891 407.779,-112.437 410.5,-112 501.069,-97.4504 607.64,-81.189 663.285,-72.7635"/>
<polygon fill="midnightblue" stroke="midnightblue" points="664.027,-76.1912 673.391,-71.2347 662.98,-69.2699 664.027,-76.1912"/>
</g>
<!-- Node20 -->
<g id="node20" class="node"><title>Node20</title>
<polygon fill="white" stroke="#bfbfbf" points="540.5,-0.5 540.5,-19.5 590.5,-19.5 590.5,-0.5 540.5,-0.5"/>
<text text-anchor="middle" x="565.5" y="-7.5" font-family="Helvetica,sans-Serif" font-size="10.00">fstream</text>
</g>
<!-- Node19&#45;&gt;Node20 -->
<g id="edge25" class="edge"><title>Node19&#45;&gt;Node20</title>
<path fill="none" stroke="midnightblue" d="M402.104,-113.206C456.661,-103.475 542.005,-86.7959 552.5,-76 564.146,-64.0194 566.764,-44.7211 566.848,-30.259"/>
<polygon fill="midnightblue" stroke="midnightblue" points="570.335,-29.8046 566.496,-19.9296 563.339,-30.043 570.335,-29.8046"/>
</g>
<!-- Node21 -->
<g id="node21" class="node"><title>Node21</title>
<polygon fill="white" stroke="#bfbfbf" points="219.5,-56.5 219.5,-75.5 255.5,-75.5 255.5,-56.5 219.5,-56.5"/>
<text text-anchor="middle" x="237.5" y="-63.5" font-family="Helvetica,sans-Serif" font-size="10.00">map</text>
</g>
<!-- Node19&#45;&gt;Node21 -->
<g id="edge28" class="edge"><title>Node19&#45;&gt;Node21</title>
<path fill="none" stroke="midnightblue" d="M337.644,-112.444C318.12,-103.584 287.411,-89.6488 265.144,-79.5443"/>
<polygon fill="midnightblue" stroke="midnightblue" points="266.429,-76.2841 255.877,-75.339 263.537,-82.6585 266.429,-76.2841"/>
</g>
<!-- Node22 -->
<g id="node22" class="node"><title>Node22</title>
<polygon fill="white" stroke="#bfbfbf" points="274,-56.5 274,-75.5 411,-75.5 411,-56.5 274,-56.5"/>
<text text-anchor="middle" x="342.5" y="-63.5" font-family="Helvetica,sans-Serif" font-size="10.00">boost/program_options.hpp</text>
</g>
<!-- Node19&#45;&gt;Node22 -->
<g id="edge29" class="edge"><title>Node19&#45;&gt;Node22</title>
<path fill="none" stroke="midnightblue" d="M354.188,-112.083C352.333,-104.927 349.665,-94.6353 347.346,-85.6911"/>
<polygon fill="midnightblue" stroke="midnightblue" points="350.666,-84.5527 344.769,-75.7511 343.891,-86.3094 350.666,-84.5527"/>
</g>
<!-- Node23 -->
<g id="node23" class="node"><title>Node23</title>
<g id="a_node23"><a xlink:href="../../d5/d84/config__impl_8hpp.html" target="_top" xlink:title="pfasst/config_impl.hpp">
<polygon fill="white" stroke="black" points="429.5,-56.5 429.5,-75.5 543.5,-75.5 543.5,-56.5 429.5,-56.5"/>
<text text-anchor="middle" x="486.5" y="-63.5" font-family="Helvetica,sans-Serif" font-size="10.00">pfasst/config_impl.hpp</text>
</a>
</g>
</g>
<!-- Node19&#45;&gt;Node23 -->
<g id="edge30" class="edge"><title>Node19&#45;&gt;Node23</title>
<path fill="none" stroke="midnightblue" d="M372.01,-112.444C391.628,-103.478 425.505,-89.314 451.421,-79.1827"/>
<polygon fill="midnightblue" stroke="midnightblue" points="452.849,-82.3832 460.918,-75.5164 450.328,-75.853 452.849,-82.3832"/>
</g>
<!-- Node23&#45;&gt;Node19 -->
<g id="edge31" class="edge"><title>Node23&#45;&gt;Node19</title>
<path fill="none" stroke="midnightblue" d="M471.077,-75.5164C451.502,-84.4669 417.634,-98.6287 391.695,-108.772"/>
<polygon fill="midnightblue" stroke="midnightblue" points="390.255,-105.576 382.188,-112.444 392.777,-112.106 390.255,-105.576"/>
</g>
<!-- Node23&#45;&gt;Node20 -->
<g id="edge32" class="edge"><title>Node23&#45;&gt;Node20</title>
<path fill="none" stroke="midnightblue" d="M499.193,-56.324C511.401,-47.979 530.078,-35.2122 544.503,-25.3524"/>
<polygon fill="midnightblue" stroke="midnightblue" points="546.558,-28.1871 552.839,-19.6545 542.608,-22.4082 546.558,-28.1871"/>
</g>
<!-- Node24 -->
<g id="node24" class="node"><title>Node24</title>
<polygon fill="white" stroke="#bfbfbf" points="402,-0.5 402,-19.5 455,-19.5 455,-0.5 402,-0.5"/>
<text text-anchor="middle" x="428.5" y="-7.5" font-family="Helvetica,sans-Serif" font-size="10.00">sstream</text>
</g>
<!-- Node23&#45;&gt;Node24 -->
<g id="edge33" class="edge"><title>Node23&#45;&gt;Node24</title>
<path fill="none" stroke="midnightblue" d="M477.181,-56.324C468.607,-48.3414 455.688,-36.3128 445.312,-26.6529"/>
<polygon fill="midnightblue" stroke="midnightblue" points="447.692,-24.0865 437.988,-19.8339 442.922,-29.2098 447.692,-24.0865"/>
</g>
<!-- Node25 -->
<g id="node25" class="node"><title>Node25</title>
<polygon fill="white" stroke="#bfbfbf" points="473.5,-0.5 473.5,-19.5 511.5,-19.5 511.5,-0.5 473.5,-0.5"/>
<text text-anchor="middle" x="492.5" y="-7.5" font-family="Helvetica,sans-Serif" font-size="10.00">utility</text>
</g>
<!-- Node23&#45;&gt;Node25 -->
<g id="edge34" class="edge"><title>Node23&#45;&gt;Node25</title>
<path fill="none" stroke="midnightblue" d="M487.491,-56.083C488.286,-48.9272 489.429,-38.6353 490.423,-29.6911"/>
<polygon fill="midnightblue" stroke="midnightblue" points="493.902,-30.0765 491.528,-19.7511 486.945,-29.3034 493.902,-30.0765"/>
</g>
<!-- Node27&#45;&gt;Node5 -->
<g id="edge37" class="edge"><title>Node27&#45;&gt;Node5</title>
<path fill="none" stroke="midnightblue" d="M487.922,-310.652C465.114,-322.011 431.243,-337.819 406.185,-348.781"/>
<polygon fill="midnightblue" stroke="midnightblue" points="404.511,-345.691 396.718,-352.869 407.286,-352.118 404.511,-345.691"/>
</g>
<!-- Node27&#45;&gt;Node19 -->
<g id="edge38" class="edge"><title>Node27&#45;&gt;Node19</title>
<path fill="none" stroke="midnightblue" d="M499.734,-280.465C471.022,-248.901 401.5,-172.472 371.118,-139.071"/>
<polygon fill="midnightblue" stroke="midnightblue" points="373.604,-136.602 364.286,-131.56 368.426,-141.312 373.604,-136.602"/>
</g>
<!-- Node28&#45;&gt;Node3 -->
<g id="edge40" class="edge"><title>Node28&#45;&gt;Node3</title>
<path fill="none" stroke="midnightblue" d="M592.33,-377.523C593.373,-385.586 593.529,-395.813 592.799,-404.526"/>
<polygon fill="midnightblue" stroke="midnightblue" points="589.327,-404.085 591.401,-414.475 596.259,-405.06 589.327,-404.085"/>
</g>
<!-- Node28&#45;&gt;Node15 -->
<g id="edge42" class="edge"><title>Node28&#45;&gt;Node15</title>
<path fill="none" stroke="midnightblue" d="M587.883,-347.483C591.077,-315.097 598.973,-235.037 602.61,-198.159"/>
<polygon fill="midnightblue" stroke="midnightblue" points="606.132,-198.114 603.63,-187.819 599.165,-197.427 606.132,-198.114"/>
</g>
<!-- Node29 -->
<g id="node29" class="node"><title>Node29</title>
<polygon fill="white" stroke="#bfbfbf" points="632.5,-286 632.5,-305 690.5,-305 690.5,-286 632.5,-286"/>
<text text-anchor="middle" x="661.5" y="-293" font-family="Helvetica,sans-Serif" font-size="10.00">algorithm</text>
</g>
<!-- Node28&#45;&gt;Node29 -->
<g id="edge41" class="edge"><title>Node28&#45;&gt;Node29</title>
<path fill="none" stroke="midnightblue" d="M602.774,-347.396C614.815,-336.96 631.211,-322.751 643.618,-311.998"/>
<polygon fill="midnightblue" stroke="midnightblue" points="646.203,-314.389 651.468,-305.195 641.619,-309.099 646.203,-314.389"/>
</g>
</g>
</svg>
        <g id="navigator" transform="translate(0 0)" fill="#404254">
                <rect fill="#f2f5e9" fill-opacity="0.5" stroke="#606060" stroke-width=".5" x="0" y="0" width="60" height="60"/>
                <use id="zoomplus" xlink:href="#zoomPlus" x="17" y="9" onmousedown="handleZoom(evt,'in')"/>
                <use id="zoomminus" xlink:href="#zoomMin" x="42" y="9" onmousedown="handleZoom(evt,'out')"/>
                <use id="reset" xlink:href="#resetDef" x="30" y="36" onmousedown="handleReset()"/>
                <g id="arrowUp" xlink:href="#dirArrow" transform="translate(30 24)" onmousedown="handlePan(0,-1)">
                  <use xlink:href="#rim" fill="#404040">
                        <set attributeName="fill" to="#808080" begin="arrowUp.mouseover" end="arrowUp.mouseout"/>
                  </use>
                  <path fill="none" stroke="white" stroke-width="1.5" d="M0,-3.0v7 M-2.5,-0.5L0,-3.0L2.5,-0.5"/>
                </g>
                <g id="arrowRight" xlink:href="#dirArrow" transform="rotate(90) translate(36 -43)" onmousedown="handlePan(1,0)">
                  <use xlink:href="#rim" fill="#404040">
                        <set attributeName="fill" to="#808080" begin="arrowRight.mouseover" end="arrowRight.mouseout"/>
                  </use>
                  <path fill="none" stroke="white" stroke-width="1.5" d="M0,-3.0v7 M-2.5,-0.5L0,-3.0L2.5,-0.5"/>
                </g>
                <g id="arrowDown" xlink:href="#dirArrow" transform="rotate(180) translate(-30 -48)" onmousedown="handlePan(0,1)">
                  <use xlink:href="#rim" fill="#404040">
                        <set attributeName="fill" to="#808080" begin="arrowDown.mouseover" end="arrowDown.mouseout"/>
                  </use>
                  <path fill="none" stroke="white" stroke-width="1.5" d="M0,-3.0v7 M-2.5,-0.5L0,-3.0L2.5,-0.5"/>
                </g>
                <g id="arrowLeft" xlink:href="#dirArrow" transform="rotate(270) translate(-36 17)" onmousedown="handlePan(-1,0)">
                  <use xlink:href="#rim" fill="#404040">
                        <set attributeName="fill" to="#808080" begin="arrowLeft.mouseover" end="arrowLeft.mouseout"/>
                  </use>
                  <path fill="none" stroke="white" stroke-width="1.5" d="M0,-3.0v7 M-2.5,-0.5L0,-3.0L2.5,-0.5"/>
                </g>
        </g>
        <svg viewBox="0 0 15 15" width="100%" height="30px" preserveAspectRatio="xMaxYMin meet">
         <g id="arrow_out" transform="scale(0.3 0.3)">
          <a xlink:href="pfasst__impl_8hpp__incl_org.svg" target="_base">
           <rect id="button" ry="5" rx="5" y="6" x="6" height="38" width="38"
                fill="#f2f5e9" fill-opacity="0.5" stroke="#606060" stroke-width="1.0"/>
           <path id="arrow"
             d="M 11.500037,31.436501 C 11.940474,20.09759 22.043105,11.32322 32.158766,21.979434 L 37.068811,17.246167 C 37.068811,17.246167 37.088388,32 37.088388,32 L 22.160133,31.978069 C 22.160133,31.978069 26.997745,27.140456 26.997745,27.140456 C 18.528582,18.264221 13.291696,25.230495 11.500037,31.436501 z"
             style="fill:#404040;"/>
          </a>
         </g>
        </svg>
</svg>
