<?xml version="1.0" encoding="UTF-8" standalone="no"?>
<!DOCTYPE svg PUBLIC "-//W3C//DTD SVG 1.1//EN"
 "http://www.w3.org/Graphics/SVG/1.1/DTD/svg11.dtd">
<!-- Generated by graphviz version 2.38.0 (20140413.2041)
 -->
<!-- Title: pfasst::config::options::get_variables_map Pages: 1 -->
<svg width="973pt" height="177pt"
 viewBox="0.00 0.00 973.00 176.98" xmlns="http://www.w3.org/2000/svg" xmlns:xlink="http://www.w3.org/1999/xlink">
<g id="graph0" class="graph" transform="scale(1 1) rotate(0) translate(4 172.981)">
<title>pfasst::config::options::get_variables_map</title>
<polygon fill="white" stroke="none" points="-4,4 -4,-172.981 969,-172.981 969,4 -4,4"/>
<!-- Node1 -->
<g id="node1" class="node"><title>Node1</title>
<polygon fill="#bfbfbf" stroke="black" points="0,-27.5 0,-57.5 114,-57.5 114,-27.5 0,-27.5"/>
<text text-anchor="start" x="8" y="-45.5" font-family="Helvetica,sans-Serif" font-size="10.00">pfasst::config::options</text>
<text text-anchor="middle" x="57" y="-34.5" font-family="Helvetica,sans-Serif" font-size="10.00">::get_variables_map</text>
</g>
<!-- Node2 -->
<g id="node2" class="node"><title>Node2</title>
<g id="a_node2"><a xlink:href="../../da/d50/namespacepfasst_1_1log.html#a8502afef42b4e98a12249d5fa1fed092" target="_top" xlink:title="Provides convenient way of adding additional named loggers. ">
<polygon fill="white" stroke="black" points="302,-49.5 302,-79.5 427,-79.5 427,-49.5 302,-49.5"/>
<text text-anchor="start" x="310" y="-67.5" font-family="Helvetica,sans-Serif" font-size="10.00">pfasst::log::add_custom</text>
<text text-anchor="middle" x="364.5" y="-56.5" font-family="Helvetica,sans-Serif" font-size="10.00">_logger</text>
</a>
</g>
</g>
<!-- Node1&#45;&gt;Node2 -->
<g id="edge1" class="edge"><title>Node1&#45;&gt;Node2</title>
<path fill="none" stroke="midnightblue" d="M124.296,-47.2742C177.037,-51.0722 250.28,-56.3467 301.784,-60.0556"/>
<polygon fill="midnightblue" stroke="midnightblue" points="124.259,-43.7625 114.033,-46.5351 123.756,-50.7445 124.259,-43.7625"/>
</g>
<!-- Node10 -->
<g id="node10" class="node"><title>Node10</title>
<g id="a_node10"><a xlink:href="../../de/d8c/group__Internals.html#ga2f4ba84c8482c3fb5c86e599804f832a" target="_top" xlink:title="Sets global logging options. ">
<polygon fill="white" stroke="black" points="150,-5.5 150,-35.5 266,-35.5 266,-5.5 150,-5.5"/>
<text text-anchor="start" x="158" y="-23.5" font-family="Helvetica,sans-Serif" font-size="10.00">pfasst::log::set_global</text>
<text text-anchor="middle" x="208" y="-12.5" font-family="Helvetica,sans-Serif" font-size="10.00">_logging_options</text>
</a>
</g>
</g>
<!-- Node1&#45;&gt;Node10 -->
<g id="edge10" class="edge"><title>Node1&#45;&gt;Node10</title>
<path fill="none" stroke="midnightblue" d="M124.462,-32.6868C132.847,-31.4487 141.37,-30.1903 149.599,-28.9753"/>
<polygon fill="midnightblue" stroke="midnightblue" points="123.712,-29.2595 114.331,-34.1827 124.735,-36.1844 123.712,-29.2595"/>
</g>
<!-- Node3 -->
<g id="node3" class="node"><title>Node3</title>
<g id="a_node3"><a xlink:href="../../d2/dfe/classpfasst_1_1examples_1_1advection__diffusion_1_1AdvectionDiffusionSweeper.html#aeadc517097ebebd2eb14398271d6d576" target="_top" xlink:title="pfasst::examples::advection\l_diffusion::AdvectionDiffusionSweeper\l::init_logs">
<polygon fill="white" stroke="black" points="463,-98 463,-139 651,-139 651,-98 463,-98"/>
<text text-anchor="start" x="471" y="-127" font-family="Helvetica,sans-Serif" font-size="10.00">pfasst::examples::advection</text>
<text text-anchor="start" x="471" y="-116" font-family="Helvetica,sans-Serif" font-size="10.00">_diffusion::AdvectionDiffusionSweeper</text>
<text text-anchor="middle" x="557" y="-105" font-family="Helvetica,sans-Serif" font-size="10.00">::init_logs</text>
</a>
</g>
</g>
<!-- Node2&#45;&gt;Node3 -->
<g id="edge2" class="edge"><title>Node2&#45;&gt;Node3</title>
<path fill="none" stroke="midnightblue" d="M428.221,-82.2793C445.953,-87.3056 465.394,-92.8163 483.643,-97.9893"/>
<polygon fill="midnightblue" stroke="midnightblue" points="429.14,-78.9019 418.565,-79.542 427.231,-85.6366 429.14,-78.9019"/>
</g>
<!-- Node4 -->
<g id="node4" class="node"><title>Node4</title>
<g id="a_node4"><a xlink:href="../../da/d74/namespacepfasst_1_1examples_1_1boris.html#a87ab9b1f4a83b4f932e9a3cd588cbbad" target="_top" xlink:title="pfasst::examples::boris\l::init_logs">
<polygon fill="white" stroke="black" points="496.5,-49.5 496.5,-79.5 617.5,-79.5 617.5,-49.5 496.5,-49.5"/>
<text text-anchor="start" x="504.5" y="-67.5" font-family="Helvetica,sans-Serif" font-size="10.00">pfasst::examples::boris</text>
<text text-anchor="middle" x="557" y="-56.5" font-family="Helvetica,sans-Serif" font-size="10.00">::init_logs</text>
</a>
</g>
</g>
<!-- Node2&#45;&gt;Node4 -->
<g id="edge3" class="edge"><title>Node2&#45;&gt;Node4</title>
<path fill="none" stroke="midnightblue" d="M437.128,-64.5C456.611,-64.5 477.501,-64.5 496.249,-64.5"/>
<polygon fill="midnightblue" stroke="midnightblue" points="437.087,-61.0001 427.087,-64.5 437.087,-68.0001 437.087,-61.0001"/>
</g>
<!-- Node5 -->
<g id="node5" class="node"><title>Node5</title>
<g id="a_node5"><a xlink:href="../../de/d8c/group__Internals.html#ga94bc88666f61bcc6d85072e6dfdd21f4" target="_top" xlink:title="Sets default configuration for default loggers. ">
<polygon fill="white" stroke="black" points="494.5,-0.5 494.5,-30.5 619.5,-30.5 619.5,-0.5 494.5,-0.5"/>
<text text-anchor="start" x="502.5" y="-18.5" font-family="Helvetica,sans-Serif" font-size="10.00">pfasst::log::load_default</text>
<text text-anchor="middle" x="557" y="-7.5" font-family="Helvetica,sans-Serif" font-size="10.00">_config</text>
</a>
</g>
</g>
<!-- Node2&#45;&gt;Node5 -->
<g id="edge4" class="edge"><title>Node2&#45;&gt;Node5</title>
<path fill="none" stroke="midnightblue" d="M433.729,-46.9502C454.649,-41.5694 477.464,-35.701 497.66,-30.5062"/>
<polygon fill="midnightblue" stroke="midnightblue" points="432.764,-43.5846 423.951,-49.4654 434.508,-50.3639 432.764,-43.5846"/>
</g>
<!-- Node9 -->
<g id="node9" class="node"><title>Node9</title>
<g id="a_node9"><a xlink:href="../../df/df8/test__advection__diffusion_8cpp.html#a3c04138a5bfe5d72780bb7e82a18e627" target="_top" xlink:title="main">
<polygon fill="white" stroke="black" points="841.5,-101 841.5,-120 879.5,-120 879.5,-101 841.5,-101"/>
<text text-anchor="middle" x="860.5" y="-108" font-family="Helvetica,sans-Serif" font-size="10.00">main</text>
</a>
</g>
</g>
<!-- Node2&#45;&gt;Node9 -->
<g id="edge9" class="edge"><title>Node2&#45;&gt;Node9</title>
<path fill="none" stroke="midnightblue" d="M383.7,-87.5547C401.429,-107.986 430.416,-136.4 463,-148.5 601.08,-199.778 783.874,-139.42 841.385,-117.696"/>
<polygon fill="midnightblue" stroke="midnightblue" points="386.148,-85.028 377.033,-79.6277 380.791,-89.5336 386.148,-85.028"/>
</g>
<!-- Node6 -->
<g id="node6" class="node"><title>Node6</title>
<g id="a_node6"><a xlink:href="../../de/d8c/group__Internals.html#ga73cf933834ba5e5141119310aee971b9" target="_top" xlink:title="Starts easylogging++ with given arguments and loads configuration. ">
<polygon fill="white" stroke="black" points="687,-35 687,-54 794,-54 794,-35 687,-35"/>
<text text-anchor="middle" x="740.5" y="-42" font-family="Helvetica,sans-Serif" font-size="10.00">pfasst::log::start_log</text>
</a>
</g>
</g>
<!-- Node5&#45;&gt;Node6 -->
<g id="edge5" class="edge"><title>Node5&#45;&gt;Node6</title>
<path fill="none" stroke="midnightblue" d="M629.811,-26.974C648.81,-30.0096 668.967,-33.2303 686.749,-36.0715"/>
<polygon fill="midnightblue" stroke="midnightblue" points="630.128,-23.4802 619.701,-25.3585 629.023,-30.3926 630.128,-23.4802"/>
</g>
<!-- Node7 -->
<g id="node7" class="node"><title>Node7</title>
<g id="a_node7"><a xlink:href="../../dc/d57/namespacepfasst.html#a2ad4b6987b5c66b90166f77fc4230e92" target="_top" xlink:title="pfasst::init">
<polygon fill="white" stroke="black" points="830,-35 830,-54 891,-54 891,-35 830,-35"/>
<text text-anchor="middle" x="860.5" y="-42" font-family="Helvetica,sans-Serif" font-size="10.00">pfasst::init</text>
</a>
</g>
</g>
<!-- Node6&#45;&gt;Node7 -->
<g id="edge6" class="edge"><title>Node6&#45;&gt;Node7</title>
<path fill="none" stroke="midnightblue" d="M804.291,-44.5C813.147,-44.5 821.888,-44.5 829.712,-44.5"/>
<polygon fill="midnightblue" stroke="midnightblue" points="804.288,-41.0001 794.288,-44.5 804.288,-48.0001 804.288,-41.0001"/>
</g>
<!-- Node6&#45;&gt;Node9 -->
<g id="edge8" class="edge"><title>Node6&#45;&gt;Node9</title>
<path fill="none" stroke="midnightblue" d="M767.454,-59.0168C790.211,-71.7452 822.649,-89.8886 842.321,-100.891"/>
<polygon fill="midnightblue" stroke="midnightblue" points="769.094,-55.9239 758.658,-54.097 765.677,-62.0332 769.094,-55.9239"/>
</g>
<!-- Node8 -->
<g id="node8" class="node"><title>Node8</title>
<g id="a_node8"><a xlink:href="../../d1/d49/mpi__pfasst_8cpp.html#a3c04138a5bfe5d72780bb7e82a18e627" target="_top" xlink:title="main">
<polygon fill="white" stroke="black" points="927,-35 927,-54 965,-54 965,-35 927,-35"/>
<text text-anchor="middle" x="946" y="-42" font-family="Helvetica,sans-Serif" font-size="10.00">main</text>
</a>
</g>
</g>
<!-- Node7&#45;&gt;Node8 -->
<g id="edge7" class="edge"><title>Node7&#45;&gt;Node8</title>
<path fill="none" stroke="midnightblue" d="M901.381,-44.5C910.201,-44.5 919.131,-44.5 926.595,-44.5"/>
<polygon fill="midnightblue" stroke="midnightblue" points="901.174,-41.0001 891.174,-44.5 901.174,-48.0001 901.174,-41.0001"/>
</g>
<!-- Node10&#45;&gt;Node2 -->
<g id="edge11" class="edge"><title>Node10&#45;&gt;Node2</title>
<path fill="none" stroke="midnightblue" d="M271.544,-38.3118C284.547,-42.015 298.128,-45.8827 310.738,-49.4738"/>
<polygon fill="midnightblue" stroke="midnightblue" points="272.314,-34.8921 261.738,-35.5192 270.397,-41.6245 272.314,-34.8921"/>
</g>
<!-- Node10&#45;&gt;Node5 -->
<g id="edge12" class="edge"><title>Node10&#45;&gt;Node5</title>
<path fill="none" stroke="midnightblue" d="M276.546,-19.5267C339.649,-18.6174 433.055,-17.2715 494.223,-16.3902"/>
<polygon fill="midnightblue" stroke="midnightblue" points="276.248,-16.0305 266.3,-19.6744 276.349,-23.0298 276.248,-16.0305"/>
</g>
</g>
</svg>
