<?xml version="1.0" encoding="UTF-8" standalone="no"?>
<!DOCTYPE svg PUBLIC "-//W3C//DTD SVG 1.1//EN"
 "http://www.w3.org/Graphics/SVG/1.1/DTD/svg11.dtd">
<!-- Generated by graphviz version 2.38.0 (20140413.2041)
 -->
<!-- Title: examples/boris/bindings/simple_physics_solver.hpp Pages: 1 -->
<svg width="603pt" height="195pt"
 viewBox="0.00 0.00 602.50 195.00" xmlns="http://www.w3.org/2000/svg" xmlns:xlink="http://www.w3.org/1999/xlink">
<g id="graph0" class="graph" transform="scale(1 1) rotate(0) translate(4 191)">
<title>examples/boris/bindings/simple_physics_solver.hpp</title>
<polygon fill="white" stroke="none" points="-4,4 -4,-191 598.5,-191 598.5,4 -4,4"/>
<!-- Node1 -->
<g id="node1" class="node"><title>Node1</title>
<polygon fill="#bfbfbf" stroke="black" points="98,-156.5 98,-186.5 237,-186.5 237,-156.5 98,-156.5"/>
<text text-anchor="start" x="106" y="-174.5" font-family="Helvetica,sans-Serif" font-size="10.00">examples/boris/bindings</text>
<text text-anchor="middle" x="167.5" y="-163.5" font-family="Helvetica,sans-Serif" font-size="10.00">/simple_physics_solver.hpp</text>
</g>
<!-- Node2 -->
<g id="node2" class="node"><title>Node2</title>
<g id="a_node2"><a xlink:href="../../d4/de8/simple__physics__solver_8cpp.html" target="_top" xlink:title="examples/boris/bindings\l/simple_physics_solver.cpp">
<polygon fill="white" stroke="black" points="0,-84 0,-114 139,-114 139,-84 0,-84"/>
<text text-anchor="start" x="8" y="-102" font-family="Helvetica,sans-Serif" font-size="10.00">examples/boris/bindings</text>
<text text-anchor="middle" x="69.5" y="-91" font-family="Helvetica,sans-Serif" font-size="10.00">/simple_physics_solver.cpp</text>
</a>
</g>
</g>
<!-- Node1&#45;&gt;Node2 -->
<g id="edge1" class="edge"><title>Node1&#45;&gt;Node2</title>
<path fill="none" stroke="midnightblue" d="M139.157,-150.11C123.058,-138.529 103.318,-124.328 88.9678,-114.005"/>
<polygon fill="midnightblue" stroke="midnightblue" points="137.507,-153.235 147.668,-156.233 141.594,-147.552 137.507,-153.235"/>
</g>
<!-- Node3 -->
<g id="node3" class="node"><title>Node3</title>
<g id="a_node3"><a xlink:href="../../dd/da4/wrapper__simple__physics__solver_8hpp.html" target="_top" xlink:title="examples/boris/bindings\l/wrapper_simple_physics\l_solver.hpp">
<polygon fill="white" stroke="black" points="207,-78.5 207,-119.5 336,-119.5 336,-78.5 207,-78.5"/>
<text text-anchor="start" x="215" y="-107.5" font-family="Helvetica,sans-Serif" font-size="10.00">examples/boris/bindings</text>
<text text-anchor="start" x="215" y="-96.5" font-family="Helvetica,sans-Serif" font-size="10.00">/wrapper_simple_physics</text>
<text text-anchor="middle" x="271.5" y="-85.5" font-family="Helvetica,sans-Serif" font-size="10.00">_solver.hpp</text>
</a>
</g>
</g>
<!-- Node1&#45;&gt;Node3 -->
<g id="edge2" class="edge"><title>Node1&#45;&gt;Node3</title>
<path fill="none" stroke="midnightblue" d="M197.028,-150.483C211.314,-140.799 228.402,-129.216 242.604,-119.588"/>
<polygon fill="midnightblue" stroke="midnightblue" points="194.859,-147.725 188.546,-156.233 198.787,-153.519 194.859,-147.725"/>
</g>
<!-- Node4 -->
<g id="node4" class="node"><title>Node4</title>
<g id="a_node4"><a xlink:href="../../d5/d9e/wrapper__simple__physics__solver__impl_8hpp.html" target="_top" xlink:title="examples/boris/bindings\l/wrapper_simple_physics\l_solver_impl.hpp">
<polygon fill="white" stroke="black" points="81,-0.5 81,-41.5 210,-41.5 210,-0.5 81,-0.5"/>
<text text-anchor="start" x="89" y="-29.5" font-family="Helvetica,sans-Serif" font-size="10.00">examples/boris/bindings</text>
<text text-anchor="start" x="89" y="-18.5" font-family="Helvetica,sans-Serif" font-size="10.00">/wrapper_simple_physics</text>
<text text-anchor="middle" x="145.5" y="-7.5" font-family="Helvetica,sans-Serif" font-size="10.00">_solver_impl.hpp</text>
</a>
</g>
</g>
<!-- Node1&#45;&gt;Node4 -->
<g id="edge8" class="edge"><title>Node1&#45;&gt;Node4</title>
<path fill="none" stroke="midnightblue" d="M163.882,-146.075C159.549,-116.831 152.38,-68.4391 148.396,-41.5474"/>
<polygon fill="midnightblue" stroke="midnightblue" points="160.463,-146.882 165.391,-156.261 167.387,-145.856 160.463,-146.882"/>
</g>
<!-- Node3&#45;&gt;Node4 -->
<g id="edge3" class="edge"><title>Node3&#45;&gt;Node4</title>
<path fill="none" stroke="midnightblue" d="M224.015,-73.2029C206.354,-62.9176 186.99,-51.1587 171.856,-41.5056"/>
<polygon fill="midnightblue" stroke="midnightblue" points="222.654,-76.4583 233.064,-78.4281 226.154,-70.3964 222.654,-76.4583"/>
</g>
<!-- Node5 -->
<g id="node5" class="node"><title>Node5</title>
<g id="a_node5"><a xlink:href="../../d7/d31/boris__mlsdc_8cpp.html" target="_top" xlink:title="examples/boris/boris\l_mlsdc.cpp">
<polygon fill="white" stroke="black" points="228.5,-6 228.5,-36 338.5,-36 338.5,-6 228.5,-6"/>
<text text-anchor="start" x="236.5" y="-24" font-family="Helvetica,sans-Serif" font-size="10.00">examples/boris/boris</text>
<text text-anchor="middle" x="283.5" y="-13" font-family="Helvetica,sans-Serif" font-size="10.00">_mlsdc.cpp</text>
</a>
</g>
</g>
<!-- Node3&#45;&gt;Node5 -->
<g id="edge5" class="edge"><title>Node3&#45;&gt;Node5</title>
<path fill="none" stroke="midnightblue" d="M276.192,-68.2829C277.934,-57.2536 279.83,-45.2457 281.254,-36.2254"/>
<polygon fill="midnightblue" stroke="midnightblue" points="272.693,-68.0046 274.59,-78.4281 279.607,-69.0964 272.693,-68.0046"/>
</g>
<!-- Node6 -->
<g id="node6" class="node"><title>Node6</title>
<g id="a_node6"><a xlink:href="../../d2/d1e/boris__pfasst_8cpp.html" target="_top" xlink:title="examples/boris/boris\l_pfasst.cpp">
<polygon fill="white" stroke="black" points="356.5,-6 356.5,-36 466.5,-36 466.5,-6 356.5,-6"/>
<text text-anchor="start" x="364.5" y="-24" font-family="Helvetica,sans-Serif" font-size="10.00">examples/boris/boris</text>
<text text-anchor="middle" x="411.5" y="-13" font-family="Helvetica,sans-Serif" font-size="10.00">_pfasst.cpp</text>
</a>
</g>
</g>
<!-- Node3&#45;&gt;Node6 -->
<g id="edge6" class="edge"><title>Node3&#45;&gt;Node6</title>
<path fill="none" stroke="midnightblue" d="M316.368,-73.643C339.112,-61.2962 365.938,-46.7336 385.295,-36.2254"/>
<polygon fill="midnightblue" stroke="midnightblue" points="314.672,-70.5811 307.553,-78.4281 318.012,-76.7331 314.672,-70.5811"/>
</g>
<!-- Node7 -->
<g id="node7" class="node"><title>Node7</title>
<g id="a_node7"><a xlink:href="../../d3/d93/boris__sdc_8cpp.html" target="_top" xlink:title="examples/boris/boris\l_sdc.cpp">
<polygon fill="white" stroke="black" points="484.5,-6 484.5,-36 594.5,-36 594.5,-6 484.5,-6"/>
<text text-anchor="start" x="492.5" y="-24" font-family="Helvetica,sans-Serif" font-size="10.00">examples/boris/boris</text>
<text text-anchor="middle" x="539.5" y="-13" font-family="Helvetica,sans-Serif" font-size="10.00">_sdc.cpp</text>
</a>
</g>
</g>
<!-- Node3&#45;&gt;Node7 -->
<g id="edge7" class="edge"><title>Node3&#45;&gt;Node7</title>
<path fill="none" stroke="midnightblue" d="M346.559,-78.0691C385.179,-67.6437 432.959,-54.4818 475.5,-42 481.867,-40.1319 488.572,-38.1041 495.148,-36.0805"/>
<polygon fill="midnightblue" stroke="midnightblue" points="345.181,-74.8154 336.436,-80.7959 347.002,-81.5745 345.181,-74.8154"/>
</g>
<!-- Node4&#45;&gt;Node3 -->
<g id="edge4" class="edge"><title>Node4&#45;&gt;Node3</title>
<path fill="none" stroke="midnightblue" d="M192.864,-46.7265C210.517,-57.005 229.887,-68.7654 245.04,-78.4281"/>
<polygon fill="midnightblue" stroke="midnightblue" points="194.231,-43.4743 183.82,-41.5056 190.731,-49.5366 194.231,-43.4743"/>
</g>
</g>
</svg>
