<?xml version="1.0" encoding="UTF-8" standalone="no"?>
<!DOCTYPE svg PUBLIC "-//W3C//DTD SVG 1.1//EN"
 "http://www.w3.org/Graphics/SVG/1.1/DTD/svg11.dtd">
<!-- Generated by graphviz version 2.38.0 (20140413.2041)
 -->
<!-- Title: pfasst::encap::ImplicitSweeper::setup Pages: 1 -->
<svg width="358pt" height="78pt"
 viewBox="0.00 0.00 358.00 77.50" xmlns="http://www.w3.org/2000/svg" xmlns:xlink="http://www.w3.org/1999/xlink">
<g id="graph0" class="graph" transform="scale(1 1) rotate(0) translate(4 73.5)">
<title>pfasst::encap::ImplicitSweeper::setup</title>
<polygon fill="white" stroke="none" points="-4,4 -4,-73.5 354,-73.5 354,4 -4,4"/>
<!-- Node1 -->
<g id="node1" class="node"><title>Node1</title>
<polygon fill="#bfbfbf" stroke="black" points="0,-22.5 0,-52.5 153,-52.5 153,-22.5 0,-22.5"/>
<text text-anchor="start" x="8" y="-40.5" font-family="Helvetica,sans-Serif" font-size="10.00">pfasst::encap::ImplicitSweeper</text>
<text text-anchor="middle" x="76.5" y="-29.5" font-family="Helvetica,sans-Serif" font-size="10.00">::setup</text>
</g>
<!-- Node2 -->
<g id="node2" class="node"><title>Node2</title>
<g id="a_node2"><a xlink:href="../../d4/da1/namespacepfasst_1_1encap.html#a42a20d5d0ed66f3bac28ce94a97e5e20" target="_top" xlink:title="LU (without pivoting) decomposition. ">
<polygon fill="white" stroke="black" points="189,-50 189,-69 350,-69 350,-50 189,-50"/>
<text text-anchor="middle" x="269.5" y="-57" font-family="Helvetica,sans-Serif" font-size="10.00">pfasst::encap::lu_decomposition</text>
</a>
</g>
</g>
<!-- Node1&#45;&gt;Node2 -->
<g id="edge1" class="edge"><title>Node1&#45;&gt;Node2</title>
<path fill="none" stroke="midnightblue" d="M153.263,-46.2266C161.647,-47.1923 170.243,-48.1825 178.778,-49.1655"/>
<polygon fill="midnightblue" stroke="midnightblue" points="178.417,-52.6471 188.752,-50.3144 179.219,-45.693 178.417,-52.6471"/>
</g>
<!-- Node3 -->
<g id="node3" class="node"><title>Node3</title>
<g id="a_node3"><a xlink:href="../../d7/d9e/classpfasst_1_1encap_1_1EncapSweeper.html#a11a9a00bf74949f958caf39bab54b914" target="_top" xlink:title="Setup (allocate etc) the sweeper. ">
<polygon fill="white" stroke="black" points="194,-0.5 194,-30.5 345,-30.5 345,-0.5 194,-0.5"/>
<text text-anchor="start" x="202" y="-18.5" font-family="Helvetica,sans-Serif" font-size="10.00">pfasst::encap::EncapSweeper</text>
<text text-anchor="middle" x="269.5" y="-7.5" font-family="Helvetica,sans-Serif" font-size="10.00">::setup</text>
</a>
</g>
</g>
<!-- Node1&#45;&gt;Node3 -->
<g id="edge2" class="edge"><title>Node1&#45;&gt;Node3</title>
<path fill="none" stroke="midnightblue" d="M153.263,-28.7734C163.261,-27.6217 173.562,-26.4353 183.699,-25.2676"/>
<polygon fill="midnightblue" stroke="midnightblue" points="184.232,-28.7295 193.765,-24.1082 183.431,-21.7755 184.232,-28.7295"/>
</g>
</g>
</svg>
