<?xml version="1.0" encoding="UTF-8" standalone="no"?>
<!DOCTYPE svg PUBLIC "-//W3C//DTD SVG 1.1//EN"
 "http://www.w3.org/Graphics/SVG/1.1/DTD/svg11.dtd">
<!-- Generated by graphviz version 2.38.0 (20140413.2041)
 -->
<!-- Title: main Pages: 1 -->
<!--zoomable 467 -->
<svg id="main" version="1.1" xmlns="http://www.w3.org/2000/svg" xmlns:xlink="http://www.w3.org/1999/xlink" xml:space="preserve" onload="init(evt)">
<style type="text/css"><![CDATA[
.edge:hover path { stroke: red; }
.edge:hover polygon { stroke: red; fill: red; }
]]></style>
<script type="text/javascript"><![CDATA[
var edges = document.getElementsByTagName('g');
if (edges && edges.length) {
  for (var i=0;i<edges.length;i++) {
    if (edges[i].id.substr(0,4)=='edge') {
      edges[i].setAttribute('class','edge');
    }
  }
}
]]></script>
        <defs>
                <circle id="rim" cx="0" cy="0" r="7"/>
                <circle id="rim2" cx="0" cy="0" r="3.5"/>
                <g id="zoomPlus">
                        <use xlink:href="#rim" fill="#404040">
                                <set attributeName="fill" to="#808080" begin="zoomplus.mouseover" end="zoomplus.mouseout"/>
                        </use>
                        <path d="M-4,0h8M0,-4v8" fill="none" stroke="white" stroke-width="1.5" pointer-events="none"/>
                </g>
                <g id="zoomMin">
                        <use xlink:href="#rim" fill="#404040">
                                <set attributeName="fill" to="#808080" begin="zoomminus.mouseover" end="zoomminus.mouseout"/>
                        </use>
                        <path d="M-4,0h8" fill="none" stroke="white" stroke-width="1.5" pointer-events="none"/>
                </g>
                <g id="dirArrow">
                        <path fill="none" stroke="white" stroke-width="1.5" d="M0,-3.0v7 M-2.5,-0.5L0,-3.0L2.5,-0.5"/>
                </g>
               <g id="resetDef">
                       <use xlink:href="#rim2" fill="#404040">
                               <set attributeName="fill" to="#808080" begin="reset.mouseover" end="reset.mouseout"/>
                       </use>
               </g>
        </defs>

<script type="text/javascript">
var viewWidth = 1255;
var viewHeight = 467;
var sectionId = 'dynsection-1';
</script>
<script xlink:href="../../svgpan.js"/>
<svg id="graph" class="graph">
<g id="viewport">
<title>main</title>
<polygon fill="white" stroke="none" points="-4,4 -4,-463.26 1251,-463.26 1251,4 -4,4"/>
<!-- Node1 -->
<g id="node1" class="node"><title>Node1</title>
<polygon fill="#bfbfbf" stroke="black" points="0,-196 0,-215 38,-215 38,-196 0,-196"/>
<text text-anchor="middle" x="19" y="-203" font-family="Helvetica,sans-Serif" font-size="10.00">main</text>
</g>
<!-- Node2 -->
<g id="node2" class="node"><title>Node2</title>
<g id="a_node2"><a xlink:href="../../dc/d57/namespacepfasst.html#a2ad4b6987b5c66b90166f77fc4230e92" target="_top" xlink:title="pfasst::init">
<polygon fill="white" stroke="black" points="101.5,-241 101.5,-260 162.5,-260 162.5,-241 101.5,-241"/>
<text text-anchor="middle" x="132" y="-248" font-family="Helvetica,sans-Serif" font-size="10.00">pfasst::init</text>
</a>
</g>
</g>
<!-- Node1&#45;&gt;Node2 -->
<g id="edge1" class="edge"><title>Node1&#45;&gt;Node2</title>
<path fill="none" stroke="midnightblue" d="M38.3294,-212.931C54.4485,-219.466 78.3093,-229.139 97.7821,-237.033"/>
<polygon fill="midnightblue" stroke="midnightblue" points="96.6351,-240.345 107.218,-240.858 99.2651,-233.858 96.6351,-240.345"/>
</g>
<!-- Node16 -->
<g id="node16" class="node"><title>Node16</title>
<g id="a_node16"><a xlink:href="../../dd/d53/group__VanDerPol.html#gaa51c826dc921007c0e95faf30a4510d5" target="_top" xlink:title="pfasst::examples::vdp\l::run_vdp_sdc">
<polygon fill="white" stroke="black" points="74,-122.5 74,-152.5 190,-152.5 190,-122.5 74,-122.5"/>
<text text-anchor="start" x="82" y="-140.5" font-family="Helvetica,sans-Serif" font-size="10.00">pfasst::examples::vdp</text>
<text text-anchor="middle" x="132" y="-129.5" font-family="Helvetica,sans-Serif" font-size="10.00">::run_vdp_sdc</text>
</a>
</g>
</g>
<!-- Node1&#45;&gt;Node16 -->
<g id="edge20" class="edge"><title>Node1&#45;&gt;Node16</title>
<path fill="none" stroke="midnightblue" d="M35.9036,-195.757C51.8826,-185.968 76.9986,-170.582 97.4071,-158.079"/>
<polygon fill="midnightblue" stroke="midnightblue" points="99.4144,-160.954 106.113,-152.746 95.7577,-154.985 99.4144,-160.954"/>
</g>
<!-- Node3 -->
<g id="node3" class="node"><title>Node3</title>
<g id="a_node3"><a xlink:href="../../d3/d91/namespacepfasst_1_1config.html#a5eaff8155eff1d5f8fe5cf2034b12422" target="_top" xlink:title="Read and parse command line parameters. ">
<polygon fill="white" stroke="black" points="228,-235.5 228,-265.5 331,-265.5 331,-235.5 228,-235.5"/>
<text text-anchor="start" x="236" y="-253.5" font-family="Helvetica,sans-Serif" font-size="10.00">pfasst::config::read</text>
<text text-anchor="middle" x="279.5" y="-242.5" font-family="Helvetica,sans-Serif" font-size="10.00">_commandline</text>
</a>
</g>
</g>
<!-- Node2&#45;&gt;Node3 -->
<g id="edge2" class="edge"><title>Node2&#45;&gt;Node3</title>
<path fill="none" stroke="midnightblue" d="M162.795,-250.5C178.652,-250.5 198.751,-250.5 217.73,-250.5"/>
<polygon fill="midnightblue" stroke="midnightblue" points="217.824,-254 227.824,-250.5 217.824,-247 217.824,-254"/>
</g>
<!-- Node7 -->
<g id="node7" class="node"><title>Node7</title>
<g id="a_node7"><a xlink:href="../../de/d8c/group__Internals.html#ga73cf933834ba5e5141119310aee971b9" target="_top" xlink:title="Starts easylogging++ with given arguments and loads configuration. ">
<polygon fill="white" stroke="black" points="226,-304 226,-323 333,-323 333,-304 226,-304"/>
<text text-anchor="middle" x="279.5" y="-311" font-family="Helvetica,sans-Serif" font-size="10.00">pfasst::log::start_log</text>
</a>
</g>
</g>
<!-- Node2&#45;&gt;Node7 -->
<g id="edge6" class="edge"><title>Node2&#45;&gt;Node7</title>
<path fill="none" stroke="midnightblue" d="M155.098,-260.068C179.561,-270.661 219.194,-287.821 246.925,-299.829"/>
<polygon fill="midnightblue" stroke="midnightblue" points="245.626,-303.08 256.194,-303.842 248.408,-296.656 245.626,-303.08"/>
</g>
<!-- Node4 -->
<g id="node4" class="node"><title>Node4</title>
<g id="a_node4"><a xlink:href="../../d3/d91/namespacepfasst_1_1config.html#a717f3272ec67e59af97e711397beeb29" target="_top" xlink:title="Read config parameters from file. ">
<polygon fill="white" stroke="black" points="380,-172.5 380,-202.5 483,-202.5 483,-172.5 380,-172.5"/>
<text text-anchor="start" x="388" y="-190.5" font-family="Helvetica,sans-Serif" font-size="10.00">pfasst::config::read</text>
<text text-anchor="middle" x="431.5" y="-179.5" font-family="Helvetica,sans-Serif" font-size="10.00">_config_file</text>
</a>
</g>
</g>
<!-- Node3&#45;&gt;Node4 -->
<g id="edge3" class="edge"><title>Node3&#45;&gt;Node4</title>
<path fill="none" stroke="midnightblue" d="M315.321,-235.363C331.597,-228.336 351.258,-219.914 369,-212.5 373.731,-210.523 378.674,-208.478 383.614,-206.449"/>
<polygon fill="midnightblue" stroke="midnightblue" points="385.121,-209.614 393.051,-202.588 382.471,-203.135 385.121,-209.614"/>
</g>
<!-- Node5 -->
<g id="node5" class="node"><title>Node5</title>
<g id="a_node5"><a xlink:href="../../d3/d91/namespacepfasst_1_1config.html#a69bf5d072b24805ad0004d40bcd2744e" target="_top" xlink:title="Get MPI rank during initialization. ">
<polygon fill="white" stroke="black" points="1126,-282 1126,-301 1247,-301 1247,-282 1126,-282"/>
<text text-anchor="middle" x="1186.5" y="-289" font-family="Helvetica,sans-Serif" font-size="10.00">pfasst::config::get_rank</text>
</a>
</g>
</g>
<!-- Node3&#45;&gt;Node5 -->
<g id="edge4" class="edge"><title>Node3&#45;&gt;Node5</title>
<path fill="none" stroke="midnightblue" d="M331.078,-255.492C392.57,-261.121 499.541,-269.5 591.5,-269.5 591.5,-269.5 591.5,-269.5 901,-269.5 974.489,-269.5 1058.34,-276.887 1115.87,-283.1"/>
<polygon fill="midnightblue" stroke="midnightblue" points="1115.61,-286.593 1125.94,-284.205 1116.38,-279.635 1115.61,-286.593"/>
</g>
<!-- Node6 -->
<g id="node6" class="node"><title>Node6</title>
<g id="a_node6"><a xlink:href="../../d3/d91/namespacepfasst_1_1config.html#ad40fd72bbe8905d32032195b313b7d06" target="_top" xlink:title="Compile basic help and usage information. ">
<polygon fill="white" stroke="black" points="369.5,-222 369.5,-241 493.5,-241 493.5,-222 369.5,-222"/>
<text text-anchor="middle" x="431.5" y="-229" font-family="Helvetica,sans-Serif" font-size="10.00">pfasst::config::print_help</text>
</a>
</g>
</g>
<!-- Node3&#45;&gt;Node6 -->
<g id="edge5" class="edge"><title>Node3&#45;&gt;Node6</title>
<path fill="none" stroke="midnightblue" d="M331.283,-244.067C340.271,-242.929 349.779,-241.725 359.208,-240.53"/>
<polygon fill="midnightblue" stroke="midnightblue" points="359.9,-243.971 369.381,-239.242 359.021,-237.026 359.9,-243.971"/>
</g>
<!-- Node8 -->
<g id="node8" class="node"><title>Node8</title>
<g id="a_node8"><a xlink:href="../../de/d8c/group__Internals.html#gaabd9df9fe7db34deb4ec893d6b0b7fa2" target="_top" xlink:title="Sets some default flags for easylogging++. ">
<polygon fill="white" stroke="black" points="370.5,-298.5 370.5,-328.5 492.5,-328.5 492.5,-298.5 370.5,-298.5"/>
<text text-anchor="start" x="378.5" y="-316.5" font-family="Helvetica,sans-Serif" font-size="10.00">pfasst::log::set_logging</text>
<text text-anchor="middle" x="431.5" y="-305.5" font-family="Helvetica,sans-Serif" font-size="10.00">_flags</text>
</a>
</g>
</g>
<!-- Node7&#45;&gt;Node8 -->
<g id="edge7" class="edge"><title>Node7&#45;&gt;Node8</title>
<path fill="none" stroke="midnightblue" d="M333.384,-313.5C342.087,-313.5 351.225,-313.5 360.271,-313.5"/>
<polygon fill="midnightblue" stroke="midnightblue" points="360.416,-317 370.416,-313.5 360.416,-310 360.416,-317"/>
</g>
<!-- Node9 -->
<g id="node9" class="node"><title>Node9</title>
<g id="a_node9"><a xlink:href="../../de/d8c/group__Internals.html#ga94bc88666f61bcc6d85072e6dfdd21f4" target="_top" xlink:title="Sets default configuration for default loggers. ">
<polygon fill="white" stroke="black" points="369,-347.5 369,-377.5 494,-377.5 494,-347.5 369,-347.5"/>
<text text-anchor="start" x="377" y="-365.5" font-family="Helvetica,sans-Serif" font-size="10.00">pfasst::log::load_default</text>
<text text-anchor="middle" x="431.5" y="-354.5" font-family="Helvetica,sans-Serif" font-size="10.00">_config</text>
</a>
</g>
</g>
<!-- Node7&#45;&gt;Node9 -->
<g id="edge8" class="edge"><title>Node7&#45;&gt;Node9</title>
<path fill="none" stroke="midnightblue" d="M309.778,-323.064C328.271,-329.105 352.761,-337.105 374.848,-344.32"/>
<polygon fill="midnightblue" stroke="midnightblue" points="373.876,-347.685 384.468,-347.463 376.05,-341.031 373.876,-347.685"/>
</g>
<!-- Node10 -->
<g id="node10" class="node"><title>Node10</title>
<g id="a_node10"><a xlink:href="../../de/d8c/group__Internals.html#ga2f4ba84c8482c3fb5c86e599804f832a" target="_top" xlink:title="Sets global logging options. ">
<polygon fill="white" stroke="black" points="691,-317.5 691,-347.5 807,-347.5 807,-317.5 691,-317.5"/>
<text text-anchor="start" x="699" y="-335.5" font-family="Helvetica,sans-Serif" font-size="10.00">pfasst::log::set_global</text>
<text text-anchor="middle" x="749" y="-324.5" font-family="Helvetica,sans-Serif" font-size="10.00">_logging_options</text>
</a>
</g>
</g>
<!-- Node9&#45;&gt;Node10 -->
<g id="edge9" class="edge"><title>Node9&#45;&gt;Node10</title>
<path fill="none" stroke="midnightblue" d="M494.108,-355.309C506.011,-353.988 518.389,-352.661 530,-351.5 580.395,-346.462 637.421,-341.519 680.506,-337.937"/>
<polygon fill="midnightblue" stroke="midnightblue" points="680.912,-341.416 690.589,-337.103 680.334,-334.44 680.912,-341.416"/>
</g>
<!-- Node15 -->
<g id="node15" class="node"><title>Node15</title>
<g id="a_node15"><a xlink:href="../../da/d50/namespacepfasst_1_1log.html#a8502afef42b4e98a12249d5fa1fed092" target="_top" xlink:title="Provides convenient way of adding additional named loggers. ">
<polygon fill="white" stroke="black" points="530,-361.5 530,-391.5 655,-391.5 655,-361.5 530,-361.5"/>
<text text-anchor="start" x="538" y="-379.5" font-family="Helvetica,sans-Serif" font-size="10.00">pfasst::log::add_custom</text>
<text text-anchor="middle" x="592.5" y="-368.5" font-family="Helvetica,sans-Serif" font-size="10.00">_logger</text>
</a>
</g>
</g>
<!-- Node9&#45;&gt;Node15 -->
<g id="edge15" class="edge"><title>Node9&#45;&gt;Node15</title>
<path fill="none" stroke="midnightblue" d="M494.429,-367.953C502.674,-368.679 511.184,-369.428 519.58,-370.167"/>
<polygon fill="midnightblue" stroke="midnightblue" points="519.472,-373.671 529.74,-371.062 520.086,-366.698 519.472,-373.671"/>
</g>
<!-- Node11 -->
<g id="node11" class="node"><title>Node11</title>
<g id="a_node11"><a xlink:href="../../da/d27/classpfasst_1_1config_1_1options.html#a4f130f9b500d6f3dee7df20894233608" target="_top" xlink:title="Accessor to the singleton instance. ">
<polygon fill="white" stroke="black" points="843,-347.5 843,-377.5 957,-377.5 957,-347.5 843,-347.5"/>
<text text-anchor="start" x="851" y="-365.5" font-family="Helvetica,sans-Serif" font-size="10.00">pfasst::config::options</text>
<text text-anchor="middle" x="900" y="-354.5" font-family="Helvetica,sans-Serif" font-size="10.00">::get_instance</text>
</a>
</g>
</g>
<!-- Node10&#45;&gt;Node11 -->
<g id="edge10" class="edge"><title>Node10&#45;&gt;Node11</title>
<path fill="none" stroke="midnightblue" d="M807.181,-344.013C815.557,-345.699 824.242,-347.448 832.781,-349.167"/>
<polygon fill="midnightblue" stroke="midnightblue" points="832.215,-352.624 842.709,-351.166 833.597,-345.761 832.215,-352.624"/>
</g>
<!-- Node12 -->
<g id="node12" class="node"><title>Node12</title>
<g id="a_node12"><a xlink:href="../../da/d27/classpfasst_1_1config_1_1options.html#a9ad40d67da1066f5053e47e278b3b154" target="_top" xlink:title="pfasst::config::options\l::get_variables_map">
<polygon fill="white" stroke="black" points="843,-396.5 843,-426.5 957,-426.5 957,-396.5 843,-396.5"/>
<text text-anchor="start" x="851" y="-414.5" font-family="Helvetica,sans-Serif" font-size="10.00">pfasst::config::options</text>
<text text-anchor="middle" x="900" y="-403.5" font-family="Helvetica,sans-Serif" font-size="10.00">::get_variables_map</text>
</a>
</g>
</g>
<!-- Node10&#45;&gt;Node12 -->
<g id="edge11" class="edge"><title>Node10&#45;&gt;Node12</title>
<path fill="none" stroke="midnightblue" d="M774.471,-347.667C792.999,-358.914 819.233,-374.338 843,-386.5 846.732,-388.41 850.641,-390.323 854.584,-392.195"/>
<polygon fill="midnightblue" stroke="midnightblue" points="853.234,-395.427 863.779,-396.462 856.181,-389.077 853.234,-395.427"/>
</g>
<!-- Node13 -->
<g id="node13" class="node"><title>Node13</title>
<g id="a_node13"><a xlink:href="../../de/d8c/group__Internals.html#ga74a6cd18764de8c81da478a7eb33ee4a" target="_top" xlink:title="Composes the log file name for the local rank. ">
<polygon fill="white" stroke="black" points="848.5,-298.5 848.5,-328.5 951.5,-328.5 951.5,-298.5 848.5,-298.5"/>
<text text-anchor="start" x="856.5" y="-316.5" font-family="Helvetica,sans-Serif" font-size="10.00">pfasst::log::get_log</text>
<text text-anchor="middle" x="900" y="-305.5" font-family="Helvetica,sans-Serif" font-size="10.00">_file_name</text>
</a>
</g>
</g>
<!-- Node10&#45;&gt;Node13 -->
<g id="edge12" class="edge"><title>Node10&#45;&gt;Node13</title>
<path fill="none" stroke="midnightblue" d="M807.181,-325.208C817.276,-323.921 827.819,-322.577 838.013,-321.277"/>
<polygon fill="midnightblue" stroke="midnightblue" points="838.584,-324.732 848.061,-319.996 837.699,-317.789 838.584,-324.732"/>
</g>
<!-- Node14 -->
<g id="node14" class="node"><title>Node14</title>
<g id="a_node14"><a xlink:href="../../de/d8c/group__Internals.html#ga2fbecb551eda65e49c93122c05142aec" target="_top" xlink:title="Formats the local MPI world rank as a string. ">
<polygon fill="white" stroke="black" points="993,-298.5 993,-328.5 1090,-328.5 1090,-298.5 993,-298.5"/>
<text text-anchor="start" x="1001" y="-316.5" font-family="Helvetica,sans-Serif" font-size="10.00">pfasst::log::format</text>
<text text-anchor="middle" x="1041.5" y="-305.5" font-family="Helvetica,sans-Serif" font-size="10.00">_mpi_rank</text>
</a>
</g>
</g>
<!-- Node13&#45;&gt;Node14 -->
<g id="edge13" class="edge"><title>Node13&#45;&gt;Node14</title>
<path fill="none" stroke="midnightblue" d="M951.757,-313.5C961.807,-313.5 972.426,-313.5 982.689,-313.5"/>
<polygon fill="midnightblue" stroke="midnightblue" points="982.8,-317 992.8,-313.5 982.8,-310 982.8,-317"/>
</g>
<!-- Node14&#45;&gt;Node5 -->
<g id="edge14" class="edge"><title>Node14&#45;&gt;Node5</title>
<path fill="none" stroke="midnightblue" d="M1090.12,-306.174C1098.35,-304.908 1107.06,-303.567 1115.74,-302.232"/>
<polygon fill="midnightblue" stroke="midnightblue" points="1116.53,-305.652 1125.88,-300.672 1115.46,-298.734 1116.53,-305.652"/>
</g>
<!-- Node15&#45;&gt;Node10 -->
<g id="edge19" class="edge"><title>Node15&#45;&gt;Node10</title>
<path fill="none" stroke="midnightblue" d="M646.238,-361.481C658.847,-357.89 672.427,-354.022 685.431,-350.319"/>
<polygon fill="midnightblue" stroke="midnightblue" points="686.579,-353.631 695.238,-347.526 684.661,-346.899 686.579,-353.631"/>
</g>
<!-- Node15&#45;&gt;Node11 -->
<g id="edge16" class="edge"><title>Node15&#45;&gt;Node11</title>
<path fill="none" stroke="midnightblue" d="M655.322,-373.667C706.811,-371.307 779.97,-367.955 832.672,-365.54"/>
<polygon fill="midnightblue" stroke="midnightblue" points="833.098,-369.024 842.928,-365.07 832.778,-362.031 833.098,-369.024"/>
</g>
<!-- Node15&#45;&gt;Node12 -->
<g id="edge17" class="edge"><title>Node15&#45;&gt;Node12</title>
<path fill="none" stroke="midnightblue" d="M655.322,-383.583C706.811,-389.482 779.97,-397.863 832.672,-403.901"/>
<polygon fill="midnightblue" stroke="midnightblue" points="832.594,-407.415 842.928,-405.076 833.391,-400.46 832.594,-407.415"/>
</g>
<!-- Node15&#45;&gt;Node14 -->
<g id="edge18" class="edge"><title>Node15&#45;&gt;Node14</title>
<path fill="none" stroke="midnightblue" d="M620.416,-391.554C683.279,-424.534 843.049,-495.594 957,-435.5 995.789,-415.044 1020,-367.551 1031.81,-338.221"/>
<polygon fill="midnightblue" stroke="midnightblue" points="1035.15,-339.269 1035.47,-328.679 1028.62,-336.759 1035.15,-339.269"/>
</g>
<!-- Node17 -->
<g id="node17" class="node"><title>Node17</title>
<g id="a_node17"><a xlink:href="../../de/d84/namespacepfasst_1_1quadrature.html#ac4700c0b6dc90b32b3f8af4070d0e62d" target="_top" xlink:title="Instantiates quadrature handler for given number of nodes and type descriptor. ">
<polygon fill="white" stroke="black" points="226,-147.5 226,-177.5 333,-177.5 333,-147.5 226,-147.5"/>
<text text-anchor="start" x="234" y="-165.5" font-family="Helvetica,sans-Serif" font-size="10.00">pfasst::quadrature</text>
<text text-anchor="middle" x="279.5" y="-154.5" font-family="Helvetica,sans-Serif" font-size="10.00">::quadrature_factory</text>
</a>
</g>
</g>
<!-- Node16&#45;&gt;Node17 -->
<g id="edge21" class="edge"><title>Node16&#45;&gt;Node17</title>
<path fill="none" stroke="midnightblue" d="M190.088,-147.309C198.557,-148.764 207.323,-150.27 215.898,-151.744"/>
<polygon fill="midnightblue" stroke="midnightblue" points="215.398,-155.209 225.846,-153.453 216.583,-148.31 215.398,-155.209"/>
</g>
<!-- Node18 -->
<g id="node18" class="node"><title>Node18</title>
<g id="a_node18"><a xlink:href="../../d4/da9/classpfasst_1_1Controller.html#a8f4f8f025572e57fc5975902a4118fa9" target="_top" xlink:title="Adding a level to the controller. ">
<polygon fill="white" stroke="black" points="233.5,-98.5 233.5,-128.5 325.5,-128.5 325.5,-98.5 233.5,-98.5"/>
<text text-anchor="start" x="241.5" y="-116.5" font-family="Helvetica,sans-Serif" font-size="10.00">pfasst::Controller</text>
<text text-anchor="middle" x="279.5" y="-105.5" font-family="Helvetica,sans-Serif" font-size="10.00">::add_level</text>
</a>
</g>
</g>
<!-- Node16&#45;&gt;Node18 -->
<g id="edge22" class="edge"><title>Node16&#45;&gt;Node18</title>
<path fill="none" stroke="midnightblue" d="M190.088,-128.083C200.948,-126.292 212.297,-124.42 223.103,-122.638"/>
<polygon fill="midnightblue" stroke="midnightblue" points="223.967,-126.043 233.264,-120.962 222.827,-119.136 223.967,-126.043"/>
</g>
<!-- Node19 -->
<g id="node19" class="node"><title>Node19</title>
<g id="a_node19"><a xlink:href="../../d4/da9/classpfasst_1_1Controller.html#af31a86d9ccd9db325532c5ae3a5764f0" target="_top" xlink:title="Set basic time scope of the Controller. ">
<polygon fill="white" stroke="black" points="233.5,-49.5 233.5,-79.5 325.5,-79.5 325.5,-49.5 233.5,-49.5"/>
<text text-anchor="start" x="241.5" y="-67.5" font-family="Helvetica,sans-Serif" font-size="10.00">pfasst::Controller</text>
<text text-anchor="middle" x="279.5" y="-56.5" font-family="Helvetica,sans-Serif" font-size="10.00">::set_duration</text>
</a>
</g>
</g>
<!-- Node16&#45;&gt;Node19 -->
<g id="edge23" class="edge"><title>Node16&#45;&gt;Node19</title>
<path fill="none" stroke="midnightblue" d="M160.871,-122.292C179.236,-112.4 203.889,-99.3681 226,-88.5 229.107,-86.9727 232.332,-85.4206 235.586,-83.8781"/>
<polygon fill="midnightblue" stroke="midnightblue" points="237.185,-86.9938 244.76,-79.5854 234.219,-80.6536 237.185,-86.9938"/>
</g>
<!-- Node20 -->
<g id="node20" class="node"><title>Node20</title>
<g id="a_node20"><a xlink:href="../../d4/da9/classpfasst_1_1Controller.html#a83d8b318cd15436d5910039313daab9f" target="_top" xlink:title="Basic setup routine for this controller. ">
<polygon fill="white" stroke="black" points="233.5,-0.5 233.5,-30.5 325.5,-30.5 325.5,-0.5 233.5,-0.5"/>
<text text-anchor="start" x="241.5" y="-18.5" font-family="Helvetica,sans-Serif" font-size="10.00">pfasst::Controller</text>
<text text-anchor="middle" x="279.5" y="-7.5" font-family="Helvetica,sans-Serif" font-size="10.00">::setup</text>
</a>
</g>
</g>
<!-- Node16&#45;&gt;Node20 -->
<g id="edge24" class="edge"><title>Node16&#45;&gt;Node20</title>
<path fill="none" stroke="midnightblue" d="M144.451,-122.155C160.69,-101.24 192.215,-63.6283 226,-39.5 227.855,-38.1749 229.796,-36.8958 231.791,-35.665"/>
<polygon fill="midnightblue" stroke="midnightblue" points="233.809,-38.5454 240.8,-30.5848 230.37,-32.448 233.809,-38.5454"/>
</g>
<!-- Node21 -->
<g id="node21" class="node"><title>Node21</title>
<g id="a_node21"><a xlink:href="../../db/d4c/classpfasst_1_1SDC.html#abaf353cbe65d6c3545cbd5f4540cb74b" target="_top" xlink:title="Run vanilla SDC. ">
<polygon fill="white" stroke="black" points="234.5,-197 234.5,-216 324.5,-216 324.5,-197 234.5,-197"/>
<text text-anchor="middle" x="279.5" y="-204" font-family="Helvetica,sans-Serif" font-size="10.00">pfasst::SDC::run</text>
</a>
</g>
</g>
<!-- Node16&#45;&gt;Node21 -->
<g id="edge25" class="edge"><title>Node16&#45;&gt;Node21</title>
<path fill="none" stroke="midnightblue" d="M159.434,-152.524C177.818,-162.7 203.05,-176.128 226,-186.5 231.111,-188.81 236.574,-191.091 241.974,-193.24"/>
<polygon fill="midnightblue" stroke="midnightblue" points="240.946,-196.595 251.535,-196.942 243.474,-190.067 240.946,-196.595"/>
</g>
</g>
</svg>
        <g id="navigator" transform="translate(0 0)" fill="#404254">
                <rect fill="#f2f5e9" fill-opacity="0.5" stroke="#606060" stroke-width=".5" x="0" y="0" width="60" height="60"/>
                <use id="zoomplus" xlink:href="#zoomPlus" x="17" y="9" onmousedown="handleZoom(evt,'in')"/>
                <use id="zoomminus" xlink:href="#zoomMin" x="42" y="9" onmousedown="handleZoom(evt,'out')"/>
                <use id="reset" xlink:href="#resetDef" x="30" y="36" onmousedown="handleReset()"/>
                <g id="arrowUp" xlink:href="#dirArrow" transform="translate(30 24)" onmousedown="handlePan(0,-1)">
                  <use xlink:href="#rim" fill="#404040">
                        <set attributeName="fill" to="#808080" begin="arrowUp.mouseover" end="arrowUp.mouseout"/>
                  </use>
                  <path fill="none" stroke="white" stroke-width="1.5" d="M0,-3.0v7 M-2.5,-0.5L0,-3.0L2.5,-0.5"/>
                </g>
                <g id="arrowRight" xlink:href="#dirArrow" transform="rotate(90) translate(36 -43)" onmousedown="handlePan(1,0)">
                  <use xlink:href="#rim" fill="#404040">
                        <set attributeName="fill" to="#808080" begin="arrowRight.mouseover" end="arrowRight.mouseout"/>
                  </use>
                  <path fill="none" stroke="white" stroke-width="1.5" d="M0,-3.0v7 M-2.5,-0.5L0,-3.0L2.5,-0.5"/>
                </g>
                <g id="arrowDown" xlink:href="#dirArrow" transform="rotate(180) translate(-30 -48)" onmousedown="handlePan(0,1)">
                  <use xlink:href="#rim" fill="#404040">
                        <set attributeName="fill" to="#808080" begin="arrowDown.mouseover" end="arrowDown.mouseout"/>
                  </use>
                  <path fill="none" stroke="white" stroke-width="1.5" d="M0,-3.0v7 M-2.5,-0.5L0,-3.0L2.5,-0.5"/>
                </g>
                <g id="arrowLeft" xlink:href="#dirArrow" transform="rotate(270) translate(-36 17)" onmousedown="handlePan(-1,0)">
                  <use xlink:href="#rim" fill="#404040">
                        <set attributeName="fill" to="#808080" begin="arrowLeft.mouseover" end="arrowLeft.mouseout"/>
                  </use>
                  <path fill="none" stroke="white" stroke-width="1.5" d="M0,-3.0v7 M-2.5,-0.5L0,-3.0L2.5,-0.5"/>
                </g>
        </g>
        <svg viewBox="0 0 15 15" width="100%" height="30px" preserveAspectRatio="xMaxYMin meet">
         <g id="arrow_out" transform="scale(0.3 0.3)">
          <a xlink:href="vdp__sdc_8cpp_a3c04138a5bfe5d72780bb7e82a18e627_cgraph_org.svg" target="_base">
           <rect id="button" ry="5" rx="5" y="6" x="6" height="38" width="38"
                fill="#f2f5e9" fill-opacity="0.5" stroke="#606060" stroke-width="1.0"/>
           <path id="arrow"
             d="M 11.500037,31.436501 C 11.940474,20.09759 22.043105,11.32322 32.158766,21.979434 L 37.068811,17.246167 C 37.068811,17.246167 37.088388,32 37.088388,32 L 22.160133,31.978069 C 22.160133,31.978069 26.997745,27.140456 26.997745,27.140456 C 18.528582,18.264221 13.291696,25.230495 11.500037,31.436501 z"
             style="fill:#404040;"/>
          </a>
         </g>
        </svg>
</svg>
