<?xml version="1.0" encoding="UTF-8" standalone="no"?>
<!DOCTYPE svg PUBLIC "-//W3C//DTD SVG 1.1//EN"
 "http://www.w3.org/Graphics/SVG/1.1/DTD/svg11.dtd">
<!-- Generated by graphviz version 2.38.0 (20140413.2041)
 -->
<!-- Title: examples/boris/bindings/wrapper_interface.hpp Pages: 1 -->
<!--zoomable 554 -->
<svg id="main" version="1.1" xmlns="http://www.w3.org/2000/svg" xmlns:xlink="http://www.w3.org/1999/xlink" xml:space="preserve" onload="init(evt)">
<style type="text/css"><![CDATA[
.edge:hover path { stroke: red; }
.edge:hover polygon { stroke: red; fill: red; }
]]></style>
<script type="text/javascript"><![CDATA[
var edges = document.getElementsByTagName('g');
if (edges && edges.length) {
  for (var i=0;i<edges.length;i++) {
    if (edges[i].id.substr(0,4)=='edge') {
      edges[i].setAttribute('class','edge');
    }
  }
}
]]></script>
        <defs>
                <circle id="rim" cx="0" cy="0" r="7"/>
                <circle id="rim2" cx="0" cy="0" r="3.5"/>
                <g id="zoomPlus">
                        <use xlink:href="#rim" fill="#404040">
                                <set attributeName="fill" to="#808080" begin="zoomplus.mouseover" end="zoomplus.mouseout"/>
                        </use>
                        <path d="M-4,0h8M0,-4v8" fill="none" stroke="white" stroke-width="1.5" pointer-events="none"/>
                </g>
                <g id="zoomMin">
                        <use xlink:href="#rim" fill="#404040">
                                <set attributeName="fill" to="#808080" begin="zoomminus.mouseover" end="zoomminus.mouseout"/>
                        </use>
                        <path d="M-4,0h8" fill="none" stroke="white" stroke-width="1.5" pointer-events="none"/>
                </g>
                <g id="dirArrow">
                        <path fill="none" stroke="white" stroke-width="1.5" d="M0,-3.0v7 M-2.5,-0.5L0,-3.0L2.5,-0.5"/>
                </g>
               <g id="resetDef">
                       <use xlink:href="#rim2" fill="#404040">
                               <set attributeName="fill" to="#808080" begin="reset.mouseover" end="reset.mouseout"/>
                       </use>
               </g>
        </defs>

<script type="text/javascript">
var viewWidth = 1492;
var viewHeight = 554;
var sectionId = 'dynsection-0';
</script>
<script xlink:href="../../svgpan.js"/>
<svg id="graph" class="graph">
<g id="viewport">
<title>examples/boris/bindings/wrapper_interface.hpp</title>
<polygon fill="white" stroke="none" points="-4,4 -4,-550 1487.5,-550 1487.5,4 -4,4"/>
<!-- Node1 -->
<g id="node1" class="node"><title>Node1</title>
<polygon fill="#bfbfbf" stroke="black" points="48.5,-515.5 48.5,-545.5 174.5,-545.5 174.5,-515.5 48.5,-515.5"/>
<text text-anchor="start" x="56.5" y="-533.5" font-family="Helvetica,sans-Serif" font-size="10.00">examples/boris/bindings</text>
<text text-anchor="middle" x="111.5" y="-522.5" font-family="Helvetica,sans-Serif" font-size="10.00">/wrapper_interface.hpp</text>
</g>
<!-- Node2 -->
<g id="node2" class="node"><title>Node2</title>
<polygon fill="white" stroke="#bfbfbf" points="0,-459.5 0,-478.5 45,-478.5 45,-459.5 0,-459.5"/>
<text text-anchor="middle" x="22.5" y="-466.5" font-family="Helvetica,sans-Serif" font-size="10.00">cstdlib</text>
</g>
<!-- Node1&#45;&gt;Node2 -->
<g id="edge1" class="edge"><title>Node1&#45;&gt;Node2</title>
<path fill="none" stroke="midnightblue" d="M90.4082,-515.399C76.4089,-506.04 58.0886,-493.792 44.0053,-484.377"/>
<polygon fill="midnightblue" stroke="midnightblue" points="45.7089,-481.306 35.4503,-478.658 41.8184,-487.125 45.7089,-481.306"/>
</g>
<!-- Node3 -->
<g id="node3" class="node"><title>Node3</title>
<polygon fill="white" stroke="#bfbfbf" points="233,-168.5 233,-187.5 286,-187.5 286,-168.5 233,-168.5"/>
<text text-anchor="middle" x="259.5" y="-175.5" font-family="Helvetica,sans-Serif" font-size="10.00">memory</text>
</g>
<!-- Node1&#45;&gt;Node3 -->
<g id="edge2" class="edge"><title>Node1&#45;&gt;Node3</title>
<path fill="none" stroke="midnightblue" d="M111.5,-515.275C111.5,-493.476 111.5,-450.495 111.5,-414 111.5,-414 111.5,-414 111.5,-294.5 111.5,-237.988 179.391,-205.044 223.209,-189.666"/>
<polygon fill="midnightblue" stroke="midnightblue" points="224.335,-192.98 232.698,-186.476 222.104,-186.345 224.335,-192.98"/>
</g>
<!-- Node4 -->
<g id="node4" class="node"><title>Node4</title>
<polygon fill="white" stroke="#bfbfbf" points="676.5,-0.5 676.5,-19.5 714.5,-19.5 714.5,-0.5 676.5,-0.5"/>
<text text-anchor="middle" x="695.5" y="-7.5" font-family="Helvetica,sans-Serif" font-size="10.00">utility</text>
</g>
<!-- Node1&#45;&gt;Node4 -->
<g id="edge3" class="edge"><title>Node1&#45;&gt;Node4</title>
<path fill="none" stroke="midnightblue" d="M103.626,-515.407C92.4959,-494.125 73.5,-452.208 73.5,-414 73.5,-414 73.5,-414 73.5,-121 73.5,-60.0579 542.48,-22.0122 665.986,-13.0495"/>
<polygon fill="midnightblue" stroke="midnightblue" points="666.478,-16.5233 676.203,-12.3176 665.978,-9.54122 666.478,-16.5233"/>
</g>
<!-- Node5 -->
<g id="node5" class="node"><title>Node5</title>
<g id="a_node5"><a xlink:href="../../d0/da9/logging_8hpp.html" target="_top" xlink:title="pfasst/logging.hpp">
<polygon fill="white" stroke="black" points="680.5,-168.5 680.5,-187.5 778.5,-187.5 778.5,-168.5 680.5,-168.5"/>
<text text-anchor="middle" x="729.5" y="-175.5" font-family="Helvetica,sans-Serif" font-size="10.00">pfasst/logging.hpp</text>
</a>
</g>
</g>
<!-- Node1&#45;&gt;Node5 -->
<g id="edge4" class="edge"><title>Node1&#45;&gt;Node5</title>
<path fill="none" stroke="midnightblue" d="M116.812,-515.411C137.413,-463.192 217.746,-280.795 354.5,-224 410.185,-200.874 579.402,-187.751 670.287,-182.194"/>
<polygon fill="midnightblue" stroke="midnightblue" points="670.662,-185.678 680.435,-181.585 670.243,-178.69 670.662,-185.678"/>
</g>
<!-- Node17 -->
<g id="node17" class="node"><title>Node17</title>
<g id="a_node17"><a xlink:href="../../d8/d52/particle__cloud_8hpp.html" target="_top" xlink:title="../particle_cloud.hpp">
<polygon fill="white" stroke="black" points="682.5,-459.5 682.5,-478.5 786.5,-478.5 786.5,-459.5 682.5,-459.5"/>
<text text-anchor="middle" x="734.5" y="-466.5" font-family="Helvetica,sans-Serif" font-size="10.00">../particle_cloud.hpp</text>
</a>
</g>
</g>
<!-- Node1&#45;&gt;Node17 -->
<g id="edge21" class="edge"><title>Node1&#45;&gt;Node17</title>
<path fill="none" stroke="midnightblue" d="M174.665,-523.467C294.448,-512.027 553.254,-487.31 672.292,-475.941"/>
<polygon fill="midnightblue" stroke="midnightblue" points="672.715,-479.417 682.337,-474.982 672.05,-472.449 672.715,-479.417"/>
</g>
<!-- Node6 -->
<g id="node6" class="node"><title>Node6</title>
<polygon fill="white" stroke="#bfbfbf" points="1078.5,-112.5 1078.5,-131.5 1130.5,-131.5 1130.5,-112.5 1078.5,-112.5"/>
<text text-anchor="middle" x="1104.5" y="-119.5" font-family="Helvetica,sans-Serif" font-size="10.00">iomanip</text>
</g>
<!-- Node5&#45;&gt;Node6 -->
<g id="edge5" class="edge"><title>Node5&#45;&gt;Node6</title>
<path fill="none" stroke="midnightblue" d="M778.541,-169.345C781.572,-168.886 784.577,-168.434 787.5,-168 889.163,-152.897 1009.34,-136.136 1068.25,-127.991"/>
<polygon fill="midnightblue" stroke="midnightblue" points="1068.75,-131.454 1078.18,-126.619 1067.8,-124.52 1068.75,-131.454"/>
</g>
<!-- Node7 -->
<g id="node7" class="node"><title>Node7</title>
<polygon fill="white" stroke="#bfbfbf" points="1009.5,-56.5 1009.5,-75.5 1065.5,-75.5 1065.5,-56.5 1009.5,-56.5"/>
<text text-anchor="middle" x="1037.5" y="-63.5" font-family="Helvetica,sans-Serif" font-size="10.00">iostream</text>
</g>
<!-- Node5&#45;&gt;Node7 -->
<g id="edge6" class="edge"><title>Node5&#45;&gt;Node7</title>
<path fill="none" stroke="midnightblue" d="M776.701,-168.467C836.557,-157.472 933.897,-138.949 949.5,-132 976.982,-119.761 1004.14,-97.7845 1020.86,-82.8051"/>
<polygon fill="midnightblue" stroke="midnightblue" points="1023.6,-85.0408 1028.6,-75.6982 1018.87,-79.8857 1023.6,-85.0408"/>
</g>
<!-- Node8 -->
<g id="node8" class="node"><title>Node8</title>
<polygon fill="white" stroke="#bfbfbf" points="620,-56.5 620,-75.5 661,-75.5 661,-56.5 620,-56.5"/>
<text text-anchor="middle" x="640.5" y="-63.5" font-family="Helvetica,sans-Serif" font-size="10.00">string</text>
</g>
<!-- Node5&#45;&gt;Node8 -->
<g id="edge7" class="edge"><title>Node5&#45;&gt;Node8</title>
<path fill="none" stroke="midnightblue" d="M708.506,-168.419C692.834,-160.987 672.043,-148.779 659.5,-132 649.491,-118.611 644.739,-100.043 642.492,-86.1794"/>
<polygon fill="midnightblue" stroke="midnightblue" points="645.909,-85.3153 641.133,-75.8576 638.969,-86.2289 645.909,-85.3153"/>
</g>
<!-- Node9 -->
<g id="node9" class="node"><title>Node9</title>
<polygon fill="white" stroke="#bfbfbf" points="809,-112.5 809,-131.5 940,-131.5 940,-112.5 809,-112.5"/>
<text text-anchor="middle" x="874.5" y="-119.5" font-family="Helvetica,sans-Serif" font-size="10.00">boost/algorithm/string.hpp</text>
</g>
<!-- Node5&#45;&gt;Node9 -->
<g id="edge8" class="edge"><title>Node5&#45;&gt;Node9</title>
<path fill="none" stroke="midnightblue" d="M752.476,-168.444C776.657,-159.438 814.918,-145.189 842.146,-135.049"/>
<polygon fill="midnightblue" stroke="midnightblue" points="843.482,-138.286 851.632,-131.516 841.039,-131.727 843.482,-138.286"/>
</g>
<!-- Node10 -->
<g id="node10" class="node"><title>Node10</title>
<g id="a_node10"><a xlink:href="../../d8/dfd/config_8hpp.html" target="_top" xlink:title="pfasst/config.hpp">
<polygon fill="white" stroke="black" points="1336,-112.5 1336,-131.5 1427,-131.5 1427,-112.5 1336,-112.5"/>
<text text-anchor="middle" x="1381.5" y="-119.5" font-family="Helvetica,sans-Serif" font-size="10.00">pfasst/config.hpp</text>
</a>
</g>
</g>
<!-- Node5&#45;&gt;Node10 -->
<g id="edge9" class="edge"><title>Node5&#45;&gt;Node10</title>
<path fill="none" stroke="midnightblue" d="M778.511,-169.119C781.55,-168.716 784.564,-168.338 787.5,-168 984.867,-145.246 1220.51,-131.302 1325.84,-125.758"/>
<polygon fill="midnightblue" stroke="midnightblue" points="1326.12,-129.249 1335.93,-125.232 1325.76,-122.258 1326.12,-129.249"/>
</g>
<!-- Node16 -->
<g id="node16" class="node"><title>Node16</title>
<polygon fill="white" stroke="#bfbfbf" points="668.5,-112.5 668.5,-131.5 790.5,-131.5 790.5,-112.5 668.5,-112.5"/>
<text text-anchor="middle" x="729.5" y="-119.5" font-family="Helvetica,sans-Serif" font-size="10.00">pfasst/easylogging++.h</text>
</g>
<!-- Node5&#45;&gt;Node16 -->
<g id="edge20" class="edge"><title>Node5&#45;&gt;Node16</title>
<path fill="none" stroke="midnightblue" d="M729.5,-168.083C729.5,-161.006 729.5,-150.861 729.5,-141.986"/>
<polygon fill="midnightblue" stroke="midnightblue" points="733,-141.751 729.5,-131.751 726,-141.751 733,-141.751"/>
</g>
<!-- Node10&#45;&gt;Node7 -->
<g id="edge11" class="edge"><title>Node10&#45;&gt;Node7</title>
<path fill="none" stroke="midnightblue" d="M1335.82,-113.829C1267.43,-103.094 1139.68,-83.0396 1075.85,-73.02"/>
<polygon fill="midnightblue" stroke="midnightblue" points="1076.23,-69.5365 1065.81,-71.4432 1075.14,-76.4518 1076.23,-69.5365"/>
</g>
<!-- Node10&#45;&gt;Node8 -->
<g id="edge12" class="edge"><title>Node10&#45;&gt;Node8</title>
<path fill="none" stroke="midnightblue" d="M1335.69,-113.729C1330.9,-113.089 1326.11,-112.497 1321.5,-112 1071.38,-85.0243 767.719,-71.8409 671.37,-68.1273"/>
<polygon fill="midnightblue" stroke="midnightblue" points="671.295,-64.622 661.169,-67.7398 671.029,-71.6169 671.295,-64.622"/>
</g>
<!-- Node11 -->
<g id="node11" class="node"><title>Node11</title>
<polygon fill="white" stroke="#bfbfbf" points="1433.5,-0.5 1433.5,-19.5 1483.5,-19.5 1483.5,-0.5 1433.5,-0.5"/>
<text text-anchor="middle" x="1458.5" y="-7.5" font-family="Helvetica,sans-Serif" font-size="10.00">fstream</text>
</g>
<!-- Node10&#45;&gt;Node11 -->
<g id="edge10" class="edge"><title>Node10&#45;&gt;Node11</title>
<path fill="none" stroke="midnightblue" d="M1402.16,-112.351C1417.19,-104.95 1436.72,-92.8129 1447.5,-76 1456.28,-62.2993 1458.7,-43.766 1459.12,-29.9948"/>
<polygon fill="midnightblue" stroke="midnightblue" points="1462.62,-29.7487 1459.09,-19.7577 1455.62,-29.7667 1462.62,-29.7487"/>
</g>
<!-- Node12 -->
<g id="node12" class="node"><title>Node12</title>
<polygon fill="white" stroke="#bfbfbf" points="1114.5,-56.5 1114.5,-75.5 1150.5,-75.5 1150.5,-56.5 1114.5,-56.5"/>
<text text-anchor="middle" x="1132.5" y="-63.5" font-family="Helvetica,sans-Serif" font-size="10.00">map</text>
</g>
<!-- Node10&#45;&gt;Node12 -->
<g id="edge13" class="edge"><title>Node10&#45;&gt;Node12</title>
<path fill="none" stroke="midnightblue" d="M1335.87,-113.227C1290.95,-105.217 1220.54,-91.7109 1160.5,-76 1160.4,-75.9741 1160.3,-75.9482 1160.2,-75.922"/>
<polygon fill="midnightblue" stroke="midnightblue" points="1161.37,-72.6158 1150.79,-73.1977 1159.42,-79.3399 1161.37,-72.6158"/>
</g>
<!-- Node13 -->
<g id="node13" class="node"><title>Node13</title>
<polygon fill="white" stroke="#bfbfbf" points="1169,-56.5 1169,-75.5 1306,-75.5 1306,-56.5 1169,-56.5"/>
<text text-anchor="middle" x="1237.5" y="-63.5" font-family="Helvetica,sans-Serif" font-size="10.00">boost/program_options.hpp</text>
</g>
<!-- Node10&#45;&gt;Node13 -->
<g id="edge14" class="edge"><title>Node10&#45;&gt;Node13</title>
<path fill="none" stroke="midnightblue" d="M1358.68,-112.444C1334.67,-103.438 1296.67,-89.1891 1269.63,-79.049"/>
<polygon fill="midnightblue" stroke="midnightblue" points="1270.8,-75.7506 1260.21,-75.5164 1268.34,-82.3049 1270.8,-75.7506"/>
</g>
<!-- Node14 -->
<g id="node14" class="node"><title>Node14</title>
<g id="a_node14"><a xlink:href="../../d5/d84/config__impl_8hpp.html" target="_top" xlink:title="pfasst/config_impl.hpp">
<polygon fill="white" stroke="black" points="1324.5,-56.5 1324.5,-75.5 1438.5,-75.5 1438.5,-56.5 1324.5,-56.5"/>
<text text-anchor="middle" x="1381.5" y="-63.5" font-family="Helvetica,sans-Serif" font-size="10.00">pfasst/config_impl.hpp</text>
</a>
</g>
</g>
<!-- Node10&#45;&gt;Node14 -->
<g id="edge15" class="edge"><title>Node10&#45;&gt;Node14</title>
<path fill="none" stroke="midnightblue" d="M1376.33,-112.083C1374.82,-104.927 1374.39,-94.6353 1375.04,-85.6911"/>
<polygon fill="midnightblue" stroke="midnightblue" points="1378.52,-86.1262 1376.37,-75.7511 1371.58,-85.2002 1378.52,-86.1262"/>
</g>
<!-- Node14&#45;&gt;Node4 -->
<g id="edge19" class="edge"><title>Node14&#45;&gt;Node4</title>
<path fill="none" stroke="midnightblue" d="M1324.29,-56.9738C1321.32,-56.6274 1318.38,-56.3001 1315.5,-56 1088.55,-32.314 813.566,-17.0575 724.696,-12.4631"/>
<polygon fill="midnightblue" stroke="midnightblue" points="724.731,-8.96041 714.565,-11.9441 724.373,-15.9512 724.731,-8.96041"/>
</g>
<!-- Node14&#45;&gt;Node10 -->
<g id="edge16" class="edge"><title>Node14&#45;&gt;Node10</title>
<path fill="none" stroke="midnightblue" d="M1386.63,-75.7511C1388.16,-82.8579 1388.6,-93.1357 1387.97,-102.101"/>
<polygon fill="midnightblue" stroke="midnightblue" points="1384.49,-101.713 1386.67,-112.083 1391.43,-102.622 1384.49,-101.713"/>
</g>
<!-- Node14&#45;&gt;Node11 -->
<g id="edge17" class="edge"><title>Node14&#45;&gt;Node11</title>
<path fill="none" stroke="midnightblue" d="M1393.87,-56.324C1405.66,-48.0577 1423.63,-35.4527 1437.64,-25.6322"/>
<polygon fill="midnightblue" stroke="midnightblue" points="1439.98,-28.2619 1446.16,-19.6545 1435.96,-22.5307 1439.98,-28.2619"/>
</g>
<!-- Node15 -->
<g id="node15" class="node"><title>Node15</title>
<polygon fill="white" stroke="#bfbfbf" points="1355,-0.5 1355,-19.5 1408,-19.5 1408,-0.5 1355,-0.5"/>
<text text-anchor="middle" x="1381.5" y="-7.5" font-family="Helvetica,sans-Serif" font-size="10.00">sstream</text>
</g>
<!-- Node14&#45;&gt;Node15 -->
<g id="edge18" class="edge"><title>Node14&#45;&gt;Node15</title>
<path fill="none" stroke="midnightblue" d="M1381.5,-56.083C1381.5,-49.0059 1381.5,-38.8611 1381.5,-29.9865"/>
<polygon fill="midnightblue" stroke="midnightblue" points="1385,-29.751 1381.5,-19.7511 1378,-29.7511 1385,-29.751"/>
</g>
<!-- Node17&#45;&gt;Node3 -->
<g id="edge22" class="edge"><title>Node17&#45;&gt;Node3</title>
<path fill="none" stroke="midnightblue" d="M682.328,-463.676C538.947,-451.097 149.5,-411.964 149.5,-358 149.5,-358 149.5,-358 149.5,-294.5 149.5,-246.614 199.694,-210.719 232.269,-192.466"/>
<polygon fill="midnightblue" stroke="midnightblue" points="234.192,-195.406 241.336,-187.581 230.872,-189.243 234.192,-195.406"/>
</g>
<!-- Node17&#45;&gt;Node5 -->
<g id="edge24" class="edge"><title>Node17&#45;&gt;Node5</title>
<path fill="none" stroke="midnightblue" d="M731.938,-459.249C726.751,-440.738 715.5,-396.179 715.5,-358 715.5,-358 715.5,-358 715.5,-294.5 715.5,-260.114 721.691,-220.385 725.839,-197.625"/>
<polygon fill="midnightblue" stroke="midnightblue" points="729.306,-198.126 727.727,-187.65 722.428,-196.825 729.306,-198.126"/>
</g>
<!-- Node18 -->
<g id="node18" class="node"><title>Node18</title>
<polygon fill="white" stroke="#bfbfbf" points="743.5,-224.5 743.5,-243.5 787.5,-243.5 787.5,-224.5 743.5,-224.5"/>
<text text-anchor="middle" x="765.5" y="-231.5" font-family="Helvetica,sans-Serif" font-size="10.00">vector</text>
</g>
<!-- Node17&#45;&gt;Node18 -->
<g id="edge23" class="edge"><title>Node17&#45;&gt;Node18</title>
<path fill="none" stroke="midnightblue" d="M735.64,-459.431C740.121,-425.754 756.587,-301.994 762.959,-254.102"/>
<polygon fill="midnightblue" stroke="midnightblue" points="766.467,-254.27 764.316,-243.896 759.528,-253.347 766.467,-254.27"/>
</g>
<!-- Node19 -->
<g id="node19" class="node"><title>Node19</title>
<g id="a_node19"><a xlink:href="../../d8/d85/encapsulation_8hpp.html" target="_top" xlink:title="pfasst/encap/encapsulation.hpp">
<polygon fill="white" stroke="black" points="501,-347.5 501,-366.5 658,-366.5 658,-347.5 501,-347.5"/>
<text text-anchor="middle" x="579.5" y="-354.5" font-family="Helvetica,sans-Serif" font-size="10.00">pfasst/encap/encapsulation.hpp</text>
</a>
</g>
</g>
<!-- Node17&#45;&gt;Node19 -->
<g id="edge25" class="edge"><title>Node17&#45;&gt;Node19</title>
<path fill="none" stroke="midnightblue" d="M722.337,-459.368C695.853,-440.573 632.719,-395.768 599.979,-372.533"/>
<polygon fill="midnightblue" stroke="midnightblue" points="601.787,-369.525 591.606,-366.591 597.736,-375.233 601.787,-369.525"/>
</g>
<!-- Node27 -->
<g id="node27" class="node"><title>Node27</title>
<g id="a_node27"><a xlink:href="../../d4/dec/particle_8hpp.html" target="_top" xlink:title="particle.hpp">
<polygon fill="white" stroke="black" points="789,-403.5 789,-422.5 856,-422.5 856,-403.5 789,-403.5"/>
<text text-anchor="middle" x="822.5" y="-410.5" font-family="Helvetica,sans-Serif" font-size="10.00">particle.hpp</text>
</a>
</g>
</g>
<!-- Node17&#45;&gt;Node27 -->
<g id="edge43" class="edge"><title>Node17&#45;&gt;Node27</title>
<path fill="none" stroke="midnightblue" d="M748.639,-459.324C762.366,-450.9 783.436,-437.971 799.564,-428.074"/>
<polygon fill="midnightblue" stroke="midnightblue" points="801.704,-430.868 808.396,-422.655 798.043,-424.902 801.704,-430.868"/>
</g>
<!-- Node35 -->
<g id="node35" class="node"><title>Node35</title>
<g id="a_node35"><a xlink:href="../../d6/d1f/particle__cloud__impl_8hpp.html" target="_top" xlink:title="particle_cloud_impl.hpp">
<polygon fill="white" stroke="black" points="1061.5,-347.5 1061.5,-366.5 1181.5,-366.5 1181.5,-347.5 1061.5,-347.5"/>
<text text-anchor="middle" x="1121.5" y="-354.5" font-family="Helvetica,sans-Serif" font-size="10.00">particle_cloud_impl.hpp</text>
</a>
</g>
</g>
<!-- Node17&#45;&gt;Node35 -->
<g id="edge63" class="edge"><title>Node17&#45;&gt;Node35</title>
<path fill="none" stroke="midnightblue" d="M760.72,-459.46C826.21,-439.782 996.793,-391.252 1077.77,-369.213"/>
<polygon fill="midnightblue" stroke="midnightblue" points="1078.91,-372.528 1087.65,-366.535 1077.08,-365.772 1078.91,-372.528"/>
</g>
<!-- Node19&#45;&gt;Node3 -->
<g id="edge26" class="edge"><title>Node19&#45;&gt;Node3</title>
<path fill="none" stroke="midnightblue" d="M500.94,-354.104C423.871,-350.533 313.653,-340.292 283.5,-311 252.957,-281.33 253.797,-226.721 256.774,-197.922"/>
<polygon fill="midnightblue" stroke="midnightblue" points="260.294,-197.976 258.05,-187.621 253.347,-197.115 260.294,-197.976"/>
</g>
<!-- Node19&#45;&gt;Node18 -->
<g id="edge27" class="edge"><title>Node19&#45;&gt;Node18</title>
<path fill="none" stroke="midnightblue" d="M595.513,-347.49C611.67,-338.762 637.206,-324.579 658.5,-311 689.935,-290.954 724.898,-265.485 746.037,-249.715"/>
<polygon fill="midnightblue" stroke="midnightblue" points="748.299,-252.394 754.2,-243.594 744.1,-246.793 748.299,-252.394"/>
</g>
<!-- Node20 -->
<g id="node20" class="node"><title>Node20</title>
<polygon fill="white" stroke="#bfbfbf" points="292,-286 292,-305 367,-305 367,-286 292,-286"/>
<text text-anchor="middle" x="329.5" y="-293" font-family="Helvetica,sans-Serif" font-size="10.00">Eigen/Dense</text>
</g>
<!-- Node19&#45;&gt;Node20 -->
<g id="edge28" class="edge"><title>Node19&#45;&gt;Node20</title>
<path fill="none" stroke="midnightblue" d="M536.09,-347.44C494.82,-339.052 431.114,-325.452 376.5,-311 372.904,-310.048 369.171,-309.001 365.451,-307.917"/>
<polygon fill="midnightblue" stroke="midnightblue" points="366.325,-304.525 355.741,-305.007 364.315,-311.231 366.325,-304.525"/>
</g>
<!-- Node21 -->
<g id="node21" class="node"><title>Node21</title>
<g id="a_node21"><a xlink:href="../../d1/d1b/interfaces_8hpp.html" target="_top" xlink:title="interfaces for SDC/MLSDC/PFASST algorithms. ">
<polygon fill="white" stroke="black" points="385,-286 385,-305 492,-305 492,-286 385,-286"/>
<text text-anchor="middle" x="438.5" y="-293" font-family="Helvetica,sans-Serif" font-size="10.00">pfasst/interfaces.hpp</text>
</a>
</g>
</g>
<!-- Node19&#45;&gt;Node21 -->
<g id="edge29" class="edge"><title>Node19&#45;&gt;Node21</title>
<path fill="none" stroke="midnightblue" d="M559.298,-347.475C535.426,-337.401 495.498,-320.553 468.127,-309.002"/>
<polygon fill="midnightblue" stroke="midnightblue" points="469.238,-305.672 458.664,-305.009 466.517,-312.122 469.238,-305.672"/>
</g>
<!-- Node26 -->
<g id="node26" class="node"><title>Node26</title>
<g id="a_node26"><a xlink:href="../../d1/d99/encapsulation__impl_8hpp.html" target="_top" xlink:title="pfasst/encap/encapsulation\l_impl.hpp">
<polygon fill="white" stroke="black" points="510,-280.5 510,-310.5 649,-310.5 649,-280.5 510,-280.5"/>
<text text-anchor="start" x="518" y="-298.5" font-family="Helvetica,sans-Serif" font-size="10.00">pfasst/encap/encapsulation</text>
<text text-anchor="middle" x="579.5" y="-287.5" font-family="Helvetica,sans-Serif" font-size="10.00">_impl.hpp</text>
</a>
</g>
</g>
<!-- Node19&#45;&gt;Node26 -->
<g id="edge40" class="edge"><title>Node19&#45;&gt;Node26</title>
<path fill="none" stroke="midnightblue" d="M574.599,-347.475C573.072,-340.471 572.491,-330.192 572.856,-320.696"/>
<polygon fill="midnightblue" stroke="midnightblue" points="576.361,-320.77 573.67,-310.523 569.383,-320.212 576.361,-320.77"/>
</g>
<!-- Node21&#45;&gt;Node3 -->
<g id="edge30" class="edge"><title>Node21&#45;&gt;Node3</title>
<path fill="none" stroke="midnightblue" d="M423.772,-285.999C406.874,-276.164 378.414,-259.351 354.5,-244 328.367,-227.225 298.957,-206.866 279.877,-193.454"/>
<polygon fill="midnightblue" stroke="midnightblue" points="281.832,-190.55 271.643,-187.647 277.798,-196.271 281.832,-190.55"/>
</g>
<!-- Node21&#45;&gt;Node8 -->
<g id="edge32" class="edge"><title>Node21&#45;&gt;Node8</title>
<path fill="none" stroke="midnightblue" d="M446.172,-285.86C476.232,-252.005 586.29,-128.053 626.049,-83.2749"/>
<polygon fill="midnightblue" stroke="midnightblue" points="628.798,-85.4507 632.82,-75.6491 623.564,-80.803 628.798,-85.4507"/>
</g>
<!-- Node22 -->
<g id="node22" class="node"><title>Node22</title>
<polygon fill="white" stroke="#bfbfbf" points="363.5,-224.5 363.5,-243.5 423.5,-243.5 423.5,-224.5 363.5,-224.5"/>
<text text-anchor="middle" x="393.5" y="-231.5" font-family="Helvetica,sans-Serif" font-size="10.00">stdexcept</text>
</g>
<!-- Node21&#45;&gt;Node22 -->
<g id="edge31" class="edge"><title>Node21&#45;&gt;Node22</title>
<path fill="none" stroke="midnightblue" d="M432.053,-285.975C425.303,-277.05 414.531,-262.807 406.087,-251.643"/>
<polygon fill="midnightblue" stroke="midnightblue" points="408.759,-249.374 399.935,-243.509 403.176,-253.596 408.759,-249.374"/>
</g>
<!-- Node23 -->
<g id="node23" class="node"><title>Node23</title>
<g id="a_node23"><a xlink:href="../../d8/dc4/interfaces__impl_8hpp.html" target="_top" xlink:title="pfasst/interfaces_impl.hpp">
<polygon fill="white" stroke="black" points="518,-224.5 518,-243.5 649,-243.5 649,-224.5 518,-224.5"/>
<text text-anchor="middle" x="583.5" y="-231.5" font-family="Helvetica,sans-Serif" font-size="10.00">pfasst/interfaces_impl.hpp</text>
</a>
</g>
</g>
<!-- Node21&#45;&gt;Node23 -->
<g id="edge33" class="edge"><title>Node21&#45;&gt;Node23</title>
<path fill="none" stroke="midnightblue" d="M454.374,-285.975C476.923,-275.813 518.265,-258.756 548.197,-247.2"/>
<polygon fill="midnightblue" stroke="midnightblue" points="549.772,-250.345 557.866,-243.509 547.276,-243.805 549.772,-250.345"/>
</g>
<!-- Node23&#45;&gt;Node3 -->
<g id="edge36" class="edge"><title>Node23&#45;&gt;Node3</title>
<path fill="none" stroke="midnightblue" d="M532.161,-224.444C466.481,-213.497 354.313,-194.802 296.447,-185.158"/>
<polygon fill="midnightblue" stroke="midnightblue" points="296.737,-181.658 286.297,-183.466 295.586,-188.563 296.737,-181.658"/>
</g>
<!-- Node23&#45;&gt;Node5 -->
<g id="edge39" class="edge"><title>Node23&#45;&gt;Node5</title>
<path fill="none" stroke="midnightblue" d="M606.634,-224.444C630.982,-215.438 669.507,-201.189 696.923,-191.049"/>
<polygon fill="midnightblue" stroke="midnightblue" points="698.309,-194.268 706.474,-187.516 695.881,-187.703 698.309,-194.268"/>
</g>
<!-- Node23&#45;&gt;Node8 -->
<g id="edge37" class="edge"><title>Node23&#45;&gt;Node8</title>
<path fill="none" stroke="midnightblue" d="M586.565,-224.075C595.576,-197.832 622.114,-120.545 634.279,-85.1165"/>
<polygon fill="midnightblue" stroke="midnightblue" points="637.621,-86.1628 637.558,-75.5681 631,-83.8894 637.621,-86.1628"/>
</g>
<!-- Node23&#45;&gt;Node21 -->
<g id="edge34" class="edge"><title>Node23&#45;&gt;Node21</title>
<path fill="none" stroke="midnightblue" d="M567.661,-243.509C545.132,-253.664 503.793,-270.72 473.85,-282.282"/>
<polygon fill="midnightblue" stroke="midnightblue" points="472.27,-279.139 464.176,-285.975 474.766,-285.679 472.27,-279.139"/>
</g>
<!-- Node24 -->
<g id="node24" class="node"><title>Node24</title>
<polygon fill="white" stroke="#bfbfbf" points="911.5,-168.5 911.5,-187.5 961.5,-187.5 961.5,-168.5 911.5,-168.5"/>
<text text-anchor="middle" x="936.5" y="-175.5" font-family="Helvetica,sans-Serif" font-size="10.00">cassert</text>
</g>
<!-- Node23&#45;&gt;Node24 -->
<g id="edge35" class="edge"><title>Node23&#45;&gt;Node24</title>
<path fill="none" stroke="midnightblue" d="M649.258,-226.033C711.815,-218.882 808.707,-206.451 901.493,-188.001"/>
<polygon fill="midnightblue" stroke="midnightblue" points="902.216,-191.426 911.327,-186.019 900.833,-184.564 902.216,-191.426"/>
</g>
<!-- Node25 -->
<g id="node25" class="node"><title>Node25</title>
<g id="a_node25"><a xlink:href="../../d5/d82/globals_8hpp.html" target="_top" xlink:title="pfasst/globals.hpp">
<polygon fill="white" stroke="black" points="796,-168.5 796,-187.5 893,-187.5 893,-168.5 796,-168.5"/>
<text text-anchor="middle" x="844.5" y="-175.5" font-family="Helvetica,sans-Serif" font-size="10.00">pfasst/globals.hpp</text>
</a>
</g>
</g>
<!-- Node23&#45;&gt;Node25 -->
<g id="edge38" class="edge"><title>Node23&#45;&gt;Node25</title>
<path fill="none" stroke="midnightblue" d="M624.856,-224.444C670.578,-214.984 744.264,-199.738 793.522,-189.547"/>
<polygon fill="midnightblue" stroke="midnightblue" points="794.254,-192.97 803.337,-187.516 792.836,-186.115 794.254,-192.97"/>
</g>
<!-- Node26&#45;&gt;Node19 -->
<g id="edge41" class="edge"><title>Node26&#45;&gt;Node19</title>
<path fill="none" stroke="midnightblue" d="M585.33,-310.523C586.373,-318.586 586.529,-328.813 585.799,-337.526"/>
<polygon fill="midnightblue" stroke="midnightblue" points="582.327,-337.085 584.401,-347.475 589.259,-338.06 582.327,-337.085"/>
</g>
<!-- Node26&#45;&gt;Node25 -->
<g id="edge42" class="edge"><title>Node26&#45;&gt;Node25</title>
<path fill="none" stroke="midnightblue" d="M609.641,-280.374C640.763,-265.887 690.804,-242.867 734.5,-224 760.948,-212.581 791.266,-200.232 813.366,-191.365"/>
<polygon fill="midnightblue" stroke="midnightblue" points="814.914,-194.515 822.898,-187.551 812.313,-188.016 814.914,-194.515"/>
</g>
<!-- Node27&#45;&gt;Node3 -->
<g id="edge44" class="edge"><title>Node27&#45;&gt;Node3</title>
<path fill="none" stroke="midnightblue" d="M788.64,-411.082C678.328,-407.339 332.273,-389.438 260.5,-311 232.229,-280.103 243.81,-226.055 252.753,-197.651"/>
<polygon fill="midnightblue" stroke="midnightblue" points="256.193,-198.404 256.076,-187.81 249.561,-196.165 256.193,-198.404"/>
</g>
<!-- Node27&#45;&gt;Node5 -->
<g id="edge46" class="edge"><title>Node27&#45;&gt;Node5</title>
<path fill="none" stroke="midnightblue" d="M823.685,-403.284C827.082,-374.898 834.331,-283.504 796.5,-224 787.704,-210.165 772.954,-199.577 759.528,-192.157"/>
<polygon fill="midnightblue" stroke="midnightblue" points="761.028,-188.993 750.535,-187.526 757.823,-195.216 761.028,-188.993"/>
</g>
<!-- Node27&#45;&gt;Node18 -->
<g id="edge45" class="edge"><title>Node27&#45;&gt;Node18</title>
<path fill="none" stroke="midnightblue" d="M819.751,-403.463C811.007,-376.311 783.699,-291.512 771.496,-253.618"/>
<polygon fill="midnightblue" stroke="midnightblue" points="774.753,-252.314 768.356,-243.868 768.09,-254.46 774.753,-252.314"/>
</g>
<!-- Node28 -->
<g id="node28" class="node"><title>Node28</title>
<g id="a_node28"><a xlink:href="../../d3/d35/particle__impl_8hpp.html" target="_top" xlink:title="particle_impl.hpp">
<polygon fill="white" stroke="black" points="857.5,-347.5 857.5,-366.5 947.5,-366.5 947.5,-347.5 857.5,-347.5"/>
<text text-anchor="middle" x="902.5" y="-354.5" font-family="Helvetica,sans-Serif" font-size="10.00">particle_impl.hpp</text>
</a>
</g>
</g>
<!-- Node27&#45;&gt;Node28 -->
<g id="edge47" class="edge"><title>Node27&#45;&gt;Node28</title>
<path fill="none" stroke="midnightblue" d="M830.239,-403.324C840.894,-394.9 859.751,-381.971 875.64,-372.074"/>
<polygon fill="midnightblue" stroke="midnightblue" points="877.836,-374.836 884.568,-366.655 874.204,-368.852 877.836,-374.836"/>
</g>
<!-- Node28&#45;&gt;Node6 -->
<g id="edge62" class="edge"><title>Node28&#45;&gt;Node6</title>
<path fill="none" stroke="midnightblue" d="M921.405,-347.487C955.513,-331.375 1028.1,-293.55 1074.5,-244 1095.06,-222.045 1103.67,-216.752 1112.5,-188 1117.2,-172.716 1114.32,-154.61 1110.77,-141.394"/>
<polygon fill="midnightblue" stroke="midnightblue" points="1114.05,-140.155 1107.79,-131.612 1107.36,-142.198 1114.05,-140.155"/>
</g>
<!-- Node28&#45;&gt;Node24 -->
<g id="edge61" class="edge"><title>Node28&#45;&gt;Node24</title>
<path fill="none" stroke="midnightblue" d="M898.074,-347.079C891.586,-332.85 880.848,-304.158 886.5,-280 893.86,-248.545 912.524,-215.653 924.85,-196.26"/>
<polygon fill="midnightblue" stroke="midnightblue" points="927.929,-197.945 930.469,-187.659 922.069,-194.116 927.929,-197.945"/>
</g>
<!-- Node28&#45;&gt;Node27 -->
<g id="edge48" class="edge"><title>Node28&#45;&gt;Node27</title>
<path fill="none" stroke="midnightblue" d="M894.561,-366.834C883.868,-375.263 865.139,-388.099 849.345,-397.935"/>
<polygon fill="midnightblue" stroke="midnightblue" points="847.2,-395.143 840.468,-403.324 850.833,-401.126 847.2,-395.143"/>
</g>
<!-- Node29 -->
<g id="node29" class="node"><title>Node29</title>
<g id="a_node29"><a xlink:href="../../db/de5/particle__util_8hpp.html" target="_top" xlink:title="particle_util.hpp">
<polygon fill="white" stroke="black" points="895.5,-286 895.5,-305 979.5,-305 979.5,-286 895.5,-286"/>
<text text-anchor="middle" x="937.5" y="-293" font-family="Helvetica,sans-Serif" font-size="10.00">particle_util.hpp</text>
</a>
</g>
</g>
<!-- Node28&#45;&gt;Node29 -->
<g id="edge49" class="edge"><title>Node28&#45;&gt;Node29</title>
<path fill="none" stroke="midnightblue" d="M907.515,-347.475C912.661,-338.727 920.812,-324.869 927.318,-313.809"/>
<polygon fill="midnightblue" stroke="midnightblue" points="930.441,-315.403 932.495,-305.009 924.408,-311.854 930.441,-315.403"/>
</g>
<!-- Node29&#45;&gt;Node3 -->
<g id="edge50" class="edge"><title>Node29&#45;&gt;Node3</title>
<path fill="none" stroke="midnightblue" d="M895.292,-291.448C818.184,-285.446 649.578,-270.346 509.5,-244 508.832,-243.874 365.549,-206.596 296.229,-188.558"/>
<polygon fill="midnightblue" stroke="midnightblue" points="296.727,-185.071 286.167,-185.94 294.964,-191.845 296.727,-185.071"/>
</g>
<!-- Node29&#45;&gt;Node18 -->
<g id="edge51" class="edge"><title>Node29&#45;&gt;Node18</title>
<path fill="none" stroke="midnightblue" d="M912.857,-285.975C882.467,-275.462 830.75,-257.572 797.368,-246.024"/>
<polygon fill="midnightblue" stroke="midnightblue" points="798.235,-242.621 787.641,-242.659 795.947,-249.236 798.235,-242.621"/>
</g>
<!-- Node30 -->
<g id="node30" class="node"><title>Node30</title>
<g id="a_node30"><a xlink:href="../../d0/d00/particle__util__impl_8hpp.html" target="_top" xlink:title="particle_util_impl.hpp">
<polygon fill="white" stroke="black" points="958,-224.5 958,-243.5 1065,-243.5 1065,-224.5 958,-224.5"/>
<text text-anchor="middle" x="1011.5" y="-231.5" font-family="Helvetica,sans-Serif" font-size="10.00">particle_util_impl.hpp</text>
</a>
</g>
</g>
<!-- Node29&#45;&gt;Node30 -->
<g id="edge52" class="edge"><title>Node29&#45;&gt;Node30</title>
<path fill="none" stroke="midnightblue" d="M943.202,-285.975C952.99,-276.431 972.097,-260.807 987.756,-249.368"/>
<polygon fill="midnightblue" stroke="midnightblue" points="989.887,-252.148 996.02,-243.509 985.838,-246.438 989.887,-252.148"/>
</g>
<!-- Node30&#45;&gt;Node5 -->
<g id="edge60" class="edge"><title>Node30&#45;&gt;Node5</title>
<path fill="none" stroke="midnightblue" d="M966.816,-224.444C917.21,-214.944 837.135,-199.611 783.915,-189.42"/>
<polygon fill="midnightblue" stroke="midnightblue" points="784.455,-185.96 773.975,-187.516 783.138,-192.835 784.455,-185.96"/>
</g>
<!-- Node30&#45;&gt;Node24 -->
<g id="edge55" class="edge"><title>Node30&#45;&gt;Node24</title>
<path fill="none" stroke="midnightblue" d="M999.45,-224.324C988.037,-216.107 970.669,-203.602 957.065,-193.807"/>
<polygon fill="midnightblue" stroke="midnightblue" points="958.93,-190.837 948.769,-187.834 954.84,-196.517 958.93,-190.837"/>
</g>
<!-- Node30&#45;&gt;Node25 -->
<g id="edge59" class="edge"><title>Node30&#45;&gt;Node25</title>
<path fill="none" stroke="midnightblue" d="M985.038,-224.444C956.822,-215.32 911.96,-200.813 880.532,-190.651"/>
<polygon fill="midnightblue" stroke="midnightblue" points="881.43,-187.263 870.838,-187.516 879.276,-193.923 881.43,-187.263"/>
</g>
<!-- Node30&#45;&gt;Node29 -->
<g id="edge53" class="edge"><title>Node30&#45;&gt;Node29</title>
<path fill="none" stroke="midnightblue" d="M1005.81,-243.509C996.037,-253.046 976.933,-268.669 961.27,-280.113"/>
<polygon fill="midnightblue" stroke="midnightblue" points="959.135,-277.335 953.003,-285.975 963.185,-283.045 959.135,-277.335"/>
</g>
<!-- Node31 -->
<g id="node31" class="node"><title>Node31</title>
<polygon fill="white" stroke="#bfbfbf" points="1159.5,-168.5 1159.5,-187.5 1217.5,-187.5 1217.5,-168.5 1159.5,-168.5"/>
<text text-anchor="middle" x="1188.5" y="-175.5" font-family="Helvetica,sans-Serif" font-size="10.00">algorithm</text>
</g>
<!-- Node30&#45;&gt;Node31 -->
<g id="edge54" class="edge"><title>Node30&#45;&gt;Node31</title>
<path fill="none" stroke="midnightblue" d="M1039.55,-224.444C1069.58,-215.28 1117.41,-200.688 1150.74,-190.519"/>
<polygon fill="midnightblue" stroke="midnightblue" points="1152.04,-193.782 1160.59,-187.516 1150,-187.087 1152.04,-193.782"/>
</g>
<!-- Node32 -->
<g id="node32" class="node"><title>Node32</title>
<polygon fill="white" stroke="#bfbfbf" points="1059.5,-168.5 1059.5,-187.5 1103.5,-187.5 1103.5,-168.5 1059.5,-168.5"/>
<text text-anchor="middle" x="1081.5" y="-175.5" font-family="Helvetica,sans-Serif" font-size="10.00">cmath</text>
</g>
<!-- Node30&#45;&gt;Node32 -->
<g id="edge56" class="edge"><title>Node30&#45;&gt;Node32</title>
<path fill="none" stroke="midnightblue" d="M1022.75,-224.324C1033.3,-216.185 1049.3,-203.839 1061.94,-194.087"/>
<polygon fill="midnightblue" stroke="midnightblue" points="1064.27,-196.713 1070.05,-187.834 1059.99,-191.171 1064.27,-196.713"/>
</g>
<!-- Node33 -->
<g id="node33" class="node"><title>Node33</title>
<polygon fill="white" stroke="#bfbfbf" points="1236,-168.5 1236,-187.5 1295,-187.5 1295,-168.5 1236,-168.5"/>
<text text-anchor="middle" x="1265.5" y="-175.5" font-family="Helvetica,sans-Serif" font-size="10.00">functional</text>
</g>
<!-- Node30&#45;&gt;Node33 -->
<g id="edge57" class="edge"><title>Node30&#45;&gt;Node33</title>
<path fill="none" stroke="midnightblue" d="M1053.58,-224.459C1094.84,-216.023 1159.8,-202.585 1225.57,-188.169"/>
<polygon fill="midnightblue" stroke="midnightblue" points="1226.69,-191.508 1235.7,-185.942 1225.19,-184.671 1226.69,-191.508"/>
</g>
<!-- Node34 -->
<g id="node34" class="node"><title>Node34</title>
<polygon fill="white" stroke="#bfbfbf" points="979.5,-168.5 979.5,-187.5 1041.5,-187.5 1041.5,-168.5 979.5,-168.5"/>
<text text-anchor="middle" x="1010.5" y="-175.5" font-family="Helvetica,sans-Serif" font-size="10.00">type_traits</text>
</g>
<!-- Node30&#45;&gt;Node34 -->
<g id="edge58" class="edge"><title>Node30&#45;&gt;Node34</title>
<path fill="none" stroke="midnightblue" d="M1011.33,-224.083C1011.2,-217.006 1011.02,-206.861 1010.85,-197.986"/>
<polygon fill="midnightblue" stroke="midnightblue" points="1014.35,-197.685 1010.66,-187.751 1007.35,-197.814 1014.35,-197.685"/>
</g>
<!-- Node35&#45;&gt;Node5 -->
<g id="edge73" class="edge"><title>Node35&#45;&gt;Node5</title>
<path fill="none" stroke="midnightblue" d="M1096.48,-347.397C1075.5,-339.577 1045.25,-326.852 1021.5,-311 1004.76,-299.829 1005.52,-290.74 988.5,-280 949.741,-255.538 825.935,-211.781 764.608,-190.823"/>
<polygon fill="midnightblue" stroke="midnightblue" points="765.567,-187.452 754.972,-187.542 763.31,-194.078 765.567,-187.452"/>
</g>
<!-- Node35&#45;&gt;Node8 -->
<g id="edge69" class="edge"><title>Node35&#45;&gt;Node8</title>
<path fill="none" stroke="midnightblue" d="M1126.76,-347.373C1136.04,-332.56 1156.43,-301.784 1178.5,-280 1231.82,-227.36 1348.14,-228.902 1304.5,-168 1259.39,-105.053 1215.26,-128.035 1139.5,-112 965.164,-75.1028 750.293,-68.4416 671.408,-67.2526"/>
<polygon fill="midnightblue" stroke="midnightblue" points="671.243,-63.7502 661.198,-67.1186 671.151,-70.7496 671.243,-63.7502"/>
</g>
<!-- Node35&#45;&gt;Node10 -->
<g id="edge72" class="edge"><title>Node35&#45;&gt;Node10</title>
<path fill="none" stroke="midnightblue" d="M1181.67,-356.237C1262.78,-355.125 1400.72,-347.709 1432.5,-311 1476.37,-260.323 1421.74,-175.424 1394.83,-139.672"/>
<polygon fill="midnightblue" stroke="midnightblue" points="1397.55,-137.465 1388.67,-131.692 1392.01,-141.745 1397.55,-137.465"/>
</g>
<!-- Node35&#45;&gt;Node17 -->
<g id="edge64" class="edge"><title>Node35&#45;&gt;Node17</title>
<path fill="none" stroke="midnightblue" d="M1095.3,-366.535C1029.83,-386.207 859.245,-434.737 778.256,-456.781"/>
<polygon fill="midnightblue" stroke="midnightblue" points="777.107,-453.466 768.371,-459.46 778.938,-460.222 777.107,-453.466"/>
</g>
<!-- Node35&#45;&gt;Node24 -->
<g id="edge66" class="edge"><title>Node35&#45;&gt;Node24</title>
<path fill="none" stroke="midnightblue" d="M1120.96,-347.204C1119.04,-323.751 1110.58,-259.125 1074.5,-224 1066.92,-216.618 1009.86,-199.547 971.529,-188.682"/>
<polygon fill="midnightblue" stroke="midnightblue" points="972.323,-185.269 961.749,-185.929 970.427,-192.007 972.323,-185.269"/>
</g>
<!-- Node35&#45;&gt;Node25 -->
<g id="edge71" class="edge"><title>Node35&#45;&gt;Node25</title>
<path fill="none" stroke="midnightblue" d="M1111.45,-347.347C1093.92,-332.496 1056.3,-301.663 1021.5,-280 991.126,-261.094 980.742,-261.434 949.5,-244 919.982,-227.528 886.995,-206.69 866.009,-193.112"/>
<polygon fill="midnightblue" stroke="midnightblue" points="867.822,-190.117 857.531,-187.599 864.006,-195.985 867.822,-190.117"/>
</g>
<!-- Node35&#45;&gt;Node29 -->
<g id="edge74" class="edge"><title>Node35&#45;&gt;Node29</title>
<path fill="none" stroke="midnightblue" d="M1095.14,-347.475C1063.16,-337.136 1009.12,-319.661 973.378,-308.102"/>
<polygon fill="midnightblue" stroke="midnightblue" points="974.406,-304.756 963.814,-305.009 972.252,-311.416 974.406,-304.756"/>
</g>
<!-- Node35&#45;&gt;Node31 -->
<g id="edge65" class="edge"><title>Node35&#45;&gt;Node31</title>
<path fill="none" stroke="midnightblue" d="M1181.16,-347.452C1222.94,-340.104 1273.52,-327.989 1286.5,-311 1294.86,-300.051 1291.68,-292.768 1286.5,-280 1271.2,-242.254 1234.27,-210.839 1210.37,-193.516"/>
<polygon fill="midnightblue" stroke="midnightblue" points="1212.11,-190.465 1201.92,-187.583 1208.09,-196.193 1212.11,-190.465"/>
</g>
<!-- Node35&#45;&gt;Node33 -->
<g id="edge67" class="edge"><title>Node35&#45;&gt;Node33</title>
<path fill="none" stroke="midnightblue" d="M1181.67,-349.016C1228.37,-342.212 1287.59,-330.068 1302.5,-311 1329.63,-276.298 1298.19,-222.78 1278.69,-195.79"/>
<polygon fill="midnightblue" stroke="midnightblue" points="1281.44,-193.618 1272.64,-187.719 1275.84,-197.819 1281.44,-193.618"/>
</g>
<!-- Node36 -->
<g id="node36" class="node"><title>Node36</title>
<polygon fill="white" stroke="#bfbfbf" points="1372,-286 1372,-305 1423,-305 1423,-286 1372,-286"/>
<text text-anchor="middle" x="1397.5" y="-293" font-family="Helvetica,sans-Serif" font-size="10.00">random</text>
</g>
<!-- Node35&#45;&gt;Node36 -->
<g id="edge68" class="edge"><title>Node35&#45;&gt;Node36</title>
<path fill="none" stroke="midnightblue" d="M1180.29,-347.462C1228.4,-339.837 1297.97,-327.352 1357.5,-311 1360.3,-310.23 1363.19,-309.353 1366.07,-308.421"/>
<polygon fill="midnightblue" stroke="midnightblue" points="1367.38,-311.674 1375.7,-305.115 1365.1,-305.054 1367.38,-311.674"/>
</g>
<!-- Node37 -->
<g id="node37" class="node"><title>Node37</title>
<polygon fill="white" stroke="#bfbfbf" points="1187.5,-286 1187.5,-305 1277.5,-305 1277.5,-286 1187.5,-286"/>
<text text-anchor="middle" x="1232.5" y="-293" font-family="Helvetica,sans-Serif" font-size="10.00">boost/format.hpp</text>
</g>
<!-- Node35&#45;&gt;Node37 -->
<g id="edge70" class="edge"><title>Node35&#45;&gt;Node37</title>
<path fill="none" stroke="midnightblue" d="M1137.4,-347.475C1155.78,-337.622 1186.26,-321.288 1207.74,-309.77"/>
<polygon fill="midnightblue" stroke="midnightblue" points="1209.47,-312.818 1216.63,-305.009 1206.16,-306.649 1209.47,-312.818"/>
</g>
</g>
</svg>
        <g id="navigator" transform="translate(0 0)" fill="#404254">
                <rect fill="#f2f5e9" fill-opacity="0.5" stroke="#606060" stroke-width=".5" x="0" y="0" width="60" height="60"/>
                <use id="zoomplus" xlink:href="#zoomPlus" x="17" y="9" onmousedown="handleZoom(evt,'in')"/>
                <use id="zoomminus" xlink:href="#zoomMin" x="42" y="9" onmousedown="handleZoom(evt,'out')"/>
                <use id="reset" xlink:href="#resetDef" x="30" y="36" onmousedown="handleReset()"/>
                <g id="arrowUp" xlink:href="#dirArrow" transform="translate(30 24)" onmousedown="handlePan(0,-1)">
                  <use xlink:href="#rim" fill="#404040">
                        <set attributeName="fill" to="#808080" begin="arrowUp.mouseover" end="arrowUp.mouseout"/>
                  </use>
                  <path fill="none" stroke="white" stroke-width="1.5" d="M0,-3.0v7 M-2.5,-0.5L0,-3.0L2.5,-0.5"/>
                </g>
                <g id="arrowRight" xlink:href="#dirArrow" transform="rotate(90) translate(36 -43)" onmousedown="handlePan(1,0)">
                  <use xlink:href="#rim" fill="#404040">
                        <set attributeName="fill" to="#808080" begin="arrowRight.mouseover" end="arrowRight.mouseout"/>
                  </use>
                  <path fill="none" stroke="white" stroke-width="1.5" d="M0,-3.0v7 M-2.5,-0.5L0,-3.0L2.5,-0.5"/>
                </g>
                <g id="arrowDown" xlink:href="#dirArrow" transform="rotate(180) translate(-30 -48)" onmousedown="handlePan(0,1)">
                  <use xlink:href="#rim" fill="#404040">
                        <set attributeName="fill" to="#808080" begin="arrowDown.mouseover" end="arrowDown.mouseout"/>
                  </use>
                  <path fill="none" stroke="white" stroke-width="1.5" d="M0,-3.0v7 M-2.5,-0.5L0,-3.0L2.5,-0.5"/>
                </g>
                <g id="arrowLeft" xlink:href="#dirArrow" transform="rotate(270) translate(-36 17)" onmousedown="handlePan(-1,0)">
                  <use xlink:href="#rim" fill="#404040">
                        <set attributeName="fill" to="#808080" begin="arrowLeft.mouseover" end="arrowLeft.mouseout"/>
                  </use>
                  <path fill="none" stroke="white" stroke-width="1.5" d="M0,-3.0v7 M-2.5,-0.5L0,-3.0L2.5,-0.5"/>
                </g>
        </g>
        <svg viewBox="0 0 15 15" width="100%" height="30px" preserveAspectRatio="xMaxYMin meet">
         <g id="arrow_out" transform="scale(0.3 0.3)">
          <a xlink:href="wrapper__interface_8hpp__incl_org.svg" target="_base">
           <rect id="button" ry="5" rx="5" y="6" x="6" height="38" width="38"
                fill="#f2f5e9" fill-opacity="0.5" stroke="#606060" stroke-width="1.0"/>
           <path id="arrow"
             d="M 11.500037,31.436501 C 11.940474,20.09759 22.043105,11.32322 32.158766,21.979434 L 37.068811,17.246167 C 37.068811,17.246167 37.088388,32 37.088388,32 L 22.160133,31.978069 C 22.160133,31.978069 26.997745,27.140456 26.997745,27.140456 C 18.528582,18.264221 13.291696,25.230495 11.500037,31.436501 z"
             style="fill:#404040;"/>
          </a>
         </g>
        </svg>
</svg>
