<?xml version="1.0" encoding="UTF-8" standalone="no"?>
<!DOCTYPE svg PUBLIC "-//W3C//DTD SVG 1.1//EN"
 "http://www.w3.org/Graphics/SVG/1.1/DTD/svg11.dtd">
<!-- Generated by graphviz version 2.38.0 (20140413.2041)
 -->
<!-- Title: include/pfasst/controller/interface.hpp Pages: 1 -->
<!--zoomable 386 -->
<svg id="main" version="1.1" xmlns="http://www.w3.org/2000/svg" xmlns:xlink="http://www.w3.org/1999/xlink" xml:space="preserve" onload="init(evt)">
<style type="text/css"><![CDATA[
.edge:hover path { stroke: red; }
.edge:hover polygon { stroke: red; fill: red; }
]]></style>
<script type="text/javascript"><![CDATA[
var edges = document.getElementsByTagName('g');
if (edges && edges.length) {
  for (var i=0;i<edges.length;i++) {
    if (edges[i].id.substr(0,4)=='edge') {
      edges[i].setAttribute('class','edge');
    }
  }
}
]]></script>
        <defs>
                <circle id="rim" cx="0" cy="0" r="7"/>
                <circle id="rim2" cx="0" cy="0" r="3.5"/>
                <g id="zoomPlus">
                        <use xlink:href="#rim" fill="#404040">
                                <set attributeName="fill" to="#808080" begin="zoomplus.mouseover" end="zoomplus.mouseout"/>
                        </use>
                        <path d="M-4,0h8M0,-4v8" fill="none" stroke="white" stroke-width="1.5" pointer-events="none"/>
                </g>
                <g id="zoomMin">
                        <use xlink:href="#rim" fill="#404040">
                                <set attributeName="fill" to="#808080" begin="zoomminus.mouseover" end="zoomminus.mouseout"/>
                        </use>
                        <path d="M-4,0h8" fill="none" stroke="white" stroke-width="1.5" pointer-events="none"/>
                </g>
                <g id="dirArrow">
                        <path fill="none" stroke="white" stroke-width="1.5" d="M0,-3.0v7 M-2.5,-0.5L0,-3.0L2.5,-0.5"/>
                </g>
               <g id="resetDef">
                       <use xlink:href="#rim2" fill="#404040">
                               <set attributeName="fill" to="#808080" begin="reset.mouseover" end="reset.mouseout"/>
                       </use>
               </g>
        </defs>

<script type="text/javascript">
var viewWidth = 974;
var viewHeight = 386;
var sectionId = 'dynsection-0';
</script>
<script xlink:href="../../svgpan.js"/>
<svg id="graph" class="graph">
<g id="viewport">
<title>include/pfasst/controller/interface.hpp</title>
<polygon fill="white" stroke="none" points="-4,4 -4,-382 969.5,-382 969.5,4 -4,4"/>
<!-- Node1 -->
<g id="node1" class="node"><title>Node1</title>
<polygon fill="#bfbfbf" stroke="black" points="298,-347.5 298,-377.5 420,-377.5 420,-347.5 298,-347.5"/>
<text text-anchor="start" x="306" y="-365.5" font-family="Helvetica,sans-Serif" font-size="10.00">include/pfasst/controller</text>
<text text-anchor="middle" x="359" y="-354.5" font-family="Helvetica,sans-Serif" font-size="10.00">/interface.hpp</text>
</g>
<!-- Node2 -->
<g id="node2" class="node"><title>Node2</title>
<polygon fill="white" stroke="#bfbfbf" points="0,-168.5 0,-187.5 50,-187.5 50,-168.5 0,-168.5"/>
<text text-anchor="middle" x="25" y="-175.5" font-family="Helvetica,sans-Serif" font-size="10.00">cassert</text>
</g>
<!-- Node1&#45;&gt;Node2 -->
<g id="edge1" class="edge"><title>Node1&#45;&gt;Node2</title>
<path fill="none" stroke="midnightblue" d="M297.741,-355.311C231.982,-347.662 132.799,-332.912 102,-311 62.1287,-282.633 39.7409,-226.625 30.34,-197.528"/>
<polygon fill="midnightblue" stroke="midnightblue" points="33.6382,-196.345 27.3636,-187.808 26.945,-198.394 33.6382,-196.345"/>
</g>
<!-- Node3 -->
<g id="node3" class="node"><title>Node3</title>
<polygon fill="white" stroke="#bfbfbf" points="441,-286 441,-305 487,-305 487,-286 441,-286"/>
<text text-anchor="middle" x="464" y="-293" font-family="Helvetica,sans-Serif" font-size="10.00">deque</text>
</g>
<!-- Node1&#45;&gt;Node3 -->
<g id="edge2" class="edge"><title>Node1&#45;&gt;Node3</title>
<path fill="none" stroke="midnightblue" d="M381.783,-347.396C399.555,-336.395 424.1,-321.2 441.737,-310.282"/>
<polygon fill="midnightblue" stroke="midnightblue" points="443.598,-313.247 450.258,-305.007 439.913,-307.295 443.598,-313.247"/>
</g>
<!-- Node4 -->
<g id="node4" class="node"><title>Node4</title>
<polygon fill="white" stroke="#bfbfbf" points="505.5,-286 505.5,-305 552.5,-305 552.5,-286 505.5,-286"/>
<text text-anchor="middle" x="529" y="-293" font-family="Helvetica,sans-Serif" font-size="10.00">iterator</text>
</g>
<!-- Node1&#45;&gt;Node4 -->
<g id="edge3" class="edge"><title>Node1&#45;&gt;Node4</title>
<path fill="none" stroke="midnightblue" d="M399.111,-347.441C426.554,-337.645 463.678,-324.044 496,-311 497.415,-310.429 498.859,-309.836 500.314,-309.229"/>
<polygon fill="midnightblue" stroke="midnightblue" points="502.072,-312.284 509.889,-305.133 499.318,-305.848 502.072,-312.284"/>
</g>
<!-- Node5 -->
<g id="node5" class="node"><title>Node5</title>
<polygon fill="white" stroke="#bfbfbf" points="69.5,-168.5 69.5,-187.5 122.5,-187.5 122.5,-168.5 69.5,-168.5"/>
<text text-anchor="middle" x="96" y="-175.5" font-family="Helvetica,sans-Serif" font-size="10.00">memory</text>
</g>
<!-- Node1&#45;&gt;Node5 -->
<g id="edge4" class="edge"><title>Node1&#45;&gt;Node5</title>
<path fill="none" stroke="midnightblue" d="M297.756,-353.16C257.078,-345.921 203.382,-333.026 160,-311 118.342,-289.85 98.8936,-286.272 79,-244 71.806,-228.713 78.1948,-209.917 85.0992,-196.476"/>
<polygon fill="midnightblue" stroke="midnightblue" points="88.1513,-198.189 90.0309,-187.762 82.0593,-194.741 88.1513,-198.189"/>
</g>
<!-- Node6 -->
<g id="node6" class="node"><title>Node6</title>
<g id="a_node6"><a xlink:href="../../d1/d1b/interfaces_8hpp.html" target="_top" xlink:title="interfaces for SDC/MLSDC/PFASST algorithms. ">
<polygon fill="white" stroke="black" points="169.5,-286 169.5,-305 276.5,-305 276.5,-286 169.5,-286"/>
<text text-anchor="middle" x="223" y="-293" font-family="Helvetica,sans-Serif" font-size="10.00">pfasst/interfaces.hpp</text>
</a>
</g>
</g>
<!-- Node1&#45;&gt;Node6 -->
<g id="edge5" class="edge"><title>Node1&#45;&gt;Node6</title>
<path fill="none" stroke="midnightblue" d="M329.49,-347.396C305.838,-336.092 272.924,-320.361 249.97,-309.39"/>
<polygon fill="midnightblue" stroke="midnightblue" points="251.331,-306.161 240.799,-305.007 248.312,-312.477 251.331,-306.161"/>
</g>
<!-- Node23 -->
<g id="node23" class="node"><title>Node23</title>
<g id="a_node23"><a xlink:href="../../d2/dbc/controller_2interface__impl_8hpp.html" target="_top" xlink:title="pfasst/controller/interface\l_impl.hpp">
<polygon fill="white" stroke="black" points="295,-280.5 295,-310.5 423,-310.5 423,-280.5 295,-280.5"/>
<text text-anchor="start" x="303" y="-298.5" font-family="Helvetica,sans-Serif" font-size="10.00">pfasst/controller/interface</text>
<text text-anchor="middle" x="359" y="-287.5" font-family="Helvetica,sans-Serif" font-size="10.00">_impl.hpp</text>
</a>
</g>
</g>
<!-- Node1&#45;&gt;Node23 -->
<g id="edge32" class="edge"><title>Node1&#45;&gt;Node23</title>
<path fill="none" stroke="midnightblue" d="M353.322,-347.396C352.294,-339.56 352.005,-329.596 352.456,-320.565"/>
<polygon fill="midnightblue" stroke="midnightblue" points="355.945,-320.842 353.325,-310.577 348.972,-320.236 355.945,-320.842"/>
</g>
<!-- Node6&#45;&gt;Node5 -->
<g id="edge6" class="edge"><title>Node6&#45;&gt;Node5</title>
<path fill="none" stroke="midnightblue" d="M215.745,-285.772C204.062,-271.953 180.051,-244.503 157,-224 144.619,-212.988 129.662,-201.923 117.657,-193.52"/>
<polygon fill="midnightblue" stroke="midnightblue" points="119.365,-190.447 109.143,-187.659 115.395,-196.213 119.365,-190.447"/>
</g>
<!-- Node7 -->
<g id="node7" class="node"><title>Node7</title>
<polygon fill="white" stroke="#bfbfbf" points="88,-224.5 88,-243.5 148,-243.5 148,-224.5 88,-224.5"/>
<text text-anchor="middle" x="118" y="-231.5" font-family="Helvetica,sans-Serif" font-size="10.00">stdexcept</text>
</g>
<!-- Node6&#45;&gt;Node7 -->
<g id="edge7" class="edge"><title>Node6&#45;&gt;Node7</title>
<path fill="none" stroke="midnightblue" d="M207.956,-285.975C190.725,-276.211 162.26,-260.081 141.966,-248.581"/>
<polygon fill="midnightblue" stroke="midnightblue" points="143.442,-245.394 133.016,-243.509 139.991,-251.484 143.442,-245.394"/>
</g>
<!-- Node8 -->
<g id="node8" class="node"><title>Node8</title>
<polygon fill="white" stroke="#bfbfbf" points="319.5,-56.5 319.5,-75.5 360.5,-75.5 360.5,-56.5 319.5,-56.5"/>
<text text-anchor="middle" x="340" y="-63.5" font-family="Helvetica,sans-Serif" font-size="10.00">string</text>
</g>
<!-- Node6&#45;&gt;Node8 -->
<g id="edge8" class="edge"><title>Node6&#45;&gt;Node8</title>
<path fill="none" stroke="midnightblue" d="M250.207,-285.944C325.19,-261.75 531.67,-190.783 568,-132 572.673,-124.439 573.644,-118.867 568,-112 543.391,-82.0588 427.31,-71.7134 370.909,-68.4146"/>
<polygon fill="midnightblue" stroke="midnightblue" points="370.965,-64.9125 360.789,-67.8613 370.583,-71.9021 370.965,-64.9125"/>
</g>
<!-- Node9 -->
<g id="node9" class="node"><title>Node9</title>
<g id="a_node9"><a xlink:href="../../d8/dc4/interfaces__impl_8hpp.html" target="_top" xlink:title="pfasst/interfaces_impl.hpp">
<polygon fill="white" stroke="black" points="204.5,-224.5 204.5,-243.5 335.5,-243.5 335.5,-224.5 204.5,-224.5"/>
<text text-anchor="middle" x="270" y="-231.5" font-family="Helvetica,sans-Serif" font-size="10.00">pfasst/interfaces_impl.hpp</text>
</a>
</g>
</g>
<!-- Node6&#45;&gt;Node9 -->
<g id="edge9" class="edge"><title>Node6&#45;&gt;Node9</title>
<path fill="none" stroke="midnightblue" d="M224.833,-285.975C230.038,-276.873 241.209,-262.241 251.313,-250.983"/>
<polygon fill="midnightblue" stroke="midnightblue" points="254.053,-253.18 258.381,-243.509 248.967,-248.37 254.053,-253.18"/>
</g>
<!-- Node9&#45;&gt;Node2 -->
<g id="edge11" class="edge"><title>Node9&#45;&gt;Node2</title>
<path fill="none" stroke="midnightblue" d="M227.653,-224.452C185.16,-215.751 117.886,-201.639 60,-188 59.9008,-187.977 59.8014,-187.953 59.7018,-187.93"/>
<polygon fill="midnightblue" stroke="midnightblue" points="60.7496,-184.583 50.2048,-185.611 59.0896,-191.383 60.7496,-184.583"/>
</g>
<!-- Node9&#45;&gt;Node5 -->
<g id="edge12" class="edge"><title>Node9&#45;&gt;Node5</title>
<path fill="none" stroke="midnightblue" d="M242.429,-224.444C212.642,-215.199 165.051,-200.43 132.253,-190.251"/>
<polygon fill="midnightblue" stroke="midnightblue" points="133.174,-186.872 122.586,-187.251 131.099,-193.558 133.174,-186.872"/>
</g>
<!-- Node9&#45;&gt;Node6 -->
<g id="edge10" class="edge"><title>Node9&#45;&gt;Node6</title>
<path fill="none" stroke="midnightblue" d="M268.176,-243.509C262.978,-252.604 251.81,-267.236 241.704,-278.497"/>
<polygon fill="midnightblue" stroke="midnightblue" points="238.961,-276.304 234.635,-285.975 244.048,-281.113 238.961,-276.304"/>
</g>
<!-- Node9&#45;&gt;Node8 -->
<g id="edge13" class="edge"><title>Node9&#45;&gt;Node8</title>
<path fill="none" stroke="midnightblue" d="M253.154,-224.437C239.695,-216.721 221.417,-204.122 211,-188 192.402,-159.217 177.757,-139.65 198,-112 223.364,-77.3548 275.557,-68.7203 309.11,-66.9302"/>
<polygon fill="midnightblue" stroke="midnightblue" points="309.423,-70.4213 319.291,-66.5652 309.172,-63.4258 309.423,-70.4213"/>
</g>
<!-- Node10 -->
<g id="node10" class="node"><title>Node10</title>
<g id="a_node10"><a xlink:href="../../d5/d82/globals_8hpp.html" target="_top" xlink:title="pfasst/globals.hpp">
<polygon fill="white" stroke="black" points="220.5,-168.5 220.5,-187.5 317.5,-187.5 317.5,-168.5 220.5,-168.5"/>
<text text-anchor="middle" x="269" y="-175.5" font-family="Helvetica,sans-Serif" font-size="10.00">pfasst/globals.hpp</text>
</a>
</g>
</g>
<!-- Node9&#45;&gt;Node10 -->
<g id="edge14" class="edge"><title>Node9&#45;&gt;Node10</title>
<path fill="none" stroke="midnightblue" d="M269.835,-224.083C269.704,-217.006 269.516,-206.861 269.352,-197.986"/>
<polygon fill="midnightblue" stroke="midnightblue" points="272.847,-197.685 269.162,-187.751 265.848,-197.814 272.847,-197.685"/>
</g>
<!-- Node11 -->
<g id="node11" class="node"><title>Node11</title>
<g id="a_node11"><a xlink:href="../../d0/da9/logging_8hpp.html" target="_top" xlink:title="pfasst/logging.hpp">
<polygon fill="white" stroke="black" points="335,-168.5 335,-187.5 433,-187.5 433,-168.5 335,-168.5"/>
<text text-anchor="middle" x="384" y="-175.5" font-family="Helvetica,sans-Serif" font-size="10.00">pfasst/logging.hpp</text>
</a>
</g>
</g>
<!-- Node9&#45;&gt;Node11 -->
<g id="edge15" class="edge"><title>Node9&#45;&gt;Node11</title>
<path fill="none" stroke="midnightblue" d="M288.064,-224.444C306.575,-215.675 335.581,-201.935 356.855,-191.858"/>
<polygon fill="midnightblue" stroke="midnightblue" points="358.482,-194.96 366.021,-187.516 355.485,-188.634 358.482,-194.96"/>
</g>
<!-- Node11&#45;&gt;Node8 -->
<g id="edge18" class="edge"><title>Node11&#45;&gt;Node8</title>
<path fill="none" stroke="midnightblue" d="M338.787,-168.412C289.382,-158.573 216.124,-142.462 208,-132 178.87,-94.4849 261.69,-77.1756 309.205,-70.5111"/>
<polygon fill="midnightblue" stroke="midnightblue" points="309.86,-73.9552 319.316,-69.1775 308.944,-67.0153 309.86,-73.9552"/>
</g>
<!-- Node12 -->
<g id="node12" class="node"><title>Node12</title>
<polygon fill="white" stroke="#bfbfbf" points="357,-112.5 357,-131.5 409,-131.5 409,-112.5 357,-112.5"/>
<text text-anchor="middle" x="383" y="-119.5" font-family="Helvetica,sans-Serif" font-size="10.00">iomanip</text>
</g>
<!-- Node11&#45;&gt;Node12 -->
<g id="edge16" class="edge"><title>Node11&#45;&gt;Node12</title>
<path fill="none" stroke="midnightblue" d="M383.835,-168.083C383.704,-161.006 383.516,-150.861 383.352,-141.986"/>
<polygon fill="midnightblue" stroke="midnightblue" points="386.847,-141.685 383.162,-131.751 379.848,-141.814 386.847,-141.685"/>
</g>
<!-- Node13 -->
<g id="node13" class="node"><title>Node13</title>
<polygon fill="white" stroke="#bfbfbf" points="530,-56.5 530,-75.5 586,-75.5 586,-56.5 530,-56.5"/>
<text text-anchor="middle" x="558" y="-63.5" font-family="Helvetica,sans-Serif" font-size="10.00">iostream</text>
</g>
<!-- Node11&#45;&gt;Node13 -->
<g id="edge17" class="edge"><title>Node11&#45;&gt;Node13</title>
<path fill="none" stroke="midnightblue" d="M433.103,-171.788C481.81,-165.485 551.502,-153.019 568,-132 578.438,-118.702 573.457,-99.0431 567.401,-84.8296"/>
<polygon fill="midnightblue" stroke="midnightblue" points="570.469,-83.1318 563.006,-75.6111 564.15,-86.144 570.469,-83.1318"/>
</g>
<!-- Node14 -->
<g id="node14" class="node"><title>Node14</title>
<polygon fill="white" stroke="#bfbfbf" points="427.5,-112.5 427.5,-131.5 558.5,-131.5 558.5,-112.5 427.5,-112.5"/>
<text text-anchor="middle" x="493" y="-119.5" font-family="Helvetica,sans-Serif" font-size="10.00">boost/algorithm/string.hpp</text>
</g>
<!-- Node11&#45;&gt;Node14 -->
<g id="edge19" class="edge"><title>Node11&#45;&gt;Node14</title>
<path fill="none" stroke="midnightblue" d="M401.513,-168.324C419.072,-159.625 446.331,-146.12 466.531,-136.113"/>
<polygon fill="midnightblue" stroke="midnightblue" points="468.124,-139.23 475.531,-131.655 465.016,-132.958 468.124,-139.23"/>
</g>
<!-- Node15 -->
<g id="node15" class="node"><title>Node15</title>
<g id="a_node15"><a xlink:href="../../d8/dfd/config_8hpp.html" target="_top" xlink:title="pfasst/config.hpp">
<polygon fill="white" stroke="black" points="653.5,-112.5 653.5,-131.5 744.5,-131.5 744.5,-112.5 653.5,-112.5"/>
<text text-anchor="middle" x="699" y="-119.5" font-family="Helvetica,sans-Serif" font-size="10.00">pfasst/config.hpp</text>
</a>
</g>
</g>
<!-- Node11&#45;&gt;Node15 -->
<g id="edge20" class="edge"><title>Node11&#45;&gt;Node15</title>
<path fill="none" stroke="midnightblue" d="M433.219,-168.562C490.224,-158.79 583.907,-142.73 643.468,-132.52"/>
<polygon fill="midnightblue" stroke="midnightblue" points="644.184,-135.948 653.449,-130.809 643.001,-129.049 644.184,-135.948"/>
</g>
<!-- Node22 -->
<g id="node22" class="node"><title>Node22</title>
<polygon fill="white" stroke="#bfbfbf" points="217,-112.5 217,-131.5 339,-131.5 339,-112.5 217,-112.5"/>
<text text-anchor="middle" x="278" y="-119.5" font-family="Helvetica,sans-Serif" font-size="10.00">pfasst/easylogging++.h</text>
</g>
<!-- Node11&#45;&gt;Node22 -->
<g id="edge31" class="edge"><title>Node11&#45;&gt;Node22</title>
<path fill="none" stroke="midnightblue" d="M366.969,-168.324C349.97,-159.664 323.624,-146.242 304.007,-136.249"/>
<polygon fill="midnightblue" stroke="midnightblue" points="305.488,-133.075 294.988,-131.655 302.31,-139.312 305.488,-133.075"/>
</g>
<!-- Node15&#45;&gt;Node8 -->
<g id="edge23" class="edge"><title>Node15&#45;&gt;Node8</title>
<path fill="none" stroke="midnightblue" d="M653.168,-114.106C578.833,-102.925 433.94,-81.1303 370.728,-71.6221"/>
<polygon fill="midnightblue" stroke="midnightblue" points="371.017,-68.1261 360.607,-70.0997 369.975,-75.0483 371.017,-68.1261"/>
</g>
<!-- Node15&#45;&gt;Node13 -->
<g id="edge22" class="edge"><title>Node15&#45;&gt;Node13</title>
<path fill="none" stroke="midnightblue" d="M676.658,-112.444C653.247,-103.478 616.264,-89.314 589.81,-79.1827"/>
<polygon fill="midnightblue" stroke="midnightblue" points="590.828,-75.8245 580.237,-75.5164 588.324,-82.3615 590.828,-75.8245"/>
</g>
<!-- Node16 -->
<g id="node16" class="node"><title>Node16</title>
<polygon fill="white" stroke="#bfbfbf" points="593,-0.5 593,-19.5 643,-19.5 643,-0.5 593,-0.5"/>
<text text-anchor="middle" x="618" y="-7.5" font-family="Helvetica,sans-Serif" font-size="10.00">fstream</text>
</g>
<!-- Node15&#45;&gt;Node16 -->
<g id="edge21" class="edge"><title>Node15&#45;&gt;Node16</title>
<path fill="none" stroke="midnightblue" d="M679.244,-112.474C664.286,-105.002 644.426,-92.7158 633,-76 623.708,-62.4052 620.11,-43.8601 618.748,-30.0576"/>
<polygon fill="midnightblue" stroke="midnightblue" points="622.221,-29.5327 618.054,-19.7917 615.237,-30.0051 622.221,-29.5327"/>
</g>
<!-- Node17 -->
<g id="node17" class="node"><title>Node17</title>
<polygon fill="white" stroke="#bfbfbf" points="774,-56.5 774,-75.5 810,-75.5 810,-56.5 774,-56.5"/>
<text text-anchor="middle" x="792" y="-63.5" font-family="Helvetica,sans-Serif" font-size="10.00">map</text>
</g>
<!-- Node15&#45;&gt;Node17 -->
<g id="edge24" class="edge"><title>Node15&#45;&gt;Node17</title>
<path fill="none" stroke="midnightblue" d="M713.942,-112.324C728.585,-103.822 751.134,-90.7288 768.238,-80.7975"/>
<polygon fill="midnightblue" stroke="midnightblue" points="770.205,-83.7027 777.095,-75.6545 766.69,-77.6491 770.205,-83.7027"/>
</g>
<!-- Node18 -->
<g id="node18" class="node"><title>Node18</title>
<polygon fill="white" stroke="#bfbfbf" points="828.5,-56.5 828.5,-75.5 965.5,-75.5 965.5,-56.5 828.5,-56.5"/>
<text text-anchor="middle" x="897" y="-63.5" font-family="Helvetica,sans-Serif" font-size="10.00">boost/program_options.hpp</text>
</g>
<!-- Node15&#45;&gt;Node18 -->
<g id="edge25" class="edge"><title>Node15&#45;&gt;Node18</title>
<path fill="none" stroke="midnightblue" d="M730.374,-112.444C764.263,-103.201 818.403,-88.4356 855.724,-78.2572"/>
<polygon fill="midnightblue" stroke="midnightblue" points="857.046,-81.5243 865.773,-75.5164 855.205,-74.771 857.046,-81.5243"/>
</g>
<!-- Node19 -->
<g id="node19" class="node"><title>Node19</title>
<g id="a_node19"><a xlink:href="../../d5/d84/config__impl_8hpp.html" target="_top" xlink:title="pfasst/config_impl.hpp">
<polygon fill="white" stroke="black" points="642,-56.5 642,-75.5 756,-75.5 756,-56.5 642,-56.5"/>
<text text-anchor="middle" x="699" y="-63.5" font-family="Helvetica,sans-Serif" font-size="10.00">pfasst/config_impl.hpp</text>
</a>
</g>
</g>
<!-- Node15&#45;&gt;Node19 -->
<g id="edge26" class="edge"><title>Node15&#45;&gt;Node19</title>
<path fill="none" stroke="midnightblue" d="M693.834,-112.083C692.324,-104.927 691.894,-94.6353 692.542,-85.6911"/>
<polygon fill="midnightblue" stroke="midnightblue" points="696.015,-86.1262 693.869,-75.7511 689.077,-85.2002 696.015,-86.1262"/>
</g>
<!-- Node19&#45;&gt;Node15 -->
<g id="edge27" class="edge"><title>Node19&#45;&gt;Node15</title>
<path fill="none" stroke="midnightblue" d="M704.131,-75.7511C705.657,-82.8579 706.104,-93.1357 705.472,-102.101"/>
<polygon fill="midnightblue" stroke="midnightblue" points="701.993,-101.713 704.166,-112.083 708.934,-102.622 701.993,-101.713"/>
</g>
<!-- Node19&#45;&gt;Node16 -->
<g id="edge28" class="edge"><title>Node19&#45;&gt;Node16</title>
<path fill="none" stroke="midnightblue" d="M685.986,-56.324C673.468,-47.979 654.318,-35.2122 639.529,-25.3524"/>
<polygon fill="midnightblue" stroke="midnightblue" points="641.244,-22.2894 630.982,-19.6545 637.361,-28.1137 641.244,-22.2894"/>
</g>
<!-- Node20 -->
<g id="node20" class="node"><title>Node20</title>
<polygon fill="white" stroke="#bfbfbf" points="668.5,-0.5 668.5,-19.5 721.5,-19.5 721.5,-0.5 668.5,-0.5"/>
<text text-anchor="middle" x="695" y="-7.5" font-family="Helvetica,sans-Serif" font-size="10.00">sstream</text>
</g>
<!-- Node19&#45;&gt;Node20 -->
<g id="edge29" class="edge"><title>Node19&#45;&gt;Node20</title>
<path fill="none" stroke="midnightblue" d="M698.339,-56.083C697.815,-49.0059 697.064,-38.8611 696.406,-29.9865"/>
<polygon fill="midnightblue" stroke="midnightblue" points="699.877,-29.4652 695.648,-19.7511 692.897,-29.9823 699.877,-29.4652"/>
</g>
<!-- Node21 -->
<g id="node21" class="node"><title>Node21</title>
<polygon fill="white" stroke="#bfbfbf" points="740,-0.5 740,-19.5 778,-19.5 778,-0.5 740,-0.5"/>
<text text-anchor="middle" x="759" y="-7.5" font-family="Helvetica,sans-Serif" font-size="10.00">utility</text>
</g>
<!-- Node19&#45;&gt;Node21 -->
<g id="edge30" class="edge"><title>Node19&#45;&gt;Node21</title>
<path fill="none" stroke="midnightblue" d="M708.64,-56.324C717.51,-48.3414 730.875,-36.3128 741.608,-26.6529"/>
<polygon fill="midnightblue" stroke="midnightblue" points="744.093,-29.1251 749.185,-19.8339 739.41,-23.922 744.093,-29.1251"/>
</g>
<!-- Node23&#45;&gt;Node1 -->
<g id="edge33" class="edge"><title>Node23&#45;&gt;Node1</title>
<path fill="none" stroke="midnightblue" d="M364.675,-310.577C365.704,-318.408 365.995,-328.37 365.545,-337.403"/>
<polygon fill="midnightblue" stroke="midnightblue" points="362.056,-337.131 364.678,-347.396 369.03,-337.736 362.056,-337.131"/>
</g>
<!-- Node23&#45;&gt;Node15 -->
<g id="edge34" class="edge"><title>Node23&#45;&gt;Node15</title>
<path fill="none" stroke="midnightblue" d="M423.077,-281.682C426.092,-281.108 429.078,-280.544 432,-280 523.802,-262.902 564.174,-299.866 639,-244 673.018,-218.602 688.93,-168.606 695.33,-141.509"/>
<polygon fill="midnightblue" stroke="midnightblue" points="698.75,-142.253 697.457,-131.737 691.911,-140.764 698.75,-142.253"/>
</g>
</g>
</svg>
        <g id="navigator" transform="translate(0 0)" fill="#404254">
                <rect fill="#f2f5e9" fill-opacity="0.5" stroke="#606060" stroke-width=".5" x="0" y="0" width="60" height="60"/>
                <use id="zoomplus" xlink:href="#zoomPlus" x="17" y="9" onmousedown="handleZoom(evt,'in')"/>
                <use id="zoomminus" xlink:href="#zoomMin" x="42" y="9" onmousedown="handleZoom(evt,'out')"/>
                <use id="reset" xlink:href="#resetDef" x="30" y="36" onmousedown="handleReset()"/>
                <g id="arrowUp" xlink:href="#dirArrow" transform="translate(30 24)" onmousedown="handlePan(0,-1)">
                  <use xlink:href="#rim" fill="#404040">
                        <set attributeName="fill" to="#808080" begin="arrowUp.mouseover" end="arrowUp.mouseout"/>
                  </use>
                  <path fill="none" stroke="white" stroke-width="1.5" d="M0,-3.0v7 M-2.5,-0.5L0,-3.0L2.5,-0.5"/>
                </g>
                <g id="arrowRight" xlink:href="#dirArrow" transform="rotate(90) translate(36 -43)" onmousedown="handlePan(1,0)">
                  <use xlink:href="#rim" fill="#404040">
                        <set attributeName="fill" to="#808080" begin="arrowRight.mouseover" end="arrowRight.mouseout"/>
                  </use>
                  <path fill="none" stroke="white" stroke-width="1.5" d="M0,-3.0v7 M-2.5,-0.5L0,-3.0L2.5,-0.5"/>
                </g>
                <g id="arrowDown" xlink:href="#dirArrow" transform="rotate(180) translate(-30 -48)" onmousedown="handlePan(0,1)">
                  <use xlink:href="#rim" fill="#404040">
                        <set attributeName="fill" to="#808080" begin="arrowDown.mouseover" end="arrowDown.mouseout"/>
                  </use>
                  <path fill="none" stroke="white" stroke-width="1.5" d="M0,-3.0v7 M-2.5,-0.5L0,-3.0L2.5,-0.5"/>
                </g>
                <g id="arrowLeft" xlink:href="#dirArrow" transform="rotate(270) translate(-36 17)" onmousedown="handlePan(-1,0)">
                  <use xlink:href="#rim" fill="#404040">
                        <set attributeName="fill" to="#808080" begin="arrowLeft.mouseover" end="arrowLeft.mouseout"/>
                  </use>
                  <path fill="none" stroke="white" stroke-width="1.5" d="M0,-3.0v7 M-2.5,-0.5L0,-3.0L2.5,-0.5"/>
                </g>
        </g>
        <svg viewBox="0 0 15 15" width="100%" height="30px" preserveAspectRatio="xMaxYMin meet">
         <g id="arrow_out" transform="scale(0.3 0.3)">
          <a xlink:href="controller_2interface_8hpp__incl_org.svg" target="_base">
           <rect id="button" ry="5" rx="5" y="6" x="6" height="38" width="38"
                fill="#f2f5e9" fill-opacity="0.5" stroke="#606060" stroke-width="1.0"/>
           <path id="arrow"
             d="M 11.500037,31.436501 C 11.940474,20.09759 22.043105,11.32322 32.158766,21.979434 L 37.068811,17.246167 C 37.068811,17.246167 37.088388,32 37.088388,32 L 22.160133,31.978069 C 22.160133,31.978069 26.997745,27.140456 26.997745,27.140456 C 18.528582,18.264221 13.291696,25.230495 11.500037,31.436501 z"
             style="fill:#404040;"/>
          </a>
         </g>
        </svg>
</svg>
