<?xml version="1.0" encoding="UTF-8" standalone="no"?>
<!DOCTYPE svg PUBLIC "-//W3C//DTD SVG 1.1//EN"
 "http://www.w3.org/Graphics/SVG/1.1/DTD/svg11.dtd">
<!-- Generated by graphviz version 2.38.0 (20140413.2041)
 -->
<!-- Title: pfasst::quadrature::GaussLegendre::compute_nodes Pages: 1 -->
<svg width="394pt" height="39pt"
 viewBox="0.00 0.00 394.00 39.00" xmlns="http://www.w3.org/2000/svg" xmlns:xlink="http://www.w3.org/1999/xlink">
<g id="graph0" class="graph" transform="scale(1 1) rotate(0) translate(4 35)">
<title>pfasst::quadrature::GaussLegendre::compute_nodes</title>
<polygon fill="white" stroke="none" points="-4,4 -4,-35 390,-35 390,4 -4,4"/>
<!-- Node1 -->
<g id="node1" class="node"><title>Node1</title>
<polygon fill="#bfbfbf" stroke="black" points="0,-0.5 0,-30.5 174,-30.5 174,-0.5 0,-0.5"/>
<text text-anchor="start" x="8" y="-18.5" font-family="Helvetica,sans-Serif" font-size="10.00">pfasst::quadrature</text>
<text text-anchor="middle" x="87" y="-7.5" font-family="Helvetica,sans-Serif" font-size="10.00">::GaussLegendre::compute_nodes</text>
</g>
<!-- Node2 -->
<g id="node2" class="node"><title>Node2</title>
<g id="a_node2"><a xlink:href="../../df/d99/classpfasst_1_1quadrature_1_1GaussLegendre.html#a22e5a186dac303f94b3518f97d2d3580" target="_top" xlink:title="pfasst::quadrature\l::GaussLegendre::GaussLegendre">
<polygon fill="white" stroke="black" points="210,-0.5 210,-30.5 386,-30.5 386,-0.5 210,-0.5"/>
<text text-anchor="start" x="218" y="-18.5" font-family="Helvetica,sans-Serif" font-size="10.00">pfasst::quadrature</text>
<text text-anchor="middle" x="298" y="-7.5" font-family="Helvetica,sans-Serif" font-size="10.00">::GaussLegendre::GaussLegendre</text>
</a>
</g>
</g>
<!-- Node1&#45;&gt;Node2 -->
<g id="edge1" class="edge"><title>Node1&#45;&gt;Node2</title>
<path fill="none" stroke="midnightblue" d="M184.239,-15.5C192.819,-15.5 201.474,-15.5 209.971,-15.5"/>
<polygon fill="midnightblue" stroke="midnightblue" points="184.215,-12.0001 174.215,-15.5 184.215,-19.0001 184.215,-12.0001"/>
</g>
</g>
</svg>
