<?xml version="1.0" encoding="UTF-8" standalone="no"?>
<!DOCTYPE svg PUBLIC "-//W3C//DTD SVG 1.1//EN"
 "http://www.w3.org/Graphics/SVG/1.1/DTD/svg11.dtd">
<!-- Generated by graphviz version 2.38.0 (20140413.2041)
 -->
<!-- Title: pfasst::examples::advection_diffusion::AdvectionDiffusionSweeper::f_impl_eval Pages: 1 -->
<svg width="570pt" height="88pt"
 viewBox="0.00 0.00 570.00 88.00" xmlns="http://www.w3.org/2000/svg" xmlns:xlink="http://www.w3.org/1999/xlink">
<g id="graph0" class="graph" transform="scale(1 1) rotate(0) translate(4 84)">
<title>pfasst::examples::advection_diffusion::AdvectionDiffusionSweeper::f_impl_eval</title>
<polygon fill="white" stroke="none" points="-4,4 -4,-84 566,-84 566,4 -4,4"/>
<!-- Node1 -->
<g id="node1" class="node"><title>Node1</title>
<polygon fill="#bfbfbf" stroke="black" points="0,-19 0,-60 188,-60 188,-19 0,-19"/>
<text text-anchor="start" x="8" y="-48" font-family="Helvetica,sans-Serif" font-size="10.00">pfasst::examples::advection</text>
<text text-anchor="start" x="8" y="-37" font-family="Helvetica,sans-Serif" font-size="10.00">_diffusion::AdvectionDiffusionSweeper</text>
<text text-anchor="middle" x="94" y="-26" font-family="Helvetica,sans-Serif" font-size="10.00">::f_impl_eval</text>
</g>
<!-- Node2 -->
<g id="node2" class="node"><title>Node2</title>
<g id="a_node2"><a xlink:href="../../d8/d6f/classpfasst_1_1examples_1_1advection__diffusion_1_1FFT.html#a71f4be58c1eb039a77bf6b8742e1ccdb" target="_top" xlink:title="pfasst::examples::advection\l_diffusion::FFT::backward">
<polygon fill="white" stroke="black" points="224,-49.5 224,-79.5 367,-79.5 367,-49.5 224,-49.5"/>
<text text-anchor="start" x="232" y="-67.5" font-family="Helvetica,sans-Serif" font-size="10.00">pfasst::examples::advection</text>
<text text-anchor="middle" x="295.5" y="-56.5" font-family="Helvetica,sans-Serif" font-size="10.00">_diffusion::FFT::backward</text>
</a>
</g>
</g>
<!-- Node1&#45;&gt;Node2 -->
<g id="edge1" class="edge"><title>Node1&#45;&gt;Node2</title>
<path fill="none" stroke="midnightblue" d="M188.033,-51.1583C196.722,-52.2471 205.478,-53.3444 214.038,-54.4171"/>
<polygon fill="midnightblue" stroke="midnightblue" points="213.622,-57.8923 223.98,-55.6629 214.493,-50.9466 213.622,-57.8923"/>
</g>
<!-- Node4 -->
<g id="node4" class="node"><title>Node4</title>
<g id="a_node4"><a xlink:href="../../d8/d6f/classpfasst_1_1examples_1_1advection__diffusion_1_1FFT.html#aba363e7a311e50f83cc16083c5204453" target="_top" xlink:title="pfasst::examples::advection\l_diffusion::FFT::forward">
<polygon fill="white" stroke="black" points="224,-0.5 224,-30.5 367,-30.5 367,-0.5 224,-0.5"/>
<text text-anchor="start" x="232" y="-18.5" font-family="Helvetica,sans-Serif" font-size="10.00">pfasst::examples::advection</text>
<text text-anchor="middle" x="295.5" y="-7.5" font-family="Helvetica,sans-Serif" font-size="10.00">_diffusion::FFT::forward</text>
</a>
</g>
</g>
<!-- Node1&#45;&gt;Node4 -->
<g id="edge3" class="edge"><title>Node1&#45;&gt;Node4</title>
<path fill="none" stroke="midnightblue" d="M188.033,-28.308C196.722,-27.2628 205.478,-26.2094 214.038,-25.1796"/>
<polygon fill="midnightblue" stroke="midnightblue" points="214.47,-28.653 223.98,-23.9836 213.634,-21.7031 214.47,-28.653"/>
</g>
<!-- Node3 -->
<g id="node3" class="node"><title>Node3</title>
<g id="a_node3"><a xlink:href="../../d8/d6f/classpfasst_1_1examples_1_1advection__diffusion_1_1FFT.html#a7eff33c139c606f9c5fe65b7d94a03fa" target="_top" xlink:title="pfasst::examples::advection\l_diffusion::FFT::get_workspace">
<polygon fill="white" stroke="black" points="403,-24.5 403,-54.5 562,-54.5 562,-24.5 403,-24.5"/>
<text text-anchor="start" x="411" y="-42.5" font-family="Helvetica,sans-Serif" font-size="10.00">pfasst::examples::advection</text>
<text text-anchor="middle" x="482.5" y="-31.5" font-family="Helvetica,sans-Serif" font-size="10.00">_diffusion::FFT::get_workspace</text>
</a>
</g>
</g>
<!-- Node2&#45;&gt;Node3 -->
<g id="edge2" class="edge"><title>Node2&#45;&gt;Node3</title>
<path fill="none" stroke="midnightblue" d="M367.232,-54.9416C375.59,-53.8121 384.2,-52.6487 392.766,-51.4911"/>
<polygon fill="midnightblue" stroke="midnightblue" points="393.343,-54.945 402.785,-50.1372 392.406,-48.008 393.343,-54.945"/>
</g>
<!-- Node4&#45;&gt;Node3 -->
<g id="edge4" class="edge"><title>Node4&#45;&gt;Node3</title>
<path fill="none" stroke="midnightblue" d="M367.232,-24.6761C375.59,-25.7604 384.2,-26.8773 392.766,-27.9886"/>
<polygon fill="midnightblue" stroke="midnightblue" points="392.417,-31.4726 402.785,-29.2883 393.318,-24.5307 392.417,-31.4726"/>
</g>
</g>
</svg>
