<?xml version="1.0" encoding="UTF-8" standalone="no"?>
<!DOCTYPE svg PUBLIC "-//W3C//DTD SVG 1.1//EN"
 "http://www.w3.org/Graphics/SVG/1.1/DTD/svg11.dtd">
<!-- Generated by graphviz version 2.38.0 (20140413.2041)
 -->
<!-- Title: pfasst::examples::advection_diffusion::AdvectionDiffusionSweeper::get_residuals Pages: 1 -->
<svg width="543pt" height="104pt"
 viewBox="0.00 0.00 543.00 104.00" xmlns="http://www.w3.org/2000/svg" xmlns:xlink="http://www.w3.org/1999/xlink">
<g id="graph0" class="graph" transform="scale(1 1) rotate(0) translate(4 100)">
<title>pfasst::examples::advection_diffusion::AdvectionDiffusionSweeper::get_residuals</title>
<polygon fill="white" stroke="none" points="-4,4 -4,-100 539,-100 539,4 -4,4"/>
<!-- Node1 -->
<g id="node1" class="node"><title>Node1</title>
<polygon fill="#bfbfbf" stroke="black" points="0,-27.5 0,-68.5 188,-68.5 188,-27.5 0,-27.5"/>
<text text-anchor="start" x="8" y="-56.5" font-family="Helvetica,sans-Serif" font-size="10.00">pfasst::examples::advection</text>
<text text-anchor="start" x="8" y="-45.5" font-family="Helvetica,sans-Serif" font-size="10.00">_diffusion::AdvectionDiffusionSweeper</text>
<text text-anchor="middle" x="94" y="-34.5" font-family="Helvetica,sans-Serif" font-size="10.00">::get_residuals</text>
</g>
<!-- Node2 -->
<g id="node2" class="node"><title>Node2</title>
<g id="a_node2"><a xlink:href="../../d9/d85/group__AdvectionDiffusion.html#ga54ea0f33dff1236bd3d9349a8ea75575" target="_top" xlink:title="Advection/diffusion example using an encapsulated IMEX sweeper. ">
<polygon fill="white" stroke="black" points="224,-33 224,-63 367,-63 367,-33 224,-33"/>
<text text-anchor="start" x="232" y="-51" font-family="Helvetica,sans-Serif" font-size="10.00">pfasst::examples::advection</text>
<text text-anchor="middle" x="295.5" y="-40" font-family="Helvetica,sans-Serif" font-size="10.00">_diffusion::run_serial_mlsdc</text>
</a>
</g>
</g>
<!-- Node1&#45;&gt;Node2 -->
<g id="edge1" class="edge"><title>Node1&#45;&gt;Node2</title>
<path fill="none" stroke="midnightblue" d="M198.248,-48C206.949,-48 215.615,-48 223.98,-48"/>
<polygon fill="midnightblue" stroke="midnightblue" points="198.033,-44.5001 188.033,-48 198.033,-51.5001 198.033,-44.5001"/>
</g>
<!-- Node3 -->
<g id="node3" class="node"><title>Node3</title>
<g id="a_node3"><a xlink:href="../../d9/d86/serial__mlsdc_8cpp.html#a3c04138a5bfe5d72780bb7e82a18e627" target="_top" xlink:title="main">
<polygon fill="white" stroke="black" points="450,-76.5 450,-95.5 488,-95.5 488,-76.5 450,-76.5"/>
<text text-anchor="middle" x="469" y="-83.5" font-family="Helvetica,sans-Serif" font-size="10.00">main</text>
</a>
</g>
</g>
<!-- Node2&#45;&gt;Node3 -->
<g id="edge2" class="edge"><title>Node2&#45;&gt;Node3</title>
<path fill="none" stroke="midnightblue" d="M374.146,-65.2044C402.23,-71.427 431.483,-77.9088 449.713,-81.948"/>
<polygon fill="midnightblue" stroke="midnightblue" points="374.802,-61.7648 364.281,-63.0186 373.287,-68.5991 374.802,-61.7648"/>
</g>
<!-- Node4 -->
<g id="node4" class="node"><title>Node4</title>
<g id="a_node4"><a xlink:href="../../d3/d6a/classConvergenceTest.html#a18a32024b87b7ee689df7e0375ea8ede" target="_top" xlink:title="ConvergenceTest::SetUp">
<polygon fill="white" stroke="black" points="403,-38.5 403,-57.5 535,-57.5 535,-38.5 403,-38.5"/>
<text text-anchor="middle" x="469" y="-45.5" font-family="Helvetica,sans-Serif" font-size="10.00">ConvergenceTest::SetUp</text>
</a>
</g>
</g>
<!-- Node2&#45;&gt;Node4 -->
<g id="edge3" class="edge"><title>Node2&#45;&gt;Node4</title>
<path fill="none" stroke="midnightblue" d="M377.283,-48C385.877,-48 394.538,-48 402.919,-48"/>
<polygon fill="midnightblue" stroke="midnightblue" points="377.246,-44.5001 367.246,-48 377.246,-51.5001 377.246,-44.5001"/>
</g>
<!-- Node5 -->
<g id="node5" class="node"><title>Node5</title>
<g id="a_node5"><a xlink:href="../../df/df8/test__advection__diffusion_8cpp.html#a14b7af1ba2e39c56da0f65c963f0e6d2" target="_top" xlink:title="TEST">
<polygon fill="white" stroke="black" points="447,-0.5 447,-19.5 491,-19.5 491,-0.5 447,-0.5"/>
<text text-anchor="middle" x="469" y="-7.5" font-family="Helvetica,sans-Serif" font-size="10.00">TEST</text>
</a>
</g>
</g>
<!-- Node2&#45;&gt;Node5 -->
<g id="edge4" class="edge"><title>Node2&#45;&gt;Node5</title>
<path fill="none" stroke="midnightblue" d="M374.365,-30.7472C400.859,-24.8767 428.366,-18.7819 446.653,-14.7299"/>
<polygon fill="midnightblue" stroke="midnightblue" points="373.287,-27.4009 364.281,-32.9814 374.802,-34.2352 373.287,-27.4009"/>
</g>
</g>
</svg>
