<?xml version="1.0" encoding="UTF-8" standalone="no"?>
<!DOCTYPE svg PUBLIC "-//W3C//DTD SVG 1.1//EN"
 "http://www.w3.org/Graphics/SVG/1.1/DTD/svg11.dtd">
<!-- Generated by graphviz version 2.38.0 (20140413.2041)
 -->
<!-- Title: pfasst::examples::advection_diffusion::AdvectionDiffusionSweeper::init_logs Pages: 1 -->
<!--zoomable 152 -->
<svg id="main" version="1.1" xmlns="http://www.w3.org/2000/svg" xmlns:xlink="http://www.w3.org/1999/xlink" xml:space="preserve" onload="init(evt)">
<style type="text/css"><![CDATA[
.edge:hover path { stroke: red; }
.edge:hover polygon { stroke: red; fill: red; }
]]></style>
<script type="text/javascript"><![CDATA[
var edges = document.getElementsByTagName('g');
if (edges && edges.length) {
  for (var i=0;i<edges.length;i++) {
    if (edges[i].id.substr(0,4)=='edge') {
      edges[i].setAttribute('class','edge');
    }
  }
}
]]></script>
        <defs>
                <circle id="rim" cx="0" cy="0" r="7"/>
                <circle id="rim2" cx="0" cy="0" r="3.5"/>
                <g id="zoomPlus">
                        <use xlink:href="#rim" fill="#404040">
                                <set attributeName="fill" to="#808080" begin="zoomplus.mouseover" end="zoomplus.mouseout"/>
                        </use>
                        <path d="M-4,0h8M0,-4v8" fill="none" stroke="white" stroke-width="1.5" pointer-events="none"/>
                </g>
                <g id="zoomMin">
                        <use xlink:href="#rim" fill="#404040">
                                <set attributeName="fill" to="#808080" begin="zoomminus.mouseover" end="zoomminus.mouseout"/>
                        </use>
                        <path d="M-4,0h8" fill="none" stroke="white" stroke-width="1.5" pointer-events="none"/>
                </g>
                <g id="dirArrow">
                        <path fill="none" stroke="white" stroke-width="1.5" d="M0,-3.0v7 M-2.5,-0.5L0,-3.0L2.5,-0.5"/>
                </g>
               <g id="resetDef">
                       <use xlink:href="#rim2" fill="#404040">
                               <set attributeName="fill" to="#808080" begin="reset.mouseover" end="reset.mouseout"/>
                       </use>
               </g>
        </defs>

<script type="text/javascript">
var viewWidth = 949;
var viewHeight = 152;
var sectionId = 'dynsection-8';
</script>
<script xlink:href="../../svgpan.js"/>
<svg id="graph" class="graph">
<g id="viewport">
<title>pfasst::examples::advection_diffusion::AdvectionDiffusionSweeper::init_logs</title>
<polygon fill="white" stroke="none" points="-4,4 -4,-147.964 945,-147.964 945,4 -4,4"/>
<!-- Node1 -->
<g id="node1" class="node"><title>Node1</title>
<polygon fill="#bfbfbf" stroke="black" points="0,-33.964 0,-74.964 188,-74.964 188,-33.964 0,-33.964"/>
<text text-anchor="start" x="8" y="-62.964" font-family="Helvetica,sans-Serif" font-size="10.00">pfasst::examples::advection</text>
<text text-anchor="start" x="8" y="-51.964" font-family="Helvetica,sans-Serif" font-size="10.00">_diffusion::AdvectionDiffusionSweeper</text>
<text text-anchor="middle" x="94" y="-40.964" font-family="Helvetica,sans-Serif" font-size="10.00">::init_logs</text>
</g>
<!-- Node2 -->
<g id="node2" class="node"><title>Node2</title>
<g id="a_node2"><a xlink:href="../../da/d50/namespacepfasst_1_1log.html#a8502afef42b4e98a12249d5fa1fed092" target="_top" xlink:title="Provides convenient way of adding additional named loggers. ">
<polygon fill="white" stroke="black" points="224,-39.464 224,-69.464 349,-69.464 349,-39.464 224,-39.464"/>
<text text-anchor="start" x="232" y="-57.464" font-family="Helvetica,sans-Serif" font-size="10.00">pfasst::log::add_custom</text>
<text text-anchor="middle" x="286.5" y="-46.464" font-family="Helvetica,sans-Serif" font-size="10.00">_logger</text>
</a>
</g>
</g>
<!-- Node1&#45;&gt;Node2 -->
<g id="edge1" class="edge"><title>Node1&#45;&gt;Node2</title>
<path fill="none" stroke="midnightblue" d="M188.018,-54.464C196.68,-54.464 205.366,-54.464 213.791,-54.464"/>
<polygon fill="midnightblue" stroke="midnightblue" points="213.917,-57.9641 223.917,-54.464 213.917,-50.9641 213.917,-57.9641"/>
</g>
<!-- Node3 -->
<g id="node3" class="node"><title>Node3</title>
<g id="a_node3"><a xlink:href="../../da/d27/classpfasst_1_1config_1_1options.html#a4f130f9b500d6f3dee7df20894233608" target="_top" xlink:title="Accessor to the singleton instance. ">
<polygon fill="white" stroke="black" points="537,-113.464 537,-143.464 651,-143.464 651,-113.464 537,-113.464"/>
<text text-anchor="start" x="545" y="-131.464" font-family="Helvetica,sans-Serif" font-size="10.00">pfasst::config::options</text>
<text text-anchor="middle" x="594" y="-120.464" font-family="Helvetica,sans-Serif" font-size="10.00">::get_instance</text>
</a>
</g>
</g>
<!-- Node2&#45;&gt;Node3 -->
<g id="edge2" class="edge"><title>Node2&#45;&gt;Node3</title>
<path fill="none" stroke="midnightblue" d="M313.069,-69.5977C332.223,-80.2271 359.424,-93.8559 385,-101.464 431.27,-115.228 485.397,-121.977 526.836,-125.286"/>
<polygon fill="midnightblue" stroke="midnightblue" points="526.581,-128.776 536.815,-126.036 527.106,-121.796 526.581,-128.776"/>
</g>
<!-- Node4 -->
<g id="node4" class="node"><title>Node4</title>
<g id="a_node4"><a xlink:href="../../da/d27/classpfasst_1_1config_1_1options.html#a9ad40d67da1066f5053e47e278b3b154" target="_top" xlink:title="pfasst::config::options\l::get_variables_map">
<polygon fill="white" stroke="black" points="537,-15.464 537,-45.464 651,-45.464 651,-15.464 537,-15.464"/>
<text text-anchor="start" x="545" y="-33.464" font-family="Helvetica,sans-Serif" font-size="10.00">pfasst::config::options</text>
<text text-anchor="middle" x="594" y="-22.464" font-family="Helvetica,sans-Serif" font-size="10.00">::get_variables_map</text>
</a>
</g>
</g>
<!-- Node2&#45;&gt;Node4 -->
<g id="edge3" class="edge"><title>Node2&#45;&gt;Node4</title>
<path fill="none" stroke="midnightblue" d="M349.322,-49.6072C400.811,-45.5623 473.97,-39.8149 526.672,-35.6746"/>
<polygon fill="midnightblue" stroke="midnightblue" points="527.233,-39.1415 536.928,-34.869 526.684,-32.163 527.233,-39.1415"/>
</g>
<!-- Node5 -->
<g id="node5" class="node"><title>Node5</title>
<g id="a_node5"><a xlink:href="../../de/d8c/group__Internals.html#ga2fbecb551eda65e49c93122c05142aec" target="_top" xlink:title="Formats the local MPI world rank as a string. ">
<polygon fill="white" stroke="black" points="687,-17.464 687,-47.464 784,-47.464 784,-17.464 687,-17.464"/>
<text text-anchor="start" x="695" y="-35.464" font-family="Helvetica,sans-Serif" font-size="10.00">pfasst::log::format</text>
<text text-anchor="middle" x="735.5" y="-24.464" font-family="Helvetica,sans-Serif" font-size="10.00">_mpi_rank</text>
</a>
</g>
</g>
<!-- Node2&#45;&gt;Node5 -->
<g id="edge4" class="edge"><title>Node2&#45;&gt;Node5</title>
<path fill="none" stroke="midnightblue" d="M334.364,-39.4369C403.694,-19.1776 537.62,12.4113 651,-5.46396 662.756,-7.31745 675.113,-10.5538 686.609,-14.1566"/>
<polygon fill="midnightblue" stroke="midnightblue" points="685.86,-17.5946 696.453,-17.3914 688.045,-10.9444 685.86,-17.5946"/>
</g>
<!-- Node7 -->
<g id="node7" class="node"><title>Node7</title>
<g id="a_node7"><a xlink:href="../../de/d8c/group__Internals.html#ga2f4ba84c8482c3fb5c86e599804f832a" target="_top" xlink:title="Sets global logging options. ">
<polygon fill="white" stroke="black" points="385,-62.464 385,-92.464 501,-92.464 501,-62.464 385,-62.464"/>
<text text-anchor="start" x="393" y="-80.464" font-family="Helvetica,sans-Serif" font-size="10.00">pfasst::log::set_global</text>
<text text-anchor="middle" x="443" y="-69.464" font-family="Helvetica,sans-Serif" font-size="10.00">_logging_options</text>
</a>
</g>
</g>
<!-- Node2&#45;&gt;Node7 -->
<g id="edge6" class="edge"><title>Node2&#45;&gt;Node7</title>
<path fill="none" stroke="midnightblue" d="M349.006,-63.6203C357.474,-64.8808 366.205,-66.1806 374.769,-67.4555"/>
<polygon fill="midnightblue" stroke="midnightblue" points="374.314,-70.9262 384.72,-68.9369 375.345,-64.0025 374.314,-70.9262"/>
</g>
<!-- Node6 -->
<g id="node6" class="node"><title>Node6</title>
<g id="a_node6"><a xlink:href="../../d3/d91/namespacepfasst_1_1config.html#a69bf5d072b24805ad0004d40bcd2744e" target="_top" xlink:title="Get MPI rank during initialization. ">
<polygon fill="white" stroke="black" points="820,-22.964 820,-41.964 941,-41.964 941,-22.964 820,-22.964"/>
<text text-anchor="middle" x="880.5" y="-29.964" font-family="Helvetica,sans-Serif" font-size="10.00">pfasst::config::get_rank</text>
</a>
</g>
</g>
<!-- Node5&#45;&gt;Node6 -->
<g id="edge5" class="edge"><title>Node5&#45;&gt;Node6</title>
<path fill="none" stroke="midnightblue" d="M784.117,-32.464C792.351,-32.464 801.062,-32.464 809.739,-32.464"/>
<polygon fill="midnightblue" stroke="midnightblue" points="809.879,-35.9641 819.879,-32.464 809.879,-28.9641 809.879,-35.9641"/>
</g>
<!-- Node7&#45;&gt;Node3 -->
<g id="edge7" class="edge"><title>Node7&#45;&gt;Node3</title>
<path fill="none" stroke="midnightblue" d="M487.899,-92.4898C504.045,-98.0162 522.511,-104.337 539.415,-110.123"/>
<polygon fill="midnightblue" stroke="midnightblue" points="538.563,-113.53 549.157,-113.457 540.83,-106.908 538.563,-113.53"/>
</g>
<!-- Node7&#45;&gt;Node4 -->
<g id="edge10" class="edge"><title>Node7&#45;&gt;Node4</title>
<path fill="none" stroke="midnightblue" d="M491.554,-62.4636C505.532,-58.0544 520.973,-53.1838 535.503,-48.6008"/>
<polygon fill="midnightblue" stroke="midnightblue" points="536.903,-51.8292 545.387,-45.483 534.797,-45.1534 536.903,-51.8292"/>
</g>
<!-- Node8 -->
<g id="node8" class="node"><title>Node8</title>
<g id="a_node8"><a xlink:href="../../de/d8c/group__Internals.html#ga74a6cd18764de8c81da478a7eb33ee4a" target="_top" xlink:title="Composes the log file name for the local rank. ">
<polygon fill="white" stroke="black" points="542.5,-64.464 542.5,-94.464 645.5,-94.464 645.5,-64.464 542.5,-64.464"/>
<text text-anchor="start" x="550.5" y="-82.464" font-family="Helvetica,sans-Serif" font-size="10.00">pfasst::log::get_log</text>
<text text-anchor="middle" x="594" y="-71.464" font-family="Helvetica,sans-Serif" font-size="10.00">_file_name</text>
</a>
</g>
</g>
<!-- Node7&#45;&gt;Node8 -->
<g id="edge8" class="edge"><title>Node7&#45;&gt;Node8</title>
<path fill="none" stroke="midnightblue" d="M501.181,-78.2315C511.276,-78.367 521.819,-78.5085 532.013,-78.6453"/>
<polygon fill="midnightblue" stroke="midnightblue" points="532.015,-82.1456 542.061,-78.7802 532.109,-75.1462 532.015,-82.1456"/>
</g>
<!-- Node8&#45;&gt;Node5 -->
<g id="edge9" class="edge"><title>Node8&#45;&gt;Node5</title>
<path fill="none" stroke="midnightblue" d="M639.522,-64.4636C652.483,-60.0968 666.788,-55.2775 680.276,-50.733"/>
<polygon fill="midnightblue" stroke="midnightblue" points="681.563,-53.9927 689.922,-47.483 679.328,-47.3591 681.563,-53.9927"/>
</g>
</g>
</svg>
        <g id="navigator" transform="translate(0 0)" fill="#404254">
                <rect fill="#f2f5e9" fill-opacity="0.5" stroke="#606060" stroke-width=".5" x="0" y="0" width="60" height="60"/>
                <use id="zoomplus" xlink:href="#zoomPlus" x="17" y="9" onmousedown="handleZoom(evt,'in')"/>
                <use id="zoomminus" xlink:href="#zoomMin" x="42" y="9" onmousedown="handleZoom(evt,'out')"/>
                <use id="reset" xlink:href="#resetDef" x="30" y="36" onmousedown="handleReset()"/>
                <g id="arrowUp" xlink:href="#dirArrow" transform="translate(30 24)" onmousedown="handlePan(0,-1)">
                  <use xlink:href="#rim" fill="#404040">
                        <set attributeName="fill" to="#808080" begin="arrowUp.mouseover" end="arrowUp.mouseout"/>
                  </use>
                  <path fill="none" stroke="white" stroke-width="1.5" d="M0,-3.0v7 M-2.5,-0.5L0,-3.0L2.5,-0.5"/>
                </g>
                <g id="arrowRight" xlink:href="#dirArrow" transform="rotate(90) translate(36 -43)" onmousedown="handlePan(1,0)">
                  <use xlink:href="#rim" fill="#404040">
                        <set attributeName="fill" to="#808080" begin="arrowRight.mouseover" end="arrowRight.mouseout"/>
                  </use>
                  <path fill="none" stroke="white" stroke-width="1.5" d="M0,-3.0v7 M-2.5,-0.5L0,-3.0L2.5,-0.5"/>
                </g>
                <g id="arrowDown" xlink:href="#dirArrow" transform="rotate(180) translate(-30 -48)" onmousedown="handlePan(0,1)">
                  <use xlink:href="#rim" fill="#404040">
                        <set attributeName="fill" to="#808080" begin="arrowDown.mouseover" end="arrowDown.mouseout"/>
                  </use>
                  <path fill="none" stroke="white" stroke-width="1.5" d="M0,-3.0v7 M-2.5,-0.5L0,-3.0L2.5,-0.5"/>
                </g>
                <g id="arrowLeft" xlink:href="#dirArrow" transform="rotate(270) translate(-36 17)" onmousedown="handlePan(-1,0)">
                  <use xlink:href="#rim" fill="#404040">
                        <set attributeName="fill" to="#808080" begin="arrowLeft.mouseover" end="arrowLeft.mouseout"/>
                  </use>
                  <path fill="none" stroke="white" stroke-width="1.5" d="M0,-3.0v7 M-2.5,-0.5L0,-3.0L2.5,-0.5"/>
                </g>
        </g>
        <svg viewBox="0 0 15 15" width="100%" height="30px" preserveAspectRatio="xMaxYMin meet">
         <g id="arrow_out" transform="scale(0.3 0.3)">
          <a xlink:href="classpfasst_1_1examples_1_1advection__diffusion_1_1AdvectionDiffusionSweeper_aeadc517097ebebd2eb14398271d6d576_cgraph_org.svg" target="_base">
           <rect id="button" ry="5" rx="5" y="6" x="6" height="38" width="38"
                fill="#f2f5e9" fill-opacity="0.5" stroke="#606060" stroke-width="1.0"/>
           <path id="arrow"
             d="M 11.500037,31.436501 C 11.940474,20.09759 22.043105,11.32322 32.158766,21.979434 L 37.068811,17.246167 C 37.068811,17.246167 37.088388,32 37.088388,32 L 22.160133,31.978069 C 22.160133,31.978069 26.997745,27.140456 26.997745,27.140456 C 18.528582,18.264221 13.291696,25.230495 11.500037,31.436501 z"
             style="fill:#404040;"/>
          </a>
         </g>
        </svg>
</svg>
