<?xml version="1.0" encoding="UTF-8" standalone="no"?>
<!DOCTYPE svg PUBLIC "-//W3C//DTD SVG 1.1//EN"
 "http://www.w3.org/Graphics/SVG/1.1/DTD/svg11.dtd">
<!-- Generated by graphviz version 2.38.0 (20140413.2041)
 -->
<!-- Title: pfasst::examples::advection_diffusion::AdvectionDiffusionSweeper::echo_error Pages: 1 -->
<svg width="378pt" height="50pt"
 viewBox="0.00 0.00 378.00 50.00" xmlns="http://www.w3.org/2000/svg" xmlns:xlink="http://www.w3.org/1999/xlink">
<g id="graph0" class="graph" transform="scale(1 1) rotate(0) translate(4 46)">
<title>pfasst::examples::advection_diffusion::AdvectionDiffusionSweeper::echo_error</title>
<polygon fill="white" stroke="none" points="-4,4 -4,-46 374,-46 374,4 -4,4"/>
<!-- Node1 -->
<g id="node1" class="node"><title>Node1</title>
<polygon fill="#bfbfbf" stroke="black" points="0,-0.5 0,-41.5 188,-41.5 188,-0.5 0,-0.5"/>
<text text-anchor="start" x="8" y="-29.5" font-family="Helvetica,sans-Serif" font-size="10.00">pfasst::examples::advection</text>
<text text-anchor="start" x="8" y="-18.5" font-family="Helvetica,sans-Serif" font-size="10.00">_diffusion::AdvectionDiffusionSweeper</text>
<text text-anchor="middle" x="94" y="-7.5" font-family="Helvetica,sans-Serif" font-size="10.00">::echo_error</text>
</g>
<!-- Node2 -->
<g id="node2" class="node"><title>Node2</title>
<g id="a_node2"><a xlink:href="../../d3/d59/group__BorisUtilities.html#gab3fffee6da14f85d545e5c758393fb00" target="_top" xlink:title="pfasst::examples::boris::max">
<polygon fill="white" stroke="black" points="224,-11.5 224,-30.5 370,-30.5 370,-11.5 224,-11.5"/>
<text text-anchor="middle" x="297" y="-18.5" font-family="Helvetica,sans-Serif" font-size="10.00">pfasst::examples::boris::max</text>
</a>
</g>
</g>
<!-- Node1&#45;&gt;Node2 -->
<g id="edge1" class="edge"><title>Node1&#45;&gt;Node2</title>
<path fill="none" stroke="midnightblue" d="M188.145,-21C196.687,-21 205.3,-21 213.736,-21"/>
<polygon fill="midnightblue" stroke="midnightblue" points="213.921,-24.5001 223.921,-21 213.921,-17.5001 213.921,-24.5001"/>
</g>
</g>
</svg>
