<?xml version="1.0" encoding="UTF-8" standalone="no"?>
<!DOCTYPE svg PUBLIC "-//W3C//DTD SVG 1.1//EN"
 "http://www.w3.org/Graphics/SVG/1.1/DTD/svg11.dtd">
<!-- Generated by graphviz version 2.38.0 (20140413.2041)
 -->
<!-- Title: pfasst::examples::advection_diffusion::AdvectionDiffusionSweeper::get_errors Pages: 1 -->
<svg width="543pt" height="180pt"
 viewBox="0.00 0.00 543.00 180.00" xmlns="http://www.w3.org/2000/svg" xmlns:xlink="http://www.w3.org/1999/xlink">
<g id="graph0" class="graph" transform="scale(1 1) rotate(0) translate(4 176)">
<title>pfasst::examples::advection_diffusion::AdvectionDiffusionSweeper::get_errors</title>
<polygon fill="white" stroke="none" points="-4,4 -4,-176 539,-176 539,4 -4,4"/>
<!-- Node1 -->
<g id="node1" class="node"><title>Node1</title>
<polygon fill="#bfbfbf" stroke="black" points="0,-65.5 0,-106.5 188,-106.5 188,-65.5 0,-65.5"/>
<text text-anchor="start" x="8" y="-94.5" font-family="Helvetica,sans-Serif" font-size="10.00">pfasst::examples::advection</text>
<text text-anchor="start" x="8" y="-83.5" font-family="Helvetica,sans-Serif" font-size="10.00">_diffusion::AdvectionDiffusionSweeper</text>
<text text-anchor="middle" x="94" y="-72.5" font-family="Helvetica,sans-Serif" font-size="10.00">::get_errors</text>
</g>
<!-- Node2 -->
<g id="node2" class="node"><title>Node2</title>
<g id="a_node2"><a xlink:href="../../d9/d85/group__AdvectionDiffusion.html#gacf2af7cceb96a5587032bc0e83b93e00" target="_top" xlink:title="Advection/diffusion example using an encapsulated IMEX sweeper. ">
<polygon fill="white" stroke="black" points="224,-102 224,-132 367,-132 367,-102 224,-102"/>
<text text-anchor="start" x="232" y="-120" font-family="Helvetica,sans-Serif" font-size="10.00">pfasst::examples::advection</text>
<text text-anchor="middle" x="295.5" y="-109" font-family="Helvetica,sans-Serif" font-size="10.00">_diffusion::run_mpi_pfasst</text>
</a>
</g>
</g>
<!-- Node1&#45;&gt;Node2 -->
<g id="edge1" class="edge"><title>Node1&#45;&gt;Node2</title>
<path fill="none" stroke="midnightblue" d="M197.964,-101.999C206.761,-103.366 215.524,-104.728 223.98,-106.042"/>
<polygon fill="midnightblue" stroke="midnightblue" points="198.452,-98.5333 188.033,-100.456 197.377,-105.45 198.452,-98.5333"/>
</g>
<!-- Node6 -->
<g id="node6" class="node"><title>Node6</title>
<g id="a_node6"><a xlink:href="../../d9/d85/group__AdvectionDiffusion.html#ga54ea0f33dff1236bd3d9349a8ea75575" target="_top" xlink:title="Advection/diffusion example using an encapsulated IMEX sweeper. ">
<polygon fill="white" stroke="black" points="224,-40 224,-70 367,-70 367,-40 224,-40"/>
<text text-anchor="start" x="232" y="-58" font-family="Helvetica,sans-Serif" font-size="10.00">pfasst::examples::advection</text>
<text text-anchor="middle" x="295.5" y="-47" font-family="Helvetica,sans-Serif" font-size="10.00">_diffusion::run_serial_mlsdc</text>
</a>
</g>
</g>
<!-- Node1&#45;&gt;Node6 -->
<g id="edge5" class="edge"><title>Node1&#45;&gt;Node6</title>
<path fill="none" stroke="midnightblue" d="M197.964,-70.0005C206.761,-68.6336 215.524,-67.2719 223.98,-65.958"/>
<polygon fill="midnightblue" stroke="midnightblue" points="197.377,-66.5497 188.033,-71.5437 198.452,-73.4667 197.377,-66.5497"/>
</g>
<!-- Node3 -->
<g id="node3" class="node"><title>Node3</title>
<g id="a_node3"><a xlink:href="../../d1/d49/mpi__pfasst_8cpp.html#a3c04138a5bfe5d72780bb7e82a18e627" target="_top" xlink:title="main">
<polygon fill="white" stroke="black" points="450,-152.5 450,-171.5 488,-171.5 488,-152.5 450,-152.5"/>
<text text-anchor="middle" x="469" y="-159.5" font-family="Helvetica,sans-Serif" font-size="10.00">main</text>
</a>
</g>
</g>
<!-- Node2&#45;&gt;Node3 -->
<g id="edge2" class="edge"><title>Node2&#45;&gt;Node3</title>
<path fill="none" stroke="midnightblue" d="M363.995,-134.71C394.946,-142.831 429.224,-151.826 449.671,-157.191"/>
<polygon fill="midnightblue" stroke="midnightblue" points="364.645,-131.262 354.084,-132.11 362.868,-138.033 364.645,-131.262"/>
</g>
<!-- Node4 -->
<g id="node4" class="node"><title>Node4</title>
<g id="a_node4"><a xlink:href="../../d3/d6a/classConvergenceTest.html#a18a32024b87b7ee689df7e0375ea8ede" target="_top" xlink:title="ConvergenceTest::SetUp">
<polygon fill="white" stroke="black" points="403,-76.5 403,-95.5 535,-95.5 535,-76.5 403,-76.5"/>
<text text-anchor="middle" x="469" y="-83.5" font-family="Helvetica,sans-Serif" font-size="10.00">ConvergenceTest::SetUp</text>
</a>
</g>
</g>
<!-- Node2&#45;&gt;Node4 -->
<g id="edge3" class="edge"><title>Node2&#45;&gt;Node4</title>
<path fill="none" stroke="midnightblue" d="M377.099,-102.431C390.05,-100.09 403.158,-97.7207 415.236,-95.5375"/>
<polygon fill="midnightblue" stroke="midnightblue" points="376.464,-98.9891 367.246,-104.212 377.709,-105.877 376.464,-98.9891"/>
</g>
<!-- Node5 -->
<g id="node5" class="node"><title>Node5</title>
<g id="a_node5"><a xlink:href="../../dd/db6/test__mpi__advection__diffusion_8cpp.html#a88d3a04b41904a6a44c0a94330e3389a" target="_top" xlink:title="TEST">
<polygon fill="white" stroke="black" points="447,-114.5 447,-133.5 491,-133.5 491,-114.5 447,-114.5"/>
<text text-anchor="middle" x="469" y="-121.5" font-family="Helvetica,sans-Serif" font-size="10.00">TEST</text>
</a>
</g>
</g>
<!-- Node2&#45;&gt;Node5 -->
<g id="edge4" class="edge"><title>Node2&#45;&gt;Node5</title>
<path fill="none" stroke="midnightblue" d="M377.375,-120.301C402.941,-121.345 429.087,-122.412 446.683,-123.13"/>
<polygon fill="midnightblue" stroke="midnightblue" points="377.38,-116.798 367.246,-119.888 377.095,-123.793 377.38,-116.798"/>
</g>
<!-- Node6&#45;&gt;Node4 -->
<g id="edge7" class="edge"><title>Node6&#45;&gt;Node4</title>
<path fill="none" stroke="midnightblue" d="M377.099,-69.5689C390.05,-71.9099 403.158,-74.2793 415.236,-76.4625"/>
<polygon fill="midnightblue" stroke="midnightblue" points="377.709,-66.1225 367.246,-67.7879 376.464,-73.0109 377.709,-66.1225"/>
</g>
<!-- Node7 -->
<g id="node7" class="node"><title>Node7</title>
<g id="a_node7"><a xlink:href="../../d9/d86/serial__mlsdc_8cpp.html#a3c04138a5bfe5d72780bb7e82a18e627" target="_top" xlink:title="main">
<polygon fill="white" stroke="black" points="450,-38.5 450,-57.5 488,-57.5 488,-38.5 450,-38.5"/>
<text text-anchor="middle" x="469" y="-45.5" font-family="Helvetica,sans-Serif" font-size="10.00">main</text>
</a>
</g>
</g>
<!-- Node6&#45;&gt;Node7 -->
<g id="edge6" class="edge"><title>Node6&#45;&gt;Node7</title>
<path fill="none" stroke="midnightblue" d="M377.544,-51.6921C404.551,-50.5898 432.183,-49.4619 449.68,-48.7478"/>
<polygon fill="midnightblue" stroke="midnightblue" points="377.095,-48.2074 367.246,-52.1124 377.38,-55.2016 377.095,-48.2074"/>
</g>
<!-- Node8 -->
<g id="node8" class="node"><title>Node8</title>
<g id="a_node8"><a xlink:href="../../df/df8/test__advection__diffusion_8cpp.html#a14b7af1ba2e39c56da0f65c963f0e6d2" target="_top" xlink:title="TEST">
<polygon fill="white" stroke="black" points="447,-0.5 447,-19.5 491,-19.5 491,-0.5 447,-0.5"/>
<text text-anchor="middle" x="469" y="-7.5" font-family="Helvetica,sans-Serif" font-size="10.00">TEST</text>
</a>
</g>
</g>
<!-- Node6&#45;&gt;Node8 -->
<g id="edge8" class="edge"><title>Node6&#45;&gt;Node8</title>
<path fill="none" stroke="midnightblue" d="M363.969,-37.2969C393.522,-29.5422 426.115,-20.9903 446.804,-15.5616"/>
<polygon fill="midnightblue" stroke="midnightblue" points="362.868,-33.967 354.084,-39.8905 364.645,-40.7378 362.868,-33.967"/>
</g>
</g>
</svg>
