<?xml version="1.0" encoding="UTF-8" standalone="no"?>
<!DOCTYPE svg PUBLIC "-//W3C//DTD SVG 1.1//EN"
 "http://www.w3.org/Graphics/SVG/1.1/DTD/svg11.dtd">
<!-- Generated by graphviz version 2.38.0 (20140413.2041)
 -->
<!-- Title: pfasst::quadrature::Polynomial&lt; CoeffT &gt; Pages: 1 -->
<svg width="130pt" height="579pt"
 viewBox="0.00 0.00 130.00 579.00" xmlns="http://www.w3.org/2000/svg" xmlns:xlink="http://www.w3.org/1999/xlink">
<g id="graph0" class="graph" transform="scale(1 1) rotate(0) translate(4 575)">
<title>pfasst::quadrature::Polynomial&lt; CoeffT &gt;</title>
<polygon fill="white" stroke="none" points="-4,4 -4,-575 126,-575 126,4 -4,4"/>
<!-- Node1 -->
<g id="node1" class="node"><title>Node1</title>
<polygon fill="#bfbfbf" stroke="black" points="0,-0.5 0,-255.5 122,-255.5 122,-0.5 0,-0.5"/>
<text text-anchor="start" x="8" y="-243.5" font-family="Helvetica,sans-Serif" font-size="10.00">pfasst::quadrature</text>
<text text-anchor="middle" x="61" y="-232.5" font-family="Helvetica,sans-Serif" font-size="10.00">::Polynomial&lt; CoeffT &gt;</text>
<polyline fill="none" stroke="black" points="0,-225.5 122,-225.5 "/>
<text text-anchor="middle" x="61" y="-213.5" font-family="Helvetica,sans-Serif" font-size="10.00"> </text>
<polyline fill="none" stroke="black" points="0,-206.5 122,-206.5 "/>
<text text-anchor="start" x="8" y="-194.5" font-family="Helvetica,sans-Serif" font-size="10.00">+ Polynomial()</text>
<text text-anchor="start" x="8" y="-183.5" font-family="Helvetica,sans-Serif" font-size="10.00">+ order()</text>
<text text-anchor="start" x="8" y="-172.5" font-family="Helvetica,sans-Serif" font-size="10.00">+ operator[]()</text>
<text text-anchor="start" x="8" y="-161.5" font-family="Helvetica,sans-Serif" font-size="10.00">+ differentiate()</text>
<text text-anchor="start" x="8" y="-150.5" font-family="Helvetica,sans-Serif" font-size="10.00">+ integrate()</text>
<text text-anchor="start" x="8" y="-139.5" font-family="Helvetica,sans-Serif" font-size="10.00">+ evaluate()</text>
<text text-anchor="start" x="8" y="-128.5" font-family="Helvetica,sans-Serif" font-size="10.00">+ normalize()</text>
<text text-anchor="start" x="8" y="-117.5" font-family="Helvetica,sans-Serif" font-size="10.00">+ roots()</text>
<text text-anchor="start" x="8" y="-106.5" font-family="Helvetica,sans-Serif" font-size="10.00">+ legendre()</text>
<text text-anchor="start" x="8" y="-95.5" font-family="Helvetica,sans-Serif" font-size="10.00">* Polynomial()</text>
<text text-anchor="start" x="8" y="-84.5" font-family="Helvetica,sans-Serif" font-size="10.00">* order()</text>
<text text-anchor="start" x="8" y="-73.5" font-family="Helvetica,sans-Serif" font-size="10.00">* operator[]()</text>
<text text-anchor="start" x="8" y="-62.5" font-family="Helvetica,sans-Serif" font-size="10.00">* differentiate()</text>
<text text-anchor="start" x="8" y="-51.5" font-family="Helvetica,sans-Serif" font-size="10.00">* integrate()</text>
<text text-anchor="start" x="8" y="-40.5" font-family="Helvetica,sans-Serif" font-size="10.00">* evaluate()</text>
<text text-anchor="start" x="8" y="-29.5" font-family="Helvetica,sans-Serif" font-size="10.00">* normalize()</text>
<text text-anchor="start" x="8" y="-18.5" font-family="Helvetica,sans-Serif" font-size="10.00">* roots()</text>
<text text-anchor="start" x="8" y="-7.5" font-family="Helvetica,sans-Serif" font-size="10.00">* legendre()</text>
</g>
<!-- Node2 -->
<g id="node2" class="node"><title>Node2</title>
<polygon fill="white" stroke="#bfbfbf" points="4.5,-303.5 4.5,-360.5 117.5,-360.5 117.5,-303.5 4.5,-303.5"/>
<text text-anchor="middle" x="61" y="-348.5" font-family="Helvetica,sans-Serif" font-size="10.00">std::vector&lt; CoeffT &gt;</text>
<polyline fill="none" stroke="#bfbfbf" points="4.5,-341.5 117.5,-341.5 "/>
<text text-anchor="start" x="12.5" y="-329.5" font-family="Helvetica,sans-Serif" font-size="10.00">+ elements</text>
<polyline fill="none" stroke="#bfbfbf" points="4.5,-322.5 117.5,-322.5 "/>
<text text-anchor="middle" x="61" y="-310.5" font-family="Helvetica,sans-Serif" font-size="10.00"> </text>
</g>
<!-- Node2&#45;&gt;Node1 -->
<g id="edge1" class="edge"><title>Node2&#45;&gt;Node1</title>
<path fill="none" stroke="#404040" d="M61,-303.336C61,-293.326 61,-281.231 61,-268.133"/>
<polygon fill="none" stroke="#404040" points="61.0001,-267.853 57,-261.853 61,-255.853 65,-261.853 61.0001,-267.853"/>
<text text-anchor="middle" x="68" y="-277" font-family="Helvetica,sans-Serif" font-size="10.00"> #c</text>
</g>
<!-- Node3 -->
<g id="node3" class="node"><title>Node3</title>
<g id="a_node3"><a xlink:title="STL class. ">
<polygon fill="white" stroke="#bfbfbf" points="16.5,-408.5 16.5,-465.5 105.5,-465.5 105.5,-408.5 16.5,-408.5"/>
<text text-anchor="middle" x="61" y="-453.5" font-family="Helvetica,sans-Serif" font-size="10.00">std::vector&lt; T &gt;</text>
<polyline fill="none" stroke="#bfbfbf" points="16.5,-446.5 105.5,-446.5 "/>
<text text-anchor="middle" x="61" y="-434.5" font-family="Helvetica,sans-Serif" font-size="10.00"> </text>
<polyline fill="none" stroke="#bfbfbf" points="16.5,-427.5 105.5,-427.5 "/>
<text text-anchor="middle" x="61" y="-415.5" font-family="Helvetica,sans-Serif" font-size="10.00"> </text>
</a>
</g>
</g>
<!-- Node3&#45;&gt;Node2 -->
<g id="edge2" class="edge"><title>Node3&#45;&gt;Node2</title>
<path fill="none" stroke="orange" d="M61,-398.286C61,-385.839 61,-372.233 61,-360.678"/>
<polygon fill="orange" stroke="orange" points="57.5001,-398.398 61,-408.398 64.5001,-398.398 57.5001,-398.398"/>
<text text-anchor="middle" x="87.5" y="-382" font-family="Helvetica,sans-Serif" font-size="10.00"> &lt; CoeffT &gt;</text>
</g>
<!-- Node4 -->
<g id="node4" class="node"><title>Node4</title>
<polygon fill="white" stroke="#bfbfbf" points="46.5,-513.5 46.5,-570.5 75.5,-570.5 75.5,-513.5 46.5,-513.5"/>
<text text-anchor="middle" x="61" y="-558.5" font-family="Helvetica,sans-Serif" font-size="10.00">T</text>
<polyline fill="none" stroke="#bfbfbf" points="46.5,-551.5 75.5,-551.5 "/>
<text text-anchor="middle" x="61" y="-539.5" font-family="Helvetica,sans-Serif" font-size="10.00"> </text>
<polyline fill="none" stroke="#bfbfbf" points="46.5,-532.5 75.5,-532.5 "/>
<text text-anchor="middle" x="61" y="-520.5" font-family="Helvetica,sans-Serif" font-size="10.00"> </text>
</g>
<!-- Node4&#45;&gt;Node3 -->
<g id="edge3" class="edge"><title>Node4&#45;&gt;Node3</title>
<path fill="none" stroke="#404040" d="M61,-513.398C61,-502.545 61,-489.873 61,-478.049"/>
<polygon fill="none" stroke="#404040" points="61.0001,-477.678 57,-471.678 61,-465.678 65,-471.678 61.0001,-477.678"/>
<text text-anchor="middle" x="86.5" y="-487" font-family="Helvetica,sans-Serif" font-size="10.00"> +elements</text>
</g>
</g>
</svg>
