<?xml version="1.0" encoding="UTF-8" standalone="no"?>
<!DOCTYPE svg PUBLIC "-//W3C//DTD SVG 1.1//EN"
 "http://www.w3.org/Graphics/SVG/1.1/DTD/svg11.dtd">
<!-- Generated by graphviz version 2.38.0 (20140413.2041)
 -->
<!-- Title: include/pfasst/quadrature.hpp Pages: 1 -->
<svg width="1644pt" height="520pt"
 viewBox="0.00 0.00 1643.50 520.00" xmlns="http://www.w3.org/2000/svg" xmlns:xlink="http://www.w3.org/1999/xlink">
<g id="graph0" class="graph" transform="scale(1 1) rotate(0) translate(4 516)">
<title>include/pfasst/quadrature.hpp</title>
<polygon fill="white" stroke="none" points="-4,4 -4,-516 1639.5,-516 1639.5,4 -4,4"/>
<!-- Node1 -->
<g id="node1" class="node"><title>Node1</title>
<polygon fill="#bfbfbf" stroke="black" points="605,-492.5 605,-511.5 753,-511.5 753,-492.5 605,-492.5"/>
<text text-anchor="middle" x="679" y="-499.5" font-family="Helvetica,sans-Serif" font-size="10.00">include/pfasst/quadrature.hpp</text>
</g>
<!-- Node2 -->
<g id="node2" class="node"><title>Node2</title>
<polygon fill="white" stroke="#bfbfbf" points="18,-168.5 18,-187.5 62,-187.5 62,-168.5 18,-168.5"/>
<text text-anchor="middle" x="40" y="-175.5" font-family="Helvetica,sans-Serif" font-size="10.00">cmath</text>
</g>
<!-- Node1&#45;&gt;Node2 -->
<g id="edge1" class="edge"><title>Node1&#45;&gt;Node2</title>
<path fill="none" stroke="midnightblue" d="M604.758,-498.806C452.172,-493.827 113.676,-480.185 67,-456 25.3661,-434.427 0,-421.391 0,-374.5 0,-374.5 0,-374.5 0,-305.5 0,-264.99 18.8794,-220.435 30.6975,-196.514"/>
<polygon fill="midnightblue" stroke="midnightblue" points="33.8203,-198.094 35.2544,-187.597 27.5871,-194.909 33.8203,-198.094"/>
</g>
<!-- Node3 -->
<g id="node3" class="node"><title>Node3</title>
<polygon fill="white" stroke="#bfbfbf" points="1355,-431 1355,-450 1415,-450 1415,-431 1355,-431"/>
<text text-anchor="middle" x="1385" y="-438" font-family="Helvetica,sans-Serif" font-size="10.00">exception</text>
</g>
<!-- Node1&#45;&gt;Node3 -->
<g id="edge2" class="edge"><title>Node1&#45;&gt;Node3</title>
<path fill="none" stroke="midnightblue" d="M753.254,-501.969C876.537,-502.242 1130.72,-497.119 1341,-456 1344.89,-455.24 1348.9,-454.237 1352.86,-453.111"/>
<polygon fill="midnightblue" stroke="midnightblue" points="1353.94,-456.44 1362.45,-450.131 1351.86,-449.755 1353.94,-456.44"/>
</g>
<!-- Node4 -->
<g id="node4" class="node"><title>Node4</title>
<polygon fill="white" stroke="#bfbfbf" points="295,-230 295,-249 339,-249 339,-230 295,-230"/>
<text text-anchor="middle" x="317" y="-237" font-family="Helvetica,sans-Serif" font-size="10.00">vector</text>
</g>
<!-- Node1&#45;&gt;Node4 -->
<g id="edge3" class="edge"><title>Node1&#45;&gt;Node4</title>
<path fill="none" stroke="midnightblue" d="M604.855,-500.623C455.389,-499.111 129.101,-491.708 94,-456 42.5314,-403.642 39.3929,-347.729 86,-291 138.344,-227.289 187.937,-274.72 268,-255 273.492,-253.647 279.287,-252.069 284.894,-250.462"/>
<polygon fill="midnightblue" stroke="midnightblue" points="286.074,-253.763 294.677,-247.579 284.095,-247.048 286.074,-253.763"/>
</g>
<!-- Node5 -->
<g id="node5" class="node"><title>Node5</title>
<polygon fill="white" stroke="#bfbfbf" points="854.5,-297 854.5,-316 929.5,-316 929.5,-297 854.5,-297"/>
<text text-anchor="middle" x="892" y="-304" font-family="Helvetica,sans-Serif" font-size="10.00">Eigen/Dense</text>
</g>
<!-- Node1&#45;&gt;Node5 -->
<g id="edge4" class="edge"><title>Node1&#45;&gt;Node5</title>
<path fill="none" stroke="midnightblue" d="M688.285,-492.461C698.015,-483.473 713.706,-468.872 727,-456 771.252,-413.152 778.515,-398.414 825,-358 839.879,-345.065 857.753,-331.691 871.297,-321.958"/>
<polygon fill="midnightblue" stroke="midnightblue" points="873.374,-324.776 879.496,-316.129 869.318,-319.071 873.374,-324.776"/>
</g>
<!-- Node6 -->
<g id="node6" class="node"><title>Node6</title>
<polygon fill="white" stroke="#bfbfbf" points="1187,-291.5 1187,-321.5 1299,-321.5 1299,-291.5 1187,-291.5"/>
<text text-anchor="start" x="1195" y="-309.5" font-family="Helvetica,sans-Serif" font-size="10.00">boost/math/constants</text>
<text text-anchor="middle" x="1243" y="-298.5" font-family="Helvetica,sans-Serif" font-size="10.00">/constants.hpp</text>
</g>
<!-- Node1&#45;&gt;Node6 -->
<g id="edge5" class="edge"><title>Node1&#45;&gt;Node6</title>
<path fill="none" stroke="midnightblue" d="M753.317,-496.595C845.547,-490.331 997.02,-477.195 1049,-456 1121.36,-426.496 1190.04,-362.549 1222.87,-329.014"/>
<polygon fill="midnightblue" stroke="midnightblue" points="1225.63,-331.194 1230.05,-321.568 1220.59,-326.332 1225.63,-331.194"/>
</g>
<!-- Node7 -->
<g id="node7" class="node"><title>Node7</title>
<g id="a_node7"><a xlink:href="../../d8/dfd/config_8hpp.html" target="_top" xlink:title="pfasst/config.hpp">
<polygon fill="white" stroke="black" points="1323.5,-112.5 1323.5,-131.5 1414.5,-131.5 1414.5,-112.5 1323.5,-112.5"/>
<text text-anchor="middle" x="1369" y="-119.5" font-family="Helvetica,sans-Serif" font-size="10.00">pfasst/config.hpp</text>
</a>
</g>
</g>
<!-- Node1&#45;&gt;Node7 -->
<g id="edge6" class="edge"><title>Node1&#45;&gt;Node7</title>
<path fill="none" stroke="midnightblue" d="M753.018,-501.942C923.043,-502.116 1327,-490.341 1327,-374.5 1327,-374.5 1327,-374.5 1327,-238.5 1327,-201.864 1345.89,-162.414 1358.34,-140.406"/>
<polygon fill="midnightblue" stroke="midnightblue" points="1361.47,-141.99 1363.51,-131.594 1355.43,-138.446 1361.47,-141.99"/>
</g>
<!-- Node16 -->
<g id="node16" class="node"><title>Node16</title>
<g id="a_node16"><a xlink:href="../../d1/d1b/interfaces_8hpp.html" target="_top" xlink:title="interfaces for SDC/MLSDC/PFASST algorithms. ">
<polygon fill="white" stroke="black" points="1062.5,-297 1062.5,-316 1169.5,-316 1169.5,-297 1062.5,-297"/>
<text text-anchor="middle" x="1116" y="-304" font-family="Helvetica,sans-Serif" font-size="10.00">pfasst/interfaces.hpp</text>
</a>
</g>
</g>
<!-- Node1&#45;&gt;Node16 -->
<g id="edge17" class="edge"><title>Node1&#45;&gt;Node16</title>
<path fill="none" stroke="midnightblue" d="M753.184,-496.887C838.191,-491.172 971.501,-478.854 1016,-456 1068.91,-428.826 1098.6,-359.297 1110.21,-325.921"/>
<polygon fill="midnightblue" stroke="midnightblue" points="1113.64,-326.695 1113.47,-316.102 1107,-324.493 1113.64,-326.695"/>
</g>
<!-- Node26 -->
<g id="node26" class="node"><title>Node26</title>
<g id="a_node26"><a xlink:href="../../d0/d3e/polynomial_8hpp.html" target="_top" xlink:title="pfasst/quadrature/polynomial.hpp">
<polygon fill="white" stroke="black" points="104,-297 104,-316 268,-316 268,-297 104,-297"/>
<text text-anchor="middle" x="186" y="-304" font-family="Helvetica,sans-Serif" font-size="10.00">pfasst/quadrature/polynomial.hpp</text>
</a>
</g>
</g>
<!-- Node1&#45;&gt;Node26 -->
<g id="edge34" class="edge"><title>Node1&#45;&gt;Node26</title>
<path fill="none" stroke="midnightblue" d="M604.846,-500.558C459.316,-498.915 147.569,-491.272 115,-456 85.4517,-424 95.031,-396.708 115,-358 123.557,-341.413 140.36,-329.083 155.472,-320.761"/>
<polygon fill="midnightblue" stroke="midnightblue" points="157.272,-323.771 164.573,-316.094 154.078,-317.542 157.272,-323.771"/>
</g>
<!-- Node30 -->
<g id="node30" class="node"><title>Node30</title>
<g id="a_node30"><a xlink:href="../../df/dea/quadrature_2interface_8hpp.html" target="_top" xlink:title="pfasst/quadrature/interface.hpp">
<polygon fill="white" stroke="black" points="616,-364 616,-383 770,-383 770,-364 616,-364"/>
<text text-anchor="middle" x="693" y="-371" font-family="Helvetica,sans-Serif" font-size="10.00">pfasst/quadrature/interface.hpp</text>
</a>
</g>
</g>
<!-- Node1&#45;&gt;Node30 -->
<g id="edge42" class="edge"><title>Node1&#45;&gt;Node30</title>
<path fill="none" stroke="midnightblue" d="M687.751,-492.286C695.563,-483.84 706.451,-470.246 711,-456 717.862,-434.509 709.72,-409.015 702.286,-392.335"/>
<polygon fill="midnightblue" stroke="midnightblue" points="705.381,-390.695 697.889,-383.203 699.074,-393.732 705.381,-390.695"/>
</g>
<!-- Node32 -->
<g id="node32" class="node"><title>Node32</title>
<g id="a_node32"><a xlink:href="../../d7/d77/gauss__lobatto_8hpp.html" target="_top" xlink:title="pfasst/quadrature/gauss\l_lobatto.hpp">
<polygon fill="white" stroke="black" points="410.5,-425.5 410.5,-455.5 535.5,-455.5 535.5,-425.5 410.5,-425.5"/>
<text text-anchor="start" x="418.5" y="-443.5" font-family="Helvetica,sans-Serif" font-size="10.00">pfasst/quadrature/gauss</text>
<text text-anchor="middle" x="473" y="-432.5" font-family="Helvetica,sans-Serif" font-size="10.00">_lobatto.hpp</text>
</a>
</g>
</g>
<!-- Node1&#45;&gt;Node32 -->
<g id="edge51" class="edge"><title>Node1&#45;&gt;Node32</title>
<path fill="none" stroke="midnightblue" d="M649.485,-492.475C618.848,-483.626 570.11,-469.549 531.607,-458.428"/>
<polygon fill="midnightblue" stroke="midnightblue" points="532.129,-454.935 521.55,-455.523 530.186,-461.661 532.129,-454.935"/>
</g>
<!-- Node34 -->
<g id="node34" class="node"><title>Node34</title>
<g id="a_node34"><a xlink:href="../../de/d36/gauss__legendre_8hpp.html" target="_top" xlink:title="pfasst/quadrature/gauss\l_legendre.hpp">
<polygon fill="white" stroke="black" points="124.5,-425.5 124.5,-455.5 249.5,-455.5 249.5,-425.5 124.5,-425.5"/>
<text text-anchor="start" x="132.5" y="-443.5" font-family="Helvetica,sans-Serif" font-size="10.00">pfasst/quadrature/gauss</text>
<text text-anchor="middle" x="187" y="-432.5" font-family="Helvetica,sans-Serif" font-size="10.00">_legendre.hpp</text>
</a>
</g>
</g>
<!-- Node1&#45;&gt;Node34 -->
<g id="edge58" class="edge"><title>Node1&#45;&gt;Node34</title>
<path fill="none" stroke="midnightblue" d="M604.954,-495.228C522.873,-488.346 386.374,-475.471 259.912,-456.212"/>
<polygon fill="midnightblue" stroke="midnightblue" points="260.078,-452.696 249.662,-454.633 259.012,-459.615 260.078,-452.696"/>
</g>
<!-- Node36 -->
<g id="node36" class="node"><title>Node36</title>
<g id="a_node36"><a xlink:href="../../d5/d98/gauss__radau_8hpp.html" target="_top" xlink:title="pfasst/quadrature/gauss\l_radau.hpp">
<polygon fill="white" stroke="black" points="267.5,-425.5 267.5,-455.5 392.5,-455.5 392.5,-425.5 267.5,-425.5"/>
<text text-anchor="start" x="275.5" y="-443.5" font-family="Helvetica,sans-Serif" font-size="10.00">pfasst/quadrature/gauss</text>
<text text-anchor="middle" x="330" y="-432.5" font-family="Helvetica,sans-Serif" font-size="10.00">_radau.hpp</text>
</a>
</g>
</g>
<!-- Node1&#45;&gt;Node36 -->
<g id="edge64" class="edge"><title>Node1&#45;&gt;Node36</title>
<path fill="none" stroke="midnightblue" d="M622.179,-492.5C568.109,-484.253 484.218,-471.051 402.629,-456.26"/>
<polygon fill="midnightblue" stroke="midnightblue" points="403.158,-452.799 392.693,-454.449 401.903,-459.685 403.158,-452.799"/>
</g>
<!-- Node38 -->
<g id="node38" class="node"><title>Node38</title>
<g id="a_node38"><a xlink:href="../../de/d84/clenshaw__curtis_8hpp.html" target="_top" xlink:title="pfasst/quadrature/clenshaw\l_curtis.hpp">
<polygon fill="white" stroke="black" points="867,-425.5 867,-455.5 1007,-455.5 1007,-425.5 867,-425.5"/>
<text text-anchor="start" x="875" y="-443.5" font-family="Helvetica,sans-Serif" font-size="10.00">pfasst/quadrature/clenshaw</text>
<text text-anchor="middle" x="937" y="-432.5" font-family="Helvetica,sans-Serif" font-size="10.00">_curtis.hpp</text>
</a>
</g>
</g>
<!-- Node1&#45;&gt;Node38 -->
<g id="edge71" class="edge"><title>Node1&#45;&gt;Node38</title>
<path fill="none" stroke="midnightblue" d="M715.965,-492.475C755.071,-483.456 817.723,-469.008 866.355,-457.792"/>
<polygon fill="midnightblue" stroke="midnightblue" points="867.237,-461.181 876.195,-455.523 865.664,-454.36 867.237,-461.181"/>
</g>
<!-- Node40 -->
<g id="node40" class="node"><title>Node40</title>
<g id="a_node40"><a xlink:href="../../d6/dbd/uniform_8hpp.html" target="_top" xlink:title="pfasst/quadrature/uniform.hpp">
<polygon fill="white" stroke="black" points="554,-431 554,-450 702,-450 702,-431 554,-431"/>
<text text-anchor="middle" x="628" y="-438" font-family="Helvetica,sans-Serif" font-size="10.00">pfasst/quadrature/uniform.hpp</text>
</a>
</g>
</g>
<!-- Node1&#45;&gt;Node40 -->
<g id="edge81" class="edge"><title>Node1&#45;&gt;Node40</title>
<path fill="none" stroke="midnightblue" d="M671.693,-492.475C663.967,-483.462 651.592,-469.025 641.982,-457.812"/>
<polygon fill="midnightblue" stroke="midnightblue" points="644.459,-455.324 635.294,-450.009 639.144,-459.879 644.459,-455.324"/>
</g>
<!-- Node8 -->
<g id="node8" class="node"><title>Node8</title>
<polygon fill="white" stroke="#bfbfbf" points="1452,-0.5 1452,-19.5 1502,-19.5 1502,-0.5 1452,-0.5"/>
<text text-anchor="middle" x="1477" y="-7.5" font-family="Helvetica,sans-Serif" font-size="10.00">fstream</text>
</g>
<!-- Node7&#45;&gt;Node8 -->
<g id="edge7" class="edge"><title>Node7&#45;&gt;Node8</title>
<path fill="none" stroke="midnightblue" d="M1391.66,-112.398C1408.72,-104.954 1431.72,-92.7408 1447,-76 1459.17,-62.674 1467.18,-43.5564 1471.84,-29.5027"/>
<polygon fill="midnightblue" stroke="midnightblue" points="1475.32,-30.1106 1474.87,-19.525 1468.62,-28.075 1475.32,-30.1106"/>
</g>
<!-- Node9 -->
<g id="node9" class="node"><title>Node9</title>
<polygon fill="white" stroke="#bfbfbf" points="1172,-56.5 1172,-75.5 1228,-75.5 1228,-56.5 1172,-56.5"/>
<text text-anchor="middle" x="1200" y="-63.5" font-family="Helvetica,sans-Serif" font-size="10.00">iostream</text>
</g>
<!-- Node7&#45;&gt;Node9 -->
<g id="edge8" class="edge"><title>Node7&#45;&gt;Node9</title>
<path fill="none" stroke="midnightblue" d="M1342.22,-112.444C1313.67,-103.32 1268.27,-88.8133 1236.46,-78.6509"/>
<polygon fill="midnightblue" stroke="midnightblue" points="1237.24,-75.2262 1226.65,-75.5164 1235.11,-81.8941 1237.24,-75.2262"/>
</g>
<!-- Node10 -->
<g id="node10" class="node"><title>Node10</title>
<polygon fill="white" stroke="#bfbfbf" points="857.5,-56.5 857.5,-75.5 898.5,-75.5 898.5,-56.5 857.5,-56.5"/>
<text text-anchor="middle" x="878" y="-63.5" font-family="Helvetica,sans-Serif" font-size="10.00">string</text>
</g>
<!-- Node7&#45;&gt;Node10 -->
<g id="edge9" class="edge"><title>Node7&#45;&gt;Node10</title>
<path fill="none" stroke="midnightblue" d="M1323.25,-115.968C1224.27,-105.082 992.427,-79.5846 908.78,-70.3852"/>
<polygon fill="midnightblue" stroke="midnightblue" points="908.981,-66.8863 898.658,-69.272 908.216,-73.8443 908.981,-66.8863"/>
</g>
<!-- Node11 -->
<g id="node11" class="node"><title>Node11</title>
<polygon fill="white" stroke="#bfbfbf" points="1246,-56.5 1246,-75.5 1282,-75.5 1282,-56.5 1246,-56.5"/>
<text text-anchor="middle" x="1264" y="-63.5" font-family="Helvetica,sans-Serif" font-size="10.00">map</text>
</g>
<!-- Node7&#45;&gt;Node11 -->
<g id="edge10" class="edge"><title>Node7&#45;&gt;Node11</title>
<path fill="none" stroke="midnightblue" d="M1352.13,-112.324C1335.29,-103.664 1309.19,-90.2424 1289.76,-80.249"/>
<polygon fill="midnightblue" stroke="midnightblue" points="1291.32,-77.1155 1280.83,-75.6545 1288.12,-83.3405 1291.32,-77.1155"/>
</g>
<!-- Node12 -->
<g id="node12" class="node"><title>Node12</title>
<polygon fill="white" stroke="#bfbfbf" points="1300.5,-56.5 1300.5,-75.5 1437.5,-75.5 1437.5,-56.5 1300.5,-56.5"/>
<text text-anchor="middle" x="1369" y="-63.5" font-family="Helvetica,sans-Serif" font-size="10.00">boost/program_options.hpp</text>
</g>
<!-- Node7&#45;&gt;Node12 -->
<g id="edge11" class="edge"><title>Node7&#45;&gt;Node12</title>
<path fill="none" stroke="midnightblue" d="M1369,-112.083C1369,-105.006 1369,-94.8611 1369,-85.9865"/>
<polygon fill="midnightblue" stroke="midnightblue" points="1372.5,-85.751 1369,-75.7511 1365.5,-85.7511 1372.5,-85.751"/>
</g>
<!-- Node13 -->
<g id="node13" class="node"><title>Node13</title>
<g id="a_node13"><a xlink:href="../../d5/d84/config__impl_8hpp.html" target="_top" xlink:title="pfasst/config_impl.hpp">
<polygon fill="white" stroke="black" points="1494,-56.5 1494,-75.5 1608,-75.5 1608,-56.5 1494,-56.5"/>
<text text-anchor="middle" x="1551" y="-63.5" font-family="Helvetica,sans-Serif" font-size="10.00">pfasst/config_impl.hpp</text>
</a>
</g>
</g>
<!-- Node7&#45;&gt;Node13 -->
<g id="edge12" class="edge"><title>Node7&#45;&gt;Node13</title>
<path fill="none" stroke="midnightblue" d="M1392.75,-112.444C1421.87,-103.201 1471.47,-88.4356 1507.45,-78.2572"/>
<polygon fill="midnightblue" stroke="midnightblue" points="1508.53,-81.5894 1517.22,-75.5164 1506.64,-74.85 1508.53,-81.5894"/>
</g>
<!-- Node13&#45;&gt;Node7 -->
<g id="edge13" class="edge"><title>Node13&#45;&gt;Node7</title>
<path fill="none" stroke="midnightblue" d="M1527.38,-75.5164C1498.31,-84.7429 1448.73,-99.507 1412.7,-109.699"/>
<polygon fill="midnightblue" stroke="midnightblue" points="1411.61,-106.37 1402.93,-112.444 1413.5,-113.109 1411.61,-106.37"/>
</g>
<!-- Node13&#45;&gt;Node8 -->
<g id="edge14" class="edge"><title>Node13&#45;&gt;Node8</title>
<path fill="none" stroke="midnightblue" d="M1539.11,-56.324C1527.85,-48.1066 1510.71,-35.6017 1497.29,-25.8069"/>
<polygon fill="midnightblue" stroke="midnightblue" points="1499.25,-22.9014 1489.11,-19.8339 1495.12,-28.5559 1499.25,-22.9014"/>
</g>
<!-- Node14 -->
<g id="node14" class="node"><title>Node14</title>
<polygon fill="white" stroke="#bfbfbf" points="1582.5,-0.5 1582.5,-19.5 1635.5,-19.5 1635.5,-0.5 1582.5,-0.5"/>
<text text-anchor="middle" x="1609" y="-7.5" font-family="Helvetica,sans-Serif" font-size="10.00">sstream</text>
</g>
<!-- Node13&#45;&gt;Node14 -->
<g id="edge15" class="edge"><title>Node13&#45;&gt;Node14</title>
<path fill="none" stroke="midnightblue" d="M1560.32,-56.324C1568.89,-48.3414 1581.81,-36.3128 1592.19,-26.6529"/>
<polygon fill="midnightblue" stroke="midnightblue" points="1594.58,-29.2098 1599.51,-19.8339 1589.81,-24.0865 1594.58,-29.2098"/>
</g>
<!-- Node15 -->
<g id="node15" class="node"><title>Node15</title>
<polygon fill="white" stroke="#bfbfbf" points="1526,-0.5 1526,-19.5 1564,-19.5 1564,-0.5 1526,-0.5"/>
<text text-anchor="middle" x="1545" y="-7.5" font-family="Helvetica,sans-Serif" font-size="10.00">utility</text>
</g>
<!-- Node13&#45;&gt;Node15 -->
<g id="edge16" class="edge"><title>Node13&#45;&gt;Node15</title>
<path fill="none" stroke="midnightblue" d="M1550.01,-56.083C1549.21,-48.9272 1548.07,-38.6353 1547.08,-29.6911"/>
<polygon fill="midnightblue" stroke="midnightblue" points="1550.56,-29.3034 1545.97,-19.7511 1543.6,-30.0765 1550.56,-29.3034"/>
</g>
<!-- Node16&#45;&gt;Node10 -->
<g id="edge20" class="edge"><title>Node16&#45;&gt;Node10</title>
<path fill="none" stroke="midnightblue" d="M1078.87,-296.932C1003.94,-278.807 839.012,-234.421 807,-188 781.704,-151.318 828.82,-105.272 857.772,-81.977"/>
<polygon fill="midnightblue" stroke="midnightblue" points="859.993,-84.6834 865.728,-75.7746 855.69,-79.1628 859.993,-84.6834"/>
</g>
<!-- Node17 -->
<g id="node17" class="node"><title>Node17</title>
<polygon fill="white" stroke="#bfbfbf" points="1151.5,-168.5 1151.5,-187.5 1204.5,-187.5 1204.5,-168.5 1151.5,-168.5"/>
<text text-anchor="middle" x="1178" y="-175.5" font-family="Helvetica,sans-Serif" font-size="10.00">memory</text>
</g>
<!-- Node16&#45;&gt;Node17 -->
<g id="edge18" class="edge"><title>Node16&#45;&gt;Node17</title>
<path fill="none" stroke="midnightblue" d="M1125.41,-296.717C1134.97,-287.284 1149.54,-271.424 1158,-255 1167.35,-236.845 1172.6,-213.94 1175.35,-198.046"/>
<polygon fill="midnightblue" stroke="midnightblue" points="1178.86,-198.299 1176.94,-187.879 1171.94,-197.221 1178.86,-198.299"/>
</g>
<!-- Node18 -->
<g id="node18" class="node"><title>Node18</title>
<polygon fill="white" stroke="#bfbfbf" points="473,-230 473,-249 533,-249 533,-230 473,-230"/>
<text text-anchor="middle" x="503" y="-237" font-family="Helvetica,sans-Serif" font-size="10.00">stdexcept</text>
</g>
<!-- Node16&#45;&gt;Node18 -->
<g id="edge19" class="edge"><title>Node16&#45;&gt;Node18</title>
<path fill="none" stroke="midnightblue" d="M1062.4,-297.778C1045.63,-295.468 1027.06,-293.016 1010,-291 836.495,-270.499 628.922,-251.572 543.131,-243.993"/>
<polygon fill="midnightblue" stroke="midnightblue" points="543.311,-240.496 533.043,-243.105 542.697,-247.469 543.311,-240.496"/>
</g>
<!-- Node19 -->
<g id="node19" class="node"><title>Node19</title>
<g id="a_node19"><a xlink:href="../../d8/dc4/interfaces__impl_8hpp.html" target="_top" xlink:title="pfasst/interfaces_impl.hpp">
<polygon fill="white" stroke="black" points="1018.5,-230 1018.5,-249 1149.5,-249 1149.5,-230 1018.5,-230"/>
<text text-anchor="middle" x="1084" y="-237" font-family="Helvetica,sans-Serif" font-size="10.00">pfasst/interfaces_impl.hpp</text>
</a>
</g>
</g>
<!-- Node16&#45;&gt;Node19 -->
<g id="edge21" class="edge"><title>Node16&#45;&gt;Node19</title>
<path fill="none" stroke="midnightblue" d="M1106.9,-296.734C1100.12,-287.085 1091.89,-271.3 1086.91,-258.906"/>
<polygon fill="midnightblue" stroke="midnightblue" points="1090.1,-257.41 1083.49,-249.127 1083.49,-259.722 1090.1,-257.41"/>
</g>
<!-- Node19&#45;&gt;Node10 -->
<g id="edge25" class="edge"><title>Node19&#45;&gt;Node10</title>
<path fill="none" stroke="midnightblue" d="M1054.51,-229.997C1012.59,-216.36 936.275,-185.543 895,-132 884.773,-118.733 880.67,-99.8962 879.039,-85.9133"/>
<polygon fill="midnightblue" stroke="midnightblue" points="882.526,-85.6066 878.191,-75.9391 875.551,-86.1997 882.526,-85.6066"/>
</g>
<!-- Node19&#45;&gt;Node16 -->
<g id="edge22" class="edge"><title>Node19&#45;&gt;Node16</title>
<path fill="none" stroke="midnightblue" d="M1093.01,-249.127C1099.84,-258.814 1108.17,-274.808 1113.17,-287.29"/>
<polygon fill="midnightblue" stroke="midnightblue" points="1109.87,-288.451 1116.47,-296.734 1116.47,-286.139 1109.87,-288.451"/>
</g>
<!-- Node19&#45;&gt;Node17 -->
<g id="edge24" class="edge"><title>Node19&#45;&gt;Node17</title>
<path fill="none" stroke="midnightblue" d="M1097.47,-229.975C1112.68,-220.343 1137.69,-204.517 1155.8,-193.052"/>
<polygon fill="midnightblue" stroke="midnightblue" points="1157.98,-195.815 1164.56,-187.509 1154.24,-189.9 1157.98,-195.815"/>
</g>
<!-- Node20 -->
<g id="node20" class="node"><title>Node20</title>
<polygon fill="white" stroke="#bfbfbf" points="660,-168.5 660,-187.5 710,-187.5 710,-168.5 660,-168.5"/>
<text text-anchor="middle" x="685" y="-175.5" font-family="Helvetica,sans-Serif" font-size="10.00">cassert</text>
</g>
<!-- Node19&#45;&gt;Node20 -->
<g id="edge23" class="edge"><title>Node19&#45;&gt;Node20</title>
<path fill="none" stroke="midnightblue" d="M1026.83,-229.975C943.004,-217.474 789.215,-194.541 720.177,-184.246"/>
<polygon fill="midnightblue" stroke="midnightblue" points="720.643,-180.777 710.236,-182.763 719.61,-187.7 720.643,-180.777"/>
</g>
<!-- Node21 -->
<g id="node21" class="node"><title>Node21</title>
<g id="a_node21"><a xlink:href="../../d5/d82/globals_8hpp.html" target="_top" xlink:title="pfasst/globals.hpp">
<polygon fill="white" stroke="black" points="816.5,-168.5 816.5,-187.5 913.5,-187.5 913.5,-168.5 816.5,-168.5"/>
<text text-anchor="middle" x="865" y="-175.5" font-family="Helvetica,sans-Serif" font-size="10.00">pfasst/globals.hpp</text>
</a>
</g>
</g>
<!-- Node19&#45;&gt;Node21 -->
<g id="edge26" class="edge"><title>Node19&#45;&gt;Node21</title>
<path fill="none" stroke="midnightblue" d="M1052.62,-229.975C1014.08,-219.504 948.595,-201.712 906.076,-190.16"/>
<polygon fill="midnightblue" stroke="midnightblue" points="906.887,-186.753 896.319,-187.509 905.052,-193.509 906.887,-186.753"/>
</g>
<!-- Node22 -->
<g id="node22" class="node"><title>Node22</title>
<g id="a_node22"><a xlink:href="../../d0/da9/logging_8hpp.html" target="_top" xlink:title="pfasst/logging.hpp">
<polygon fill="white" stroke="black" points="1036,-168.5 1036,-187.5 1134,-187.5 1134,-168.5 1036,-168.5"/>
<text text-anchor="middle" x="1085" y="-175.5" font-family="Helvetica,sans-Serif" font-size="10.00">pfasst/logging.hpp</text>
</a>
</g>
</g>
<!-- Node19&#45;&gt;Node22 -->
<g id="edge27" class="edge"><title>Node19&#45;&gt;Node22</title>
<path fill="none" stroke="midnightblue" d="M1084.14,-229.975C1084.28,-221.58 1084.5,-208.481 1084.69,-197.663"/>
<polygon fill="midnightblue" stroke="midnightblue" points="1088.19,-197.567 1084.86,-187.509 1081.19,-197.449 1088.19,-197.567"/>
</g>
<!-- Node22&#45;&gt;Node7 -->
<g id="edge32" class="edge"><title>Node22&#45;&gt;Node7</title>
<path fill="none" stroke="midnightblue" d="M1130,-168.444C1179.96,-158.944 1260.6,-143.611 1314.2,-133.42"/>
<polygon fill="midnightblue" stroke="midnightblue" points="1315.04,-136.823 1324.21,-131.516 1313.73,-129.946 1315.04,-136.823"/>
</g>
<!-- Node22&#45;&gt;Node9 -->
<g id="edge29" class="edge"><title>Node22&#45;&gt;Node9</title>
<path fill="none" stroke="midnightblue" d="M1134.04,-168.68C1187.64,-159.092 1267.12,-143.218 1276,-132 1292.68,-110.935 1261.42,-91.5851 1234.09,-79.5744"/>
<polygon fill="midnightblue" stroke="midnightblue" points="1235.24,-76.2646 1224.67,-75.6413 1232.55,-82.7241 1235.24,-76.2646"/>
</g>
<!-- Node22&#45;&gt;Node10 -->
<g id="edge30" class="edge"><title>Node22&#45;&gt;Node10</title>
<path fill="none" stroke="midnightblue" d="M1035.85,-173.864C999.564,-169.345 950.659,-158.403 916,-132 900.437,-120.144 890.083,-99.9331 884.166,-85.1892"/>
<polygon fill="midnightblue" stroke="midnightblue" points="887.379,-83.7856 880.632,-75.6172 880.812,-86.2105 887.379,-83.7856"/>
</g>
<!-- Node23 -->
<g id="node23" class="node"><title>Node23</title>
<polygon fill="white" stroke="#bfbfbf" points="1215,-112.5 1215,-131.5 1267,-131.5 1267,-112.5 1215,-112.5"/>
<text text-anchor="middle" x="1241" y="-119.5" font-family="Helvetica,sans-Serif" font-size="10.00">iomanip</text>
</g>
<!-- Node22&#45;&gt;Node23 -->
<g id="edge28" class="edge"><title>Node22&#45;&gt;Node23</title>
<path fill="none" stroke="midnightblue" d="M1109.72,-168.444C1135.85,-159.399 1177.26,-145.064 1206.58,-134.916"/>
<polygon fill="midnightblue" stroke="midnightblue" points="1208.09,-138.095 1216.4,-131.516 1205.8,-131.48 1208.09,-138.095"/>
</g>
<!-- Node24 -->
<g id="node24" class="node"><title>Node24</title>
<polygon fill="white" stroke="#bfbfbf" points="925.5,-112.5 925.5,-131.5 1056.5,-131.5 1056.5,-112.5 925.5,-112.5"/>
<text text-anchor="middle" x="991" y="-119.5" font-family="Helvetica,sans-Serif" font-size="10.00">boost/algorithm/string.hpp</text>
</g>
<!-- Node22&#45;&gt;Node24 -->
<g id="edge31" class="edge"><title>Node22&#45;&gt;Node24</title>
<path fill="none" stroke="midnightblue" d="M1069.9,-168.324C1055.1,-159.822 1032.31,-146.729 1015.02,-136.797"/>
<polygon fill="midnightblue" stroke="midnightblue" points="1016.48,-133.601 1006.07,-131.655 1012.99,-139.671 1016.48,-133.601"/>
</g>
<!-- Node25 -->
<g id="node25" class="node"><title>Node25</title>
<polygon fill="white" stroke="#bfbfbf" points="1075,-112.5 1075,-131.5 1197,-131.5 1197,-112.5 1075,-112.5"/>
<text text-anchor="middle" x="1136" y="-119.5" font-family="Helvetica,sans-Serif" font-size="10.00">pfasst/easylogging++.h</text>
</g>
<!-- Node22&#45;&gt;Node25 -->
<g id="edge33" class="edge"><title>Node22&#45;&gt;Node25</title>
<path fill="none" stroke="midnightblue" d="M1093.42,-168.083C1100.85,-160.22 1111.85,-148.569 1120.81,-139.081"/>
<polygon fill="midnightblue" stroke="midnightblue" points="1123.41,-141.424 1127.74,-131.751 1118.32,-136.618 1123.41,-141.424"/>
</g>
<!-- Node26&#45;&gt;Node4 -->
<g id="edge35" class="edge"><title>Node26&#45;&gt;Node4</title>
<path fill="none" stroke="midnightblue" d="M203.396,-296.869C225.613,-285.845 264.287,-266.655 290.26,-253.768"/>
<polygon fill="midnightblue" stroke="midnightblue" points="292.13,-256.747 299.532,-249.167 289.019,-250.477 292.13,-256.747"/>
</g>
<!-- Node27 -->
<g id="node27" class="node"><title>Node27</title>
<g id="a_node27"><a xlink:href="../../dc/de8/polynomial__impl_8hpp.html" target="_top" xlink:title="pfasst/quadrature/polynomial\l_impl.hpp">
<polygon fill="white" stroke="black" points="113,-224.5 113,-254.5 259,-254.5 259,-224.5 113,-224.5"/>
<text text-anchor="start" x="121" y="-242.5" font-family="Helvetica,sans-Serif" font-size="10.00">pfasst/quadrature/polynomial</text>
<text text-anchor="middle" x="186" y="-231.5" font-family="Helvetica,sans-Serif" font-size="10.00">_impl.hpp</text>
</a>
</g>
</g>
<!-- Node26&#45;&gt;Node27 -->
<g id="edge36" class="edge"><title>Node26&#45;&gt;Node27</title>
<path fill="none" stroke="midnightblue" d="M181.211,-296.734C179.487,-288.541 178.9,-275.923 179.449,-264.714"/>
<polygon fill="midnightblue" stroke="midnightblue" points="182.95,-264.853 180.324,-254.589 175.976,-264.251 182.95,-264.853"/>
</g>
<!-- Node27&#45;&gt;Node2 -->
<g id="edge40" class="edge"><title>Node27&#45;&gt;Node2</title>
<path fill="none" stroke="midnightblue" d="M151.4,-224.399C126.904,-214.416 94.3427,-201.147 70.7545,-191.534"/>
<polygon fill="midnightblue" stroke="midnightblue" points="71.8257,-188.191 61.2443,-187.658 69.1839,-194.673 71.8257,-188.191"/>
</g>
<!-- Node27&#45;&gt;Node20 -->
<g id="edge39" class="edge"><title>Node27&#45;&gt;Node20</title>
<path fill="none" stroke="midnightblue" d="M259.147,-227.621C268.185,-226.357 277.301,-225.121 286,-224 420.155,-206.713 580.171,-189.779 649.77,-182.594"/>
<polygon fill="midnightblue" stroke="midnightblue" points="650.169,-186.072 659.758,-181.566 649.452,-179.109 650.169,-186.072"/>
</g>
<!-- Node27&#45;&gt;Node26 -->
<g id="edge37" class="edge"><title>Node27&#45;&gt;Node26</title>
<path fill="none" stroke="midnightblue" d="M191.676,-254.589C192.912,-264.001 193.081,-276.487 192.183,-286.739"/>
<polygon fill="midnightblue" stroke="midnightblue" points="188.703,-286.346 190.789,-296.734 195.636,-287.313 188.703,-286.346"/>
</g>
<!-- Node28 -->
<g id="node28" class="node"><title>Node28</title>
<polygon fill="white" stroke="#bfbfbf" points="120,-168.5 120,-187.5 178,-187.5 178,-168.5 120,-168.5"/>
<text text-anchor="middle" x="149" y="-175.5" font-family="Helvetica,sans-Serif" font-size="10.00">algorithm</text>
</g>
<!-- Node27&#45;&gt;Node28 -->
<g id="edge38" class="edge"><title>Node27&#45;&gt;Node28</title>
<path fill="none" stroke="midnightblue" d="M177.232,-224.399C172.021,-216.021 165.371,-205.327 159.834,-196.423"/>
<polygon fill="midnightblue" stroke="midnightblue" points="162.637,-194.302 154.384,-187.658 156.692,-197.998 162.637,-194.302"/>
</g>
<!-- Node29 -->
<g id="node29" class="node"><title>Node29</title>
<polygon fill="white" stroke="#bfbfbf" points="196.5,-168.5 196.5,-187.5 251.5,-187.5 251.5,-168.5 196.5,-168.5"/>
<text text-anchor="middle" x="224" y="-175.5" font-family="Helvetica,sans-Serif" font-size="10.00">complex</text>
</g>
<!-- Node27&#45;&gt;Node29 -->
<g id="edge41" class="edge"><title>Node27&#45;&gt;Node29</title>
<path fill="none" stroke="midnightblue" d="M195.005,-224.399C200.413,-215.932 207.332,-205.099 213.054,-196.139"/>
<polygon fill="midnightblue" stroke="midnightblue" points="216.038,-197.97 218.471,-187.658 210.138,-194.202 216.038,-197.97"/>
</g>
<!-- Node30&#45;&gt;Node4 -->
<g id="edge44" class="edge"><title>Node30&#45;&gt;Node4</title>
<path fill="none" stroke="midnightblue" d="M680.549,-363.995C665.977,-354.017 641.147,-336.935 620,-322 600.756,-308.409 598.624,-300.353 577,-291 499.577,-257.511 399.601,-246.086 349.154,-242.3"/>
<polygon fill="midnightblue" stroke="midnightblue" points="349.387,-238.808 339.167,-241.603 348.899,-245.791 349.387,-238.808"/>
</g>
<!-- Node30&#45;&gt;Node5 -->
<g id="edge45" class="edge"><title>Node30&#45;&gt;Node5</title>
<path fill="none" stroke="midnightblue" d="M719.426,-363.869C754.537,-352.4 816.703,-332.094 856.056,-319.24"/>
<polygon fill="midnightblue" stroke="midnightblue" points="857.363,-322.496 865.782,-316.064 855.189,-315.842 857.363,-322.496"/>
</g>
<!-- Node30&#45;&gt;Node16 -->
<g id="edge47" class="edge"><title>Node30&#45;&gt;Node16</title>
<path fill="none" stroke="midnightblue" d="M748.735,-363.936C827.233,-351.873 969.969,-329.94 1052.48,-317.261"/>
<polygon fill="midnightblue" stroke="midnightblue" points="1053.13,-320.702 1062.48,-315.724 1052.06,-313.784 1053.13,-320.702"/>
</g>
<!-- Node30&#45;&gt;Node20 -->
<g id="edge43" class="edge"><title>Node30&#45;&gt;Node20</title>
<path fill="none" stroke="midnightblue" d="M683.19,-363.995C673.392,-354.789 658.956,-339.112 653,-322 637.724,-278.112 660.54,-224.05 674.866,-196.677"/>
<polygon fill="midnightblue" stroke="midnightblue" points="678.118,-198.023 679.843,-187.57 671.976,-194.666 678.118,-198.023"/>
</g>
<!-- Node30&#45;&gt;Node21 -->
<g id="edge46" class="edge"><title>Node30&#45;&gt;Node21</title>
<path fill="none" stroke="midnightblue" d="M729.818,-363.959C754.483,-356.548 786.139,-343.533 807,-322 841.547,-286.341 856.471,-227.369 862.078,-197.526"/>
<polygon fill="midnightblue" stroke="midnightblue" points="865.535,-198.074 863.793,-187.624 858.638,-196.88 865.535,-198.074"/>
</g>
<!-- Node30&#45;&gt;Node26 -->
<g id="edge48" class="edge"><title>Node30&#45;&gt;Node26</title>
<path fill="none" stroke="midnightblue" d="M626.458,-363.969C532.564,-351.931 361.621,-330.016 262.569,-317.317"/>
<polygon fill="midnightblue" stroke="midnightblue" points="262.988,-313.842 252.624,-316.042 262.098,-320.785 262.988,-313.842"/>
</g>
<!-- Node31 -->
<g id="node31" class="node"><title>Node31</title>
<g id="a_node31"><a xlink:href="../../de/da5/quadrature_2interface__impl_8hpp.html" target="_top" xlink:title="pfasst/quadrature/interface\l_impl.hpp">
<polygon fill="white" stroke="black" points="662,-291.5 662,-321.5 798,-321.5 798,-291.5 662,-291.5"/>
<text text-anchor="start" x="670" y="-309.5" font-family="Helvetica,sans-Serif" font-size="10.00">pfasst/quadrature/interface</text>
<text text-anchor="middle" x="730" y="-298.5" font-family="Helvetica,sans-Serif" font-size="10.00">_impl.hpp</text>
</a>
</g>
</g>
<!-- Node30&#45;&gt;Node31 -->
<g id="edge49" class="edge"><title>Node30&#45;&gt;Node31</title>
<path fill="none" stroke="midnightblue" d="M693.201,-363.734C696.293,-355.118 703.426,-341.61 710.74,-329.992"/>
<polygon fill="midnightblue" stroke="midnightblue" points="713.701,-331.859 716.304,-321.589 707.865,-327.995 713.701,-331.859"/>
</g>
<!-- Node31&#45;&gt;Node30 -->
<g id="edge50" class="edge"><title>Node31&#45;&gt;Node30</title>
<path fill="none" stroke="midnightblue" d="M727.657,-321.589C723.316,-331.502 715.85,-344.824 708.79,-355.355"/>
<polygon fill="midnightblue" stroke="midnightblue" points="705.764,-353.568 702.779,-363.734 711.452,-357.649 705.764,-353.568"/>
</g>
<!-- Node32&#45;&gt;Node30 -->
<g id="edge52" class="edge"><title>Node32&#45;&gt;Node30</title>
<path fill="none" stroke="midnightblue" d="M520.466,-425.476C560.415,-413.673 616.843,-397.001 654.148,-385.979"/>
<polygon fill="midnightblue" stroke="midnightblue" points="655.535,-389.219 664.134,-383.029 653.552,-382.506 655.535,-389.219"/>
</g>
<!-- Node33 -->
<g id="node33" class="node"><title>Node33</title>
<g id="a_node33"><a xlink:href="../../d7/d04/gauss__lobatto__impl_8hpp.html" target="_top" xlink:title="pfasst/quadrature/gauss\l_lobatto_impl.hpp">
<polygon fill="white" stroke="black" points="410.5,-358.5 410.5,-388.5 535.5,-388.5 535.5,-358.5 410.5,-358.5"/>
<text text-anchor="start" x="418.5" y="-376.5" font-family="Helvetica,sans-Serif" font-size="10.00">pfasst/quadrature/gauss</text>
<text text-anchor="middle" x="473" y="-365.5" font-family="Helvetica,sans-Serif" font-size="10.00">_lobatto_impl.hpp</text>
</a>
</g>
</g>
<!-- Node32&#45;&gt;Node33 -->
<g id="edge53" class="edge"><title>Node32&#45;&gt;Node33</title>
<path fill="none" stroke="midnightblue" d="M467.322,-425.396C466.294,-417.56 466.005,-407.596 466.456,-398.565"/>
<polygon fill="midnightblue" stroke="midnightblue" points="469.945,-398.842 467.325,-388.577 462.972,-398.236 469.945,-398.842"/>
</g>
<!-- Node33&#45;&gt;Node4 -->
<g id="edge56" class="edge"><title>Node33&#45;&gt;Node4</title>
<path fill="none" stroke="midnightblue" d="M456.305,-358.374C426.705,-333.327 365.283,-281.355 334.865,-255.617"/>
<polygon fill="midnightblue" stroke="midnightblue" points="337.055,-252.885 327.16,-249.097 332.533,-258.229 337.055,-252.885"/>
</g>
<!-- Node33&#45;&gt;Node18 -->
<g id="edge55" class="edge"><title>Node33&#45;&gt;Node18</title>
<path fill="none" stroke="midnightblue" d="M456.196,-358.407C439.003,-342.192 416.458,-314.744 429,-291 437.988,-273.985 455.572,-261.621 471.344,-253.387"/>
<polygon fill="midnightblue" stroke="midnightblue" points="472.879,-256.533 480.342,-249.012 469.818,-250.237 472.879,-256.533"/>
</g>
<!-- Node33&#45;&gt;Node26 -->
<g id="edge57" class="edge"><title>Node33&#45;&gt;Node26</title>
<path fill="none" stroke="midnightblue" d="M411.079,-358.476C357.849,-346.421 282.195,-329.286 233.599,-318.28"/>
<polygon fill="midnightblue" stroke="midnightblue" points="234.183,-314.824 223.657,-316.029 232.637,-321.651 234.183,-314.824"/>
</g>
<!-- Node33&#45;&gt;Node32 -->
<g id="edge54" class="edge"><title>Node33&#45;&gt;Node32</title>
<path fill="none" stroke="midnightblue" d="M478.675,-388.577C479.704,-396.408 479.995,-406.37 479.545,-415.403"/>
<polygon fill="midnightblue" stroke="midnightblue" points="476.056,-415.131 478.678,-425.396 483.03,-415.736 476.056,-415.131"/>
</g>
<!-- Node34&#45;&gt;Node30 -->
<g id="edge59" class="edge"><title>Node34&#45;&gt;Node30</title>
<path fill="none" stroke="midnightblue" d="M249.667,-426.398C252.479,-425.906 255.267,-425.437 258,-425 322.91,-414.624 498.607,-395.224 605.806,-383.725"/>
<polygon fill="midnightblue" stroke="midnightblue" points="606.389,-387.183 615.96,-382.637 605.644,-380.222 606.389,-387.183"/>
</g>
<!-- Node35 -->
<g id="node35" class="node"><title>Node35</title>
<g id="a_node35"><a xlink:href="../../d5/d09/gauss__legendre__impl_8hpp.html" target="_top" xlink:title="pfasst/quadrature/gauss\l_legendre_impl.hpp">
<polygon fill="white" stroke="black" points="124.5,-358.5 124.5,-388.5 249.5,-388.5 249.5,-358.5 124.5,-358.5"/>
<text text-anchor="start" x="132.5" y="-376.5" font-family="Helvetica,sans-Serif" font-size="10.00">pfasst/quadrature/gauss</text>
<text text-anchor="middle" x="187" y="-365.5" font-family="Helvetica,sans-Serif" font-size="10.00">_legendre_impl.hpp</text>
</a>
</g>
</g>
<!-- Node34&#45;&gt;Node35 -->
<g id="edge60" class="edge"><title>Node34&#45;&gt;Node35</title>
<path fill="none" stroke="midnightblue" d="M181.322,-425.396C180.294,-417.56 180.005,-407.596 180.456,-398.565"/>
<polygon fill="midnightblue" stroke="midnightblue" points="183.945,-398.842 181.325,-388.577 176.972,-398.236 183.945,-398.842"/>
</g>
<!-- Node35&#45;&gt;Node4 -->
<g id="edge62" class="edge"><title>Node35&#45;&gt;Node4</title>
<path fill="none" stroke="midnightblue" d="M140.356,-358.36C122.962,-350.568 105.022,-338.934 95,-322 87.9827,-310.143 86.3065,-301.689 95,-291 144.555,-230.072 191.837,-274.159 268,-255 273.485,-253.62 279.276,-252.029 284.882,-250.416"/>
<polygon fill="midnightblue" stroke="midnightblue" points="286.063,-253.717 294.665,-247.532 284.083,-247.003 286.063,-253.717"/>
</g>
<!-- Node35&#45;&gt;Node26 -->
<g id="edge63" class="edge"><title>Node35&#45;&gt;Node26</title>
<path fill="none" stroke="midnightblue" d="M186.783,-358.396C186.639,-349.064 186.449,-336.714 186.293,-326.517"/>
<polygon fill="midnightblue" stroke="midnightblue" points="189.787,-326.139 186.134,-316.195 182.788,-326.247 189.787,-326.139"/>
</g>
<!-- Node35&#45;&gt;Node34 -->
<g id="edge61" class="edge"><title>Node35&#45;&gt;Node34</title>
<path fill="none" stroke="midnightblue" d="M192.675,-388.577C193.704,-396.408 193.995,-406.37 193.545,-415.403"/>
<polygon fill="midnightblue" stroke="midnightblue" points="190.056,-415.131 192.678,-425.396 197.03,-415.736 190.056,-415.131"/>
</g>
<!-- Node36&#45;&gt;Node30 -->
<g id="edge65" class="edge"><title>Node36&#45;&gt;Node30</title>
<path fill="none" stroke="midnightblue" d="M392.7,-426.588C395.503,-426.045 398.28,-425.513 401,-425 480.214,-410.065 571.848,-394.494 631.024,-384.661"/>
<polygon fill="midnightblue" stroke="midnightblue" points="631.667,-388.102 640.959,-383.013 630.521,-381.196 631.667,-388.102"/>
</g>
<!-- Node37 -->
<g id="node37" class="node"><title>Node37</title>
<g id="a_node37"><a xlink:href="../../da/d39/gauss__radau__impl_8hpp.html" target="_top" xlink:title="pfasst/quadrature/gauss\l_radau_impl.hpp">
<polygon fill="white" stroke="black" points="267.5,-358.5 267.5,-388.5 392.5,-388.5 392.5,-358.5 267.5,-358.5"/>
<text text-anchor="start" x="275.5" y="-376.5" font-family="Helvetica,sans-Serif" font-size="10.00">pfasst/quadrature/gauss</text>
<text text-anchor="middle" x="330" y="-365.5" font-family="Helvetica,sans-Serif" font-size="10.00">_radau_impl.hpp</text>
</a>
</g>
</g>
<!-- Node36&#45;&gt;Node37 -->
<g id="edge66" class="edge"><title>Node36&#45;&gt;Node37</title>
<path fill="none" stroke="midnightblue" d="M324.322,-425.396C323.294,-417.56 323.005,-407.596 323.456,-398.565"/>
<polygon fill="midnightblue" stroke="midnightblue" points="326.945,-398.842 324.325,-388.577 319.972,-398.236 326.945,-398.842"/>
</g>
<!-- Node37&#45;&gt;Node4 -->
<g id="edge69" class="edge"><title>Node37&#45;&gt;Node4</title>
<path fill="none" stroke="midnightblue" d="M326.594,-358.446C324.305,-348.366 321.45,-334.428 320,-322 317.518,-300.725 316.922,-276.133 316.849,-259.575"/>
<polygon fill="midnightblue" stroke="midnightblue" points="320.35,-259.107 316.87,-249.1 313.35,-259.093 320.35,-259.107"/>
</g>
<!-- Node37&#45;&gt;Node18 -->
<g id="edge68" class="edge"><title>Node37&#45;&gt;Node18</title>
<path fill="none" stroke="midnightblue" d="M344.33,-358.433C361.899,-341.519 392.931,-312.699 422,-291 440.206,-277.41 462.142,-263.893 478.592,-254.268"/>
<polygon fill="midnightblue" stroke="midnightblue" points="480.665,-257.112 487.574,-249.08 477.164,-251.051 480.665,-257.112"/>
</g>
<!-- Node37&#45;&gt;Node26 -->
<g id="edge70" class="edge"><title>Node37&#45;&gt;Node26</title>
<path fill="none" stroke="midnightblue" d="M298.754,-358.396C273.6,-347.041 238.549,-331.22 214.232,-320.244"/>
<polygon fill="midnightblue" stroke="midnightblue" points="215.401,-316.931 204.846,-316.007 212.521,-323.311 215.401,-316.931"/>
</g>
<!-- Node37&#45;&gt;Node36 -->
<g id="edge67" class="edge"><title>Node37&#45;&gt;Node36</title>
<path fill="none" stroke="midnightblue" d="M335.675,-388.577C336.704,-396.408 336.995,-406.37 336.545,-415.403"/>
<polygon fill="midnightblue" stroke="midnightblue" points="333.056,-415.131 335.678,-425.396 340.03,-415.736 333.056,-415.131"/>
</g>
<!-- Node38&#45;&gt;Node4 -->
<g id="edge73" class="edge"><title>Node38&#45;&gt;Node4</title>
<path fill="none" stroke="midnightblue" d="M899.686,-425.359C883.847,-417.277 866.991,-405.419 858,-389 851.382,-376.916 850.519,-369.57 858,-358 879.17,-325.258 916.83,-354.742 938,-322 945.481,-310.43 947.366,-301.105 938,-291 902.094,-252.263 516.618,-259.593 464,-255 424.637,-251.564 379.407,-247.012 349.631,-243.931"/>
<polygon fill="midnightblue" stroke="midnightblue" points="349.708,-240.42 339.399,-242.868 348.984,-247.383 349.708,-240.42"/>
</g>
<!-- Node38&#45;&gt;Node16 -->
<g id="edge74" class="edge"><title>Node38&#45;&gt;Node16</title>
<path fill="none" stroke="midnightblue" d="M979.948,-425.474C1001.93,-417.024 1028.33,-404.814 1049,-389 1072.57,-370.968 1093.14,-343.121 1105.07,-325.102"/>
<polygon fill="midnightblue" stroke="midnightblue" points="1108.31,-326.532 1110.77,-316.227 1102.42,-322.748 1108.31,-326.532"/>
</g>
<!-- Node38&#45;&gt;Node20 -->
<g id="edge72" class="edge"><title>Node38&#45;&gt;Node20</title>
<path fill="none" stroke="midnightblue" d="M974.314,-425.359C990.153,-417.277 1007.01,-405.419 1016,-389 1037.64,-349.476 1023.56,-321.071 990,-291 943.753,-249.561 913.532,-275.738 855,-255 802.581,-236.428 743.85,-208.499 710.958,-192.174"/>
<polygon fill="midnightblue" stroke="midnightblue" points="712.513,-189.039 702.003,-187.699 709.384,-195.301 712.513,-189.039"/>
</g>
<!-- Node38&#45;&gt;Node30 -->
<g id="edge75" class="edge"><title>Node38&#45;&gt;Node30</title>
<path fill="none" stroke="midnightblue" d="M884.356,-425.476C839.575,-413.547 776.126,-396.644 734.771,-385.628"/>
<polygon fill="midnightblue" stroke="midnightblue" points="735.579,-382.221 725.015,-383.029 733.777,-388.985 735.579,-382.221"/>
</g>
<!-- Node39 -->
<g id="node39" class="node"><title>Node39</title>
<g id="a_node39"><a xlink:href="../../d7/d56/clenshaw__curtis__impl_8hpp.html" target="_top" xlink:title="pfasst/quadrature/clenshaw\l_curtis_impl.hpp">
<polygon fill="white" stroke="black" points="867,-358.5 867,-388.5 1007,-388.5 1007,-358.5 867,-358.5"/>
<text text-anchor="start" x="875" y="-376.5" font-family="Helvetica,sans-Serif" font-size="10.00">pfasst/quadrature/clenshaw</text>
<text text-anchor="middle" x="937" y="-365.5" font-family="Helvetica,sans-Serif" font-size="10.00">_curtis_impl.hpp</text>
</a>
</g>
</g>
<!-- Node38&#45;&gt;Node39 -->
<g id="edge76" class="edge"><title>Node38&#45;&gt;Node39</title>
<path fill="none" stroke="midnightblue" d="M931.322,-425.396C930.294,-417.56 930.005,-407.596 930.456,-398.565"/>
<polygon fill="midnightblue" stroke="midnightblue" points="933.945,-398.842 931.325,-388.577 926.972,-398.236 933.945,-398.842"/>
</g>
<!-- Node39&#45;&gt;Node6 -->
<g id="edge79" class="edge"><title>Node39&#45;&gt;Node6</title>
<path fill="none" stroke="midnightblue" d="M1005.09,-358.477C1051.03,-348.959 1113.28,-335.952 1177.14,-322.171"/>
<polygon fill="midnightblue" stroke="midnightblue" points="1177.96,-325.576 1186.99,-320.043 1176.48,-318.734 1177.96,-325.576"/>
</g>
<!-- Node39&#45;&gt;Node18 -->
<g id="edge78" class="edge"><title>Node39&#45;&gt;Node18</title>
<path fill="none" stroke="midnightblue" d="M951.548,-358.299C967.814,-340.722 989.698,-310.705 972,-291 957.704,-275.082 654.131,-251.494 543.163,-243.371"/>
<polygon fill="midnightblue" stroke="midnightblue" points="543.269,-239.87 533.041,-242.634 542.761,-246.851 543.269,-239.87"/>
</g>
<!-- Node39&#45;&gt;Node26 -->
<g id="edge80" class="edge"><title>Node39&#45;&gt;Node26</title>
<path fill="none" stroke="midnightblue" d="M866.615,-365.941C839.265,-363.418 807.673,-360.537 779,-358 601.915,-342.334 395,-324.915 278.344,-315.175"/>
<polygon fill="midnightblue" stroke="midnightblue" points="278.288,-311.658 268.031,-314.315 277.705,-318.634 278.288,-311.658"/>
</g>
<!-- Node39&#45;&gt;Node38 -->
<g id="edge77" class="edge"><title>Node39&#45;&gt;Node38</title>
<path fill="none" stroke="midnightblue" d="M942.675,-388.577C943.704,-396.408 943.995,-406.37 943.545,-415.403"/>
<polygon fill="midnightblue" stroke="midnightblue" points="940.056,-415.131 942.678,-425.396 947.03,-415.736 940.056,-415.131"/>
</g>
<!-- Node40&#45;&gt;Node30 -->
<g id="edge82" class="edge"><title>Node40&#45;&gt;Node30</title>
<path fill="none" stroke="midnightblue" d="M636.766,-430.734C647.097,-420.403 664.463,-403.037 677.168,-390.332"/>
<polygon fill="midnightblue" stroke="midnightblue" points="679.776,-392.673 684.373,-383.127 674.827,-387.724 679.776,-392.673"/>
</g>
<!-- Node41 -->
<g id="node41" class="node"><title>Node41</title>
<g id="a_node41"><a xlink:href="../../dc/da0/uniform__impl_8hpp.html" target="_top" xlink:title="pfasst/quadrature/uniform\l_impl.hpp">
<polygon fill="white" stroke="black" points="438,-291.5 438,-321.5 568,-321.5 568,-291.5 438,-291.5"/>
<text text-anchor="start" x="446" y="-309.5" font-family="Helvetica,sans-Serif" font-size="10.00">pfasst/quadrature/uniform</text>
<text text-anchor="middle" x="503" y="-298.5" font-family="Helvetica,sans-Serif" font-size="10.00">_impl.hpp</text>
</a>
</g>
</g>
<!-- Node40&#45;&gt;Node41 -->
<g id="edge83" class="edge"><title>Node40&#45;&gt;Node41</title>
<path fill="none" stroke="midnightblue" d="M616.239,-430.839C593.359,-410.497 544.199,-359.156 518.669,-329.522"/>
<polygon fill="midnightblue" stroke="midnightblue" points="521.261,-327.167 512.136,-321.783 515.912,-331.682 521.261,-327.167"/>
</g>
<!-- Node41&#45;&gt;Node4 -->
<g id="edge86" class="edge"><title>Node41&#45;&gt;Node4</title>
<path fill="none" stroke="midnightblue" d="M462.641,-291.396C428.512,-279.469 380.28,-262.614 348.826,-251.622"/>
<polygon fill="midnightblue" stroke="midnightblue" points="349.837,-248.268 339.243,-248.273 347.528,-254.876 349.837,-248.268"/>
</g>
<!-- Node41&#45;&gt;Node18 -->
<g id="edge85" class="edge"><title>Node41&#45;&gt;Node18</title>
<path fill="none" stroke="midnightblue" d="M503,-291.396C503,-282.064 503,-269.714 503,-259.517"/>
<polygon fill="midnightblue" stroke="midnightblue" points="506.5,-259.195 503,-249.195 499.5,-259.195 506.5,-259.195"/>
</g>
<!-- Node41&#45;&gt;Node40 -->
<g id="edge84" class="edge"><title>Node41&#45;&gt;Node40</title>
<path fill="none" stroke="midnightblue" d="M520.916,-321.783C547.323,-346.441 595.153,-396.857 617.01,-422.983"/>
<polygon fill="midnightblue" stroke="midnightblue" points="614.351,-425.261 623.358,-430.839 619.795,-420.861 614.351,-425.261"/>
</g>
</g>
</svg>
