<?xml version="1.0" encoding="UTF-8" standalone="no"?>
<!DOCTYPE svg PUBLIC "-//W3C//DTD SVG 1.1//EN"
 "http://www.w3.org/Graphics/SVG/1.1/DTD/svg11.dtd">
<!-- Generated by graphviz version 2.38.0 (20140413.2041)
 -->
<!-- Title: include/pfasst/controller/interface.hpp Pages: 1 -->
<svg width="1262pt" height="240pt"
 viewBox="0.00 0.00 1261.50 240.00" xmlns="http://www.w3.org/2000/svg" xmlns:xlink="http://www.w3.org/1999/xlink">
<g id="graph0" class="graph" transform="scale(1 1) rotate(0) translate(4 236)">
<title>include/pfasst/controller/interface.hpp</title>
<polygon fill="white" stroke="none" points="-4,4 -4,-236 1257.5,-236 1257.5,4 -4,4"/>
<!-- Node1 -->
<g id="node1" class="node"><title>Node1</title>
<polygon fill="#bfbfbf" stroke="black" points="728,-201.5 728,-231.5 850,-231.5 850,-201.5 728,-201.5"/>
<text text-anchor="start" x="736" y="-219.5" font-family="Helvetica,sans-Serif" font-size="10.00">include/pfasst/controller</text>
<text text-anchor="middle" x="789" y="-208.5" font-family="Helvetica,sans-Serif" font-size="10.00">/interface.hpp</text>
</g>
<!-- Node2 -->
<g id="node2" class="node"><title>Node2</title>
<g id="a_node2"><a xlink:href="../../da/d27/mlsdc_8hpp.html" target="_top" xlink:title="include/pfasst/controller\l/mlsdc.hpp">
<polygon fill="white" stroke="black" points="259,-134.5 259,-164.5 381,-164.5 381,-134.5 259,-134.5"/>
<text text-anchor="start" x="267" y="-152.5" font-family="Helvetica,sans-Serif" font-size="10.00">include/pfasst/controller</text>
<text text-anchor="middle" x="320" y="-141.5" font-family="Helvetica,sans-Serif" font-size="10.00">/mlsdc.hpp</text>
</a>
</g>
</g>
<!-- Node1&#45;&gt;Node2 -->
<g id="edge1" class="edge"><title>Node1&#45;&gt;Node2</title>
<path fill="none" stroke="midnightblue" d="M717.65,-205.611C625.865,-192.891 467.973,-171.008 381.329,-159"/>
<polygon fill="midnightblue" stroke="midnightblue" points="717.301,-209.096 727.686,-207.002 718.262,-202.163 717.301,-209.096"/>
</g>
<!-- Node10 -->
<g id="node10" class="node"><title>Node10</title>
<g id="a_node10"><a xlink:href="../../de/de4/sdc_8hpp.html" target="_top" xlink:title="include/pfasst/controller\l/sdc.hpp">
<polygon fill="white" stroke="black" points="663,-134.5 663,-164.5 785,-164.5 785,-134.5 663,-134.5"/>
<text text-anchor="start" x="671" y="-152.5" font-family="Helvetica,sans-Serif" font-size="10.00">include/pfasst/controller</text>
<text text-anchor="middle" x="724" y="-141.5" font-family="Helvetica,sans-Serif" font-size="10.00">/sdc.hpp</text>
</a>
</g>
</g>
<!-- Node1&#45;&gt;Node10 -->
<g id="edge11" class="edge"><title>Node1&#45;&gt;Node10</title>
<path fill="none" stroke="midnightblue" d="M767.811,-194.311C758.061,-184.561 746.759,-173.259 738.077,-164.577"/>
<polygon fill="midnightblue" stroke="midnightblue" points="765.35,-196.8 774.896,-201.396 770.3,-191.85 765.35,-196.8"/>
</g>
<!-- Node16 -->
<g id="node16" class="node"><title>Node16</title>
<g id="a_node16"><a xlink:href="../../d2/dbc/controller_2interface__impl_8hpp.html" target="_top" xlink:title="src/pfasst/controller\l/interface_impl.hpp">
<polygon fill="white" stroke="black" points="803,-134.5 803,-164.5 907,-164.5 907,-134.5 803,-134.5"/>
<text text-anchor="start" x="811" y="-152.5" font-family="Helvetica,sans-Serif" font-size="10.00">src/pfasst/controller</text>
<text text-anchor="middle" x="855" y="-141.5" font-family="Helvetica,sans-Serif" font-size="10.00">/interface_impl.hpp</text>
</a>
</g>
</g>
<!-- Node1&#45;&gt;Node16 -->
<g id="edge19" class="edge"><title>Node1&#45;&gt;Node16</title>
<path fill="none" stroke="midnightblue" d="M804.414,-194.024C813.595,-184.34 825.172,-173.174 835.032,-164.577"/>
<polygon fill="midnightblue" stroke="midnightblue" points="801.83,-191.664 797.643,-201.396 806.985,-196.399 801.83,-191.664"/>
</g>
<!-- Node3 -->
<g id="node3" class="node"><title>Node3</title>
<g id="a_node3"><a xlink:href="../../d1/d0d/pfasst_2controller_2pfasst_8hpp.html" target="_top" xlink:title="include/pfasst/controller\l/pfasst.hpp">
<polygon fill="white" stroke="black" points="58,-67.5 58,-97.5 180,-97.5 180,-67.5 58,-67.5"/>
<text text-anchor="start" x="66" y="-85.5" font-family="Helvetica,sans-Serif" font-size="10.00">include/pfasst/controller</text>
<text text-anchor="middle" x="119" y="-74.5" font-family="Helvetica,sans-Serif" font-size="10.00">/pfasst.hpp</text>
</a>
</g>
</g>
<!-- Node2&#45;&gt;Node3 -->
<g id="edge2" class="edge"><title>Node2&#45;&gt;Node3</title>
<path fill="none" stroke="midnightblue" d="M266.589,-131.228C234.074,-120.713 193.063,-107.451 162.529,-97.5765"/>
<polygon fill="midnightblue" stroke="midnightblue" points="265.794,-134.649 276.386,-134.396 267.948,-127.989 265.794,-134.649"/>
</g>
<!-- Node7 -->
<g id="node7" class="node"><title>Node7</title>
<g id="a_node7"><a xlink:href="../../d5/d0a/mlsdc__impl_8hpp.html" target="_top" xlink:title="src/pfasst/controller\l/mlsdc_impl.hpp">
<polygon fill="white" stroke="black" points="198,-67.5 198,-97.5 302,-97.5 302,-67.5 198,-67.5"/>
<text text-anchor="start" x="206" y="-85.5" font-family="Helvetica,sans-Serif" font-size="10.00">src/pfasst/controller</text>
<text text-anchor="middle" x="250" y="-74.5" font-family="Helvetica,sans-Serif" font-size="10.00">/mlsdc_impl.hpp</text>
</a>
</g>
</g>
<!-- Node2&#45;&gt;Node7 -->
<g id="edge7" class="edge"><title>Node2&#45;&gt;Node7</title>
<path fill="none" stroke="midnightblue" d="M291.465,-127.883C280.102,-118.005 267.854,-106.429 259.485,-97.5765"/>
<polygon fill="midnightblue" stroke="midnightblue" points="289.245,-130.589 299.133,-134.396 293.777,-125.254 289.245,-130.589"/>
</g>
<!-- Node8 -->
<g id="node8" class="node"><title>Node8</title>
<g id="a_node8"><a xlink:href="../../d9/d86/serial__mlsdc_8cpp.html" target="_top" xlink:title="Advection&#45;Diffusion with serial MLSDC. ">
<polygon fill="white" stroke="black" points="320.5,-67.5 320.5,-97.5 457.5,-97.5 457.5,-67.5 320.5,-67.5"/>
<text text-anchor="start" x="328.5" y="-85.5" font-family="Helvetica,sans-Serif" font-size="10.00">examples/advection</text>
<text text-anchor="middle" x="389" y="-74.5" font-family="Helvetica,sans-Serif" font-size="10.00">_diffusion/serial_mlsdc.cpp</text>
</a>
</g>
</g>
<!-- Node2&#45;&gt;Node8 -->
<g id="edge9" class="edge"><title>Node2&#45;&gt;Node8</title>
<path fill="none" stroke="midnightblue" d="M342.492,-127.311C352.843,-117.561 364.84,-106.259 374.057,-97.5765"/>
<polygon fill="midnightblue" stroke="midnightblue" points="339.851,-124.991 334.972,-134.396 344.651,-130.087 339.851,-124.991"/>
</g>
<!-- Node9 -->
<g id="node9" class="node"><title>Node9</title>
<g id="a_node9"><a xlink:href="../../d7/d31/boris__mlsdc_8cpp.html" target="_top" xlink:title="examples/boris/boris\l_mlsdc.cpp">
<polygon fill="white" stroke="black" points="476,-67.5 476,-97.5 586,-97.5 586,-67.5 476,-67.5"/>
<text text-anchor="start" x="484" y="-85.5" font-family="Helvetica,sans-Serif" font-size="10.00">examples/boris/boris</text>
<text text-anchor="middle" x="531" y="-74.5" font-family="Helvetica,sans-Serif" font-size="10.00">_mlsdc.cpp</text>
</a>
</g>
</g>
<!-- Node2&#45;&gt;Node9 -->
<g id="edge10" class="edge"><title>Node2&#45;&gt;Node9</title>
<path fill="none" stroke="midnightblue" d="M375.366,-131.444C409.569,-120.908 452.932,-107.549 485.194,-97.6109"/>
<polygon fill="midnightblue" stroke="midnightblue" points="374.05,-128.187 365.524,-134.476 376.111,-134.877 374.05,-128.187"/>
</g>
<!-- Node4 -->
<g id="node4" class="node"><title>Node4</title>
<g id="a_node4"><a xlink:href="../../de/d75/pfasst__impl_8hpp.html" target="_top" xlink:title="src/pfasst/controller\l/pfasst_impl.hpp">
<polygon fill="white" stroke="black" points="0,-0.5 0,-30.5 104,-30.5 104,-0.5 0,-0.5"/>
<text text-anchor="start" x="8" y="-18.5" font-family="Helvetica,sans-Serif" font-size="10.00">src/pfasst/controller</text>
<text text-anchor="middle" x="52" y="-7.5" font-family="Helvetica,sans-Serif" font-size="10.00">/pfasst_impl.hpp</text>
</a>
</g>
</g>
<!-- Node3&#45;&gt;Node4 -->
<g id="edge3" class="edge"><title>Node3&#45;&gt;Node4</title>
<path fill="none" stroke="midnightblue" d="M91.1021,-60.5978C80.2846,-50.7831 68.7196,-39.3442 60.8348,-30.5765"/>
<polygon fill="midnightblue" stroke="midnightblue" points="88.9755,-63.3895 98.7836,-67.396 93.6147,-58.1475 88.9755,-63.3895"/>
</g>
<!-- Node5 -->
<g id="node5" class="node"><title>Node5</title>
<g id="a_node5"><a xlink:href="../../d1/d49/mpi__pfasst_8cpp.html" target="_top" xlink:title="Advection&#45;Diffusion with MPI&#45;enabled PFASST. ">
<polygon fill="white" stroke="black" points="122.5,-0.5 122.5,-30.5 249.5,-30.5 249.5,-0.5 122.5,-0.5"/>
<text text-anchor="start" x="130.5" y="-18.5" font-family="Helvetica,sans-Serif" font-size="10.00">examples/advection</text>
<text text-anchor="middle" x="186" y="-7.5" font-family="Helvetica,sans-Serif" font-size="10.00">_diffusion/mpi_pfasst.cpp</text>
</a>
</g>
</g>
<!-- Node3&#45;&gt;Node5 -->
<g id="edge5" class="edge"><title>Node3&#45;&gt;Node5</title>
<path fill="none" stroke="midnightblue" d="M140.84,-60.3115C150.891,-50.5612 162.541,-39.259 171.49,-30.5765"/>
<polygon fill="midnightblue" stroke="midnightblue" points="138.278,-57.9207 133.538,-67.396 143.153,-62.9449 138.278,-57.9207"/>
</g>
<!-- Node6 -->
<g id="node6" class="node"><title>Node6</title>
<g id="a_node6"><a xlink:href="../../d2/d1e/boris__pfasst_8cpp.html" target="_top" xlink:title="examples/boris/boris\l_pfasst.cpp">
<polygon fill="white" stroke="black" points="268,-0.5 268,-30.5 378,-30.5 378,-0.5 268,-0.5"/>
<text text-anchor="start" x="276" y="-18.5" font-family="Helvetica,sans-Serif" font-size="10.00">examples/boris/boris</text>
<text text-anchor="middle" x="323" y="-7.5" font-family="Helvetica,sans-Serif" font-size="10.00">_pfasst.cpp</text>
</a>
</g>
</g>
<!-- Node3&#45;&gt;Node6 -->
<g id="edge6" class="edge"><title>Node3&#45;&gt;Node6</title>
<path fill="none" stroke="midnightblue" d="M172.955,-64.3084C205.957,-53.7932 247.655,-40.5068 278.713,-30.6109"/>
<polygon fill="midnightblue" stroke="midnightblue" points="171.479,-61.1052 163.014,-67.476 173.604,-67.7748 171.479,-61.1052"/>
</g>
<!-- Node4&#45;&gt;Node3 -->
<g id="edge4" class="edge"><title>Node4&#45;&gt;Node3</title>
<path fill="none" stroke="midnightblue" d="M79.8639,-37.3714C90.6799,-47.1827 102.248,-58.6227 110.14,-67.396"/>
<polygon fill="midnightblue" stroke="midnightblue" points="81.993,-34.5819 72.1844,-30.5765 77.3544,-39.8243 81.993,-34.5819"/>
</g>
<!-- Node7&#45;&gt;Node2 -->
<g id="edge8" class="edge"><title>Node7&#45;&gt;Node2</title>
<path fill="none" stroke="midnightblue" d="M278.499,-104.086C289.861,-113.96 302.111,-125.538 310.489,-134.396"/>
<polygon fill="midnightblue" stroke="midnightblue" points="280.722,-101.382 270.834,-97.5765 276.191,-106.717 280.722,-101.382"/>
</g>
<!-- Node10&#45;&gt;Node9 -->
<g id="edge15" class="edge"><title>Node10&#45;&gt;Node9</title>
<path fill="none" stroke="midnightblue" d="M672.311,-131.092C641.155,-120.599 601.989,-107.408 572.796,-97.5765"/>
<polygon fill="midnightblue" stroke="midnightblue" points="671.528,-134.521 682.122,-134.396 673.762,-127.887 671.528,-134.521"/>
</g>
<!-- Node11 -->
<g id="node11" class="node"><title>Node11</title>
<g id="a_node11"><a xlink:href="../../d9/d01/sdc__impl_8hpp.html" target="_top" xlink:title="src/pfasst/controller\l/sdc_impl.hpp">
<polygon fill="white" stroke="black" points="604,-67.5 604,-97.5 708,-97.5 708,-67.5 604,-67.5"/>
<text text-anchor="start" x="612" y="-85.5" font-family="Helvetica,sans-Serif" font-size="10.00">src/pfasst/controller</text>
<text text-anchor="middle" x="656" y="-74.5" font-family="Helvetica,sans-Serif" font-size="10.00">/sdc_impl.hpp</text>
</a>
</g>
</g>
<!-- Node10&#45;&gt;Node11 -->
<g id="edge12" class="edge"><title>Node10&#45;&gt;Node11</title>
<path fill="none" stroke="midnightblue" d="M695.781,-127.598C684.812,-117.783 673.071,-106.344 665.051,-97.5765"/>
<polygon fill="midnightblue" stroke="midnightblue" points="693.732,-130.455 703.567,-134.396 698.336,-125.182 693.732,-130.455"/>
</g>
<!-- Node12 -->
<g id="node12" class="node"><title>Node12</title>
<g id="a_node12"><a xlink:href="../../d4/df0/vanilla__sdc_8cpp.html" target="_top" xlink:title="Advection&#45;Diffusion with vanilla SDC. ">
<polygon fill="white" stroke="black" points="726.5,-67.5 726.5,-97.5 857.5,-97.5 857.5,-67.5 726.5,-67.5"/>
<text text-anchor="start" x="734.5" y="-85.5" font-family="Helvetica,sans-Serif" font-size="10.00">examples/advection</text>
<text text-anchor="middle" x="792" y="-74.5" font-family="Helvetica,sans-Serif" font-size="10.00">_diffusion/vanilla_sdc.cpp</text>
</a>
</g>
</g>
<!-- Node10&#45;&gt;Node12 -->
<g id="edge14" class="edge"><title>Node10&#45;&gt;Node12</title>
<path fill="none" stroke="midnightblue" d="M746.166,-127.311C756.367,-117.561 768.191,-106.259 777.274,-97.5765"/>
<polygon fill="midnightblue" stroke="midnightblue" points="743.565,-124.956 738.755,-134.396 748.402,-130.016 743.565,-124.956"/>
</g>
<!-- Node13 -->
<g id="node13" class="node"><title>Node13</title>
<g id="a_node13"><a xlink:href="../../d3/d93/boris__sdc_8cpp.html" target="_top" xlink:title="examples/boris/boris\l_sdc.cpp">
<polygon fill="white" stroke="black" points="876,-67.5 876,-97.5 986,-97.5 986,-67.5 876,-67.5"/>
<text text-anchor="start" x="884" y="-85.5" font-family="Helvetica,sans-Serif" font-size="10.00">examples/boris/boris</text>
<text text-anchor="middle" x="931" y="-74.5" font-family="Helvetica,sans-Serif" font-size="10.00">_sdc.cpp</text>
</a>
</g>
</g>
<!-- Node10&#45;&gt;Node13 -->
<g id="edge16" class="edge"><title>Node10&#45;&gt;Node13</title>
<path fill="none" stroke="midnightblue" d="M778.316,-131.444C811.871,-120.908 854.412,-107.549 886.062,-97.6109"/>
<polygon fill="midnightblue" stroke="midnightblue" points="777.153,-128.141 768.661,-134.476 779.25,-134.819 777.153,-128.141"/>
</g>
<!-- Node14 -->
<g id="node14" class="node"><title>Node14</title>
<g id="a_node14"><a xlink:href="../../d2/daf/scalar__sdc_8cpp.html" target="_top" xlink:title="Scalar test equation example using an encapsulated IMEX sweeper. ">
<polygon fill="white" stroke="black" points="1004,-67.5 1004,-97.5 1126,-97.5 1126,-67.5 1004,-67.5"/>
<text text-anchor="start" x="1012" y="-85.5" font-family="Helvetica,sans-Serif" font-size="10.00">examples/scalar/scalar</text>
<text text-anchor="middle" x="1065" y="-74.5" font-family="Helvetica,sans-Serif" font-size="10.00">_sdc.cpp</text>
</a>
</g>
</g>
<!-- Node10&#45;&gt;Node14 -->
<g id="edge17" class="edge"><title>Node10&#45;&gt;Node14</title>
<path fill="none" stroke="midnightblue" d="M795.132,-133.814C884.793,-116.663 909.024,-114.601 995,-98 997.925,-97.4353 1000.92,-96.849 1003.94,-96.2502"/>
<polygon fill="midnightblue" stroke="midnightblue" points="794.223,-130.424 785.064,-135.75 795.545,-137.298 794.223,-130.424"/>
</g>
<!-- Node15 -->
<g id="node15" class="node"><title>Node15</title>
<g id="a_node15"><a xlink:href="../../df/de7/vdp__sdc_8cpp.html" target="_top" xlink:title="examples/vanderpol\l/vdp_sdc.cpp">
<polygon fill="white" stroke="black" points="1144.5,-67.5 1144.5,-97.5 1253.5,-97.5 1253.5,-67.5 1144.5,-67.5"/>
<text text-anchor="start" x="1152.5" y="-85.5" font-family="Helvetica,sans-Serif" font-size="10.00">examples/vanderpol</text>
<text text-anchor="middle" x="1199" y="-74.5" font-family="Helvetica,sans-Serif" font-size="10.00">/vdp_sdc.cpp</text>
</a>
</g>
</g>
<!-- Node10&#45;&gt;Node15 -->
<g id="edge18" class="edge"><title>Node10&#45;&gt;Node15</title>
<path fill="none" stroke="midnightblue" d="M795.139,-133.931C946.35,-111.029 987.877,-122.346 1135,-98 1138.03,-97.4978 1141.14,-96.9403 1144.27,-96.3446"/>
<polygon fill="midnightblue" stroke="midnightblue" points="794.369,-130.508 785.018,-135.489 795.435,-137.426 794.369,-130.508"/>
</g>
<!-- Node11&#45;&gt;Node10 -->
<g id="edge13" class="edge"><title>Node11&#45;&gt;Node10</title>
<path fill="none" stroke="midnightblue" d="M684.185,-104.371C695.152,-114.183 706.896,-125.623 714.923,-134.396"/>
<polygon fill="midnightblue" stroke="midnightblue" points="686.236,-101.516 676.401,-97.5765 681.633,-106.789 686.236,-101.516"/>
</g>
<!-- Node16&#45;&gt;Node1 -->
<g id="edge20" class="edge"><title>Node16&#45;&gt;Node1</title>
<path fill="none" stroke="midnightblue" d="M839.616,-171.945C830.439,-181.626 818.863,-192.793 808.999,-201.396"/>
<polygon fill="midnightblue" stroke="midnightblue" points="842.196,-174.309 846.382,-164.577 837.04,-169.575 842.196,-174.309"/>
</g>
</g>
</svg>
