<?xml version="1.0" encoding="UTF-8" standalone="no"?>
<!DOCTYPE svg PUBLIC "-//W3C//DTD SVG 1.1//EN"
 "http://www.w3.org/Graphics/SVG/1.1/DTD/svg11.dtd">
<!-- Generated by graphviz version 2.38.0 (20140413.2041)
 -->
<!-- Title: OUT Pages: 1 -->
<svg width="104pt" height="387pt"
 viewBox="0.00 0.00 103.50 387.00" xmlns="http://www.w3.org/2000/svg" xmlns:xlink="http://www.w3.org/1999/xlink">
<g id="graph0" class="graph" transform="scale(1 1) rotate(0) translate(4 383)">
<title>OUT</title>
<polygon fill="white" stroke="none" points="-4,4 -4,-383 99.5,-383 99.5,4 -4,4"/>
<!-- Node1 -->
<g id="node1" class="node"><title>Node1</title>
<polygon fill="#bfbfbf" stroke="black" points="23.5,-0.5 23.5,-57.5 71.5,-57.5 71.5,-0.5 23.5,-0.5"/>
<text text-anchor="middle" x="47.5" y="-45.5" font-family="Helvetica,sans-Serif" font-size="10.00">OUT</text>
<polyline fill="none" stroke="black" points="23.5,-38.5 71.5,-38.5 "/>
<text text-anchor="start" x="31.5" y="-26.5" font-family="Helvetica,sans-Serif" font-size="10.00">+ reset</text>
<polyline fill="none" stroke="black" points="23.5,-19.5 71.5,-19.5 "/>
<text text-anchor="middle" x="47.5" y="-7.5" font-family="Helvetica,sans-Serif" font-size="10.00"> </text>
</g>
<!-- Node2 -->
<g id="node2" class="node"><title>Node2</title>
<g id="a_node2"><a xlink:title="STL class. ">
<polygon fill="white" stroke="#bfbfbf" points="17.5,-215.5 17.5,-272.5 77.5,-272.5 77.5,-215.5 17.5,-215.5"/>
<text text-anchor="middle" x="47.5" y="-260.5" font-family="Helvetica,sans-Serif" font-size="10.00">std::string</text>
<polyline fill="none" stroke="#bfbfbf" points="17.5,-253.5 77.5,-253.5 "/>
<text text-anchor="middle" x="47.5" y="-241.5" font-family="Helvetica,sans-Serif" font-size="10.00"> </text>
<polyline fill="none" stroke="#bfbfbf" points="17.5,-234.5 77.5,-234.5 "/>
<text text-anchor="middle" x="47.5" y="-222.5" font-family="Helvetica,sans-Serif" font-size="10.00"> </text>
</a>
</g>
</g>
<!-- Node2&#45;&gt;Node1 -->
<g id="edge1" class="edge"><title>Node2&#45;&gt;Node1</title>
<path fill="none" stroke="#404040" d="M47.5,-215.154C47.5,-177.978 47.5,-111.91 47.5,-69.5719"/>
<polygon fill="none" stroke="#404040" points="47.5001,-69.5153 43.5,-63.5154 47.5,-57.5153 51.5,-63.5153 47.5001,-69.5153"/>
<text text-anchor="middle" x="71.5" y="-189" font-family="Helvetica,sans-Serif" font-size="10.00"> +yellow</text>
<text text-anchor="middle" x="71.5" y="-178" font-family="Helvetica,sans-Serif" font-size="10.00">+black</text>
<text text-anchor="middle" x="71.5" y="-167" font-family="Helvetica,sans-Serif" font-size="10.00">+underline</text>
<text text-anchor="middle" x="71.5" y="-156" font-family="Helvetica,sans-Serif" font-size="10.00">+red</text>
<text text-anchor="middle" x="71.5" y="-145" font-family="Helvetica,sans-Serif" font-size="10.00">+blue</text>
<text text-anchor="middle" x="71.5" y="-134" font-family="Helvetica,sans-Serif" font-size="10.00">+green</text>
<text text-anchor="middle" x="71.5" y="-123" font-family="Helvetica,sans-Serif" font-size="10.00">+cyan</text>
<text text-anchor="middle" x="71.5" y="-112" font-family="Helvetica,sans-Serif" font-size="10.00">+white</text>
<text text-anchor="middle" x="71.5" y="-101" font-family="Helvetica,sans-Serif" font-size="10.00">+magenta</text>
<text text-anchor="middle" x="71.5" y="-90" font-family="Helvetica,sans-Serif" font-size="10.00">+bold</text>
<text text-anchor="middle" x="71.5" y="-79" font-family="Helvetica,sans-Serif" font-size="10.00">...</text>
</g>
<!-- Node3 -->
<g id="node3" class="node"><title>Node3</title>
<g id="a_node3"><a xlink:title="STL class. ">
<polygon fill="white" stroke="#bfbfbf" points="0,-310.5 0,-378.5 95,-378.5 95,-310.5 0,-310.5"/>
<text text-anchor="start" x="8" y="-366.5" font-family="Helvetica,sans-Serif" font-size="10.00">std::basic_string&lt;</text>
<text text-anchor="middle" x="47.5" y="-355.5" font-family="Helvetica,sans-Serif" font-size="10.00"> char &gt;</text>
<polyline fill="none" stroke="#bfbfbf" points="0,-348.5 95,-348.5 "/>
<text text-anchor="middle" x="47.5" y="-336.5" font-family="Helvetica,sans-Serif" font-size="10.00"> </text>
<polyline fill="none" stroke="#bfbfbf" points="0,-329.5 95,-329.5 "/>
<text text-anchor="middle" x="47.5" y="-317.5" font-family="Helvetica,sans-Serif" font-size="10.00"> </text>
</a>
</g>
</g>
<!-- Node3&#45;&gt;Node2 -->
<g id="edge2" class="edge"><title>Node3&#45;&gt;Node2</title>
<path fill="none" stroke="midnightblue" d="M47.5,-300.375C47.5,-290.94 47.5,-281.201 47.5,-272.571"/>
<polygon fill="none" stroke="midnightblue" points="44.0001,-300.427 47.5,-310.427 51.0001,-300.427 44.0001,-300.427"/>
</g>
</g>
</svg>
