<?xml version="1.0" encoding="UTF-8" standalone="no"?>
<!DOCTYPE svg PUBLIC "-//W3C//DTD SVG 1.1//EN"
 "http://www.w3.org/Graphics/SVG/1.1/DTD/svg11.dtd">
<!-- Generated by graphviz version 2.38.0 (20140413.2041)
 -->
<!-- Title: boris_analyse.BorisData._get_coords Pages: 1 -->
<svg width="307pt" height="104pt"
 viewBox="0.00 0.00 307.00 104.00" xmlns="http://www.w3.org/2000/svg" xmlns:xlink="http://www.w3.org/1999/xlink">
<g id="graph0" class="graph" transform="scale(1 1) rotate(0) translate(4 100)">
<title>boris_analyse.BorisData._get_coords</title>
<polygon fill="white" stroke="none" points="-4,4 -4,-100 303,-100 303,4 -4,4"/>
<!-- Node1 -->
<g id="node1" class="node"><title>Node1</title>
<polygon fill="#bfbfbf" stroke="black" points="0,-33 0,-63 129,-63 129,-33 0,-33"/>
<text text-anchor="start" x="8" y="-51" font-family="Helvetica,sans-Serif" font-size="10.00">boris_analyse.BorisData.</text>
<text text-anchor="middle" x="64.5" y="-40" font-family="Helvetica,sans-Serif" font-size="10.00">_get_coords</text>
</g>
<!-- Node2 -->
<g id="node2" class="node"><title>Node2</title>
<g id="a_node2"><a xlink:href="../../d6/daf/classboris__analyse_1_1BorisData.html#a2353676f5a4be76b9016df64b12abb7c" target="_top" xlink:title="boris_analyse.BorisData.x">
<polygon fill="white" stroke="black" points="165,-76.5 165,-95.5 299,-95.5 299,-76.5 165,-76.5"/>
<text text-anchor="middle" x="232" y="-83.5" font-family="Helvetica,sans-Serif" font-size="10.00">boris_analyse.BorisData.x</text>
</a>
</g>
</g>
<!-- Node1&#45;&gt;Node2 -->
<g id="edge1" class="edge"><title>Node1&#45;&gt;Node2</title>
<path fill="none" stroke="midnightblue" d="M129.013,-62.5831C145.614,-66.3947 163.307,-70.4573 179.217,-74.1102"/>
<polygon fill="midnightblue" stroke="midnightblue" points="178.855,-77.618 189.384,-76.4447 180.421,-70.7956 178.855,-77.618"/>
</g>
<!-- Node3 -->
<g id="node3" class="node"><title>Node3</title>
<g id="a_node3"><a xlink:href="../../d6/daf/classboris__analyse_1_1BorisData.html#a3b998836d56dfd42da9964832c97a699" target="_top" xlink:title="boris_analyse.BorisData.y">
<polygon fill="white" stroke="black" points="165,-38.5 165,-57.5 299,-57.5 299,-38.5 165,-38.5"/>
<text text-anchor="middle" x="232" y="-45.5" font-family="Helvetica,sans-Serif" font-size="10.00">boris_analyse.BorisData.y</text>
</a>
</g>
</g>
<!-- Node1&#45;&gt;Node3 -->
<g id="edge2" class="edge"><title>Node1&#45;&gt;Node3</title>
<path fill="none" stroke="midnightblue" d="M129.013,-48C137.465,-48 146.2,-48 154.839,-48"/>
<polygon fill="midnightblue" stroke="midnightblue" points="154.914,-51.5001 164.914,-48 154.914,-44.5001 154.914,-51.5001"/>
</g>
<!-- Node4 -->
<g id="node4" class="node"><title>Node4</title>
<g id="a_node4"><a xlink:href="../../d6/daf/classboris__analyse_1_1BorisData.html#a352041142945830eee790e553f144180" target="_top" xlink:title="boris_analyse.BorisData.z">
<polygon fill="white" stroke="black" points="165,-0.5 165,-19.5 299,-19.5 299,-0.5 165,-0.5"/>
<text text-anchor="middle" x="232" y="-7.5" font-family="Helvetica,sans-Serif" font-size="10.00">boris_analyse.BorisData.z</text>
</a>
</g>
</g>
<!-- Node1&#45;&gt;Node4 -->
<g id="edge3" class="edge"><title>Node1&#45;&gt;Node4</title>
<path fill="none" stroke="midnightblue" d="M129.013,-33.4169C145.614,-29.6053 163.307,-25.5427 179.217,-21.8898"/>
<polygon fill="midnightblue" stroke="midnightblue" points="180.421,-25.2044 189.384,-19.5553 178.855,-18.382 180.421,-25.2044"/>
</g>
</g>
</svg>
