<?xml version="1.0" encoding="UTF-8" standalone="no"?>
<!DOCTYPE svg PUBLIC "-//W3C//DTD SVG 1.1//EN"
 "http://www.w3.org/Graphics/SVG/1.1/DTD/svg11.dtd">
<!-- Generated by graphviz version 2.38.0 (20140413.2041)
 -->
<!-- Title: boris_analyse.BorisData._read_data Pages: 1 -->
<svg width="515pt" height="338pt"
 viewBox="0.00 0.00 515.00 338.00" xmlns="http://www.w3.org/2000/svg" xmlns:xlink="http://www.w3.org/1999/xlink">
<g id="graph0" class="graph" transform="scale(1 1) rotate(0) translate(4 334)">
<title>boris_analyse.BorisData._read_data</title>
<polygon fill="white" stroke="none" points="-4,4 -4,-334 511,-334 511,4 -4,4"/>
<!-- Node1 -->
<g id="node1" class="node"><title>Node1</title>
<polygon fill="#bfbfbf" stroke="black" points="0,-128 0,-158 129,-158 129,-128 0,-128"/>
<text text-anchor="start" x="8" y="-146" font-family="Helvetica,sans-Serif" font-size="10.00">boris_analyse.BorisData.</text>
<text text-anchor="middle" x="64.5" y="-135" font-family="Helvetica,sans-Serif" font-size="10.00">_read_data</text>
</g>
<!-- Node2 -->
<g id="node2" class="node"><title>Node2</title>
<g id="a_node2"><a xlink:href="../../d6/daf/classboris__analyse_1_1BorisData.html#ac0b1b7ad661b5013cab7ed0f0398730c" target="_top" xlink:title="boris_analyse.BorisData.\l_get_coords">
<polygon fill="white" stroke="black" points="186.5,-267 186.5,-297 315.5,-297 315.5,-267 186.5,-267"/>
<text text-anchor="start" x="194.5" y="-285" font-family="Helvetica,sans-Serif" font-size="10.00">boris_analyse.BorisData.</text>
<text text-anchor="middle" x="251" y="-274" font-family="Helvetica,sans-Serif" font-size="10.00">_get_coords</text>
</a>
</g>
</g>
<!-- Node1&#45;&gt;Node2 -->
<g id="edge1" class="edge"><title>Node1&#45;&gt;Node2</title>
<path fill="none" stroke="midnightblue" d="M74.7712,-158.394C90.337,-182.927 124.074,-230.789 165,-257 168.819,-259.446 172.886,-261.66 177.093,-263.663"/>
<polygon fill="midnightblue" stroke="midnightblue" points="175.917,-266.968 186.485,-267.72 178.693,-260.542 175.917,-266.968"/>
</g>
<!-- Node6 -->
<g id="node6" class="node"><title>Node6</title>
<g id="a_node6"><a xlink:href="../../d2/dd6/namespaceboris__analyse.html#ab2be38969b44d0266642fec56162ec66" target="_top" xlink:title="boris_analyse.distance">
<polygon fill="white" stroke="black" points="191,-228.5 191,-247.5 311,-247.5 311,-228.5 191,-228.5"/>
<text text-anchor="middle" x="251" y="-235.5" font-family="Helvetica,sans-Serif" font-size="10.00">boris_analyse.distance</text>
</a>
</g>
</g>
<!-- Node1&#45;&gt;Node6 -->
<g id="edge5" class="edge"><title>Node1&#45;&gt;Node6</title>
<path fill="none" stroke="midnightblue" d="M80.9551,-158.299C99.3925,-175.664 131.9,-203.574 165,-219 170.268,-221.455 175.871,-223.601 181.588,-225.476"/>
<polygon fill="midnightblue" stroke="midnightblue" points="180.696,-228.863 191.28,-228.381 182.706,-222.157 180.696,-228.863"/>
</g>
<!-- Node7 -->
<g id="node7" class="node"><title>Node7</title>
<g id="a_node7"><a xlink:href="../../d6/daf/classboris__analyse_1_1BorisData.html#a7ee6eccb6d6a2f744e8218b9973be5f5" target="_top" xlink:title="boris_analyse.BorisData.niter">
<polygon fill="white" stroke="black" points="177,-190.5 177,-209.5 325,-209.5 325,-190.5 177,-190.5"/>
<text text-anchor="middle" x="251" y="-197.5" font-family="Helvetica,sans-Serif" font-size="10.00">boris_analyse.BorisData.niter</text>
</a>
</g>
</g>
<!-- Node1&#45;&gt;Node7 -->
<g id="edge6" class="edge"><title>Node1&#45;&gt;Node7</title>
<path fill="none" stroke="midnightblue" d="M101.453,-158.177C120.175,-165.709 143.575,-174.551 165,-181 173.521,-183.565 182.617,-185.955 191.572,-188.114"/>
<polygon fill="midnightblue" stroke="midnightblue" points="191.052,-191.587 201.586,-190.452 192.643,-184.77 191.052,-191.587"/>
</g>
<!-- Node8 -->
<g id="node8" class="node"><title>Node8</title>
<g id="a_node8"><a xlink:href="../../d6/daf/classboris__analyse_1_1BorisData.html#ab2949e53f5b010dd7f7b04dba2b90afc" target="_top" xlink:title="boris_analyse.BorisData.nparticles">
<polygon fill="white" stroke="black" points="165,-152.5 165,-171.5 337,-171.5 337,-152.5 165,-152.5"/>
<text text-anchor="middle" x="251" y="-159.5" font-family="Helvetica,sans-Serif" font-size="10.00">boris_analyse.BorisData.nparticles</text>
</a>
</g>
</g>
<!-- Node1&#45;&gt;Node8 -->
<g id="edge7" class="edge"><title>Node1&#45;&gt;Node8</title>
<path fill="none" stroke="midnightblue" d="M129.253,-149.565C137.488,-150.413 146.059,-151.296 154.666,-152.182"/>
<polygon fill="midnightblue" stroke="midnightblue" points="154.462,-155.68 164.768,-153.223 155.179,-148.717 154.462,-155.68"/>
</g>
<!-- Node9 -->
<g id="node9" class="node"><title>Node9</title>
<g id="a_node9"><a xlink:href="../../d6/daf/classboris__analyse_1_1BorisData.html#a288b5516f9c8f83b6b348715f1a9a31a" target="_top" xlink:title="boris_analyse.BorisData.nsteps">
<polygon fill="white" stroke="black" points="172,-114.5 172,-133.5 330,-133.5 330,-114.5 172,-114.5"/>
<text text-anchor="middle" x="251" y="-121.5" font-family="Helvetica,sans-Serif" font-size="10.00">boris_analyse.BorisData.nsteps</text>
</a>
</g>
</g>
<!-- Node1&#45;&gt;Node9 -->
<g id="edge8" class="edge"><title>Node1&#45;&gt;Node9</title>
<path fill="none" stroke="midnightblue" d="M129.253,-136.435C139.779,-135.351 150.855,-134.21 161.852,-133.078"/>
<polygon fill="midnightblue" stroke="midnightblue" points="162.323,-136.548 171.912,-132.042 161.606,-129.584 162.323,-136.548"/>
</g>
<!-- Node10 -->
<g id="node10" class="node"><title>Node10</title>
<g id="a_node10"><a xlink:href="../../d6/daf/classboris__analyse_1_1BorisData.html#a9716069ebab019f18ffddd3197ea1cb8" target="_top" xlink:title="boris_analyse.BorisData.x_c">
<polygon fill="white" stroke="black" points="178.5,-76.5 178.5,-95.5 323.5,-95.5 323.5,-76.5 178.5,-76.5"/>
<text text-anchor="middle" x="251" y="-83.5" font-family="Helvetica,sans-Serif" font-size="10.00">boris_analyse.BorisData.x_c</text>
</a>
</g>
</g>
<!-- Node1&#45;&gt;Node10 -->
<g id="edge9" class="edge"><title>Node1&#45;&gt;Node10</title>
<path fill="none" stroke="midnightblue" d="M101.453,-127.823C120.175,-120.291 143.575,-111.449 165,-105 173.521,-102.435 182.617,-100.045 191.572,-97.8859"/>
<polygon fill="midnightblue" stroke="midnightblue" points="192.643,-101.23 201.586,-95.5484 191.052,-94.4133 192.643,-101.23"/>
</g>
<!-- Node11 -->
<g id="node11" class="node"><title>Node11</title>
<g id="a_node11"><a xlink:href="../../d6/daf/classboris__analyse_1_1BorisData.html#a4f8be4984d64ba2dd370463052896997" target="_top" xlink:title="boris_analyse.BorisData.y_c">
<polygon fill="white" stroke="black" points="178.5,-38.5 178.5,-57.5 323.5,-57.5 323.5,-38.5 178.5,-38.5"/>
<text text-anchor="middle" x="251" y="-45.5" font-family="Helvetica,sans-Serif" font-size="10.00">boris_analyse.BorisData.y_c</text>
</a>
</g>
</g>
<!-- Node1&#45;&gt;Node11 -->
<g id="edge10" class="edge"><title>Node1&#45;&gt;Node11</title>
<path fill="none" stroke="midnightblue" d="M80.9551,-127.701C99.3925,-110.336 131.9,-82.4255 165,-67 170.268,-64.5449 175.871,-62.3987 181.588,-60.524"/>
<polygon fill="midnightblue" stroke="midnightblue" points="182.706,-63.8427 191.28,-57.6187 180.696,-57.1375 182.706,-63.8427"/>
</g>
<!-- Node12 -->
<g id="node12" class="node"><title>Node12</title>
<g id="a_node12"><a xlink:href="../../d6/daf/classboris__analyse_1_1BorisData.html#a1058176da86df5bfd698e3466611d7cc" target="_top" xlink:title="boris_analyse.BorisData.z_c">
<polygon fill="white" stroke="black" points="178.5,-0.5 178.5,-19.5 323.5,-19.5 323.5,-0.5 178.5,-0.5"/>
<text text-anchor="middle" x="251" y="-7.5" font-family="Helvetica,sans-Serif" font-size="10.00">boris_analyse.BorisData.z_c</text>
</a>
</g>
</g>
<!-- Node1&#45;&gt;Node12 -->
<g id="edge11" class="edge"><title>Node1&#45;&gt;Node12</title>
<path fill="none" stroke="midnightblue" d="M74.33,-127.693C89.5083,-102.839 123.004,-53.9776 165,-29 168.655,-26.826 172.533,-24.9004 176.541,-23.1948"/>
<polygon fill="midnightblue" stroke="midnightblue" points="177.959,-26.4008 186.084,-19.601 175.492,-19.8499 177.959,-26.4008"/>
</g>
<!-- Node3 -->
<g id="node3" class="node"><title>Node3</title>
<g id="a_node3"><a xlink:href="../../d6/daf/classboris__analyse_1_1BorisData.html#a2353676f5a4be76b9016df64b12abb7c" target="_top" xlink:title="boris_analyse.BorisData.x">
<polygon fill="white" stroke="black" points="373,-310.5 373,-329.5 507,-329.5 507,-310.5 373,-310.5"/>
<text text-anchor="middle" x="440" y="-317.5" font-family="Helvetica,sans-Serif" font-size="10.00">boris_analyse.BorisData.x</text>
</a>
</g>
</g>
<!-- Node2&#45;&gt;Node3 -->
<g id="edge2" class="edge"><title>Node2&#45;&gt;Node3</title>
<path fill="none" stroke="midnightblue" d="M315.571,-294.918C337.136,-299.3 361.076,-304.165 382.088,-308.435"/>
<polygon fill="midnightblue" stroke="midnightblue" points="381.648,-311.917 392.145,-310.479 383.043,-305.057 381.648,-311.917"/>
</g>
<!-- Node4 -->
<g id="node4" class="node"><title>Node4</title>
<g id="a_node4"><a xlink:href="../../d6/daf/classboris__analyse_1_1BorisData.html#a3b998836d56dfd42da9964832c97a699" target="_top" xlink:title="boris_analyse.BorisData.y">
<polygon fill="white" stroke="black" points="373,-272.5 373,-291.5 507,-291.5 507,-272.5 373,-272.5"/>
<text text-anchor="middle" x="440" y="-279.5" font-family="Helvetica,sans-Serif" font-size="10.00">boris_analyse.BorisData.y</text>
</a>
</g>
</g>
<!-- Node2&#45;&gt;Node4 -->
<g id="edge3" class="edge"><title>Node2&#45;&gt;Node4</title>
<path fill="none" stroke="midnightblue" d="M315.571,-282C330.684,-282 346.963,-282 362.584,-282"/>
<polygon fill="midnightblue" stroke="midnightblue" points="362.735,-285.5 372.735,-282 362.735,-278.5 362.735,-285.5"/>
</g>
<!-- Node5 -->
<g id="node5" class="node"><title>Node5</title>
<g id="a_node5"><a xlink:href="../../d6/daf/classboris__analyse_1_1BorisData.html#a352041142945830eee790e553f144180" target="_top" xlink:title="boris_analyse.BorisData.z">
<polygon fill="white" stroke="black" points="373,-234.5 373,-253.5 507,-253.5 507,-234.5 373,-234.5"/>
<text text-anchor="middle" x="440" y="-241.5" font-family="Helvetica,sans-Serif" font-size="10.00">boris_analyse.BorisData.z</text>
</a>
</g>
</g>
<!-- Node2&#45;&gt;Node5 -->
<g id="edge4" class="edge"><title>Node2&#45;&gt;Node5</title>
<path fill="none" stroke="midnightblue" d="M315.571,-269.082C337.136,-264.7 361.076,-259.835 382.088,-255.565"/>
<polygon fill="midnightblue" stroke="midnightblue" points="383.043,-258.943 392.145,-253.521 381.648,-252.083 383.043,-258.943"/>
</g>
</g>
</svg>
