<?xml version="1.0" encoding="UTF-8" standalone="no"?>
<!DOCTYPE svg PUBLIC "-//W3C//DTD SVG 1.1//EN"
 "http://www.w3.org/Graphics/SVG/1.1/DTD/svg11.dtd">
<!-- Generated by graphviz version 2.38.0 (20140413.2041)
 -->
<!-- Title: boris_analyse.BorisData.z Pages: 1 -->
<svg width="472pt" height="39pt"
 viewBox="0.00 0.00 472.00 39.00" xmlns="http://www.w3.org/2000/svg" xmlns:xlink="http://www.w3.org/1999/xlink">
<g id="graph0" class="graph" transform="scale(1 1) rotate(0) translate(4 35)">
<title>boris_analyse.BorisData.z</title>
<polygon fill="white" stroke="none" points="-4,4 -4,-35 468,-35 468,4 -4,4"/>
<!-- Node1 -->
<g id="node1" class="node"><title>Node1</title>
<polygon fill="#bfbfbf" stroke="black" points="0,-6 0,-25 134,-25 134,-6 0,-6"/>
<text text-anchor="middle" x="67" y="-13" font-family="Helvetica,sans-Serif" font-size="10.00">boris_analyse.BorisData.z</text>
</g>
<!-- Node2 -->
<g id="node2" class="node"><title>Node2</title>
<g id="a_node2"><a xlink:href="../../d6/daf/classboris__analyse_1_1BorisData.html#ac0b1b7ad661b5013cab7ed0f0398730c" target="_top" xlink:title="boris_analyse.BorisData.\l_get_coords">
<polygon fill="white" stroke="black" points="170,-0.5 170,-30.5 299,-30.5 299,-0.5 170,-0.5"/>
<text text-anchor="start" x="178" y="-18.5" font-family="Helvetica,sans-Serif" font-size="10.00">boris_analyse.BorisData.</text>
<text text-anchor="middle" x="234.5" y="-7.5" font-family="Helvetica,sans-Serif" font-size="10.00">_get_coords</text>
</a>
</g>
</g>
<!-- Node1&#45;&gt;Node2 -->
<g id="edge1" class="edge"><title>Node1&#45;&gt;Node2</title>
<path fill="none" stroke="midnightblue" d="M144.59,-15.5C153.03,-15.5 161.555,-15.5 169.813,-15.5"/>
<polygon fill="midnightblue" stroke="midnightblue" points="144.362,-12.0001 134.362,-15.5 144.362,-19.0001 144.362,-12.0001"/>
</g>
<!-- Node3 -->
<g id="node3" class="node"><title>Node3</title>
<g id="a_node3"><a xlink:href="../../d6/daf/classboris__analyse_1_1BorisData.html#a184076e9c8468c3fdaf22b006712375e" target="_top" xlink:title="boris_analyse.BorisData.\l_read_data">
<polygon fill="white" stroke="black" points="335,-0.5 335,-30.5 464,-30.5 464,-0.5 335,-0.5"/>
<text text-anchor="start" x="343" y="-18.5" font-family="Helvetica,sans-Serif" font-size="10.00">boris_analyse.BorisData.</text>
<text text-anchor="middle" x="399.5" y="-7.5" font-family="Helvetica,sans-Serif" font-size="10.00">_read_data</text>
</a>
</g>
</g>
<!-- Node2&#45;&gt;Node3 -->
<g id="edge2" class="edge"><title>Node2&#45;&gt;Node3</title>
<path fill="none" stroke="midnightblue" d="M309.688,-15.5C318.141,-15.5 326.701,-15.5 334.998,-15.5"/>
<polygon fill="midnightblue" stroke="midnightblue" points="309.454,-12.0001 299.454,-15.5 309.454,-19.0001 309.454,-12.0001"/>
</g>
</g>
</svg>
