<?xml version="1.0" encoding="UTF-8" standalone="no"?>
<!DOCTYPE svg PUBLIC "-//W3C//DTD SVG 1.1//EN"
 "http://www.w3.org/Graphics/SVG/1.1/DTD/svg11.dtd">
<!-- Generated by graphviz version 2.38.0 (20140413.2041)
 -->
<!-- Title: pfasst::quadrature::GaussLobatto::GaussLobatto Pages: 1 -->
<svg width="672pt" height="186pt"
 viewBox="0.00 0.00 672.00 186.00" xmlns="http://www.w3.org/2000/svg" xmlns:xlink="http://www.w3.org/1999/xlink">
<g id="graph0" class="graph" transform="scale(1 1) rotate(0) translate(4 182)">
<title>pfasst::quadrature::GaussLobatto::GaussLobatto</title>
<polygon fill="white" stroke="none" points="-4,4 -4,-182 668,-182 668,4 -4,4"/>
<!-- Node1 -->
<g id="node1" class="node"><title>Node1</title>
<polygon fill="#bfbfbf" stroke="black" points="0,-98.5 0,-128.5 155,-128.5 155,-98.5 0,-98.5"/>
<text text-anchor="start" x="8" y="-116.5" font-family="Helvetica,sans-Serif" font-size="10.00">pfasst::quadrature</text>
<text text-anchor="middle" x="77.5" y="-105.5" font-family="Helvetica,sans-Serif" font-size="10.00">::GaussLobatto::GaussLobatto</text>
</g>
<!-- Node2 -->
<g id="node2" class="node"><title>Node2</title>
<g id="a_node2"><a xlink:href="../../de/d23/classpfasst_1_1quadrature_1_1GaussLobatto.html#a5fa573d4a52bdc49bee779cc248695be" target="_top" xlink:title="pfasst::quadrature\l::GaussLobatto::compute_nodes">
<polygon fill="white" stroke="black" points="191,-136.5 191,-166.5 355,-166.5 355,-136.5 191,-136.5"/>
<text text-anchor="start" x="199" y="-154.5" font-family="Helvetica,sans-Serif" font-size="10.00">pfasst::quadrature</text>
<text text-anchor="middle" x="273" y="-143.5" font-family="Helvetica,sans-Serif" font-size="10.00">::GaussLobatto::compute_nodes</text>
</a>
</g>
</g>
<!-- Node1&#45;&gt;Node2 -->
<g id="edge1" class="edge"><title>Node1&#45;&gt;Node2</title>
<path fill="none" stroke="midnightblue" d="M154.976,-128.519C164.959,-130.479 175.243,-132.499 185.378,-134.489"/>
<polygon fill="midnightblue" stroke="midnightblue" points="184.958,-137.973 195.446,-136.466 186.307,-131.105 184.958,-137.973"/>
</g>
<!-- Node4 -->
<g id="node4" class="node"><title>Node4</title>
<g id="a_node4"><a xlink:href="../../de/d20/classpfasst_1_1quadrature_1_1IQuadrature.html#aa282053968e191e35b57d6a8820ca1f7" target="_top" xlink:title="pfasst::quadrature\l::IQuadrature::compute\l_weights">
<polygon fill="white" stroke="black" points="213.5,-55 213.5,-96 332.5,-96 332.5,-55 213.5,-55"/>
<text text-anchor="start" x="221.5" y="-84" font-family="Helvetica,sans-Serif" font-size="10.00">pfasst::quadrature</text>
<text text-anchor="start" x="221.5" y="-73" font-family="Helvetica,sans-Serif" font-size="10.00">::IQuadrature::compute</text>
<text text-anchor="middle" x="273" y="-62" font-family="Helvetica,sans-Serif" font-size="10.00">_weights</text>
</a>
</g>
</g>
<!-- Node1&#45;&gt;Node4 -->
<g id="edge3" class="edge"><title>Node1&#45;&gt;Node4</title>
<path fill="none" stroke="midnightblue" d="M154.976,-98.4814C170.921,-95.3501 187.635,-92.0678 203.279,-88.9956"/>
<polygon fill="midnightblue" stroke="midnightblue" points="204.248,-92.3723 213.386,-87.0108 202.899,-85.5035 204.248,-92.3723"/>
</g>
<!-- Node3 -->
<g id="node3" class="node"><title>Node3</title>
<g id="a_node3"><a xlink:href="../../d6/dd0/classpfasst_1_1quadrature_1_1Polynomial.html#a9658a586f822aaafe057120cd258ad73" target="_top" xlink:title="Computes the Legendre polynomial of given order. ">
<polygon fill="white" stroke="black" points="391,-147.5 391,-177.5 510,-177.5 510,-147.5 391,-147.5"/>
<text text-anchor="start" x="399" y="-165.5" font-family="Helvetica,sans-Serif" font-size="10.00">pfasst::quadrature</text>
<text text-anchor="middle" x="450.5" y="-154.5" font-family="Helvetica,sans-Serif" font-size="10.00">::Polynomial::legendre</text>
</a>
</g>
</g>
<!-- Node2&#45;&gt;Node3 -->
<g id="edge2" class="edge"><title>Node2&#45;&gt;Node3</title>
<path fill="none" stroke="midnightblue" d="M355.072,-156.581C363.628,-157.118 372.269,-157.659 380.667,-158.186"/>
<polygon fill="midnightblue" stroke="midnightblue" points="380.57,-161.686 390.769,-158.819 381.008,-154.7 380.57,-161.686"/>
</g>
<!-- Node5 -->
<g id="node5" class="node"><title>Node5</title>
<g id="a_node5"><a xlink:href="../../de/d84/namespacepfasst_1_1quadrature.html#a1a124b78f225d13b253ff8e2fb799aa5" target="_top" xlink:title="Compute quadrature matrix \( Q \) between two sets of nodes. ">
<polygon fill="white" stroke="black" points="398.5,-98.5 398.5,-128.5 502.5,-128.5 502.5,-98.5 398.5,-98.5"/>
<text text-anchor="start" x="406.5" y="-116.5" font-family="Helvetica,sans-Serif" font-size="10.00">pfasst::quadrature</text>
<text text-anchor="middle" x="450.5" y="-105.5" font-family="Helvetica,sans-Serif" font-size="10.00">::compute_q_matrix</text>
</a>
</g>
</g>
<!-- Node4&#45;&gt;Node5 -->
<g id="edge4" class="edge"><title>Node4&#45;&gt;Node5</title>
<path fill="none" stroke="midnightblue" d="M332.927,-88.2592C350.823,-92.1341 370.519,-96.3987 388.546,-100.302"/>
<polygon fill="midnightblue" stroke="midnightblue" points="387.853,-103.733 398.367,-102.428 389.334,-96.8914 387.853,-103.733"/>
</g>
<!-- Node9 -->
<g id="node9" class="node"><title>Node9</title>
<g id="a_node9"><a xlink:href="../../de/d84/namespacepfasst_1_1quadrature.html#a106e6af4f4fa7f33ae6c68ea391dc6e0" target="_top" xlink:title="Compute node&#45;to&#45;node quadrature matrix \( S \) from a given quadrature matrix \( Q \)...">
<polygon fill="white" stroke="black" points="398.5,-0.5 398.5,-30.5 502.5,-30.5 502.5,-0.5 398.5,-0.5"/>
<text text-anchor="start" x="406.5" y="-18.5" font-family="Helvetica,sans-Serif" font-size="10.00">pfasst::quadrature</text>
<text text-anchor="middle" x="450.5" y="-7.5" font-family="Helvetica,sans-Serif" font-size="10.00">::compute_s_matrix</text>
</a>
</g>
</g>
<!-- Node4&#45;&gt;Node9 -->
<g id="edge8" class="edge"><title>Node4&#45;&gt;Node9</title>
<path fill="none" stroke="midnightblue" d="M332.927,-55.354C353.294,-48.3909 375.992,-40.631 395.908,-33.8222"/>
<polygon fill="midnightblue" stroke="midnightblue" points="397.109,-37.1105 405.439,-30.5637 394.844,-30.4869 397.109,-37.1105"/>
</g>
<!-- Node10 -->
<g id="node10" class="node"><title>Node10</title>
<g id="a_node10"><a xlink:href="../../de/d84/namespacepfasst_1_1quadrature.html#a77ad709add97d78ea02404286fe15f02" target="_top" xlink:title="Compute vector \( q \) for integration from \( 0 \) to \( 1 \) for given set of nodes. ">
<polygon fill="white" stroke="black" points="401.5,-49.5 401.5,-79.5 499.5,-79.5 499.5,-49.5 401.5,-49.5"/>
<text text-anchor="start" x="409.5" y="-67.5" font-family="Helvetica,sans-Serif" font-size="10.00">pfasst::quadrature</text>
<text text-anchor="middle" x="450.5" y="-56.5" font-family="Helvetica,sans-Serif" font-size="10.00">::compute_q_vec</text>
</a>
</g>
</g>
<!-- Node4&#45;&gt;Node10 -->
<g id="edge9" class="edge"><title>Node4&#45;&gt;Node10</title>
<path fill="none" stroke="midnightblue" d="M332.927,-71.8066C351.664,-70.6322 372.372,-69.3342 391.073,-68.1621"/>
<polygon fill="midnightblue" stroke="midnightblue" points="391.47,-71.6442 401.231,-67.5254 391.032,-64.6579 391.47,-71.6442"/>
</g>
<!-- Node6 -->
<g id="node6" class="node"><title>Node6</title>
<g id="a_node6"><a xlink:href="../../de/d84/namespacepfasst_1_1quadrature.html#a37425ec75a53d150c06f1b47dc8bc047" target="_top" xlink:title="pfasst::quadrature\l::build_polynomial">
<polygon fill="white" stroke="black" points="556,-122.5 556,-152.5 654,-152.5 654,-122.5 556,-122.5"/>
<text text-anchor="start" x="564" y="-140.5" font-family="Helvetica,sans-Serif" font-size="10.00">pfasst::quadrature</text>
<text text-anchor="middle" x="605" y="-129.5" font-family="Helvetica,sans-Serif" font-size="10.00">::build_polynomial</text>
</a>
</g>
</g>
<!-- Node5&#45;&gt;Node6 -->
<g id="edge5" class="edge"><title>Node5&#45;&gt;Node6</title>
<path fill="none" stroke="midnightblue" d="M502.705,-121.558C516.491,-123.728 531.506,-126.091 545.651,-128.317"/>
<polygon fill="midnightblue" stroke="midnightblue" points="545.343,-131.812 555.766,-129.909 546.432,-124.897 545.343,-131.812"/>
</g>
<!-- Node7 -->
<g id="node7" class="node"><title>Node7</title>
<g id="a_node7"><a xlink:href="../../d6/dd0/classpfasst_1_1quadrature_1_1Polynomial.html#ab6ca606fac17e7b963a60ee34271090e" target="_top" xlink:title="Evaluate polynomial for given value. ">
<polygon fill="white" stroke="black" points="546,-73.5 546,-103.5 664,-103.5 664,-73.5 546,-73.5"/>
<text text-anchor="start" x="554" y="-91.5" font-family="Helvetica,sans-Serif" font-size="10.00">pfasst::quadrature</text>
<text text-anchor="middle" x="605" y="-80.5" font-family="Helvetica,sans-Serif" font-size="10.00">::Polynomial::evaluate</text>
</a>
</g>
</g>
<!-- Node5&#45;&gt;Node7 -->
<g id="edge6" class="edge"><title>Node5&#45;&gt;Node7</title>
<path fill="none" stroke="midnightblue" d="M502.705,-105.106C513.304,-103.368 524.631,-101.511 535.729,-99.692"/>
<polygon fill="midnightblue" stroke="midnightblue" points="536.528,-103.108 545.83,-98.0361 535.395,-96.2001 536.528,-103.108"/>
</g>
<!-- Node8 -->
<g id="node8" class="node"><title>Node8</title>
<g id="a_node8"><a xlink:href="../../d6/dd0/classpfasst_1_1quadrature_1_1Polynomial.html#a52bf17679c1a86638be7e7564bb6c78d" target="_top" xlink:title="Integrates this polynomial. ">
<polygon fill="white" stroke="black" points="546,-24.5 546,-54.5 664,-54.5 664,-24.5 546,-24.5"/>
<text text-anchor="start" x="554" y="-42.5" font-family="Helvetica,sans-Serif" font-size="10.00">pfasst::quadrature</text>
<text text-anchor="middle" x="605" y="-31.5" font-family="Helvetica,sans-Serif" font-size="10.00">::Polynomial::integrate</text>
</a>
</g>
</g>
<!-- Node5&#45;&gt;Node8 -->
<g id="edge7" class="edge"><title>Node5&#45;&gt;Node8</title>
<path fill="none" stroke="midnightblue" d="M491.691,-98.3714C497.926,-95.6374 504.214,-92.6471 510,-89.5 527.112,-80.1926 528.971,-73.9581 546,-64.5 549.46,-62.5784 553.097,-60.7017 556.793,-58.8954"/>
<polygon fill="midnightblue" stroke="midnightblue" points="558.463,-61.9781 566.032,-54.5651 555.492,-55.6397 558.463,-61.9781"/>
</g>
<!-- Node10&#45;&gt;Node6 -->
<g id="edge10" class="edge"><title>Node10&#45;&gt;Node6</title>
<path fill="none" stroke="midnightblue" d="M489.434,-79.5011C496.383,-82.5882 503.491,-85.9787 510,-89.5 526.913,-98.6504 529.035,-104.447 546,-113.5 549.024,-115.114 552.18,-116.693 555.391,-118.222"/>
<polygon fill="midnightblue" stroke="midnightblue" points="553.968,-121.42 564.518,-122.386 556.873,-115.051 553.968,-121.42"/>
</g>
<!-- Node10&#45;&gt;Node7 -->
<g id="edge11" class="edge"><title>Node10&#45;&gt;Node7</title>
<path fill="none" stroke="midnightblue" d="M499.752,-72.0938C511.205,-73.8962 523.637,-75.8527 535.793,-77.7657"/>
<polygon fill="midnightblue" stroke="midnightblue" points="535.489,-81.2609 545.911,-79.3582 536.577,-74.346 535.489,-81.2609"/>
</g>
<!-- Node10&#45;&gt;Node8 -->
<g id="edge12" class="edge"><title>Node10&#45;&gt;Node8</title>
<path fill="none" stroke="midnightblue" d="M499.752,-56.5898C511.205,-54.7123 523.637,-52.6743 535.793,-50.6815"/>
<polygon fill="midnightblue" stroke="midnightblue" points="536.609,-54.0945 545.911,-49.0227 535.477,-47.1867 536.609,-54.0945"/>
</g>
</g>
</svg>
