<?xml version="1.0" encoding="UTF-8" standalone="no"?>
<!DOCTYPE svg PUBLIC "-//W3C//DTD SVG 1.1//EN"
 "http://www.w3.org/Graphics/SVG/1.1/DTD/svg11.dtd">
<!-- Generated by graphviz version 2.38.0 (20140413.2041)
 -->
<!-- Title: pfasst::examples::boris::ParticleCloud&lt; precision &gt; Pages: 1 -->
<svg width="372pt" height="1008pt"
 viewBox="0.00 0.00 371.50 1008.00" xmlns="http://www.w3.org/2000/svg" xmlns:xlink="http://www.w3.org/1999/xlink">
<g id="graph0" class="graph" transform="scale(1 1) rotate(0) translate(4 1004)">
<title>pfasst::examples::boris::ParticleCloud&lt; precision &gt;</title>
<polygon fill="white" stroke="none" points="-4,4 -4,-1004 367.5,-1004 367.5,4 -4,4"/>
<!-- Node1 -->
<g id="node1" class="node"><title>Node1</title>
<polygon fill="#bfbfbf" stroke="black" points="121.5,-0.5 121.5,-233.5 263.5,-233.5 263.5,-0.5 121.5,-0.5"/>
<text text-anchor="start" x="129.5" y="-221.5" font-family="Helvetica,sans-Serif" font-size="10.00">pfasst::examples::boris</text>
<text text-anchor="middle" x="192.5" y="-210.5" font-family="Helvetica,sans-Serif" font-size="10.00">::ParticleCloud&lt; precision &gt;</text>
<polyline fill="none" stroke="black" points="121.5,-203.5 263.5,-203.5 "/>
<text text-anchor="start" x="129.5" y="-191.5" font-family="Helvetica,sans-Serif" font-size="10.00">&#45; _dim</text>
<text text-anchor="start" x="129.5" y="-180.5" font-family="Helvetica,sans-Serif" font-size="10.00">&#45; _num_particles</text>
<text text-anchor="start" x="129.5" y="-169.5" font-family="Helvetica,sans-Serif" font-size="10.00">&#45; _positions</text>
<text text-anchor="start" x="129.5" y="-158.5" font-family="Helvetica,sans-Serif" font-size="10.00">&#45; _velocities</text>
<text text-anchor="start" x="129.5" y="-147.5" font-family="Helvetica,sans-Serif" font-size="10.00">&#45; _default_charge</text>
<text text-anchor="start" x="129.5" y="-136.5" font-family="Helvetica,sans-Serif" font-size="10.00">&#45; _default_mass</text>
<polyline fill="none" stroke="black" points="121.5,-129.5 263.5,-129.5 "/>
<text text-anchor="start" x="129.5" y="-117.5" font-family="Helvetica,sans-Serif" font-size="10.00">+ ParticleCloud()</text>
<text text-anchor="start" x="129.5" y="-106.5" font-family="Helvetica,sans-Serif" font-size="10.00">+ ~ParticleCloud()</text>
<text text-anchor="start" x="129.5" y="-95.5" font-family="Helvetica,sans-Serif" font-size="10.00">+ zero()</text>
<text text-anchor="start" x="129.5" y="-84.5" font-family="Helvetica,sans-Serif" font-size="10.00">+ copy()</text>
<text text-anchor="start" x="129.5" y="-73.5" font-family="Helvetica,sans-Serif" font-size="10.00">+ size()</text>
<text text-anchor="start" x="129.5" y="-62.5" font-family="Helvetica,sans-Serif" font-size="10.00">+ dim()</text>
<text text-anchor="start" x="129.5" y="-51.5" font-family="Helvetica,sans-Serif" font-size="10.00">+ positions()</text>
<text text-anchor="start" x="129.5" y="-40.5" font-family="Helvetica,sans-Serif" font-size="10.00">+ positions()</text>
<text text-anchor="start" x="129.5" y="-29.5" font-family="Helvetica,sans-Serif" font-size="10.00">+ velocities()</text>
<text text-anchor="start" x="129.5" y="-18.5" font-family="Helvetica,sans-Serif" font-size="10.00">+ velocities()</text>
<text text-anchor="start" x="129.5" y="-7.5" font-family="Helvetica,sans-Serif" font-size="10.00">and 12 more...</text>
</g>
<!-- Node2 -->
<g id="node2" class="node"><title>Node2</title>
<g id="a_node2"><a xlink:href="../../dc/ddd/classpfasst_1_1encap_1_1Encapsulation.html" target="_top" xlink:title="{pfasst::encap::Encapsulation\l\&lt; precision \&gt;\n||+ ~Encapsulation()\l+ zero()\l+ copy()\l+ norm0()\l+ saxpy()\l+ mat_apply()\l+ post()\l+ send()\l+ recv()\l+ broadcast()\l* ~Encapsulation()\l* zero()\l* copy()\l* norm0()\l* saxpy()\l* mat_apply()\l* post()\l* send()\l* recv()\l* broadcast()\l}">
<polygon fill="white" stroke="black" points="0,-292.5 0,-569.5 145,-569.5 145,-292.5 0,-292.5"/>
<text text-anchor="start" x="8" y="-557.5" font-family="Helvetica,sans-Serif" font-size="10.00">pfasst::encap::Encapsulation</text>
<text text-anchor="middle" x="72.5" y="-546.5" font-family="Helvetica,sans-Serif" font-size="10.00">&lt; precision &gt;</text>
<polyline fill="none" stroke="black" points="0,-539.5 145,-539.5 "/>
<text text-anchor="middle" x="72.5" y="-527.5" font-family="Helvetica,sans-Serif" font-size="10.00"> </text>
<polyline fill="none" stroke="black" points="0,-520.5 145,-520.5 "/>
<text text-anchor="start" x="8" y="-508.5" font-family="Helvetica,sans-Serif" font-size="10.00">+ ~Encapsulation()</text>
<text text-anchor="start" x="8" y="-497.5" font-family="Helvetica,sans-Serif" font-size="10.00">+ zero()</text>
<text text-anchor="start" x="8" y="-486.5" font-family="Helvetica,sans-Serif" font-size="10.00">+ copy()</text>
<text text-anchor="start" x="8" y="-475.5" font-family="Helvetica,sans-Serif" font-size="10.00">+ norm0()</text>
<text text-anchor="start" x="8" y="-464.5" font-family="Helvetica,sans-Serif" font-size="10.00">+ saxpy()</text>
<text text-anchor="start" x="8" y="-453.5" font-family="Helvetica,sans-Serif" font-size="10.00">+ mat_apply()</text>
<text text-anchor="start" x="8" y="-442.5" font-family="Helvetica,sans-Serif" font-size="10.00">+ post()</text>
<text text-anchor="start" x="8" y="-431.5" font-family="Helvetica,sans-Serif" font-size="10.00">+ send()</text>
<text text-anchor="start" x="8" y="-420.5" font-family="Helvetica,sans-Serif" font-size="10.00">+ recv()</text>
<text text-anchor="start" x="8" y="-409.5" font-family="Helvetica,sans-Serif" font-size="10.00">+ broadcast()</text>
<text text-anchor="start" x="8" y="-398.5" font-family="Helvetica,sans-Serif" font-size="10.00">* ~Encapsulation()</text>
<text text-anchor="start" x="8" y="-387.5" font-family="Helvetica,sans-Serif" font-size="10.00">* zero()</text>
<text text-anchor="start" x="8" y="-376.5" font-family="Helvetica,sans-Serif" font-size="10.00">* copy()</text>
<text text-anchor="start" x="8" y="-365.5" font-family="Helvetica,sans-Serif" font-size="10.00">* norm0()</text>
<text text-anchor="start" x="8" y="-354.5" font-family="Helvetica,sans-Serif" font-size="10.00">* saxpy()</text>
<text text-anchor="start" x="8" y="-343.5" font-family="Helvetica,sans-Serif" font-size="10.00">* mat_apply()</text>
<text text-anchor="start" x="8" y="-332.5" font-family="Helvetica,sans-Serif" font-size="10.00">* post()</text>
<text text-anchor="start" x="8" y="-321.5" font-family="Helvetica,sans-Serif" font-size="10.00">* send()</text>
<text text-anchor="start" x="8" y="-310.5" font-family="Helvetica,sans-Serif" font-size="10.00">* recv()</text>
<text text-anchor="start" x="8" y="-299.5" font-family="Helvetica,sans-Serif" font-size="10.00">* broadcast()</text>
</a>
</g>
</g>
<!-- Node2&#45;&gt;Node1 -->
<g id="edge1" class="edge"><title>Node2&#45;&gt;Node1</title>
<path fill="none" stroke="midnightblue" d="M129.201,-282.577C135.53,-266.123 141.907,-249.542 148.051,-233.568"/>
<polygon fill="none" stroke="midnightblue" points="125.806,-281.654 125.483,-292.244 132.34,-284.167 125.806,-281.654"/>
</g>
<!-- Node3 -->
<g id="node3" class="node"><title>Node3</title>
<g id="a_node3"><a xlink:href="../../dc/ddd/classpfasst_1_1encap_1_1Encapsulation.html" target="_top" xlink:title="Data/solution encapsulation. ">
<polygon fill="white" stroke="black" points="0,-617.5 0,-894.5 145,-894.5 145,-617.5 0,-617.5"/>
<text text-anchor="start" x="8" y="-882.5" font-family="Helvetica,sans-Serif" font-size="10.00">pfasst::encap::Encapsulation</text>
<text text-anchor="middle" x="72.5" y="-871.5" font-family="Helvetica,sans-Serif" font-size="10.00">&lt; time &gt;</text>
<polyline fill="none" stroke="black" points="0,-864.5 145,-864.5 "/>
<text text-anchor="middle" x="72.5" y="-852.5" font-family="Helvetica,sans-Serif" font-size="10.00"> </text>
<polyline fill="none" stroke="black" points="0,-845.5 145,-845.5 "/>
<text text-anchor="start" x="8" y="-833.5" font-family="Helvetica,sans-Serif" font-size="10.00">+ ~Encapsulation()</text>
<text text-anchor="start" x="8" y="-822.5" font-family="Helvetica,sans-Serif" font-size="10.00">+ zero()</text>
<text text-anchor="start" x="8" y="-811.5" font-family="Helvetica,sans-Serif" font-size="10.00">+ copy()</text>
<text text-anchor="start" x="8" y="-800.5" font-family="Helvetica,sans-Serif" font-size="10.00">+ norm0()</text>
<text text-anchor="start" x="8" y="-789.5" font-family="Helvetica,sans-Serif" font-size="10.00">+ saxpy()</text>
<text text-anchor="start" x="8" y="-778.5" font-family="Helvetica,sans-Serif" font-size="10.00">+ mat_apply()</text>
<text text-anchor="start" x="8" y="-767.5" font-family="Helvetica,sans-Serif" font-size="10.00">+ post()</text>
<text text-anchor="start" x="8" y="-756.5" font-family="Helvetica,sans-Serif" font-size="10.00">+ send()</text>
<text text-anchor="start" x="8" y="-745.5" font-family="Helvetica,sans-Serif" font-size="10.00">+ recv()</text>
<text text-anchor="start" x="8" y="-734.5" font-family="Helvetica,sans-Serif" font-size="10.00">+ broadcast()</text>
<text text-anchor="start" x="8" y="-723.5" font-family="Helvetica,sans-Serif" font-size="10.00">* ~Encapsulation()</text>
<text text-anchor="start" x="8" y="-712.5" font-family="Helvetica,sans-Serif" font-size="10.00">* zero()</text>
<text text-anchor="start" x="8" y="-701.5" font-family="Helvetica,sans-Serif" font-size="10.00">* copy()</text>
<text text-anchor="start" x="8" y="-690.5" font-family="Helvetica,sans-Serif" font-size="10.00">* norm0()</text>
<text text-anchor="start" x="8" y="-679.5" font-family="Helvetica,sans-Serif" font-size="10.00">* saxpy()</text>
<text text-anchor="start" x="8" y="-668.5" font-family="Helvetica,sans-Serif" font-size="10.00">* mat_apply()</text>
<text text-anchor="start" x="8" y="-657.5" font-family="Helvetica,sans-Serif" font-size="10.00">* post()</text>
<text text-anchor="start" x="8" y="-646.5" font-family="Helvetica,sans-Serif" font-size="10.00">* send()</text>
<text text-anchor="start" x="8" y="-635.5" font-family="Helvetica,sans-Serif" font-size="10.00">* recv()</text>
<text text-anchor="start" x="8" y="-624.5" font-family="Helvetica,sans-Serif" font-size="10.00">* broadcast()</text>
</a>
</g>
</g>
<!-- Node3&#45;&gt;Node2 -->
<g id="edge2" class="edge"><title>Node3&#45;&gt;Node2</title>
<path fill="none" stroke="orange" d="M72.5,-606.749C72.5,-594.411 72.5,-581.969 72.5,-569.714"/>
<polygon fill="orange" stroke="orange" points="69.0001,-607.082 72.5,-617.082 76.0001,-607.082 69.0001,-607.082"/>
<text text-anchor="middle" x="103.5" y="-591" font-family="Helvetica,sans-Serif" font-size="10.00"> &lt; precision &gt;</text>
</g>
<!-- Node4 -->
<g id="node4" class="node"><title>Node4</title>
<polygon fill="white" stroke="#bfbfbf" points="163,-402.5 163,-459.5 222,-459.5 222,-402.5 163,-402.5"/>
<text text-anchor="middle" x="192.5" y="-447.5" font-family="Helvetica,sans-Serif" font-size="10.00">Loggable</text>
<polyline fill="none" stroke="#bfbfbf" points="163,-440.5 222,-440.5 "/>
<text text-anchor="middle" x="192.5" y="-428.5" font-family="Helvetica,sans-Serif" font-size="10.00"> </text>
<polyline fill="none" stroke="#bfbfbf" points="163,-421.5 222,-421.5 "/>
<text text-anchor="middle" x="192.5" y="-409.5" font-family="Helvetica,sans-Serif" font-size="10.00"> </text>
</g>
<!-- Node4&#45;&gt;Node1 -->
<g id="edge3" class="edge"><title>Node4&#45;&gt;Node1</title>
<path fill="none" stroke="midnightblue" d="M192.5,-392.15C192.5,-352.908 192.5,-289.591 192.5,-233.689"/>
<polygon fill="none" stroke="midnightblue" points="189,-392.312 192.5,-402.312 196,-392.312 189,-392.312"/>
</g>
<!-- Node5 -->
<g id="node5" class="node"><title>Node5</title>
<polygon fill="white" stroke="#bfbfbf" points="240.5,-402.5 240.5,-459.5 362.5,-459.5 362.5,-402.5 240.5,-402.5"/>
<text text-anchor="middle" x="301.5" y="-447.5" font-family="Helvetica,sans-Serif" font-size="10.00">std::vector&lt; precision &gt;</text>
<polyline fill="none" stroke="#bfbfbf" points="240.5,-440.5 362.5,-440.5 "/>
<text text-anchor="start" x="248.5" y="-428.5" font-family="Helvetica,sans-Serif" font-size="10.00">+ elements</text>
<polyline fill="none" stroke="#bfbfbf" points="240.5,-421.5 362.5,-421.5 "/>
<text text-anchor="middle" x="301.5" y="-409.5" font-family="Helvetica,sans-Serif" font-size="10.00"> </text>
</g>
<!-- Node5&#45;&gt;Node1 -->
<g id="edge4" class="edge"><title>Node5&#45;&gt;Node1</title>
<path fill="none" stroke="#404040" d="M291.827,-402.312C279.469,-366.939 257.245,-303.324 236.947,-245.225"/>
<polygon fill="none" stroke="#404040" points="236.875,-245.017 231.12,-240.672 232.917,-233.689 238.672,-238.034 236.875,-245.017"/>
<text text-anchor="middle" x="272" y="-266" font-family="Helvetica,sans-Serif" font-size="10.00"> &#45;_charges</text>
<text text-anchor="middle" x="272" y="-255" font-family="Helvetica,sans-Serif" font-size="10.00">&#45;_masses</text>
</g>
<!-- Node6 -->
<g id="node6" class="node"><title>Node6</title>
<g id="a_node6"><a xlink:title="STL class. ">
<polygon fill="white" stroke="#bfbfbf" points="257,-727.5 257,-784.5 346,-784.5 346,-727.5 257,-727.5"/>
<text text-anchor="middle" x="301.5" y="-772.5" font-family="Helvetica,sans-Serif" font-size="10.00">std::vector&lt; T &gt;</text>
<polyline fill="none" stroke="#bfbfbf" points="257,-765.5 346,-765.5 "/>
<text text-anchor="middle" x="301.5" y="-753.5" font-family="Helvetica,sans-Serif" font-size="10.00"> </text>
<polyline fill="none" stroke="#bfbfbf" points="257,-746.5 346,-746.5 "/>
<text text-anchor="middle" x="301.5" y="-734.5" font-family="Helvetica,sans-Serif" font-size="10.00"> </text>
</a>
</g>
</g>
<!-- Node6&#45;&gt;Node5 -->
<g id="edge5" class="edge"><title>Node6&#45;&gt;Node5</title>
<path fill="none" stroke="orange" d="M301.5,-717.15C301.5,-651.486 301.5,-517.929 301.5,-459.928"/>
<polygon fill="orange" stroke="orange" points="298,-717.461 301.5,-727.461 305,-717.461 298,-717.461"/>
<text text-anchor="middle" x="332.5" y="-591" font-family="Helvetica,sans-Serif" font-size="10.00"> &lt; precision &gt;</text>
</g>
<!-- Node7 -->
<g id="node7" class="node"><title>Node7</title>
<polygon fill="white" stroke="#bfbfbf" points="287,-942.5 287,-999.5 316,-999.5 316,-942.5 287,-942.5"/>
<text text-anchor="middle" x="301.5" y="-987.5" font-family="Helvetica,sans-Serif" font-size="10.00">T</text>
<polyline fill="none" stroke="#bfbfbf" points="287,-980.5 316,-980.5 "/>
<text text-anchor="middle" x="301.5" y="-968.5" font-family="Helvetica,sans-Serif" font-size="10.00"> </text>
<polyline fill="none" stroke="#bfbfbf" points="287,-961.5 316,-961.5 "/>
<text text-anchor="middle" x="301.5" y="-949.5" font-family="Helvetica,sans-Serif" font-size="10.00"> </text>
</g>
<!-- Node7&#45;&gt;Node6 -->
<g id="edge6" class="edge"><title>Node7&#45;&gt;Node6</title>
<path fill="none" stroke="#404040" d="M301.5,-942.154C301.5,-904.978 301.5,-838.91 301.5,-796.572"/>
<polygon fill="none" stroke="#404040" points="301.5,-796.515 297.5,-790.515 301.5,-784.515 305.5,-790.515 301.5,-796.515"/>
<text text-anchor="middle" x="327" y="-916" font-family="Helvetica,sans-Serif" font-size="10.00"> +elements</text>
</g>
</g>
</svg>
