<?xml version="1.0" encoding="UTF-8" standalone="no"?>
<!DOCTYPE svg PUBLIC "-//W3C//DTD SVG 1.1//EN"
 "http://www.w3.org/Graphics/SVG/1.1/DTD/svg11.dtd">
<!-- Generated by graphviz version 2.38.0 (20140413.2041)
 -->
<!-- Title: examples/advection_diffusion/spectral_transfer_1d.hpp Pages: 1 -->
<svg width="290pt" height="117pt"
 viewBox="0.00 0.00 290.00 117.00" xmlns="http://www.w3.org/2000/svg" xmlns:xlink="http://www.w3.org/1999/xlink">
<g id="graph0" class="graph" transform="scale(1 1) rotate(0) translate(4 113)">
<title>examples/advection_diffusion/spectral_transfer_1d.hpp</title>
<polygon fill="white" stroke="none" points="-4,4 -4,-113 286,-113 286,4 -4,4"/>
<!-- Node1 -->
<g id="node1" class="node"><title>Node1</title>
<polygon fill="#bfbfbf" stroke="black" points="84.5,-67.5 84.5,-108.5 192.5,-108.5 192.5,-67.5 84.5,-67.5"/>
<text text-anchor="start" x="92.5" y="-96.5" font-family="Helvetica,sans-Serif" font-size="10.00">examples/advection</text>
<text text-anchor="start" x="92.5" y="-85.5" font-family="Helvetica,sans-Serif" font-size="10.00">_diffusion/spectral</text>
<text text-anchor="middle" x="138.5" y="-74.5" font-family="Helvetica,sans-Serif" font-size="10.00">_transfer_1d.hpp</text>
</g>
<!-- Node2 -->
<g id="node2" class="node"><title>Node2</title>
<g id="a_node2"><a xlink:href="../../d1/d49/mpi__pfasst_8cpp.html" target="_top" xlink:title="Advection&#45;Diffusion with MPI&#45;enabled PFASST. ">
<polygon fill="white" stroke="black" points="0,-0.5 0,-30.5 127,-30.5 127,-0.5 0,-0.5"/>
<text text-anchor="start" x="8" y="-18.5" font-family="Helvetica,sans-Serif" font-size="10.00">examples/advection</text>
<text text-anchor="middle" x="63.5" y="-7.5" font-family="Helvetica,sans-Serif" font-size="10.00">_diffusion/mpi_pfasst.cpp</text>
</a>
</g>
</g>
<!-- Node1&#45;&gt;Node2 -->
<g id="edge1" class="edge"><title>Node1&#45;&gt;Node2</title>
<path fill="none" stroke="midnightblue" d="M110.106,-60.3098C99.4785,-50.3198 87.8122,-39.3535 78.8102,-30.8916"/>
<polygon fill="midnightblue" stroke="midnightblue" points="107.925,-63.0629 117.608,-67.3618 112.719,-57.9625 107.925,-63.0629"/>
</g>
<!-- Node3 -->
<g id="node3" class="node"><title>Node3</title>
<g id="a_node3"><a xlink:href="../../d9/d86/serial__mlsdc_8cpp.html" target="_top" xlink:title="Advection&#45;Diffusion with serial MLSDC. ">
<polygon fill="white" stroke="black" points="145,-0.5 145,-30.5 282,-30.5 282,-0.5 145,-0.5"/>
<text text-anchor="start" x="153" y="-18.5" font-family="Helvetica,sans-Serif" font-size="10.00">examples/advection</text>
<text text-anchor="middle" x="213.5" y="-7.5" font-family="Helvetica,sans-Serif" font-size="10.00">_diffusion/serial_mlsdc.cpp</text>
</a>
</g>
</g>
<!-- Node1&#45;&gt;Node3 -->
<g id="edge2" class="edge"><title>Node1&#45;&gt;Node3</title>
<path fill="none" stroke="midnightblue" d="M166.894,-60.3098C177.521,-50.3198 189.188,-39.3535 198.19,-30.8916"/>
<polygon fill="midnightblue" stroke="midnightblue" points="164.281,-57.9625 159.392,-67.3618 169.075,-63.0629 164.281,-57.9625"/>
</g>
</g>
</svg>
