<?xml version="1.0" encoding="UTF-8" standalone="no"?>
<!DOCTYPE svg PUBLIC "-//W3C//DTD SVG 1.1//EN"
 "http://www.w3.org/Graphics/SVG/1.1/DTD/svg11.dtd">
<!-- Generated by graphviz version 2.38.0 (20140413.2041)
 -->
<!-- Title: examples/boris/particle_util_impl.hpp Pages: 1 -->
<svg width="863pt" height="597pt"
 viewBox="0.00 0.00 862.80 597.00" xmlns="http://www.w3.org/2000/svg" xmlns:xlink="http://www.w3.org/1999/xlink">
<g id="graph0" class="graph" transform="scale(1 1) rotate(0) translate(4 593)">
<title>examples/boris/particle_util_impl.hpp</title>
<polygon fill="white" stroke="none" points="-4,4 -4,-593 858.799,-593 858.799,4 -4,4"/>
<!-- Node1 -->
<g id="node1" class="node"><title>Node1</title>
<polygon fill="#bfbfbf" stroke="black" points="593.299,-558.5 593.299,-588.5 714.299,-588.5 714.299,-558.5 593.299,-558.5"/>
<text text-anchor="start" x="601.299" y="-576.5" font-family="Helvetica,sans-Serif" font-size="10.00">examples/boris/particle</text>
<text text-anchor="middle" x="653.799" y="-565.5" font-family="Helvetica,sans-Serif" font-size="10.00">_util_impl.hpp</text>
</g>
<!-- Node2 -->
<g id="node2" class="node"><title>Node2</title>
<g id="a_node2"><a xlink:href="../../db/de5/particle__util_8hpp.html" target="_top" xlink:title="examples/boris/particle\l_util.hpp">
<polygon fill="white" stroke="black" points="593.299,-491.5 593.299,-521.5 714.299,-521.5 714.299,-491.5 593.299,-491.5"/>
<text text-anchor="start" x="601.299" y="-509.5" font-family="Helvetica,sans-Serif" font-size="10.00">examples/boris/particle</text>
<text text-anchor="middle" x="653.799" y="-498.5" font-family="Helvetica,sans-Serif" font-size="10.00">_util.hpp</text>
</a>
</g>
</g>
<!-- Node1&#45;&gt;Node2 -->
<g id="edge1" class="edge"><title>Node1&#45;&gt;Node2</title>
<path fill="none" stroke="midnightblue" d="M647.254,-548.403C646.805,-539.37 647.095,-529.408 648.124,-521.577"/>
<polygon fill="midnightblue" stroke="midnightblue" points="643.769,-548.736 648.121,-558.396 650.743,-548.131 643.769,-548.736"/>
</g>
<!-- Node2&#45;&gt;Node1 -->
<g id="edge39" class="edge"><title>Node2&#45;&gt;Node1</title>
<path fill="none" stroke="midnightblue" d="M660.343,-531.565C660.794,-540.596 660.505,-550.56 659.477,-558.396"/>
<polygon fill="midnightblue" stroke="midnightblue" points="663.827,-531.236 659.474,-521.577 656.854,-531.842 663.827,-531.236"/>
</g>
<!-- Node3 -->
<g id="node3" class="node"><title>Node3</title>
<g id="a_node3"><a xlink:href="../../d3/d35/particle__impl_8hpp.html" target="_top" xlink:title="examples/boris/particle\l_impl.hpp">
<polygon fill="white" stroke="black" points="544.299,-424.5 544.299,-454.5 665.299,-454.5 665.299,-424.5 544.299,-424.5"/>
<text text-anchor="start" x="552.299" y="-442.5" font-family="Helvetica,sans-Serif" font-size="10.00">examples/boris/particle</text>
<text text-anchor="middle" x="604.799" y="-431.5" font-family="Helvetica,sans-Serif" font-size="10.00">_impl.hpp</text>
</a>
</g>
</g>
<!-- Node2&#45;&gt;Node3 -->
<g id="edge2" class="edge"><title>Node2&#45;&gt;Node3</title>
<path fill="none" stroke="midnightblue" d="M636.956,-483.157C629.811,-473.679 621.699,-462.919 615.411,-454.577"/>
<polygon fill="midnightblue" stroke="midnightblue" points="634.352,-485.518 643.167,-491.396 639.942,-481.304 634.352,-485.518"/>
</g>
<!-- Node12 -->
<g id="node12" class="node"><title>Node12</title>
<g id="a_node12"><a xlink:href="../../db/dfd/boris__sweeper_8hpp.html" target="_top" xlink:title="examples/boris/boris\l_sweeper.hpp">
<polygon fill="white" stroke="black" points="504.799,-151 504.799,-181 614.799,-181 614.799,-151 504.799,-151"/>
<text text-anchor="start" x="512.799" y="-169" font-family="Helvetica,sans-Serif" font-size="10.00">examples/boris/boris</text>
<text text-anchor="middle" x="559.799" y="-158" font-family="Helvetica,sans-Serif" font-size="10.00">_sweeper.hpp</text>
</a>
</g>
</g>
<!-- Node2&#45;&gt;Node12 -->
<g id="edge41" class="edge"><title>Node2&#45;&gt;Node12</title>
<path fill="none" stroke="midnightblue" d="M665.308,-481.894C678.16,-452.319 695.582,-400.267 682.799,-357 660.978,-283.138 600.47,-211.003 573.306,-181.247"/>
<polygon fill="midnightblue" stroke="midnightblue" points="661.955,-480.813 661.01,-491.366 668.329,-483.706 661.955,-480.813"/>
</g>
<!-- Node13 -->
<g id="node13" class="node"><title>Node13</title>
<g id="a_node13"><a xlink:href="../../db/d9a/boris__sweeper__impl_8hpp.html" target="_top" xlink:title="examples/boris/boris\l_sweeper_impl.hpp">
<polygon fill="white" stroke="black" points="678.799,-73 678.799,-103 788.799,-103 788.799,-73 678.799,-73"/>
<text text-anchor="start" x="686.799" y="-91" font-family="Helvetica,sans-Serif" font-size="10.00">examples/boris/boris</text>
<text text-anchor="middle" x="733.799" y="-80" font-family="Helvetica,sans-Serif" font-size="10.00">_sweeper_impl.hpp</text>
</a>
</g>
</g>
<!-- Node2&#45;&gt;Node13 -->
<g id="edge42" class="edge"><title>Node2&#45;&gt;Node13</title>
<path fill="none" stroke="midnightblue" d="M706.777,-487.736C754.365,-468.035 816.799,-431.194 816.799,-373.5 816.799,-373.5 816.799,-373.5 816.799,-237.5 816.799,-181.974 772.037,-127.915 748.257,-103.114"/>
<polygon fill="midnightblue" stroke="midnightblue" points="705.469,-484.49 697.48,-491.449 708.065,-490.99 705.469,-484.49"/>
</g>
<!-- Node15 -->
<g id="node15" class="node"><title>Node15</title>
<g id="a_node15"><a xlink:href="../../d6/d1f/particle__cloud__impl_8hpp.html" target="_top" xlink:title="examples/boris/particle\l_cloud_impl.hpp">
<polygon fill="white" stroke="black" points="327.299,-357.5 327.299,-387.5 448.299,-387.5 448.299,-357.5 327.299,-357.5"/>
<text text-anchor="start" x="335.299" y="-375.5" font-family="Helvetica,sans-Serif" font-size="10.00">examples/boris/particle</text>
<text text-anchor="middle" x="387.799" y="-364.5" font-family="Helvetica,sans-Serif" font-size="10.00">_cloud_impl.hpp</text>
</a>
</g>
</g>
<!-- Node2&#45;&gt;Node15 -->
<g id="edge40" class="edge"><title>Node2&#45;&gt;Node15</title>
<path fill="none" stroke="midnightblue" d="M608.658,-487.65C586.205,-478.443 558.803,-466.708 534.799,-455 490.212,-433.254 440.018,-404.449 411.326,-387.551"/>
<polygon fill="midnightblue" stroke="midnightblue" points="607.372,-490.906 617.954,-491.434 610.011,-484.422 607.372,-490.906"/>
</g>
<!-- Node4 -->
<g id="node4" class="node"><title>Node4</title>
<g id="a_node4"><a xlink:href="../../d4/dec/particle_8hpp.html" target="_top" xlink:title="examples/boris/particle.hpp">
<polygon fill="white" stroke="black" points="535.299,-363 535.299,-382 674.299,-382 674.299,-363 535.299,-363"/>
<text text-anchor="middle" x="604.799" y="-370" font-family="Helvetica,sans-Serif" font-size="10.00">examples/boris/particle.hpp</text>
</a>
</g>
</g>
<!-- Node3&#45;&gt;Node4 -->
<g id="edge3" class="edge"><title>Node3&#45;&gt;Node4</title>
<path fill="none" stroke="midnightblue" d="M598.246,-414.25C597.699,-403.017 598.292,-390.377 600.026,-382.195"/>
<polygon fill="midnightblue" stroke="midnightblue" points="594.775,-414.733 599.121,-424.396 601.749,-414.132 594.775,-414.733"/>
</g>
<!-- Node4&#45;&gt;Node3 -->
<g id="edge33" class="edge"><title>Node4&#45;&gt;Node3</title>
<path fill="none" stroke="midnightblue" d="M610.975,-392.189C611.881,-402.448 611.715,-414.963 610.477,-424.396"/>
<polygon fill="midnightblue" stroke="midnightblue" points="614.429,-391.611 609.572,-382.195 607.496,-392.584 614.429,-391.611"/>
</g>
<!-- Node5 -->
<g id="node5" class="node"><title>Node5</title>
<g id="a_node5"><a xlink:href="../../d8/d52/particle__cloud_8hpp.html" target="_top" xlink:title="examples/boris/particle\l_cloud.hpp">
<polygon fill="white" stroke="black" points="327.299,-290.5 327.299,-320.5 448.299,-320.5 448.299,-290.5 327.299,-290.5"/>
<text text-anchor="start" x="335.299" y="-308.5" font-family="Helvetica,sans-Serif" font-size="10.00">examples/boris/particle</text>
<text text-anchor="middle" x="387.799" y="-297.5" font-family="Helvetica,sans-Serif" font-size="10.00">_cloud.hpp</text>
</a>
</g>
</g>
<!-- Node4&#45;&gt;Node5 -->
<g id="edge4" class="edge"><title>Node4&#45;&gt;Node5</title>
<path fill="none" stroke="midnightblue" d="M566.128,-359.917C529.333,-348.895 473.911,-332.294 434.631,-320.528"/>
<polygon fill="midnightblue" stroke="midnightblue" points="565.399,-363.352 575.983,-362.869 567.408,-356.646 565.399,-363.352"/>
</g>
<!-- Node9 -->
<g id="node9" class="node"><title>Node9</title>
<g id="a_node9"><a xlink:href="../../d7/d31/boris__mlsdc_8cpp.html" target="_top" xlink:title="examples/boris/boris\l_mlsdc.cpp">
<polygon fill="white" stroke="black" points="549.799,-0.5 549.799,-30.5 659.799,-30.5 659.799,-0.5 549.799,-0.5"/>
<text text-anchor="start" x="557.799" y="-18.5" font-family="Helvetica,sans-Serif" font-size="10.00">examples/boris/boris</text>
<text text-anchor="middle" x="604.799" y="-7.5" font-family="Helvetica,sans-Serif" font-size="10.00">_mlsdc.cpp</text>
</a>
</g>
</g>
<!-- Node4&#45;&gt;Node9 -->
<g id="edge34" class="edge"><title>Node4&#45;&gt;Node9</title>
<path fill="none" stroke="midnightblue" d="M684.591,-362.742C757.755,-349.759 854.799,-317.784 854.799,-239.5 854.799,-239.5 854.799,-239.5 854.799,-165 854.799,-118.122 851.243,-97.6802 815.799,-67 792.731,-47.0321 714.363,-32.1133 659.922,-23.8495"/>
<polygon fill="midnightblue" stroke="midnightblue" points="683.718,-359.34 674.438,-364.451 684.88,-366.243 683.718,-359.34"/>
</g>
<!-- Node10 -->
<g id="node10" class="node"><title>Node10</title>
<g id="a_node10"><a xlink:href="../../d2/d1e/boris__pfasst_8cpp.html" target="_top" xlink:title="examples/boris/boris\l_pfasst.cpp">
<polygon fill="white" stroke="black" points="152.799,-0.5 152.799,-30.5 262.799,-30.5 262.799,-0.5 152.799,-0.5"/>
<text text-anchor="start" x="160.799" y="-18.5" font-family="Helvetica,sans-Serif" font-size="10.00">examples/boris/boris</text>
<text text-anchor="middle" x="207.799" y="-7.5" font-family="Helvetica,sans-Serif" font-size="10.00">_pfasst.cpp</text>
</a>
</g>
</g>
<!-- Node4&#45;&gt;Node10 -->
<g id="edge37" class="edge"><title>Node4&#45;&gt;Node10</title>
<path fill="none" stroke="midnightblue" d="M525.138,-362.282C361.511,-342.267 2.79906,-292.36 2.79906,-239.5 2.79906,-239.5 2.79906,-239.5 2.79906,-165 2.79906,-120.633 -8.39719,-99.5051 21.7991,-67 55.0485,-31.2082 110.871,-19.816 152.704,-16.6341"/>
<polygon fill="midnightblue" stroke="midnightblue" points="524.805,-365.767 535.154,-363.499 525.649,-358.818 524.805,-365.767"/>
</g>
<!-- Node11 -->
<g id="node11" class="node"><title>Node11</title>
<g id="a_node11"><a xlink:href="../../d3/d93/boris__sdc_8cpp.html" target="_top" xlink:title="examples/boris/boris\l_sdc.cpp">
<polygon fill="white" stroke="black" points="292.799,-73 292.799,-103 402.799,-103 402.799,-73 292.799,-73"/>
<text text-anchor="start" x="300.799" y="-91" font-family="Helvetica,sans-Serif" font-size="10.00">examples/boris/boris</text>
<text text-anchor="middle" x="347.799" y="-80" font-family="Helvetica,sans-Serif" font-size="10.00">_sdc.cpp</text>
</a>
</g>
</g>
<!-- Node4&#45;&gt;Node11 -->
<g id="edge38" class="edge"><title>Node4&#45;&gt;Node11</title>
<path fill="none" stroke="midnightblue" d="M590.069,-355.308C544.179,-304.865 404.272,-151.076 360.817,-103.309"/>
<polygon fill="midnightblue" stroke="midnightblue" points="587.507,-357.694 596.826,-362.736 592.685,-352.983 587.507,-357.694"/>
</g>
<!-- Node4&#45;&gt;Node12 -->
<g id="edge35" class="edge"><title>Node4&#45;&gt;Node12</title>
<path fill="none" stroke="midnightblue" d="M600.766,-353.171C591.901,-312.887 570.879,-217.352 562.923,-181.196"/>
<polygon fill="midnightblue" stroke="midnightblue" points="597.355,-353.959 602.923,-362.973 604.192,-352.455 597.355,-353.959"/>
</g>
<!-- Node4&#45;&gt;Node13 -->
<g id="edge36" class="edge"><title>Node4&#45;&gt;Node13</title>
<path fill="none" stroke="midnightblue" d="M613.917,-353.549C630.467,-320.763 666.283,-248.867 693.799,-187 706.943,-157.448 720.92,-122.21 728.372,-103.072"/>
<polygon fill="midnightblue" stroke="midnightblue" points="610.649,-352.254 609.256,-362.757 616.895,-355.416 610.649,-352.254"/>
</g>
<!-- Node6 -->
<g id="node6" class="node"><title>Node6</title>
<g id="a_node6"><a xlink:href="../../d9/dd9/wrapper__interface_8hpp.html" target="_top" xlink:title="examples/boris/bindings\l/wrapper_interface.hpp">
<polygon fill="white" stroke="black" points="322.799,-223.5 322.799,-253.5 448.799,-253.5 448.799,-223.5 322.799,-223.5"/>
<text text-anchor="start" x="330.799" y="-241.5" font-family="Helvetica,sans-Serif" font-size="10.00">examples/boris/bindings</text>
<text text-anchor="middle" x="385.799" y="-230.5" font-family="Helvetica,sans-Serif" font-size="10.00">/wrapper_interface.hpp</text>
</a>
</g>
</g>
<!-- Node5&#45;&gt;Node6 -->
<g id="edge5" class="edge"><title>Node5&#45;&gt;Node6</title>
<path fill="none" stroke="midnightblue" d="M387.049,-280.108C386.773,-271.154 386.471,-261.323 386.232,-253.577"/>
<polygon fill="midnightblue" stroke="midnightblue" points="383.559,-280.508 387.365,-290.396 390.556,-280.293 383.559,-280.508"/>
</g>
<!-- Node7 -->
<g id="node7" class="node"><title>Node7</title>
<g id="a_node7"><a xlink:href="../../dd/da4/wrapper__simple__physics__solver_8hpp.html" target="_top" xlink:title="examples/boris/bindings\l/wrapper_simple_physics\l_solver.hpp">
<polygon fill="white" stroke="black" points="130.299,-145.5 130.299,-186.5 259.299,-186.5 259.299,-145.5 130.299,-145.5"/>
<text text-anchor="start" x="138.299" y="-174.5" font-family="Helvetica,sans-Serif" font-size="10.00">examples/boris/bindings</text>
<text text-anchor="start" x="138.299" y="-163.5" font-family="Helvetica,sans-Serif" font-size="10.00">/wrapper_simple_physics</text>
<text text-anchor="middle" x="194.799" y="-152.5" font-family="Helvetica,sans-Serif" font-size="10.00">_solver.hpp</text>
</a>
</g>
</g>
<!-- Node5&#45;&gt;Node7 -->
<g id="edge27" class="edge"><title>Node5&#45;&gt;Node7</title>
<path fill="none" stroke="midnightblue" d="M335.763,-286.781C315.41,-278.524 292.511,-267.508 273.799,-254 247.497,-235.013 223.392,-206.05 208.902,-186.828"/>
<polygon fill="midnightblue" stroke="midnightblue" points="334.627,-290.095 345.214,-290.495 337.187,-283.58 334.627,-290.095"/>
</g>
<!-- Node5&#45;&gt;Node9 -->
<g id="edge28" class="edge"><title>Node5&#45;&gt;Node9</title>
<path fill="none" stroke="midnightblue" d="M458.658,-296.499C558.23,-280.825 734.466,-235.665 797.799,-109 806.147,-92.304 809.206,-81.7758 797.799,-67 781.026,-45.2731 711.039,-31.0918 660.162,-23.4412"/>
<polygon fill="midnightblue" stroke="midnightblue" points="458.041,-293.053 448.678,-298.012 459.09,-299.974 458.041,-293.053"/>
</g>
<!-- Node5&#45;&gt;Node10 -->
<g id="edge31" class="edge"><title>Node5&#45;&gt;Node10</title>
<path fill="none" stroke="midnightblue" d="M317.129,-292.131C227.141,-271.961 76.7379,-222.227 21.7991,-109 13.6504,-92.2058 10.4601,-81.8281 21.7991,-67 37.7038,-46.2012 103.675,-31.9593 152.554,-24.0303"/>
<polygon fill="midnightblue" stroke="midnightblue" points="316.471,-295.569 326.986,-294.276 317.959,-288.729 316.471,-295.569"/>
</g>
<!-- Node5&#45;&gt;Node11 -->
<g id="edge32" class="edge"><title>Node5&#45;&gt;Node11</title>
<path fill="none" stroke="midnightblue" d="M344.978,-285.193C332.659,-277.378 320.697,-267.059 313.799,-254 286.887,-203.053 321.528,-132.807 338.925,-103.134"/>
<polygon fill="midnightblue" stroke="midnightblue" points="343.547,-288.411 353.945,-290.444 347.085,-282.37 343.547,-288.411"/>
</g>
<!-- Node5&#45;&gt;Node12 -->
<g id="edge29" class="edge"><title>Node5&#45;&gt;Node12</title>
<path fill="none" stroke="midnightblue" d="M416.754,-284.408C429.516,-275.35 444.583,-264.376 457.799,-254 489.104,-229.423 524.098,-198.861 543.885,-181.276"/>
<polygon fill="midnightblue" stroke="midnightblue" points="414.494,-281.719 408.338,-290.342 418.528,-287.44 414.494,-281.719"/>
</g>
<!-- Node5&#45;&gt;Node13 -->
<g id="edge30" class="edge"><title>Node5&#45;&gt;Node13</title>
<path fill="none" stroke="midnightblue" d="M450.761,-287.487C509.258,-269.451 596.611,-236.642 659.799,-187 690.143,-163.161 714.571,-124.042 726.28,-103.167"/>
<polygon fill="midnightblue" stroke="midnightblue" points="449.465,-284.222 440.908,-290.469 451.493,-290.922 449.465,-284.222"/>
</g>
<!-- Node5&#45;&gt;Node15 -->
<g id="edge25" class="edge"><title>Node5&#45;&gt;Node15</title>
<path fill="none" stroke="midnightblue" d="M394.343,-330.565C394.794,-339.596 394.505,-349.56 393.477,-357.396"/>
<polygon fill="midnightblue" stroke="midnightblue" points="397.827,-330.236 393.474,-320.577 390.854,-330.842 397.827,-330.236"/>
</g>
<!-- Node6&#45;&gt;Node7 -->
<g id="edge6" class="edge"><title>Node6&#45;&gt;Node7</title>
<path fill="none" stroke="midnightblue" d="M338.205,-219.933C310.723,-209.789 276.097,-197.008 247.755,-186.546"/>
<polygon fill="midnightblue" stroke="midnightblue" points="337.013,-223.223 347.606,-223.403 339.437,-216.656 337.013,-223.223"/>
</g>
<!-- Node6&#45;&gt;Node9 -->
<g id="edge12" class="edge"><title>Node6&#45;&gt;Node9</title>
<path fill="none" stroke="midnightblue" d="M394.598,-213.387C408.938,-177.119 440.576,-108.381 487.799,-67 506.768,-50.3777 532.044,-38.5453 554.248,-30.5331"/>
<polygon fill="midnightblue" stroke="midnightblue" points="391.177,-212.53 390.858,-223.12 397.712,-215.041 391.177,-212.53"/>
</g>
<!-- Node6&#45;&gt;Node10 -->
<g id="edge23" class="edge"><title>Node6&#45;&gt;Node10</title>
<path fill="none" stroke="midnightblue" d="M367.932,-215.316C331.428,-169.994 249.204,-67.9073 219.11,-30.5428"/>
<polygon fill="midnightblue" stroke="midnightblue" points="365.395,-217.747 374.394,-223.339 370.847,-213.356 365.395,-217.747"/>
</g>
<!-- Node6&#45;&gt;Node11 -->
<g id="edge24" class="edge"><title>Node6&#45;&gt;Node11</title>
<path fill="none" stroke="midnightblue" d="M379.587,-213.224C371.604,-182.028 358.001,-128.867 351.487,-103.414"/>
<polygon fill="midnightblue" stroke="midnightblue" points="376.286,-214.441 382.155,-223.261 383.067,-212.706 376.286,-214.441"/>
</g>
<!-- Node6&#45;&gt;Node12 -->
<g id="edge13" class="edge"><title>Node6&#45;&gt;Node12</title>
<path fill="none" stroke="midnightblue" d="M430.227,-219.499C459.697,-207.559 497.817,-192.114 525.066,-181.073"/>
<polygon fill="midnightblue" stroke="midnightblue" points="428.546,-216.404 420.592,-223.403 431.175,-222.891 428.546,-216.404"/>
</g>
<!-- Node6&#45;&gt;Node13 -->
<g id="edge22" class="edge"><title>Node6&#45;&gt;Node13</title>
<path fill="none" stroke="midnightblue" d="M459.189,-232.609C508.199,-226.847 572.776,-214.304 623.799,-187 647.353,-174.395 646.98,-162.913 666.799,-145 683.107,-130.261 702.436,-114.252 716.132,-103.141"/>
<polygon fill="midnightblue" stroke="midnightblue" points="458.533,-229.16 448.978,-233.738 459.302,-236.117 458.533,-229.16"/>
</g>
<!-- Node8 -->
<g id="node8" class="node"><title>Node8</title>
<g id="a_node8"><a xlink:href="../../d5/d9e/wrapper__simple__physics__solver__impl_8hpp.html" target="_top" xlink:title="examples/boris/bindings\l/wrapper_simple_physics\l_solver_impl.hpp">
<polygon fill="white" stroke="black" points="31.2991,-67.5 31.2991,-108.5 160.299,-108.5 160.299,-67.5 31.2991,-67.5"/>
<text text-anchor="start" x="39.2991" y="-96.5" font-family="Helvetica,sans-Serif" font-size="10.00">examples/boris/bindings</text>
<text text-anchor="start" x="39.2991" y="-85.5" font-family="Helvetica,sans-Serif" font-size="10.00">/wrapper_simple_physics</text>
<text text-anchor="middle" x="95.7991" y="-74.5" font-family="Helvetica,sans-Serif" font-size="10.00">_solver_impl.hpp</text>
</a>
</g>
</g>
<!-- Node7&#45;&gt;Node8 -->
<g id="edge7" class="edge"><title>Node7&#45;&gt;Node8</title>
<path fill="none" stroke="midnightblue" d="M154.964,-139.35C141.283,-129.272 126.608,-117.893 115.225,-108.506"/>
<polygon fill="midnightblue" stroke="midnightblue" points="153.171,-142.374 163.316,-145.428 157.29,-136.714 153.171,-142.374"/>
</g>
<!-- Node7&#45;&gt;Node9 -->
<g id="edge9" class="edge"><title>Node7&#45;&gt;Node9</title>
<path fill="none" stroke="midnightblue" d="M212.589,-136.561C228.39,-113.871 253.622,-83.2815 283.799,-67 328.67,-42.7912 470.201,-27.5929 549.529,-20.7498"/>
<polygon fill="midnightblue" stroke="midnightblue" points="209.5,-134.881 206.806,-145.128 215.302,-138.798 209.5,-134.881"/>
</g>
<!-- Node7&#45;&gt;Node10 -->
<g id="edge10" class="edge"><title>Node7&#45;&gt;Node10</title>
<path fill="none" stroke="midnightblue" d="M197.406,-135.219C200.19,-103.421 204.481,-54.3973 206.571,-30.5259"/>
<polygon fill="midnightblue" stroke="midnightblue" points="193.911,-135.013 196.525,-145.28 200.884,-135.624 193.911,-135.013"/>
</g>
<!-- Node7&#45;&gt;Node11 -->
<g id="edge11" class="edge"><title>Node7&#45;&gt;Node11</title>
<path fill="none" stroke="midnightblue" d="M243.175,-140.97C268.17,-128.554 297.819,-113.827 319.161,-103.225"/>
<polygon fill="midnightblue" stroke="midnightblue" points="241.599,-137.845 234.2,-145.428 244.713,-144.114 241.599,-137.845"/>
</g>
<!-- Node8&#45;&gt;Node7 -->
<g id="edge8" class="edge"><title>Node8&#45;&gt;Node7</title>
<path fill="none" stroke="midnightblue" d="M135.537,-114.579C149.213,-124.651 163.895,-136.031 175.292,-145.428"/>
<polygon fill="midnightblue" stroke="midnightblue" points="137.335,-111.559 127.19,-108.506 133.217,-117.219 137.335,-111.559"/>
</g>
<!-- Node12&#45;&gt;Node9 -->
<g id="edge14" class="edge"><title>Node12&#45;&gt;Node9</title>
<path fill="none" stroke="midnightblue" d="M596.951,-145.228C610.163,-136.107 623.551,-123.948 630.799,-109 643.536,-82.7327 626.709,-49.1524 614.786,-30.5321"/>
<polygon fill="midnightblue" stroke="midnightblue" points="594.857,-142.414 588.359,-150.782 598.657,-148.292 594.857,-142.414"/>
</g>
<!-- Node12&#45;&gt;Node10 -->
<g id="edge20" class="edge"><title>Node12&#45;&gt;Node10</title>
<path fill="none" stroke="midnightblue" d="M534.608,-144.379C506.344,-122.219 458.338,-87.4365 411.799,-67 363.693,-45.8756 305.16,-32.5376 263.151,-24.9103"/>
<polygon fill="midnightblue" stroke="midnightblue" points="532.714,-147.344 542.722,-150.821 537.066,-141.862 532.714,-147.344"/>
</g>
<!-- Node12&#45;&gt;Node11 -->
<g id="edge21" class="edge"><title>Node12&#45;&gt;Node11</title>
<path fill="none" stroke="midnightblue" d="M510.681,-147.392C473.06,-133.905 421.856,-115.549 386.967,-103.041"/>
<polygon fill="midnightblue" stroke="midnightblue" points="509.826,-150.803 520.42,-150.883 512.188,-144.214 509.826,-150.803"/>
</g>
<!-- Node12&#45;&gt;Node13 -->
<g id="edge15" class="edge"><title>Node12&#45;&gt;Node13</title>
<path fill="none" stroke="midnightblue" d="M595.83,-146.699C625.228,-133.282 666.478,-115.336 696.274,-103.041"/>
<polygon fill="midnightblue" stroke="midnightblue" points="594.355,-143.525 586.731,-150.883 597.279,-149.885 594.355,-143.525"/>
</g>
<!-- Node14 -->
<g id="node14" class="node"><title>Node14</title>
<g id="a_node14"><a xlink:href="../../d2/dc5/injective__transfer_8hpp.html" target="_top" xlink:title="examples/boris/injective\l_transfer.hpp">
<polygon fill="white" stroke="black" points="497.299,-73 497.299,-103 622.299,-103 622.299,-73 497.299,-73"/>
<text text-anchor="start" x="505.299" y="-91" font-family="Helvetica,sans-Serif" font-size="10.00">examples/boris/injective</text>
<text text-anchor="middle" x="559.799" y="-80" font-family="Helvetica,sans-Serif" font-size="10.00">_transfer.hpp</text>
</a>
</g>
</g>
<!-- Node12&#45;&gt;Node14 -->
<g id="edge17" class="edge"><title>Node12&#45;&gt;Node14</title>
<path fill="none" stroke="midnightblue" d="M559.799,-140.59C559.799,-128.257 559.799,-113.724 559.799,-103.231"/>
<polygon fill="midnightblue" stroke="midnightblue" points="556.299,-140.705 559.799,-150.705 563.299,-140.705 556.299,-140.705"/>
</g>
<!-- Node13&#45;&gt;Node12 -->
<g id="edge16" class="edge"><title>Node13&#45;&gt;Node12</title>
<path fill="none" stroke="midnightblue" d="M697.567,-107.393C668.242,-120.773 627.221,-138.619 597.507,-150.883"/>
<polygon fill="midnightblue" stroke="midnightblue" points="699.407,-110.399 707.03,-103.041 696.482,-104.039 699.407,-110.399"/>
</g>
<!-- Node14&#45;&gt;Node9 -->
<g id="edge18" class="edge"><title>Node14&#45;&gt;Node9</title>
<path fill="none" stroke="midnightblue" d="M574.444,-64.0566C581.446,-53.0859 589.61,-40.2965 595.706,-30.7455"/>
<polygon fill="midnightblue" stroke="midnightblue" points="571.336,-62.4209 568.905,-72.7333 577.236,-66.1872 571.336,-62.4209"/>
</g>
<!-- Node14&#45;&gt;Node10 -->
<g id="edge19" class="edge"><title>Node14&#45;&gt;Node10</title>
<path fill="none" stroke="midnightblue" d="M497.931,-70.5134C492.822,-69.2792 487.73,-68.0915 482.799,-67 406.969,-50.2125 318.505,-34.6828 262.82,-25.3963"/>
<polygon fill="midnightblue" stroke="midnightblue" points="497.187,-73.9348 507.734,-72.9309 498.863,-67.1384 497.187,-73.9348"/>
</g>
<!-- Node15&#45;&gt;Node5 -->
<g id="edge26" class="edge"><title>Node15&#45;&gt;Node5</title>
<path fill="none" stroke="midnightblue" d="M381.254,-347.403C380.805,-338.37 381.095,-328.408 382.124,-320.577"/>
<polygon fill="midnightblue" stroke="midnightblue" points="377.769,-347.736 382.121,-357.396 384.743,-347.131 377.769,-347.736"/>
</g>
</g>
</svg>
