<?xml version="1.0" encoding="UTF-8" standalone="no"?>
<!DOCTYPE svg PUBLIC "-//W3C//DTD SVG 1.1//EN"
 "http://www.w3.org/Graphics/SVG/1.1/DTD/svg11.dtd">
<!-- Generated by graphviz version 2.38.0 (20140413.2041)
 -->
<!-- Title: examples/boris/bindings/wrapper_interface.hpp Pages: 1 -->
<svg width="724pt" height="262pt"
 viewBox="0.00 0.00 723.76 262.00" xmlns="http://www.w3.org/2000/svg" xmlns:xlink="http://www.w3.org/1999/xlink">
<g id="graph0" class="graph" transform="scale(1 1) rotate(0) translate(4 258)">
<title>examples/boris/bindings/wrapper_interface.hpp</title>
<polygon fill="white" stroke="none" points="-4,4 -4,-258 719.757,-258 719.757,4 -4,4"/>
<!-- Node1 -->
<g id="node1" class="node"><title>Node1</title>
<polygon fill="#bfbfbf" stroke="black" points="362.859,-223.5 362.859,-253.5 488.859,-253.5 488.859,-223.5 362.859,-223.5"/>
<text text-anchor="start" x="370.859" y="-241.5" font-family="Helvetica,sans-Serif" font-size="10.00">examples/boris/bindings</text>
<text text-anchor="middle" x="425.859" y="-230.5" font-family="Helvetica,sans-Serif" font-size="10.00">/wrapper_interface.hpp</text>
</g>
<!-- Node2 -->
<g id="node2" class="node"><title>Node2</title>
<g id="a_node2"><a xlink:href="../../dd/da4/wrapper__simple__physics__solver_8hpp.html" target="_top" xlink:title="examples/boris/bindings\l/wrapper_simple_physics\l_solver.hpp">
<polygon fill="white" stroke="black" points="124.359,-145.5 124.359,-186.5 253.359,-186.5 253.359,-145.5 124.359,-145.5"/>
<text text-anchor="start" x="132.359" y="-174.5" font-family="Helvetica,sans-Serif" font-size="10.00">examples/boris/bindings</text>
<text text-anchor="start" x="132.359" y="-163.5" font-family="Helvetica,sans-Serif" font-size="10.00">/wrapper_simple_physics</text>
<text text-anchor="middle" x="188.859" y="-152.5" font-family="Helvetica,sans-Serif" font-size="10.00">_solver.hpp</text>
</a>
</g>
</g>
<!-- Node1&#45;&gt;Node2 -->
<g id="edge1" class="edge"><title>Node1&#45;&gt;Node2</title>
<path fill="none" stroke="midnightblue" d="M368.754,-220.513C333.969,-210.166 289.433,-196.918 253.377,-186.192"/>
<polygon fill="midnightblue" stroke="midnightblue" points="368.169,-223.991 378.752,-223.487 370.165,-217.281 368.169,-223.991"/>
</g>
<!-- Node4 -->
<g id="node4" class="node"><title>Node4</title>
<g id="a_node4"><a xlink:href="../../d7/d31/boris__mlsdc_8cpp.html" target="_top" xlink:title="examples/boris/boris\l_mlsdc.cpp">
<polygon fill="white" stroke="black" points="221.859,-0.5 221.859,-30.5 331.859,-30.5 331.859,-0.5 221.859,-0.5"/>
<text text-anchor="start" x="229.859" y="-18.5" font-family="Helvetica,sans-Serif" font-size="10.00">examples/boris/boris</text>
<text text-anchor="middle" x="276.859" y="-7.5" font-family="Helvetica,sans-Serif" font-size="10.00">_mlsdc.cpp</text>
</a>
</g>
</g>
<!-- Node1&#45;&gt;Node4 -->
<g id="edge7" class="edge"><title>Node1&#45;&gt;Node4</title>
<path fill="none" stroke="midnightblue" d="M352.62,-235.195C287.874,-230.954 192.003,-219.202 114.859,-187 60.5507,-164.33 34.5346,-161.457 7.85897,-109 -0.602308,-92.3612 -4.06062,-81.3655 7.85897,-67 34.4842,-34.9113 151.027,-23.0855 221.689,-18.8211"/>
<polygon fill="midnightblue" stroke="midnightblue" points="352.542,-238.697 362.737,-235.814 352.969,-231.71 352.542,-238.697"/>
</g>
<!-- Node5 -->
<g id="node5" class="node"><title>Node5</title>
<g id="a_node5"><a xlink:href="../../d2/d1e/boris__pfasst_8cpp.html" target="_top" xlink:title="examples/boris/boris\l_pfasst.cpp">
<polygon fill="white" stroke="black" points="459.859,-0.5 459.859,-30.5 569.859,-30.5 569.859,-0.5 459.859,-0.5"/>
<text text-anchor="start" x="467.859" y="-18.5" font-family="Helvetica,sans-Serif" font-size="10.00">examples/boris/boris</text>
<text text-anchor="middle" x="514.859" y="-7.5" font-family="Helvetica,sans-Serif" font-size="10.00">_pfasst.cpp</text>
</a>
</g>
</g>
<!-- Node1&#45;&gt;Node5 -->
<g id="edge18" class="edge"><title>Node1&#45;&gt;Node5</title>
<path fill="none" stroke="midnightblue" d="M498.975,-227.939C567.433,-214.552 665.364,-182.906 707.859,-109 717.164,-92.8177 719.266,-81.7758 707.859,-67 691.086,-45.2731 621.099,-31.0918 570.221,-23.4412"/>
<polygon fill="midnightblue" stroke="midnightblue" points="498.285,-224.507 489.098,-229.784 499.571,-231.388 498.285,-224.507"/>
</g>
<!-- Node6 -->
<g id="node6" class="node"><title>Node6</title>
<g id="a_node6"><a xlink:href="../../d3/d93/boris__sdc_8cpp.html" target="_top" xlink:title="examples/boris/boris\l_sdc.cpp">
<polygon fill="white" stroke="black" points="240.859,-73 240.859,-103 350.859,-103 350.859,-73 240.859,-73"/>
<text text-anchor="start" x="248.859" y="-91" font-family="Helvetica,sans-Serif" font-size="10.00">examples/boris/boris</text>
<text text-anchor="middle" x="295.859" y="-80" font-family="Helvetica,sans-Serif" font-size="10.00">_sdc.cpp</text>
</a>
</g>
</g>
<!-- Node1&#45;&gt;Node6 -->
<g id="edge19" class="edge"><title>Node1&#45;&gt;Node6</title>
<path fill="none" stroke="midnightblue" d="M406.714,-215.63C379.753,-184.833 331.344,-129.534 308.477,-103.414"/>
<polygon fill="midnightblue" stroke="midnightblue" points="404.174,-218.042 413.394,-223.261 409.441,-213.432 404.174,-218.042"/>
</g>
<!-- Node7 -->
<g id="node7" class="node"><title>Node7</title>
<g id="a_node7"><a xlink:href="../../db/dfd/boris__sweeper_8hpp.html" target="_top" xlink:title="examples/boris/boris\l_sweeper.hpp">
<polygon fill="white" stroke="black" points="414.859,-151 414.859,-181 524.859,-181 524.859,-151 414.859,-151"/>
<text text-anchor="start" x="422.859" y="-169" font-family="Helvetica,sans-Serif" font-size="10.00">examples/boris/boris</text>
<text text-anchor="middle" x="469.859" y="-158" font-family="Helvetica,sans-Serif" font-size="10.00">_sweeper.hpp</text>
</a>
</g>
</g>
<!-- Node1&#45;&gt;Node7 -->
<g id="edge8" class="edge"><title>Node1&#45;&gt;Node7</title>
<path fill="none" stroke="midnightblue" d="M440.178,-214.557C447.025,-203.586 455.007,-190.797 460.968,-181.246"/>
<polygon fill="midnightblue" stroke="midnightblue" points="437.088,-212.897 434.763,-223.233 443.027,-216.603 437.088,-212.897"/>
</g>
<!-- Node8 -->
<g id="node8" class="node"><title>Node8</title>
<g id="a_node8"><a xlink:href="../../db/d9a/boris__sweeper__impl_8hpp.html" target="_top" xlink:title="examples/boris/boris\l_sweeper_impl.hpp">
<polygon fill="white" stroke="black" points="588.859,-73 588.859,-103 698.859,-103 698.859,-73 588.859,-73"/>
<text text-anchor="start" x="596.859" y="-91" font-family="Helvetica,sans-Serif" font-size="10.00">examples/boris/boris</text>
<text text-anchor="middle" x="643.859" y="-80" font-family="Helvetica,sans-Serif" font-size="10.00">_sweeper_impl.hpp</text>
</a>
</g>
</g>
<!-- Node1&#45;&gt;Node8 -->
<g id="edge17" class="edge"><title>Node1&#45;&gt;Node8</title>
<path fill="none" stroke="midnightblue" d="M471.934,-219.482C491.702,-210.872 514.624,-199.673 533.859,-187 572.303,-161.671 611.068,-123.511 630.696,-103.086"/>
<polygon fill="midnightblue" stroke="midnightblue" points="470.341,-216.357 462.514,-223.497 473.085,-222.796 470.341,-216.357"/>
</g>
<!-- Node3 -->
<g id="node3" class="node"><title>Node3</title>
<g id="a_node3"><a xlink:href="../../d5/d9e/wrapper__simple__physics__solver__impl_8hpp.html" target="_top" xlink:title="examples/boris/bindings\l/wrapper_simple_physics\l_solver_impl.hpp">
<polygon fill="white" stroke="black" points="17.359,-67.5 17.359,-108.5 146.359,-108.5 146.359,-67.5 17.359,-67.5"/>
<text text-anchor="start" x="25.359" y="-96.5" font-family="Helvetica,sans-Serif" font-size="10.00">examples/boris/bindings</text>
<text text-anchor="start" x="25.359" y="-85.5" font-family="Helvetica,sans-Serif" font-size="10.00">/wrapper_simple_physics</text>
<text text-anchor="middle" x="81.859" y="-74.5" font-family="Helvetica,sans-Serif" font-size="10.00">_solver_impl.hpp</text>
</a>
</g>
</g>
<!-- Node2&#45;&gt;Node3 -->
<g id="edge2" class="edge"><title>Node2&#45;&gt;Node3</title>
<path fill="none" stroke="midnightblue" d="M146.741,-139.635C131.882,-129.487 115.826,-117.982 103.338,-108.506"/>
<polygon fill="midnightblue" stroke="midnightblue" points="145.07,-142.73 155.316,-145.428 148.989,-136.93 145.07,-142.73"/>
</g>
<!-- Node2&#45;&gt;Node4 -->
<g id="edge4" class="edge"><title>Node2&#45;&gt;Node4</title>
<path fill="none" stroke="midnightblue" d="M185.456,-135.3C184.555,-114.685 186.396,-87.375 198.859,-67 208.792,-50.7611 226.14,-38.7631 241.957,-30.5465"/>
<polygon fill="midnightblue" stroke="midnightblue" points="181.972,-135.655 186.135,-145.397 188.956,-135.185 181.972,-135.655"/>
</g>
<!-- Node2&#45;&gt;Node5 -->
<g id="edge5" class="edge"><title>Node2&#45;&gt;Node5</title>
<path fill="none" stroke="midnightblue" d="M194.06,-135.514C199.573,-113.253 210.561,-83.768 231.859,-67 266.416,-39.7933 387.531,-26.112 459.639,-20.2282"/>
<polygon fill="midnightblue" stroke="midnightblue" points="190.601,-134.945 191.834,-145.468 197.432,-136.473 190.601,-134.945"/>
</g>
<!-- Node2&#45;&gt;Node6 -->
<g id="edge6" class="edge"><title>Node2&#45;&gt;Node6</title>
<path fill="none" stroke="midnightblue" d="M225.008,-139.324C241.978,-127.27 261.56,-113.362 275.831,-103.225"/>
<polygon fill="midnightblue" stroke="midnightblue" points="222.54,-136.784 216.414,-145.428 226.594,-142.491 222.54,-136.784"/>
</g>
<!-- Node3&#45;&gt;Node2 -->
<g id="edge3" class="edge"><title>Node3&#45;&gt;Node2</title>
<path fill="none" stroke="midnightblue" d="M123.873,-114.294C138.726,-124.436 154.788,-135.943 167.292,-145.428"/>
<polygon fill="midnightblue" stroke="midnightblue" points="125.549,-111.202 115.303,-108.506 121.631,-117.003 125.549,-111.202"/>
</g>
<!-- Node7&#45;&gt;Node4 -->
<g id="edge9" class="edge"><title>Node7&#45;&gt;Node4</title>
<path fill="none" stroke="midnightblue" d="M441.734,-144.917C428.039,-134.696 411.603,-121.758 397.859,-109 379.409,-91.8743 379.258,-83.0425 359.859,-67 342.701,-52.8108 321.17,-39.8278 304.338,-30.5796"/>
<polygon fill="midnightblue" stroke="midnightblue" points="439.733,-147.79 449.859,-150.904 443.885,-142.154 439.733,-147.79"/>
</g>
<!-- Node7&#45;&gt;Node5 -->
<g id="edge15" class="edge"><title>Node7&#45;&gt;Node5</title>
<path fill="none" stroke="midnightblue" d="M507.01,-145.228C520.223,-136.107 533.611,-123.948 540.859,-109 553.596,-82.7327 536.769,-49.1524 524.846,-30.5321"/>
<polygon fill="midnightblue" stroke="midnightblue" points="504.917,-142.414 498.419,-150.782 508.717,-148.292 504.917,-142.414"/>
</g>
<!-- Node7&#45;&gt;Node6 -->
<g id="edge16" class="edge"><title>Node7&#45;&gt;Node6</title>
<path fill="none" stroke="midnightblue" d="M428.357,-146.873C397.597,-133.437 356.276,-115.389 328.006,-103.041"/>
<polygon fill="midnightblue" stroke="midnightblue" points="426.974,-150.088 437.539,-150.883 429.776,-143.673 426.974,-150.088"/>
</g>
<!-- Node7&#45;&gt;Node8 -->
<g id="edge10" class="edge"><title>Node7&#45;&gt;Node8</title>
<path fill="none" stroke="midnightblue" d="M505.89,-146.699C535.288,-133.282 576.538,-115.336 606.334,-103.041"/>
<polygon fill="midnightblue" stroke="midnightblue" points="504.414,-143.525 496.791,-150.883 507.339,-149.885 504.414,-143.525"/>
</g>
<!-- Node9 -->
<g id="node9" class="node"><title>Node9</title>
<g id="a_node9"><a xlink:href="../../d2/dc5/injective__transfer_8hpp.html" target="_top" xlink:title="examples/boris/injective\l_transfer.hpp">
<polygon fill="white" stroke="black" points="407.359,-73 407.359,-103 532.359,-103 532.359,-73 407.359,-73"/>
<text text-anchor="start" x="415.359" y="-91" font-family="Helvetica,sans-Serif" font-size="10.00">examples/boris/injective</text>
<text text-anchor="middle" x="469.859" y="-80" font-family="Helvetica,sans-Serif" font-size="10.00">_transfer.hpp</text>
</a>
</g>
</g>
<!-- Node7&#45;&gt;Node9 -->
<g id="edge12" class="edge"><title>Node7&#45;&gt;Node9</title>
<path fill="none" stroke="midnightblue" d="M469.859,-140.59C469.859,-128.257 469.859,-113.724 469.859,-103.231"/>
<polygon fill="midnightblue" stroke="midnightblue" points="466.359,-140.705 469.859,-150.705 473.359,-140.705 466.359,-140.705"/>
</g>
<!-- Node8&#45;&gt;Node7 -->
<g id="edge11" class="edge"><title>Node8&#45;&gt;Node7</title>
<path fill="none" stroke="midnightblue" d="M607.627,-107.393C578.302,-120.773 537.281,-138.619 507.567,-150.883"/>
<polygon fill="midnightblue" stroke="midnightblue" points="609.466,-110.399 617.09,-103.041 606.542,-104.039 609.466,-110.399"/>
</g>
<!-- Node9&#45;&gt;Node4 -->
<g id="edge13" class="edge"><title>Node9&#45;&gt;Node4</title>
<path fill="none" stroke="midnightblue" d="M421.854,-69.4645C388.997,-57.4622 346.004,-41.7576 315.385,-30.5729"/>
<polygon fill="midnightblue" stroke="midnightblue" points="420.673,-72.7591 431.266,-72.9027 423.074,-66.184 420.673,-72.7591"/>
</g>
<!-- Node9&#45;&gt;Node5 -->
<g id="edge14" class="edge"><title>Node9&#45;&gt;Node5</title>
<path fill="none" stroke="midnightblue" d="M484.504,-64.0566C491.506,-53.0859 499.67,-40.2965 505.766,-30.7455"/>
<polygon fill="midnightblue" stroke="midnightblue" points="481.396,-62.4209 478.965,-72.7333 487.296,-66.1872 481.396,-62.4209"/>
</g>
</g>
</svg>
