<?xml version="1.0" encoding="UTF-8" standalone="no"?>
<!DOCTYPE svg PUBLIC "-//W3C//DTD SVG 1.1//EN"
 "http://www.w3.org/Graphics/SVG/1.1/DTD/svg11.dtd">
<!-- Generated by graphviz version 2.38.0 (20140413.2041)
 -->
<!-- Title: pfasst::examples::boris::InjectiveTransfer::interpolate_initial Pages: 1 -->
<svg width="682pt" height="72pt"
 viewBox="0.00 0.00 682.00 72.00" xmlns="http://www.w3.org/2000/svg" xmlns:xlink="http://www.w3.org/1999/xlink">
<g id="graph0" class="graph" transform="scale(1 1) rotate(0) translate(4 68)">
<title>pfasst::examples::boris::InjectiveTransfer::interpolate_initial</title>
<polygon fill="white" stroke="none" points="-4,4 -4,-68 678,-68 678,4 -4,4"/>
<!-- Node1 -->
<g id="node1" class="node"><title>Node1</title>
<polygon fill="#bfbfbf" stroke="black" points="0,-22.5 0,-63.5 150,-63.5 150,-22.5 0,-22.5"/>
<text text-anchor="start" x="8" y="-51.5" font-family="Helvetica,sans-Serif" font-size="10.00">pfasst::examples::boris</text>
<text text-anchor="start" x="8" y="-40.5" font-family="Helvetica,sans-Serif" font-size="10.00">::InjectiveTransfer::interpolate</text>
<text text-anchor="middle" x="75" y="-29.5" font-family="Helvetica,sans-Serif" font-size="10.00">_initial</text>
</g>
<!-- Node2 -->
<g id="node2" class="node"><title>Node2</title>
<g id="a_node2"><a xlink:href="../../d5/d79/classpfasst_1_1examples_1_1boris_1_1InjectiveTransfer.html#af5ac516fbf6f5712892ca2eea935bbed" target="_top" xlink:title="Interpolate, in time and space, from the coarse sweeper to the fine sweeper. ">
<polygon fill="white" stroke="black" points="186,-28 186,-58 336,-58 336,-28 186,-28"/>
<text text-anchor="start" x="194" y="-46" font-family="Helvetica,sans-Serif" font-size="10.00">pfasst::examples::boris</text>
<text text-anchor="middle" x="261" y="-35" font-family="Helvetica,sans-Serif" font-size="10.00">::InjectiveTransfer::interpolate</text>
</a>
</g>
</g>
<!-- Node1&#45;&gt;Node2 -->
<g id="edge1" class="edge"><title>Node1&#45;&gt;Node2</title>
<path fill="none" stroke="midnightblue" d="M150.044,-36.3656C158.514,-36.2553 167.195,-36.2239 175.784,-36.2715"/>
<polygon fill="midnightblue" stroke="midnightblue" points="175.776,-39.7715 185.808,-36.3637 175.84,-32.7718 175.776,-39.7715"/>
</g>
<!-- Node3 -->
<g id="node3" class="node"><title>Node3</title>
<g id="a_node3"><a xlink:href="../../d5/d79/classpfasst_1_1examples_1_1boris_1_1InjectiveTransfer.html#ac36c0a3826da5ba7c00b8b7ca337ef1e" target="_top" xlink:title="Restrict, in time and space, from the fine sweeper to the coarse sweeper. ">
<polygon fill="white" stroke="black" points="372,-6 372,-36 505,-36 505,-6 372,-6"/>
<text text-anchor="start" x="380" y="-24" font-family="Helvetica,sans-Serif" font-size="10.00">pfasst::examples::boris</text>
<text text-anchor="middle" x="438.5" y="-13" font-family="Helvetica,sans-Serif" font-size="10.00">::InjectiveTransfer::restrict</text>
</a>
</g>
</g>
<!-- Node1&#45;&gt;Node3 -->
<g id="edge5" class="edge"><title>Node1&#45;&gt;Node3</title>
<path fill="none" stroke="midnightblue" d="M150.2,-24.548C162.103,-22.2435 174.34,-20.2572 186,-19 244.79,-12.6611 311.758,-13.5882 361.801,-15.8679"/>
<polygon fill="midnightblue" stroke="midnightblue" points="361.737,-19.3688 371.895,-16.3564 362.076,-12.377 361.737,-19.3688"/>
</g>
<!-- Node2&#45;&gt;Node1 -->
<g id="edge2" class="edge"><title>Node2&#45;&gt;Node1</title>
<path fill="none" stroke="midnightblue" d="M185.808,-49.6363C177.336,-49.7457 168.654,-49.7762 160.066,-49.7276"/>
<polygon fill="midnightblue" stroke="midnightblue" points="160.077,-46.2277 150.044,-49.6344 160.011,-53.2274 160.077,-46.2277"/>
</g>
<!-- Node2&#45;&gt;Node3 -->
<g id="edge3" class="edge"><title>Node2&#45;&gt;Node3</title>
<path fill="none" stroke="midnightblue" d="M336.173,-33.7019C344.713,-32.6314 353.428,-31.5389 361.985,-30.4663"/>
<polygon fill="midnightblue" stroke="midnightblue" points="362.45,-33.9354 371.937,-29.2187 361.58,-26.9898 362.45,-33.9354"/>
</g>
<!-- Node4 -->
<g id="node4" class="node"><title>Node4</title>
<g id="a_node4"><a xlink:href="../../d5/d79/classpfasst_1_1examples_1_1boris_1_1InjectiveTransfer.html#a56dd45b08b2ca00ba30775bb6505059b" target="_top" xlink:title="Restrict initial condition from the fine sweeper to the coarse sweeper. ">
<polygon fill="white" stroke="black" points="541,-0.5 541,-41.5 674,-41.5 674,-0.5 541,-0.5"/>
<text text-anchor="start" x="549" y="-29.5" font-family="Helvetica,sans-Serif" font-size="10.00">pfasst::examples::boris</text>
<text text-anchor="start" x="549" y="-18.5" font-family="Helvetica,sans-Serif" font-size="10.00">::InjectiveTransfer::restrict</text>
<text text-anchor="middle" x="607.5" y="-7.5" font-family="Helvetica,sans-Serif" font-size="10.00">_initial</text>
</a>
</g>
</g>
<!-- Node3&#45;&gt;Node4 -->
<g id="edge4" class="edge"><title>Node3&#45;&gt;Node4</title>
<path fill="none" stroke="midnightblue" d="M505.024,-21C513.496,-21 522.228,-21 530.847,-21"/>
<polygon fill="midnightblue" stroke="midnightblue" points="530.891,-24.5001 540.891,-21 530.891,-17.5001 530.891,-24.5001"/>
</g>
</g>
</svg>
