<?xml version="1.0" encoding="UTF-8" standalone="no"?>
<!DOCTYPE svg PUBLIC "-//W3C//DTD SVG 1.1//EN"
 "http://www.w3.org/Graphics/SVG/1.1/DTD/svg11.dtd">
<!-- Generated by graphviz version 2.38.0 (20140413.2041)
 -->
<!-- Title: pfasst::examples::boris::InjectiveTransfer::fas Pages: 1 -->
<svg width="467pt" height="148pt"
 viewBox="0.00 0.00 467.00 147.50" xmlns="http://www.w3.org/2000/svg" xmlns:xlink="http://www.w3.org/1999/xlink">
<g id="graph0" class="graph" transform="scale(1 1) rotate(0) translate(4 143.5)">
<title>pfasst::examples::boris::InjectiveTransfer::fas</title>
<polygon fill="white" stroke="none" points="-4,4 -4,-143.5 463,-143.5 463,4 -4,4"/>
<!-- Node1 -->
<g id="node1" class="node"><title>Node1</title>
<polygon fill="#bfbfbf" stroke="black" points="0,-49.5 0,-79.5 121,-79.5 121,-49.5 0,-49.5"/>
<text text-anchor="start" x="8" y="-67.5" font-family="Helvetica,sans-Serif" font-size="10.00">pfasst::examples::boris</text>
<text text-anchor="middle" x="60.5" y="-56.5" font-family="Helvetica,sans-Serif" font-size="10.00">::InjectiveTransfer::fas</text>
</g>
<!-- Node2 -->
<g id="node2" class="node"><title>Node2</title>
<g id="a_node2"><a xlink:href="../../df/d69/classpfasst_1_1examples_1_1boris_1_1ParticleCloudFactory.html#adfa71dd0d38ddd2d914e761712c77899" target="_top" xlink:title="pfasst::examples::boris\l::ParticleCloudFactory\l::num_particles">
<polygon fill="white" stroke="black" points="163,-98 163,-139 284,-139 284,-98 163,-98"/>
<text text-anchor="start" x="171" y="-127" font-family="Helvetica,sans-Serif" font-size="10.00">pfasst::examples::boris</text>
<text text-anchor="start" x="171" y="-116" font-family="Helvetica,sans-Serif" font-size="10.00">::ParticleCloudFactory</text>
<text text-anchor="middle" x="223.5" y="-105" font-family="Helvetica,sans-Serif" font-size="10.00">::num_particles</text>
</a>
</g>
</g>
<!-- Node1&#45;&gt;Node2 -->
<g id="edge1" class="edge"><title>Node1&#45;&gt;Node2</title>
<path fill="none" stroke="midnightblue" d="M106.347,-79.542C120.833,-84.4006 137.249,-89.9066 153.082,-95.217"/>
<polygon fill="midnightblue" stroke="midnightblue" points="152.249,-98.629 162.843,-98.4907 154.475,-91.9924 152.249,-98.629"/>
</g>
<!-- Node3 -->
<g id="node3" class="node"><title>Node3</title>
<g id="a_node3"><a xlink:href="../../d5/d79/classpfasst_1_1examples_1_1boris_1_1InjectiveTransfer.html#ac36c0a3826da5ba7c00b8b7ca337ef1e" target="_top" xlink:title="Restrict, in time and space, from the fine sweeper to the coarse sweeper. ">
<polygon fill="white" stroke="black" points="157,-49.5 157,-79.5 290,-79.5 290,-49.5 157,-49.5"/>
<text text-anchor="start" x="165" y="-67.5" font-family="Helvetica,sans-Serif" font-size="10.00">pfasst::examples::boris</text>
<text text-anchor="middle" x="223.5" y="-56.5" font-family="Helvetica,sans-Serif" font-size="10.00">::InjectiveTransfer::restrict</text>
</a>
</g>
</g>
<!-- Node1&#45;&gt;Node3 -->
<g id="edge2" class="edge"><title>Node1&#45;&gt;Node3</title>
<path fill="none" stroke="midnightblue" d="M121.45,-64.5C129.65,-64.5 138.154,-64.5 146.59,-64.5"/>
<polygon fill="midnightblue" stroke="midnightblue" points="146.823,-68.0001 156.823,-64.5 146.823,-61.0001 146.823,-68.0001"/>
</g>
<!-- Node5 -->
<g id="node5" class="node"><title>Node5</title>
<g id="a_node5"><a xlink:href="../../d3/d59/group__BorisUtilities.html#ga94b536909b9f5b39756ec3a4d1357f7a" target="_top" xlink:title="pfasst::examples::boris\l::zero">
<polygon fill="white" stroke="black" points="163,-0.5 163,-30.5 284,-30.5 284,-0.5 163,-0.5"/>
<text text-anchor="start" x="171" y="-18.5" font-family="Helvetica,sans-Serif" font-size="10.00">pfasst::examples::boris</text>
<text text-anchor="middle" x="223.5" y="-7.5" font-family="Helvetica,sans-Serif" font-size="10.00">::zero</text>
</a>
</g>
</g>
<!-- Node1&#45;&gt;Node5 -->
<g id="edge4" class="edge"><title>Node1&#45;&gt;Node5</title>
<path fill="none" stroke="midnightblue" d="M111.119,-49.3986C127.57,-44.3917 146.049,-38.7676 163.157,-33.561"/>
<polygon fill="midnightblue" stroke="midnightblue" points="164.497,-36.8116 173.045,-30.5516 162.459,-30.1149 164.497,-36.8116"/>
</g>
<!-- Node4 -->
<g id="node4" class="node"><title>Node4</title>
<g id="a_node4"><a xlink:href="../../d5/d79/classpfasst_1_1examples_1_1boris_1_1InjectiveTransfer.html#a56dd45b08b2ca00ba30775bb6505059b" target="_top" xlink:title="Restrict initial condition from the fine sweeper to the coarse sweeper. ">
<polygon fill="white" stroke="black" points="326,-44 326,-85 459,-85 459,-44 326,-44"/>
<text text-anchor="start" x="334" y="-73" font-family="Helvetica,sans-Serif" font-size="10.00">pfasst::examples::boris</text>
<text text-anchor="start" x="334" y="-62" font-family="Helvetica,sans-Serif" font-size="10.00">::InjectiveTransfer::restrict</text>
<text text-anchor="middle" x="392.5" y="-51" font-family="Helvetica,sans-Serif" font-size="10.00">_initial</text>
</a>
</g>
</g>
<!-- Node3&#45;&gt;Node4 -->
<g id="edge3" class="edge"><title>Node3&#45;&gt;Node4</title>
<path fill="none" stroke="midnightblue" d="M290.024,-64.5C298.496,-64.5 307.228,-64.5 315.847,-64.5"/>
<polygon fill="midnightblue" stroke="midnightblue" points="315.891,-68.0001 325.891,-64.5 315.891,-61.0001 315.891,-68.0001"/>
</g>
</g>
</svg>
