<?xml version="1.0" encoding="UTF-8" standalone="no"?>
<!DOCTYPE svg PUBLIC "-//W3C//DTD SVG 1.1//EN"
 "http://www.w3.org/Graphics/SVG/1.1/DTD/svg11.dtd">
<!-- Generated by graphviz version 2.38.0 (20140413.2041)
 -->
<!-- Title: pfasst::examples::boris::InjectiveTransfer::restrict_initial Pages: 1 -->
<svg width="682pt" height="102pt"
 viewBox="0.00 0.00 682.00 102.15" xmlns="http://www.w3.org/2000/svg" xmlns:xlink="http://www.w3.org/1999/xlink">
<g id="graph0" class="graph" transform="scale(1 1) rotate(0) translate(4 98.1478)">
<title>pfasst::examples::boris::InjectiveTransfer::restrict_initial</title>
<polygon fill="white" stroke="none" points="-4,4 -4,-98.1478 678,-98.1478 678,4 -4,4"/>
<!-- Node1 -->
<g id="node1" class="node"><title>Node1</title>
<polygon fill="#bfbfbf" stroke="black" points="0,-9.14781 0,-50.1478 133,-50.1478 133,-9.14781 0,-9.14781"/>
<text text-anchor="start" x="8" y="-38.1478" font-family="Helvetica,sans-Serif" font-size="10.00">pfasst::examples::boris</text>
<text text-anchor="start" x="8" y="-27.1478" font-family="Helvetica,sans-Serif" font-size="10.00">::InjectiveTransfer::restrict</text>
<text text-anchor="middle" x="66.5" y="-16.1478" font-family="Helvetica,sans-Serif" font-size="10.00">_initial</text>
</g>
<!-- Node2 -->
<g id="node2" class="node"><title>Node2</title>
<g id="a_node2"><a xlink:href="../../d5/d79/classpfasst_1_1examples_1_1boris_1_1InjectiveTransfer.html#ac36c0a3826da5ba7c00b8b7ca337ef1e" target="_top" xlink:title="Restrict, in time and space, from the fine sweeper to the coarse sweeper. ">
<polygon fill="white" stroke="black" points="169,-14.6478 169,-44.6478 302,-44.6478 302,-14.6478 169,-14.6478"/>
<text text-anchor="start" x="177" y="-32.6478" font-family="Helvetica,sans-Serif" font-size="10.00">pfasst::examples::boris</text>
<text text-anchor="middle" x="235.5" y="-21.6478" font-family="Helvetica,sans-Serif" font-size="10.00">::InjectiveTransfer::restrict</text>
</a>
</g>
</g>
<!-- Node1&#45;&gt;Node2 -->
<g id="edge1" class="edge"><title>Node1&#45;&gt;Node2</title>
<path fill="none" stroke="midnightblue" d="M143.066,-29.6478C151.685,-29.6478 160.417,-29.6478 168.891,-29.6478"/>
<polygon fill="midnightblue" stroke="midnightblue" points="143.024,-26.1479 133.024,-29.6478 143.023,-33.1479 143.024,-26.1479"/>
</g>
<!-- Node3 -->
<g id="node3" class="node"><title>Node3</title>
<g id="a_node3"><a xlink:href="../../d5/d79/classpfasst_1_1examples_1_1boris_1_1InjectiveTransfer.html#a8edb899e253e687e270fcf7cb8a06840" target="_top" xlink:title="Compute FAS correction between the coarse and fine sweepers. ">
<polygon fill="white" stroke="black" points="352.5,-63.6478 352.5,-93.6478 473.5,-93.6478 473.5,-63.6478 352.5,-63.6478"/>
<text text-anchor="start" x="360.5" y="-81.6478" font-family="Helvetica,sans-Serif" font-size="10.00">pfasst::examples::boris</text>
<text text-anchor="middle" x="413" y="-70.6478" font-family="Helvetica,sans-Serif" font-size="10.00">::InjectiveTransfer::fas</text>
</a>
</g>
</g>
<!-- Node2&#45;&gt;Node3 -->
<g id="edge2" class="edge"><title>Node2&#45;&gt;Node3</title>
<path fill="none" stroke="midnightblue" d="M300.329,-47.4691C319.278,-52.7596 339.838,-58.5 358.091,-63.5962"/>
<polygon fill="midnightblue" stroke="midnightblue" points="301.161,-44.0674 290.588,-44.7493 299.278,-50.8096 301.161,-44.0674"/>
</g>
<!-- Node4 -->
<g id="node4" class="node"><title>Node4</title>
<g id="a_node4"><a xlink:href="../../d5/d79/classpfasst_1_1examples_1_1boris_1_1InjectiveTransfer.html#af5ac516fbf6f5712892ca2eea935bbed" target="_top" xlink:title="Interpolate, in time and space, from the coarse sweeper to the fine sweeper. ">
<polygon fill="white" stroke="black" points="338,-14.6478 338,-44.6478 488,-44.6478 488,-14.6478 338,-14.6478"/>
<text text-anchor="start" x="346" y="-32.6478" font-family="Helvetica,sans-Serif" font-size="10.00">pfasst::examples::boris</text>
<text text-anchor="middle" x="413" y="-21.6478" font-family="Helvetica,sans-Serif" font-size="10.00">::InjectiveTransfer::interpolate</text>
</a>
</g>
</g>
<!-- Node2&#45;&gt;Node4 -->
<g id="edge3" class="edge"><title>Node2&#45;&gt;Node4</title>
<path fill="none" stroke="midnightblue" d="M312.501,-29.6478C320.901,-29.6478 329.447,-29.6478 337.824,-29.6478"/>
<polygon fill="midnightblue" stroke="midnightblue" points="312.349,-26.1479 302.349,-29.6478 312.349,-33.1479 312.349,-26.1479"/>
</g>
<!-- Node5 -->
<g id="node5" class="node"><title>Node5</title>
<g id="a_node5"><a xlink:href="../../d5/d79/classpfasst_1_1examples_1_1boris_1_1InjectiveTransfer.html#a688d44d4da970e5f8be64576fc1c72b5" target="_top" xlink:title="Interpolate initial condition from the coarse sweeper to the fine sweeper. ">
<polygon fill="white" stroke="black" points="524,-9.14781 524,-50.1478 674,-50.1478 674,-9.14781 524,-9.14781"/>
<text text-anchor="start" x="532" y="-38.1478" font-family="Helvetica,sans-Serif" font-size="10.00">pfasst::examples::boris</text>
<text text-anchor="start" x="532" y="-27.1478" font-family="Helvetica,sans-Serif" font-size="10.00">::InjectiveTransfer::interpolate</text>
<text text-anchor="middle" x="599" y="-16.1478" font-family="Helvetica,sans-Serif" font-size="10.00">_initial</text>
</a>
</g>
</g>
<!-- Node2&#45;&gt;Node5 -->
<g id="edge6" class="edge"><title>Node2&#45;&gt;Node5</title>
<path fill="none" stroke="midnightblue" d="M299.751,-12.3076C312.33,-9.53628 325.511,-7.10423 338,-5.64781 404.218,2.07444 421.718,1.49894 488,-5.64781 499.66,-6.90506 511.897,-8.89133 523.8,-11.1958"/>
<polygon fill="midnightblue" stroke="midnightblue" points="298.778,-8.93975 289.816,-14.5906 300.346,-15.7619 298.778,-8.93975"/>
</g>
<!-- Node4&#45;&gt;Node5 -->
<g id="edge4" class="edge"><title>Node4&#45;&gt;Node5</title>
<path fill="none" stroke="midnightblue" d="M498.066,-22.9202C506.654,-22.8717 515.336,-22.9021 523.808,-23.0115"/>
<polygon fill="midnightblue" stroke="midnightblue" points="498.011,-19.4204 488.044,-23.0134 498.077,-26.4201 498.011,-19.4204"/>
</g>
<!-- Node5&#45;&gt;Node4 -->
<g id="edge5" class="edge"><title>Node5&#45;&gt;Node4</title>
<path fill="none" stroke="midnightblue" d="M513.784,-36.3763C505.195,-36.4239 496.514,-36.3925 488.044,-36.2822"/>
<polygon fill="midnightblue" stroke="midnightblue" points="513.84,-39.876 523.808,-36.2841 513.776,-32.8763 513.84,-39.876"/>
</g>
</g>
</svg>
