<?xml version="1.0" encoding="UTF-8" standalone="no"?>
<!DOCTYPE svg PUBLIC "-//W3C//DTD SVG 1.1//EN"
 "http://www.w3.org/Graphics/SVG/1.1/DTD/svg11.dtd">
<!-- Generated by graphviz version 2.38.0 (20140413.2041)
 -->
<!-- Title: pfasst::examples::boris::InjectiveTransfer::restrict Pages: 1 -->
<svg width="513pt" height="102pt"
 viewBox="0.00 0.00 513.00 102.15" xmlns="http://www.w3.org/2000/svg" xmlns:xlink="http://www.w3.org/1999/xlink">
<g id="graph0" class="graph" transform="scale(1 1) rotate(0) translate(4 98.1478)">
<title>pfasst::examples::boris::InjectiveTransfer::restrict</title>
<polygon fill="white" stroke="none" points="-4,4 -4,-98.1478 509,-98.1478 509,4 -4,4"/>
<!-- Node1 -->
<g id="node1" class="node"><title>Node1</title>
<polygon fill="#bfbfbf" stroke="black" points="0,-14.6478 0,-44.6478 133,-44.6478 133,-14.6478 0,-14.6478"/>
<text text-anchor="start" x="8" y="-32.6478" font-family="Helvetica,sans-Serif" font-size="10.00">pfasst::examples::boris</text>
<text text-anchor="middle" x="66.5" y="-21.6478" font-family="Helvetica,sans-Serif" font-size="10.00">::InjectiveTransfer::restrict</text>
</g>
<!-- Node2 -->
<g id="node2" class="node"><title>Node2</title>
<g id="a_node2"><a xlink:href="../../d5/d79/classpfasst_1_1examples_1_1boris_1_1InjectiveTransfer.html#a8edb899e253e687e270fcf7cb8a06840" target="_top" xlink:title="Compute FAS correction between the coarse and fine sweepers. ">
<polygon fill="white" stroke="black" points="183.5,-63.6478 183.5,-93.6478 304.5,-93.6478 304.5,-63.6478 183.5,-63.6478"/>
<text text-anchor="start" x="191.5" y="-81.6478" font-family="Helvetica,sans-Serif" font-size="10.00">pfasst::examples::boris</text>
<text text-anchor="middle" x="244" y="-70.6478" font-family="Helvetica,sans-Serif" font-size="10.00">::InjectiveTransfer::fas</text>
</a>
</g>
</g>
<!-- Node1&#45;&gt;Node2 -->
<g id="edge1" class="edge"><title>Node1&#45;&gt;Node2</title>
<path fill="none" stroke="midnightblue" d="M131.329,-47.4691C150.278,-52.7596 170.838,-58.5 189.091,-63.5962"/>
<polygon fill="midnightblue" stroke="midnightblue" points="132.161,-44.0674 121.588,-44.7493 130.278,-50.8096 132.161,-44.0674"/>
</g>
<!-- Node3 -->
<g id="node3" class="node"><title>Node3</title>
<g id="a_node3"><a xlink:href="../../d5/d79/classpfasst_1_1examples_1_1boris_1_1InjectiveTransfer.html#af5ac516fbf6f5712892ca2eea935bbed" target="_top" xlink:title="Interpolate, in time and space, from the coarse sweeper to the fine sweeper. ">
<polygon fill="white" stroke="black" points="169,-14.6478 169,-44.6478 319,-44.6478 319,-14.6478 169,-14.6478"/>
<text text-anchor="start" x="177" y="-32.6478" font-family="Helvetica,sans-Serif" font-size="10.00">pfasst::examples::boris</text>
<text text-anchor="middle" x="244" y="-21.6478" font-family="Helvetica,sans-Serif" font-size="10.00">::InjectiveTransfer::interpolate</text>
</a>
</g>
</g>
<!-- Node1&#45;&gt;Node3 -->
<g id="edge2" class="edge"><title>Node1&#45;&gt;Node3</title>
<path fill="none" stroke="midnightblue" d="M143.501,-29.6478C151.901,-29.6478 160.447,-29.6478 168.824,-29.6478"/>
<polygon fill="midnightblue" stroke="midnightblue" points="143.349,-26.1479 133.349,-29.6478 143.349,-33.1479 143.349,-26.1479"/>
</g>
<!-- Node4 -->
<g id="node4" class="node"><title>Node4</title>
<g id="a_node4"><a xlink:href="../../d5/d79/classpfasst_1_1examples_1_1boris_1_1InjectiveTransfer.html#a688d44d4da970e5f8be64576fc1c72b5" target="_top" xlink:title="Interpolate initial condition from the coarse sweeper to the fine sweeper. ">
<polygon fill="white" stroke="black" points="355,-9.14781 355,-50.1478 505,-50.1478 505,-9.14781 355,-9.14781"/>
<text text-anchor="start" x="363" y="-38.1478" font-family="Helvetica,sans-Serif" font-size="10.00">pfasst::examples::boris</text>
<text text-anchor="start" x="363" y="-27.1478" font-family="Helvetica,sans-Serif" font-size="10.00">::InjectiveTransfer::interpolate</text>
<text text-anchor="middle" x="430" y="-16.1478" font-family="Helvetica,sans-Serif" font-size="10.00">_initial</text>
</a>
</g>
</g>
<!-- Node1&#45;&gt;Node4 -->
<g id="edge5" class="edge"><title>Node1&#45;&gt;Node4</title>
<path fill="none" stroke="midnightblue" d="M130.751,-12.3076C143.33,-9.53628 156.511,-7.10423 169,-5.64781 235.218,2.07444 252.718,1.49894 319,-5.64781 330.66,-6.90506 342.897,-8.89133 354.8,-11.1958"/>
<polygon fill="midnightblue" stroke="midnightblue" points="129.778,-8.93975 120.816,-14.5906 131.346,-15.7619 129.778,-8.93975"/>
</g>
<!-- Node3&#45;&gt;Node4 -->
<g id="edge3" class="edge"><title>Node3&#45;&gt;Node4</title>
<path fill="none" stroke="midnightblue" d="M329.066,-22.9202C337.654,-22.8717 346.336,-22.9021 354.808,-23.0115"/>
<polygon fill="midnightblue" stroke="midnightblue" points="329.011,-19.4204 319.044,-23.0134 329.077,-26.4201 329.011,-19.4204"/>
</g>
<!-- Node4&#45;&gt;Node3 -->
<g id="edge4" class="edge"><title>Node4&#45;&gt;Node3</title>
<path fill="none" stroke="midnightblue" d="M344.784,-36.3763C336.195,-36.4239 327.514,-36.3925 319.044,-36.2822"/>
<polygon fill="midnightblue" stroke="midnightblue" points="344.84,-39.876 354.808,-36.2841 344.776,-32.8763 344.84,-39.876"/>
</g>
</g>
</svg>
