<?xml version="1.0" encoding="UTF-8" standalone="no"?>
<!DOCTYPE svg PUBLIC "-//W3C//DTD SVG 1.1//EN"
 "http://www.w3.org/Graphics/SVG/1.1/DTD/svg11.dtd">
<!-- Generated by graphviz version 2.38.0 (20140413.2041)
 -->
<!-- Title: pfasst::examples::boris::InjectiveTransfer::restrict Pages: 1 -->
<svg width="310pt" height="50pt"
 viewBox="0.00 0.00 310.00 50.00" xmlns="http://www.w3.org/2000/svg" xmlns:xlink="http://www.w3.org/1999/xlink">
<g id="graph0" class="graph" transform="scale(1 1) rotate(0) translate(4 46)">
<title>pfasst::examples::boris::InjectiveTransfer::restrict</title>
<polygon fill="white" stroke="none" points="-4,4 -4,-46 306,-46 306,4 -4,4"/>
<!-- Node1 -->
<g id="node1" class="node"><title>Node1</title>
<polygon fill="#bfbfbf" stroke="black" points="0,-6 0,-36 133,-36 133,-6 0,-6"/>
<text text-anchor="start" x="8" y="-24" font-family="Helvetica,sans-Serif" font-size="10.00">pfasst::examples::boris</text>
<text text-anchor="middle" x="66.5" y="-13" font-family="Helvetica,sans-Serif" font-size="10.00">::InjectiveTransfer::restrict</text>
</g>
<!-- Node2 -->
<g id="node2" class="node"><title>Node2</title>
<g id="a_node2"><a xlink:href="../../d5/d79/classpfasst_1_1examples_1_1boris_1_1InjectiveTransfer.html#a56dd45b08b2ca00ba30775bb6505059b" target="_top" xlink:title="Restrict initial condition from the fine sweeper to the coarse sweeper. ">
<polygon fill="white" stroke="black" points="169,-0.5 169,-41.5 302,-41.5 302,-0.5 169,-0.5"/>
<text text-anchor="start" x="177" y="-29.5" font-family="Helvetica,sans-Serif" font-size="10.00">pfasst::examples::boris</text>
<text text-anchor="start" x="177" y="-18.5" font-family="Helvetica,sans-Serif" font-size="10.00">::InjectiveTransfer::restrict</text>
<text text-anchor="middle" x="235.5" y="-7.5" font-family="Helvetica,sans-Serif" font-size="10.00">_initial</text>
</a>
</g>
</g>
<!-- Node1&#45;&gt;Node2 -->
<g id="edge1" class="edge"><title>Node1&#45;&gt;Node2</title>
<path fill="none" stroke="midnightblue" d="M133.024,-21C141.496,-21 150.228,-21 158.847,-21"/>
<polygon fill="midnightblue" stroke="midnightblue" points="158.891,-24.5001 168.891,-21 158.891,-17.5001 158.891,-24.5001"/>
</g>
</g>
</svg>
