<?xml version="1.0" encoding="UTF-8" standalone="no"?>
<!DOCTYPE svg PUBLIC "-//W3C//DTD SVG 1.1//EN"
 "http://www.w3.org/Graphics/SVG/1.1/DTD/svg11.dtd">
<!-- Generated by graphviz version 2.38.0 (20140413.2041)
 -->
<!-- Title: pfasst::examples::boris::InjectiveTransfer::interpolate Pages: 1 -->
<svg width="344pt" height="50pt"
 viewBox="0.00 0.00 344.00 50.00" xmlns="http://www.w3.org/2000/svg" xmlns:xlink="http://www.w3.org/1999/xlink">
<g id="graph0" class="graph" transform="scale(1 1) rotate(0) translate(4 46)">
<title>pfasst::examples::boris::InjectiveTransfer::interpolate</title>
<polygon fill="white" stroke="none" points="-4,4 -4,-46 340,-46 340,4 -4,4"/>
<!-- Node1 -->
<g id="node1" class="node"><title>Node1</title>
<polygon fill="#bfbfbf" stroke="black" points="0,-6 0,-36 150,-36 150,-6 0,-6"/>
<text text-anchor="start" x="8" y="-24" font-family="Helvetica,sans-Serif" font-size="10.00">pfasst::examples::boris</text>
<text text-anchor="middle" x="75" y="-13" font-family="Helvetica,sans-Serif" font-size="10.00">::InjectiveTransfer::interpolate</text>
</g>
<!-- Node2 -->
<g id="node2" class="node"><title>Node2</title>
<g id="a_node2"><a xlink:href="../../d5/d79/classpfasst_1_1examples_1_1boris_1_1InjectiveTransfer.html#a688d44d4da970e5f8be64576fc1c72b5" target="_top" xlink:title="Interpolate initial condition from the coarse sweeper to the fine sweeper. ">
<polygon fill="white" stroke="black" points="186,-0.5 186,-41.5 336,-41.5 336,-0.5 186,-0.5"/>
<text text-anchor="start" x="194" y="-29.5" font-family="Helvetica,sans-Serif" font-size="10.00">pfasst::examples::boris</text>
<text text-anchor="start" x="194" y="-18.5" font-family="Helvetica,sans-Serif" font-size="10.00">::InjectiveTransfer::interpolate</text>
<text text-anchor="middle" x="261" y="-7.5" font-family="Helvetica,sans-Serif" font-size="10.00">_initial</text>
</a>
</g>
</g>
<!-- Node1&#45;&gt;Node2 -->
<g id="edge1" class="edge"><title>Node1&#45;&gt;Node2</title>
<path fill="none" stroke="midnightblue" d="M160.066,-14.2724C168.654,-14.2238 177.336,-14.2543 185.808,-14.3637"/>
<polygon fill="midnightblue" stroke="midnightblue" points="160.011,-10.7726 150.044,-14.3656 160.077,-17.7723 160.011,-10.7726"/>
</g>
<!-- Node2&#45;&gt;Node1 -->
<g id="edge2" class="edge"><title>Node2&#45;&gt;Node1</title>
<path fill="none" stroke="midnightblue" d="M175.784,-27.7285C167.195,-27.7761 158.514,-27.7447 150.044,-27.6344"/>
<polygon fill="midnightblue" stroke="midnightblue" points="175.84,-31.2282 185.808,-27.6363 175.776,-24.2285 175.84,-31.2282"/>
</g>
</g>
</svg>
