<?xml version="1.0" encoding="UTF-8" standalone="no"?>
<!DOCTYPE svg PUBLIC "-//W3C//DTD SVG 1.1//EN"
 "http://www.w3.org/Graphics/SVG/1.1/DTD/svg11.dtd">
<!-- Generated by graphviz version 2.38.0 (20140413.2041)
 -->
<!-- Title: pfasst::examples::boris::InjectiveTransfer::interpolate Pages: 1 -->
<svg width="682pt" height="75pt"
 viewBox="0.00 0.00 682.00 75.00" xmlns="http://www.w3.org/2000/svg" xmlns:xlink="http://www.w3.org/1999/xlink">
<g id="graph0" class="graph" transform="scale(1 1) rotate(0) translate(4 71)">
<title>pfasst::examples::boris::InjectiveTransfer::interpolate</title>
<polygon fill="white" stroke="none" points="-4,4 -4,-71 678,-71 678,4 -4,4"/>
<!-- Node1 -->
<g id="node1" class="node"><title>Node1</title>
<polygon fill="#bfbfbf" stroke="black" points="0,-31 0,-61 150,-61 150,-31 0,-31"/>
<text text-anchor="start" x="8" y="-49" font-family="Helvetica,sans-Serif" font-size="10.00">pfasst::examples::boris</text>
<text text-anchor="middle" x="75" y="-38" font-family="Helvetica,sans-Serif" font-size="10.00">::InjectiveTransfer::interpolate</text>
</g>
<!-- Node2 -->
<g id="node2" class="node"><title>Node2</title>
<g id="a_node2"><a xlink:href="../../d5/d79/classpfasst_1_1examples_1_1boris_1_1InjectiveTransfer.html#a688d44d4da970e5f8be64576fc1c72b5" target="_top" xlink:title="Interpolate initial condition from the coarse sweeper to the fine sweeper. ">
<polygon fill="white" stroke="black" points="186,-25.5 186,-66.5 336,-66.5 336,-25.5 186,-25.5"/>
<text text-anchor="start" x="194" y="-54.5" font-family="Helvetica,sans-Serif" font-size="10.00">pfasst::examples::boris</text>
<text text-anchor="start" x="194" y="-43.5" font-family="Helvetica,sans-Serif" font-size="10.00">::InjectiveTransfer::interpolate</text>
<text text-anchor="middle" x="261" y="-32.5" font-family="Helvetica,sans-Serif" font-size="10.00">_initial</text>
</a>
</g>
</g>
<!-- Node1&#45;&gt;Node2 -->
<g id="edge1" class="edge"><title>Node1&#45;&gt;Node2</title>
<path fill="none" stroke="midnightblue" d="M150.044,-39.3656C158.514,-39.2553 167.195,-39.2239 175.784,-39.2715"/>
<polygon fill="midnightblue" stroke="midnightblue" points="175.776,-42.7715 185.808,-39.3637 175.84,-35.7718 175.776,-42.7715"/>
</g>
<!-- Node3 -->
<g id="node3" class="node"><title>Node3</title>
<g id="a_node3"><a xlink:href="../../d5/d79/classpfasst_1_1examples_1_1boris_1_1InjectiveTransfer.html#ac36c0a3826da5ba7c00b8b7ca337ef1e" target="_top" xlink:title="Restrict, in time and space, from the fine sweeper to the coarse sweeper. ">
<polygon fill="white" stroke="black" points="372,-6 372,-36 505,-36 505,-6 372,-6"/>
<text text-anchor="start" x="380" y="-24" font-family="Helvetica,sans-Serif" font-size="10.00">pfasst::examples::boris</text>
<text text-anchor="middle" x="438.5" y="-13" font-family="Helvetica,sans-Serif" font-size="10.00">::InjectiveTransfer::restrict</text>
</a>
</g>
</g>
<!-- Node1&#45;&gt;Node3 -->
<g id="edge5" class="edge"><title>Node1&#45;&gt;Node3</title>
<path fill="none" stroke="midnightblue" d="M120.401,-30.9954C140.225,-25.0527 164.026,-18.9427 186,-16 244.617,-8.15009 311.595,-10.0043 361.686,-13.4925"/>
<polygon fill="midnightblue" stroke="midnightblue" points="361.561,-16.9927 371.79,-14.2341 362.073,-10.0114 361.561,-16.9927"/>
</g>
<!-- Node2&#45;&gt;Node1 -->
<g id="edge4" class="edge"><title>Node2&#45;&gt;Node1</title>
<path fill="none" stroke="midnightblue" d="M185.808,-52.6363C177.336,-52.7457 168.654,-52.7762 160.066,-52.7276"/>
<polygon fill="midnightblue" stroke="midnightblue" points="160.077,-49.2277 150.044,-52.6344 160.011,-56.2274 160.077,-49.2277"/>
</g>
<!-- Node2&#45;&gt;Node3 -->
<g id="edge2" class="edge"><title>Node2&#45;&gt;Node3</title>
<path fill="none" stroke="midnightblue" d="M336.173,-35.434C344.713,-34.2175 353.428,-32.9761 361.985,-31.7571"/>
<polygon fill="midnightblue" stroke="midnightblue" points="362.531,-35.2148 371.937,-30.3394 361.544,-28.2847 362.531,-35.2148"/>
</g>
<!-- Node4 -->
<g id="node4" class="node"><title>Node4</title>
<g id="a_node4"><a xlink:href="../../d5/d79/classpfasst_1_1examples_1_1boris_1_1InjectiveTransfer.html#a56dd45b08b2ca00ba30775bb6505059b" target="_top" xlink:title="Restrict initial condition from the fine sweeper to the coarse sweeper. ">
<polygon fill="white" stroke="black" points="541,-0.5 541,-41.5 674,-41.5 674,-0.5 541,-0.5"/>
<text text-anchor="start" x="549" y="-29.5" font-family="Helvetica,sans-Serif" font-size="10.00">pfasst::examples::boris</text>
<text text-anchor="start" x="549" y="-18.5" font-family="Helvetica,sans-Serif" font-size="10.00">::InjectiveTransfer::restrict</text>
<text text-anchor="middle" x="607.5" y="-7.5" font-family="Helvetica,sans-Serif" font-size="10.00">_initial</text>
</a>
</g>
</g>
<!-- Node3&#45;&gt;Node4 -->
<g id="edge3" class="edge"><title>Node3&#45;&gt;Node4</title>
<path fill="none" stroke="midnightblue" d="M505.024,-21C513.496,-21 522.228,-21 530.847,-21"/>
<polygon fill="midnightblue" stroke="midnightblue" points="530.891,-24.5001 540.891,-21 530.891,-17.5001 530.891,-24.5001"/>
</g>
</g>
</svg>
