<?xml version="1.0" encoding="UTF-8" standalone="no"?>
<!DOCTYPE svg PUBLIC "-//W3C//DTD SVG 1.1//EN"
 "http://www.w3.org/Graphics/SVG/1.1/DTD/svg11.dtd">
<!-- Generated by graphviz version 2.38.0 (20140413.2041)
 -->
<!-- Title: pfasst::examples::boris::InjectiveTransfer::restrict Pages: 1 -->
<!--zoomable 102 -->
<svg id="main" version="1.1" xmlns="http://www.w3.org/2000/svg" xmlns:xlink="http://www.w3.org/1999/xlink" xml:space="preserve" onload="init(evt)">
<style type="text/css"><![CDATA[
.edge:hover path { stroke: red; }
.edge:hover polygon { stroke: red; fill: red; }
]]></style>
<script type="text/javascript"><![CDATA[
var edges = document.getElementsByTagName('g');
if (edges && edges.length) {
  for (var i=0;i<edges.length;i++) {
    if (edges[i].id.substr(0,4)=='edge') {
      edges[i].setAttribute('class','edge');
    }
  }
}
]]></script>
        <defs>
                <circle id="rim" cx="0" cy="0" r="7"/>
                <circle id="rim2" cx="0" cy="0" r="3.5"/>
                <g id="zoomPlus">
                        <use xlink:href="#rim" fill="#404040">
                                <set attributeName="fill" to="#808080" begin="zoomplus.mouseover" end="zoomplus.mouseout"/>
                        </use>
                        <path d="M-4,0h8M0,-4v8" fill="none" stroke="white" stroke-width="1.5" pointer-events="none"/>
                </g>
                <g id="zoomMin">
                        <use xlink:href="#rim" fill="#404040">
                                <set attributeName="fill" to="#808080" begin="zoomminus.mouseover" end="zoomminus.mouseout"/>
                        </use>
                        <path d="M-4,0h8" fill="none" stroke="white" stroke-width="1.5" pointer-events="none"/>
                </g>
                <g id="dirArrow">
                        <path fill="none" stroke="white" stroke-width="1.5" d="M0,-3.0v7 M-2.5,-0.5L0,-3.0L2.5,-0.5"/>
                </g>
               <g id="resetDef">
                       <use xlink:href="#rim2" fill="#404040">
                               <set attributeName="fill" to="#808080" begin="reset.mouseover" end="reset.mouseout"/>
                       </use>
               </g>
        </defs>

<script type="text/javascript">
var viewWidth = 513;
var viewHeight = 102;
var sectionId = 'dynsection-8';
</script>
<script xlink:href="../../svgpan.js"/>
<svg id="graph" class="graph">
<g id="viewport">
<title>pfasst::examples::boris::InjectiveTransfer::restrict</title>
<polygon fill="white" stroke="none" points="-4,4 -4,-98.1478 509,-98.1478 509,4 -4,4"/>
<!-- Node1 -->
<g id="node1" class="node"><title>Node1</title>
<polygon fill="#bfbfbf" stroke="black" points="0,-14.6478 0,-44.6478 133,-44.6478 133,-14.6478 0,-14.6478"/>
<text text-anchor="start" x="8" y="-32.6478" font-family="Helvetica,sans-Serif" font-size="10.00">pfasst::examples::boris</text>
<text text-anchor="middle" x="66.5" y="-21.6478" font-family="Helvetica,sans-Serif" font-size="10.00">::InjectiveTransfer::restrict</text>
</g>
<!-- Node2 -->
<g id="node2" class="node"><title>Node2</title>
<g id="a_node2"><a xlink:href="../../d5/d79/classpfasst_1_1examples_1_1boris_1_1InjectiveTransfer.html#a8edb899e253e687e270fcf7cb8a06840" target="_top" xlink:title="Compute FAS correction between the coarse and fine sweepers. ">
<polygon fill="white" stroke="black" points="183.5,-63.6478 183.5,-93.6478 304.5,-93.6478 304.5,-63.6478 183.5,-63.6478"/>
<text text-anchor="start" x="191.5" y="-81.6478" font-family="Helvetica,sans-Serif" font-size="10.00">pfasst::examples::boris</text>
<text text-anchor="middle" x="244" y="-70.6478" font-family="Helvetica,sans-Serif" font-size="10.00">::InjectiveTransfer::fas</text>
</a>
</g>
</g>
<!-- Node1&#45;&gt;Node2 -->
<g id="edge1" class="edge"><title>Node1&#45;&gt;Node2</title>
<path fill="none" stroke="midnightblue" d="M131.329,-47.4691C150.278,-52.7596 170.838,-58.5 189.091,-63.5962"/>
<polygon fill="midnightblue" stroke="midnightblue" points="132.161,-44.0674 121.588,-44.7493 130.278,-50.8096 132.161,-44.0674"/>
</g>
<!-- Node3 -->
<g id="node3" class="node"><title>Node3</title>
<g id="a_node3"><a xlink:href="../../d5/d79/classpfasst_1_1examples_1_1boris_1_1InjectiveTransfer.html#af5ac516fbf6f5712892ca2eea935bbed" target="_top" xlink:title="Interpolate, in time and space, from the coarse sweeper to the fine sweeper. ">
<polygon fill="white" stroke="black" points="169,-14.6478 169,-44.6478 319,-44.6478 319,-14.6478 169,-14.6478"/>
<text text-anchor="start" x="177" y="-32.6478" font-family="Helvetica,sans-Serif" font-size="10.00">pfasst::examples::boris</text>
<text text-anchor="middle" x="244" y="-21.6478" font-family="Helvetica,sans-Serif" font-size="10.00">::InjectiveTransfer::interpolate</text>
</a>
</g>
</g>
<!-- Node1&#45;&gt;Node3 -->
<g id="edge2" class="edge"><title>Node1&#45;&gt;Node3</title>
<path fill="none" stroke="midnightblue" d="M143.501,-29.6478C151.901,-29.6478 160.447,-29.6478 168.824,-29.6478"/>
<polygon fill="midnightblue" stroke="midnightblue" points="143.349,-26.1479 133.349,-29.6478 143.349,-33.1479 143.349,-26.1479"/>
</g>
<!-- Node4 -->
<g id="node4" class="node"><title>Node4</title>
<g id="a_node4"><a xlink:href="../../d5/d79/classpfasst_1_1examples_1_1boris_1_1InjectiveTransfer.html#a688d44d4da970e5f8be64576fc1c72b5" target="_top" xlink:title="Interpolate initial condition from the coarse sweeper to the fine sweeper. ">
<polygon fill="white" stroke="black" points="355,-9.14781 355,-50.1478 505,-50.1478 505,-9.14781 355,-9.14781"/>
<text text-anchor="start" x="363" y="-38.1478" font-family="Helvetica,sans-Serif" font-size="10.00">pfasst::examples::boris</text>
<text text-anchor="start" x="363" y="-27.1478" font-family="Helvetica,sans-Serif" font-size="10.00">::InjectiveTransfer::interpolate</text>
<text text-anchor="middle" x="430" y="-16.1478" font-family="Helvetica,sans-Serif" font-size="10.00">_initial</text>
</a>
</g>
</g>
<!-- Node1&#45;&gt;Node4 -->
<g id="edge5" class="edge"><title>Node1&#45;&gt;Node4</title>
<path fill="none" stroke="midnightblue" d="M130.751,-12.3076C143.33,-9.53628 156.511,-7.10423 169,-5.64781 235.218,2.07444 252.718,1.49894 319,-5.64781 330.66,-6.90506 342.897,-8.89133 354.8,-11.1958"/>
<polygon fill="midnightblue" stroke="midnightblue" points="129.778,-8.93975 120.816,-14.5906 131.346,-15.7619 129.778,-8.93975"/>
</g>
<!-- Node3&#45;&gt;Node4 -->
<g id="edge3" class="edge"><title>Node3&#45;&gt;Node4</title>
<path fill="none" stroke="midnightblue" d="M329.066,-22.9202C337.654,-22.8717 346.336,-22.9021 354.808,-23.0115"/>
<polygon fill="midnightblue" stroke="midnightblue" points="329.011,-19.4204 319.044,-23.0134 329.077,-26.4201 329.011,-19.4204"/>
</g>
<!-- Node4&#45;&gt;Node3 -->
<g id="edge4" class="edge"><title>Node4&#45;&gt;Node3</title>
<path fill="none" stroke="midnightblue" d="M344.784,-36.3763C336.195,-36.4239 327.514,-36.3925 319.044,-36.2822"/>
<polygon fill="midnightblue" stroke="midnightblue" points="344.84,-39.876 354.808,-36.2841 344.776,-32.8763 344.84,-39.876"/>
</g>
</g>
</svg>
        <g id="navigator" transform="translate(0 0)" fill="#404254">
                <rect fill="#f2f5e9" fill-opacity="0.5" stroke="#606060" stroke-width=".5" x="0" y="0" width="60" height="60"/>
                <use id="zoomplus" xlink:href="#zoomPlus" x="17" y="9" onmousedown="handleZoom(evt,'in')"/>
                <use id="zoomminus" xlink:href="#zoomMin" x="42" y="9" onmousedown="handleZoom(evt,'out')"/>
                <use id="reset" xlink:href="#resetDef" x="30" y="36" onmousedown="handleReset()"/>
                <g id="arrowUp" xlink:href="#dirArrow" transform="translate(30 24)" onmousedown="handlePan(0,-1)">
                  <use xlink:href="#rim" fill="#404040">
                        <set attributeName="fill" to="#808080" begin="arrowUp.mouseover" end="arrowUp.mouseout"/>
                  </use>
                  <path fill="none" stroke="white" stroke-width="1.5" d="M0,-3.0v7 M-2.5,-0.5L0,-3.0L2.5,-0.5"/>
                </g>
                <g id="arrowRight" xlink:href="#dirArrow" transform="rotate(90) translate(36 -43)" onmousedown="handlePan(1,0)">
                  <use xlink:href="#rim" fill="#404040">
                        <set attributeName="fill" to="#808080" begin="arrowRight.mouseover" end="arrowRight.mouseout"/>
                  </use>
                  <path fill="none" stroke="white" stroke-width="1.5" d="M0,-3.0v7 M-2.5,-0.5L0,-3.0L2.5,-0.5"/>
                </g>
                <g id="arrowDown" xlink:href="#dirArrow" transform="rotate(180) translate(-30 -48)" onmousedown="handlePan(0,1)">
                  <use xlink:href="#rim" fill="#404040">
                        <set attributeName="fill" to="#808080" begin="arrowDown.mouseover" end="arrowDown.mouseout"/>
                  </use>
                  <path fill="none" stroke="white" stroke-width="1.5" d="M0,-3.0v7 M-2.5,-0.5L0,-3.0L2.5,-0.5"/>
                </g>
                <g id="arrowLeft" xlink:href="#dirArrow" transform="rotate(270) translate(-36 17)" onmousedown="handlePan(-1,0)">
                  <use xlink:href="#rim" fill="#404040">
                        <set attributeName="fill" to="#808080" begin="arrowLeft.mouseover" end="arrowLeft.mouseout"/>
                  </use>
                  <path fill="none" stroke="white" stroke-width="1.5" d="M0,-3.0v7 M-2.5,-0.5L0,-3.0L2.5,-0.5"/>
                </g>
        </g>
        <svg viewBox="0 0 15 15" width="100%" height="30px" preserveAspectRatio="xMaxYMin meet">
         <g id="arrow_out" transform="scale(0.3 0.3)">
          <a xlink:href="classpfasst_1_1examples_1_1boris_1_1InjectiveTransfer_ac36c0a3826da5ba7c00b8b7ca337ef1e_icgraph_org.svg" target="_base">
           <rect id="button" ry="5" rx="5" y="6" x="6" height="38" width="38"
                fill="#f2f5e9" fill-opacity="0.5" stroke="#606060" stroke-width="1.0"/>
           <path id="arrow"
             d="M 11.500037,31.436501 C 11.940474,20.09759 22.043105,11.32322 32.158766,21.979434 L 37.068811,17.246167 C 37.068811,17.246167 37.088388,32 37.088388,32 L 22.160133,31.978069 C 22.160133,31.978069 26.997745,27.140456 26.997745,27.140456 C 18.528582,18.264221 13.291696,25.230495 11.500037,31.436501 z"
             style="fill:#404040;"/>
          </a>
         </g>
        </svg>
</svg>
