<?xml version="1.0" encoding="UTF-8" standalone="no"?>
<!DOCTYPE svg PUBLIC "-//W3C//DTD SVG 1.1//EN"
 "http://www.w3.org/Graphics/SVG/1.1/DTD/svg11.dtd">
<!-- Generated by graphviz version 2.38.0 (20140413.2041)
 -->
<!-- Title: include/pfasst/encap/encapsulation.hpp Pages: 1 -->
<!--zoomable 386 -->
<svg id="main" version="1.1" xmlns="http://www.w3.org/2000/svg" xmlns:xlink="http://www.w3.org/1999/xlink" xml:space="preserve" onload="init(evt)">
<style type="text/css"><![CDATA[
.edge:hover path { stroke: red; }
.edge:hover polygon { stroke: red; fill: red; }
]]></style>
<script type="text/javascript"><![CDATA[
var edges = document.getElementsByTagName('g');
if (edges && edges.length) {
  for (var i=0;i<edges.length;i++) {
    if (edges[i].id.substr(0,4)=='edge') {
      edges[i].setAttribute('class','edge');
    }
  }
}
]]></script>
        <defs>
                <circle id="rim" cx="0" cy="0" r="7"/>
                <circle id="rim2" cx="0" cy="0" r="3.5"/>
                <g id="zoomPlus">
                        <use xlink:href="#rim" fill="#404040">
                                <set attributeName="fill" to="#808080" begin="zoomplus.mouseover" end="zoomplus.mouseout"/>
                        </use>
                        <path d="M-4,0h8M0,-4v8" fill="none" stroke="white" stroke-width="1.5" pointer-events="none"/>
                </g>
                <g id="zoomMin">
                        <use xlink:href="#rim" fill="#404040">
                                <set attributeName="fill" to="#808080" begin="zoomminus.mouseover" end="zoomminus.mouseout"/>
                        </use>
                        <path d="M-4,0h8" fill="none" stroke="white" stroke-width="1.5" pointer-events="none"/>
                </g>
                <g id="dirArrow">
                        <path fill="none" stroke="white" stroke-width="1.5" d="M0,-3.0v7 M-2.5,-0.5L0,-3.0L2.5,-0.5"/>
                </g>
               <g id="resetDef">
                       <use xlink:href="#rim2" fill="#404040">
                               <set attributeName="fill" to="#808080" begin="reset.mouseover" end="reset.mouseout"/>
                       </use>
               </g>
        </defs>

<script type="text/javascript">
var viewWidth = 794;
var viewHeight = 386;
var sectionId = 'dynsection-0';
</script>
<script xlink:href="../../svgpan.js"/>
<svg id="graph" class="graph">
<g id="viewport">
<title>include/pfasst/encap/encapsulation.hpp</title>
<polygon fill="white" stroke="none" points="-4,4 -4,-382 789.523,-382 789.523,4 -4,4"/>
<!-- Node1 -->
<g id="node1" class="node"><title>Node1</title>
<polygon fill="#bfbfbf" stroke="black" points="506.523,-347.5 506.523,-377.5 615.523,-377.5 615.523,-347.5 506.523,-347.5"/>
<text text-anchor="start" x="514.523" y="-365.5" font-family="Helvetica,sans-Serif" font-size="10.00">include/pfasst/encap</text>
<text text-anchor="middle" x="561.023" y="-354.5" font-family="Helvetica,sans-Serif" font-size="10.00">/encapsulation.hpp</text>
</g>
<!-- Node2 -->
<g id="node2" class="node"><title>Node2</title>
<polygon fill="white" stroke="#bfbfbf" points="231.523,-168.5 231.523,-187.5 284.523,-187.5 284.523,-168.5 231.523,-168.5"/>
<text text-anchor="middle" x="258.023" y="-175.5" font-family="Helvetica,sans-Serif" font-size="10.00">memory</text>
</g>
<!-- Node1&#45;&gt;Node2 -->
<g id="edge1" class="edge"><title>Node1&#45;&gt;Node2</title>
<path fill="none" stroke="midnightblue" d="M506.33,-357.989C462.778,-352.954 401.891,-340.717 357.023,-311 312.78,-281.698 280.728,-225.682 266.39,-196.959"/>
<polygon fill="midnightblue" stroke="midnightblue" points="269.423,-195.191 261.92,-187.712 263.121,-198.238 269.423,-195.191"/>
</g>
<!-- Node3 -->
<g id="node3" class="node"><title>Node3</title>
<polygon fill="white" stroke="#bfbfbf" points="649.023,-286 649.023,-305 693.023,-305 693.023,-286 649.023,-286"/>
<text text-anchor="middle" x="671.023" y="-293" font-family="Helvetica,sans-Serif" font-size="10.00">vector</text>
</g>
<!-- Node1&#45;&gt;Node3 -->
<g id="edge2" class="edge"><title>Node1&#45;&gt;Node3</title>
<path fill="none" stroke="midnightblue" d="M584.891,-347.396C603.594,-336.344 629.459,-321.061 647.953,-310.132"/>
<polygon fill="midnightblue" stroke="midnightblue" points="649.798,-313.108 656.626,-305.007 646.237,-307.081 649.798,-313.108"/>
</g>
<!-- Node4 -->
<g id="node4" class="node"><title>Node4</title>
<polygon fill="white" stroke="#bfbfbf" points="710.523,-286 710.523,-305 785.523,-305 785.523,-286 710.523,-286"/>
<text text-anchor="middle" x="748.023" y="-293" font-family="Helvetica,sans-Serif" font-size="10.00">Eigen/Dense</text>
</g>
<!-- Node1&#45;&gt;Node4 -->
<g id="edge3" class="edge"><title>Node1&#45;&gt;Node4</title>
<path fill="none" stroke="midnightblue" d="M601.599,-347.396C635.136,-335.739 682.219,-319.373 713.856,-308.376"/>
<polygon fill="midnightblue" stroke="midnightblue" points="715.252,-311.596 723.549,-305.007 712.954,-304.984 715.252,-311.596"/>
</g>
<!-- Node5 -->
<g id="node5" class="node"><title>Node5</title>
<g id="a_node5"><a xlink:href="../../d1/d1b/interfaces_8hpp.html" target="_top" xlink:title="interfaces for SDC/MLSDC/PFASST algorithms. ">
<polygon fill="white" stroke="black" points="366.523,-286 366.523,-305 473.523,-305 473.523,-286 366.523,-286"/>
<text text-anchor="middle" x="420.023" y="-293" font-family="Helvetica,sans-Serif" font-size="10.00">pfasst/interfaces.hpp</text>
</a>
</g>
</g>
<!-- Node1&#45;&gt;Node5 -->
<g id="edge4" class="edge"><title>Node1&#45;&gt;Node5</title>
<path fill="none" stroke="midnightblue" d="M530.428,-347.396C505.797,-336.041 471.477,-320.22 447.667,-309.244"/>
<polygon fill="midnightblue" stroke="midnightblue" points="449.023,-306.015 438.476,-305.007 446.093,-312.372 449.023,-306.015"/>
</g>
<!-- Node23 -->
<g id="node23" class="node"><title>Node23</title>
<g id="a_node23"><a xlink:href="../../d1/d99/encapsulation__impl_8hpp.html" target="_top" xlink:title="pfasst/encap/encapsulation\l_impl.hpp">
<polygon fill="white" stroke="black" points="491.523,-280.5 491.523,-310.5 630.523,-310.5 630.523,-280.5 491.523,-280.5"/>
<text text-anchor="start" x="499.523" y="-298.5" font-family="Helvetica,sans-Serif" font-size="10.00">pfasst/encap/encapsulation</text>
<text text-anchor="middle" x="561.023" y="-287.5" font-family="Helvetica,sans-Serif" font-size="10.00">_impl.hpp</text>
</a>
</g>
</g>
<!-- Node1&#45;&gt;Node23 -->
<g id="edge31" class="edge"><title>Node1&#45;&gt;Node23</title>
<path fill="none" stroke="midnightblue" d="M555.344,-347.396C554.317,-339.56 554.028,-329.596 554.479,-320.565"/>
<polygon fill="midnightblue" stroke="midnightblue" points="557.968,-320.842 555.348,-310.577 550.994,-320.236 557.968,-320.842"/>
</g>
<!-- Node5&#45;&gt;Node2 -->
<g id="edge5" class="edge"><title>Node5&#45;&gt;Node2</title>
<path fill="none" stroke="midnightblue" d="M406.883,-285.934C391.804,-276.039 366.402,-259.17 345.023,-244 321.454,-227.276 294.919,-207.276 277.419,-193.919"/>
<polygon fill="midnightblue" stroke="midnightblue" points="279.223,-190.892 269.155,-187.592 274.968,-196.45 279.223,-190.892"/>
</g>
<!-- Node6 -->
<g id="node6" class="node"><title>Node6</title>
<polygon fill="white" stroke="#bfbfbf" points="504.023,-224.5 504.023,-243.5 564.023,-243.5 564.023,-224.5 504.023,-224.5"/>
<text text-anchor="middle" x="534.023" y="-231.5" font-family="Helvetica,sans-Serif" font-size="10.00">stdexcept</text>
</g>
<!-- Node5&#45;&gt;Node6 -->
<g id="edge6" class="edge"><title>Node5&#45;&gt;Node6</title>
<path fill="none" stroke="midnightblue" d="M436.356,-285.975C455.234,-276.122 486.529,-259.788 508.598,-248.27"/>
<polygon fill="midnightblue" stroke="midnightblue" points="510.474,-251.239 517.72,-243.509 507.235,-245.033 510.474,-251.239"/>
</g>
<!-- Node7 -->
<g id="node7" class="node"><title>Node7</title>
<polygon fill="white" stroke="#bfbfbf" points="549.523,-56.5 549.523,-75.5 590.523,-75.5 590.523,-56.5 549.523,-56.5"/>
<text text-anchor="middle" x="570.023" y="-63.5" font-family="Helvetica,sans-Serif" font-size="10.00">string</text>
</g>
<!-- Node5&#45;&gt;Node7 -->
<g id="edge7" class="edge"><title>Node5&#45;&gt;Node7</title>
<path fill="none" stroke="midnightblue" d="M451.312,-285.962C489.721,-275.174 552.311,-256.509 573.023,-244 603.695,-225.475 617.021,-220.983 631.023,-188 647.542,-149.089 610.818,-105.189 587.456,-82.4732"/>
<polygon fill="midnightblue" stroke="midnightblue" points="589.832,-79.9031 580.142,-75.6197 585.046,-85.0112 589.832,-79.9031"/>
</g>
<!-- Node8 -->
<g id="node8" class="node"><title>Node8</title>
<g id="a_node8"><a xlink:href="../../d8/dc4/interfaces__impl_8hpp.html" target="_top" xlink:title="pfasst/interfaces_impl.hpp">
<polygon fill="white" stroke="black" points="354.523,-224.5 354.523,-243.5 485.523,-243.5 485.523,-224.5 354.523,-224.5"/>
<text text-anchor="middle" x="420.023" y="-231.5" font-family="Helvetica,sans-Serif" font-size="10.00">pfasst/interfaces_impl.hpp</text>
</a>
</g>
</g>
<!-- Node5&#45;&gt;Node8 -->
<g id="edge8" class="edge"><title>Node5&#45;&gt;Node8</title>
<path fill="none" stroke="midnightblue" d="M415.122,-285.975C413.291,-277.58 412.82,-264.481 413.708,-253.663"/>
<polygon fill="midnightblue" stroke="midnightblue" points="417.209,-253.897 415.126,-243.509 410.276,-252.929 417.209,-253.897"/>
</g>
<!-- Node8&#45;&gt;Node2 -->
<g id="edge11" class="edge"><title>Node8&#45;&gt;Node2</title>
<path fill="none" stroke="midnightblue" d="M394.353,-224.444C367.1,-215.359 323.839,-200.939 293.372,-190.783"/>
<polygon fill="midnightblue" stroke="midnightblue" points="294.166,-187.358 283.572,-187.516 291.952,-193.999 294.166,-187.358"/>
</g>
<!-- Node8&#45;&gt;Node5 -->
<g id="edge9" class="edge"><title>Node8&#45;&gt;Node5</title>
<path fill="none" stroke="midnightblue" d="M424.92,-243.509C426.753,-251.898 427.226,-264.996 426.339,-275.817"/>
<polygon fill="midnightblue" stroke="midnightblue" points="422.838,-275.588 424.923,-285.975 429.77,-276.554 422.838,-275.588"/>
</g>
<!-- Node8&#45;&gt;Node7 -->
<g id="edge12" class="edge"><title>Node8&#45;&gt;Node7</title>
<path fill="none" stroke="midnightblue" d="M433.255,-224.232C445.556,-215.747 464.033,-202.127 478.023,-188 511.3,-154.396 543.072,-108.543 559.138,-84.059"/>
<polygon fill="midnightblue" stroke="midnightblue" points="562.172,-85.8125 564.673,-75.5169 556.298,-82.0061 562.172,-85.8125"/>
</g>
<!-- Node9 -->
<g id="node9" class="node"><title>Node9</title>
<polygon fill="white" stroke="#bfbfbf" points="303.023,-168.5 303.023,-187.5 353.023,-187.5 353.023,-168.5 303.023,-168.5"/>
<text text-anchor="middle" x="328.023" y="-175.5" font-family="Helvetica,sans-Serif" font-size="10.00">cassert</text>
</g>
<!-- Node8&#45;&gt;Node9 -->
<g id="edge10" class="edge"><title>Node8&#45;&gt;Node9</title>
<path fill="none" stroke="midnightblue" d="M405.241,-224.324C390.756,-215.822 368.45,-202.729 351.53,-192.797"/>
<polygon fill="midnightblue" stroke="midnightblue" points="353.163,-189.698 342.768,-187.655 349.62,-195.735 353.163,-189.698"/>
</g>
<!-- Node10 -->
<g id="node10" class="node"><title>Node10</title>
<g id="a_node10"><a xlink:href="../../d5/d82/globals_8hpp.html" target="_top" xlink:title="pfasst/globals.hpp">
<polygon fill="white" stroke="black" points="525.523,-168.5 525.523,-187.5 622.523,-187.5 622.523,-168.5 525.523,-168.5"/>
<text text-anchor="middle" x="574.023" y="-175.5" font-family="Helvetica,sans-Serif" font-size="10.00">pfasst/globals.hpp</text>
</a>
</g>
</g>
<!-- Node8&#45;&gt;Node10 -->
<g id="edge13" class="edge"><title>Node8&#45;&gt;Node10</title>
<path fill="none" stroke="midnightblue" d="M444.425,-224.444C470.219,-215.399 511.099,-201.064 540.041,-190.916"/>
<polygon fill="midnightblue" stroke="midnightblue" points="541.457,-194.128 549.735,-187.516 539.14,-187.523 541.457,-194.128"/>
</g>
<!-- Node11 -->
<g id="node11" class="node"><title>Node11</title>
<g id="a_node11"><a xlink:href="../../d0/da9/logging_8hpp.html" target="_top" xlink:title="pfasst/logging.hpp">
<polygon fill="white" stroke="black" points="371.023,-168.5 371.023,-187.5 469.023,-187.5 469.023,-168.5 371.023,-168.5"/>
<text text-anchor="middle" x="420.023" y="-175.5" font-family="Helvetica,sans-Serif" font-size="10.00">pfasst/logging.hpp</text>
</a>
</g>
</g>
<!-- Node8&#45;&gt;Node11 -->
<g id="edge14" class="edge"><title>Node8&#45;&gt;Node11</title>
<path fill="none" stroke="midnightblue" d="M420.023,-224.083C420.023,-217.006 420.023,-206.861 420.023,-197.986"/>
<polygon fill="midnightblue" stroke="midnightblue" points="423.523,-197.751 420.023,-187.751 416.523,-197.751 423.523,-197.751"/>
</g>
<!-- Node11&#45;&gt;Node7 -->
<g id="edge17" class="edge"><title>Node11&#45;&gt;Node7</title>
<path fill="none" stroke="midnightblue" d="M431.793,-168.368C457.424,-149.573 518.52,-104.768 550.205,-81.5334"/>
<polygon fill="midnightblue" stroke="midnightblue" points="552.313,-84.3275 558.307,-75.5914 548.173,-78.6827 552.313,-84.3275"/>
</g>
<!-- Node12 -->
<g id="node12" class="node"><title>Node12</title>
<polygon fill="white" stroke="#bfbfbf" points="14.0228,-112.5 14.0228,-131.5 66.0228,-131.5 66.0228,-112.5 14.0228,-112.5"/>
<text text-anchor="middle" x="40.0228" y="-119.5" font-family="Helvetica,sans-Serif" font-size="10.00">iomanip</text>
</g>
<!-- Node11&#45;&gt;Node12 -->
<g id="edge15" class="edge"><title>Node11&#45;&gt;Node12</title>
<path fill="none" stroke="midnightblue" d="M370.99,-169.289C367.957,-168.843 364.949,-168.411 362.023,-168 237.947,-150.595 203.064,-155.771 76.4048,-132.056"/>
<polygon fill="midnightblue" stroke="midnightblue" points="76.7925,-128.567 66.3155,-130.142 75.4882,-135.444 76.7925,-128.567"/>
</g>
<!-- Node13 -->
<g id="node13" class="node"><title>Node13</title>
<polygon fill="white" stroke="#bfbfbf" points="26.0228,-56.5 26.0228,-75.5 82.0228,-75.5 82.0228,-56.5 26.0228,-56.5"/>
<text text-anchor="middle" x="54.0228" y="-63.5" font-family="Helvetica,sans-Serif" font-size="10.00">iostream</text>
</g>
<!-- Node11&#45;&gt;Node13 -->
<g id="edge16" class="edge"><title>Node11&#45;&gt;Node13</title>
<path fill="none" stroke="midnightblue" d="M371.001,-169.205C367.965,-168.78 364.954,-168.375 362.023,-168 322.477,-162.942 31.7621,-161.571 5.02284,-132 -9.85436,-115.547 11.9321,-94.8345 31.0159,-81.2707"/>
<polygon fill="midnightblue" stroke="midnightblue" points="33.1175,-84.075 39.4526,-75.5827 29.2044,-78.2709 33.1175,-84.075"/>
</g>
<!-- Node14 -->
<g id="node14" class="node"><title>Node14</title>
<polygon fill="white" stroke="#bfbfbf" points="84.5228,-112.5 84.5228,-131.5 215.523,-131.5 215.523,-112.5 84.5228,-112.5"/>
<text text-anchor="middle" x="150.023" y="-119.5" font-family="Helvetica,sans-Serif" font-size="10.00">boost/algorithm/string.hpp</text>
</g>
<!-- Node11&#45;&gt;Node14 -->
<g id="edge18" class="edge"><title>Node11&#45;&gt;Node14</title>
<path fill="none" stroke="midnightblue" d="M377.241,-168.444C329.843,-158.964 253.396,-143.675 202.44,-133.483"/>
<polygon fill="midnightblue" stroke="midnightblue" points="203.097,-130.046 192.605,-131.516 201.724,-136.91 203.097,-130.046"/>
</g>
<!-- Node15 -->
<g id="node15" class="node"><title>Node15</title>
<g id="a_node15"><a xlink:href="../../d8/dfd/config_8hpp.html" target="_top" xlink:title="pfasst/config.hpp">
<polygon fill="white" stroke="black" points="374.523,-112.5 374.523,-131.5 465.523,-131.5 465.523,-112.5 374.523,-112.5"/>
<text text-anchor="middle" x="420.023" y="-119.5" font-family="Helvetica,sans-Serif" font-size="10.00">pfasst/config.hpp</text>
</a>
</g>
</g>
<!-- Node11&#45;&gt;Node15 -->
<g id="edge19" class="edge"><title>Node11&#45;&gt;Node15</title>
<path fill="none" stroke="midnightblue" d="M420.023,-168.083C420.023,-161.006 420.023,-150.861 420.023,-141.986"/>
<polygon fill="midnightblue" stroke="midnightblue" points="423.523,-141.751 420.023,-131.751 416.523,-141.751 423.523,-141.751"/>
</g>
<!-- Node22 -->
<g id="node22" class="node"><title>Node22</title>
<polygon fill="white" stroke="#bfbfbf" points="234.023,-112.5 234.023,-131.5 356.023,-131.5 356.023,-112.5 234.023,-112.5"/>
<text text-anchor="middle" x="295.023" y="-119.5" font-family="Helvetica,sans-Serif" font-size="10.00">pfasst/easylogging++.h</text>
</g>
<!-- Node11&#45;&gt;Node22 -->
<g id="edge30" class="edge"><title>Node11&#45;&gt;Node22</title>
<path fill="none" stroke="midnightblue" d="M400.216,-168.444C379.736,-159.596 347.54,-145.687 324.158,-135.586"/>
<polygon fill="midnightblue" stroke="midnightblue" points="325.305,-132.269 314.737,-131.516 322.529,-138.695 325.305,-132.269"/>
</g>
<!-- Node15&#45;&gt;Node7 -->
<g id="edge22" class="edge"><title>Node15&#45;&gt;Node7</title>
<path fill="none" stroke="midnightblue" d="M443.791,-112.444C469.689,-103.12 511.198,-88.1768 539.492,-77.9911"/>
<polygon fill="midnightblue" stroke="midnightblue" points="541.041,-81.1534 549.264,-74.473 538.67,-74.5672 541.041,-81.1534"/>
</g>
<!-- Node15&#45;&gt;Node13 -->
<g id="edge21" class="edge"><title>Node15&#45;&gt;Node13</title>
<path fill="none" stroke="midnightblue" d="M374.415,-113.47C371.237,-112.966 368.083,-112.472 365.023,-112 266.854,-96.8671 151.014,-80.4979 92.2934,-72.3052"/>
<polygon fill="midnightblue" stroke="midnightblue" points="92.7376,-68.8334 82.3503,-70.92 91.7717,-75.7664 92.7376,-68.8334"/>
</g>
<!-- Node16 -->
<g id="node16" class="node"><title>Node16</title>
<polygon fill="white" stroke="#bfbfbf" points="314.023,-0.5 314.023,-19.5 364.023,-19.5 364.023,-0.5 314.023,-0.5"/>
<text text-anchor="middle" x="339.023" y="-7.5" font-family="Helvetica,sans-Serif" font-size="10.00">fstream</text>
</g>
<!-- Node15&#45;&gt;Node16 -->
<g id="edge20" class="edge"><title>Node15&#45;&gt;Node16</title>
<path fill="none" stroke="midnightblue" d="M400.267,-112.474C385.309,-105.002 365.449,-92.7158 354.023,-76 344.73,-62.4052 341.133,-43.8601 339.771,-30.0576"/>
<polygon fill="midnightblue" stroke="midnightblue" points="343.244,-29.5327 339.077,-19.7917 336.26,-30.0051 343.244,-29.5327"/>
</g>
<!-- Node17 -->
<g id="node17" class="node"><title>Node17</title>
<polygon fill="white" stroke="#bfbfbf" points="495.023,-56.5 495.023,-75.5 531.023,-75.5 531.023,-56.5 495.023,-56.5"/>
<text text-anchor="middle" x="513.023" y="-63.5" font-family="Helvetica,sans-Serif" font-size="10.00">map</text>
</g>
<!-- Node15&#45;&gt;Node17 -->
<g id="edge23" class="edge"><title>Node15&#45;&gt;Node17</title>
<path fill="none" stroke="midnightblue" d="M434.965,-112.324C449.608,-103.822 472.156,-90.7288 489.261,-80.7975"/>
<polygon fill="midnightblue" stroke="midnightblue" points="491.227,-83.7027 498.118,-75.6545 487.712,-77.6491 491.227,-83.7027"/>
</g>
<!-- Node18 -->
<g id="node18" class="node"><title>Node18</title>
<polygon fill="white" stroke="#bfbfbf" points="169.523,-56.5 169.523,-75.5 306.523,-75.5 306.523,-56.5 169.523,-56.5"/>
<text text-anchor="middle" x="238.023" y="-63.5" font-family="Helvetica,sans-Serif" font-size="10.00">boost/program_options.hpp</text>
</g>
<!-- Node15&#45;&gt;Node18 -->
<g id="edge24" class="edge"><title>Node15&#45;&gt;Node18</title>
<path fill="none" stroke="midnightblue" d="M391.184,-112.444C360.167,-103.241 310.694,-88.5617 276.404,-78.3879"/>
<polygon fill="midnightblue" stroke="midnightblue" points="277.309,-75.0055 266.726,-75.5164 275.318,-81.7164 277.309,-75.0055"/>
</g>
<!-- Node19 -->
<g id="node19" class="node"><title>Node19</title>
<g id="a_node19"><a xlink:href="../../d5/d84/config__impl_8hpp.html" target="_top" xlink:title="pfasst/config_impl.hpp">
<polygon fill="white" stroke="black" points="363.023,-56.5 363.023,-75.5 477.023,-75.5 477.023,-56.5 363.023,-56.5"/>
<text text-anchor="middle" x="420.023" y="-63.5" font-family="Helvetica,sans-Serif" font-size="10.00">pfasst/config_impl.hpp</text>
</a>
</g>
</g>
<!-- Node15&#45;&gt;Node19 -->
<g id="edge25" class="edge"><title>Node15&#45;&gt;Node19</title>
<path fill="none" stroke="midnightblue" d="M414.857,-112.083C413.347,-104.927 412.917,-94.6353 413.565,-85.6911"/>
<polygon fill="midnightblue" stroke="midnightblue" points="417.038,-86.1262 414.892,-75.7511 410.1,-85.2002 417.038,-86.1262"/>
</g>
<!-- Node19&#45;&gt;Node15 -->
<g id="edge26" class="edge"><title>Node19&#45;&gt;Node15</title>
<path fill="none" stroke="midnightblue" d="M425.154,-75.7511C426.68,-82.8579 427.127,-93.1357 426.495,-102.101"/>
<polygon fill="midnightblue" stroke="midnightblue" points="423.016,-101.713 425.189,-112.083 429.957,-102.622 423.016,-101.713"/>
</g>
<!-- Node19&#45;&gt;Node16 -->
<g id="edge27" class="edge"><title>Node19&#45;&gt;Node16</title>
<path fill="none" stroke="midnightblue" d="M407.009,-56.324C394.491,-47.979 375.341,-35.2122 360.551,-25.3524"/>
<polygon fill="midnightblue" stroke="midnightblue" points="362.267,-22.2894 352.005,-19.6545 358.384,-28.1137 362.267,-22.2894"/>
</g>
<!-- Node20 -->
<g id="node20" class="node"><title>Node20</title>
<polygon fill="white" stroke="#bfbfbf" points="389.523,-0.5 389.523,-19.5 442.523,-19.5 442.523,-0.5 389.523,-0.5"/>
<text text-anchor="middle" x="416.023" y="-7.5" font-family="Helvetica,sans-Serif" font-size="10.00">sstream</text>
</g>
<!-- Node19&#45;&gt;Node20 -->
<g id="edge28" class="edge"><title>Node19&#45;&gt;Node20</title>
<path fill="none" stroke="midnightblue" d="M419.362,-56.083C418.838,-49.0059 418.087,-38.8611 417.429,-29.9865"/>
<polygon fill="midnightblue" stroke="midnightblue" points="420.9,-29.4652 416.671,-19.7511 413.919,-29.9823 420.9,-29.4652"/>
</g>
<!-- Node21 -->
<g id="node21" class="node"><title>Node21</title>
<polygon fill="white" stroke="#bfbfbf" points="461.023,-0.5 461.023,-19.5 499.023,-19.5 499.023,-0.5 461.023,-0.5"/>
<text text-anchor="middle" x="480.023" y="-7.5" font-family="Helvetica,sans-Serif" font-size="10.00">utility</text>
</g>
<!-- Node19&#45;&gt;Node21 -->
<g id="edge29" class="edge"><title>Node19&#45;&gt;Node21</title>
<path fill="none" stroke="midnightblue" d="M429.663,-56.324C438.532,-48.3414 451.898,-36.3128 462.631,-26.6529"/>
<polygon fill="midnightblue" stroke="midnightblue" points="465.116,-29.1251 470.207,-19.8339 460.433,-23.922 465.116,-29.1251"/>
</g>
<!-- Node23&#45;&gt;Node1 -->
<g id="edge32" class="edge"><title>Node23&#45;&gt;Node1</title>
<path fill="none" stroke="midnightblue" d="M566.698,-310.577C567.727,-318.408 568.017,-328.37 567.568,-337.403"/>
<polygon fill="midnightblue" stroke="midnightblue" points="564.079,-337.131 566.701,-347.396 571.053,-337.736 564.079,-337.131"/>
</g>
<!-- Node23&#45;&gt;Node10 -->
<g id="edge33" class="edge"><title>Node23&#45;&gt;Node10</title>
<path fill="none" stroke="midnightblue" d="M565.338,-280.068C568.114,-270.051 571.481,-256.34 573.023,-244 574.95,-228.582 575.093,-210.949 574.814,-197.942"/>
<polygon fill="midnightblue" stroke="midnightblue" points="578.311,-197.758 574.495,-187.874 571.314,-197.98 578.311,-197.758"/>
</g>
</g>
</svg>
        <g id="navigator" transform="translate(0 0)" fill="#404254">
                <rect fill="#f2f5e9" fill-opacity="0.5" stroke="#606060" stroke-width=".5" x="0" y="0" width="60" height="60"/>
                <use id="zoomplus" xlink:href="#zoomPlus" x="17" y="9" onmousedown="handleZoom(evt,'in')"/>
                <use id="zoomminus" xlink:href="#zoomMin" x="42" y="9" onmousedown="handleZoom(evt,'out')"/>
                <use id="reset" xlink:href="#resetDef" x="30" y="36" onmousedown="handleReset()"/>
                <g id="arrowUp" xlink:href="#dirArrow" transform="translate(30 24)" onmousedown="handlePan(0,-1)">
                  <use xlink:href="#rim" fill="#404040">
                        <set attributeName="fill" to="#808080" begin="arrowUp.mouseover" end="arrowUp.mouseout"/>
                  </use>
                  <path fill="none" stroke="white" stroke-width="1.5" d="M0,-3.0v7 M-2.5,-0.5L0,-3.0L2.5,-0.5"/>
                </g>
                <g id="arrowRight" xlink:href="#dirArrow" transform="rotate(90) translate(36 -43)" onmousedown="handlePan(1,0)">
                  <use xlink:href="#rim" fill="#404040">
                        <set attributeName="fill" to="#808080" begin="arrowRight.mouseover" end="arrowRight.mouseout"/>
                  </use>
                  <path fill="none" stroke="white" stroke-width="1.5" d="M0,-3.0v7 M-2.5,-0.5L0,-3.0L2.5,-0.5"/>
                </g>
                <g id="arrowDown" xlink:href="#dirArrow" transform="rotate(180) translate(-30 -48)" onmousedown="handlePan(0,1)">
                  <use xlink:href="#rim" fill="#404040">
                        <set attributeName="fill" to="#808080" begin="arrowDown.mouseover" end="arrowDown.mouseout"/>
                  </use>
                  <path fill="none" stroke="white" stroke-width="1.5" d="M0,-3.0v7 M-2.5,-0.5L0,-3.0L2.5,-0.5"/>
                </g>
                <g id="arrowLeft" xlink:href="#dirArrow" transform="rotate(270) translate(-36 17)" onmousedown="handlePan(-1,0)">
                  <use xlink:href="#rim" fill="#404040">
                        <set attributeName="fill" to="#808080" begin="arrowLeft.mouseover" end="arrowLeft.mouseout"/>
                  </use>
                  <path fill="none" stroke="white" stroke-width="1.5" d="M0,-3.0v7 M-2.5,-0.5L0,-3.0L2.5,-0.5"/>
                </g>
        </g>
        <svg viewBox="0 0 15 15" width="100%" height="30px" preserveAspectRatio="xMaxYMin meet">
         <g id="arrow_out" transform="scale(0.3 0.3)">
          <a xlink:href="encapsulation_8hpp__incl_org.svg" target="_base">
           <rect id="button" ry="5" rx="5" y="6" x="6" height="38" width="38"
                fill="#f2f5e9" fill-opacity="0.5" stroke="#606060" stroke-width="1.0"/>
           <path id="arrow"
             d="M 11.500037,31.436501 C 11.940474,20.09759 22.043105,11.32322 32.158766,21.979434 L 37.068811,17.246167 C 37.068811,17.246167 37.088388,32 37.088388,32 L 22.160133,31.978069 C 22.160133,31.978069 26.997745,27.140456 26.997745,27.140456 C 18.528582,18.264221 13.291696,25.230495 11.500037,31.436501 z"
             style="fill:#404040;"/>
          </a>
         </g>
        </svg>
</svg>
