<?xml version="1.0" encoding="UTF-8" standalone="no"?>
<!DOCTYPE svg PUBLIC "-//W3C//DTD SVG 1.1//EN"
 "http://www.w3.org/Graphics/SVG/1.1/DTD/svg11.dtd">
<!-- Generated by graphviz version 2.38.0 (20140413.2041)
 -->
<!-- Title: include/pfasst/controller/mlsdc.hpp Pages: 1 -->
<svg width="594pt" height="173pt"
 viewBox="0.00 0.00 594.00 173.00" xmlns="http://www.w3.org/2000/svg" xmlns:xlink="http://www.w3.org/1999/xlink">
<g id="graph0" class="graph" transform="scale(1 1) rotate(0) translate(4 169)">
<title>include/pfasst/controller/mlsdc.hpp</title>
<polygon fill="white" stroke="none" points="-4,4 -4,-169 590,-169 590,4 -4,4"/>
<!-- Node1 -->
<g id="node1" class="node"><title>Node1</title>
<polygon fill="#bfbfbf" stroke="black" points="189,-134.5 189,-164.5 311,-164.5 311,-134.5 189,-134.5"/>
<text text-anchor="start" x="197" y="-152.5" font-family="Helvetica,sans-Serif" font-size="10.00">include/pfasst/controller</text>
<text text-anchor="middle" x="250" y="-141.5" font-family="Helvetica,sans-Serif" font-size="10.00">/mlsdc.hpp</text>
</g>
<!-- Node2 -->
<g id="node2" class="node"><title>Node2</title>
<g id="a_node2"><a xlink:href="../../d1/d0d/pfasst_2controller_2pfasst_8hpp.html" target="_top" xlink:title="include/pfasst/controller\l/pfasst.hpp">
<polygon fill="white" stroke="black" points="58,-67.5 58,-97.5 180,-97.5 180,-67.5 58,-67.5"/>
<text text-anchor="start" x="66" y="-85.5" font-family="Helvetica,sans-Serif" font-size="10.00">include/pfasst/controller</text>
<text text-anchor="middle" x="119" y="-74.5" font-family="Helvetica,sans-Serif" font-size="10.00">/pfasst.hpp</text>
</a>
</g>
</g>
<!-- Node1&#45;&gt;Node2 -->
<g id="edge1" class="edge"><title>Node1&#45;&gt;Node2</title>
<path fill="none" stroke="midnightblue" d="M212.42,-129.853C191.707,-119.576 166.412,-107.025 147.37,-97.5765"/>
<polygon fill="midnightblue" stroke="midnightblue" points="211.061,-133.086 221.575,-134.396 214.173,-126.816 211.061,-133.086"/>
</g>
<!-- Node6 -->
<g id="node6" class="node"><title>Node6</title>
<g id="a_node6"><a xlink:href="../../d5/d0a/mlsdc__impl_8hpp.html" target="_top" xlink:title="src/pfasst/controller\l/mlsdc_impl.hpp">
<polygon fill="white" stroke="black" points="198,-67.5 198,-97.5 302,-97.5 302,-67.5 198,-67.5"/>
<text text-anchor="start" x="206" y="-85.5" font-family="Helvetica,sans-Serif" font-size="10.00">src/pfasst/controller</text>
<text text-anchor="middle" x="250" y="-74.5" font-family="Helvetica,sans-Serif" font-size="10.00">/mlsdc_impl.hpp</text>
</a>
</g>
</g>
<!-- Node1&#45;&gt;Node6 -->
<g id="edge6" class="edge"><title>Node1&#45;&gt;Node6</title>
<path fill="none" stroke="midnightblue" d="M243.455,-124.403C243.005,-115.37 243.296,-105.408 244.325,-97.5765"/>
<polygon fill="midnightblue" stroke="midnightblue" points="239.97,-124.736 244.322,-134.396 246.944,-124.131 239.97,-124.736"/>
</g>
<!-- Node7 -->
<g id="node7" class="node"><title>Node7</title>
<g id="a_node7"><a xlink:href="../../d9/d86/serial__mlsdc_8cpp.html" target="_top" xlink:title="Advection&#45;Diffusion with serial MLSDC. ">
<polygon fill="white" stroke="black" points="320.5,-67.5 320.5,-97.5 457.5,-97.5 457.5,-67.5 320.5,-67.5"/>
<text text-anchor="start" x="328.5" y="-85.5" font-family="Helvetica,sans-Serif" font-size="10.00">examples/advection</text>
<text text-anchor="middle" x="389" y="-74.5" font-family="Helvetica,sans-Serif" font-size="10.00">_diffusion/serial_mlsdc.cpp</text>
</a>
</g>
</g>
<!-- Node1&#45;&gt;Node7 -->
<g id="edge8" class="edge"><title>Node1&#45;&gt;Node7</title>
<path fill="none" stroke="midnightblue" d="M289.282,-130.131C311.369,-119.802 338.51,-107.11 358.898,-97.5765"/>
<polygon fill="midnightblue" stroke="midnightblue" points="287.737,-126.989 280.161,-134.396 290.702,-133.33 287.737,-126.989"/>
</g>
<!-- Node8 -->
<g id="node8" class="node"><title>Node8</title>
<g id="a_node8"><a xlink:href="../../d7/d31/boris__mlsdc_8cpp.html" target="_top" xlink:title="examples/boris/boris\l_mlsdc.cpp">
<polygon fill="white" stroke="black" points="476,-67.5 476,-97.5 586,-97.5 586,-67.5 476,-67.5"/>
<text text-anchor="start" x="484" y="-85.5" font-family="Helvetica,sans-Serif" font-size="10.00">examples/boris/boris</text>
<text text-anchor="middle" x="531" y="-74.5" font-family="Helvetica,sans-Serif" font-size="10.00">_mlsdc.cpp</text>
</a>
</g>
</g>
<!-- Node1&#45;&gt;Node8 -->
<g id="edge9" class="edge"><title>Node1&#45;&gt;Node8</title>
<path fill="none" stroke="midnightblue" d="M320.643,-132.159C368.679,-121.048 431.326,-106.556 475.724,-96.2861"/>
<polygon fill="midnightblue" stroke="midnightblue" points="319.581,-128.812 310.627,-134.476 321.158,-135.632 319.581,-128.812"/>
</g>
<!-- Node3 -->
<g id="node3" class="node"><title>Node3</title>
<g id="a_node3"><a xlink:href="../../de/d75/pfasst__impl_8hpp.html" target="_top" xlink:title="src/pfasst/controller\l/pfasst_impl.hpp">
<polygon fill="white" stroke="black" points="0,-0.5 0,-30.5 104,-30.5 104,-0.5 0,-0.5"/>
<text text-anchor="start" x="8" y="-18.5" font-family="Helvetica,sans-Serif" font-size="10.00">src/pfasst/controller</text>
<text text-anchor="middle" x="52" y="-7.5" font-family="Helvetica,sans-Serif" font-size="10.00">/pfasst_impl.hpp</text>
</a>
</g>
</g>
<!-- Node2&#45;&gt;Node3 -->
<g id="edge2" class="edge"><title>Node2&#45;&gt;Node3</title>
<path fill="none" stroke="midnightblue" d="M91.1021,-60.5978C80.2846,-50.7831 68.7196,-39.3442 60.8348,-30.5765"/>
<polygon fill="midnightblue" stroke="midnightblue" points="88.9755,-63.3895 98.7836,-67.396 93.6147,-58.1475 88.9755,-63.3895"/>
</g>
<!-- Node4 -->
<g id="node4" class="node"><title>Node4</title>
<g id="a_node4"><a xlink:href="../../d1/d49/mpi__pfasst_8cpp.html" target="_top" xlink:title="Advection&#45;Diffusion with MPI&#45;enabled PFASST. ">
<polygon fill="white" stroke="black" points="122.5,-0.5 122.5,-30.5 249.5,-30.5 249.5,-0.5 122.5,-0.5"/>
<text text-anchor="start" x="130.5" y="-18.5" font-family="Helvetica,sans-Serif" font-size="10.00">examples/advection</text>
<text text-anchor="middle" x="186" y="-7.5" font-family="Helvetica,sans-Serif" font-size="10.00">_diffusion/mpi_pfasst.cpp</text>
</a>
</g>
</g>
<!-- Node2&#45;&gt;Node4 -->
<g id="edge4" class="edge"><title>Node2&#45;&gt;Node4</title>
<path fill="none" stroke="midnightblue" d="M140.84,-60.3115C150.891,-50.5612 162.541,-39.259 171.49,-30.5765"/>
<polygon fill="midnightblue" stroke="midnightblue" points="138.278,-57.9207 133.538,-67.396 143.153,-62.9449 138.278,-57.9207"/>
</g>
<!-- Node5 -->
<g id="node5" class="node"><title>Node5</title>
<g id="a_node5"><a xlink:href="../../d2/d1e/boris__pfasst_8cpp.html" target="_top" xlink:title="examples/boris/boris\l_pfasst.cpp">
<polygon fill="white" stroke="black" points="268,-0.5 268,-30.5 378,-30.5 378,-0.5 268,-0.5"/>
<text text-anchor="start" x="276" y="-18.5" font-family="Helvetica,sans-Serif" font-size="10.00">examples/boris/boris</text>
<text text-anchor="middle" x="323" y="-7.5" font-family="Helvetica,sans-Serif" font-size="10.00">_pfasst.cpp</text>
</a>
</g>
</g>
<!-- Node2&#45;&gt;Node5 -->
<g id="edge5" class="edge"><title>Node2&#45;&gt;Node5</title>
<path fill="none" stroke="midnightblue" d="M172.955,-64.3084C205.957,-53.7932 247.655,-40.5068 278.713,-30.6109"/>
<polygon fill="midnightblue" stroke="midnightblue" points="171.479,-61.1052 163.014,-67.476 173.604,-67.7748 171.479,-61.1052"/>
</g>
<!-- Node3&#45;&gt;Node2 -->
<g id="edge3" class="edge"><title>Node3&#45;&gt;Node2</title>
<path fill="none" stroke="midnightblue" d="M79.8639,-37.3714C90.6799,-47.1827 102.248,-58.6227 110.14,-67.396"/>
<polygon fill="midnightblue" stroke="midnightblue" points="81.993,-34.5819 72.1844,-30.5765 77.3544,-39.8243 81.993,-34.5819"/>
</g>
<!-- Node6&#45;&gt;Node1 -->
<g id="edge7" class="edge"><title>Node6&#45;&gt;Node1</title>
<path fill="none" stroke="midnightblue" d="M256.544,-107.565C256.995,-116.596 256.706,-126.56 255.678,-134.396"/>
<polygon fill="midnightblue" stroke="midnightblue" points="260.028,-107.236 255.675,-97.5765 253.055,-107.842 260.028,-107.236"/>
</g>
</g>
</svg>
