<?xml version="1.0" encoding="UTF-8" standalone="no"?>
<!DOCTYPE svg PUBLIC "-//W3C//DTD SVG 1.1//EN"
 "http://www.w3.org/Graphics/SVG/1.1/DTD/svg11.dtd">
<!-- Generated by graphviz version 2.38.0 (20140413.2041)
 -->
<!-- Title: pfasst::examples::boris::bindings::WrapperInterface&lt; scalar, time &gt; Pages: 1 -->
<svg width="155pt" height="358pt"
 viewBox="0.00 0.00 155.00 358.00" xmlns="http://www.w3.org/2000/svg" xmlns:xlink="http://www.w3.org/1999/xlink">
<g id="graph0" class="graph" transform="scale(1 1) rotate(0) translate(4 354)">
<title>pfasst::examples::boris::bindings::WrapperInterface&lt; scalar, time &gt;</title>
<polygon fill="white" stroke="none" points="-4,4 -4,-354 151,-354 151,4 -4,4"/>
<!-- Node1 -->
<g id="node1" class="node"><title>Node1</title>
<polygon fill="#bfbfbf" stroke="black" points="0,-0.5 0,-255.5 147,-255.5 147,-0.5 0,-0.5"/>
<text text-anchor="start" x="8" y="-243.5" font-family="Helvetica,sans-Serif" font-size="10.00">pfasst::examples::boris</text>
<text text-anchor="start" x="8" y="-232.5" font-family="Helvetica,sans-Serif" font-size="10.00">::bindings::WrapperInterface</text>
<text text-anchor="middle" x="73.5" y="-221.5" font-family="Helvetica,sans-Serif" font-size="10.00">&lt; scalar, time &gt;</text>
<polyline fill="none" stroke="black" points="0,-214.5 147,-214.5 "/>
<text text-anchor="middle" x="73.5" y="-202.5" font-family="Helvetica,sans-Serif" font-size="10.00"> </text>
<polyline fill="none" stroke="black" points="0,-195.5 147,-195.5 "/>
<text text-anchor="start" x="8" y="-183.5" font-family="Helvetica,sans-Serif" font-size="10.00">+ ~WrapperInterface()</text>
<text text-anchor="start" x="8" y="-172.5" font-family="Helvetica,sans-Serif" font-size="10.00">+ external_e_field_evaluate()</text>
<text text-anchor="start" x="8" y="-161.5" font-family="Helvetica,sans-Serif" font-size="10.00">+ e_field_evaluate()</text>
<text text-anchor="start" x="8" y="-150.5" font-family="Helvetica,sans-Serif" font-size="10.00">+ b_field_evaluate()</text>
<text text-anchor="start" x="8" y="-139.5" font-family="Helvetica,sans-Serif" font-size="10.00">+ force_evaluate()</text>
<text text-anchor="start" x="8" y="-128.5" font-family="Helvetica,sans-Serif" font-size="10.00">+ get_b_field_vector()</text>
<text text-anchor="start" x="8" y="-117.5" font-family="Helvetica,sans-Serif" font-size="10.00">+ b_field_vecs()</text>
<text text-anchor="start" x="8" y="-106.5" font-family="Helvetica,sans-Serif" font-size="10.00">+ energy()</text>
<text text-anchor="start" x="8" y="-95.5" font-family="Helvetica,sans-Serif" font-size="10.00">+ omega_b()</text>
<text text-anchor="start" x="8" y="-84.5" font-family="Helvetica,sans-Serif" font-size="10.00">+ omega_e()</text>
<text text-anchor="start" x="8" y="-73.5" font-family="Helvetica,sans-Serif" font-size="10.00">+ epsilon()</text>
<text text-anchor="start" x="8" y="-62.5" font-family="Helvetica,sans-Serif" font-size="10.00">+ log()</text>
<text text-anchor="start" x="8" y="-51.5" font-family="Helvetica,sans-Serif" font-size="10.00"># pack_positions()</text>
<text text-anchor="start" x="8" y="-40.5" font-family="Helvetica,sans-Serif" font-size="10.00"># pack_velocities()</text>
<text text-anchor="start" x="8" y="-29.5" font-family="Helvetica,sans-Serif" font-size="10.00"># pack_charges()</text>
<text text-anchor="start" x="8" y="-18.5" font-family="Helvetica,sans-Serif" font-size="10.00"># pack_masses()</text>
<text text-anchor="start" x="8" y="-7.5" font-family="Helvetica,sans-Serif" font-size="10.00"># pack_all()</text>
</g>
<!-- Node2 -->
<g id="node2" class="node"><title>Node2</title>
<polygon fill="white" stroke="#bfbfbf" points="44,-292.5 44,-349.5 103,-349.5 103,-292.5 44,-292.5"/>
<text text-anchor="middle" x="73.5" y="-337.5" font-family="Helvetica,sans-Serif" font-size="10.00">Loggable</text>
<polyline fill="none" stroke="#bfbfbf" points="44,-330.5 103,-330.5 "/>
<text text-anchor="middle" x="73.5" y="-318.5" font-family="Helvetica,sans-Serif" font-size="10.00"> </text>
<polyline fill="none" stroke="#bfbfbf" points="44,-311.5 103,-311.5 "/>
<text text-anchor="middle" x="73.5" y="-299.5" font-family="Helvetica,sans-Serif" font-size="10.00"> </text>
</g>
<!-- Node2&#45;&gt;Node1 -->
<g id="edge1" class="edge"><title>Node2&#45;&gt;Node1</title>
<path fill="none" stroke="midnightblue" d="M73.5,-282.196C73.5,-274.157 73.5,-265.246 73.5,-255.881"/>
<polygon fill="none" stroke="midnightblue" points="70.0001,-282.227 73.5,-292.227 77.0001,-282.227 70.0001,-282.227"/>
</g>
</g>
</svg>
