<?xml version="1.0" encoding="UTF-8" standalone="no"?>
<!DOCTYPE svg PUBLIC "-//W3C//DTD SVG 1.1//EN"
 "http://www.w3.org/Graphics/SVG/1.1/DTD/svg11.dtd">
<!-- Generated by graphviz version 2.38.0 (20140413.2041)
 -->
<!-- Title: pfasst::config::print_help Pages: 1 -->
<svg width="442pt" height="39pt"
 viewBox="0.00 0.00 442.00 39.00" xmlns="http://www.w3.org/2000/svg" xmlns:xlink="http://www.w3.org/1999/xlink">
<g id="graph0" class="graph" transform="scale(1 1) rotate(0) translate(4 35)">
<title>pfasst::config::print_help</title>
<polygon fill="white" stroke="none" points="-4,4 -4,-35 438,-35 438,4 -4,4"/>
<!-- Node1 -->
<g id="node1" class="node"><title>Node1</title>
<polygon fill="#bfbfbf" stroke="black" points="0,-6 0,-25 124,-25 124,-6 0,-6"/>
<text text-anchor="middle" x="62" y="-13" font-family="Helvetica,sans-Serif" font-size="10.00">pfasst::config::print_help</text>
</g>
<!-- Node2 -->
<g id="node2" class="node"><title>Node2</title>
<g id="a_node2"><a xlink:href="../../d3/d91/namespacepfasst_1_1config.html#a5eaff8155eff1d5f8fe5cf2034b12422" target="_top" xlink:title="Read and parse command line parameters. ">
<polygon fill="white" stroke="black" points="160,-0.5 160,-30.5 263,-30.5 263,-0.5 160,-0.5"/>
<text text-anchor="start" x="168" y="-18.5" font-family="Helvetica,sans-Serif" font-size="10.00">pfasst::config::read</text>
<text text-anchor="middle" x="211.5" y="-7.5" font-family="Helvetica,sans-Serif" font-size="10.00">_commandline</text>
</a>
</g>
</g>
<!-- Node1&#45;&gt;Node2 -->
<g id="edge1" class="edge"><title>Node1&#45;&gt;Node2</title>
<path fill="none" stroke="midnightblue" d="M134.366,-15.5C143.007,-15.5 151.691,-15.5 159.944,-15.5"/>
<polygon fill="midnightblue" stroke="midnightblue" points="134.272,-12.0001 124.272,-15.5 134.272,-19.0001 134.272,-12.0001"/>
</g>
<!-- Node3 -->
<g id="node3" class="node"><title>Node3</title>
<g id="a_node3"><a xlink:href="../../dc/d57/namespacepfasst.html#a2ad4b6987b5c66b90166f77fc4230e92" target="_top" xlink:title="pfasst::init">
<polygon fill="white" stroke="black" points="299,-6 299,-25 360,-25 360,-6 299,-6"/>
<text text-anchor="middle" x="329.5" y="-13" font-family="Helvetica,sans-Serif" font-size="10.00">pfasst::init</text>
</a>
</g>
</g>
<!-- Node2&#45;&gt;Node3 -->
<g id="edge2" class="edge"><title>Node2&#45;&gt;Node3</title>
<path fill="none" stroke="midnightblue" d="M273.114,-15.5C282.044,-15.5 290.891,-15.5 298.806,-15.5"/>
<polygon fill="midnightblue" stroke="midnightblue" points="273.042,-12.0001 263.042,-15.5 273.042,-19.0001 273.042,-12.0001"/>
</g>
<!-- Node4 -->
<g id="node4" class="node"><title>Node4</title>
<g id="a_node4"><a xlink:href="../../d1/d49/mpi__pfasst_8cpp.html#a3c04138a5bfe5d72780bb7e82a18e627" target="_top" xlink:title="main">
<polygon fill="white" stroke="black" points="396,-6 396,-25 434,-25 434,-6 396,-6"/>
<text text-anchor="middle" x="415" y="-13" font-family="Helvetica,sans-Serif" font-size="10.00">main</text>
</a>
</g>
</g>
<!-- Node3&#45;&gt;Node4 -->
<g id="edge3" class="edge"><title>Node3&#45;&gt;Node4</title>
<path fill="none" stroke="midnightblue" d="M370.381,-15.5C379.201,-15.5 388.131,-15.5 395.595,-15.5"/>
<polygon fill="midnightblue" stroke="midnightblue" points="370.174,-12.0001 360.174,-15.5 370.174,-19.0001 370.174,-12.0001"/>
</g>
</g>
</svg>
