<?xml version="1.0" encoding="UTF-8" standalone="no"?>
<!DOCTYPE svg PUBLIC "-//W3C//DTD SVG 1.1//EN"
 "http://www.w3.org/Graphics/SVG/1.1/DTD/svg11.dtd">
<!-- Generated by graphviz version 2.38.0 (20140413.2041)
 -->
<!-- Title: pfasst::config::read_commandline Pages: 1 -->
<svg width="271pt" height="116pt"
 viewBox="0.00 0.00 271.00 115.50" xmlns="http://www.w3.org/2000/svg" xmlns:xlink="http://www.w3.org/1999/xlink">
<g id="graph0" class="graph" transform="scale(1 1) rotate(0) translate(4 111.5)">
<title>pfasst::config::read_commandline</title>
<polygon fill="white" stroke="none" points="-4,4 -4,-111.5 267,-111.5 267,4 -4,4"/>
<!-- Node1 -->
<g id="node1" class="node"><title>Node1</title>
<polygon fill="#bfbfbf" stroke="black" points="0,-44.5 0,-74.5 103,-74.5 103,-44.5 0,-44.5"/>
<text text-anchor="start" x="8" y="-62.5" font-family="Helvetica,sans-Serif" font-size="10.00">pfasst::config::read</text>
<text text-anchor="middle" x="51.5" y="-51.5" font-family="Helvetica,sans-Serif" font-size="10.00">_commandline</text>
</g>
<!-- Node2 -->
<g id="node2" class="node"><title>Node2</title>
<g id="a_node2"><a xlink:href="../../d3/d91/namespacepfasst_1_1config.html#a69bf5d072b24805ad0004d40bcd2744e" target="_top" xlink:title="Get MPI rank during initialization. ">
<polygon fill="white" stroke="black" points="140.5,-88 140.5,-107 261.5,-107 261.5,-88 140.5,-88"/>
<text text-anchor="middle" x="201" y="-95" font-family="Helvetica,sans-Serif" font-size="10.00">pfasst::config::get_rank</text>
</a>
</g>
</g>
<!-- Node1&#45;&gt;Node2 -->
<g id="edge1" class="edge"><title>Node1&#45;&gt;Node2</title>
<path fill="none" stroke="midnightblue" d="M103.261,-72.5774C119.394,-76.7337 137.157,-81.31 153.012,-85.3946"/>
<polygon fill="midnightblue" stroke="midnightblue" points="152.561,-88.8928 163.118,-87.9983 154.308,-82.1141 152.561,-88.8928"/>
</g>
<!-- Node3 -->
<g id="node3" class="node"><title>Node3</title>
<g id="a_node3"><a xlink:href="../../d3/d91/namespacepfasst_1_1config.html#ad40fd72bbe8905d32032195b313b7d06" target="_top" xlink:title="Compile basic help and usage information. ">
<polygon fill="white" stroke="black" points="139,-50 139,-69 263,-69 263,-50 139,-50"/>
<text text-anchor="middle" x="201" y="-57" font-family="Helvetica,sans-Serif" font-size="10.00">pfasst::config::print_help</text>
</a>
</g>
</g>
<!-- Node1&#45;&gt;Node3 -->
<g id="edge2" class="edge"><title>Node1&#45;&gt;Node3</title>
<path fill="none" stroke="midnightblue" d="M103.261,-59.5C111.527,-59.5 120.22,-59.5 128.866,-59.5"/>
<polygon fill="midnightblue" stroke="midnightblue" points="128.965,-63.0001 138.965,-59.5 128.965,-56.0001 128.965,-63.0001"/>
</g>
<!-- Node4 -->
<g id="node4" class="node"><title>Node4</title>
<g id="a_node4"><a xlink:href="../../d3/d91/namespacepfasst_1_1config.html#a717f3272ec67e59af97e711397beeb29" target="_top" xlink:title="Read config parameters from file. ">
<polygon fill="white" stroke="black" points="149.5,-0.5 149.5,-30.5 252.5,-30.5 252.5,-0.5 149.5,-0.5"/>
<text text-anchor="start" x="157.5" y="-18.5" font-family="Helvetica,sans-Serif" font-size="10.00">pfasst::config::read</text>
<text text-anchor="middle" x="201" y="-7.5" font-family="Helvetica,sans-Serif" font-size="10.00">_config_file</text>
</a>
</g>
</g>
<!-- Node1&#45;&gt;Node4 -->
<g id="edge3" class="edge"><title>Node1&#45;&gt;Node4</title>
<path fill="none" stroke="midnightblue" d="M102.849,-44.4808C114.768,-40.9252 127.597,-37.0982 139.901,-33.4279"/>
<polygon fill="midnightblue" stroke="midnightblue" points="141.046,-36.7388 149.628,-30.5262 139.045,-30.0309 141.046,-36.7388"/>
</g>
</g>
</svg>
