<?xml version="1.0" encoding="UTF-8" standalone="no"?>
<!DOCTYPE svg PUBLIC "-//W3C//DTD SVG 1.1//EN"
 "http://www.w3.org/Graphics/SVG/1.1/DTD/svg11.dtd">
<!-- Generated by graphviz version 2.38.0 (20140413.2041)
 -->
<!-- Title: pfasst::encap::as_encap_sweeper Pages: 1 -->
<svg width="298pt" height="235pt"
 viewBox="0.00 0.00 298.00 235.00" xmlns="http://www.w3.org/2000/svg" xmlns:xlink="http://www.w3.org/1999/xlink">
<g id="graph0" class="graph" transform="scale(1 1) rotate(0) translate(4 231)">
<title>pfasst::encap::as_encap_sweeper</title>
<polygon fill="white" stroke="none" points="-4,4 -4,-231 294,-231 294,4 -4,4"/>
<!-- Node1 -->
<g id="node1" class="node"><title>Node1</title>
<polygon fill="#bfbfbf" stroke="black" points="0,-98.5 0,-128.5 127,-128.5 127,-98.5 0,-98.5"/>
<text text-anchor="start" x="8" y="-116.5" font-family="Helvetica,sans-Serif" font-size="10.00">pfasst::encap::as_encap</text>
<text text-anchor="middle" x="63.5" y="-105.5" font-family="Helvetica,sans-Serif" font-size="10.00">_sweeper</text>
</g>
<!-- Node2 -->
<g id="node2" class="node"><title>Node2</title>
<g id="a_node2"><a xlink:href="../../d9/d19/classpfasst_1_1encap_1_1PolyInterpMixin.html#a2f217da40d0c142d83b447682120db11" target="_top" xlink:title="Compute FAS correction between the coarse and fine sweepers. ">
<polygon fill="white" stroke="black" points="163,-196.5 163,-226.5 290,-226.5 290,-196.5 163,-196.5"/>
<text text-anchor="start" x="171" y="-214.5" font-family="Helvetica,sans-Serif" font-size="10.00">pfasst::encap::PolyInterp</text>
<text text-anchor="middle" x="226.5" y="-203.5" font-family="Helvetica,sans-Serif" font-size="10.00">Mixin::fas</text>
</a>
</g>
</g>
<!-- Node1&#45;&gt;Node2 -->
<g id="edge1" class="edge"><title>Node1&#45;&gt;Node2</title>
<path fill="none" stroke="midnightblue" d="M89.2894,-135.202C108.447,-151.186 136.145,-172.638 163,-187.5 168.898,-190.764 175.332,-193.782 181.756,-196.496"/>
<polygon fill="midnightblue" stroke="midnightblue" points="91.5243,-132.508 81.6292,-128.721 87.0032,-137.852 91.5243,-132.508"/>
</g>
<!-- Node3 -->
<g id="node3" class="node"><title>Node3</title>
<g id="a_node3"><a xlink:href="../../d9/d19/classpfasst_1_1encap_1_1PolyInterpMixin.html#ac3c2173cd8e5fa04f9473df739b0fa23" target="_top" xlink:title="Interpolate, in time and space, from the coarse sweeper to the fine sweeper. ">
<polygon fill="white" stroke="black" points="163,-147.5 163,-177.5 290,-177.5 290,-147.5 163,-147.5"/>
<text text-anchor="start" x="171" y="-165.5" font-family="Helvetica,sans-Serif" font-size="10.00">pfasst::encap::PolyInterp</text>
<text text-anchor="middle" x="226.5" y="-154.5" font-family="Helvetica,sans-Serif" font-size="10.00">Mixin::interpolate</text>
</a>
</g>
</g>
<!-- Node1&#45;&gt;Node3 -->
<g id="edge2" class="edge"><title>Node1&#45;&gt;Node3</title>
<path fill="none" stroke="midnightblue" d="M124.014,-131.613C141.13,-136.822 159.607,-142.446 176.045,-147.448"/>
<polygon fill="midnightblue" stroke="midnightblue" points="124.705,-128.165 114.119,-128.601 122.667,-134.861 124.705,-128.165"/>
</g>
<!-- Node4 -->
<g id="node4" class="node"><title>Node4</title>
<g id="a_node4"><a xlink:href="../../d9/d19/classpfasst_1_1encap_1_1PolyInterpMixin.html#adc3889302ef0568b144c9fbbd9edc879" target="_top" xlink:title="Interpolate initial condition from the coarse sweeper to the fine sweeper. ">
<polygon fill="white" stroke="black" points="163,-98.5 163,-128.5 290,-128.5 290,-98.5 163,-98.5"/>
<text text-anchor="start" x="171" y="-116.5" font-family="Helvetica,sans-Serif" font-size="10.00">pfasst::encap::PolyInterp</text>
<text text-anchor="middle" x="226.5" y="-105.5" font-family="Helvetica,sans-Serif" font-size="10.00">Mixin::interpolate_initial</text>
</a>
</g>
</g>
<!-- Node1&#45;&gt;Node4 -->
<g id="edge3" class="edge"><title>Node1&#45;&gt;Node4</title>
<path fill="none" stroke="midnightblue" d="M137.218,-113.5C145.813,-113.5 154.527,-113.5 162.963,-113.5"/>
<polygon fill="midnightblue" stroke="midnightblue" points="137.208,-110 127.208,-113.5 137.208,-117 137.208,-110"/>
</g>
<!-- Node5 -->
<g id="node5" class="node"><title>Node5</title>
<g id="a_node5"><a xlink:href="../../d9/d19/classpfasst_1_1encap_1_1PolyInterpMixin.html#ad0f3baf3865750f89b42fc39c4d225ce" target="_top" xlink:title="Restrict, in time and space, from the fine sweeper to the coarse sweeper. ">
<polygon fill="white" stroke="black" points="163,-49.5 163,-79.5 290,-79.5 290,-49.5 163,-49.5"/>
<text text-anchor="start" x="171" y="-67.5" font-family="Helvetica,sans-Serif" font-size="10.00">pfasst::encap::PolyInterp</text>
<text text-anchor="middle" x="226.5" y="-56.5" font-family="Helvetica,sans-Serif" font-size="10.00">Mixin::restrict</text>
</a>
</g>
</g>
<!-- Node1&#45;&gt;Node5 -->
<g id="edge4" class="edge"><title>Node1&#45;&gt;Node5</title>
<path fill="none" stroke="midnightblue" d="M124.014,-95.3871C141.13,-90.1778 159.607,-84.5543 176.045,-79.5516"/>
<polygon fill="midnightblue" stroke="midnightblue" points="122.667,-92.1385 114.119,-98.3986 124.705,-98.8352 122.667,-92.1385"/>
</g>
<!-- Node6 -->
<g id="node6" class="node"><title>Node6</title>
<g id="a_node6"><a xlink:href="../../d9/d19/classpfasst_1_1encap_1_1PolyInterpMixin.html#afbd002d7e146ea755b7b205d0fadbb3a" target="_top" xlink:title="Restrict initial condition from the fine sweeper to the coarse sweeper. ">
<polygon fill="white" stroke="black" points="163,-0.5 163,-30.5 290,-30.5 290,-0.5 163,-0.5"/>
<text text-anchor="start" x="171" y="-18.5" font-family="Helvetica,sans-Serif" font-size="10.00">pfasst::encap::PolyInterp</text>
<text text-anchor="middle" x="226.5" y="-7.5" font-family="Helvetica,sans-Serif" font-size="10.00">Mixin::restrict_initial</text>
</a>
</g>
</g>
<!-- Node1&#45;&gt;Node6 -->
<g id="edge5" class="edge"><title>Node1&#45;&gt;Node6</title>
<path fill="none" stroke="midnightblue" d="M90.0066,-91.7251C109.194,-76.0783 136.611,-55.2314 163,-40.5 169.429,-36.9113 176.478,-33.5748 183.454,-30.5838"/>
<polygon fill="midnightblue" stroke="midnightblue" points="87.5379,-89.2247 82.0593,-98.2931 91.9972,-94.6205 87.5379,-89.2247"/>
</g>
</g>
</svg>
