<?xml version="1.0" encoding="UTF-8" standalone="no"?>
<!DOCTYPE svg PUBLIC "-//W3C//DTD SVG 1.1//EN"
 "http://www.w3.org/Graphics/SVG/1.1/DTD/svg11.dtd">
<!-- Generated by graphviz version 2.38.0 (20140413.2041)
 -->
<!-- Title: pfasst::encap::augment Pages: 1 -->
<svg width="319pt" height="88pt"
 viewBox="0.00 0.00 319.00 88.00" xmlns="http://www.w3.org/2000/svg" xmlns:xlink="http://www.w3.org/1999/xlink">
<g id="graph0" class="graph" transform="scale(1 1) rotate(0) translate(4 84)">
<title>pfasst::encap::augment</title>
<polygon fill="white" stroke="none" points="-4,4 -4,-84 315,-84 315,4 -4,4"/>
<!-- Node1 -->
<g id="node1" class="node"><title>Node1</title>
<polygon fill="#bfbfbf" stroke="black" points="0,-30 0,-49 122,-49 122,-30 0,-30"/>
<text text-anchor="middle" x="61" y="-37" font-family="Helvetica,sans-Serif" font-size="10.00">pfasst::encap::augment</text>
</g>
<!-- Node2 -->
<g id="node2" class="node"><title>Node2</title>
<g id="a_node2"><a xlink:href="../../d7/def/classpfasst_1_1encap_1_1ImplicitSweeper.html#a05e461b0190842fd13264f826bfff560" target="_top" xlink:title="Compute low&#45;order provisional solution. ">
<polygon fill="white" stroke="black" points="158,-49.5 158,-79.5 311,-79.5 311,-49.5 158,-49.5"/>
<text text-anchor="start" x="166" y="-67.5" font-family="Helvetica,sans-Serif" font-size="10.00">pfasst::encap::ImplicitSweeper</text>
<text text-anchor="middle" x="234.5" y="-56.5" font-family="Helvetica,sans-Serif" font-size="10.00">::predict</text>
</a>
</g>
</g>
<!-- Node1&#45;&gt;Node2 -->
<g id="edge1" class="edge"><title>Node1&#45;&gt;Node2</title>
<path fill="none" stroke="midnightblue" d="M132.56,-49.7858C140.937,-51.0068 149.513,-52.2569 157.955,-53.4876"/>
<polygon fill="midnightblue" stroke="midnightblue" points="132.865,-46.2932 122.464,-48.3141 131.855,-53.22 132.865,-46.2932"/>
</g>
<!-- Node3 -->
<g id="node3" class="node"><title>Node3</title>
<g id="a_node3"><a xlink:href="../../d7/def/classpfasst_1_1encap_1_1ImplicitSweeper.html#aed9dcea78e47a23b473408af714be756" target="_top" xlink:title="Perform one SDC sweep/iteration. ">
<polygon fill="white" stroke="black" points="158,-0.5 158,-30.5 311,-30.5 311,-0.5 158,-0.5"/>
<text text-anchor="start" x="166" y="-18.5" font-family="Helvetica,sans-Serif" font-size="10.00">pfasst::encap::ImplicitSweeper</text>
<text text-anchor="middle" x="234.5" y="-7.5" font-family="Helvetica,sans-Serif" font-size="10.00">::sweep</text>
</a>
</g>
</g>
<!-- Node1&#45;&gt;Node3 -->
<g id="edge2" class="edge"><title>Node1&#45;&gt;Node3</title>
<path fill="none" stroke="midnightblue" d="M132.56,-29.6257C140.937,-28.4535 149.513,-27.2533 157.955,-26.0719"/>
<polygon fill="midnightblue" stroke="midnightblue" points="131.883,-26.1863 122.464,-31.0385 132.853,-33.1187 131.883,-26.1863"/>
</g>
</g>
</svg>
