<?xml version="1.0" encoding="UTF-8" standalone="no"?>
<!DOCTYPE svg PUBLIC "-//W3C//DTD SVG 1.1//EN"
 "http://www.w3.org/Graphics/SVG/1.1/DTD/svg11.dtd">
<!-- Generated by graphviz version 2.38.0 (20140413.2041)
 -->
<!-- Title: pfasst::examples::advection_diffusion::FFT::get_workspace Pages: 1 -->
<!--zoomable 230 -->
<svg id="main" version="1.1" xmlns="http://www.w3.org/2000/svg" xmlns:xlink="http://www.w3.org/1999/xlink" xml:space="preserve" onload="init(evt)">
<style type="text/css"><![CDATA[
.edge:hover path { stroke: red; }
.edge:hover polygon { stroke: red; fill: red; }
]]></style>
<script type="text/javascript"><![CDATA[
var edges = document.getElementsByTagName('g');
if (edges && edges.length) {
  for (var i=0;i<edges.length;i++) {
    if (edges[i].id.substr(0,4)=='edge') {
      edges[i].setAttribute('class','edge');
    }
  }
}
]]></script>
        <defs>
                <circle id="rim" cx="0" cy="0" r="7"/>
                <circle id="rim2" cx="0" cy="0" r="3.5"/>
                <g id="zoomPlus">
                        <use xlink:href="#rim" fill="#404040">
                                <set attributeName="fill" to="#808080" begin="zoomplus.mouseover" end="zoomplus.mouseout"/>
                        </use>
                        <path d="M-4,0h8M0,-4v8" fill="none" stroke="white" stroke-width="1.5" pointer-events="none"/>
                </g>
                <g id="zoomMin">
                        <use xlink:href="#rim" fill="#404040">
                                <set attributeName="fill" to="#808080" begin="zoomminus.mouseover" end="zoomminus.mouseout"/>
                        </use>
                        <path d="M-4,0h8" fill="none" stroke="white" stroke-width="1.5" pointer-events="none"/>
                </g>
                <g id="dirArrow">
                        <path fill="none" stroke="white" stroke-width="1.5" d="M0,-3.0v7 M-2.5,-0.5L0,-3.0L2.5,-0.5"/>
                </g>
               <g id="resetDef">
                       <use xlink:href="#rim2" fill="#404040">
                               <set attributeName="fill" to="#808080" begin="reset.mouseover" end="reset.mouseout"/>
                       </use>
               </g>
        </defs>

<script type="text/javascript">
var viewWidth = 570;
var viewHeight = 230;
var sectionId = 'dynsection-5';
</script>
<script xlink:href="../../svgpan.js"/>
<svg id="graph" class="graph">
<g id="viewport">
<title>pfasst::examples::advection_diffusion::FFT::get_workspace</title>
<polygon fill="white" stroke="none" points="-4,4 -4,-226 566,-226 566,4 -4,4"/>
<!-- Node1 -->
<g id="node1" class="node"><title>Node1</title>
<polygon fill="#bfbfbf" stroke="black" points="0,-66 0,-96 159,-96 159,-66 0,-66"/>
<text text-anchor="start" x="8" y="-84" font-family="Helvetica,sans-Serif" font-size="10.00">pfasst::examples::advection</text>
<text text-anchor="middle" x="79.5" y="-73" font-family="Helvetica,sans-Serif" font-size="10.00">_diffusion::FFT::get_workspace</text>
</g>
<!-- Node2 -->
<g id="node2" class="node"><title>Node2</title>
<g id="a_node2"><a xlink:href="../../d8/d6f/classpfasst_1_1examples_1_1advection__diffusion_1_1FFT.html#a71f4be58c1eb039a77bf6b8742e1ccdb" target="_top" xlink:title="pfasst::examples::advection\l_diffusion::FFT::backward">
<polygon fill="white" stroke="black" points="195,-66 195,-96 338,-96 338,-66 195,-66"/>
<text text-anchor="start" x="203" y="-84" font-family="Helvetica,sans-Serif" font-size="10.00">pfasst::examples::advection</text>
<text text-anchor="middle" x="266.5" y="-73" font-family="Helvetica,sans-Serif" font-size="10.00">_diffusion::FFT::backward</text>
</a>
</g>
</g>
<!-- Node1&#45;&gt;Node2 -->
<g id="edge1" class="edge"><title>Node1&#45;&gt;Node2</title>
<path fill="none" stroke="midnightblue" d="M169.237,-81C177.798,-81 186.402,-81 194.755,-81"/>
<polygon fill="midnightblue" stroke="midnightblue" points="169.225,-77.5001 159.225,-81 169.225,-84.5001 169.225,-77.5001"/>
</g>
<!-- Node6 -->
<g id="node6" class="node"><title>Node6</title>
<g id="a_node6"><a xlink:href="../../d1/d89/classpfasst_1_1examples_1_1advection__diffusion_1_1SpectralTransfer1D.html#a962a00b150b4ac9d74621e22c9ce8163" target="_top" xlink:title="pfasst::examples::advection\l_diffusion::SpectralTransfer1D\l::interpolate">
<polygon fill="white" stroke="black" points="392,-0.5 392,-41.5 544,-41.5 544,-0.5 392,-0.5"/>
<text text-anchor="start" x="400" y="-29.5" font-family="Helvetica,sans-Serif" font-size="10.00">pfasst::examples::advection</text>
<text text-anchor="start" x="400" y="-18.5" font-family="Helvetica,sans-Serif" font-size="10.00">_diffusion::SpectralTransfer1D</text>
<text text-anchor="middle" x="468" y="-7.5" font-family="Helvetica,sans-Serif" font-size="10.00">::interpolate</text>
</a>
</g>
</g>
<!-- Node1&#45;&gt;Node6 -->
<g id="edge11" class="edge"><title>Node1&#45;&gt;Node6</title>
<path fill="none" stroke="midnightblue" d="M154.63,-63.8298C168.027,-61.0079 181.9,-58.2686 195,-56 261.265,-44.5248 337.212,-35.0574 391.984,-28.8756"/>
<polygon fill="midnightblue" stroke="midnightblue" points="153.545,-60.4826 144.499,-65.9974 155.01,-67.3277 153.545,-60.4826"/>
</g>
<!-- Node7 -->
<g id="node7" class="node"><title>Node7</title>
<g id="a_node7"><a xlink:href="../../d8/d6f/classpfasst_1_1examples_1_1advection__diffusion_1_1FFT.html#aba363e7a311e50f83cc16083c5204453" target="_top" xlink:title="pfasst::examples::advection\l_diffusion::FFT::forward">
<polygon fill="white" stroke="black" points="195,-115 195,-145 338,-145 338,-115 195,-115"/>
<text text-anchor="start" x="203" y="-133" font-family="Helvetica,sans-Serif" font-size="10.00">pfasst::examples::advection</text>
<text text-anchor="middle" x="266.5" y="-122" font-family="Helvetica,sans-Serif" font-size="10.00">_diffusion::FFT::forward</text>
</a>
</g>
</g>
<!-- Node1&#45;&gt;Node7 -->
<g id="edge6" class="edge"><title>Node1&#45;&gt;Node7</title>
<path fill="none" stroke="midnightblue" d="M147.035,-98.6229C167.275,-103.984 189.32,-109.823 208.844,-114.994"/>
<polygon fill="midnightblue" stroke="midnightblue" points="147.826,-95.2117 137.263,-96.0346 146.034,-101.978 147.826,-95.2117"/>
</g>
<!-- Node3 -->
<g id="node3" class="node"><title>Node3</title>
<g id="a_node3"><a xlink:href="../../d2/dfe/classpfasst_1_1examples_1_1advection__diffusion_1_1AdvectionDiffusionSweeper.html#ae43c31298bcca2157d62ce5c7ec99d25" target="_top" xlink:title="Evaluate the explicit part of the ODE. ">
<polygon fill="white" stroke="black" points="374,-180.5 374,-221.5 562,-221.5 562,-180.5 374,-180.5"/>
<text text-anchor="start" x="382" y="-209.5" font-family="Helvetica,sans-Serif" font-size="10.00">pfasst::examples::advection</text>
<text text-anchor="start" x="382" y="-198.5" font-family="Helvetica,sans-Serif" font-size="10.00">_diffusion::AdvectionDiffusionSweeper</text>
<text text-anchor="middle" x="468" y="-187.5" font-family="Helvetica,sans-Serif" font-size="10.00">::f_expl_eval</text>
</a>
</g>
</g>
<!-- Node2&#45;&gt;Node3 -->
<g id="edge2" class="edge"><title>Node2&#45;&gt;Node3</title>
<path fill="none" stroke="midnightblue" d="M331.683,-101.258C333.89,-102.732 336.006,-104.311 338,-106 363.196,-127.347 348.5,-150.017 374,-171 378.323,-174.557 383.077,-177.696 388.079,-180.465"/>
<polygon fill="midnightblue" stroke="midnightblue" points="333.19,-98.0854 322.788,-96.073 329.665,-104.133 333.19,-98.0854"/>
</g>
<!-- Node4 -->
<g id="node4" class="node"><title>Node4</title>
<g id="a_node4"><a xlink:href="../../d2/dfe/classpfasst_1_1examples_1_1advection__diffusion_1_1AdvectionDiffusionSweeper.html#a4936c0d6e33c5d62dabb243568cbd240" target="_top" xlink:title="Evaluate the implicit part of the ODE. ">
<polygon fill="white" stroke="black" points="374,-120.5 374,-161.5 562,-161.5 562,-120.5 374,-120.5"/>
<text text-anchor="start" x="382" y="-149.5" font-family="Helvetica,sans-Serif" font-size="10.00">pfasst::examples::advection</text>
<text text-anchor="start" x="382" y="-138.5" font-family="Helvetica,sans-Serif" font-size="10.00">_diffusion::AdvectionDiffusionSweeper</text>
<text text-anchor="middle" x="468" y="-127.5" font-family="Helvetica,sans-Serif" font-size="10.00">::f_impl_eval</text>
</a>
</g>
</g>
<!-- Node2&#45;&gt;Node4 -->
<g id="edge3" class="edge"><title>Node2&#45;&gt;Node4</title>
<path fill="none" stroke="midnightblue" d="M327.343,-98.9978C349.845,-105.766 375.592,-113.509 398.8,-120.489"/>
<polygon fill="midnightblue" stroke="midnightblue" points="328.169,-95.5915 317.585,-96.0631 326.153,-102.295 328.169,-95.5915"/>
</g>
<!-- Node5 -->
<g id="node5" class="node"><title>Node5</title>
<g id="a_node5"><a xlink:href="../../d2/dfe/classpfasst_1_1examples_1_1advection__diffusion_1_1AdvectionDiffusionSweeper.html#aa3548a134f2b338c595ca52bed8e2db5" target="_top" xlink:title="Solve \( U &#45; \Delta t F_{\rm impl}(U) = RHS \) for \( U \). ">
<polygon fill="white" stroke="black" points="374,-60.5 374,-101.5 562,-101.5 562,-60.5 374,-60.5"/>
<text text-anchor="start" x="382" y="-89.5" font-family="Helvetica,sans-Serif" font-size="10.00">pfasst::examples::advection</text>
<text text-anchor="start" x="382" y="-78.5" font-family="Helvetica,sans-Serif" font-size="10.00">_diffusion::AdvectionDiffusionSweeper</text>
<text text-anchor="middle" x="468" y="-67.5" font-family="Helvetica,sans-Serif" font-size="10.00">::impl_solve</text>
</a>
</g>
</g>
<!-- Node2&#45;&gt;Node5 -->
<g id="edge4" class="edge"><title>Node2&#45;&gt;Node5</title>
<path fill="none" stroke="midnightblue" d="M348.255,-81C356.656,-81 365.244,-81 373.768,-81"/>
<polygon fill="midnightblue" stroke="midnightblue" points="348.117,-77.5001 338.117,-81 348.117,-84.5001 348.117,-77.5001"/>
</g>
<!-- Node2&#45;&gt;Node6 -->
<g id="edge5" class="edge"><title>Node2&#45;&gt;Node6</title>
<path fill="none" stroke="midnightblue" d="M327.343,-63.0022C349.845,-56.2345 375.592,-48.491 398.8,-41.5114"/>
<polygon fill="midnightblue" stroke="midnightblue" points="326.153,-59.7051 317.585,-65.9369 328.169,-66.4085 326.153,-59.7051"/>
</g>
<!-- Node7&#45;&gt;Node3 -->
<g id="edge7" class="edge"><title>Node7&#45;&gt;Node3</title>
<path fill="none" stroke="midnightblue" d="M314.612,-148.783C333.051,-155.964 354.434,-164.084 374,-171 382.957,-174.166 392.446,-177.383 401.805,-180.476"/>
<polygon fill="midnightblue" stroke="midnightblue" points="315.852,-145.509 305.264,-145.124 313.301,-152.028 315.852,-145.509"/>
</g>
<!-- Node7&#45;&gt;Node4 -->
<g id="edge8" class="edge"><title>Node7&#45;&gt;Node4</title>
<path fill="none" stroke="midnightblue" d="M348.255,-134.453C356.656,-134.916 365.244,-135.389 373.768,-135.859"/>
<polygon fill="midnightblue" stroke="midnightblue" points="348.295,-130.95 338.117,-133.894 347.909,-137.939 348.295,-130.95"/>
</g>
<!-- Node7&#45;&gt;Node5 -->
<g id="edge9" class="edge"><title>Node7&#45;&gt;Node5</title>
<path fill="none" stroke="midnightblue" d="M338.617,-112.533C353.152,-108.963 368.573,-105.175 383.496,-101.51"/>
<polygon fill="midnightblue" stroke="midnightblue" points="337.589,-109.181 328.712,-114.965 339.259,-115.979 337.589,-109.181"/>
</g>
<!-- Node7&#45;&gt;Node6 -->
<g id="edge10" class="edge"><title>Node7&#45;&gt;Node6</title>
<path fill="none" stroke="midnightblue" d="M330.709,-110.027C333.25,-108.469 335.695,-106.796 338,-105 360.755,-87.2744 350.992,-68.3969 374,-51 379.413,-46.9071 385.405,-43.3609 391.662,-40.2903"/>
<polygon fill="midnightblue" stroke="midnightblue" points="328.87,-107.043 321.755,-114.894 332.212,-113.193 328.87,-107.043"/>
</g>
</g>
</svg>
        <g id="navigator" transform="translate(0 0)" fill="#404254">
                <rect fill="#f2f5e9" fill-opacity="0.5" stroke="#606060" stroke-width=".5" x="0" y="0" width="60" height="60"/>
                <use id="zoomplus" xlink:href="#zoomPlus" x="17" y="9" onmousedown="handleZoom(evt,'in')"/>
                <use id="zoomminus" xlink:href="#zoomMin" x="42" y="9" onmousedown="handleZoom(evt,'out')"/>
                <use id="reset" xlink:href="#resetDef" x="30" y="36" onmousedown="handleReset()"/>
                <g id="arrowUp" xlink:href="#dirArrow" transform="translate(30 24)" onmousedown="handlePan(0,-1)">
                  <use xlink:href="#rim" fill="#404040">
                        <set attributeName="fill" to="#808080" begin="arrowUp.mouseover" end="arrowUp.mouseout"/>
                  </use>
                  <path fill="none" stroke="white" stroke-width="1.5" d="M0,-3.0v7 M-2.5,-0.5L0,-3.0L2.5,-0.5"/>
                </g>
                <g id="arrowRight" xlink:href="#dirArrow" transform="rotate(90) translate(36 -43)" onmousedown="handlePan(1,0)">
                  <use xlink:href="#rim" fill="#404040">
                        <set attributeName="fill" to="#808080" begin="arrowRight.mouseover" end="arrowRight.mouseout"/>
                  </use>
                  <path fill="none" stroke="white" stroke-width="1.5" d="M0,-3.0v7 M-2.5,-0.5L0,-3.0L2.5,-0.5"/>
                </g>
                <g id="arrowDown" xlink:href="#dirArrow" transform="rotate(180) translate(-30 -48)" onmousedown="handlePan(0,1)">
                  <use xlink:href="#rim" fill="#404040">
                        <set attributeName="fill" to="#808080" begin="arrowDown.mouseover" end="arrowDown.mouseout"/>
                  </use>
                  <path fill="none" stroke="white" stroke-width="1.5" d="M0,-3.0v7 M-2.5,-0.5L0,-3.0L2.5,-0.5"/>
                </g>
                <g id="arrowLeft" xlink:href="#dirArrow" transform="rotate(270) translate(-36 17)" onmousedown="handlePan(-1,0)">
                  <use xlink:href="#rim" fill="#404040">
                        <set attributeName="fill" to="#808080" begin="arrowLeft.mouseover" end="arrowLeft.mouseout"/>
                  </use>
                  <path fill="none" stroke="white" stroke-width="1.5" d="M0,-3.0v7 M-2.5,-0.5L0,-3.0L2.5,-0.5"/>
                </g>
        </g>
        <svg viewBox="0 0 15 15" width="100%" height="30px" preserveAspectRatio="xMaxYMin meet">
         <g id="arrow_out" transform="scale(0.3 0.3)">
          <a xlink:href="classpfasst_1_1examples_1_1advection__diffusion_1_1FFT_a7eff33c139c606f9c5fe65b7d94a03fa_icgraph_org.svg" target="_base">
           <rect id="button" ry="5" rx="5" y="6" x="6" height="38" width="38"
                fill="#f2f5e9" fill-opacity="0.5" stroke="#606060" stroke-width="1.0"/>
           <path id="arrow"
             d="M 11.500037,31.436501 C 11.940474,20.09759 22.043105,11.32322 32.158766,21.979434 L 37.068811,17.246167 C 37.068811,17.246167 37.088388,32 37.088388,32 L 22.160133,31.978069 C 22.160133,31.978069 26.997745,27.140456 26.997745,27.140456 C 18.528582,18.264221 13.291696,25.230495 11.500037,31.436501 z"
             style="fill:#404040;"/>
          </a>
         </g>
        </svg>
</svg>
