<?xml version="1.0" encoding="UTF-8" standalone="no"?>
<!DOCTYPE svg PUBLIC "-//W3C//DTD SVG 1.1//EN"
 "http://www.w3.org/Graphics/SVG/1.1/DTD/svg11.dtd">
<!-- Generated by graphviz version 2.38.0 (20140413.2041)
 -->
<!-- Title: pfasst::examples::advection_diffusion::FFT::backward Pages: 1 -->
<svg width="375pt" height="230pt"
 viewBox="0.00 0.00 375.00 230.00" xmlns="http://www.w3.org/2000/svg" xmlns:xlink="http://www.w3.org/1999/xlink">
<g id="graph0" class="graph" transform="scale(1 1) rotate(0) translate(4 226)">
<title>pfasst::examples::advection_diffusion::FFT::backward</title>
<polygon fill="white" stroke="none" points="-4,4 -4,-226 371,-226 371,4 -4,4"/>
<!-- Node1 -->
<g id="node1" class="node"><title>Node1</title>
<polygon fill="#bfbfbf" stroke="black" points="0,-96 0,-126 143,-126 143,-96 0,-96"/>
<text text-anchor="start" x="8" y="-114" font-family="Helvetica,sans-Serif" font-size="10.00">pfasst::examples::advection</text>
<text text-anchor="middle" x="71.5" y="-103" font-family="Helvetica,sans-Serif" font-size="10.00">_diffusion::FFT::backward</text>
</g>
<!-- Node2 -->
<g id="node2" class="node"><title>Node2</title>
<g id="a_node2"><a xlink:href="../../d2/dfe/classpfasst_1_1examples_1_1advection__diffusion_1_1AdvectionDiffusionSweeper.html#ae43c31298bcca2157d62ce5c7ec99d25" target="_top" xlink:title="Evaluate the explicit part of the ODE. ">
<polygon fill="white" stroke="black" points="179,-180.5 179,-221.5 367,-221.5 367,-180.5 179,-180.5"/>
<text text-anchor="start" x="187" y="-209.5" font-family="Helvetica,sans-Serif" font-size="10.00">pfasst::examples::advection</text>
<text text-anchor="start" x="187" y="-198.5" font-family="Helvetica,sans-Serif" font-size="10.00">_diffusion::AdvectionDiffusionSweeper</text>
<text text-anchor="middle" x="273" y="-187.5" font-family="Helvetica,sans-Serif" font-size="10.00">::f_expl_eval</text>
</a>
</g>
</g>
<!-- Node1&#45;&gt;Node2 -->
<g id="edge1" class="edge"><title>Node1&#45;&gt;Node2</title>
<path fill="none" stroke="midnightblue" d="M104.595,-131.327C125.292,-143.865 153.089,-159.66 179,-171 186.615,-174.333 194.723,-177.489 202.855,-180.414"/>
<polygon fill="midnightblue" stroke="midnightblue" points="106.257,-128.241 95.9022,-126 102.6,-134.21 106.257,-128.241"/>
</g>
<!-- Node3 -->
<g id="node3" class="node"><title>Node3</title>
<g id="a_node3"><a xlink:href="../../d2/dfe/classpfasst_1_1examples_1_1advection__diffusion_1_1AdvectionDiffusionSweeper.html#a4936c0d6e33c5d62dabb243568cbd240" target="_top" xlink:title="Evaluate the implicit part of the ODE. ">
<polygon fill="white" stroke="black" points="179,-120.5 179,-161.5 367,-161.5 367,-120.5 179,-120.5"/>
<text text-anchor="start" x="187" y="-149.5" font-family="Helvetica,sans-Serif" font-size="10.00">pfasst::examples::advection</text>
<text text-anchor="start" x="187" y="-138.5" font-family="Helvetica,sans-Serif" font-size="10.00">_diffusion::AdvectionDiffusionSweeper</text>
<text text-anchor="middle" x="273" y="-127.5" font-family="Helvetica,sans-Serif" font-size="10.00">::f_impl_eval</text>
</a>
</g>
</g>
<!-- Node1&#45;&gt;Node3 -->
<g id="edge2" class="edge"><title>Node1&#45;&gt;Node3</title>
<path fill="none" stroke="midnightblue" d="M153.255,-123.144C161.656,-124.407 170.244,-125.698 178.768,-126.98"/>
<polygon fill="midnightblue" stroke="midnightblue" points="153.526,-119.645 143.117,-121.619 152.485,-126.567 153.526,-119.645"/>
</g>
<!-- Node4 -->
<g id="node4" class="node"><title>Node4</title>
<g id="a_node4"><a xlink:href="../../d2/dfe/classpfasst_1_1examples_1_1advection__diffusion_1_1AdvectionDiffusionSweeper.html#aa3548a134f2b338c595ca52bed8e2db5" target="_top" xlink:title="Solve \( U &#45; \Delta t F_{\rm impl}(U) = RHS \) for \( U \). ">
<polygon fill="white" stroke="black" points="179,-60.5 179,-101.5 367,-101.5 367,-60.5 179,-60.5"/>
<text text-anchor="start" x="187" y="-89.5" font-family="Helvetica,sans-Serif" font-size="10.00">pfasst::examples::advection</text>
<text text-anchor="start" x="187" y="-78.5" font-family="Helvetica,sans-Serif" font-size="10.00">_diffusion::AdvectionDiffusionSweeper</text>
<text text-anchor="middle" x="273" y="-67.5" font-family="Helvetica,sans-Serif" font-size="10.00">::impl_solve</text>
</a>
</g>
</g>
<!-- Node1&#45;&gt;Node4 -->
<g id="edge3" class="edge"><title>Node1&#45;&gt;Node4</title>
<path fill="none" stroke="midnightblue" d="M153.255,-98.8564C161.656,-97.593 170.244,-96.3016 178.768,-95.0198"/>
<polygon fill="midnightblue" stroke="midnightblue" points="152.485,-95.4327 143.117,-100.381 153.526,-102.355 152.485,-95.4327"/>
</g>
<!-- Node5 -->
<g id="node5" class="node"><title>Node5</title>
<g id="a_node5"><a xlink:href="../../d1/d89/classpfasst_1_1examples_1_1advection__diffusion_1_1SpectralTransfer1D.html#a962a00b150b4ac9d74621e22c9ce8163" target="_top" xlink:title="pfasst::examples::advection\l_diffusion::SpectralTransfer1D\l::interpolate">
<polygon fill="white" stroke="black" points="197,-0.5 197,-41.5 349,-41.5 349,-0.5 197,-0.5"/>
<text text-anchor="start" x="205" y="-29.5" font-family="Helvetica,sans-Serif" font-size="10.00">pfasst::examples::advection</text>
<text text-anchor="start" x="205" y="-18.5" font-family="Helvetica,sans-Serif" font-size="10.00">_diffusion::SpectralTransfer1D</text>
<text text-anchor="middle" x="273" y="-7.5" font-family="Helvetica,sans-Serif" font-size="10.00">::interpolate</text>
</a>
</g>
</g>
<!-- Node1&#45;&gt;Node5 -->
<g id="edge4" class="edge"><title>Node1&#45;&gt;Node5</title>
<path fill="none" stroke="midnightblue" d="M104.595,-90.6727C125.292,-78.1352 153.089,-62.3404 179,-51 186.615,-47.667 194.723,-44.5108 202.855,-41.5858"/>
<polygon fill="midnightblue" stroke="midnightblue" points="102.6,-87.7903 95.9022,-95.9997 106.257,-93.7588 102.6,-87.7903"/>
</g>
</g>
</svg>
