<?xml version="1.0" encoding="UTF-8" standalone="no"?>
<!DOCTYPE svg PUBLIC "-//W3C//DTD SVG 1.1//EN"
 "http://www.w3.org/Graphics/SVG/1.1/DTD/svg11.dtd">
<!-- Generated by graphviz version 2.38.0 (20140413.2041)
 -->
<!-- Title: VdPConvergenceTest Pages: 1 -->
<svg width="405pt" height="480pt"
 viewBox="0.00 0.00 405.00 480.00" xmlns="http://www.w3.org/2000/svg" xmlns:xlink="http://www.w3.org/1999/xlink">
<g id="graph0" class="graph" transform="scale(1 1) rotate(0) translate(4 476)">
<title>VdPConvergenceTest</title>
<polygon fill="white" stroke="none" points="-4,4 -4,-476 401,-476 401,4 -4,4"/>
<!-- Node1 -->
<g id="node1" class="node"><title>Node1</title>
<polygon fill="#bfbfbf" stroke="black" points="152,-0.5 152,-123.5 271,-123.5 271,-0.5 152,-0.5"/>
<text text-anchor="middle" x="211.5" y="-111.5" font-family="Helvetica,sans-Serif" font-size="10.00">VdPConvergenceTest</text>
<polyline fill="none" stroke="black" points="152,-104.5 271,-104.5 "/>
<text text-anchor="start" x="160" y="-92.5" font-family="Helvetica,sans-Serif" font-size="10.00"># nnodes</text>
<text text-anchor="start" x="160" y="-81.5" font-family="Helvetica,sans-Serif" font-size="10.00"># nu</text>
<text text-anchor="start" x="160" y="-70.5" font-family="Helvetica,sans-Serif" font-size="10.00"># x0</text>
<text text-anchor="start" x="160" y="-59.5" font-family="Helvetica,sans-Serif" font-size="10.00"># y0</text>
<text text-anchor="start" x="160" y="-48.5" font-family="Helvetica,sans-Serif" font-size="10.00"># niters</text>
<text text-anchor="start" x="160" y="-37.5" font-family="Helvetica,sans-Serif" font-size="10.00"># end_time</text>
<text text-anchor="start" x="160" y="-26.5" font-family="Helvetica,sans-Serif" font-size="10.00"># nodetype</text>
<polyline fill="none" stroke="black" points="152,-19.5 271,-19.5 "/>
<text text-anchor="start" x="160" y="-7.5" font-family="Helvetica,sans-Serif" font-size="10.00">+ SetUp()</text>
</g>
<!-- Node2 -->
<g id="node2" class="node"><title>Node2</title>
<polygon fill="white" stroke="#bfbfbf" points="0,-182.5 0,-261.5 139,-261.5 139,-182.5 0,-182.5"/>
<text text-anchor="start" x="8" y="-249.5" font-family="Helvetica,sans-Serif" font-size="10.00">TestWithParam&lt; tuple</text>
<text text-anchor="start" x="8" y="-238.5" font-family="Helvetica,sans-Serif" font-size="10.00">&lt; size_t, pfasst::quadrature</text>
<text text-anchor="middle" x="69.5" y="-227.5" font-family="Helvetica,sans-Serif" font-size="10.00">::QuadratureType &gt; &gt;</text>
<polyline fill="none" stroke="#bfbfbf" points="0,-220.5 139,-220.5 "/>
<text text-anchor="middle" x="69.5" y="-208.5" font-family="Helvetica,sans-Serif" font-size="10.00"> </text>
<polyline fill="none" stroke="#bfbfbf" points="0,-201.5 139,-201.5 "/>
<text text-anchor="middle" x="69.5" y="-189.5" font-family="Helvetica,sans-Serif" font-size="10.00"> </text>
</g>
<!-- Node2&#45;&gt;Node1 -->
<g id="edge1" class="edge"><title>Node2&#45;&gt;Node1</title>
<path fill="none" stroke="midnightblue" d="M111.105,-174.707C125.439,-158.758 141.714,-140.649 156.925,-123.724"/>
<polygon fill="none" stroke="midnightblue" points="108.318,-172.572 104.237,-182.349 113.525,-177.251 108.318,-172.572"/>
</g>
<!-- Node3 -->
<g id="node3" class="node"><title>Node3</title>
<polygon fill="white" stroke="#bfbfbf" points="157.5,-193.5 157.5,-250.5 265.5,-250.5 265.5,-193.5 157.5,-193.5"/>
<text text-anchor="middle" x="211.5" y="-238.5" font-family="Helvetica,sans-Serif" font-size="10.00">std::vector&lt; size_t &gt;</text>
<polyline fill="none" stroke="#bfbfbf" points="157.5,-231.5 265.5,-231.5 "/>
<text text-anchor="start" x="165.5" y="-219.5" font-family="Helvetica,sans-Serif" font-size="10.00">+ elements</text>
<polyline fill="none" stroke="#bfbfbf" points="157.5,-212.5 265.5,-212.5 "/>
<text text-anchor="middle" x="211.5" y="-200.5" font-family="Helvetica,sans-Serif" font-size="10.00"> </text>
</g>
<!-- Node3&#45;&gt;Node1 -->
<g id="edge2" class="edge"><title>Node3&#45;&gt;Node1</title>
<path fill="none" stroke="#404040" d="M211.5,-193.479C211.5,-177.366 211.5,-156.194 211.5,-135.605"/>
<polygon fill="none" stroke="#404040" points="211.5,-135.593 207.5,-129.593 211.5,-123.593 215.5,-129.593 211.5,-135.593"/>
<text text-anchor="middle" x="230.5" y="-150.5" font-family="Helvetica,sans-Serif" font-size="10.00"> #nsteps</text>
</g>
<!-- Node4 -->
<g id="node4" class="node"><title>Node4</title>
<g id="a_node4"><a xlink:title="STL class. ">
<polygon fill="white" stroke="#bfbfbf" points="216,-309.5 216,-366.5 305,-366.5 305,-309.5 216,-309.5"/>
<text text-anchor="middle" x="260.5" y="-354.5" font-family="Helvetica,sans-Serif" font-size="10.00">std::vector&lt; T &gt;</text>
<polyline fill="none" stroke="#bfbfbf" points="216,-347.5 305,-347.5 "/>
<text text-anchor="middle" x="260.5" y="-335.5" font-family="Helvetica,sans-Serif" font-size="10.00"> </text>
<polyline fill="none" stroke="#bfbfbf" points="216,-328.5 305,-328.5 "/>
<text text-anchor="middle" x="260.5" y="-316.5" font-family="Helvetica,sans-Serif" font-size="10.00"> </text>
</a>
</g>
</g>
<!-- Node4&#45;&gt;Node3 -->
<g id="edge3" class="edge"><title>Node4&#45;&gt;Node3</title>
<path fill="none" stroke="orange" d="M244.518,-299.817C237.651,-283.841 229.765,-265.494 223.422,-250.737"/>
<polygon fill="orange" stroke="orange" points="241.474,-301.599 248.638,-309.404 247.905,-298.834 241.474,-301.599"/>
<text text-anchor="middle" x="263.5" y="-283" font-family="Helvetica,sans-Serif" font-size="10.00"> &lt; size_t &gt;</text>
</g>
<!-- Node6 -->
<g id="node6" class="node"><title>Node6</title>
<polygon fill="white" stroke="#bfbfbf" points="284,-193.5 284,-250.5 397,-250.5 397,-193.5 284,-193.5"/>
<text text-anchor="middle" x="340.5" y="-238.5" font-family="Helvetica,sans-Serif" font-size="10.00">std::vector&lt; double &gt;</text>
<polyline fill="none" stroke="#bfbfbf" points="284,-231.5 397,-231.5 "/>
<text text-anchor="start" x="292" y="-219.5" font-family="Helvetica,sans-Serif" font-size="10.00">+ elements</text>
<polyline fill="none" stroke="#bfbfbf" points="284,-212.5 397,-212.5 "/>
<text text-anchor="middle" x="340.5" y="-200.5" font-family="Helvetica,sans-Serif" font-size="10.00"> </text>
</g>
<!-- Node4&#45;&gt;Node6 -->
<g id="edge6" class="edge"><title>Node4&#45;&gt;Node6</title>
<path fill="none" stroke="orange" d="M285.646,-301.167C297.073,-284.883 310.387,-265.912 321.035,-250.737"/>
<polygon fill="orange" stroke="orange" points="282.745,-299.208 279.866,-309.404 288.475,-303.229 282.745,-299.208"/>
<text text-anchor="middle" x="326.5" y="-283" font-family="Helvetica,sans-Serif" font-size="10.00"> &lt; double &gt;</text>
</g>
<!-- Node5 -->
<g id="node5" class="node"><title>Node5</title>
<polygon fill="white" stroke="#bfbfbf" points="246,-414.5 246,-471.5 275,-471.5 275,-414.5 246,-414.5"/>
<text text-anchor="middle" x="260.5" y="-459.5" font-family="Helvetica,sans-Serif" font-size="10.00">T</text>
<polyline fill="none" stroke="#bfbfbf" points="246,-452.5 275,-452.5 "/>
<text text-anchor="middle" x="260.5" y="-440.5" font-family="Helvetica,sans-Serif" font-size="10.00"> </text>
<polyline fill="none" stroke="#bfbfbf" points="246,-433.5 275,-433.5 "/>
<text text-anchor="middle" x="260.5" y="-421.5" font-family="Helvetica,sans-Serif" font-size="10.00"> </text>
</g>
<!-- Node5&#45;&gt;Node4 -->
<g id="edge4" class="edge"><title>Node5&#45;&gt;Node4</title>
<path fill="none" stroke="#404040" d="M260.5,-414.398C260.5,-403.545 260.5,-390.873 260.5,-379.049"/>
<polygon fill="none" stroke="#404040" points="260.5,-378.678 256.5,-372.678 260.5,-366.678 264.5,-372.678 260.5,-378.678"/>
<text text-anchor="middle" x="286" y="-388" font-family="Helvetica,sans-Serif" font-size="10.00"> +elements</text>
</g>
<!-- Node6&#45;&gt;Node1 -->
<g id="edge5" class="edge"><title>Node6&#45;&gt;Node1</title>
<path fill="none" stroke="#404040" d="M318.03,-193.479C304.322,-176.689 286.128,-154.404 268.661,-133.011"/>
<polygon fill="none" stroke="#404040" points="268.561,-132.888 261.667,-130.77 260.971,-123.593 267.864,-125.711 268.561,-132.888"/>
<text text-anchor="middle" x="314.5" y="-156" font-family="Helvetica,sans-Serif" font-size="10.00"> #convrate</text>
<text text-anchor="middle" x="314.5" y="-145" font-family="Helvetica,sans-Serif" font-size="10.00">#err</text>
</g>
</g>
</svg>
