<?xml version="1.0" encoding="UTF-8" standalone="no"?>
<!DOCTYPE svg PUBLIC "-//W3C//DTD SVG 1.1//EN"
 "http://www.w3.org/Graphics/SVG/1.1/DTD/svg11.dtd">
<!-- Generated by graphviz version 2.38.0 (20140413.2041)
 -->
<!-- Title: MockEOperator&lt; scalar, time &gt; Pages: 1 -->
<svg width="173pt" height="193pt"
 viewBox="0.00 0.00 173.00 193.00" xmlns="http://www.w3.org/2000/svg" xmlns:xlink="http://www.w3.org/1999/xlink">
<g id="graph0" class="graph" transform="scale(1 1) rotate(0) translate(4 189)">
<title>MockEOperator&lt; scalar, time &gt;</title>
<polygon fill="white" stroke="none" points="-4,4 -4,-189 169,-189 169,4 -4,4"/>
<!-- Node1 -->
<g id="node1" class="node"><title>Node1</title>
<polygon fill="#bfbfbf" stroke="black" points="18.5,-0.5 18.5,-68.5 146.5,-68.5 146.5,-0.5 18.5,-0.5"/>
<text text-anchor="start" x="26.5" y="-56.5" font-family="Helvetica,sans-Serif" font-size="10.00">MockEOperator&lt; scalar,</text>
<text text-anchor="middle" x="82.5" y="-45.5" font-family="Helvetica,sans-Serif" font-size="10.00"> time &gt;</text>
<polyline fill="none" stroke="black" points="18.5,-38.5 146.5,-38.5 "/>
<text text-anchor="middle" x="82.5" y="-26.5" font-family="Helvetica,sans-Serif" font-size="10.00"> </text>
<polyline fill="none" stroke="black" points="18.5,-19.5 146.5,-19.5 "/>
<text text-anchor="start" x="26.5" y="-7.5" font-family="Helvetica,sans-Serif" font-size="10.00">+ MOCK_METHOD2_T()</text>
</g>
<!-- Node2 -->
<g id="node2" class="node"><title>Node2</title>
<polygon fill="white" stroke="#bfbfbf" points="0,-105.5 0,-184.5 165,-184.5 165,-105.5 0,-105.5"/>
<text text-anchor="start" x="8" y="-172.5" font-family="Helvetica,sans-Serif" font-size="10.00">EnergyOperator&lt; scalar,</text>
<text text-anchor="start" x="8" y="-161.5" font-family="Helvetica,sans-Serif" font-size="10.00"> time, MockParticle, MockEField,</text>
<text text-anchor="middle" x="82.5" y="-150.5" font-family="Helvetica,sans-Serif" font-size="10.00"> MockBField &gt;</text>
<polyline fill="none" stroke="#bfbfbf" points="0,-143.5 165,-143.5 "/>
<text text-anchor="middle" x="82.5" y="-131.5" font-family="Helvetica,sans-Serif" font-size="10.00"> </text>
<polyline fill="none" stroke="#bfbfbf" points="0,-124.5 165,-124.5 "/>
<text text-anchor="middle" x="82.5" y="-112.5" font-family="Helvetica,sans-Serif" font-size="10.00"> </text>
</g>
<!-- Node2&#45;&gt;Node1 -->
<g id="edge1" class="edge"><title>Node2&#45;&gt;Node1</title>
<path fill="none" stroke="midnightblue" d="M82.5,-95.3492C82.5,-86.2824 82.5,-77.0048 82.5,-68.5439"/>
<polygon fill="none" stroke="midnightblue" points="79.0001,-95.4414 82.5,-105.441 86.0001,-95.4415 79.0001,-95.4414"/>
</g>
</g>
</svg>
