<?xml version="1.0" encoding="UTF-8" standalone="no"?>
<!DOCTYPE svg PUBLIC "-//W3C//DTD SVG 1.1//EN"
 "http://www.w3.org/Graphics/SVG/1.1/DTD/svg11.dtd">
<!-- Generated by graphviz version 2.38.0 (20140413.2041)
 -->
<!-- Title: include/pfasst/encap/vector.hpp Pages: 1 -->
<svg width="830pt" height="453pt"
 viewBox="0.00 0.00 829.64 453.00" xmlns="http://www.w3.org/2000/svg" xmlns:xlink="http://www.w3.org/1999/xlink">
<g id="graph0" class="graph" transform="scale(1 1) rotate(0) translate(4 449)">
<title>include/pfasst/encap/vector.hpp</title>
<polygon fill="white" stroke="none" points="-4,4 -4,-449 825.638,-449 825.638,4 -4,4"/>
<!-- Node1 -->
<g id="node1" class="node"><title>Node1</title>
<polygon fill="#bfbfbf" stroke="black" points="147.138,-414.5 147.138,-444.5 256.138,-444.5 256.138,-414.5 147.138,-414.5"/>
<text text-anchor="start" x="155.138" y="-432.5" font-family="Helvetica,sans-Serif" font-size="10.00">include/pfasst/encap</text>
<text text-anchor="middle" x="201.638" y="-421.5" font-family="Helvetica,sans-Serif" font-size="10.00">/vector.hpp</text>
</g>
<!-- Node2 -->
<g id="node2" class="node"><title>Node2</title>
<polygon fill="white" stroke="#bfbfbf" points="78.1376,-168.5 78.1376,-187.5 131.138,-187.5 131.138,-168.5 78.1376,-168.5"/>
<text text-anchor="middle" x="104.638" y="-175.5" font-family="Helvetica,sans-Serif" font-size="10.00">memory</text>
</g>
<!-- Node1&#45;&gt;Node2 -->
<g id="edge1" class="edge"><title>Node1&#45;&gt;Node2</title>
<path fill="none" stroke="midnightblue" d="M146.856,-414.904C97.7547,-399.264 29.7151,-368.055 4.63761,-311 -16.6015,-262.678 44.0555,-215.775 80.0666,-193.109"/>
<polygon fill="midnightblue" stroke="midnightblue" points="82.3379,-195.823 89.0542,-187.629 78.694,-189.846 82.3379,-195.823"/>
</g>
<!-- Node3 -->
<g id="node3" class="node"><title>Node3</title>
<polygon fill="white" stroke="#bfbfbf" points="13.6376,-286 13.6376,-305 57.6376,-305 57.6376,-286 13.6376,-286"/>
<text text-anchor="middle" x="35.6376" y="-293" font-family="Helvetica,sans-Serif" font-size="10.00">vector</text>
</g>
<!-- Node1&#45;&gt;Node3 -->
<g id="edge2" class="edge"><title>Node1&#45;&gt;Node3</title>
<path fill="none" stroke="midnightblue" d="M172.181,-414.311C154.425,-405.114 131.808,-392.224 113.638,-378 88.5539,-358.365 63.858,-330.781 49.1826,-313.275"/>
<polygon fill="midnightblue" stroke="midnightblue" points="51.534,-310.625 42.4727,-305.135 46.1324,-315.078 51.534,-310.625"/>
</g>
<!-- Node4 -->
<g id="node4" class="node"><title>Node4</title>
<g id="a_node4"><a xlink:href="../../d8/d85/encapsulation_8hpp.html" target="_top" xlink:title="pfasst/encap/encapsulation.hpp">
<polygon fill="white" stroke="black" points="123.138,-353 123.138,-372 280.138,-372 280.138,-353 123.138,-353"/>
<text text-anchor="middle" x="201.638" y="-360" font-family="Helvetica,sans-Serif" font-size="10.00">pfasst/encap/encapsulation.hpp</text>
</a>
</g>
</g>
<!-- Node1&#45;&gt;Node4 -->
<g id="edge3" class="edge"><title>Node1&#45;&gt;Node4</title>
<path fill="none" stroke="midnightblue" d="M201.638,-414.396C201.638,-405.064 201.638,-392.714 201.638,-382.517"/>
<polygon fill="midnightblue" stroke="midnightblue" points="205.138,-382.195 201.638,-372.195 198.138,-382.195 205.138,-382.195"/>
</g>
<!-- Node25 -->
<g id="node25" class="node"><title>Node25</title>
<g id="a_node25"><a xlink:href="../../de/d7a/vector__impl_8hpp.html" target="_top" xlink:title="pfasst/encap/vector\l_impl.hpp">
<polygon fill="white" stroke="black" points="397.638,-347.5 397.638,-377.5 501.638,-377.5 501.638,-347.5 397.638,-347.5"/>
<text text-anchor="start" x="405.638" y="-365.5" font-family="Helvetica,sans-Serif" font-size="10.00">pfasst/encap/vector</text>
<text text-anchor="middle" x="449.638" y="-354.5" font-family="Helvetica,sans-Serif" font-size="10.00">_impl.hpp</text>
</a>
</g>
</g>
<!-- Node1&#45;&gt;Node25 -->
<g id="edge37" class="edge"><title>Node1&#45;&gt;Node25</title>
<path fill="none" stroke="midnightblue" d="M249.477,-414.476C288.884,-403.777 344.936,-389.079 387.746,-378.213"/>
<polygon fill="midnightblue" stroke="midnightblue" points="388.658,-381.593 397.495,-375.747 386.942,-374.806 388.658,-381.593"/>
</g>
<!-- Node4&#45;&gt;Node2 -->
<g id="edge4" class="edge"><title>Node4&#45;&gt;Node2</title>
<path fill="none" stroke="midnightblue" d="M165.537,-352.843C143.793,-345.567 117.835,-332.75 104.638,-311 83.1135,-275.528 92.035,-224.205 99.1034,-197.195"/>
<polygon fill="midnightblue" stroke="midnightblue" points="102.486,-198.095 101.835,-187.52 95.7494,-196.193 102.486,-198.095"/>
</g>
<!-- Node4&#45;&gt;Node3 -->
<g id="edge5" class="edge"><title>Node4&#45;&gt;Node3</title>
<path fill="none" stroke="midnightblue" d="M179.059,-352.826C153.103,-342.833 109.237,-325.874 71.6376,-311 70.0008,-310.352 68.3231,-309.686 66.6299,-309.011"/>
<polygon fill="midnightblue" stroke="midnightblue" points="67.525,-305.6 56.9405,-305.131 64.9225,-312.098 67.525,-305.6"/>
</g>
<!-- Node5 -->
<g id="node5" class="node"><title>Node5</title>
<polygon fill="white" stroke="#bfbfbf" points="114.138,-286 114.138,-305 189.138,-305 189.138,-286 114.138,-286"/>
<text text-anchor="middle" x="151.638" y="-293" font-family="Helvetica,sans-Serif" font-size="10.00">Eigen/Dense</text>
</g>
<!-- Node4&#45;&gt;Node5 -->
<g id="edge6" class="edge"><title>Node4&#45;&gt;Node5</title>
<path fill="none" stroke="midnightblue" d="M194.894,-352.734C187.098,-342.598 174.091,-325.69 164.373,-313.056"/>
<polygon fill="midnightblue" stroke="midnightblue" points="167.145,-310.92 158.274,-305.127 161.597,-315.188 167.145,-310.92"/>
</g>
<!-- Node6 -->
<g id="node6" class="node"><title>Node6</title>
<g id="a_node6"><a xlink:href="../../d1/d1b/interfaces_8hpp.html" target="_top" xlink:title="interfaces for SDC/MLSDC/PFASST algorithms. ">
<polygon fill="white" stroke="black" points="207.138,-286 207.138,-305 314.138,-305 314.138,-286 207.138,-286"/>
<text text-anchor="middle" x="260.638" y="-293" font-family="Helvetica,sans-Serif" font-size="10.00">pfasst/interfaces.hpp</text>
</a>
</g>
</g>
<!-- Node4&#45;&gt;Node6 -->
<g id="edge7" class="edge"><title>Node4&#45;&gt;Node6</title>
<path fill="none" stroke="midnightblue" d="M209.595,-352.734C218.883,-342.5 234.438,-325.364 245.94,-312.692"/>
<polygon fill="midnightblue" stroke="midnightblue" points="248.677,-314.884 252.807,-305.127 243.494,-310.179 248.677,-314.884"/>
</g>
<!-- Node24 -->
<g id="node24" class="node"><title>Node24</title>
<g id="a_node24"><a xlink:href="../../d1/d99/encapsulation__impl_8hpp.html" target="_top" xlink:title="pfasst/encap/encapsulation\l_impl.hpp">
<polygon fill="white" stroke="black" points="332.138,-280.5 332.138,-310.5 471.138,-310.5 471.138,-280.5 332.138,-280.5"/>
<text text-anchor="start" x="340.138" y="-298.5" font-family="Helvetica,sans-Serif" font-size="10.00">pfasst/encap/encapsulation</text>
<text text-anchor="middle" x="401.638" y="-287.5" font-family="Helvetica,sans-Serif" font-size="10.00">_impl.hpp</text>
</a>
</g>
</g>
<!-- Node4&#45;&gt;Node24 -->
<g id="edge34" class="edge"><title>Node4&#45;&gt;Node24</title>
<path fill="none" stroke="midnightblue" d="M223.436,-352.869C252.032,-342.883 302.952,-326.197 343.11,-313.564"/>
<polygon fill="midnightblue" stroke="midnightblue" points="344.309,-316.857 352.806,-310.528 342.217,-310.177 344.309,-316.857"/>
</g>
<!-- Node6&#45;&gt;Node2 -->
<g id="edge8" class="edge"><title>Node6&#45;&gt;Node2</title>
<path fill="none" stroke="midnightblue" d="M225.926,-285.993C200.549,-278.371 166.529,-265.085 142.638,-244 128.126,-231.193 117.689,-211.458 111.468,-197.092"/>
<polygon fill="midnightblue" stroke="midnightblue" points="114.684,-195.709 107.685,-187.756 108.197,-198.338 114.684,-195.709"/>
</g>
<!-- Node7 -->
<g id="node7" class="node"><title>Node7</title>
<polygon fill="white" stroke="#bfbfbf" points="151.638,-224.5 151.638,-243.5 211.638,-243.5 211.638,-224.5 151.638,-224.5"/>
<text text-anchor="middle" x="181.638" y="-231.5" font-family="Helvetica,sans-Serif" font-size="10.00">stdexcept</text>
</g>
<!-- Node6&#45;&gt;Node7 -->
<g id="edge9" class="edge"><title>Node6&#45;&gt;Node7</title>
<path fill="none" stroke="midnightblue" d="M249.319,-285.975C236.765,-276.52 216.286,-261.096 201.138,-249.687"/>
<polygon fill="midnightblue" stroke="midnightblue" points="203.029,-246.73 192.935,-243.509 198.818,-252.321 203.029,-246.73"/>
</g>
<!-- Node8 -->
<g id="node8" class="node"><title>Node8</title>
<polygon fill="white" stroke="#bfbfbf" points="265.138,-56.5 265.138,-75.5 306.138,-75.5 306.138,-56.5 265.138,-56.5"/>
<text text-anchor="middle" x="285.638" y="-63.5" font-family="Helvetica,sans-Serif" font-size="10.00">string</text>
</g>
<!-- Node6&#45;&gt;Node8 -->
<g id="edge10" class="edge"><title>Node6&#45;&gt;Node8</title>
<path fill="none" stroke="midnightblue" d="M260.195,-285.925C259.699,-275.881 258.929,-258.738 258.638,-244 257.47,-185.016 260.755,-169.787 272.638,-112 274.482,-103.028 277.221,-93.2391 279.709,-85.0894"/>
<polygon fill="midnightblue" stroke="midnightblue" points="283.055,-86.1168 282.74,-75.5267 276.382,-84.0019 283.055,-86.1168"/>
</g>
<!-- Node9 -->
<g id="node9" class="node"><title>Node9</title>
<g id="a_node9"><a xlink:href="../../d8/dc4/interfaces__impl_8hpp.html" target="_top" xlink:title="pfasst/interfaces_impl.hpp">
<polygon fill="white" stroke="black" points="268.138,-224.5 268.138,-243.5 399.138,-243.5 399.138,-224.5 268.138,-224.5"/>
<text text-anchor="middle" x="333.638" y="-231.5" font-family="Helvetica,sans-Serif" font-size="10.00">pfasst/interfaces_impl.hpp</text>
</a>
</g>
</g>
<!-- Node6&#45;&gt;Node9 -->
<g id="edge11" class="edge"><title>Node6&#45;&gt;Node9</title>
<path fill="none" stroke="midnightblue" d="M266.196,-285.975C275.824,-276.431 294.668,-260.807 310.135,-249.368"/>
<polygon fill="midnightblue" stroke="midnightblue" points="312.217,-252.183 318.301,-243.509 308.136,-246.496 312.217,-252.183"/>
</g>
<!-- Node9&#45;&gt;Node2 -->
<g id="edge14" class="edge"><title>Node9&#45;&gt;Node2</title>
<path fill="none" stroke="midnightblue" d="M297.352,-224.444C254.619,-214.367 184.044,-197.725 141.194,-187.62"/>
<polygon fill="midnightblue" stroke="midnightblue" points="141.988,-184.212 131.452,-185.323 140.381,-191.025 141.988,-184.212"/>
</g>
<!-- Node9&#45;&gt;Node6 -->
<g id="edge12" class="edge"><title>Node9&#45;&gt;Node6</title>
<path fill="none" stroke="midnightblue" d="M328.095,-243.509C318.478,-253.046 299.636,-268.669 284.165,-280.113"/>
<polygon fill="midnightblue" stroke="midnightblue" points="282.081,-277.301 275.997,-285.975 286.162,-282.988 282.081,-277.301"/>
</g>
<!-- Node9&#45;&gt;Node8 -->
<g id="edge15" class="edge"><title>Node9&#45;&gt;Node8</title>
<path fill="none" stroke="midnightblue" d="M319.268,-224.33C307.758,-216.469 292.449,-203.722 285.638,-188 271.009,-154.234 276.4,-110.024 281.263,-85.4718"/>
<polygon fill="midnightblue" stroke="midnightblue" points="284.687,-86.1974 283.386,-75.6828 277.846,-84.7137 284.687,-86.1974"/>
</g>
<!-- Node10 -->
<g id="node10" class="node"><title>Node10</title>
<polygon fill="white" stroke="#bfbfbf" points="525.638,-168.5 525.638,-187.5 575.638,-187.5 575.638,-168.5 525.638,-168.5"/>
<text text-anchor="middle" x="550.638" y="-175.5" font-family="Helvetica,sans-Serif" font-size="10.00">cassert</text>
</g>
<!-- Node9&#45;&gt;Node10 -->
<g id="edge13" class="edge"><title>Node9&#45;&gt;Node10</title>
<path fill="none" stroke="midnightblue" d="M368.552,-224.469C405.208,-215.489 464.51,-200.894 515.638,-188 515.736,-187.975 515.835,-187.95 515.935,-187.925"/>
<polygon fill="midnightblue" stroke="midnightblue" points="516.58,-191.372 525.41,-185.517 514.856,-184.588 516.58,-191.372"/>
</g>
<!-- Node11 -->
<g id="node11" class="node"><title>Node11</title>
<g id="a_node11"><a xlink:href="../../d5/d82/globals_8hpp.html" target="_top" xlink:title="pfasst/globals.hpp">
<polygon fill="white" stroke="black" points="410.138,-168.5 410.138,-187.5 507.138,-187.5 507.138,-168.5 410.138,-168.5"/>
<text text-anchor="middle" x="458.638" y="-175.5" font-family="Helvetica,sans-Serif" font-size="10.00">pfasst/globals.hpp</text>
</a>
</g>
</g>
<!-- Node9&#45;&gt;Node11 -->
<g id="edge16" class="edge"><title>Node9&#45;&gt;Node11</title>
<path fill="none" stroke="midnightblue" d="M353.444,-224.444C373.924,-215.596 406.12,-201.687 429.502,-191.586"/>
<polygon fill="midnightblue" stroke="midnightblue" points="431.132,-194.695 438.924,-187.516 428.356,-188.269 431.132,-194.695"/>
</g>
<!-- Node12 -->
<g id="node12" class="node"><title>Node12</title>
<g id="a_node12"><a xlink:href="../../d0/da9/logging_8hpp.html" target="_top" xlink:title="pfasst/logging.hpp">
<polygon fill="white" stroke="black" points="294.638,-168.5 294.638,-187.5 392.638,-187.5 392.638,-168.5 294.638,-168.5"/>
<text text-anchor="middle" x="343.638" y="-175.5" font-family="Helvetica,sans-Serif" font-size="10.00">pfasst/logging.hpp</text>
</a>
</g>
</g>
<!-- Node9&#45;&gt;Node12 -->
<g id="edge17" class="edge"><title>Node9&#45;&gt;Node12</title>
<path fill="none" stroke="midnightblue" d="M335.289,-224.083C336.614,-216.927 338.52,-206.635 340.176,-197.691"/>
<polygon fill="midnightblue" stroke="midnightblue" points="343.638,-198.221 342.017,-187.751 336.755,-196.947 343.638,-198.221"/>
</g>
<!-- Node12&#45;&gt;Node8 -->
<g id="edge20" class="edge"><title>Node12&#45;&gt;Node8</title>
<path fill="none" stroke="midnightblue" d="M339.086,-168.368C329.599,-150.376 307.546,-108.55 294.932,-84.6267"/>
<polygon fill="midnightblue" stroke="midnightblue" points="297.928,-82.8047 290.168,-75.5914 291.736,-86.0696 297.928,-82.8047"/>
</g>
<!-- Node13 -->
<g id="node13" class="node"><title>Node13</title>
<polygon fill="white" stroke="#bfbfbf" points="332.638,-112.5 332.638,-131.5 384.638,-131.5 384.638,-112.5 332.638,-112.5"/>
<text text-anchor="middle" x="358.638" y="-119.5" font-family="Helvetica,sans-Serif" font-size="10.00">iomanip</text>
</g>
<!-- Node12&#45;&gt;Node13 -->
<g id="edge18" class="edge"><title>Node12&#45;&gt;Node13</title>
<path fill="none" stroke="midnightblue" d="M346.115,-168.083C348.124,-160.849 351.024,-150.409 353.527,-141.397"/>
<polygon fill="midnightblue" stroke="midnightblue" points="356.903,-142.323 356.207,-131.751 350.158,-140.449 356.903,-142.323"/>
</g>
<!-- Node14 -->
<g id="node14" class="node"><title>Node14</title>
<polygon fill="white" stroke="#bfbfbf" points="348.638,-56.5 348.638,-75.5 404.638,-75.5 404.638,-56.5 348.638,-56.5"/>
<text text-anchor="middle" x="376.638" y="-63.5" font-family="Helvetica,sans-Serif" font-size="10.00">iostream</text>
</g>
<!-- Node12&#45;&gt;Node14 -->
<g id="edge19" class="edge"><title>Node12&#45;&gt;Node14</title>
<path fill="none" stroke="midnightblue" d="M358.59,-168.474C370.57,-160.702 386.511,-148.002 393.638,-132 400.444,-116.716 394.287,-98.1535 387.555,-84.7844"/>
<polygon fill="midnightblue" stroke="midnightblue" points="390.426,-82.7457 382.501,-75.7137 384.311,-86.1528 390.426,-82.7457"/>
</g>
<!-- Node15 -->
<g id="node15" class="node"><title>Node15</title>
<polygon fill="white" stroke="#bfbfbf" points="441.138,-112.5 441.138,-131.5 572.138,-131.5 572.138,-112.5 441.138,-112.5"/>
<text text-anchor="middle" x="506.638" y="-119.5" font-family="Helvetica,sans-Serif" font-size="10.00">boost/algorithm/string.hpp</text>
</g>
<!-- Node12&#45;&gt;Node15 -->
<g id="edge21" class="edge"><title>Node12&#45;&gt;Node15</title>
<path fill="none" stroke="midnightblue" d="M369.465,-168.444C396.887,-159.359 440.415,-144.939 471.07,-134.783"/>
<polygon fill="midnightblue" stroke="midnightblue" points="472.539,-137.984 480.931,-131.516 470.337,-131.339 472.539,-137.984"/>
</g>
<!-- Node16 -->
<g id="node16" class="node"><title>Node16</title>
<g id="a_node16"><a xlink:href="../../d8/dfd/config_8hpp.html" target="_top" xlink:title="pfasst/config.hpp">
<polygon fill="white" stroke="black" points="590.138,-112.5 590.138,-131.5 681.138,-131.5 681.138,-112.5 590.138,-112.5"/>
<text text-anchor="middle" x="635.638" y="-119.5" font-family="Helvetica,sans-Serif" font-size="10.00">pfasst/config.hpp</text>
</a>
</g>
</g>
<!-- Node12&#45;&gt;Node16 -->
<g id="edge22" class="edge"><title>Node12&#45;&gt;Node16</title>
<path fill="none" stroke="midnightblue" d="M389.906,-168.444C441.53,-158.897 525.02,-143.457 580.122,-133.267"/>
<polygon fill="midnightblue" stroke="midnightblue" points="580.87,-136.688 590.066,-131.428 579.597,-129.804 580.87,-136.688"/>
</g>
<!-- Node23 -->
<g id="node23" class="node"><title>Node23</title>
<polygon fill="white" stroke="#bfbfbf" points="699.638,-112.5 699.638,-131.5 821.638,-131.5 821.638,-112.5 699.638,-112.5"/>
<text text-anchor="middle" x="760.638" y="-119.5" font-family="Helvetica,sans-Serif" font-size="10.00">pfasst/easylogging++.h</text>
</g>
<!-- Node12&#45;&gt;Node23 -->
<g id="edge33" class="edge"><title>Node12&#45;&gt;Node23</title>
<path fill="none" stroke="midnightblue" d="M392.747,-169.141C395.415,-168.747 398.058,-168.364 400.638,-168 525.674,-150.346 559.571,-148.235 689.509,-132.01"/>
<polygon fill="midnightblue" stroke="midnightblue" points="689.96,-135.481 699.448,-130.765 689.09,-128.535 689.96,-135.481"/>
</g>
<!-- Node16&#45;&gt;Node8 -->
<g id="edge25" class="edge"><title>Node16&#45;&gt;Node8</title>
<path fill="none" stroke="midnightblue" d="M590.027,-113.486C586.85,-112.978 583.697,-112.479 580.638,-112 473.64,-95.255 446.61,-92.9028 339.638,-76 332.022,-74.7966 323.81,-73.4521 316.145,-72.1768"/>
<polygon fill="midnightblue" stroke="midnightblue" points="316.579,-68.7009 306.138,-70.5003 315.422,-75.6046 316.579,-68.7009"/>
</g>
<!-- Node16&#45;&gt;Node14 -->
<g id="edge24" class="edge"><title>Node16&#45;&gt;Node14</title>
<path fill="none" stroke="midnightblue" d="M590.883,-112.455C548.076,-104.164 481.469,-90.9564 414.737,-76.1826"/>
<polygon fill="midnightblue" stroke="midnightblue" points="415.415,-72.7479 404.893,-73.9919 413.894,-79.5807 415.415,-72.7479"/>
</g>
<!-- Node17 -->
<g id="node17" class="node"><title>Node17</title>
<polygon fill="white" stroke="#bfbfbf" points="691.638,-0.5 691.638,-19.5 741.638,-19.5 741.638,-0.5 691.638,-0.5"/>
<text text-anchor="middle" x="716.638" y="-7.5" font-family="Helvetica,sans-Serif" font-size="10.00">fstream</text>
</g>
<!-- Node16&#45;&gt;Node17 -->
<g id="edge23" class="edge"><title>Node16&#45;&gt;Node17</title>
<path fill="none" stroke="midnightblue" d="M655.394,-112.474C670.352,-105.002 690.212,-92.7158 701.638,-76 710.93,-62.4052 714.527,-43.8601 715.889,-30.0576"/>
<polygon fill="midnightblue" stroke="midnightblue" points="719.401,-30.0051 716.584,-19.7917 712.417,-29.5327 719.401,-30.0051"/>
</g>
<!-- Node18 -->
<g id="node18" class="node"><title>Node18</title>
<polygon fill="white" stroke="#bfbfbf" points="748.638,-56.5 748.638,-75.5 784.638,-75.5 784.638,-56.5 748.638,-56.5"/>
<text text-anchor="middle" x="766.638" y="-63.5" font-family="Helvetica,sans-Serif" font-size="10.00">map</text>
</g>
<!-- Node16&#45;&gt;Node18 -->
<g id="edge26" class="edge"><title>Node16&#45;&gt;Node18</title>
<path fill="none" stroke="midnightblue" d="M656.395,-112.444C678.715,-103.243 714.313,-88.5691 738.993,-78.3957"/>
<polygon fill="midnightblue" stroke="midnightblue" points="740.597,-81.52 748.509,-74.473 737.929,-75.0483 740.597,-81.52"/>
</g>
<!-- Node19 -->
<g id="node19" class="node"><title>Node19</title>
<polygon fill="white" stroke="#bfbfbf" points="423.138,-56.5 423.138,-75.5 560.138,-75.5 560.138,-56.5 423.138,-56.5"/>
<text text-anchor="middle" x="491.638" y="-63.5" font-family="Helvetica,sans-Serif" font-size="10.00">boost/program_options.hpp</text>
</g>
<!-- Node16&#45;&gt;Node19 -->
<g id="edge27" class="edge"><title>Node16&#45;&gt;Node19</title>
<path fill="none" stroke="midnightblue" d="M612.82,-112.444C588.806,-103.438 550.809,-89.1891 523.768,-79.049"/>
<polygon fill="midnightblue" stroke="midnightblue" points="524.94,-75.7506 514.348,-75.5164 522.482,-82.3049 524.94,-75.7506"/>
</g>
<!-- Node20 -->
<g id="node20" class="node"><title>Node20</title>
<g id="a_node20"><a xlink:href="../../d5/d84/config__impl_8hpp.html" target="_top" xlink:title="pfasst/config_impl.hpp">
<polygon fill="white" stroke="black" points="578.638,-56.5 578.638,-75.5 692.638,-75.5 692.638,-56.5 578.638,-56.5"/>
<text text-anchor="middle" x="635.638" y="-63.5" font-family="Helvetica,sans-Serif" font-size="10.00">pfasst/config_impl.hpp</text>
</a>
</g>
</g>
<!-- Node16&#45;&gt;Node20 -->
<g id="edge28" class="edge"><title>Node16&#45;&gt;Node20</title>
<path fill="none" stroke="midnightblue" d="M630.471,-112.083C628.962,-104.927 628.531,-94.6353 629.18,-85.6911"/>
<polygon fill="midnightblue" stroke="midnightblue" points="632.653,-86.1262 630.507,-75.7511 625.714,-85.2002 632.653,-86.1262"/>
</g>
<!-- Node20&#45;&gt;Node16 -->
<g id="edge29" class="edge"><title>Node20&#45;&gt;Node16</title>
<path fill="none" stroke="midnightblue" d="M640.769,-75.7511C642.295,-82.8579 642.742,-93.1357 642.11,-102.101"/>
<polygon fill="midnightblue" stroke="midnightblue" points="638.631,-101.713 640.804,-112.083 645.572,-102.622 638.631,-101.713"/>
</g>
<!-- Node20&#45;&gt;Node17 -->
<g id="edge30" class="edge"><title>Node20&#45;&gt;Node17</title>
<path fill="none" stroke="midnightblue" d="M648.652,-56.324C661.169,-47.979 680.319,-35.2122 695.109,-25.3524"/>
<polygon fill="midnightblue" stroke="midnightblue" points="697.277,-28.1137 703.656,-19.6545 693.394,-22.2894 697.277,-28.1137"/>
</g>
<!-- Node21 -->
<g id="node21" class="node"><title>Node21</title>
<polygon fill="white" stroke="#bfbfbf" points="613.138,-0.5 613.138,-19.5 666.138,-19.5 666.138,-0.5 613.138,-0.5"/>
<text text-anchor="middle" x="639.638" y="-7.5" font-family="Helvetica,sans-Serif" font-size="10.00">sstream</text>
</g>
<!-- Node20&#45;&gt;Node21 -->
<g id="edge31" class="edge"><title>Node20&#45;&gt;Node21</title>
<path fill="none" stroke="midnightblue" d="M636.298,-56.083C636.822,-49.0059 637.574,-38.8611 638.231,-29.9865"/>
<polygon fill="midnightblue" stroke="midnightblue" points="641.741,-29.9823 638.989,-19.7511 634.76,-29.4652 641.741,-29.9823"/>
</g>
<!-- Node22 -->
<g id="node22" class="node"><title>Node22</title>
<polygon fill="white" stroke="#bfbfbf" points="556.638,-0.5 556.638,-19.5 594.638,-19.5 594.638,-0.5 556.638,-0.5"/>
<text text-anchor="middle" x="575.638" y="-7.5" font-family="Helvetica,sans-Serif" font-size="10.00">utility</text>
</g>
<!-- Node20&#45;&gt;Node22 -->
<g id="edge32" class="edge"><title>Node20&#45;&gt;Node22</title>
<path fill="none" stroke="midnightblue" d="M625.998,-56.324C617.128,-48.3414 603.763,-36.3128 593.03,-26.6529"/>
<polygon fill="midnightblue" stroke="midnightblue" points="595.227,-23.922 585.453,-19.8339 590.545,-29.1251 595.227,-23.922"/>
</g>
<!-- Node24&#45;&gt;Node4 -->
<g id="edge35" class="edge"><title>Node24&#45;&gt;Node4</title>
<path fill="none" stroke="midnightblue" d="M364.143,-310.528C329.494,-322.294 278.293,-338.895 242.589,-349.917"/>
<polygon fill="midnightblue" stroke="midnightblue" points="241.492,-346.592 232.956,-352.869 243.543,-353.285 241.492,-346.592"/>
</g>
<!-- Node24&#45;&gt;Node11 -->
<g id="edge36" class="edge"><title>Node24&#45;&gt;Node11</title>
<path fill="none" stroke="midnightblue" d="M408.627,-280.337C419.037,-259.243 438.601,-219.6 449.928,-196.648"/>
<polygon fill="midnightblue" stroke="midnightblue" points="453.072,-198.186 454.359,-187.669 446.795,-195.088 453.072,-198.186"/>
</g>
<!-- Node25&#45;&gt;Node1 -->
<g id="edge40" class="edge"><title>Node25&#45;&gt;Node1</title>
<path fill="none" stroke="midnightblue" d="M401.686,-377.555C363.067,-388.038 308.516,-402.35 266.093,-413.136"/>
<polygon fill="midnightblue" stroke="midnightblue" points="264.972,-409.809 256.138,-415.658 266.692,-416.595 264.972,-409.809"/>
</g>
<!-- Node25&#45;&gt;Node10 -->
<g id="edge39" class="edge"><title>Node25&#45;&gt;Node10</title>
<path fill="none" stroke="midnightblue" d="M458.205,-347.445C464.296,-337.365 472.609,-323.427 479.638,-311 502.495,-270.59 527.979,-222.39 541.325,-196.887"/>
<polygon fill="midnightblue" stroke="midnightblue" points="544.587,-198.203 546.112,-187.719 538.382,-194.963 544.587,-198.203"/>
</g>
<!-- Node26 -->
<g id="node26" class="node"><title>Node26</title>
<polygon fill="white" stroke="#bfbfbf" points="527.638,-286 527.638,-305 585.638,-305 585.638,-286 527.638,-286"/>
<text text-anchor="middle" x="556.638" y="-293" font-family="Helvetica,sans-Serif" font-size="10.00">algorithm</text>
</g>
<!-- Node25&#45;&gt;Node26 -->
<g id="edge38" class="edge"><title>Node25&#45;&gt;Node26</title>
<path fill="none" stroke="midnightblue" d="M472.855,-347.396C490.965,-336.395 515.977,-321.2 533.95,-310.282"/>
<polygon fill="midnightblue" stroke="midnightblue" points="535.904,-313.19 542.634,-305.007 532.27,-307.208 535.904,-313.19"/>
</g>
</g>
</svg>
