<?xml version="1.0" encoding="UTF-8" standalone="no"?>
<!DOCTYPE svg PUBLIC "-//W3C//DTD SVG 1.1//EN"
 "http://www.w3.org/Graphics/SVG/1.1/DTD/svg11.dtd">
<!-- Generated by graphviz version 2.38.0 (20140413.2041)
 -->
<!-- Title: pfasst::mpi::MPIError Pages: 1 -->
<svg width="117pt" height="276pt"
 viewBox="0.00 0.00 117.00 276.00" xmlns="http://www.w3.org/2000/svg" xmlns:xlink="http://www.w3.org/1999/xlink">
<g id="graph0" class="graph" transform="scale(1 1) rotate(0) translate(4 272)">
<title>pfasst::mpi::MPIError</title>
<polygon fill="white" stroke="none" points="-4,4 -4,-272 113,-272 113,4 -4,4"/>
<!-- Node1 -->
<g id="node1" class="node"><title>Node1</title>
<polygon fill="#bfbfbf" stroke="black" points="0,-0.5 0,-79.5 109,-79.5 109,-0.5 0,-0.5"/>
<text text-anchor="middle" x="54.5" y="-67.5" font-family="Helvetica,sans-Serif" font-size="10.00">pfasst::mpi::MPIError</text>
<polyline fill="none" stroke="black" points="0,-60.5 109,-60.5 "/>
<text text-anchor="middle" x="54.5" y="-48.5" font-family="Helvetica,sans-Serif" font-size="10.00"> </text>
<polyline fill="none" stroke="black" points="0,-41.5 109,-41.5 "/>
<text text-anchor="start" x="8" y="-29.5" font-family="Helvetica,sans-Serif" font-size="10.00">+ MPIError()</text>
<text text-anchor="start" x="8" y="-18.5" font-family="Helvetica,sans-Serif" font-size="10.00">+ what()</text>
<text text-anchor="start" x="8" y="-7.5" font-family="Helvetica,sans-Serif" font-size="10.00">+ from_code()</text>
</g>
<!-- Node2 -->
<g id="node2" class="node"><title>Node2</title>
<g id="a_node2"><a xlink:title="STL class. ">
<polygon fill="white" stroke="#bfbfbf" points="7,-116.5 7,-173.5 102,-173.5 102,-116.5 7,-116.5"/>
<text text-anchor="middle" x="54.5" y="-161.5" font-family="Helvetica,sans-Serif" font-size="10.00">std::runtime_error</text>
<polyline fill="none" stroke="#bfbfbf" points="7,-154.5 102,-154.5 "/>
<text text-anchor="middle" x="54.5" y="-142.5" font-family="Helvetica,sans-Serif" font-size="10.00"> </text>
<polyline fill="none" stroke="#bfbfbf" points="7,-135.5 102,-135.5 "/>
<text text-anchor="middle" x="54.5" y="-123.5" font-family="Helvetica,sans-Serif" font-size="10.00"> </text>
</a>
</g>
</g>
<!-- Node2&#45;&gt;Node1 -->
<g id="edge1" class="edge"><title>Node2&#45;&gt;Node1</title>
<path fill="none" stroke="midnightblue" d="M54.5,-106.156C54.5,-97.4733 54.5,-88.2318 54.5,-79.5205"/>
<polygon fill="none" stroke="midnightblue" points="51.0001,-106.398 54.5,-116.398 58.0001,-106.398 51.0001,-106.398"/>
</g>
<!-- Node3 -->
<g id="node3" class="node"><title>Node3</title>
<g id="a_node3"><a xlink:title="STL class. ">
<polygon fill="white" stroke="#bfbfbf" points="14.5,-210.5 14.5,-267.5 94.5,-267.5 94.5,-210.5 14.5,-210.5"/>
<text text-anchor="middle" x="54.5" y="-255.5" font-family="Helvetica,sans-Serif" font-size="10.00">std::exception</text>
<polyline fill="none" stroke="#bfbfbf" points="14.5,-248.5 94.5,-248.5 "/>
<text text-anchor="middle" x="54.5" y="-236.5" font-family="Helvetica,sans-Serif" font-size="10.00"> </text>
<polyline fill="none" stroke="#bfbfbf" points="14.5,-229.5 94.5,-229.5 "/>
<text text-anchor="middle" x="54.5" y="-217.5" font-family="Helvetica,sans-Serif" font-size="10.00"> </text>
</a>
</g>
</g>
<!-- Node3&#45;&gt;Node2 -->
<g id="edge2" class="edge"><title>Node3&#45;&gt;Node2</title>
<path fill="none" stroke="midnightblue" d="M54.5,-200.209C54.5,-191.293 54.5,-181.951 54.5,-173.584"/>
<polygon fill="none" stroke="midnightblue" points="51.0001,-200.397 54.5,-210.397 58.0001,-200.397 51.0001,-200.397"/>
</g>
</g>
</svg>
