<?xml version="1.0" encoding="UTF-8" standalone="no"?>
<!DOCTYPE svg PUBLIC "-//W3C//DTD SVG 1.1//EN"
 "http://www.w3.org/Graphics/SVG/1.1/DTD/svg11.dtd">
<!-- Generated by graphviz version 2.38.0 (20140413.2041)
 -->
<!-- Title: pfasst::IStatus::previous_is_iterating Pages: 1 -->
<svg width="283pt" height="88pt"
 viewBox="0.00 0.00 283.00 88.00" xmlns="http://www.w3.org/2000/svg" xmlns:xlink="http://www.w3.org/1999/xlink">
<g id="graph0" class="graph" transform="scale(1 1) rotate(0) translate(4 84)">
<title>pfasst::IStatus::previous_is_iterating</title>
<polygon fill="white" stroke="none" points="-4,4 -4,-84 279,-84 279,4 -4,4"/>
<!-- Node1 -->
<g id="node1" class="node"><title>Node1</title>
<polygon fill="#bfbfbf" stroke="black" points="0,-24.5 0,-54.5 123,-54.5 123,-24.5 0,-24.5"/>
<text text-anchor="start" x="8" y="-42.5" font-family="Helvetica,sans-Serif" font-size="10.00">pfasst::IStatus::previous</text>
<text text-anchor="middle" x="61.5" y="-31.5" font-family="Helvetica,sans-Serif" font-size="10.00">_is_iterating</text>
</g>
<!-- Node2 -->
<g id="node2" class="node"><title>Node2</title>
<g id="a_node2"><a xlink:href="../../da/da9/classpfasst_1_1IStatus.html#a281cefc600f5fca02f138359d58916c2" target="_top" xlink:title="Retreive converged state for specific processor. ">
<polygon fill="white" stroke="black" points="167.5,-49.5 167.5,-79.5 266.5,-79.5 266.5,-49.5 167.5,-49.5"/>
<text text-anchor="start" x="175.5" y="-67.5" font-family="Helvetica,sans-Serif" font-size="10.00">pfasst::IStatus::get</text>
<text text-anchor="middle" x="217" y="-56.5" font-family="Helvetica,sans-Serif" font-size="10.00">_converged</text>
</a>
</g>
</g>
<!-- Node1&#45;&gt;Node2 -->
<g id="edge1" class="edge"><title>Node1&#45;&gt;Node2</title>
<path fill="none" stroke="midnightblue" d="M123.167,-49.3807C134.331,-51.1989 145.97,-53.0945 157.082,-54.9042"/>
<polygon fill="midnightblue" stroke="midnightblue" points="156.676,-58.3841 167.109,-56.5372 157.801,-51.4752 156.676,-58.3841"/>
</g>
<!-- Node3 -->
<g id="node3" class="node"><title>Node3</title>
<g id="a_node3"><a xlink:href="../../d5/d14/classpfasst_1_1ICommunicator.html#ad719c3ac9f9f81f31a10b767e37ebab5" target="_top" xlink:title="pfasst::ICommunicator\l::rank">
<polygon fill="white" stroke="black" points="159,-0.5 159,-30.5 275,-30.5 275,-0.5 159,-0.5"/>
<text text-anchor="start" x="167" y="-18.5" font-family="Helvetica,sans-Serif" font-size="10.00">pfasst::ICommunicator</text>
<text text-anchor="middle" x="217" y="-7.5" font-family="Helvetica,sans-Serif" font-size="10.00">::rank</text>
</a>
</g>
</g>
<!-- Node1&#45;&gt;Node3 -->
<g id="edge2" class="edge"><title>Node1&#45;&gt;Node3</title>
<path fill="none" stroke="midnightblue" d="M123.167,-30.0146C131.6,-28.6961 140.303,-27.3353 148.846,-25.9997"/>
<polygon fill="midnightblue" stroke="midnightblue" points="149.435,-29.4502 158.774,-24.4474 148.353,-22.5342 149.435,-29.4502"/>
</g>
</g>
</svg>
