<?xml version="1.0" encoding="UTF-8" standalone="no"?>
<!DOCTYPE svg PUBLIC "-//W3C//DTD SVG 1.1//EN"
 "http://www.w3.org/Graphics/SVG/1.1/DTD/svg11.dtd">
<!-- Generated by graphviz version 2.38.0 (20140413.2041)
 -->
<!-- Title: src/pfasst/encap/encap_sweeper_impl.hpp Pages: 1 -->
<svg width="1079pt" height="385pt"
 viewBox="0.00 0.00 1079.00 385.00" xmlns="http://www.w3.org/2000/svg" xmlns:xlink="http://www.w3.org/1999/xlink">
<g id="graph0" class="graph" transform="scale(1 1) rotate(0) translate(4 381)">
<title>src/pfasst/encap/encap_sweeper_impl.hpp</title>
<polygon fill="white" stroke="none" points="-4,4 -4,-381 1075,-381 1075,4 -4,4"/>
<!-- Node1 -->
<g id="node1" class="node"><title>Node1</title>
<polygon fill="#bfbfbf" stroke="black" points="642.5,-346.5 642.5,-376.5 763.5,-376.5 763.5,-346.5 642.5,-346.5"/>
<text text-anchor="start" x="650.5" y="-364.5" font-family="Helvetica,sans-Serif" font-size="10.00">src/pfasst/encap/encap</text>
<text text-anchor="middle" x="703" y="-353.5" font-family="Helvetica,sans-Serif" font-size="10.00">_sweeper_impl.hpp</text>
</g>
<!-- Node2 -->
<g id="node2" class="node"><title>Node2</title>
<g id="a_node2"><a xlink:href="../../de/deb/encap__sweeper_8hpp.html" target="_top" xlink:title="include/pfasst/encap\l/encap_sweeper.hpp">
<polygon fill="white" stroke="black" points="648,-279.5 648,-309.5 758,-309.5 758,-279.5 648,-279.5"/>
<text text-anchor="start" x="656" y="-297.5" font-family="Helvetica,sans-Serif" font-size="10.00">include/pfasst/encap</text>
<text text-anchor="middle" x="703" y="-286.5" font-family="Helvetica,sans-Serif" font-size="10.00">/encap_sweeper.hpp</text>
</a>
</g>
</g>
<!-- Node1&#45;&gt;Node2 -->
<g id="edge1" class="edge"><title>Node1&#45;&gt;Node2</title>
<path fill="none" stroke="midnightblue" d="M696.455,-336.403C696.005,-327.37 696.296,-317.408 697.325,-309.577"/>
<polygon fill="midnightblue" stroke="midnightblue" points="692.97,-336.736 697.322,-346.396 699.944,-336.131 692.97,-336.736"/>
</g>
<!-- Node2&#45;&gt;Node1 -->
<g id="edge16" class="edge"><title>Node2&#45;&gt;Node1</title>
<path fill="none" stroke="midnightblue" d="M709.544,-319.565C709.995,-328.596 709.706,-338.56 708.678,-346.396"/>
<polygon fill="midnightblue" stroke="midnightblue" points="713.028,-319.236 708.675,-309.577 706.055,-319.842 713.028,-319.236"/>
</g>
<!-- Node3 -->
<g id="node3" class="node"><title>Node3</title>
<g id="a_node3"><a xlink:href="../../d1/d6f/imex__sweeper_8hpp.html" target="_top" xlink:title="include/pfasst/encap\l/imex_sweeper.hpp">
<polygon fill="white" stroke="black" points="157.5,-145.5 157.5,-175.5 266.5,-175.5 266.5,-145.5 157.5,-145.5"/>
<text text-anchor="start" x="165.5" y="-163.5" font-family="Helvetica,sans-Serif" font-size="10.00">include/pfasst/encap</text>
<text text-anchor="middle" x="212" y="-152.5" font-family="Helvetica,sans-Serif" font-size="10.00">/imex_sweeper.hpp</text>
</a>
</g>
</g>
<!-- Node2&#45;&gt;Node3 -->
<g id="edge2" class="edge"><title>Node2&#45;&gt;Node3</title>
<path fill="none" stroke="midnightblue" d="M637.504,-285.883C578.765,-278.134 490.596,-264.219 416,-243 352.171,-224.844 280.867,-193.718 241.736,-175.64"/>
<polygon fill="midnightblue" stroke="midnightblue" points="637.389,-289.398 647.757,-287.213 638.29,-282.456 637.389,-289.398"/>
</g>
<!-- Node11 -->
<g id="node11" class="node"><title>Node11</title>
<g id="a_node11"><a xlink:href="../../d7/daf/implicit__sweeper_8hpp.html" target="_top" xlink:title="include/pfasst/encap\l/implicit_sweeper.hpp">
<polygon fill="white" stroke="black" points="647,-212.5 647,-242.5 759,-242.5 759,-212.5 647,-212.5"/>
<text text-anchor="start" x="655" y="-230.5" font-family="Helvetica,sans-Serif" font-size="10.00">include/pfasst/encap</text>
<text text-anchor="middle" x="703" y="-219.5" font-family="Helvetica,sans-Serif" font-size="10.00">/implicit_sweeper.hpp</text>
</a>
</g>
</g>
<!-- Node2&#45;&gt;Node11 -->
<g id="edge11" class="edge"><title>Node2&#45;&gt;Node11</title>
<path fill="none" stroke="midnightblue" d="M703,-269.108C703,-260.154 703,-250.323 703,-242.577"/>
<polygon fill="midnightblue" stroke="midnightblue" points="699.5,-269.396 703,-279.396 706.5,-269.396 699.5,-269.396"/>
</g>
<!-- Node15 -->
<g id="node15" class="node"><title>Node15</title>
<g id="a_node15"><a xlink:href="../../d9/d3c/poly__interp__impl_8hpp.html" target="_top" xlink:title="src/pfasst/encap/poly\l_interp_impl.hpp">
<polygon fill="white" stroke="black" points="425,-212.5 425,-242.5 537,-242.5 537,-212.5 425,-212.5"/>
<text text-anchor="start" x="433" y="-230.5" font-family="Helvetica,sans-Serif" font-size="10.00">src/pfasst/encap/poly</text>
<text text-anchor="middle" x="481" y="-219.5" font-family="Helvetica,sans-Serif" font-size="10.00">_interp_impl.hpp</text>
</a>
</g>
</g>
<!-- Node2&#45;&gt;Node15 -->
<g id="edge17" class="edge"><title>Node2&#45;&gt;Node15</title>
<path fill="none" stroke="midnightblue" d="M645.211,-276.58C609.154,-266.022 563.284,-252.592 529.194,-242.611"/>
<polygon fill="midnightblue" stroke="midnightblue" points="644.522,-280.025 655.103,-279.476 646.489,-273.307 644.522,-280.025"/>
</g>
<!-- Node18 -->
<g id="node18" class="node"><title>Node18</title>
<g id="a_node18"><a xlink:href="../../db/dfd/boris__sweeper_8hpp.html" target="_top" xlink:title="examples/boris/boris\l_sweeper.hpp">
<polygon fill="white" stroke="black" points="822,-145.5 822,-175.5 932,-175.5 932,-145.5 822,-145.5"/>
<text text-anchor="start" x="830" y="-163.5" font-family="Helvetica,sans-Serif" font-size="10.00">examples/boris/boris</text>
<text text-anchor="middle" x="877" y="-152.5" font-family="Helvetica,sans-Serif" font-size="10.00">_sweeper.hpp</text>
</a>
</g>
</g>
<!-- Node2&#45;&gt;Node18 -->
<g id="edge23" class="edge"><title>Node2&#45;&gt;Node18</title>
<path fill="none" stroke="midnightblue" d="M768.419,-284.998C818.04,-277.049 880.308,-263.327 896,-243 911.271,-223.219 897.445,-193.229 886.727,-175.677"/>
<polygon fill="midnightblue" stroke="midnightblue" points="767.707,-281.566 758.362,-286.559 768.781,-288.483 767.707,-281.566"/>
</g>
<!-- Node20 -->
<g id="node20" class="node"><title>Node20</title>
<g id="a_node20"><a xlink:href="../../db/d9a/boris__sweeper__impl_8hpp.html" target="_top" xlink:title="examples/boris/boris\l_sweeper_impl.hpp">
<polygon fill="white" stroke="black" points="777,-212.5 777,-242.5 887,-242.5 887,-212.5 777,-212.5"/>
<text text-anchor="start" x="785" y="-230.5" font-family="Helvetica,sans-Serif" font-size="10.00">examples/boris/boris</text>
<text text-anchor="middle" x="832" y="-219.5" font-family="Helvetica,sans-Serif" font-size="10.00">_sweeper_impl.hpp</text>
</a>
</g>
</g>
<!-- Node2&#45;&gt;Node20 -->
<g id="edge32" class="edge"><title>Node2&#45;&gt;Node20</title>
<path fill="none" stroke="midnightblue" d="M740.007,-274.853C760.403,-264.576 785.312,-252.025 804.064,-242.577"/>
<polygon fill="midnightblue" stroke="midnightblue" points="738.347,-271.77 730.991,-279.396 741.496,-278.022 738.347,-271.77"/>
</g>
<!-- Node4 -->
<g id="node4" class="node"><title>Node4</title>
<g id="a_node4"><a xlink:href="../../d7/d0a/imex__sweeper__impl_8hpp.html" target="_top" xlink:title="src/pfasst/encap/imex\l_sweeper_impl.hpp">
<polygon fill="white" stroke="black" points="154.5,-73 154.5,-103 269.5,-103 269.5,-73 154.5,-73"/>
<text text-anchor="start" x="162.5" y="-91" font-family="Helvetica,sans-Serif" font-size="10.00">src/pfasst/encap/imex</text>
<text text-anchor="middle" x="212" y="-80" font-family="Helvetica,sans-Serif" font-size="10.00">_sweeper_impl.hpp</text>
</a>
</g>
</g>
<!-- Node3&#45;&gt;Node4 -->
<g id="edge3" class="edge"><title>Node3&#45;&gt;Node4</title>
<path fill="none" stroke="midnightblue" d="M205.55,-135.232C204.949,-124.568 205.251,-112.414 206.454,-103.246"/>
<polygon fill="midnightblue" stroke="midnightblue" points="202.068,-135.588 206.451,-145.233 209.04,-134.959 202.068,-135.588"/>
</g>
<!-- Node5 -->
<g id="node5" class="node"><title>Node5</title>
<g id="a_node5"><a xlink:href="../../dc/d7d/advection__diffusion__sweeper_8hpp.html" target="_top" xlink:title="examples/advection\l_diffusion/advection\l_diffusion_sweeper.hpp">
<polygon fill="white" stroke="black" points="287.5,-67.5 287.5,-108.5 408.5,-108.5 408.5,-67.5 287.5,-67.5"/>
<text text-anchor="start" x="295.5" y="-96.5" font-family="Helvetica,sans-Serif" font-size="10.00">examples/advection</text>
<text text-anchor="start" x="295.5" y="-85.5" font-family="Helvetica,sans-Serif" font-size="10.00">_diffusion/advection</text>
<text text-anchor="middle" x="348" y="-74.5" font-family="Helvetica,sans-Serif" font-size="10.00">_diffusion_sweeper.hpp</text>
</a>
</g>
</g>
<!-- Node3&#45;&gt;Node5 -->
<g id="edge5" class="edge"><title>Node3&#45;&gt;Node5</title>
<path fill="none" stroke="midnightblue" d="M248.219,-140.725C267.389,-130.788 290.906,-118.597 310.293,-108.546"/>
<polygon fill="midnightblue" stroke="midnightblue" points="246.462,-137.693 239.195,-145.403 249.684,-143.908 246.462,-137.693"/>
</g>
<!-- Node9 -->
<g id="node9" class="node"><title>Node9</title>
<g id="a_node9"><a xlink:href="../../d8/d93/scalar__sweeper_8hpp.html" target="_top" xlink:title="examples/scalar/scalar\l_sweeper.hpp">
<polygon fill="white" stroke="black" points="5,-73 5,-103 127,-103 127,-73 5,-73"/>
<text text-anchor="start" x="13" y="-91" font-family="Helvetica,sans-Serif" font-size="10.00">examples/scalar/scalar</text>
<text text-anchor="middle" x="66" y="-80" font-family="Helvetica,sans-Serif" font-size="10.00">_sweeper.hpp</text>
</a>
</g>
</g>
<!-- Node3&#45;&gt;Node9 -->
<g id="edge9" class="edge"><title>Node3&#45;&gt;Node9</title>
<path fill="none" stroke="midnightblue" d="M173.75,-141.03C149.161,-129.156 117.71,-113.97 95.1438,-103.073"/>
<polygon fill="midnightblue" stroke="midnightblue" points="172.279,-144.206 182.806,-145.403 175.322,-137.903 172.279,-144.206"/>
</g>
<!-- Node4&#45;&gt;Node3 -->
<g id="edge4" class="edge"><title>Node4&#45;&gt;Node3</title>
<path fill="none" stroke="midnightblue" d="M218.449,-113.244C219.051,-123.905 218.751,-136.06 217.549,-145.233"/>
<polygon fill="midnightblue" stroke="midnightblue" points="221.931,-112.89 217.546,-103.246 214.959,-113.52 221.931,-112.89"/>
</g>
<!-- Node6 -->
<g id="node6" class="node"><title>Node6</title>
<g id="a_node6"><a xlink:href="../../d1/d49/mpi__pfasst_8cpp.html" target="_top" xlink:title="Advection&#45;Diffusion with MPI&#45;enabled PFASST. ">
<polygon fill="white" stroke="black" points="289.5,-0.5 289.5,-30.5 416.5,-30.5 416.5,-0.5 289.5,-0.5"/>
<text text-anchor="start" x="297.5" y="-18.5" font-family="Helvetica,sans-Serif" font-size="10.00">examples/advection</text>
<text text-anchor="middle" x="353" y="-7.5" font-family="Helvetica,sans-Serif" font-size="10.00">_diffusion/mpi_pfasst.cpp</text>
</a>
</g>
</g>
<!-- Node5&#45;&gt;Node6 -->
<g id="edge6" class="edge"><title>Node5&#45;&gt;Node6</title>
<path fill="none" stroke="midnightblue" d="M350.101,-57.3757C350.751,-48.214 351.437,-38.5319 351.979,-30.8916"/>
<polygon fill="midnightblue" stroke="midnightblue" points="346.609,-57.1392 349.393,-67.3618 353.592,-57.6345 346.609,-57.1392"/>
</g>
<!-- Node7 -->
<g id="node7" class="node"><title>Node7</title>
<g id="a_node7"><a xlink:href="../../d9/d86/serial__mlsdc_8cpp.html" target="_top" xlink:title="Advection&#45;Diffusion with serial MLSDC. ">
<polygon fill="white" stroke="black" points="434.5,-0.5 434.5,-30.5 571.5,-30.5 571.5,-0.5 434.5,-0.5"/>
<text text-anchor="start" x="442.5" y="-18.5" font-family="Helvetica,sans-Serif" font-size="10.00">examples/advection</text>
<text text-anchor="middle" x="503" y="-7.5" font-family="Helvetica,sans-Serif" font-size="10.00">_diffusion/serial_mlsdc.cpp</text>
</a>
</g>
</g>
<!-- Node5&#45;&gt;Node7 -->
<g id="edge7" class="edge"><title>Node5&#45;&gt;Node7</title>
<path fill="none" stroke="midnightblue" d="M400.417,-63.1587C424.149,-52.3643 451.399,-39.9701 471.846,-30.67"/>
<polygon fill="midnightblue" stroke="midnightblue" points="398.83,-60.0356 391.176,-67.3618 401.728,-66.4075 398.83,-60.0356"/>
</g>
<!-- Node8 -->
<g id="node8" class="node"><title>Node8</title>
<g id="a_node8"><a xlink:href="../../d4/df0/vanilla__sdc_8cpp.html" target="_top" xlink:title="Advection&#45;Diffusion with vanilla SDC. ">
<polygon fill="white" stroke="black" points="140.5,-0.5 140.5,-30.5 271.5,-30.5 271.5,-0.5 140.5,-0.5"/>
<text text-anchor="start" x="148.5" y="-18.5" font-family="Helvetica,sans-Serif" font-size="10.00">examples/advection</text>
<text text-anchor="middle" x="206" y="-7.5" font-family="Helvetica,sans-Serif" font-size="10.00">_diffusion/vanilla_sdc.cpp</text>
</a>
</g>
</g>
<!-- Node5&#45;&gt;Node8 -->
<g id="edge8" class="edge"><title>Node5&#45;&gt;Node8</title>
<path fill="none" stroke="midnightblue" d="M299.401,-62.8718C277.796,-52.1452 253.107,-39.8878 234.541,-30.67"/>
<polygon fill="midnightblue" stroke="midnightblue" points="297.932,-66.0498 308.445,-67.3618 301.045,-59.78 297.932,-66.0498"/>
</g>
<!-- Node10 -->
<g id="node10" class="node"><title>Node10</title>
<g id="a_node10"><a xlink:href="../../d2/daf/scalar__sdc_8cpp.html" target="_top" xlink:title="Scalar test equation example using an encapsulated IMEX sweeper. ">
<polygon fill="white" stroke="black" points="0,-0.5 0,-30.5 122,-30.5 122,-0.5 0,-0.5"/>
<text text-anchor="start" x="8" y="-18.5" font-family="Helvetica,sans-Serif" font-size="10.00">examples/scalar/scalar</text>
<text text-anchor="middle" x="61" y="-7.5" font-family="Helvetica,sans-Serif" font-size="10.00">_sdc.cpp</text>
</a>
</g>
</g>
<!-- Node9&#45;&gt;Node10 -->
<g id="edge10" class="edge"><title>Node9&#45;&gt;Node10</title>
<path fill="none" stroke="midnightblue" d="M64.2788,-62.7317C63.5225,-52.0679 62.6606,-39.9145 62.0103,-30.7455"/>
<polygon fill="midnightblue" stroke="midnightblue" points="60.7894,-63.006 64.9882,-72.7333 67.7719,-62.5107 60.7894,-63.006"/>
</g>
<!-- Node12 -->
<g id="node12" class="node"><title>Node12</title>
<g id="a_node12"><a xlink:href="../../dd/d8c/implicit__sweeper__impl_8hpp.html" target="_top" xlink:title="src/pfasst/encap/implicit\l_sweeper_impl.hpp">
<polygon fill="white" stroke="black" points="680.5,-145.5 680.5,-175.5 803.5,-175.5 803.5,-145.5 680.5,-145.5"/>
<text text-anchor="start" x="688.5" y="-163.5" font-family="Helvetica,sans-Serif" font-size="10.00">src/pfasst/encap/implicit</text>
<text text-anchor="middle" x="742" y="-152.5" font-family="Helvetica,sans-Serif" font-size="10.00">_sweeper_impl.hpp</text>
</a>
</g>
</g>
<!-- Node11&#45;&gt;Node12 -->
<g id="edge12" class="edge"><title>Node11&#45;&gt;Node12</title>
<path fill="none" stroke="midnightblue" d="M710.431,-203.283C715.474,-194.022 721.964,-183.663 727.879,-175.577"/>
<polygon fill="midnightblue" stroke="midnightblue" points="707.209,-201.897 705.784,-212.396 713.445,-205.077 707.209,-201.897"/>
</g>
<!-- Node13 -->
<g id="node13" class="node"><title>Node13</title>
<g id="a_node13"><a xlink:href="../../d6/d93/vdp__sweeper_8hpp.html" target="_top" xlink:title="examples/vanderpol\l/vdp_sweeper.hpp">
<polygon fill="white" stroke="black" points="553.5,-145.5 553.5,-175.5 662.5,-175.5 662.5,-145.5 553.5,-145.5"/>
<text text-anchor="start" x="561.5" y="-163.5" font-family="Helvetica,sans-Serif" font-size="10.00">examples/vanderpol</text>
<text text-anchor="middle" x="608" y="-152.5" font-family="Helvetica,sans-Serif" font-size="10.00">/vdp_sweeper.hpp</text>
</a>
</g>
</g>
<!-- Node11&#45;&gt;Node13 -->
<g id="edge14" class="edge"><title>Node11&#45;&gt;Node13</title>
<path fill="none" stroke="midnightblue" d="M674.111,-206.734C659.41,-196.676 641.885,-184.685 628.573,-175.577"/>
<polygon fill="midnightblue" stroke="midnightblue" points="672.157,-209.638 682.386,-212.396 676.11,-203.861 672.157,-209.638"/>
</g>
<!-- Node12&#45;&gt;Node11 -->
<g id="edge13" class="edge"><title>Node12&#45;&gt;Node11</title>
<path fill="none" stroke="midnightblue" d="M734.586,-184.685C729.546,-193.944 723.057,-204.304 717.141,-212.396"/>
<polygon fill="midnightblue" stroke="midnightblue" points="737.806,-186.075 739.229,-175.577 731.569,-182.897 737.806,-186.075"/>
</g>
<!-- Node14 -->
<g id="node14" class="node"><title>Node14</title>
<g id="a_node14"><a xlink:href="../../df/de7/vdp__sdc_8cpp.html" target="_top" xlink:title="examples/vanderpol\l/vdp_sdc.cpp">
<polygon fill="white" stroke="black" points="553.5,-73 553.5,-103 662.5,-103 662.5,-73 553.5,-73"/>
<text text-anchor="start" x="561.5" y="-91" font-family="Helvetica,sans-Serif" font-size="10.00">examples/vanderpol</text>
<text text-anchor="middle" x="608" y="-80" font-family="Helvetica,sans-Serif" font-size="10.00">/vdp_sdc.cpp</text>
</a>
</g>
</g>
<!-- Node13&#45;&gt;Node14 -->
<g id="edge15" class="edge"><title>Node13&#45;&gt;Node14</title>
<path fill="none" stroke="midnightblue" d="M608,-135.232C608,-124.568 608,-112.414 608,-103.246"/>
<polygon fill="midnightblue" stroke="midnightblue" points="604.5,-135.233 608,-145.233 611.5,-135.233 604.5,-135.233"/>
</g>
<!-- Node16 -->
<g id="node16" class="node"><title>Node16</title>
<g id="a_node16"><a xlink:href="../../d0/d45/poly__interp_8hpp.html" target="_top" xlink:title="include/pfasst/encap\l/poly_interp.hpp">
<polygon fill="white" stroke="black" points="426.5,-145.5 426.5,-175.5 535.5,-175.5 535.5,-145.5 426.5,-145.5"/>
<text text-anchor="start" x="434.5" y="-163.5" font-family="Helvetica,sans-Serif" font-size="10.00">include/pfasst/encap</text>
<text text-anchor="middle" x="481" y="-152.5" font-family="Helvetica,sans-Serif" font-size="10.00">/poly_interp.hpp</text>
</a>
</g>
</g>
<!-- Node15&#45;&gt;Node16 -->
<g id="edge18" class="edge"><title>Node15&#45;&gt;Node16</title>
<path fill="none" stroke="midnightblue" d="M474.455,-202.403C474.005,-193.37 474.296,-183.408 475.325,-175.577"/>
<polygon fill="midnightblue" stroke="midnightblue" points="470.97,-202.736 475.322,-212.396 477.944,-202.131 470.97,-202.736"/>
</g>
<!-- Node16&#45;&gt;Node15 -->
<g id="edge19" class="edge"><title>Node16&#45;&gt;Node15</title>
<path fill="none" stroke="midnightblue" d="M487.544,-185.565C487.995,-194.596 487.706,-204.56 486.678,-212.396"/>
<polygon fill="midnightblue" stroke="midnightblue" points="491.028,-185.236 486.675,-175.577 484.055,-185.842 491.028,-185.236"/>
</g>
<!-- Node17 -->
<g id="node17" class="node"><title>Node17</title>
<g id="a_node17"><a xlink:href="../../d0/dbe/spectral__transfer__1d_8hpp.html" target="_top" xlink:title="examples/advection\l_diffusion/spectral\l_transfer_1d.hpp">
<polygon fill="white" stroke="black" points="427,-67.5 427,-108.5 535,-108.5 535,-67.5 427,-67.5"/>
<text text-anchor="start" x="435" y="-96.5" font-family="Helvetica,sans-Serif" font-size="10.00">examples/advection</text>
<text text-anchor="start" x="435" y="-85.5" font-family="Helvetica,sans-Serif" font-size="10.00">_diffusion/spectral</text>
<text text-anchor="middle" x="481" y="-74.5" font-family="Helvetica,sans-Serif" font-size="10.00">_transfer_1d.hpp</text>
</a>
</g>
</g>
<!-- Node16&#45;&gt;Node17 -->
<g id="edge20" class="edge"><title>Node16&#45;&gt;Node17</title>
<path fill="none" stroke="midnightblue" d="M481,-134.982C481,-126.347 481,-116.762 481,-108.588"/>
<polygon fill="midnightblue" stroke="midnightblue" points="477.5,-135.233 481,-145.233 484.5,-135.233 477.5,-135.233"/>
</g>
<!-- Node17&#45;&gt;Node6 -->
<g id="edge21" class="edge"><title>Node17&#45;&gt;Node6</title>
<path fill="none" stroke="midnightblue" d="M436.409,-62.44C417.122,-51.8174 395.239,-39.7643 378.727,-30.67"/>
<polygon fill="midnightblue" stroke="midnightblue" points="434.897,-65.6031 445.345,-67.3618 438.274,-59.4716 434.897,-65.6031"/>
</g>
<!-- Node17&#45;&gt;Node7 -->
<g id="edge22" class="edge"><title>Node17&#45;&gt;Node7</title>
<path fill="none" stroke="midnightblue" d="M490.152,-57.6711C493.038,-48.4225 496.099,-38.6141 498.509,-30.8916"/>
<polygon fill="midnightblue" stroke="midnightblue" points="486.766,-56.7732 487.128,-67.3618 493.448,-58.8584 486.766,-56.7732"/>
</g>
<!-- Node19 -->
<g id="node19" class="node"><title>Node19</title>
<g id="a_node19"><a xlink:href="../../d7/d31/boris__mlsdc_8cpp.html" target="_top" xlink:title="examples/boris/boris\l_mlsdc.cpp">
<polygon fill="white" stroke="black" points="961,-0.5 961,-30.5 1071,-30.5 1071,-0.5 961,-0.5"/>
<text text-anchor="start" x="969" y="-18.5" font-family="Helvetica,sans-Serif" font-size="10.00">examples/boris/boris</text>
<text text-anchor="middle" x="1016" y="-7.5" font-family="Helvetica,sans-Serif" font-size="10.00">_mlsdc.cpp</text>
</a>
</g>
</g>
<!-- Node18&#45;&gt;Node19 -->
<g id="edge24" class="edge"><title>Node18&#45;&gt;Node19</title>
<path fill="none" stroke="midnightblue" d="M942.048,-150.178C967.287,-143.128 993.933,-130.745 1010,-109 1027.02,-85.9615 1023.27,-50.2409 1019.41,-30.6124"/>
<polygon fill="midnightblue" stroke="midnightblue" points="940.926,-146.852 932.1,-152.713 942.654,-153.636 940.926,-146.852"/>
</g>
<!-- Node18&#45;&gt;Node20 -->
<g id="edge25" class="edge"><title>Node18&#45;&gt;Node20</title>
<path fill="none" stroke="midnightblue" d="M867.632,-184.393C861.708,-193.725 854.176,-204.219 847.443,-212.396"/>
<polygon fill="midnightblue" stroke="midnightblue" points="870.779,-185.951 872.93,-175.577 864.779,-182.345 870.779,-185.951"/>
</g>
<!-- Node21 -->
<g id="node21" class="node"><title>Node21</title>
<g id="a_node21"><a xlink:href="../../d2/dc5/injective__transfer_8hpp.html" target="_top" xlink:title="examples/boris/injective\l_transfer.hpp">
<polygon fill="white" stroke="black" points="876.5,-73 876.5,-103 1001.5,-103 1001.5,-73 876.5,-73"/>
<text text-anchor="start" x="884.5" y="-91" font-family="Helvetica,sans-Serif" font-size="10.00">examples/boris/injective</text>
<text text-anchor="middle" x="939" y="-80" font-family="Helvetica,sans-Serif" font-size="10.00">_transfer.hpp</text>
</a>
</g>
</g>
<!-- Node18&#45;&gt;Node21 -->
<g id="edge27" class="edge"><title>Node18&#45;&gt;Node21</title>
<path fill="none" stroke="midnightblue" d="M896.313,-137.539C906.148,-126.356 917.821,-113.083 926.472,-103.246"/>
<polygon fill="midnightblue" stroke="midnightblue" points="893.522,-135.413 889.547,-145.233 898.779,-140.035 893.522,-135.413"/>
</g>
<!-- Node22 -->
<g id="node22" class="node"><title>Node22</title>
<g id="a_node22"><a xlink:href="../../d2/d1e/boris__pfasst_8cpp.html" target="_top" xlink:title="examples/boris/boris\l_pfasst.cpp">
<polygon fill="white" stroke="black" points="806,-0.5 806,-30.5 916,-30.5 916,-0.5 806,-0.5"/>
<text text-anchor="start" x="814" y="-18.5" font-family="Helvetica,sans-Serif" font-size="10.00">examples/boris/boris</text>
<text text-anchor="middle" x="861" y="-7.5" font-family="Helvetica,sans-Serif" font-size="10.00">_pfasst.cpp</text>
</a>
</g>
</g>
<!-- Node18&#45;&gt;Node22 -->
<g id="edge30" class="edge"><title>Node18&#45;&gt;Node22</title>
<path fill="none" stroke="midnightblue" d="M871.596,-135.572C869.884,-127.205 868.142,-117.724 867,-109 863.387,-81.3949 861.917,-48.8569 861.344,-30.6598"/>
<polygon fill="midnightblue" stroke="midnightblue" points="868.19,-136.384 873.701,-145.433 875.036,-134.922 868.19,-136.384"/>
</g>
<!-- Node23 -->
<g id="node23" class="node"><title>Node23</title>
<g id="a_node23"><a xlink:href="../../d3/d93/boris__sdc_8cpp.html" target="_top" xlink:title="examples/boris/boris\l_sdc.cpp">
<polygon fill="white" stroke="black" points="710,-73 710,-103 820,-103 820,-73 710,-73"/>
<text text-anchor="start" x="718" y="-91" font-family="Helvetica,sans-Serif" font-size="10.00">examples/boris/boris</text>
<text text-anchor="middle" x="765" y="-80" font-family="Helvetica,sans-Serif" font-size="10.00">_sdc.cpp</text>
</a>
</g>
</g>
<!-- Node18&#45;&gt;Node23 -->
<g id="edge31" class="edge"><title>Node18&#45;&gt;Node23</title>
<path fill="none" stroke="midnightblue" d="M845.898,-139.922C827.313,-128.224 804.134,-113.634 787.357,-103.073"/>
<polygon fill="midnightblue" stroke="midnightblue" points="844.277,-143.038 854.604,-145.403 848.006,-137.113 844.277,-143.038"/>
</g>
<!-- Node20&#45;&gt;Node18 -->
<g id="edge26" class="edge"><title>Node20&#45;&gt;Node18</title>
<path fill="none" stroke="midnightblue" d="M841.388,-203.576C847.315,-194.241 854.848,-183.748 861.58,-175.577"/>
<polygon fill="midnightblue" stroke="midnightblue" points="838.238,-202.022 836.086,-212.396 844.238,-205.629 838.238,-202.022"/>
</g>
<!-- Node21&#45;&gt;Node19 -->
<g id="edge28" class="edge"><title>Node21&#45;&gt;Node19</title>
<path fill="none" stroke="midnightblue" d="M961.975,-65.964C974.492,-54.5043 989.638,-40.637 1000.7,-30.5049"/>
<polygon fill="midnightblue" stroke="midnightblue" points="959.594,-63.3989 954.582,-72.7333 964.321,-68.5618 959.594,-63.3989"/>
</g>
<!-- Node21&#45;&gt;Node22 -->
<g id="edge29" class="edge"><title>Node21&#45;&gt;Node22</title>
<path fill="none" stroke="midnightblue" d="M915.726,-65.964C903.047,-54.5043 887.705,-40.637 876.495,-30.5049"/>
<polygon fill="midnightblue" stroke="midnightblue" points="913.45,-68.6244 923.216,-72.7333 918.144,-63.4313 913.45,-68.6244"/>
</g>
</g>
</svg>
