<?xml version="1.0" encoding="UTF-8" standalone="no"?>
<!DOCTYPE svg PUBLIC "-//W3C//DTD SVG 1.1//EN"
 "http://www.w3.org/Graphics/SVG/1.1/DTD/svg11.dtd">
<!-- Generated by graphviz version 2.38.0 (20140413.2041)
 -->
<!-- Title: HighPrecisionTest Pages: 1 -->
<svg width="169pt" height="270pt"
 viewBox="0.00 0.00 169.00 270.00" xmlns="http://www.w3.org/2000/svg" xmlns:xlink="http://www.w3.org/1999/xlink">
<g id="graph0" class="graph" transform="scale(1 1) rotate(0) translate(4 266)">
<title>HighPrecisionTest</title>
<polygon fill="white" stroke="none" points="-4,4 -4,-266 165,-266 165,4 -4,4"/>
<!-- Node1 -->
<g id="node1" class="node"><title>Node1</title>
<polygon fill="#bfbfbf" stroke="black" points="30,-0.5 30,-156.5 131,-156.5 131,-0.5 30,-0.5"/>
<text text-anchor="middle" x="80.5" y="-144.5" font-family="Helvetica,sans-Serif" font-size="10.00">HighPrecisionTest</text>
<polyline fill="none" stroke="black" points="30,-137.5 131,-137.5 "/>
<text text-anchor="start" x="38" y="-125.5" font-family="Helvetica,sans-Serif" font-size="10.00"># nodetype</text>
<text text-anchor="start" x="38" y="-114.5" font-family="Helvetica,sans-Serif" font-size="10.00"># lambda</text>
<text text-anchor="start" x="38" y="-103.5" font-family="Helvetica,sans-Serif" font-size="10.00"># dt</text>
<text text-anchor="start" x="38" y="-92.5" font-family="Helvetica,sans-Serif" font-size="10.00"># nsteps</text>
<text text-anchor="start" x="38" y="-81.5" font-family="Helvetica,sans-Serif" font-size="10.00"># niters</text>
<text text-anchor="start" x="38" y="-70.5" font-family="Helvetica,sans-Serif" font-size="10.00"># nnodes</text>
<text text-anchor="start" x="38" y="-59.5" font-family="Helvetica,sans-Serif" font-size="10.00"># nnodes_in_call</text>
<text text-anchor="start" x="38" y="-48.5" font-family="Helvetica,sans-Serif" font-size="10.00"># err</text>
<polyline fill="none" stroke="black" points="30,-41.5 131,-41.5 "/>
<text text-anchor="start" x="38" y="-29.5" font-family="Helvetica,sans-Serif" font-size="10.00">+ SetUp()</text>
<text text-anchor="start" x="38" y="-18.5" font-family="Helvetica,sans-Serif" font-size="10.00">+ TearDown()</text>
<text text-anchor="start" x="38" y="-7.5" font-family="Helvetica,sans-Serif" font-size="10.00"># set_parameters()</text>
</g>
<!-- Node2 -->
<g id="node2" class="node"><title>Node2</title>
<polygon fill="white" stroke="#bfbfbf" points="0,-193.5 0,-261.5 161,-261.5 161,-193.5 0,-193.5"/>
<text text-anchor="start" x="8" y="-249.5" font-family="Helvetica,sans-Serif" font-size="10.00">TestWithParam&lt; pfasst</text>
<text text-anchor="middle" x="80.5" y="-238.5" font-family="Helvetica,sans-Serif" font-size="10.00">::quadrature::QuadratureType &gt;</text>
<polyline fill="none" stroke="#bfbfbf" points="0,-231.5 161,-231.5 "/>
<text text-anchor="middle" x="80.5" y="-219.5" font-family="Helvetica,sans-Serif" font-size="10.00"> </text>
<polyline fill="none" stroke="#bfbfbf" points="0,-212.5 161,-212.5 "/>
<text text-anchor="middle" x="80.5" y="-200.5" font-family="Helvetica,sans-Serif" font-size="10.00"> </text>
</g>
<!-- Node2&#45;&gt;Node1 -->
<g id="edge1" class="edge"><title>Node2&#45;&gt;Node1</title>
<path fill="none" stroke="midnightblue" d="M80.5,-183C80.5,-174.7 80.5,-165.784 80.5,-156.792"/>
<polygon fill="none" stroke="midnightblue" points="77.0001,-183.143 80.5,-193.143 84.0001,-183.143 77.0001,-183.143"/>
</g>
</g>
</svg>
