<?xml version="1.0" encoding="UTF-8" standalone="no"?>
<!DOCTYPE svg PUBLIC "-//W3C//DTD SVG 1.1//EN"
 "http://www.w3.org/Graphics/SVG/1.1/DTD/svg11.dtd">
<!-- Generated by graphviz version 2.38.0 (20140413.2041)
 -->
<!-- Title: pfasst::PFASST&lt; time &gt; Pages: 1 -->
<svg width="464pt" height="1607pt"
 viewBox="0.00 0.00 464.00 1607.00" xmlns="http://www.w3.org/2000/svg" xmlns:xlink="http://www.w3.org/1999/xlink">
<g id="graph0" class="graph" transform="scale(1 1) rotate(0) translate(4 1603)">
<title>pfasst::PFASST&lt; time &gt;</title>
<polygon fill="white" stroke="none" points="-4,4 -4,-1603 460,-1603 460,4 -4,4"/>
<!-- Node1 -->
<g id="node1" class="node"><title>Node1</title>
<polygon fill="#bfbfbf" stroke="black" points="300,-0.5 300,-233.5 426,-233.5 426,-0.5 300,-0.5"/>
<text text-anchor="middle" x="363" y="-221.5" font-family="Helvetica,sans-Serif" font-size="10.00">pfasst::PFASST&lt; time &gt;</text>
<polyline fill="none" stroke="black" points="300,-214.5 426,-214.5 "/>
<text text-anchor="start" x="308" y="-202.5" font-family="Helvetica,sans-Serif" font-size="10.00">&#45; predict</text>
<polyline fill="none" stroke="black" points="300,-195.5 426,-195.5 "/>
<text text-anchor="start" x="308" y="-183.5" font-family="Helvetica,sans-Serif" font-size="10.00">+ run()</text>
<text text-anchor="start" x="308" y="-172.5" font-family="Helvetica,sans-Serif" font-size="10.00">&#45; perform_sweeps()</text>
<text text-anchor="start" x="308" y="-161.5" font-family="Helvetica,sans-Serif" font-size="10.00">&#45; cycle_down()</text>
<text text-anchor="start" x="308" y="-150.5" font-family="Helvetica,sans-Serif" font-size="10.00">&#45; cycle_up()</text>
<text text-anchor="start" x="308" y="-139.5" font-family="Helvetica,sans-Serif" font-size="10.00">&#45; cycle_bottom()</text>
<text text-anchor="start" x="308" y="-128.5" font-family="Helvetica,sans-Serif" font-size="10.00">&#45; cycle_v()</text>
<text text-anchor="start" x="308" y="-117.5" font-family="Helvetica,sans-Serif" font-size="10.00">&#45; predictor()</text>
<text text-anchor="start" x="308" y="-106.5" font-family="Helvetica,sans-Serif" font-size="10.00">* cycle_down()</text>
<text text-anchor="start" x="308" y="-95.5" font-family="Helvetica,sans-Serif" font-size="10.00">* cycle_up()</text>
<text text-anchor="start" x="308" y="-84.5" font-family="Helvetica,sans-Serif" font-size="10.00">* cycle_bottom()</text>
<text text-anchor="start" x="308" y="-73.5" font-family="Helvetica,sans-Serif" font-size="10.00">* cycle_v()</text>
<text text-anchor="start" x="308" y="-62.5" font-family="Helvetica,sans-Serif" font-size="10.00">* predictor()</text>
<text text-anchor="start" x="308" y="-51.5" font-family="Helvetica,sans-Serif" font-size="10.00">* broadcast()</text>
<text text-anchor="start" x="308" y="-40.5" font-family="Helvetica,sans-Serif" font-size="10.00">* tag()</text>
<text text-anchor="start" x="308" y="-29.5" font-family="Helvetica,sans-Serif" font-size="10.00">* stag()</text>
<text text-anchor="start" x="308" y="-18.5" font-family="Helvetica,sans-Serif" font-size="10.00">* post()</text>
<text text-anchor="start" x="308" y="-7.5" font-family="Helvetica,sans-Serif" font-size="10.00">* set_comm()</text>
</g>
<!-- Node2 -->
<g id="node2" class="node"><title>Node2</title>
<g id="a_node2"><a xlink:href="../../db/d56/classpfasst_1_1MLSDC.html" target="_top" xlink:title="Multilevel SDC controller. ">
<polygon fill="white" stroke="black" points="200.5,-281.5 200.5,-437.5 321.5,-437.5 321.5,-281.5 200.5,-281.5"/>
<text text-anchor="middle" x="261" y="-425.5" font-family="Helvetica,sans-Serif" font-size="10.00">pfasst::MLSDC&lt; time &gt;</text>
<polyline fill="none" stroke="black" points="200.5,-418.5 321.5,-418.5 "/>
<text text-anchor="start" x="208.5" y="-406.5" font-family="Helvetica,sans-Serif" font-size="10.00"># predict</text>
<text text-anchor="start" x="208.5" y="-395.5" font-family="Helvetica,sans-Serif" font-size="10.00"># initial</text>
<text text-anchor="start" x="208.5" y="-384.5" font-family="Helvetica,sans-Serif" font-size="10.00"># converged</text>
<polyline fill="none" stroke="black" points="200.5,-377.5 321.5,-377.5 "/>
<text text-anchor="start" x="208.5" y="-365.5" font-family="Helvetica,sans-Serif" font-size="10.00">+ setup()</text>
<text text-anchor="start" x="208.5" y="-354.5" font-family="Helvetica,sans-Serif" font-size="10.00">+ set_nsweeps()</text>
<text text-anchor="start" x="208.5" y="-343.5" font-family="Helvetica,sans-Serif" font-size="10.00">+ run()</text>
<text text-anchor="start" x="208.5" y="-332.5" font-family="Helvetica,sans-Serif" font-size="10.00"># perform_sweeps()</text>
<text text-anchor="start" x="208.5" y="-321.5" font-family="Helvetica,sans-Serif" font-size="10.00">&#45; cycle_down()</text>
<text text-anchor="start" x="208.5" y="-310.5" font-family="Helvetica,sans-Serif" font-size="10.00">&#45; cycle_up()</text>
<text text-anchor="start" x="208.5" y="-299.5" font-family="Helvetica,sans-Serif" font-size="10.00">&#45; cycle_bottom()</text>
<text text-anchor="start" x="208.5" y="-288.5" font-family="Helvetica,sans-Serif" font-size="10.00">&#45; cycle_v()</text>
</a>
</g>
</g>
<!-- Node2&#45;&gt;Node1 -->
<g id="edge1" class="edge"><title>Node2&#45;&gt;Node1</title>
<path fill="none" stroke="midnightblue" d="M297.688,-271.996C302.972,-259.536 308.48,-246.551 313.957,-233.636"/>
<polygon fill="none" stroke="midnightblue" points="294.377,-270.839 293.694,-281.412 300.821,-273.572 294.377,-270.839"/>
</g>
<!-- Node3 -->
<g id="node3" class="node"><title>Node3</title>
<g id="a_node3"><a xlink:href="../../d4/da9/classpfasst_1_1Controller.html" target="_top" xlink:title="Base SDC/MLSDC/PFASST controller. ">
<polygon fill="white" stroke="black" points="133,-475.5 133,-1203.5 249,-1203.5 249,-475.5 133,-475.5"/>
<text text-anchor="start" x="141" y="-1191.5" font-family="Helvetica,sans-Serif" font-size="10.00">pfasst::Controller</text>
<text text-anchor="middle" x="191" y="-1180.5" font-family="Helvetica,sans-Serif" font-size="10.00">&lt; time &gt;</text>
<polyline fill="none" stroke="black" points="133,-1173.5 249,-1173.5 "/>
<text text-anchor="start" x="141" y="-1161.5" font-family="Helvetica,sans-Serif" font-size="10.00"># step</text>
<text text-anchor="start" x="141" y="-1150.5" font-family="Helvetica,sans-Serif" font-size="10.00"># iteration</text>
<text text-anchor="start" x="141" y="-1139.5" font-family="Helvetica,sans-Serif" font-size="10.00"># max_iterations</text>
<text text-anchor="start" x="141" y="-1128.5" font-family="Helvetica,sans-Serif" font-size="10.00"># t</text>
<text text-anchor="start" x="141" y="-1117.5" font-family="Helvetica,sans-Serif" font-size="10.00"># dt</text>
<text text-anchor="start" x="141" y="-1106.5" font-family="Helvetica,sans-Serif" font-size="10.00"># tend</text>
<polyline fill="none" stroke="black" points="133,-1099.5 249,-1099.5 "/>
<text text-anchor="start" x="141" y="-1087.5" font-family="Helvetica,sans-Serif" font-size="10.00">+ Controller()</text>
<text text-anchor="start" x="141" y="-1076.5" font-family="Helvetica,sans-Serif" font-size="10.00">+ ~Controller()</text>
<text text-anchor="start" x="141" y="-1065.5" font-family="Helvetica,sans-Serif" font-size="10.00">+ set_options()</text>
<text text-anchor="start" x="141" y="-1054.5" font-family="Helvetica,sans-Serif" font-size="10.00">+ setup()</text>
<text text-anchor="start" x="141" y="-1043.5" font-family="Helvetica,sans-Serif" font-size="10.00">+ set_duration()</text>
<text text-anchor="start" x="141" y="-1032.5" font-family="Helvetica,sans-Serif" font-size="10.00">+ add_level()</text>
<text text-anchor="start" x="141" y="-1021.5" font-family="Helvetica,sans-Serif" font-size="10.00">+ nlevels()</text>
<text text-anchor="start" x="141" y="-1010.5" font-family="Helvetica,sans-Serif" font-size="10.00">+ get_level()</text>
<text text-anchor="start" x="141" y="-999.5" font-family="Helvetica,sans-Serif" font-size="10.00">+ get_finest()</text>
<text text-anchor="start" x="141" y="-988.5" font-family="Helvetica,sans-Serif" font-size="10.00">+ get_coarsest()</text>
<text text-anchor="start" x="141" y="-977.5" font-family="Helvetica,sans-Serif" font-size="10.00">+ get_transfer()</text>
<text text-anchor="start" x="141" y="-966.5" font-family="Helvetica,sans-Serif" font-size="10.00">+ get_step()</text>
<text text-anchor="start" x="141" y="-955.5" font-family="Helvetica,sans-Serif" font-size="10.00">+ set_step()</text>
<text text-anchor="start" x="141" y="-944.5" font-family="Helvetica,sans-Serif" font-size="10.00">+ get_step_size()</text>
<text text-anchor="start" x="141" y="-933.5" font-family="Helvetica,sans-Serif" font-size="10.00">+ get_dt()</text>
<text text-anchor="start" x="141" y="-922.5" font-family="Helvetica,sans-Serif" font-size="10.00">+ get_time()</text>
<text text-anchor="start" x="141" y="-911.5" font-family="Helvetica,sans-Serif" font-size="10.00">+ get_t()</text>
<text text-anchor="start" x="141" y="-900.5" font-family="Helvetica,sans-Serif" font-size="10.00">+ advance_time()</text>
<text text-anchor="start" x="141" y="-889.5" font-family="Helvetica,sans-Serif" font-size="10.00">+ get_end_time()</text>
<text text-anchor="start" x="141" y="-878.5" font-family="Helvetica,sans-Serif" font-size="10.00">+ get_iteration()</text>
<text text-anchor="start" x="141" y="-867.5" font-family="Helvetica,sans-Serif" font-size="10.00">+ set_iteration()</text>
<text text-anchor="start" x="141" y="-856.5" font-family="Helvetica,sans-Serif" font-size="10.00">+ advance_iteration()</text>
<text text-anchor="start" x="141" y="-845.5" font-family="Helvetica,sans-Serif" font-size="10.00">+ get_max_iterations()</text>
<text text-anchor="start" x="141" y="-834.5" font-family="Helvetica,sans-Serif" font-size="10.00">+ finest()</text>
<text text-anchor="start" x="141" y="-823.5" font-family="Helvetica,sans-Serif" font-size="10.00">+ coarsest()</text>
<text text-anchor="start" x="141" y="-812.5" font-family="Helvetica,sans-Serif" font-size="10.00">* step</text>
<text text-anchor="start" x="141" y="-801.5" font-family="Helvetica,sans-Serif" font-size="10.00">* iteration</text>
<text text-anchor="start" x="141" y="-790.5" font-family="Helvetica,sans-Serif" font-size="10.00">* max_iterations</text>
<text text-anchor="start" x="141" y="-779.5" font-family="Helvetica,sans-Serif" font-size="10.00">* t</text>
<text text-anchor="start" x="141" y="-768.5" font-family="Helvetica,sans-Serif" font-size="10.00">* dt</text>
<text text-anchor="start" x="141" y="-757.5" font-family="Helvetica,sans-Serif" font-size="10.00">* tend</text>
<text text-anchor="start" x="141" y="-746.5" font-family="Helvetica,sans-Serif" font-size="10.00">* Controller()</text>
<text text-anchor="start" x="141" y="-735.5" font-family="Helvetica,sans-Serif" font-size="10.00">* ~Controller()</text>
<text text-anchor="start" x="141" y="-724.5" font-family="Helvetica,sans-Serif" font-size="10.00">* set_options()</text>
<text text-anchor="start" x="141" y="-713.5" font-family="Helvetica,sans-Serif" font-size="10.00">* setup()</text>
<text text-anchor="start" x="141" y="-702.5" font-family="Helvetica,sans-Serif" font-size="10.00">* set_duration()</text>
<text text-anchor="start" x="141" y="-691.5" font-family="Helvetica,sans-Serif" font-size="10.00">* add_level()</text>
<text text-anchor="start" x="141" y="-680.5" font-family="Helvetica,sans-Serif" font-size="10.00">* nlevels()</text>
<text text-anchor="start" x="141" y="-669.5" font-family="Helvetica,sans-Serif" font-size="10.00">* get_level()</text>
<text text-anchor="start" x="141" y="-658.5" font-family="Helvetica,sans-Serif" font-size="10.00">* get_finest()</text>
<text text-anchor="start" x="141" y="-647.5" font-family="Helvetica,sans-Serif" font-size="10.00">* get_coarsest()</text>
<text text-anchor="start" x="141" y="-636.5" font-family="Helvetica,sans-Serif" font-size="10.00">* get_transfer()</text>
<text text-anchor="start" x="141" y="-625.5" font-family="Helvetica,sans-Serif" font-size="10.00">* get_step()</text>
<text text-anchor="start" x="141" y="-614.5" font-family="Helvetica,sans-Serif" font-size="10.00">* set_step()</text>
<text text-anchor="start" x="141" y="-603.5" font-family="Helvetica,sans-Serif" font-size="10.00">* get_step_size()</text>
<text text-anchor="start" x="141" y="-592.5" font-family="Helvetica,sans-Serif" font-size="10.00">* get_dt()</text>
<text text-anchor="start" x="141" y="-581.5" font-family="Helvetica,sans-Serif" font-size="10.00">* get_time()</text>
<text text-anchor="start" x="141" y="-570.5" font-family="Helvetica,sans-Serif" font-size="10.00">* get_t()</text>
<text text-anchor="start" x="141" y="-559.5" font-family="Helvetica,sans-Serif" font-size="10.00">* advance_time()</text>
<text text-anchor="start" x="141" y="-548.5" font-family="Helvetica,sans-Serif" font-size="10.00">* get_end_time()</text>
<text text-anchor="start" x="141" y="-537.5" font-family="Helvetica,sans-Serif" font-size="10.00">* get_iteration()</text>
<text text-anchor="start" x="141" y="-526.5" font-family="Helvetica,sans-Serif" font-size="10.00">* set_iteration()</text>
<text text-anchor="start" x="141" y="-515.5" font-family="Helvetica,sans-Serif" font-size="10.00">* advance_iteration()</text>
<text text-anchor="start" x="141" y="-504.5" font-family="Helvetica,sans-Serif" font-size="10.00">* get_max_iterations()</text>
<text text-anchor="start" x="141" y="-493.5" font-family="Helvetica,sans-Serif" font-size="10.00">* finest()</text>
<text text-anchor="start" x="141" y="-482.5" font-family="Helvetica,sans-Serif" font-size="10.00">* coarsest()</text>
</a>
</g>
</g>
<!-- Node3&#45;&gt;Node2 -->
<g id="edge2" class="edge"><title>Node3&#45;&gt;Node2</title>
<path fill="none" stroke="midnightblue" d="M245.676,-465.143C247.081,-455.544 248.425,-446.373 249.69,-437.733"/>
<polygon fill="none" stroke="midnightblue" points="242.175,-464.895 244.189,-475.297 249.101,-465.91 242.175,-464.895"/>
</g>
<!-- Node4 -->
<g id="node4" class="node"><title>Node4</title>
<polygon fill="white" stroke="#bfbfbf" points="0,-1298.5 0,-1377.5 116,-1377.5 116,-1298.5 0,-1298.5"/>
<text text-anchor="start" x="8" y="-1365.5" font-family="Helvetica,sans-Serif" font-size="10.00">std::deque&lt; shared</text>
<text text-anchor="start" x="8" y="-1354.5" font-family="Helvetica,sans-Serif" font-size="10.00">_ptr&lt; pfasst::ISweeper</text>
<text text-anchor="middle" x="58" y="-1343.5" font-family="Helvetica,sans-Serif" font-size="10.00">&lt; time &gt; &gt; &gt;</text>
<polyline fill="none" stroke="#bfbfbf" points="0,-1336.5 116,-1336.5 "/>
<text text-anchor="start" x="8" y="-1324.5" font-family="Helvetica,sans-Serif" font-size="10.00">+ elements</text>
<polyline fill="none" stroke="#bfbfbf" points="0,-1317.5 116,-1317.5 "/>
<text text-anchor="middle" x="58" y="-1305.5" font-family="Helvetica,sans-Serif" font-size="10.00"> </text>
</g>
<!-- Node4&#45;&gt;Node3 -->
<g id="edge3" class="edge"><title>Node4&#45;&gt;Node3</title>
<path fill="none" stroke="#404040" d="M68.3256,-1298.45C81.7308,-1248.41 106.21,-1157.03 129.795,-1068.98"/>
<polygon fill="none" stroke="#404040" points="129.861,-1068.74 127.549,-1061.91 132.966,-1057.15 135.277,-1063.98 129.861,-1068.74"/>
<text text-anchor="middle" x="105" y="-1248.5" font-family="Helvetica,sans-Serif" font-size="10.00"> #levels</text>
</g>
<!-- Node5 -->
<g id="node5" class="node"><title>Node5</title>
<g id="a_node5"><a xlink:title="STL class. ">
<polygon fill="white" stroke="#bfbfbf" points="139.5,-1436.5 139.5,-1493.5 230.5,-1493.5 230.5,-1436.5 139.5,-1436.5"/>
<text text-anchor="middle" x="185" y="-1481.5" font-family="Helvetica,sans-Serif" font-size="10.00">std::deque&lt; T &gt;</text>
<polyline fill="none" stroke="#bfbfbf" points="139.5,-1474.5 230.5,-1474.5 "/>
<text text-anchor="middle" x="185" y="-1462.5" font-family="Helvetica,sans-Serif" font-size="10.00"> </text>
<polyline fill="none" stroke="#bfbfbf" points="139.5,-1455.5 230.5,-1455.5 "/>
<text text-anchor="middle" x="185" y="-1443.5" font-family="Helvetica,sans-Serif" font-size="10.00"> </text>
</a>
</g>
</g>
<!-- Node5&#45;&gt;Node4 -->
<g id="edge4" class="edge"><title>Node5&#45;&gt;Node4</title>
<path fill="none" stroke="orange" d="M129.588,-1450.99C110.836,-1444.04 91.2998,-1433.59 78,-1418 68.4496,-1406.81 63.3581,-1391.67 60.6789,-1377.64"/>
<polygon fill="orange" stroke="orange" points="128.691,-1454.38 139.285,-1454.31 130.958,-1447.76 128.691,-1454.38"/>
<text text-anchor="start" x="78" y="-1410" font-family="Helvetica,sans-Serif" font-size="10.00"> &lt; shared_ptr&lt; pfasst</text>
<text text-anchor="middle" x="130" y="-1399" font-family="Helvetica,sans-Serif" font-size="10.00">::ISweeper&lt; time &gt; &gt; &gt;</text>
</g>
<!-- Node7 -->
<g id="node7" class="node"><title>Node7</title>
<polygon fill="white" stroke="#bfbfbf" points="134,-1298.5 134,-1377.5 248,-1377.5 248,-1298.5 134,-1298.5"/>
<text text-anchor="start" x="142" y="-1365.5" font-family="Helvetica,sans-Serif" font-size="10.00">std::deque&lt; shared</text>
<text text-anchor="start" x="142" y="-1354.5" font-family="Helvetica,sans-Serif" font-size="10.00">_ptr&lt; pfasst::ITransfer</text>
<text text-anchor="middle" x="191" y="-1343.5" font-family="Helvetica,sans-Serif" font-size="10.00">&lt; time &gt; &gt; &gt;</text>
<polyline fill="none" stroke="#bfbfbf" points="134,-1336.5 248,-1336.5 "/>
<text text-anchor="start" x="142" y="-1324.5" font-family="Helvetica,sans-Serif" font-size="10.00">+ elements</text>
<polyline fill="none" stroke="#bfbfbf" points="134,-1317.5 248,-1317.5 "/>
<text text-anchor="middle" x="191" y="-1305.5" font-family="Helvetica,sans-Serif" font-size="10.00"> </text>
</g>
<!-- Node5&#45;&gt;Node7 -->
<g id="edge7" class="edge"><title>Node5&#45;&gt;Node7</title>
<path fill="none" stroke="orange" d="M185.071,-1425.95C185.223,-1416.18 185.504,-1405.7 186,-1396 186.304,-1390.05 186.741,-1383.75 187.231,-1377.61"/>
<polygon fill="orange" stroke="orange" points="181.569,-1426.15 184.952,-1436.19 188.568,-1426.24 181.569,-1426.15"/>
<text text-anchor="start" x="186" y="-1410" font-family="Helvetica,sans-Serif" font-size="10.00"> &lt; shared_ptr&lt; pfasst</text>
<text text-anchor="middle" x="237" y="-1399" font-family="Helvetica,sans-Serif" font-size="10.00">::ITransfer&lt; time &gt; &gt; &gt;</text>
</g>
<!-- Node6 -->
<g id="node6" class="node"><title>Node6</title>
<polygon fill="white" stroke="#bfbfbf" points="233.5,-1541.5 233.5,-1598.5 262.5,-1598.5 262.5,-1541.5 233.5,-1541.5"/>
<text text-anchor="middle" x="248" y="-1586.5" font-family="Helvetica,sans-Serif" font-size="10.00">T</text>
<polyline fill="none" stroke="#bfbfbf" points="233.5,-1579.5 262.5,-1579.5 "/>
<text text-anchor="middle" x="248" y="-1567.5" font-family="Helvetica,sans-Serif" font-size="10.00"> </text>
<polyline fill="none" stroke="#bfbfbf" points="233.5,-1560.5 262.5,-1560.5 "/>
<text text-anchor="middle" x="248" y="-1548.5" font-family="Helvetica,sans-Serif" font-size="10.00"> </text>
</g>
<!-- Node6&#45;&gt;Node5 -->
<g id="edge5" class="edge"><title>Node6&#45;&gt;Node5</title>
<path fill="none" stroke="#404040" d="M233.416,-1547.16C228.438,-1539.57 222.895,-1530.96 218,-1523 214.278,-1516.95 210.418,-1510.47 206.707,-1504.14"/>
<polygon fill="none" stroke="#404040" points="206.679,-1504.09 200.207,-1500.91 200.653,-1493.72 207.125,-1496.9 206.679,-1504.09"/>
<text text-anchor="middle" x="243.5" y="-1515" font-family="Helvetica,sans-Serif" font-size="10.00"> +elements</text>
</g>
<!-- Node9 -->
<g id="node9" class="node"><title>Node9</title>
<g id="a_node9"><a xlink:title="STL class. ">
<polygon fill="white" stroke="#bfbfbf" points="256.5,-1436.5 256.5,-1493.5 345.5,-1493.5 345.5,-1436.5 256.5,-1436.5"/>
<text text-anchor="middle" x="301" y="-1481.5" font-family="Helvetica,sans-Serif" font-size="10.00">std::vector&lt; T &gt;</text>
<polyline fill="none" stroke="#bfbfbf" points="256.5,-1474.5 345.5,-1474.5 "/>
<text text-anchor="middle" x="301" y="-1462.5" font-family="Helvetica,sans-Serif" font-size="10.00"> </text>
<polyline fill="none" stroke="#bfbfbf" points="256.5,-1455.5 345.5,-1455.5 "/>
<text text-anchor="middle" x="301" y="-1443.5" font-family="Helvetica,sans-Serif" font-size="10.00"> </text>
</a>
</g>
</g>
<!-- Node6&#45;&gt;Node9 -->
<g id="edge10" class="edge"><title>Node6&#45;&gt;Node9</title>
<path fill="none" stroke="#404040" d="M262.203,-1541.4C268.025,-1530.08 274.865,-1516.79 281.166,-1504.54"/>
<polygon fill="none" stroke="#404040" points="281.267,-1504.35 280.456,-1497.18 286.758,-1493.68 287.569,-1500.84 281.267,-1504.35"/>
<text text-anchor="middle" x="302.5" y="-1515" font-family="Helvetica,sans-Serif" font-size="10.00"> +elements</text>
</g>
<!-- Node7&#45;&gt;Node3 -->
<g id="edge6" class="edge"><title>Node7&#45;&gt;Node3</title>
<path fill="none" stroke="#404040" d="M191,-1298.45C191,-1277.25 191,-1248.62 191,-1215.97"/>
<polygon fill="none" stroke="#404040" points="191,-1215.76 187,-1209.76 191,-1203.76 195,-1209.76 191,-1215.76"/>
<text text-anchor="middle" x="212" y="-1248.5" font-family="Helvetica,sans-Serif" font-size="10.00"> #transfer</text>
</g>
<!-- Node8 -->
<g id="node8" class="node"><title>Node8</title>
<polygon fill="white" stroke="#bfbfbf" points="247,-1222.5 247,-1279.5 355,-1279.5 355,-1222.5 247,-1222.5"/>
<text text-anchor="middle" x="301" y="-1267.5" font-family="Helvetica,sans-Serif" font-size="10.00">std::vector&lt; size_t &gt;</text>
<polyline fill="none" stroke="#bfbfbf" points="247,-1260.5 355,-1260.5 "/>
<text text-anchor="start" x="255" y="-1248.5" font-family="Helvetica,sans-Serif" font-size="10.00">+ elements</text>
<polyline fill="none" stroke="#bfbfbf" points="247,-1241.5 355,-1241.5 "/>
<text text-anchor="middle" x="301" y="-1229.5" font-family="Helvetica,sans-Serif" font-size="10.00"> </text>
</g>
<!-- Node8&#45;&gt;Node2 -->
<g id="edge8" class="edge"><title>Node8&#45;&gt;Node2</title>
<path fill="none" stroke="#404040" d="M299.759,-1222.4C294.489,-1105.2 273.828,-645.762 265.017,-449.821"/>
<polygon fill="none" stroke="#404040" points="265.006,-449.571 260.74,-443.757 264.466,-437.583 268.732,-443.398 265.006,-449.571"/>
<text text-anchor="middle" x="323.5" y="-837" font-family="Helvetica,sans-Serif" font-size="10.00"> #nsweeps</text>
</g>
<!-- Node9&#45;&gt;Node8 -->
<g id="edge9" class="edge"><title>Node9&#45;&gt;Node8</title>
<path fill="none" stroke="orange" d="M301,-1426.16C301,-1384.1 301,-1317.18 301,-1279.72"/>
<polygon fill="orange" stroke="orange" points="297.5,-1426.28 301,-1436.28 304.5,-1426.28 297.5,-1426.28"/>
<text text-anchor="middle" x="325" y="-1404.5" font-family="Helvetica,sans-Serif" font-size="10.00"> &lt; size_t &gt;</text>
</g>
<!-- Node10 -->
<g id="node10" class="node"><title>Node10</title>
<g id="a_node10"><a xlink:href="../../d5/d14/classpfasst_1_1ICommunicator.html" target="_top" xlink:title="Abstract interface for communicators. ">
<polygon fill="white" stroke="black" points="340,-320 340,-399 456,-399 456,-320 340,-320"/>
<text text-anchor="middle" x="398" y="-387" font-family="Helvetica,sans-Serif" font-size="10.00">pfasst::ICommunicator</text>
<polyline fill="none" stroke="black" points="340,-380 456,-380 "/>
<text text-anchor="start" x="348" y="-368" font-family="Helvetica,sans-Serif" font-size="10.00">+ status</text>
<polyline fill="none" stroke="black" points="340,-361 456,-361 "/>
<text text-anchor="start" x="348" y="-349" font-family="Helvetica,sans-Serif" font-size="10.00">+ ~ICommunicator()</text>
<text text-anchor="start" x="348" y="-338" font-family="Helvetica,sans-Serif" font-size="10.00">+ size()</text>
<text text-anchor="start" x="348" y="-327" font-family="Helvetica,sans-Serif" font-size="10.00">+ rank()</text>
</a>
</g>
</g>
<!-- Node10&#45;&gt;Node1 -->
<g id="edge11" class="edge"><title>Node10&#45;&gt;Node1</title>
<path fill="none" stroke="#404040" d="M392.377,-319.86C389.389,-299.329 385.527,-272.789 381.59,-245.742"/>
<polygon fill="none" stroke="#404040" points="381.569,-245.594 376.746,-240.233 379.841,-233.719 384.663,-239.081 381.569,-245.594"/>
<text text-anchor="middle" x="401" y="-255" font-family="Helvetica,sans-Serif" font-size="10.00"> &#45;comm</text>
</g>
</g>
</svg>
