<?xml version="1.0" encoding="UTF-8" standalone="no"?>
<!DOCTYPE svg PUBLIC "-//W3C//DTD SVG 1.1//EN"
 "http://www.w3.org/Graphics/SVG/1.1/DTD/svg11.dtd">
<!-- Generated by graphviz version 2.38.0 (20140413.2041)
 -->
<!-- Title: src/pfasst/encap/poly_interp_impl.hpp Pages: 1 -->
<svg width="290pt" height="251pt"
 viewBox="0.00 0.00 290.00 251.00" xmlns="http://www.w3.org/2000/svg" xmlns:xlink="http://www.w3.org/1999/xlink">
<g id="graph0" class="graph" transform="scale(1 1) rotate(0) translate(4 247)">
<title>src/pfasst/encap/poly_interp_impl.hpp</title>
<polygon fill="white" stroke="none" points="-4,4 -4,-247 286,-247 286,4 -4,4"/>
<!-- Node1 -->
<g id="node1" class="node"><title>Node1</title>
<polygon fill="#bfbfbf" stroke="black" points="82.5,-212.5 82.5,-242.5 194.5,-242.5 194.5,-212.5 82.5,-212.5"/>
<text text-anchor="start" x="90.5" y="-230.5" font-family="Helvetica,sans-Serif" font-size="10.00">src/pfasst/encap/poly</text>
<text text-anchor="middle" x="138.5" y="-219.5" font-family="Helvetica,sans-Serif" font-size="10.00">_interp_impl.hpp</text>
</g>
<!-- Node2 -->
<g id="node2" class="node"><title>Node2</title>
<g id="a_node2"><a xlink:href="../../d0/d45/poly__interp_8hpp.html" target="_top" xlink:title="include/pfasst/encap\l/poly_interp.hpp">
<polygon fill="white" stroke="black" points="84,-145.5 84,-175.5 193,-175.5 193,-145.5 84,-145.5"/>
<text text-anchor="start" x="92" y="-163.5" font-family="Helvetica,sans-Serif" font-size="10.00">include/pfasst/encap</text>
<text text-anchor="middle" x="138.5" y="-152.5" font-family="Helvetica,sans-Serif" font-size="10.00">/poly_interp.hpp</text>
</a>
</g>
</g>
<!-- Node1&#45;&gt;Node2 -->
<g id="edge1" class="edge"><title>Node1&#45;&gt;Node2</title>
<path fill="none" stroke="midnightblue" d="M131.955,-202.403C131.505,-193.37 131.796,-183.408 132.825,-175.577"/>
<polygon fill="midnightblue" stroke="midnightblue" points="128.47,-202.736 132.822,-212.396 135.444,-202.131 128.47,-202.736"/>
</g>
<!-- Node2&#45;&gt;Node1 -->
<g id="edge2" class="edge"><title>Node2&#45;&gt;Node1</title>
<path fill="none" stroke="midnightblue" d="M145.044,-185.565C145.495,-194.596 145.206,-204.56 144.178,-212.396"/>
<polygon fill="midnightblue" stroke="midnightblue" points="148.528,-185.236 144.175,-175.577 141.555,-185.842 148.528,-185.236"/>
</g>
<!-- Node3 -->
<g id="node3" class="node"><title>Node3</title>
<g id="a_node3"><a xlink:href="../../d0/dbe/spectral__transfer__1d_8hpp.html" target="_top" xlink:title="examples/advection\l_diffusion/spectral\l_transfer_1d.hpp">
<polygon fill="white" stroke="black" points="84.5,-67.5 84.5,-108.5 192.5,-108.5 192.5,-67.5 84.5,-67.5"/>
<text text-anchor="start" x="92.5" y="-96.5" font-family="Helvetica,sans-Serif" font-size="10.00">examples/advection</text>
<text text-anchor="start" x="92.5" y="-85.5" font-family="Helvetica,sans-Serif" font-size="10.00">_diffusion/spectral</text>
<text text-anchor="middle" x="138.5" y="-74.5" font-family="Helvetica,sans-Serif" font-size="10.00">_transfer_1d.hpp</text>
</a>
</g>
</g>
<!-- Node2&#45;&gt;Node3 -->
<g id="edge3" class="edge"><title>Node2&#45;&gt;Node3</title>
<path fill="none" stroke="midnightblue" d="M138.5,-134.982C138.5,-126.347 138.5,-116.762 138.5,-108.588"/>
<polygon fill="midnightblue" stroke="midnightblue" points="135,-135.233 138.5,-145.233 142,-135.233 135,-135.233"/>
</g>
<!-- Node4 -->
<g id="node4" class="node"><title>Node4</title>
<g id="a_node4"><a xlink:href="../../d1/d49/mpi__pfasst_8cpp.html" target="_top" xlink:title="Advection&#45;Diffusion with MPI&#45;enabled PFASST. ">
<polygon fill="white" stroke="black" points="0,-0.5 0,-30.5 127,-30.5 127,-0.5 0,-0.5"/>
<text text-anchor="start" x="8" y="-18.5" font-family="Helvetica,sans-Serif" font-size="10.00">examples/advection</text>
<text text-anchor="middle" x="63.5" y="-7.5" font-family="Helvetica,sans-Serif" font-size="10.00">_diffusion/mpi_pfasst.cpp</text>
</a>
</g>
</g>
<!-- Node3&#45;&gt;Node4 -->
<g id="edge4" class="edge"><title>Node3&#45;&gt;Node4</title>
<path fill="none" stroke="midnightblue" d="M110.106,-60.3098C99.4785,-50.3198 87.8122,-39.3535 78.8102,-30.8916"/>
<polygon fill="midnightblue" stroke="midnightblue" points="107.925,-63.0629 117.608,-67.3618 112.719,-57.9625 107.925,-63.0629"/>
</g>
<!-- Node5 -->
<g id="node5" class="node"><title>Node5</title>
<g id="a_node5"><a xlink:href="../../d9/d86/serial__mlsdc_8cpp.html" target="_top" xlink:title="Advection&#45;Diffusion with serial MLSDC. ">
<polygon fill="white" stroke="black" points="145,-0.5 145,-30.5 282,-30.5 282,-0.5 145,-0.5"/>
<text text-anchor="start" x="153" y="-18.5" font-family="Helvetica,sans-Serif" font-size="10.00">examples/advection</text>
<text text-anchor="middle" x="213.5" y="-7.5" font-family="Helvetica,sans-Serif" font-size="10.00">_diffusion/serial_mlsdc.cpp</text>
</a>
</g>
</g>
<!-- Node3&#45;&gt;Node5 -->
<g id="edge5" class="edge"><title>Node3&#45;&gt;Node5</title>
<path fill="none" stroke="midnightblue" d="M166.894,-60.3098C177.521,-50.3198 189.188,-39.3535 198.19,-30.8916"/>
<polygon fill="midnightblue" stroke="midnightblue" points="164.281,-57.9625 159.392,-67.3618 169.075,-63.0629 164.281,-57.9625"/>
</g>
</g>
</svg>
